<?xml version="1.0" encoding="UTF-8"?>
<svg width="201px" height="101px" viewBox="0 0 201 101" version="1.1" xmlns="http://www.w3.org/2000/svg" xmlns:xlink="http://www.w3.org/1999/xlink">
    <title>tw_cube_5_4</title>
    <g id="Tw_cube" stroke="none" stroke-width="1" fill="none" fill-rule="evenodd">
        <g id="tw_cube_5_4" fill-rule="nonzero">
            <path d="M34.47,0.05 L89.13,6.52 C89.13,6.52 91.15,6.77 91.63,7.41 C92.1,8.04 91.63,9.87 91.63,9.87 C91.63,9.87 81.48,25.3 79.89,33.98 C79.19,37.83 79.26,43.35 80.99,49.09 C81.99,52.38 86.49,59.24 86.49,59.24 C86.49,59.24 87.55,60.62 87.67,61.64 C87.79,62.66 87.03,63.92 87.03,63.92 L72.07,97.42 C72.07,97.42 71.19,99.44 70.19,99.83 C69.2,100.23 66.79,99.5 66.79,99.5 L5.75,83.2 C5.75,83.2 4.13,82.52 3.83,81.89 C3.53,81.26 4.03,79.53 4.03,79.53 L19.35,41.43 L0.85,21.76 C0.85,21.76 -0.08,20.22 4.4408921e-16,19.5 C0.09,18.77 1.38,17.46 1.38,17.46 L31.68,0.63 C31.68,0.63 32.38,0.15 32.85,0.05 C33.34,-0.05 34.45,0.05 34.45,0.05 L34.47,0.05 Z" id="Path" fill="#000000"></path>
            <path d="M57.9,20.1 C57.9,20.1 58.47,19.63 58.93,19.48 C59.39,19.34 60.33,19.31 60.33,19.31 L79.65,22.19 L74.47,30.08 L52.17,26.5 L57.91,20.1 L57.9,20.1 Z" id="Path" fill="#696969"></path>
            <path d="M66.04,11.6 C66.04,11.6 66.51,11.22 66.83,11.14 C67.15,11.06 67.9,11.14 67.9,11.14 L85.13,13.54 L80.83,20.03 L62.9,17.43 C62.9,17.43 62.11,17.21 61.93,16.98 C61.75,16.74 61.93,16.18 61.93,16.18 L66.03,11.6 L66.04,11.6 Z" id="Path" fill="#FFED00"></path>
            <path d="M71.8,4.94 L68.6,8.48 C68.6,8.48 68.47,8.98 68.6,9.23 C68.72,9.48 69.16,9.59 69.16,9.59 L86.07,11.77 L89.57,7.02 L71.82,4.94 L71.8,4.94 Z" id="Path" fill="#696969"></path>
            <path d="M26.87,22.16 L48.57,25.75 L53.97,20.04 C53.97,20.04 54.72,19.34 54.31,18.94 C53.91,18.54 53.05,18.37 53.05,18.37 L36.96,16.01 C36.96,16.01 35.72,15.91 35.15,16.01 C34.57,16.12 33.65,16.64 33.65,16.64 L26.87,22.16 L26.87,22.16 Z" id="Path" fill="#FFED00"></path>
            <path d="M43.53,8.79 C43.53,8.79 44.1,8.43 44.52,8.36 C44.92,8.28 45.93,8.36 45.93,8.36 L61.05,10.28 C61.05,10.28 61.85,10.31 62.1,10.78 C62.36,11.23 61.84,11.78 61.84,11.78 L57.91,15.56 C57.91,15.56 57.35,16 56.95,16.12 C56.55,16.25 55.59,16.27 55.59,16.27 L39.19,13.87 C39.19,13.87 38.55,13.78 38.32,13.38 C38.09,12.98 38.6,12.53 38.6,12.53 L43.53,8.79 L43.53,8.79 Z" id="Path" fill="#FFED00"></path>
            <path d="M51.44,2.5 L47.64,5.43 C47.64,5.43 47.04,5.88 47.27,6.41 C47.5,6.95 48.22,7.01 48.22,7.01 L62.66,8.71 C62.66,8.71 63.6,8.68 64,8.62 C64.4,8.55 65.38,8.02 65.38,8.02 L69,4.55 L51.44,2.5 Z" id="Path" fill="#696969"></path>
            <path d="M33.35,0.37 L48.22,2.17 L44.19,5.13 C44.19,5.13 43.24,5.7 42.7,5.82 C42.13,5.94 40.87,5.82 40.87,5.82 L27,3.94 L33.36,0.37 L33.35,0.37 Z" id="Path" fill="#696969"></path>
            <path d="M24.75,5.11 L16.15,10.01 L32.27,12.3 C32.27,12.3 33.49,12.4 34.01,12.3 C34.53,12.2 35.37,11.72 35.37,11.72 L40.37,8.05 C40.37,8.05 40.7,7.8 40.5,7.37 C40.3,6.95 39.6,6.9 39.6,6.9 L24.74,5.1 L24.75,5.11 Z" id="Path" fill="#FFED00"></path>
            <path d="M13.46,11.77 L29.52,13.9 C29.52,13.9 30.38,14 30.68,14.53 C30.98,15.04 30.34,15.56 30.34,15.56 L23.14,20.86 L2.93,17.62 L13.46,11.77 L13.46,11.77 Z" id="Path" fill="#696969"></path>
            <path d="M82.1,25.05 L77.9,32.25 L79.1,38.89 C79.1,38.89 79.05,35.61 79.58,33.07 C80.1,30.54 82.1,25.05 82.1,25.05 Z" id="Path" fill="#696969"></path>
            <path d="M51.57,30.7 L74.17,34.62 L77.1,44.25 L57.98,44.67 C57.98,44.67 56.22,44.37 55.58,43.98 C54.95,43.61 54.35,42.51 54.35,42.51 L51.57,30.7 Z" id="Path" fill="#696969"></path>
            <path d="M25.52,26.25 L47.08,29.43 L50.19,41.95 C50.19,41.95 50.39,42.93 49.73,43.8 C49.08,44.67 48.08,44.67 48.08,44.67 L29.35,44.67 C29.35,44.67 27.98,44.27 27.55,43.8 C27.12,43.33 26.87,41.95 26.87,41.95 C26.87,41.95 26.77,37.05 26.6,35.04 C26.1,29.29 25.52,26.25 25.52,26.25 L25.52,26.25 Z" id="Path" fill="#696969"></path>
            <path d="M3.6,21.94 L21.48,25.38 C21.48,25.38 22.56,31.19 22.88,34.02 C23.22,36.84 23.46,42.25 23.46,42.25 L3.6,21.95 L3.6,21.94 Z" id="Path" fill="#696969"></path>
            <path d="M77.9,47.5 C77.9,47.5 78.56,50.7 79.2,52 C79.83,53.3 80.79,54.81 80.79,54.81 L70.04,60.63 C70.04,60.63 69.28,61.13 68.94,61.01 C68.61,60.89 68.13,59.97 68.13,59.97 C68.13,59.97 68.26,54.27 70.04,52 C71.82,49.73 77.91,47.5 77.91,47.5 L77.9,47.5 Z" id="Path" fill="#EF7F1A"></path>
            <path d="M58.12,48.05 L71.24,47.5 C71.24,47.5 66.55,49.71 65.4,52.58 C64.25,55.45 64.68,63.81 64.68,63.81 L54,69.13 C54,69.13 52.8,69.78 52.51,69.13 C52.23,68.48 52.87,67.33 53.01,66.87 C54.38,62.74 54.95,60.68 55.31,58.38 C55.9,54.56 55.71,50.53 55.71,50.53 C55.71,50.53 55.85,48.82 56.19,48.47 C56.54,48.12 58.12,48.05 58.12,48.05 L58.12,48.05 Z" id="Path" fill="#EF7F1A"></path>
            <path d="M29.6,48.11 L48.73,48.11 C48.73,48.11 50.56,48.39 51.07,48.95 C51.57,49.51 51.57,51.25 51.57,51.25 C51.57,51.25 51.27,57.01 50.64,59.98 C50,62.96 47.82,68.69 47.82,68.69 L29.61,48.11 L29.6,48.11 Z" id="Path" fill="#EF7F1A"></path>
            <path d="M83.85,56.35 C83.85,56.35 83.31,58.21 83.31,60.81 C83.31,63.41 83.85,69.65 83.85,69.65 L86.94,62.73 C86.94,62.73 87.14,62.2 87.14,61.87 C87.14,61.53 86.94,61.03 86.94,61.03 L83.84,56.35 L83.85,56.35 Z" id="Path" fill="#EF7F1A"></path>
            <path d="M77.94,82.07 L82.44,71.84 C82.44,71.84 81.29,66.99 81,64.52 C80.72,62.05 81.06,59.98 81.06,59.98 C81.06,59.98 81.53,58.34 81.31,58.08 C81.08,57.81 80.19,58.4 80.19,58.4 L71.64,63.53 C71.64,63.53 70.13,64.61 69.94,65.37 C69.74,66.13 70.54,67.79 70.54,67.79 L77.94,82.07 Z" id="Path" fill="#EF7F1A"></path>
            <path d="M70.72,97.42 L76.53,84.67 L68.13,68.69 C68.13,68.69 67.23,67.19 66.53,66.97 C65.84,66.75 64.49,67.54 64.49,67.54 L52.44,74.25 L70.72,97.42 L70.72,97.42 Z" id="Path" fill="#EF7F1A"></path>
            <path d="M31.1,54.76 L31.1,59.45 C31.1,59.45 31.07,60.81 31.3,61.36 C31.54,61.92 32.47,62.66 32.47,62.66 L43.29,69.46 L31.1,54.76 L31.1,54.76 Z" id="Path" fill="#009846"></path>
            <path d="M24.94,48.11 C24.94,48.11 23.72,49.25 22.64,49.98 C21.56,50.72 19.27,51.95 19.27,51.95 C19.27,51.95 18.39,52.55 18.27,53 C18.15,53.45 17.47,54.03 18.77,55 C20.05,55.98 25.96,59.03 25.96,59.03 C25.96,59.03 27.3,59.88 27.71,59.68 C28.13,59.47 28.33,57.85 28.33,57.85 L28.33,51.95 L24.94,48.11 L24.94,48.11 Z" id="Path" fill="#009846"></path>
            <path d="M19.91,42.25 L17.39,49.35 C17.39,49.35 17.24,49.87 17.39,49.98 C17.54,50.1 18.25,49.98 18.25,49.98 L24.33,46.38 L19.91,42.25 L19.91,42.25 Z" id="Path" fill="#009846"></path>
            <path d="M49.12,77.29 L66.43,98.74 L49.51,94.06 C49.51,94.06 48.77,93.84 48.42,93.26 C48.08,92.7 48.14,91.79 48.14,91.79 L49.12,77.29 L49.12,77.29 Z" id="Path" fill="#009846"></path>
            <path d="M25.54,87.07 L45.3,92.37 L46.62,77.97 C46.62,77.97 46.62,76.18 46.22,75.47 C45.81,74.74 44.2,73.7 44.2,73.7 L31.66,66.92 C31.66,66.92 30.55,66.7 30.15,66.92 C29.75,67.15 29.38,68.2 29.38,68.2 L25.54,87.07 Z" id="Path" fill="#009846"></path>
            <path d="M15.02,54.41 L5.14,78.87 C5.14,78.87 4.7,79.43 5.14,80.47 C5.58,81.49 6.78,81.99 6.78,81.99 L22.61,86.29 L26.45,67.63 C26.45,67.63 27.09,65.26 26.79,64.11 C26.49,62.95 25.76,62.31 24.59,61.85 C23.42,61.41 21.86,61.01 19,58.78 C16.14,56.54 15.02,54.41 15.02,54.41 Z" id="Path" fill="#009846"></path>
            <path d="M143.47,1.05 L198.13,7.52 C198.13,7.52 200.15,7.77 200.63,8.41 C201.1,9.04 200.63,10.87 200.63,10.87 C200.63,10.87 190.48,26.3 188.89,34.98 C188.19,38.83 188.26,44.35 189.99,50.09 C190.99,53.38 195.49,60.24 195.49,60.24 C195.49,60.24 196.55,61.62 196.67,62.64 C196.8,63.66 196.03,64.92 196.03,64.92 L181.07,98.42 C181.07,98.42 180.19,100.44 179.19,100.83 C178.2,101.23 175.79,100.5 175.79,100.5 L114.75,84.2 C114.75,84.2 113.13,83.52 112.83,82.89 C112.53,82.26 113.03,80.53 113.03,80.53 L128.35,42.43 L109.85,22.76 C109.85,22.76 108.92,21.22 109.01,20.5 C109.1,19.77 110.39,18.46 110.39,18.46 L140.69,1.63 C140.69,1.63 141.39,1.15 141.87,1.05 C142.35,0.95 143.47,1.05 143.47,1.05 Z" id="Path" fill="#000000"></path>
            <path d="M166.9,21.1 C166.9,21.1 167.47,20.63 167.93,20.48 C168.39,20.34 169.33,20.31 169.33,20.31 L188.65,23.19 L183.47,31.08 L161.17,27.5 L166.91,21.1 L166.9,21.1 Z" id="Path" fill="#696969"></path>
            <path d="M175.04,12.6 C175.04,12.6 175.51,12.22 175.83,12.14 C176.15,12.06 176.9,12.14 176.9,12.14 L194.13,14.54 L189.83,21.03 L171.9,18.43 C171.9,18.43 171.11,18.21 170.93,17.98 C170.75,17.75 170.93,17.18 170.93,17.18 L175.03,12.6 L175.04,12.6 Z" id="Path" fill="#696969"></path>
            <path d="M180.8,5.94 L177.59,9.48 C177.59,9.48 177.46,9.98 177.59,10.23 C177.71,10.48 178.15,10.59 178.15,10.59 L195.06,12.77 L198.56,8.02 L180.81,5.94 L180.8,5.94 Z" id="Path" fill="#696969"></path>
            <path d="M135.87,23.16 L157.57,26.75 L162.97,21.04 C162.97,21.04 163.72,20.34 163.31,19.94 C162.91,19.54 162.05,19.37 162.05,19.37 L145.96,17.01 C145.96,17.01 144.72,16.91 144.15,17.01 C143.57,17.12 142.65,17.64 142.65,17.64 L135.87,23.16 L135.87,23.16 Z" id="Path" fill="#FFED00"></path>
            <path d="M152.53,9.79 C152.53,9.79 153.1,9.43 153.51,9.36 C153.93,9.28 154.93,9.36 154.93,9.36 L170.05,11.28 C170.05,11.28 170.85,11.31 171.1,11.78 C171.36,12.23 170.84,12.78 170.84,12.78 L166.91,16.56 C166.91,16.56 166.35,17 165.95,17.12 C165.55,17.25 164.59,17.27 164.59,17.27 L148.19,14.87 C148.19,14.87 147.54,14.78 147.32,14.38 C147.09,13.98 147.6,13.53 147.6,13.53 L152.53,9.79 L152.53,9.79 Z" id="Path" fill="#FFED00"></path>
            <path d="M160.44,3.5 L156.64,6.43 C156.64,6.43 156.04,6.88 156.27,7.41 C156.5,7.95 157.22,8.01 157.22,8.01 L171.66,9.71 C171.66,9.71 172.59,9.69 173,9.63 C173.4,9.56 174.38,9.03 174.38,9.03 L178,5.55 L160.44,3.5 Z" id="Path" fill="#696969"></path>
            <path d="M142.35,1.37 L157.22,3.17 L153.19,6.13 C153.19,6.13 152.24,6.71 151.71,6.82 C151.13,6.94 149.87,6.82 149.87,6.82 L136,4.94 L142.36,1.37 L142.35,1.37 Z" id="Path" fill="#696969"></path>
            <path d="M133.75,6.11 L125.15,11.01 L141.28,13.3 C141.28,13.3 142.49,13.4 143.01,13.3 C143.53,13.2 144.37,12.72 144.37,12.72 L149.37,9.05 C149.37,9.05 149.69,8.8 149.49,8.37 C149.29,7.95 148.59,7.9 148.59,7.9 L133.75,6.1 L133.75,6.11 Z" id="Path" fill="#696969"></path>
            <path d="M122.46,12.77 L138.52,14.9 C138.52,14.9 139.38,15 139.68,15.53 C139.98,16.04 139.34,16.56 139.34,16.56 L132.14,21.86 L111.93,18.62 L122.46,12.77 L122.46,12.77 Z" id="Path" fill="#696969"></path>
            <path d="M191.1,26.05 L186.9,33.25 L188.1,39.89 C188.1,39.89 188.05,36.61 188.58,34.07 C189.1,31.54 191.1,26.05 191.1,26.05 Z" id="Path" fill="#696969"></path>
            <path d="M160.57,31.7 L183.17,35.62 L186.1,45.25 L166.98,45.67 C166.98,45.67 165.22,45.37 164.58,44.98 C163.95,44.61 163.35,43.51 163.35,43.51 L160.57,31.7 L160.57,31.7 Z" id="Path" fill="#696969"></path>
            <path d="M134.51,27.25 L156.08,30.43 L159.19,42.95 C159.19,42.95 159.39,43.93 158.73,44.8 C158.08,45.67 157.08,45.67 157.08,45.67 L138.35,45.67 C138.35,45.67 136.98,45.27 136.55,44.8 C136.12,44.33 135.87,42.95 135.87,42.95 C135.87,42.95 135.77,38.05 135.6,36.04 C135.1,30.29 134.51,27.25 134.51,27.25 L134.51,27.25 Z" id="Path" fill="#696969"></path>
            <path d="M112.6,22.94 L130.48,26.38 C130.48,26.38 131.56,32.19 131.88,35.02 C132.22,37.84 132.46,43.25 132.46,43.25 L112.6,22.95 L112.6,22.94 Z" id="Path" fill="#696969"></path>
            <path d="M186.9,48.5 C186.9,48.5 187.56,51.7 188.2,53 C188.83,54.3 189.79,55.81 189.79,55.81 L179.04,61.63 C179.04,61.63 178.28,62.13 177.94,62.01 C177.62,61.89 177.13,60.97 177.13,60.97 C177.13,60.97 177.26,55.27 179.04,53 C180.82,50.73 186.91,48.5 186.91,48.5 L186.9,48.5 Z" id="Path" fill="#EF7F1A"></path>
            <path d="M167.12,49.05 L180.24,48.5 C180.24,48.5 175.55,50.71 174.4,53.58 C173.25,56.45 173.68,64.81 173.68,64.81 L163,70.13 C163,70.13 161.8,70.78 161.51,70.13 C161.23,69.48 161.87,68.33 162.01,67.87 C163.38,63.74 163.95,61.68 164.31,59.38 C164.9,55.56 164.71,51.53 164.71,51.53 C164.71,51.53 164.85,49.82 165.19,49.47 C165.54,49.12 167.12,49.05 167.12,49.05 L167.12,49.05 Z" id="Path" fill="#EF7F1A"></path>
            <path d="M138.6,49.11 L157.74,49.11 C157.74,49.11 159.56,49.39 160.07,49.95 C160.57,50.51 160.57,52.25 160.57,52.25 C160.57,52.25 160.27,58.01 159.64,60.98 C159,63.96 156.82,69.69 156.82,69.69 L138.61,49.11 L138.6,49.11 Z" id="Path" fill="#EF7F1A"></path>
            <path d="M192.85,57.35 C192.85,57.35 192.31,59.21 192.31,61.81 C192.31,64.41 192.85,70.65 192.85,70.65 L195.94,63.73 C195.94,63.73 196.14,63.2 196.14,62.87 C196.14,62.53 195.94,62.03 195.94,62.03 L192.84,57.35 L192.85,57.35 Z" id="Path" fill="#EF7F1A"></path>
            <path d="M186.94,83.07 L191.44,72.84 C191.44,72.84 190.29,67.99 190,65.52 C189.72,63.05 190.06,60.98 190.06,60.98 C190.06,60.98 190.53,59.34 190.31,59.08 C190.08,58.81 189.19,59.4 189.19,59.4 L180.64,64.53 C180.64,64.53 179.13,65.61 178.94,66.37 C178.74,67.13 179.54,68.79 179.54,68.79 L186.94,83.07 Z" id="Path" fill="#EF7F1A"></path>
            <path d="M179.72,98.42 L185.53,85.67 L177.13,69.69 C177.13,69.69 176.23,68.19 175.53,67.97 C174.84,67.75 173.49,68.54 173.49,68.54 L161.44,75.25 L179.72,98.42 L179.72,98.42 Z" id="Path" fill="#EF7F1A"></path>
            <path d="M140.1,55.76 L140.1,60.45 C140.1,60.45 140.07,61.81 140.3,62.36 C140.54,62.92 141.46,63.66 141.46,63.66 L152.29,70.46 L140.1,55.76 L140.1,55.76 Z" id="Path" fill="#009846"></path>
            <path d="M133.94,49.11 C133.94,49.11 132.72,50.25 131.64,50.98 C130.56,51.72 128.28,52.95 128.28,52.95 C128.28,52.95 127.39,53.55 127.27,54 C127.14,54.45 126.47,55.03 127.77,56 C129.05,56.98 134.96,60.03 134.96,60.03 C134.96,60.03 136.3,60.88 136.71,60.68 C137.13,60.47 137.33,58.85 137.33,58.85 L137.33,52.95 L133.94,49.11 Z" id="Path" fill="#009846"></path>
            <path d="M128.91,43.25 L126.39,50.35 C126.39,50.35 126.24,50.87 126.39,50.98 C126.54,51.1 127.25,50.98 127.25,50.98 L133.33,47.38 L128.91,43.25 L128.91,43.25 Z" id="Path" fill="#009846"></path>
            <path d="M158.12,78.29 L175.43,99.74 L158.51,95.06 C158.51,95.06 157.77,94.84 157.42,94.26 C157.08,93.7 157.14,92.79 157.14,92.79 L158.12,78.29 L158.12,78.29 Z" id="Path" fill="#009846"></path>
            <path d="M134.54,88.07 L154.3,93.37 L155.62,78.97 C155.62,78.97 155.62,77.18 155.22,76.47 C154.81,75.74 153.2,74.7 153.2,74.7 L140.66,67.92 C140.66,67.92 139.55,67.7 139.15,67.92 C138.75,68.15 138.38,69.2 138.38,69.2 L134.54,88.07 L134.54,88.07 Z" id="Path" fill="#009846"></path>
            <path d="M124.02,55.41 L114.14,79.87 C114.14,79.87 113.7,80.43 114.14,81.47 C114.58,82.49 115.78,82.99 115.78,82.99 L131.61,87.29 L135.45,68.63 C135.45,68.63 136.1,66.26 135.79,65.11 C135.49,63.95 134.76,63.31 133.59,62.85 C132.42,62.41 130.86,62.01 128,59.78 C125.14,57.54 124.02,55.41 124.02,55.41 L124.02,55.41 Z" id="Path" fill="#009846"></path>
        </g>
    </g>
</svg>