<?xml version="1.0" encoding="UTF-8"?>
<svg width="207px" height="100px" viewBox="0 0 207 100" version="1.1" xmlns="http://www.w3.org/2000/svg" xmlns:xlink="http://www.w3.org/1999/xlink">
    <title>tw_cube_4_1</title>
    <g id="Tw_cube" stroke="none" stroke-width="1" fill="none" fill-rule="evenodd">
        <g id="tw_cube_4_1" fill-rule="nonzero">
            <path d="M56.76,0.38 L93.31,19.98 C93.31,19.98 94.61,20.78 94.76,21.88 C94.83,22.92 93.68,24.02 93.68,24.02 C93.68,24.02 68.33,36.38 67.16,47.3 C65.98,58.22 84.86,75.84 84.86,75.84 C84.86,75.84 86.77,77.36 86.48,78.55 C86.18,79.75 84.27,80.41 84.27,80.41 L31.62,99.2 C31.62,99.2 29.52,100.25 28.14,99.88 C26.76,99.52 26.1,98.45 26.1,98.45 L3.52,64.78 C3.52,64.78 2.43,63.26 2.43,62.57 C2.43,61.87 3.52,60.67 3.52,60.67 L14.25,48.64 C14.25,48.64 13.03,44.58 9.94,36.44 C6.84,28.3 0.59,12.64 0.59,12.64 C0.59,12.64 -0.34,9.27 0.19,8.24 C0.72,7.2 3.52,6.86 3.52,6.86 L53.82,0.12 C53.82,0.12 54.95,-0.04 55.61,0.02 C56.27,0.07 56.76,0.38 56.76,0.38 Z" id="Path" fill="#000000"></path>
            <path d="M79.05,13.39 L92.37,20.19 L76.72,22.73 L67.32,17.4 C67.32,17.4 66.64,16.86 66.64,16.43 C66.64,16.01 67.32,15.59 67.32,15.59 L79.05,13.39 Z" id="Path" fill="#696969"></path>
            <path d="M65.88,6.22 L76.08,11.63 L64.14,13.39 C64.14,13.39 62.84,13.59 62.34,13.56 C61.84,13.54 61.16,13.23 61.16,13.23 L54.4,9.18 C54.4,9.18 53.86,8.75 53.88,8.54 C53.9,8.33 54.49,7.98 54.49,7.98 L65.89,6.22 L65.88,6.22 Z" id="Path" fill="#696969"></path>
            <path d="M55.47,0.41 L63.71,4.81 L52.13,6.22 C52.13,6.22 50.53,6.36 49.9,6.32 C49.28,6.27 48.4,5.94 48.4,5.94 L42.38,2.2 L55.47,0.41 Z" id="Path" fill="#696969"></path>
            <path d="M72.61,23.3 L55.57,26.58 L46.75,20.7 C46.75,20.7 46.13,20.31 46.13,19.85 C46.13,19.39 47.08,19.15 47.08,19.15 L59.68,16.79 C59.68,16.79 60.76,16.66 61.39,16.79 C62.02,16.92 63.09,17.49 63.09,17.49 L72.61,23.29 L72.61,23.3 Z" id="Path" fill="#696969"></path>
            <path d="M47.38,9.14 C47.38,9.14 48.48,9.04 49.05,9.14 C49.61,9.24 50.4,9.64 50.4,9.64 L56.96,13.7 C56.96,13.7 57.31,14.09 57.23,14.26 C57.14,14.43 56.33,14.66 56.33,14.66 L44.06,16.97 C44.06,16.97 42.59,17.23 42,17.15 C41.4,17.06 40.61,16.49 40.61,16.49 L34.51,12.64 C34.51,12.64 33.63,12.09 33.83,11.59 C34.03,11.09 34.8,10.94 34.8,10.94 L47.38,9.14 L47.38,9.14 Z" id="Path" fill="#FFED00"></path>
            <path d="M39.05,2.57 L44.8,6.22 C44.8,6.22 45.35,6.82 45.28,7.05 C45.21,7.29 44.43,7.47 44.43,7.47 L32.63,9.1 C32.63,9.1 31.07,9.35 30.5,9.3 C29.93,9.26 29.2,8.84 29.2,8.84 L22.97,4.78 L39.04,2.56 L39.05,2.57 Z" id="Path" fill="#696969"></path>
            <path d="M50.88,27.42 L32.04,31.36 L22.17,23.4 L37.99,20.43 C37.99,20.43 39.5,20.33 40.15,20.43 C40.8,20.51 41.96,21.08 41.96,21.08 L50.88,27.42 L50.88,27.42 Z" id="Path" fill="#696969"></path>
            <path d="M11.62,14.65 L20.17,21.19 L35.78,18.46 C35.78,18.46 36.61,18.32 36.79,17.96 C36.98,17.6 36.53,17.16 36.53,17.16 L30.4,12.87 C30.4,12.87 29.64,12.29 29.2,12.16 C28.75,12.03 27.86,12.16 27.86,12.16 L11.62,14.66 L11.62,14.65 Z" id="Path" fill="#696969"></path>
            <path d="M2.5,7.68 L9.2,12.85 L24.43,10.4 C24.43,10.4 25.05,10.3 25.23,9.98 C25.43,9.68 25.09,9.32 25.09,9.32 L19.21,5.22 L2.51,7.68 L2.5,7.68 Z" id="Path" fill="#696969"></path>
            <path d="M78.28,26.58 L70.87,38 C70.87,38 75.61,33.38 79.5,30.8 C83.4,28.23 92.62,23.61 92.62,23.61 L78.28,26.58 Z" id="Path" fill="#696969"></path>
            <path d="M56.66,31.36 L73.63,27.3 C73.63,27.3 70.87,31.68 69.6,33.93 C68.34,36.17 66.17,40.51 66.17,40.51 L54.77,47.44 C54.77,47.44 54.67,42.27 54.99,39.54 C55.31,36.8 56.66,31.36 56.66,31.36 L56.66,31.36 Z" id="Path" fill="#696969"></path>
            <path d="M35.77,34.97 L52.3,31.77 C52.3,31.77 51.14,37.47 50.88,40.35 C50.62,43.23 50.88,47.44 50.88,47.44 L35.77,34.97 Z" id="Path" fill="#696969"></path>
            <path d="M69.26,41.22 L68.23,41.64 C68.23,41.64 65.6,46.52 66.01,51.14 C66.43,55.74 70.05,61.84 70.05,61.84 L69.26,57.8 C69.26,57.8 66.72,51.72 66.72,48.51 C66.72,45.31 69.26,41.21 69.26,41.21 L69.26,41.22 Z" id="Path" fill="#696969"></path>
            <path d="M64.9,44.73 C64.9,44.73 64.26,49.73 64.8,52.73 C65.35,55.73 68,61.85 68,61.85 L56,50.87 L64.91,44.73 L64.9,44.73 Z" id="Path" fill="#0062AC"></path>
            <path d="M70.96,60.36 C70.96,60.36 73.68,64.43 76.06,67.18 C78.45,69.94 84.01,75.44 84.01,75.44 L73.14,66.24 L70.96,60.36 L70.96,60.36 Z" id="Path" fill="#0062AC"></path>
            <polygon id="Path" fill="#696969" points="20.43 27.3 29.11 35.05 48.2 49 30.51 41.98 20.41 27.3"></polygon>
            <path d="M9.48,18.82 L17.1,24.68 C17.1,24.68 19.92,30.19 21.54,32.92 C23.16,35.64 26.61,40.64 26.61,40.64 L11.61,34.58 C11.61,34.58 11.99,30.01 11.61,27.3 C11.25,24.59 9.48,18.82 9.48,18.82 L9.48,18.82 Z" id="Path" fill="#696969"></path>
            <path d="M0.97,12.1 L6.69,17.17 C6.69,17.17 8.33,23.1 8.81,25.87 C9.29,28.64 9.48,33.22 9.48,33.22 L5.23,22.73 C3.68,18.91 0.97,12.1 0.97,12.1 Z" id="Path" fill="#696969"></path>
            <path d="M51.77,53.3 L66.53,65.63 L46.75,65 C46.75,65 46.65,58.05 47.38,56.34 C48.11,54.64 51.78,53.3 51.78,53.3 L51.77,53.3 Z" id="Path" fill="#EF7F1A"></path>
            <path d="M32.81,46.53 L46.13,50.9 C46.13,50.9 44.02,51.79 43.17,54.9 C42.33,58.03 42.15,65.63 42.15,65.63 L24.62,65.05 C24.62,65.05 29.93,59.61 31.49,56.08 C33.05,52.55 32.81,46.53 32.81,46.53 L32.81,46.53 Z" id="Path" fill="#696969"></path>
            <path d="M12.26,38.79 L28.02,45.41 C28.02,45.41 29.39,51.09 28.02,54.04 C26.65,57 20.14,62.72 20.14,62.72 C20.14,62.72 17.64,53.41 16.19,49 C14.74,44.59 12.26,38.79 12.26,38.79 Z" id="Path" fill="#EF7F1A"></path>
            <path d="M70.96,69.62 C70.32,74.5 70,79.36 70.51,84.23 L83.21,79.58 L70.96,69.62 Z" id="Path" fill="#EF7F1A"></path>
            <path d="M47.38,69.62 L67.37,69.62 C67.37,69.62 67.09,75.02 67.09,77.67 C67.09,80.33 67.37,85.18 67.37,85.18 L50.88,91.4 C50.88,91.4 51.66,91.36 50.88,86.53 C50.11,81.7 47.38,69.63 47.38,69.63 L47.38,69.62 Z" id="Path" fill="#EF7F1A"></path>
            <polygon id="Path" fill="#EF7F1A" points="21.98 70.24 29.23 97.01 47.38 91.4 42.47 69.62"></polygon>
            <polygon id="Path" fill="#009846" points="20.43 75.52 25.51 95.93 18.18 85.21 20.43 75.51"></polygon>
            <polygon id="Path" fill="#009846" points="16.84 58.95 10.08 72.79 16.84 83.32 19.4 71.13 16.84 58.95"></polygon>
            <polygon id="Path" fill="#009846" points="14.47 49.31 16.09 56.08 8.9 71.13 2.9 62.73 14.47 49.3"></polygon>
            <path d="M33.78,55.27 L34.62,45.35 C34.67,44.8 35.15,44.4 35.7,44.45 C36.25,44.49 36.66,44.97 36.62,45.52 L35.44,59.24 C35.38,60.02 34.49,60.43 33.86,59.97 L22.74,51.84 C22.3,51.51 22.2,50.89 22.53,50.44 C22.85,50 23.48,49.9 23.93,50.23 L31.96,56.1 L28.6,48.73 L15.18,19.23 C14.95,18.73 15.18,18.14 15.68,17.91 C16.18,17.68 16.77,17.91 17,18.41 L30.42,47.91 L33.78,55.27 L33.78,55.27 Z" id="Path" fill="#FFFFFF"></path>
            <polygon id="Path" fill="#000000" points="110 3.8 174.5 0 207 16.89 201.4 88.44 131.22 100 111.12 69.57 110 3.81"></polygon>
            <polygon id="Path" fill="#009846" points="111.37 51.83 116.07 58.57 116.3 77.58 111.72 70.36 111.37 51.83"></polygon>
            <polygon id="Path" fill="#009846" points="116.93 58.86 123.23 66.86 123.08 86.71 117.14 78.02 116.93 58.86"></polygon>
            <polygon id="Path" fill="#009846" points="123.93 67.72 130.79 76.43 130.65 98.1 123.85 88.07 123.93 67.72"></polygon>
            <polygon id="Path" fill="#696969" points="110.47 29.22 116.23 34.97 116.13 55.17 110.93 48.53 110.47 29.23"></polygon>
            <polygon id="Path" fill="#009846" points="117.1 36.08 123.02 42.66 123.22 63.92 117.1 56.4"></polygon>
            <polygon id="Path" fill="#696969" points="123.86 43.67 130.79 51.35 130.65 74.05 124.06 65.47"></polygon>
            <polygon id="Path" fill="#696969" points="110.63 5.7 116.23 10.38 116.3 31.65 111.07 26 110.63 5.7"></polygon>
            <polygon id="Path" fill="#009846" points="116.93 11.4 123.23 17.05 123.23 39.87 117.13 33.1 116.93 11.4"></polygon>
            <polygon id="Path" fill="#696969" points="124.2 18.48 130.85 24.54 130.59 48.1 124.26 40.96 124.19 18.48"></polygon>
            <polygon id="Path" fill="#EF7F1A" points="181.7 70.56 201.33 67.72 199.83 87.95 180.54 91.14"></polygon>
            <polygon id="Path" fill="#EF7F1A" points="158 73.78 178.87 71.02 177.63 91.02 157.24 94.3"></polygon>
            <polygon id="Path" fill="#EF7F1A" points="132.81 77.19 154.72 74.05 154.24 95.11 132.68 98.73"></polygon>
            <polygon id="Path" fill="#696969" points="182.91 45.84 203.22 43.67 201.77 65.14 181.8 67.72 182.91 45.84"></polygon>
            <polygon id="Path" fill="#EF7F1A" points="158.82 48.85 180.54 46.2 179.39 68.04 158 70.78"></polygon>
            <polygon id="Path" fill="#696969" points="133.26 51.8 155.79 49.44 154.86 71.14 132.97 74.05 133.27 51.8"></polygon>
            <polygon id="Path" fill="#696969" points="184.34 20.78 205.11 19.35 203.29 40.91 183.21 43.09 184.34 20.78"></polygon>
            <polygon id="Path" fill="#696969" points="159.75 22.6 181.81 20.89 180.5 43.37 159.13 45.57 159.75 22.6"></polygon>
            <polygon id="Path" fill="#696969" points="133.61 25.21 156.51 23.35 155.76 46.37 133.21 48.67"></polygon>
            <polygon id="Path" fill="#696969" points="155.98 1.7 174.05 0.63 181.8 4.7 162.78 5.7 155.98 1.7"></polygon>
            <polygon id="Path" fill="#696969" points="133.94 2.94 153.52 1.9 160.39 6.27 140.59 7.59 133.93 2.94"></polygon>
            <polygon id="Path" fill="#696969" points="111.89 4.33 132.31 3.16 138.34 7.63 117.24 8.86 111.89 4.33"></polygon>
            <polygon id="Path" fill="#EF7F1A" points="118.19 9.58 139.05 8.23 146.53 13.56 124.56 15.19 118.19 9.58"></polygon>
            <polygon id="Path" fill="#FFED00" points="142.12 8.38 161.7 6.96 169.84 11.81 149.31 13.29 142.12 8.38"></polygon>
            <polygon id="Path" fill="#696969" points="164.17 6.76 183.16 5.7 192.51 10.2 172.5 11.4"></polygon>
            <polygon id="Path" fill="#696969" points="174.25 12.6 194.41 11.4 205.11 16.68 183.91 18.35 174.25 12.6"></polygon>
            <polygon id="Path" fill="#696969" points="150.31 14.13 171.68 12.66 181.18 18.56 158.91 20.26 150.31 14.13"></polygon>
            <polygon id="Path" fill="#696969" points="125.12 16.04 147.75 14.56 155.98 20.54 132.52 22.15 125.12 16.04"></polygon>
            <path d="M143.08,58.22 L148.19,49.68 C148.48,49.21 149.09,49.06 149.57,49.34 C150.04,49.62 150.19,50.24 149.91,50.71 L142.84,62.52 C142.44,63.19 141.46,63.17 141.09,62.48 L134.67,50.3 C134.42,49.8 134.6,49.2 135.09,48.95 C135.58,48.69 136.19,48.88 136.44,49.36 L141.08,58.16 L141.3,50.04 C141.45,35.16 140.28,26.01 137.94,22.8 C134.9,18.6 131.6,14.88 128.04,11.62 C127.63,11.25 127.6,10.62 127.97,10.22 C128.35,9.8 128.97,9.78 129.38,10.15 C133.05,13.5 136.44,17.33 139.56,21.62 C142.26,25.32 143.46,34.72 143.3,50.08 L143.08,58.22 Z" id="Path" fill="#FFFFFF"></path>
            <path d="M102.19,45.64 L102.19,44 L92,44 L92,45.64 L102.19,45.64 Z M102.19,49.86 L102.19,48.19 L92,48.19 L92,49.86 L102.19,49.86 Z" id="Shape" fill="#000000"></path>
        </g>
    </g>
</svg>