<?xml version="1.0" encoding="UTF-8"?>
<svg width="207px" height="100px" viewBox="0 0 207 100" version="1.1" xmlns="http://www.w3.org/2000/svg" xmlns:xlink="http://www.w3.org/1999/xlink">
    <title>tw_cube_2_3</title>
    <g id="Tw_cube" stroke="none" stroke-width="1" fill="none" fill-rule="evenodd">
        <g id="tw_cube_2_3" fill-rule="nonzero">
            <path d="M44.24,34.73 C43.84,34.35 43.21,34.38 42.84,34.78 C42.46,35.18 42.48,35.82 42.89,36.2 L44.24,34.73 Z M79.57,69.69 C80.12,69.67 80.55,69.21 80.53,68.66 L80.18,59.66 C80.15,59.11 79.68,58.68 79.14,58.7 C78.59,58.72 78.16,59.19 78.18,59.74 L78.49,67.74 L70.5,68.05 C69.95,68.07 69.52,68.54 69.54,69.09 C69.56,69.64 70.03,70.07 70.58,70.05 L79.58,69.69 L79.57,69.69 Z M42.9,36.2 L78.86,69.44 L80.22,67.97 L44.25,34.74 L42.9,36.21 L42.9,36.2 Z" id="Shape" fill="#FFFFFF"></path>
            <polygon id="Path" fill="#000000" points="0.09 19.28 9.19 80.88 63.83 99.92 97.75 67.42 97.75 7.5 42.65 0.14 0.08 19.28"></polygon>
            <polygon id="Path" fill="#696969" points="61.03 32.18 73.35 24.3 74.04 45 61.96 54.18 61.03 32.18"></polygon>
            <polygon id="Path" fill="#696969" points="74.94 23.14 86.14 16.14 86.14 36.08 75.66 43.66"></polygon>
            <polygon id="Path" fill="#696969" points="87.69 15.25 96.92 9.35 96.92 28.2 87.69 35.34"></polygon>
            <polygon id="Path" fill="#696969" points="62.38 56.8 74.16 47.87 74.79 66.61 63.5 76.51 62.38 56.81"></polygon>
            <polygon id="Path" fill="#EF7F1A" points="75.93 46.33 86.57 56.95 76.37 65.57"></polygon>
            <polygon id="Path" fill="#696969" points="88.02 37.4 96.86 30.55 96.86 48.14 88.06 55.77 88.02 37.39"></polygon>
            <polygon id="Path" fill="#696969" points="63.65 79.2 75.05 69.3 75.59 87.3 64.47 97.78 63.65 79.19"></polygon>
            <polygon id="Path" fill="#696969" points="76.6 67.85 86.72 59.31 86.72 76.68 76.92 85.99 76.6 67.85"></polygon>
            <polygon id="Path" fill="#696969" points="88.2 58.15 96.92 50.49 97 66.96 88.2 75.36"></polygon>
            <polygon id="Path" fill="#0062AC" points="75.93 46.33 86.14 38.45 86.72 56.97 75.92 46.33"></polygon>
            <polygon id="Path" fill="#696969" points="43.45 74.08 61.32 79.73 62.48 98.39 44.93 92.17 43.45 74.08"></polygon>
            <polygon id="Path" fill="#696969" points="24.53 68.27 41.07 73.57 42.7 91.56 26.67 85.98 24.53 68.28"></polygon>
            <polygon id="Path" fill="#696969" points="7.36 63.07 22.45 67.79 24.46 85.13 9.86 80.08 7.36 63.07"></polygon>
            <polygon id="Path" fill="#696969" points="39.55 28.62 58.74 32.72 59.76 54.45 41.19 49.75"></polygon>
            <polygon id="Path" fill="#696969" points="19.28 24.53 36.81 28.19 38.93 49.2 21.68 44.83"></polygon>
            <polygon id="Path" fill="#696969" points="1.26 20.93 17.1 24.14 19.4 44.16 4.11 40.48 1.26 20.93"></polygon>
            <polygon id="Path" fill="#FFFFFF" points="41.66 52.4 60.12 57.22 61.1 77.17 43 71.73 41.67 52.4"></polygon>
            <polygon id="Path" fill="#009846" points="22.14 47.39 40.82 71.02 24.42 66.05"></polygon>
            <polygon id="Path" fill="#696969" points="4.27 42.5 19.87 46.85 22.15 65.42 7 60.86 4.27 42.51"></polygon>
            <polygon id="Path" fill="#EF7F1A" points="22.15 47.39 39.2 51.6 40.81 71.02 22.14 47.39"></polygon>
            <polygon id="Path" fill="#696969" points="53.1 19.43 71.72 22.7 59.36 30.58 39.89 26.72 53.11 19.42"></polygon>
            <polygon id="Path" fill="#696969" points="66.32 11.92 84.4 14.77 73.43 21.69 54.81 18.39 66.31 11.92"></polygon>
            <polygon id="Path" fill="#696969" points="78.21 5.51 95.69 7.94 86.02 13.91 68.28 11.16 78.21 5.51"></polygon>
            <polygon id="Path" fill="#696969" points="59.65 2.98 75.66 5.2 65.54 10.9 48.75 8.3 59.65 3"></polygon>
            <polygon id="Path" fill="#FFED00" points="47.34 9.07 63.94 11.67 52.35 18 35.35 15.03 47.35 9.07"></polygon>
            <polygon id="Path" fill="#696969" points="33.53 15.85 50.83 18.85 37.47 26.23 19.88 22.71"></polygon>
            <polygon id="Path" fill="#696969" points="15.85 12.85 31.27 15.53 17.76 22.21 2.1 19.07 15.84 12.85"></polygon>
            <polygon id="Path" fill="#696969" points="29.96 6.38 45.32 8.69 33.14 14.73 17.63 12.02"></polygon>
            <polygon id="Path" fill="#696969" points="42.73 0.66 57.37 2.7 46.72 7.96 31.68 5.69 42.73 0.66"></polygon>
            <path d="M68.57,16.55 L58.75,19.43 C58.2,19.44 57.74,19 57.73,18.45 C57.71,17.9 58.15,17.45 58.7,17.43 L72.34,14.4596536 C73.12,14.44 73.62,15.29 73.23,15.96 L68.28,24.3 C68.01,24.78 67.39,24.94 66.92,24.67 C66.44,24.39 66.27,23.78 66.55,23.3 L69.59,18.27 L62.61,22.42 C56.42,26.44 52.99,29.64 52.34,31.82 C51.34,35.19 51.34,45.67 52.38,63.01 C52.41,63.56 51.99,64.03 51.44,64.07 C50.89,64.1 50.42,63.67 50.38,63.13 C49.32,45.49 49.32,34.95 50.42,31.25 C51.26,28.45 54.94,25.02 61.55,20.72 L68.57,16.55 Z" id="Path" fill="#FFFFFF"></path>
            <polygon id="Path" fill="#000000" points="109.08 19.28 118.18 80.88 172.83 99.92 206.75 67.42 206.75 7.5 151.65 0.14"></polygon>
            <polygon id="Path" fill="#696969" points="170.03 32.18 182.35 24.3 183.04 45 170.96 54.18 170.03 32.18"></polygon>
            <polygon id="Path" fill="#696969" points="183.94 23.14 195.14 16.14 195.14 36.08 184.66 43.66"></polygon>
            <polygon id="Path" fill="#696969" points="196.69 15.25 205.92 9.35 205.92 28.2 196.69 35.34"></polygon>
            <polygon id="Path" fill="#696969" points="171.38 56.8 183.16 47.87 183.79 66.61 172.5 76.51 171.38 56.81"></polygon>
            <polygon id="Path" fill="#EF7F1A" points="184.93 46.33 195.57 56.95 185.37 65.57"></polygon>
            <polygon id="Path" fill="#696969" points="197.02 37.4 205.86 30.55 205.86 48.14 197.06 55.77 197.02 37.39"></polygon>
            <polygon id="Path" fill="#696969" points="172.66 79.2 184.05 69.3 184.59 87.3 173.46 97.78 172.66 79.19"></polygon>
            <polygon id="Path" fill="#696969" points="185.6 67.85 195.72 59.31 195.72 76.68 185.92 85.99"></polygon>
            <polygon id="Path" fill="#696969" points="197.2 58.15 205.92 50.49 206.01 66.96 197.21 75.36 197.21 58.15"></polygon>
            <polygon id="Path" fill="#0062AC" points="184.93 46.33 195.14 38.45 195.72 56.97 184.92 46.33"></polygon>
            <polygon id="Path" fill="#696969" points="152.44 74.08 170.32 79.73 171.48 98.39 153.93 92.17 152.44 74.08"></polygon>
            <polygon id="Path" fill="#696969" points="133.53 68.27 150.07 73.57 151.7 91.56 135.67 85.98 133.53 68.28"></polygon>
            <polygon id="Path" fill="#696969" points="116.36 63.07 131.44 67.79 133.46 85.13 118.86 80.08 116.36 63.07"></polygon>
            <polygon id="Path" fill="#696969" points="148.54 28.62 167.74 32.72 168.76 54.45 150.19 49.75"></polygon>
            <polygon id="Path" fill="#696969" points="128.28 24.53 145.81 28.19 147.93 49.2 130.68 44.83"></polygon>
            <polygon id="Path" fill="#696969" points="110.26 20.93 126.1 24.14 128.4 44.16 113.11 40.48 110.26 20.93"></polygon>
            <polygon id="Path" fill="#696969" points="150.66 52.4 169.12 57.22 170.1 77.17 152 71.73 150.66 52.41"></polygon>
            <polygon id="Path" fill="#009846" points="131.14 47.39 149.82 71.02 133.42 66.05"></polygon>
            <polygon id="Path" fill="#696969" points="113.27 42.5 128.87 46.85 131.15 65.42 116 60.86 113.26 42.51"></polygon>
            <polygon id="Path" fill="#EF7F1A" points="131.15 47.39 148.21 51.6 149.82 71.02 131.15 47.39"></polygon>
            <polygon id="Path" fill="#696969" points="162.1 19.43 180.72 22.7 168.36 30.58 148.89 26.72 162.11 19.42"></polygon>
            <polygon id="Path" fill="#FFFFFF" points="175.32 11.92 193.4 14.77 182.43 21.69 163.81 18.39 175.31 11.92"></polygon>
            <polygon id="Path" fill="#696969" points="187.21 5.51 204.69 7.94 195.02 13.91 177.28 11.16"></polygon>
            <polygon id="Path" fill="#696969" points="168.65 2.98 184.66 5.2 174.54 10.89 157.75 8.29 168.65 2.99"></polygon>
            <polygon id="Path" fill="#FFED00" points="156.34 9.07 172.94 11.67 161.34 18 144.34 15.03"></polygon>
            <polygon id="Path" fill="#696969" points="142.53 15.85 159.83 18.85 146.47 26.23 128.88 22.71 142.53 15.85"></polygon>
            <polygon id="Path" fill="#696969" points="124.85 12.85 140.27 15.53 126.75 22.21 111.11 19.07 124.85 12.85"></polygon>
            <polygon id="Path" fill="#696969" points="138.96 6.38 154.32 8.69 142.15 14.73 126.63 12.02"></polygon>
            <polygon id="Path" fill="#696969" points="151.73 0.66 166.37 2.7 155.72 7.96 140.68 5.69 151.73 0.66"></polygon>
        </g>
    </g>
</svg>