<svg width="210" height="100" viewBox="0 0 210 100" fill="none" xmlns="http://www.w3.org/2000/svg">
<g id="f2l_int_15">
<g id="l_cube">
<path id="Background" fill-rule="evenodd" clip-rule="evenodd" d="M99.5817 16.6053L96.5163 74.1513C96.4902 74.6711 96.1634 75.1053 95.719 75.3158L51.4837 99.2895C50.8366 99.6447 48.5817 99.1776 48.1177 98.9145L4.28759 74.6316C3.81046 74.375 3.54249 73.8947 3.54903 73.4079L0.6536 16.4605C0.627457 15.8355 2.11112 13.9803 2.71242 13.8487L49.9543 0.0592105C50.2288 -0.0197368 50.5098 -0.0197368 50.7647 0.0592105L96.5163 14C97.098 14.1645 99.634 15.5132 99.5817 16.6053Z" fill="black"/>
<g id="Right">
<path id="R9" fill-rule="evenodd" clip-rule="evenodd" d="M84.2341 64.2636L96.5114 57.9105L95.496 74.4653L83.5879 80.7129L84.2341 64.2636Z" fill="#696969"/>
<path id="R8" fill-rule="evenodd" clip-rule="evenodd" d="M68.3237 72.0467L82.2099 65.2191L81.4252 82.1496L67.5786 89.4714L68.3237 72.0467Z" fill="#009A0E"/>
<path id="R7" fill-rule="evenodd" clip-rule="evenodd" d="M50.7187 80.4295L66.2994 72.6925L65.5543 90.427L50.7912 98.5199L50.7187 80.4295Z" fill="#4A4A4A"/>
<path id="R6" fill-rule="evenodd" clip-rule="evenodd" d="M84.8671 43.603L97.4543 38.0869L96.4257 55.8741L84.0099 61.9767L84.8671 43.603Z" fill="#696969"/>
<path id="R5" fill-rule="evenodd" clip-rule="evenodd" d="M68.8709 50.8325L83.1791 44.4136L82.1307 63.1827L68.2115 69.9509L68.8709 50.8325Z" fill="#009A0E"/>
<path id="R4" fill-rule="evenodd" clip-rule="evenodd" d="M50.5869 58.1411L66.7742 51.6694L66.1544 70.6692L50.5869 78.4194V58.1411Z" fill="#4A4A4A"/>
<path id="R3" fill-rule="evenodd" clip-rule="evenodd" d="M86.0275 21.8089L98.5884 16.8333L97.6982 35.9912L85.2033 41.1712L86.0275 21.8089Z" fill="#696969"/>
<path id="R2" fill-rule="evenodd" clip-rule="evenodd" d="M69.0885 28.4387L83.9703 22.5602L83.4956 41.9488L68.8116 48.638L69.0885 28.4387Z" fill="#009A0E"/>
<path id="R1" fill-rule="evenodd" clip-rule="evenodd" d="M50.4088 35.0488L67.1302 28.9594L66.794 49.5738L50.4879 56.0125L50.4088 35.0488Z" fill="#696969"/>
</g>
<g id="Left">
<path id="L9" fill-rule="evenodd" clip-rule="evenodd" d="M3.92383 58.4377L15.3308 64.1581L15.7264 79.6914L4.5766 73.8129L3.92383 58.4377Z" fill="#696969"/>
<path id="L8" fill-rule="evenodd" clip-rule="evenodd" d="M17.1638 65.1993L30.9972 71.8621L31.1159 88.0017L17.6781 80.8579L17.1638 65.1993Z" fill="#D0021B"/>
<path id="L7" fill-rule="evenodd" clip-rule="evenodd" d="M32.9225 72.9956L48.7406 80.5876L48.8263 98.1573L32.8698 89.2011L32.9225 72.9956Z" fill="#4A4A4A"/>
<path id="L6" fill-rule="evenodd" clip-rule="evenodd" d="M2.88202 37.8232L14.5527 43.4382L15.2253 62.0492L3.73919 55.9597L2.88202 37.8232Z" fill="#696969"/>
<path id="L5" fill-rule="evenodd" clip-rule="evenodd" d="M16.4055 44.5981L30.5027 50.4701L31.0961 69.7203L17.1044 63.1432L16.4055 44.5981Z" fill="#D0021B"/>
<path id="L4" fill-rule="evenodd" clip-rule="evenodd" d="M32.3621 51.2081L48.5758 58.1741L48.5626 78.4128L32.9819 70.8604L32.3621 51.2081Z" fill="#4A4A4A"/>
<path id="L3" fill-rule="evenodd" clip-rule="evenodd" d="M1.64899 16.6882L13.4845 21.7693L14.3219 41.1316L2.53253 35.3783L1.64899 16.6882Z" fill="#D0021B"/>
<path id="L2" fill-rule="evenodd" clip-rule="evenodd" d="M15.3769 22.402L29.9356 28.1487L30.6345 48.572L16.2275 42.1992L15.3769 22.402Z" fill="#696969"/>
<path id="L1" fill-rule="evenodd" clip-rule="evenodd" d="M31.8148 28.8737L48.5362 34.9565L48.5099 56.085L32.4808 49.2377L31.8148 28.8737Z" fill="#696969"/>
</g>
<g id="Up">
<path id="Up9" fill-rule="evenodd" clip-rule="evenodd" d="M38.512 4.81484L50.3649 1.35706L61.8268 4.61259L50.0651 8.46183L38.512 4.81484Z" fill="#696969"/>
<path id="Up8" fill-rule="evenodd" clip-rule="evenodd" d="M20.9445 9.5383L35.8209 5.36938L47.6998 9.1338L33.26 13.8246L20.9445 9.5383Z" fill="#696969"/>
<path id="Up7" fill-rule="evenodd" clip-rule="evenodd" d="M3.17499 15.0576L19.0744 10.3994L30.5232 14.4444L14.5261 19.631L3.17499 15.0576Z" fill="white"/>
<path id="Up6" fill-rule="evenodd" clip-rule="evenodd" d="M16.2268 20.3096L32.7908 15.3186L46.9244 20.0877L30.9533 25.8877L16.2268 20.3096Z" fill="#696969"/>
<path id="Up5" fill-rule="evenodd" clip-rule="evenodd" d="M35.7687 14.5684L49.9544 9.83838L64.4789 14.4314L49.7589 19.3245L35.7687 14.5684Z" fill="#FFDB11"/>
<path id="Up4" fill-rule="evenodd" clip-rule="evenodd" d="M52.007 9.12075L63.3255 5.60425L78.0911 10.0276L67.144 13.6289L52.007 9.12075Z" fill="#696969"/>
<path id="Up3" fill-rule="evenodd" clip-rule="evenodd" d="M69.3725 14.477L80.7888 10.8822L95.9975 15.2795L84.6789 19.6571L69.3725 14.477Z" fill="#696969"/>
<path id="Up2" fill-rule="evenodd" clip-rule="evenodd" d="M52.0787 20.2901L67.131 15.41L82.5547 20.3357L68.1801 26.1096L52.0787 20.2901Z" fill="#D0021B"/>
<path id="Up1" fill-rule="evenodd" clip-rule="evenodd" d="M33.0255 27.0033L49.4396 21.0272L65.9711 26.7945L49.4657 32.7184L33.0255 27.0033Z" fill="#696969"/>
</g>
</g>
<g id="r_cube">
<path id="Background_2" fill-rule="evenodd" clip-rule="evenodd" d="M209.582 16.6053L206.516 74.1513C206.49 74.6711 206.163 75.1053 205.719 75.3158L161.484 99.2895C160.837 99.6447 158.582 99.1776 158.118 98.9145L114.288 74.6316C113.81 74.375 113.542 73.8947 113.549 73.4079L110.654 16.4605C110.627 15.8355 112.111 13.9803 112.712 13.8487L159.954 0.0592105C160.229 -0.0197368 160.51 -0.0197368 160.765 0.0592105L206.516 14C207.098 14.1645 209.634 15.5132 209.582 16.6053Z" fill="black"/>
<g id="Right_2">
<path id="R9_2" fill-rule="evenodd" clip-rule="evenodd" d="M194.234 64.2636L206.511 57.9105L205.496 74.4653L193.588 80.7129L194.234 64.2636Z" fill="#696969"/>
<path id="R8_2" fill-rule="evenodd" clip-rule="evenodd" d="M178.324 72.0467L192.21 65.2191L191.425 82.1496L177.579 89.4714L178.324 72.0467Z" fill="#696969"/>
<path id="R7_2" fill-rule="evenodd" clip-rule="evenodd" d="M160.719 80.4295L176.299 72.6925L175.554 90.427L160.791 98.5199L160.719 80.4295Z" fill="#696969"/>
<path id="R6_2" fill-rule="evenodd" clip-rule="evenodd" d="M194.867 43.603L207.454 38.0869L206.426 55.8741L194.01 61.9767L194.867 43.603Z" fill="#009A0E"/>
<path id="R5_2" fill-rule="evenodd" clip-rule="evenodd" d="M178.871 50.8325L193.179 44.4136L192.131 63.1827L178.212 69.9509L178.871 50.8325Z" fill="#009A0E"/>
<path id="R4_2" fill-rule="evenodd" clip-rule="evenodd" d="M160.587 58.1411L176.774 51.6694L176.154 70.6692L160.587 78.4194V58.1411Z" fill="#009A0E"/>
<path id="R3_2" fill-rule="evenodd" clip-rule="evenodd" d="M196.028 21.8089L208.588 16.8333L207.698 35.9912L195.203 41.1712L196.028 21.8089Z" fill="#696969"/>
<path id="R2_2" fill-rule="evenodd" clip-rule="evenodd" d="M179.089 28.4387L193.97 22.5602L193.496 41.9488L178.812 48.638L179.089 28.4387Z" fill="#696969"/>
<path id="R1_2" fill-rule="evenodd" clip-rule="evenodd" d="M160.409 35.0488L177.13 28.9594L176.794 49.5738L160.488 56.0125L160.409 35.0488Z" fill="#696969"/>
</g>
<g id="Left_2">
<path id="L9_2" fill-rule="evenodd" clip-rule="evenodd" d="M113.924 58.4377L125.331 64.1581L125.726 79.6914L114.577 73.8129L113.924 58.4377Z" fill="#696969"/>
<path id="L8_2" fill-rule="evenodd" clip-rule="evenodd" d="M127.164 65.1993L140.997 71.8621L141.116 88.0017L127.678 80.8579L127.164 65.1993Z" fill="#D0021B"/>
<path id="L7_2" fill-rule="evenodd" clip-rule="evenodd" d="M142.922 72.9956L158.741 80.5876L158.826 98.1573L142.87 89.2011L142.922 72.9956Z" fill="#696969"/>
<path id="L6_2" fill-rule="evenodd" clip-rule="evenodd" d="M112.882 37.8232L124.553 43.4382L125.225 62.0492L113.739 55.9597L112.882 37.8232Z" fill="#696969"/>
<path id="L5_2" fill-rule="evenodd" clip-rule="evenodd" d="M126.406 44.5981L140.503 50.4701L141.096 69.7203L127.104 63.1432L126.406 44.5981Z" fill="#D0021B"/>
<path id="L4_2" fill-rule="evenodd" clip-rule="evenodd" d="M142.362 51.2081L158.576 58.1741L158.563 78.4128L142.982 70.8604L142.362 51.2081Z" fill="white"/>
<path id="L3_2" fill-rule="evenodd" clip-rule="evenodd" d="M111.649 16.6882L123.485 21.7693L124.322 41.1316L112.533 35.3783L111.649 16.6882Z" fill="#D0021B"/>
<path id="L2_2" fill-rule="evenodd" clip-rule="evenodd" d="M125.377 22.402L139.936 28.1487L140.635 48.572L126.227 42.1992L125.377 22.402Z" fill="#696969"/>
<path id="L1_2" fill-rule="evenodd" clip-rule="evenodd" d="M141.815 28.8737L158.536 34.9565L158.51 56.085L142.481 49.2377L141.815 28.8737Z" fill="#696969"/>
</g>
<g id="Up_2">
<path id="Up9_2" fill-rule="evenodd" clip-rule="evenodd" d="M148.512 4.81484L160.365 1.35706L171.827 4.61259L160.065 8.46183L148.512 4.81484Z" fill="#696969"/>
<path id="Up8_2" fill-rule="evenodd" clip-rule="evenodd" d="M130.945 9.5383L145.821 5.36938L157.7 9.1338L143.26 13.8246L130.945 9.5383Z" fill="#696969"/>
<path id="Up7_2" fill-rule="evenodd" clip-rule="evenodd" d="M113.175 15.0576L129.074 10.3994L140.523 14.4444L124.526 19.631L113.175 15.0576Z" fill="white"/>
<path id="Up6_2" fill-rule="evenodd" clip-rule="evenodd" d="M126.227 20.3096L142.791 15.3186L156.924 20.0877L140.953 25.8877L126.227 20.3096Z" fill="#696969"/>
<path id="Up5_2" fill-rule="evenodd" clip-rule="evenodd" d="M145.769 14.5684L159.954 9.83838L174.479 14.4314L159.759 19.3245L145.769 14.5684Z" fill="#FFDB11"/>
<path id="Up4_2" fill-rule="evenodd" clip-rule="evenodd" d="M162.007 9.12075L173.325 5.60425L188.091 10.0276L177.144 13.6289L162.007 9.12075Z" fill="#696969"/>
<path id="Up3_2" fill-rule="evenodd" clip-rule="evenodd" d="M179.372 14.477L190.789 10.8822L205.997 15.2795L194.679 19.6571L179.372 14.477Z" fill="#696969"/>
<path id="Up2_2" fill-rule="evenodd" clip-rule="evenodd" d="M162.079 20.2901L177.131 15.41L192.555 20.3357L178.18 26.1096L162.079 20.2901Z" fill="#696969"/>
<path id="Up1_2" fill-rule="evenodd" clip-rule="evenodd" d="M143.025 27.0033L159.44 21.0272L175.971 26.7945L159.466 32.7184L143.025 27.0033Z" fill="#696969"/>
</g>
</g>
<path id="Line 6" d="M71.8134 34.6625C71.2961 34.856 71.0336 35.4322 71.2272 35.9495C71.4207 36.4668 71.9969 36.7292 72.5142 36.5357L71.8134 34.6625ZM91.2375 52.4222C91.6532 52.7858 92.2849 52.7436 92.6485 52.3279L98.5738 45.5536C98.9374 45.1379 98.8952 44.5061 98.4794 44.1425C98.0637 43.7789 97.432 43.8211 97.0684 44.2369L91.8015 50.2585L85.7799 44.9916C85.3642 44.628 84.7324 44.6702 84.3688 45.0859C84.0052 45.5016 84.0474 46.1334 84.4632 46.497L91.2375 52.4222ZM72.1638 35.5991C72.5142 36.5357 72.5141 36.5357 72.514 36.5358C72.514 36.5357 72.514 36.5358 72.5141 36.5357C72.5143 36.5357 72.5146 36.5355 72.5151 36.5353C72.5161 36.535 72.5178 36.5343 72.5202 36.5334C72.5251 36.5317 72.5326 36.5288 72.5429 36.5251C72.5634 36.5175 72.5946 36.5061 72.6359 36.4911C72.7185 36.4612 72.8416 36.4172 73.0003 36.3618C73.3177 36.2511 73.7772 36.0954 74.3403 35.9171C75.4685 35.56 77.0035 35.1153 78.6414 34.7604C80.2866 34.4039 81.9974 34.1465 83.4882 34.1454C85.0212 34.1442 86.1191 34.4161 86.7306 34.9141L87.9935 33.3634C86.8274 32.4136 85.1366 32.1442 83.4867 32.1454C81.7944 32.1466 79.9279 32.4352 78.2179 32.8058C76.5006 33.1779 74.9027 33.6413 73.7367 34.0104C73.1528 34.1952 72.6748 34.3572 72.3417 34.4734C72.1751 34.5315 72.0445 34.5782 71.9549 34.6106C71.9101 34.6269 71.8754 34.6396 71.8517 34.6483C71.8398 34.6527 71.8306 34.6561 71.8242 34.6585C71.821 34.6597 71.8185 34.6606 71.8166 34.6613C71.8157 34.6616 71.815 34.6619 71.8145 34.6621C71.8142 34.6622 71.8139 34.6623 71.8138 34.6623C71.8135 34.6624 71.8134 34.6625 72.1638 35.5991ZM86.7306 34.9141C87.3778 35.4413 88.0339 36.6485 88.6214 38.4151C89.1905 40.1261 89.636 42.1714 89.9765 44.1589C90.3162 46.1409 90.5469 48.0377 90.6927 49.4409C90.7656 50.1418 90.8171 50.7179 90.8503 51.1178C90.8669 51.3177 90.8789 51.4735 90.8867 51.5787C90.8906 51.6313 90.8935 51.6713 90.8954 51.6978C90.8963 51.7111 90.897 51.721 90.8974 51.7274C90.8977 51.7306 90.8978 51.733 90.8979 51.7345C90.898 51.7352 90.898 51.7357 90.898 51.736C90.898 51.7362 90.898 51.7362 90.8981 51.7363C90.8981 51.7363 90.8981 51.7362 91.8958 51.6695C92.8936 51.6028 92.8936 51.6026 92.8936 51.6024C92.8936 51.6023 92.8935 51.602 92.8935 51.6017C92.8935 51.6011 92.8934 51.6003 92.8934 51.5993C92.8932 51.5972 92.893 51.5942 92.8927 51.5904C92.8922 51.5827 92.8915 51.5716 92.8904 51.5571C92.8884 51.528 92.8853 51.4855 92.8812 51.4302C92.873 51.3196 92.8605 51.1582 92.8434 50.9523C92.8092 50.5405 92.7565 49.9506 92.682 49.2342C92.5333 47.8028 92.2972 45.8598 91.9478 43.8211C91.5994 41.7878 91.1336 39.6314 90.5193 37.784C89.9234 35.9921 89.1239 34.284 87.9935 33.3634L86.7306 34.9141Z" fill="white"/>
</g>
</svg>
