<svg width="320" height="100" viewBox="0 0 320 100" fill="none" xmlns="http://www.w3.org/2000/svg">
<g id="f2l_int_11" clip-path="url(#clip0)">
<g id="cube copy">
<path id="Background" fill-rule="evenodd" clip-rule="evenodd" d="M99.5817 16.6053L96.5163 74.1513C96.4902 74.6711 96.1634 75.1053 95.719 75.3158L51.4837 99.2895C50.8366 99.6447 48.5817 99.1776 48.1177 98.9145L4.28759 74.6316C3.81046 74.375 3.54249 73.8947 3.54903 73.4079L0.6536 16.4605C0.627457 15.8355 2.11112 13.9803 2.71242 13.8487L49.9543 0.0592105C50.2288 -0.0197368 50.5098 -0.0197368 50.7647 0.0592105L96.5163 14C97.098 14.1645 99.634 15.5132 99.5817 16.6053Z" fill="black"/>
<g id="Right">
<path id="R9" fill-rule="evenodd" clip-rule="evenodd" d="M84.2341 64.2635L96.5114 57.9105L95.496 74.4653L83.5879 80.7129L84.2341 64.2635Z" fill="#696969"/>
<path id="R8" fill-rule="evenodd" clip-rule="evenodd" d="M68.3237 72.0467L82.2099 65.2191L81.4252 82.1496L67.5786 89.4714L68.3237 72.0467Z" fill="#009A0E"/>
<path id="R7" fill-rule="evenodd" clip-rule="evenodd" d="M50.7187 80.4295L66.2994 72.6925L65.5543 90.427L50.7912 98.5199L50.7187 80.4295Z" fill="#696969"/>
<path id="R6" fill-rule="evenodd" clip-rule="evenodd" d="M84.8671 43.603L97.4543 38.0869L96.4257 55.8741L84.0099 61.9767L84.8671 43.603Z" fill="#696969"/>
<path id="R5" fill-rule="evenodd" clip-rule="evenodd" d="M68.8709 50.8325L83.1791 44.4136L82.1307 63.1827L68.2115 69.9509L68.8709 50.8325Z" fill="#009A0E"/>
<path id="R4" fill-rule="evenodd" clip-rule="evenodd" d="M50.5869 58.1412L66.7742 51.6695L66.1544 70.6693L50.5869 78.4195V58.1412Z" fill="white"/>
<path id="R3" fill-rule="evenodd" clip-rule="evenodd" d="M86.0275 21.8089L98.5884 16.8332L97.6982 35.9912L85.2033 41.1711L86.0275 21.8089Z" fill="#696969"/>
<path id="R2" fill-rule="evenodd" clip-rule="evenodd" d="M69.0885 28.4387L83.9703 22.5602L83.4956 41.9488L68.8116 48.638L69.0885 28.4387Z" fill="#696969"/>
<path id="R1" fill-rule="evenodd" clip-rule="evenodd" d="M50.4088 35.0488L67.1302 28.9594L66.794 49.5738L50.4879 56.0125L50.4088 35.0488Z" fill="#696969"/>
</g>
<g id="Left">
<path id="L9" fill-rule="evenodd" clip-rule="evenodd" d="M3.92383 58.4377L15.3308 64.1581L15.7264 79.6914L4.5766 73.8128L3.92383 58.4377Z" fill="white"/>
<path id="L8" fill-rule="evenodd" clip-rule="evenodd" d="M17.1638 65.1993L30.9972 71.8621L31.1159 88.0017L17.6781 80.8579L17.1638 65.1993Z" fill="#696969"/>
<path id="L7" fill-rule="evenodd" clip-rule="evenodd" d="M32.9225 72.9957L48.7406 80.5877L48.8263 98.1574L32.8698 89.2012L32.9225 72.9957Z" fill="#696969"/>
<path id="L6" fill-rule="evenodd" clip-rule="evenodd" d="M2.88202 37.8233L14.5527 43.4382L15.2253 62.0492L3.73919 55.9598L2.88202 37.8233Z" fill="#696969"/>
<path id="L5" fill-rule="evenodd" clip-rule="evenodd" d="M16.4055 44.5981L30.5027 50.47L31.0961 69.7203L17.1044 63.1432L16.4055 44.5981Z" fill="#D0021B"/>
<path id="L4" fill-rule="evenodd" clip-rule="evenodd" d="M32.3621 51.2081L48.5758 58.1741L48.5626 78.4128L32.9819 70.8604L32.3621 51.2081Z" fill="#D0021B"/>
<path id="L3" fill-rule="evenodd" clip-rule="evenodd" d="M1.64899 16.6882L13.4845 21.7693L14.3219 41.1316L2.53253 35.3783L1.64899 16.6882Z" fill="white" fill-opacity="0.6"/>
<path id="L2" fill-rule="evenodd" clip-rule="evenodd" d="M15.3769 22.402L29.9356 28.1487L30.6345 48.572L16.2275 42.1992L15.3769 22.402Z" fill="#696969"/>
<path id="L1" fill-rule="evenodd" clip-rule="evenodd" d="M31.8148 28.8737L48.5362 34.9565L48.5099 56.085L32.4808 49.2377L31.8148 28.8737Z" fill="#696969"/>
</g>
<g id="Up">
<path id="Up9" fill-rule="evenodd" clip-rule="evenodd" d="M38.512 4.81478L50.3649 1.35699L61.8268 4.61253L50.0651 8.46176L38.512 4.81478Z" fill="#696969"/>
<path id="Up8" fill-rule="evenodd" clip-rule="evenodd" d="M20.9445 9.53824L35.8209 5.36932L47.6998 9.13374L33.26 13.8246L20.9445 9.53824Z" fill="#696969"/>
<path id="Up7" fill-rule="evenodd" clip-rule="evenodd" d="M3.17499 15.0577L19.0744 10.3995L30.5232 14.4444L14.5261 19.6311L3.17499 15.0577Z" fill="#025AC1" fill-opacity="0.5"/>
<path id="Up6" fill-rule="evenodd" clip-rule="evenodd" d="M16.2268 20.3096L32.7908 15.3187L46.9244 20.0878L30.9533 25.8877L16.2268 20.3096Z" fill="#696969"/>
<path id="Up5" fill-rule="evenodd" clip-rule="evenodd" d="M35.7687 14.5684L49.9544 9.83838L64.4789 14.4314L49.7589 19.3245L35.7687 14.5684Z" fill="#FFDB11"/>
<path id="Up4" fill-rule="evenodd" clip-rule="evenodd" d="M52.007 9.12075L63.3255 5.60425L78.0911 10.0276L67.144 13.6289L52.007 9.12075Z" fill="#025AC1"/>
<path id="Up3" fill-rule="evenodd" clip-rule="evenodd" d="M69.3725 14.4771L80.7888 10.8823L95.9975 15.2795L84.6789 19.6572L69.3725 14.4771Z" fill="#696969"/>
<path id="Up2" fill-rule="evenodd" clip-rule="evenodd" d="M52.0787 20.29L67.131 15.41L82.5547 20.3357L68.1801 26.1095L52.0787 20.29Z" fill="#696969"/>
<path id="Up1" fill-rule="evenodd" clip-rule="evenodd" d="M33.0255 27.0033L49.4396 21.0272L65.9711 26.7945L49.4657 32.7184L33.0255 27.0033Z" fill="#696969"/>
</g>
</g>
<g id="cube copy 3">
<path id="Background_2" fill-rule="evenodd" clip-rule="evenodd" d="M209.582 16.6053L206.516 74.1513C206.49 74.6711 206.163 75.1053 205.719 75.3158L161.484 99.2895C160.837 99.6447 158.582 99.1776 158.118 98.9145L114.288 74.6316C113.81 74.375 113.542 73.8947 113.549 73.4079L110.654 16.4605C110.627 15.8355 112.111 13.9803 112.712 13.8487L159.954 0.0592105C160.229 -0.0197368 160.51 -0.0197368 160.765 0.0592105L206.516 14C207.098 14.1645 209.634 15.5132 209.582 16.6053Z" fill="black"/>
<g id="Right_2">
<path id="R9_2" fill-rule="evenodd" clip-rule="evenodd" d="M194.234 64.2635L206.511 57.9105L205.496 74.4653L193.588 80.7129L194.234 64.2635Z" fill="#696969"/>
<path id="R8_2" fill-rule="evenodd" clip-rule="evenodd" d="M178.324 72.0467L192.21 65.2191L191.425 82.1496L177.579 89.4714L178.324 72.0467Z" fill="#009A0E"/>
<path id="R7_2" fill-rule="evenodd" clip-rule="evenodd" d="M160.719 80.4295L176.299 72.6925L175.554 90.427L160.791 98.5199L160.719 80.4295Z" fill="#696969"/>
<path id="R6_2" fill-rule="evenodd" clip-rule="evenodd" d="M194.867 43.603L207.454 38.0869L206.426 55.8741L194.01 61.9767L194.867 43.603Z" fill="#696969"/>
<path id="R5_2" fill-rule="evenodd" clip-rule="evenodd" d="M178.871 50.8325L193.179 44.4136L192.131 63.1827L178.212 69.9509L178.871 50.8325Z" fill="#009A0E"/>
<path id="R4_2" fill-rule="evenodd" clip-rule="evenodd" d="M160.587 58.1412L176.774 51.6695L176.154 70.6693L160.587 78.4195V58.1412Z" fill="white"/>
<path id="R3_2" fill-rule="evenodd" clip-rule="evenodd" d="M196.028 21.8089L208.588 16.8332L207.698 35.9912L195.203 41.1711L196.028 21.8089Z" fill="#696969"/>
<path id="R2_2" fill-rule="evenodd" clip-rule="evenodd" d="M179.089 28.4387L193.97 22.5602L193.496 41.9488L178.812 48.638L179.089 28.4387Z" fill="#696969"/>
<path id="R1_2" fill-rule="evenodd" clip-rule="evenodd" d="M160.409 35.0488L177.13 28.9594L176.794 49.5738L160.488 56.0125L160.409 35.0488Z" fill="#696969"/>
</g>
<g id="Left_2">
<path id="L9_2" fill-rule="evenodd" clip-rule="evenodd" d="M113.924 58.4377L125.331 64.1581L125.726 79.6914L114.577 73.8128L113.924 58.4377Z" fill="white"/>
<path id="L8_2" fill-rule="evenodd" clip-rule="evenodd" d="M127.164 65.1993L140.997 71.8621L141.116 88.0017L127.678 80.8579L127.164 65.1993Z" fill="#696969"/>
<path id="L7_2" fill-rule="evenodd" clip-rule="evenodd" d="M142.922 72.9957L158.741 80.5877L158.826 98.1574L142.87 89.2012L142.922 72.9957Z" fill="#696969"/>
<path id="L6_2" fill-rule="evenodd" clip-rule="evenodd" d="M112.882 37.8233L124.553 43.4382L125.225 62.0492L113.739 55.9598L112.882 37.8233Z" fill="#696969"/>
<path id="L5_2" fill-rule="evenodd" clip-rule="evenodd" d="M126.406 44.5981L140.503 50.47L141.096 69.7203L127.104 63.1432L126.406 44.5981Z" fill="#D0021B"/>
<path id="L4_2" fill-rule="evenodd" clip-rule="evenodd" d="M142.362 51.2081L158.576 58.1741L158.563 78.4128L142.982 70.8604L142.362 51.2081Z" fill="#D0021B"/>
<path id="L3_2" fill-rule="evenodd" clip-rule="evenodd" d="M111.649 16.6882L123.485 21.7693L124.322 41.1316L112.533 35.3783L111.649 16.6882Z" fill="white" fill-opacity="0.6"/>
<path id="L2_2" fill-rule="evenodd" clip-rule="evenodd" d="M125.377 22.402L139.936 28.1487L140.635 48.572L126.227 42.1992L125.377 22.402Z" fill="#696969"/>
<path id="L1_2" fill-rule="evenodd" clip-rule="evenodd" d="M141.815 28.8737L158.536 34.9565L158.51 56.085L142.481 49.2377L141.815 28.8737Z" fill="#696969"/>
</g>
<g id="Up_2">
<path id="Up9_2" fill-rule="evenodd" clip-rule="evenodd" d="M148.512 4.81478L160.365 1.35699L171.827 4.61253L160.065 8.46176L148.512 4.81478Z" fill="#696969"/>
<path id="Up8_2" fill-rule="evenodd" clip-rule="evenodd" d="M130.945 9.53824L145.821 5.36932L157.7 9.13374L143.26 13.8246L130.945 9.53824Z" fill="#696969"/>
<path id="Up7_2" fill-rule="evenodd" clip-rule="evenodd" d="M113.175 15.0577L129.074 10.3995L140.523 14.4444L124.526 19.6311L113.175 15.0577Z" fill="#025AC1" fill-opacity="0.5"/>
<path id="Up6_2" fill-rule="evenodd" clip-rule="evenodd" d="M126.227 20.3096L142.791 15.3187L156.924 20.0878L140.953 25.8877L126.227 20.3096Z" fill="#696969"/>
<path id="Up5_2" fill-rule="evenodd" clip-rule="evenodd" d="M145.769 14.5684L159.954 9.83838L174.479 14.4314L159.759 19.3245L145.769 14.5684Z" fill="#FFDB11"/>
<path id="Up4_2" fill-rule="evenodd" clip-rule="evenodd" d="M162.007 9.12075L173.325 5.60425L188.091 10.0276L177.144 13.6289L162.007 9.12075Z" fill="#025AC1"/>
<path id="Up3_2" fill-rule="evenodd" clip-rule="evenodd" d="M179.372 14.4771L190.789 10.8823L205.997 15.2795L194.679 19.6572L179.372 14.4771Z" fill="#696969"/>
<path id="Up2_2" fill-rule="evenodd" clip-rule="evenodd" d="M162.079 20.29L177.131 15.41L192.555 20.3357L178.18 26.1095L162.079 20.29Z" fill="#696969"/>
<path id="Up1_2" fill-rule="evenodd" clip-rule="evenodd" d="M143.025 27.0033L159.44 21.0272L175.971 26.7945L159.466 32.7184L143.025 27.0033Z" fill="#696969"/>
</g>
</g>
<g id="cube copy 2">
<path id="Background_3" fill-rule="evenodd" clip-rule="evenodd" d="M319.582 16.6053L316.516 74.1513C316.49 74.6711 316.163 75.1053 315.719 75.3158L271.484 99.2895C270.837 99.6447 268.582 99.1776 268.118 98.9145L224.288 74.6316C223.81 74.375 223.542 73.8947 223.549 73.4079L220.654 16.4605C220.627 15.8355 222.111 13.9803 222.712 13.8487L269.954 0.0592105C270.229 -0.0197368 270.51 -0.0197368 270.765 0.0592105L316.516 14C317.098 14.1645 319.634 15.5132 319.582 16.6053Z" fill="black"/>
<g id="Right_3">
<path id="R9_3" fill-rule="evenodd" clip-rule="evenodd" d="M304.234 64.2635L316.511 57.9105L315.496 74.4653L303.588 80.7129L304.234 64.2635Z" fill="#696969"/>
<path id="R8_3" fill-rule="evenodd" clip-rule="evenodd" d="M288.324 72.0467L302.21 65.2191L301.425 82.1496L287.579 89.4714L288.324 72.0467Z" fill="#009A0E"/>
<path id="R7_3" fill-rule="evenodd" clip-rule="evenodd" d="M270.719 80.4295L286.299 72.6925L285.554 90.427L270.791 98.5199L270.719 80.4295Z" fill="#696969"/>
<path id="R6_3" fill-rule="evenodd" clip-rule="evenodd" d="M304.867 43.603L317.454 38.0869L316.426 55.8741L304.01 61.9767L304.867 43.603Z" fill="#696969"/>
<path id="R5_3" fill-rule="evenodd" clip-rule="evenodd" d="M288.871 50.8325L303.179 44.4136L302.131 63.1827L288.212 69.9509L288.871 50.8325Z" fill="#009A0E"/>
<path id="R4_3" fill-rule="evenodd" clip-rule="evenodd" d="M270.587 58.1412L286.774 51.6695L286.154 70.6693L270.587 78.4195V58.1412Z" fill="#696969"/>
<path id="R3_3" fill-rule="evenodd" clip-rule="evenodd" d="M306.028 21.8089L318.588 16.8332L317.698 35.9912L305.203 41.1711L306.028 21.8089Z" fill="#696969"/>
<path id="R2_3" fill-rule="evenodd" clip-rule="evenodd" d="M289.089 28.4387L303.97 22.5602L303.496 41.9488L288.812 48.638L289.089 28.4387Z" fill="#696969"/>
<path id="R1_3" fill-rule="evenodd" clip-rule="evenodd" d="M270.409 35.0488L287.13 28.9594L286.794 49.5738L270.488 56.0125L270.409 35.0488Z" fill="#696969"/>
</g>
<g id="Left_3">
<path id="L9_3" fill-rule="evenodd" clip-rule="evenodd" d="M223.924 58.4377L235.331 64.1581L235.726 79.6914L224.577 73.8128L223.924 58.4377Z" fill="white" fill-opacity="0.6"/>
<path id="L8_3" fill-rule="evenodd" clip-rule="evenodd" d="M237.164 65.1993L250.997 71.8621L251.116 88.0017L237.678 80.8579L237.164 65.1993Z" fill="#D0021B"/>
<path id="L7_3" fill-rule="evenodd" clip-rule="evenodd" d="M252.922 72.9957L268.741 80.5877L268.826 98.1574L252.87 89.2012L252.922 72.9957Z" fill="#696969"/>
<path id="L6_3" fill-rule="evenodd" clip-rule="evenodd" d="M222.882 37.8233L234.553 43.4382L235.225 62.0492L223.739 55.9598L222.882 37.8233Z" fill="#696969"/>
<path id="L5_3" fill-rule="evenodd" clip-rule="evenodd" d="M236.406 44.5981L250.503 50.47L251.096 69.7203L237.104 63.1432L236.406 44.5981Z" fill="#D0021B"/>
<path id="L4_3" fill-rule="evenodd" clip-rule="evenodd" d="M252.362 51.2081L268.576 58.1741L268.563 78.4128L252.982 70.8604L252.362 51.2081Z" fill="#696969"/>
<path id="L3_3" fill-rule="evenodd" clip-rule="evenodd" d="M221.649 16.6882L233.485 21.7693L234.322 41.1316L222.533 35.3783L221.649 16.6882Z" fill="white"/>
<path id="L2_3" fill-rule="evenodd" clip-rule="evenodd" d="M235.377 22.402L249.936 28.1487L250.635 48.572L236.227 42.1992L235.377 22.402Z" fill="#696969"/>
<path id="L1_3" fill-rule="evenodd" clip-rule="evenodd" d="M251.815 28.8737L268.536 34.9565L268.51 56.085L252.481 49.2377L251.815 28.8737Z" fill="#696969"/>
</g>
<g id="Up_3">
<path id="Up9_3" fill-rule="evenodd" clip-rule="evenodd" d="M258.512 4.81478L270.365 1.35699L281.827 4.61253L270.065 8.46176L258.512 4.81478Z" fill="#696969"/>
<path id="Up8_3" fill-rule="evenodd" clip-rule="evenodd" d="M240.945 9.53824L255.821 5.36932L267.7 9.13374L253.26 13.8246L240.945 9.53824Z" fill="#025AC1"/>
<path id="Up7_3" fill-rule="evenodd" clip-rule="evenodd" d="M223.175 15.0577L239.074 10.3995L250.523 14.4444L234.526 19.6311L223.175 15.0577Z" fill="#025AC1"/>
<path id="Up6_3" fill-rule="evenodd" clip-rule="evenodd" d="M236.227 20.3096L252.791 15.3187L266.924 20.0878L250.953 25.8877L236.227 20.3096Z" fill="#696969"/>
<path id="Up5_3" fill-rule="evenodd" clip-rule="evenodd" d="M255.769 14.5684L269.954 9.83838L284.479 14.4314L269.759 19.3245L255.769 14.5684Z" fill="#FFDB11"/>
<path id="Up4_3" fill-rule="evenodd" clip-rule="evenodd" d="M272.007 9.12075L283.325 5.60425L298.091 10.0276L287.144 13.6289L272.007 9.12075Z" fill="#696969"/>
<path id="Up3_3" fill-rule="evenodd" clip-rule="evenodd" d="M289.372 14.4771L300.789 10.8823L315.997 15.2795L304.679 19.6572L289.372 14.4771Z" fill="#696969"/>
<path id="Up2_3" fill-rule="evenodd" clip-rule="evenodd" d="M272.079 20.29L287.131 15.41L302.555 20.3357L288.18 26.1095L272.079 20.29Z" fill="#696969"/>
<path id="Up1_3" fill-rule="evenodd" clip-rule="evenodd" d="M253.025 27.0033L269.44 21.0272L285.971 26.7945L269.466 32.7184L253.025 27.0033Z" fill="#696969"/>
</g>
</g>
<path id="Line 4" d="M26.2253 35.453C26.7722 35.53 27.2779 35.149 27.3548 34.6021C27.4318 34.0552 27.0508 33.5495 26.5039 33.4726L26.2253 35.453ZM8.26307 52.3469C8.6364 52.7539 9.26898 52.7812 9.67597 52.4079L16.3083 46.3241C16.7153 45.9508 16.7426 45.3182 16.3693 44.9112C15.9959 44.5042 15.3634 44.477 14.9564 44.8503L9.06096 50.2581L3.65318 44.3626C3.27986 43.9556 2.64728 43.9283 2.24029 44.3017C1.83329 44.675 1.806 45.3076 2.17933 45.7146L8.26307 52.3469ZM26.3646 34.4628C26.5039 33.4726 26.5037 33.4725 26.5035 33.4725C26.5033 33.4725 26.5031 33.4724 26.5028 33.4724C26.5022 33.4723 26.5015 33.4722 26.5007 33.4721C26.4989 33.4719 26.4965 33.4715 26.4935 33.4711C26.4875 33.4703 26.479 33.4691 26.468 33.4676C26.446 33.4647 26.4141 33.4604 26.373 33.4551C26.2907 33.4445 26.1713 33.4296 26.019 33.4119C25.7147 33.3766 25.2787 33.3303 24.7466 33.2853C23.6844 33.1955 22.2298 33.1103 20.6694 33.1311C19.1149 33.1518 17.4218 33.2778 15.8949 33.6239C14.3931 33.9642 12.9126 34.5476 11.9271 35.5866L13.3782 36.963C13.9581 36.3516 14.9743 35.8833 16.337 35.5744C17.6746 35.2713 19.2138 35.1506 20.696 35.1309C22.1722 35.1113 23.5586 35.192 24.5781 35.2782C25.087 35.3212 25.5021 35.3654 25.7886 35.3986C25.9318 35.4152 26.0428 35.4291 26.117 35.4387C26.1542 35.4435 26.1821 35.4472 26.2003 35.4496C26.2094 35.4509 26.2161 35.4518 26.2203 35.4524C26.2224 35.4526 26.2239 35.4528 26.2247 35.453C26.2251 35.453 26.2254 35.4531 26.2255 35.4531C26.2255 35.4531 26.2255 35.4531 26.2255 35.4531C26.2254 35.4531 26.2253 35.453 26.3646 34.4628ZM11.9271 35.5866C10.9779 36.5874 10.304 38.15 9.8049 39.7803C9.29583 41.4434 8.92826 43.3176 8.6636 45.0606C8.39829 46.8078 8.23293 48.4467 8.13384 49.6472C8.08425 50.2482 8.05113 50.7409 8.03036 51.0844C8.01997 51.2562 8.01267 51.3908 8.00794 51.4831C8.00557 51.5292 8.00385 51.5648 8.0027 51.5891C8.00213 51.6013 8.0017 51.6106 8.00141 51.6171C8.00126 51.6204 8.00115 51.6229 8.00107 51.6247C8.00103 51.6256 8.001 51.6263 8.00097 51.6268C8.00096 51.6271 8.00095 51.6273 8.00095 51.6275C8.00094 51.6277 8.00093 51.6279 9 51.671C9.99907 51.7141 9.99907 51.7141 9.99907 51.7142C9.99907 51.7141 9.99907 51.7141 9.99907 51.714C9.99908 51.7138 9.9991 51.7134 9.99912 51.7128C9.99918 51.7117 9.99926 51.7098 9.99937 51.7072C9.99961 51.7021 9.99998 51.694 10.0005 51.6832C10.0015 51.6616 10.0031 51.6288 10.0053 51.5855C10.0098 51.499 10.0167 51.3705 10.0267 51.2051C10.0467 50.8743 10.0788 50.3963 10.1271 49.8117C10.2237 48.6413 10.3844 47.05 10.6409 45.3608C10.8981 43.6674 11.248 41.8989 11.7173 40.3657C12.1966 38.7998 12.762 37.6127 13.3782 36.963L11.9271 35.5866Z" fill="white"/>
<path id="Line 4 Copy" d="M246.966 35.2615C247.407 34.9292 247.496 34.3022 247.163 33.8611L241.748 26.6725C241.416 26.2314 240.789 26.1432 240.348 26.4755C239.907 26.8078 239.818 27.4347 240.151 27.8759L244.964 34.2657L238.574 39.0792C238.133 39.4115 238.045 40.0385 238.377 40.4796C238.71 40.9208 239.337 41.009 239.778 40.6767L246.966 35.2615ZM228.001 51.6279C227.977 52.1796 228.405 52.6462 228.957 52.67C229.509 52.6938 229.975 52.2658 229.999 51.7141L228.001 51.6279ZM246.365 34.4628C246.504 33.4726 246.504 33.4725 246.503 33.4725C246.503 33.4725 246.503 33.4724 246.503 33.4724C246.502 33.4723 246.502 33.4722 246.501 33.4721C246.499 33.4719 246.497 33.4715 246.494 33.4711C246.488 33.4703 246.479 33.4691 246.468 33.4676C246.446 33.4647 246.414 33.4604 246.373 33.4551C246.291 33.4445 246.171 33.4296 246.019 33.4119C245.715 33.3766 245.279 33.3303 244.747 33.2853C243.684 33.1955 242.23 33.1103 240.669 33.1311C239.115 33.1518 237.422 33.2778 235.895 33.6239C234.393 33.9642 232.913 34.5476 231.927 35.5866L233.378 36.963C233.958 36.3516 234.974 35.8833 236.337 35.5744C237.675 35.2713 239.214 35.1506 240.696 35.1309C242.172 35.1113 243.559 35.192 244.578 35.2782C245.087 35.3212 245.502 35.3654 245.789 35.3986C245.932 35.4152 246.043 35.4291 246.117 35.4387C246.154 35.4435 246.182 35.4472 246.2 35.4496C246.209 35.4509 246.216 35.4518 246.22 35.4524C246.222 35.4526 246.224 35.4528 246.225 35.453C246.225 35.453 246.225 35.4531 246.225 35.4531C246.226 35.4531 246.225 35.4531 246.225 35.4531C246.225 35.4531 246.225 35.453 246.365 34.4628ZM231.927 35.5866C230.978 36.5874 230.304 38.15 229.805 39.7803C229.296 41.4434 228.928 43.3176 228.664 45.0606C228.398 46.8078 228.233 48.4467 228.134 49.6472C228.084 50.2482 228.051 50.7409 228.03 51.0844C228.02 51.2562 228.013 51.3908 228.008 51.4831C228.006 51.5292 228.004 51.5648 228.003 51.5891C228.002 51.6013 228.002 51.6106 228.001 51.6171C228.001 51.6204 228.001 51.6229 228.001 51.6247C228.001 51.6256 228.001 51.6263 228.001 51.6268C228.001 51.6271 228.001 51.6273 228.001 51.6275C228.001 51.6277 228.001 51.6279 229 51.671C229.999 51.7141 229.999 51.7141 229.999 51.7142C229.999 51.7141 229.999 51.7141 229.999 51.714C229.999 51.7138 229.999 51.7134 229.999 51.7128C229.999 51.7117 229.999 51.7098 229.999 51.7072C230 51.7021 230 51.694 230 51.6832C230.002 51.6616 230.003 51.6288 230.005 51.5855C230.01 51.499 230.017 51.3705 230.027 51.2051C230.047 50.8743 230.079 50.3963 230.127 49.8117C230.224 48.6413 230.384 47.05 230.641 45.3608C230.898 43.6674 231.248 41.8989 231.717 40.3657C232.197 38.7998 232.762 37.6127 233.378 36.963L231.927 35.5866Z" fill="white"/>
<path id="Line 5" d="M175.771 10.1299C176.269 10.368 176.866 10.1571 177.105 9.65884C177.343 9.16054 177.132 8.56353 176.634 8.32538L175.771 10.1299ZM145.069 7.72622C144.867 8.24014 145.12 8.82071 145.634 9.02296L154.009 12.3189C154.522 12.5211 155.103 12.2685 155.305 11.7546C155.508 11.2406 155.255 10.6601 154.741 10.4578L147.297 7.52812L150.226 0.083868C150.429 -0.43005 150.176 -1.01062 149.662 -1.21288C149.148 -1.41513 148.568 -1.16248 148.365 -0.648558L145.069 7.72622ZM176.202 9.22763C176.634 8.32538 176.633 8.3253 176.633 8.3252C176.633 8.32514 176.633 8.32503 176.633 8.32492C176.632 8.3247 176.632 8.32442 176.631 8.32408C176.629 8.32339 176.627 8.32244 176.625 8.32125C176.62 8.31886 176.613 8.31547 176.603 8.3111C176.585 8.30238 176.558 8.28977 176.523 8.27354C176.453 8.24108 176.352 8.19411 176.22 8.13471C175.957 8.01593 175.576 7.84733 175.097 7.64553C174.14 7.24218 172.789 6.70484 171.211 6.16725C168.077 5.09944 163.96 4 160.231 4V6C163.628 6 167.496 7.01437 170.566 8.06038C172.09 8.5797 173.397 9.09927 174.321 9.4886C174.782 9.68314 175.148 9.84482 175.396 9.95724C175.521 10.0134 175.616 10.0573 175.679 10.0868C175.711 10.1015 175.735 10.1126 175.75 10.1199C175.758 10.1235 175.763 10.1262 175.767 10.1279C175.769 10.1287 175.77 10.1293 175.771 10.1296C175.771 10.1298 175.771 10.1299 175.771 10.13C175.771 10.13 175.771 10.13 175.771 10.13C175.771 10.1299 175.771 10.1299 176.202 9.22763ZM160.231 4C156.537 4 152.878 4.79931 150.165 5.58575C148.804 5.98043 147.669 6.37525 146.872 6.67226C146.474 6.82084 146.159 6.94516 145.943 7.03304C145.835 7.07699 145.751 7.11184 145.693 7.13609C145.665 7.14821 145.642 7.15768 145.627 7.16431C145.619 7.16763 145.613 7.17023 145.609 7.17211C145.607 7.17304 145.605 7.17379 145.604 7.17436C145.603 7.17464 145.602 7.17488 145.602 7.17507C145.602 7.17516 145.601 7.17527 145.601 7.17532C145.601 7.17541 145.601 7.1755 146 8.09243C146.399 9.00937 146.399 9.00943 146.399 9.00948C146.399 9.00948 146.399 9.00952 146.399 9.00952C146.399 9.00952 146.399 9.00947 146.399 9.00938C146.399 9.0092 146.4 9.00883 146.402 9.00828C146.404 9.00718 146.408 9.00535 146.414 9.00281C146.426 8.99774 146.445 8.98985 146.47 8.97932C146.52 8.95827 146.596 8.92668 146.696 8.88607C146.896 8.80484 147.192 8.68756 147.571 8.54623C148.33 8.2634 149.417 7.88512 150.722 7.50668C153.343 6.74691 156.8 6 160.231 6V4Z" fill="white"/>
</g>
<defs>
<clipPath id="clip0">
<rect width="320" height="100" fill="white"/>
</clipPath>
</defs>
</svg>
