<svg width="210" height="100" viewBox="0 0 210 100" fill="none" xmlns="http://www.w3.org/2000/svg">
<g id="f2l_int_12" clip-path="url(#clip0)">
<g id="l_cube">
<path id="Background" fill-rule="evenodd" clip-rule="evenodd" d="M99.5817 15.6053L96.5163 73.1513C96.4902 73.6711 96.1634 74.1053 95.719 74.3158L51.4837 98.2895C50.8366 98.6447 48.5817 98.1776 48.1177 97.9145L4.28759 73.6316C3.81046 73.375 3.54249 72.8947 3.54903 72.4079L0.6536 15.4605C0.627457 14.8355 2.11112 12.9803 2.71242 12.8487L49.9543 -0.940789C50.2288 -1.01974 50.5098 -1.01974 50.7647 -0.940789L96.5163 13C97.098 13.1645 99.634 14.5132 99.5817 15.6053Z" fill="black"/>
<g id="Right">
<path id="R9" fill-rule="evenodd" clip-rule="evenodd" d="M84.2341 63.2635L96.5114 56.9105L95.496 73.4653L83.5879 79.7129L84.2341 63.2635Z" fill="#696969"/>
<path id="R8" fill-rule="evenodd" clip-rule="evenodd" d="M68.3237 71.0467L82.2099 64.2191L81.4252 81.1496L67.5786 88.4714L68.3237 71.0467Z" fill="#009A0E"/>
<path id="R7" fill-rule="evenodd" clip-rule="evenodd" d="M50.7187 79.4295L66.2994 71.6925L65.5543 89.427L50.7912 97.5199L50.7187 79.4295Z" fill="#4A4A4A"/>
<path id="R6" fill-rule="evenodd" clip-rule="evenodd" d="M84.8671 42.603L97.4543 37.0869L96.4257 54.8741L84.0099 60.9767L84.8671 42.603Z" fill="#696969"/>
<path id="R5" fill-rule="evenodd" clip-rule="evenodd" d="M68.8709 49.8325L83.1791 43.4136L82.1307 62.1827L68.2115 68.9509L68.8709 49.8325Z" fill="#009A0E"/>
<path id="R4" fill-rule="evenodd" clip-rule="evenodd" d="M50.5869 57.1412L66.7742 50.6695L66.1544 69.6693L50.5869 77.4195V57.1412Z" fill="#4A4A4A"/>
<path id="R3" fill-rule="evenodd" clip-rule="evenodd" d="M86.0275 20.8089L98.5884 15.8332L97.6982 34.9912L85.2033 40.1711L86.0275 20.8089Z" fill="#696969"/>
<path id="R2" fill-rule="evenodd" clip-rule="evenodd" d="M69.0885 27.4387L83.9703 21.5602L83.4956 40.9488L68.8116 47.638L69.0885 27.4387Z" fill="#696969"/>
<path id="R1" fill-rule="evenodd" clip-rule="evenodd" d="M50.4088 34.0488L67.1302 27.9594L66.794 48.5738L50.4879 55.0125L50.4088 34.0488Z" fill="#696969"/>
</g>
<g id="Left">
<path id="L9" fill-rule="evenodd" clip-rule="evenodd" d="M3.92383 57.4377L15.3308 63.1581L15.7264 78.6914L4.5766 72.8128L3.92383 57.4377Z" fill="#696969"/>
<path id="L8" fill-rule="evenodd" clip-rule="evenodd" d="M17.1638 64.1993L30.9972 70.8621L31.1159 87.0017L17.6781 79.8579L17.1638 64.1993Z" fill="#D0021B"/>
<path id="L7" fill-rule="evenodd" clip-rule="evenodd" d="M32.9225 71.9957L48.7406 79.5877L48.8263 97.1574L32.8698 88.2012L32.9225 71.9957Z" fill="#4A4A4A"/>
<path id="L6" fill-rule="evenodd" clip-rule="evenodd" d="M2.88202 36.8233L14.5527 42.4382L15.2253 61.0492L3.73919 54.9598L2.88202 36.8233Z" fill="#696969"/>
<path id="L5" fill-rule="evenodd" clip-rule="evenodd" d="M16.4055 43.5981L30.5027 49.47L31.0961 68.7203L17.1044 62.1432L16.4055 43.5981Z" fill="#D0021B"/>
<path id="L4" fill-rule="evenodd" clip-rule="evenodd" d="M32.3621 50.2081L48.5758 57.1741L48.5626 77.4128L32.9819 69.8604L32.3621 50.2081Z" fill="#4A4A4A"/>
<path id="L3" fill-rule="evenodd" clip-rule="evenodd" d="M1.64899 15.6882L13.4845 20.7693L14.3219 40.1316L2.53253 34.3783L1.64899 15.6882Z" fill="#009A0E"/>
<path id="L2" fill-rule="evenodd" clip-rule="evenodd" d="M15.3769 21.402L29.9356 27.1487L30.6345 47.572L16.2275 41.1992L15.3769 21.402Z" fill="#009A0E"/>
<path id="L1" fill-rule="evenodd" clip-rule="evenodd" d="M31.8148 27.8737L48.5362 33.9565L48.5099 55.085L32.4808 48.2377L31.8148 27.8737Z" fill="#696969"/>
</g>
<g id="Up">
<path id="Up9" fill-rule="evenodd" clip-rule="evenodd" d="M38.512 3.81478L50.3649 0.356995L61.8268 3.61253L50.0651 7.46176L38.512 3.81478Z" fill="#696969"/>
<path id="Up8" fill-rule="evenodd" clip-rule="evenodd" d="M20.9445 8.53824L35.8209 4.36932L47.6998 8.13374L33.26 12.8246L20.9445 8.53824Z" fill="#696969"/>
<path id="Up7" fill-rule="evenodd" clip-rule="evenodd" d="M3.17499 14.0577L19.0744 9.39948L30.5232 13.4444L14.5261 18.6311L3.17499 14.0577Z" fill="#D0021B"/>
<path id="Up6" fill-rule="evenodd" clip-rule="evenodd" d="M16.2268 19.3096L32.7908 14.3187L46.9244 19.0878L30.9533 24.8877L16.2268 19.3096Z" fill="#D0021B"/>
<path id="Up5" fill-rule="evenodd" clip-rule="evenodd" d="M35.7687 13.5684L49.9544 8.83838L64.4789 13.4314L49.7589 18.3245L35.7687 13.5684Z" fill="#FFDB11"/>
<path id="Up4" fill-rule="evenodd" clip-rule="evenodd" d="M52.007 8.12075L63.3255 4.60425L78.0911 9.0276L67.144 12.6289L52.007 8.12075Z" fill="#696969"/>
<path id="Up3" fill-rule="evenodd" clip-rule="evenodd" d="M69.3725 13.4771L80.7888 9.88226L95.9975 14.2795L84.6789 18.6572L69.3725 13.4771Z" fill="#696969"/>
<path id="Up2" fill-rule="evenodd" clip-rule="evenodd" d="M52.0787 19.29L67.131 14.41L82.5547 19.3357L68.1801 25.1095L52.0787 19.29Z" fill="#696969"/>
<path id="Up1" fill-rule="evenodd" clip-rule="evenodd" d="M33.0255 26.0033L49.4396 20.0272L65.9711 25.7945L49.4657 31.7184L33.0255 26.0033Z" fill="#696969"/>
</g>
</g>
<g id="r_cube">
<path id="Background_2" fill-rule="evenodd" clip-rule="evenodd" d="M209.582 16.6053L206.516 74.1513C206.49 74.6711 206.163 75.1053 205.719 75.3158L161.484 99.2895C160.837 99.6447 158.582 99.1776 158.118 98.9145L114.288 74.6316C113.81 74.375 113.542 73.8947 113.549 73.4079L110.654 16.4605C110.627 15.8355 112.111 13.9803 112.712 13.8487L159.954 0.0592105C160.229 -0.0197368 160.51 -0.0197368 160.765 0.0592105L206.516 14C207.098 14.1645 209.634 15.5132 209.582 16.6053Z" fill="black"/>
<g id="Right_2">
<path id="R9_2" fill-rule="evenodd" clip-rule="evenodd" d="M194.234 64.2635L206.511 57.9105L205.496 74.4653L193.588 80.7129L194.234 64.2635Z" fill="#696969"/>
<path id="R8_2" fill-rule="evenodd" clip-rule="evenodd" d="M178.324 72.0467L192.21 65.2191L191.425 82.1496L177.579 89.4714L178.324 72.0467Z" fill="#009A0E"/>
<path id="R7_2" fill-rule="evenodd" clip-rule="evenodd" d="M160.719 80.4295L176.299 72.6925L175.554 90.427L160.791 98.5199L160.719 80.4295Z" fill="#696969"/>
<path id="R6_2" fill-rule="evenodd" clip-rule="evenodd" d="M194.867 43.603L207.454 38.0869L206.426 55.8741L194.01 61.9767L194.867 43.603Z" fill="#696969"/>
<path id="R5_2" fill-rule="evenodd" clip-rule="evenodd" d="M178.871 50.8325L193.179 44.4136L192.131 63.1827L178.212 69.9509L178.871 50.8325Z" fill="#009A0E"/>
<path id="R4_2" fill-rule="evenodd" clip-rule="evenodd" d="M160.587 58.1412L176.774 51.6695L176.154 70.6693L160.587 78.4195V58.1412Z" fill="#696969"/>
<path id="R3_2" fill-rule="evenodd" clip-rule="evenodd" d="M196.028 21.8089L208.588 16.8332L207.698 35.9912L195.203 41.1711L196.028 21.8089Z" fill="#696969"/>
<path id="R2_2" fill-rule="evenodd" clip-rule="evenodd" d="M179.089 28.4387L193.97 22.5602L193.496 41.9488L178.812 48.638L179.089 28.4387Z" fill="#696969"/>
<path id="R1_2" fill-rule="evenodd" clip-rule="evenodd" d="M160.409 35.0488L177.13 28.9594L176.794 49.5738L160.488 56.0125L160.409 35.0488Z" fill="white"/>
</g>
<g id="Left_2">
<path id="L9_2" fill-rule="evenodd" clip-rule="evenodd" d="M113.924 58.4377L125.331 64.1581L125.726 79.6914L114.577 73.8128L113.924 58.4377Z" fill="#4A4A4A"/>
<path id="L8_2" fill-rule="evenodd" clip-rule="evenodd" d="M127.164 65.1993L140.997 71.8621L141.116 88.0017L127.678 80.8579L127.164 65.1993Z" fill="#D0021B"/>
<path id="L7_2" fill-rule="evenodd" clip-rule="evenodd" d="M142.922 72.9957L158.741 80.5877L158.826 98.1574L142.87 89.2012L142.922 72.9957Z" fill="#696969"/>
<path id="L6_2" fill-rule="evenodd" clip-rule="evenodd" d="M112.882 37.8233L124.553 43.4382L125.225 62.0492L113.739 55.9598L112.882 37.8233Z" fill="#4A4A4A"/>
<path id="L5_2" fill-rule="evenodd" clip-rule="evenodd" d="M126.406 44.5981L140.503 50.47L141.096 69.7203L127.104 63.1432L126.406 44.5981Z" fill="#D0021B"/>
<path id="L4_2" fill-rule="evenodd" clip-rule="evenodd" d="M142.362 51.2081L158.576 58.1741L158.563 78.4128L142.982 70.8604L142.362 51.2081Z" fill="#696969"/>
<path id="L3_2" fill-rule="evenodd" clip-rule="evenodd" d="M111.649 16.6882L123.485 21.7693L124.322 41.1316L112.533 35.3783L111.649 16.6882Z" fill="#696969"/>
<path id="L2_2" fill-rule="evenodd" clip-rule="evenodd" d="M125.377 22.402L139.936 28.1487L140.635 48.572L126.227 42.1992L125.377 22.402Z" fill="#025AC1"/>
<path id="L1_2" fill-rule="evenodd" clip-rule="evenodd" d="M141.815 28.8737L158.536 34.9565L158.51 56.085L142.481 49.2377L141.815 28.8737Z" fill="#025AC1"/>
</g>
<g id="Up_2">
<path id="Up9_2" fill-rule="evenodd" clip-rule="evenodd" d="M148.512 4.81478L160.365 1.35699L171.827 4.61253L160.065 8.46176L148.512 4.81478Z" fill="#696969"/>
<path id="Up8_2" fill-rule="evenodd" clip-rule="evenodd" d="M130.945 9.53824L145.821 5.36932L157.7 9.13374L143.26 13.8246L130.945 9.53824Z" fill="#696969"/>
<path id="Up7_2" fill-rule="evenodd" clip-rule="evenodd" d="M113.175 15.0577L129.074 10.3995L140.523 14.4444L124.526 19.6311L113.175 15.0577Z" fill="#696969"/>
<path id="Up6_2" fill-rule="evenodd" clip-rule="evenodd" d="M126.227 20.3096L142.791 15.3187L156.924 20.0878L140.953 25.8877L126.227 20.3096Z" fill="#D0021B"/>
<path id="Up5_2" fill-rule="evenodd" clip-rule="evenodd" d="M145.769 14.5684L159.954 9.83838L174.479 14.4314L159.759 19.3245L145.769 14.5684Z" fill="#FFDB11"/>
<path id="Up4_2" fill-rule="evenodd" clip-rule="evenodd" d="M162.007 9.12075L173.325 5.60425L188.091 10.0276L177.144 13.6289L162.007 9.12075Z" fill="#696969"/>
<path id="Up3_2" fill-rule="evenodd" clip-rule="evenodd" d="M179.372 14.4771L190.789 10.8823L205.997 15.2795L194.679 19.6572L179.372 14.4771Z" fill="#696969"/>
<path id="Up2_2" fill-rule="evenodd" clip-rule="evenodd" d="M162.079 20.29L177.131 15.41L192.555 20.3357L178.18 26.1095L162.079 20.29Z" fill="#696969"/>
<path id="Up1_2" fill-rule="evenodd" clip-rule="evenodd" d="M143.025 27.0033L159.44 21.0272L175.971 26.7945L159.466 32.7184L143.025 27.0033Z" fill="#D0021B"/>
</g>
</g>
</g>
<defs>
<clipPath id="clip0">
<rect width="210" height="100" fill="white"/>
</clipPath>
</defs>
</svg>
