<svg width="210" height="100" viewBox="0 0 210 100" fill="none" xmlns="http://www.w3.org/2000/svg">
<g id="f2l_int_8">
<g id="cube">
<path id="Background" fill-rule="evenodd" clip-rule="evenodd" d="M99.5817 16.6053L96.5163 74.1513C96.4902 74.6711 96.1634 75.1053 95.719 75.3158L51.4837 99.2895C50.8366 99.6447 48.5817 99.1776 48.1177 98.9145L4.28759 74.6316C3.81046 74.375 3.54249 73.8947 3.54903 73.4079L0.6536 16.4605C0.627457 15.8355 2.11112 13.9803 2.71242 13.8487L49.9543 0.0592105C50.2288 -0.0197368 50.5098 -0.0197368 50.7647 0.0592105L96.5163 14C97.098 14.1645 99.634 15.5132 99.5817 16.6053Z" fill="black"/>
<g id="Right">
<path id="R9" fill-rule="evenodd" clip-rule="evenodd" d="M84.2341 64.2636L96.5114 57.9105L95.496 74.4653L83.5879 80.7129L84.2341 64.2636Z" fill="#696969"/>
<path id="R8" fill-rule="evenodd" clip-rule="evenodd" d="M68.3237 72.0467L82.2098 65.2191L81.4252 82.1496L67.5786 89.4714L68.3237 72.0467Z" fill="#009A0E"/>
<path id="R7" fill-rule="evenodd" clip-rule="evenodd" d="M50.7187 80.4295L66.2994 72.6925L65.5544 90.427L50.7912 98.5199L50.7187 80.4295Z" fill="#696969"/>
<path id="R6" fill-rule="evenodd" clip-rule="evenodd" d="M84.8671 43.603L97.4543 38.0869L96.4257 55.8741L84.0099 61.9767L84.8671 43.603Z" fill="#696969"/>
<path id="R5" fill-rule="evenodd" clip-rule="evenodd" d="M68.8709 50.8325L83.1791 44.4136L82.1307 63.1827L68.2116 69.9509L68.8709 50.8325Z" fill="#009A0E"/>
<path id="R4" fill-rule="evenodd" clip-rule="evenodd" d="M50.5868 58.1411L66.7742 51.6694L66.1544 70.6692L50.5868 78.4194V58.1411Z" fill="#696969"/>
<path id="R3" fill-rule="evenodd" clip-rule="evenodd" d="M86.0275 21.8089L98.5884 16.8333L97.6982 35.9912L85.2033 41.1712L86.0275 21.8089Z" fill="white"/>
<path id="R2" fill-rule="evenodd" clip-rule="evenodd" d="M69.0885 28.4387L83.9703 22.5602L83.4956 41.9488L68.8116 48.638L69.0885 28.4387Z" fill="#696969"/>
<path id="R1" fill-rule="evenodd" clip-rule="evenodd" d="M50.4088 35.0488L67.1302 28.9594L66.794 49.5738L50.4879 56.0125L50.4088 35.0488Z" fill="#009A0E" fill-opacity="0.5"/>
</g>
<g id="Left">
<path id="L9" fill-rule="evenodd" clip-rule="evenodd" d="M3.9238 58.4377L15.3308 64.1581L15.7264 79.6914L4.57657 73.8129L3.9238 58.4377Z" fill="#696969"/>
<path id="L8" fill-rule="evenodd" clip-rule="evenodd" d="M17.1638 65.1993L30.9972 71.8621L31.1159 88.0017L17.6781 80.8579L17.1638 65.1993Z" fill="#D0021B"/>
<path id="L7" fill-rule="evenodd" clip-rule="evenodd" d="M32.9225 72.9956L48.7406 80.5876L48.8263 98.1573L32.8698 89.2011L32.9225 72.9956Z" fill="#696969"/>
<path id="L6" fill-rule="evenodd" clip-rule="evenodd" d="M2.88202 37.8232L14.5527 43.4382L15.2253 62.0492L3.73919 55.9597L2.88202 37.8232Z" fill="#696969"/>
<path id="L5" fill-rule="evenodd" clip-rule="evenodd" d="M16.4055 44.5981L30.5027 50.4701L31.0961 69.7203L17.1044 63.1432L16.4055 44.5981Z" fill="#D0021B"/>
<path id="L4" fill-rule="evenodd" clip-rule="evenodd" d="M32.3621 51.2081L48.5758 58.1741L48.5626 78.4128L32.9819 70.8604L32.3621 51.2081Z" fill="#696969"/>
<path id="L3" fill-rule="evenodd" clip-rule="evenodd" d="M1.64899 16.6882L13.4845 21.7693L14.3219 41.1316L2.53253 35.3783L1.64899 16.6882Z" fill="#696969"/>
<path id="L2" fill-rule="evenodd" clip-rule="evenodd" d="M15.3769 22.402L29.9356 28.1487L30.6346 48.572L16.2275 42.1992L15.3769 22.402Z" fill="#696969"/>
<path id="L1" fill-rule="evenodd" clip-rule="evenodd" d="M31.8148 28.8737L48.5362 34.9565L48.5098 56.085L32.4807 49.2377L31.8148 28.8737Z" fill="white" fill-opacity="0.6"/>
</g>
<g id="Up">
<path id="Up9" fill-rule="evenodd" clip-rule="evenodd" d="M38.5121 4.81484L50.3649 1.35706L61.8268 4.61259L50.0652 8.46183L38.5121 4.81484Z" fill="#696969"/>
<path id="Up8" fill-rule="evenodd" clip-rule="evenodd" d="M20.9445 9.5383L35.8209 5.36938L47.6998 9.1338L33.26 13.8246L20.9445 9.5383Z" fill="#696969"/>
<path id="Up7" fill-rule="evenodd" clip-rule="evenodd" d="M3.17502 15.0576L19.0744 10.3994L30.5233 14.4444L14.5261 19.631L3.17502 15.0576Z" fill="#696969"/>
<path id="Up6" fill-rule="evenodd" clip-rule="evenodd" d="M16.2268 20.3096L32.7909 15.3186L46.9244 20.0877L30.9533 25.8877L16.2268 20.3096Z" fill="#696969"/>
<path id="Up5" fill-rule="evenodd" clip-rule="evenodd" d="M35.7687 14.5684L49.9544 9.83838L64.4789 14.4314L49.7589 19.3245L35.7687 14.5684Z" fill="#FFDB11"/>
<path id="Up4" fill-rule="evenodd" clip-rule="evenodd" d="M52.007 9.12075L63.3255 5.60425L78.0911 10.0276L67.144 13.6289L52.007 9.12075Z" fill="#696969"/>
<path id="Up3" fill-rule="evenodd" clip-rule="evenodd" d="M69.3725 14.477L80.7888 10.8822L95.9975 15.2795L84.6789 19.6571L69.3725 14.477Z" fill="#D0021B"/>
<path id="Up2" fill-rule="evenodd" clip-rule="evenodd" d="M52.0786 20.2901L67.1309 15.41L82.5546 20.3357L68.18 26.1096L52.0786 20.2901Z" fill="#696969"/>
<path id="Up1" fill-rule="evenodd" clip-rule="evenodd" d="M33.0255 27.0033L49.4396 21.0272L65.9711 26.7945L49.4657 32.7184L33.0255 27.0033Z" fill="#D0021B" fill-opacity="0.5"/>
</g>
</g>
<g id="cube copy">
<path id="Background_2" fill-rule="evenodd" clip-rule="evenodd" d="M209.582 16.6053L206.516 74.1513C206.49 74.6711 206.163 75.1053 205.719 75.3158L161.484 99.2895C160.837 99.6447 158.582 99.1776 158.118 98.9145L114.288 74.6316C113.81 74.375 113.542 73.8947 113.549 73.4079L110.654 16.4605C110.627 15.8355 112.111 13.9803 112.712 13.8487L159.954 0.0592105C160.229 -0.0197368 160.51 -0.0197368 160.765 0.0592105L206.516 14C207.098 14.1645 209.634 15.5132 209.582 16.6053Z" fill="black"/>
<g id="Right_2">
<path id="R9_2" fill-rule="evenodd" clip-rule="evenodd" d="M194.234 64.2636L206.511 57.9105L205.496 74.4653L193.588 80.7129L194.234 64.2636Z" fill="#696969"/>
<path id="R8_2" fill-rule="evenodd" clip-rule="evenodd" d="M178.324 72.0467L192.21 65.2191L191.425 82.1496L177.579 89.4714L178.324 72.0467Z" fill="#009A0E"/>
<path id="R7_2" fill-rule="evenodd" clip-rule="evenodd" d="M160.719 80.4295L176.299 72.6925L175.554 90.427L160.791 98.5199L160.719 80.4295Z" fill="#696969"/>
<path id="R6_2" fill-rule="evenodd" clip-rule="evenodd" d="M194.867 43.603L207.454 38.0869L206.426 55.8741L194.01 61.9767L194.867 43.603Z" fill="#696969"/>
<path id="R5_2" fill-rule="evenodd" clip-rule="evenodd" d="M178.871 50.8325L193.179 44.4136L192.131 63.1827L178.212 69.9509L178.871 50.8325Z" fill="#009A0E"/>
<path id="R4_2" fill-rule="evenodd" clip-rule="evenodd" d="M160.587 58.1411L176.774 51.6694L176.154 70.6692L160.587 78.4194V58.1411Z" fill="#696969"/>
<path id="R3_2" fill-rule="evenodd" clip-rule="evenodd" d="M196.028 21.8089L208.588 16.8333L207.698 35.9912L195.203 41.1712L196.028 21.8089Z" fill="#696969"/>
<path id="R2_2" fill-rule="evenodd" clip-rule="evenodd" d="M179.089 28.4387L193.97 22.5602L193.496 41.9488L178.812 48.638L179.089 28.4387Z" fill="#696969"/>
<path id="R1_2" fill-rule="evenodd" clip-rule="evenodd" d="M160.409 35.0488L177.13 28.9594L176.794 49.5738L160.488 56.0125L160.409 35.0488Z" fill="white" fill-opacity="0.6"/>
</g>
<g id="Left_2">
<path id="L9_2" fill-rule="evenodd" clip-rule="evenodd" d="M113.924 58.4377L125.331 64.1581L125.726 79.6914L114.577 73.8129L113.924 58.4377Z" fill="#696969"/>
<path id="L8_2" fill-rule="evenodd" clip-rule="evenodd" d="M127.164 65.1993L140.997 71.8621L141.116 88.0017L127.678 80.8579L127.164 65.1993Z" fill="#D0021B"/>
<path id="L7_2" fill-rule="evenodd" clip-rule="evenodd" d="M142.922 72.9956L158.741 80.5876L158.826 98.1573L142.87 89.2011L142.922 72.9956Z" fill="#696969"/>
<path id="L6_2" fill-rule="evenodd" clip-rule="evenodd" d="M112.882 37.8232L124.553 43.4382L125.225 62.0492L113.739 55.9597L112.882 37.8232Z" fill="#696969"/>
<path id="L5_2" fill-rule="evenodd" clip-rule="evenodd" d="M126.406 44.5981L140.503 50.4701L141.096 69.7203L127.104 63.1432L126.406 44.5981Z" fill="#D0021B"/>
<path id="L4_2" fill-rule="evenodd" clip-rule="evenodd" d="M142.362 51.2081L158.576 58.1741L158.563 78.4128L142.982 70.8604L142.362 51.2081Z" fill="#696969"/>
<path id="L3_2" fill-rule="evenodd" clip-rule="evenodd" d="M111.649 16.6882L123.485 21.7693L124.322 41.1316L112.533 35.3783L111.649 16.6882Z" fill="white"/>
<path id="L2_2" fill-rule="evenodd" clip-rule="evenodd" d="M125.377 22.402L139.936 28.1487L140.635 48.572L126.227 42.1992L125.377 22.402Z" fill="#696969"/>
<path id="L1_2" fill-rule="evenodd" clip-rule="evenodd" d="M141.815 28.8737L158.536 34.9565L158.51 56.085L142.481 49.2377L141.815 28.8737Z" fill="#D0021B" fill-opacity="0.5"/>
</g>
<g id="Up_2">
<path id="Up9_2" fill-rule="evenodd" clip-rule="evenodd" d="M148.512 4.81484L160.365 1.35706L171.827 4.61259L160.065 8.46183L148.512 4.81484Z" fill="#696969"/>
<path id="Up8_2" fill-rule="evenodd" clip-rule="evenodd" d="M130.945 9.5383L145.821 5.36938L157.7 9.1338L143.26 13.8246L130.945 9.5383Z" fill="#696969"/>
<path id="Up7_2" fill-rule="evenodd" clip-rule="evenodd" d="M113.175 15.0576L129.074 10.3994L140.523 14.4444L124.526 19.631L113.175 15.0576Z" fill="#009A0E"/>
<path id="Up6_2" fill-rule="evenodd" clip-rule="evenodd" d="M126.227 20.3096L142.791 15.3186L156.924 20.0877L140.953 25.8877L126.227 20.3096Z" fill="#696969"/>
<path id="Up5_2" fill-rule="evenodd" clip-rule="evenodd" d="M145.769 14.5684L159.954 9.83838L174.479 14.4314L159.759 19.3245L145.769 14.5684Z" fill="#FFDB11"/>
<path id="Up4_2" fill-rule="evenodd" clip-rule="evenodd" d="M162.007 9.12075L173.325 5.60425L188.091 10.0276L177.144 13.6289L162.007 9.12075Z" fill="#696969"/>
<path id="Up3_2" fill-rule="evenodd" clip-rule="evenodd" d="M179.372 14.477L190.789 10.8822L205.997 15.2795L194.679 19.6571L179.372 14.477Z" fill="#696969"/>
<path id="Up2_2" fill-rule="evenodd" clip-rule="evenodd" d="M162.079 20.2901L177.131 15.41L192.555 20.3357L178.18 26.1096L162.079 20.2901Z" fill="#696969"/>
<path id="Up1_2" fill-rule="evenodd" clip-rule="evenodd" d="M143.025 27.0033L159.44 21.0272L175.971 26.7945L159.466 32.7184L143.025 27.0033Z" fill="#009A0E" fill-opacity="0.5"/>
</g>
</g>
<path id="Line 2" d="M39.4023 45.2766C38.8967 45.0544 38.3067 45.2841 38.0845 45.7897C37.8623 46.2954 38.0921 46.8854 38.5977 47.1076L39.4023 45.2766ZM91.7252 31.0708C91.8864 30.5426 91.589 29.9837 91.0608 29.8224L82.4531 27.1941C81.9249 27.0328 81.366 27.3302 81.2047 27.8584C81.0434 28.3866 81.3408 28.9456 81.869 29.1069L89.5203 31.4432L87.184 39.0944C87.0227 39.6226 87.3202 40.1816 87.8484 40.3429C88.3766 40.5042 88.9355 40.2067 89.0968 39.6785L91.7252 31.0708ZM39 46.1921C38.5977 47.1076 38.5984 47.1079 38.5991 47.1082C38.5994 47.1083 38.6002 47.1087 38.6007 47.1089C38.6018 47.1094 38.603 47.1099 38.6043 47.1105C38.6068 47.1116 38.6098 47.1128 38.613 47.1142C38.6195 47.117 38.6275 47.1203 38.6368 47.1241C38.6555 47.1318 38.6799 47.1416 38.7101 47.1531C38.7704 47.1761 38.8537 47.2063 38.9608 47.2413C39.175 47.3114 39.4839 47.4007 39.893 47.4913C40.7116 47.6724 41.9292 47.858 43.5901 47.9043C46.9119 47.9971 51.9997 47.5331 59.2109 45.3715L58.6367 43.4557C51.5974 45.5658 46.7233 45.991 43.6459 45.9051C42.1071 45.8621 41.0157 45.6913 40.3252 45.5385C39.9798 45.4621 39.7341 45.39 39.5824 45.3404C39.5065 45.3156 39.4541 45.2964 39.4243 45.285C39.4094 45.2793 39.4002 45.2756 39.3966 45.2741C39.3948 45.2733 39.3944 45.2731 39.3953 45.2735C39.3958 45.2737 39.3966 45.2741 39.3978 45.2746C39.3984 45.2749 39.399 45.2751 39.3998 45.2755C39.4002 45.2756 39.4008 45.2759 39.401 45.276C39.4017 45.2763 39.4023 45.2766 39 46.1921ZM59.2109 45.3715C66.4054 43.2148 74.418 39.7823 80.612 36.901C83.7135 35.4583 86.3678 34.1496 88.2474 33.2013C89.1873 32.7271 89.9338 32.3429 90.4459 32.0769C90.7019 31.9439 90.8994 31.8404 91.0332 31.77C91.1001 31.7348 91.1511 31.7079 91.1856 31.6897C91.2028 31.6806 91.2158 31.6736 91.2247 31.6689C91.2291 31.6666 91.2325 31.6648 91.2348 31.6636C91.236 31.663 91.2368 31.6625 91.2375 31.6622C91.2378 31.662 91.238 31.6618 91.2382 31.6618C91.2384 31.6617 91.2385 31.6616 90.7687 30.7788C90.299 29.896 90.299 29.896 90.2989 29.8961C90.2988 29.8961 90.2986 29.8962 90.2984 29.8963C90.298 29.8966 90.2972 29.8969 90.2963 29.8975C90.2943 29.8985 90.2913 29.9001 90.2872 29.9023C90.279 29.9066 90.2666 29.9132 90.2501 29.9219C90.2171 29.9394 90.1675 29.9656 90.1021 30C89.9712 30.0688 89.7768 30.1707 89.5239 30.3021C89.0182 30.5648 88.2788 30.9454 87.3465 31.4157C85.4818 32.3565 82.8469 33.6556 79.7684 35.0876C73.6026 37.9558 65.6927 41.3406 58.6367 43.4557L59.2109 45.3715Z" fill="#D0021B"/>
<path id="Line 3" d="M168.571 47.5475C169.122 47.5135 169.541 47.0391 169.507 46.4878C169.473 45.9366 168.999 45.5173 168.447 45.5513L168.571 47.5475ZM118.685 32.0705C118.171 32.2742 117.92 32.8555 118.124 33.3688L121.443 41.7344C121.647 42.2477 122.228 42.4988 122.742 42.2951C123.255 42.0914 123.506 41.5101 123.302 40.9968L120.352 33.5607L127.788 30.6103C128.301 30.4066 128.552 29.8253 128.349 29.312C128.145 28.7986 127.564 28.5476 127.05 28.7513L118.685 32.0705ZM168.509 46.5494C168.447 45.5513 168.448 45.5513 168.448 45.5513C168.448 45.5513 168.448 45.5513 168.448 45.5513C168.448 45.5513 168.448 45.5513 168.448 45.5513C168.447 45.5513 168.446 45.5514 168.445 45.5515C168.442 45.5516 168.437 45.5519 168.43 45.5523C168.416 45.553 168.395 45.5542 168.365 45.5556C168.306 45.5584 168.215 45.5622 168.094 45.566C167.852 45.5736 167.489 45.5813 167.016 45.5808C166.07 45.5798 164.682 45.5462 162.933 45.4145C159.436 45.151 154.501 44.4956 148.776 42.9272L148.248 44.8561C154.117 46.464 159.18 47.1375 162.783 47.4088C164.585 47.5445 166.022 47.5798 167.014 47.5808C167.51 47.5813 167.894 47.5733 168.157 47.565C168.288 47.5609 168.389 47.5566 168.459 47.5534C168.493 47.5517 168.52 47.5504 168.539 47.5493C168.548 47.5488 168.556 47.5484 168.561 47.5481C168.564 47.548 168.566 47.5478 168.567 47.5477C168.568 47.5477 168.569 47.5476 168.569 47.5476C168.57 47.5476 168.57 47.5476 168.57 47.5476C168.57 47.5475 168.571 47.5475 168.509 46.5494ZM148.776 42.9272C143.034 41.354 135.711 38.6479 129.801 36.324C126.851 35.1641 124.262 34.103 122.411 33.332C121.485 32.9465 120.744 32.6337 120.235 32.4173C119.98 32.3092 119.784 32.2252 119.651 32.1683C119.585 32.1398 119.534 32.1181 119.5 32.1036C119.484 32.0964 119.471 32.0909 119.462 32.0873C119.458 32.0855 119.455 32.0841 119.453 32.0832C119.452 32.0828 119.451 32.0825 119.451 32.0822C119.451 32.0821 119.45 32.0821 119.45 32.082C119.45 32.082 119.45 32.082 119.054 33C118.657 33.918 118.657 33.9181 118.657 33.9182C118.658 33.9182 118.658 33.9183 118.658 33.9185C118.659 33.9187 118.66 33.9191 118.661 33.9196C118.663 33.9206 118.666 33.922 118.671 33.9239C118.68 33.9277 118.693 33.9334 118.71 33.9408C118.745 33.9557 118.796 33.9777 118.863 34.0066C118.998 34.0643 119.196 34.1491 119.453 34.2581C119.966 34.4761 120.711 34.7908 121.642 35.1783C123.502 35.9531 126.104 37.0194 129.069 38.1853C134.99 40.5132 142.396 43.2529 148.248 44.8561L148.776 42.9272Z" fill="#D0021B"/>
</g>
</svg>
