<svg width="210" height="100" viewBox="0 0 210 100" fill="none" xmlns="http://www.w3.org/2000/svg">
<g id="f2l_int_6">
<g id="cube">
<path id="Background" fill-rule="evenodd" clip-rule="evenodd" d="M99.5817 16.6053L96.5163 74.1513C96.4902 74.6711 96.1634 75.1053 95.719 75.3158L51.4837 99.2895C50.8366 99.6447 48.5817 99.1776 48.1177 98.9145L4.28759 74.6316C3.81046 74.375 3.54249 73.8947 3.54903 73.4079L0.6536 16.4605C0.627457 15.8355 2.11112 13.9803 2.71242 13.8487L49.9543 0.0592105C50.2288 -0.0197368 50.5098 -0.0197368 50.7647 0.0592105L96.5163 14C97.098 14.1645 99.634 15.5132 99.5817 16.6053Z" fill="black"/>
<g id="Right">
<path id="R9" fill-rule="evenodd" clip-rule="evenodd" d="M84.2341 64.2635L96.5114 57.9105L95.496 74.4653L83.5879 80.7129L84.2341 64.2635Z" fill="#696969"/>
<path id="R8" fill-rule="evenodd" clip-rule="evenodd" d="M68.3237 72.0467L82.2098 65.2191L81.4252 82.1496L67.5786 89.4714L68.3237 72.0467Z" fill="#009A0E"/>
<path id="R7" fill-rule="evenodd" clip-rule="evenodd" d="M50.7187 80.4295L66.2994 72.6925L65.5544 90.427L50.7912 98.5199L50.7187 80.4295Z" fill="white"/>
<path id="R6" fill-rule="evenodd" clip-rule="evenodd" d="M84.8671 43.603L97.4543 38.0869L96.4257 55.8741L84.0099 61.9767L84.8671 43.603Z" fill="#696969"/>
<path id="R5" fill-rule="evenodd" clip-rule="evenodd" d="M68.8709 50.8325L83.1791 44.4136L82.1307 63.1827L68.2116 69.9509L68.8709 50.8325Z" fill="#009A0E"/>
<path id="R4" fill-rule="evenodd" clip-rule="evenodd" d="M50.5868 58.1412L66.7742 51.6695L66.1544 70.6693L50.5868 78.4195V58.1412Z" fill="#696969"/>
<path id="R3" fill-rule="evenodd" clip-rule="evenodd" d="M86.0275 21.8089L98.5884 16.8332L97.6982 35.9912L85.2033 41.1711L86.0275 21.8089Z" fill="#696969"/>
<path id="R2" fill-rule="evenodd" clip-rule="evenodd" d="M69.0885 28.4387L83.9703 22.5602L83.4956 41.9488L68.8116 48.638L69.0885 28.4387Z" fill="#696969"/>
<path id="R1" fill-rule="evenodd" clip-rule="evenodd" d="M50.4088 35.0488L67.1302 28.9594L66.794 49.5738L50.4879 56.0125L50.4088 35.0488Z" fill="#696969"/>
</g>
<g id="Left">
<path id="L9" fill-rule="evenodd" clip-rule="evenodd" d="M3.9238 58.4377L15.3308 64.1581L15.7264 79.6914L4.57657 73.8128L3.9238 58.4377Z" fill="#696969"/>
<path id="L8" fill-rule="evenodd" clip-rule="evenodd" d="M17.1638 65.1993L30.9972 71.8621L31.1159 88.0017L17.6781 80.8579L17.1638 65.1993Z" fill="#D0021B"/>
<path id="L7" fill-rule="evenodd" clip-rule="evenodd" d="M32.9225 72.9956L48.7406 80.5876L48.8263 98.1573L32.8698 89.2011L32.9225 72.9956Z" fill="#009A0E"/>
<path id="L6" fill-rule="evenodd" clip-rule="evenodd" d="M2.88202 37.8233L14.5527 43.4382L15.2253 62.0492L3.73919 55.9598L2.88202 37.8233Z" fill="#696969"/>
<path id="L5" fill-rule="evenodd" clip-rule="evenodd" d="M16.4055 44.5981L30.5027 50.47L31.0961 69.7203L17.1044 63.1432L16.4055 44.5981Z" fill="#D0021B"/>
<path id="L4" fill-rule="evenodd" clip-rule="evenodd" d="M32.3621 51.2081L48.5758 58.1741L48.5626 78.4128L32.9819 70.8604L32.3621 51.2081Z" fill="#696969"/>
<path id="L3" fill-rule="evenodd" clip-rule="evenodd" d="M1.64899 16.6882L13.4845 21.7693L14.3219 41.1316L2.53253 35.3783L1.64899 16.6882Z" fill="#696969"/>
<path id="L2" fill-rule="evenodd" clip-rule="evenodd" d="M15.3769 22.402L29.9356 28.1487L30.6346 48.572L16.2275 42.1992L15.3769 22.402Z" fill="#696969"/>
<path id="L1" fill-rule="evenodd" clip-rule="evenodd" d="M31.8148 28.8737L48.5362 34.9565L48.5098 56.085L32.4807 49.2377L31.8148 28.8737Z" fill="#696969"/>
</g>
<g id="Up">
<path id="Up9" fill-rule="evenodd" clip-rule="evenodd" d="M38.5121 4.81478L50.3649 1.35699L61.8268 4.61253L50.0652 8.46176L38.5121 4.81478Z" fill="#696969"/>
<path id="Up8" fill-rule="evenodd" clip-rule="evenodd" d="M20.9445 9.53824L35.8209 5.36932L47.6998 9.13374L33.26 13.8246L20.9445 9.53824Z" fill="#D0021B"/>
<path id="Up7" fill-rule="evenodd" clip-rule="evenodd" d="M3.17502 15.0577L19.0744 10.3995L30.5233 14.4444L14.5261 19.6311L3.17502 15.0577Z" fill="#696969"/>
<path id="Up6" fill-rule="evenodd" clip-rule="evenodd" d="M16.2268 20.3096L32.7909 15.3187L46.9244 20.0878L30.9533 25.8877L16.2268 20.3096Z" fill="#696969"/>
<path id="Up5" fill-rule="evenodd" clip-rule="evenodd" d="M35.7687 14.5684L49.9544 9.83838L64.4789 14.4314L49.7589 19.3245L35.7687 14.5684Z" fill="#FFDB11"/>
<path id="Up4" fill-rule="evenodd" clip-rule="evenodd" d="M52.007 9.12075L63.3255 5.60425L78.0911 10.0276L67.144 13.6289L52.007 9.12075Z" fill="#696969"/>
<path id="Up3" fill-rule="evenodd" clip-rule="evenodd" d="M69.3725 14.4771L80.7888 10.8823L95.9975 15.2795L84.6789 19.6572L69.3725 14.4771Z" fill="#696969"/>
<path id="Up2" fill-rule="evenodd" clip-rule="evenodd" d="M52.0786 20.29L67.1309 15.41L82.5546 20.3357L68.18 26.1095L52.0786 20.29Z" fill="#696969"/>
<path id="Up1" fill-rule="evenodd" clip-rule="evenodd" d="M33.0255 27.0033L49.4396 21.0272L65.9711 26.7945L49.4657 32.7184L33.0255 27.0033Z" fill="#696969"/>
</g>
</g>
<g id="cube copy">
<path id="Background_2" fill-rule="evenodd" clip-rule="evenodd" d="M209.582 16.6053L206.516 74.1513C206.49 74.6711 206.163 75.1053 205.719 75.3158L161.484 99.2895C160.837 99.6447 158.582 99.1776 158.118 98.9145L114.288 74.6316C113.81 74.375 113.542 73.8947 113.549 73.4079L110.654 16.4605C110.627 15.8355 112.111 13.9803 112.712 13.8487L159.954 0.0592105C160.229 -0.0197368 160.51 -0.0197368 160.765 0.0592105L206.516 14C207.098 14.1645 209.634 15.5132 209.582 16.6053Z" fill="black"/>
<g id="Right_2">
<path id="R9_2" fill-rule="evenodd" clip-rule="evenodd" d="M194.234 64.2635L206.511 57.9105L205.496 74.4653L193.588 80.7129L194.234 64.2635Z" fill="#696969"/>
<path id="R8_2" fill-rule="evenodd" clip-rule="evenodd" d="M178.324 72.0467L192.21 65.2191L191.425 82.1496L177.579 89.4714L178.324 72.0467Z" fill="#009A0E"/>
<path id="R7_2" fill-rule="evenodd" clip-rule="evenodd" d="M160.719 80.4295L176.299 72.6925L175.554 90.427L160.791 98.5199L160.719 80.4295Z" fill="#696969"/>
<path id="R6_2" fill-rule="evenodd" clip-rule="evenodd" d="M194.867 43.603L207.454 38.0869L206.426 55.8741L194.01 61.9767L194.867 43.603Z" fill="#696969"/>
<path id="R5_2" fill-rule="evenodd" clip-rule="evenodd" d="M178.871 50.8325L193.179 44.4136L192.131 63.1827L178.212 69.9509L178.871 50.8325Z" fill="#009A0E"/>
<path id="R4_2" fill-rule="evenodd" clip-rule="evenodd" d="M160.587 58.1412L176.774 51.6695L176.154 70.6693L160.587 78.4195V58.1412Z" fill="#D0021B"/>
<path id="R3_2" fill-rule="evenodd" clip-rule="evenodd" d="M196.028 21.8089L208.588 16.8332L207.698 35.9912L195.203 41.1711L196.028 21.8089Z" fill="#696969"/>
<path id="R2_2" fill-rule="evenodd" clip-rule="evenodd" d="M179.089 28.4387L193.97 22.5602L193.496 41.9488L178.812 48.638L179.089 28.4387Z" fill="#696969"/>
<path id="R1_2" fill-rule="evenodd" clip-rule="evenodd" d="M160.409 35.0488L177.13 28.9594L176.794 49.5738L160.488 56.0125L160.409 35.0488Z" fill="#696969"/>
</g>
<g id="Left_2">
<path id="L9_2" fill-rule="evenodd" clip-rule="evenodd" d="M113.924 58.4377L125.331 64.1581L125.726 79.6914L114.577 73.8128L113.924 58.4377Z" fill="#696969"/>
<path id="L8_2" fill-rule="evenodd" clip-rule="evenodd" d="M127.164 65.1993L140.997 71.8621L141.116 88.0017L127.678 80.8579L127.164 65.1993Z" fill="#D0021B"/>
<path id="L7_2" fill-rule="evenodd" clip-rule="evenodd" d="M142.922 72.9956L158.741 80.5876L158.826 98.1573L142.87 89.2011L142.922 72.9956Z" fill="#696969"/>
<path id="L6_2" fill-rule="evenodd" clip-rule="evenodd" d="M112.882 37.8233L124.553 43.4382L125.225 62.0492L113.739 55.9598L112.882 37.8233Z" fill="#696969"/>
<path id="L5_2" fill-rule="evenodd" clip-rule="evenodd" d="M126.406 44.5981L140.503 50.47L141.096 69.7203L127.104 63.1432L126.406 44.5981Z" fill="#D0021B"/>
<path id="L4_2" fill-rule="evenodd" clip-rule="evenodd" d="M142.362 51.2081L158.576 58.1741L158.563 78.4128L142.982 70.8604L142.362 51.2081Z" fill="#009A0E"/>
<path id="L3_2" fill-rule="evenodd" clip-rule="evenodd" d="M111.649 16.6882L123.485 21.7693L124.322 41.1316L112.533 35.3783L111.649 16.6882Z" fill="#009A0E"/>
<path id="L2_2" fill-rule="evenodd" clip-rule="evenodd" d="M125.377 22.402L139.936 28.1487L140.635 48.572L126.227 42.1992L125.377 22.402Z" fill="#696969"/>
<path id="L1_2" fill-rule="evenodd" clip-rule="evenodd" d="M141.815 28.8737L158.536 34.9565L158.51 56.085L142.481 49.2377L141.815 28.8737Z" fill="#696969"/>
</g>
<g id="Up_2">
<path id="Up9_2" fill-rule="evenodd" clip-rule="evenodd" d="M148.512 4.81478L160.365 1.35699L171.827 4.61253L160.065 8.46176L148.512 4.81478Z" fill="#696969"/>
<path id="Up8_2" fill-rule="evenodd" clip-rule="evenodd" d="M130.945 9.53824L145.821 5.36932L157.7 9.13374L143.26 13.8246L130.945 9.53824Z" fill="#696969"/>
<path id="Up7_2" fill-rule="evenodd" clip-rule="evenodd" d="M113.175 15.0577L129.074 10.3995L140.523 14.4444L124.526 19.6311L113.175 15.0577Z" fill="#D0021B"/>
<path id="Up6_2" fill-rule="evenodd" clip-rule="evenodd" d="M126.227 20.3096L142.791 15.3187L156.924 20.0878L140.953 25.8877L126.227 20.3096Z" fill="#696969"/>
<path id="Up5_2" fill-rule="evenodd" clip-rule="evenodd" d="M145.769 14.5684L159.954 9.83838L174.479 14.4314L159.759 19.3245L145.769 14.5684Z" fill="#FFDB11"/>
<path id="Up4_2" fill-rule="evenodd" clip-rule="evenodd" d="M162.007 9.12075L173.325 5.60425L188.091 10.0276L177.144 13.6289L162.007 9.12075Z" fill="#696969"/>
<path id="Up3_2" fill-rule="evenodd" clip-rule="evenodd" d="M179.372 14.4771L190.789 10.8823L205.997 15.2795L194.679 19.6572L179.372 14.4771Z" fill="#696969"/>
<path id="Up2_2" fill-rule="evenodd" clip-rule="evenodd" d="M162.079 20.29L177.131 15.41L192.555 20.3357L178.18 26.1095L162.079 20.29Z" fill="#696969"/>
<path id="Up1_2" fill-rule="evenodd" clip-rule="evenodd" d="M143.025 27.0033L159.44 21.0272L175.971 26.7945L159.466 32.7184L143.025 27.0033Z" fill="#696969"/>
</g>
</g>
<path id="Line" d="M49.9848 23.8905L41.1459 25.6609C40.5938 25.6451 40.159 25.1849 40.1748 24.6328C40.1905 24.0807 40.6508 23.6459 41.2028 23.6617L53.8577 22C54.6372 22.0222 55.0925 22.8884 54.6687 23.543L49.9848 31.4872C49.6847 31.9509 49.0656 32.0834 48.6019 31.7833C48.1383 31.4832 48.0058 30.8641 48.3059 30.4004L50.9153 25.6609L43.8343 29.3826C43.0848 30.0882 42.5661 30.7912 42.2684 31.4872C41.1652 34.0671 40.7602 52.5447 41.1459 85.9693C41.1523 86.5215 40.7097 86.9744 40.1575 86.9808C39.6052 86.9871 39.1524 86.5446 39.146 85.9924C38.7516 51.8097 39.1486 33.6962 40.4295 30.7009C40.8591 29.6961 41.5778 28.7385 42.5746 27.8229C42.6383 27.7645 42.7093 27.7145 42.7858 27.6743L49.9848 23.8905Z" fill="white"/>
<path id="Line Copy" d="M174.553 19.6638L165.463 20.2191C164.911 20.2034 164.476 19.7431 164.492 19.191C164.507 18.639 164.968 18.2042 165.52 18.2199L178.555 17.5686C179.334 17.5908 179.79 18.457 179.366 19.1116L174.682 27.0559C174.382 27.5195 173.763 27.652 173.299 27.3519C172.836 27.0518 172.703 26.4327 173.003 25.969L175.613 21.2295L154 28.9712C153.251 29.6768 152.566 30.7912 152.268 31.4873C151.165 34.0671 151.126 31.9318 151.511 65.3564C151.518 65.9087 151.075 66.3615 150.523 66.3679C149.971 66.3743 149.518 65.9317 149.512 65.3795C149.117 31.1969 149.149 33.6962 150.429 30.7009C150.859 29.6961 151.329 28.7984 152.326 27.8828C152.389 27.8244 174.553 19.6638 174.553 19.6638Z" fill="white"/>
</g>
</svg>
