<svg width="320" height="100" viewBox="0 0 320 100" fill="none" xmlns="http://www.w3.org/2000/svg">
<g id="f2l_int_11_1">
<g id="cube">
<path id="Background" fill-rule="evenodd" clip-rule="evenodd" d="M209.582 16.6053L206.516 74.1513C206.49 74.6711 206.163 75.1053 205.719 75.3158L161.484 99.2895C160.837 99.6447 158.582 99.1776 158.118 98.9145L114.288 74.6316C113.81 74.375 113.542 73.8947 113.549 73.4079L110.654 16.4605C110.627 15.8355 112.111 13.9803 112.712 13.8487L159.954 0.0592105C160.229 -0.0197368 160.51 -0.0197368 160.765 0.0592105L206.516 14C207.098 14.1645 209.634 15.5132 209.582 16.6053Z" fill="black"/>
<g id="Right">
<path id="R9" fill-rule="evenodd" clip-rule="evenodd" d="M194.234 64.2635L206.511 57.9105L205.496 74.4653L193.588 80.7129L194.234 64.2635Z" fill="#696969"/>
<path id="R8" fill-rule="evenodd" clip-rule="evenodd" d="M178.324 72.0467L192.21 65.2191L191.425 82.1496L177.579 89.4714L178.324 72.0467Z" fill="#009A0E"/>
<path id="R7" fill-rule="evenodd" clip-rule="evenodd" d="M160.719 80.4295L176.299 72.6925L175.554 90.427L160.791 98.5199L160.719 80.4295Z" fill="#696969"/>
<path id="R6" fill-rule="evenodd" clip-rule="evenodd" d="M194.867 43.603L207.454 38.0869L206.426 55.8741L194.01 61.9767L194.867 43.603Z" fill="#696969"/>
<path id="R5" fill-rule="evenodd" clip-rule="evenodd" d="M178.871 50.8325L193.179 44.4136L192.131 63.1827L178.212 69.9509L178.871 50.8325Z" fill="#009A0E"/>
<path id="R4" fill-rule="evenodd" clip-rule="evenodd" d="M160.587 58.1412L176.774 51.6695L176.154 70.6693L160.587 78.4195V58.1412Z" fill="white"/>
<path id="R3" fill-rule="evenodd" clip-rule="evenodd" d="M196.028 21.8089L208.588 16.8332L207.698 35.9912L195.203 41.1711L196.028 21.8089Z" fill="white"/>
<path id="R2" fill-rule="evenodd" clip-rule="evenodd" d="M179.089 28.4387L193.97 22.5602L193.496 41.9488L178.812 48.638L179.089 28.4387Z" fill="#696969"/>
<path id="R1" fill-rule="evenodd" clip-rule="evenodd" d="M160.409 35.0488L177.13 28.9594L176.794 49.5738L160.488 56.0125L160.409 35.0488Z" fill="#696969"/>
</g>
<g id="Left">
<path id="L9" fill-rule="evenodd" clip-rule="evenodd" d="M113.924 58.4377L125.331 64.1581L125.726 79.6914L114.577 73.8128L113.924 58.4377Z" fill="white"/>
<path id="L8" fill-rule="evenodd" clip-rule="evenodd" d="M127.164 65.1993L140.997 71.8621L141.116 88.0017L127.678 80.8579L127.164 65.1993Z" fill="#696969"/>
<path id="L7" fill-rule="evenodd" clip-rule="evenodd" d="M142.922 72.9957L158.741 80.5877L158.826 98.1574L142.87 89.2012L142.922 72.9957Z" fill="#696969"/>
<path id="L6" fill-rule="evenodd" clip-rule="evenodd" d="M112.882 37.8233L124.553 43.4382L125.225 62.0492L113.739 55.9598L112.882 37.8233Z" fill="#696969"/>
<path id="L5" fill-rule="evenodd" clip-rule="evenodd" d="M126.406 44.5981L140.503 50.47L141.096 69.7203L127.104 63.1432L126.406 44.5981Z" fill="#D0021B"/>
<path id="L4" fill-rule="evenodd" clip-rule="evenodd" d="M142.362 51.2081L158.576 58.1741L158.563 78.4128L142.982 70.8604L142.362 51.2081Z" fill="#D0021B"/>
<path id="L3" fill-rule="evenodd" clip-rule="evenodd" d="M111.649 16.6882L123.485 21.7693L124.322 41.1316L112.533 35.3783L111.649 16.6882Z" fill="#696969"/>
<path id="L2" fill-rule="evenodd" clip-rule="evenodd" d="M125.377 22.402L139.936 28.1487L140.635 48.572L126.227 42.1992L125.377 22.402Z" fill="#696969"/>
<path id="L1" fill-rule="evenodd" clip-rule="evenodd" d="M141.815 28.8737L158.536 34.9565L158.51 56.085L142.481 49.2377L141.815 28.8737Z" fill="#696969"/>
</g>
<g id="Up">
<path id="Up9" fill-rule="evenodd" clip-rule="evenodd" d="M148.512 4.81478L160.365 1.35699L171.827 4.61253L160.065 8.46176L148.512 4.81478Z" fill="#696969"/>
<path id="Up8" fill-rule="evenodd" clip-rule="evenodd" d="M130.945 9.53824L145.821 5.36932L157.7 9.13374L143.26 13.8246L130.945 9.53824Z" fill="#696969"/>
<path id="Up7" fill-rule="evenodd" clip-rule="evenodd" d="M113.175 15.0577L129.074 10.3995L140.523 14.4444L124.526 19.6311L113.175 15.0577Z" fill="#696969"/>
<path id="Up6" fill-rule="evenodd" clip-rule="evenodd" d="M126.227 20.3096L142.791 15.3187L156.924 20.0878L140.953 25.8877L126.227 20.3096Z" fill="#696969"/>
<path id="Up5" fill-rule="evenodd" clip-rule="evenodd" d="M145.769 14.5684L159.954 9.83838L174.479 14.4314L159.759 19.3245L145.769 14.5684Z" fill="#FFDB11"/>
<path id="Up4" fill-rule="evenodd" clip-rule="evenodd" d="M162.007 9.12075L173.325 5.60425L188.091 10.0276L177.144 13.6289L162.007 9.12075Z" fill="#D0021B" fill-opacity="0.6"/>
<path id="Up3" fill-rule="evenodd" clip-rule="evenodd" d="M179.372 14.4771L190.789 10.8823L205.997 15.2795L194.679 19.6572L179.372 14.4771Z" fill="#696969"/>
<path id="Up2" fill-rule="evenodd" clip-rule="evenodd" d="M162.079 20.29L177.131 15.41L192.555 20.3357L178.18 26.1095L162.079 20.29Z" fill="#D0021B"/>
<path id="Up1" fill-rule="evenodd" clip-rule="evenodd" d="M143.025 27.0033L159.44 21.0272L175.971 26.7945L159.466 32.7184L143.025 27.0033Z" fill="#696969"/>
</g>
</g>
<g id="cube copy">
<path id="Background_2" fill-rule="evenodd" clip-rule="evenodd" d="M99.5817 16.6053L96.5163 74.1513C96.4902 74.6711 96.1634 75.1053 95.719 75.3158L51.4837 99.2895C50.8366 99.6447 48.5817 99.1776 48.1177 98.9145L4.28759 74.6316C3.81046 74.375 3.54249 73.8947 3.54903 73.4079L0.6536 16.4605C0.627457 15.8355 2.11112 13.9803 2.71242 13.8487L49.9543 0.0592105C50.2288 -0.0197368 50.5098 -0.0197368 50.7647 0.0592105L96.5163 14C97.098 14.1645 99.634 15.5132 99.5817 16.6053Z" fill="black"/>
<g id="Right_2">
<path id="R9_2" fill-rule="evenodd" clip-rule="evenodd" d="M84.2341 64.2635L96.5114 57.9105L95.496 74.4653L83.5879 80.7129L84.2341 64.2635Z" fill="#696969"/>
<path id="R8_2" fill-rule="evenodd" clip-rule="evenodd" d="M68.3237 72.0467L82.2099 65.2191L81.4252 82.1496L67.5786 89.4714L68.3237 72.0467Z" fill="#009A0E"/>
<path id="R7_2" fill-rule="evenodd" clip-rule="evenodd" d="M50.7187 80.4295L66.2994 72.6925L65.5543 90.427L50.7912 98.5199L50.7187 80.4295Z" fill="#696969"/>
<path id="R6_2" fill-rule="evenodd" clip-rule="evenodd" d="M84.8671 43.603L97.4543 38.0869L96.4257 55.8741L84.0099 61.9767L84.8671 43.603Z" fill="#696969"/>
<path id="R5_2" fill-rule="evenodd" clip-rule="evenodd" d="M68.8709 50.8325L83.1791 44.4136L82.1307 63.1827L68.2115 69.9509L68.8709 50.8325Z" fill="#009A0E"/>
<path id="R4_2" fill-rule="evenodd" clip-rule="evenodd" d="M50.5869 58.1412L66.7742 51.6695L66.1544 70.6693L50.5869 78.4195V58.1412Z" fill="white"/>
<path id="R3_2" fill-rule="evenodd" clip-rule="evenodd" d="M86.0275 21.8089L98.5884 16.8332L97.6982 35.9912L85.2033 41.1711L86.0275 21.8089Z" fill="#696969"/>
<path id="R2_2" fill-rule="evenodd" clip-rule="evenodd" d="M69.0885 28.4387L83.9703 22.5602L83.4956 41.9488L68.8116 48.638L69.0885 28.4387Z" fill="#696969"/>
<path id="R1_2" fill-rule="evenodd" clip-rule="evenodd" d="M50.4088 35.0488L67.1302 28.9594L66.794 49.5738L50.4879 56.0125L50.4088 35.0488Z" fill="#696969"/>
</g>
<g id="Left_2">
<path id="L9_2" fill-rule="evenodd" clip-rule="evenodd" d="M3.92383 58.4377L15.3308 64.1581L15.7264 79.6914L4.5766 73.8128L3.92383 58.4377Z" fill="white"/>
<path id="L8_2" fill-rule="evenodd" clip-rule="evenodd" d="M17.1638 65.1993L30.9972 71.8621L31.1159 88.0017L17.6781 80.8579L17.1638 65.1993Z" fill="#696969"/>
<path id="L7_2" fill-rule="evenodd" clip-rule="evenodd" d="M32.9225 72.9957L48.7406 80.5877L48.8263 98.1574L32.8698 89.2012L32.9225 72.9957Z" fill="#696969"/>
<path id="L6_2" fill-rule="evenodd" clip-rule="evenodd" d="M2.88202 37.8233L14.5527 43.4382L15.2253 62.0492L3.73919 55.9598L2.88202 37.8233Z" fill="#696969"/>
<path id="L5_2" fill-rule="evenodd" clip-rule="evenodd" d="M16.4055 44.5981L30.5027 50.47L31.0961 69.7203L17.1044 63.1432L16.4055 44.5981Z" fill="#D0021B"/>
<path id="L4_2" fill-rule="evenodd" clip-rule="evenodd" d="M32.3621 51.2081L48.5758 58.1741L48.5626 78.4128L32.9819 70.8604L32.3621 51.2081Z" fill="#D0021B"/>
<path id="L3_2" fill-rule="evenodd" clip-rule="evenodd" d="M1.64899 16.6882L13.4845 21.7693L14.3219 41.1316L2.53253 35.3783L1.64899 16.6882Z" fill="white" fill-opacity="0.6"/>
<path id="L2_2" fill-rule="evenodd" clip-rule="evenodd" d="M15.3769 22.402L29.9356 28.1487L30.6345 48.572L16.2275 42.1992L15.3769 22.402Z" fill="#696969"/>
<path id="L1_2" fill-rule="evenodd" clip-rule="evenodd" d="M31.8148 28.8737L48.5362 34.9565L48.5099 56.085L32.4808 49.2377L31.8148 28.8737Z" fill="#696969"/>
</g>
<g id="Up_2">
<path id="Up9_2" fill-rule="evenodd" clip-rule="evenodd" d="M38.512 4.81478L50.3649 1.35699L61.8268 4.61253L50.0651 8.46176L38.512 4.81478Z" fill="#696969"/>
<path id="Up8_2" fill-rule="evenodd" clip-rule="evenodd" d="M20.9445 9.53824L35.8209 5.36932L47.6998 9.13374L33.26 13.8246L20.9445 9.53824Z" fill="#696969"/>
<path id="Up7_2" fill-rule="evenodd" clip-rule="evenodd" d="M3.17499 15.0577L19.0744 10.3995L30.5232 14.4444L14.5261 19.6311L3.17499 15.0577Z" fill="#009A0E" fill-opacity="0.6"/>
<path id="Up6_2" fill-rule="evenodd" clip-rule="evenodd" d="M16.2268 20.3096L32.7908 15.3187L46.9244 20.0878L30.9533 25.8877L16.2268 20.3096Z" fill="#696969"/>
<path id="Up5_2" fill-rule="evenodd" clip-rule="evenodd" d="M35.7687 14.5684L49.9544 9.83838L64.4789 14.4314L49.7589 19.3245L35.7687 14.5684Z" fill="#FFDB11"/>
<path id="Up4_2" fill-rule="evenodd" clip-rule="evenodd" d="M52.007 9.12075L63.3255 5.60425L78.0911 10.0276L67.144 13.6289L52.007 9.12075Z" fill="#D0021B"/>
<path id="Up3_2" fill-rule="evenodd" clip-rule="evenodd" d="M69.3725 14.4771L80.7888 10.8823L95.9975 15.2795L84.6789 19.6572L69.3725 14.4771Z" fill="#696969"/>
<path id="Up2_2" fill-rule="evenodd" clip-rule="evenodd" d="M52.0787 20.29L67.131 15.41L82.5547 20.3357L68.1801 26.1095L52.0787 20.29Z" fill="#696969"/>
<path id="Up1_2" fill-rule="evenodd" clip-rule="evenodd" d="M33.0255 27.0033L49.4396 21.0272L65.9711 26.7945L49.4657 32.7184L33.0255 27.0033Z" fill="#696969"/>
</g>
</g>
<g id="cube copy 2">
<path id="Background_3" fill-rule="evenodd" clip-rule="evenodd" d="M319.582 16.6053L316.516 74.1513C316.49 74.6711 316.163 75.1053 315.719 75.3158L271.484 99.2895C270.837 99.6447 268.582 99.1776 268.118 98.9145L224.288 74.6316C223.81 74.375 223.542 73.8947 223.549 73.4079L220.654 16.4605C220.627 15.8355 222.111 13.9803 222.712 13.8487L269.954 0.0592105C270.229 -0.0197368 270.51 -0.0197368 270.765 0.0592105L316.516 14C317.098 14.1645 319.634 15.5132 319.582 16.6053Z" fill="black"/>
<g id="Right_3">
<path id="R9_3" fill-rule="evenodd" clip-rule="evenodd" d="M304.234 64.2635L316.511 57.9105L315.496 74.4653L303.588 80.7129L304.234 64.2635Z" fill="#696969"/>
<path id="R8_3" fill-rule="evenodd" clip-rule="evenodd" d="M288.324 72.0467L302.21 65.2191L301.425 82.1496L287.579 89.4714L288.324 72.0467Z" fill="#009A0E"/>
<path id="R7_3" fill-rule="evenodd" clip-rule="evenodd" d="M270.719 80.4295L286.299 72.6925L285.554 90.427L270.791 98.5199L270.719 80.4295Z" fill="#696969"/>
<path id="R6_3" fill-rule="evenodd" clip-rule="evenodd" d="M304.867 43.603L317.454 38.0869L316.426 55.8741L304.01 61.9767L304.867 43.603Z" fill="#696969"/>
<path id="R5_3" fill-rule="evenodd" clip-rule="evenodd" d="M288.871 50.8325L303.179 44.4136L302.131 63.1827L288.212 69.9509L288.871 50.8325Z" fill="#009A0E"/>
<path id="R4_3" fill-rule="evenodd" clip-rule="evenodd" d="M270.587 58.1412L286.774 51.6695L286.154 70.6693L270.587 78.4195V58.1412Z" fill="#696969"/>
<path id="R3_3" fill-rule="evenodd" clip-rule="evenodd" d="M306.028 21.8089L318.588 16.8332L317.698 35.9912L305.203 41.1711L306.028 21.8089Z" fill="#696969"/>
<path id="R2_3" fill-rule="evenodd" clip-rule="evenodd" d="M289.089 28.4387L303.97 22.5602L303.496 41.9488L288.812 48.638L289.089 28.4387Z" fill="#009A0E"/>
<path id="R1_3" fill-rule="evenodd" clip-rule="evenodd" d="M270.409 35.0488L287.13 28.9594L286.794 49.5738L270.488 56.0125L270.409 35.0488Z" fill="#696969"/>
</g>
<g id="Left_3">
<path id="L9_3" fill-rule="evenodd" clip-rule="evenodd" d="M223.924 58.4377L235.331 64.1581L235.726 79.6914L224.577 73.8128L223.924 58.4377Z" fill="white" fill-opacity="0.6"/>
<path id="L8_3" fill-rule="evenodd" clip-rule="evenodd" d="M237.164 65.1993L250.997 71.8621L251.116 88.0017L237.678 80.8579L237.164 65.1993Z" fill="#D0021B"/>
<path id="L7_3" fill-rule="evenodd" clip-rule="evenodd" d="M252.922 72.9957L268.741 80.5877L268.826 98.1574L252.87 89.2012L252.922 72.9957Z" fill="#696969"/>
<path id="L6_3" fill-rule="evenodd" clip-rule="evenodd" d="M222.882 37.8233L234.553 43.4382L235.225 62.0492L223.739 55.9598L222.882 37.8233Z" fill="#696969"/>
<path id="L5_3" fill-rule="evenodd" clip-rule="evenodd" d="M236.406 44.5981L250.503 50.47L251.096 69.7203L237.104 63.1432L236.406 44.5981Z" fill="#D0021B"/>
<path id="L4_3" fill-rule="evenodd" clip-rule="evenodd" d="M252.362 51.2081L268.576 58.1741L268.563 78.4128L252.982 70.8604L252.362 51.2081Z" fill="#696969"/>
<path id="L3_3" fill-rule="evenodd" clip-rule="evenodd" d="M221.649 16.6882L233.485 21.7693L234.322 41.1316L222.533 35.3783L221.649 16.6882Z" fill="white"/>
<path id="L2_3" fill-rule="evenodd" clip-rule="evenodd" d="M235.377 22.402L249.936 28.1487L250.635 48.572L236.227 42.1992L235.377 22.402Z" fill="#696969"/>
<path id="L1_3" fill-rule="evenodd" clip-rule="evenodd" d="M251.815 28.8737L268.536 34.9565L268.51 56.085L252.481 49.2377L251.815 28.8737Z" fill="#696969"/>
</g>
<g id="Up_3">
<path id="Up9_3" fill-rule="evenodd" clip-rule="evenodd" d="M258.512 4.81478L270.365 1.35699L281.827 4.61253L270.065 8.46176L258.512 4.81478Z" fill="#696969"/>
<path id="Up8_3" fill-rule="evenodd" clip-rule="evenodd" d="M240.945 9.53824L255.821 5.36932L267.7 9.13374L253.26 13.8246L240.945 9.53824Z" fill="#696969"/>
<path id="Up7_3" fill-rule="evenodd" clip-rule="evenodd" d="M223.175 15.0577L239.074 10.3995L250.523 14.4444L234.526 19.6311L223.175 15.0577Z" fill="#009A0E"/>
<path id="Up6_3" fill-rule="evenodd" clip-rule="evenodd" d="M236.227 20.3096L252.791 15.3187L266.924 20.0878L250.953 25.8877L236.227 20.3096Z" fill="#696969"/>
<path id="Up5_3" fill-rule="evenodd" clip-rule="evenodd" d="M255.769 14.5684L269.954 9.83838L284.479 14.4314L269.759 19.3245L255.769 14.5684Z" fill="#FFDB11"/>
<path id="Up4_3" fill-rule="evenodd" clip-rule="evenodd" d="M272.007 9.12075L283.325 5.60425L298.091 10.0276L287.144 13.6289L272.007 9.12075Z" fill="#696969"/>
<path id="Up3_3" fill-rule="evenodd" clip-rule="evenodd" d="M289.372 14.4771L300.789 10.8823L315.997 15.2795L304.679 19.6572L289.372 14.4771Z" fill="#696969"/>
<path id="Up2_3" fill-rule="evenodd" clip-rule="evenodd" d="M272.079 20.29L287.131 15.41L302.555 20.3357L288.18 26.1095L272.079 20.29Z" fill="#D0021B"/>
<path id="Up1_3" fill-rule="evenodd" clip-rule="evenodd" d="M253.025 27.0033L269.44 21.0272L285.971 26.7945L269.466 32.7184L253.025 27.0033Z" fill="#696969"/>
</g>
</g>
<path id="Line 4" d="M26.2253 32.453C26.7722 32.53 27.2779 32.149 27.3548 31.6021C27.4318 31.0552 27.0508 30.5495 26.5039 30.4726L26.2253 32.453ZM8.26307 49.3469C8.6364 49.7539 9.26898 49.7812 9.67597 49.4079L16.3083 43.3241C16.7153 42.9508 16.7426 42.3182 16.3693 41.9112C15.9959 41.5042 15.3634 41.477 14.9564 41.8503L9.06096 47.2581L3.65318 41.3626C3.27986 40.9556 2.64728 40.9283 2.24029 41.3017C1.83329 41.675 1.806 42.3076 2.17933 42.7146L8.26307 49.3469ZM26.3646 31.4628C26.5039 30.4726 26.5037 30.4725 26.5035 30.4725C26.5033 30.4725 26.5031 30.4724 26.5028 30.4724C26.5022 30.4723 26.5015 30.4722 26.5007 30.4721C26.4989 30.4719 26.4965 30.4715 26.4935 30.4711C26.4875 30.4703 26.479 30.4691 26.468 30.4676C26.446 30.4647 26.4141 30.4604 26.373 30.4551C26.2907 30.4445 26.1713 30.4296 26.019 30.4119C25.7147 30.3766 25.2787 30.3303 24.7466 30.2853C23.6844 30.1955 22.2298 30.1103 20.6694 30.1311C19.1149 30.1518 17.4218 30.2778 15.8949 30.6239C14.3931 30.9642 12.9126 31.5476 11.9271 32.5866L13.3782 33.963C13.9581 33.3516 14.9743 32.8833 16.337 32.5744C17.6746 32.2713 19.2138 32.1506 20.696 32.1309C22.1722 32.1113 23.5586 32.192 24.5781 32.2782C25.087 32.3212 25.5021 32.3654 25.7886 32.3986C25.9318 32.4152 26.0428 32.4291 26.117 32.4387C26.1542 32.4435 26.1821 32.4472 26.2003 32.4496C26.2094 32.4509 26.2161 32.4518 26.2203 32.4524C26.2224 32.4526 26.2239 32.4528 26.2247 32.453C26.2251 32.453 26.2254 32.4531 26.2255 32.4531C26.2255 32.4531 26.2255 32.4531 26.2255 32.4531C26.2254 32.4531 26.2253 32.453 26.3646 31.4628ZM11.9271 32.5866C10.9779 33.5874 10.304 35.15 9.8049 36.7803C9.29583 38.4434 8.92826 40.3176 8.6636 42.0606C8.39829 43.8078 8.23293 45.4467 8.13384 46.6472C8.08425 47.2482 8.05113 47.7409 8.03036 48.0844C8.01997 48.2562 8.01267 48.3908 8.00794 48.4831C8.00557 48.5292 8.00385 48.5648 8.0027 48.5891C8.00213 48.6013 8.0017 48.6106 8.00141 48.6171C8.00126 48.6204 8.00115 48.6229 8.00107 48.6247C8.00103 48.6256 8.001 48.6263 8.00097 48.6268C8.00096 48.6271 8.00095 48.6273 8.00095 48.6275C8.00094 48.6277 8.00093 48.6279 9 48.671C9.99907 48.7141 9.99907 48.7141 9.99907 48.7142C9.99907 48.7141 9.99907 48.7141 9.99907 48.714C9.99908 48.7138 9.9991 48.7134 9.99912 48.7128C9.99918 48.7117 9.99926 48.7098 9.99937 48.7072C9.99961 48.7021 9.99998 48.694 10.0005 48.6832C10.0015 48.6616 10.0031 48.6288 10.0053 48.5855C10.0098 48.499 10.0167 48.3705 10.0267 48.2051C10.0467 47.8743 10.0788 47.3963 10.1271 46.8117C10.2237 45.6413 10.3844 44.05 10.6409 42.3608C10.8981 40.6674 11.248 38.8989 11.7173 37.3657C12.1966 35.7998 12.762 34.6127 13.3782 33.963L11.9271 32.5866Z" fill="white"/>
<path id="Line 5 Copy" d="M178.608 6.53251C178.101 6.31355 177.512 6.54708 177.294 7.05411C177.075 7.56113 177.308 8.14966 177.815 8.36862L178.608 6.53251ZM174.971 23.8768C174.958 24.4289 175.394 24.8874 175.947 24.901L184.944 25.1216C185.496 25.1351 185.955 24.6985 185.968 24.1464C185.982 23.5943 185.545 23.1357 184.993 23.1222L176.995 22.9261L177.191 14.9285C177.205 14.3764 176.768 13.9178 176.216 13.9043C175.664 13.8907 175.205 14.3274 175.192 14.8795L174.971 23.8768ZM178.212 7.45056C177.815 8.36862 177.815 8.36855 177.815 8.36849C177.815 8.36848 177.815 8.36844 177.815 8.36842C177.815 8.36839 177.815 8.36839 177.815 8.36843C177.815 8.3685 177.815 8.36871 177.816 8.36906C177.818 8.36975 177.821 8.37098 177.825 8.37275C177.833 8.37627 177.845 8.38193 177.863 8.38967C177.897 8.40514 177.95 8.4289 178.018 8.46051C178.154 8.52376 178.352 8.61819 178.594 8.74029C179.078 8.98529 179.729 9.33775 180.399 9.76928C181.074 10.2032 181.745 10.7021 182.286 11.2355C182.837 11.7787 183.187 12.294 183.322 12.7506L185.239 12.1813C184.967 11.2646 184.354 10.4663 183.691 9.81163C183.017 9.14714 182.222 8.5639 181.481 8.08727C180.737 7.60828 180.023 7.22189 179.497 6.95566C179.233 6.82214 179.014 6.71787 178.86 6.64632C178.783 6.61052 178.722 6.58285 178.679 6.56375C178.657 6.5542 178.641 6.54679 178.629 6.54156C178.623 6.53895 178.618 6.53688 178.615 6.53537C178.613 6.53462 178.611 6.534 178.61 6.53352C178.61 6.53328 178.609 6.53308 178.609 6.53291C178.609 6.53283 178.609 6.53273 178.608 6.53268C178.608 6.53259 178.608 6.53251 178.212 7.45056ZM183.322 12.7506C183.337 12.7992 183.358 12.9963 183.212 13.4218C183.074 13.8245 182.826 14.3185 182.475 14.8864C181.776 16.0195 180.753 17.3159 179.676 18.5588C178.605 19.7955 177.505 20.9513 176.671 21.7998C176.255 22.2234 175.906 22.5691 175.662 22.8083C175.54 22.9279 175.444 23.0208 175.379 23.0835C175.346 23.1148 175.322 23.1385 175.305 23.1543C175.297 23.1622 175.291 23.168 175.287 23.1719C175.285 23.1738 175.284 23.1752 175.283 23.176C175.282 23.1765 175.282 23.1768 175.282 23.1769C175.282 23.177 175.282 23.177 175.281 23.1771C175.281 23.1771 175.282 23.1771 175.971 23.9013C176.661 24.6255 176.661 24.6254 176.661 24.6253C176.661 24.6252 176.661 24.625 176.661 24.6248C176.662 24.6245 176.662 24.624 176.663 24.6234C176.664 24.6221 176.666 24.6204 176.668 24.6181C176.673 24.6135 176.68 24.6069 176.689 24.5982C176.707 24.5809 176.734 24.5556 176.768 24.5226C176.836 24.4566 176.936 24.3602 177.061 24.2368C177.313 23.9901 177.671 23.6356 178.097 23.2017C178.949 22.3352 180.08 21.1472 181.188 19.8684C182.29 18.5959 183.395 17.2051 184.178 15.9365C184.568 15.3037 184.899 14.6683 185.104 14.0701C185.301 13.4947 185.429 12.8194 185.239 12.1813L183.322 12.7506Z" fill="white"/>
<path id="Line 4 Copy 2" d="M246.966 37.2615C247.407 36.9292 247.496 36.3022 247.163 35.8611L241.748 28.6725C241.416 28.2314 240.789 28.1432 240.348 28.4755C239.907 28.8078 239.818 29.4347 240.151 29.8759L244.964 36.2657L238.574 41.0792C238.133 41.4115 238.045 42.0385 238.377 42.4796C238.71 42.9208 239.337 43.009 239.778 42.6767L246.966 37.2615ZM228.001 53.6279C227.977 54.1796 228.405 54.6462 228.957 54.67C229.509 54.6938 229.975 54.2658 229.999 53.7141L228.001 53.6279ZM246.365 36.4628C246.504 35.4726 246.504 35.4725 246.503 35.4725C246.503 35.4725 246.503 35.4724 246.503 35.4724C246.502 35.4723 246.502 35.4722 246.501 35.4721C246.499 35.4719 246.497 35.4715 246.494 35.4711C246.488 35.4703 246.479 35.4691 246.468 35.4676C246.446 35.4647 246.414 35.4604 246.373 35.4551C246.291 35.4445 246.171 35.4296 246.019 35.4119C245.715 35.3766 245.279 35.3303 244.747 35.2853C243.684 35.1955 242.23 35.1103 240.669 35.1311C239.115 35.1518 237.422 35.2778 235.895 35.6239C234.393 35.9642 232.913 36.5476 231.927 37.5866L233.378 38.963C233.958 38.3516 234.974 37.8833 236.337 37.5744C237.675 37.2713 239.214 37.1506 240.696 37.1309C242.172 37.1113 243.559 37.192 244.578 37.2782C245.087 37.3212 245.502 37.3654 245.789 37.3986C245.932 37.4152 246.043 37.4291 246.117 37.4387C246.154 37.4435 246.182 37.4472 246.2 37.4496C246.209 37.4509 246.216 37.4518 246.22 37.4524C246.222 37.4526 246.224 37.4528 246.225 37.453C246.225 37.453 246.225 37.4531 246.225 37.4531C246.226 37.4531 246.225 37.4531 246.225 37.4531C246.225 37.4531 246.225 37.453 246.365 36.4628ZM231.927 37.5866C230.978 38.5874 230.304 40.15 229.805 41.7803C229.296 43.4434 228.928 45.3176 228.664 47.0606C228.398 48.8078 228.233 50.4467 228.134 51.6472C228.084 52.2482 228.051 52.7409 228.03 53.0844C228.02 53.2562 228.013 53.3908 228.008 53.4831C228.006 53.5292 228.004 53.5648 228.003 53.5891C228.002 53.6013 228.002 53.6106 228.001 53.6171C228.001 53.6204 228.001 53.6229 228.001 53.6247C228.001 53.6256 228.001 53.6263 228.001 53.6268C228.001 53.6271 228.001 53.6273 228.001 53.6275C228.001 53.6277 228.001 53.6279 229 53.671C229.999 53.7141 229.999 53.7141 229.999 53.7142C229.999 53.7141 229.999 53.7141 229.999 53.714C229.999 53.7138 229.999 53.7134 229.999 53.7128C229.999 53.7117 229.999 53.7098 229.999 53.7072C230 53.7021 230 53.694 230 53.6832C230.002 53.6616 230.003 53.6288 230.005 53.5855C230.01 53.499 230.017 53.3705 230.027 53.2051C230.047 52.8743 230.079 52.3963 230.127 51.8117C230.224 50.6413 230.384 49.05 230.641 47.3608C230.898 45.6674 231.248 43.8989 231.717 42.3657C232.197 40.7998 232.762 39.6127 233.378 38.963L231.927 37.5866Z" fill="white"/>
</g>
</svg>
