<svg width="100" height="100" viewBox="0 0 100 100" fill="none" xmlns="http://www.w3.org/2000/svg">
<g id="f2l_int_28">
<g id="r_cube">
<path id="background" fill-rule="evenodd" clip-rule="evenodd" d="M99 3.80572L34.4932 0L2 16.8877L7.60545 88.44L77.7814 100L97.8742 69.5744L99 3.80572Z" fill="black"/>
<g id="right">
<path id="R9" fill-rule="evenodd" clip-rule="evenodd" d="M97.6297 51.8319L92.9361 58.5668L92.7013 77.5822L97.2853 70.3581L97.6297 51.8319Z" fill="#696969"/>
<path id="R8" fill-rule="evenodd" clip-rule="evenodd" d="M92.0714 58.8607L85.7727 66.8572L85.9155 86.7088L91.8568 78.0238L92.0714 58.8607Z" fill="#009A0E"/>
<path id="R7" fill-rule="evenodd" clip-rule="evenodd" d="M85.0718 67.7214L78.2142 76.4307L78.3553 98.1012L85.1428 88.0671L85.0718 67.7214Z" fill="#696969"/>
<path id="R6" fill-rule="evenodd" clip-rule="evenodd" d="M98.5317 29.2227L92.7742 34.9651L92.8628 55.172L98.0792 48.5254L98.5317 29.2227Z" fill="#696969"/>
<path id="R5" fill-rule="evenodd" clip-rule="evenodd" d="M91.9004 36.0773L85.9849 42.6611L85.7727 63.924L91.9004 56.4002V36.0773Z" fill="#009A0E"/>
<path id="R4" fill-rule="evenodd" clip-rule="evenodd" d="M85.1428 43.6709L78.2142 51.3526L78.3498 74.0506L84.939 65.4689L85.1428 43.6709Z" fill="#696969"/>
<path id="R3" fill-rule="evenodd" clip-rule="evenodd" d="M98.3701 5.69617L92.7742 10.377L92.7013 31.6455L97.9344 26.0012L98.3701 5.69617Z" fill="#696969"/>
<path id="R2" fill-rule="evenodd" clip-rule="evenodd" d="M92.0714 11.3923L85.7727 17.0466V39.8733L91.8638 33.1024L92.0714 11.3923Z" fill="#696969"/>
<path id="R1" fill-rule="evenodd" clip-rule="evenodd" d="M84.8046 18.4799L78.1493 24.537L78.4132 48.1012L84.7386 40.9618L84.8046 18.4799Z" fill="#696969"/>
</g>
<g id="front">
<path id="F9" fill-rule="evenodd" clip-rule="evenodd" d="M27.2973 70.5623L7.66882 67.7216L9.16768 87.9521L28.4545 91.1393L27.2973 70.5623Z" fill="#696969"/>
<path id="F8" fill-rule="evenodd" clip-rule="evenodd" d="M51.0001 73.7765L30.1293 71.0206L31.3671 91.0278L51.7598 94.3039L51.0001 73.7765Z" fill="#D0021B"/>
<path id="F7" fill-rule="evenodd" clip-rule="evenodd" d="M76.1885 77.1883L54.2793 74.0507L54.7568 95.1085L76.3248 98.7342L76.1885 77.1883Z" fill="#696969"/>
<path id="F6" fill-rule="evenodd" clip-rule="evenodd" d="M26.0868 45.8383L5.7793 43.6709L7.23389 65.1351L27.1949 67.7215L26.0868 45.8383Z" fill="#696969"/>
<path id="F5" fill-rule="evenodd" clip-rule="evenodd" d="M50.1808 48.8487L28.4546 46.2026L29.6145 68.0361L51 70.7802L50.1808 48.8487Z" fill="#D0021B"/>
<path id="F4" fill-rule="evenodd" clip-rule="evenodd" d="M75.7389 51.7978L53.205 49.4407L54.1399 71.1453L76.0247 74.0507L75.7389 51.7978Z" fill="#696969"/>
<path id="F3" fill-rule="evenodd" clip-rule="evenodd" d="M24.6563 20.7758L3.88965 19.3545L5.71388 40.914L25.7918 43.0904L24.6563 20.7758Z" fill="#696969"/>
<path id="F2" fill-rule="evenodd" clip-rule="evenodd" d="M49.2522 22.6046L27.1948 20.8861L28.4998 43.3699L49.8701 45.5697L49.2522 22.6046Z" fill="#009A0E"/>
<path id="F1" fill-rule="evenodd" clip-rule="evenodd" d="M75.3867 25.2151L52.4896 23.3545L53.2414 46.3724L75.7948 48.6709L75.3867 25.2151Z" fill="#696969"/>
</g>
<g id="up">
<path id="U9" fill-rule="evenodd" clip-rule="evenodd" d="M53.0195 1.69954L34.9534 0.632935L27.1948 4.69749L46.222 5.69623L53.0195 1.69954Z" fill="#696969"/>
<path id="U8" fill-rule="evenodd" clip-rule="evenodd" d="M75.065 2.94116L55.4817 1.8988L48.6105 6.27505L68.4023 7.59501L75.065 2.94116Z" fill="#696969"/>
<path id="U7" fill-rule="evenodd" clip-rule="evenodd" d="M97.1104 4.3314L76.6949 3.16455L70.6559 7.6258L91.7657 8.86075L97.1104 4.3314Z" fill="#696969"/>
<path id="U6" fill-rule="evenodd" clip-rule="evenodd" d="M90.8117 9.57764L69.9489 8.22791L62.4675 13.5554L84.4376 15.1899L90.8117 9.57764Z" fill="#696969"/>
<path id="U5" fill-rule="evenodd" clip-rule="evenodd" d="M66.8766 8.37593L47.3026 6.96204L39.1624 11.8095L59.6931 13.2912L66.8766 8.37593Z" fill="#F8E71C"/>
<path id="U4" fill-rule="evenodd" clip-rule="evenodd" d="M44.8312 6.75566L25.8406 5.69617L16.4871 10.1997L36.5012 11.3924L44.8312 6.75566Z" fill="#696969"/>
<path id="U3" fill-rule="evenodd" clip-rule="evenodd" d="M34.7533 12.5971L14.5882 11.3925L3.88965 16.6813L25.0894 18.3545L34.7533 12.5971Z" fill="#696969"/>
<path id="U2" fill-rule="evenodd" clip-rule="evenodd" d="M58.6883 14.1348L37.323 12.6582L27.8247 18.5654L50.0909 20.2531L58.6883 14.1348Z" fill="#FF8100"/>
<path id="U1" fill-rule="evenodd" clip-rule="evenodd" d="M83.8832 16.0372L61.25 14.557L53.0195 20.5374L76.4758 22.1519L83.8832 16.0372Z" fill="#696969"/>
</g>
</g>
</g>
</svg>
