<?xml version="1.0" encoding="UTF-8"?>
<svg width="88px" height="100px" viewBox="0 0 88 100" version="1.1" xmlns="http://www.w3.org/2000/svg" xmlns:xlink="http://www.w3.org/1999/xlink">
    <title>cylinder_4</title>
    <g id="Cylinder" stroke="none" stroke-width="1" fill="none" fill-rule="evenodd">
        <g id="cylinder_4" fill-rule="nonzero">
            <path d="M41.77,0 C47.25,0 52.9999952,0.64 60.77,2.63 C64.05,3.47 73.87,6.65 79.49,11.76 C88.69,20.13 87.99,28.98 87.99,28.98 L74.49,83.54 C74.49,83.54 69.19,93.9 56.09,98.27 C49.72,100.4 38.75,100.54 31.67,98.82 C24.6,97.09 16.72,91.17 14.77,89.17 C10.99,85.27 7.84,76.2 7.84,76.2 L-4.80390317e-06,28.98 C-4.80390317e-06,28.98 -0.04,17.56 7.18,11.76 C11.7817968,7.96655516 17.0334522,5.03918082 22.68,3.12 C30.14,0.65 38.98,0 41.78,0 L41.77,0 Z" id="Path" fill="#000000"></path>
            <path d="M50.44,35.56 C49.44,35.88 49.05,36.59 49.05,36.59 L39.01,50.09 C39.01,50.09 52.19,50.42 58.37,49.16 C64.55,47.89 75.95,42.53 75.95,42.53 L52.32,35.56 C52.32,35.56 51.46,35.25 50.44,35.56 Z" id="Path" fill="#FFFFFF"></path>
            <path d="M61.13,21.94 C60.28,22.12 59.81,22.89 59.81,22.89 L54.31,30.42 C54.31,30.42 53.84,31.1 54,31.56 C54.15,32.03 55,32.4 55,32.4 L78.79,39.83 C78.79,39.83 82.63,36.11 83.74,34.14 C84.86,32.18 85.26,28.42 85.26,28.42 L62.58,21.94 C62.58,21.94 61.98,21.76 61.14,21.94 L61.13,21.94 Z" id="Path" fill="#FFFFFF"></path>
            <path d="M70.91,8.62 L63.92,18.27 L85.59,24.45 C85.59,24.45 83.14,18.35 79.8,14.75 C76.47,11.15 70.91,8.62 70.91,8.62 Z" id="Path" fill="#FFFFFF"></path>
            <path d="M51.1,2.39 L43.47,10.49 C43.47,10.49 42.71,11.3 42.81,11.71 C42.91,12.11 43.92,12.38 43.92,12.38 L57.42,16.08 C57.42,16.08 58.42,16.28 59.09,16.08 C59.76,15.87 60.04,15.26 60.04,15.26 L66.59,6.48 C66.59,6.48 62.76,4.5 59.09,3.56 C55.42,2.63 51.09,2.39 51.09,2.39 L51.1,2.39 Z" id="Path" fill="#FFFFFF"></path>
            <path d="M39.15,15.34 C39.602596,15.2537691 40.067404,15.2537691 40.52,15.34 L54.19,19.39 C54.19,19.39 55.16,19.52 55.43,20.11 C55.69,20.69 55.11,21.41 55.11,21.41 L49.61,28.83 C49.61,28.83 49.05,29.53 48.43,29.69 C47.81,29.85 46.78,29.57 46.78,29.57 L31.97,25.05 C31.97,25.05 31.09,24.79 31.03,24.3 C30.96,23.8 31.73,23.01 31.73,23.01 L38.11,16.01 C38.11,16.01 38.58,15.49 39.15,15.34 L39.15,15.34 Z" id="Path" fill="#FFFFFF"></path>
            <path d="M27.37,28.57 C26.8697985,28.763353 26.4310421,29.0881019 26.1,29.51 L14.18,42.38 C14.18,42.38 17.67,44.51 22.87,46.18 C28.07,47.86 33.93,49.03 33.93,49.03 L44.03,35.62 C44.03,35.62 44.88,34.58 44.67,34 C44.47,33.42 43.11,33.06 43.11,33.06 L28.95,28.74 C28.95,28.74 28.05,28.39 27.37,28.57 L27.37,28.57 Z" id="Path" fill="#FFFFFF"></path>
            <path d="M2.62,20.6 C2.62,20.6 1.32,26.91 2.62,30.44 C3.91,33.96 9.83,40.28 9.83,40.28 L20.66,28.62 C20.66,28.62 21.31,27.85 21.05,27.22 C20.78,26.58 19.61,26.02 19.61,26.02 L2.61,20.59 L2.62,20.6 Z" id="Path" fill="#FFFFFF"></path>
            <path d="M4.98,17.04 L23.45,22.62 C23.45,22.62 24.23,22.85 25.02,22.62 C25.82,22.39 26.26,21.82 26.26,21.82 L32.76,15.21 C32.76,15.21 33.58,14.43 33.47,14.08 C33.37,13.72 32.22,13.51 32.22,13.51 L15,8.65 C15,8.65 11.9,9.77 9.13,11.99 C6.37,14.21 4.99,17.04 4.99,17.04 L4.98,17.04 Z" id="Path" fill="#FFFFFF"></path>
            <path d="M19.23,5.85 L35.11,10.03 C35.11,10.03 35.87,10.21 36.98,9.88 C38.09,9.54 38.43,9.03 38.43,9.03 L45.88,1.36 C45.88,1.36 39.83,0.91 32.24,2.2 C24.64,3.48 19.24,5.86 19.24,5.86 L19.23,5.85 Z" id="Path" fill="#FFFFFF"></path>
            <path d="M13.18,46.98 C13.18,46.98 18.47,50.08 21.73,51.26 C24.98,52.43 33.02,53.87 33.02,53.87 L33.02,67.8 C33.02,67.8 27.3,66.6 23.12,65.1 C20.2965775,64.013557 17.5923556,62.6396649 15.05,61 L13.19,46.98 L13.18,46.98 Z" id="Path" fill="#009846"></path>
            <path d="M8.97,44.34 L11.1,58.88 C11.1,58.88 7.85,55.35 6.7,53.82 C5.54,52.3 3.45,47.59 3.45,47.59 L1.27,35.41 C1.27,35.41 2.62,38.16 3.93,39.81 C5.24,41.47 8.97,44.34 8.97,44.34 L8.97,44.34 Z" id="Path" fill="#009846"></path>
            <path d="M32.82,71.79 C32.82,71.79 26.39,70.64 22.87,69.31 C19.35,67.98 15.09,64.94 15.09,64.94 L16.19,76.48 C16.19,76.48 20.4,79.54 23.44,80.91 C26.47,82.29 33.02,84.1 33.02,84.1 L32.82,71.79 L32.82,71.79 Z" id="Path" fill="#E31E24"></path>
            <path d="M4.4,52.23 C4.4,52.23 6.14,56.27 7.42,57.96 C8.57494666,59.3367296 9.84631046,60.6114391 11.22,61.77 L13,74.03 C13,74.03 9.82,70.43 8.6,68.21 C7.37,65.99 5.81,61.77 5.81,61.77 L4.39,52.23 L4.4,52.23 Z" id="Path" fill="#E31E24"></path>
            <path d="M33.02,86.82 L33.02,98.22 C33.02,98.22 27.41,96.46 24.68,95.16 C21.96,93.86 17.79,90.96 17.79,90.96 L16.63,79.7 C16.63,79.7 21.26,82.9 24.05,84.1 C26.85,85.32 33.02,86.83 33.02,86.83 L33.02,86.82 Z" id="Path" fill="#696969"></path>
            <path d="M6.59,66.97 C6.59,66.97 7.81,69.92 9.76,72.92 C11.71,75.92 13.5,77.36 13.5,77.36 L15.1,88.6 C15.1,88.6 12.68,85.79 11.5,83.66 C10.3,81.54 8.18,76.22 8.18,76.22 L6.6,66.96 L6.59,66.97 Z" id="Path" fill="#696969"></path>
            <path d="M38,54.51 L38,68.57 C38,68.57 52,69.16 58.74,67.68 C65.49,66.21 73.52,60.81 73.52,60.81 L76.58,46.23 C76.58,46.23 65.61,51.98 58.97,53.4 C52.33,54.83 38,54.51 38,54.51 Z" id="Path" fill="#009846"></path>
            <path d="M80.38,43.4 L76.58,59.15 L79.68,55.49 L81.86,52.23 L85.5,37.86 C85.5,37.86 84.26,39.9 83.38,40.94 C82.5,41.98 80.38,43.4 80.38,43.4 Z" id="Path" fill="#009846"></path>
            <path d="M38,72.17 L37.87,84.86 C37.87,84.86 49.63,85.1 55.37,83.69 C61.12,82.29 70.55,76.64 70.55,76.64 L72.82,64.26 C72.82,64.26 63.82,69.4 57.98,70.73 C52.14,72.06 38,72.17 38,72.17 Z" id="Path" fill="#E31E24"></path>
            <path d="M75.8,61.95 L73.15,74.32 C73.15,74.32 75.39,71.94 76.05,70.9 C77.6,68.43 78.32,66.37 78.32,66.37 L80.92,55.45 C80.92,55.45 79.84,57.72 79.16,58.6 C77.49,60.76 75.8,61.95 75.8,61.95 L75.8,61.95 Z" id="Path" fill="#E31E24"></path>
            <path d="M37.87,87.38 L37.87,98.86 C37.87,98.86 48.72,99.34 55.06,97.76 C61.4,96.18 68.36,90.13 68.36,90.13 L70.22,79.39 C70.22,79.39 62,84.6 56.48,85.98 C50.97,87.36 37.87,87.38 37.87,87.38 L37.87,87.38 Z" id="Path" fill="#696969"></path>
            <path d="M72.8,77.53 L70.47,88.43 C70.47,88.43 71.65,87.03 72.14,86.33 C73.29,84.72 73.97,83.53 73.97,83.53 L76.93,71.65 C76.93,71.65 75.47,74.17 74.78,75.15 C74.1,76.13 72.81,77.53 72.81,77.53 L72.8,77.53 Z" id="Path" fill="#696969"></path>
        </g>
    </g>
</svg>