<?xml version="1.0" encoding="UTF-8"?>
<svg width="99px" height="100px" viewBox="0 0 99 100" version="1.1" xmlns="http://www.w3.org/2000/svg" xmlns:xlink="http://www.w3.org/1999/xlink">
    <title>cylinder_4_1</title>
    <g id="Cylinder" stroke="none" stroke-width="1" fill="none" fill-rule="evenodd">
        <g id="cylinder_4_1" fill-rule="nonzero">
            <path d="M24.14,0 L30.98,6.75 L71.9,1.99 L71.6,5.95 L75.88,5.7 C75.88,5.7 80.25,7.23 82.24,8.43 C84.24,9.63 87.74,12.79 87.74,12.79 L86.18,25.12 C86.18,25.12 92.28,29.65 94.51,32.92 C96.75,36.21 98.17,43.67 98.17,43.67 L93.94,45.09 L97.36,48.11 C97.36,48.11 97.23,55.68 96.84,59.14 C96.45,62.6 94.51,68.46 94.51,68.46 L82.89,71.63 L82.39,80.13 C82.39,80.13 81.01,86.63 74.29,91.88 C67.56,97.13 63.89,97.5 56.51,99.25 C49.12,100.99 32.42,99.46 26.46,97.15 C20.5,94.85 14.49,90.95 11.82,87.97 C9.16,84.97 5.95,78.97 5.95,78.97 L4.88,34.5 L0,25.12 C0,25.12 2.34,17 8.27,10.67 C14.19,4.33 24.14,0 24.14,0 Z" id="Path" fill="#000000"></path>
            <path d="M67.86,14.6 L76.76,21.04 C76.76,21.04 78.13,21.14 79.54,21.72 C80.94,22.29 84.13,24.02 84.13,24.02 C84.13,24.02 77.9,19.78 76.15,18.66 C74.41,17.53 72.47,16.51 72.47,16.51 L67.86,14.6 Z" id="Path" fill="#696969"></path>
            <path d="M56.27,9.02 L75.36,6.76 C75.36,6.76 79.2,8.01 80.88,9.02 C82.3681351,10.0422335 83.7635081,11.1933326 85.05,12.46 L69.47,14.2 C69.47,14.2 65.67,12.71 64.54,13 C63.84,13.53 63.33,14.48 63.33,14.48 L56.27,9.02 L56.27,9.02 Z" id="Path" fill="#696969"></path>
            <polygon id="Path" fill="#FFED00" points="35.84 11.75 52.23 9.64 59.35 15.59 41.66 17.86 35.84 11.76"></polygon>
            <path d="M62.2,18.2 L74.63,27.72 C74.63,27.72 70.29,29.07 65.08,29.9 C59.86,30.74 54.28,30.57 54.28,30.57 L44.08,20.76 L62.2,18.2 Z" id="Path" fill="#696969"></path>
            <path d="M39.25,22.11 L47.72,30.79 C47.72,30.79 36.66,30.13 31.2,29.19 C25.73,28.26 16.22,25.21 16.22,25.21 L39.25,22.11 L39.25,22.11 Z" id="Path" fill="#696969"></path>
            <path d="M30.76,9.06 C30.76,9.06 23.4,13.4 20.3,16 C17.2,18.6 12.52,24.4 12.52,24.4 L27.18,22.11 C27.18,22.11 29.04,19.91 31.42,18.21 C33.8,16.5 36.56,15.39 36.56,15.39 L30.75,9.06 L30.76,9.06 Z" id="Path" fill="#E31E24"></path>
            <path d="M23.67,1.61 L28.37,6.76 C28.37,6.76 18.9,12.42 13.7,18.2 C8.5,24 5.04,32.7 5.04,32.7 L1.08,25.6 C1.08,25.6 3.21,17.96 9.17,11.63 C15.13,5.3 23.67,1.61 23.67,1.61 Z" id="Path" fill="#696969"></path>
            <path d="M11.31,26.23 C12.04,44.26 12,44.48 12,44.48 L7.12,35.68 C7.12,35.68 8.75,29.68 11.32,26.23 L11.31,26.23 Z" id="Path" fill="#E31E24"></path>
            <path d="M78.27,25.79 L76.83,46.76 L95.99,42.97 C95.99,42.97 92.67,34.71 89.71,31.83 C86.74,28.95 78.27,25.79 78.27,25.79 Z" id="Path" fill="#696969"></path>
            <path d="M55.58,35.14 C55.58,35.14 62.16,34.99 65.08,34.47 C71.41,33.35 75.43,31.84 75.43,31.84 L73.87,51.04 C73.87,51.04 70.31,52.54 65.09,53.61 C59.87,54.67 54.46,54.73 54.46,54.73 L55.58,35.13 L55.58,35.14 Z" id="Path" fill="#696969"></path>
            <path d="M13.63,28.89 L14.03,46.62 C14.03,46.62 23.15,50.82 29.31,52.27 C35.47,53.7 48.76,54.73 48.76,54.73 L49.52,36.28 C49.52,36.28 40.33,35.9 30.22,34.38 C20.13,32.85 13.62,28.88 13.62,28.88 L13.63,28.89 Z" id="Path" fill="#696969"></path>
            <path d="M78.45,54.73 C78.45,54.73 78.67,59.47 78.29,63.47 C77.89,67.47 76.83,71.43 76.83,71.43 L93.15,67.79 C93.15,67.79 94.67,64.39 95.21,60 C95.75,55.6 95.21,51.04 95.21,51.04 L78.45,54.73 L78.45,54.73 Z" id="Path" fill="#0062AC"></path>
            <path d="M53.87,59.92 C53.87,59.92 59.12,59.74 63.9,58.82 C68.68,57.9 73.2,56.19 73.2,56.19 L71.93,72.58 C71.93,72.58 67.64,74.97 62.91,76.18 C58.18,77.4 53.16,77.3800202 53.16,77.3800202 L53.87,59.92 L53.87,59.92 Z" id="Path" fill="#E31E24"></path>
            <path d="M46.54,58.2 L21,63.74 C21,63.74 19.4,70.6 19.4,74.01 C19.4,77.42 20.48,82.04 20.48,82.04 L45.8,75.74 L46.55,58.2 L46.54,58.2 Z" id="Path" fill="#FFED00"></path>
            <path d="M12,52.9 L16.52,62.18 C16.52,62.18 15.47,65.03 15.47,69.25 C15.47,73.46 16.22,77.39 16.22,77.39 L12,67.65 C12,67.65 10.87,63.19 10.87,59.69 C10.87,56.2 12,52.9 12,52.9 L12,52.9 Z" id="Path" fill="#0062AC"></path>
            <path d="M5.27,41.8 C5.27,41.8 6.7,44.84 7.41,45.92 C8.03979883,46.7724773 8.75703409,47.5567439 9.55,48.26 L9.55,63.93 C9.55,63.93 8.3,62.63 7.41,60.97 C6.52,59.31 5.55,56.27 5.55,56.27 L5.27,41.8 Z" id="Path" fill="#E31E24"></path>
            <path d="M76.2,75.46 C76.2,75.46 77.5,74.69 78.08,74.21 C78.5711677,73.7568974 79.0290218,73.2689653 79.45,72.75 L82.62,72 L82.22,79.42 C82.22,79.42 81.59,81.98 79.45,85.1 C77.31,88.21 74.83,90.08 74.83,90.08 L76.21,75.47 L76.2,75.46 Z" id="Path" fill="#009846"></path>
            <path d="M53.16,82.55 C53.16,82.55 59.42,82.3 62.54,81.53 C65.67,80.77 71.91,77.39 71.91,77.39 L70.47,92.84 C70.47,92.84 66.73,95.46 61.9,96.87 C57.07,98.27 51.88,98.29 51.88,98.29 L53.16,82.55 L53.16,82.55 Z" id="Path" fill="#009846"></path>
            <path d="M29.45,81.7 L47.02,82.47 L46.21,98.47 C46.21,98.47 34.71,98.47 27.01,95.94 C22.08,94.32 13.71,88.39 13.71,88.39 L13.7,74.26 L18.3,84.68 L29.46,81.7 L29.45,81.7 Z" id="Path" fill="#009846"></path>
            <path d="M5.77,63.93 C5.77,63.93 6.89,66.22 7.77,67.4 C8.74595452,68.590724 9.78056771,69.732136 10.87,70.82 L10.87,85.3 C10.87,85.3 9.25,83.27 8.12,81.55 C6.98,79.83 6.11,77.84 6.11,77.84 L5.77,63.94 L5.77,63.93 Z" id="Path" fill="#009846"></path>
            <path d="M20.52,22.12 C20.7532561,21.992042 21.0278865,21.9623084 21.283124,22.0373783 C21.5383615,22.1124481 21.7531631,22.2861323 21.88,22.52 L21,23 L21.88,22.52 L21.88,22.53 L21.9,22.56 L21.95,22.66 C22.2684071,23.2539265 22.5751328,23.854042 22.87,24.46 C23.47,25.66 24.29,27.35 25.14,29.3 C26.83,33.17 28.7,38.15 29.28,42.38 C29.86,46.56 29.86,53.26 29.72,58.85 C29.6116613,62.3245373 29.4716555,65.7980149 29.3,69.27 L34.38,62.3 C34.6451659,62.0453057 35.0287093,61.9566641 35.3787417,62.0691784 C35.7287741,62.1816928 35.9888324,62.4772136 36.0559299,62.8387105 C36.1230275,63.2002075 35.9863409,63.5693682 35.7,63.8 L28.83,72.36 C28.4129353,72.7214773 27.7818734,72.6767211 27.42,72.26 L21.59,62.92 C21.3353057,62.6548341 21.2466641,62.2712907 21.3591784,61.9212583 C21.4716928,61.5712259 21.7672136,61.3111676 22.1287105,61.2440701 C22.4902075,61.1769725 22.8593682,61.3136591 23.09,61.6 L27.3,69.12 L27.33,68.57 C27.42,66.73 27.65,61.59 27.72,58.8 C27.86,53.2 27.86,46.65 27.3,42.66 C26.76,38.71 24.98,33.94 23.3,30.09 C22.3258927,27.8594918 21.2718781,25.6647399 20.14,23.51 L20.12,23.48 C19.992042,23.2467439 19.9623084,22.9721135 20.0373783,22.716876 C20.1124481,22.4616385 20.2861323,22.2468369 20.52,22.12 L20.52,22.12 Z" id="Path" fill="#E31E24"></path>
        </g>
    </g>
</svg>