<?xml version="1.0" encoding="UTF-8"?>
<svg width="197px" height="100px" viewBox="0 0 197 100" version="1.1" xmlns="http://www.w3.org/2000/svg" xmlns:xlink="http://www.w3.org/1999/xlink">
    <title>cylinder_5_4</title>
    <g id="Cylinder" stroke="none" stroke-width="1" fill="none" fill-rule="evenodd">
        <g id="cylinder_5_4" fill-rule="nonzero">
            <path d="M150.77,0 C156.25,0 161.999995,0.64 169.77,2.63 C173.05,3.47 182.87,6.65 188.49,11.76 C197.69,20.13 196.99,28.98 196.99,28.98 L183.49,83.54 C183.49,83.54 178.19,93.9 165.09,98.27 C158.72,100.4 147.75,100.54 140.67,98.82 C133.6,97.09 125.72,91.17 123.77,89.17 C119.99,85.27 116.84,76.2 116.84,76.2 L108.999995,28.98 C108.999995,28.98 108.96,17.56 116.17,11.76 C120.774799,7.965505 126.029927,5.03808324 131.68,3.12 C139.14,0.65 147.98,0 150.78,0 L150.77,0 Z" id="Path" fill="#000000"></path>
            <path d="M159.44,35.56 C158.44,35.88 158.05,36.59 158.05,36.59 L148.01,50.09 C148.01,50.09 161.19,50.42 167.37,49.16 C173.55,47.89 184.96,42.53 184.96,42.53 L161.32,35.56 C161.32,35.56 160.46,35.25 159.44,35.56 Z" id="Path" fill="#696969"></path>
            <path d="M170.13,21.94 C169.28,22.12 168.81,22.89 168.81,22.89 L163.31,30.42 C163.31,30.42 162.83,31.1 162.99,31.56 C163.15,32.03 163.99,32.4 163.99,32.4 L187.78,39.83 C187.78,39.83 191.62,36.11 192.73,34.14 C193.85,32.18 194.25,28.42 194.25,28.42 L171.57,21.94 C171.57,21.94 170.97,21.76 170.13,21.94 L170.13,21.94 Z" id="Path" fill="#696969"></path>
            <path d="M179.91,8.62 L172.92,18.27 L194.59,24.45 C194.59,24.45 192.14,18.35 188.8,14.75 C185.47,11.15 179.91,8.62 179.91,8.62 L179.91,8.62 Z" id="Path" fill="#696969"></path>
            <path d="M160.1,2.39 L152.47,10.49 C152.47,10.49 151.71,11.3 151.81,11.71 C151.91,12.11 152.92,12.38 152.92,12.38 L166.42,16.08 C166.42,16.08 167.42,16.28 168.09,16.08 C168.50123,15.9405685 168.841982,15.6464458 169.04,15.26 L175.59,6.48 C175.59,6.48 171.76,4.5 168.09,3.56 C164.42,2.63 160.09,2.39 160.09,2.39 L160.1,2.39 Z" id="Path" fill="#FFED00"></path>
            <path d="M148.15,15.34 C148.602596,15.2537691 149.067404,15.2537691 149.52,15.34 L163.19,19.39 C163.19,19.39 164.16,19.52 164.43,20.11 C164.69,20.69 164.11,21.41 164.11,21.41 L158.61,28.83 C158.61,28.83 158.05,29.53 157.43,29.69 C156.87752,29.7611425 156.316372,29.7203317 155.78,29.57 L140.97,25.05 C140.97,25.05 140.09,24.79 140.03,24.3 C139.96,23.8 140.73,23.01 140.73,23.01 L147.11,16.01 C147.11,16.01 147.58,15.49 148.15,15.34 L148.15,15.34 Z" id="Path" fill="#FFED00"></path>
            <path d="M136.37,28.57 C135.69,28.75 135.1,29.51 135.1,29.51 L123.18,42.38 C123.18,42.38 126.67,44.51 131.87,46.18 C137.07,47.86 142.93,49.03 142.93,49.03 L153.03,35.62 C153.03,35.62 153.88,34.58 153.67,34 C153.47,33.42 152.11,33.06 152.11,33.06 L137.95,28.74 C137.95,28.74 137.05,28.39 136.37,28.57 L136.37,28.57 Z" id="Path" fill="#696969"></path>
            <path d="M111.62,20.6 C111.62,20.6 110.32,26.91 111.62,30.44 C112.91,33.96 118.83,40.28 118.83,40.28 L129.66,28.62 C129.66,28.62 130.31,27.85 130.04,27.22 C129.78,26.58 128.61,26.02 128.61,26.02 L111.61,20.59 L111.62,20.6 Z" id="Path" fill="#696969"></path>
            <path d="M113.98,17.04 L132.45,22.62 C132.45,22.62 133.23,22.85 134.03,22.62 C134.83,22.39 135.26,21.82 135.26,21.82 L141.76,15.21 C141.76,15.21 142.58,14.43 142.47,14.08 C142.37,13.72 141.22,13.51 141.22,13.51 L124,8.65 C124,8.65 120.9,9.77 118.13,11.99 C116.43038,13.3837496 115.023357,15.1000463 113.99,17.04 L113.98,17.04 Z" id="Path" fill="#696969"></path>
            <path d="M128.23,5.85 L144.11,10.03 C144.11,10.03 144.87,10.21 145.98,9.88 C147.09,9.54 147.43,9.03 147.43,9.03 L154.88,1.36 C154.88,1.36 148.83,0.91 141.24,2.19 C133.64,3.47 128.24,5.85 128.24,5.85 L128.23,5.85 Z" id="Path" fill="#696969"></path>
            <path d="M122.18,46.98 C122.18,46.98 127.47,50.08 130.72,51.26 C133.98,52.43 142.02,53.87 142.02,53.87 L142.02,67.8 C142.02,67.8 136.3,66.6 132.13,65.1 C127.96,63.6 124.04,61.01 124.04,61.01 L122.18,46.99 L122.18,46.98 Z" id="Path" fill="#0062AC"></path>
            <path d="M117.97,44.34 L120.1,58.88 C120.1,58.88 116.85,55.35 115.7,53.82 C114.54,52.3 112.45,47.59 112.45,47.59 L110.27,35.41 C110.27,35.41 111.62,38.16 112.93,39.81 C114.24,41.47 117.97,44.34 117.97,44.34 L117.97,44.34 Z" id="Path" fill="#696969"></path>
            <path d="M141.82,71.79 C141.82,71.79 135.39,70.64 131.87,69.31 C128.35,67.98 124.09,64.94 124.09,64.94 L125.19,76.48 C125.19,76.48 129.4,79.54 132.44,80.91 C135.47,82.29 142.02,84.1 142.02,84.1 L141.82,71.79 L141.82,71.79 Z" id="Path" fill="#E31E24"></path>
            <path d="M113.4,52.23 C113.4,52.23 115.14,56.27 116.42,57.96 C117.574947,59.3367296 118.84631,60.6114391 120.22,61.77 L122,74.03 C122,74.03 118.82,70.43 117.6,68.21 C116.547833,66.1183498 115.616308,63.9681633 114.81,61.77 L113.39,52.23 L113.4,52.23 Z" id="Path" fill="#E31E24"></path>
            <path d="M142.02,86.82 L142.02,98.22 C142.02,98.22 136.41,96.46 133.68,95.16 C130.96,93.86 126.79,90.96 126.79,90.96 L125.63,79.69 C125.63,79.69 130.26,82.89 133.05,84.09 C135.85,85.31 142.02,86.82 142.02,86.82 L142.02,86.82 Z" id="Path" fill="#009846"></path>
            <path d="M115.59,66.97 C115.59,66.97 116.81,69.92 118.76,72.92 C120.71,75.92 122.5,77.36 122.5,77.36 L124.09,88.61 C124.09,88.61 121.67,85.8 120.49,83.67 C119.278551,81.2380978 118.170887,78.755863 117.17,76.23 L115.59,66.97 L115.59,66.97 Z" id="Path" fill="#009846"></path>
            <path d="M147,54.51 L147,68.57 C147,68.57 161,69.16 167.74,67.68 C174.49,66.21 182.52,60.81 182.52,60.81 L185.58,46.23 C185.58,46.23 174.61,51.98 167.97,53.4 C161.33,54.83 147,54.51 147,54.51 L147,54.51 Z" id="Path" fill="#696969"></path>
            <path d="M189.38,43.4 L185.58,59.15 L188.68,55.49 L190.86,52.23 L194.5,37.86 C194.5,37.86 193.25,39.9 192.38,40.94 C191.5,41.98 189.38,43.4 189.38,43.4 L189.38,43.4 Z" id="Path" fill="#0062AC"></path>
            <path d="M147,72.17 L146.87,84.86 C146.87,84.86 158.63,85.1 164.37,83.69 C170.12,82.29 179.55,76.64 179.55,76.64 L181.82,64.26 C181.82,64.26 172.82,69.4 166.98,70.73 C161.14,72.06 147,72.17 147,72.17 Z" id="Path" fill="#E31E24"></path>
            <path d="M184.8,61.95 L182.15,74.32 C182.15,74.32 184.4,71.94 185.05,70.9 C186.6,68.43 187.32,66.37 187.32,66.37 L189.92,55.45 C189.92,55.45 188.84,57.72 188.16,58.6 C186.49,60.76 184.8,61.95 184.8,61.95 Z" id="Path" fill="#E31E24"></path>
            <path d="M146.87,87.38 L146.87,98.86 C146.87,98.86 157.72,99.34 164.06,97.76 C170.4,96.18 177.36,90.13 177.36,90.13 L179.22,79.39 C179.22,79.39 171,84.59 165.48,85.98 C159.97,87.36 146.87,87.38 146.87,87.38 L146.87,87.38 Z" id="Path" fill="#009846"></path>
            <path d="M181.8,77.53 L179.47,88.43 C179.47,88.43 180.65,87.03 181.14,86.33 C181.792296,85.4250044 182.402932,84.4906982 182.97,83.53 L185.93,71.65 C185.93,71.65 184.47,74.17 183.78,75.15 C183.164002,75.9761361 182.506491,76.7704903 181.81,77.53 L181.8,77.53 Z" id="Path" fill="#009846"></path>
            <path d="M41.77,0 C47.25,0 52.9999952,0.64 60.77,2.63 C64.05,3.47 73.87,6.65 79.49,11.76 C88.69,20.13 87.99,28.98 87.99,28.98 L74.49,83.54 C74.49,83.54 69.19,93.9 56.09,98.27 C49.72,100.4 38.75,100.54 31.67,98.82 C24.6,97.09 16.72,91.17 14.77,89.17 C10.99,85.27 7.84,76.2 7.84,76.2 L-4.80390317e-06,28.98 C-4.80390317e-06,28.98 -0.04,17.56 7.18,11.76 C11.7817968,7.96655516 17.0334522,5.03918082 22.68,3.12 C30.14,0.65 38.98,0 41.78,0 L41.77,0 Z" id="Path" fill="#000000"></path>
            <path d="M50.44,35.56 C49.44,35.88 49.05,36.59 49.05,36.59 L39.01,50.09 C39.01,50.09 52.19,50.42 58.37,49.16 C64.55,47.89 75.95,42.53 75.95,42.53 L52.32,35.56 C52.32,35.56 51.46,35.25 50.44,35.56 Z" id="Path" fill="#696969"></path>
            <path d="M61.13,21.94 C60.28,22.12 59.81,22.89 59.81,22.89 L54.31,30.42 C54.31,30.42 53.84,31.1 54,31.56 C54.15,32.03 55,32.4 55,32.4 L78.79,39.83 C78.79,39.83 82.63,36.11 83.74,34.14 C84.86,32.18 85.26,28.42 85.26,28.42 L62.58,21.94 C62.58,21.94 61.98,21.76 61.14,21.94 L61.13,21.94 Z" id="Path" fill="#FFED00"></path>
            <path d="M70.91,8.62 L63.92,18.27 L85.59,24.45 C85.59,24.45 83.14,18.35 79.8,14.75 C76.47,11.15 70.91,8.62 70.91,8.62 Z" id="Path" fill="#696969"></path>
            <path d="M51.1,2.39 L43.47,10.49 C43.47,10.49 42.71,11.3 42.81,11.71 C42.91,12.11 43.92,12.38 43.92,12.38 L57.42,16.08 C57.42,16.08 58.42,16.28 59.09,16.08 C59.76,15.87 60.04,15.26 60.04,15.26 L66.59,6.48 C66.59,6.48 62.76,4.5 59.09,3.56 C55.42,2.63 51.09,2.39 51.09,2.39 L51.1,2.39 Z" id="Path" fill="#FFED00"></path>
            <path d="M39.15,15.34 C39.602596,15.2537691 40.067404,15.2537691 40.52,15.34 L54.19,19.39 C54.19,19.39 55.16,19.52 55.43,20.11 C55.69,20.69 55.11,21.41 55.11,21.41 L49.61,28.83 C49.61,28.83 49.05,29.53 48.43,29.69 C47.81,29.85 46.78,29.57 46.78,29.57 L31.97,25.05 C31.97,25.05 31.09,24.79 31.03,24.3 C30.96,23.8 31.73,23.01 31.73,23.01 L38.11,16.01 C38.11,16.01 38.58,15.49 39.15,15.34 Z" id="Path" fill="#FFED00"></path>
            <path d="M27.37,28.57 C26.69,28.75 26.1,29.51 26.1,29.51 L14.18,42.38 C14.18,42.38 17.67,44.51 22.87,46.18 C28.07,47.86 33.93,49.03 33.93,49.03 L44.03,35.62 C44.03,35.62 44.88,34.58 44.67,34 C44.47,33.42 43.11,33.06 43.11,33.06 L28.95,28.74 C28.95,28.74 28.05,28.39 27.37,28.57 L27.37,28.57 Z" id="Path" fill="#696969"></path>
            <path d="M2.62,20.6 C2.62,20.6 1.32,26.91 2.62,30.44 C3.91,33.96 9.83,40.28 9.83,40.28 L20.66,28.62 C20.66,28.62 21.31,27.85 21.05,27.22 C20.78,26.58 19.61,26.02 19.61,26.02 L2.61,20.59 L2.62,20.6 Z" id="Path" fill="#696969"></path>
            <path d="M4.98,17.04 L23.45,22.62 C23.45,22.62 24.23,22.85 25.02,22.62 C25.82,22.39 26.26,21.82 26.26,21.82 L32.76,15.21 C32.76,15.21 33.58,14.43 33.47,14.08 C33.37,13.72 32.22,13.51 32.22,13.51 L15,8.65 C15,8.65 11.9,9.77 9.13,11.99 C6.37,14.21 4.99,17.04 4.99,17.04 L4.98,17.04 Z" id="Path" fill="#FFED00"></path>
            <path d="M19.23,5.85 L35.11,10.03 C35.11,10.03 35.87,10.21 36.98,9.88 C38.09,9.54 38.43,9.03 38.43,9.03 L45.88,1.36 C45.88,1.36 39.83,0.91 32.24,2.2 C24.64,3.48 19.24,5.86 19.24,5.86 L19.23,5.85 Z" id="Path" fill="#696969"></path>
            <path d="M13.18,46.98 C13.18,46.98 18.47,50.08 21.73,51.26 C24.98,52.43 33.02,53.87 33.02,53.87 L33.02,67.8 C33.02,67.8 27.3,66.6 23.12,65.1 C20.2966063,64.0134924 17.5923909,62.6396035 15.05,61 L13.19,46.98 L13.18,46.98 Z" id="Path" fill="#0062AC"></path>
            <path d="M8.97,44.34 L11.1,58.88 C11.1,58.88 7.85,55.35 6.7,53.82 C5.54,52.3 3.45,47.59 3.45,47.59 L1.27,35.41 C1.27,35.41 2.62,38.16 3.93,39.81 C5.24,41.47 8.97,44.34 8.97,44.34 L8.97,44.34 Z" id="Path" fill="#696969"></path>
            <path d="M32.82,71.79 C32.82,71.79 26.39,70.64 22.87,69.31 C19.35,67.98 15.09,64.94 15.09,64.94 L16.19,76.48 C16.19,76.48 20.4,79.54 23.44,80.91 C26.47,82.29 33.02,84.1 33.02,84.1 L32.82,71.79 L32.82,71.79 Z" id="Path" fill="#E31E24"></path>
            <path d="M4.4,52.23 C4.4,52.23 6.14,56.27 7.42,57.96 C8.57494666,59.3367296 9.84631046,60.6114391 11.22,61.77 L13,74.03 C13,74.03 9.82,70.43 8.6,68.21 C7.37,65.99 5.81,61.77 5.81,61.77 L4.4,52.23 Z" id="Path" fill="#E31E24"></path>
            <path d="M33.02,86.82 L33.02,98.22 C33.02,98.22 27.41,96.46 24.68,95.16 C21.96,93.86 17.79,90.96 17.79,90.96 L16.63,79.7 C16.63,79.7 21.26,82.9 24.05,84.1 C26.85,85.32 33.02,86.83 33.02,86.83 L33.02,86.82 Z" id="Path" fill="#009846"></path>
            <path d="M6.59,66.97 C6.59,66.97 7.81,69.92 9.76,72.92 C11.71,75.92 13.5,77.36 13.5,77.36 L15.1,88.6 C15.1,88.6 12.68,85.79 11.5,83.66 C10.2885397,81.2281029 9.18087559,78.7458677 8.18,76.22 L6.6,66.96 L6.59,66.97 Z" id="Path" fill="#009846"></path>
            <path d="M38,54.51 L38,68.57 C38,68.57 52,69.16 58.74,67.68 C65.49,66.21 73.52,60.81 73.52,60.81 L76.58,46.23 C76.58,46.23 65.61,51.98 58.97,53.4 C52.33,54.83 38,54.51 38,54.51 Z" id="Path" fill="#696969"></path>
            <path d="M80.38,43.4 L76.58,59.15 L79.68,55.49 L81.86,52.23 L85.5,37.86 C85.5,37.86 84.26,39.9 83.38,40.94 C82.5,41.98 80.38,43.4 80.38,43.4 Z" id="Path" fill="#0062AC"></path>
            <path d="M38,72.17 L37.87,84.86 C37.87,84.86 49.63,85.1 55.37,83.69 C61.12,82.29 70.55,76.64 70.55,76.64 L72.82,64.26 C72.82,64.26 63.82,69.4 57.98,70.73 C52.14,72.06 38,72.17 38,72.17 Z" id="Path" fill="#E31E24"></path>
            <path d="M75.8,61.95 L73.15,74.32 C73.15,74.32 75.39,71.94 76.05,70.9 C77.6,68.43 78.32,66.37 78.32,66.37 L80.92,55.45 C80.92,55.45 79.84,57.72 79.16,58.6 C77.49,60.76 75.8,61.95 75.8,61.95 L75.8,61.95 Z" id="Path" fill="#E31E24"></path>
            <path d="M37.87,87.38 L37.87,98.86 C37.87,98.86 48.72,99.34 55.06,97.76 C61.4,96.18 68.36,90.13 68.36,90.13 L70.22,79.39 C70.22,79.39 62,84.6 56.48,85.98 C50.97,87.36 37.87,87.38 37.87,87.38 L37.87,87.38 Z" id="Path" fill="#009846"></path>
            <path d="M72.8,77.53 L70.47,88.43 C70.47,88.43 71.65,87.03 72.14,86.33 C73.29,84.72 73.97,83.53 73.97,83.53 L76.93,71.65 C76.93,71.65 75.47,74.17 74.78,75.15 C74.1,76.13 72.81,77.53 72.81,77.53 L72.8,77.53 Z" id="Path" fill="#009846"></path>
        </g>
    </g>
</svg>