<?xml version="1.0" encoding="UTF-8"?>
<svg width="97px" height="100px" viewBox="0 0 97 100" version="1.1" xmlns="http://www.w3.org/2000/svg" xmlns:xlink="http://www.w3.org/1999/xlink">
    <title>cylinder_4_2</title>
    <g id="Cylinder" stroke="none" stroke-width="1" fill="none" fill-rule="evenodd">
        <g id="cylinder_4_2" fill-rule="nonzero">
            <path d="M54.55,0 L54.55,3.67 L56.1,2.6 C56.1,2.6 62.13,2.68 64.97,3.02 C67.8,3.36 73.07,4.62 73.07,4.62 L74.94,2.6 C74.94,2.6 84.18,7.66 89.16,13.7 C94.14,19.75 96.16,28.35 96.16,28.35 L92.1,37.42 L88.24,83 C88.24,83 81.9,91.1 76.14,94.34 C67.73,99.05 53.99,99.91 47.24,100 C39.99,100.09 29.66,96.32 22.84,91.28 C18.95,88.42 14.67,81.83 14.67,81.83 L13.55,70.3 L2.9,67.46 C2.9,67.46 1.06,62.57 0.6,57.35 C0.15,52.13 1.08,46.77 1.08,46.77 L4.41,43.77 L0,42.85 C0,42.85 0.52,36.2 5.06,31.02 C7.62342807,28.0304494 10.632034,25.4535717 13.98,23.38 L13.98,12.7 C13.98,12.7 16.83,9.4 18.87,8.16 C20.91,6.92 25.62,6.28 25.62,6.28 L38.45,8.16 C38.45,8.16 42.41,4.64 46.47,2.6 C50.53,0.56 54.55,0 54.55,0 Z" id="Path" fill="#000000"></path>
            <path d="M86.33,71.58 C86.33,71.58 87.45,70.52 87.95,69.98 C88.45,69.42 89.29,68.23 89.29,68.23 L88.27,81.16 C88.27,81.16 87.36,82.47 86.85,83.13 C86.35,83.79 85.12,85.06 85.12,85.06 L86.33,71.58 Z" id="Path" fill="#009846"></path>
            <path d="M49.96,82.8 C49.96,82.8 62.34,82.79 67.96,81.41 C73.58,80.04 82.67,74.79 82.67,74.79 L81.76,88.43 C81.76,88.43 74.96,94.15 68.88,96.07 C62.8,98 49.78,98.56 49.78,98.56 L49.96,82.8 L49.96,82.8 Z" id="Path" fill="#009846"></path>
            <path d="M26.24,76.65 C26.24,76.65 31.6,79.68 34.64,80.59 C37.7,81.5 44.57,82.3 44.57,82.3 L44.57,98.56 C44.57,98.56 37.88,97.29 34.65,96.19 C32.0473677,95.1946193 29.5263813,93.9976523 27.11,92.61 L26.24,76.65 L26.24,76.65 Z" id="Path" fill="#009846"></path>
            <path d="M14.56,70.54 L15.75,81.37 C15.75,81.37 17.23,84.07 18.57,85.62 C20.0756278,87.1964432 21.6575207,88.6982403 23.31,90.12 L22.32,74.66 C22.32,74.66 20.85,73.87 19.9,73.16 C18.95,72.46 18.05,71.48 18.05,71.48 L14.56,70.54 L14.56,70.54 Z" id="Path" fill="#009846"></path>
            <path d="M88.3,50.99 C88.3,50.99 89.54,49.95 89.94,49.45 C90.86,48.31 91.13,47.45 91.13,47.45 L89.94,60.48 C89.94,60.48 89.23,62.46 88.68,63.4 C88.1297884,64.2312606 87.5180767,65.0201347 86.85,65.76 L88.29,50.99 L88.3,50.99 Z" id="Path" fill="#E31E24"></path>
            <path d="M49.96,60.34 C49.96,60.34 56.66,60.5 60.24,60.34 L70.01,59.85 L79.69,62.15 L82.5,56.61 L84.31,56.08 L83.41,68.96 C83.41,68.96 74.42,74.37 68.46,75.96 C62.49,77.56 49.96,77.89 49.96,77.89 L49.96,60.34 Z" id="Path" fill="#E31E24"></path>
            <path d="M25.37,55.52 C25.37,55.52 30.9,58.42 34.36,59.18 C37.82,59.94 44.57,60.34 44.57,60.34 L44.57,77.25 C44.57,77.25 38.01,76.21 34.65,75.31 C31.29,74.42 26.05,71.72 26.05,71.72 L25.37,55.52 L25.37,55.52 Z" id="Path" fill="#E31E24"></path>
            <path d="M2.73,50 L19.75,54.3 C19.75,54.3 19.33,60.09 19.52,62.87 C19.8166374,65.451988 20.2708176,68.0134306 20.88,70.54 L4.31,66.4 C4.31,66.4 2.77,62.18 2.45,58.15 C2.13,54.12 2.73,50 2.73,50 Z" id="Path" fill="#0062AC"></path>
            <path d="M52.4,30.37 L51.9,53.02 L76.59,59.52 C76.59,59.52 73.55,50.45 66.84,42.83 C60.14,35.21 52.38,30.37 52.38,30.37 L52.4,30.37 Z" id="Path" fill="#696969"></path>
            <path d="M24.72,31.5 C24.72,31.5 29.75,33.5 34.65,34.45 C39.55,35.4 44.57,35.38 44.57,35.38 L44.57,54.74 C44.57,54.74 38.06,54.04 34.65,53.19 C31.4976008,52.286046 28.3935394,51.2213196 25.35,50 L24.72,31.5 L24.72,31.5 Z" id="Path" fill="#696969"></path>
            <path d="M21.84,24.72 L22.27,46.02 L2.71,42.14 C2.71,42.14 4.43,35.34 9.36,30.74 C15.98,24.99 21.84,24.72 21.84,24.72 Z" id="Path" fill="#696969"></path>
            <path d="M53.88,26.4 L61,18.94 C61,18.94 70.92,25.17 76.35,31.71 C81.78,38.25 85.2,48.08 85.2,48.08 L80.54,57.23 C80.54,57.23 77.16,48.07 70.04,39.86 C62.9,31.65 53.89,26.38 53.89,26.38 L53.88,26.4 Z" id="Path" fill="#696969"></path>
            <path d="M68.93,11.41 L63.33,16.82 C63.33,16.82 73.07,22.97 78.69,29.98 C84.32,36.98 87.09,45.26 87.09,45.26 L90.72,38.1 C90.72,38.1 88.04,28.82 82.47,22 C76.9,15.18 68.93,11.4 68.93,11.4 L68.93,11.41 Z" id="Path" fill="#E31E24"></path>
            <path d="M75.44,4.14 L71.04,8.88 C71.04,8.88 79.77,14.04 84.69,19.96 C89.61,25.88 92.47,34.19 92.47,34.19 L95.13,28.34 C95.13,28.34 91.78,18.87 88.37,14.68 C84.97,10.5 75.44,4.14 75.44,4.14 Z" id="Path" fill="#696969"></path>
            <path d="M56.61,3.62 L49.91,8.73 L66.46,11.01 L72.01,5.58 C72.01,5.58 68,4.48 65.28,4.14 C62.3965987,3.87014454 59.5049853,3.69671444 56.61,3.62 L56.61,3.62 Z" id="Path" fill="#696969"></path>
            <polygon id="Path" fill="#696969" points="47.56 11 41.04 15.87 58.52 18.95 63.9 13.52 47.56 11.01"></polygon>
            <path d="M37.58,18.95 L55.31,21.87 L46.26,31.02 C46.26,31.02 39.48,30.24 35.97,29.67 C32.47,29.09 26.72,27.01 26.72,27.01 L37.58,18.95 L37.58,18.95 Z" id="Path" fill="#696969"></path>
            <path d="M31,14.98 L23.66,20.45 L15.98,22.91 C15.98,22.91 20.13,20.34 22.76,18.95 C25.39,17.55 31,14.98 31,14.98 L31,14.98 Z" id="Path" fill="#696969"></path>
            <path d="M34.38,11.36 C36.36,9.86 38.58,9.36 38.58,9.36 L25.48,7.31 C25.48,7.31 22.11,7.87 20.69,8.64 C19.28,9.41 16.94,12.04 16.94,12.04 L31.63,14.07 C31.63,14.07 32.41,12.87 34.38,11.37 L34.38,11.36 Z" id="Path" fill="#696969"></path>
            <path d="M49.91,1.85 C49.91,1.85 46.46,3.29 44.91,4.07 C43.36,4.84 41.04,6.28 41.04,6.28 L45.48,4.84 L49.91,1.84 L49.91,1.85 Z" id="Path" fill="#696969"></path>
            <path d="M24.98,60.06 C34.15,59.88 45.71,58.26 55.5,52.63 C65.36,46.97 71.25,40.45 74.67,35.38 C76.33,32.92 78.83,27.66 79.5,26.13 C79.98,25.86 80.72,26.03 81,26.5 C81.28,26.98 80.06,29.73 79.98,29.92 C78.9671424,32.2203517 77.7453543,34.4229178 76.33,36.5 C72.75,41.8 66.64,48.53 56.5,54.37 C46.29,60.24 34.35,61.87 25.02,62.07 C20.3748954,62.1581896 15.7294851,61.9108799 11.12,61.33 L15.86,66 C16.1638094,66.4554828 16.0448498,67.0705919 15.5931221,67.379957 C15.1413943,67.6893221 14.5248744,67.577905 14.21,67.13 L8.19,60.57 C8.03600579,60.3516801 7.9757759,60.0808168 8.02274123,59.8178109 C8.06970656,59.5548051 8.21996144,59.3215284 8.44,59.17 L16.5,55 C16.9554828,54.6961906 17.5705919,54.8151502 17.879957,55.2668779 C18.1893221,55.7186057 18.077905,56.3351256 17.63,56.65 L11.66,59.38 C16.0784461,59.9200634 20.5295266,60.1472957 24.98,60.06 L24.98,60.06 Z" id="Path" fill="#E8E8E8"></path>
        </g>
    </g>
</svg>