<?xml version="1.0" encoding="UTF-8"?>
<svg width="100px" height="100px" viewBox="0 0 100 100" version="1.1" xmlns="http://www.w3.org/2000/svg" xmlns:xlink="http://www.w3.org/1999/xlink">
    <title>cylinder_6_1</title>
    <g id="Cylinder" stroke="none" stroke-width="1" fill="none" fill-rule="evenodd">
        <g id="cylinder_6_1" fill-rule="nonzero">
            <polygon id="Path" fill="#000000" points="0 0 100 0 100 100 0 100"></polygon>
            <polygon id="Path" fill="#696969" points="9 64 9 86 5 86 5 64"></polygon>
            <polygon id="Path" fill="#696969" points="9 39 9 61 5 61 5 39"></polygon>
            <polygon id="Path" fill="#696969" points="9 14 9 36 5 36 5 14"></polygon>
            <polygon id="Path" fill="#696969" points="95 64 95 86 91 86 91 64"></polygon>
            <polygon id="Path" fill="#696969" points="95 39 95 61 91 61 91 39"></polygon>
            <polygon id="Path" fill="#696969" points="95 14 95 36 91 36 91 14"></polygon>
            <polygon id="Path" fill="#696969" points="64 91 86 91 86 95 64 95"></polygon>
            <polygon id="Path" fill="#696969" points="39 91 61 91 61 95 39 95"></polygon>
            <polygon id="Path" fill="#696969" points="14 91 36 91 36 95 14 95"></polygon>
            <polygon id="Path" fill="#696969" points="64 5 86 5 86 9 64 9"></polygon>
            <polygon id="Path" fill="#696969" points="39 5 61 5 61 9 39 9"></polygon>
            <polygon id="Path" fill="#696969" points="14 5 36 5 36 9 14 9"></polygon>
            <polygon id="Path" fill="#696969" points="64 64 86 64 86 86 64 86"></polygon>
            <polygon id="Path" fill="#FFED00" points="39 64 61 64 61 86 39 86"></polygon>
            <polygon id="Path" fill="#FFED00" points="14 64 36 64 36 86 14 86"></polygon>
            <polygon id="Path" fill="#FFED00" points="64 39 86 39 86 61 64 61"></polygon>
            <polygon id="Path" fill="#FFED00" points="39 39 61 39 61 61 39 61"></polygon>
            <polygon id="Path" fill="#FFED00" points="14 39 36 39 36 61 14 61"></polygon>
            <polygon id="Path" fill="#696969" points="64 14 86 14 86 36 64 36"></polygon>
            <polygon id="Path" fill="#FFED00" points="39 14 61 14 61 36 39 36"></polygon>
            <polygon id="Path" fill="#696969" points="14 14 36 14 36 36 14 36"></polygon>
        </g>
    </g>
</svg>