<?xml version="1.0" encoding="UTF-8"?>
<svg width="100px" height="100px" viewBox="0 0 100 100" version="1.1" xmlns="http://www.w3.org/2000/svg" xmlns:xlink="http://www.w3.org/1999/xlink">
    <title>main2x2</title>
    <g id="Advanced_2x2" stroke="none" stroke-width="1" fill="none" fill-rule="evenodd">
        <g id="main2x2" fill-rule="nonzero">
            <path d="M1.83982684,15.5069064 L49.4588745,0.156372166 C49.9188312,8.81239526e-16 50.4058442,-0.0260620276 50.9199134,0.130310138 L98.3225108,16.8881939 C99.4318182,17.2791243 100,19.3119625 100,20.3023195 C99.6482684,38.8324212 99.215368,57.3364608 98.9177489,75.8665624 C98.9177489,76.6223612 98.538961,77.37816 97.8084416,77.7169664 L51.8668831,99.7654418 C51.271645,100.052124 50.0270563,100.078186 49.4318182,99.7915038 L3.00324675,77.6387803 C2.27272727,77.2999739 1.89393939,76.5962992 1.86688312,75.8665624 C1.2987013,56.4242898 0.649350649,37.0080792 0.0264387008,17.5658066 C1.46410661e-15,16.4972635 0.865800866,15.8196508 1.86688312,15.5069064 L1.83982684,15.5069064 Z" id="Path" fill="#000000"></path>
            <polygon id="Path" fill="#E31E24" points="26.6233766 28.8506646 48.0519481 37.2686995 48.1872294 64.2950222 27.0833333 55.4860568"></polygon>
            <polygon id="Path" fill="#E31E24" points="3.78787879 19.8853271 22.7002165 27.365129 23.1331169 53.5574668 4.76190476 45.8691686"></polygon>
            <polygon id="Path" fill="#E31E24" points="27.1374459 59.1868647 48.4036797 68.2043263 48.2683983 95.2045869 27.54329 85.3531405"></polygon>
            <polygon id="Path" fill="#E31E24" points="4.76190476 49.5439145 23.2142857 57.6752671 23.5930736 83.2421162 5.62770563 74.8762054"></polygon>
            <polygon id="Path" fill="#009846" points="51.8127706 37.3468856 72.8625541 29.6325254 72.5108225 56.5545999 52.0562771 64.5295804"></polygon>
            <polygon id="Path" fill="#009846" points="76.758658 28.0688038 96.1850649 21.2926766 95.6168831 47.17227 76.2987013 54.9126922"></polygon>
            <polygon id="Path" fill="#009846" points="52.1374459 68.4388845 72.5378788 60.3075319 72.1320346 85.9786291 52.245671 95.4391452"></polygon>
            <polygon id="Path" fill="#009846" points="76.3257576 58.7177482 95.4274892 51.1858223 95.0487013 74.8501433 75.9199134 83.971853"></polygon>
            <polygon id="Path" fill="#FFED00" points="30.0865801 26.1662757 50.1082251 19.4683346 69.8593074 26.7657024 50.0811688 34.0891321"></polygon>
            <polygon id="Path" fill="#FFED00" points="55.6547619 17.6179307 72.8896104 11.8321605 92.1536797 18.7385979 75.2705628 24.8631744"></polygon>
            <polygon id="Path" fill="#FFED00" points="33.3333333 9.35626792 50.2435065 3.90930414 67.0995671 9.87750847 50.0270563 15.6111545"></polygon>
            <polygon id="Path" fill="#FFED00" points="7.92748918 17.5136826 27.6244589 11.1545478 44.534632 17.4354965 24.6482684 24.1073756"></polygon>
        </g>
    </g>
</svg>