<?xml version="1.0" encoding="UTF-8"?>
<svg width="100px" height="100px" viewBox="0 0 100 100" version="1.1" xmlns="http://www.w3.org/2000/svg" xmlns:xlink="http://www.w3.org/1999/xlink">
    <title>v2x2_adv_2_10</title>
    <g id="Advanced_2x2" stroke="none" stroke-width="1" fill="none" fill-rule="evenodd">
        <g id="v2x2_adv_2_10" fill-rule="nonzero">
            <polygon id="Path" fill="#000000" points="0.105263158 0.105263158 99.0701754 0.105263158 99.0701754 99.0701754 0.105263158 99.0701754"></polygon>
            <polygon id="Path" fill="#E31E24" points="17.9122807 12.9649123 17.9122807 3.07017544 47.5964912 3.07017544 47.5964912 12.9649123"></polygon>
            <polygon id="Path" fill="#696969" points="51.5614035 12.9649123 51.5614035 3.07017544 81.245614 3.07017544 81.245614 12.9649123"></polygon>
            <polygon id="Path" fill="#696969" points="3.07017544 17.9122807 12.9649123 17.9122807 12.9649123 47.5964912 3.07017544 47.5964912"></polygon>
            <polygon id="Path" fill="#696969" points="17.9122807 17.9122807 47.5964912 17.9122807 47.5964912 47.5964912 17.9122807 47.5964912"></polygon>
            <polygon id="Path" fill="#E31E24" points="51.5614035 17.9122807 81.245614 17.9122807 81.245614 47.5964912 51.5614035 47.5964912"></polygon>
            <polygon id="Path" fill="#696969" points="86.1929825 17.9122807 96.0877193 17.9122807 96.0877193 47.5964912 86.1929825 47.5964912"></polygon>
            <polygon id="Path" fill="#696969" points="3.07017544 51.5614035 12.9649123 51.5614035 12.9649123 81.245614 3.07017544 81.245614"></polygon>
            <polygon id="Path" fill="#696969" points="17.9122807 51.5614035 47.5964912 51.5614035 47.5964912 81.245614 17.9122807 81.245614"></polygon>
            <polygon id="Path" fill="#E31E24" points="51.5614035 51.5614035 81.245614 51.5614035 81.245614 81.245614 51.5614035 81.245614"></polygon>
            <polygon id="Path" fill="#696969" points="86.1929825 51.5614035 96.0877193 51.5614035 96.0877193 81.245614 86.1929825 81.245614"></polygon>
            <polygon id="Path" fill="#E31E24" points="17.9122807 96.0877193 17.9122807 86.1929825 47.5964912 86.1929825 47.5964912 96.0877193"></polygon>
            <polygon id="Path" fill="#696969" points="51.5614035 96.0877193 51.5614035 86.1929825 81.245614 86.1929825 81.245614 96.0877193"></polygon>
        </g>
    </g>
</svg>