<?xml version="1.0" encoding="UTF-8"?>
<svg width="100px" height="100px" viewBox="0 0 100 100" version="1.1" xmlns="http://www.w3.org/2000/svg" xmlns:xlink="http://www.w3.org/1999/xlink">
    <title>v2x2_adv_2_2</title>
    <g id="Advanced_2x2" stroke="none" stroke-width="1" fill="none" fill-rule="evenodd">
        <g id="v2x2_adv_2_2" fill-rule="nonzero">
            <path d="M98.2608696,15.1413043 C99.076087,15.1195652 99.7717391,15.7608696 99.7282609,16.576087 C98.8478261,35.7826087 97.826087,55.076087 96.6630435,74.2717391 C96.6304348,74.7934783 96.3043478,75.2282609 95.8478261,75.4456522 C80.9347826,83.3478261 66.6521739,91.1304348 51.576087,99.4673913 C50.923913,99.826087 50.1195652,99.6304348 49.7065217,99.0543478 C49.25,99.3369565 48.6630435,99.3586957 48.2065217,99.0978261 C48.2065217,99.0978261 8.30434783,76.7826087 4.68478261,74.8152174 C4.22826087,74.576087 3.9673913,74.1304348 3.95652174,73.6630435 C2.68478261,54.423913 1.5,35.8913043 1.12362376e-14,16.5434783 C-0.0652173913,15.6413043 0.77173913,14.9456522 1.64130435,15.076087 C1.67391304,14.4565217 2.13043478,13.9456522 2.72826087,13.8152174 C18.6195652,9.11956522 34.326087,4.43478261 50.3369565,0.0543478261 C50.5978261,-0.0217391304 50.8695652,-0.0108695652 51.1195652,0.0543478261 C66.9565217,4.65217391 81.1521739,9.54347826 97.2282609,13.9021739 C97.826087,14.0543478 98.2282609,14.576087 98.2608696,15.1413043 Z" id="Path" fill="#000000"></path>
            <polygon id="Path" fill="#696969" points="33.0434783 27.2282609 50.5 21.3369565 66.1195652 27.0217391 49.5543478 33"></polygon>
            <polygon id="Path" fill="#E31E24" points="52.4782609 20.5217391 67.673913 15.2065217 83.3478261 20.2282609 68.423913 26.4021739"></polygon>
            <polygon id="Path" fill="#696969" points="69.8478261 14.423913 81.0108696 10.9347826 96.8478261 15.2282609 85.3695652 19.6195652"></polygon>
            <polygon id="Path" fill="#E31E24" points="52.1086957 9.15217391 63.4347826 5.47826087 78.9782609 10.1413043 66.4456522 13.826087"></polygon>
            <polygon id="Path" fill="#E31E24" points="34.75 14.5108696 49.7065217 9.65217391 65.1521739 14.4021739 49.8478261 19.6847826"></polygon>
            <polygon id="Path" fill="#E31E24" points="16.1630435 20.4673913 32.9565217 15.1195652 48.0869565 20.4673913 30.9565217 26.1086957"></polygon>
            <polygon id="Path" fill="#E31E24" points="3.05434783 15.1521739 19.0326087 10.4456522 30.5217391 14.5326087 14.4673913 19.7717391"></polygon>
            <polygon id="Path" fill="#E31E24" points="21.2065217 9.72826087 36.7391304 5.2826087 48.076087 9.23913043 33.2826087 13.9021739"></polygon>
            <polygon id="Path" fill="#696969" points="38.2065217 4.80434783 50.7173913 1.38043478 62.3043478 4.75 49.9347826 8.67391304"></polygon>
            <polygon id="Path" fill="#696969" points="50.4891304 34.75 67.0869565 28.6521739 66.7608696 49.2826087 50.576087 55.7282609"></polygon>
            <polygon id="Path" fill="#FFED00" points="69.0326087 28.1304348 84.25 21.9456522 83.4782609 41.9456522 68.7608696 48.3478261"></polygon>
            <polygon id="Path" fill="#696969" points="86.1413043 21.3478261 98.3152174 16.5217391 97.423913 35.6956522 85.4782609 41.0326087"></polygon>
            <polygon id="Path" fill="#FFED00" points="50.673913 57.8586957 66.7391304 51.3804348 66.1195652 70.3913043 50.673913 78.1521739"></polygon>
            <polygon id="Path" fill="#FFED00" points="68.8152174 50.5434783 83.3152174 44.1195652 82.2717391 62.6086957 68.1630435 69.673913"></polygon>
            <polygon id="Path" fill="#FFED00" points="85.4456522 43.1630435 97.4130435 37.7934783 96.3152174 55.4347826 84.3695652 61.923913"></polygon>
            <polygon id="Path" fill="#FFED00" points="50.7934783 80.1630435 66.2608696 72.4130435 65.5217391 90.173913 50.8695652 98.2717391"></polygon>
            <polygon id="Path" fill="#FFED00" points="68.2717391 71.7717391 82.5 64.6413043 81.7282609 81.4347826 67.5326087 89.2173913"></polygon>
            <polygon id="Path" fill="#FFED00" points="84.5108696 63.9891304 96.25 57.6304348 95.25 74.1956522 83.7282609 80.2934783"></polygon>
            <polygon id="Path" fill="#696969" points="32.0434783 28.576087 48.6304348 34.6521739 48.6086957 55.8043478 32.6956522 48.9456522"></polygon>
            <polygon id="Path" fill="#009846" points="15.423913 22.2391304 30.173913 27.8369565 30.8695652 48.2826087 16.1195652 41.826087"></polygon>
            <polygon id="Path" fill="#696969" points="1.42391304 16.4456522 13.5434783 21.4565217 14.2282609 40.8369565 2.90217391 35.5326087"></polygon>
            <polygon id="Path" fill="#009846" points="32.5869565 50.923913 48.673913 57.8913043 48.6521739 78.1521739 33.1956522 70.5869565"></polygon>
            <polygon id="Path" fill="#009846" points="16.4456522 44.0108696 30.7391304 50.1847826 31.326087 69.4456522 17.2173913 62.7173913"></polygon>
            <polygon id="Path" fill="#009846" points="2.7173913 37.5978261 14.5326087 43.1413043 15.2717391 61.6956522 4.39130435 55.9782609"></polygon>
            <polygon id="Path" fill="#009846" points="33.1413043 72.7173913 48.8369565 80.326087 48.923913 97.9021739 33.0869565 88.9347826"></polygon>
            <polygon id="Path" fill="#009846" points="17.5 65 31.2282609 71.5869565 31.2717391 87.7391304 18.0108696 80.5978261"></polygon>
            <polygon id="Path" fill="#009846" points="4.35869565 58.1521739 15.5978261 64.0978261 16.076087 79.423913 5.38043478 73.6086957"></polygon>
        </g>
    </g>
</svg>