<?xml version="1.0" encoding="UTF-8"?>
<svg width="100px" height="100px" viewBox="0 0 100 100" version="1.1" xmlns="http://www.w3.org/2000/svg" xmlns:xlink="http://www.w3.org/1999/xlink">
    <title>v2x2_adv_1</title>
    <g id="Advanced_2x2" stroke="none" stroke-width="1" fill="none" fill-rule="evenodd">
        <g id="v2x2_adv_1" fill-rule="nonzero">
            <path d="M1.73913043,84.4155844 L49.3478261,99.7835498 C49.7826087,100 50.2173913,100 50.8695652,99.7835498 L98.2608696,83.1168831 C99.3478261,82.6839827 100,80.7359307 100,79.6536797 C99.5652174,61.2554113 99.1304348,42.6406926 98.9130435,24.2424242 C98.9130435,23.5930736 98.4782609,22.7272727 97.826087,22.2943723 L51.7391304,0.216450216 C51.0869565,-6.9388939e-18 50,-6.9388939e-18 49.3478261,0.216450216 L2.82608696,22.2943723 C2.17391304,22.7272727 1.73913043,23.3766234 1.73913043,24.025974 C1.08695652,43.2900433 0.434782609,62.7705628 0,82.034632 C0,83.1168831 0.869565217,83.7662338 1.73913043,84.1991342 L1.73913043,84.4155844 Z" id="Path" fill="#000000"></path>
            <polygon id="Path" fill="#009846" points="26.5217391 71.2121212 47.826087 62.7705628 48.0434783 35.9307359 26.9565217 44.5887446"></polygon>
            <polygon id="Path" fill="#009846" points="3.69565217 80.0865801 22.6086957 72.7272727 23.0434783 46.5367965 4.56521739 54.3290043"></polygon>
            <polygon id="Path" fill="#696969" points="26.9565217 40.9090909 48.2608696 32.034632 48.0434783 4.97835498 27.3913043 14.9350649"></polygon>
            <polygon id="Path" fill="#696969" points="4.56521739 50.6493506 23.0434783 42.4242424 23.4782609 16.8831169 5.43478261 25.3246753"></polygon>
            <polygon id="Path" fill="#FFED00" points="51.7391304 62.7705628 72.826087 70.3463203 72.3913043 43.5064935 51.9565217 35.7142857"></polygon>
            <polygon id="Path" fill="#FFED00" points="76.7391304 72.0779221 96.0869565 78.7878788 95.4347826 53.030303 76.3043478 45.2380952"></polygon>
            <polygon id="Path" fill="#696969" points="51.9565217 31.8181818 72.3913043 39.8268398 71.9565217 14.2857143 52.173913 4.76190476"></polygon>
            <polygon id="Path" fill="#696969" points="76.3043478 41.3419913 95.4347826 48.9177489 95 25.3246753 75.8695652 16.2337662"></polygon>
            <polygon id="Path" fill="#EF7F1A" points="30 73.8095238 50 80.5194805 69.7826087 73.1601732 50 66.017316"></polygon>
            <polygon id="Path" fill="#EF7F1A" points="55.4347826 82.4675325 72.826087 88.0952381 91.9565217 81.1688312 75.2173913 75.1082251"></polygon>
            <polygon id="Path" fill="#EF7F1A" points="33.2608696 90.6926407 50.2173913 96.1038961 66.9565217 90.04329 50 84.4155844"></polygon>
            <polygon id="Path" fill="#EF7F1A" points="7.82608696 82.4675325 27.3913043 88.7445887 44.3478261 82.4675325 24.5652174 75.974026"></polygon>
        </g>
    </g>
</svg>