<?xml version="1.0" encoding="UTF-8"?>
<svg width="100px" height="94px" viewBox="0 0 100 94" version="1.1" xmlns="http://www.w3.org/2000/svg" xmlns:xlink="http://www.w3.org/1999/xlink">
    <title>megaminx_2</title>
    <g id="megaminx" stroke="none" stroke-width="1" fill="none" fill-rule="evenodd">
        <g id="megaminx_2" fill-rule="nonzero">
            <path d="M48.56,92.9 L19.5,87.3 C18.94,87.2 18.62,87.04 18.38,86.68 L0.58,59.84 C0.2,59.3 -0.04,58.58 -2.33146835e-15,58.06 L1.76,35.18 C1.78,34.84 2.12,33.48 2.52,32.84 L19.34,6.52 C19.68,5.98 20.3,5.52 20.9,5.4 L48.32,0.06 C48.8,-0.02 50.4,-0.02 50.9,0.06 L78.32,5.4 C78.92,5.52 79.54,5.98 79.88,6.52 L96.7,32.84 C97.1,33.48 97.44,34.84 97.46,35.18 L99.22,58.06 C99.26,58.58 99.02,59.3 98.64,59.84 L80.84,86.68 C80.5,87.18 80.22,87.2 79.58,87.32 L50.54,92.9 C49.98,93 49.18,93.02 48.56,92.9 Z" id="Path" fill="#000000"></path>
            <polygon id="Path" fill="#0062AC" points="60.3 51.14 49.6 43.36 38.86 51.16 42.96 63.78 56.2 63.78"></polygon>
            <polygon id="Path" fill="#0062AC" points="40.72 66.88 30.92 66.88 33.94 76.18 43.74 76.18"></polygon>
            <polygon id="Path" fill="#0062AC" points="55.2 66.88 43.96 66.88 46.98 76.18 52.18 76.18"></polygon>
            <polygon id="Path" fill="#0062AC" points="68.26 66.88 58.46 66.88 55.44 76.18 65.24 76.18"></polygon>
            <polygon id="Path" fill="#0062AC" points="70.88 58.82 62.94 53.06 59.46 63.78 69.26 63.78"></polygon>
            <polygon id="Path" fill="#0062AC" points="74.9 46.42 66.98 40.66 63.96 49.96 71.88 55.72"></polygon>
            <polygon id="Path" fill="#0062AC" points="64.34 38.74 60.14 35.7 52.24 41.44 61.32 48.04"></polygon>
            <polygon id="Path" fill="#696969" points="57.5 33.78 49.6 28.02 41.68 33.78 49.6 39.52"></polygon>
            <polygon id="Path" fill="#0062AC" points="39.04 35.68 34.84 38.76 37.86 48.06 46.96 41.44"></polygon>
            <polygon id="Path" fill="#0062AC" points="32.2 40.66 24.28 46.42 27.3 55.72 35.22 49.96"></polygon>
            <polygon id="Path" fill="#0062AC" points="36.22 53.06 28.32 58.82 29.92 63.78 39.7 63.78"></polygon>
            <polygon id="Path" fill="#FFFFFF" points="46.72 88.2 36.96 86.34 33.74 88.96 38.24 89.84"></polygon>
            <polygon id="Path" fill="#FFFFFF" points="56.62 81.9 42.44 81.9 38.04 85.46 49.54 87.66 61.02 85.46"></polygon>
            <polygon id="Path" fill="#FFFFFF" points="34.14 85.8 25.66 84.16 22.44 86.8 30.9 88.42"></polygon>
            <polygon id="Path" fill="#FFFFFF" points="58.02 90.38 49.54 88.74 41.08 90.38 49.54 92"></polygon>
            <polygon id="Path" fill="#FFFFFF" points="65.34 88.98 62.1 86.34 52.38 88.2 60.84 89.84"></polygon>
            <polygon id="Path" fill="#FFFFFF" points="73.42 84.18 64.92 85.8 68.16 88.42 76.66 86.8"></polygon>
            <polygon id="Path" fill="#FFFFFF" points="70.62 81.9 60.12 81.9 63.84 84.92 72.34 83.3"></polygon>
            <polygon id="Path" fill="#FFFFFF" points="66.88 79.22 56.88 79.26 59.04 81.02 69.54 81.02"></polygon>
            <polygon id="Path" fill="#FFFFFF" points="53.4 79.26 45.68 79.26 43.52 81.02 55.54 81.02"></polygon>
            <polygon id="Path" fill="#FFFFFF" points="42.18 79.26 32.36 79.2 29.56 81.02 40.02 81.02"></polygon>
            <polygon id="Path" fill="#FFFFFF" points="38.94 81.9 28.48 81.9 26.74 83.3 35.22 84.92"></polygon>
            <polygon id="Path" fill="#E31E24" points="88.94 50.16 81.42 54.76 77.52 67.38 82.62 70.58 89.68 59.92"></polygon>
            <polygon id="Path" fill="#E31E24" points="85.92 76.36 82.14 73.98 76.94 81.82 80.72 84.2"></polygon>
            <polygon id="Path" fill="#E31E24" points="90.42 69.54 89.88 62.32 83.88 71.36 87.66 73.74"></polygon>
            <polygon id="Path" fill="#E31E24" points="96.8 51.88 91.6 59.72 92.16 66.94 97.36 59.1"></polygon>
            <polygon id="Path" fill="#E31E24" points="96.32 45.64 90.78 49.04 91.42 57.3 96.62 49.46"></polygon>
            <polygon id="Path" fill="#696969" points="95.62 36.34 90.08 39.76 90.6 46.64 96.14 43.24"></polygon>
            <polygon id="Path" fill="#E31E24" points="88.22 40.92 85.1 42.86 82.38 51.66 88.76 47.76"></polygon>
            <polygon id="Path" fill="#E31E24" points="83.24 44 78.04 46.76 74.98 56.18 80.52 52.8"></polygon>
            <polygon id="Path" fill="#E31E24" points="79.56 55.9 74.02 59.28 72.5 64.24 76.26 66.6"></polygon>
            <polygon id="Path" fill="#E31E24" points="75.3 69.7 71.54 67.34 68.66 76.64 72.42 79"></polygon>
            <polygon id="Path" fill="#E31E24" points="80.88 73.2 76.56 70.48 73.68 79.78 75.68 81.04"></polygon>
            <polygon id="Path" fill="#FFED00" points="17.8 54.76 10.28 50.16 9.54 59.92 16.6 70.58 21.7 67.38"></polygon>
            <polygon id="Path" fill="#FFED00" points="17.08 73.98 13.3 76.36 18.5 84.2 22.28 81.82"></polygon>
            <polygon id="Path" fill="#FFED00" points="22.66 70.48 18.34 73.2 23.54 81.04 25.54 79.78"></polygon>
            <polygon id="Path" fill="#FFED00" points="27.68 67.34 23.92 69.7 26.78 79 30.56 76.64"></polygon>
            <polygon id="Path" fill="#FFED00" points="25.2 59.28 19.64 55.9 22.96 66.6 26.72 64.24"></polygon>
            <polygon id="Path" fill="#FFED00" points="21.22 47.1 15.98 44 18.7 52.8 24.18 56.14"></polygon>
            <polygon id="Path" fill="#FFED00" points="14.12 42.86 10.98 40.92 10.46 47.76 16.84 51.66"></polygon>
            <polygon id="Path" fill="#696969" points="9.14 39.76 3.6 36.34 3.08 43.24 8.62 46.64"></polygon>
            <polygon id="Path" fill="#FFED00" points="8.44 49.04 2.9 45.64 2.6 49.46 7.8 57.3"></polygon>
            <polygon id="Path" fill="#FFED00" points="7.62 59.72 2.42 51.88 1.86 59.1 7.06 66.94"></polygon>
            <polygon id="Path" fill="#FFED00" points="15.34 71.36 9.34 62.32 8.8 69.54 11.56 73.74"></polygon>
            <polygon id="Path" fill="#EA80FC" points="73.68 16.18 62.18 13.94 62 23.42 73.38 31.5 80.6 27.02"></polygon>
            <polygon id="Path" fill="#EA80FC" points="74.4 34.58 69.08 37.88 77.48 43.84 82.8 40.56"></polygon>
            <polygon id="Path" fill="#EA80FC" points="82.3 29.7 76.18 33.5 84.58 39.46 87.42 37.7"></polygon>
            <polygon id="Path" fill="#696969" points="89.4 25.3 84.08 28.6 89.18 36.6 94.52 33.3"></polygon>
            <polygon id="Path" fill="#696969" points="84.98 18.38 76.5 16.72 82.38 25.94 87.7 22.64"></polygon>
            <polygon id="Path" fill="#696969" points="78.18 7.7 69.7 6.06 74.8 14.06 83.28 15.7"></polygon>
            <polygon id="Path" fill="#696969" points="66.86 5.5 62.36 4.62 62.24 11.6 71.96 13.5"></polygon>
            <polygon id="Path" fill="#696969" points="59.54 4.08 51.04 2.42 51.14 9.46 59.4 11.06"></polygon>
            <polygon id="Path" fill="#696969" points="59.36 13.4 51.18 11.8 51.26 15.8 59.2 21.44"></polygon>
            <polygon id="Path" fill="#696969" points="59.16 23.76 51.32 18.18 51.14 25.14 58.96 30.7"></polygon>
            <polygon id="Path" fill="#EA80FC" points="71.6 32.6 61.96 25.76 61.82 32.74 66.28 35.9"></polygon>
            <polygon id="Path" fill="#00F200" points="37.02 13.94 25.54 16.18 18.62 27.02 25.84 31.5 37.22 23.42"></polygon>
            <polygon id="Path" fill="#00F200" points="30.14 37.88 24.82 34.58 16.42 40.56 21.74 43.84"></polygon>
            <polygon id="Path" fill="#00F200" points="37.26 25.76 27.62 32.6 32.94 35.9 37.4 32.74"></polygon>
            <polygon id="Path" fill="#696969" points="47.9 18.18 40.06 23.76 40.18 30.74 47.78 25.24"></polygon>
            <polygon id="Path" fill="#696969" points="48.02 11.8 39.86 13.4 40 21.44 47.96 15.8"></polygon>
            <polygon id="Path" fill="#696969" points="48.18 2.42 39.68 4.08 39.8 11.06 48.08 9.46"></polygon>
            <polygon id="Path" fill="#696969" points="32.36 5.5 36.84 4.62 36.98 11.6 27.24 13.5"></polygon>
            <polygon id="Path" fill="#696969" points="29.52 6.06 21.04 7.7 15.94 15.7 24.42 14.06"></polygon>
            <polygon id="Path" fill="#696969" points="22.72 16.72 14.24 18.38 11.52 22.64 16.84 25.94"></polygon>
            <polygon id="Path" fill="#696969" points="15.14 28.6 9.82 25.3 4.7 33.3 10.04 36.6"></polygon>
            <polygon id="Path" fill="#00F200" points="23.04 33.5 16.92 29.7 11.8 37.7 14.64 39.46"></polygon>
        </g>
    </g>
</svg>