<?xml version="1.0" encoding="UTF-8"?>
<svg width="100px" height="104px" viewBox="0 0 100 104" version="1.1" xmlns="http://www.w3.org/2000/svg" xmlns:xlink="http://www.w3.org/1999/xlink">
    <title>megaminx_4_6</title>
    <g id="megaminx" stroke="none" stroke-width="1" fill="none" fill-rule="evenodd">
        <g id="megaminx_4_6" transform="translate(0.000000, 0.888889)" fill-rule="nonzero">
            <polygon id="Path" fill="#000000" points="49.0444444 0.133333333 79.2444444 8.42222222 96.4666667 34.5777778 98 65.4888889 78.4888889 90.2444444 49.0222222 101.355556 19.7555556 90.3111111 0.133333333 65.6222222 1.64444444 34.5777778 18.9555556 8.35555556"></polygon>
            <polygon id="Path" fill="#FFF59D" points="49.0444444 38.4 60.0666667 46.4 55.8666667 59.3333333 42.2222222 59.3333333 38.0222222 46.4"></polygon>
            <polygon id="Path" fill="#696969" points="49.0444444 22.6666667 57.1777778 28.5555556 49.0444444 34.4666667 40.9333333 28.5555556"></polygon>
            <polygon id="Path" fill="#FFF59D" points="59.8666667 30.5333333 64.2 33.6666667 61.1111111 43.2222222 51.7555556 36.4222222"></polygon>
            <polygon id="Path" fill="#FFF59D" points="66.9111111 35.6444444 75.0222222 41.5333333 71.9333333 51.0888889 63.8 45.1777778"></polygon>
            <polygon id="Path" fill="#FFF59D" points="62.7777778 48.3777778 70.8888889 54.2666667 69.2444444 59.3333333 59.2222222 59.3333333"></polygon>
            <polygon id="Path" fill="#FFF59D" points="58.1777778 62.5111111 68.2 62.5111111 65.0222222 72.0666667 55.0666667 72.0666667"></polygon>
            <polygon id="Path" fill="#FFF59D" points="43.2666667 62.5111111 54.8444444 62.5111111 51.7333333 72.0666667 46.3777778 72.0666667"></polygon>
            <polygon id="Path" fill="#FFF59D" points="29.8888889 62.5111111 39.9111111 62.5111111 43.0222222 72.0666667 33 72.0666667"></polygon>
            <polygon id="Path" fill="#FFF59D" points="27.2 54.2666667 35.3111111 48.3777778 38.8888889 59.3333333 28.8444444 59.3333333"></polygon>
            <polygon id="Path" fill="#696969" points="23.0666667 41.5333333 31.1777778 35.6444444 34.2888889 45.2 26.1777778 51.0888889"></polygon>
            <polygon id="Path" fill="#696969" points="33.8888889 33.6666667 38.2222222 30.5333333 46.3333333 36.4222222 37 43.2222222"></polygon>
            <polygon id="Path" fill="#4FC3F7" points="61.9777778 13.4444444 73.3111111 16.5555556 79.7777778 26.4 72.4222222 29.4 61.4 21.4"></polygon>
            <polygon id="Path" fill="#4FC3F7" points="73.3111111 32.0888889 81.4444444 38 76.9777778 39.0222222 69.5555556 33.6222222"></polygon>
            <polygon id="Path" fill="#4FC3F7" points="61.2666667 23.3333333 70.6222222 30.1333333 66.8444444 31.6666667 60.9777778 27.4"></polygon>
            <polygon id="Path" fill="#696969" points="50.4444444 15.4666667 58.5555556 21.3777778 58.2666667 25.4444444 50.8222222 20.0222222"></polygon>
            <polygon id="Path" fill="#696969" points="50.8 10.4 59.1777778 12.6888889 58.7111111 19.4222222 50.5777778 13.5333333"></polygon>
            <polygon id="Path" fill="#696969" points="51.3555556 2.6 59.7333333 4.88888889 59.3111111 10.7333333 50.9333333 8.44444444"></polygon>
            <polygon id="Path" fill="#4FC3F7" points="62.5333333 5.64444444 66.9777778 6.86666667 71.7333333 14.1333333 62.1111111 11.5111111"></polygon>
            <polygon id="Path" fill="#4FC3F7" points="78.1555556 9.91111111 82.9111111 17.1777778 74.5111111 14.8888889 69.7555556 7.62222222"></polygon>
            <polygon id="Path" fill="#4FC3F7" points="84.5111111 19.6 87.0444444 23.4666667 81.6 25.6666667 76.1111111 17.3111111"></polygon>
            <polygon id="Path" fill="#4FC3F7" points="88.6666667 25.9555556 93.3777778 33.1555556 87.9333333 35.3555556 83.1777778 28.0888889"></polygon>
            <polygon id="Path" fill="#4FC3F7" points="81.3777778 28.8222222 86.1333333 36.0888889 83.2444444 37.2666667 75.3333333 31.2888889"></polygon>
            <polygon id="Path" fill="#009846" points="87.7777778 50.9777778 88.3333333 62.7555556 80.9777778 71.9111111 75.8444444 65.8222222 80.0444444 52.8888889"></polygon>
            <polygon id="Path" fill="#009846" points="70.9333333 64.4 73.5555556 67.5111111 70.4444444 77.0666667 68.0888889 73.1555556"></polygon>
            <polygon id="Path" fill="#009846" points="74.2 54.3555556 78.1555556 53.3777778 74.6 64.3333333 71.9777778 61.2222222"></polygon>
            <polygon id="Path" fill="#009846" points="78.0888889 42.4222222 82.2888889 40.6444444 79.2 50.1777778 75.2444444 51.1555556"></polygon>
            <polygon id="Path" fill="#009846" points="84.2 40.1777778 87.2222222 39.4222222 87.6444444 48.0888889 81.0888889 49.7111111"></polygon>
            <polygon id="Path" fill="#009846" points="89.1111111 38.9555556 94.8222222 37.5333333 95.2222222 46.2 89.5333333 47.6222222"></polygon>
            <polygon id="Path" fill="#009846" points="95.3777778 49.1111111 95.6 53.7111111 90.1555556 60.4888889 89.6666667 50.5111111"></polygon>
            <polygon id="Path" fill="#009846" points="95.7333333 56.6222222 96.1555556 65.2888889 90.7111111 72.0666667 90.2888889 63.4666667"></polygon>
            <polygon id="Path" fill="#009846" points="88.4888889 65.6444444 88.8888889 74.3111111 86.0222222 77.9111111 82.2444444 73.4222222"></polygon>
            <polygon id="Path" fill="#009846" points="80.4222222 75.6666667 84.2 80.1555556 78.7555556 86.9555556 74.9777778 82.4666667"></polygon>
            <polygon id="Path" fill="#009846" points="74.8222222 69 79.1777778 74.1777778 73.7333333 80.9555556 71.7111111 78.5777778"></polygon>
            <polygon id="Path" fill="#E31E24" points="42.2222222 80.3777778 55.8666667 80.3777778 60.0666667 87.1111111 49.0444444 91.2888889 38.0222222 87.1111111"></polygon>
            <polygon id="Path" fill="#E31E24" points="32.8888889 75.2666667 42.0666667 75.2666667 39.9111111 78.7111111 29.9555556 78.7111111"></polygon>
            <polygon id="Path" fill="#E31E24" points="45.4222222 75.2666667 52.6666667 75.2666667 54.8444444 78.7111111 43.2666667 78.7111111"></polygon>
            <polygon id="Path" fill="#E31E24" points="65.2222222 75.2666667 68.2 78.7111111 58.1777778 78.7111111 56.0222222 75.2666667"></polygon>
            <polygon id="Path" fill="#E31E24" points="69.2444444 80.3777778 70.8888889 83.0222222 62.7777778 86.0888889 59.2222222 80.3777778"></polygon>
            <polygon id="Path" fill="#E31E24" points="71.9333333 84.6888889 75.0222222 89.6666667 66.9111111 92.7333333 63.8 87.7555556"></polygon>
            <polygon id="Path" fill="#E31E24" points="61.1111111 88.7777778 64.2 93.7555556 59.8666667 95.4 51.7555556 92.3111111"></polygon>
            <polygon id="Path" fill="#E31E24" points="49.0444444 93.3333333 57.1777778 96.4222222 49.0444444 99.4888889 40.9333333 96.4222222"></polygon>
            <polygon id="Path" fill="#E31E24" points="37 88.7777778 46.3333333 92.3111111 38.2222222 95.4 33.8888889 93.7555556"></polygon>
            <polygon id="Path" fill="#E31E24" points="26.1777778 84.6666667 34.2888889 87.7555556 31.1777778 92.7333333 23.0666667 89.6444444"></polygon>
            <polygon id="Path" fill="#E31E24" points="28.8444444 80.3777778 38.8888889 80.3777778 35.3111111 86.0888889 27.2 83.0222222"></polygon>
            <polygon id="Path" fill="#EA80FC" points="18.0444444 52.8888889 22.2444444 65.8222222 17.1111111 71.9111111 9.75555556 62.7555556 10.3111111 50.9777778"></polygon>
            <polygon id="Path" fill="#696969" points="20.0222222 42.4222222 22.8666667 51.1777778 18.9111111 50.1777778 15.8 40.6444444"></polygon>
            <polygon id="Path" fill="#EA80FC" points="23.8888889 54.3555556 26.1333333 61.2 23.5111111 64.3333333 19.9333333 53.3777778"></polygon>
            <polygon id="Path" fill="#EA80FC" points="27.1555556 64.4 30 73.1555556 27.6444444 77.0666667 24.5333333 67.5111111"></polygon>
            <polygon id="Path" fill="#EA80FC" points="23.2666667 69 26.3777778 78.5777778 24.3777778 80.9555556 18.9333333 74.1777778"></polygon>
            <polygon id="Path" fill="#EA80FC" points="17.6666667 75.6666667 23.1111111 82.4666667 19.3333333 86.9333333 13.8888889 80.1555556"></polygon>
            <polygon id="Path" fill="#EA80FC" points="9.62222222 65.6444444 15.8666667 73.4222222 12.0888889 77.9111111 9.2 74.3111111"></polygon>
            <polygon id="Path" fill="#EA80FC" points="2.37777778 56.6222222 7.8 63.3777778 7.4 72.0444444 1.95555556 65.2888889"></polygon>
            <polygon id="Path" fill="#EA80FC" points="2.73333333 49.0888889 8.42222222 50.5111111 7.93333333 60.4888889 2.51111111 53.7111111"></polygon>
            <polygon id="Path" fill="#696969" points="3.28888889 37.5333333 8.97777778 38.9555556 8.55555556 47.6222222 2.86666667 46.2"></polygon>
            <polygon id="Path" fill="#696969" points="10.8666667 39.4222222 13.9111111 40.1777778 17 49.7111111 10.4666667 48.0888889"></polygon>
            <polygon id="Path" fill="#BDBDBD" points="36.1333333 13.4444444 36.6888889 21.4 25.6666667 29.4 18.3111111 26.4 24.7777778 16.5555556"></polygon>
            <polygon id="Path" fill="#696969" points="47.6 15.5111111 47.2666667 20.0222222 39.8222222 25.4444444 39.5333333 21.3777778"></polygon>
            <polygon id="Path" fill="#BDBDBD" points="36.8222222 23.3333333 37.1111111 27.4 31.2666667 31.6666667 27.4888889 30.1333333"></polygon>
            <polygon id="Path" fill="#696969" points="24.7777778 32.0888889 28.5555556 33.6222222 21.1111111 39.0222222 16.6666667 38"></polygon>
            <polygon id="Path" fill="#BDBDBD" points="16.7333333 28.8444444 22.9555556 31.3555556 14.8444444 37.2666667 11.9777778 36.0888889"></polygon>
            <polygon id="Path" fill="#696969" points="9.46666667 25.8888889 14.9111111 28.0888889 10.1555556 35.3555556 4.71111111 33.1555556"></polygon>
            <polygon id="Path" fill="#BDBDBD" points="13.6 19.6 22 17.3111111 16.5111111 25.6666667 11.0666667 23.4666667"></polygon>
            <polygon id="Path" fill="#696969" points="19.9333333 9.91111111 28.3333333 7.62222222 23.5777778 14.8888889 15.1777778 17.1777778"></polygon>
            <polygon id="Path" fill="#BDBDBD" points="31.1333333 6.86666667 35.5777778 5.66666667 35.9777778 11.5111111 26.3777778 14.1333333"></polygon>
            <polygon id="Path" fill="#696969" points="46.7333333 2.62222222 47.1555556 8.46666667 38.7777778 10.7333333 38.3555556 4.88888889"></polygon>
            <polygon id="Path" fill="#BDBDBD" points="38.9111111 12.6888889 47.2888889 10.4 47.5111111 13.5333333 39.4 19.4222222"></polygon>
        </g>
    </g>
</svg>