<?xml version="1.0" encoding="UTF-8"?>
<svg width="100px" height="94px" viewBox="0 0 100 94" version="1.1" xmlns="http://www.w3.org/2000/svg" xmlns:xlink="http://www.w3.org/1999/xlink">
    <title>megaminx_2_4</title>
    <g id="megaminx" stroke="none" stroke-width="1" fill="none" fill-rule="evenodd">
        <g id="megaminx_2_4" fill-rule="nonzero">
            <path d="M48.56,0.08 L19.5,5.68 C18.94,5.78 18.62,5.94 18.38,6.3 L0.58,33.14 C0.2,33.68 -0.04,34.4 4.88498131e-15,34.92 L1.76,57.8 C1.78,58.14 2.12,59.5 2.52,60.14 L19.34,86.46 C19.68,87 20.3,87.46 20.9,87.58 L48.32,92.92 C48.8,93 50.4,93 50.9,92.92 L78.32,87.58 C78.92,87.46 79.54,87 79.88,86.46 L96.7,60.14 C97.1,59.5 97.44,58.14 97.46,57.8 L99.22,34.92 C99.26,34.4 99.02,33.68 98.64,33.14 L80.84,6.3 C80.5,5.8 80.22,5.78 79.58,5.66 L50.54,0.08 C49.98,-0.02 49.18,-0.04 48.56,0.08 L48.56,0.08 Z" id="Path" fill="#000000"></path>
            <polygon id="Path" fill="#BDBDBD" points="49.54 5.32 61.02 7.52 56.62 11.08 42.44 11.08 38.04 7.52"></polygon>
            <polygon id="Path" fill="#696969" points="22.44 6.18 30.9 4.56 34.14 7.18 25.66 8.82"></polygon>
            <polygon id="Path" fill="#696969" points="33.74 4.02 38.24 3.14 46.72 4.78 36.96 6.64"></polygon>
            <polygon id="Path" fill="#696969" points="41.08 2.6 49.54 0.98 58.02 2.6 49.54 4.24"></polygon>
            <polygon id="Path" fill="#696969" points="52.38 4.78 60.84 3.14 65.34 4 62.1 6.64"></polygon>
            <polygon id="Path" fill="#696969" points="68.16 4.56 76.66 6.18 73.42 8.8 64.92 7.18"></polygon>
            <polygon id="Path" fill="#696969" points="63.84 8.06 72.34 9.68 70.62 11.08 60.12 11.08"></polygon>
            <polygon id="Path" fill="#696969" points="59.04 11.96 69.54 11.96 66.88 13.76 56.88 13.72"></polygon>
            <polygon id="Path" fill="#696969" points="43.52 11.96 55.54 11.96 53.4 13.72 45.68 13.72"></polygon>
            <polygon id="Path" fill="#696969" points="29.56 11.96 40.02 11.96 42.18 13.72 32.36 13.78"></polygon>
            <polygon id="Path" fill="#696969" points="26.74 9.68 35.22 8.06 38.94 11.08 28.48 11.08"></polygon>
            <polygon id="Path" fill="#00F200" points="16.6 22.4 21.7 25.6 17.8 38.22 10.28 42.82 9.54 33.06"></polygon>
            <polygon id="Path" fill="#696969" points="18.5 8.78 22.28 11.16 17.08 19 13.3 16.62"></polygon>
            <polygon id="Path" fill="#696969" points="23.54 11.94 25.54 13.2 22.66 22.5 18.34 19.78"></polygon>
            <polygon id="Path" fill="#696969" points="26.78 13.98 30.56 16.34 27.68 25.64 23.92 23.28"></polygon>
            <polygon id="Path" fill="#696969" points="22.96 26.38 26.72 28.74 25.2 33.7 19.64 37.08"></polygon>
            <polygon id="Path" fill="#696969" points="18.7 40.18 24.18 36.84 21.22 45.88 15.98 48.98"></polygon>
            <polygon id="Path" fill="#696969" points="10.46 45.22 16.84 41.32 14.12 50.12 10.98 52.06"></polygon>
            <polygon id="Path" fill="#696969" points="3.08 49.74 8.62 46.34 9.14 53.22 3.6 56.64"></polygon>
            <polygon id="Path" fill="#696969" points="2.6 43.52 7.8 35.68 8.44 43.94 2.9 47.34"></polygon>
            <polygon id="Path" fill="#696969" points="1.86 33.88 7.06 26.04 7.62 33.26 2.42 41.1"></polygon>
            <polygon id="Path" fill="#696969" points="8.8 23.44 11.56 19.24 15.34 21.62 9.34 30.66"></polygon>
            <polygon id="Path" fill="#EA80FC" points="42.96 29.2 56.2 29.2 60.3 41.84 49.6 49.62 38.86 41.82"></polygon>
            <polygon id="Path" fill="#696969" points="33.94 16.8 43.74 16.8 40.72 26.1 30.92 26.1"></polygon>
            <polygon id="Path" fill="#696969" points="46.98 16.8 52.18 16.8 55.2 26.1 43.96 26.1"></polygon>
            <polygon id="Path" fill="#696969" points="55.44 16.8 65.24 16.8 68.26 26.1 58.46 26.1"></polygon>
            <polygon id="Path" fill="#FFFFFF" points="59.46 29.2 69.26 29.2 70.88 34.16 62.94 39.92"></polygon>
            <polygon id="Path" fill="#FFFFFF" points="63.96 43.02 71.88 37.26 74.9 46.56 66.98 52.32"></polygon>
            <polygon id="Path" fill="#EA80FC" points="52.24 51.54 61.32 44.94 64.34 54.24 60.14 57.28"></polygon>
            <polygon id="Path" fill="#696969" points="41.68 59.2 49.6 53.46 57.5 59.2 49.6 64.96"></polygon>
            <polygon id="Path" fill="#696969" points="37.86 44.92 46.96 51.54 39.04 57.3 34.84 54.22"></polygon>
            <polygon id="Path" fill="#696969" points="27.3 37.26 35.22 43.02 32.2 52.32 24.28 46.56"></polygon>
            <polygon id="Path" fill="#696969" points="29.92 29.2 39.7 29.2 36.22 39.92 28.32 34.16"></polygon>
            <polygon id="Path" fill="#FFF59D" points="82.62 22.4 89.68 33.06 88.94 42.82 81.42 38.22 77.52 25.6"></polygon>
            <polygon id="Path" fill="#696969" points="76.94 11.16 80.72 8.78 85.92 16.62 82.14 19"></polygon>
            <polygon id="Path" fill="#696969" points="83.88 21.62 87.66 19.24 90.42 23.44 89.88 30.66"></polygon>
            <polygon id="Path" fill="#696969" points="92.16 26.04 97.36 33.88 96.8 41.1 91.6 33.26"></polygon>
            <polygon id="Path" fill="#696969" points="91.42 35.68 96.62 43.52 96.32 47.34 90.78 43.94"></polygon>
            <polygon id="Path" fill="#696969" points="90.6 46.34 96.14 49.74 95.62 56.64 90.08 53.22"></polygon>
            <polygon id="Path" fill="#696969" points="82.38 41.32 88.76 45.22 88.22 52.06 85.1 50.12"></polygon>
            <polygon id="Path" fill="#FFFFFF" points="74.98 36.8 80.52 40.18 83.24 48.98 78.04 46.22"></polygon>
            <polygon id="Path" fill="#FFFFFF" points="72.5 28.74 76.26 26.38 79.56 37.08 74.02 33.7"></polygon>
            <polygon id="Path" fill="#696969" points="68.66 16.34 72.42 13.98 75.3 23.28 71.54 25.64"></polygon>
            <polygon id="Path" fill="#696969" points="73.68 13.2 75.68 11.94 80.88 19.78 76.56 22.5"></polygon>
            <polygon id="Path" fill="#E31E24" points="73.38 61.48 80.6 65.96 73.68 76.8 62.18 79.04 62 69.56"></polygon>
            <polygon id="Path" fill="#FFFFFF" points="77.48 49.14 82.8 52.42 74.4 58.4 69.08 55.1"></polygon>
            <polygon id="Path" fill="#696969" points="84.58 53.52 87.42 55.28 82.3 63.28 76.18 59.48"></polygon>
            <polygon id="Path" fill="#696969" points="89.18 56.38 94.52 59.68 89.4 67.68 84.08 64.38"></polygon>
            <polygon id="Path" fill="#E31E24" points="82.38 67.04 87.7 70.34 84.98 74.6 76.5 76.26"></polygon>
            <polygon id="Path" fill="#E31E24" points="74.8 78.92 83.28 77.28 78.18 85.28 69.7 86.92"></polygon>
            <polygon id="Path" fill="#E31E24" points="62.24 81.38 71.96 79.48 66.86 87.48 62.36 88.36"></polygon>
            <polygon id="Path" fill="#E31E24" points="51.14 83.52 59.4 81.92 59.54 88.9 51.04 90.56"></polygon>
            <polygon id="Path" fill="#E31E24" points="51.26 77.18 59.2 71.54 59.36 79.58 51.18 81.18"></polygon>
            <polygon id="Path" fill="#696969" points="51.14 67.84 58.96 62.28 59.16 69.22 51.32 74.8"></polygon>
            <polygon id="Path" fill="#0062AC" points="61.82 60.24 66.28 57.08 71.6 60.38 61.96 67.22"></polygon>
            <polygon id="Path" fill="#0062AC" points="25.84 61.48 37.22 69.56 37.02 79.04 25.54 76.8 18.62 65.96"></polygon>
            <polygon id="Path" fill="#696969" points="16.42 52.42 21.74 49.14 30.14 55.1 24.82 58.4"></polygon>
            <polygon id="Path" fill="#696969" points="32.94 57.08 37.4 60.24 37.26 67.22 27.62 60.38"></polygon>
            <polygon id="Path" fill="#696969" points="40.18 62.24 47.78 67.74 47.9 74.8 40.06 69.22"></polygon>
            <polygon id="Path" fill="#0062AC" points="40 71.54 47.96 77.18 48.02 81.18 39.86 79.58"></polygon>
            <polygon id="Path" fill="#0062AC" points="39.8 81.92 48.08 83.52 48.18 90.56 39.68 88.9"></polygon>
            <polygon id="Path" fill="#0062AC" points="36.98 81.38 27.24 79.48 32.36 87.48 36.84 88.36"></polygon>
            <polygon id="Path" fill="#0062AC" points="15.94 77.28 24.42 78.92 29.52 86.92 21.04 85.28"></polygon>
            <polygon id="Path" fill="#0062AC" points="11.52 70.34 16.84 67.04 22.72 76.26 14.24 74.6"></polygon>
            <polygon id="Path" fill="#696969" points="4.7 59.68 10.04 56.38 15.14 64.38 9.82 67.68"></polygon>
            <polygon id="Path" fill="#696969" points="11.8 55.28 14.64 53.52 23.04 59.48 16.92 63.28"></polygon>
        </g>
    </g>
</svg>