<?xml version="1.0" encoding="UTF-8"?>
<svg width="100px" height="100px" viewBox="0 0 100 100" version="1.1" xmlns="http://www.w3.org/2000/svg" xmlns:xlink="http://www.w3.org/1999/xlink">
    <title>cub_3x3x2_5_4</title>
    <g id="Cub_3x3x2" stroke="none" stroke-width="1" fill="none" fill-rule="evenodd">
        <g id="cub_3x3x2_5_4" fill-rule="nonzero">
            <polygon id="Path" fill="#000000" points="0 0 100 0 100 100 0 100"></polygon>
            <polygon id="Path" fill="#F8E71C" points="64 64 86 64 86 86 64 86"></polygon>
            <polygon id="Path" fill="#F8E71C" points="39 64 61 64 61 86 39 86"></polygon>
            <polygon id="Path" fill="#F8E71C" points="14 64 36 64 36 86 14 86"></polygon>
            <polygon id="Path" fill="#F8E71C" points="64 39 86 39 86 61 64 61"></polygon>
            <polygon id="Path" fill="#F8E71C" points="39 39 61 39 61 61 39 61"></polygon>
            <polygon id="Path" fill="#F8E71C" points="14 39 36 39 36 61 14 61"></polygon>
            <polygon id="Path" fill="#F8E71C" points="64 14 86 14 86 36 64 36"></polygon>
            <polygon id="Path" fill="#F8E71C" points="39 14 61 14 61 36 39 36"></polygon>
            <polygon id="Path" fill="#F8E71C" points="14 14 36 14 36 36 14 36"></polygon>
            <polygon id="Path" fill="#E31E24" points="64 91 86 91 86 95 64 95"></polygon>
            <polygon id="Path" fill="#EF7F1A" points="39 91 61 91 61 95 39 95"></polygon>
            <polygon id="Path" fill="#E31E24" points="14 91 36 91 36 95 14 95"></polygon>
            <polygon id="Path" fill="#009846" points="95 64 95 86 91 86 91 64"></polygon>
            <polygon id="Path" fill="#009846" points="95 39 95 61 91 61 91 39"></polygon>
            <polygon id="Path" fill="#009846" points="95 14 95 36 91 36 91 14"></polygon>
            <polygon id="Path" fill="#0062AC" points="9 64 9 86 5 86 5 64"></polygon>
            <polygon id="Path" fill="#0062AC" points="9 39 9 61 5 61 5 39"></polygon>
            <polygon id="Path" fill="#0062AC" points="9 14 9 36 5 36 5 14"></polygon>
            <polygon id="Path" fill="#EF7F1A" points="64 5 86 5 86 9 64 9"></polygon>
            <polygon id="Path" fill="#E31E24" points="39 5 61 5 61 9 39 9"></polygon>
            <polygon id="Path" fill="#EF7F1A" points="14 5 36 5 36 9 14 9"></polygon>
            <path d="M48.75,24.82 L43.87,33.49 C43.6,33.97 42.99,34.14 42.51,33.87 C42.03,33.6 41.86,32.99 42.13,32.51 L48.88,20.51 C49.26,19.83 50.24,19.83 50.62,20.51 L57.37,32.51 C57.64,32.99 57.47,33.61 56.99,33.87 C56.51,34.14 55.89,33.97 55.63,33.49 L50.75,24.82 L50.75,76.1 L55.63,67.43 C55.9,66.95 56.51,66.78 56.99,67.05 C57.47,67.32 57.64,67.93 57.37,68.41 L50.62,80.41 C50.24,81.09 49.26,81.09 48.88,80.41 L42.13,68.41 C41.86,67.93 42.03,67.31 42.51,67.05 C42.99,66.78 43.61,66.95 43.87,67.43 L48.75,76.1 L48.75,24.82 Z" id="Path" fill="#0062AC"></path>
        </g>
    </g>
</svg>