<?xml version="1.0" encoding="UTF-8"?>
<svg width="78px" height="100px" viewBox="0 0 78 100" version="1.1" xmlns="http://www.w3.org/2000/svg" xmlns:xlink="http://www.w3.org/1999/xlink">
    <title>cub_3x3x2_2_2</title>
    <g id="Cub_3x3x2" stroke="none" stroke-width="1" fill="none" fill-rule="evenodd">
        <g id="cub_3x3x2_2_2" fill-rule="nonzero">
            <path d="M2.9,4.09 L36.82,0.18 C38.4,-0.22 39.83,0.03 41.05,1.18 L74.72,21.23 C77.09,22.23 78.16,24.27 77.64,27.57 L67.86,83.27 C67.63,85.54 66.93,87.47 64.3,88.03 L29.28,99.38 C26.44,100.41 24.2,100.15 23.02,97.66 L4.7,61.62 C3.58,59.48 2.93,57.12 2.92,54.09 L0.06,8.47 C-0.3,5.13 1.07,4.27 2.91,4.09 L2.9,4.09 Z" id="Path" fill="#000000"></path>
            <path d="M19.1,21.22 L36.98,18.43 C38.61,18.13 40.05,18.32 41.28,19.13 L50.52,26.47 L28.33,30.56 L19.11,21.22 L19.1,21.22 Z" id="Path" fill="#696969"></path>
            <path d="M62.05,14.56 L74.83,22.33 L54.92,25.91 L45.12,18.58 C44.08,17.62 45.09,17.38 46.22,17.2 L62.05,14.56 L62.05,14.56 Z" id="Path" fill="#696969"></path>
            <path d="M49.13,6.8 L59.03,12.67 L44.06,15.1 C42.43,15.47 41.04,15.44 39.99,14.83 L34.15,10.61 C33.4,9.99 32.71,9.38 35,9 L49.14,6.8 L49.13,6.8 Z" id="Path" fill="#0062AC"></path>
            <path d="M10.08,12.1 L16.9,19 L34.23,16.6 C36.36,16.27 36.23,15.72 35.47,15.1 L30.03,10.84 C28.88,10.07 27.58,9.98 26.1,10.15 L10.08,12.1 Z" id="Path" fill="#696969"></path>
            <path d="M2.7,4.74 L8.23,10.29 L23.51,8.38 C25.73,7.98 25.51,7.41 24.79,6.8 L19.41,2.8 L2.7,4.73 L2.7,4.74 Z" id="Path" fill="#696969"></path>
            <path d="M23.31,2.33 L28.08,6.17 C29.09,6.99 30.42,7.42 32.29,7.12 L46.66,5.2 L38.88,0.44 L23.31,2.32 L23.31,2.33 Z" id="Path" fill="#696969"></path>
            <path d="M25.08,33.3 L16.48,23.7 L16.61,41.4 C16.61,42.83 16.83,44.13 17.61,45.11 L25.08,55.56 L25.08,33.3 Z" id="Path" fill="#696969"></path>
            <path d="M7.4,14.32 L14.03,21.62 L14.36,39.33 C14.4,40.89 14.11,41.51 12.94,39.63 L9.14,34.29 C8.24,33.34 8.17,32.2 7.99,31.09 L7.39,14.32 L7.4,14.32 Z" id="Path" fill="#FFED00"></path>
            <path d="M0.3,6.98 L5.58,12.46 L6.49,28.93 C6.49,29.73 6.38,30.28 5.59,29.25 L1.35,23.69 L0.29,7 L0.3,6.98 Z" id="Path" fill="#696969"></path>
            <path d="M17.42,49.03 L24.77,59.13 L24.51,78.45 L17.6,66.9 C16.96,65.84 16.54,64.8 16.48,63.6 L16.48,50.9 C16.43,48.3 16.91,48.56 17.42,49.02 L17.42,49.03 Z" id="Path" fill="#FFED00"></path>
            <path d="M8.27,39.2 C8.3,37.29 8.71,36.98 9.4,37.81 L13.43,42.97 C14.36,43.89 14.77,45.4 14.7,47.47 L14.7,59.67 C14.59,61.14 14.2,61.42 13.43,60.11 L9.77,53.98 C9.19,53.16 8.77,52.11 8.67,50.55 L8.27,39.2 L8.27,39.2 Z" id="Path" fill="#FFFFFF"></path>
            <path d="M1.57,27.22 L5.64,32.54 C6.11,33.31 6.49,34.53 6.49,36.95 L7.02,47.71 C7.02,48.58 7.07,49.85 6.1,48.07 L2.53,42.07 L1.57,27.22 Z" id="Path" fill="#FFED00"></path>
            <path d="M24.14,81.71 L17.9,70.77 C17.9,70.77 16.87,69.08 16.85,71.65 L16.85,83.82 L23.7,97.9 L24.14,81.71 L24.14,81.71 Z" id="Path" fill="#696969"></path>
            <path d="M8.83,57.76 L9,68.98 L14.92,80.34 L14.92,68.17 C15.07,65.4 14.46,65.12 14.05,64.18 L10.21,58.35 C9.46,57.14 8.83,56.69 8.83,57.75 L8.83,57.76 Z" id="Path" fill="#FFED00"></path>
            <path d="M3.6,58.22 L7.59,66.28 L7.59,56.26 C7.56,54.95 7.27,53.36 6.52,52.41 L2.79,46.24 L3.6,57.91" id="Path" fill="#696969"></path>
            <path d="M29.19,34.57 L28.58,55.56 L46.24,51.48 C48.65,50.9 49.9,49.35 50.04,46.88 L51.4,30.56 L29.19,34.56 L29.19,34.57 Z" id="Path" fill="#696969"></path>
            <path d="M55.92,30.11 L54.22,45.37 C54.24,47.41 55.12,49.62 57.87,49.19 L73.08,45.68 L76.4,26.24 L55.92,30.11 Z" id="Path" fill="#696969"></path>
            <path d="M28.24,59.65 L27.32,78.84 L43.92,74.02 C46.67,73.42 48.06,71.37 48.27,68.75 L49.21,59.65 C49.38,56.53 47.87,55.01 45.59,55.73 L28.24,59.65 L28.24,59.65 Z" id="Path" fill="#696969"></path>
            <path d="M52.91,58.86 L52.09,66.96 C51.55,70.3 52.6,71.81 55.42,71.29 L69.7,67.36 L72.57,49.52 L56.98,53.04 C54.85,53.69 53.2,55.35 52.91,58.86 L52.91,58.86 Z" id="Path" fill="#696969"></path>
            <path d="M27.32,82.77 L26.37,99.1 L45.55,93 L46.71,81.25 C47.03,77.44 43.9,78.32 43.9,78.32 L27.32,82.77 L27.32,82.77 Z" id="Path" fill="#696969"></path>
            <path d="M50.72,80.31 L49.55,91.81 L66.09,86.46 L69.14,70.7 L55.3,74.64 C52.99,75.24 51.07,76.56 50.72,80.31 Z" id="Path" fill="#696969"></path>
        </g>
    </g>
</svg>