<?xml version="1.0" encoding="UTF-8"?>
<svg width="209px" height="100px" viewBox="0 0 209 100" version="1.1" xmlns="http://www.w3.org/2000/svg" xmlns:xlink="http://www.w3.org/1999/xlink">
    <title>cub_3x3x2_3_1</title>
    <g id="Cub_3x3x2" stroke="none" stroke-width="1" fill="none" fill-rule="evenodd">
        <g id="cub_3x3x2_3_1" fill-rule="nonzero">
            <path d="M154.7,4.3 L205.5,16.7 C205.5,16.7 209.12,17.29 208.82,20.78 L205.76,49.58 C205.76,49.58 205.76,52.18 204.86,53.22 L180.42,93.27 C179.15,95.51 177.39,96.47 174.83,95.21 L120.23,73.32 C118.29,72.74 116.8,71.32 116.13,68.32 L109.25,37.68 C108.52,34.68 109.42,32.93 111.56,31.58 L150.17,4.98 C151.62,3.84 153.15,3.82 154.71,4.29 L154.7,4.3 Z" id="Path" fill="#000000"></path>
            <path d="M168.84,36.4 C169.44,36.25 170.44,36.4 170.44,36.4 L187.68,41.2 L178.21,52.92 L157.93,46.85 L167.69,37.12 C167.69,37.12 168.25,36.56 168.84,36.41 L168.84,36.4 Z" id="Path" fill="#FFFFFF"></path>
            <path d="M172.5,32.35 C172.4,31.97 172.98,31.52 172.98,31.52 L179.4,24.84 C179.4,24.84 179.9,24.44 180.45,24.33 C180.99,24.21 181.72,24.33 181.72,24.33 L197.49,28.46 L190.16,37.86 L173.29,32.82 C173.29,32.82 172.59,32.73 172.49,32.35 L172.5,32.35 Z" id="Path" fill="#696969"></path>
            <path d="M190.12,13.9 L206.4,17.6 L199.56,25.78 L184.14,21.93 C184.14,21.93 183.5,21.87 183.41,21.41 C183.32,20.95 183.86,20.48 183.86,20.48 L190.11,13.89 L190.12,13.9 Z" id="Path" fill="#696969"></path>
            <path d="M170.74,8.9 L186.34,12.78 L179.82,18.79 C179.82,18.79 179.19,19.34 178.7,19.47 C178.21,19.6 177.77,19.59 177.31,19.47 C172.95,18.3 164.18,16.1 164.18,16.1 C162.94,15.74 163.47,15.08 163.86,14.63 L170.74,8.9 L170.74,8.9 Z" id="Path" fill="#696969"></path>
            <path d="M159.54,19 C160.24,18.86 160.59,18.86 161.17,19 L173.9,22.2 C175.1,22.44 175.25,22.97 174.42,23.79 L167.83,30 C167.07,30.9 166.12,31.03 165.03,30.63 L151.46,27.15 C150.88,27 150.63,26.9 150.59,26.39 C150.56,25.89 151.34,25.34 151.34,25.34 L158.18,19.61 C158.18,19.61 158.84,19.14 159.54,18.99 L159.54,19 Z" id="Path" fill="#FFED00"></path>
            <path d="M146.62,30.4 C147.48,30.2 148.37,30.4 148.37,30.4 L161.41,33.96 C161.41,33.96 162.25,34.19 162.41,34.74 C162.57,35.3 161.96,35.91 161.96,35.91 L152.46,45.19 L134.71,39.71 L145.09,31.15 C145.09,31.15 145.77,30.59 146.62,30.39 L146.62,30.4 Z" id="Path" fill="#696969"></path>
            <path d="M112.34,32.24 L125.31,23.24 L139.01,27.47 C140.19,27.8 140.41,29.04 139.78,29.55 L129.06,37.75 L112.34,32.25 L112.34,32.24 Z" id="Path" fill="#696969"></path>
            <path d="M128.33,21.12 L139.91,13.18 L152.86,16.75 C153.73,17.01 154.22,17.72 153.16,18.42 L145.79,24.19 C144.68,24.87 143.74,25.27 142.49,24.86 L128.33,21.12 L128.33,21.12 Z" id="Path" fill="#696969"></path>
            <path d="M152.53,4.6 L143.09,11.18 L155.77,14.19 C157.7,14.82 158.91,14.12 159.63,13.6 L166.9,8.08 L152.53,4.61 L152.53,4.6 Z" id="Path" fill="#696969"></path>
            <path d="M181.17,56.9 L189.94,44.85 L189.07,58.85 C189.07,60.19 188.72,61.15 187.9,62.22 L180.5,74.08 L181.17,56.91 L181.17,56.9 Z" id="Path" fill="#0062AC"></path>
            <path d="M192.51,41.47 L199.89,31.57 L198.45,44.71 C198.34,45.84 198,47.33 197.3,48.33 L192.83,54.99 C192.1,55.93 191.76,55.33 191.73,54.39 L192.51,41.47 L192.51,41.47 Z" id="Path" fill="#696969"></path>
            <path d="M202.03,28.52 L208.27,20.44 L206.8,34.98 L202.01,42.11 C201.23,43.02 200.86,42.85 200.91,41.55 L202.03,28.52 L202.03,28.52 Z" id="Path" fill="#696969"></path>
            <path d="M179.76,92.65 L180.08,78.48 L187.68,66.68 C188.42,65.46 188.72,66.13 188.72,68.13 L188.03,79.28 L179.76,92.65 L179.76,92.65 Z" id="Path" fill="#696969"></path>
            <path d="M191.48,61.97 C191.82,60.74 192.45,59.61 192.45,59.61 L196.67,53.11 C197.6,51.25 198.04,51.28 197.84,53.81 L197.38,64.19 L190.76,75.06 L191.15,64.4 C191.15,64.4 191.15,63.2 191.48,61.97 L191.48,61.97 Z" id="Path" fill="#E31E24"></path>
            <path d="M201.63,46.1 L206.33,38.78 L205.05,51.8 L199.62,60.76 L200.24,50.45 C200.28,48.7 200.74,47.25 201.64,46.1 L201.63,46.1 Z" id="Path" fill="#696969"></path>
            <path d="M176.63,58.04 L156.63,51.39 L157.44,65.15 C157.54,66.28 158.01,68.13 160.1,68.94 L176.63,74.69 L176.63,58.04 Z" id="Path" fill="#E31E24"></path>
            <path d="M132.3,43.37 L151.2,49.57 L152.2,63.65 C152.29,65.1 151.81,65.9 150.08,65.29 L137.1,60.83 C135.48,60.12 134.73,58.42 134.44,57.28 L132.31,43.38 L132.3,43.37 Z" id="Path" fill="#696969"></path>
            <path d="M110.48,36.45 L127.65,42.11 L129.91,56.07 C130.07,57.7 128.96,58.03 127.65,57.52 L113.99,52.72 L110.48,36.45 Z" id="Path" fill="#696969"></path>
            <path d="M176.63,78.86 L176.63,94.46 L158.34,87.29 L157.71,74.91 C157.44,72.82 158.21,72.31 159.79,73.05 L176.63,78.86 L176.63,78.86 Z" id="Path" fill="#696969"></path>
            <path d="M137.2,79.11 L153.7,85.51 L153.03,73.07 C152.93,71.29 152.13,70.14 150.54,69.72 L138.04,65.23 C135.76,64.46 135.42,64.78 135.76,67.26 L137.2,79.11 L137.2,79.11 Z" id="Path" fill="#0062AC"></path>
            <path d="M114.67,56.73 L117.92,71.25 L132.75,77.18 L130.84,65.28 C130.69,63.24 129.56,62.2 127.92,61.68 L114.67,56.73 L114.67,56.73 Z" id="Path" fill="#696969"></path>
            <polygon id="Path" fill="#000000" points="0.09 19.28 9.19 80.88 63.83 99.92 97.75 67.42 97.75 7.5 42.65 0.14 0.08 19.28"></polygon>
            <polygon id="Path" fill="#0062AC" points="61.03 32.18 73.35 24.3 74.04 45 61.96 54.18 61.03 32.18"></polygon>
            <polygon id="Path" fill="#696969" points="74.94 23.14 86.14 16.14 86.14 36.08 75.66 43.66"></polygon>
            <polygon id="Path" fill="#696969" points="87.69 15.25 96.92 9.35 96.92 28.2 87.69 35.34"></polygon>
            <polygon id="Path" fill="#696969" points="62.38 56.8 74.16 47.87 74.79 66.61 63.5 76.51 62.38 56.81"></polygon>
            <polygon id="Path" fill="#E31E24" points="75.93 46.33 86.26 38.45 86.57 56.95 76.37 65.57"></polygon>
            <polygon id="Path" fill="#696969" points="88.02 37.4 96.86 30.55 96.86 48.14 88.06 55.77 88.02 37.39"></polygon>
            <polygon id="Path" fill="#696969" points="63.65 79.2 75.05 69.3 75.59 87.3 64.47 97.78 63.65 79.19"></polygon>
            <polygon id="Path" fill="#E31E24" points="76.6 67.85 86.72 59.31 86.72 76.68 76.92 85.99 76.6 67.85"></polygon>
            <polygon id="Path" fill="#696969" points="88.2 58.15 96.92 50.49 97 66.96 88.2 75.36"></polygon>
            <polygon id="Path" fill="#E31E24" points="39.55 28.62 58.74 32.72 59.76 54.45 41.19 49.75"></polygon>
            <polygon id="Path" fill="#696969" points="19.28 24.53 36.81 28.19 38.93 49.2 21.68 44.83"></polygon>
            <polygon id="Path" fill="#696969" points="1.26 20.93 17.1 24.14 19.4 44.16 4.11 40.48 1.26 20.93"></polygon>
            <polygon id="Path" fill="#696969" points="41.66 52.4 60.12 57.22 61.1 77.17 43 71.73 41.67 52.4"></polygon>
            <polygon id="Path" fill="#0062AC" points="22.14 47.39 39.2 51.6 40.81 71.02 24.41 66.05 22.13 47.39"></polygon>
            <polygon id="Path" fill="#696969" points="4.27 42.5 19.87 46.85 22.15 65.42 7 60.86 4.27 42.51"></polygon>
            <polygon id="Path" fill="#696969" points="43.44 74.08 61.32 79.73 62.48 98.39 44.93 92.17 43.44 74.08"></polygon>
            <polygon id="Path" fill="#0062AC" points="24.53 68.27 41.07 73.57 42.7 91.56 26.67 85.98 24.53 68.28"></polygon>
            <polygon id="Path" fill="#696969" points="7.36 63.07 22.45 67.79 24.46 85.13 9.86 80.08 7.36 63.07"></polygon>
            <polygon id="Path" fill="#FFFFFF" points="53.1 19.43 71.72 22.7 59.36 30.58 39.89 26.72 53.11 19.42"></polygon>
            <polygon id="Path" fill="#696969" points="66.32 11.92 84.4 14.77 73.43 21.69 54.81 18.39 66.31 11.92"></polygon>
            <polygon id="Path" fill="#696969" points="78.21 5.51 95.69 7.94 86.02 13.91 68.28 11.16 78.21 5.51"></polygon>
            <polygon id="Path" fill="#696969" points="59.65 2.98 75.66 5.2 65.54 10.9 48.75 8.3 59.65 3"></polygon>
            <polygon id="Path" fill="#F8E71C" points="47.34 9.07 63.94 11.67 52.35 18 35.35 15.03 47.35 9.07"></polygon>
            <polygon id="Path" fill="#696969" points="33.53 15.85 50.83 18.85 37.47 26.23 19.88 22.71"></polygon>
            <polygon id="Path" fill="#696969" points="15.85 12.85 31.27 15.53 17.76 22.21 2.1 19.07 15.84 12.85"></polygon>
            <polygon id="Path" fill="#696969" points="29.96 6.38 45.32 8.69 33.14 14.73 17.63 12.02"></polygon>
            <polygon id="Path" fill="#696969" points="42.73 0.66 57.37 2.7 46.72 7.96 31.68 5.69 42.73 0.66"></polygon>
            <path d="M107.33,49.06 L107.35,48.91 C107.35,48.81 107.33,48.73 107.29,48.68 C107.25,48.62 107.19,48.6 107.11,48.6 L101.52,48.6 C101.43,48.6 101.35,48.64 101.29,48.73 C101.22,48.82 101.17,48.93 101.13,49.05 L101.04,49.4 L101.02,49.67 C101.02,49.79 101.04,49.87 101.08,49.93 C101.12,49.98 101.18,50 101.25,50 L106.83,50 C106.9,50 106.96,49.98 107.01,49.94 C107.06,49.89 107.11,49.84 107.15,49.76 L107.25,49.53 L107.3,49.28 L107.33,49.06 L107.33,49.06 Z M106.74,52.02 L106.75,51.87 C106.75,51.77 106.73,51.68 106.7,51.63 C106.66,51.58 106.6,51.55 106.53,51.55 L100.93,51.55 C100.84,51.55 100.76,51.6 100.69,51.69 C100.63,51.78 100.57,51.89 100.53,52 L100.45,52.36 L100.42,52.63 C100.42,52.75 100.45,52.83 100.49,52.88 C100.53,52.93 100.59,52.96 100.66,52.96 L106.24,52.96 C106.31,52.96 106.37,52.93 106.42,52.89 C106.47,52.85 106.52,52.79 106.56,52.72 C106.59,52.65 106.63,52.58 106.65,52.49 L106.71,52.24 L106.74,52.02 L106.74,52.02 Z" id="Shape" fill="#000000"></path>
            <path d="M169.85,83.9 L174.4,75.05 C174.65,74.55 175.25,74.36 175.74,74.61 C176.24,74.87 176.43,75.47 176.18,75.96 L169.88,88.21 C169.53,88.9 168.55,88.94 168.14,88.27 L160.94,76.53 C160.65,76.06 160.8,75.45 161.27,75.16 C161.74,74.87 162.36,75.02 162.65,75.49 L167.85,83.97 L167.55,75.84 L167,61.43 C166.98,60.87 167.41,60.41 167.96,60.39 C168.51,60.37 168.98,60.79 169,61.35 L169.54,75.77 L169.84,83.9 L169.85,83.9 Z" id="Path" fill="#FFFFFF"></path>
            <path d="M53.85,80.43 L58.42,71.59 C58.67,71.1 59.28,70.91 59.77,71.16 C60.26,71.42 60.45,72.02 60.2,72.51 L53.88,84.74 C53.52,85.44 52.54,85.47 52.14,84.81 L44.96,73.06 C44.68,72.58 44.82,71.96 45.3,71.68 C45.77,71.39 46.38,71.54 46.67,72.01 L51.85,80.51 L51.56,72.37 L50.38,39.27 C50.36,38.72 50.8,38.26 51.35,38.24 C51.9,38.22 52.36,38.65 52.38,39.2 L53.56,72.3 L53.86,80.43 L53.85,80.43 Z" id="Path" fill="#FFFFFF"></path>
        </g>
    </g>
</svg>