<?xml version="1.0" encoding="UTF-8"?>
<svg width="100px" height="92px" viewBox="0 0 100 92" version="1.1" xmlns="http://www.w3.org/2000/svg" xmlns:xlink="http://www.w3.org/1999/xlink">
    <title>cub_3x3x2_1_1</title>
    <g id="Cub_3x3x2" stroke="none" stroke-width="1" fill="none" fill-rule="evenodd">
        <g id="cub_3x3x2_1_1" fill-rule="nonzero">
            <path d="M45.7,0.3 L96.5,12.7 C96.5,12.7 100.12,13.29 99.82,16.78 L96.76,45.58 C96.76,45.58 96.76,48.18 95.86,49.22 L71.43,89.27 C70.15,91.51 68.4,92.47 65.84,91.21 L11.24,69.32 C9.3,68.74 7.81,67.32 7.14,64.32 L0.26,33.68 C-0.47,30.68 0.43,28.93 2.57,27.58 L41.18,0.98 C42.63,-0.16 44.16,-0.18 45.72,0.29 L45.7,0.3 Z" id="Path" fill="#000000"></path>
            <path d="M59.84,32.4 C60.44,32.25 61.44,32.4 61.44,32.4 L78.68,37.2 L69.21,48.92 L48.93,42.85 L58.69,33.12 C58.69,33.12 59.25,32.56 59.84,32.41 L59.84,32.4 Z" id="Path" fill="#696969"></path>
            <path d="M63.5,28.35 C63.4,27.97 63.98,27.52 63.98,27.52 L70.4,20.84 C70.4,20.84 70.9,20.44 71.45,20.33 C71.99,20.21 72.72,20.33 72.72,20.33 L88.49,24.46 L81.16,33.86 L64.29,28.82 C64.29,28.82 63.59,28.73 63.49,28.35 L63.5,28.35 Z" id="Path" fill="#696969"></path>
            <path d="M81.12,9.9 L97.4,13.6 L90.56,21.78 L75.14,17.93 C75.14,17.93 74.5,17.87 74.41,17.41 C74.32,16.95 74.86,16.48 74.86,16.48 L81.12,9.89 L81.12,9.9 Z" id="Path" fill="#696969"></path>
            <path d="M61.74,4.9 L77.34,8.78 L70.82,14.79 C70.82,14.79 70.19,15.34 69.7,15.47 C69.21,15.6 68.77,15.59 68.31,15.47 C63.95,14.3 55.18,12.1 55.18,12.1 C53.94,11.74 54.47,11.08 54.86,10.63 L61.74,4.9 L61.74,4.9 Z" id="Path" fill="#696969"></path>
            <path d="M50.54,15 C51.24,14.86 51.59,14.86 52.17,15 L64.9,18.2 C66.1,18.44 66.25,18.97 65.42,19.79 L58.83,26 C58.07,26.9 57.12,27.03 56.03,26.63 L42.46,23.15 C41.88,23 41.63,22.9 41.59,22.39 C41.56,21.89 42.34,21.34 42.34,21.34 L49.18,15.61 C49.18,15.61 49.84,15.14 50.54,14.99 L50.54,15 Z" id="Path" fill="#FFFFFF"></path>
            <path d="M37.62,26.4 C38.48,26.2 39.37,26.4 39.37,26.4 L52.41,29.96 C52.41,29.96 53.25,30.19 53.41,30.74 C53.57,31.3 52.96,31.91 52.96,31.91 L43.46,41.19 L25.71,35.71 L36.09,27.15 C36.09,27.15 36.77,26.59 37.62,26.39 L37.62,26.4 Z" id="Path" fill="#696969"></path>
            <path d="M3.34,28.24 L16.31,19.24 L30,23.47 C31.18,23.8 31.4,25.04 30.77,25.55 L20.05,33.75 L3.33,28.25 L3.34,28.24 Z" id="Path" fill="#696969"></path>
            <path d="M19.33,17.12 L30.91,9.18 L43.86,12.75 C44.73,13.01 45.22,13.72 44.16,14.42 L36.79,20.19 C35.67,20.87 34.74,21.27 33.49,20.86 L19.33,17.12 L19.33,17.12 Z" id="Path" fill="#696969"></path>
            <path d="M43.53,0.6 L34.09,7.18 L46.77,10.19 C48.7,10.82 49.91,10.12 50.63,9.6 L57.9,4.08 L43.53,0.6 Z" id="Path" fill="#696969"></path>
            <path d="M72.17,52.9 L80.94,40.85 L80.07,54.85 C80.07,56.19 79.72,57.15 78.9,58.22 L71.5,70.08 L72.17,52.91 L72.17,52.9 Z" id="Path" fill="#696969"></path>
            <path d="M83.51,37.47 L90.89,27.57 L89.44,40.71 C89.34,41.84 89,43.33 88.3,44.33 L83.83,50.99 C83.1,51.93 82.76,51.33 82.73,50.39 L83.51,37.47 L83.51,37.47 Z" id="Path" fill="#696969"></path>
            <path d="M93.03,24.52 L99.27,16.44 L97.8,30.98 L93.01,38.11 C92.23,39.02 91.86,38.85 91.91,37.55 L93.03,24.52 Z" id="Path" fill="#696969"></path>
            <path d="M70.76,88.65 L71.08,74.48 L78.68,62.68 C79.42,61.46 79.72,62.13 79.72,64.13 L79.03,75.28 L70.76,88.65 L70.76,88.65 Z" id="Path" fill="#696969"></path>
            <path d="M82.48,57.97 C82.82,56.74 83.45,55.61 83.45,55.61 L87.67,49.11 C88.6,47.25 89.04,47.28 88.84,49.81 L88.38,60.19 L81.76,71.06 L82.15,60.4 C82.15,60.4 82.15,59.2 82.48,57.97 L82.48,57.97 Z" id="Path" fill="#696969"></path>
            <path d="M92.63,42.1 L97.33,34.78 L96.05,47.8 L90.62,56.76 L91.23,46.45 C91.28,44.7 91.75,43.25 92.63,42.1 L92.63,42.1 Z" id="Path" fill="#696969"></path>
            <path d="M67.63,54.04 L47.63,47.39 L48.44,61.15 C48.54,62.28 49.02,64.13 51.1,64.94 L67.63,70.69 L67.63,54.04 Z" id="Path" fill="#696969"></path>
            <path d="M23.3,39.37 L42.2,45.57 L43.2,59.65 C43.29,61.1 42.81,61.9 41.08,61.29 L28.1,56.83 C26.48,56.12 25.73,54.42 25.44,53.28 L23.31,39.38 L23.3,39.37 Z" id="Path" fill="#696969"></path>
            <path d="M1.48,32.45 L18.65,38.11 L20.91,52.07 C21.07,53.7 19.96,54.03 18.65,53.52 L4.99,48.72 L1.48,32.45 L1.48,32.45 Z" id="Path" fill="#696969"></path>
            <path d="M67.63,74.86 L67.63,90.46 L49.34,83.3 L48.71,70.9 C48.44,68.81 49.21,68.3 50.79,69.04 L67.63,74.85 L67.63,74.86 Z" id="Path" fill="#696969"></path>
            <path d="M28.2,75.11 L44.7,81.51 L44.03,69.07 C43.93,67.29 43.13,66.14 41.54,65.72 L29.04,61.23 C26.76,60.46 26.42,60.78 26.76,63.26 L28.2,75.11 L28.2,75.11 Z" id="Path" fill="#696969"></path>
            <path d="M5.67,52.73 L8.92,67.25 L23.75,73.18 L21.84,61.28 C21.69,59.24 20.56,58.2 18.92,57.68 L5.67,52.73 Z" id="Path" fill="#696969"></path>
        </g>
    </g>
</svg>