<?xml version="1.0" encoding="UTF-8"?>
<svg width="100px" height="100px" viewBox="0 0 100 100" version="1.1" xmlns="http://www.w3.org/2000/svg" xmlns:xlink="http://www.w3.org/1999/xlink">
    <title>cub_3x3x2_5_2</title>
    <g id="Cub_3x3x2" stroke="none" stroke-width="1" fill="none" fill-rule="evenodd">
        <g id="cub_3x3x2_5_2" fill-rule="nonzero">
            <polygon id="Path" fill="#000000" points="0 0 100 0 100 100 0 100"></polygon>
            <polygon id="Path" fill="#F8E71C" points="64 64 86 64 86 86 64 86"></polygon>
            <polygon id="Path" fill="#F8E71C" points="39 64 61 64 61 86 39 86"></polygon>
            <polygon id="Path" fill="#F8E71C" points="14 64 36 64 36 86 14 86"></polygon>
            <polygon id="Path" fill="#F8E71C" points="64 39 86 39 86 61 64 61"></polygon>
            <polygon id="Path" fill="#F8E71C" points="39 39 61 39 61 61 39 61"></polygon>
            <polygon id="Path" fill="#F8E71C" points="14 39 36 39 36 61 14 61"></polygon>
            <polygon id="Path" fill="#F8E71C" points="64 14 86 14 86 36 64 36"></polygon>
            <polygon id="Path" fill="#F8E71C" points="39 14 61 14 61 36 39 36"></polygon>
            <polygon id="Path" fill="#F8E71C" points="14 14 36 14 36 36 14 36"></polygon>
            <polygon id="Path" fill="#0062AC" points="64 91 86 91 86 95 64 95"></polygon>
            <polygon id="Path" fill="#EF7F1A" points="39 91 61 91 61 95 39 95"></polygon>
            <polygon id="Path" fill="#009846" points="14 91 36 91 36 95 14 95"></polygon>
            <polygon id="Path" fill="#E31E24" points="95 64 95 86 91 86 91 64"></polygon>
            <polygon id="Path" fill="#E31E24" points="95 39 95 61 91 61 91 39"></polygon>
            <polygon id="Path" fill="#EF7F1A" points="95 14 95 36 91 36 91 14"></polygon>
            <polygon id="Path" fill="#E31E24" points="9 64 9 86 5 86 5 64"></polygon>
            <polygon id="Path" fill="#0062AC" points="9 39 9 61 5 61 5 39"></polygon>
            <polygon id="Path" fill="#EF7F1A" points="9 14 9 36 5 36 5 14"></polygon>
            <polygon id="Path" fill="#0062AC" points="64 5 86 5 86 9 64 9"></polygon>
            <polygon id="Path" fill="#009846" points="39 5 61 5 61 9 39 9"></polygon>
            <polygon id="Path" fill="#009846" points="14 5 36 5 36 9 14 9"></polygon>
            <path d="M23,25.07 L18.12,33.74 C17.85,34.22 17.24,34.39 16.76,34.12 C16.28,33.85 16.11,33.24 16.38,32.76 L23.13,20.76 C23.51,20.08 24.49,20.08 24.87,20.76 L31.62,32.76 C31.89,33.24 31.72,33.86 31.24,34.12 C30.76,34.39 30.14,34.22 29.88,33.74 L25,25.07 L25,76.35 L29.88,67.68 C30.15,67.2 30.76,67.03 31.24,67.3 C31.72,67.57 31.89,68.18 31.62,68.66 L24.87,80.66 C24.49,81.34 23.51,81.34 23.13,80.66 L16.38,68.66 C16.11,68.18 16.28,67.56 16.76,67.3 C17.24,67.03 17.86,67.2 18.12,67.68 L23,76.35 L23,25.07 Z" id="Path" fill="#0062AC"></path>
            <path d="M74,24.07 L69.12,32.74 C68.85,33.22 68.24,33.39 67.76,33.12 C67.28,32.85 67.11,32.24 67.38,31.76 L74.13,19.76 C74.51,19.08 75.49,19.08 75.87,19.76 L82.62,31.76 C82.89,32.24 82.72,32.86 82.24,33.12 C81.76,33.39 81.14,33.22 80.88,32.74 L76,24.07 L76,75.35 L80.88,66.68 C81.15,66.2 81.76,66.03 82.24,66.3 C82.72,66.57 82.89,67.18 82.62,67.66 L75.87,79.66 C75.49,80.34 74.51,80.34 74.13,79.66 L67.38,67.66 C67.11,67.18 67.28,66.56 67.76,66.3 C68.24,66.03 68.86,66.2 69.12,66.68 L74,75.35 L74,24.07 Z" id="Path" fill="#0062AC"></path>
            <path d="M53.46,27.88 L56.15,37.46 C56.29,37.99 55.98,38.54 55.45,38.69 C54.92,38.84 54.37,38.53 54.22,37.99 L50.5,24.75 C50.29,24 50.98,23.31 51.73,23.52 L65,27.2 C65.53,27.36 65.84,27.91 65.7,28.44 C65.54,28.97 64.99,29.28 64.46,29.14 L54.88,26.45 L60.66,32.24 L77.71,49.28 C78.1,49.68 78.1,50.31 77.71,50.7 C77.31,51.09 76.68,51.09 76.29,50.7 L59.25,33.66 L53.46,27.88 Z" id="Path" fill="#E31E24"></path>
            <path d="M24.88,48.54 L34.46,45.86 C34.99,45.71 35.54,46.02 35.69,46.55 C35.84,47.08 35.53,47.63 34.99,47.78 L21.75,51.5 C21,51.71 20.31,51.02 20.52,50.27 L24.2,37 C24.36,36.47 24.91,36.16 25.44,36.3 C25.97,36.46 26.28,37.01 26.14,37.54 L23.45,47.12 L29.24,41.34 L46.28,24.29 C46.68,23.9 47.31,23.9 47.7,24.29 C48.09,24.69 48.09,25.32 47.7,25.71 L30.66,42.75 L24.88,48.54 Z" id="Path" fill="#E31E24"></path>
            <path d="M71.93,52.5 L63.26,47.62 C62.78,47.35 62.61,46.74 62.88,46.26 C63.15,45.78 63.76,45.61 64.24,45.88 L76.24,52.63 C76.92,53.01 76.92,53.99 76.24,54.37 L64.24,61.12 C63.76,61.39 63.14,61.22 62.88,60.74 C62.61,60.26 62.78,59.64 63.26,59.38 L71.93,54.5 L25,54.5 C24.45,54.5 24,54.05 24,53.5 C24,52.95 24.45,52.5 25,52.5 L71.93,52.5 L71.93,52.5 Z" id="Path" fill="#E31E24"></path>
        </g>
    </g>
</svg>