<?xml version="1.0" encoding="UTF-8"?>
<svg width="100px" height="100px" viewBox="0 0 100 100" version="1.1" xmlns="http://www.w3.org/2000/svg" xmlns:xlink="http://www.w3.org/1999/xlink">
    <title>rozov_10_2</title>
    <g id="rozov_10_2" stroke="none" stroke-width="1" fill="none" fill-rule="evenodd">
        <g id="r_cube" transform="translate(51.000000, 50.000000) scale(-1, 1) translate(-51.000000, -50.000000) translate(2.000000, 0.000000)">
            <polygon id="background" fill="#000000" points="97 3.8057214 32.4932116 0 0 16.8876598 5.6054476 88.4399839 75.7813922 100 95.8741778 69.5743746"></polygon>
            <g id="left" transform="translate(76.114286, 5.696203)">
                <polygon id="L9" fill="#009A0E" points="19.5154463 46.1357595 14.8218341 52.8706228 14.587013 71.8860759 19.1710521 64.6619874"></polygon>
                <polygon id="L8" fill="#009A0E" points="13.9571429 53.164557 7.65844156 61.161025 7.80120708 81.0126582 13.7425218 72.3276257"></polygon>
                <polygon id="L7" fill="#009A0E" points="6.95757622 62.0253165 0.1 70.7346136 0.241056261 92.4050633 7.02857143 82.3709795"></polygon>
                <polygon id="L6" fill="#009A0E" points="20.4174645 23.5264603 14.659961 29.2689423 14.7486333 49.4758274 19.9650118 42.8292032"></polygon>
                <polygon id="L5" fill="#009A0E" points="13.7861206 30.3811252 7.87067803 36.9649145 7.65844156 58.2278481 13.7861206 50.7040823"></polygon>
                <polygon id="L4" fill="#025AC1" points="7.02857143 37.9746835 0.1 45.6563711 0.235537542 68.3544304 6.82481632 59.772731"></polygon>
                <polygon id="L3" fill="#4A4A4A" points="20.2558442 0 14.659961 4.68081231 14.587013 25.9493671 19.8200756 20.3050724"></polygon>
                <polygon id="L2" fill="#4A4A4A" points="13.9571429 5.69620253 7.65844156 11.3504737 7.65844156 34.1772152 13.7495637 27.4063132"></polygon>
                <polygon id="L1" fill="#4A4A4A" points="6.6903117 12.7837423 0.0350095196 18.8409333 0.298965329 42.4050633 6.62428338 35.2657189"></polygon>
            </g>
            <g id="front" transform="translate(1.889610, 19.354430)">
                <polygon id="F9" fill="#FF8100" points="23.4076696 51.2077947 3.77922078 48.3670886 5.2780779 68.5976094 24.5649351 71.7848101"></polygon>
                <polygon id="F8" fill="#FF8100" points="47.1103896 54.4219568 26.2395979 51.6661294 27.4773847 71.6732569 47.8701299 74.9493671"></polygon>
                <polygon id="F7" fill="#FF8100" points="72.2987646 57.8338865 50.3896104 54.6962025 50.867113 75.7540197 72.4350649 79.3797468"></polygon>
                <polygon id="F6" fill="#FF8100" points="22.1970655 26.4838711 1.88961039 24.3164557 3.34420198 45.7806211 23.3051948 48.3670886"></polygon>
                <polygon id="F5" fill="#FF8100" points="46.2911882 29.4941603 24.5649351 26.8481013 25.7248421 48.6815982 47.1103896 51.4256955"></polygon>
                <polygon id="F4" fill="#FF8100" points="71.8492652 32.443279 49.3153177 30.0861935 50.2502987 51.7908354 72.1350649 54.6962025"></polygon>
                <polygon id="F3" fill="#4A4A4A" points="20.7666515 1.421261 0 0 1.8242345 21.5594706 21.9022007 23.7359164"></polygon>
                <polygon id="F2" fill="#4A4A4A" points="45.3625642 3.25011442 23.3051948 1.53164557 24.610171 24.015477 45.9805195 26.2151899"></polygon>
                <polygon id="F1" fill="#4A4A4A" points="71.4970932 5.86058997 48.6 4 49.3518147 27.017944 71.9051948 29.3164557"></polygon>
            </g>
            <g id="up" transform="translate(1.889610, 0.632911)">
                <polygon id="U9" fill="#4A4A4A" points="49.1298701 1.06660555 31.0637706 0 23.3051948 4.06456049 42.332373 5.06329114"></polygon>
                <polygon id="U8" fill="#4A4A4A" points="71.1753247 2.30818097 51.5920182 1.26582278 44.7207792 5.64207262 64.5125556 6.96202532"></polygon>
                <polygon id="U7" fill="#4A4A4A" points="93.2207792 3.69849082 72.8052205 2.53164557 66.7662338 6.99289904 87.8760556 8.2278481"></polygon>
                <polygon id="U6" fill="#4A4A4A" points="86.9220779 8.94466917 66.0592467 7.59493671 58.5779221 12.9224323 80.5480114 14.556962"></polygon>
                <polygon id="U5" fill="#F8E71C" points="62.987013 7.74300804 43.4129672 6.32911392 35.2727273 11.1766236 55.8034368 12.6582278"></polygon>
                <polygon id="U4" fill="#4A4A4A" points="40.9415584 6.12278481 21.9509018 5.06329114 12.5974026 9.56679649 32.6115782 10.7594937"></polygon>
                <polygon id="U3" fill="#4A4A4A" points="30.8636364 11.9641189 10.6985294 10.7594937 0 16.04833 21.1998004 17.721519"></polygon>
                <polygon id="U2" fill="#4A4A4A" points="54.7987013 13.5018771 33.4334032 12.0253165 23.9350649 17.9324895 46.2012099 19.6202532"></polygon>
                <polygon id="U1" fill="#4A4A4A" points="79.9935065 15.4042311 57.3602942 13.9240506 49.1298701 19.9044069 72.5861249 21.5189873"></polygon>
            </g>
        </g>
    </g>
</svg>