<?xml version="1.0" encoding="UTF-8"?>
<svg width="100px" height="100px" viewBox="0 0 100 100" version="1.1" xmlns="http://www.w3.org/2000/svg" xmlns:xlink="http://www.w3.org/1999/xlink">
    <title>rozov_2_fb</title>
    <g id="rozov_2_fb" stroke="none" stroke-width="1" fill="none" fill-rule="evenodd">
        <polygon id="background" fill="#000000" points="100 0 0 0 0 100 100 100"></polygon>
        <g id="Group" transform="translate(6.000000, 6.000000)" fill="#696969">
            <polygon id="9" opacity="0.900000036" points="87 60 60 60 60 87 87 87"></polygon>
            <polygon id="8" points="57 60 30 60 30 87 57 87"></polygon>
            <polygon id="7" points="27 60 0 60 0 87 27 87"></polygon>
            <polygon id="6" points="87 30 60 30 60 57 87 57"></polygon>
            <polygon id="5" points="57 30 30 30 30 57 57 57"></polygon>
            <polygon id="4" points="27 30 0 30 0 57 27 57"></polygon>
            <polygon id="3" points="87 0 60 0 60 27 87 27"></polygon>
            <polygon id="2" points="57 0 30 0 30 27 57 27"></polygon>
            <polygon id="1" points="27 0 0 0 0 27 27 27"></polygon>
        </g>
        <polygon id="Path" stroke="#FFFFFF" fill="#FFFFFF" stroke-linecap="round" stroke-linejoin="round" points="43 60 43 41 56 41 56 44.1972414 46.8296593 44.1972414 46.8296593 48.7310345 54.749499 48.7310345 54.749499 51.9282759 46.8296593 51.9282759 46.8296593 60"></polygon>
        <path d="M81,49.5131183 C80.9736522,55.7311828 79.1820024,61.5556989 75.6513985,66.6980645 C71.0405351,73.3621505 64.1637617,77.9010753 56.180381,79.4490323 C54.2306445,79.8163441 52.3336036,80 50.383867,80 L50.383867,78.5045161 C57.945683,78.4782796 64.9805432,75.6972043 70.4608837,70.5023656 C75.7567896,65.4387097 78.8921767,58.8270968 79.4191325,51.5595699 C79.4718281,50.8511828 79.4981759,50.1952688 79.4981759,49.5131183 C79.4718281,41.9569892 76.6789623,34.9780645 71.4620997,29.4946237 C66.3769761,24.2210753 59.7373328,21.0989247 52.4389947,20.5741935 C51.7276044,20.5217204 51.0689096,20.4954839 50.383867,20.4954839 C42.7957033,20.5217204 35.7871909,23.3027957 30.2805026,28.4976344 C25.4852047,33.0627957 22.4552088,38.9135484 21.5330361,45.3677419 C22.6923389,45.2365591 23.8252939,44.8954839 24.9845967,44.3182796 L20.5054722,54.7341935 L16,44.3182796 C17.3437373,44.9741935 18.6874747,45.3415054 20.031212,45.4202151 C20.6372112,40.723871 22.3498176,36.2898925 25.0899878,32.3019355 C29.7008512,25.6378495 36.5776246,21.0989247 44.5873531,19.5509677 C46.5107418,19.1836559 48.4077827,19 50.383867,19 C56.6282935,19.0262366 62.477503,20.8103226 67.64167,24.3260215 C74.3340089,28.9174194 78.8921767,35.7651613 80.4466964,43.7410753 C80.8155655,45.6563441 81,47.5453763 81,49.5131183 L81,49.5131183 Z" id="Path" stroke="#FFFFFF" fill="#FFFFFF" stroke-linecap="round" stroke-linejoin="round"></path>
        <path d="M63,36 L63,38.6312292 C63,39.7209302 62.92,40.5448505 62.7333333,41.1827243 C62.5466667,41.7940199 62.2,42.3521595 61.6933333,42.8305648 C61.16,43.3355482 60.52,43.7076412 59.72,44 L59,42.4584718 C59.7466667,42.2192691 60.28,41.8737542 60.6,41.448505 C60.8933333,41.0232558 61.08,40.4385382 61.08,39.6943522 L59.32,39.6943522 L59.32,36 L63,36 Z" id="Path" fill="#FFFFFF"></path>
    </g>
</svg>