<?xml version="1.0" encoding="UTF-8"?>
<svg width="100px" height="100px" viewBox="0 0 100 100" version="1.1" xmlns="http://www.w3.org/2000/svg" xmlns:xlink="http://www.w3.org/1999/xlink">
    <title>rozov_8_4</title>
    <g id="rozov_8_4" stroke="none" stroke-width="1" fill="none" fill-rule="evenodd">
        <g id="pll">
            <rect id="background" fill="#000000" x="0" y="0" width="100" height="100"></rect>
            <g id="front" transform="translate(14.000000, 14.000000)" fill="#F8E71C">
                <rect id="f9" x="50" y="50" width="22" height="22"></rect>
                <rect id="f8" x="25" y="50" width="22" height="22"></rect>
                <rect id="f7" x="0" y="50" width="22" height="22"></rect>
                <rect id="f6" x="50" y="25" width="22" height="22"></rect>
                <rect id="f5" x="25" y="25" width="22" height="22"></rect>
                <rect id="f4" x="0" y="25" width="22" height="22"></rect>
                <rect id="f3" x="50" y="0" width="22" height="22"></rect>
                <rect id="f2" x="25" y="0" width="22" height="22"></rect>
                <rect id="f1" x="0" y="0" width="22" height="22"></rect>
            </g>
            <g id="bottom" transform="translate(14.000000, 91.000000)">
                <rect id="B3" fill="#FF8100" x="50" y="0" width="22" height="4"></rect>
                <rect id="B2" fill="#D0021B" x="25" y="0" width="22" height="4"></rect>
                <rect id="B1" fill="#FF8100" x="0" y="0" width="22" height="4"></rect>
            </g>
            <g id="right" transform="translate(93.000000, 50.000000) rotate(90.000000) translate(-93.000000, -50.000000) translate(57.000000, 48.000000)">
                <rect id="R3" fill="#025AC1" x="50" y="0" width="22" height="4"></rect>
                <rect id="R2" fill="#009A0E" x="25" y="0" width="22" height="4"></rect>
                <rect id="R1" fill="#025AC1" x="0" y="0" width="22" height="4"></rect>
            </g>
            <g id="left" transform="translate(7.000000, 50.000000) rotate(90.000000) translate(-7.000000, -50.000000) translate(-29.000000, 48.000000)">
                <rect id="L3" fill="#009A0E" x="50" y="0" width="22" height="4"></rect>
                <rect id="L2" fill="#025AC1" x="25" y="0" width="22" height="4"></rect>
                <rect id="L1" fill="#009A0E" x="1.42108547e-14" y="0" width="22" height="4"></rect>
            </g>
            <g id="top" transform="translate(14.000000, 5.000000)">
                <rect id="T3" fill="#D0021B" x="50" y="0" width="22" height="4"></rect>
                <rect id="T2" fill="#FF8100" x="25" y="0" width="22" height="4"></rect>
                <rect id="T1" fill="#D0021B" x="0" y="0" width="22" height="4"></rect>
            </g>
        </g>
    </g>
</svg>