<?xml version="1.0" encoding="UTF-8"?>
<svg width="100px" height="100px" viewBox="0 0 100 100" version="1.1" xmlns="http://www.w3.org/2000/svg" xmlns:xlink="http://www.w3.org/1999/xlink">
    <title>rozov_2_ub</title>
    <g id="rozov_2_ub" stroke="none" stroke-width="1" fill="none" fill-rule="evenodd">
        <g id="r_cube" transform="translate(1.000000, 0.000000)">
            <polygon id="background" fill="#000000" points="0.0854215024 19.2754025 9.18778033 80.8860643 63.8334869 99.9205349 97.7492091 67.4145347 97.7492091 7.4982769 42.6407163 0.144627068"></polygon>
            <g id="right" transform="translate(60.983696, 9.308511)" fill="#4A4A4A">
                <polygon id="Rectangle" points="0.0464490684 22.8723404 12.3681756 14.9902898 13.05573 35.6921627 0.978849421 44.8704483"></polygon>
                <polygon id="Rectangle" points="13.9594083 13.8297872 25.1576093 6.83962562 25.1576093 26.7708053 14.6785215 34.3540275"></polygon>
                <polygon id="Rectangle" points="26.7020359 5.94243637 35.9377459 0.0426246969 35.9377459 18.8829787 26.7020359 26.020845"></polygon>
                <polygon id="Rectangle" points="1.40135688 47.4928117 13.1785569 38.5638298 13.8096869 57.2994033 2.51742399 67.205335"></polygon>
                <polygon id="Rectangle" points="14.9435931 37.0234456 25.2776078 29.1398038 25.5897369 47.643415 15.395011 56.2598642"></polygon>
                <polygon id="Rectangle" points="27.040506 28.0820037 35.8749802 21.2376166 35.8749802 38.8297872 27.0832797 46.4651225"></polygon>
                <polygon id="Rectangle" points="2.67128246 69.883141 14.0624675 59.982313 14.602706 77.9838066 3.48164027 88.4728487"></polygon>
                <polygon id="Rectangle" points="15.6196313 58.5415116 25.7330768 50 25.7302174 67.3689651 15.9343021 76.6814763"></polygon>
                <polygon id="Rectangle" points="27.2201039 48.838316 35.9348915 41.1795159 36.0210822 57.6479555 27.2201039 66.0535841"></polygon>
            </g>
            <g id="front" transform="translate(1.065217, 20.744681)" fill="#4A4A4A">
                <polygon id="Rectangle" points="38.4802589 7.8782454 57.6731362 11.9680851 58.6961519 33.706413 40.1228283 29.0005437"></polygon>
                <polygon id="Rectangle" points="18.2139576 3.78276638 35.7425781 7.44680851 37.8609006 28.4557501 20.6190996 24.087665"></polygon>
                <polygon id="Rectangle" points="0.192976496 0.181118774 16.0362392 3.3991474 18.3354846 23.414355 3.04729983 19.7400699"></polygon>
                <polygon id="Rectangle" points="40.5979007 31.6624024 59.0589945 36.4720917 60.0370154 56.4262848 41.9413484 50.9831619"></polygon>
                <polygon id="Rectangle" points="21.0728479 26.6414973 38.1471447 30.8565318 39.7588637 50.2750964 23.359523 45.3062958"></polygon>
                <polygon id="Rectangle" points="3.20067404 21.7621257 18.8129962 26.1074009 21.0825437 44.6711645 5.94030863 40.1202258"></polygon>
                <polygon id="Rectangle" points="42.3797847 53.3369243 60.2560433 58.9864476 61.4169678 77.6420459 43.864688 71.4300957"></polygon>
                <polygon id="Rectangle" points="23.4625726 47.5277112 40.0088827 52.8268331 41.6320094 70.813173 25.6079822 65.2388424"></polygon>
                <polygon id="Rectangle" points="6.29883305 42.3226202 21.3799138 47.041563 23.398592 64.382663 8.79345967 59.331619"></polygon>
            </g>
            <g id="up" transform="translate(1.864130, 0.531915)" fill="#4A4A4A">
                <polygon id="Rectangle" points="51.2440686 18.8958226 69.8545425 22.1651172 57.4958847 30.0498663 38.0270453 26.1848921"></polygon>
                <polygon id="Rectangle" points="64.4549352 11.3912692 82.5320487 14.2383002 71.567524 21.1626109 52.9462887 17.8546793"></polygon>
                <polygon id="Rectangle" points="76.3461867 4.98249394 93.8219117 7.4099587 84.1528899 13.373868 66.4170714 10.6282953"></polygon>
                <polygon id="Rectangle" points="57.7886006 2.4524879 73.7966683 4.6693439 63.6774916 10.3540214 46.8879026 7.75452754"></polygon>
                <polygon id="Rectangle" points="45.4752071 8.54105105 62.0825356 11.1338164 50.4669796 17.4727497 33.4784644 14.4968153"></polygon>
                <polygon id="Rectangle" points="31.6617109 15.3143252 48.9643949 18.323725 35.6031812 25.6954795 18.0155823 22.1782568"></polygon>
                <polygon id="Rectangle" points="13.9897191 12.3201531 29.404022 14.9948997 15.8910428 21.6753917 0.244836519 18.5399216"></polygon>
                <polygon id="Rectangle" points="28.0945786 5.846608 43.4520809 8.15805907 31.2807015 14.2028871 15.7639214 11.4868844"></polygon>
                <polygon id="Rectangle" points="40.865668 0.129202186 55.5051873 2.17120252 44.8602357 7.42323129 29.820185 5.16249398"></polygon>
            </g>
        </g>
        <g id="Group" transform="translate(42.000000, 5.000000)" fill="#FFFFFF">
            <path d="M21,0 L21,2.63122924 C21,3.72093023 20.92,4.5448505 20.7333333,5.18272425 C20.5466667,5.79401993 20.2,6.35215947 19.6933333,6.83056478 C19.16,7.33554817 18.52,7.7076412 17.72,8 L17,6.45847176 C17.7466667,6.2192691 18.28,5.87375415 18.6,5.44850498 C18.8933333,5.02325581 19.08,4.43853821 19.08,3.69435216 L17.32,3.69435216 L17.32,0 L21,0 Z" id="Path"></path>
            <path d="M0,4 L3.828125,4 L3.828125,14.1178862 C3.828125,15.7140921 3.88020833,16.7696477 3.95833333,17.2330623 C4.11458333,18.0054201 4.50520833,18.6233062 5.10416667,19.0867209 C5.72916667,19.5501355 6.5625,19.7818428 7.60416667,19.7818428 C8.671875,19.7818428 9.47916667,19.5501355 10.0260417,19.1124661 C10.5729167,18.6747967 10.9114583,18.1341463 11.015625,17.5162602 C11.1197917,16.8726287 11.171875,15.8170732 11.171875,14.3238482 L11.171875,4 L15,4 L15,13.8089431 C15,16.0487805 14.8958333,17.6449864 14.6875,18.5718157 C14.5052083,19.498645 14.1145833,20.2710027 13.5677083,20.9146341 C13.0208333,21.5582656 12.265625,22.0731707 11.3541667,22.4336043 C10.4166667,22.8197832 9.21875,23 7.734375,23 C5.9375,23 4.55729167,22.7940379 3.64583333,22.3821138 C2.70833333,21.9701897 1.97916667,21.4552846 1.43229167,20.7859079 C0.885416667,20.1165312 0.546875,19.4471545 0.364583333,18.700542 C0.104166667,17.6449864 0,16.0487805 0,13.9634146 L0,4 L0,4 Z" id="Path" stroke="#FFFFFF" stroke-linecap="round" stroke-linejoin="round"></path>
        </g>
        <path id="Path-2" d="M95.583841,23.3928203 L94.819465,24.997882 L88.8996814,37.4284356 L87.093987,36.5685125 L91.37,27.585 L84.7401871,32.2589151 C74.3426527,39.303315 66.8542042,43.2604468 62.1687215,44.1426139 C56.2686056,45.253468 38.672161,42.0727813 9.02105636,34.5984455 L8.11884784,34.3706363 L8.60925305,32.4316926 C38.4126727,39.9696896 56.2655782,43.2188986 61.7986698,42.1771465 C66.0535714,41.3760479 73.1794745,37.6363416 83.0614347,30.9796406 L83.6031833,30.6136551 L90.22,25.949 L80.3207951,26.9587587 L80.1180098,24.9690657 L93.8152251,23.573074 L95.583841,23.3928203 Z" fill="#FFFFFF" fill-rule="nonzero"></path>
    </g>
</svg>