<?xml version="1.0" encoding="UTF-8"?>
<svg width="100px" height="100px" viewBox="0 0 100 100" version="1.1" xmlns="http://www.w3.org/2000/svg" xmlns:xlink="http://www.w3.org/1999/xlink">
    <title>rozov_2_u</title>
    <g id="rozov_2_u" stroke="none" stroke-width="1" fill="none" fill-rule="evenodd">
        <g id="r_cube" transform="translate(1.000000, 0.000000)">
            <polygon id="background" fill="#000000" points="0.0854215024 19.2754025 9.18778033 80.8860643 63.8334869 99.9205349 97.7492091 67.4145347 97.7492091 7.4982769 42.6407163 0.144627068"></polygon>
            <g id="right" transform="translate(60.983696, 9.308511)" fill="#4A4A4A">
                <polygon id="Rectangle" points="0.0464490684 22.8723404 12.3681756 14.9902898 13.05573 35.6921627 0.978849421 44.8704483"></polygon>
                <polygon id="Rectangle" points="13.9594083 13.8297872 25.1576093 6.83962562 25.1576093 26.7708053 14.6785215 34.3540275"></polygon>
                <polygon id="Rectangle" points="26.7020359 5.94243637 35.9377459 0.0426246969 35.9377459 18.8829787 26.7020359 26.020845"></polygon>
                <polygon id="Rectangle" points="1.40135688 47.4928117 13.1785569 38.5638298 13.8096869 57.2994033 2.51742399 67.205335"></polygon>
                <polygon id="Rectangle" points="14.9435931 37.0234456 25.2776078 29.1398038 25.5897369 47.643415 15.395011 56.2598642"></polygon>
                <polygon id="Rectangle" points="27.040506 28.0820037 35.8749802 21.2376166 35.8749802 38.8297872 27.0832797 46.4651225"></polygon>
                <polygon id="Rectangle" points="2.67128246 69.883141 14.0624675 59.982313 14.602706 77.9838066 3.48164027 88.4728487"></polygon>
                <polygon id="Rectangle" points="15.6196313 58.5415116 25.7330768 50 25.7302174 67.3689651 15.9343021 76.6814763"></polygon>
                <polygon id="Rectangle" points="27.2201039 48.838316 35.9348915 41.1795159 36.0210822 57.6479555 27.2201039 66.0535841"></polygon>
            </g>
            <g id="front" transform="translate(1.065217, 20.744681)" fill="#4A4A4A">
                <polygon id="Rectangle" points="38.4802589 7.8782454 57.6731362 11.9680851 58.6961519 33.706413 40.1228283 29.0005437"></polygon>
                <polygon id="Rectangle" points="18.2139576 3.78276638 35.7425781 7.44680851 37.8609006 28.4557501 20.6190996 24.087665"></polygon>
                <polygon id="Rectangle" points="0.192976496 0.181118774 16.0362392 3.3991474 18.3354846 23.414355 3.04729983 19.7400699"></polygon>
                <polygon id="Rectangle" points="40.5979007 31.6624024 59.0589945 36.4720917 60.0370154 56.4262848 41.9413484 50.9831619"></polygon>
                <polygon id="Rectangle" points="21.0728479 26.6414973 38.1471447 30.8565318 39.7588637 50.2750964 23.359523 45.3062958"></polygon>
                <polygon id="Rectangle" points="3.20067404 21.7621257 18.8129962 26.1074009 21.0825437 44.6711645 5.94030863 40.1202258"></polygon>
                <polygon id="Rectangle" points="42.3797847 53.3369243 60.2560433 58.9864476 61.4169678 77.6420459 43.864688 71.4300957"></polygon>
                <polygon id="Rectangle" points="23.4625726 47.5277112 40.0088827 52.8268331 41.6320094 70.813173 25.6079822 65.2388424"></polygon>
                <polygon id="Rectangle" points="6.29883305 42.3226202 21.3799138 47.041563 23.398592 64.382663 8.79345967 59.331619"></polygon>
            </g>
            <g id="up" transform="translate(1.864130, 0.531915)" fill="#4A4A4A">
                <polygon id="Rectangle" points="51.2440686 18.8958226 69.8545425 22.1651172 57.4958847 30.0498663 38.0270453 26.1848921"></polygon>
                <polygon id="Rectangle" points="64.4549352 11.3912692 82.5320487 14.2383002 71.567524 21.1626109 52.9462887 17.8546793"></polygon>
                <polygon id="Rectangle" points="76.3461867 4.98249394 93.8219117 7.4099587 84.1528899 13.373868 66.4170714 10.6282953"></polygon>
                <polygon id="Rectangle" points="57.7886006 2.4524879 73.7966683 4.6693439 63.6774916 10.3540214 46.8879026 7.75452754"></polygon>
                <polygon id="Rectangle" points="45.4752071 8.54105105 62.0825356 11.1338164 50.4669796 17.4727497 33.4784644 14.4968153"></polygon>
                <polygon id="Rectangle" points="31.6617109 15.3143252 48.9643949 18.323725 35.6031812 25.6954795 18.0155823 22.1782568"></polygon>
                <polygon id="Rectangle" points="13.9897191 12.3201531 29.404022 14.9948997 15.8910428 21.6753917 0.244836519 18.5399216"></polygon>
                <polygon id="Rectangle" points="28.0945786 5.846608 43.4520809 8.15805907 31.2807015 14.2028871 15.7639214 11.4868844"></polygon>
                <polygon id="Rectangle" points="40.865668 0.129202186 55.5051873 2.17120252 44.8602357 7.42323129 29.820185 5.16249398"></polygon>
            </g>
        </g>
        <path d="M40,9 L43.828125,9 L43.828125,19.1178862 C43.828125,20.7140921 43.8802083,21.7696477 43.9583333,22.2330623 C44.1145833,23.0054201 44.5052083,23.6233062 45.1041667,24.0867209 C45.7291667,24.5501355 46.5625,24.7818428 47.6041667,24.7818428 C48.671875,24.7818428 49.4791667,24.5501355 50.0260417,24.1124661 C50.5729167,23.6747967 50.9114583,23.1341463 51.015625,22.5162602 C51.1197917,21.8726287 51.171875,20.8170732 51.171875,19.3238482 L51.171875,9 L55,9 L55,18.8089431 C55,21.0487805 54.8958333,22.6449864 54.6875,23.5718157 C54.5052083,24.498645 54.1145833,25.2710027 53.5677083,25.9146341 C53.0208333,26.5582656 52.265625,27.0731707 51.3541667,27.4336043 C50.4166667,27.8197832 49.21875,28 47.734375,28 C45.9375,28 44.5572917,27.7940379 43.6458333,27.3821138 C42.7083333,26.9701897 41.9791667,26.4552846 41.4322917,25.7859079 C40.8854167,25.1165312 40.546875,24.4471545 40.3645833,23.700542 C40.1041667,22.6449864 40,21.0487805 40,18.9634146 L40,9 L40,9 Z" id="Path" stroke="#FFFFFF" fill="#FFFFFF" stroke-linecap="round" stroke-linejoin="round"></path>
        <path id="Path-2" d="M93.0143844,20.8870527 L94.194193,22.501999 C78.0832627,34.2719355 67.4947613,40.9164083 62.2729452,42.4942638 C57.6786225,43.882512 44.6119738,41.9746716 22.6788148,36.8016124 L21.9905169,36.6388915 L14.071,34.7 L21.3355673,41.5010108 L19.9687411,42.9610745 L9.91753821,33.551727 L8.61970376,32.3367704 L10.3319546,31.8585541 L23.5926448,28.1549617 L24.1306382,30.0812439 L14.547,32.757 L22.4588313,34.6945079 C44.3428476,39.8801356 57.5545412,41.8306949 61.6944461,40.5797563 C66.6133259,39.093438 77.1052199,32.509588 93.0143844,20.8870527 Z" fill="#FFFFFF" fill-rule="nonzero"></path>
    </g>
</svg>