<?xml version="1.0" encoding="UTF-8"?>
<svg width="100px" height="100px" viewBox="0 0 100 100" version="1.1" xmlns="http://www.w3.org/2000/svg" xmlns:xlink="http://www.w3.org/1999/xlink">
    <title>rozov_2_l</title>
    <g id="rozov_2_l" stroke="none" stroke-width="1" fill="none" fill-rule="evenodd">
        <polygon id="background" fill="#000000" points="100 0 0 0 0 100 100 100"></polygon>
        <g id="front" transform="translate(6.000000, 6.000000)" fill="#696969">
            <polygon id="9" points="87 60 60 60 60 87 87 87"></polygon>
            <polygon id="8" points="57 60 30 60 30 87 57 87"></polygon>
            <polygon id="7" points="27 60 0 60 0 87 27 87"></polygon>
            <polygon id="6" points="87 30 60 30 60 57 87 57"></polygon>
            <polygon id="5" points="57 30 30 30 30 57 57 57"></polygon>
            <polygon id="4" points="27 30 0 30 0 57 27 57"></polygon>
            <polygon id="3" points="87 0 60 0 60 27 87 27"></polygon>
            <polygon id="2" points="57 0 30 0 30 27 57 27"></polygon>
            <polygon id="1" points="27 0 0 0 0 27 27 27"></polygon>
        </g>
        <path d="M19.5131965,18 L24,28.5026455 C22.7331378,27.8941799 21.4926686,27.5238095 20.2521994,27.4179894 L20.2521994,78 L18.7478006,78 L18.7478006,27.4179894 C17.5073314,27.5238095 16.2668622,27.8941799 15,28.5026455 L19.5131965,18 L19.5131965,18 Z" id="Path-Copy" stroke="#FFFFFF" fill="#FFFFFF" stroke-linecap="round" stroke-linejoin="round" transform="translate(19.500000, 48.000000) scale(1, -1) translate(-19.500000, -48.000000) "></path>
        <polygon id="Path" stroke="#FFFFFF" fill="#FFFFFF" stroke-linecap="round" stroke-linejoin="round" points="43 59 43 40 46.739726 40 46.739726 55.7760779 56 55.7760779 56 59"></polygon>
    </g>
</svg>