<?xml version="1.0" encoding="UTF-8"?>
<svg width="96px" height="100px" viewBox="0 0 96 100" version="1.1" xmlns="http://www.w3.org/2000/svg" xmlns:xlink="http://www.w3.org/1999/xlink">
    <title>big_cubes_5</title>
    <g id="Big_cubes" stroke="none" stroke-width="1" fill="none" fill-rule="evenodd">
        <g id="big_cubes_5" fill-rule="nonzero">
            <polygon id="Path" fill="#000000" points="0.0342857143 20.3218391 43.04 0.0344827586 95.3942857 8.06896552 94.9714286 64.908046 61.4971429 99.1494253 10.9828571 77.6091954"></polygon>
            <polygon id="Path" fill="#696969" points="53.1657143 25.7356322 64.3542857 28.2528736 56.2628571 33.7471264 44.6628571 30.8965517"></polygon>
            <polygon id="Path" fill="#696969" points="61.7485714 20.3563218 72.7885714 22.6321839 65.3942857 27.5632184 54.1028571 25.091954"></polygon>
            <polygon id="Path" fill="#696969" points="69.6228571 15.4252874 80.5257143 17.4137931 73.7257143 21.9885057 62.6628571 19.7471264"></polygon>
            <polygon id="Path" fill="#696969" points="77.04 10.8965517 87.52 12.6206897 81.4171429 16.7931034 70.6857143 14.8850575"></polygon>
            <polygon id="Path" fill="#696969" points="83.8171429 6.64367816 94.1942857 8.2183908 88.32 12.0689655 77.92 10.3103448"></polygon>
            <polygon id="Path" fill="#696969" points="41.2228571 23.0804598 51.5542857 25.3793103 43.0514286 30.5632184 32.4914286 27.9770115"></polygon>
            <polygon id="Path" fill="#FFED00" points="50.0342857 17.9885057 60.2857143 20.0344828 52.56 24.6896552 42.24 22.4712644"></polygon>
            <polygon id="Path" fill="#009846" points="58.2057143 13.2873563 68.2285714 15.137931 61.3257143 19.4712644 50.9485714 17.3793103"></polygon>
            <polygon id="Path" fill="#009846" points="65.7714286 8.93103448 75.6457143 10.6321839 69.12 14.6321839 59.0628571 12.7471264"></polygon>
            <polygon id="Path" fill="#696969" points="72.6628571 4.90804598 82.48 6.4137931 76.56 10.0804598 66.7314286 8.47126437"></polygon>
            <polygon id="Path" fill="#696969" points="29.9085714 20.5862069 39.6571429 22.7241379 31.1314286 27.5632184 21.28 25.1954023"></polygon>
            <polygon id="Path" fill="#009846" points="39.0971429 15.7241379 48.3885714 17.7126437 40.7657143 22.1149425 31.0057143 19.9770115"></polygon>
            <polygon id="Path" fill="#009846" points="47.3485714 11.2988506 56.64 13.0574713 49.4971429 17.0804598 40.0114286 15.1954023"></polygon>
            <polygon id="Path" fill="#009846" points="55.0742857 7.22988506 64.3085714 8.75862069 57.8057143 12.4482759 48.24 10.7931034"></polygon>
            <polygon id="Path" fill="#696969" points="62.1828571 3.35632184 71.3714286 4.67816092 65.4171429 8.17241379 56.0342857 6.62068966"></polygon>
            <polygon id="Path" fill="#696969" points="19.4857143 18.2528736 28.5714286 20.2643678 20.0114286 24.8965517 10.9028571 22.5747126"></polygon>
            <polygon id="Path" fill="#009846" points="28.6171429 13.6666667 37.8057143 15.4712644 29.6571429 19.7011494 20.8 17.6666667"></polygon>
            <polygon id="Path" fill="#009846" points="37.12 9.43678161 45.9314286 11.0689655 38.6171429 14.9425287 29.8857143 13.0804598"></polygon>
            <polygon id="Path" fill="#FFED00" points="45.0971429 5.49425287 53.7828571 6.91954023 46.8457143 10.5402299 38.2171429 8.88505747"></polygon>
            <polygon id="Path" fill="#696969" points="52.3314286 1.7816092 60.8914286 3.10344828 54.6628571 6.33333333 46.0342857 5.01149425"></polygon>
            <polygon id="Path" fill="#696969" points="9.86285714 15.9885057 18.2742857 17.9655172 9.61142857 22.2758621 1.06285714 20.183908"></polygon>
            <polygon id="Path" fill="#696969" points="19.0285714 11.6091954 27.4857143 13.4137931 19.5314286 17.3793103 10.9257143 15.4942529"></polygon>
            <polygon id="Path" fill="#696969" points="27.5542857 7.65517241 35.8971429 9.17241379 28.4342857 12.8045977 20.0914286 11.1494253"></polygon>
            <polygon id="Path" fill="#696969" points="35.68 3.83908046 43.7028571 5.1954023 36.9714286 8.67816092 28.6171429 7.14942529"></polygon>
            <polygon id="Path" fill="#696969" points="36.6742857 3.4137931 43.1428571 0.356321839 51.12 1.55172414 44.7885714 4.75862069"></polygon>
            <polygon id="Path" fill="#696969" points="44.4342857 32.2183908 55.7828571 35.0229885 56.7428571 47.908046 45.6571429 44.8965517"></polygon>
            <polygon id="Path" fill="#696969" points="32.2628571 29.1724138 42.8457143 31.8965517 44.16 44.3678161 33.7371429 41.3333333"></polygon>
            <polygon id="Path" fill="#696969" points="20.9485714 26.3448276 30.9028571 28.9885057 32.3885714 40.908046 22.7542857 38.2298851"></polygon>
            <polygon id="Path" fill="#696969" points="10.5485714 23.7471264 19.6342857 26.1609195 21.4285714 37.8275862 12.4228571 35.2988506"></polygon>
            <polygon id="Path" fill="#696969" points="0.651428571 21.3333333 9.25714286 23.5172414 11.1542857 34.8965517 2.85714286 32.5747126"></polygon>
            <polygon id="Path" fill="#696969" points="45.8514286 46.4252874 56.8685714 49.5517241 57.7485714 61.6206897 46.9942857 58.137931"></polygon>
            <polygon id="Path" fill="#009846" points="34.0571429 43.091954 44.2857143 45.862069 45.4742857 57.6781609 35.4057143 54.3448276"></polygon>
            <polygon id="Path" fill="#FFED00" points="22.9257143 39.7586207 32.5485714 42.5862069 33.9885714 53.8390805 24.6171429 50.7816092"></polygon>
            <polygon id="Path" fill="#FFED00" points="12.6057143 36.7241379 21.6342857 39.3448276 23.28 50.4712644 14.5485714 47.5977011"></polygon>
            <polygon id="Path" fill="#696969" points="3.02857143 34 11.3828571 36.3678161 13.3371429 47.2643678 5.10857143 44.6436782"></polygon>
            <polygon id="Path" fill="#696969" points="47.2 59.7701149 57.9085714 63.2988506 58.8114286 74.5747126 48.2628571 70.7126437"></polygon>
            <polygon id="Path" fill="#FFED00" points="35.68 55.8965517 45.7028571 59.2758621 46.7657143 70.2758621 36.9942857 66.7356322"></polygon>
            <polygon id="Path" fill="#FFED00" points="24.9485714 52.4827586 34.2857143 55.4367816 35.5771429 66.2528736 26.4914286 62.8965517"></polygon>
            <polygon id="Path" fill="#FFED00" points="14.8 49.045977 23.5085714 51.9195402 25.1085714 62.5172414 16.5942857 59.4827586"></polygon>
            <polygon id="Path" fill="#696969" points="5.44 45.9655172 13.5085714 48.6666667 15.3142857 58.954023 7.29142857 56.045977"></polygon>
            <polygon id="Path" fill="#696969" points="48.4914286 72.2068966 58.8914286 76.0804598 59.7257143 86.7701149 49.4971429 82.6781609"></polygon>
            <polygon id="Path" fill="#009846" points="37.2228571 68.1954023 46.8685714 71.7816092 48.0342857 82.1149425 38.4685714 78.2643678"></polygon>
            <polygon id="Path" fill="#FFED00" points="26.6742857 64.3678161 35.8057143 67.6551724 37.1542857 77.8850575 28.1942857 74.3793103"></polygon>
            <polygon id="Path" fill="#FFED00" points="16.7771429 60.7586207 25.3257143 63.7586207 26.9714286 73.8965517 18.4457143 70.5862069"></polygon>
            <polygon id="Path" fill="#696969" points="7.50857143 57.4252874 15.5885714 60.3218391 17.3371429 70.1264368 9.33714286 66.7931034"></polygon>
            <polygon id="Path" fill="#696969" points="49.6228571 84.1264368 59.9314286 88.1954023 60.5828571 98.3333333 50.6171429 94"></polygon>
            <polygon id="Path" fill="#696969" points="38.64 79.6666667 48.16 83.4827586 49.2228571 93.5172414 39.8857143 89.4942529"></polygon>
            <polygon id="Path" fill="#696969" points="28.3428571 75.6206897 37.2571429 79.1609195 38.5714286 88.9655172 29.76 85.2183908"></polygon>
            <polygon id="Path" fill="#696969" points="18.6742857 71.7011494 27.1542857 75.2413793 28.5257143 84.7126437 20.3657143 81.1954023"></polygon>
            <polygon id="Path" fill="#696969" points="9.63428571 68.1609195 17.5085714 71.3448276 19.1085714 80.6321839 11.4057143 77.4022989"></polygon>
            <polygon id="Path" fill="#696969" points="57.1657143 34.8505747 65.1885714 29.2413793 65.9314286 41.7931034 58.1028571 47.6781609"></polygon>
            <polygon id="Path" fill="#696969" points="66.3314286 28.5287356 73.6685714 23.5977011 74.08 35.7586207 66.9942857 40.954023"></polygon>
            <polygon id="Path" fill="#696969" points="74.7542857 22.8275862 81.36 18.2988506 81.5885714 30.0574713 75.0628571 34.9770115"></polygon>
            <polygon id="Path" fill="#696969" points="82.3542857 17.6666667 88.4571429 13.5172414 88.5257143 24.862069 82.5257143 29.3678161"></polygon>
            <polygon id="Path" fill="#696969" points="89.4171429 12.8735632 94.9828571 9.08045977 94.9257143 20.137931 89.36 24.2298851"></polygon>
            <polygon id="Path" fill="#696969" points="58.3314286 49.2528736 66.0228571 43.4482759 66.64 55.2643678 59.1428571 61.4482759"></polygon>
            <polygon id="Path" fill="#E31E24" points="67.12 42.6091954 74.1485714 37.3448276 74.56 48.7126437 67.7028571 54.3218391"></polygon>
            <polygon id="Path" fill="#E31E24" points="75.1885714 36.6551724 81.6457143 31.5862069 81.8971429 42.6896552 75.5657143 47.954023"></polygon>
            <polygon id="Path" fill="#E31E24" points="82.6514286 31 88.5485714 26.3448276 88.6285714 37.1609195 82.8571429 41.8505747"></polygon>
            <polygon id="Path" fill="#696969" points="89.3828571 25.862069 94.9028571 21.6091954 94.88 31.9885057 89.44 36.4942529"></polygon>
            <polygon id="Path" fill="#696969" points="59.2914286 62.9770115 66.7657143 56.7356322 67.3714286 67.8390805 60.08 74.2988506"></polygon>
            <polygon id="Path" fill="#E31E24" points="67.8514286 55.9425287 74.6285714 50.1954023 75.0628571 61.0114943 68.4342857 66.9425287"></polygon>
            <polygon id="Path" fill="#E31E24" points="75.6914286 49.3333333 81.8971429 44.2413793 82.1028571 54.7471264 76 60.091954"></polygon>
            <polygon id="Path" fill="#E31E24" points="82.9142857 43.4252874 88.6285714 38.6321839 88.7085714 48.816092 83.04 53.908046"></polygon>
            <polygon id="Path" fill="#696969" points="89.44 38.0229885 94.88 33.4137931 94.7771429 43.4712644 89.5428571 48.0804598"></polygon>
            <polygon id="Path" fill="#696969" points="60.2857143 75.8735632 67.52 69.2298851 68.0571429 79.7241379 61.04 86.3908046"></polygon>
            <polygon id="Path" fill="#E31E24" points="68.5828571 68.3908046 75.1885714 62.3908046 75.4628571 72.6206897 69.04 78.8505747"></polygon>
            <polygon id="Path" fill="#E31E24" points="76.08 61.5517241 82.2057143 56.1034483 82.4 66 76.4342857 71.7011494"></polygon>
            <polygon id="Path" fill="#E31E24" points="83.1085714 55.3103448 88.7314286 50.2413793 88.7771429 59.9195402 83.2342857 65.2643678"></polygon>
            <polygon id="Path" fill="#696969" points="89.6114286 49.5287356 94.7314286 44.7931034 94.6514286 54.3448276 89.6114286 59.2528736"></polygon>
            <polygon id="Path" fill="#696969" points="61.2685714 87.9195402 68.1828571 81.1954023 68.7085714 91.1954023 61.8057143 98.1264368"></polygon>
            <polygon id="Path" fill="#696969" points="69.2457143 80.0804598 75.5428571 73.9885057 75.9771429 83.6896552 69.6457143 90.2068966"></polygon>
            <polygon id="Path" fill="#696969" points="76.56 73.2068966 82.4 67.4827586 82.6057143 76.8735632 76.8342857 82.8275862"></polygon>
            <polygon id="Path" fill="#696969" points="83.2914286 66.6091954 88.8114286 61.2183908 88.8114286 70.6321839 83.44 76.1609195"></polygon>
            <polygon id="Path" fill="#696969" points="89.6457143 60.5287356 94.6285714 55.6206897 94.6057143 64.7586207 89.6457143 69.7701149"></polygon>
        </g>
    </g>
</svg>