<?xml version="1.0" encoding="UTF-8"?>
<svg width="97px" height="100px" viewBox="0 0 97 100" version="1.1" xmlns="http://www.w3.org/2000/svg" xmlns:xlink="http://www.w3.org/1999/xlink">
    <title>big_cubes_1_2</title>
    <g id="Big_cubes" stroke="none" stroke-width="1" fill="none" fill-rule="evenodd">
        <g id="big_cubes_1_2" fill-rule="nonzero">
            <polygon id="Path" fill="#000000" points="0.171176471 18.9428571 41.8526471 0.171428571 96.1441176 7.48571429 95.9444118 66.4285714 62.9644118 98.3714286 8.92970588 79.3142857"></polygon>
            <polygon id="Path" fill="#FFFFFF" points="52.1802941 19.0857143 70.6388235 22.3428571 58.2855882 30.0571429 39.0567647 26.3714286"></polygon>
            <polygon id="Path" fill="#009846" points="65.1041176 11.8 83.1917647 14.5714286 72.2364706 21.4 53.6923529 18.1428571"></polygon>
            <polygon id="Path" fill="#FFFFFF" points="76.6585294 5.45714286 94.1185294 7.71428571 84.4470588 13.7714286 66.6447059 11.0285714"></polygon>
            <polygon id="Path" fill="#E31E24" points="58.6279412 2.97142857 74.5188235 5.08571429 64.4194118 10.6857143 47.9294118 8.17142857"></polygon>
            <polygon id="Path" fill="#FFED00" points="46.5885294 8.94285714 62.9929412 11.4571429 51.41 17.7428571 34.6061765 14.8571429"></polygon>
            <polygon id="Path" fill="#EF7F1A" points="33.0941176 15.6285714 49.955 18.6 36.8885294 25.8 19.5426471 22.4"></polygon>
            <polygon id="Path" fill="#FFFFFF" points="15.5485294 12.5428571 31.0114706 15.3428571 17.2888235 21.9714286 1.74029412 18.8571429"></polygon>
            <polygon id="Path" fill="#0062AC" points="29.4423529 6.28571429 44.62 8.57142857 32.5805882 14.5142857 17.2602941 11.8571429"></polygon>
            <polygon id="Path" fill="#FFFFFF" points="41.9382353 0.6 56.6308824 2.62857143 46.0464706 7.91428571 30.9829412 5.6"></polygon>
            <polygon id="Path" fill="#E31E24" points="38.6858824 28.3142857 57.8291176 32.1428571 58.8561765 53.6857143 40.3976471 48.9714286"></polygon>
            <polygon id="Path" fill="#FFED00" points="18.8864706 24.1714286 36.2608824 27.8571429 38.1723529 48.3714286 21.3114706 44.2"></polygon>
            <polygon id="Path" fill="#EF7F1A" points="1.16970588 20.5428571 16.9179412 23.7428571 19.1432353 43.6 3.96558824 39.8"></polygon>
            <polygon id="Path" fill="#EF7F1A" points="40.8255882 51.5142857 59.17 56.3142857 60.1114706 76.1714286 42.3091176 70.6857143"></polygon>
            <polygon id="Path" fill="#0062AC" points="21.7394118 46.6571429 38.6002941 50.9142857 40.3120588 70.0857143 23.9647059 65.0857143"></polygon>
            <polygon id="Path" fill="#E31E24" points="4.10823529 41.9428571 19.6282353 46.0857143 21.825 64.5428571 6.81852941 59.9142857"></polygon>
            <polygon id="Path" fill="#E31E24" points="42.5658824 72.9714286 60.3111765 78.5428571 61.4808824 97.0857143 44.1064706 90.8571429"></polygon>
            <polygon id="Path" fill="#FFFFFF" points="24.0217647 67.2571429 40.3976471 72.4571429 42.0238235 90.2857143 26.1614706 84.6571429"></polygon>
            <polygon id="Path" fill="#EF7F1A" points="7.10382353 62.0285714 22.1673529 66.8 24.1073529 83.9142857 9.61441176 78.9714286"></polygon>
            <polygon id="Path" fill="#0062AC" points="59.9688235 31.4571429 72.2364706 23.7714286 72.8926471 44.3142857 60.9673529 53.1714286"></polygon>
            <polygon id="Path" fill="#FFED00" points="73.6914706 22.7428571 84.6752941 15.8 84.7894118 35.4857143 74.3761765 43.1714286"></polygon>
            <polygon id="Path" fill="#009846" points="85.9876471 14.9428571 95.3738235 9.08571429 95.3738235 27.6571429 86.1302941 34.7142857"></polygon>
            <polygon id="Path" fill="#009846" points="61.2241176 55.7428571 73.0923529 46.9142857 73.6914706 65.7714286 62.3082353 75.6571429"></polygon>
            <polygon id="Path" fill="#E31E24" points="74.5473529 45.7428571 84.8464706 37.8571429 85.1317647 56.1428571 75.0323529 64.7142857"></polygon>
            <polygon id="Path" fill="#0062AC" points="86.2444118 36.8285714 95.3452941 29.9714286 95.3452941 47.4285714 86.4726471 54.9142857"></polygon>
            <polygon id="Path" fill="#0062AC" points="62.5079412 78.0571429 73.8341176 68.3142857 74.4332353 86.0571429 63.4494118 96.5714286"></polygon>
            <polygon id="Path" fill="#FFFFFF" points="75.2320588 66.8571429 85.2744118 58.3714286 85.4455882 75.4857143 75.7170588 84.7714286"></polygon>
            <polygon id="Path" fill="#009846" points="86.5297059 57.3428571 95.3738235 49.5714286 95.4308824 66 86.7008824 74.3428571"></polygon>
        </g>
    </g>
</svg>