<?xml version="1.0" encoding="UTF-8"?>
<svg width="96px" height="100px" viewBox="0 0 96 100" version="1.1" xmlns="http://www.w3.org/2000/svg" xmlns:xlink="http://www.w3.org/1999/xlink">
    <title>big_cubes_4</title>
    <g id="Big_cubes" stroke="none" stroke-width="1" fill="none" fill-rule="evenodd">
        <g id="big_cubes_4" fill-rule="nonzero">
            <polygon id="Path" fill="#000000" points="40.2133333 0.0266666667 95.2533333 7.48 94.56 63.7466667 65.24 99.1866667 10.7466667 79.7066667 0.0266666667 21.92"></polygon>
            <polygon id="Path" fill="#696969" points="57.1333333 27.68 67.04 29.6933333 61.0533333 34.5466667 50.76 32.2933333"></polygon>
            <polygon id="Path" fill="#E31E24" points="63.5066667 22.8266667 73.3066667 24.6933333 67.72 29.0533333 57.92 27.0933333"></polygon>
            <polygon id="Path" fill="#E31E24" points="69.48 18.3866667 79 19.8933333 74.04 24 64.3333333 22.2933333"></polygon>
            <polygon id="Path" fill="#E31E24" points="75.08 14.1466667 84.3466667 15.6266667 79.64 19.4 70.2266667 17.8266667"></polygon>
            <polygon id="Path" fill="#E31E24" points="80.2266667 10.2266667 89.44 11.5066667 84.9733333 15.08 75.8533333 13.6133333"></polygon>
            <polygon id="Path" fill="#696969" points="85.08 6.4 94.32 7.6 90.08 10.96 81.0133333 9.69333333"></polygon>
            <polygon id="Path" fill="#0062AC" points="75.4933333 5.13333333 84.0533333 6.28 79.76 9.49333333 71.08 8.24"></polygon>
            <polygon id="Path" fill="#009846" points="70.3866667 8.65333333 79 9.93333333 74.5866667 13.3466667 65.64 11.9866667"></polygon>
            <polygon id="Path" fill="#009846" points="65.0533333 12.4533333 73.88 13.9066667 68.9466667 17.5066667 59.88 16.0133333"></polygon>
            <polygon id="Path" fill="#009846" points="59.12 16.5733333 68.1333333 18.0933333 62.9333333 22.0266667 53.5466667 20.3733333"></polygon>
            <polygon id="Path" fill="#009846" points="52.9066667 20.96 62.2266667 22.6133333 56.5466667 26.8933333 47.0266667 25.0133333"></polygon>
            <polygon id="Path" fill="#E31E24" points="46.1466667 25.5466667 55.76 27.36 49.68 32 39.8 30.04"></polygon>
            <polygon id="Path" fill="#E31E24" points="36 23.52 44.9466667 25.28 38.6 29.6933333 29.3466667 27.8"></polygon>
            <polygon id="Path" fill="#009846" points="42.72 19.08 51.56 20.6266667 45.7066667 24.72 36.7866667 22.9733333"></polygon>
            <polygon id="Path" fill="#009846" points="49.2133333 14.88 57.8933333 16.2533333 52.3733333 20.1333333 43.6 18.56"></polygon>
            <polygon id="Path" fill="#009846" points="55.1866667 10.96 63.8533333 12.2133333 58.6533333 15.7733333 50.04 14.32"></polygon>
            <polygon id="Path" fill="#009846" points="60.8533333 7.30666667 69.2666667 8.41333333 64.4533333 11.7466667 56.08 10.4266667"></polygon>
            <polygon id="Path" fill="#0062AC" points="65.9333333 3.82666667 74.32 4.93333333 69.7733333 8 61.52 6.84"></polygon>
            <polygon id="Path" fill="#0062AC" points="57.0133333 2.6 64.9066667 3.65333333 60.4933333 6.62666667 52.4533333 5.52"></polygon>
            <polygon id="Path" fill="#009846" points="51.7333333 5.98666667 59.8 7.06666667 54.8266667 10.2533333 46.7066667 9.05333333"></polygon>
            <polygon id="Path" fill="#009846" points="45.9066667 9.54666667 54.12 10.6933333 48.7733333 14.1733333 40.5866667 12.8"></polygon>
            <polygon id="Path" fill="#009846" points="39.68 13.24 47.9866667 14.6666667 42.2933333 18.2666667 34.0133333 16.7733333"></polygon>
            <polygon id="Path" fill="#009846" points="33.1466667 17.2666667 41.68 18.7866667 35.6 22.7066667 27.0266667 21.0933333"></polygon>
            <polygon id="Path" fill="#E31E24" points="26.0666667 21.6533333 34.7733333 23.24 28.1733333 27.4933333 19.3733333 25.6933333"></polygon>
            <polygon id="Path" fill="#E31E24" points="16.8 19.7866667 24.9333333 21.3333333 18.2533333 25.4533333 9.90666667 23.7333333"></polygon>
            <polygon id="Path" fill="#009846" points="23.96 15.6666667 32.0533333 17.0666667 25.8533333 20.8 17.7066667 19.28"></polygon>
            <polygon id="Path" fill="#009846" points="30.6 11.7466667 38.6666667 13.0533333 32.9333333 16.5333333 24.84 15.1333333"></polygon>
            <polygon id="Path" fill="#009846" points="37.1066667 8.06666667 44.8666667 9.26666667 39.4 12.6 31.4666667 11.3333333"></polygon>
            <polygon id="Path" fill="#009846" points="42.8666667 4.70666667 50.6266667 5.74666667 45.5866667 8.8 37.7333333 7.62666667"></polygon>
            <polygon id="Path" fill="#0062AC" points="48.4266667 1.48 56.08 2.41333333 51.44 5.30666667 43.6933333 4.24"></polygon>
            <polygon id="Path" fill="#696969" points="40.36 0.293333333 47.2933333 1.22666667 42.64 3.93333333 35.5333333 3.06666667"></polygon>
            <polygon id="Path" fill="#EF7F1A" points="34.6666667 3.46666667 41.6533333 4.38666667 36.6133333 7.36 29.52 6.28"></polygon>
            <polygon id="Path" fill="#EF7F1A" points="28.6933333 6.74666667 35.7066667 7.85333333 30.28 10.96 23.08 9.84"></polygon>
            <polygon id="Path" fill="#EF7F1A" points="22.0666667 10.28 29.5466667 11.5333333 23.72 14.8666667 16.1866667 13.5066667"></polygon>
            <polygon id="Path" fill="#EF7F1A" points="15.2133333 14.08 22.76 15.3733333 16.4533333 18.9333333 8.70666667 17.56"></polygon>
            <polygon id="Path" fill="#696969" points="7.92 18.0266667 15.72 19.4933333 8.78666667 23.4133333 0.96 21.8533333"></polygon>
            <polygon id="Path" fill="#696969" points="61.9866667 35.28 67.84 30.48 68.3066667 40.7733333 62.5466667 45.92"></polygon>
            <polygon id="Path" fill="#009846" points="68.6533333 29.84 73.9733333 25.4 74.2666667 35.5733333 69 40.28"></polygon>
            <polygon id="Path" fill="#009846" points="74.8266667 24.6933333 79.7866667 20.6666667 79.9733333 30.5333333 75.12 34.92"></polygon>
            <polygon id="Path" fill="#009846" points="80.52 20.1866667 85.2 16.28 85.2 25.9733333 80.6933333 29.8133333"></polygon>
            <polygon id="Path" fill="#009846" points="85.84 15.64 90.2 12.2133333 90.1466667 21.56 85.9333333 25.3066667"></polygon>
            <polygon id="Path" fill="#696969" points="90.8666667 11.6266667 94.8533333 8.32 94.6933333 17.48 90.7866667 20.9866667"></polygon>
            <polygon id="Path" fill="#009846" points="62.72 47.2533333 68.3333333 42.2 68.8 52.1066667 63.2133333 57.4"></polygon>
            <polygon id="Path" fill="#FFED00" points="69.1733333 41.3866667 74.4666667 36.8 74.68 46.4933333 69.5866667 51.44"></polygon>
            <polygon id="Path" fill="#FFED00" points="75.2 36.1466667 80.0533333 31.7733333 80.2666667 41.2133333 75.44 45.7333333"></polygon>
            <polygon id="Path" fill="#FFED00" points="80.76 31.2666667 85.2533333 27.1733333 85.4266667 36.0933333 80.9066667 40.5733333"></polygon>
            <polygon id="Path" fill="#FFED00" points="85.96 26.56 90.1733333 22.76 90.2 31.6266667 86.04 35.6266667"></polygon>
            <polygon id="Path" fill="#009846" points="90.7466667 22.24 94.7066667 18.76 94.5866667 27.4666667 90.7866667 31.2133333"></polygon>
            <polygon id="Path" fill="#FFFFFF" points="63.3333333 58.8133333 68.8666667 53.3733333 69.2133333 62.76 63.8 68.3333333"></polygon>
            <polygon id="Path" fill="#FFED00" points="69.6266667 52.5866667 74.7866667 47.64 75.0533333 56.8266667 69.9733333 62.1066667"></polygon>
            <polygon id="Path" fill="#FFED00" points="75.52 47.0266667 80.1733333 42.4666667 80.3466667 51.4933333 75.6933333 56.24"></polygon>
            <polygon id="Path" fill="#FFED00" points="80.8666667 41.88 85.44 37.3733333 85.4666667 46.3466667 81.0533333 50.8533333"></polygon>
            <polygon id="Path" fill="#FFED00" points="86.0533333 36.9466667 90.1733333 32.8266667 90.2 41.3333333 86.0533333 45.7066667"></polygon>
            <polygon id="Path" fill="#009846" points="90.7866667 32.3466667 94.52 28.6666667 94.5466667 37 90.76 40.8933333"></polygon>
            <polygon id="Path" fill="#FFFFFF" points="64.0133333 69.5333333 69.36 63.9866667 69.6533333 73.0666667 64.3866667 78.68"></polygon>
            <polygon id="Path" fill="#FFED00" points="70.1466667 63.3333333 75.08 58.1333333 75.3733333 66.8666667 70.4933333 72.08"></polygon>
            <polygon id="Path" fill="#FFED00" points="75.8133333 57.4266667 80.4933333 52.5733333 80.5733333 61.2 76.0133333 66.1066667"></polygon>
            <polygon id="Path" fill="#FFED00" points="80.9866667 52.0266667 85.44 47.5466667 85.5733333 55.8266667 81.1733333 60.5066667"></polygon>
            <polygon id="Path" fill="#FFED00" points="86.04 46.8 90.08 42.64 90.1066667 50.8533333 86.08 55.2133333"></polygon>
            <polygon id="Path" fill="#009846" points="90.7466667 41.9466667 94.4933333 38.1066667 94.44 46.1466667 90.6666667 50.16"></polygon>
            <polygon id="Path" fill="#009846" points="64.6133333 79.8 69.8266667 74.1866667 70.12 82.7733333 64.9466667 88.68"></polygon>
            <polygon id="Path" fill="#FFED00" points="70.5866667 73.2533333 75.4133333 68.0666667 75.5866667 76.44 70.84 81.9066667"></polygon>
            <polygon id="Path" fill="#FFED00" points="76.16 67.2266667 80.5466667 62.32 80.5866667 70.7066667 76.28 75.7333333"></polygon>
            <polygon id="Path" fill="#FFED00" points="81.2533333 61.6933333 85.4666667 57.1066667 85.4 65.1866667 81.4 69.8533333"></polygon>
            <polygon id="Path" fill="#FFED00" points="86.1066667 56.5333333 90.0266667 52.0266667 90 59.92 86.1333333 64.3866667"></polygon>
            <polygon id="Path" fill="#009846" points="90.6 51.4666667 94.2933333 47.3733333 94.2933333 55.12 90.6133333 59.24"></polygon>
            <polygon id="Path" fill="#696969" points="65.1733333 89.64 70.24 83.8 70.5333333 92.0933333 65.4933333 98.0933333"></polygon>
            <polygon id="Path" fill="#E31E24" points="71 82.8933333 75.6933333 77.6666667 75.8133333 85.6933333 71.2533333 91.28"></polygon>
            <polygon id="Path" fill="#E31E24" points="76.4 76.7333333 80.76 71.6933333 80.96 79.6266667 76.52 84.9333333"></polygon>
            <polygon id="Path" fill="#E31E24" points="81.48 70.8133333 85.5733333 66.1733333 85.64 73.92 81.6 78.8"></polygon>
            <polygon id="Path" fill="#E31E24" points="86.1866667 65.2933333 90.0533333 61.0266667 90.1066667 68.5066667 86.28 73.2533333"></polygon>
            <polygon id="Path" fill="#696969" points="90.6 60.32 94.2666667 56.1733333 94.2 63.5466667 90.64 67.96"></polygon>
            <polygon id="Path" fill="#696969" points="50.6133333 33.2933333 60.88 35.6533333 61.3466667 46.1733333 51.4133333 43.84"></polygon>
            <polygon id="Path" fill="#FFED00" points="39.5466667 31.0133333 49.3066667 33.1733333 50.04 43.5466667 40.56 41.2666667"></polygon>
            <polygon id="Path" fill="#FFED00" points="29.16 28.8133333 38.32 30.7733333 39.3066667 40.9733333 30.3066667 38.9066667"></polygon>
            <polygon id="Path" fill="#FFED00" points="19.1333333 26.68 27.9066667 28.56 29.0533333 38.5466667 20.5733333 36.6266667"></polygon>
            <polygon id="Path" fill="#FFED00" points="9.58666667 24.6 17.9733333 26.4266667 19.3733333 36.1866667 11.2666667 34.3466667"></polygon>
            <polygon id="Path" fill="#696969" points="0.64 22.76 8.52 24.4266667 10.1333333 33.9866667 2.33333333 32.2133333"></polygon>
            <polygon id="Path" fill="#FFFFFF" points="51.64 45.1333333 61.5466667 47.6933333 62.08 57.5866667 52.3733333 55.04"></polygon>
            <polygon id="Path" fill="#EF7F1A" points="40.7733333 42.5466667 50.1466667 44.8266667 51.0533333 54.7733333 41.7866667 52.3466667"></polygon>
            <polygon id="Path" fill="#EF7F1A" points="30.5733333 40.1066667 39.5066667 42.32 40.56 52.0266667 31.76 49.72"></polygon>
            <polygon id="Path" fill="#EF7F1A" points="20.7466667 37.7066667 29.3333333 39.84 30.48 49.3066667 22.2 47.12"></polygon>
            <polygon id="Path" fill="#EF7F1A" points="11.48 35.5466667 19.64 37.4666667 20.9733333 46.7866667 13 44.7466667"></polygon>
            <polygon id="Path" fill="#0062AC" points="2.6 33.3733333 10.3066667 35.24 11.8266667 44.3733333 4.25333333 42.3466667"></polygon>
            <polygon id="Path" fill="#009846" points="52.4666667 56.44 62.1066667 59.0933333 62.72 68.6266667 53.3066667 65.8533333"></polygon>
            <polygon id="Path" fill="#EF7F1A" points="41.9333333 53.5466667 51.2266667 56.0533333 51.9066667 65.4666667 42.7866667 62.7866667"></polygon>
            <polygon id="Path" fill="#EF7F1A" points="31.9066667 50.8533333 40.68 53.3066667 41.5866667 62.4533333 33 60"></polygon>
            <polygon id="Path" fill="#EF7F1A" points="22.3466667 48.3466667 30.68 50.5866667 31.8 59.6533333 23.64 57.28"></polygon>
            <polygon id="Path" fill="#EF7F1A" points="13.2 46.0266667 21.16 48.16 22.4133333 56.96 14.6666667 54.68"></polygon>
            <polygon id="Path" fill="#0062AC" points="4.44 43.5466667 12.0133333 45.6 13.56 54.4266667 6.04 52.1466667"></polygon>
            <polygon id="Path" fill="#009846" points="53.3333333 67.0533333 62.8933333 69.8533333 63.3333333 79.0266667 54.0133333 76.08"></polygon>
            <polygon id="Path" fill="#EF7F1A" points="43.08 64.0666667 52.0533333 66.6933333 52.8666667 75.68 43.92 72.9466667"></polygon>
            <polygon id="Path" fill="#EF7F1A" points="33.2 61.2266667 41.76 63.72 42.6133333 72.4933333 34.2533333 69.8533333"></polygon>
            <polygon id="Path" fill="#EF7F1A" points="23.8666667 58.4533333 31.9733333 60.9333333 33.1333333 69.5866667 25.0666667 67.0533333"></polygon>
            <polygon id="Path" fill="#EF7F1A" points="14.8933333 55.9066667 22.56 58.1333333 23.88 66.7066667 16.1866667 64.28"></polygon>
            <polygon id="Path" fill="#0062AC" points="6.28 53.3333333 13.76 55.6133333 15.16 63.92 7.82666667 61.6133333"></polygon>
            <polygon id="Path" fill="#FFFFFF" points="54.16 77.2266667 63.4533333 80.2666667 63.9733333 89 54.8 85.84"></polygon>
            <polygon id="Path" fill="#EF7F1A" points="44.1066667 74.0666667 52.9066667 76.8933333 53.5733333 85.44 44.92 82.4266667"></polygon>
            <polygon id="Path" fill="#EF7F1A" points="34.3733333 70.9733333 42.8133333 73.7466667 43.6666667 82.1866667 35.48 79.2933333"></polygon>
            <polygon id="Path" fill="#EF7F1A" points="25.3333333 68.1866667 33.2266667 70.64 34.3333333 79 26.3866667 76.28"></polygon>
            <polygon id="Path" fill="#EF7F1A" points="16.4133333 65.3333333 24.08 67.7733333 25.3066667 76 17.7866667 73.4533333"></polygon>
            <polygon id="Path" fill="#0062AC" points="8.02666667 62.7866667 15.36 65.0266667 16.6533333 73.0666667 9.46666667 70.7333333"></polygon>
            <polygon id="Path" fill="#696969" points="54.9466667 86.96 64.04 90.08 64.5333333 98.36 55.5866667 95.1733333"></polygon>
            <polygon id="Path" fill="#FFED00" points="45.0133333 83.6266667 53.72 86.6 54.36 94.7333333 45.7733333 91.5733333"></polygon>
            <polygon id="Path" fill="#FFED00" points="35.6266667 80.44 43.8933333 83.36 44.6933333 91.3466667 36.56 88.36"></polygon>
            <polygon id="Path" fill="#FFED00" points="26.6133333 77.3333333 34.4266667 80.12 35.3866667 88.0133333 27.7066667 85.2266667"></polygon>
            <polygon id="Path" fill="#FFED00" points="17.9066667 74.48 25.4266667 77.04 26.5866667 84.88 19.1066667 82.1333333"></polygon>
            <polygon id="Path" fill="#696969" points="9.58666667 71.5733333 16.7466667 74.16 18.08 81.84 11.0933333 79.36"></polygon>
        </g>
    </g>
</svg>