<?xml version="1.0" encoding="UTF-8"?>
<svg width="96px" height="100px" viewBox="0 0 96 100" version="1.1" xmlns="http://www.w3.org/2000/svg" xmlns:xlink="http://www.w3.org/1999/xlink">
    <title>big_cubes_3</title>
    <g id="Big_cubes" stroke="none" stroke-width="1" fill="none" fill-rule="evenodd">
        <g id="big_cubes_3" fill-rule="nonzero">
            <polygon id="Path" fill="#000000" points="0.0342857143 20.2057143 43.04 0.0342857143 95.3942857 8.02285714 94.9714286 64.5371429 61.4971429 98.5828571 10.9828571 77.1657143"></polygon>
            <polygon id="Path" fill="#696969" points="53.1657143 25.5885714 64.3542857 28.0914286 56.2628571 33.5542857 44.6628571 30.72"></polygon>
            <polygon id="Path" fill="#009846" points="61.7485714 20.24 72.7885714 22.5028571 65.3942857 27.4057143 54.1028571 24.9485714"></polygon>
            <polygon id="Path" fill="#009846" points="69.6228571 15.3371429 80.5257143 17.3142857 73.7257143 21.8628571 62.6628571 19.6342857"></polygon>
            <polygon id="Path" fill="#009846" points="77.04 10.8342857 87.52 12.5485714 81.4171429 16.6971429 70.6857143 14.8"></polygon>
            <polygon id="Path" fill="#696969" points="83.8171429 6.60571429 94.1942857 8.17142857 88.32 12 77.92 10.2514286"></polygon>
            <polygon id="Path" fill="#FFED00" points="41.2228571 22.9485714 51.5542857 25.2342857 43.0514286 30.3885714 32.4914286 27.8171429"></polygon>
            <polygon id="Path" fill="#009846" points="50.0342857 17.8857143 60.2857143 19.92 52.56 24.5485714 42.24 22.3428571"></polygon>
            <polygon id="Path" fill="#009846" points="58.2057143 13.2114286 68.2285714 15.0514286 61.3257143 19.36 50.9485714 17.28"></polygon>
            <polygon id="Path" fill="#009846" points="65.7714286 8.88 75.6457143 10.5714286 69.12 14.5485714 59.0628571 12.6742857"></polygon>
            <polygon id="Path" fill="#FFFFFF" points="72.6628571 4.88 82.48 6.37714286 76.56 10.0228571 66.7314286 8.42285714"></polygon>
            <polygon id="Path" fill="#FFED00" points="29.9085714 20.4685714 39.6571429 22.5942857 31.1314286 27.4057143 21.28 25.0514286"></polygon>
            <polygon id="Path" fill="#009846" points="39.0971429 15.6342857 48.3885714 17.6114286 40.7657143 21.9885714 31.0057143 19.8628571"></polygon>
            <polygon id="Path" fill="#009846" points="47.3485714 11.2342857 56.64 12.9828571 49.4971429 16.9828571 40.0114286 15.1085714"></polygon>
            <polygon id="Path" fill="#009846" points="55.0742857 7.18857143 64.3085714 8.70857143 57.8057143 12.3771429 48.24 10.7314286"></polygon>
            <polygon id="Path" fill="#FFFFFF" points="62.1828571 3.33714286 71.3714286 4.65142857 65.4171429 8.12571429 56.0342857 6.58285714"></polygon>
            <polygon id="Path" fill="#FFED00" points="19.4857143 18.1485714 28.5714286 20.1485714 20.0114286 24.7542857 10.9028571 22.4457143"></polygon>
            <polygon id="Path" fill="#009846" points="28.6171429 13.5885714 37.8057143 15.3828571 29.6571429 19.5885714 20.8 17.5657143"></polygon>
            <polygon id="Path" fill="#009846" points="37.12 9.38285714 45.9314286 11.0057143 38.6171429 14.8571429 29.8857143 13.0057143"></polygon>
            <polygon id="Path" fill="#009846" points="45.0971429 5.46285714 53.7828571 6.88 46.8457143 10.48 38.2171429 8.83428571"></polygon>
            <polygon id="Path" fill="#FFFFFF" points="52.3314286 1.77142857 60.8914286 3.08571429 54.6628571 6.29714286 46.0342857 4.98285714"></polygon>
            <polygon id="Path" fill="#696969" points="9.86285714 15.8971429 18.2742857 17.8628571 9.61142857 22.1485714 1.06285714 20.0685714"></polygon>
            <polygon id="Path" fill="#E31E24" points="19.0285714 11.5428571 27.4857143 13.3371429 19.5314286 17.28 10.9257143 15.4057143"></polygon>
            <polygon id="Path" fill="#E31E24" points="27.5542857 7.61142857 35.8971429 9.12 28.4342857 12.7314286 20.0914286 11.0857143"></polygon>
            <polygon id="Path" fill="#E31E24" points="35.68 3.81714286 43.7028571 5.16571429 36.9714286 8.62857143 28.6171429 7.10857143"></polygon>
            <polygon id="Path" fill="#696969" points="36.6742857 3.39428571 43.1428571 0.354285714 51.12 1.54285714 44.7885714 4.73142857"></polygon>
            <polygon id="Path" fill="#696969" points="44.4342857 32.0342857 55.7828571 34.8228571 56.7428571 47.6342857 45.6571429 44.64"></polygon>
            <polygon id="Path" fill="#009846" points="32.2628571 29.0057143 42.8457143 31.7142857 44.16 44.1142857 33.7371429 41.0971429"></polygon>
            <polygon id="Path" fill="#009846" points="20.9485714 26.1942857 30.9028571 28.8228571 32.3885714 40.6742857 22.7542857 38.0114286"></polygon>
            <polygon id="Path" fill="#009846" points="10.5485714 23.6114286 19.6342857 26.0114286 21.4285714 37.6114286 12.4228571 35.0971429"></polygon>
            <polygon id="Path" fill="#696969" points="0.651428571 21.2114286 9.25714286 23.3828571 11.1542857 34.6971429 2.85714286 32.3885714"></polygon>
            <polygon id="Path" fill="#0062AC" points="45.8514286 46.16 56.8685714 49.2685714 57.7485714 61.2685714 46.9942857 57.8057143"></polygon>
            <polygon id="Path" fill="#FFED00" points="34.0571429 42.8457143 44.2857143 45.6 45.4742857 57.3485714 35.4057143 54.0342857"></polygon>
            <polygon id="Path" fill="#FFED00" points="22.9257143 39.5314286 32.5485714 42.3428571 33.9885714 53.5314286 24.6171429 50.4914286"></polygon>
            <polygon id="Path" fill="#FFED00" points="12.6057143 36.5142857 21.6342857 39.12 23.28 50.1828571 14.5485714 47.3257143"></polygon>
            <polygon id="Path" fill="#E31E24" points="3.02857143 33.8057143 11.3828571 36.16 13.3371429 46.9942857 5.10857143 44.3885714"></polygon>
            <polygon id="Path" fill="#0062AC" points="47.2 59.4285714 57.9085714 62.9371429 58.8114286 74.1485714 48.2628571 70.3085714"></polygon>
            <polygon id="Path" fill="#FFED00" points="35.68 55.5771429 45.7028571 58.9371429 46.7657143 69.8742857 36.9942857 66.3542857"></polygon>
            <polygon id="Path" fill="#FFED00" points="24.9485714 52.1828571 34.2857143 55.12 35.5771429 65.8742857 26.4914286 62.5371429"></polygon>
            <polygon id="Path" fill="#FFED00" points="14.8 48.7657143 23.5085714 51.6228571 25.1085714 62.16 16.5942857 59.1428571"></polygon>
            <polygon id="Path" fill="#009846" points="5.44 45.7028571 13.5085714 48.3885714 15.3142857 58.6171429 7.29142857 55.7257143"></polygon>
            <polygon id="Path" fill="#FFED00" points="48.4914286 71.7942857 58.8914286 75.6457143 59.7257143 86.2742857 49.4971429 82.2057143"></polygon>
            <polygon id="Path" fill="#FFED00" points="37.2228571 67.8057143 46.8685714 71.3714286 48.0342857 81.6457143 38.4685714 77.8171429"></polygon>
            <polygon id="Path" fill="#FFED00" points="26.6742857 64 35.8057143 67.2685714 37.1542857 77.44 28.1942857 73.9542857"></polygon>
            <polygon id="Path" fill="#FFED00" points="16.7771429 60.4114286 25.3257143 63.3942857 26.9714286 73.4742857 18.4457143 70.1828571"></polygon>
            <polygon id="Path" fill="#FFFFFF" points="7.50857143 57.0971429 15.5885714 59.9771429 17.3371429 69.7257143 9.33714286 66.4114286"></polygon>
            <polygon id="Path" fill="#696969" points="49.6228571 83.6457143 59.9314286 87.6914286 60.5828571 97.7714286 50.6171429 93.4628571"></polygon>
            <polygon id="Path" fill="#0062AC" points="38.64 79.2114286 48.16 83.0057143 49.2228571 92.9828571 39.8857143 88.9828571"></polygon>
            <polygon id="Path" fill="#0062AC" points="28.3428571 75.1885714 37.2571429 78.7085714 38.5714286 88.4571429 29.76 84.7314286"></polygon>
            <polygon id="Path" fill="#0062AC" points="18.6742857 71.2914286 27.1542857 74.8114286 28.5257143 84.2285714 20.3657143 80.7314286"></polygon>
            <polygon id="Path" fill="#696969" points="9.63428571 67.7714286 17.5085714 70.9371429 19.1085714 80.1714286 11.4057143 76.96"></polygon>
            <polygon id="Path" fill="#696969" points="57.1657143 34.6514286 65.1885714 29.0742857 65.9314286 41.5542857 58.1028571 47.4057143"></polygon>
            <polygon id="Path" fill="#E31E24" points="66.3314286 28.3657143 73.6685714 23.4628571 74.08 35.5542857 66.9942857 40.72"></polygon>
            <polygon id="Path" fill="#E31E24" points="74.7542857 22.6971429 81.36 18.1942857 81.5885714 29.8857143 75.0628571 34.7771429"></polygon>
            <polygon id="Path" fill="#E31E24" points="82.3542857 17.5657143 88.4571429 13.44 88.5257143 24.72 82.5257143 29.2"></polygon>
            <polygon id="Path" fill="#696969" points="89.4171429 12.8 94.9828571 9.02857143 94.9257143 20.0228571 89.36 24.0914286"></polygon>
            <polygon id="Path" fill="#FFFFFF" points="58.3314286 48.9714286 66.0228571 43.2 66.64 54.9485714 59.1428571 61.0971429"></polygon>
            <polygon id="Path" fill="#E31E24" points="67.12 42.3657143 74.1485714 37.1314286 74.56 48.4342857 67.7028571 54.0114286"></polygon>
            <polygon id="Path" fill="#E31E24" points="75.1885714 36.4457143 81.6457143 31.4057143 81.8971429 42.4457143 75.5657143 47.68"></polygon>
            <polygon id="Path" fill="#E31E24" points="82.6514286 30.8228571 88.5485714 26.1942857 88.6285714 36.9485714 82.8571429 41.6114286"></polygon>
            <polygon id="Path" fill="#009846" points="89.3828571 25.7142857 94.9028571 21.4857143 94.88 31.8057143 89.44 36.2857143"></polygon>
            <polygon id="Path" fill="#FFFFFF" points="59.2914286 62.6171429 66.7657143 56.4114286 67.3714286 67.4514286 60.08 73.8742857"></polygon>
            <polygon id="Path" fill="#E31E24" points="67.8514286 55.6228571 74.6285714 49.9085714 75.0628571 60.6628571 68.4342857 66.56"></polygon>
            <polygon id="Path" fill="#E31E24" points="75.6914286 49.0514286 81.8971429 43.9885714 82.1028571 54.4342857 76 59.7485714"></polygon>
            <polygon id="Path" fill="#E31E24" points="82.9142857 43.1771429 88.6285714 38.4114286 88.7085714 48.5371429 83.04 53.6"></polygon>
            <polygon id="Path" fill="#FFED00" points="89.44 37.8057143 94.88 33.2228571 94.7771429 43.2228571 89.5428571 47.8057143"></polygon>
            <polygon id="Path" fill="#E31E24" points="60.2857143 75.44 67.52 68.8342857 68.0571429 79.2685714 61.04 85.8971429"></polygon>
            <polygon id="Path" fill="#E31E24" points="68.5828571 68 75.1885714 62.0342857 75.4628571 72.2057143 69.04 78.4"></polygon>
            <polygon id="Path" fill="#E31E24" points="76.08 61.2 82.2057143 55.7828571 82.4 65.6228571 76.4342857 71.2914286"></polygon>
            <polygon id="Path" fill="#E31E24" points="83.1085714 54.9942857 88.7314286 49.9542857 88.7771429 59.5771429 83.2342857 64.8914286"></polygon>
            <polygon id="Path" fill="#009846" points="89.6114286 49.2457143 94.7314286 44.5371429 94.6514286 54.0342857 89.6114286 58.9142857"></polygon>
            <polygon id="Path" fill="#696969" points="61.2685714 87.4171429 68.1828571 80.7314286 68.7085714 90.6742857 61.8057143 97.5657143"></polygon>
            <polygon id="Path" fill="#EF7F1A" points="69.2457143 79.6228571 75.5428571 73.5657143 75.9771429 83.2114286 69.6457143 89.6914286"></polygon>
            <polygon id="Path" fill="#EF7F1A" points="76.56 72.7885714 82.4 67.0971429 82.6057143 76.4342857 76.8342857 82.3542857"></polygon>
            <polygon id="Path" fill="#EF7F1A" points="83.2914286 66.2285714 88.8114286 60.8685714 88.8114286 70.2285714 83.44 75.7257143"></polygon>
            <polygon id="Path" fill="#696969" points="89.6457143 60.1828571 94.6285714 55.3028571 94.6057143 64.3885714 89.6457143 69.3714286"></polygon>
        </g>
    </g>
</svg>