<?xml version="1.0" encoding="UTF-8"?>
<svg width="96px" height="100px" viewBox="0 0 96 100" version="1.1" xmlns="http://www.w3.org/2000/svg" xmlns:xlink="http://www.w3.org/1999/xlink">
    <title>freeslice_5</title>
    <g id="Big_cubes" stroke="none" stroke-width="1" fill="none" fill-rule="evenodd">
        <g id="freeslice_5" fill-rule="nonzero">
            <path d="M0.920127796,15.46875 L44.1661342,0.15625 C44.4728435,0 44.7795527,0 45.086262,0.15625 L95.0798722,10.3125 C95.8466454,10.46875 96,10.78125 95.8466454,11.5625 L91.2460064,68.59375 C91.2460064,69.0625 91.0926518,69.21875 90.7859425,69.53125 L56.2811502,99.53125 C55.8210863,99.84375 55.514377,100 55.0543131,99.6875 L7.82108626,75.46875 C7.66773163,75.3125 7.514377,75.15625 7.514377,75 L0.153354633,17.03125 C7.63278329e-16,16.40625 0.153354633,16.09375 0.920127796,15.78125 L0.920127796,15.46875 Z" id="Path" fill="#000000"></path>
            <polygon id="Path" fill="#696969" points="53.2140575 23.59375 62.8753994 26.09375 55.514377 29.84375 45.086262 27.03125"></polygon>
            <polygon id="Path" fill="#696969" points="62.2619808 19.53125 71.4632588 21.71875 65.0223642 25 55.2076677 22.65625"></polygon>
            <polygon id="Path" fill="#696969" points="70.543131 15.78125 79.5910543 17.96875 73.456869 20.78125 63.9488818 18.4375"></polygon>
            <polygon id="Path" fill="#696969" points="77.5974441 12.5 86.798722 14.375 80.971246 17.1875 72.0766773 15"></polygon>
            <polygon id="Path" fill="#696969" points="84.4984026 9.21875 93.5463259 10.9375 88.485623 13.59375 79.1309904 11.5625"></polygon>
            <polygon id="Path" fill="#696969" points="41.4057508 20.3125 50.6070288 22.8125 42.6325879 26.25 33.4313099 23.75"></polygon>
            <polygon id="Path" fill="#696969" points="51.0670927 16.71875 59.5015974 18.75 52.4472843 21.71875 43.399361 19.6875"></polygon>
            <polygon id="Path" fill="#696969" points="59.1948882 13.4375 67.4760383 15.3125 61.4952077 17.8125 52.600639 15.9375"></polygon>
            <polygon id="Path" fill="#696969" points="66.8626198 10.15625 74.9904153 11.875 69.1629393 14.53125 60.7284345 12.5"></polygon>
            <polygon id="Path" fill="#696969" points="73.7635783 7.03125 82.1980831 8.59375 76.8306709 11.09375 68.3961661 9.375"></polygon>
            <polygon id="Path" fill="#696969" points="30.5175719 17.65625 38.9520767 19.53125 30.9776358 23.125 23.0031949 20.9375"></polygon>
            <polygon id="Path" fill="#696969" points="40.1789137 14.21875 48.1533546 16.09375 41.0990415 18.75 32.8178914 16.71875"></polygon>
            <polygon id="Path" fill="#696969" points="48.6134185 11.09375 56.5878594 12.8125 50.3003195 15.46875 42.172524 13.4375"></polygon>
            <polygon id="Path" fill="#696969" points="56.4345048 7.96875 64.2555911 9.6875 58.1214058 12.1875 50.4536741 10.3125"></polygon>
            <polygon id="Path" fill="#696969" points="63.7955272 4.84375 71.4632588 6.5625 66.0958466 8.90625 58.428115 7.1875"></polygon>
            <polygon id="Path" fill="#696969" points="20.5495208 15.46875 28.2172524 17.1875 20.7028754 20.46875 12.8817891 18.4375"></polygon>
            <polygon id="Path" fill="#696969" points="29.9041534 12.03125 37.2651757 13.75 30.057508 16.40625 22.3897764 14.6875"></polygon>
            <polygon id="Path" fill="#696969" points="38.6453674 8.75 45.8530351 10.625 39.4121406 12.96875 31.7444089 11.25"></polygon>
            <polygon id="Path" fill="#696969" points="46.4664537 5.9375 53.827476 7.5 47.6932907 9.84375 40.485623 8.125"></polygon>
            <polygon id="Path" fill="#696969" points="53.9808307 2.96875 61.4952077 4.375 55.514377 6.71875 48 5"></polygon>
            <polygon id="Path" fill="#696969" points="11.3482428 12.96875 18.2492013 14.6875 10.1214058 17.8125 3.06709265 15.9375"></polygon>
            <polygon id="Path" fill="#696969" points="21.0095847 9.6875 27.6038339 11.40625 20.0894569 13.90625 13.6485623 12.34375"></polygon>
            <polygon id="Path" fill="#696969" points="30.2108626 6.5625 36.3450479 8.28125 29.5974441 10.625 23.1565495 9.0625"></polygon>
            <polygon id="Path" fill="#696969" points="37.7252396 3.90625 44.0127796 5.46875 38.1853035 7.5 31.5910543 5.9375"></polygon>
            <polygon id="Path" fill="#696969" points="44.7795527 1.09375 52.2939297 2.5 45.8530351 4.6875 38.9520767 3.28125"></polygon>
            <polygon id="Path" fill="#696969" points="44.0127796 30.3125 53.5207668 32.96875 53.3674121 44.53125 44.0127796 41.71875"></polygon>
            <polygon id="Path" fill="#696969" points="32.0511182 27.03125 40.9456869 29.53125 41.0990415 40.78125 32.2044728 37.65625"></polygon>
            <polygon id="Path" fill="#696969" points="21.4696486 24.0625 29.5974441 26.40625 29.9041534 37.34375 22.0830671 34.84375"></polygon>
            <polygon id="Path" fill="#696969" points="11.1948882 21.40625 19.0159744 23.59375 19.4760383 33.75 12.115016 31.71875"></polygon>
            <polygon id="Path" fill="#696969" points="1.84025559 19.0625 8.89456869 20.9375 9.50798722 30.78125 3.06709265 29.0625"></polygon>
            <polygon id="Path" fill="#696969" points="44.1661342 45 53.3674121 48.125 53.5207668 59.21875 44.3194888 55.625"></polygon>
            <polygon id="Path" fill="#696969" points="32.6645367 41.5625 41.2523962 44.53125 41.4057508 54.53125 33.1246006 51.5625"></polygon>
            <polygon id="Path" fill="#696969" points="22.3897764 37.96875 30.2108626 40.46875 30.5175719 50.9375 23.0031949 48.125"></polygon>
            <polygon id="Path" fill="#696969" points="12.2683706 34.84375 19.9361022 37.03125 20.7028754 47.1875 13.1884984 44.84375"></polygon>
            <polygon id="Path" fill="#696969" points="3.37380192 31.875 10.1214058 34.0625 11.0415335 43.90625 4.60063898 41.71875"></polygon>
            <polygon id="Path" fill="#FFFFFF" points="44.3194888 58.90625 53.3674121 62.34375 53.5207668 72.8125 44.7795527 69.0625"></polygon>
            <polygon id="Path" fill="#696969" points="33.4313099 54.6875 41.7124601 57.8125 42.0191693 67.65625 33.7380192 64.21875"></polygon>
            <polygon id="Path" fill="#696969" points="23.3099042 50.78125 30.8242812 53.75 31.284345 63.125 23.9233227 60.15625"></polygon>
            <polygon id="Path" fill="#696969" points="13.8019169 47.5 20.85623 50.15625 21.6230032 59.21875 14.5686901 56.5625"></polygon>
            <polygon id="Path" fill="#696969" points="5.06070288 44.21875 11.3482428 46.71875 12.115016 55.625 6.1341853 53.28125"></polygon>
            <polygon id="Path" fill="#FFFFFF" points="45.086262 72.03125 53.5207668 75.3125 53.6741214 84.84375 45.3929712 81.09375"></polygon>
            <polygon id="Path" fill="#696969" points="34.1980831 67.03125 42.4792332 70.625 42.7859425 80.15625 34.658147 76.25"></polygon>
            <polygon id="Path" fill="#696969" points="24.3833866 62.96875 31.7444089 65.9375 32.3578275 75 25.1501597 71.5625"></polygon>
            <polygon id="Path" fill="#696969" points="15.3354633 58.90625 22.0830671 61.875 22.6964856 70.78125 16.1022364 67.65625"></polygon>
            <polygon id="Path" fill="#FFFFFF" points="6.1341853 55.15625 12.8817891 58.125 13.9552716 66.875 7.36102236 64.0625"></polygon>
            <polygon id="Path" fill="#696969" points="45.5463259 84.0625 53.827476 87.65625 53.9808307 97.1875 45.6996805 92.96875"></polygon>
            <polygon id="Path" fill="#696969" points="34.8115016 78.90625 42.7859425 82.65625 43.0926518 91.71875 35.2715655 87.65625"></polygon>
            <polygon id="Path" fill="#696969" points="25.3035144 74.375 32.5111821 77.8125 32.971246 86.40625 25.7635783 82.8125"></polygon>
            <polygon id="Path" fill="#696969" points="16.5623003 70 23.0031949 73.125 23.7699681 81.71875 17.1757188 78.28125"></polygon>
            <polygon id="Path" fill="#696969" points="7.82108626 66.09375 14.4153355 69.21875 15.3354633 77.34375 8.58785942 73.90625"></polygon>
            <polygon id="Path" fill="#696969" points="57.8146965 32.8125 65.0223642 29.375 64.8690096 40.78125 57.6613419 45"></polygon>
            <polygon id="Path" fill="#696969" points="67.1693291 28.28125 73.9169329 25 73.456869 35.9375 67.0159744 39.21875"></polygon>
            <polygon id="Path" fill="#696969" points="75.9105431 24.0625 81.7380192 20.9375 81.1246006 31.5625 75.2971246 34.6875"></polygon>
            <polygon id="Path" fill="#696969" points="83.4249201 20 88.9456869 17.1875 88.0255591 27.8125 82.8115016 30.625"></polygon>
            <polygon id="Path" fill="#696969" points="90.3258786 16.5625 94.4664537 14.0625 93.6996805 24.6875 89.4057508 26.875"></polygon>
            <polygon id="Path" fill="#696969" points="57.5079872 48.28125 64.8690096 44.0625 64.715655 54.6875 57.5079872 59.21875"></polygon>
            <polygon id="Path" fill="#696969" points="66.8626198 42.8125 73.456869 39.21875 72.9968051 49.21875 66.5559105 53.4375"></polygon>
            <polygon id="Path" fill="#696969" points="75.2971246 37.8125 81.1246006 34.375 80.5111821 44.21875 74.6837061 48.125"></polygon>
            <polygon id="Path" fill="#696969" points="82.658147 33.4375 88.0255591 30.3125 87.4121406 39.84375 82.0447284 43.59375"></polygon>
            <polygon id="Path" fill="#696969" points="89.7124601 29.375 93.3929712 27.34375 92.7795527 36.40625 88.9456869 38.75"></polygon>
            <polygon id="Path" fill="#E31E24" points="57.6613419 62.5 64.4089457 57.96875 64.2555911 67.8125 57.3546326 72.96875"></polygon>
            <polygon id="Path" fill="#696969" points="66.2492013 56.5625 72.5367412 52.1875 72.0766773 61.71875 65.942492 66.5625"></polygon>
            <polygon id="Path" fill="#696969" points="74.3769968 50.9375 80.2044728 47.34375 79.4376997 56.71875 73.7635783 60.78125"></polygon>
            <polygon id="Path" fill="#696969" points="81.5846645 46.09375 86.6453674 42.8125 86.0319489 51.71875 81.2779553 55.46875"></polygon>
            <polygon id="Path" fill="#696969" points="88.3322684 41.5625 92.6261981 38.75 92.0127796 47.5 87.7188498 50.625"></polygon>
            <polygon id="Path" fill="#E31E24" points="57.8146965 75.46875 64.4089457 70.46875 64.1022364 80.15625 57.8146965 85.15625"></polygon>
            <polygon id="Path" fill="#696969" points="66.4025559 69.0625 72.2300319 64.375 71.7699681 73.90625 65.942492 78.28125"></polygon>
            <polygon id="Path" fill="#696969" points="74.0702875 63.28125 79.4376997 59.21875 78.8242812 67.96875 73.456869 72.5"></polygon>
            <polygon id="Path" fill="#696969" points="80.971246 57.96875 85.8785942 54.21875 85.1118211 62.65625 80.5111821 66.71875"></polygon>
            <polygon id="Path" fill="#696969" points="87.4121406 53.125 91.8594249 49.53125 91.0926518 57.8125 86.6453674 61.71875"></polygon>
            <polygon id="Path" fill="#696969" points="57.3546326 87.96875 63.9488818 82.5 63.6421725 91.40625 57.201278 97.1875"></polygon>
            <polygon id="Path" fill="#696969" points="65.6357827 81.40625 71.6166134 76.25 71.3099042 84.84375 65.3290735 90"></polygon>
            <polygon id="Path" fill="#696969" points="73.3035144 74.84375 78.6709265 70.46875 78.2108626 78.59375 72.6900958 83.59375"></polygon>
            <polygon id="Path" fill="#696969" points="80.2044728 69.375 84.9584665 65.46875 84.4984026 73.28125 79.7444089 77.65625"></polygon>
            <polygon id="Path" fill="#696969" points="86.3386581 64.375 90.9392971 60.625 90.172524 68.59375 85.7252396 72.1875"></polygon>
        </g>
    </g>
</svg>