<?xml version="1.0" encoding="UTF-8"?>
<svg width="202px" height="100px" viewBox="0 0 202 100" version="1.1" xmlns="http://www.w3.org/2000/svg" xmlns:xlink="http://www.w3.org/1999/xlink">
    <title>freeslice_2</title>
    <g id="Big_cubes" stroke="none" stroke-width="1" fill="none" fill-rule="evenodd">
        <g id="freeslice_2" transform="translate(0.000000, 0.000000)" fill-rule="nonzero">
            <path d="M0.390715667,15.2941176 L44.5415861,0 C44.9323017,0 45.3230174,0 45.3230174,0 L96.5067698,10.1960784 C97.2882012,10.1960784 97.2882012,10.5882353 97.2882012,11.372549 L92.5996132,68.627451 C92.5996132,69.0196078 92.5996132,69.4117647 92.2088975,69.4117647 L57.0444874,99.6078431 C56.6537718,100 56.2630561,100 55.8723404,99.6078431 L7.81431335,75.2941176 C7.42359768,75.2941176 7.42359768,74.9019608 7.42359768,74.9019608 L0,16.4705882 C0,15.6862745 0,15.6862745 0.781431335,15.2941176 L0.390715667,15.2941176 Z" id="Path" fill="#000000"></path>
            <polygon id="Path" fill="#009846" points="44.5415861 30.1960784 54.3094778 32.9411765 53.9187621 44.3137255 44.5415861 41.5686275"></polygon>
            <polygon id="Path" fill="#009846" points="32.0386847 26.6666667 41.4158607 29.4117647 41.4158607 40.7843137 32.4294004 37.6470588"></polygon>
            <polygon id="Path" fill="#009846" points="21.4893617 23.9215686 29.6943907 26.2745098 30.0851064 37.254902 21.8800774 34.5098039"></polygon>
            <polygon id="Path" fill="#009846" points="10.9400387 21.1764706 18.754352 23.5294118 19.5357834 33.7254902 11.72147 31.372549"></polygon>
            <polygon id="Path" fill="#009846" points="1.172147 18.8235294 8.59574468 20.7843137 9.37717602 30.5882353 2.344294 29.0196078"></polygon>
            <polygon id="Path" fill="#009846" points="44.5415861 44.7058824 53.9187621 47.8431373 54.3094778 59.2156863 44.9323017 55.6862745"></polygon>
            <polygon id="Path" fill="#009846" points="32.8201161 41.5686275 41.8065764 44.3137255 41.8065764 54.5098039 33.2108317 51.372549"></polygon>
            <polygon id="Path" fill="#009846" points="22.270793 37.6470588 30.0851064 40.3921569 30.4758221 50.9803922 23.0522244 47.8431373"></polygon>
            <polygon id="Path" fill="#009846" points="12.1121857 34.5098039 19.926499 36.8627451 20.7079304 47.0588235 12.893617 44.7058824"></polygon>
            <polygon id="Path" fill="#009846" points="3.12572534 31.7647059 9.76789168 34.1176471 10.9400387 43.9215686 4.29787234 41.5686275"></polygon>
            <polygon id="Path" fill="#009846" points="44.9323017 58.8235294 53.9187621 62.3529412 54.3094778 72.9411765 45.3230174 69.0196078"></polygon>
            <polygon id="Path" fill="#009846" points="33.6015474 54.5098039 42.1972921 57.6470588 42.1972921 67.8431373 33.9922631 64.3137255"></polygon>
            <polygon id="Path" fill="#009846" points="23.0522244 50.5882353 30.8665377 53.7254902 31.2572534 63.1372549 23.8336557 60.3921569"></polygon>
            <polygon id="Path" fill="#009846" points="13.6750484 47.4509804 20.7079304 50.1960784 21.4893617 59.2156863 14.4564797 56.4705882"></polygon>
            <polygon id="Path" fill="#009846" points="4.68858801 43.9215686 10.9400387 46.6666667 11.72147 55.6862745 5.86073501 53.3333333"></polygon>
            <polygon id="Path" fill="#009846" points="45.7137331 72.1568627 54.3094778 75.2941176 54.3094778 85.0980392 45.7137331 81.1764706"></polygon>
            <polygon id="Path" fill="#009846" points="34.3829787 67.0588235 42.9787234 70.5882353 42.9787234 80.3921569 34.7736944 76.4705882"></polygon>
            <polygon id="Path" fill="#009846" points="24.2243714 62.745098 32.0386847 65.8823529 32.4294004 74.9019608 25.0058027 71.7647059"></polygon>
            <polygon id="Path" fill="#009846" points="15.237911 58.8235294 21.8800774 61.9607843 22.6615087 70.5882353 16.0193424 67.8431373"></polygon>
            <polygon id="Path" fill="#009846" points="5.86073501 55.2941176 12.5029014 58.0392157 13.6750484 67.0588235 7.03288201 63.9215686"></polygon>
            <polygon id="Path" fill="#009846" points="45.7137331 84.3137255 54.3094778 87.8431373 54.7001934 97.254902 46.1044487 93.3333333"></polygon>
            <polygon id="Path" fill="#009846" points="35.1644101 78.8235294 42.9787234 82.745098 43.3694391 91.7647059 35.5551257 87.8431373"></polygon>
            <polygon id="Path" fill="#009846" points="25.3965184 74.5098039 32.8201161 78.0392157 33.2108317 86.6666667 25.787234 82.745098"></polygon>
            <polygon id="Path" fill="#009846" points="16.410058 70.1960784 23.0522244 73.3333333 23.8336557 81.9607843 16.8007737 78.4313725"></polygon>
            <polygon id="Path" fill="#009846" points="7.42359768 65.8823529 14.065764 69.4117647 15.237911 77.6470588 8.20502901 74.1176471"></polygon>
            <polygon id="Path" fill="#FFFFFF" points="53.9187621 23.5294118 63.6866538 25.8823529 56.2630561 29.8039216 45.3230174 26.6666667"></polygon>
            <polygon id="Path" fill="#FFFFFF" points="63.2959381 19.2156863 72.2823985 21.5686275 66.0309478 24.7058824 55.8723404 22.3529412"></polygon>
            <polygon id="Path" fill="#FFFFFF" points="71.5009671 15.6862745 80.8781431 17.6470588 74.6266925 20.3921569 64.8588008 18.0392157"></polygon>
            <polygon id="Path" fill="#FFFFFF" points="78.5338491 12.1568627 88.3017408 14.1176471 82.0502901 16.8627451 73.0638298 14.5098039"></polygon>
            <polygon id="Path" fill="#FFFFFF" points="85.9574468 9.01960784 94.9439072 10.5882353 89.8646035 13.3333333 80.4874275 11.372549"></polygon>
            <polygon id="Path" fill="#FFFFFF" points="41.8065764 20 51.1837524 22.3529412 42.9787234 25.8823529 33.6015474 23.5294118"></polygon>
            <polygon id="Path" fill="#FFFFFF" points="51.5744681 16.4705882 60.1702128 18.4313725 53.1373308 21.5686275 43.7601547 19.2156863"></polygon>
            <polygon id="Path" fill="#FFFFFF" points="59.7794971 12.9411765 68.3752418 14.9019608 62.1237911 17.6470588 53.1373308 15.6862745"></polygon>
            <polygon id="Path" fill="#FFFFFF" points="67.9845261 9.80392157 76.1895551 11.7647059 70.3288201 14.1176471 61.3423598 12.1568627"></polygon>
            <polygon id="Path" fill="#FFFFFF" points="74.6266925 6.66666667 83.6131528 8.23529412 78.1431335 10.5882353 69.1566731 9.01960784"></polygon>
            <polygon id="Path" fill="#FFFFFF" points="30.4758221 17.254902 39.0715667 19.2156863 31.2572534 22.745098 23.0522244 20.7843137"></polygon>
            <polygon id="Path" fill="#FFFFFF" points="40.6344294 13.7254902 48.8394584 15.6862745 41.4158607 18.4313725 32.8201161 16.4705882"></polygon>
            <polygon id="Path" fill="#FFFFFF" points="49.2301741 10.5882353 57.0444874 12.5490196 50.7930368 15.2941176 42.5880077 12.9411765"></polygon>
            <polygon id="Path" fill="#FFFFFF" points="57.0444874 7.84313725 65.2495164 9.41176471 58.9980658 11.7647059 51.1837524 9.80392157"></polygon>
            <polygon id="Path" fill="#FFFFFF" points="64.4680851 4.70588235 72.6731141 6.2745098 66.8123791 8.62745098 58.9980658 6.66666667"></polygon>
            <polygon id="Path" fill="#FFFFFF" points="20.3172147 15.2941176 28.131528 16.8627451 20.7079304 20.3921569 12.5029014 18.0392157"></polygon>
            <polygon id="Path" fill="#FFFFFF" points="30.0851064 11.7647059 37.5087041 13.3333333 30.0851064 16.0784314 22.270793 14.5098039"></polygon>
            <polygon id="Path" fill="#FFFFFF" points="39.0715667 8.62745098 46.1044487 10.1960784 39.8529981 12.5490196 32.0386847 10.9803922"></polygon>
            <polygon id="Path" fill="#FFFFFF" points="46.8858801 5.49019608 54.3094778 7.05882353 48.0580271 9.41176471 40.6344294 7.84313725"></polygon>
            <polygon id="Path" fill="#FFFFFF" points="54.7001934 2.74509804 62.1237911 3.92156863 56.2630561 6.2745098 48.4487427 4.70588235"></polygon>
            <polygon id="Path" fill="#FFFFFF" points="10.9400387 12.5490196 17.9729207 14.5098039 9.76789168 17.6470588 2.344294 15.6862745"></polygon>
            <polygon id="Path" fill="#FFFFFF" points="21.098646 9.41176471 27.7408124 10.9803922 19.926499 13.7254902 13.2843327 12.1568627"></polygon>
            <polygon id="Path" fill="#FFFFFF" points="30.0851064 6.2745098 36.7272727 7.84313725 29.6943907 10.1960784 23.0522244 8.62745098"></polygon>
            <polygon id="Path" fill="#FFFFFF" points="37.8994197 3.52941176 44.5415861 5.09803922 38.2901354 7.05882353 31.6479691 5.49019608"></polygon>
            <polygon id="Path" fill="#FFFFFF" points="45.3230174 0.784313725 52.7466151 2.35294118 46.4951644 4.31372549 39.0715667 2.74509804"></polygon>
            <polygon id="Path" fill="#E31E24" points="58.6073501 32.5490196 66.0309478 29.0196078 65.6402321 40.7843137 58.2166344 44.7058824"></polygon>
            <polygon id="Path" fill="#E31E24" points="67.9845261 28.2352941 75.0174081 24.7058824 74.6266925 35.6862745 67.9845261 39.2156863"></polygon>
            <polygon id="Path" fill="#E31E24" points="76.9709865 23.9215686 82.8317215 20.7843137 82.4410058 31.372549 76.1895551 34.5098039"></polygon>
            <polygon id="Path" fill="#E31E24" points="84.7852998 19.6078431 90.2553191 16.8627451 89.4738878 27.4509804 84.0038685 30.5882353"></polygon>
            <polygon id="Path" fill="#E31E24" points="91.8181818 16.4705882 96.1160542 13.7254902 95.3346228 24.3137255 90.6460348 26.6666667"></polygon>
            <polygon id="Path" fill="#E31E24" points="58.2166344 48.2352941 65.6402321 43.9215686 65.6402321 54.5098039 58.2166344 59.2156863"></polygon>
            <polygon id="Path" fill="#E31E24" points="67.5938104 42.745098 74.2359768 38.8235294 73.8452611 49.0196078 67.5938104 53.3333333"></polygon>
            <polygon id="Path" fill="#E31E24" points="76.1895551 37.6470588 82.4410058 34.1176471 81.6595745 44.3137255 75.7988395 47.8431373"></polygon>
            <polygon id="Path" fill="#E31E24" points="84.0038685 33.3333333 89.4738878 30.1960784 88.6924565 39.6078431 83.2224371 43.5294118"></polygon>
            <polygon id="Path" fill="#E31E24" points="91.0367505 29.0196078 94.9439072 27.0588235 94.1624758 36.0784314 90.2553191 38.8235294"></polygon>
            <polygon id="Path" fill="#E31E24" points="58.2166344 62.3529412 65.2495164 58.0392157 64.8588008 67.8431373 57.8259188 72.9411765"></polygon>
            <polygon id="Path" fill="#E31E24" points="67.2030948 56.4705882 73.4545455 52.1568627 73.0638298 61.5686275 66.8123791 66.6666667"></polygon>
            <polygon id="Path" fill="#E31E24" points="75.4081238 50.9803922 81.2688588 47.0588235 80.4874275 56.4705882 75.0174081 60.7843137"></polygon>
            <polygon id="Path" fill="#E31E24" points="82.8317215 45.8823529 87.9110251 42.745098 87.5203095 51.7647059 82.4410058 55.2941176"></polygon>
            <polygon id="Path" fill="#E31E24" points="89.8646035 41.5686275 94.1624758 38.4313725 93.3810445 47.4509804 89.0831721 50.5882353"></polygon>
            <polygon id="Path" fill="#E31E24" points="58.6073501 75.6862745 65.2495164 70.5882353 64.8588008 80.3921569 58.6073501 85.4901961"></polygon>
            <polygon id="Path" fill="#E31E24" points="67.2030948 69.0196078 73.0638298 64.3137255 72.6731141 74.1176471 66.8123791 78.4313725"></polygon>
            <polygon id="Path" fill="#E31E24" points="75.0174081 63.1372549 80.4874275 59.2156863 80.0967118 67.8431373 74.6266925 72.5490196"></polygon>
            <polygon id="Path" fill="#E31E24" points="82.0502901 58.0392157 87.1295938 54.1176471 86.3481625 62.745098 81.6595745 66.6666667"></polygon>
            <polygon id="Path" fill="#E31E24" points="88.6924565 52.9411765 93.3810445 49.4117647 92.5996132 57.6470588 87.9110251 61.5686275"></polygon>
            <polygon id="Path" fill="#E31E24" points="58.2166344 88.2352941 64.8588008 82.745098 64.4680851 91.7647059 57.8259188 97.254902"></polygon>
            <polygon id="Path" fill="#E31E24" points="66.4216634 81.5686275 72.6731141 76.4705882 72.2823985 85.0980392 66.4216634 90.1960784"></polygon>
            <polygon id="Path" fill="#E31E24" points="74.2359768 74.9019608 79.7059961 70.5882353 79.3152805 78.8235294 73.8452611 83.5294118"></polygon>
            <polygon id="Path" fill="#E31E24" points="81.2688588 69.4117647 86.3481625 65.4901961 85.5667311 73.3333333 80.8781431 77.6470588"></polygon>
            <polygon id="Path" fill="#E31E24" points="87.5203095 64.3137255 92.2088975 60.7843137 91.4274662 68.627451 87.1295938 72.1568627"></polygon>
            <path d="M105.102515,15.2941176 L149.253385,0 C149.644101,0 150.034816,0 150.034816,0 L201.218569,10.1960784 C202,10.1960784 202,10.5882353 202,11.372549 L197.311412,68.627451 C197.311412,69.0196078 197.311412,69.4117647 196.920696,69.4117647 L161.756286,99.6078431 C161.365571,100 160.974855,100 160.584139,99.6078431 L112.526112,75.2941176 C112.135397,75.2941176 112.135397,74.9019608 112.135397,74.9019608 L104.711799,16.4705882 C104.711799,15.6862745 104.711799,15.6862745 105.49323,15.2941176 L105.102515,15.2941176 Z" id="Path" fill="#000000"></path>
            <polygon id="Path" fill="#009846" points="149.253385 30.1960784 159.021277 32.9411765 158.630561 44.3137255 149.253385 41.5686275"></polygon>
            <polygon id="Path" fill="#FFED00" points="137.141199 26.6666667 146.12766 29.4117647 146.12766 40.7843137 137.141199 37.6470588"></polygon>
            <polygon id="Path" fill="#0062AC" points="126.201161 23.9215686 134.40619 26.2745098 134.796905 37.254902 126.982592 34.5098039"></polygon>
            <polygon id="Path" fill="#FFFFFF" points="115.651838 21.1764706 123.856867 23.5294118 124.247582 33.7254902 116.433269 31.372549"></polygon>
            <polygon id="Path" fill="#009846" points="105.883946 18.8235294 113.307544 20.7843137 114.088975 30.5882353 107.446809 29.0196078"></polygon>
            <polygon id="Path" fill="#009846" points="149.253385 44.7058824 158.630561 47.8431373 159.021277 59.2156863 149.644101 55.6862745"></polygon>
            <polygon id="Path" fill="#FFED00" points="137.531915 41.5686275 146.518375 44.3137255 146.518375 54.5098039 137.922631 51.372549"></polygon>
            <polygon id="Path" fill="#0062AC" points="126.982592 37.6470588 135.187621 40.3921569 135.578337 50.9803922 127.764023 47.8431373"></polygon>
            <polygon id="Path" fill="#FFFFFF" points="116.823985 34.5098039 124.638298 36.8627451 125.419729 47.0588235 117.996132 44.7058824"></polygon>
            <polygon id="Path" fill="#009846" points="107.837524 31.7647059 114.479691 34.1176471 115.651838 43.9215686 109.009671 41.5686275"></polygon>
            <polygon id="Path" fill="#009846" points="149.644101 58.8235294 158.630561 62.3529412 159.021277 72.9411765 150.034816 69.0196078"></polygon>
            <polygon id="Path" fill="#FFED00" points="138.313346 54.5098039 146.909091 57.6470588 147.299807 67.8431373 138.704062 64.3137255"></polygon>
            <polygon id="Path" fill="#0062AC" points="128.154739 50.5882353 135.578337 53.7254902 136.359768 63.1372549 128.545455 60.3921569"></polygon>
            <polygon id="Path" fill="#FFFFFF" points="118.386847 47.4509804 125.419729 50.1960784 126.201161 59.2156863 119.168279 56.4705882"></polygon>
            <polygon id="Path" fill="#009846" points="109.400387 43.9215686 115.651838 46.6666667 116.823985 55.6862745 110.572534 53.3333333"></polygon>
            <polygon id="Path" fill="#009846" points="150.425532 72.1568627 159.021277 75.2941176 159.021277 85.0980392 150.425532 81.1764706"></polygon>
            <polygon id="Path" fill="#FFED00" points="139.094778 67.0588235 147.690522 70.5882353 148.081238 80.3921569 139.485493 76.4705882"></polygon>
            <polygon id="Path" fill="#0062AC" points="129.326886 62.745098 136.750484 65.8823529 137.141199 74.9019608 129.717602 71.7647059"></polygon>
            <polygon id="Path" fill="#FFFFFF" points="119.94971 58.8235294 126.982592 61.9607843 127.373308 70.5882353 120.731141 67.8431373"></polygon>
            <polygon id="Path" fill="#009846" points="110.572534 55.2941176 117.605416 58.0392157 118.386847 67.0588235 111.744681 63.9215686"></polygon>
            <polygon id="Path" fill="#009846" points="150.816248 84.3137255 159.411992 87.8431373 159.411992 97.254902 150.816248 93.3333333"></polygon>
            <polygon id="Path" fill="#FFED00" points="139.876209 78.8235294 148.081238 82.745098 148.471954 91.7647059 140.266925 87.8431373"></polygon>
            <polygon id="Path" fill="#0062AC" points="130.108317 74.5098039 137.531915 78.0392157 137.922631 86.6666667 130.499033 82.745098"></polygon>
            <polygon id="Path" fill="#FFFFFF" points="121.121857 70.1960784 127.764023 73.3333333 128.545455 81.9607843 121.903288 78.4313725"></polygon>
            <polygon id="Path" fill="#009846" points="112.135397 65.8823529 119.168279 69.4117647 119.94971 77.6470588 112.916828 74.1176471"></polygon>
            <polygon id="Path" fill="#FFFFFF" points="158.630561 23.5294118 168.398453 25.8823529 160.974855 29.8039216 150.425532 26.6666667"></polygon>
            <polygon id="Path" fill="#FFFFFF" points="168.007737 19.2156863 177.384913 21.5686275 170.742747 24.7058824 160.584139 22.3529412"></polygon>
            <polygon id="Path" fill="#FFFFFF" points="176.212766 15.6862745 185.589942 17.6470588 179.338491 20.3921569 169.5706 18.0392157"></polygon>
            <polygon id="Path" fill="#FFFFFF" points="183.636364 12.1568627 193.01354 14.1176471 187.152805 16.8627451 177.775629 14.5098039"></polygon>
            <polygon id="Path" fill="#FFFFFF" points="190.669246 9.01960784 199.655706 10.5882353 194.576402 13.3333333 185.199226 11.372549"></polygon>
            <polygon id="Path" fill="#009846" points="146.518375 20 155.895551 22.3529412 147.690522 25.8823529 138.313346 23.5294118"></polygon>
            <polygon id="Path" fill="#009846" points="156.286267 16.4705882 164.882012 18.4313725 157.84913 21.5686275 148.471954 19.2156863"></polygon>
            <polygon id="Path" fill="#009846" points="164.882012 12.9411765 173.087041 14.9019608 166.83559 17.6470588 157.84913 15.6862745"></polygon>
            <polygon id="Path" fill="#009846" points="172.696325 9.80392157 180.901354 11.7647059 175.040619 14.1176471 166.444874 12.1568627"></polygon>
            <polygon id="Path" fill="#009846" points="179.729207 6.66666667 188.324952 8.23529412 182.854932 10.5882353 174.259188 9.01960784"></polygon>
            <polygon id="Path" fill="#FFED00" points="135.578337 17.254902 144.174081 19.2156863 135.969052 22.745098 127.764023 20.7843137"></polygon>
            <polygon id="Path" fill="#FFED00" points="145.346228 13.7254902 153.551257 15.6862745 146.12766 18.4313725 137.922631 16.4705882"></polygon>
            <polygon id="Path" fill="#FFED00" points="153.941973 10.5882353 162.147002 12.5490196 155.504836 15.2941176 147.299807 12.9411765"></polygon>
            <polygon id="Path" fill="#FFED00" points="162.147002 7.84313725 169.961315 9.41176471 163.709865 11.7647059 155.895551 9.80392157"></polygon>
            <polygon id="Path" fill="#FFED00" points="169.5706 4.70588235 177.384913 6.2745098 171.914894 8.62745098 163.709865 6.66666667"></polygon>
            <polygon id="Path" fill="#0062AC" points="125.029014 15.2941176 132.843327 16.8627451 125.419729 20.3921569 117.2147 18.0392157"></polygon>
            <polygon id="Path" fill="#0062AC" points="134.796905 11.7647059 142.220503 13.3333333 135.187621 16.0784314 126.982592 14.5098039"></polygon>
            <polygon id="Path" fill="#0062AC" points="143.783366 8.62745098 151.206963 10.1960784 144.564797 12.5490196 136.750484 10.9803922"></polygon>
            <polygon id="Path" fill="#0062AC" points="151.597679 5.49019608 159.411992 7.05882353 153.160542 9.41176471 145.736944 7.84313725"></polygon>
            <polygon id="Path" fill="#0062AC" points="159.411992 2.74509804 167.226306 3.92156863 160.974855 6.2745098 153.160542 4.70588235"></polygon>
            <polygon id="Path" fill="#FFFFFF" points="116.042553 12.5490196 123.075435 14.5098039 114.479691 17.6470588 107.446809 15.6862745"></polygon>
            <polygon id="Path" fill="#FFFFFF" points="125.810445 9.41176471 132.452611 10.9803922 125.029014 13.7254902 117.996132 12.1568627"></polygon>
            <polygon id="Path" fill="#FFFFFF" points="135.187621 6.2745098 141.439072 7.84313725 134.40619 10.1960784 127.764023 8.62745098"></polygon>
            <polygon id="Path" fill="#FFFFFF" points="142.611219 3.52941176 149.253385 5.09803922 143.001934 7.05882353 136.750484 5.49019608"></polygon>
            <polygon id="Path" fill="#FFFFFF" points="150.034816 0.784313725 157.458414 2.35294118 151.206963 4.31372549 144.174081 2.74509804"></polygon>
            <polygon id="Path" fill="#E31E24" points="163.319149 32.5490196 170.742747 29.0196078 170.742747 40.7843137 163.319149 44.7058824"></polygon>
            <polygon id="Path" fill="#E31E24" points="172.696325 28.2352941 179.729207 24.7058824 179.338491 35.6862745 172.696325 39.2156863"></polygon>
            <polygon id="Path" fill="#E31E24" points="181.682785 23.9215686 187.54352 20.7843137 187.152805 31.372549 181.29207 34.5098039"></polygon>
            <polygon id="Path" fill="#E31E24" points="189.497099 19.6078431 194.967118 16.8627451 194.185687 27.4509804 189.106383 30.5882353"></polygon>
            <polygon id="Path" fill="#E31E24" points="196.529981 16.4705882 200.827853 13.7254902 200.046422 24.3137255 195.748549 26.6666667"></polygon>
            <polygon id="Path" fill="#E31E24" points="162.928433 48.2352941 170.352031 43.9215686 170.352031 54.5098039 162.928433 59.2156863"></polygon>
            <polygon id="Path" fill="#E31E24" points="172.696325 42.745098 179.338491 38.8235294 178.947776 49.0196078 172.305609 53.3333333"></polygon>
            <polygon id="Path" fill="#E31E24" points="181.29207 37.6470588 187.152805 34.1176471 186.371373 44.3137255 180.510638 47.8431373"></polygon>
            <polygon id="Path" fill="#E31E24" points="188.715667 33.3333333 194.185687 30.1960784 193.404255 39.6078431 187.934236 43.5294118"></polygon>
            <polygon id="Path" fill="#E31E24" points="195.748549 29.0196078 199.655706 27.0588235 198.874275 36.0784314 194.967118 38.8235294"></polygon>
            <polygon id="Path" fill="#E31E24" points="163.319149 62.3529412 169.961315 58.0392157 169.961315 67.8431373 162.928433 72.9411765"></polygon>
            <polygon id="Path" fill="#E31E24" points="171.914894 56.4705882 178.55706 52.1568627 177.775629 61.5686275 171.524178 66.6666667"></polygon>
            <polygon id="Path" fill="#E31E24" points="180.119923 50.9803922 185.980658 47.0588235 185.589942 56.4705882 179.729207 60.7843137"></polygon>
            <polygon id="Path" fill="#E31E24" points="187.54352 45.8823529 192.622824 42.745098 192.232108 51.7647059 187.152805 55.2941176"></polygon>
            <polygon id="Path" fill="#E31E24" points="194.576402 41.5686275 198.874275 38.4313725 198.092843 47.4509804 193.794971 50.5882353"></polygon>
            <polygon id="Path" fill="#E31E24" points="163.319149 75.6862745 169.961315 70.5882353 169.961315 80.3921569 163.319149 85.4901961"></polygon>
            <polygon id="Path" fill="#E31E24" points="171.914894 69.0196078 178.166344 64.3137255 177.384913 74.1176471 171.524178 78.4313725"></polygon>
            <polygon id="Path" fill="#E31E24" points="179.729207 63.1372549 185.199226 59.2156863 184.808511 67.8431373 179.338491 72.5490196"></polygon>
            <polygon id="Path" fill="#E31E24" points="187.152805 58.0392157 191.841393 54.1176471 191.450677 62.745098 186.371373 66.6666667"></polygon>
            <polygon id="Path" fill="#E31E24" points="193.794971 52.9411765 198.092843 49.4117647 197.311412 57.6470588 193.01354 61.5686275"></polygon>
            <polygon id="Path" fill="#E31E24" points="162.928433 88.2352941 169.5706 82.745098 169.179884 91.7647059 162.537718 97.254902"></polygon>
            <polygon id="Path" fill="#E31E24" points="171.524178 81.5686275 177.384913 76.4705882 176.994197 85.0980392 171.133462 90.1960784"></polygon>
            <polygon id="Path" fill="#E31E24" points="178.947776 74.9019608 184.808511 70.5882353 184.417795 78.8235294 178.55706 83.5294118"></polygon>
            <polygon id="Path" fill="#E31E24" points="186.371373 69.4117647 191.059961 65.4901961 190.669246 73.3333333 185.589942 77.6470588"></polygon>
            <polygon id="Path" fill="#E31E24" points="192.622824 64.3137255 196.920696 60.7843137 196.529981 68.627451 191.841393 72.1568627"></polygon>
        </g>
    </g>
</svg>