<?xml version="1.0" encoding="UTF-8"?>
<svg width="96px" height="100px" viewBox="0 0 96 100" version="1.1" xmlns="http://www.w3.org/2000/svg" xmlns:xlink="http://www.w3.org/1999/xlink">
    <title>freeslice_14</title>
    <g id="Big_cubes" stroke="none" stroke-width="1" fill="none" fill-rule="evenodd">
        <g id="freeslice_14" fill-rule="nonzero">
            <polygon id="Path" fill="#000000" points="41.97 0.0303030303 95.58 8.43939394 95.94 66.8030303 62.46 99.969697 9.705 80.5606061 0.03 21.1363636"></polygon>
            <polygon id="Path" fill="#696969" points="52.995 24.2121212 66.975 27.0454545 57.105 33.469697 43.185 30.3030303"></polygon>
            <polygon id="Path" fill="#696969" points="63.36 17.8484848 76.785 20.3333333 68.175 26.1515152 54.36 23.5"></polygon>
            <polygon id="Path" fill="#696969" points="72.51 11.9242424 85.665 14.2424242 77.835 19.5151515 64.62 17.1212121"></polygon>
            <polygon id="Path" fill="#696969" points="81.24 6.60606061 93.96 8.60606061 86.595 13.530303 73.875 11.1969697"></polygon>
            <polygon id="Path" fill="#696969" points="67.2 4.39393939 79.35 6.27272727 71.64 11.030303 59.625 8.81818182"></polygon>
            <polygon id="Path" fill="#696969" points="58.56 9.51515152 70.56 11.5909091 62.61 16.7424242 50.04 14.4090909"></polygon>
            <polygon id="Path" fill="#696969" points="48.825 15.1363636 61.41 17.4393939 52.335 22.9393939 39.78 20.4242424"></polygon>
            <polygon id="Path" fill="#696969" points="38.355 21.1212121 51.165 23.8030303 41.46 29.9242424 28.485 27.0151515"></polygon>
            <polygon id="Path" fill="#696969" points="24.375 18.4242424 36.495 20.8181818 26.52 26.5757576 14.43 23.8333333"></polygon>
            <polygon id="Path" fill="#696969" points="35.175 12.5909091 47.025 14.6666667 37.785 20.030303 26.025 17.6515152"></polygon>
            <polygon id="Path" fill="#696969" points="45.045 7.27272727 56.64 9.15151515 48.315 14.030303 36.63 11.8636364"></polygon>
            <polygon id="Path" fill="#696969" points="54.225 2.31818182 65.385 4.06060606 57.87 8.46969697 46.335 6.60606061"></polygon>
            <polygon id="Path" fill="#696969" points="42.03 0.303030303 52.455 2.04545455 44.52 6.24242424 33.84 4.59090909"></polygon>
            <polygon id="Path" fill="#696969" points="32.79 5.16666667 43.26 6.93939394 34.8 11.5151515 24.03 9.59090909"></polygon>
            <polygon id="Path" fill="#696969" points="22.515 10.2878788 33.615 12.2878788 24.03 17.1515152 13.365 14.9090909"></polygon>
            <polygon id="Path" fill="#696969" points="11.835 15.6666667 22.74 17.9545455 12.51 23.5 1.41 20.8939394"></polygon>
            <polygon id="Path" fill="#696969" points="58.755 34.5151515 67.965 28.3181818 68.67 43.6515152 59.58 50.6212121"></polygon>
            <polygon id="Path" fill="#696969" points="69.33 27.1515152 78 21.2272727 78.27 36.2878788 69.99 42.7727273"></polygon>
            <polygon id="Path" fill="#696969" points="79.14 20.4545455 86.925 15.1363636 87.09 29.5909091 79.425 35.4545455"></polygon>
            <polygon id="Path" fill="#696969" points="87.975 14.4090909 94.98 9.48484848 94.98 23.5 88.14 28.8181818"></polygon>
            <polygon id="Path" fill="#FFED00" points="59.91 52.3939394 68.955 45.4848485 69.66 59.9848485 60.84 67.4545455"></polygon>
            <polygon id="Path" fill="#696969" points="70.26 44.3787879 78.48 38.1212121 78.93 52.2272727 70.815 59.1060606"></polygon>
            <polygon id="Path" fill="#696969" points="79.53 37.3333333 87.21 31.3030303 87.36 45.1515152 79.965 51.3484848"></polygon>
            <polygon id="Path" fill="#696969" points="88.305 30.5909091 95.205 25.1060606 95.205 38.5 88.47 44.1515152"></polygon>
            <polygon id="Path" fill="#696969" points="61.05 69.1212121 69.93 61.9242424 70.485 75.6515152 61.875 83.5151515"></polygon>
            <polygon id="Path" fill="#696969" points="71.025 60.7575758 79.035 54 79.47 67.5151515 71.64 74.5"></polygon>
            <polygon id="Path" fill="#696969" points="80.19 52.9545455 87.525 46.8636364 87.69 59.8787879 80.565 66.4090909"></polygon>
            <polygon id="Path" fill="#696969" points="88.515 46.0909091 95.205 40.3333333 95.265 52.8484848 88.905 58.7121212"></polygon>
            <polygon id="Path" fill="#696969" points="62.175 85.1818182 70.68 77.3484848 71.175 90.5 62.925 98.6666667"></polygon>
            <polygon id="Path" fill="#696969" points="71.85 76.2121212 79.605 69.1515152 80.055 81.7272727 72.315 89.3636364"></polygon>
            <polygon id="Path" fill="#696969" points="80.685 68.0757576 87.81 61.6212121 87.975 73.9090909 80.955 80.8030303"></polygon>
            <polygon id="Path" fill="#696969" points="88.845 60.5454545 95.37 54.5 95.46 66.5 88.95 72.9090909"></polygon>
            <polygon id="Path" fill="#696969" points="42.795 31.8636364 56.94 35.0757576 57.99 50.8484848 44.34 47.3030303"></polygon>
            <polygon id="Path" fill="#696969" points="27.78 28.4848485 40.995 31.4090909 42.465 46.8636364 29.595 43.5454545"></polygon>
            <polygon id="Path" fill="#696969" points="13.8 25.2727273 26.085 28.030303 27.885 42.9393939 15.885 39.8939394"></polygon>
            <polygon id="Path" fill="#696969" points="0.915 22.3333333 12.315 24.9848485 14.235 39.3939394 3.165 36.5606061"></polygon>
            <polygon id="Path" fill="#009846" points="44.505 49.1818182 58.155 52.8484848 59.13 67.7424242 45.81 63.5909091"></polygon>
            <polygon id="Path" fill="#696969" points="29.76 45.3181818 42.585 48.7424242 44.055 63.1969697 31.5 59.3181818"></polygon>
            <polygon id="Path" fill="#696969" points="16.275 41.8181818 28.17 44.8636364 29.865 58.9393939 18.015 55.3333333"></polygon>
            <polygon id="Path" fill="#009846" points="3.435 38.2272727 14.565 41.2727273 16.425 54.8939394 5.64 51.7878788"></polygon>
            <polygon id="Path" fill="#696969" points="46.095 65.7424242 59.355 69.7272727 60.285 83.6818182 47.4 79.4242424"></polygon>
            <polygon id="Path" fill="#696969" points="31.89 61.3636364 44.175 65.1969697 45.705 78.6969697 33.315 74.6666667"></polygon>
            <polygon id="Path" fill="#696969" points="18.405 57.1666667 29.97 60.7121212 31.62 74.2121212 20.16 70.2878788"></polygon>
            <polygon id="Path" fill="#696969" points="5.955 53.5606061 16.71 56.6666667 18.51 69.7272727 7.995 66.2424242"></polygon>
            <polygon id="Path" fill="#696969" points="47.565 81.1969697 60.51 85.6212121 61.44 98.8636364 48.66 93.9242424"></polygon>
            <polygon id="Path" fill="#696969" points="33.705 76.4848485 45.87 80.6969697 46.905 93.3787879 34.905 88.8333333"></polygon>
            <polygon id="Path" fill="#696969" points="20.49 71.9545455 31.95 75.9393939 33.21 88.3333333 22.08 84.2878788"></polygon>
            <polygon id="Path" fill="#696969" points="8.265 67.8484848 18.795 71.5606061 20.385 83.7424242 10.245 79.969697"></polygon>
        </g>
    </g>
</svg>