<?xml version="1.0" encoding="UTF-8"?>
<svg width="97px" height="100px" viewBox="0 0 97 100" version="1.1" xmlns="http://www.w3.org/2000/svg" xmlns:xlink="http://www.w3.org/1999/xlink">
    <title>paritet_6</title>
    <g id="Big_cubes" stroke="none" stroke-width="1" fill="none" fill-rule="evenodd">
        <g id="paritet_6" fill-rule="nonzero">
            <polygon id="Path" fill="#000000" points="40.6322222 0.0266666667 96.2455556 7.48 95.545 63.7466667 65.9195833 99.1866667 10.8586111 79.7066667 0.0269444444 21.92"></polygon>
            <polygon id="Path" fill="#696969" points="57.7284722 27.68 67.7383333 29.6933333 61.6893056 34.5466667 51.28875 32.2933333"></polygon>
            <polygon id="Path" fill="#E31E24" points="64.1681944 22.8266667 74.0702778 24.6933333 68.4254167 29.0533333 58.5233333 27.0933333"></polygon>
            <polygon id="Path" fill="#E31E24" points="70.20375 18.3866667 79.8229167 19.8933333 74.81125 24 65.0034722 22.2933333"></polygon>
            <polygon id="Path" fill="#E31E24" points="75.8620833 14.1466667 85.2252778 15.6266667 80.4695833 19.4 70.9581944 17.8266667"></polygon>
            <polygon id="Path" fill="#E31E24" points="81.0623611 10.2266667 90.3716667 11.5066667 85.8584722 15.08 76.6434722 13.6133333"></polygon>
            <polygon id="Path" fill="#696969" points="85.96625 6.4 95.3025 7.6 91.0183333 10.96 81.8572222 9.69333333"></polygon>
            <polygon id="Path" fill="#0062AC" points="76.2797222 5.13333333 84.9288889 6.28 80.5908333 9.49333333 71.8204167 8.24"></polygon>
            <polygon id="Path" fill="#009846" points="71.1198611 8.65333333 79.8229167 9.93333333 75.3636111 13.3466667 66.32375 11.9866667"></polygon>
            <polygon id="Path" fill="#009846" points="65.7309722 12.4533333 74.6495833 13.9066667 69.6648611 17.5066667 60.50375 16.0133333"></polygon>
            <polygon id="Path" fill="#009846" points="59.7358333 16.5733333 68.8430556 18.0933333 63.5888889 22.0266667 54.1044444 20.3733333"></polygon>
            <polygon id="Path" fill="#009846" points="53.4577778 20.96 62.8748611 22.6133333 57.1356944 26.8933333 47.5165278 25.0133333"></polygon>
            <polygon id="Path" fill="#E31E24" points="46.6273611 25.5466667 56.3408333 27.36 50.1975 32 40.2145833 30.04"></polygon>
            <polygon id="Path" fill="#FFED00" points="36.375 23.52 45.4148611 25.28 39.0020833 29.6933333 29.6523611 27.8"></polygon>
            <polygon id="Path" fill="#009846" points="43.165 19.08 52.0970833 20.6266667 46.1827778 24.72 37.1698611 22.9733333"></polygon>
            <polygon id="Path" fill="#009846" points="49.7259722 14.88 58.4963889 16.2533333 52.9188889 20.1333333 44.0541667 18.56"></polygon>
            <polygon id="Path" fill="#009846" points="55.7615278 10.96 64.5184722 12.2133333 59.2643056 15.7733333 50.56125 14.32"></polygon>
            <polygon id="Path" fill="#009846" points="61.4872222 7.30666667 69.9881944 8.41333333 65.1247222 11.7466667 56.6641667 10.4266667"></polygon>
            <polygon id="Path" fill="#0062AC" points="66.6201389 3.82666667 75.0941667 4.93333333 70.5001389 8 62.1608333 6.84"></polygon>
            <polygon id="Path" fill="#0062AC" points="57.6072222 2.6 65.5827778 3.65333333 61.1234722 6.62666667 52.9997222 5.52"></polygon>
            <polygon id="Path" fill="#009846" points="52.2722222 5.98666667 60.4229167 7.06666667 55.3977778 10.2533333 47.1931944 9.05333333"></polygon>
            <polygon id="Path" fill="#009846" points="46.3848611 9.54666667 54.68375 10.6933333 49.2813889 14.1733333 41.0094444 12.8"></polygon>
            <polygon id="Path" fill="#009846" points="40.0933333 13.24 48.4865278 14.6666667 42.7338889 18.2666667 34.3676389 16.7733333"></polygon>
            <polygon id="Path" fill="#009846" points="33.4919444 17.2666667 42.1141667 18.7866667 35.9708333 22.7066667 27.3081944 21.0933333"></polygon>
            <polygon id="Path" fill="#FFED00" points="26.3381944 21.6533333 35.1355556 23.24 28.4668056 27.4933333 19.5751389 25.6933333"></polygon>
            <polygon id="Path" fill="#E31E24" points="16.975 19.7866667 25.1930556 21.3333333 18.4434722 25.4533333 10.0098611 23.7333333"></polygon>
            <polygon id="Path" fill="#009846" points="24.2095833 15.6666667 32.3872222 17.0666667 26.1226389 20.8 17.8911111 19.28"></polygon>
            <polygon id="Path" fill="#009846" points="30.91875 11.7466667 39.0694444 13.0533333 33.2763889 16.5333333 25.09875 15.1333333"></polygon>
            <polygon id="Path" fill="#009846" points="37.4931944 8.06666667 45.3340278 9.26666667 39.8104167 12.6 31.7944444 11.3333333"></polygon>
            <polygon id="Path" fill="#009846" points="43.3131944 4.70666667 51.1540278 5.74666667 46.0615278 8.8 38.1263889 7.62666667"></polygon>
            <polygon id="Path" fill="#0062AC" points="48.9311111 1.48 56.6641667 2.41333333 51.9758333 5.30666667 44.1484722 4.24"></polygon>
            <polygon id="Path" fill="#696969" points="40.7804167 0.293333333 47.7859722 1.22666667 43.0841667 3.93333333 35.9034722 3.06666667"></polygon>
            <polygon id="Path" fill="#EF7F1A" points="35.0277778 3.46666667 42.0872222 4.38666667 36.9947222 7.36 29.8275 6.28"></polygon>
            <polygon id="Path" fill="#EF7F1A" points="28.9922222 6.74666667 36.0786111 7.85333333 30.5954167 10.96 23.3204167 9.84"></polygon>
            <polygon id="Path" fill="#EF7F1A" points="22.2965278 10.28 29.8544444 11.5333333 23.9670833 14.8666667 16.3552778 13.5066667"></polygon>
            <polygon id="Path" fill="#EF7F1A" points="15.3718056 14.08 22.9970833 15.3733333 16.6247222 18.9333333 8.79736111 17.56"></polygon>
            <polygon id="Path" fill="#696969" points="8.0025 18.0266667 15.88375 19.4933333 8.87819444 23.4133333 0.97 21.8533333"></polygon>
            <polygon id="Path" fill="#696969" points="62.6323611 35.28 68.5466667 30.48 69.0181944 40.7733333 63.1981944 45.92"></polygon>
            <polygon id="Path" fill="#009846" points="69.3684722 29.84 74.7438889 25.4 75.0402778 35.5733333 69.71875 40.28"></polygon>
            <polygon id="Path" fill="#009846" points="75.6061111 24.6933333 80.6177778 20.6666667 80.8063889 30.5333333 75.9025 34.92"></polygon>
            <polygon id="Path" fill="#009846" points="81.35875 20.1866667 86.0875 16.28 86.0875 25.9733333 81.5338889 29.8133333"></polygon>
            <polygon id="Path" fill="#009846" points="86.7341667 15.64 91.1395833 12.2133333 91.0856944 21.56 86.8284722 25.3066667"></polygon>
            <polygon id="Path" fill="#696969" points="91.8131944 11.6266667 95.8413889 8.32 95.6797222 17.48 91.7323611 20.9866667"></polygon>
            <polygon id="Path" fill="#009846" points="63.3733333 47.2533333 69.0451389 42.2 69.5166667 52.1066667 63.8718056 57.4"></polygon>
            <polygon id="Path" fill="#FFED00" points="69.8938889 41.3866667 75.2423611 36.8 75.4579167 46.4933333 70.3115278 51.44"></polygon>
            <polygon id="Path" fill="#FFED00" points="75.9833333 36.1466667 80.8872222 31.7733333 81.1027778 41.2133333 76.2258333 45.7333333"></polygon>
            <polygon id="Path" fill="#FFED00" points="81.60125 31.2666667 86.1413889 27.1733333 86.3165278 36.0933333 81.7494444 40.5733333"></polygon>
            <polygon id="Path" fill="#FFED00" points="86.8554167 26.56 91.1126389 22.76 91.1395833 31.6266667 86.93625 35.6266667"></polygon>
            <polygon id="Path" fill="#009846" points="91.6919444 22.24 95.6931944 18.76 95.5719444 27.4666667 91.7323611 31.2133333"></polygon>
            <polygon id="Path" fill="#009846" points="63.9930556 58.8133333 69.5840278 53.3733333 69.9343056 62.76 64.4645833 68.3333333"></polygon>
            <polygon id="Path" fill="#FFED00" points="70.3519444 52.5866667 75.5656944 47.64 75.8351389 56.8266667 70.7022222 62.1066667"></polygon>
            <polygon id="Path" fill="#FFED00" points="76.3066667 47.0266667 81.0084722 42.4666667 81.1836111 51.4933333 76.4818056 56.24"></polygon>
            <polygon id="Path" fill="#FFED00" points="81.7090278 41.88 86.33 37.3733333 86.3569444 46.3466667 81.8976389 50.8533333"></polygon>
            <polygon id="Path" fill="#FFED00" points="86.9497222 36.9466667 91.1126389 32.8266667 91.1395833 41.3333333 86.9497222 45.7066667"></polygon>
            <polygon id="Path" fill="#009846" points="91.7323611 32.3466667 95.5045833 28.6666667 95.5315278 37 91.7054167 40.8933333"></polygon>
            <polygon id="Path" fill="#009846" points="64.6801389 69.5333333 70.0825 63.9866667 70.3788889 73.0666667 65.0573611 78.68"></polygon>
            <polygon id="Path" fill="#FFED00" points="70.8773611 63.3333333 75.8620833 58.1333333 76.1584722 66.8666667 71.2276389 72.08"></polygon>
            <polygon id="Path" fill="#FFED00" points="76.6030556 57.4266667 81.3318056 52.5733333 81.4126389 61.2 76.8051389 66.1066667"></polygon>
            <polygon id="Path" fill="#FFED00" points="81.8302778 52.0266667 86.33 47.5466667 86.4647222 55.8266667 82.0188889 60.5066667"></polygon>
            <polygon id="Path" fill="#FFED00" points="86.93625 46.8 91.0183333 42.64 91.0452778 50.8533333 86.9766667 55.2133333"></polygon>
            <polygon id="Path" fill="#009846" points="91.6919444 41.9466667 95.4776389 38.1066667 95.42375 46.1466667 91.6111111 50.16"></polygon>
            <polygon id="Path" fill="#009846" points="65.2863889 79.8 70.5540278 74.1866667 70.8504167 82.7733333 65.6231944 88.68"></polygon>
            <polygon id="Path" fill="#FFED00" points="71.3219444 73.2533333 76.1988889 68.0666667 76.3740278 76.44 71.5779167 81.9066667"></polygon>
            <polygon id="Path" fill="#FFED00" points="76.9533333 67.2266667 81.3856944 62.32 81.4261111 70.7066667 77.0745833 75.7333333"></polygon>
            <polygon id="Path" fill="#FFED00" points="82.0997222 61.6933333 86.3569444 57.1066667 86.2895833 65.1866667 82.2479167 69.8533333"></polygon>
            <polygon id="Path" fill="#FFED00" points="87.0036111 56.5333333 90.9644444 52.0266667 90.9375 59.92 87.0305556 64.3866667"></polygon>
            <polygon id="Path" fill="#009846" points="91.54375 51.4666667 95.2755556 47.3733333 95.2755556 55.12 91.5572222 59.24"></polygon>
            <polygon id="Path" fill="#696969" points="65.8522222 89.64 70.9716667 83.8 71.2680556 92.0933333 66.1755556 98.0933333"></polygon>
            <polygon id="Path" fill="#E31E24" points="71.7395833 82.8933333 76.4818056 77.6666667 76.6030556 85.6933333 71.9955556 91.28"></polygon>
            <polygon id="Path" fill="#E31E24" points="77.1958333 76.7333333 81.60125 71.6933333 81.8033333 79.6266667 77.3170833 84.9333333"></polygon>
            <polygon id="Path" fill="#E31E24" points="82.32875 70.8133333 86.4647222 66.1733333 86.5320833 73.92 82.45 78.8"></polygon>
            <polygon id="Path" fill="#E31E24" points="87.0844444 65.2933333 90.9913889 61.0266667 91.0452778 68.5066667 87.17875 73.2533333"></polygon>
            <polygon id="Path" fill="#696969" points="91.54375 60.32 95.2486111 56.1733333 95.18125 63.5466667 91.5841667 67.96"></polygon>
            <polygon id="Path" fill="#696969" points="51.1405556 33.2933333 61.5141667 35.6533333 61.9856944 46.1733333 51.9488889 43.84"></polygon>
            <polygon id="Path" fill="#FFED00" points="39.9586111 31.0133333 49.8202778 33.1733333 50.56125 43.5466667 40.9825 41.2666667"></polygon>
            <polygon id="Path" fill="#E31E24" points="29.46375 28.8133333 38.7191667 30.7733333 39.7161111 40.9733333 30.6223611 38.9066667"></polygon>
            <polygon id="Path" fill="#E31E24" points="19.3326389 26.68 28.1973611 28.56 29.3559722 38.5466667 20.7876389 36.6266667"></polygon>
            <polygon id="Path" fill="#FFED00" points="9.68652778 24.6 18.1605556 26.4266667 19.5751389 36.1866667 11.3840278 34.3466667"></polygon>
            <polygon id="Path" fill="#696969" points="0.646666667 22.76 8.60875 24.4266667 10.2388889 33.9866667 2.35763889 32.2133333"></polygon>
            <polygon id="Path" fill="#FFFFFF" points="52.1779167 45.1333333 62.1877778 47.6933333 62.7266667 57.5866667 52.9188889 55.04"></polygon>
            <polygon id="Path" fill="#EF7F1A" points="41.1980556 42.5466667 50.6690278 44.8266667 51.5851389 54.7733333 42.2219444 52.3466667"></polygon>
            <polygon id="Path" fill="#EF7F1A" points="30.8918056 40.1066667 39.9181944 42.32 40.9825 52.0266667 32.0908333 49.72"></polygon>
            <polygon id="Path" fill="#EF7F1A" points="20.9627778 37.7066667 29.6388889 39.84 30.7975 49.3066667 22.43125 47.12"></polygon>
            <polygon id="Path" fill="#EF7F1A" points="11.5995833 35.5466667 19.8445833 37.4666667 21.1918056 46.7866667 13.1354167 44.7466667"></polygon>
            <polygon id="Path" fill="#0062AC" points="2.62708333 33.3733333 10.4140278 35.24 11.9498611 44.3733333 4.29763889 42.3466667"></polygon>
            <polygon id="Path" fill="#FFFFFF" points="53.0131944 56.44 62.7536111 59.0933333 63.3733333 68.6266667 53.8619444 65.8533333"></polygon>
            <polygon id="Path" fill="#EF7F1A" points="42.3701389 53.5466667 51.7602778 56.0533333 52.4473611 65.4666667 43.2323611 62.7866667"></polygon>
            <polygon id="Path" fill="#EF7F1A" points="32.2390278 50.8533333 41.10375 53.3066667 42.0198611 62.4533333 33.34375 60"></polygon>
            <polygon id="Path" fill="#EF7F1A" points="22.5794444 48.3466667 30.9995833 50.5866667 32.13125 59.6533333 23.88625 57.28"></polygon>
            <polygon id="Path" fill="#EF7F1A" points="13.3375 46.0266667 21.3804167 48.16 22.6468056 56.96 14.8194444 54.68"></polygon>
            <polygon id="Path" fill="#0062AC" points="4.48625 43.5466667 12.1384722 45.6 13.70125 54.4266667 6.10291667 52.1466667"></polygon>
            <polygon id="Path" fill="#FFFFFF" points="53.8888889 67.0533333 63.5484722 69.8533333 63.9930556 79.0266667 54.5759722 76.08"></polygon>
            <polygon id="Path" fill="#EF7F1A" points="43.52875 64.0666667 52.5955556 66.6933333 53.4173611 75.68 44.3775 72.9466667"></polygon>
            <polygon id="Path" fill="#EF7F1A" points="33.5458333 61.2266667 42.195 63.72 43.0572222 72.4933333 34.6101389 69.8533333"></polygon>
            <polygon id="Path" fill="#EF7F1A" points="24.1152778 58.4533333 32.3063889 60.9333333 33.4784722 69.5866667 25.3277778 67.0533333"></polygon>
            <polygon id="Path" fill="#EF7F1A" points="15.0484722 55.9066667 22.795 58.1333333 24.12875 66.7066667 16.3552778 64.28"></polygon>
            <polygon id="Path" fill="#0062AC" points="6.34541667 53.3333333 13.9033333 55.6133333 15.3179167 63.92 7.90819444 61.6133333"></polygon>
            <polygon id="Path" fill="#FFFFFF" points="54.7241667 77.2266667 64.1143056 80.2666667 64.6397222 89 55.3708333 85.84"></polygon>
            <polygon id="Path" fill="#EF7F1A" points="44.5661111 74.0666667 53.4577778 76.8933333 54.1313889 85.44 45.3879167 82.4266667"></polygon>
            <polygon id="Path" fill="#EF7F1A" points="34.7313889 70.9733333 43.2593056 73.7466667 44.1215278 82.1866667 35.8495833 79.2933333"></polygon>
            <polygon id="Path" fill="#EF7F1A" points="25.5972222 68.1866667 33.5727778 70.64 34.6909722 79 26.6615278 76.28"></polygon>
            <polygon id="Path" fill="#EF7F1A" points="16.5843056 65.3333333 24.3308333 67.7733333 25.5702778 76 17.9719444 73.4533333"></polygon>
            <polygon id="Path" fill="#0062AC" points="8.11027778 62.7866667 15.52 65.0266667 16.8268056 73.0666667 9.56527778 70.7333333"></polygon>
            <polygon id="Path" fill="#696969" points="55.5190278 86.96 64.7070833 90.08 65.2055556 98.36 56.1656944 95.1733333"></polygon>
            <polygon id="Path" fill="#FFED00" points="45.4822222 83.6266667 54.2795833 86.6 54.92625 94.7333333 46.2501389 91.5733333"></polygon>
            <polygon id="Path" fill="#FFED00" points="35.9977778 80.44 44.3505556 83.36 45.1588889 91.3466667 36.9408333 88.36"></polygon>
            <polygon id="Path" fill="#FFED00" points="26.8905556 77.3333333 34.7852778 80.12 35.7552778 88.0133333 27.9952778 85.2266667"></polygon>
            <polygon id="Path" fill="#FFED00" points="18.0931944 74.48 25.6915278 77.04 26.8636111 84.88 19.3056944 82.1333333"></polygon>
            <polygon id="Path" fill="#696969" points="9.68652778 71.5733333 16.9211111 74.16 18.2683333 81.84 11.2088889 79.36"></polygon>
        </g>
    </g>
</svg>