<?xml version="1.0" encoding="UTF-8"?>
<svg width="97px" height="100px" viewBox="0 0 97 100" version="1.1" xmlns="http://www.w3.org/2000/svg" xmlns:xlink="http://www.w3.org/1999/xlink">
    <title>paritet_1</title>
    <g id="Big_cubes" stroke="none" stroke-width="1" fill="none" fill-rule="evenodd">
        <g id="paritet_1" fill-rule="nonzero">
            <polygon id="Path" fill="#000000" points="42.4071875 0.0303030303 96.575625 8.43939394 96.939375 66.8030303 63.110625 99.969697 9.80609375 80.5606061 0.0303125 21.1363636"></polygon>
            <polygon id="Path" fill="#FFED00" points="53.5470312 24.2121212 67.6726563 27.0454545 57.6998437 33.469697 43.6348437 30.3030303"></polygon>
            <polygon id="Path" fill="#FFED00" points="64.02 17.8484848 77.5848438 20.3333333 68.8851562 26.1515152 54.92625 23.5"></polygon>
            <polygon id="Path" fill="#FFED00" points="73.2653125 11.9242424 86.5573438 14.2424242 78.6457812 19.5151515 65.293125 17.1212121"></polygon>
            <polygon id="Path" fill="#FFED00" points="82.08625 6.60606061 94.93875 8.60606061 87.4970313 13.530303 74.6445312 11.1969697"></polygon>
            <polygon id="Path" fill="#FFED00" points="67.9 4.39393939 80.1765625 6.27272727 72.38625 11.030303 60.2460938 8.81818182"></polygon>
            <polygon id="Path" fill="#FFED00" points="59.17 9.51515152 71.295 11.5909091 63.2621875 16.7424242 50.56125 14.4090909"></polygon>
            <polygon id="Path" fill="#FFED00" points="49.3335938 15.1363636 62.0496875 17.4393939 52.8801563 22.9393939 40.194375 20.4242424"></polygon>
            <polygon id="Path" fill="#0062AC" points="38.7545312 21.1212121 51.6979687 23.8030303 41.891875 29.9242424 28.7817188 27.0151515"></polygon>
            <polygon id="Path" fill="#0062AC" points="24.6289062 18.4242424 36.8751562 20.8181818 26.79625 26.5757576 14.5803125 23.8333333"></polygon>
            <polygon id="Path" fill="#FFED00" points="35.5414063 12.5909091 47.5148438 14.6666667 38.1785938 20.030303 26.2960938 17.6515152"></polygon>
            <polygon id="Path" fill="#FFED00" points="45.5142188 7.27272727 57.23 9.15151515 48.8182813 14.030303 37.0115625 11.8636364"></polygon>
            <polygon id="Path" fill="#FFED00" points="54.7898437 2.31818182 66.0660937 4.06060606 58.4728125 8.46969697 46.8176562 6.60606061"></polygon>
            <polygon id="Path" fill="#FFED00" points="42.4678125 0.303030303 53.0014063 2.04545455 44.98375 6.24242424 34.1925 4.59090909"></polygon>
            <polygon id="Path" fill="#FFED00" points="33.1315625 5.16666667 43.710625 6.93939394 35.1625 11.5151515 24.2803125 9.59090909"></polygon>
            <polygon id="Path" fill="#FFED00" points="22.7495313 10.2878788 33.9651562 12.2878788 24.2803125 17.1515152 13.5042188 14.9090909"></polygon>
            <polygon id="Path" fill="#FFED00" points="11.9582813 15.6666667 22.976875 17.9545455 12.6403125 23.5 1.4246875 20.8939394"></polygon>
            <polygon id="Path" fill="#E31E24" points="59.3670313 34.5151515 68.6729687 28.3181818 69.3853125 43.6515152 60.200625 50.6212121"></polygon>
            <polygon id="Path" fill="#E31E24" points="70.0521875 27.1515152 78.8125 21.2272727 79.0853125 36.2878788 70.7190625 42.7727273"></polygon>
            <polygon id="Path" fill="#E31E24" points="79.964375 20.4545455 87.8304687 15.1363636 87.9971875 29.5909091 80.2523437 35.4545455"></polygon>
            <polygon id="Path" fill="#E31E24" points="88.8914062 14.4090909 95.969375 9.48484848 95.969375 23.5 89.058125 28.8181818"></polygon>
            <polygon id="Path" fill="#E31E24" points="60.5340625 52.3939394 69.6732813 45.4848485 70.385625 59.9848485 61.47375 67.4545455"></polygon>
            <polygon id="Path" fill="#E31E24" points="70.991875 44.3787879 79.2975 38.1212121 79.7521875 52.2272727 71.5526563 59.1060606"></polygon>
            <polygon id="Path" fill="#E31E24" points="80.3584375 37.3333333 88.1184375 31.3030303 88.27 45.1515152 80.7979688 51.3484848"></polygon>
            <polygon id="Path" fill="#E31E24" points="89.2248438 30.5909091 96.1967188 25.1060606 96.1967188 38.5 89.3915625 44.1515152"></polygon>
            <polygon id="Path" fill="#E31E24" points="61.6859375 69.1212121 70.6584375 61.9242424 71.2192188 75.6515152 62.5195313 83.5151515"></polygon>
            <polygon id="Path" fill="#E31E24" points="71.7648438 60.7575758 79.8582813 54 80.2978125 67.5151515 72.38625 74.5"></polygon>
            <polygon id="Path" fill="#E31E24" points="81.0253125 52.9545455 88.4367188 46.8636364 88.6034375 59.8787879 81.4042187 66.4090909"></polygon>
            <polygon id="Path" fill="#E31E24" points="89.4370313 46.0909091 96.1967188 40.3333333 96.2573438 52.8484848 89.8310938 58.7121212"></polygon>
            <polygon id="Path" fill="#E31E24" points="62.8226563 85.1818182 71.41625 77.3484848 71.9164062 90.5 63.5804688 98.6666667"></polygon>
            <polygon id="Path" fill="#E31E24" points="72.5984375 76.2121212 80.4342188 69.1515152 80.8889063 81.7272727 73.0682812 89.3636364"></polygon>
            <polygon id="Path" fill="#E31E24" points="81.5254688 68.0757576 88.7246875 61.6212121 88.8914062 73.9090909 81.7982813 80.8030303"></polygon>
            <polygon id="Path" fill="#E31E24" points="89.7704688 60.5454545 96.3634375 54.5 96.454375 66.5 89.8765625 72.9090909"></polygon>
            <polygon id="Path" fill="#0062AC" points="43.2407812 31.8636364 57.533125 35.0757576 58.5940625 50.8484848 44.801875 47.3030303"></polygon>
            <polygon id="Path" fill="#FFED00" points="28.069375 28.4848485 41.4220313 31.4090909 42.9073438 46.8636364 29.9032812 43.5454545"></polygon>
            <polygon id="Path" fill="#FFED00" points="13.94375 25.2727273 26.3567188 28.030303 28.1754688 42.9393939 16.0504688 39.8939394"></polygon>
            <polygon id="Path" fill="#0062AC" points="0.92453125 22.3333333 12.4432813 24.9848485 14.3832813 39.3939394 3.19796875 36.5606061"></polygon>
            <polygon id="Path" fill="#0062AC" points="44.9685938 49.1818182 58.7607813 52.8484848 59.7459375 67.7424242 46.2871875 63.5909091"></polygon>
            <polygon id="Path" fill="#0062AC" points="30.07 45.3181818 43.0285938 48.7424242 44.5139063 63.1969697 31.828125 59.3181818"></polygon>
            <polygon id="Path" fill="#0062AC" points="16.4445313 41.8181818 28.4634375 44.8636364 30.1760937 58.9393939 18.2026563 55.3333333"></polygon>
            <polygon id="Path" fill="#0062AC" points="3.47078125 38.2272727 14.7167188 41.2727273 16.5960938 54.8939394 5.69875 51.7878788"></polygon>
            <polygon id="Path" fill="#0062AC" points="46.5751563 65.7424242 59.9732812 69.7272727 60.9129687 83.6818182 47.89375 79.4242424"></polygon>
            <polygon id="Path" fill="#0062AC" points="32.2221875 61.3636364 44.6351563 65.1969697 46.1810938 78.6969697 33.6620313 74.6666667"></polygon>
            <polygon id="Path" fill="#0062AC" points="18.5967188 57.1666667 30.2821875 60.7121212 31.949375 74.2121212 20.37 70.2878788"></polygon>
            <polygon id="Path" fill="#0062AC" points="6.01703125 53.5606061 16.8840625 56.6666667 18.7028125 69.7272727 8.07828125 66.2424242"></polygon>
            <polygon id="Path" fill="#0062AC" points="48.0604688 81.1969697 61.1403125 85.6212121 62.08 98.8636364 49.166875 93.9242424"></polygon>
            <polygon id="Path" fill="#0062AC" points="34.0560938 76.4848485 46.3478125 80.6969697 47.3935938 93.3787879 35.2685938 88.8333333"></polygon>
            <polygon id="Path" fill="#0062AC" points="20.7034375 71.9545455 32.2828125 75.9393939 33.5559375 88.3333333 22.31 84.2878788"></polygon>
            <polygon id="Path" fill="#0062AC" points="8.35109375 67.8484848 18.9907812 71.5606061 20.5973438 83.7424242 10.3517187 79.969697"></polygon>
        </g>
    </g>
</svg>