<?xml version="1.0" encoding="UTF-8"?>
<svg width="97px" height="100px" viewBox="0 0 97 100" version="1.1" xmlns="http://www.w3.org/2000/svg" xmlns:xlink="http://www.w3.org/1999/xlink">
    <title>paritet_8</title>
    <g id="Big_cubes" stroke="none" stroke-width="1" fill="none" fill-rule="evenodd">
        <g id="paritet_8" transform="translate(0.000000, 0.000000)" fill-rule="nonzero">
            <polygon id="Path" fill="#000000" points="0.0346428571 20.3218391 43.4883333 0.0344827586 96.3879762 8.06896552 95.9607143 64.908046 62.1377381 99.1494253 11.0972619 77.6091954"></polygon>
            <polygon id="Path" fill="#696969" points="53.7195238 25.7356322 65.0246429 28.2528736 56.8489286 33.7471264 45.1280952 30.8965517"></polygon>
            <polygon id="Path" fill="#FFFFFF" points="62.3917857 20.3563218 73.5467857 22.6321839 66.0754762 27.5632184 54.6664286 25.091954"></polygon>
            <polygon id="Path" fill="#FFFFFF" points="70.3480952 15.4252874 81.3645238 17.4137931 74.4936905 21.9885057 63.3155952 19.7471264"></polygon>
            <polygon id="Path" fill="#FFFFFF" points="77.8425 10.8965517 88.4316667 12.6206897 82.2652381 16.7931034 71.4220238 14.8850575"></polygon>
            <polygon id="Path" fill="#696969" points="84.6902381 6.64367816 95.1754762 8.2183908 89.24 12.0689655 78.7316667 10.3103448"></polygon>
            <polygon id="Path" fill="#009846" points="41.6522619 23.0804598 52.0913095 25.3793103 43.499881 30.5632184 32.829881 27.9770115"></polygon>
            <polygon id="Path" fill="#FFED00" points="50.5554762 17.9885057 60.9136905 20.0344828 53.1075 24.6896552 42.68 22.4712644"></polygon>
            <polygon id="Path" fill="#FFED00" points="58.8120238 13.2873563 68.9392857 15.137931 61.9645238 19.4712644 51.4792857 17.3793103"></polygon>
            <polygon id="Path" fill="#FFED00" points="66.4565476 8.93103448 76.4336905 10.6321839 69.84 14.6321839 59.6780952 12.7471264"></polygon>
            <polygon id="Path" fill="#FFED00" points="73.4197619 4.90804598 83.3391667 6.4137931 77.3575 10.0804598 67.4265476 8.47126437"></polygon>
            <polygon id="Path" fill="#009846" points="30.220119 20.5862069 40.0702381 22.7241379 31.4557143 27.5632184 21.5016667 25.1954023"></polygon>
            <polygon id="Path" fill="#FFED00" points="39.5044048 15.7241379 48.892619 17.7126437 41.1903571 22.1149425 31.3286905 19.9770115"></polygon>
            <polygon id="Path" fill="#FFED00" points="47.8417857 11.2988506 57.23 13.0574713 50.0127381 17.0804598 40.4282143 15.1954023"></polygon>
            <polygon id="Path" fill="#FFED00" points="55.6479762 7.22988506 64.9784524 8.75862069 58.4078571 12.4482759 48.7425 10.7931034"></polygon>
            <polygon id="Path" fill="#FFED00" points="62.8305952 3.35632184 72.114881 4.67816092 66.0985714 8.17241379 56.6179762 6.62068966"></polygon>
            <polygon id="Path" fill="#009846" points="19.6886905 18.2528736 28.8690476 20.2643678 20.219881 24.8965517 11.0164286 22.5747126"></polygon>
            <polygon id="Path" fill="#FFED00" points="28.9152381 13.6666667 38.1995238 15.4712644 29.9660714 19.7011494 21.0166667 17.6666667"></polygon>
            <polygon id="Path" fill="#FFED00" points="37.5066667 9.43678161 46.409881 11.0689655 39.0194048 14.9425287 30.1970238 13.0804598"></polygon>
            <polygon id="Path" fill="#FFED00" points="45.5669048 5.49425287 54.3430952 6.91954023 47.3336905 10.5402299 38.6152381 8.88505747"></polygon>
            <polygon id="Path" fill="#FFED00" points="52.8765476 1.7816092 61.5257143 3.10344828 55.2322619 6.33333333 46.5138095 5.01149425"></polygon>
            <polygon id="Path" fill="#696969" points="9.96559524 15.9885057 18.4646429 17.9655172 9.71154762 22.2758621 1.07392857 20.183908"></polygon>
            <polygon id="Path" fill="#FFED00" points="19.2267857 11.6091954 27.7720238 13.4137931 19.734881 17.3793103 11.0395238 15.4942529"></polygon>
            <polygon id="Path" fill="#FFED00" points="27.8413095 7.65517241 36.2710714 9.17241379 28.7304762 12.8045977 20.3007143 11.1494253"></polygon>
            <polygon id="Path" fill="#FFED00" points="36.0516667 3.83908046 44.1580952 5.1954023 37.3565476 8.67816092 28.9152381 7.14942529"></polygon>
            <polygon id="Path" fill="#696969" points="37.0563095 3.4137931 43.5922619 0.356321839 51.6525 1.55172414 45.255119 4.75862069"></polygon>
            <polygon id="Path" fill="#696969" points="44.8971429 32.2183908 56.3639286 35.0229885 57.3339286 47.908046 46.1327381 44.8965517"></polygon>
            <polygon id="Path" fill="#FFED00" points="32.5989286 29.1724138 43.2920238 31.8965517 44.62 44.3678161 34.0885714 41.3333333"></polygon>
            <polygon id="Path" fill="#FFED00" points="21.1667857 26.3448276 31.2247619 28.9885057 32.7259524 40.908046 22.9913095 38.2298851"></polygon>
            <polygon id="Path" fill="#FFED00" points="10.6584524 23.7471264 19.8388095 26.1609195 21.6517857 37.8275862 12.5522619 35.2988506"></polygon>
            <polygon id="Path" fill="#696969" points="0.658214286 21.3333333 9.35357143 23.5172414 11.2704762 34.8965517 2.88690476 32.5747126"></polygon>
            <polygon id="Path" fill="#FFED00" points="46.3290476 46.4252874 57.4609524 49.5517241 58.350119 61.6206897 47.4838095 58.137931"></polygon>
            <polygon id="Path" fill="#009846" points="34.4119048 43.091954 44.7470238 45.862069 45.9479762 57.6781609 35.7745238 54.3448276"></polygon>
            <polygon id="Path" fill="#009846" points="23.1645238 39.7586207 32.887619 42.5862069 34.342619 53.8390805 24.8735714 50.7816092"></polygon>
            <polygon id="Path" fill="#009846" points="12.7370238 36.7241379 21.8596429 39.3448276 23.5225 50.4712644 14.700119 47.5977011"></polygon>
            <polygon id="Path" fill="#FFFFFF" points="3.06011905 34 11.5014286 36.3678161 13.4760714 47.2643678 5.16178571 44.6436782"></polygon>
            <polygon id="Path" fill="#FFFFFF" points="47.6916667 59.7701149 58.5117857 63.2988506 59.4240476 74.5747126 48.7655952 70.7126437"></polygon>
            <polygon id="Path" fill="#009846" points="36.0516667 55.8965517 46.1789286 59.2758621 47.2528571 70.2758621 37.3796429 66.7356322"></polygon>
            <polygon id="Path" fill="#009846" points="25.2084524 52.4827586 34.6428571 55.4367816 35.9477381 66.2528736 26.767381 62.8965517"></polygon>
            <polygon id="Path" fill="#009846" points="14.9541667 49.045977 23.7534524 51.9195402 25.370119 62.5172414 16.7671429 59.4827586"></polygon>
            <polygon id="Path" fill="#FFED00" points="5.49666667 45.9655172 13.6492857 48.6666667 15.4738095 58.954023 7.36738095 56.045977"></polygon>
            <polygon id="Path" fill="#FFED00" points="48.9965476 72.2068966 59.504881 76.0804598 60.3478571 86.7701149 50.0127381 82.6781609"></polygon>
            <polygon id="Path" fill="#009846" points="37.6105952 68.1954023 47.3567857 71.7816092 48.5346429 82.1149425 38.8692857 78.2643678"></polygon>
            <polygon id="Path" fill="#009846" points="26.9521429 64.3678161 36.1786905 67.6551724 37.5413095 77.8850575 28.4879762 74.3793103"></polygon>
            <polygon id="Path" fill="#009846" points="16.9519048 60.7586207 25.5895238 63.7586207 27.252381 73.8965517 18.6378571 70.5862069"></polygon>
            <polygon id="Path" fill="#FFFFFF" points="7.58678571 57.4252874 15.7509524 60.3218391 17.5177381 70.1264368 9.43440476 66.7931034"></polygon>
            <polygon id="Path" fill="#696969" points="50.1397619 84.1264368 60.5557143 88.1954023 61.2139286 98.3333333 51.1444048 94"></polygon>
            <polygon id="Path" fill="#009846" points="39.0425 79.6666667 48.6616667 83.4827586 49.7355952 93.5172414 40.3011905 89.4942529"></polygon>
            <polygon id="Path" fill="#009846" points="28.6380952 75.6206897 37.6452381 79.1609195 38.9732143 88.9655172 30.07 85.2183908"></polygon>
            <polygon id="Path" fill="#009846" points="18.8688095 71.7011494 27.4371429 75.2413793 28.8228571 84.7126437 20.5778571 81.1954023"></polygon>
            <polygon id="Path" fill="#696969" points="9.73464286 68.1609195 17.6909524 71.3448276 19.307619 80.6321839 11.5245238 77.4022989"></polygon>
            <polygon id="Path" fill="#696969" points="57.7611905 34.8505747 65.867619 29.2413793 66.6182143 41.7931034 58.7080952 47.6781609"></polygon>
            <polygon id="Path" fill="#0062AC" points="67.022381 28.5287356 74.4359524 23.5977011 74.8516667 35.7586207 67.6921429 40.954023"></polygon>
            <polygon id="Path" fill="#0062AC" points="75.5329762 22.8275862 82.2075 18.2988506 82.4384524 30.0574713 75.8447619 34.9770115"></polygon>
            <polygon id="Path" fill="#0062AC" points="83.2121429 17.6666667 89.3785714 13.5172414 89.4478571 24.862069 83.3853571 29.3678161"></polygon>
            <polygon id="Path" fill="#696969" points="90.3485714 12.8735632 95.9722619 9.08045977 95.9145238 20.137931 90.2908333 24.2298851"></polygon>
            <polygon id="Path" fill="#EF7F1A" points="58.9390476 49.2528736 66.7105952 43.4482759 67.3341667 55.2643678 59.7589286 61.4482759"></polygon>
            <polygon id="Path" fill="#E31E24" points="67.8191667 42.6091954 74.9209524 37.3448276 75.3366667 48.7126437 68.4080952 54.3218391"></polygon>
            <polygon id="Path" fill="#E31E24" points="75.9717857 36.6551724 82.4961905 31.5862069 82.7502381 42.6896552 76.3528571 47.954023"></polygon>
            <polygon id="Path" fill="#E31E24" points="83.512381 31 89.4709524 26.3448276 89.5517857 37.1609195 83.7202381 41.8505747"></polygon>
            <polygon id="Path" fill="#E31E24" points="90.3139286 25.862069 95.8914286 21.6091954 95.8683333 31.9885057 90.3716667 36.4942529"></polygon>
            <polygon id="Path" fill="#009846" points="59.9090476 62.9770115 67.4611905 56.7356322 68.0732143 67.8390805 60.7058333 74.2988506"></polygon>
            <polygon id="Path" fill="#E31E24" points="68.5582143 55.9425287 75.4059524 50.1954023 75.8447619 61.0114943 69.1471429 66.9425287"></polygon>
            <polygon id="Path" fill="#E31E24" points="76.479881 49.3333333 82.7502381 44.2413793 82.9580952 54.7471264 76.7916667 60.091954"></polygon>
            <polygon id="Path" fill="#E31E24" points="83.7779762 43.4252874 89.5517857 38.6321839 89.632619 48.816092 83.905 53.908046"></polygon>
            <polygon id="Path" fill="#E31E24" points="90.3716667 38.0229885 95.8683333 33.4137931 95.7644048 43.4712644 90.4755952 48.0804598"></polygon>
            <polygon id="Path" fill="#EF7F1A" points="60.9136905 75.8735632 68.2233333 69.2298851 68.7660714 79.7241379 61.6758333 86.3908046"></polygon>
            <polygon id="Path" fill="#E31E24" points="69.2972619 68.3908046 75.9717857 62.3908046 76.2489286 72.6206897 69.7591667 78.8505747"></polygon>
            <polygon id="Path" fill="#E31E24" points="76.8725 61.5517241 83.0620238 56.1034483 83.2583333 66 77.2304762 71.7011494"></polygon>
            <polygon id="Path" fill="#E31E24" points="83.9742857 55.3103448 89.6557143 50.2413793 89.7019048 59.9195402 84.1013095 65.2643678"></polygon>
            <polygon id="Path" fill="#E31E24" points="90.544881 49.5287356 95.7182143 44.7931034 95.637381 54.3448276 90.544881 59.2528736"></polygon>
            <polygon id="Path" fill="#696969" points="61.9067857 87.9195402 68.8930952 81.1954023 69.4242857 91.1954023 62.4495238 98.1264368"></polygon>
            <polygon id="Path" fill="#FFED00" points="69.9670238 80.0804598 76.3297619 73.9885057 76.7685714 83.6896552 70.3711905 90.2068966"></polygon>
            <polygon id="Path" fill="#FFED00" points="77.3575 73.2068966 83.2583333 67.4827586 83.4661905 76.8735632 77.6346429 82.8275862"></polygon>
            <polygon id="Path" fill="#FFED00" points="84.1590476 66.6091954 89.7365476 61.2183908 89.7365476 70.6321839 84.3091667 76.1609195"></polygon>
            <polygon id="Path" fill="#696969" points="90.5795238 60.5287356 95.6142857 55.6206897 95.5911905 64.7586207 90.5795238 69.7701149"></polygon>
        </g>
    </g>
</svg>