<?xml version="1.0" encoding="UTF-8"?>
<svg width="96px" height="100px" viewBox="0 0 96 100" version="1.1" xmlns="http://www.w3.org/2000/svg" xmlns:xlink="http://www.w3.org/1999/xlink">
    <title>gear_1_1</title>
    <g id="Gear" stroke="none" stroke-width="1" fill="none" fill-rule="evenodd">
        <g id="gear_1_1" fill-rule="nonzero">
            <path d="M1.32,15.31 L17.61,9.37 L23.24,13.49 L25.34,3.41 L30.58,5.21 L34.5,4.81 L46.17,0.34 C46.17,0.34 46.77,0.03 47.61,0.03 C48.1954668,0.0481074647 48.7750511,0.152567422 49.33,0.34 L60.26,4.07 L62.33,1.81 L75.19,11.44 L78.29,9.85 L94.27,15.31 C94.27,15.31 94.83,15.65 95.09,15.98 C95.3135562,16.3321995 95.4979828,16.707759 95.64,17.1 L92.73,35.5 L87.95,37.9 L93.38,43.78 C93.38,43.78 93.89,44.34 93.89,44.96 C93.89,45.58 93.38,46.2 93.38,46.2 L86.49,52.63 L90.54,55.76 L88.47,68.96 C88.47,68.96 88.3,69.74 87.89,70.36 C87.49,71 86.93,71.39 86.93,71.39 L75.97,78.49 C75.97,78.49 76.27,80.04 75.97,80.49 C75.67,80.96 75.07,81.18 75.07,81.18 L60.65,86.79 L60.65,89 L46.9,98.91 C46.9,98.91 45.64,99.81 44.67,99.81 C43.71,99.81 42.77,98.91 42.77,98.91 L30.57,87.56 L30.97,81.72 L23.22,83.42 C23.22,83.42 22.42,83.55 22.02,83.38 C21.61,83.22 21.36,82.67 21.36,82.67 L18.24,75.37 L16.76,75.37 L8.24,67.89 C8.24,67.89 7.57,67.68 7.12,66.62 C6.79407215,65.6163378 6.60240813,64.5739545 6.55,63.52 L5.8,52.64 L2.97,52.17 L5.01,36.17 L2.97,34.77 L0.21,17.79 C0.21,17.79 0.17,16.78 0.38,16.32 C0.58,15.86 1.32,15.32 1.32,15.32 L1.32,15.31 Z" id="Path" fill="#000000"></path>
            <path d="M47.89,0 L36.29,4.45 L37.79,5.05 C37.79,5.05 41.23,3.82 41.59,3.82 C41.95,3.82 46.05,6.19 46.05,6.19 L43.11,7.79 L45.48,8.54 L47.6,7.4 L50.98,8.54 L52.49,7.78 L49.83,6.19 L54.01,3.82 L58.73,4.8 L59.49,4.07 L47.9,0 L47.89,0 Z" id="Path" fill="#FFDB11"></path>
            <polygon id="Path" fill="#FFDB11" points="1.64 15.9 17.4 9.97 18.56 10.84 13.06 12.84 20.89 15.14 25.29 13.84 27.71 14.36 24.25 15.73 27.97 17.09 25.29 18.49 21.29 16.74 12.71 19.48 15.53 21.58 14.04 22.44 1.63 15.88"></polygon>
            <path d="M13.14,34.1 L16.26,36.45 L15.12,41.23 L19.72,42.76 L20.4,37.89 C20.4,37.89 22.25,38.39 23.93,38.27 C25.62,38.13 27.14,37.37 27.14,37.37 L30.26,41.62 L32.51,39.13 L28.45,34.59 L29.73,31.33 L36.78,30.16 L36.17,25.45 L30.26,26.27 L28.96,21.47 L13.14,34.11 L13.14,34.1 Z" id="Path" fill="#696969"></path>
            <polygon id="Path" fill="#FFDB11" points="47.98 12.05 38.65 15.31 47.55 19.89 56.91 16.46"></polygon>
            <path d="M64.16,3.5 L64.16,4.8 L60.23,4.15 L60.83,7.78 L64.86,7.78 C64.86,7.78 65.3,9.53 65.98,10.53 C66.66,11.52 68.58,13.19 68.58,13.19 L72.5,14.8 L73.48,13.5 L75.33,12.66 L75.33,11.92 L64.16,3.5 Z" id="Path" fill="#696969"></path>
            <polygon id="Path" fill="#F2F2F2" points="93.84 15.73 78.56 10.3 77.59 11.14 81.2 12.67 73.02 15.16 68 13 66.4 13.93 69.61 15.73 66.39 16.62 69.61 18.01 73.59 16.61 82.76 18.78 80.11 20.71 81.54 21.53"></polygon>
            <path d="M72.15,18.5 L69.82,19.05 L67.99,20.45 L63.92,17.1 L60.5,19.99 L63.92,23.24 C63.92,23.24 62.86,24.52 62.48,25.74 C62.1,26.97 61.92,28.79 61.92,28.79 L55.56,29.61 L55.56,31.93 L62.34,30.79 L63.31,32.84 L65.47,34.59 L62.78,40.52 L67.99,42.79 L69.82,37.37 L75.22,37.97 L72.15,18.5 L72.15,18.5 Z" id="Path" fill="#696969"></path>
            <polygon id="Path" fill="#F2F2F2" points="45.48 40.22 62.34 31.9 61.02 30.84 55.42 32.84 48.92 28.78 52.92 26.28 50.82 25.02 47.12 27 42.72 25.02 40.34 26.27 44.55 28.78 38.4 32.84 32.96 30.84 30.09 31.4 45.48 40.22"></polygon>
            <path d="M37.08,69.95 L40.64,65.5 L37.64,61.34 L42.27,57.34 L44.9,62.86 L47.17,62.38 L49.62,62.38 L52.39,56.95 L55.3,58.82 L53.27,63.52 C53.27,63.52 54.57,64.78 55.3,66.62 C56.04,68.46 56.07,70.54 56.07,70.54 L60.84,68.1 L61.71,73.63 L56.07,74.55 L55.3,78.9 L37.08,69.95 L37.08,69.95 Z" id="Path" fill="#696969"></path>
            <path d="M75.1,80.76 L60.63,86.22 L60.63,84.18 L59.69,81.99 L60.63,80.76 L60.63,80.28 L62.27,77.94 L63.23,79.74 C63.23,79.74 64.99,78.97 65.93,78.9 C66.8950083,78.9456494 67.8514332,79.1033756 68.78,79.37 L70.2,76.31 L74.4,77.09 L72.76,79.73 L75.09,80.76 L75.1,80.76 Z" id="Path" fill="#696969"></path>
            <polygon id="Path" fill="#D0021B" points="44.2 42.85 29.39 34.59 29.39 35.78 33.46 39.7 32.8 47.73 29.39 46.2 29.39 48.83 32.79 50.82 32.79 55.06 35.23 56.95 35.23 52.04 42.13 55.06 43.33 60.43 44.43 60.93 44.2 42.85"></polygon>
            <polygon id="Path" fill="#D0021B" points="0.84 17.67 12.76 24.25 12.76 26.58 8.59 25.15 11.5 34.95 14.35 37.27 14.87 39.7 12.76 39.13 12.76 41.93 10.56 40.53 9.79 35.8 3.76 30.84 4.43 35.35 3.28 34.39 0.84 17.67"></polygon>
            <polygon id="Path" fill="#D0021B" points="18.07 48.3 18.8 59.17 27.13 65.5 26.5 54"></polygon>
            <polygon id="Path" fill="#FF8100" points="43.74 84.18 43.74 99.2 31.2 87.16 31.2 85.94 34.4 88.31 33.48 80.33 30.2 77.11 30.2 74.94 32.84 76.64 32.84 73.64 34.95 75.37 34.95 80.33 41.71 87.16 42.32 83.14 43.75 84.19"></polygon>
            <polygon id="Path" fill="#FF8100" points="7.22 66.62 6.37 54.54 7.65 55.36 7.88 58.56 12.3 61.19 12.3 56.95 14.32 58 14.3 61.97 16.73 63.91 16.73 65.91 13.71 63.91 13.39 70.08 15.74 72.46 15.74 74 7.22 66.6"></polygon>
            <path d="M5.38,36.77 L6.33,36.95 L8.16,37.89 L9.81,37.33 L10.43,41 C10.43,41 9.77,43.47 9.34,44.3 C8.92,45.12 7.91,45.92 7.91,45.92 L8.94,49.84 L6.33,52.64 L5.38,48.9 L3.58,50.82 L5.38,36.77 L5.38,36.77 Z" id="Path" fill="#696969"></path>
            <polygon id="Path" fill="#009A0E" points="46.7 42.85 46.7 60.72 48.42 60.49 49.96 54.39 57.32 52.63 57.32 56.95 60.35 55.75 60.35 51.47 64.68 48.97 63.99 46.71 60.35 48.3 59.07 40.22 63.3 36.77 62.82 34.96"></polygon>
            <polygon id="Path" fill="#009A0E" points="95.25 17.1 82.95 23.24 82.95 25.45 86.35 24.57 85.04 33.75 80.36 36.77 80.04 39.13 82.64 37.96 81.61 42.15 84.24 40.22 85.96 35.34 91.43 31.84 91.43 35.34 92.55 34.96 95.25 17.1"></polygon>
            <polygon id="Path" fill="#009A0E" points="66.92 55.76 76.12 50.2 75.09 60.72 66.21 66.62 66.91 55.76"></polygon>
            <polygon id="Path" fill="#025AC1" points="46.46 84.9 48.21 84.18 49.12 87.15 55.94 81.03 56.29 77.15 58.93 75.04 59.23 78.19 62 76.63 62 79.37 58.17 81.52 56.78 89 60 87.8 60.28 89 45.98 98.93 46.46 84.91"></polygon>
            <polygon id="Path" fill="#009A0E" points="77.03 77.32 87.64 70.54 90.11 56.5 88.69 56.95 87.62 61.45 82.47 63.91 82.75 59.88 80.6 60.72 80.34 64.7 77.03 66.62 77.03 69.11 80.91 67.48 80.6 73.16 77.44 75.36 77.03 77.32"></polygon>
        </g>
    </g>
</svg>