<?xml version="1.0" encoding="UTF-8"?>
<svg width="208px" height="100px" viewBox="0 0 208 100" version="1.1" xmlns="http://www.w3.org/2000/svg" xmlns:xlink="http://www.w3.org/1999/xlink">
    <title>gear_2_1</title>
    <g id="Gear" stroke="none" stroke-width="1" fill="none" fill-rule="evenodd">
        <g id="gear_2_1" fill-rule="nonzero">
            <path d="M17.6,9.37 L1.33,15.31 C1.33,15.31 0.6,15.85 0.39,16.31 C0.19,16.77 0.22,17.78 0.22,17.78 L4.5,48 L6.56,63.53 C6.56,63.53 6.67,65.56 7.13,66.62 C7.58,67.68 8.25,67.89 8.25,67.89 L16.77,75.36 L18.25,75.36 L21.37,82.66 C21.37,82.66 21.62,83.22 22.03,83.38 C22.43,83.55 23.23,83.43 23.23,83.43 L30.97,81.73 L30.58,87.56 L42.76,98.91 C42.76,98.91 43.71,99.81 44.67,99.81 C45.64,99.81 46.9,98.91 46.9,98.91 L75.5,79 L86.93,71.4 C86.93,71.4 87.49,71 87.89,70.37 C88.1523771,69.9350247 88.3478939,69.4630876 88.47,68.97 L92.5,42.5 L95.64,17.1 C95.64,17.1 95.35,16.32 95.09,15.98 C94.83,15.65 94.27,15.31 94.27,15.31 L78.28,9.85 L75.19,11.45 L62.33,1.8 L60.26,4.06 L49.33,0.33 C49.33,0.33 48.45,0.02 47.61,0.02 C46.76,0.02 46.17,0.33 46.17,0.33 L17.61,9.37 L17.6,9.37 Z" id="Path" fill="#000000"></path>
            <path d="M47.89,0 L36,4.08 L37.8,5.05 C37.8,5.05 41.23,3.83 41.59,3.83 C41.95,3.83 46.05,6.2 46.05,6.2 L43.11,7.8 L45.48,8.55 L47.6,7.4 L50.98,8.54 L52.49,7.78 L49.83,6.19 L54.01,3.82 L58.73,4.8 L59.49,4.07 L47.9,0 L47.89,0 Z" id="Path" fill="#FFDB11"></path>
            <polygon id="Path" fill="#FFDB11" points="1.64 15.9 17.4 9.97 18.56 10.84 13.06 12.84 20.89 15.14 25.29 13.84 27.71 14.36 24.25 15.73 27.97 17.09 25.29 18.49 21.29 16.74 12.71 19.48 15.53 21.58 14.04 22.44 1.63 15.88"></polygon>
            <path d="M13.14,34.1 L16.26,36.45 L15.12,41.23 L19.72,42.76 L20.4,37.89 C20.4,37.89 22.25,38.39 23.93,38.27 C25.62,38.13 27.14,37.37 27.14,37.37 L30.26,41.62 L32.51,39.13 L28.45,34.59 L29.73,31.33 L36.78,30.16 L36.17,25.45 L30.26,26.27 L28.96,21.47 L13.14,34.11 L13.14,34.1 Z" id="Path" fill="#979797"></path>
            <polygon id="Path" fill="#FFDB11" points="47.98 12.05 38.65 15.31 47.55 19.89 56.91 16.46"></polygon>
            <path d="M64.16,3.5 L64.16,4.8 L60.23,4.15 L60.83,7.78 L64.86,7.78 C64.86,7.78 65.3,9.53 65.98,10.53 C66.66,11.52 68.58,13.19 68.58,13.19 L72.5,14.8 L73.48,13.5 L75.33,12.66 L75.33,11.92 L64.16,3.5 Z" id="Path" fill="#979797"></path>
            <polygon id="Path" fill="#FFDB11" points="93.84 15.73 78.56 10.3 77.59 11.14 81.2 12.67 73.02 15.16 68 13 66.4 13.93 69.61 15.73 66.39 16.62 69.61 18.01 73.59 16.61 82.76 18.78 80.11 20.71 81.54 21.53"></polygon>
            <polygon id="Path" fill="#FFDB11" points="45.48 40.22 62.34 31.9 61.02 30.84 55.42 32.84 48.92 28.78 52.92 26.28 50.82 25.02 47.12 27 42.72 25.02 40.34 26.27 44.55 28.78 38.4 32.84 32.96 30.84 30.09 31.4 45.48 40.22"></polygon>
            <polygon id="Path" fill="#D0021B" points="44.2 42.85 29.39 34.59 29.39 35.78 33.46 39.7 32.8 47.73 29.39 46.2 29.39 48.83 32.79 50.82 32.79 55.06 35.23 56.95 35.23 52.04 42.13 55.06 43.33 60.43 44.43 60.93 44.2 42.85"></polygon>
            <polygon id="Path" fill="#D0021B" points="0.84 17.67 12.76 24.25 12.76 26.58 8.59 25.15 11.5 34.95 14.35 37.27 14.87 39.7 12.76 39.13 12.76 41.93 10.56 40.53 9.79 35.8 3.76 30.84 4.43 35.35 3.28 34.39 0.84 17.67"></polygon>
            <polygon id="Path" fill="#D0021B" points="18.07 48.3 18.8 59.17 27.13 65.5 26.5 54"></polygon>
            <polygon id="Path" fill="#D0021B" points="43.74 84.18 43.74 99.2 31.2 87.16 31.2 85.94 34.4 88.31 33.48 80.33 30.2 77.11 30.2 74.94 32.84 76.64 32.84 73.64 34.95 75.37 34.95 80.33 41.71 87.16 42.32 83.14 43.75 84.19"></polygon>
            <polygon id="Path" fill="#D0021B" points="7.22 66.62 6 54 7.65 55.36 7.88 58.56 12.3 61.19 12.3 56.95 14.32 58 14.3 61.97 16.73 63.91 16.73 65.91 13.71 63.91 13.39 70.08 15.74 72.46 15.74 74 7.22 66.6"></polygon>
            <polygon id="Path" fill="#009A0E" points="46.7 42.85 46.7 60.72 48.42 60.49 49.96 54.39 57.32 52.63 57.32 56.95 60.35 55.75 60.35 51.47 64.68 48.97 63.99 46.71 60.35 48.3 59.07 40.22 63.3 36.77 62.82 34.96"></polygon>
            <polygon id="Path" fill="#009A0E" points="95.25 17.1 82.95 24 82.95 26.5 86.35 24.57 85.04 33.75 80.36 36.77 80.04 39.13 82.64 37.96 81.61 42.15 84.24 40.22 85.96 35.34 91.43 31.84 91.43 35.34 92.55 34.96 95.25 17.1"></polygon>
            <polygon id="Path" fill="#009A0E" points="66.92 55.76 76.12 50.2 75.09 60.72 66.21 66.62 66.91 55.76"></polygon>
            <polygon id="Path" fill="#009A0E" points="46.46 84.9 48.21 84.18 49.12 87.15 55.94 81.03 56.29 77.15 58.93 75.04 59.23 78.19 62 76.63 62 79.37 58.17 81.52 56.78 89 60 87.8 60.28 89 45.98 98.93 46.46 84.91"></polygon>
            <polygon id="Path" fill="#009A0E" points="77.03 77.32 87.64 70.54 90.11 56.5 88.69 56.95 87.62 61.45 82.47 63.91 82.75 59.88 80.6 60.72 80.34 64.7 77.03 66.62 77.03 69.11 80.91 67.48 80.6 73.16 77.44 75.36 77.03 77.32"></polygon>
            <path d="M159.4,0 C160.24,0 160.98,0.36 160.98,0.36 L206.45,16.18 C206.45,16.18 207.7,16.99 207.85,17.48 C208,17.98 207.980886,19.24 207.980886,19.24 L200.11,68.73 C200.11,68.73 199.77,70.06 199.45,70.6 C199.00707,71.1314473 198.495999,71.6021709 197.93,72 L159.4,99.3 C159.4,99.3 158.45,99.92 157.49,99.82 C156.788044,99.6938539 156.132284,99.383231 155.59,98.92 L119.16,68.74 C119.16,68.74 118.44,68.13 118.16,67.58 C117.9,67.02 117.58,65.51 117.58,65.51 L112,17.5 C112,17.5 111.95,16.06 112.17,15.51 C112.39,14.97 113.34,14.22 113.34,14.22 L157.95,0.22 C157.95,0.22 158.56,0 159.41,0 L159.4,0 Z" id="Path" fill="#000000"></path>
            <polygon id="Path" fill="#FFDB11" points="158.75 40.14 174.91 32.19 173.25 31.12 167.77 32.84 161.41 28.37 165.36 26.27 162.97 24.85 159.19 26.28 155.49 24.46 153.32 25.48 156.85 27.86 149.7 32.29 144.98 30.69 143.01 31.59 158.75 40.14"></polygon>
            <path d="M191.98,23.95 L188.47,22.85 L189.1,20.38 L184.7,19.93 L185.14,22.41 C185.14,22.41 182.4,22.07 181.41,22.13 C179.1,22.26 177.94,22.69 177.94,22.69 L174.18,20.69 L172.28,21.39 L176.17,23.43 C176.17,23.43 175.37,24.04 175.22,24.48 C175.086264,25.0489129 175.086264,25.6410871 175.22,26.21 L169.49,26.64 L170.03,28.48 L176.09,28.15 C176.09,28.15 176.57,28.97 176.96,29.38 C177.355344,29.7391466 177.77283,30.073136 178.21,30.38 L191.98,23.95 L191.98,23.95 Z" id="Path" fill="#696969"></path>
            <polygon id="Path" fill="#FFDB11" points="206.38 16.58 190.85 10.98 190.29 11.34 194.36 12.94 185.74 15.34 181.74 13.6 179.41 14.48 181.75 15.99 179.91 17.33 182.05 18.73 186.13 17.33 195.83 19.66 192.29 21.53 193.92 22.73 206.38 16.58"></polygon>
            <path d="M173.75,4.96 L172.95,5.62 L168.1,5.62 L168.1,6.64 L172.44,6.64 C172.44,6.64 172.18,7.56 172.44,8.01 C172.882865,8.48478502 173.395398,8.8894163 173.96,9.21 L170.62,10.56 L172.02,11.13 L175.35,9.87 C175.35,9.87 176.67,10.17 178.37,10.17 C180.07,10.17 181.75,10.2 181.75,10.2 L182.25,11.84 L185.78,11.56 L185.17,9.86 L187.06,9.61 L173.75,4.96 L173.75,4.96 Z" id="Path" fill="#696969"></path>
            <polygon id="Path" fill="#FFDB11" points="159.82 11.53 168.62 14.86 159.28 18.79 150.48 15.16 159.82 11.53"></polygon>
            <path d="M127.7,22.14 L130.73,21.45 L130.73,19.12 L134.73,18.63 L134.58,21.08 C134.58,21.08 137.1,20.94 138.07,21.02 C139.164217,21.1632916 140.246922,21.3838425 141.31,21.68 L145.35,20.38 L146.94,21.17 L142.98,22.71 C142.98,22.71 144.01,23.39 144.18,24.08 C144.36,24.78 143.68,25.52 143.68,25.52 L148.86,26 L148.3,27.99 L142.67,27.75 L139.97,29.35 L127.7,22.14 L127.7,22.14 Z" id="Path" fill="#696969"></path>
            <polygon id="Path" fill="#FFDB11" points="113.78 14.84 125.78 21.14 127.58 20.44 124.4 18.31 134.24 16 137.6 17.65 140.01 16.9 137.61 15.26 140.76 14.06 137.6 12.96 134.25 14.4 126.68 12.25 130.68 10.85 129.03 9.82 113.78 14.84"></polygon>
            <path d="M132.34,8.6 L134.58,9.24 L133.86,10.94 L136.62,11.19 L137.49,9.24 C137.49,9.24 139.15,9.48 140.76,9.41 C142.36,9.33 143.81,8.95 143.81,8.95 L146.32,10.37 L148.38,9.64 L145.89,8.33 C145.89,8.33 146.54,7.83 146.67,7.53 C146.81,7.23 146.67,6.5 146.67,6.5 L151.34,6.25 L150.84,5.21 L146.32,5.48 L145.38,4.58 L132.34,8.6 L132.34,8.6 Z" id="Path" fill="#696969"></path>
            <path d="M159.32,0.17 L147.98,3.66 L148.89,4.07 L153.06,2.97 L154.94,4.36 L158.3,5.93 L154.69,7.12 L156.19,7.89 L159.68,6.87 L163.02,7.89 L164.59,7.37 L161.31,6.07 L163.99,4.63 C165.61,3.75 166.28,3.11 166.28,3.11 L170.46,4.35 L171.15,4.12 L159.32,0.17 L159.32,0.17 Z" id="Path" fill="#FFDB11"></path>
            <polygon id="Path" fill="#D0021B" points="141.6 33.8 156.82 42.56 156.82 61.08 155.14 60.16 154.5 54.76 147.84 51.87 147.31 56.37 144.68 54.97 144.56 50.81 140.78 48.43 140.78 45.67 144.87 47.71 145.69 39.03 141.74 35.86 141.6 33.8"></polygon>
            <path d="M126.2,24.7 L127.45,29.15 L124.65,29.15 L126.21,32.85 L128.69,31.89 C128.69,31.89 129.44,33.76 129.99,34.57 C130.54,35.37 131.99,36.68 131.99,36.68 L131.99,41.02 L134.29,42.22 L133.62,37.65 C133.62,37.65 134.68,37.89 135.47,37.65 C136.25,37.42 136.91,36.68 136.91,36.68 L139.56,41.02 L141,39.14 L137.78,35.08 L138.89,31.89 L126.21,24.7 L126.2,24.7 Z" id="Path" fill="#696969"></path>
            <polygon id="Path" fill="#D0021B" points="112.36 16.9 124.41 23.39 124.41 24.84 120.51 23.39 122.85 33.82 126.36 36.22 126.16 38.31 123.85 37.71 123.85 41.19 121.73 39.88 121.31 34.88 115.31 29.96 115.42 34.2 114.18 33.57 112.36 16.91"></polygon>
            <path d="M157.16,64.85 L154.3,64.02 L151.62,57.99 L149.6,58.48 L152.13,64.02 C152.13,64.02 150.87,64.42 150.43,64.9 C149.98,65.38 149.6,66.74 149.6,66.74 L145.9,64.02 L145.9,66.74 L149.6,68.7 C149.6,68.7 149.7,70.55 150.43,72.47 C150.804157,73.5313378 151.381589,74.5095755 152.13,75.35 L150.13,76.39 L152.62,80.34 L154.3,78.57 L157.16,81.17 L157.16,64.85 L157.16,64.85 Z" id="Path" fill="#696969"></path>
            <polygon id="Path" fill="#D0021B" points="129.75 48.23 138.54 53.86 139.18 65.56 130.61 59.39 129.75 48.23"></polygon>
            <path d="M114.61,36.93 L116.75,39.43 L117.33,36.66 L119.8,39.72 L118.01,41.25 C118.01,41.25 119.35,42.95 119.81,43.98 C120.169756,44.9965987 120.434228,46.0444404 120.6,47.11 L123.87,48.81 L123.66,50.81 L120.6,49.18 C120.6,49.18 120.32,49.88 119.98,50.42 C119.770305,50.7546534 119.521928,51.0634468 119.24,51.34 L121.48,55.54 L119.98,56.32 L118.01,51.66 C118.01,51.66 117.57,51.92 117.15,51.92 C116.73,51.92 116.32,51.66 116.32,51.66 L114.62,36.93 L114.61,36.93 Z" id="Path" fill="#696969"></path>
            <polygon id="Path" fill="#D0021B" points="156.6 99.1 157.05 83.9 155.17 82.39 154.13 86.26 147.84 80.1 147.57 75.3 145.11 73.57 144.91 77.03 141.85 75.31 142.2 77.81 145.64 80.67 146.91 88.9 143.66 86.72 143.66 88.53 156.6 99.11"></polygon>
            <path d="M141.04,86.35 L140.4,83.51 L142.59,83.07 L141.3,79.17 L139.41,80.25 C139.41,80.25 138.54,78.23 137.8,77.15 C137.06,76.07 135.9,75.25 135.9,75.25 L135.9,71.15 L134.15,70.02 L134.15,73.86 C134.15,73.86 133.16,73.48 132.66,73.56 C132.16,73.62 131.42,74.29 131.42,74.29 L128.86,70.02 L127.93,71.15 L130.59,75.25 L129.95,77.15 L141.04,86.35 L141.04,86.35 Z" id="Path" fill="#696969"></path>
            <polygon id="Path" fill="#D0021B" points="116.58 54.17 118.31 67.42 127.81 75.42 127.76 74.13 124.49 71.07 125.06 65.11 128.01 66.97 128.01 65.1 125.91 62.47 125.31 58.82 123.67 57.92 123.67 61.36 118.64 58.82 117.84 54.7 116.58 54.16"></polygon>
            <polygon id="Path" fill="#009A0E" points="159.77 43.02 175.91 34.28 176.03 36.68 171.53 39.32 172.18 48.12 176.03 46.19 176.03 49.16 172.45 51.35 172.3 55.47 169.19 56.84 169.19 52.4 161.95 54.77 161.08 60.35 159.5 61.32 159.77 43.02"></polygon>
            <path d="M178.99,33.17 L179.7,35.8 L175.95,39.98 L177.83,42.14 L180.96,38.5 C180.96,38.5 181.77,39 182.2,39.08 C183.3,39.28 184.14,39.08 184.14,39.08 L183.81,43.46 L185.63,42.73 L186.05,38.16 C186.05,38.16 187.76,36.98 188.41,36.15 C189.06,35.31 189.95,33.15 189.95,33.15 L192.3,34.95 L194.14,31.23 L191.74,29.74 L192.95,26.33 L179,33.17 L178.99,33.17 Z" id="Path" fill="#696969"></path>
            <polygon id="Path" fill="#009A0E" points="195.4 25.34 207.53 19.18 205 35.36 203.54 36.2 203.54 32.15 197.63 36.4 196.6 41.46 194.33 42.73 195.12 38.95 192.42 40.14 192.42 37.66 195.9 35.62 198.25 26.07 195.41 27.07 195.41 25.34"></polygon>
            <path d="M159.7,64.93 L162.46,64.08 L164.79,58.58 L167.57,58.58 L165.33,64.08 C165.33,64.08 166.43,64.6 166.8,65.08 C167.136749,65.6637346 167.395616,66.2890496 167.57,66.94 L171.12,64.81 L171.12,66.94 L167.57,69.24 C167.57,69.24 167.23,70.64 166.45,72.29 C165.67,73.95 164.79,75.15 164.79,75.15 L166.8,76.61 L164.18,80.51 L162.46,78.53 L159.55,80.8 L159.7,64.93 L159.7,64.93 Z" id="Path" fill="#696969"></path>
            <polygon id="Path" fill="#009A0E" points="178.85 55.21 188.09 49.83 186.96 60.92 177.89 66.55 178.85 55.21"></polygon>
            <path d="M204.4,39.31 L202.02,53.84 L200.47,54.43 L198.35,58.35 L196.65,57.5 L198.95,53.31 C198.95,53.31 198.47,52.76 198.25,52.31 C198.05,51.84 197.78,50.78 197.78,50.78 L194.58,52.1 L194.58,49.75 L197.78,48.83 C197.78,48.83 198.29,46.94 198.94,45.7 C199.6,44.47 200.47,43.72 200.47,43.72 L198.94,41.62 L201.51,38.36 L202.61,40.78 L204.41,39.31 L204.4,39.31 Z" id="Path" fill="#696969"></path>
            <polygon id="Path" fill="#009A0E" points="159.53 98.56 159.68 83.94 160.96 82.75 161.56 86.68 168.62 80.81 168.62 76.31 171.29 74.29 171.29 77.57 174.57 75.83 174.03 78.82 170.66 81.22 169.22 89.32 172.44 87.94 172.44 89.32 159.54 98.56"></polygon>
            <path d="M175.3,87.5 L175.52,84.78 L173.18,84.07 L175.3,80.4 L177.14,81.6 C177.14,81.6 178.16,79.55 178.79,78.78 C179.458422,78.0042507 180.155574,77.2537279 180.88,76.53 L180.88,72.83 L182.38,71.72 L182.38,75.68 C182.38,75.68 183.14,75.61 183.86,75.83 C184.59,76.04 185.17,76.53 185.17,76.53 L187.93,72.28 L189.15,73.76 L186.26,77.66 L186.48,79.49 L182.13,82.61 L175.3,87.5 L175.3,87.5 Z" id="Path" fill="#696969"></path>
            <polygon id="Path" fill="#009A0E" points="201.51 56.94 199.31 70.49 188.91 77.84 188.91 76.1 192.32 73.47 192.49 67.04 189.22 68.74 189.22 66.37 192.32 64.63 192.32 60.7 194.4 59.93 194.4 63.43 197.72 62.34 199.3 61.82 200.4 57.6 201.51 56.95"></polygon>
            <path d="M64.12,85.78 L64.33,83.06 L62,82.35 L64.12,78.68 L65.96,79.89 C65.96,79.89 66.98,77.83 67.6,77.06 C68.2717325,76.2841068 68.9722211,75.5335832 69.7,74.81 L69.7,71.11 L71.18,70 L71.18,73.96 C71.18,73.96 71.95,73.89 72.68,74.11 C73.1502922,74.2670038 73.590047,74.5037949 73.98,74.81 L76.74,70.56 L77.96,72.05 L75.06,75.93 L75.29,77.78 L70.94,80.88 L64.11,85.78 L64.12,85.78 Z" id="Path" fill="#4A4A4A"></path>
            <path d="M47.15,65.35 L49.91,64.51 L52.24,59 L55.02,59 L52.78,64.5 C52.78,64.5 53.88,65.02 54.25,65.5 C54.63,65.98 55.02,67.36 55.02,67.36 L58.57,65.23 L58.57,67.36 L55.02,69.66 C55.02,69.66 54.68,71.06 53.9,72.71 C53.12,74.37 52.24,75.57 52.24,75.57 L54.25,77.03 L51.64,80.93 L49.91,78.96 L47,81.22 L47.15,65.35 Z" id="Path" fill="#4A4A4A"></path>
            <path d="M92,39.5 L90.03,53.5 L87.89,54.07 L85.77,57.99 L84.07,57.14 L86.37,52.96 C86.37,52.96 85.89,52.41 85.67,51.95 C85.47,51.48 85.2,50.43 85.2,50.43 L82,51.74 L82,49.4 L85.2,48.48 C85.2,48.48 85.71,46.6 86.36,45.36 C87.01,44.12 87.89,43.37 87.89,43.37 L86.36,41.28 L88.93,38 L90.03,40.42 L92,39.5 Z" id="Path" fill="#4A4A4A"></path>
            <path d="M44.27,64.86 L41.4,64.03 L38.73,58 L36.7,58.49 L39.24,64.03 C39.24,64.03 37.98,64.43 37.54,64.91 C37.09,65.39 36.7,66.75 36.7,66.75 L33,64.03 L33,66.75 L36.7,68.71 C36.7,68.71 36.8,70.56 37.53,72.48 C37.9071517,73.5421317 38.488014,74.5204261 39.24,75.36 L37.24,76.4 L39.73,80.35 L41.4,78.58 L44.27,81.18 L44.27,64.86 L44.27,64.86 Z" id="Path" fill="#4A4A4A"></path>
            <path d="M4,37.27 L6.14,39.77 L6.72,37 L9.19,40.06 L7.4,41.59 C7.4,41.59 8.74,43.29 9.2,44.33 C9.64,45.35 9.98,47.45 9.98,47.45 L13.25,49.15 L13.05,51.15 L9.98,49.52 C9.98,49.52 9.71,50.22 9.37,50.76 C9.03,51.3 8.63,51.68 8.63,51.68 L10.87,55.88 L9.37,56.66 L7.4,52 C7.4,52 6.95,52.26 6.54,52.26 C6.12,52.26 5.7,52 5.7,52 L4,37.27 Z" id="Path" fill="#4A4A4A"></path>
            <path d="M20,9.03 L22.24,9.66 L21.51,11.36 L24.27,11.62 L25.15,9.66 C25.15,9.66 26.81,9.9 28.42,9.83 C29.4456005,9.77315123 30.4634944,9.6191278 31.46,9.37 L33.98,10.79 L36.04,10.06 L33.55,8.75 C33.55,8.75 34.2,8.25 34.33,7.95 C34.46,7.65 34.33,6.93 34.33,6.93 L39,6.67 L38.5,5.63 L33.98,5.9 L33.04,5 L20,9.03 Z" id="Path" fill="#696969"></path>
            <path d="M79.5,23.02 L75.98,21.92 L76.62,19.45 L72.2,19 L72.65,21.48 C72.65,21.48 69.91,21.15 68.93,21.2 C66.61,21.33 65.45,21.76 65.45,21.76 L61.69,19.77 L59.8,20.47 L63.68,22.5 C63.68,22.5 62.88,23.11 62.73,23.55 C62.5962636,24.1189129 62.5962636,24.7110871 62.73,25.28 L57,25.72 L57.54,27.55 L63.6,27.22 C63.6,27.22 64.08,28.05 64.48,28.46 C64.8756535,28.8156973 65.2931325,29.1463407 65.73,29.45 L79.49,23.02 L79.5,23.02 Z" id="Path" fill="#696969"></path>
            <path d="M67.03,32.84 L67.75,35.47 L64,39.65 L65.87,41.81 L69.01,38.17 C69.01,38.17 69.81,38.67 70.24,38.75 C71.34,38.95 72.19,38.75 72.19,38.75 L71.85,43.13 L73.68,42.4 L74.09,37.83 C74.09,37.83 75.81,36.65 76.46,35.81 C77.11,34.98 77.99,32.81 77.99,32.81 L80.34,34.63 L82.18,30.9 L79.78,29.41 L80.5,25.5 L67.03,32.84 Z" id="Path" fill="#696969"></path>
            <path d="M105.34,40.93 L111.71,47.29 C111.899313,47.4777666 112.005798,47.7333625 112.005798,48 C112.005798,48.2666375 111.899313,48.5222334 111.71,48.71 L105.34,55.07 C105.09561,55.3553762 104.711882,55.4796819 104.346581,55.3918101 C103.98128,55.3039383 103.696062,55.0187195 103.60819,54.653419 C103.520318,54.2881184 103.644624,53.9043899 103.93,53.66 L108.59,49 L97,49 L97,47 L108.59,47 L103.93,42.34 C103.644624,42.0956101 103.520318,41.7118816 103.60819,41.346581 C103.696062,40.9812805 103.98128,40.6960617 104.346581,40.6081899 C104.711882,40.5203181 105.09561,40.6446238 105.34,40.93 L105.34,40.93 Z" id="Path" fill="#D0021B"></path>
        </g>
    </g>
</svg>