<?xml version="1.0" encoding="UTF-8"?>
<svg width="96px" height="100px" viewBox="0 0 96 100" version="1.1" xmlns="http://www.w3.org/2000/svg" xmlns:xlink="http://www.w3.org/1999/xlink">
    <title>gear_1_4</title>
    <g id="Gear" stroke="none" stroke-width="1" fill="none" fill-rule="evenodd">
        <g id="gear_1_4" fill-rule="nonzero">
            <path d="M39.97,0.12 C40.74,0.04 41.85,0.18 41.85,0.18 L92.69,11.49 C93.5266196,11.6098529 94.322244,11.9287885 95.01,12.42 C95.56,12.87 95.49,14.52 95.49,14.52 L89.85,61.77 C89.85,61.77 89.75,62.87 89.42,63.74 C89.1626252,64.3595201 88.8337275,64.9468374 88.44,65.49 L64.23,98.4 C64.23,98.4 63.43,99.58 62.48,99.85 C61.54,100.12 60.36,99.52 60.36,99.52 L10.68,77.98 C10.68,77.98 9.84,77.72 9.24,76.96 C8.64,76.2 8.47,75.19 8.47,75.19 L0.59,26.8 C0.59,26.8 0.47,24.73 0.88,23.67 C1.28,22.61 2.76,21.75 2.76,21.75 L38.23,0.8 C38.23,0.8 39.19,0.2 39.97,0.12 Z" id="Path" fill="#000000"></path>
            <polygon id="Path" fill="#FFFFFF" points="40.2 0.15 30.57 5.9 32.23 6.48 35.7 4.58 42.62 6.48 40.33 8.68 42.25 9.35 44.87 7.14 49.03 8.62 50.09 7.49 46.68 6 49.32 3.24 53.87 4.09 54.67 3.36"></polygon>
            <path d="M29.19,6.65 L31.73,7.97 L35.54,7.22 L36.26,8.67 L32.17,9.25 C32.17,9.25 32.26,9.98 32.17,10.35 C32.09,10.71 31.73,11.18 31.73,11.18 L35.16,12.58 L33.68,13.59 L30.41,12.23 C30.41,12.23 29.05,12.86 27.36,13.22 C25.66,13.57 23.91,13.59 23.91,13.59 L24.35,15.6 L20.75,15.6 L21.1,13.74 C21.1,13.74 20.35,13.72 19.54,13.59 C19.0257399,13.5036781 18.5270341,13.3419357 18.06,13.11 L29.2,6.65 L29.19,6.65 Z" id="Path" fill="#696969"></path>
            <polygon id="Path" fill="#FFFFFF" points="2.43 22.34 15.1 14.9 16.9 15.58 13.74 17.87 24.14 19.9 27.15 17.44 30.05 17.87 27.15 20.47 31.11 21.44 29.17 23.11 24.14 21.67 16.42 25.07 20.73 27.12 19.14 28.32 2.44 22.35"></polygon>
            <path d="M21.99,29.17 L24.25,27.64 L23.47,25.21 L27.36,24.38 L28.34,26.78 C28.34,26.78 30.61,26.26 31.94,26.26 C33.26,26.26 35.56,26.77 35.56,26.77 L38.33,24.37 L41.28,24.85 L38.33,27.64 C38.33,27.64 39.36,28 39.96,28.76 C40.56,29.52 40.49,30.38 40.49,30.38 L46.33,29.79 L46.64,32.47 L40.5,32.47 L39.17,35 L21.99,29.18 L21.99,29.17 Z" id="Path" fill="#696969"></path>
            <polygon id="Path" fill="#696969" points="47.81 12.86 58.97 15.4 51.97 21.16 40.72 18.45 47.82 12.85"></polygon>
            <path d="M57.4,3.96 L56.68,5.07 L52.32,5.4 L52.65,6.84 L56.68,6.48 C56.68,6.48 56.8,6.95 57.44,7.39 C58.1026699,7.79997027 58.787,8.17384819 59.49,8.51 L57.81,10.39 L60.16,11.13 L61.62,9.4 C61.62,9.4 63.79,9.19 64.82,9.11 C65.82,9.03 67.62,8.67 67.62,8.67 L69.32,10.75 L72.57,10.07 L70.68,8.13 L72.68,7.39 L57.4,3.96 Z" id="Path" fill="#696969"></path>
            <polygon id="Path" fill="#FFFFFF" points="78.05 8.67 76.98 9.47 80.61 10.37 74.91 13.82 69.9 12.38 68.38 13.29 72.41 14.81 70.57 16.21 73.04 16.93 75.44 15.21 85.95 16.71 84.13 18.76 86.7 20 94.38 12.28 78.05 8.66"></polygon>
            <path d="M84.7,21.88 L76.28,30.28 C76.28,30.28 75.58,29.82 74.82,29.42 C74.06,29.02 73.29,28.42 73.29,28.42 L68.97,29.72 L66.91,27.64 L71.7,26.72 C71.7,26.72 71,25.64 70.84,25 C70.75802,24.3793621 70.75802,23.7506379 70.84,23.13 L66.63,21.88 L67.74,20.85 L71.7,22.35 C71.7,22.35 72.78,21.75 74.55,21.51 C76.32,21.27 78.13,21.27 78.13,21.27 L77.02,18.76 L80.37,18.76 L80.67,21.27 C80.67,21.27 81.96,21.4 82.64,21.51 C83.3285671,21.6225078 84.0153189,21.7458565 84.7,21.88 L84.7,21.88 Z" id="Path" fill="#696969"></path>
            <polygon id="Path" fill="#FFFFFF" points="63.32 43.35 73.8 32.47 71.79 31.74 68.15 34.28 59.58 30.65 61.78 27.64 59.08 26.39 56.21 29.06 51.05 27.64 49.21 29.52 54.68 31.28 50.74 36.92 44.74 35.57 43.84 36.55 63.31 43.35"></polygon>
            <polygon id="Path" fill="#009A0E" points="62.09 45.39 42.8 38.69 42.18 40.49 47.94 42.94 46.47 52.31 41.52 51.15 41.51 53.99 46.13 55.22 45.89 59.33 48.88 60.08 49.42 55.6 58.59 56.89 59.82 62.85 62.09 63.75 62.09 45.38"></polygon>
            <path d="M37.9,36.82 L21.02,31 L22.75,35.57 L19.17,36.82 L21.02,39.89 L24.39,38.17 C24.39,38.17 25.81,40.22 26.65,41.01 C27.5025795,41.7263524 28.4122736,42.3718339 29.37,42.94 L29.13,46.64 L31.74,47.54 L31.74,43.47 C31.74,43.47 33.36,43.26 34.06,42.94 C34.76,42.63 35.83,41.61 35.83,41.61 L39.76,46.05 L41.64,43.98 L37.24,39.89 L37.9,36.82 L37.9,36.82 Z" id="Path" fill="#696969"></path>
            <polygon id="Path" fill="#009A0E" points="1.06 24.38 18.29 30.18 17.85 32.48 13.19 31.61 16.03 41.06 21 42.94 21 45.36 17.4 44.69 17.4 48.64 14.36 47.44 14.36 42.15 5.12 38.23 5.6 43.03 3.84 42.56 1.04 24.38"></polygon>
            <path d="M62.21,66.9 L58.71,66.32 L55.34,61.29 L52.4,62.32 L55.34,66.9 C55.34,66.9 53.91,67.37 53.3,67.98 C52.8652683,68.5101821 52.5574336,69.1326924 52.4,69.8 L47.55,67.98 L47.55,70.28 L52.4,71.73 C52.4,71.73 52.78,73.71 53.3,74.63 C53.8452449,75.4607913 54.4644279,76.2406273 55.15,76.96 L52.58,79.16 L56.1,82.25 L58.72,80.21 L61.66,81.81 L62.21,66.91 L62.21,66.9 Z" id="Path" fill="#696969"></path>
            <polygon id="Path" fill="#696969" points="25.82 55.09 37.76 59.33 38.46 70.53 26.59 66.08 25.82 55.08"></polygon>
            <path d="M4.25,45.72 L7.07,47.66 L9.09,44.59 L11.41,46.9 L9.37,49.44 C9.37,49.44 11.22,51.04 11.89,51.92 C12.56,52.81 13.38,55.32 13.38,55.32 L17.31,56.24 L17.31,58.7 L13.38,57.56 C13.38,57.56 13.06,58.45 12.56,59.08 C12.06,59.71 11.41,60.06 11.41,60.06 L13.94,63.39 L11.41,64.31 L9.37,60.71 L6.7,60.71 L4.25,45.71 L4.25,45.72 Z" id="Path" fill="#696969"></path>
            <polygon id="Path" fill="#696969" points="61.56 84.95 61.56 99.47 44.67 92.26 44.67 90.68 49.17 91.65 47.22 83.76 42.67 82 42.18 79.64 46.24 80.91 46.12 77.59 49.21 78.79 49.86 82.59 58.34 87.76 59.1 84.06 61.56 84.96"></polygon>
            <path d="M26.15,84.24 L26.9,81.54 L23.3,78.57 L24.65,76.37 L28.32,80.21 C28.32,80.21 29.46,79.63 30.09,79.51 C30.7518375,79.4469995 31.4181625,79.4469995 32.08,79.51 L32.08,75.58 L34.75,76.36 L34.75,80.59 C34.75,80.59 36.21,81.82 36.85,82.49 C37.4634383,83.2091363 38.0248597,83.9710653 38.53,84.77 L41.89,83.82 L43.78,87.07 L40.29,87.87 C40.29,87.87 40.86,88.62 41.1,89.16 C41.2947257,89.7070131 41.4288612,90.2737356 41.5,90.85 L26.15,84.24 L26.15,84.24 Z" id="Path" fill="#696969"></path>
            <polygon id="Path" fill="#696969" points="6.75 63.38 9.23 76.82 23.91 83.22 23.91 81.52 18.85 79.22 18.85 72.88 23.91 74.43 23.91 72.05 20.28 70.5 19.66 66.97 17.2 66.2 17.2 69.95 9.82 67.98 9.22 64.19 6.75 63.38"></polygon>
            <polygon id="Path" fill="#D0021B" points="64.75 45.82 75.12 35.04 75.12 36.26 72.3 39.8 72.3 47.8 75.12 45.4 75.12 48.12 72.65 50.64 72.3 55.16 71.09 56.26 71.09 51.71 65.75 55.83 65.25 62.04 64.35 62.96"></polygon>
            <path d="M77.84,32.47 L85.91,24.37 L85.41,27.64 L86.63,28.04 L85.42,31.76 L84.17,30.67 C84.17,30.67 83.65,32.52 82.97,33.8 C82.5215427,34.6129153 81.9629286,35.3599776 81.31,36.02 L80.93,40.2 L80.11,41.28 L80.39,37.14 C80.39,37.14 79.49,37.62 79.05,37.67 C78.62,37.72 77.84,37.41 77.84,37.41 L76.16,41.28 L75.36,39.51 L77.55,36.02 C77.55,36.02 77.48,35.06 77.55,34.19 C77.62,33.32 77.84,32.47 77.84,32.47 L77.84,32.47 Z" id="Path" fill="#696969"></path>
            <polygon id="Path" fill="#D0021B" points="87.39 22.61 95.14 14.65 93.24 30.08 92.42 30.82 92.42 27.15 88.42 33 87.78 37.41 86.66 38.37 86.66 35.57 84.9 36.9 85.18 34.56 87.78 32.06 89.28 22.62 87.38 24.09 87.38 22.62"></polygon>
            <path d="M64.34,66.9 L66.19,65.34 L67.73,59.33 L68.97,59.08 L67.8,64.76 C67.8,64.76 68.22,64.76 68.72,65.34 C69.0694753,65.8060325 69.324273,66.3360116 69.47,66.9 L71.53,64.16 L71.53,66.14 L69.47,68.6 C69.47,68.6 69.49,69.7 68.97,71.35 C68.45,72.99 67.8,74.65 67.8,74.65 L68.52,76.36 L66.92,80.21 L66.19,78.34 L63.91,81.22 L64.34,66.9 L64.34,66.9 Z" id="Path" fill="#696969"></path>
            <polygon id="Path" fill="#696969" points="76.59 53.04 82.31 46.5 81.66 57.2 75.91 63.97"></polygon>
            <path d="M92.79,33.76 L91.12,48.02 L90.05,48.12 L88.61,52.72 L87.63,52.31 L89.19,47.71 C89.19,47.71 88.73,47.16 88.61,46.73 C88.5327526,46.3543832 88.485934,45.9731465 88.47,45.59 L86.59,47.29 L86.59,45.47 L88.61,43.81 C88.61,43.81 88.71,42.2 89.19,40.79 C89.66,39.37 90.49,38.19 90.49,38.19 L89.19,36.86 L90.83,33.76 L91.63,35.57 L92.79,33.77 L92.79,33.76 Z" id="Path" fill="#696969"></path>
            <polygon id="Path" fill="#696969" points="63.68 84.87 63.68 98.7 72.55 86.43 72.55 85.26 70.31 87.82 70.89 79.39 73.43 76.22 73.67 73.61 71.84 75.27 71.48 72.92 70.2 74.62 69.88 79.15 65.37 87.08 64.8 83.43 63.68 84.88"></polygon>
            <path d="M73.9,84.88 L74.47,81.31 L72.67,82.27 L73.57,78.22 L75.21,78.53 C75.21,78.53 75.75,76.55 76.21,75.58 C76.68,74.62 77.68,73.38 77.68,73.38 L77.68,69.58 L78.78,68.27 L78.78,72.07 C78.78,72.07 79.36,71.79 79.66,71.73 C79.96,71.68 80.48,71.73 80.48,71.73 L82.26,67.47 L83.02,68.47 L81.1,72.61 C81.1,72.61 81.43,73.28 81.5,73.58 C81.56,73.87 81.5,74.33 81.5,74.33 L73.9,84.88 L73.9,84.88 Z" id="Path" fill="#696969"></path>
            <polygon id="Path" fill="#696969" points="90.85 50.5 89.35 63.29 82.91 72.49 82.91 71.17 85.16 67.97 85.16 61.7 83.14 63.9 83.14 61.7 84.88 59.8 85.16 55.86 86.31 54.56 86.31 58.42 89.61 55.45 90.07 51.45 90.85 50.51"></polygon>
        </g>
    </g>
</svg>