<?xml version="1.0" encoding="UTF-8"?>
<svg width="97px" height="100px" viewBox="0 0 97 100" version="1.1" xmlns="http://www.w3.org/2000/svg" xmlns:xlink="http://www.w3.org/1999/xlink">
    <title>gear_2</title>
    <g id="Gear" stroke="none" stroke-width="1" fill="none" fill-rule="evenodd">
        <g id="gear_2" fill-rule="nonzero">
            <path d="M47.43,0.159669136 C47.9718887,0.175795012 48.5053662,0.298121081 49,0.52 L94.47,16.33 C94.47,16.33 95.72,17.15 95.87,17.64 C96.02,18.14 96.0008864,19.4 96.0008864,19.4 L88.13,68.88 C88.13,68.88 87.79,70.22 87.47,70.75 C87.15,71.29 85.94,72.16 85.94,72.16 L47.43,99.45 C47.43,99.45 46.48,100.07 45.51,99.97 C44.54,99.87 43.63,99.07 43.63,99.07 L7.19,68.87 C7.19,68.87 6.47,68.27 6.19,67.71 C5.94269772,67.0396858 5.74876056,66.3508745 5.61,65.65 L0.03,17.64 C0.03,17.64 -0.02,16.2 0.2,15.66 C0.507349474,15.1617069 0.903986798,14.7243888 1.37,14.37 L45.98,0.37 C45.98,0.37 46.58,0.15 47.43,0.159669136 Z" id="Path" fill="#000000"></path>
            <polygon id="Path" fill="#FFFFFF" points="46.77 40.3 62.93 32.35 61.27 31.28 55.79 32.99 49.43 28.53 53.38 26.43 50.99 25 47.21 26.44 43.51 24.61 41.34 25.63 44.87 28.01 37.72 32.44 32.99 30.84 31.03 31.74 46.77 40.29"></polygon>
            <path d="M80,24.1 L76.49,23.01 L77.12,20.53 L72.71,20.08 L73.16,22.56 C73.16,22.56 70.42,22.23 69.43,22.29 C67.12,22.42 65.95,22.84 65.95,22.84 L62.2,20.86 L60.3,21.55 L64.19,23.59 C64.19,23.59 63.39,24.19 63.24,24.63 C63.1062636,25.1989129 63.1062636,25.7910871 63.24,26.36 L57.51,26.8 L58.05,28.63 L64.11,28.3 C64.11,28.3 64.59,29.13 64.98,29.54 C65.3,29.87 66.23,30.53 66.23,30.53 L80,24.1 Z" id="Path" fill="#F2F2F2"></path>
            <polygon id="Path" fill="#FFFFFF" points="94.4 16.74 78.87 11.14 78.31 11.5 82.38 13.1 73.76 15.5 69.76 13.75 67.43 14.63 69.76 16.15 67.93 17.49 70.07 18.88 74.15 17.48 83.85 19.81 80.31 21.68 81.93 22.88 94.4 16.74"></polygon>
            <path d="M61.77,5.12 L60.97,5.77 L56.12,5.77 L56.12,6.8 L60.46,6.8 C60.46,6.8 60.2,7.73 60.46,8.18 C60.9027589,8.65489974 61.4153105,9.05954571 61.98,9.38 L58.64,10.73 L60.04,11.3 L63.37,10.03 C63.37,10.03 64.69,10.33 66.39,10.33 C68.09,10.33 69.77,10.37 69.77,10.37 L70.27,12.01 L73.79,11.73 L73.19,10.03 L75.08,9.78 L61.77,5.13 L61.77,5.12 Z" id="Path" fill="#F2F2F2"></path>
            <polygon id="Path" fill="#FFFFFF" points="47.84 11.69 56.64 15.02 47.3 18.95 38.5 15.32 47.84 11.69"></polygon>
            <path d="M15.72,22.3 L18.75,21.61 L18.75,19.28 L22.75,18.78 L22.6,21.23 C22.6,21.23 25.12,21.09 26.09,21.18 C27.37,21.29 29.32,21.84 29.32,21.84 L33.37,20.54 L34.96,21.32 L31,22.87 C31,22.87 32.03,23.55 32.2,24.24 C32.38,24.94 31.7,25.67 31.7,25.67 L36.88,26.16 L36.32,28.15 L30.69,27.9 L27.99,29.5 L15.72,22.3 Z" id="Path" fill="#F2F2F2"></path>
            <polygon id="Path" fill="#FFFFFF" points="1.8 15 13.8 21.3 15.6 20.6 12.42 18.47 22.26 16.15 25.62 17.8 28.03 17.05 25.63 15.42 28.78 14.22 25.62 13.11 22.26 14.56 14.7 12.4 18.7 11 17.06 9.98 1.8 14.99"></polygon>
            <path d="M20.36,8.76 L22.6,9.4 L21.88,11.1 L24.64,11.35 L25.51,9.4 C25.51,9.4 27.17,9.64 28.78,9.56 C30.38,9.49 31.83,9.1 31.83,9.1 L34.34,10.53 L36.4,9.8 L33.91,8.48 C33.91,8.48 34.56,8 34.7,7.68 C34.84,7.38 34.7,6.66 34.7,6.66 L39.37,6.4 L38.87,5.36 L34.35,5.64 L33.41,4.74 L20.37,8.76 L20.36,8.76 Z" id="Path" fill="#F2F2F2"></path>
            <path d="M47.34,0.32 L36,3.82 L36.91,4.22 L41.07,3.12 L42.96,4.52 L46.32,6.09 L42.71,7.27 L44.21,8.05 L47.7,7.02 L51.04,8.05 L52.61,7.53 L49.33,6.22 L52,4.79 C53.62,3.9 54.29,3.27 54.29,3.27 L58.47,4.51 L59.15,4.27 L47.33,0.32 L47.34,0.32 Z" id="Path" fill="#FFFFFF"></path>
            <polygon id="Path" fill="#009A0E" points="29.62 33.95 44.83 42.72 44.83 61.23 43.16 60.32 42.52 54.92 35.86 52.02 35.33 56.53 32.7 55.13 32.58 50.96 28.8 48.58 28.8 45.83 32.89 47.87 33.71 39.19 29.76 36.02"></polygon>
            <path d="M14.23,24.86 L15.47,29.31 L12.67,29.31 L14.23,33 L16.71,32.05 C16.71,32.05 17.46,33.92 18.01,34.72 C18.56,35.52 20.01,36.84 20.01,36.84 L20.01,41.17 L22.31,42.38 L21.64,37.81 C21.64,37.81 22.7,38.04 23.49,37.81 C24.27,37.58 24.93,36.84 24.93,36.84 L27.58,41.17 L29.02,39.3 L25.8,35.23 L26.91,32.05 L14.23,24.86 L14.23,24.86 Z" id="Path" fill="#009A0E"></path>
            <polygon id="Path" fill="#009A0E" points="0.38 17.07 12.43 23.55 12.43 25 8.53 23.55 10.87 33.97 14.38 36.37 14.18 38.47 11.87 37.87 11.87 41.35 9.75 40.04 9.33 35.04 3.33 30.11 3.44 34.35 2.2 33.72 0.38 17.07"></polygon>
            <path d="M45.18,65.01 L42.32,64.18 L39.64,58.15 L37.62,58.64 L40.15,64.18 C40.15,64.18 38.89,64.58 38.45,65.05 C38,65.53 37.62,66.89 37.62,66.89 L33.92,64.18 L33.92,66.89 L37.62,68.86 C37.62,68.86 37.72,70.71 38.44,72.62 C38.8171517,73.6821317 39.398014,74.6604261 40.15,75.5 L38.15,76.54 L40.64,80.5 L42.32,78.72 L45.18,81.32 L45.18,65.02 L45.18,65.01 Z" id="Path" fill="#009A0E"></path>
            <polygon id="Path" fill="#009A0E" points="17.77 48.39 26.56 54 27.2 65.7 18.63 59.54 17.77 48.38"></polygon>
            <path d="M2.63,37.08 L4.77,39.59 L5.35,36.82 L7.82,39.87 L6.03,41.4 C6.03,41.4 7.37,43.11 7.83,44.14 C8.18959068,45.1566489 8.45405797,46.204475 8.62,47.27 L11.89,48.97 L11.68,50.97 L8.62,49.33 C8.62,49.33 8.34,50.03 8,50.58 C7.78966419,50.9111529 7.54130951,51.216562 7.26,51.49 L9.5,55.69 L8,56.48 L6.03,51.82 C6.03,51.82 5.59,52.08 5.17,52.08 C4.75,52.08 4.34,51.82 4.34,51.82 L2.64,37.08 L2.63,37.08 Z" id="Path" fill="#009A0E"></path>
            <polygon id="Path" fill="#009A0E" points="44.62 99.26 45.07 84.06 43.19 82.55 42.15 86.41 35.86 80.26 35.59 75.46 33.13 73.72 32.93 77.19 29.87 75.46 30.22 77.96 33.66 80.83 34.93 89.06 31.68 86.88 31.68 88.68 44.62 99.26"></polygon>
            <path d="M29.06,86.5 L28.42,83.67 L30.61,83.23 L29.32,79.32 L27.43,80.41 C27.43,80.41 26.56,78.39 25.82,77.31 C25.2891285,76.5818835 24.6481165,75.9408715 23.92,75.41 L23.92,71.31 L22.17,70.17 L22.17,74.01 C22.17,74.01 21.18,73.64 20.68,73.71 C20.18,73.78 19.44,74.45 19.44,74.45 L16.88,70.17 L15.95,71.31 L18.61,75.41 L17.97,77.31 L29.06,86.51 L29.06,86.5 Z" id="Path" fill="#009A0E"></path>
            <polygon id="Path" fill="#009A0E" points="4.6 54.33 6.33 67.58 15.83 75.57 15.78 74.29 12.51 71.22 13.08 65.26 16.03 67.13 16.03 65.26 13.93 62.64 13.33 58.99 11.69 58.09 11.69 61.53 6.66 58.99 5.86 54.87 4.6 54.33"></polygon>
            <polygon id="Path" fill="#D0021B" points="47.79 43.18 63.93 34.44 64.05 36.83 59.55 39.47 60.2 48.27 64.05 46.35 64.05 49.31 60.47 51.51 60.32 55.62 57.21 57 57.21 52.58 49.97 54.95 49.1 60.52 47.52 61.5 47.79 43.19"></polygon>
            <path d="M67,33.33 L67.72,35.95 L63.97,40.13 L65.85,42.29 L68.98,38.65 C68.98,38.65 69.79,39.15 70.22,39.23 C71.32,39.43 72.16,39.23 72.16,39.23 L71.83,43.61 L73.65,42.88 L74.07,38.32 C74.07,38.32 75.78,37.14 76.43,36.3 C77.08,35.46 77.97,33.3 77.97,33.3 L80.32,35.11 L82.16,31.38 L79.76,29.9 L80.97,26.49 L67.01,33.33 L67,33.33 Z" id="Path" fill="#D0021B"></path>
            <polygon id="Path" fill="#D0021B" points="83.42 25.5 95.55 19.34 93 35.52 91.55 36.35 91.55 32.31 85.64 36.55 84.61 41.62 82.34 42.88 83.13 39.11 80.43 40.29 80.43 37.81 83.91 35.78 86.26 26.23 83.42 27.23"></polygon>
            <path d="M47.72,65.08 L50.48,64.24 L52.81,58.74 L55.59,58.74 L53.35,64.24 C53.35,64.24 54.45,64.75 54.82,65.24 C55.2,65.72 55.59,67.09 55.59,67.09 L59.14,64.96 L59.14,67.09 L55.6,69.4 C55.6,69.4 55.26,70.79 54.48,72.45 C53.7,74.11 52.82,75.3 52.82,75.3 L54.83,76.77 L52.21,80.67 L50.49,78.69 L47.58,80.95 L47.73,65.08 L47.72,65.08 Z" id="Path" fill="#D0021B"></path>
            <polygon id="Path" fill="#D0021B" points="66.87 55.37 76.1 49.99 74.98 61.08 65.91 66.71 66.87 55.37"></polygon>
            <path d="M92.43,39.47 L90.04,53.99 L88.49,54.59 L86.37,58.5 L84.67,57.66 L86.97,53.47 C86.97,53.47 86.49,52.92 86.27,52.46 C86.07,52 85.8,50.94 85.8,50.94 L82.6,52.26 L82.6,49.9 L85.8,48.98 C85.8,48.98 86.31,47.1 86.96,45.86 C87.3521179,45.1138419 87.8696639,44.4406938 88.49,43.87 L86.96,41.78 L89.53,38.51 L90.63,40.93 L92.43,39.47 L92.43,39.47 Z" id="Path" fill="#D0021B"></path>
            <polygon id="Path" fill="#D0021B" points="47.55 98.72 47.7 84.1 48.98 82.9 49.58 86.83 56.64 80.96 56.64 76.46 59.31 74.44 59.31 77.72 62.6 76 62.06 78.98 58.69 81.4 57.25 89.48 60.47 88.1 60.47 89.48 47.57 98.73"></polygon>
            <path d="M63.32,87.65 L63.54,84.93 L61.2,84.23 L63.32,80.56 L65.16,81.76 C65.16,81.76 66.18,79.71 66.81,78.93 C67.43,78.16 68.9,76.68 68.9,76.68 L68.9,72.98 L70.4,71.88 L70.4,75.84 C70.4,75.84 71.16,75.76 71.88,75.98 C72.3538049,76.1359535 72.797021,76.3727866 73.19,76.68 L75.95,72.43 L77.17,73.92 L74.28,77.81 L74.5,79.65 L70.15,82.76 L63.32,87.66 L63.32,87.65 Z" id="Path" fill="#D0021B"></path>
            <polygon id="Path" fill="#D0021B" points="89.53 57.1 87.33 70.64 76.92 78 76.92 76.26 80.33 73.64 80.49 67.21 77.23 68.91 77.23 66.54 80.33 64.8 80.33 60.86 82.41 60.08 82.41 63.58 85.73 62.5 87.31 61.98 88.41 57.75 89.52 57.11"></polygon>
        </g>
    </g>
</svg>