<?xml version="1.0" encoding="UTF-8"?>
<svg width="92px" height="100px" viewBox="0 0 92 100" version="1.1" xmlns="http://www.w3.org/2000/svg" xmlns:xlink="http://www.w3.org/1999/xlink">
    <title>penrose_5</title>
    <g id="Penrose" stroke="none" stroke-width="1" fill="none" fill-rule="evenodd">
        <g id="penrose_5" fill-rule="nonzero">
            <path d="M23.36,0.87 C23.36,0.87 24.6,0.3 26.24,0.1 C27.89,-0.1 29.86,0.1 29.86,0.1 L87.9,19.6 C87.9,19.6 89.6,20.36 90.66,22.68 C91.72,25.01 91.43,30.58 91.43,30.58 L88.1,51.58 L87.53,53.92 L55.47,96.4 C55.47,96.4 50.82,99.77 44.93,99.98 C39.05,100.2 34.12,97.55 34.12,97.55 L13.9,87.37 C13.9,87.37 9.24,83.82 7.73,81.77 C6.22,79.73 5.56,76.09 5.56,76.09 L0,23.28 C0,23.28 0.37,19.43 1.43,17.6 C2.49,15.78 6.16,12.71 6.16,12.71 L23.36,0.87 Z" id="Path" fill="#000000"></path>
            <path d="M38.41,11.33 C40.24,10.19 42.27,10.08 44.43,10.64 L54.62,14.13 C57.47,15.13 58.53,16.49 56.24,18.49 L50.66,23.9 C48.89,25.41 46.83,25.9 44.43,25.12 L32.63,20.94 C30.16,19.58 30.09,18.18 31.83,16.77 L38.41,11.33 Z" id="Path" fill="#E31E24"></path>
            <path d="M60.76,18.55 C61.91,17.42 63.48,17.1 65.41,17.49 L77.25,21.51 C79.49,22.08 80.5,23.04 78.95,24.81 L72.7,31.9 C71.43,33.39 69.69,33.78 67.5,33.08 L55.1,28.77 C51.79,27.41 52.95,26.12 53.97,24.82 L60.76,18.55 Z" id="Path" fill="#E31E24"></path>
            <path d="M66.96,13.47 L68.22,13.11 L86.16,19.1 L84.3,19.9 C82.78,20.56 81.6,20.86 79.7,20.22 L66.96,15.95 C65.42,15.46 65.42,14.07 66.96,13.47 L66.96,13.47 Z" id="Path" fill="#696969"></path>
            <path d="M48.26,6.33 L46.33,6.48 C44.51,6.86 44.06,8.05 46.33,9.03 L56.92,12.52 C58.65,13.23 60.49,13.57 62.62,12.88 L65.24,12.06 L48.26,6.33 L48.26,6.33 Z" id="Path" fill="#E31E24"></path>
            <path d="M29.86,0.1 L27.18,0.45 C25.91,0.89 25.12,1.41 26.84,2.34 L37.3,5.9 C39.28,6.63 40.53,6.42 41.73,6.15 L45.16,5.25 L29.86,0.1 Z" id="Path" fill="#696969"></path>
            <path d="M24.35,3.6 L35.05,7.27 C37.02,7.92 37.35,8.91 35.78,10.31 L28.08,16.48 C26.41,17.8 24.81,17.62 23.22,17.05 L11.88,13.01 C10.61,12.56 9.63,11.85 11.5,10.33 L20.32,4.05 C21.51,3.42 22.8,3.14 24.35,3.61 L24.35,3.6 Z" id="Path" fill="#E31E24"></path>
            <path d="M9.21,14.14 L21.11,18.59 C22.76,19.36 23.01,20.36 21.87,21.57 L13.33,28.28 C11.54,29.51 9.8,29.58 8.11,28.28 C3.56,24.76 1.13,20.76 5.03,15.32 C6.03,13.89 7.49,13.7 9.21,14.14 Z" id="Path" fill="#696969"></path>
            <path d="M30.11,22.06 L42.64,26.87 C44.06,27.48 45.74,28.7 44.06,30.54 L36.77,37.38 C34.77,39.12 33.23,39.12 30.98,38.28 L17.42,32.98 C14.69,31.8 15.37,30.41 16.76,29.23 L25.26,22.38 C26.66,21.41 28.3,21.38 30.11,22.06 Z" id="Path" fill="#E31E24"></path>
            <path d="M47.85,31.13 C49.21,30.05 50.79,29.83 52.59,30.54 L65.24,35.39 C67.84,36.41 68.04,37.73 66.65,39.24 L59.77,46.59 C58,48.33 56.07,48.49 54.02,47.62 L41.32,42.42 C38.22,41.11 39.07,39.73 40.38,38.35 L47.85,31.13 L47.85,31.13 Z" id="Path" fill="#696969"></path>
            <path d="M38.25,46.54 L51.67,51.96 C53.1,52.51 55.01,54.2 54.9901558,56.89 L54.55,67.06 C54.33,69.02 53.25,69.66 51.35,69.03 L38.25,63.36 C36.25,62.28 35.32,60.8 35.3299202,58.99 L35.3299202,48.97 C35.42,47.01 36.31,46.09 38.25,46.54 Z" id="Path" fill="#696969"></path>
            <path d="M14.64,37.27 L28.64,43 C30.24,43.8 31.45,45.1 31.76,47.62 L32.11,57.85 C31.98,59.63 31.03,60.26 29.2,59.64 L16.36,54.13 C14.06,53.15 13.25,51.64 12.82,50 L11.88,39.13 C11.77,37.11 12.78,36.61 14.64,37.27 L14.64,37.27 Z" id="Path" fill="#696969"></path>
            <path d="M0.42,26.65 C1.42,29.35 3.37,31.11 5.58,32.61 C7.18,33.77 8.12,35.36 8.46,37.31 L9.35,48.13 C9.38,49.93 8.75,50.55 7.18,49.47 C5.18,47.72 3.13,46.01 2.11,43.27 L0.42,26.65 Z" id="Path" fill="#696969"></path>
            <path d="M38.5,66.68 L51.02,72.14 C52.32,72.82 53.59,73.58 54.07,76.33 L53.35,86.95 C53.22,88.9 52.03,89.11 50.29,88.39 L38.49,82.97 C36.57,81.99 35.81,80.68 35.79,79.15 L35.79,68.4 C35.97,66.8 36.92,66.29 38.49,66.68 L38.5,66.68 Z" id="Path" fill="#0062AC"></path>
            <path d="M16.63,57.13 L28.26,62.15 C30.71,63.22 31.89,64.94 32.11,67.15 L32.51,76.49 C32.41,78.84 30.99,78.97 29.08,78.29 L17.93,73.2 C15.93,71.98 14.82,70.46 14.63,68.61 L13.8,59.63 C13.96,57.02 15.55,56.62 16.63,57.13 L16.63,57.13 Z" id="Path" fill="#0062AC"></path>
            <path d="M2.43,46.04 C3.52,48.69 5.39,50.51 7.33,52.27 C8.85,53.62 10.08,55.3 10.52,57.85 L11.27,66.55 C11.2,68.55 10.27,68.92 8.57,67.79 C6.4,66.1 4.95,63.49 3.95,60.3 L2.43,46.04 Z" id="Path" fill="#0062AC"></path>
            <path d="M38.48,84.84 L50.63,90.77 C52.4,91.67 53.59,92.87 52.06,95.49 C49.68,99.5 44.74,99.74 38.48,98.04 C36.96,97.48 36.08,96.42 36.07,94.69 L35.78,86.59 C35.74,84.74 36.72,84.26 38.48,84.84 L38.48,84.84 Z" id="Path" fill="#0062AC"></path>
            <path d="M17.65,75.37 L29.98,81.17 C31.55,81.78 32.68,82.87 32.84,85.05 L33.17,93.18 C33.17,94.93 32.11,95.12 30.55,94.55 L18.67,88.77 C17.27,87.89 16.19,86.71 16.04,84.61 L15.39,76.97 C15.19,74.99 16.26,74.95 17.65,75.37 Z" id="Path" fill="#0062AC"></path>
            <path d="M4.31,63.55 C5.28,66.34 6.66,68.85 9.05,70.64 C10.6,71.62 11.9,72.87 12.21,75.16 L12.95,83.04 C13.25,85.45 12.23,84.72 11.27,84.15 C8.55,82.16 6.45,79.53 5.57,75.62 L4.31,63.55 Z" id="Path" fill="#0062AC"></path>
            <path d="M62.87,50.54 L69.27,43.55 C70.52,41.99 71.21,42.16 71.29,44.2 L70.39,54.53 C69.89,57.09 69.07,58.29 68.23,59.42 L62.27,66.55 C60.15,69.73 59.71,68.57 59.95,65.69 L60.67,55.99 C60.67,54.11 61.5,52.29 62.87,50.54 L62.87,50.54 Z" id="Path" fill="#696969"></path>
            <path d="M75.04,36.2 L81.22,29.37 C82.07,28.39 83.09,27.72 83.09,29.73 L81.69,40.73 C81.49,42.62 80.69,43.98 79.69,45.16 L73.45,52.86 C72.34,54.3 71.72,54.42 71.89,52.48 L72.75,42.51 C72.99,39.85 73.72,37.71 75.04,36.21 L75.04,36.2 Z" id="Path" fill="#696969"></path>
            <path d="M86.98,23.55 C90.85,21.23 91.16,25.15 91.18,29.57 C91,31.23 90.48,32.49 89.68,33.42 L84.88,38.85 C83.28,40.6 83.26,39.35 83.44,37.71 L84.54,28.43 C84.96,26.08 85.74,24.4 86.98,23.55 Z" id="Path" fill="#696969"></path>
            <path d="M78.52,49.17 L73.42,55.4 C71.75,57.47 71.19,58.99 70.73,62.2 L70.03,70.41 C70.03,72.48 70.56,72.34 72,70.98 L76.68,64.88 C78.47,62.55 79.21,61.04 79.65,57.67 L80.5,49.88 C80.55,47.78 80.13,47.58 78.52,49.18 L78.52,49.17 Z" id="Path" fill="#FFFFFF"></path>
            <path d="M67.76,62.34 L60.96,70.41 C59.56,72.45 59.16,73.75 58.84,76.21 L58.27,85.71 C58.14,88.17 58.58,88.13 59.97,86.41 L65.92,78.48 C67.58,76.46 68.17,75.29 68.32,73.1 L69.17,64.04 C69.47,61.27 69.13,60.98 67.76,62.34 L67.76,62.34 Z" id="Path" fill="#FFFFFF"></path>
            <path d="M89,36.71 L84.32,42.38 C83.19,43.88 82.74,44.99 82.2,47.33 L80.92,56.68 C80.69,58.65 80.98,58.85 82.2,57.67 L86.45,52.29 C87.63,50.89 88.11,49.92 88.57,47.76 L90.27,37.28 C90.43,35.68 90.11,35.64 89,36.71 Z" id="Path" fill="#FFFFFF"></path>
            <path d="M80.36,62.77 L79.65,64.32 L87.15,54.27 C87.08,53.5 86.85,53.56 86.16,54.41 L82.2,59.8 C81.73,60.33 81.36,60.9 80.36,62.78 L80.36,62.77 Z" id="Path" fill="#FFFFFF"></path>
            <path d="M76.54,67.16 L71.44,73.81 C70.14,75.41 69.54,76.56 68.61,78.91 L77.81,66.73 C77.47,66.41 77.21,66.45 76.54,67.15 L76.54,67.16 Z" id="Path" fill="#FFFFFF"></path>
            <path d="M60.54,87.97 C58.69,90.23 58.2,91.1 57.56,93.63 L67.47,80.33 C67.24,79.78 67.03,79.67 66.06,80.89 L60.54,87.97 L60.54,87.97 Z" id="Path" fill="#FFFFFF"></path>
        </g>
    </g>
</svg>