<?xml version="1.0" encoding="UTF-8"?>
<svg width="210px" height="100px" viewBox="0 0 210 100" version="1.1" xmlns="http://www.w3.org/2000/svg" xmlns:xlink="http://www.w3.org/1999/xlink">
    <title>penrose_3_1</title>
    <g id="Penrose" stroke="none" stroke-width="1" fill="none" fill-rule="evenodd">
        <g id="penrose_3_1" fill-rule="nonzero">
            <polygon id="Path" fill="#000000" points="0.09 19.28 9.19 80.88 63.83 99.92 97.75 67.42 97.75 7.5 42.65 0.14 0.08 19.28"></polygon>
            <polygon id="Path" fill="#0062AC" points="61.03 32.18 73.35 24.3 74.04 45 61.96 54.18 61.03 32.18"></polygon>
            <polygon id="Path" fill="#696969" points="74.94 23.14 86.14 16.14 86.14 36.08 75.66 43.66"></polygon>
            <polygon id="Path" fill="#696969" points="87.69 15.25 96.92 9.35 96.92 28.2 87.69 35.34"></polygon>
            <polygon id="Path" fill="#696969" points="62.38 56.8 74.16 47.87 74.79 66.61 63.5 76.51 62.38 56.81"></polygon>
            <polygon id="Path" fill="#E31E24" points="75.93 46.33 86.26 38.45 86.57 56.95 76.37 65.57"></polygon>
            <polygon id="Path" fill="#696969" points="88.02 37.4 96.86 30.55 96.86 48.14 88.06 55.77 88.02 37.39"></polygon>
            <polygon id="Path" fill="#696969" points="63.66 79.2 75.05 69.3 75.59 87.3 64.47 97.78 63.66 79.19"></polygon>
            <polygon id="Path" fill="#E31E24" points="76.6 67.85 86.72 59.31 86.72 76.68 76.92 85.99 76.6 67.85"></polygon>
            <polygon id="Path" fill="#696969" points="88.2 58.15 96.92 50.49 97 66.96 88.2 75.36"></polygon>
            <polygon id="Path" fill="#E31E24" points="39.55 28.62 58.74 32.72 59.76 54.45 41.19 49.75"></polygon>
            <polygon id="Path" fill="#696969" points="19.28 24.53 36.81 28.19 38.93 49.2 21.68 44.83"></polygon>
            <polygon id="Path" fill="#696969" points="1.26 20.93 17.1 24.14 19.4 44.16 4.11 40.48 1.26 20.93"></polygon>
            <polygon id="Path" fill="#696969" points="41.66 52.4 60.12 57.22 61.1 77.17 43 71.73 41.67 52.4"></polygon>
            <polygon id="Path" fill="#0062AC" points="22.14 47.39 39.2 51.6 40.81 71.02 24.41 66.05 22.13 47.39"></polygon>
            <polygon id="Path" fill="#696969" points="4.27 42.5 19.87 46.85 22.15 65.42 7 60.86 4.27 42.51"></polygon>
            <polygon id="Path" fill="#696969" points="43.44 74.08 61.32 79.73 62.48 98.39 44.93 92.17 43.44 74.08"></polygon>
            <polygon id="Path" fill="#0062AC" points="24.53 68.27 41.07 73.57 42.7 91.56 26.67 85.98 24.53 68.28"></polygon>
            <polygon id="Path" fill="#696969" points="7.36 63.07 22.45 67.79 24.46 85.13 9.86 80.08 7.36 63.07"></polygon>
            <polygon id="Path" fill="#FFFFFF" points="53.1 19.43 71.72 22.7 59.36 30.58 39.89 26.72 53.11 19.42"></polygon>
            <polygon id="Path" fill="#696969" points="66.32 11.92 84.4 14.77 73.43 21.69 54.81 18.39 66.31 11.92"></polygon>
            <polygon id="Path" fill="#696969" points="78.21 5.51 95.69 7.94 86.02 13.91 68.28 11.16 78.21 5.51"></polygon>
            <polygon id="Path" fill="#696969" points="59.65 2.98 75.66 5.2 65.54 10.9 48.75 8.3 59.65 3"></polygon>
            <polygon id="Path" fill="#FFED00" points="47.34 9.07 63.94 11.67 52.35 18 35.35 15.03 47.35 9.07"></polygon>
            <polygon id="Path" fill="#696969" points="33.53 15.85 50.83 18.85 37.47 26.23 19.88 22.71"></polygon>
            <polygon id="Path" fill="#696969" points="15.85 12.85 31.27 15.53 17.76 22.21 2.1 19.07 15.84 12.85"></polygon>
            <polygon id="Path" fill="#696969" points="29.96 6.38 45.32 8.69 33.14 14.73 17.63 12.02"></polygon>
            <polygon id="Path" fill="#696969" points="42.73 0.66 57.37 2.7 46.72 7.96 31.68 5.69 42.73 0.66"></polygon>
            <path d="M54.33,81.74 C54.73,82.11 55.37,82.08 55.74,81.67 L61.79,75.01 C62.17,74.61 62.14,73.97 61.73,73.61 C61.32,73.23 60.69,73.26 60.31,73.67 L54.93,79.59 L49.01,74.21 C48.61,73.83 47.97,73.86 47.61,74.27 C47.23,74.68 47.26,75.31 47.67,75.69 L54.33,81.74 L54.33,81.74 Z M52,39.04 L54,81.04 L56,80.95 L54,38.95 L52,39.05 L52,39.04 Z" id="Shape" fill="#FFFFFF"></path>
            <path d="M143.83,4.12 L111.33,15.35 C109.36,16.31 108.7,17.11 109.13,19.48 L112.96,60.39 C113.81,66.23 115.12,68.87 119.31,72.21 L172.92,97.76 C177.69,99.43 180.33,98.14 185.04,93.18 L204.09,71.03 C204.71,70.17 204.97,69.7 205.27,68.52 L208.97,32.62 C209.7,19.34 199.8,9 191.08,7.53 L172.91,3.39 C161.1,1.18 151.06,1.77 143.81,4.13 L143.83,4.12 Z" id="Path" fill="#000000"></path>
            <path d="M124.92,11.06 L115.32,14.31 C113.57,15.07 113.79,15.45 115.32,16.08 L125.07,18.89 C127.39,19.59 128.62,19.54 130.69,18.74 L140.29,15.05 C141.98,14.3 141.85,13.89 139.99,13.13 L130.39,10.62 C128.26,10.22 127.07,10.32 124.93,11.06 L124.92,11.06 Z" id="Path" fill="#696969"></path>
            <path d="M141.76,5.16 L132.9,8.26 C131.49,8.85 131.7,9.13 132.9,9.59 L142.35,12.09 C144.42,12.69 145.59,12.65 147.67,11.8 L155.79,8.7 C157.26,7.96 157.37,7.6 155.35,7.08 L145.45,4.71 C144.19,4.47 143.42,4.51 141.76,5.16 L141.76,5.16 Z" id="Path" fill="#696969"></path>
            <path d="M148.26,3.24 C146.71,3.7 146.24,3.97 148.26,4.57 L157.42,6.78 C159.59,7.26 160.37,7.08 162.14,6.34 L167.76,4.12 C169.48,3.39 169.56,3.05 167.02,2.65 C159.3,1.79 155.19,1.92 148.26,3.24 Z" id="Path" fill="#696969"></path>
            <path d="M159.93,18.3 L148.56,15.35 C146.37,14.79 145.23,14.82 143.39,15.65 L134.09,19.19 C131.83,20.28 132.31,20.77 134.53,21.55 L146.34,25.09 C148.87,25.79 150.3,25.75 152.84,24.79 L160.96,20.66 C162.78,19.66 162.86,19.13 159.93,18.3 Z" id="Path" fill="#696969"></path>
            <path d="M173.81,11.5 L163.77,9.14 C161.81,8.71 160.69,8.72 158.6,9.44 L151.5,12.1 C149.44,12.98 149.88,14.16 151.8,14.6 L161.85,17.27 C164.44,17.9 165.87,17.9 168.35,16.97 L174.85,13.87 C176.46,12.9 176.56,12.37 173.81,11.51 L173.81,11.5 Z" id="Path" fill="#E31E24"></path>
            <path d="M164.95,6.34 L170.71,4.12 C171.87,3.64 172.71,3.66 174.41,3.97 L185.63,6.48 C187.61,7.07 187.35,7.43 185.93,8.11 L180.9,10.62 C179.23,11.37 178.12,11.46 175.73,10.92 L164.95,8.26 C162.93,7.7 162.69,7.31 164.95,6.34 Z" id="Path" fill="#696969"></path>
            <path d="M164.5,21.55 L156.83,25.39 C154.66,26.32 154.79,27.01 156.83,28.49 C167.78,35.64 171.4,41.8 174.99,55.22 C175.56,58.07 176.34,57.96 178.09,56.4 L184.59,51.24 C186.59,49.69 187.09,48.5 186.81,45.77 C184.59,34.1 179.79,27.87 170.41,21.55 C168.17,20.4 166.88,20.32 164.51,21.55 L164.5,21.55 Z" id="Path" fill="#FFFFFF"></path>
            <path d="M178.39,14.6 L172.63,17.41 C170.51,18.61 170.83,19.37 172.93,20.81 C181.85,27.27 185.67,31.93 188.73,43.56 C189.39,46.06 190.4,46.57 191.98,45.33 L196.41,41.63 C198.79,39.85 199.46,38.09 199.21,36.03 C198.18,27.31 193.93,20.89 184.74,14.9 C182.01,13.66 180.62,13.62 178.39,14.6 L178.39,14.6 Z" id="Path" fill="#696969"></path>
            <path d="M189.76,8.55 L184.74,11.21 C183.45,11.95 183.73,12.47 185.63,13.57 C194.91,19.21 198.14,23.85 200.69,34.55 C201.29,36.83 201.87,37.02 203.2,35.88 L207.19,32.63 C208.74,31.17 208.87,30.2 208.52,28.34 C206.3,17.82 202.99,13.8 194.49,9 C192.34,7.87 191.32,7.8 189.76,8.55 L189.76,8.55 Z" id="Path" fill="#696969"></path>
            <path d="M185.18,54.63 L178.09,60.69 C176.53,62.26 175.99,63.62 175.59,66.89 L175.14,80.19 C175.02,83.21 175.51,83.53 177.21,82.1 L183.85,75.16 C185.66,73.44 186.18,72.12 186.36,69.26 L187.1,56.26 C187.1,54.04 186.56,53.42 185.18,54.63 L185.18,54.63 Z" id="Path" fill="#696969"></path>
            <path d="M197,45.18 L191.68,49.61 C189.71,51.68 189.14,53.16 188.88,56.26 L188.14,67.19 C188.06,69.73 188.46,70.3 190.5,68.81 L194.93,64.53 C197.04,62.3 197.73,60.97 198.18,58.47 L199.07,46.51 C199.07,44.44 198.45,44.13 197,45.18 Z" id="Path" fill="#E31E24"></path>
            <path d="M206.9,35.88 L202.61,39.57 C201.15,40.94 200.64,41.93 200.39,44.15 L199.66,56.11 C199.49,58.21 199.73,58.75 201.43,57.29 L205.42,53.59 C206.29,52.74 206.62,52.19 206.89,51.09 L208.37,36.76 C208.47,34.71 207.98,34.94 206.89,35.88 L206.9,35.88 Z" id="Path" fill="#696969"></path>
            <path d="M183.85,78.11 L177.06,85.06 C175.31,87.06 174.73,88.32 175.14,90.96 C177.04,96.54 178.77,97.56 183.41,94.21 C184.59,92.68 185.07,91.73 185.33,89.78 L185.93,78.71 C185.68,76.88 185.25,76.67 183.85,78.11 L183.85,78.11 Z" id="Path" fill="#696969"></path>
            <path d="M196.11,65.86 L189.76,72.36 C188.31,73.86 187.76,74.93 187.55,77.52 L186.95,87.57 C186.84,89.69 187.13,90.05 188.58,88.6 L195.08,80.92 C196.11,79.64 196.4,78.78 196.55,77.08 L197.45,66.74 C197.45,64.98 197.17,64.76 196.11,65.86 L196.11,65.86 Z" id="Path" fill="#E31E24"></path>
            <path d="M205.27,55.81 L200.99,60.24 C199.54,61.96 199.18,63.09 198.92,65.27 L198.03,75.31 C197.99,76.67 198.21,76.91 199.07,76.34 L204.24,70.29 C204.54,69.64 204.82,69.07 204.97,67.78 L206.16,56.7 C206.38,55.07 206.27,54.7 205.26,55.81 L205.27,55.81 Z" id="Path" fill="#696969"></path>
            <path d="M154.9,33.8 C152.03,32.16 151.37,32.8 151.36,35.88 L151.36,48.28 C151.5,51.49 152.2,52.81 154.91,54.04 L166.87,58.62 C169.83,59.62 170.26,58.81 169.38,55.52 C166.48,43.67 162.94,39.37 154.91,33.81 L154.9,33.8 Z" id="Path" fill="#E31E24"></path>
            <path d="M144.13,30.41 L132.31,26.57 C129.71,26.11 128.99,26.72 128.76,29.08 L129.21,41.48 C129.53,44.1 130.24,45.07 132.31,46.07 L144.42,50.5 C146.52,51.04 147.32,50.67 147.52,47.84 L147.52,35.73 C147.46,32.56 146.74,31.37 144.12,30.41 L144.13,30.41 Z" id="Path" fill="#696969"></path>
            <path d="M122.71,23.17 L112.96,19.92 C110.96,19.73 110.31,20.17 110.6,22.58 L111.63,34.98 C112.2,37.31 112.9,38.23 114.88,39.12 L124.04,42.67 C126.05,43 126.57,42.47 126.55,40.45 L125.95,27.75 C125.42,24.99 124.67,24.05 122.71,23.17 L122.71,23.17 Z" id="Path" fill="#696969"></path>
            <path d="M167.02,62.6 L154.62,57.88 C152.37,57.58 151.65,58.12 151.51,60.54 L151.51,73.39 C151.62,75.79 152.24,76.91 154.61,78.41 L166.13,83.73 C168.63,84.38 169.52,84.02 169.83,81.51 L170.27,68.51 C170.38,65.16 169.49,64.01 167.02,62.61 L167.02,62.6 Z" id="Path" fill="#696969"></path>
            <path d="M144.13,53.6 L133.79,49.61 C130.98,49.1 130.19,49.75 130.09,52.56 L130.54,63.64 C131.14,66.4 131.81,67.74 134.38,69.25 L144.13,73.68 C146.71,74.28 147.53,73.73 147.97,71.32 L147.97,60.1 C147.53,56.75 146.64,55.37 144.13,53.6 Z" id="Path" fill="#FFFFFF"></path>
            <path d="M124.04,46.21 L115.32,42.81 C113.41,42.22 112.57,42.27 112.67,44.88 L113.7,57.44 C114.01,59.75 114.63,60.7 116.5,61.72 L125.22,65.56 C127.66,66.49 128.22,66 128.02,63.64 L127.29,50.34 C126.76,47.95 126.08,47.02 124.04,46.21 L124.04,46.21 Z" id="Path" fill="#696969"></path>
            <path d="M154.46,81.8 C152.15,81.07 151.22,81.1 151.8,83.87 C152.16,85.79 152.74,86.85 154.46,88.75 L171.89,97.17 C171.06,96.3 170.67,95.75 170.27,94.51 C169.05,90.06 167.95,88.36 165.1,86.98 L154.46,81.81 L154.46,81.8 Z" id="Path" fill="#696969"></path>
            <path d="M143.83,77.08 L134.82,72.8 C132.18,72.33 131.49,72.78 132.16,75.3 C132.81,77.22 133.52,78.2 135.56,79.74 L151.51,87.42 C150.47,86.6 150.1,86.08 149.74,85.06 C148.38,81.04 147.15,79.23 143.83,77.08 L143.83,77.08 Z" id="Path" fill="#FFFFFF"></path>
            <path d="M125.37,68.52 L116.95,64.38 C114.5,63.54 114.24,64.14 114.88,66.3 C115.48,68.14 116.3,69.37 119.46,72.2 L132.6,78.41 C131.17,77.31 130.57,76.71 130.1,75.75 C128.9,71.98 128,70.2 125.37,68.52 L125.37,68.52 Z" id="Path" fill="#696969"></path>
            <path d="M170.33,87.74 C170.73,88.11 171.37,88.08 171.74,87.67 L177.79,81.01 C178.17,80.61 178.13,79.97 177.73,79.61 C177.32,79.23 176.69,79.26 176.31,79.67 L170.93,85.59 L165.01,80.21 C164.61,79.83 163.97,79.86 163.61,80.27 C163.23,80.68 163.26,81.31 163.67,81.69 L170.33,87.74 L170.33,87.74 Z M168,45.04 L170,87.04 L172,86.95 L170,44.95 L168,45.05 L168,45.04 Z" id="Shape" fill="#FFFFFF"></path>
            <path d="M108,53.82 C108,53.87 108,53.93 107.98,54.02 C107.98,54.12 107.96,54.22 107.94,54.32 C107.93,54.43 107.9,54.54 107.87,54.66 C107.83,54.77 107.79,54.87 107.74,54.96 C107.69,55.06 107.63,55.13 107.56,55.19 C107.49,55.25 107.41,55.28 107.32,55.28 L99.88,55.28 C99.78,55.28 99.7,55.24 99.65,55.18 C99.59,55.11 99.57,55 99.57,54.84 C99.57,54.76 99.57,54.64 99.6,54.48 C99.62,54.32 99.66,54.16 99.71,54.01 C99.77,53.84 99.83,53.71 99.91,53.59 C100.01,53.46 100.12,53.4 100.25,53.4 L107.7,53.4 C107.8,53.4 107.88,53.44 107.93,53.5 C107.98,53.58 108,53.68 108,53.82 L108,53.82 Z M108.8,49.87 L108.78,50.08 L108.74,50.38 L108.66,50.71 C108.63,50.83 108.58,50.93 108.53,51.01 C108.48,51.11 108.42,51.19 108.35,51.25 C108.27,51.31 108.2,51.34 108.11,51.34 L100.67,51.34 C100.57,51.34 100.49,51.31 100.44,51.24 C100.38,51.17 100.36,51.05 100.36,50.89 C100.36,50.81 100.36,50.69 100.39,50.54 C100.41,50.38 100.45,50.22 100.5,50.06 C100.56,49.9 100.62,49.76 100.7,49.64 C100.8,49.52 100.9,49.46 101.03,49.46 L108.48,49.46 C108.59,49.46 108.68,49.5 108.72,49.57 C108.77,49.64 108.8,49.74 108.8,49.87 L108.8,49.87 Z" id="Shape" fill="#000000"></path>
        </g>
    </g>
</svg>