<?xml version="1.0" encoding="UTF-8"?>
<svg width="202px" height="100px" viewBox="0 0 202 100" version="1.1" xmlns="http://www.w3.org/2000/svg" xmlns:xlink="http://www.w3.org/1999/xlink">
    <title>penrose_2_2</title>
    <g id="Penrose" stroke="none" stroke-width="1" fill="none" fill-rule="evenodd">
        <g id="penrose_2_2" fill-rule="nonzero">
            <path d="M24.36,0.87 C24.36,0.87 25.6,0.3 27.24,0.1 C28.89,-0.1 30.86,0.1 30.86,0.1 L88.9,19.6 C88.9,19.6 90.6,20.36 91.66,22.68 C92.72,25.01 92.43,30.58 92.43,30.58 L89.1,51.58 L88.53,53.92 L56.47,96.4 C56.47,96.4 51.82,99.77 45.93,99.98 C40.05,100.2 35.12,97.55 35.12,97.55 L14.9,87.37 C14.9,87.37 10.24,83.82 8.73,81.77 C7.22,79.73 6.56,76.09 6.56,76.09 L1,23.28 C1,23.28 1.37,19.43 2.43,17.6 C3.49,15.78 7.16,12.71 7.16,12.71 L24.36,0.87 Z" id="Path" fill="#000000"></path>
            <path d="M39.41,11.33 C41.24,10.19 43.27,10.08 45.43,10.64 L55.62,14.13 C58.47,15.13 59.52,16.49 57.24,18.49 L51.66,23.9 C49.89,25.41 47.83,25.9 45.43,25.12 L33.63,20.94 C31.16,19.58 31.09,18.18 32.83,16.77 L39.41,11.33 Z" id="Path" fill="#FFFFFF"></path>
            <path d="M61.76,18.55 C62.91,17.42 64.48,17.1 66.41,17.49 L78.25,21.51 C80.49,22.08 81.5,23.04 79.95,24.81 L73.7,31.9 C72.43,33.39 70.69,33.78 68.5,33.08 L56.1,28.77 C52.79,27.41 53.95,26.12 54.97,24.82 L61.76,18.55 Z" id="Path" fill="#696969"></path>
            <path d="M67.96,13.47 L69.22,13.11 L87.16,19.1 L85.3,19.9 C83.78,20.56 82.6,20.86 80.7,20.22 L67.96,15.95 C66.42,15.46 66.42,14.07 67.96,13.47 L67.96,13.47 Z" id="Path" fill="#696969"></path>
            <path d="M49.26,6.33 L47.33,6.48 C45.51,6.86 45.06,8.05 47.33,9.03 L57.91,12.52 C59.65,13.23 61.49,13.57 63.61,12.88 L66.24,12.06 L49.26,6.33 L49.26,6.33 Z" id="Path" fill="#696969"></path>
            <path d="M30.86,0.1 L28.18,0.45 C26.91,0.89 26.12,1.41 27.84,2.34 L38.3,5.9 C40.28,6.63 41.53,6.42 42.73,6.15 L46.16,5.25 L30.86,0.1 Z" id="Path" fill="#696969"></path>
            <path d="M25.35,3.6 L36.05,7.27 C38.02,7.92 38.35,8.91 36.78,10.31 L29.08,16.48 C27.41,17.8 25.81,17.62 24.22,17.05 L12.88,13.01 C11.61,12.56 10.63,11.85 12.5,10.33 L21.32,4.05 C22.5,3.42 23.8,3.14 25.35,3.61 L25.35,3.6 Z" id="Path" fill="#696969"></path>
            <path d="M10.21,14.14 L22.11,18.59 C23.76,19.36 24.01,20.36 22.87,21.57 L14.33,28.28 C12.54,29.51 10.8,29.58 9.11,28.28 C4.56,24.76 2.13,20.76 6.03,15.32 C7.03,13.89 8.49,13.7 10.21,14.14 Z" id="Path" fill="#696969"></path>
            <path d="M31.11,22.06 L43.64,26.87 C45.06,27.48 46.74,28.7 45.06,30.54 L37.77,37.38 C35.77,39.12 34.23,39.12 31.98,38.28 L18.42,32.98 C15.69,31.8 16.37,30.41 17.76,29.23 L26.26,22.38 C27.66,21.41 29.3,21.38 31.11,22.06 Z" id="Path" fill="#696969"></path>
            <path d="M48.85,31.13 C50.21,30.05 51.79,29.83 53.59,30.54 L66.24,35.39 C68.84,36.41 69.04,37.73 67.65,39.24 L60.77,46.59 C59,48.33 57.07,48.49 55.02,47.62 L42.32,42.42 C39.22,41.11 40.07,39.73 41.38,38.35 L48.85,31.13 L48.85,31.13 Z" id="Path" fill="#696969"></path>
            <path d="M39.25,46.54 L52.67,51.96 C54.1,52.51 56.01,54.2 55.9901558,56.89 L55.55,67.06 C55.33,69.02 54.25,69.66 52.35,69.03 L39.25,63.36 C37.25,62.28 36.32,60.8 36.3299202,58.99 L36.3299202,48.97 C36.42,47.01 37.31,46.09 39.25,46.54 Z" id="Path" fill="#696969"></path>
            <path d="M15.64,37.27 L29.64,43 C31.24,43.8 32.45,45.1 32.76,47.62 L33.11,57.85 C32.98,59.63 32.03,60.26 30.2,59.64 L17.36,54.13 C15.06,53.15 14.25,51.64 13.82,50 L12.88,39.13 C12.77,37.11 13.78,36.61 15.64,37.27 L15.64,37.27 Z" id="Path" fill="#FFFFFF"></path>
            <path d="M1.42,26.65 C2.42,29.35 4.37,31.11 6.58,32.61 C8.18,33.77 9.12,35.36 9.46,37.31 L10.35,48.13 C10.38,49.93 9.75,50.55 8.18,49.47 C6.18,47.72 4.13,46.01 3.11,43.27 L1.42,26.65 Z" id="Path" fill="#696969"></path>
            <path d="M39.5,66.68 L52.02,72.14 C53.32,72.82 54.59,73.58 55.07,76.33 L54.35,86.95 C54.22,88.9 53.03,89.11 51.29,88.39 L39.49,82.97 C37.57,81.99 36.81,80.68 36.79,79.15 L36.79,68.4 C36.97,66.8 37.92,66.29 39.49,66.68 L39.5,66.68 Z" id="Path" fill="#696969"></path>
            <path d="M17.63,57.13 L29.26,62.15 C31.71,63.22 32.89,64.94 33.11,67.15 L33.51,76.49 C33.41,78.84 31.99,78.97 30.08,78.29 L18.93,73.2 C16.93,71.98 15.82,70.46 15.63,68.61 L14.8,59.63 C14.96,57.02 16.55,56.62 17.63,57.13 L17.63,57.13 Z" id="Path" fill="#0062AC"></path>
            <path d="M3.43,46.04 C4.52,48.69 6.39,50.51 8.33,52.27 C9.85,53.62 11.08,55.3 11.52,57.85 L12.27,66.55 C12.2,68.55 11.27,68.92 9.57,67.79 C7.4,66.1 5.95,63.49 4.95,60.3 L3.43,46.04 Z" id="Path" fill="#696969"></path>
            <path d="M39.48,84.84 L51.63,90.77 C53.4,91.67 54.59,92.87 53.06,95.49 C50.68,99.5 45.74,99.74 39.48,98.04 C37.96,97.48 37.08,96.42 37.07,94.69 L36.78,86.59 C36.74,84.74 37.72,84.26 39.48,84.84 L39.48,84.84 Z" id="Path" fill="#696969"></path>
            <path d="M18.65,75.37 L30.98,81.17 C32.55,81.78 33.68,82.87 33.84,85.05 L34.17,93.18 C34.17,94.93 33.11,95.12 31.55,94.55 L19.67,88.77 C18.27,87.89 17.19,86.71 17.04,84.61 L16.39,76.97 C16.19,74.99 17.26,74.95 18.65,75.37 Z" id="Path" fill="#FFFFFF"></path>
            <path d="M5.31,63.55 C6.28,66.34 7.66,68.85 10.05,70.64 C11.6,71.62 12.9,72.87 13.21,75.16 L13.95,83.04 C14.25,85.45 13.23,84.72 12.27,84.15 C9.55,82.16 7.45,79.53 6.57,75.62 L5.31,63.55 Z" id="Path" fill="#696969"></path>
            <path d="M63.87,50.54 L70.27,43.55 C71.52,41.99 72.21,42.16 72.29,44.2 L71.39,54.53 C70.89,57.09 70.07,58.29 69.23,59.42 L63.27,66.55 C61.15,69.73 60.71,68.57 60.95,65.69 L61.67,55.99 C61.67,54.11 62.5,52.29 63.87,50.54 L63.87,50.54 Z" id="Path" fill="#696969"></path>
            <path d="M76.04,36.2 L82.22,29.37 C83.07,28.39 84.09,27.72 84.09,29.73 L82.69,40.73 C82.49,42.62 81.69,43.98 80.69,45.16 L74.45,52.86 C73.34,54.3 72.72,54.42 72.89,52.48 L73.75,42.51 C73.99,39.85 74.72,37.71 76.04,36.21 L76.04,36.2 Z" id="Path" fill="#696969"></path>
            <path d="M87.98,23.55 C91.85,21.23 92.16,25.15 92.18,29.57 C92,31.23 91.48,32.49 90.68,33.42 L85.88,38.85 C84.28,40.6 84.26,39.35 84.44,37.71 L85.54,28.43 C85.96,26.08 86.74,24.4 87.98,23.55 Z" id="Path" fill="#696969"></path>
            <path d="M79.52,49.17 L74.42,55.4 C72.75,57.47 72.19,58.99 71.73,62.2 L71.03,70.41 C71.03,72.48 71.56,72.34 73,70.98 L77.68,64.88 C79.47,62.55 80.21,61.04 80.65,57.67 L81.5,49.88 C81.55,47.78 81.13,47.58 79.52,49.18 L79.52,49.17 Z" id="Path" fill="#E31E24"></path>
            <path d="M68.76,62.34 L61.96,70.41 C60.56,72.45 60.16,73.75 59.84,76.21 L59.27,85.71 C59.14,88.17 59.58,88.13 60.97,86.41 L66.92,78.48 C68.58,76.46 69.17,75.29 69.32,73.1 L70.17,64.04 C70.47,61.27 70.13,60.98 68.76,62.34 L68.76,62.34 Z" id="Path" fill="#696969"></path>
            <path d="M90,36.71 L85.32,42.38 C84.19,43.88 83.74,44.99 83.2,47.33 L81.92,56.68 C81.69,58.65 81.98,58.85 83.2,57.67 L87.45,52.29 C88.63,50.89 89.11,49.92 89.57,47.76 L91.27,37.28 C91.43,35.68 91.11,35.64 90,36.71 Z" id="Path" fill="#696969"></path>
            <path d="M81.36,62.77 L80.65,64.32 L88.15,54.27 C88.08,53.5 87.85,53.56 87.16,54.41 L83.2,59.8 C82.73,60.33 82.36,60.9 81.36,62.78 L81.36,62.77 Z" id="Path" fill="#696969"></path>
            <path d="M77.54,67.16 L72.44,73.81 C71.14,75.41 70.54,76.56 69.61,78.91 L78.81,66.73 C78.47,66.41 78.21,66.45 77.54,67.15 L77.54,67.16 Z" id="Path" fill="#696969"></path>
            <path d="M61.54,87.97 C59.69,90.23 59.2,91.1 58.56,93.63 L68.47,80.33 C68.24,79.78 68.03,79.67 67.06,80.89 L61.54,87.97 L61.54,87.97 Z" id="Path" fill="#696969"></path>
            <path d="M133.36,0.87 C133.36,0.87 134.59,0.3 136.24,0.1 C137.89,-0.1 139.85,0.1 139.85,0.1 L197.9,19.6 C197.9,19.6 199.6,20.36 200.66,22.68 C201.72,25.01 201.43,30.58 201.43,30.58 L198.1,51.58 L197.53,53.92 L165.47,96.4 C165.47,96.4 160.82,99.77 154.93,99.98 C149.05,100.2 144.12,97.55 144.12,97.55 L123.9,87.37 C123.9,87.37 119.24,83.82 117.73,81.77 C116.22,79.73 115.56,76.09 115.56,76.09 L110,23.28 C110,23.28 110.37,19.43 111.43,17.6 C112.49,15.78 116.16,12.71 116.16,12.71 L133.36,0.87 Z" id="Path" fill="#000000"></path>
            <path d="M148.41,11.33 C150.24,10.19 152.27,10.08 154.43,10.64 L164.62,14.13 C167.47,15.13 168.52,16.49 166.24,18.49 L160.66,23.9 C158.89,25.41 156.84,25.9 154.43,25.12 L142.63,20.94 C140.16,19.58 140.09,18.18 141.83,16.77 L148.41,11.33 Z" id="Path" fill="#FFFFFF"></path>
            <path d="M170.76,18.55 C171.91,17.42 173.48,17.1 175.41,17.49 L187.25,21.51 C189.49,22.08 190.5,23.04 188.95,24.81 L182.7,31.9 C181.43,33.39 179.69,33.78 177.5,33.08 L165.1,28.77 C161.79,27.41 162.95,26.12 163.97,24.82 L170.76,18.55 L170.76,18.55 Z" id="Path" fill="#696969"></path>
            <path d="M176.96,13.47 L178.22,13.11 L196.16,19.1 L194.3,19.9 C192.78,20.56 191.6,20.86 189.7,20.22 L176.96,15.95 C175.42,15.46 175.42,14.07 176.96,13.47 L176.96,13.47 Z" id="Path" fill="#696969"></path>
            <path d="M158.26,6.33 L156.33,6.48 C154.51,6.86 154.06,8.05 156.33,9.03 L166.91,12.52 C168.65,13.23 170.49,13.57 172.61,12.88 L175.24,12.06 L158.26,6.33 Z" id="Path" fill="#696969"></path>
            <path d="M139.85,0.1 L137.18,0.45 C135.91,0.89 135.12,1.41 136.84,2.34 L147.3,5.9 C149.28,6.63 150.53,6.42 151.73,6.15 L155.16,5.25 L139.86,0.1 L139.85,0.1 Z" id="Path" fill="#696969"></path>
            <path d="M134.35,3.6 L145.05,7.27 C147.02,7.92 147.35,8.91 145.78,10.31 L138.08,16.48 C136.41,17.8 134.81,17.62 133.22,17.05 L121.88,13.01 C120.61,12.56 119.63,11.85 121.5,10.33 L130.32,4.05 C131.51,3.42 132.81,3.14 134.35,3.61 L134.35,3.6 Z" id="Path" fill="#696969"></path>
            <path d="M119.21,14.14 L131.11,18.59 C132.76,19.36 133.01,20.36 131.87,21.57 L123.33,28.28 C121.54,29.51 119.8,29.58 118.11,28.28 C113.56,24.76 111.13,20.76 115.03,15.32 C116.03,13.89 117.49,13.7 119.21,14.14 L119.21,14.14 Z" id="Path" fill="#696969"></path>
            <path d="M140.11,22.06 L152.64,26.87 C154.06,27.48 155.74,28.7 154.06,30.54 L146.78,37.38 C144.76,39.12 143.23,39.12 140.98,38.28 L127.43,32.98 C124.69,31.8 125.37,30.41 126.76,29.23 L135.26,22.38 C136.66,21.41 138.3,21.38 140.11,22.06 L140.11,22.06 Z" id="Path" fill="#696969"></path>
            <path d="M157.85,31.13 C159.21,30.05 160.79,29.83 162.59,30.54 L175.24,35.39 C177.84,36.41 178.04,37.73 176.65,39.24 L169.77,46.59 C168,48.33 166.07,48.49 164.02,47.62 L151.32,42.42 C148.22,41.11 149.07,39.73 150.38,38.35 L157.85,31.13 L157.85,31.13 Z" id="Path" fill="#696969"></path>
            <path d="M148.25,46.54 L161.67,51.96 C163.1,52.51 165.01,54.2 164.990156,56.89 L164.55,67.06 C164.33,69.02 163.25,69.66 161.35,69.03 L148.25,63.36 C146.25,62.28 145.32,60.8 145.32992,58.99 L145.32992,48.97 C145.42,47.01 146.31,46.09 148.25,46.54 Z" id="Path" fill="#696969"></path>
            <path d="M124.64,37.27 L138.64,43 C140.24,43.8 141.45,45.1 141.76,47.62 L142.11,57.85 C141.98,59.63 141.03,60.26 139.2,59.64 L126.36,54.13 C124.06,53.15 123.25,51.64 122.82,50 L121.88,39.13 C121.77,37.11 122.78,36.61 124.64,37.27 L124.64,37.27 Z" id="Path" fill="#696969"></path>
            <path d="M110.42,26.65 C111.42,29.35 113.37,31.11 115.58,32.61 C117.18,33.77 118.12,35.36 118.46,37.31 L119.35,48.13 C119.38,49.93 118.75,50.55 117.18,49.47 C115.18,47.72 113.13,46.01 112.11,43.27 L110.42,26.65 L110.42,26.65 Z" id="Path" fill="#696969"></path>
            <path d="M148.5,66.68 L161.02,72.14 C162.32,72.82 163.59,73.58 164.07,76.33 L163.35,86.95 C163.22,88.9 162.03,89.11 160.29,88.39 L148.49,82.97 C146.57,81.99 145.8,80.68 145.79,79.15 L145.79,68.4 C145.97,66.8 146.92,66.29 148.49,66.68 L148.5,66.68 Z" id="Path" fill="#FFFFFF"></path>
            <path d="M126.63,57.13 L138.26,62.15 C140.71,63.22 141.89,64.94 142.11,67.15 L142.51,76.49 C142.41,78.84 140.99,78.97 139.09,78.29 L127.93,73.2 C125.93,71.98 124.82,70.46 124.63,68.61 L123.8,59.63 C123.96,57.02 125.54,56.62 126.63,57.13 L126.63,57.13 Z" id="Path" fill="#0062AC"></path>
            <path d="M112.43,46.04 C113.52,48.69 115.39,50.51 117.33,52.27 C118.85,53.62 120.08,55.3 120.52,57.85 L121.27,66.55 C121.2,68.55 120.27,68.92 118.57,67.79 C116.4,66.1 114.95,63.49 113.95,60.3 L112.43,46.04 L112.43,46.04 Z" id="Path" fill="#FFFFFF"></path>
            <path d="M148.48,84.84 L160.63,90.77 C162.4,91.67 163.59,92.87 162.06,95.49 C159.68,99.5 154.74,99.74 148.48,98.04 C146.96,97.48 146.08,96.42 146.07,94.69 L145.78,86.59 C145.74,84.74 146.72,84.26 148.48,84.84 L148.48,84.84 Z" id="Path" fill="#696969"></path>
            <path d="M127.65,75.37 L139.98,81.17 C141.55,81.78 142.68,82.87 142.84,85.05 L143.17,93.18 C143.17,94.93 142.11,95.12 140.55,94.55 L128.67,88.77 C127.27,87.89 126.19,86.71 126.04,84.61 L125.39,76.97 C125.19,74.99 126.26,74.95 127.65,75.37 L127.65,75.37 Z" id="Path" fill="#696969"></path>
            <path d="M114.31,63.55 C115.28,66.34 116.66,68.85 119.05,70.64 C120.6,71.62 121.89,72.87 122.21,75.16 L122.95,83.04 C123.25,85.45 122.22,84.72 121.27,84.15 C118.55,82.16 116.45,79.53 115.57,75.62 L114.31,63.55 L114.31,63.55 Z" id="Path" fill="#696969"></path>
            <path d="M172.87,50.54 L179.27,43.55 C180.52,41.99 181.21,42.16 181.29,44.2 L180.39,54.53 C179.89,57.09 179.07,58.29 178.23,59.42 L172.27,66.55 C170.14,69.73 169.71,68.57 169.95,65.69 L170.67,55.99 C170.67,54.11 171.5,52.29 172.87,50.54 L172.87,50.54 Z" id="Path" fill="#696969"></path>
            <path d="M185.04,36.2 L191.22,29.37 C192.07,28.39 193.09,27.72 193.09,29.73 L191.69,40.73 C191.49,42.62 190.69,43.98 189.69,45.16 L183.45,52.86 C182.34,54.3 181.72,54.42 181.89,52.48 L182.75,42.51 C182.99,39.85 183.72,37.71 185.04,36.21 L185.04,36.2 Z" id="Path" fill="#696969"></path>
            <path d="M196.98,23.55 C200.85,21.23 201.16,25.15 201.18,29.57 C201,31.23 200.48,32.49 199.68,33.42 L194.88,38.85 C193.28,40.6 193.26,39.35 193.44,37.71 L194.54,28.43 C194.96,26.08 195.74,24.4 196.98,23.55 L196.98,23.55 Z" id="Path" fill="#696969"></path>
            <path d="M188.52,49.17 L183.42,55.4 C181.75,57.47 181.19,58.99 180.73,62.2 L180.03,70.41 C180.03,72.48 180.56,72.34 182,70.98 L186.68,64.88 C188.47,62.55 189.21,61.04 189.65,57.67 L190.5,49.88 C190.55,47.78 190.13,47.58 188.52,49.18 L188.52,49.17 Z" id="Path" fill="#E31E24"></path>
            <path d="M177.76,62.34 L170.96,70.41 C169.56,72.45 169.16,73.75 168.84,76.21 L168.27,85.71 C168.14,88.17 168.58,88.13 169.97,86.41 L175.92,78.48 C177.58,76.46 178.17,75.29 178.32,73.1 L179.17,64.04 C179.47,61.27 179.13,60.98 177.76,62.34 L177.76,62.34 Z" id="Path" fill="#696969"></path>
            <path d="M199,36.71 L194.32,42.38 C193.19,43.88 192.74,44.99 192.2,47.33 L190.93,56.68 C190.69,58.65 190.98,58.85 192.2,57.67 L196.45,52.29 C197.63,50.89 198.11,49.92 198.57,47.76 L200.27,37.28 C200.43,35.68 200.11,35.64 199,36.71 L199,36.71 Z" id="Path" fill="#696969"></path>
            <path d="M190.36,62.77 L189.65,64.32 L197.15,54.27 C197.08,53.5 196.85,53.56 196.16,54.41 L192.2,59.79 C191.73,60.32 191.36,60.89 190.36,62.77 L190.36,62.77 Z" id="Path" fill="#696969"></path>
            <path d="M186.53,67.16 L181.43,73.81 C180.14,75.41 179.53,76.56 178.61,78.91 L187.81,66.73 C187.47,66.41 187.21,66.45 186.53,67.15 L186.53,67.16 Z" id="Path" fill="#696969"></path>
            <path d="M170.53,87.97 C168.69,90.23 168.19,91.1 167.56,93.63 L177.47,80.33 C177.24,79.78 177.03,79.67 176.06,80.89 L170.53,87.97 Z" id="Path" fill="#696969"></path>
            <path d="M23.97,49.02 C23.42,49.04 23,49.5 23,50.05 C23.01,50.6 23.47,51.04 24.03,51.02 L23.97,49.02 L23.97,49.02 Z M45.02,76.06 C45.41,76.45 46.04,76.45 46.43,76.06 L52.81,69.71 C53.2,69.31 53.2,68.68 52.81,68.29 C52.41,67.9 51.78,67.89 51.39,68.29 L45.73,73.94 L40.08,68.27 C39.69,67.88 39.06,67.88 38.67,68.27 C38.27,68.66 38.27,69.29 38.67,69.68 L45.02,76.06 Z M24,50.02 L24.03,51.02 L24.59,51.02 C24.97,51.02 25.5,51.02 26.16,51.05 C27.49,51.09 29.28,51.2 31.2,51.47 C33.12,51.73 35.14,52.15 36.9,52.79 C38.67,53.43 40.08,54.27 40.93,55.32 L42.49,54.07 C41.31,52.61 39.5,51.61 37.58,50.91 C35.64,50.21 33.48,49.76 31.48,49.49 C29.48,49.21 27.6,49.09 26.23,49.05 C25.55,49.02 24.99,49.02 24.6,49.02 L23.99,49.02 L23.98,49.02 L24,50.02 L24,50.02 Z M40.93,55.32 C41.8,56.41 42.52,58.16 43.07,60.29 C43.62,62.4 43.99,64.77 44.24,67.02 C44.48,69.25 44.61,71.34 44.67,72.87 L44.72,74.69 L44.72,75.35 L46.72,75.35 L46.72,75.34 L46.72,75.3 L46.72,75.17 L46.72,74.65 C46.72,74.21 46.7,73.57 46.67,72.79 C46.6,71.23 46.47,69.09 46.23,66.79 C45.97,64.5 45.59,62.02 45.01,59.79 C44.43,57.58 43.63,55.49 42.49,54.07 L40.93,55.32 L40.93,55.32 Z" id="Shape" fill="#FFFFFF"></path>
            <path d="M22.9,86.13 C23.44,86.21 23.95,85.83 24.03,85.28 C24.11,84.74 23.73,84.23 23.18,84.15 L22.89,86.13 L22.9,86.13 Z M8.68,60.27 C8.28,59.89 7.64,59.91 7.26,60.31 L1.07,66.85 C0.69,67.25 0.71,67.88 1.11,68.26 C1.51,68.64 2.15,68.62 2.53,68.22 L8.03,62.42 L13.83,67.92 C14.23,68.3 14.87,68.28 15.25,67.88 C15.63,67.48 15.61,66.84 15.21,66.46 L8.68,60.27 L8.68,60.27 Z M23.03,85.14 L23.17,84.15 L23.15,84.15 L23.09,84.14 L22.83,84.1 L21.88,83.92 C21.07,83.75 19.96,83.5 18.76,83.12 C16.31,82.38 13.69,81.22 12.32,79.62 L10.8,80.93 C12.57,83 15.69,84.28 18.18,85.04 C19.45,85.44 20.63,85.7 21.48,85.88 L22.5,86.07 L22.78,86.12 L22.85,86.12 L22.88,86.13 L23.03,85.14 Z M12.32,79.63 C11.7,78.91 11.12,77.46 10.64,75.48 C10.18,73.56 9.84,71.31 9.59,69.15 C9.34,66.99 9.19,64.95 9.1,63.44 L9.01,61.64 L9,61.14 L9,61.01 L9,60.98 L8,61 L7,61.03 L7,61.21 L7.03,61.71 C7.04,62.16 7.07,62.79 7.12,63.56 C7.21,65.09 7.36,67.17 7.62,69.38 C7.86,71.58 8.22,73.92 8.72,75.96 C9.2,77.94 9.85,79.82 10.81,80.93 L12.33,79.63 L12.32,79.63 Z" id="Shape" fill="#FFFFFF"></path>
        </g>
    </g>
</svg>