<?xml version="1.0" encoding="UTF-8"?>
<svg width="97px" height="100px" viewBox="0 0 97 100" version="1.1" xmlns="http://www.w3.org/2000/svg" xmlns:xlink="http://www.w3.org/1999/xlink">
    <title>penrose_6_1</title>
    <g id="Penrose" stroke="none" stroke-width="1" fill="none" fill-rule="evenodd">
        <g id="penrose_6_1" fill-rule="nonzero">
            <path d="M57.25,1.13 C45.43,-0.73 40.55,-0.33 30.3,2.6 L16.07,9.1 C5.18,14.95 0,26.37 0,39 L9.56,42.98 L11.82,76.58 C11.96,78.71 14.75,84.28 20.06,87.08 L39.19,97.58 C46.89,101.16 54.73,101.03 60.84,95.45 L92.99,54.4 L96.18,31.95 C96.7,19.46 89,8.97 78.1,5.78 L70.53,10.56 L58.57,7.38 L58.57,2.86 C58.6,1.68 58.25,1.36 57.24,1.13 L57.25,1.13 Z" id="Path" fill="#000000"></path>
            <path d="M71.47,26.1 L58.7,22.26 C56.68,21.86 55.63,22.03 53.92,23.06 L46.48,28.24 C44.76,29.7 45.11,30.38 47.68,31.43 L60.17,35.55 C63.37,36.45 64.81,36.2 66.81,34.48 L72.65,29.3 C74.71,27.62 74.23,26.96 71.45,26.12 L71.47,26.1 Z" id="Path" fill="#E31E24"></path>
            <path d="M70.67,12.95 C68.78,12.57 67.82,12.64 66.42,13.62 L59.91,17.87 C58.39,19.03 58.12,19.64 61.11,20.53 L73.46,23.98 C76.26,24.64 77.48,24.37 79.17,22.92 L84.09,18.67 C86.09,17.06 85.58,16.5 82.89,15.87 L70.67,12.95 Z" id="Path" fill="#E31E24"></path>
            <path d="M81.3,7.38 C79.28,6.34 78.22,6.25 76.52,7.38 L72.66,10.03 C70.86,10.97 70.99,11.49 72.66,12.43 L74.79,13.75 L87.54,17.21 C89.09,17.82 89.42,18.56 89.27,20.39 L88.2,32.35 L88.74,34.47 C89.08,36.17 89.46,36.53 90.73,35.14 L94.05,31.82 C95.43,30.36 95.62,29.63 95.65,28.36 C93.77,18.54 92.17,13.27 81.3,7.38 Z" id="Path" fill="#E31E24"></path>
            <path d="M57.65,7.11 L52.87,5.91 C51.27,5.65 50.87,6.58 52.87,7.11 L60.84,9.37 C62.92,10 64.05,10.21 66.02,10.3 L69.21,10.16 L57.65,7.11 L57.65,7.11 Z" id="Path" fill="#E31E24"></path>
            <path d="M60.57,10.83 L51.14,8.43 C48.64,7.96 47.27,7.91 45.04,8.97 L38.79,12.29 C37.09,13.56 37.09,14.22 39.99,15.21 L50.88,18.14 C53.27,18.48 54.53,18.36 56.58,17.21 L62.17,13.49 C63.94,12.17 63.43,11.6 60.57,10.83 Z" id="Path" fill="#E31E24"></path>
            <path d="M48.35,19.33 L36.93,16.14 C34.57,15.48 33.35,15.59 31.35,16.54 L24.18,20.39 C21.34,21.89 21.41,22.61 24.58,23.85 L36.53,27.57 C39.24,28.44 40.66,28.24 43.04,26.77 L49.68,22.39 C51.87,20.91 51.55,20.24 48.35,19.33 Z" id="Path" fill="#E31E24"></path>
            <path d="M28.16,13.49 L19.39,10.69 C16.59,10.16 15.25,10.69 13.15,12.69 C6.12,19.32 4.12,24.22 1.73,33.68 C1.33,36.07 2.23,38.08 4.52,39.12 L13.15,42.58 C15.36,43.58 16.17,43.18 16.74,40.58 L17.94,34.48 L17.54,26.5 C17.35,24.38 17.72,23.23 19.79,22.25 L28.16,17.6 L29.36,16.28 C30.86,14.8 30.63,14.18 28.16,13.48 L28.16,13.49 Z" id="Path" fill="#696969"></path>
            <path d="M41.71,5.91 L33.34,3.8 C31.54,3.28 30.51,3.31 28.56,4.2 L20.99,7.5 C18.9,8.44 18.97,8.87 20.99,9.5 L30.82,12.28 C32.55,12.78 33.62,12.62 35.73,11.48 L42.77,7.9 C44.26,6.98 44.23,6.53 41.71,5.9 L41.71,5.91 Z" id="Path" fill="#E31E24"></path>
            <path d="M35.73,1.4 C33.91,1.86 34.03,2.16 35.73,2.73 L45.03,5.25 C47.03,5.63 48,5.62 49.55,4.85 L54.73,2.19 C56.34,1.39 56.27,1.09 54.2,0.87 C46.55,-0.12 42.52,0.02 35.73,1.4 Z" id="Path" fill="#696969"></path>
            <path d="M56.85,40.45 L44.9,36.33 C42.26,35.57 41.09,35.7 40.91,39.39 L40.91,51.08 C41.27,54.08 42.05,55.35 44.9,56.53 L56.46,61.44 C58.99,62.46 59.9,62.02 60.31,58.78 L60.97,46.7 C61.11,43.3 60.11,42 56.85,40.45 Z" id="Path" fill="#0062AC"></path>
            <path d="M33.87,32.08 L21.25,27.97 C18.93,27.41 18.26,28 18.46,31.02 L18.86,42.18 C19.36,45.47 20.17,46.75 22.98,47.63 L33.88,51.74 C36.76,52.97 37.63,52.44 37.46,48.69 L37.46,37.79 C37.23,34.59 36.49,33.29 33.87,32.09 L33.87,32.08 Z" id="Path" fill="#696969"></path>
            <path d="M56.32,65.03 L44.5,59.7 C41.92,58.8 41.13,59.23 41.18,62.1 L40.78,73.52 C40.84,76.67 41.42,78.12 44.5,79.5 L55.53,84.81 C58.05,86.16 58.93,85.79 59.38,82.81 L60.0400814,70.86 C60.05,67.54 59.14,66.33 56.32,65.02 L56.32,65.03 Z" id="Path" fill="#0062AC"></path>
            <path d="M32.41,54.8 L22.85,50.68 C20.99,49.88 19.29,50.42 19.13,53.34 L19.53,63.17 C20.07,66.18 20.7,67.71 23.65,69.54 L33.08,74.19 C35.95,75.17 36.81,74.5 37.06,71.27 L37.06,61.71 C36.66,57.77 35.6,56.29 32.41,54.8 L32.41,54.8 Z" id="Path" fill="#0062AC"></path>
            <path d="M10.76,43.37 L9.56,42.97 L10.76,59.45 L13.28,62.9 C15.01,64.9 16.48,63.57 16.48,61.18 L16.08,52.14 C15.74,48.87 15.04,47.43 12.88,45.5 L10.76,43.37 L10.76,43.37 Z" id="Path" fill="#0062AC"></path>
            <path d="M55,87.74 L43.7,82.43 C41.44,81.54 40.6,81.73 40.38,84.16 L40.38,93.72 C40.73,96.22 41.41,97.2 43.7,97.97 C50.56,99.53 53.5,98.71 57.12,94.25 C59.16,91.17 58.65,89.75 55,87.75 L55,87.74 Z" id="Path" fill="#0062AC"></path>
            <path d="M32.94,76.72 L22.72,71.4 C21.12,70.6 19.7,70.47 19.66,73.4 L19.93,81.77 C20.11,84.6 20.8,85.76 23.11,87.07 L33.74,92.79 C36.19,94.12 37.02,93.98 36.8,90.93 L36.53,82.16 C36.55,79.25 35.76,78.06 32.94,76.72 L32.94,76.72 Z" id="Path" fill="#0062AC"></path>
            <path d="M13.15,66.36 C11.96,65.05 11.35,63.66 10.76,61.57 L11.96,77.12 L13.16,79.91 L14.88,82.3 C16.08,84.29 17.53,83.76 17.53,81.23 L17.13,73 C16.83,69.8 15.98,68.7 13.15,66.36 L13.15,66.36 Z" id="Path" fill="#0062AC"></path>
            <path d="M75.45,33.94 L69.35,39.26 C67.42,40.94 66.87,42.49 66.55,46.03 L65.9,57.6 C65.62,61.48 66.16,61.86 68.29,59.46 L74.53,53.21 C76.04,51.49 76.43,50.11 76.66,47.24 L77.46,35.28 C77.51,32.86 77.14,32.43 75.46,33.95 L75.45,33.94 Z" id="Path" fill="#FFFFFF"></path>
            <path d="M87.28,22.65 L81.43,27.7 C80.05,29.2 79.51,30.41 79.17,33.54 L78.24,44.44 C78.04,47.28 78.31,47.95 80.24,45.9 L85.54,40.45 C86.99,38.88 87.37,37.61 87.67,35.01 L88.74,23.58 C88.87,21.98 88.44,21.53 87.28,22.65 L87.28,22.65 Z" id="Path" fill="#696969"></path>
            <path d="M73.73,56.8 L67.62,63.3 C65.87,65.5 65.39,67 65.22,70.08 L64.56,81.63 C64.39,84.81 65.01,84.63 66.69,82.69 L72.13,76.19 C73.98,73.8 74.5,72.37 74.66,69.68 L75.59,57.85 C75.88,54.99 75.29,55.18 73.73,56.79 L73.73,56.8 Z" id="Path" fill="#FFFFFF"></path>
            <path d="M84.62,44.57 L80.1,49.35 C78.36,51.27 77.58,53.6 77.18,56.26 L76.52,66.76 C76.36,69.31 77.18,69.54 78.77,67.82 L83.02,62.77 C84.65,60.66 85.26,59.15 85.82,55.99 L86.62,45.63 C86.55,43.35 86.17,42.95 84.62,44.57 L84.62,44.57 Z" id="Path" fill="#FFFFFF"></path>
            <path d="M94.18,35.27 L90.06,39.52 C88.82,40.87 88.33,41.86 88.07,44.3 L86.74,55.6 C86.6,57.95 86.95,58.17 88.34,56.66 L91.79,52.54 C92.97,51.31 93.37,50.34 93.79,48.29 L95.38,35.94 C95.46,34.54 95.32,34.14 94.18,35.27 L94.18,35.27 Z" id="Path" fill="#FFFFFF"></path>
            <path d="M66.42,85.75 C64.13,88.71 63.15,90.67 61.5,94.25 L73.33,79.25 L73.33,78.7 C73.28,77.87 73.03,77.92 72.13,78.97 L66.42,85.74 L66.42,85.75 Z" id="Path" fill="#FFFFFF"></path>
            <path d="M78.64,70.47 C76.39,73.22 75.67,74.89 74.52,77.91 L84.1,65.7 L84.1,65.04 C83.88,64.38 83.59,64.46 82.77,65.44 L78.65,70.48 L78.64,70.47 Z" id="Path" fill="#FFFFFF"></path>
            <path d="M87.94,59.18 C86.44,61.03 85.98,62.08 85.42,63.96 L92.46,54.8 L92.46,54.4 C92.46,53.68 92.29,53.7 91.53,54.8 L87.93,59.18 L87.94,59.18 Z" id="Path" fill="#FFFFFF"></path>
            <path d="M44.24,1.03 L37.2,0.29 C36.67,0.16 36.13,0.5 36,1.03 C35.87,1.57 36.2,2.11 36.73,2.23 L41.42,2.4 L17.54,16.9 L19.32,12.7 C19.45,12.17 19.12,11.63 18.58,11.5 C18.05,11.37 17.5,11.7 17.38,12.23 L15.03,18.76 C14.9,19.3 15.23,19.84 15.76,19.97 L22.5,21 C23.04,21.13 23.58,20.8 23.7,20.27 C23.84,19.73 23.51,19.19 22.97,19.06 L18.58,18.6 L42.46,4.1 L40.68,8.81 C40.55,9.35 40.88,9.89 41.42,10.02 C41.95,10.15 42.49,9.82 42.62,9.29 L44.97,2.24 C45.1,1.7 44.77,1.16 44.24,1.03 L44.24,1.03 Z" id="Path" fill="#FFFFFF"></path>
        </g>
    </g>
</svg>