<?xml version="1.0" encoding="UTF-8"?>
<svg width="100px" height="100px" viewBox="0 0 100 100" version="1.1" xmlns="http://www.w3.org/2000/svg" xmlns:xlink="http://www.w3.org/1999/xlink">
    <title>penrose_8_1</title>
    <g id="Penrose" stroke="none" stroke-width="1" fill="none" fill-rule="evenodd">
        <g id="penrose_8_1" fill-rule="nonzero">
            <polygon id="Path" fill="#000000" points="0 0 100 0 100 100 0 100"></polygon>
            <polygon id="Path" fill="#FFED00" points="64 64 86 64 86 86 64 86"></polygon>
            <polygon id="Path" fill="#FFED00" points="39 64 61 64 61 86 39 86"></polygon>
            <polygon id="Path" fill="#FFED00" points="14 64 36 64 36 86 14 86"></polygon>
            <polygon id="Path" fill="#FFED00" points="64 39 86 39 86 61 64 61"></polygon>
            <polygon id="Path" fill="#FFED00" points="39 39 61 39 61 61 39 61"></polygon>
            <polygon id="Path" fill="#FFED00" points="14 39 36 39 36 61 14 61"></polygon>
            <polygon id="Path" fill="#FFED00" points="64 14 86 14 86 36 64 36"></polygon>
            <polygon id="Path" fill="#FFED00" points="39 14 61 14 61 36 39 36"></polygon>
            <polygon id="Path" fill="#FFED00" points="14 14 36 14 36 36 14 36"></polygon>
            <polygon id="Path" fill="#EF7F1A" points="64 91 86 91 86 95 64 95"></polygon>
            <polygon id="Path" fill="#EF7F1A" points="39 91 61 91 61 95 39 95"></polygon>
            <polygon id="Path" fill="#EF7F1A" points="14 91 36 91 36 95 14 95"></polygon>
            <polygon id="Path" fill="#0062AC" points="95 64 95 86 91 86 91 64"></polygon>
            <polygon id="Path" fill="#E31E24" points="95 39 95 61 91 61 91 39"></polygon>
            <polygon id="Path" fill="#0062AC" points="95 14 95 36 91 36 91 14"></polygon>
            <polygon id="Path" fill="#009846" points="9 64 9 86 5 86 5 64"></polygon>
            <polygon id="Path" fill="#0062AC" points="9 39 9 61 5 61 5 39"></polygon>
            <polygon id="Path" fill="#009846" points="9 14 9 36 5 36 5 14"></polygon>
            <polygon id="Path" fill="#E31E24" points="64 5 86 5 86 9 64 9"></polygon>
            <polygon id="Path" fill="#009846" points="39 5 61 5 61 9 39 9"></polygon>
            <polygon id="Path" fill="#E31E24" points="14 5 36 5 36 9 14 9"></polygon>
            <path d="M69.34,44.93 L75.71,51.29 C76.1,51.69 76.1,52.32 75.71,52.71 L69.34,59.07 C68.95,59.47 68.32,59.47 67.93,59.07 C67.53,58.68 67.53,58.05 67.93,57.66 L72.59,53 L25,53 L25,51 L72.59,51 L67.93,46.34 C67.53,45.95 67.53,45.32 67.93,44.93 C68.32,44.53 68.95,44.53 69.34,44.93 L69.34,44.93 Z" id="Path" fill="#E31E24"></path>
            <path d="M49,32 L49,23 C49,22.45 49.45,22 50,22 L59,22 C59.55,22 60,22.45 60,23 C60,23.55 59.55,24 59,24 L52.41,24 L77.71,49.3 L76.29,50.7 L51,25.42 L51,32 C51,32.55 50.55,33 50,33 C49.45,33 49,32.55 49,32 Z" id="Path" fill="#0062AC"></path>
            <path d="M23.03,50.5 C22.48,50.52 22.02,50.08 22,49.53 L21.74,40.53 C21.72,39.98 22.16,39.52 22.71,39.5 C23.26,39.49 23.72,39.92 23.74,40.47 L23.93,47.06 L47.27,22.3 L48.73,23.68 L25.38,48.42 L31.97,48.22 C32.52,48.22 32.98,48.65 33,49.2 C33.01,49.75 32.58,50.21 32.03,50.23 L23.03,50.49 L23.03,50.5 Z" id="Path" fill="#E31E24"></path>
        </g>
    </g>
</svg>