<?xml version="1.0" encoding="UTF-8"?>
<svg width="100px" height="100px" viewBox="0 0 100 100" version="1.1" xmlns="http://www.w3.org/2000/svg" xmlns:xlink="http://www.w3.org/1999/xlink">
    <title>penrose_8_2</title>
    <g id="Penrose" stroke="none" stroke-width="1" fill="none" fill-rule="evenodd">
        <g id="penrose_8_2" fill-rule="nonzero">
            <polygon id="Path" fill="#000000" points="0 0 100 0 100 100 0 100"></polygon>
            <polygon id="Path" fill="#FFED00" points="64 64 86 64 86 86 64 86"></polygon>
            <polygon id="Path" fill="#FFED00" points="39 64 61 64 61 86 39 86"></polygon>
            <polygon id="Path" fill="#FFED00" points="14 64 36 64 36 86 14 86"></polygon>
            <polygon id="Path" fill="#FFED00" points="64 39 86 39 86 61 64 61"></polygon>
            <polygon id="Path" fill="#FFED00" points="39 39 61 39 61 61 39 61"></polygon>
            <polygon id="Path" fill="#FFED00" points="14 39 36 39 36 61 14 61"></polygon>
            <polygon id="Path" fill="#FFED00" points="64 14 86 14 86 36 64 36"></polygon>
            <polygon id="Path" fill="#FFED00" points="39 14 61 14 61 36 39 36"></polygon>
            <polygon id="Path" fill="#FFED00" points="14 14 36 14 36 36 14 36"></polygon>
            <polygon id="Path" fill="#EF7F1A" points="64 91 86 91 86 95 64 95"></polygon>
            <polygon id="Path" fill="#EF7F1A" points="39 91 61 91 61 95 39 95"></polygon>
            <polygon id="Path" fill="#EF7F1A" points="14 91 36 91 36 95 14 95"></polygon>
            <polygon id="Path" fill="#0062AC" points="95 64 95 86 91 86 91 64"></polygon>
            <polygon id="Path" fill="#E31E24" points="95 39 95 61 91 61 91 39"></polygon>
            <polygon id="Path" fill="#0062AC" points="95 14 95 36 91 36 91 14"></polygon>
            <polygon id="Path" fill="#009846" points="9 64 9 86 5 86 5 64"></polygon>
            <polygon id="Path" fill="#0062AC" points="9 39 9 61 5 61 5 39"></polygon>
            <polygon id="Path" fill="#009846" points="9 14 9 36 5 36 5 14"></polygon>
            <polygon id="Path" fill="#E31E24" points="64 5 86 5 86 9 64 9"></polygon>
            <polygon id="Path" fill="#009846" points="39 5 61 5 61 9 39 9"></polygon>
            <polygon id="Path" fill="#E31E24" points="14 5 36 5 36 9 14 9"></polygon>
            <path d="M31.66,59.07 L25.29,52.71 C24.9,52.31 24.9,51.68 25.29,51.29 L31.66,44.93 C32.05,44.53 32.68,44.53 33.07,44.93 C33.47,45.32 33.47,45.95 33.07,46.34 L28.41,51 L76,51 L76,53 L28.41,53 L33.07,57.66 C33.47,58.05 33.47,58.68 33.07,59.07 C32.68,59.47 32.05,59.47 31.66,59.07 L31.66,59.07 Z" id="Path" fill="#E31E24"></path>
            <path d="M77.3,40.3 L77.3,49.3 C77.3,49.85 76.85,50.3 76.3,50.3 L67.3,50.3 C66.74,50.3 66.3,49.85 66.3,49.3 C66.3,48.74 66.74,48.3 67.3,48.3 L73.88,48.3 L48.58,23 L50,21.59 L75.3,46.88 L75.3,40.29 C75.3,39.74 75.74,39.29 76.3,39.29 C76.85,39.29 77.3,39.74 77.3,40.29 L77.3,40.3 Z" id="Path" fill="#E31E24"></path>
            <path d="M49.02,23.96 C49.58,23.96 50.02,24.41 50.02,24.96 L49.93,33.96 C49.93,34.52 49.47,34.96 48.93,34.96 C48.37,34.95 47.93,34.5 47.93,33.95 L48,27.36 L23.72,51.2 L22.32,49.77 L46.59,25.94 L40.01,25.88 C39.45,25.88 39.01,25.42 39.01,24.88 C39.02,24.32 39.47,23.88 40.03,23.88 L49.03,23.97 L49.02,23.96 Z" id="Path" fill="#0062AC"></path>
        </g>
    </g>
</svg>