<?xml version="1.0" encoding="UTF-8"?>
<svg width="100px" height="100px" viewBox="0 0 100 100" version="1.1" xmlns="http://www.w3.org/2000/svg" xmlns:xlink="http://www.w3.org/1999/xlink">
    <title>pyramorphix_1_7</title>
    <g id="Pyramorphix" stroke="none" stroke-width="1" fill="none" fill-rule="evenodd">
        <g id="pyramorphix_1_7" fill-rule="nonzero">
            <path d="M89.6,8.94 C104.37,41.02 101.56,67.42 89.6,90.87 C60.8,103.33 34.13,102.37 9.13,90.87 C-2.37,64.02 -3.21,36.74 9.13,8.94 C34.53,-2.51 61.35,-2.61 89.61,8.94" id="Path" fill="#000000"></path>
            <path d="M64.72,3.4 L64.72,33.34 L87.64,10.01 C79.89,6.91 72.24,4.71 64.72,3.41 L64.72,3.4 Z" id="Path" fill="#696969"></path>
            <path d="M65.64,34.3 L96.3,34.3 C94.81,26.85 92.3,19.07 88.62,10.92 L65.64,34.3 Z" id="Path" fill="#696969"></path>
            <path d="M84.84,63 C89.67,55.15 93.48,46.04 96.24,35.63 L64.72,35.63 L64.72,63 L84.84,63 Z" id="Path" fill="#696969"></path>
            <path d="M96.96,38 C94.5675178,46.7690824 91.0090957,55.1774524 86.38,63 L97.08,63 C98.3335285,54.7106367 98.2930468,46.2769478 96.96,38 L96.96,38 Z" id="Path" fill="#696969"></path>
            <path d="M64.72,84.63 C68.1939009,82.1723606 71.440253,79.4079412 74.42,76.37 C77.95,72.77 81.14,68.76 84,64.33 L64.72,64.33 L64.72,84.63 L64.72,84.63 Z" id="Path" fill="#696969"></path>
            <path d="M64.72,96.7 C81.56,92.11 91.94,81.07 96.67,64.33 L85.57,64.33 C80.1916383,72.9824639 73.095346,80.439527 64.72,86.24 L64.72,96.7 Z" id="Path" fill="#696969"></path>
            <path d="M94.8,73.28 C92.6429595,78.0641404 89.6646249,82.4334926 86,86.19 C82.601117,89.6159565 78.6448103,92.4394745 74.3,94.54 C78.92,93.24 83.6,91.57 88.33,89.53 C90.9903758,84.3277108 93.1565441,78.8871797 94.8,73.28 L94.8,73.28 Z" id="Path" fill="#000000"></path>
            <path d="M36.53,13.92 C43.9598203,8.92815576 52.1492226,5.17285044 60.78,2.8 C52.7337614,1.71789816 44.5797647,1.70444827 36.53,2.76 L36.53,13.92 L36.53,13.92 Z" id="Path" fill="#696969"></path>
            <path d="M63.4,3.47 C53.7897436,5.83787256 44.686702,9.92356971 36.53,15.53 L36.53,34.3 L63.4,34.3 L63.4,3.47 Z" id="Path" fill="#696969"></path>
            <polygon id="Path" fill="#E31E24" points="62.48 35.63 36.53 35.63 36.53 62.04 62.48 35.63"></polygon>
            <polygon id="Path" fill="#009846" points="37.45 63 63.4 63 63.4 36.58"></polygon>
            <path d="M36.53,97.08 C46.63,94.64 55.6,90.81 63.4,85.54 L63.4,64.33 L36.53,64.33 L36.53,97.08 Z" id="Path" fill="#009846"></path>
            <path d="M63.4,87.14 C56.0451161,91.9076933 47.977212,95.4724242 39.5,97.7 C47.4626529,98.5396852 55.502333,98.2974856 63.4,96.98 L63.4,87.14 L63.4,87.14 Z" id="Path" fill="#696969"></path>
            <path d="M4.66,27.04 C9.37652371,16.8694915 17.6699328,8.78964664 27.96,4.34 C21.9499586,5.75075614 16.089617,7.73657475 10.46,10.27 C7.98,15.88 6.06,21.47 4.66,27.04 L4.66,27.04 Z" id="Path" fill="#000000"></path>
            <path d="M35.21,3.06 C19.14,7.92 8.44,18.26 3.19,34.3 L15.96,34.3 C21.2232334,26.7657478 27.7332951,20.1846671 35.21,14.84 L35.21,3.06 L35.21,3.06 Z" id="Path" fill="#696969"></path>
            <path d="M35.21,16.47 C28.4299474,21.4432421 22.4825681,27.4615039 17.59,34.3 L35.2,34.3 L35.2,16.47 L35.21,16.47 Z" id="Path" fill="#696969"></path>
            <path d="M2.54,60.8 C5.88,51.4 10.04,42.99 15.04,35.63 L2.92,35.63 C1.63560296,43.962532 1.5077291,52.4324925 2.54,60.8 L2.54,60.8 Z" id="Path" fill="#696969"></path>
            <path d="M16.65,35.63 C11.16,43.5 6.69,52.66 3.18,63 L35.2,63 L35.2,35.63 L16.65,35.63 Z" id="Path" fill="#696969"></path>
            <path d="M34.3,64.33 L3.03,64.33 C4.35,72.55 6.75,80.73 10.17,88.88 L34.28,64.33 L34.3,64.33 Z" id="Path" fill="#696969"></path>
            <path d="M35.21,97.13 L35.21,65.28 L11.09,89.84 C18.96,93.37 26.99,95.84 35.21,97.13 L35.21,97.13 Z" id="Path" fill="#696969"></path>
        </g>
    </g>
</svg>