<?xml version="1.0" encoding="UTF-8"?>
<svg width="100px" height="100px" viewBox="0 0 100 100" version="1.1" xmlns="http://www.w3.org/2000/svg" xmlns:xlink="http://www.w3.org/1999/xlink">
    <title>pyramorphix_5_2</title>
    <g id="Pyramorphix" stroke="none" stroke-width="1" fill="none" fill-rule="evenodd">
        <g id="pyramorphix_5_2" fill-rule="nonzero">
            <path d="M8.81,10.34 C40.74,-4.42 67.02,-1.61 90.36,10.34 C102.76,39.14 101.81,65.82 90.36,90.81 C63.64,102.31 36.49,103.15 8.81,90.81 C-2.58,65.41 -2.69,38.6 8.81,10.34" id="Path" fill="#1A1919"></path>
            <path d="M3.31,35.22 L33.11,35.22 L9.88,12.3 C6.89964611,19.6909915 4.69775061,27.37249 3.31,35.22 L3.31,35.22 Z" id="Path" fill="#696969"></path>
            <path d="M34.05,34.3 L34.05,3.65 C26.65,5.15 18.9,7.65 10.79,11.34 L34.05,34.3 Z" id="Path" fill="#696969"></path>
            <path d="M62.62,15.11 C54.82,10.27 45.75,6.46 35.38,3.71 L35.38,35.22 L62.62,35.22 L62.62,15.11 L62.62,15.11 Z" id="Path" fill="#FFED00"></path>
            <path d="M37.62,2.77 C46.98,5.43 55.39,9.17 62.62,13.57 L62.49,3.37 C54.21,2.09 45.89,1.47 37.62,2.77 L37.62,2.77 Z" id="Path" fill="#FFED00"></path>
            <path d="M84.15,35.22 C81.705605,31.7473436 78.9545772,28.5009969 75.93,25.52 C72.2703891,21.929191 68.2527777,18.7224736 63.94,15.95 L63.94,35.22 L84.15,35.22 L84.15,35.22 Z" id="Path" fill="#696969"></path>
            <path d="M96.17,35.22 C91.6,18.38 80.6,8.01 63.94,3.28 L63.94,14.38 C72.562666,19.7604844 79.9892348,26.8535043 85.76,35.22 L96.16,35.22 L96.17,35.22 Z" id="Path" fill="#696969"></path>
            <path d="M72.86,5.14 C77.6258329,7.30215807 81.9751584,10.2840692 85.71,13.95 C89.1179879,17.3529171 91.9244164,21.3089669 94.01,25.65 C92.71,21.02 91.06,16.35 89.03,11.61 C83.8550626,8.95049508 78.4411593,6.7842641 72.86,5.14 L72.86,5.14 Z" id="Path" fill="#696969"></path>
            <path d="M13.78,63.41 C8.8060923,55.9790126 5.0646139,47.7936844 2.7,39.17 C1.62798901,47.2104376 1.61790255,55.3569325 2.67,63.4 L13.77,63.4 L13.78,63.41 Z" id="Path" fill="#0062AC"></path>
            <path d="M3.37,36.55 C5.72474743,46.1512409 9.7896443,55.249835 15.37,63.41 L34.05,63.41 L34.05,36.55 L3.37,36.55 Z" id="Path" fill="#0062AC"></path>
            <polygon id="Path" fill="#0062AC" points="35.38 37.46 35.38 63.41 61.67 63.41 35.37 37.46"></polygon>
            <polygon id="Path" fill="#FFED00" points="62.62 62.5 62.62 36.54 36.32 36.54 62.62 62.48"></polygon>
            <path d="M96.55,36.55 C94.12,46.65 90.3,55.6 85.06,63.4 L63.94,63.4 L63.94,36.55 L96.55,36.55 Z" id="Path" fill="#FFED00"></path>
            <path d="M26.83,95.29 C16.6915752,90.5613674 8.64727248,82.2679048 4.23,71.99 C5.63590655,77.9988863 7.61497011,83.8590576 10.14,89.49 C15.5280157,91.8950871 21.1116509,93.8354756 26.83,95.29 Z" id="Path" fill="#696969"></path>
            <path d="M2.97,64.73 C7.8,80.81 18.1,91.5 34.05,96.75 L34.05,83.98 C26.5529099,78.7096015 20.0091725,72.1996819 14.7,64.73 L2.97,64.73 Z" id="Path" fill="#696969"></path>
            <path d="M16.31,64.73 C21.2526477,71.5088195 27.2405689,77.4596115 34.05,82.36 L34.05,64.73 L16.31,64.73 Z" id="Path" fill="#696969"></path>
            <path d="M62.62,83.3 C54.77,88.78 45.67,93.26 35.38,96.77 L35.38,64.74 L62.62,64.74 L62.62,83.3 L62.62,83.3 Z" id="Path" fill="#0062AC"></path>
            <path d="M63.94,65.65 L63.94,96.91 C72.3423644,95.5136519 80.5473907,93.1166025 88.38,89.77 L63.94,65.65 Z" id="Path" fill="#696969"></path>
            <path d="M96.6,64.73 L64.9,64.73 L89.34,88.86 C92.8172934,81.1742336 95.2553976,73.0595504 96.59,64.73 L96.6,64.73 Z" id="Path" fill="#696969"></path>
        </g>
    </g>
</svg>