<?xml version="1.0" encoding="UTF-8"?>
<svg width="97px" height="100px" viewBox="0 0 97 100" version="1.1" xmlns="http://www.w3.org/2000/svg" xmlns:xlink="http://www.w3.org/1999/xlink">
    <title>pyramorphix</title>
    <g id="Pyramorphix" stroke="none" stroke-width="1" fill="none" fill-rule="evenodd">
        <g id="pyramorphix" fill-rule="nonzero">
            <path d="M29.1961102,1.1636953 C59.0551053,16.4700162 77.8589951,34.7909238 94.9011345,62.0940032 C97.5883306,66.4003241 96.8946515,69.2706645 92.9400324,71.9675851 C65.0048622,91.0048622 41.3225284,98.7455429 7.39546191,99.8849271 C3.1815235,100.025932 0.598055105,96.376013 0.380875203,92.1312804 C-1.26904376,59.732577 1.93192869,33.6385737 20.1264182,3.47974068 C22.4359806,-0.350081037 25.2593193,-0.854132901 29.1961102,1.1636953 Z" id="Path" fill="#000000"></path>
            <path d="M75.2690438,59.2333874 C69.834684,47.4878444 60.4230146,36.4748784 47.649919,32.6823339 L63.1004862,54.8330632 L75.2690438,59.2333874 L75.2690438,59.2333874 Z" id="Path" fill="#009846"></path>
            <path d="M55.2593193,23.3549433 C54.560778,22.8995138 53.8330632,22.4197731 53.0842788,21.9254457 C46.821718,17.7957861 39.0372771,12.6612642 33.4878444,12.3792545 L46.1815235,30.5786062 C47.4959481,28.5964344 48.9578606,26.9286872 50.5802269,25.6709887 C52.0178282,24.554295 53.5753647,23.7617504 55.2593193,23.3549433 L55.2593193,23.3549433 Z" id="Path" fill="#009846"></path>
            <path d="M76.5397083,59.0534846 C80.1491086,53.5559157 78.89141,49.3095624 76.6531605,43.6466775 C71.363047,37.089141 63.8411669,28.9967585 56.7795786,24.3387358 C52.5510535,24.8136143 49.439222,27.8816856 47.1944895,31.2755267 C60.8119935,34.9222042 70.8719611,46.6353323 76.5397083,59.0534846 Z" id="Path" fill="#009846"></path>
            <path d="M79.0534846,46.719611 C80.643436,51.8525122 80.528363,55.350081 77.3889789,59.9983793 L89.5364668,64.3905997 C87.267423,58.6985413 83.4505673,52.5364668 79.0534846,46.719611 L79.0534846,46.719611 Z" id="Path" fill="#009846"></path>
            <path d="M32.3517018,10.7520259 C33.9756888,8.90599676 35.89141,7.73257699 38.2544571,7.4197731 C35.6661264,5.91734198 28.6288493,1.59643436 25.8508914,1.43111831 L32.3517018,10.7520259 Z" id="Path" fill="#009846"></path>
            <path d="M33.7001621,11.1588331 C40.8395462,11.636953 50.7617504,19.0307942 57.0486224,23.0486224 C57.10859,23.0858995 60.5267423,23.3079417 61.1102107,23.4554295 C54.8136143,18.0940032 47.9319287,13.1880065 40.2431118,8.59157212 C37.5867099,8.41491086 35.4700162,9.35656402 33.7001621,11.1588331 Z" id="Path" fill="#009846"></path>
            <path d="M75.0032415,39.73906 C74.280389,38.1069692 73.4538088,36.3160454 72.5218801,34.3322528 C69.6969206,31.3225284 66.7423015,28.4359806 63.6645057,25.6855754 C62.1636953,24.9837925 60.5623987,24.4700162 58.9076175,24.3192869 C63.5445705,27.6823339 69.4359806,33.2641815 75.0032415,39.73906 Z" id="Path" fill="#009846"></path>
            <path d="M90.5769854,63.6839546 C91.3273906,62.082658 91.5186386,60.3063209 91.0632091,58.2090762 C86.0680713,50.5591572 80.8816856,43.6515397 75.2706645,37.3387358 C76.2333874,39.452188 77.0486224,41.3225284 77.719611,43.0032415 C83.0632091,49.6466775 87.8508914,56.9611021 90.5769854,63.6839546 L90.5769854,63.6839546 Z" id="Path" fill="#009846"></path>
            <path d="M92.5559157,60.5267423 C92.5510535,62.2058347 92.1231767,63.6807131 91.3209076,65.0356564 L95.1166937,66.4084279 C95.1264182,64.3160454 93.6547812,62.2528363 92.5559157,60.5267423 Z" id="Path" fill="#009846"></path>
            <path d="M46.2447326,32.815235 C40.8833063,42.1004862 36.7163695,62.3711507 37.9448947,73.0145867 L61.8638574,55.2074554 L46.2447326,32.815235 Z" id="Path" fill="#E31E24"></path>
            <path d="M32.3128039,12.8411669 C29.2317666,17.2090762 27.2463533,24.534846 24.9627229,32.9692058 C24.8249595,33.4764992 24.6904376,33.9773096 24.3079417,35.3743922 C32.0226904,31.4554295 39.4132901,30.0162075 44.8233387,30.7763371 L32.3128039,12.8411669 Z" id="Path" fill="#E31E24"></path>
            <path d="M18.8525122,61.821718 C23.7277147,67.6094003 29.267423,71.6790924 36.7601297,73.458671 C35.3889789,62.5008104 39.6758509,41.6401945 45.2431118,32.089141 C39.8119935,31.1183144 32.0145867,32.6385737 23.8735818,36.9886548 C21.8038898,44.8508914 19.6985413,53.7455429 18.8525122,61.821718 Z" id="Path" fill="#E31E24"></path>
            <path d="M16.9351702,88.4959481 C16.9918963,88.5072934 17.0470016,88.5202593 17.102107,88.5316045 L35.9222042,74.5202593 C28.8476499,72.7212318 23.445705,68.910859 18.6742301,63.4991896 C17.8930308,70.7714749 15.8395462,81.8476499 16.9351702,88.4959481 Z" id="Path" fill="#E31E24"></path>
            <path d="M12.458671,21.0518639 C18.636953,14.5089141 22.2074554,12.0097245 31.2025932,11.2512156 L24.4489465,1.56726094 C20.6110211,2.62560778 14.1474878,17.2447326 12.458671,21.0518639 Z" id="Path" fill="#E31E24"></path>
            <path d="M5.78606159,40.0405186 C6.86547812,42.3517018 7.93192869,44.5121556 8.98703404,46.5316045 C13.4473258,42.1345219 18.1799028,38.6969206 22.8233387,36.1572123 C24.7601297,28.8995138 27.0745543,18.4748784 31.0243112,12.5024311 C21.1961102,13.3533225 17.445705,17.1734198 10.9886548,24.4991896 C8.85251216,29.713128 7.13938412,34.8735818 5.78606159,40.0405186 Z" id="Path" fill="#E31E24"></path>
            <path d="M9.58833063,47.6693679 C12.3581848,52.8492707 15.0615883,57.0664506 17.7666126,60.4894652 C18.6936791,52.9967585 20.5121556,45.1264182 22.3905997,37.8103728 C18.0794165,40.286872 13.713128,43.5575365 9.58833063,47.6693679 Z" id="Path" fill="#E31E24"></path>
            <path d="M8.07617504,47.4473258 C7.16207455,45.7098865 6.23987034,43.8687196 5.3095624,41.9189627 C4.88330632,43.6547812 4.49756888,45.3922204 4.14910859,47.1345219 C3.75040519,49.1296596 3.40032415,51.1312804 3.09562399,53.1426256 C4.69854133,51.0972447 6.36466775,49.2009724 8.07617504,47.4473258 Z" id="Path" fill="#E31E24"></path>
            <path d="M1.42625608,74.0145867 C4.98379254,80.7957861 7.53808752,86.0194489 15.5899514,88.1766613 C14.6904376,80.9529984 16.7617504,69.9481361 17.5753647,62.2090762 C14.6223663,58.6353323 11.6871961,54.165316 8.68395462,48.5883306 C6.62236629,50.7244733 4.62884927,53.0745543 2.74068071,55.6466775 C1.94489465,61.6418152 1.53808752,67.732577 1.42625608,74.0145867 L1.42625608,74.0145867 Z" id="Path" fill="#E31E24"></path>
            <path d="M15.73906,89.5461912 C7.57698541,87.5818476 4.50567261,82.5332253 1.39708266,76.6158833 C1.37115073,81.4197731 1.5089141,86.3403566 1.76661264,91.4197731 C1.88654781,93.7649919 2.83468395,96.3111831 4.88492707,97.6272285 L15.73906,89.5461912 Z" id="Path" fill="#E31E24"></path>
            <path d="M38.9432739,73.8038898 C48.719611,74.445705 69.0405186,68.4781199 75.4294976,60.5980551 L62.8103728,56.0356564 L38.9432739,73.8038898 Z" id="Path" fill="#FFED00"></path>
            <path d="M18.7763371,88.8168558 C24.4181524,89.6110211 32.2398703,89.1345219 43.4927066,86.8525122 C39.8557536,83.8200972 37.8946515,79.8103728 37.0340357,75.2252836 L18.7763371,88.8168558 Z" id="Path" fill="#FFED00"></path>
            <path d="M45.0875203,86.5235008 C52.9773096,84.8654781 61.6693679,82.6353323 68.6920583,78.6320908 C72.528363,74.4683955 77.8703404,67.4230146 76.2252836,61.5656402 C69.4538088,69.63047 48.3257699,76.0113452 38.2382496,74.9756888 C39.1134522,79.6677472 41.1928687,83.63047 45.0875203,86.5235008 Z" id="Path" fill="#FFED00"></path>
            <path d="M71.8508914,76.8541329 C77.0340357,73.9837925 85.8768233,69.8703404 89.3371151,65.6272285 L77.4343598,61.3241491 C78.897893,66.7341977 75.1572123,72.7633712 71.8508914,76.8541329 L71.8508914,76.8541329 Z" id="Path" fill="#FFED00"></path>
            <path d="M22.2155592,97.5267423 C18.8881686,95.8881686 17.0340357,93.7714749 16.1280389,90.7893031 L6.14910859,98.2188006 C8.60615883,98.9902755 19.1750405,97.8379254 22.2155592,97.5267423 Z" id="Path" fill="#FFED00"></path>
            <path d="M44.7909238,87.8427877 C36.528363,89.5640194 25.7633712,91.376013 17.3468395,89.8816856 L17.2495948,89.9546191 C18.197731,93.4100486 20.4019449,95.6337115 24.6985413,97.2544571 C34.4846029,96.10859 43.4764992,94.197731 52.1572123,91.3646677 L52.3598055,91.2982172 C49.3306321,90.4376013 46.834684,89.2690438 44.7909238,87.8427877 Z" id="Path" fill="#FFED00"></path>
            <path d="M65.9497569,81.4246353 C59.8379254,84.2658023 53.0794165,86.0632091 46.5056726,87.4797407 C48.643436,88.7893031 51.2544571,89.8314425 54.4197731,90.5559157 C58.0923825,88.1831442 62.2414911,84.9837925 65.9497569,81.4246353 Z" id="Path" fill="#FFED00"></path>
            <path d="M90.0923825,66.7115073 C85.987034,71.3905997 75.4294976,76.1944895 69.452188,79.6175041 C66.2512156,83.0648298 62.4959481,86.2982172 58.89141,88.9562399 C67.3468395,85.6677472 75.6256078,81.4359806 84.197731,76.1069692 C85.8897893,73.904376 89.7439222,69.2787682 90.0923825,66.7115073 Z" id="Path" fill="#FFED00"></path>
            <path d="M91.3387358,66.350081 C91.2852512,68.4894652 89.4197731,71.2722853 87.2123177,74.197731 C89.4846029,72.7293355 94.0875203,70.1928687 94.9205835,67.6450567 L91.3387358,66.350081 L91.3387358,66.350081 Z" id="Path" fill="#FFED00"></path>
        </g>
    </g>
</svg>