<?xml version="1.0" encoding="UTF-8"?>
<svg width="100px" height="100px" viewBox="0 0 100 100" version="1.1" xmlns="http://www.w3.org/2000/svg" xmlns:xlink="http://www.w3.org/1999/xlink">
    <title>pyramorphix_1_6</title>
    <g id="Pyramorphix" stroke="none" stroke-width="1" fill="none" fill-rule="evenodd">
        <g id="pyramorphix_1_6" fill-rule="nonzero">
            <path d="M90.87,10.3 C103.33,39.1 102.37,65.78 90.87,90.77 C64.02,102.27 36.74,103.11 8.94,90.77 C-2.51,65.37 -2.61,38.57 8.94,10.3 C41.02,-4.46 67.42,-1.65 90.87,10.3 Z" id="Path" fill="#1A1919"></path>
            <path d="M3.4,35.18 L33.34,35.18 L10.01,12.27 C6.91,20.02 4.71,27.66 3.41,35.18 L3.4,35.18 Z" id="Path" fill="#696969"></path>
            <path d="M34.3,34.26 L34.3,3.61 C26.85,5.11 19.07,7.61 10.92,11.31 L34.3,34.25 L34.3,34.26 Z" id="Path" fill="#696969"></path>
            <path d="M63,15.07 C55.15,10.24 46.04,6.42 35.63,3.67 L35.63,35.18 L63,35.18 L63,15.08 L63,15.07 Z" id="Path" fill="#696969"></path>
            <path d="M38,2.95 C46.7685775,5.33933038 55.1769257,8.89438 63,13.52 L63,2.83 C54.7106484,1.5763099 46.2769345,1.61679173 38,2.95 L38,2.95 Z" id="Path" fill="#696969"></path>
            <path d="M84.63,35.18 C82.1724882,31.7059999 79.4080594,28.4596368 76.37,25.48 C72.6934023,21.8878972 68.6590809,18.6812149 64.33,15.91 L64.33,35.18 L84.63,35.18 L84.63,35.18 Z" id="Path" fill="#696969"></path>
            <path d="M96.7,35.18 C92.11,18.35 81.07,7.97 64.33,3.24 L64.33,14.34 C72.981484,19.7154463 80.4384755,26.808267 86.24,35.18 L96.7,35.18 Z" id="Path" fill="#696969"></path>
            <path d="M73.28,5.1 C78.27,7.4 82.58,10.34 86.19,13.91 C89.6159565,17.308883 92.4394745,21.2651897 94.54,25.61 C93.24,20.99 91.57,16.31 89.53,11.58 C84.3279988,8.9163532 78.8874729,6.74683889 73.28,5.1 L73.28,5.1 Z" id="Path" fill="#696969"></path>
            <path d="M13.92,63.37 C8.92913083,55.9432473 5.17385909,47.7572953 2.8,39.13 C1.7187833,47.17295 1.70533351,55.3235254 2.76,63.37 L13.92,63.37 L13.92,63.37 Z" id="Path" fill="#696969"></path>
            <path d="M3.47,36.5 C5.83787256,46.1102564 9.92356971,55.213298 15.53,63.37 L34.3,63.37 L34.3,36.51 L3.47,36.51 L3.47,36.5 Z" id="Path" fill="#696969"></path>
            <polygon id="Path" fill="#E31E24" points="35.63 37.43 35.63 63.37 62.04 63.37"></polygon>
            <polygon id="Path" fill="#009846" points="63 62.45 63 36.51 36.58 36.51"></polygon>
            <path d="M97.08,36.5 C94.64,46.6 90.81,55.57 85.54,63.37 L64.33,63.37 L64.33,36.51 L97.08,36.51 L97.08,36.5 Z" id="Path" fill="#009846"></path>
            <path d="M87.14,63.37 C91.9076933,56.0151161 95.4724242,47.947212 97.7,39.47 C98.5395622,47.4326575 98.2973632,55.472321 96.98,63.37 L87.14,63.37 L87.14,63.37 Z" id="Path" fill="#696969"></path>
            <path d="M27.04,95.25 C16.8694915,90.5334763 8.78964664,82.2400672 4.34,71.95 C5.75075614,77.9600414 7.73657475,83.820383 10.27,89.45 C15.88,91.93 21.47,93.85 27.04,95.25 L27.04,95.25 Z" id="Path" fill="#696969"></path>
            <path d="M3.06,64.7 C7.92,80.77 18.26,91.46 34.3,96.72 L34.3,83.94 C26.7667026,78.6796123 20.1856949,72.1730044 14.84,64.7 L3.06,64.7 L3.06,64.7 Z" id="Path" fill="#696969"></path>
            <path d="M16.47,64.7 C21.4432421,71.4800526 27.4615039,77.4274319 34.3,82.32 L34.3,64.7 L16.47,64.7 Z" id="Path" fill="#696969"></path>
            <path d="M60.8,97.37 C51.4,94.03 42.99,89.87 35.63,84.87 L35.63,96.99 C43.9625535,98.274142 52.4324787,98.4020154 60.8,97.37 L60.8,97.37 Z" id="Path" fill="#696969"></path>
            <path d="M35.63,83.26 C43.5,88.74 52.66,93.22 63,96.73 L63,64.7 L35.63,64.7 L35.63,83.26 Z" id="Path" fill="#696969"></path>
            <path d="M64.33,65.62 L64.33,96.87 C72.55,95.55 80.73,93.14 88.88,89.73 L64.33,65.62 Z" id="Path" fill="#696969"></path>
            <path d="M97.13,64.7 L65.28,64.7 L89.84,88.82 C93.37,80.95 95.84,72.92 97.13,64.7 L97.13,64.7 Z" id="Path" fill="#696969"></path>
        </g>
    </g>
</svg>