<?xml version="1.0" encoding="UTF-8"?>
<svg width="98px" height="100px" viewBox="0 0 98 100" version="1.1" xmlns="http://www.w3.org/2000/svg" xmlns:xlink="http://www.w3.org/1999/xlink">
    <title>pyramorphix_1_2</title>
    <g id="Pyramorphix" stroke="none" stroke-width="1" fill="none" fill-rule="evenodd">
        <g id="pyramorphix_1_2" fill-rule="nonzero">
            <path d="M66.38,26.54 C76.78,36.07 97.58,61.04 97.22,67.07 C96.87,73.11 67.26,87.68 57.48,91.21 C47.69,94.74 8.7,102.96 3.23,98.38 C-2.24,93.8 0.18,60.25 3.59,44.91 C7,29.57 18.52,2.63 24.1,0.21 C29.69,-2.21 55.98,17 66.38,26.54 Z" id="Path" fill="#000000"></path>
            <path d="M49.08,33.6 L63.8,54.92 L75.42,59.14 C75.42,59.14 72.64,52.26 65.22,44.21 C57.8,36.17 49.08,33.6 49.08,33.6 Z" id="Path" fill="#696969"></path>
            <path d="M78.36,60.16 C78.36,60.16 80.39,56.72 80.7,54.35 C81.01,51.97 79.81,47.34 79.81,47.34 C79.81,47.34 84.12,53.54 85.98,56.69 C87.3850178,59.1751248 88.6730905,61.7245743 89.84,64.33 L78.36,60.16 Z" id="Path" fill="#696969"></path>
            <path d="M57.2,24.73 C57.2,24.73 64.4,30.4 68.02,33.86 C71.63,37.32 77.17,44.1 77.17,44.1 C77.17,44.1 78.97,48.96 79.07,52.04 C79.14,55.1 77,58.79 77,58.79 C77,58.79 71.67,47.45 64.75,41.09 C57.82,34.72 47.97,31.48 47.97,31.48 C47.97,31.48 50.44,28.01 52.11,26.78 C53.79,25.56 57.2,24.73 57.2,24.73 Z" id="Path" fill="#009846"></path>
            <path d="M34.37,12.75 L46.65,30.48 C46.65,30.48 48.48,27.73 50.38,26.12 C52.28,24.51 55.53,23.57 55.53,23.57 C55.53,23.57 47.69,18.2 43.82,16.24 C39.94,14.29 34.37,12.74 34.37,12.74 L34.37,12.75 Z" id="Path" fill="#696969"></path>
            <path d="M93,60.77 C93,60.77 92.99,62.93 92.76,63.67 C92.53,64.43 91.94,65.06 91.94,65.06 L95.53,66.4 C95.53,66.4 95.33,65.02 94.9,64 C94.3301062,62.8872525 93.6956921,61.8087485 93,60.77 L93,60.77 Z" id="Path" fill="#696969"></path>
            <path d="M91.48,58.4 C91.48,58.4 91.64,60.3 91.57,61.19 C91.4694435,61.9977704 91.3225345,62.7990923 91.13,63.59 C91.13,63.59 88.18,57.39 86.01,53.88 C83.5699592,50.1935698 81.0187888,46.5819129 78.36,43.05 L77.47,41 C77.06,40.05 76.17,38.07 76.17,38.07 C76.17,38.07 81.9,45.07 84.67,48.73 C87.43,52.41 91.47,58.41 91.47,58.41 L91.48,58.4 Z" id="Path" fill="#009846"></path>
            <path d="M64.07,26.03 L60,24.73 C60,24.73 65.23,29.07 67.78,31.54 C70.33,34.01 74.98,39.21 74.98,39.21 L72.76,34.34 C72.76,34.34 69.82,31.34 68.3,29.89 C66.79,28.44 64.07,26.03 64.07,26.03 L64.07,26.03 Z" id="Path" fill="#696969"></path>
            <path d="M40.52,8.87 C40.52,8.87 47.04,12.85 50.71,15.43 C54.38,18.01 60.99,23.36 60.99,23.36 C60.99,23.36 59.83,23.15 59.15,23.15 L57.68,23.15 C57.68,23.15 47.91,16.69 43.82,14.55 C39.72,12.4 34.37,11.32 34.37,11.32 C34.37,11.32 36.13,9.87 37.24,9.42 C38.3070079,9.10443668 39.4084195,8.91974877 40.52,8.87 Z" id="Path" fill="#009846"></path>
            <path d="M26.58,1.84 L32.94,10.8 C32.94,10.8 33.97,9.41 34.9,8.87 C35.82,8.33 38.48,7.68 38.48,7.68 C38.48,7.68 34.24,5.32 32.24,4.35 C30.24,3.37 26.58,1.85 26.58,1.85 L26.58,1.84 Z" id="Path" fill="#696969"></path>
            <path d="M62.25,55.25 L46.72,33 C46.72,33 42.4,42.3 40.27,52.36 C38.15,62.43 38.42,73.08 38.42,73.08 L62.25,55.25 L62.25,55.25 Z" id="Path" fill="#696969"></path>
            <path d="M32.81,13.15 L44.95,30.75 C44.95,30.75 38.02,30.84 34.63,31.65 C31.23,32.46 24.9,35.55 24.9,35.55 C24.9,35.55 26.97,27.22 28.34,23.35 C29.7,19.49 32.81,13.15 32.81,13.15 Z" id="Path" fill="#696969"></path>
            <path d="M24.51,37.35 C24.51,37.35 31.76,33.98 35.56,33.08 C39.36,32.18 45.31,32.41 45.31,32.41 C45.31,32.41 39.8,46 38.39,53.04 C36.99,60.08 36.94,73.52 36.94,73.52 C36.94,73.52 30.69,71.42 27.77,69.56 C24.85,67.69 19.46,61.96 19.46,61.96 C19.46,61.96 20.81,53.01 21.72,48.58 C22.62,44.15 24.51,37.35 24.51,37.35 L24.51,37.35 Z" id="Path" fill="#E31E24"></path>
            <path d="M35.97,74.7 L17.47,88.67 C17.47,88.67 17.17,83.22 17.47,78.87 C17.9350161,73.88561 18.501801,68.9112391 19.17,63.95 C19.17,63.95 23.74,68.71 26.72,70.61 C29.7,72.51 35.97,74.7 35.97,74.7 L35.97,74.7 Z" id="Path" fill="#696969"></path>
            <path d="M24.9,1.84 L31.51,11.5 C31.51,11.5 24.86,12.27 21.44,14.03 C18.02,15.8 13.18,20.97 13.18,20.97 C13.18,20.97 18.15,10.68 20.6,6.67 C23.06,2.67 24.9,1.84 24.9,1.84 Z" id="Path" fill="#696969"></path>
            <path d="M11.72,24.7 C11.72,24.7 17.51,18.17 20.86,16.15 C24.2,14.13 31.51,12.75 31.51,12.75 C31.51,12.75 28.07,19.35 26.68,23.33 C25.3,27.3 23.33,36.23 23.33,36.23 C18.1654377,38.953184 13.4912958,42.5187803 9.5,46.78 L6.24,40.38 C6.24,40.38 7.89,34.78 8.84,31.97 C9.8,29.15 11.71,24.7 11.71,24.7 L11.72,24.7 Z" id="Path" fill="#E31E24"></path>
            <path d="M10.37,48.03 C10.37,48.03 14.24,44.23 16.35,42.6 C18.45,40.97 22.52,38.33 22.52,38.33 C22.52,38.33 20.57,45.63 19.82,49.41 C19.07,53.2 18.12,60.27 18.12,60.27 C18.12,60.27 15.09,56.14 13.7,53.94 C12.31,51.74 10.37,48.04 10.37,48.04 L10.37,48.03 Z" id="Path" fill="#696969"></path>
            <path d="M9.1,49.05 C9.1,49.05 11.9,54.47 13.34,56.66 C14.79,58.85 17.74,62.24 17.74,62.24 C17.74,62.24 16.36,73.02 16.02,77.62 C15.67,82.22 15.82,88.01 15.82,88.01 C15.82,88.01 10.77,86.42 8.42,84.09 C6.07,81.76 1.85,74.14 1.85,74.14 L3.23,55.78 L9.09,49.05 L9.1,49.05 Z" id="Path" fill="#E31E24"></path>
            <path d="M5.71,42.41 C5.71,42.41 4.85,45.93 4.51,47.81 C4.15,49.67 3.69,53.2 3.69,53.2 L8.5,47.65 L5.71,42.41 Z" id="Path" fill="#696969"></path>
            <path d="M1.94,77.18 C1.94,77.18 1.84,87.02 2.39,91.48 C2.95,95.96 5.22,97.68 5.22,97.68 L16.05,89.67 C16.05,89.67 10.58,88.02 8.07,85.77 C5.57,83.53 1.94,77.17 1.94,77.17 L1.94,77.18 Z" id="Path" fill="#696969"></path>
            <path d="M63.24,56.38 L39.52,73.97 C39.52,73.97 49.68,73.97 60.56,69.99 C71.44,66 75.76,60.69 75.76,60.69 L63.24,56.38 L63.24,56.38 Z" id="Path" fill="#696969"></path>
            <path d="M78.11,61.67 L89.58,65.76 C89.58,65.76 88.53,67.53 85.18,69.68 C81.84,71.83 72.58,76.88 72.58,76.88 C72.58,76.88 76.42,71.78 77.62,68.48 C78.82,65.17 78.12,61.68 78.12,61.68 L78.11,61.67 Z" id="Path" fill="#696969"></path>
            <path d="M38.87,75.27 C38.87,75.27 47.97,75.9 59.77,71.73 C71.59,67.55 76.68,62.11 76.68,62.11 C76.68,62.11 77.1,65.9 75.73,68.89 C74.37,71.88 68.92,79.11 68.92,79.11 C68.92,79.11 60.76,82.57 56.89,83.82 C53.2136725,84.8948343 49.4976302,85.8288486 45.75,86.62 C45.75,86.62 42.42,83.72 41.15,81.62 C39.86,79.52 38.87,75.27 38.87,75.27 L38.87,75.27 Z" id="Path" fill="#FFED00"></path>
            <path d="M37.35,75.58 L19.45,88.98 C19.45,88.98 25.64,89.35 30.22,88.98 C34.81,88.6 43.82,86.95 43.82,86.95 C43.82,86.95 40.64,84.07 39.52,82.11 C38.41,80.15 37.35,75.58 37.35,75.58 Z" id="Path" fill="#696969"></path>
            <path d="M16.52,91.03 L6.8,98.26 C6.8,98.26 10.02,98.68 13.1,98.56 C16.17,98.45 22.47,97.67 22.47,97.67 C22.47,97.67 19.5,95.83 18.43,94.64 C17.36,93.44 16.52,91.03 16.52,91.03 Z" id="Path" fill="#696969"></path>
            <path d="M18.04,90.12 C18.04,90.12 18.64,92.72 19.77,93.92 C20.9,95.12 24.72,97.22 24.72,97.22 C24.72,97.22 33.12,96.19 38.04,95.19 C42.97,94.19 52.7,91.52 52.7,91.52 C52.7,91.52 49.91,90.47 48.61,89.87 C47.4507968,89.2886741 46.3133617,88.6649193 45.2,88 C45.2,88 33.8,90.15 29.24,90.51 C24.67,90.87 18.04,90.11 18.04,90.11 L18.04,90.12 Z" id="Path" fill="#FFED00"></path>
            <path d="M47.19,87.55 C47.19,87.55 52.71,86.49 55.95,85.5 C59.19,84.51 65.97,81.83 65.97,81.83 C65.97,81.83 62.83,84.75 60.97,86.26 C59.1,87.76 55,90.7 55,90.7 C55,90.7 51.9,89.75 50.46,89.17 C49.02,88.59 47.18,87.57 47.18,87.57 L47.19,87.55 Z" id="Path" fill="#696969"></path>
            <path d="M70.34,79.56 C70.34,79.56 66.98,83.06 65.21,84.62 C63.44,86.17 59.75,88.88 59.75,88.88 C59.75,88.88 66.32,86.18 70.34,84.18 C74.36,82.17 83.84,76.88 83.84,76.88 C83.84,76.88 86.47,73.88 87.74,72.02 C89.01,70.16 90.47,67.17 90.47,67.17 C90.47,67.17 85.99,70.94 82.52,73.07 C79.04,75.21 70.34,79.56 70.34,79.56 L70.34,79.56 Z" id="Path" fill="#FFED00"></path>
            <path d="M91.94,66.7 C91.94,66.7 91.32,68.84 90.64,70.22 C89.97,71.61 88.04,74.37 88.04,74.37 C88.04,74.37 91.14,72.27 92.5,71.13 C93.5414553,70.1446955 94.4552502,69.0326878 95.22,67.82 L91.94,66.7 Z" id="Path" fill="#696969"></path>
        </g>
    </g>
</svg>