<?xml version="1.0" encoding="UTF-8"?>
<svg width="100px" height="100px" viewBox="0 0 100 100" version="1.1" xmlns="http://www.w3.org/2000/svg" xmlns:xlink="http://www.w3.org/1999/xlink">
    <title>pyramorphix_1_8</title>
    <g id="Pyramorphix" stroke="none" stroke-width="1" fill="none" fill-rule="evenodd">
        <g id="pyramorphix_1_8" fill-rule="nonzero">
            <path d="M8.94,10.4 C41.02,-4.37 67.42,-1.56 90.87,10.4 C103.33,39.2 102.37,65.87 90.87,90.87 C64.02,102.37 36.74,103.21 8.94,90.87 C-2.51,65.47 -2.61,38.65 8.94,10.39" id="Path" fill="#000000"></path>
            <path d="M3.4,35.28 L33.34,35.28 L10.01,12.36 C6.91,20.11 4.71,27.76 3.41,35.28 L3.4,35.28 Z" id="Path" fill="#696969"></path>
            <path d="M34.3,34.36 L34.3,3.7 C26.85,5.19 19.07,7.7 10.92,11.38 L34.3,34.36 Z" id="Path" fill="#696969"></path>
            <path d="M63,15.16 C55.15,10.33 46.04,6.52 35.63,3.76 L35.63,35.28 L63,35.28 L63,15.16 Z" id="Path" fill="#009846"></path>
            <path d="M38,3.04 C46.7690824,5.43248218 55.1774524,8.99090433 63,13.62 L63,2.92 C54.7106367,1.66647152 46.2769478,1.70695323 38,3.04 L38,3.04 Z" id="Path" fill="#696969"></path>
            <path d="M84.63,35.28 C82.1723606,31.8060991 79.4079412,28.559747 76.37,25.58 C72.6936529,21.9846749 68.6593424,18.7746504 64.33,16 L64.33,35.28 L84.63,35.28 L84.63,35.28 Z" id="Path" fill="#696969"></path>
            <path d="M96.7,35.28 C92.11,18.44 81.07,8.06 64.33,3.33 L64.33,14.43 C72.9824639,19.8083617 80.439527,26.904654 86.24,35.28 L96.7,35.28 Z" id="Path" fill="#696969"></path>
            <path d="M73.28,5.2 C78.27,7.5 82.58,10.43 86.19,14 C89.6159565,17.398883 92.4394745,21.3551897 94.54,25.7 C93.24,21.08 91.57,16.4 89.53,11.67 C84.3277108,9.00962425 78.8871797,6.84345586 73.28,5.2 L73.28,5.2 Z" id="Path" fill="#696969"></path>
            <path d="M13.92,63.47 C8.92815576,56.0401797 5.17285044,47.8507774 2.8,39.22 C1.71789816,47.2662386 1.70444827,55.4202353 2.76,63.47 L13.92,63.47 L13.92,63.47 Z" id="Path" fill="#696969"></path>
            <path d="M3.47,36.6 C5.83787256,46.2102564 9.92356971,55.313298 15.53,63.47 L34.3,63.47 L34.3,36.6 L3.47,36.6 Z" id="Path" fill="#E31E24"></path>
            <polygon id="Path" fill="#E31E24" points="35.63 37.52 35.63 63.47 62.04 63.47"></polygon>
            <polygon id="Path" fill="#009846" points="63 62.55 63 36.6 36.58 36.6"></polygon>
            <path d="M97.08,63.47 C94.64,53.37 90.81,44.4 85.54,36.6 L64.33,36.6 L64.33,63.47 L97.08,63.47 Z" id="Path" fill="#009846"></path>
            <path d="M87.14,36.6 C91.9076933,43.9548839 95.4724242,52.022788 97.7,60.5 C98.5396852,52.5373471 98.2974856,44.497667 96.98,36.6 L87.14,36.6 L87.14,36.6 Z" id="Path" fill="#696969"></path>
            <path d="M27.04,95.34 C16.8694915,90.6234763 8.78964664,82.3300672 4.34,72.04 C5.75075614,78.0500414 7.73657475,83.910383 10.27,89.54 C15.88,92.02 21.47,93.94 27.04,95.34 L27.04,95.34 Z" id="Path" fill="#696969"></path>
            <path d="M3.06,64.79 C7.92,80.86 18.26,91.56 34.3,96.81 L34.3,84.04 C26.7657478,78.7767666 20.1846671,72.2667049 14.84,64.79 L3.06,64.79 Z" id="Path" fill="#696969"></path>
            <path d="M16.47,64.79 C21.4432421,71.5700526 27.4615039,77.5174319 34.3,82.41 L34.3,64.8 L16.47,64.8 L16.47,64.79 Z" id="Path" fill="#696969"></path>
            <path d="M60.8,97.46 C51.4,94.12 42.99,89.96 35.63,84.96 L35.63,97.08 C43.962532,98.364397 52.4324925,98.4922709 60.8,97.46 Z" id="Path" fill="#696969"></path>
            <path d="M35.63,83.35 C43.5,88.84 52.66,93.31 63,96.82 L63,64.8 L35.63,64.8 L35.63,83.36 L35.63,83.35 Z" id="Path" fill="#E31E24"></path>
            <path d="M64.33,65.7 L64.33,96.96 C72.55,95.64 80.73,93.24 88.88,89.82 L64.33,65.71 L64.33,65.7 Z" id="Path" fill="#696969"></path>
            <path d="M97.13,64.79 L65.28,64.79 L89.84,88.91 C93.37,81.04 95.84,73.01 97.13,64.79 L97.13,64.79 Z" id="Path" fill="#696969"></path>
        </g>
    </g>
</svg>