<?xml version="1.0" encoding="UTF-8"?>
<svg width="100px" height="100px" viewBox="0 0 100 100" version="1.1" xmlns="http://www.w3.org/2000/svg" xmlns:xlink="http://www.w3.org/1999/xlink">
    <title>pyramorphix_5_1</title>
    <g id="Pyramorphix" stroke="none" stroke-width="1" fill="none" fill-rule="evenodd">
        <g id="pyramorphix_5_1" fill-rule="nonzero">
            <path d="M8.66,10.43 C40.58,-4.33 66.86,-1.52 90.21,10.43 C102.61,39.23 101.65,65.91 90.21,90.9 C63.48,102.4 36.33,103.24 8.66,90.9 C-2.74,65.5 -2.84,38.69 8.66,10.43" id="Path" fill="#1A1919"></path>
            <path d="M3.15,35.31 L32.95,35.31 L9.73,12.39 C6.74602425,19.7805416 4.54076827,27.4620716 3.15,35.31 L3.15,35.31 Z" id="Path" fill="#696969"></path>
            <path d="M33.9,34.4 L33.9,3.73 C26.49,5.23 18.75,7.73 10.63,11.42 L33.9,34.39 L33.9,34.4 Z" id="Path" fill="#696969"></path>
            <path d="M35.22,15.2 C43.02,10.36 52.09,6.55 62.46,3.8 L62.46,35.3 L35.22,35.3 L35.22,15.2 Z" id="Path" fill="#FFED00"></path>
            <path d="M84,35.31 C81.5523895,31.8369584 78.7980068,28.5906022 75.77,25.61 C72.1136287,22.0196281 68.0993784,18.8129189 63.79,16.04 L63.79,35.3 L83.99,35.3 L84,35.31 Z" id="Path" fill="#696969"></path>
            <path d="M96,35.31 C91.45,18.47 80.46,8.09 63.8,3.37 L63.8,14.47 C72.4156215,19.8524294 79.8352755,26.9453463 85.6,35.31 L96,35.31 Z" id="Path" fill="#696969"></path>
            <path d="M72.7,5.23 C77.4657308,7.39233904 81.8150264,10.3742296 85.55,14.04 C88.956917,17.4400355 91.7632808,21.3926128 93.85,25.73 C92.4961165,20.950252 90.8326011,16.2636814 88.87,11.7 C83.6949643,9.04071092 78.2810816,6.87448823 72.7,5.23 L72.7,5.23 Z" id="Path" fill="#696969"></path>
            <path d="M13.62,63.5 C8.64929588,56.0685347 4.91118599,47.8831884 2.55,39.26 C1.47378886,47.3032883 1.46034016,55.4532036 2.51,63.5 L13.61,63.5 L13.62,63.5 Z" id="Path" fill="#0062AC"></path>
            <path d="M3.22,36.63 C5.57320291,46.2348707 9.63817281,55.3370158 15.22,63.5 L33.9,63.5 L33.9,36.63 L3.22,36.63 Z" id="Path" fill="#0062AC"></path>
            <polygon id="Path" fill="#0062AC" points="35.22 37.55 35.22 63.5 61.52 63.5"></polygon>
            <polygon id="Path" fill="#FFED00" points="62.46 62.58 62.46 36.63 36.17 36.63 62.47 62.58"></polygon>
            <path d="M96.4,63.5 C93.96,53.4 90.14,44.44 84.9,36.63 L63.8,36.63 L63.8,63.5 L96.4,63.5 Z" id="Path" fill="#FFED00"></path>
            <path d="M86.49,36.63 C91.2376886,43.9929917 94.7852527,52.0636158 97,60.54 C97.8376069,52.5775947 97.5987928,44.538642 96.29,36.64 L86.49,36.64 L86.49,36.63 Z" id="Path" fill="#FFED00"></path>
            <path d="M26.67,95.37 C16.5315752,90.6413674 8.48727248,82.3479048 4.07,72.07 C5.47576731,78.0821606 7.45482511,83.9456635 9.98,89.58 C15.57,92.06 21.13,93.98 26.67,95.38 L26.67,95.37 Z" id="Path" fill="#696969"></path>
            <path d="M2.8,64.82 C7.65,80.9 17.95,91.6 33.9,96.84 L33.9,84.07 C26.3958903,78.8012173 19.8453141,72.2912228 14.53,64.82 L2.81,64.82 L2.8,64.82 Z" id="Path" fill="#696969"></path>
            <path d="M16.16,64.82 C21.1023899,71.5990407 27.0903493,77.5498706 33.9,82.45 L33.9,64.82 L16.16,64.82 Z" id="Path" fill="#696969"></path>
            <path d="M62.46,83.39 C54.61,88.87 45.51,93.34 35.22,96.86 L35.22,64.82 L62.46,64.82 L62.46,83.4 L62.46,83.39 Z" id="Path" fill="#0062AC"></path>
            <path d="M63.79,65.74 L63.79,97 C72.1889998,95.6030635 80.3906466,93.2060206 88.22,89.86 L63.8,65.74 L63.79,65.74 Z" id="Path" fill="#696969"></path>
            <path d="M96.44,64.82 L64.74,64.82 L89.18,88.95 C92.6610677,81.2648485 95.1025533,73.1501034 96.44,64.82 L96.44,64.82 Z" id="Path" fill="#696969"></path>
        </g>
    </g>
</svg>