<?xml version="1.0" encoding="UTF-8"?>
<svg width="82px" height="100px" viewBox="0 0 82 100" version="1.1" xmlns="http://www.w3.org/2000/svg" xmlns:xlink="http://www.w3.org/1999/xlink">
    <title>prisma_5_3</title>
    <g id="Prisma" stroke="none" stroke-width="1" fill="none" fill-rule="evenodd">
        <g id="prisma_5_3" fill-rule="nonzero">
            <path d="M15.26,4.17 C16.28,3.68 17.44,3.49 17.44,3.49 L38.64,0.24 C38.64,0.24 39.76,0.01 40.68,0.0196831145 C41.3044088,0.0376926054 41.9249029,0.124897169 42.53,0.28 L63.11,4.42 C63.11,4.42 64.9,4.65 66.21,5.29 C67.52,5.93 68.73,7.15 68.73,7.15 L80.21,17.28 C80.21,17.28 81.03,17.86 81.49,18.93 C81.94,20 81.9300181,21.34 81.9300181,21.34 L73.32,75.18 L67.19,89.65 C67.19,89.65 66.92,90.53 66.21,91.19 C65.5,91.85 64.48,92.17 64.48,92.17 L41.72,99.33 C41.72,99.33 40.36,99.76 38.86,99.72 C37.36,99.68 36.06,99.17 36.06,99.17 L16.04,92.73 C16.04,92.73 14.71,92.54 13.52,91.43 C12.32,90.3 11.53,88.5 11.53,88.5 L3.53,71.21 L0.37,21.2 C0.37,21.2 0.15,19.49 0.66,18.1 C1.17,16.72 2.46,15.54 2.46,15.54 L13.58,5.34 C13.58,5.34 14.25,4.66 15.26,4.18 L15.26,4.17 Z" id="Path" fill="#000000"></path>
            <path d="M65.54,6.1 L60.91,12.78 C60.91,12.78 60.67,13.56 60.78,13.91 C60.89,14.26 61.75,14.67 61.75,14.67 L79.25,18.39 L65.55,6.1 L65.54,6.1 Z" id="Path" fill="#696969"></path>
            <path d="M58.8,17.01 C59.32,16.81 60.33,16.9 60.33,16.9 L78.6,20.88 L72.9,31.33 L53.3,26.89 C53.3,26.89 52.8,26.72 52.65,26.17 C52.5697804,25.8330024 52.6430218,25.4777815 52.85,25.2 L57.72,17.96 C57.72,17.96 58.29,17.22 58.81,17.01 L58.8,17.01 Z" id="Path" fill="#696969"></path>
            <path d="M50.2,29.18 C49.8050918,29.309727 49.459526,29.5575571 49.21,29.89 L42.2,39.76 L70.14,33.24 L51.42,29.04 C51.42,29.04 50.92,28.89 50.2,29.18 L50.2,29.18 Z" id="Path" fill="#696969"></path>
            <path d="M44.28,1.48 L38.02,8.72 C38.02,8.72 37.94,9.1 38.02,9.38 C38.0945579,9.57873274 38.2104442,9.75937914 38.36,9.91 L54.58,13.56 C54.58,13.56 55.37,13.64 56.16,13.32 C56.95,13 57.12,12.55 57.12,12.55 L62.09,5.14 L44.28,1.48 Z" id="Path" fill="#696969"></path>
            <path d="M35.58,12.15 C36.07,11.97 37.01,11.92 37.01,11.92 L52.98,15.47 C52.98,15.47 53.6,15.62 53.9,16.05 C54.2,16.48 53.94,16.85 53.94,16.85 L48.56,24.32 C48.56,24.32 48.19,24.89 47.6,25.06 C47.01,25.23 46.05,25.2201108 46.05,25.2201108 L29.16,21.32 C29.16,21.32 28.49,21.02 28.35,20.59 C28.21,20.15 28.62,19.66 28.62,19.66 L34.55,12.87 C34.55,12.87 35.1,12.34 35.58,12.15 L35.58,12.15 Z" id="Path" fill="#FFED00"></path>
            <path d="M25.92,23.5 C26.51,23.33 27.37,23.43 27.37,23.43 L44.8,27.6 C44.8,27.6 45.33,27.63 45.53,28.07 C45.73,28.51 45.46,29.05 45.46,29.05 L44.81,29.97 L37.46,39.31 L16.56,33.61 L24.87,24.22 C24.87,24.22 25.32,23.67 25.91,23.51 L25.92,23.5 Z" id="Path" fill="#696969"></path>
            <path d="M2.68,17.36 L20.55,21.71 C20.55,21.71 21.28,22.11 21.43,22.34 C21.58,22.57 21.18,23.24 21.18,23.24 L12.58,32.29 L2.68,17.36 Z" id="Path" fill="#696969"></path>
            <path d="M4.46,15.4 L13.66,6.87 L29.54,10.3 C29.54,10.3 30.31,10.5 30.64,11.01 C30.96,11.52 30.6,11.95 30.6,11.95 L24.77,18.37 C24.77,18.37 24.07,19.11 23.3,19.32 C22.53,19.54 21.28,19.32 21.28,19.32 L4.46,15.4 Z" id="Path" fill="#696969"></path>
            <path d="M16.52,4.42 L31.78,7.98 C32.3410442,8.14787845 32.9389558,8.14787845 33.5,7.98 C34.47,7.71 34.8,7.12 34.8,7.12 L40.68,0.51 L16.52,4.42 L16.52,4.42 Z" id="Path" fill="#696969"></path>
            <path d="M16,37.24 L17.85,37.7 L36.67,42.49 L36.24,54.61 L36.11,58.02 C36.11,58.02 35.91,59.28 35.49,59.71 C35.06,60.14 33.72,59.71 33.72,59.71 L17.96,55.55 C17.96,55.55 17.16,55.27 16.71,54.55 C16.27,53.82 16.27,52.77 16.27,52.77 L16.03,39.34 L16,37.24 L16,37.24 Z" id="Path" fill="#696969"></path>
            <path d="M42.71,42.81 L41.93,58.95 C41.93,58.95 41.93,60.09 42.2,60.38 C42.48,60.66 43.33,60.38 43.33,60.38 L67.82,54.08 C67.82,54.08 68.51,53.92 68.94,53.35 C69.2325637,52.9108506 69.4238442,52.4121551 69.5,51.89 L71.05,35.86 L42.71,42.81 L42.71,42.81 Z" id="Path" fill="#696969"></path>
            <path d="M16.43,59.47 C15.9,59.85 15.9099868,60.64 15.9099868,60.64 L16.1,71.8 C16.1,71.8 16.1,73.2 16.53,73.9 C16.95,74.6 17.97,74.88 17.97,74.88 L33.51,79.23 C33.51,79.23 34.77,79.6 35.32,79.27 C35.87,78.93 35.82,77.83 35.82,77.83 L36.2,66.3 C36.2,66.3 36.23,65.1 35.69,64.38 C35.15,63.66 34.07,63.48 34.07,63.48 L17.89,59.23 C17.89,59.23 16.97,59.1 16.44,59.48 L16.43,59.47 Z" id="Path" fill="#E31E24"></path>
            <path d="M42.12,65.25 C41.56,65.98 41.65,67.05 41.65,67.05 L41.38,77.86 C41.38,77.86 41.22,79.32 41.65,79.71 C42.08,80.11 43.41,79.71 43.41,79.71 L64.91,74.09 C64.91,74.09 66.17,73.84 66.83,73.14 C67.5,72.43 67.47,71.36 67.47,71.36 L68.73,60.57 C68.73,60.57 69,59 68.51,58.52 C68.01,58.05 66.57,58.51 66.57,58.51 L43.74,64.3 C43.74,64.3 42.67,64.51 42.12,65.25 L42.12,65.25 Z" id="Path" fill="#E31E24"></path>
            <path d="M17.08,78.52 C16.63,78.89 16.68,79.97 16.68,79.97 L16.68,92.07 C16.68,92.07 35.42,97.87 35.42,97.6 C35.42,97.6 35.78,89.14 35.86,85.17 C35.8731698,84.4556162 35.6596144,83.7554346 35.25,83.17 C34.87,82.64 33.86,82.34 33.86,82.34 L18.6,78.36 C18.6,78.36 17.53,78.14 17.09,78.52 L17.08,78.52 Z" id="Path" fill="#E31E24"></path>
            <path d="M42.22,84.99 C41.74,85.59 41.59,86.34 41.59,86.34 L41.13,98.35 L65.2,91.32 L66.61,79.7 C66.61,79.7 66.83,78.16 66.44,77.75 C66.05,77.33 64.8,77.75 64.8,77.75 L43.7,83.72 C43.7,83.72 42.7,84.39 42.22,84.99 L42.22,84.99 Z" id="Path" fill="#E31E24"></path>
            <path d="M75.72,33.43 L81.33,22.53 L78.79,38.61 C78.79,38.61 78.73,39.03 78.61,39.47 C78.5359317,39.7300207 78.4423322,39.9840765 78.33,40.23 L74.15,49.09 C74.15,49.09 73.75,49.73 73.65,49.6 C73.6278913,49.2119264 73.6513852,48.8225989 73.72,48.44 L75.72,33.43 L75.72,33.43 Z" id="Path" fill="#696969"></path>
            <path d="M72.59,53.87 C72.85,52.97 73.16,52.48 73.16,52.48 L77.31,44.62 C77.31,44.62 77.8,43.63 77.89,43.67 C77.99,43.7 77.89,44.82 77.89,44.82 L75.32,60.45 L71.34,68.42 C71.34,68.42 70.77,69.42 70.68,69.42 C70.58,69.42 70.6,68.42 70.6,68.42 L72.2,55.74 C72.2,55.74 72.32,54.77 72.59,53.87 L72.59,53.87 Z" id="Path" fill="#009846"></path>
            <path d="M68.13,86.57 L73.03,75.04 L74.69,64.41 C74.69,64.41 74.82,63.48 74.69,63.31 C74.57,63.14 74.27,63.83 74.27,63.83 L70.68,71.31 C70.68,71.31 70.2,72.2 69.99,73 C69.78,73.8 69.6,75.04 69.6,75.04 L68.13,86.57 L68.13,86.57 Z" id="Path" fill="#009846"></path>
            <path d="M1.1,21.07 L11.22,35.97 L11.78,51.2 C11.78,51.2 11.76,52.28 11.34,52.3 C10.91,52.33 10.42,51.3 10.42,51.3 L2.72,38.2 C2.72,38.2 2.32,37.6 2.14,36.8 C1.95,35.99 1.93,34.78 1.93,34.78 L1.1,21.07 Z" id="Path" fill="#696969"></path>
            <path d="M2.7,41.9 C3.03,41.86 3.53,43.2 3.53,43.2 L10.47,54.67 C10.47,54.67 11.1,55.54 11.33,56.37 C11.4897767,57.1162827 11.5735377,57.8768324 11.58,58.64 L12.08,69.1 C12.08,69.1 12.18,70.65 11.84,70.9 C11.49,71.15 10.84,70 10.84,70 L4.22,57.98 C4.22,57.98 3.72,57.26 3.46,56.28 C3.21,55.3 3.14,53.84 3.14,53.84 L2.52,43.29 C2.52,43.29 2.36,41.92 2.7,41.89 L2.7,41.9 Z" id="Path" fill="#0062AC"></path>
            <path d="M12.52,89.53 L12.06,77.34 L11.81,75.44 L11.01,73.49 L4.14,60.13 C4.14,60.13 3.67,59.3 3.54,59.3 C3.4,59.3 3.32,60.13 3.32,60.13 L4.14,71.53 L12.52,89.53 L12.52,89.53 Z" id="Path" fill="#0062AC"></path>
        </g>
    </g>
</svg>