<?xml version="1.0" encoding="UTF-8"?>
<svg width="189px" height="100px" viewBox="0 0 189 100" version="1.1" xmlns="http://www.w3.org/2000/svg" xmlns:xlink="http://www.w3.org/1999/xlink">
    <title>prisma_5_4</title>
    <g id="Prisma" stroke="none" stroke-width="1" fill="none" fill-rule="evenodd">
        <g id="prisma_5_4" fill-rule="nonzero">
            <path d="M15.26,4.17 C16.28,3.68 17.44,3.49 17.44,3.49 L38.64,0.24 C38.64,0.24 39.76,0.01 40.68,0.0196831145 C41.3044088,0.0376926054 41.9249029,0.124897169 42.53,0.28 L63.11,4.42 C63.11,4.42 64.9,4.65 66.21,5.29 C67.52,5.93 68.73,7.15 68.73,7.15 L80.21,17.28 C80.21,17.28 81.03,17.86 81.49,18.93 C81.94,20 81.9300181,21.34 81.9300181,21.34 L73.32,75.18 L67.19,89.65 C67.19,89.65 66.92,90.53 66.21,91.19 C65.5,91.85 64.48,92.17 64.48,92.17 L41.72,99.33 C41.72,99.33 40.36,99.76 38.86,99.72 C37.36,99.68 36.06,99.17 36.06,99.17 L16.04,92.73 C16.04,92.73 14.71,92.54 13.52,91.43 C12.32,90.3 11.53,88.5 11.53,88.5 L3.53,71.21 L0.37,21.2 C0.37,21.2 0.15,19.49 0.66,18.1 C1.17,16.72 2.46,15.54 2.46,15.54 L13.58,5.34 C13.58,5.34 14.25,4.66 15.26,4.18 L15.26,4.17 Z" id="Path" fill="#000000"></path>
            <path d="M65.54,6.1 L60.91,12.78 C60.91,12.78 60.67,13.56 60.78,13.91 C60.89,14.26 61.75,14.67 61.75,14.67 L79.25,18.39 L65.55,6.1 L65.54,6.1 Z" id="Path" fill="#696969"></path>
            <path d="M58.8,17.01 C59.32,16.81 60.33,16.9 60.33,16.9 L78.6,20.88 L72.9,31.33 L53.3,26.89 C53.3,26.89 52.8,26.72 52.65,26.17 C52.5697804,25.8330024 52.6430218,25.4777815 52.85,25.2 L57.72,17.96 C57.72,17.96 58.29,17.22 58.81,17.01 L58.8,17.01 Z" id="Path" fill="#696969"></path>
            <path d="M50.2,29.18 C49.47,29.46 49.21,29.89 49.21,29.89 L42.2,39.76 L70.14,33.24 L51.42,29.04 C51.42,29.04 50.92,28.89 50.2,29.18 L50.2,29.18 Z" id="Path" fill="#696969"></path>
            <path d="M44.28,1.48 L38.02,8.72 C38.02,8.72 37.94,9.1 38.02,9.38 C38.0945579,9.57873274 38.2104442,9.75937914 38.36,9.91 L54.58,13.56 C54.58,13.56 55.37,13.64 56.16,13.32 C56.95,13 57.12,12.55 57.12,12.55 L62.09,5.14 L44.28,1.48 Z" id="Path" fill="#696969"></path>
            <path d="M35.58,12.15 C36.07,11.97 37.01,11.92 37.01,11.92 L52.98,15.47 C52.98,15.47 53.6,15.62 53.9,16.05 C54.2,16.48 53.94,16.85 53.94,16.85 L48.56,24.32 C48.56,24.32 48.19,24.89 47.6,25.06 C47.01,25.23 46.05,25.2201108 46.05,25.2201108 L29.16,21.32 C29.16,21.32 28.49,21.02 28.35,20.59 C28.21,20.15 28.62,19.66 28.62,19.66 L34.55,12.87 C34.55,12.87 35.1,12.34 35.58,12.15 L35.58,12.15 Z" id="Path" fill="#FFED00"></path>
            <path d="M25.92,23.5 C26.51,23.33 27.37,23.43 27.37,23.43 L44.8,27.6 C44.8,27.6 45.33,27.63 45.53,28.07 C45.73,28.51 45.46,29.05 45.46,29.05 L44.81,29.97 L37.46,39.31 L16.56,33.61 L24.87,24.22 C24.87,24.22 25.32,23.67 25.91,23.51 L25.92,23.5 Z" id="Path" fill="#FFED00"></path>
            <path d="M2.68,17.36 L20.55,21.71 C20.55,21.71 21.28,22.11 21.43,22.34 C21.58,22.57 21.18,23.24 21.18,23.24 L12.58,32.29 L2.68,17.36 Z" id="Path" fill="#696969"></path>
            <path d="M4.46,15.4 L13.66,6.87 L29.54,10.3 C29.54,10.3 30.31,10.5 30.64,11.01 C30.96,11.52 30.6,11.95 30.6,11.95 L24.77,18.37 C24.77,18.37 24.07,19.11 23.3,19.32 C22.53,19.54 21.28,19.32 21.28,19.32 L4.46,15.4 Z" id="Path" fill="#696969"></path>
            <path d="M16.52,4.42 L31.78,7.98 C32.3410442,8.14787845 32.9389558,8.14787845 33.5,7.98 C34.47,7.71 34.8,7.12 34.8,7.12 L40.68,0.51 L16.52,4.42 L16.52,4.42 Z" id="Path" fill="#696969"></path>
            <path d="M16,37.24 L17.85,37.7 L36.67,42.49 L36.24,54.61 L36.11,58.02 C36.11,58.02 35.91,59.28 35.49,59.71 C35.06,60.14 33.72,59.71 33.72,59.71 L17.96,55.55 C17.96,55.55 17.16,55.27 16.71,54.55 C16.27,53.82 16.27,52.77 16.27,52.77 L16.03,39.34 L16,37.24 L16,37.24 Z" id="Path" fill="#696969"></path>
            <path d="M42.71,42.81 L41.93,58.95 C41.93,58.95 41.93,60.09 42.2,60.38 C42.48,60.66 43.33,60.38 43.33,60.38 L67.82,54.08 C67.82,54.08 68.51,53.92 68.94,53.35 C69.2325637,52.9108506 69.4238442,52.4121551 69.5,51.89 L71.05,35.86 L42.71,42.81 L42.71,42.81 Z" id="Path" fill="#696969"></path>
            <path d="M16.43,59.47 C15.9,59.85 15.9099868,60.64 15.9099868,60.64 L16.1,71.8 C16.1,71.8 16.1,73.2 16.53,73.9 C16.95,74.6 17.97,74.88 17.97,74.88 L33.51,79.23 C33.51,79.23 34.77,79.6 35.32,79.27 C35.87,78.93 35.82,77.83 35.82,77.83 L36.2,66.3 C36.2,66.3 36.23,65.1 35.69,64.38 C35.15,63.66 34.07,63.48 34.07,63.48 L17.89,59.23 C17.89,59.23 16.97,59.1 16.44,59.48 L16.43,59.47 Z" id="Path" fill="#E31E24"></path>
            <path d="M42.12,65.25 C41.56,65.98 41.65,67.05 41.65,67.05 L41.38,77.86 C41.38,77.86 41.22,79.32 41.65,79.71 C42.08,80.11 43.41,79.71 43.41,79.71 L64.91,74.09 C64.91,74.09 66.17,73.84 66.83,73.14 C67.5,72.43 67.47,71.36 67.47,71.36 L68.73,60.57 C68.73,60.57 69,59 68.51,58.52 C68.01,58.05 66.57,58.51 66.57,58.51 L43.74,64.3 C43.74,64.3 42.67,64.51 42.12,65.25 L42.12,65.25 Z" id="Path" fill="#E31E24"></path>
            <path d="M17.08,78.52 C16.63,78.89 16.68,79.97 16.68,79.97 L16.68,92.07 C16.68,92.07 35.42,97.87 35.42,97.6 C35.42,97.6 35.78,89.14 35.86,85.17 C35.8731698,84.4556162 35.6596144,83.7554346 35.25,83.17 C34.87,82.64 33.86,82.34 33.86,82.34 L18.6,78.36 C18.6,78.36 17.53,78.14 17.09,78.52 L17.08,78.52 Z" id="Path" fill="#E31E24"></path>
            <path d="M42.22,84.99 C41.74,85.59 41.59,86.34 41.59,86.34 L41.13,98.35 L65.2,91.32 L66.61,79.7 C66.61,79.7 66.83,78.16 66.44,77.75 C66.05,77.33 64.8,77.75 64.8,77.75 L43.7,83.72 C43.7,83.72 42.7,84.39 42.22,84.99 L42.22,84.99 Z" id="Path" fill="#E31E24"></path>
            <path d="M75.72,33.43 L81.33,22.53 L78.79,38.61 C78.79,38.61 78.73,39.03 78.61,39.47 C78.5359317,39.7300207 78.4423322,39.9840765 78.33,40.23 L74.15,49.09 C74.15,49.09 73.75,49.73 73.65,49.6 C73.6278913,49.2119264 73.6513852,48.8225989 73.72,48.44 L75.72,33.43 L75.72,33.43 Z" id="Path" fill="#696969"></path>
            <path d="M72.59,53.87 C72.85,52.97 73.16,52.48 73.16,52.48 L77.31,44.62 C77.31,44.62 77.8,43.63 77.89,43.67 C77.99,43.7 77.89,44.82 77.89,44.82 L75.32,60.45 L71.34,68.42 C71.34,68.42 70.77,69.42 70.68,69.42 C70.58,69.42 70.6,68.42 70.6,68.42 L72.2,55.74 C72.2,55.74 72.32,54.77 72.59,53.87 L72.59,53.87 Z" id="Path" fill="#009846"></path>
            <path d="M68.13,86.57 L73.03,75.04 L74.69,64.41 C74.69,64.41 74.82,63.48 74.69,63.31 C74.57,63.14 74.27,63.83 74.27,63.83 L70.68,71.31 C70.68,71.31 70.2,72.2 69.99,73 C69.78,73.8 69.6,75.04 69.6,75.04 L68.13,86.57 L68.13,86.57 Z" id="Path" fill="#009846"></path>
            <path d="M1.1,21.07 L11.22,35.97 L11.78,51.2 C11.78,51.2 11.76,52.28 11.34,52.3 C10.91,52.33 10.42,51.3 10.42,51.3 L2.72,38.2 C2.72,38.2 2.32,37.6 2.14,36.8 C1.95,35.99 1.93,34.78 1.93,34.78 L1.1,21.07 Z" id="Path" fill="#696969"></path>
            <path d="M2.7,41.9 C3.03,41.86 3.53,43.2 3.53,43.2 L10.47,54.67 C10.47,54.67 11.1,55.54 11.33,56.37 C11.4897767,57.1162827 11.5735377,57.8768324 11.58,58.64 L12.08,69.1 C12.08,69.1 12.18,70.65 11.84,70.9 C11.49,71.15 10.84,70 10.84,70 L4.22,57.98 C4.22,57.98 3.72,57.26 3.46,56.28 C3.21,55.3 3.14,53.84 3.14,53.84 L2.52,43.29 C2.52,43.29 2.36,41.92 2.7,41.89 L2.7,41.9 Z" id="Path" fill="#0062AC"></path>
            <path d="M12.52,89.53 L12.06,77.34 L11.81,75.44 L11.01,73.49 L4.14,60.13 C4.14,60.13 3.67,59.3 3.54,59.3 C3.4,59.3 3.32,60.13 3.32,60.13 L4.14,71.53 L12.52,89.53 L12.52,89.53 Z" id="Path" fill="#0062AC"></path>
            <path d="M15.26,4.17 C16.28,3.68 17.44,3.49 17.44,3.49 L38.64,0.24 C38.64,0.24 39.76,0.01 40.68,0.0196831145 C41.3044088,0.0376926054 41.9249029,0.124897169 42.53,0.28 L63.11,4.42 C63.11,4.42 64.9,4.65 66.21,5.29 C67.52,5.93 68.73,7.15 68.73,7.15 L80.21,17.28 C80.21,17.28 81.03,17.86 81.49,18.93 C81.94,20 81.9300181,21.34 81.9300181,21.34 L73.32,75.18 L67.19,89.65 C67.19,89.65 66.92,90.53 66.21,91.19 C65.5,91.85 64.48,92.17 64.48,92.17 L41.72,99.33 C41.72,99.33 40.36,99.76 38.86,99.72 C37.36,99.68 36.06,99.17 36.06,99.17 L16.04,92.73 C16.04,92.73 14.71,92.54 13.52,91.43 C12.32,90.3 11.53,88.5 11.53,88.5 L3.53,71.21 L0.37,21.2 C0.37,21.2 0.15,19.49 0.66,18.1 C1.17,16.72 2.46,15.54 2.46,15.54 L13.58,5.34 C13.58,5.34 14.25,4.66 15.26,4.18 L15.26,4.17 Z" id="Path" fill="#000000"></path>
            <path d="M65.54,6.1 L60.91,12.78 C60.91,12.78 60.67,13.56 60.78,13.91 C60.89,14.26 61.75,14.67 61.75,14.67 L79.25,18.39 L65.55,6.1 L65.54,6.1 Z" id="Path" fill="#696969"></path>
            <path d="M58.8,17.01 C59.32,16.81 60.33,16.9 60.33,16.9 L78.6,20.88 L72.9,31.33 L53.3,26.89 C53.3,26.89 52.8,26.72 52.65,26.17 C52.5697804,25.8330024 52.6430218,25.4777815 52.85,25.2 L57.72,17.96 C57.72,17.96 58.29,17.22 58.81,17.01 L58.8,17.01 Z" id="Path" fill="#696969"></path>
            <path d="M50.2,29.18 C49.47,29.46 49.21,29.89 49.21,29.89 L42.2,39.76 L70.14,33.24 L51.42,29.04 C51.42,29.04 50.92,28.89 50.2,29.18 L50.2,29.18 Z" id="Path" fill="#696969"></path>
            <path d="M44.28,1.48 L38.02,8.72 C38.02,8.72 37.94,9.1 38.02,9.38 C38.0945579,9.57873274 38.2104442,9.75937914 38.36,9.91 L54.58,13.56 C54.58,13.56 55.37,13.64 56.16,13.32 C56.95,13 57.12,12.55 57.12,12.55 L62.09,5.14 L44.28,1.48 Z" id="Path" fill="#696969"></path>
            <path d="M35.58,12.15 C36.07,11.97 37.01,11.92 37.01,11.92 L52.98,15.47 C52.98,15.47 53.6,15.62 53.9,16.05 C54.2,16.48 53.94,16.85 53.94,16.85 L48.56,24.32 C48.56,24.32 48.19,24.89 47.6,25.06 C47.01,25.23 46.05,25.2201108 46.05,25.2201108 L29.16,21.32 C29.16,21.32 28.49,21.02 28.35,20.59 C28.21,20.15 28.62,19.66 28.62,19.66 L34.55,12.87 C34.55,12.87 35.1,12.34 35.58,12.15 L35.58,12.15 Z" id="Path" fill="#FFED00"></path>
            <path d="M25.92,23.5 C26.51,23.33 27.37,23.43 27.37,23.43 L44.8,27.6 C44.8,27.6 45.33,27.63 45.53,28.07 C45.73,28.51 45.46,29.05 45.46,29.05 L44.81,29.97 L37.46,39.31 L16.56,33.61 L24.87,24.22 C24.87,24.22 25.32,23.67 25.91,23.51 L25.92,23.5 Z" id="Path" fill="#FFED00"></path>
            <path d="M2.68,17.36 L20.55,21.71 C20.55,21.71 21.28,22.11 21.43,22.34 C21.58,22.57 21.18,23.24 21.18,23.24 L12.58,32.29 L2.68,17.36 Z" id="Path" fill="#696969"></path>
            <path d="M4.46,15.4 L13.66,6.87 L29.54,10.3 C29.54,10.3 30.31,10.5 30.64,11.01 C30.96,11.52 30.6,11.95 30.6,11.95 L24.77,18.37 C24.77,18.37 24.07,19.11 23.3,19.32 C22.53,19.54 21.28,19.32 21.28,19.32 L4.46,15.4 Z" id="Path" fill="#696969"></path>
            <path d="M16.52,4.42 L31.78,7.98 C32.3410442,8.14787845 32.9389558,8.14787845 33.5,7.98 C34.47,7.71 34.8,7.12 34.8,7.12 L40.68,0.51 L16.52,4.42 L16.52,4.42 Z" id="Path" fill="#696969"></path>
            <path d="M16,37.24 L17.85,37.7 L36.67,42.49 L36.24,54.61 L36.11,58.02 C36.11,58.02 35.91,59.28 35.49,59.71 C35.06,60.14 33.72,59.71 33.72,59.71 L17.96,55.55 C17.96,55.55 17.16,55.27 16.71,54.55 C16.27,53.82 16.27,52.77 16.27,52.77 L16.03,39.34 L16,37.24 L16,37.24 Z" id="Path" fill="#696969"></path>
            <path d="M42.71,42.81 L41.93,58.95 C41.93,58.95 41.93,60.09 42.2,60.38 C42.48,60.66 43.33,60.38 43.33,60.38 L67.82,54.08 C67.82,54.08 68.51,53.92 68.94,53.35 C69.2325637,52.9108506 69.4238442,52.4121551 69.5,51.89 L71.05,35.86 L42.71,42.81 L42.71,42.81 Z" id="Path" fill="#696969"></path>
            <path d="M16.43,59.47 C15.9,59.85 15.9099868,60.64 15.9099868,60.64 L16.1,71.8 C16.1,71.8 16.1,73.2 16.53,73.9 C16.95,74.6 17.97,74.88 17.97,74.88 L33.51,79.23 C33.51,79.23 34.77,79.6 35.32,79.27 C35.87,78.93 35.82,77.83 35.82,77.83 L36.2,66.3 C36.2,66.3 36.23,65.1 35.69,64.38 C35.15,63.66 34.07,63.48 34.07,63.48 L17.89,59.23 C17.89,59.23 16.97,59.1 16.44,59.48 L16.43,59.47 Z" id="Path" fill="#E31E24"></path>
            <path d="M42.12,65.25 C41.56,65.98 41.65,67.05 41.65,67.05 L41.38,77.86 C41.38,77.86 41.22,79.32 41.65,79.71 C42.08,80.11 43.41,79.71 43.41,79.71 L64.91,74.09 C64.91,74.09 66.17,73.84 66.83,73.14 C67.5,72.43 67.47,71.36 67.47,71.36 L68.73,60.57 C68.73,60.57 69,59 68.51,58.52 C68.01,58.05 66.57,58.51 66.57,58.51 L43.74,64.3 C43.74,64.3 42.67,64.51 42.12,65.25 L42.12,65.25 Z" id="Path" fill="#E31E24"></path>
            <path d="M17.08,78.52 C16.63,78.89 16.68,79.97 16.68,79.97 L16.68,92.07 C16.68,92.07 35.42,97.87 35.42,97.6 C35.42,97.6 35.78,89.14 35.86,85.17 C35.8731698,84.4556162 35.6596144,83.7554346 35.25,83.17 C34.87,82.64 33.86,82.34 33.86,82.34 L18.6,78.36 C18.6,78.36 17.53,78.14 17.09,78.52 L17.08,78.52 Z" id="Path" fill="#E31E24"></path>
            <path d="M42.22,84.99 C41.74,85.59 41.59,86.34 41.59,86.34 L41.13,98.35 L65.2,91.32 L66.61,79.7 C66.61,79.7 66.83,78.16 66.44,77.75 C66.05,77.33 64.8,77.75 64.8,77.75 L43.7,83.72 C43.7,83.72 42.7,84.39 42.22,84.99 L42.22,84.99 Z" id="Path" fill="#E31E24"></path>
            <path d="M75.72,33.43 L81.33,22.53 L78.79,38.61 C78.79,38.61 78.73,39.03 78.61,39.47 C78.5359317,39.7300207 78.4423322,39.9840765 78.33,40.23 L74.15,49.09 C74.15,49.09 73.75,49.73 73.65,49.6 C73.6278913,49.2119264 73.6513852,48.8225989 73.72,48.44 L75.72,33.43 L75.72,33.43 Z" id="Path" fill="#696969"></path>
            <path d="M72.59,53.87 C72.85,52.97 73.16,52.48 73.16,52.48 L77.31,44.62 C77.31,44.62 77.8,43.63 77.89,43.67 C77.99,43.7 77.89,44.82 77.89,44.82 L75.32,60.45 L71.34,68.42 C71.34,68.42 70.77,69.42 70.68,69.42 C70.58,69.42 70.6,68.42 70.6,68.42 L72.2,55.74 C72.2,55.74 72.32,54.77 72.59,53.87 L72.59,53.87 Z" id="Path" fill="#009846"></path>
            <path d="M68.13,86.57 L73.03,75.04 L74.69,64.41 C74.69,64.41 74.82,63.48 74.69,63.31 C74.57,63.14 74.27,63.83 74.27,63.83 L70.68,71.31 C70.68,71.31 70.2,72.2 69.99,73 C69.78,73.8 69.6,75.04 69.6,75.04 L68.13,86.57 L68.13,86.57 Z" id="Path" fill="#009846"></path>
            <path d="M1.1,21.07 L11.22,35.97 L11.78,51.2 C11.78,51.2 11.76,52.28 11.34,52.3 C10.91,52.33 10.42,51.3 10.42,51.3 L2.72,38.2 C2.72,38.2 2.32,37.6 2.14,36.8 C1.95,35.99 1.93,34.78 1.93,34.78 L1.1,21.07 Z" id="Path" fill="#696969"></path>
            <path d="M2.7,41.9 C3.03,41.86 3.53,43.2 3.53,43.2 L10.47,54.67 C10.47,54.67 11.1,55.54 11.33,56.37 C11.4897767,57.1162827 11.5735377,57.8768324 11.58,58.64 L12.08,69.1 C12.08,69.1 12.18,70.65 11.84,70.9 C11.49,71.15 10.84,70 10.84,70 L4.22,57.98 C4.22,57.98 3.72,57.26 3.46,56.28 C3.21,55.3 3.14,53.84 3.14,53.84 L2.52,43.29 C2.52,43.29 2.36,41.92 2.7,41.89 L2.7,41.9 Z" id="Path" fill="#0062AC"></path>
            <path d="M12.52,89.53 L12.06,77.34 L11.81,75.44 L11.01,73.49 L4.14,60.13 C4.14,60.13 3.67,59.3 3.54,59.3 C3.4,59.3 3.32,60.13 3.32,60.13 L4.14,71.53 L12.52,89.53 L12.52,89.53 Z" id="Path" fill="#0062AC"></path>
            <path d="M122.26,4.17 C122.956153,3.85511284 123.688279,3.62674336 124.44,3.49 L145.64,0.24 C145.64,0.24 146.76,0.01 147.68,0.0196831145 C148.304402,0.0377753524 148.924887,0.124978631 149.53,0.28 L170.11,4.42 C170.11,4.42 171.9,4.65 173.21,5.29 C174.52,5.93 175.73,7.15 175.73,7.15 L187.21,17.28 C187.21,17.28 188.03,17.86 188.49,18.93 C188.94,20 188.930018,21.34 188.930018,21.34 L180.31,75.18 L174.19,89.65 C174.19,89.65 173.92,90.53 173.21,91.19 C172.5,91.85 171.48,92.17 171.48,92.17 L148.72,99.33 C148.72,99.33 147.36,99.76 145.86,99.72 C144.36,99.68 143.06,99.17 143.06,99.17 L123.04,92.73 C123.04,92.73 121.71,92.54 120.52,91.43 C119.32,90.3 118.53,88.5 118.53,88.5 L110.53,71.21 L107.37,21.19 C107.37,21.19 107.15,19.48 107.66,18.09 C108.17,16.71 109.46,15.53 109.46,15.53 L120.58,5.33 C120.58,5.33 121.25,4.65 122.26,4.17 L122.26,4.17 Z" id="Path" fill="#000000"></path>
            <path d="M172.54,6.1 L167.91,12.78 C167.91,12.78 167.67,13.56 167.78,13.91 C167.89,14.26 168.75,14.67 168.75,14.67 L186.25,18.39 L172.55,6.11 L172.54,6.1 Z" id="Path" fill="#696969"></path>
            <path d="M165.8,17.01 C166.32,16.81 167.33,16.9 167.33,16.9 L185.6,20.88 L179.9,31.33 L160.3,26.89 C160.3,26.89 159.8,26.72 159.65,26.17 C159.5,25.62 159.85,25.2 159.85,25.2 L164.72,17.96 C164.72,17.96 165.29,17.22 165.81,17.01 L165.8,17.01 Z" id="Path" fill="#FFED00"></path>
            <path d="M157.2,29.18 C156.805092,29.309727 156.459526,29.5575571 156.21,29.89 L149.2,39.76 L177.15,33.24 L158.42,29.04 C158.42,29.04 157.92,28.89 157.2,29.18 L157.2,29.18 Z" id="Path" fill="#696969"></path>
            <path d="M151.28,1.48 L145.02,8.72 C145.02,8.72 144.94,9.1 145.02,9.38 C145.094558,9.57873274 145.210444,9.75937914 145.36,9.91 L161.58,13.56 C161.58,13.56 162.37,13.64 163.16,13.32 C163.95,13 164.13,12.55 164.13,12.55 L169.09,5.14 L151.28,1.48 L151.28,1.48 Z" id="Path" fill="#696969"></path>
            <path d="M142.59,12.15 C143.07,11.97 144.01,11.92 144.01,11.92 L159.98,15.47 C159.98,15.47 160.6,15.62 160.9,16.05 C161.2,16.48 160.94,16.85 160.94,16.85 L155.56,24.32 C155.56,24.32 155.19,24.89 154.6,25.06 C154.01,25.23 153.04,25.2201108 153.04,25.2201108 L136.16,21.32 C136.16,21.32 135.49,21.02 135.35,20.59 C135.21,20.15 135.62,19.66 135.62,19.66 L141.55,12.87 C141.55,12.87 142.1,12.34 142.58,12.15 L142.59,12.15 Z" id="Path" fill="#FFED00"></path>
            <path d="M132.92,23.5 C133.51,23.33 134.37,23.43 134.37,23.43 L151.81,27.59 C151.81,27.59 152.34,27.62 152.54,28.06 C152.74,28.5 152.48,29.04 152.48,29.04 L151.82,29.96 L144.47,39.3 L123.57,33.6 L131.88,24.21 C131.88,24.21 132.34,23.66 132.92,23.5 L132.92,23.5 Z" id="Path" fill="#FFED00"></path>
            <path d="M109.68,17.36 L127.55,21.71 C127.55,21.71 128.28,22.11 128.43,22.34 C128.58,22.57 128.18,23.24 128.18,23.24 L119.58,32.29 L109.68,17.36 Z" id="Path" fill="#696969"></path>
            <path d="M111.46,15.4 L120.66,6.87 L136.54,10.3 C136.54,10.3 137.31,10.5 137.64,11.01 C137.96,11.52 137.6,11.95 137.6,11.95 L131.77,18.37 C131.77,18.37 131.07,19.11 130.3,19.32 C129.53,19.54 128.28,19.32 128.28,19.32 L111.46,15.39 L111.46,15.4 Z" id="Path" fill="#FFED00"></path>
            <path d="M123.52,4.42 L138.78,7.98 C139.341044,8.14787845 139.938956,8.14787845 140.5,7.98 C141.47,7.71 141.8,7.12 141.8,7.12 L147.68,0.51 L123.52,4.42 L123.52,4.42 Z" id="Path" fill="#696969"></path>
            <path d="M123,37.24 L124.85,37.7 L143.67,42.49 L143.24,54.61 L143.11,58.02 C143.11,58.02 142.91,59.28 142.49,59.71 C142.06,60.14 140.72,59.71 140.72,59.71 L124.96,55.55 C124.96,55.55 124.16,55.27 123.71,54.55 C123.27,53.82 123.27,52.77 123.27,52.77 L123.03,39.34 L123,37.24 L123,37.24 Z" id="Path" fill="#696969"></path>
            <path d="M149.71,42.81 L148.93,58.95 C148.93,58.95 148.93,60.09 149.2,60.38 C149.48,60.66 150.33,60.38 150.33,60.38 L174.82,54.08 C174.82,54.08 175.51,53.92 175.94,53.35 C176.38,52.78 176.5,51.89 176.5,51.89 L178.05,35.86 L149.71,42.81 L149.71,42.81 Z" id="Path" fill="#696969"></path>
            <path d="M123.43,59.47 C122.9,59.85 122.909987,60.64 122.909987,60.64 L123.1,71.81 C123.1,71.81 123.1,73.21 123.53,73.91 C123.95,74.61 124.97,74.89 124.97,74.89 L140.51,79.24 C140.51,79.24 141.77,79.61 142.32,79.28 C142.88,78.94 142.82,77.84 142.82,77.84 L143.19,66.29 C143.19,66.29 143.22,65.09 142.68,64.37 C142.14,63.65 141.06,63.47 141.06,63.47 L124.88,59.22 C124.88,59.22 123.96,59.09 123.43,59.47 L123.43,59.47 Z" id="Path" fill="#E31E24"></path>
            <path d="M149.12,65.25 C148.56,65.98 148.65,67.05 148.65,67.05 L148.38,77.86 C148.38,77.86 148.22,79.32 148.65,79.71 C149.09,80.11 150.41,79.71 150.41,79.71 L171.91,74.09 C171.91,74.09 173.17,73.84 173.84,73.14 C174.5,72.43 174.47,71.36 174.47,71.36 L175.73,60.57 C175.73,60.57 176,58.99 175.51,58.52 C175.01,58.05 173.57,58.51 173.57,58.51 L150.75,64.3 C150.75,64.3 149.68,64.51 149.12,65.25 Z" id="Path" fill="#E31E24"></path>
            <path d="M124.08,78.52 C123.63,78.89 123.68,79.97 123.68,79.97 L123.68,92.07 C123.68,92.07 142.42,97.87 142.42,97.6 C142.42,97.6 142.78,89.14 142.86,85.17 C142.87317,84.4556162 142.659614,83.7554346 142.25,83.17 C141.87,82.64 140.86,82.34 140.86,82.34 L125.59,78.36 C125.59,78.36 124.52,78.14 124.08,78.52 L124.08,78.52 Z" id="Path" fill="#E31E24"></path>
            <path d="M149.22,84.99 C148.74,85.59 148.59,86.34 148.59,86.34 L148.13,98.35 L172.2,91.32 L173.62,79.7 C173.62,79.7 173.82,78.16 173.44,77.75 C173.05,77.33 171.8,77.75 171.8,77.75 L150.7,83.72 C150.7,83.72 149.7,84.39 149.22,84.99 L149.22,84.99 Z" id="Path" fill="#E31E24"></path>
            <path d="M182.72,33.43 L188.33,22.53 L185.79,38.61 C185.79,38.61 185.73,39.03 185.61,39.47 C185.48,39.91 185.33,40.23 185.33,40.23 L181.15,49.09 C181.15,49.09 180.75,49.73 180.65,49.6 C180.57,49.47 180.72,48.44 180.72,48.44 L182.72,33.43 Z" id="Path" fill="#696969"></path>
            <path d="M179.59,53.87 C179.85,52.97 180.16,52.48 180.16,52.48 L184.31,44.62 C184.31,44.62 184.8,43.63 184.89,43.67 C184.99,43.7 184.89,44.82 184.89,44.82 L182.32,60.45 L178.34,68.42 C178.34,68.42 177.77,69.42 177.68,69.42 C177.58,69.42 177.6,68.42 177.6,68.42 L179.2,55.74 C179.2,55.74 179.32,54.77 179.59,53.87 L179.59,53.87 Z" id="Path" fill="#009846"></path>
            <path d="M175.13,86.57 L180.03,75.04 L181.69,64.41 C181.69,64.41 181.82,63.48 181.69,63.31 C181.57,63.14 181.26,63.83 181.26,63.83 L177.68,71.31 C177.68,71.31 177.2,72.19 176.99,73 C176.78,73.8 176.6,75.04 176.6,75.04 L175.13,86.57 L175.13,86.57 Z" id="Path" fill="#009846"></path>
            <path d="M108.1,21.07 L118.22,35.97 L118.78,51.2 C118.78,51.2 118.76,52.28 118.33,52.3 C117.91,52.33 117.43,51.3 117.43,51.3 L109.71,38.2 C109.71,38.2 109.33,37.6 109.14,36.8 C108.95,35.99 108.92,34.78 108.92,34.78 L108.1,21.07 L108.1,21.07 Z" id="Path" fill="#696969"></path>
            <path d="M109.7,41.9 C110.03,41.86 110.53,43.2 110.53,43.2 L117.47,54.67 C117.47,54.67 118.1,55.54 118.33,56.37 C118.57,57.21 118.58,58.64 118.58,58.64 L119.08,69.1 C119.08,69.1 119.18,70.65 118.83,70.9 C118.49,71.15 117.85,70 117.85,70 L111.22,57.98 C111.22,57.98 110.72,57.26 110.46,56.28 C110.21,55.3 110.14,53.84 110.14,53.84 L109.51,43.29 C109.51,43.29 109.36,41.92 109.69,41.89 L109.7,41.9 Z" id="Path" fill="#0062AC"></path>
            <path d="M119.52,89.53 L119.06,77.34 L118.81,75.44 L118.01,73.49 L111.14,60.13 C111.14,60.13 110.67,59.3 110.54,59.3 C110.4,59.3 110.31,60.13 110.31,60.13 L111.14,71.53 L119.52,89.53 Z" id="Path" fill="#0062AC"></path>
        </g>
    </g>
</svg>