<?xml version="1.0" encoding="UTF-8"?>
<svg width="83px" height="100px" viewBox="0 0 83 100" version="1.1" xmlns="http://www.w3.org/2000/svg" xmlns:xlink="http://www.w3.org/1999/xlink">
    <title>prisma_4_2</title>
    <g id="Prisma" stroke="none" stroke-width="1" fill="none" fill-rule="evenodd">
        <g id="prisma_4_2" fill-rule="nonzero">
            <path d="M20.07,1.57 C20.07,1.57 20.95,1.3 21.51,1.27 C27.02,1.04 34.38,0.47 45.21,0.01 C45.59,1.00613962e-16 45.81,-0.04 46.38,0.21 C46.7771065,0.408843458 47.135956,0.676287851 47.44,1 L64.56,16.66 C64.56,16.66 64.96,16.86 65.49,17.58 C66.01,18.3 66.15,18.68 66.39,19.18 L67.12,20.61 C74.92,36.07 79.76,44.95 81.67,48.73 C82.29,49.95 82.3,50.3 82.5,50.96 C82.7,51.61 82.54,52.41 82.5,52.96 L81.23,72.3 C81.13,73.9 80.73,74.43 80.73,74.43 C80.73,74.43 79.88,74.86 79.35,74.93 C77.7909688,75.0913133 76.2369746,75.2980679 74.69,75.55 L74.01,80.13 C73.93,80.64 73.94,80.75 73.51,81.55 C73.08,82.36 72.5,83 72.5,83 L60.03,95.77 C60.03,95.77 59.49,96.58 58.53,97 C57.57,97.41 56.44,97.31 56.44,97.31 L30.7,99.8 C30.7,99.8 29.87,99.98 29.05,99.8 C28.22,99.62 27.45,99.1 27.45,99.1 L5.9,88.75 C5.9,88.75 5.22,88.5 4.87,87.88 C4.53,87.25 4.52,86.24 4.52,86.24 L2.57,56.8 L0.06,22.82 C0.06,22.82 -0.08,21.58 0.06,20.92 C0.19,20.26 0.35,20.05 0.68,19.72 L18.73,2.4 C19.47,1.7 20.07,1.57 20.07,1.57 Z" id="Path" fill="#000000"></path>
            <polygon id="Path" fill="#696969" points="60.06 34.65 59.96 53.01 80.43 52.48"></polygon>
            <polygon id="Path" fill="#696969" points="29.82 36.11 29.82 54.49 8.2 56.16 29.82 36.1"></polygon>
            <polygon id="Path" fill="#696969" points="34.13 34.95 33.76 53.72 55.02 52.52 55.71 34.11 34.13 34.95"></polygon>
            <polygon id="Path" fill="#696969" points="59.96 56.78 59.01 74.44 78.86 73.17 79.94 55.68 59.96 56.78"></polygon>
            <polygon id="Path" fill="#E31E24" points="59 78.47 58.44 95.54 72.95 81.16 73.4 75 62.84 75.6 59.02 78.48"></polygon>
            <polygon id="Path" fill="#E31E24" points="33.78 57.86 54.75 56.81 53.97 74.56 33.22 76.26 33.78 57.86"></polygon>
            <polygon id="Path" fill="#E31E24" points="33.37 80.38 54.23 78.84 53.65 96.08 32.63 98.21 33.37 80.38"></polygon>
            <polygon id="Path" fill="#0062AC" points="22.72 78.39 28.46 80.89 27.84 98.21 5.39 87.31 5.39 79.64 22.72 78.39"></polygon>
            <polygon id="Path" fill="#BDBDBD" points="7.1 59.88 6.7 77.79 28.75 76.26 29.38 58.12 7.11 59.88"></polygon>
            <polygon id="Path" fill="#696969" points="57.02 21.94 61.49 31.75 81.47 49.28 75.37 37.82 57.02 21.94"></polygon>
            <polygon id="Path" fill="#0062AC" points="51.8 10.78 55.55 18.86 73.42 34.11 69.13 25.78 51.81 10.78"></polygon>
            <polygon id="Path" fill="#696969" points="48.42 2.48 51.23 9.03 68.96 25.1 65.32 17.83 48.42 2.47"></polygon>
            <polygon id="Path" fill="#696969" points="24.2 2.48 43.2 1.58 46.17 8.9 26.31 9.7"></polygon>
            <polygon id="Path" fill="#FFED00" points="26.98 11.53 46.72 10.78 50.26 19.1 29.6 20.31 26.98 11.53"></polygon>
            <polygon id="Path" fill="#696969" points="30.63 22.45 51.13 21.36 55.71 30.96 33.8 32.26 30.63 22.45"></polygon>
            <polygon id="Path" fill="#696969" points="19.11 3.21 0.5 20.95 1.71 28.15 21.11 9.7"></polygon>
            <polygon id="Path" fill="#696969" points="22.08 12.92 2.58 30.63 4.24 39.67 24.2 21.36"></polygon>
            <polygon id="Path" fill="#696969" points="4.23 42.87 6.03 52.82 27.58 32.94 24.71 23.38 4.23 42.88"></polygon>
            <path d="M66.58,25.86 C66.8479492,25.6224184 66.9687962,25.2599347 66.8970191,24.9090931 C66.825242,24.5582515 66.5717454,24.2723531 66.2320191,24.1590931 C65.8922928,24.0458331 65.5179492,24.1224184 65.25,24.36 L66.58,25.86 L66.58,25.86 Z M20.1,65 C20.0836006,65.265334 20.1735261,65.5262777 20.3499078,65.7251761 C20.5262894,65.9240746 20.7746087,66.0445559 21.04,66.06 L30.03,66.57 C30.5822847,66.6003757 31.0546243,66.1772847 31.085,65.625 C31.1153757,65.0727153 30.6922847,64.6003757 30.14,64.57 L22.16,64.12 L22.61,56.13 C22.6403756,55.5777153 22.2172847,55.1053757 21.665,55.0750001 C21.1127153,55.0446244 20.6403757,55.4677153 20.61,56.02 L20.13,65 L20.1,65 Z M65.24,24.36 L20.44,64.31 L21.77,65.81 L66.57,25.86 L65.24,24.36 Z" id="Shape" fill="#FFFFFF"></path>
        </g>
    </g>
</svg>