<?xml version="1.0" encoding="UTF-8"?>
<svg width="95px" height="100px" viewBox="0 0 95 100" version="1.1" xmlns="http://www.w3.org/2000/svg" xmlns:xlink="http://www.w3.org/1999/xlink">
    <title>sudoku_5_6</title>
    <g id="Sudoku" stroke="none" stroke-width="1" fill="none" fill-rule="evenodd">
        <g id="sudoku_5_6" fill-rule="nonzero">
            <polygon id="Path" fill="#000000" points="0.15 22.55 40.55 0.15 92.7 10.2 92.7 64.45 60.45 97.7 9.35 77.95"></polygon>
            <polygon id="Path" fill="#424242" points="50.35 22.95 68.3 27.5 56.2 36.6 37.55 31.55"></polygon>
            <polygon id="Path" fill="#424242" points="62.95 14.5 80.9 18.3 69.6 26.45 51.6 22.25"></polygon>
            <polygon id="Path" fill="#424242" points="74.25 6.95 91.25 10.25 81.8 17.45 64.2 13.75"></polygon>
            <polygon id="Path" fill="#424242" points="56.6 3.65 72.45 6.65 62.3 13.35 46.2 10.05"></polygon>
            <polygon id="Path" fill="#424242" points="45.05 10.85 61.4 14.1 49.75 21.9 33.1 18"></polygon>
            <polygon id="Path" fill="#424242" points="31.9 18.85 48.5 22.65 35.95 31.25 18.9 26.95"></polygon>
            <polygon id="Path" fill="#424242" points="15.15 14.85 30.4 18.4 17.05 26.3 1.55 22.35"></polygon>
            <polygon id="Path" fill="#424242" points="28.6 7.4 43.5 10.45 31.65 17.55 16.55 13.95"></polygon>
            <polygon id="Path" fill="#424242" points="40.55 0.6 55.05 3.3 44.6 9.75 29.7 6.7"></polygon>
            <polygon id="Path" fill="#424242" points="37 33.25 55.5 38.15 56.7 57.95 38.65 52.45"></polygon>
            <polygon id="Path" fill="#424242" points="18.1 28.1 35.1 32.55 37.1 51.9 20.6 46.8"></polygon>
            <polygon id="Path" fill="#424242" points="0.75 23.6 16.35 27.55 18.95 46.3 3.75 41.6"></polygon>
            <polygon id="Path" fill="#696969" points="39.25 54.25 56.85 59.8 58.15 78.1 40.95 71.95"></polygon>
            <polygon id="Path" fill="#424242" points="21 48.75 37.3 53.7 39.1 71.3 23.25 65.8"></polygon>
            <polygon id="Path" fill="#424242" points="4.15 43.35 19.2 48.05 21.55 65.15 6.95 60.15"></polygon>
            <polygon id="Path" fill="#424242" points="41.15 73.8 58.25 79.8 59.35 96.7 42.75 90.2"></polygon>
            <polygon id="Path" fill="#424242" points="23.45 67.55 39.45 73.2 41.05 89.6 25.6 83.45"></polygon>
            <polygon id="Path" fill="#424242" points="7.3 61.75 21.8 66.95 24.1 82.95 9.8 77.4"></polygon>
            <polygon id="Path" fill="#424242" points="57.4 37.9 69.55 28.65 70.1 47.95 58.5 57.8"></polygon>
            <polygon id="Path" fill="#424242" points="70.85 27.65 81.6 19.45 81.85 38.05 71.4 46.9"></polygon>
            <polygon id="Path" fill="#424242" points="82.75 18.65 92.25 11.5 92.3 29.1 83 36.95"></polygon>
            <polygon id="Path" fill="#696969" points="58.8 59.75 70.1 49.65 70.85 67.3 59.75 77.95"></polygon>
            <polygon id="Path" fill="#424242" points="71.5 48.7 81.95 39.7 82.2 56.9 72 66.35"></polygon>
            <polygon id="Path" fill="#424242" points="83.05 38.85 92.25 30.85 92.2 47.2 83.2 56.05"></polygon>
            <polygon id="Path" fill="#424242" points="59.85 79.6 71.05 69.05 71.75 85.4 60.85 96.65"></polygon>
            <polygon id="Path" fill="#424242" points="72.2 68.25 82.3 58.45 82.5 74.3 72.75 84.35"></polygon>
            <polygon id="Path" fill="#424242" points="83.25 57.5 92.25 48.85 92.2 64.35 83.4 73.3"></polygon>
            <path d="M31.5,44.35 L31.65,46.4 L23.75,44.15 C23.9,40.25 29,40.05 28.8,37.5 C28.7,35.75 26.75,35.15 26.1,35.65 C25.85,35.85 25.7,36.25 25.7,36.9 L23.45,36.05 C23.55,33.65 25,33.1 27.1,33.7 C30.4,34.65 32.4,38.15 30.1,40.65 C29.25,41.55 27.55,42.2 27.05,43.1 L31.5,44.35 L31.5,44.35 Z" id="Path" fill="#FFFFFF"></path>
            <path d="M48.65,72.55 C49.45,72.65 49.45,73.95 48.65,73.8 C47.9,73.65 47.9,72.4 48.65,72.55 Z" id="Path" fill="#FFFFFF"></path>
            <path d="M49.8,90.75 C50.55,90.85 50.55,92.05 49.8,91.95 C49.05,91.8 49.05,90.6 49.8,90.75 Z" id="Path" fill="#FFFFFF"></path>
            <path d="M52,63.5 L49.85,63.2 C49.55,61.55 47.95,61.15 47.3,61.9 C47,62.25 46.85,63.1 46.85,64.4 C48.5,62.75 52.35,65.05 52.6,68.6 C52.85,72.75 48.3,72.55 46.05,69.5 C44.45,67.4 43.85,62 45.45,60.4 C47.1,58.75 51.15,59.8 52,63.5 L52,63.5 Z M47.2,67.1 C47.4,69.85 50.6,71.15 50.35,68.05 C50.15,65.1 47.05,64.45 47.2,67.1 Z" id="Shape" fill="#FFFFFF"></path>
            <path d="M26.35,60.8 L28.4,61.1 C28.8,63.1 31.6,64.05 31.4,61.25 C31.25,59 29.2,58.3 28.15,59.25 L26.45,58.6 L27.1,53.4 L32.55,54.75 L32.7,56.65 L28.8,55.65 L28.6,57.4 C31.8,56.6 34.95,61.45 32.9,63.9 C31.35,65.8 27.05,64.2 26.35,60.8 L26.35,60.8 Z" id="Path" fill="#FFFFFF"></path>
            <path d="M13.75,59.3 L13.45,57.15 L9.35,55.85 L9.1,54.05 L12.55,48.7 L14.15,49.2 L15.05,56 L16.3,56.4 L16.55,58.15 L15.3,57.75 L15.6,59.9 L13.75,59.3 L13.75,59.3 Z M13.2,55.4 L12.7,51.75 L10.9,54.65 L13.2,55.4 Z" id="Shape" fill="#FFFFFF"></path>
            <path d="M46.5,86.1 L48.5,86.45 C48.8,87.95 50.2,88.4 50.8,87.7 C51.1,87.4 51.2,86.65 51.2,85.45 C49.7,86.85 46.15,84.65 45.85,81.4 C45.55,77.65 49.75,77.95 51.9,80.8 C53.35,82.75 53.95,87.7 52.55,89.15 C51.05,90.6 47.3,89.65 46.5,86.1 L46.5,86.1 Z M50.8,82.95 C50.6,80.45 47.7,79.15 47.9,81.95 C48.15,84.7 51,85.4 50.8,82.95 Z" id="Shape" fill="#FFFFFF"></path>
            <path d="M30.05,76.65 C27.55,74.85 27.6,71.25 31.2,72.5 C34.75,73.8 35.6,77.65 33.35,77.85 C36.35,80 36.15,84.25 32.35,82.95 C28.5,81.55 27.3,76.85 30.05,76.65 Z M30.25,74.85 C30.4,76.5 32.9,77.4 32.7,75.7 C32.55,74.1 30.05,73.2 30.25,74.85 Z M30.5,79.15 C30.75,81.35 33.65,82.5 33.4,80.15 C33.15,78.05 30.3,77 30.5,79.15 L30.5,79.15 Z" id="Shape" fill="#FFFFFF"></path>
            <path d="M12.2,67.75 L12,65.95 L18.15,68.25 L18.3,69.65 C16.5,71.1 15.85,74.7 16.1,77.05 L14.4,76.4 C14.15,73.9 14.7,71.1 16.3,69.3 L12.2,67.75 Z" id="Path" fill="#FFFFFF"></path>
            <path d="M78.85,34.25 L78.9,36.3 L74.05,40.8 C74.2,36.5 77.35,31.9 77.25,29.35 C77.15,27.35 75.35,28.8 75.3,31.4 L73.95,32.45 C74,30.25 74.7,28.25 76.2,26.8 C78.45,24.75 78.9,27.4 78.5,29.6 C78.05,32.3 76.6,34.8 76.1,36.8 L78.85,34.25 Z" id="Path" fill="#FFFFFF"></path>
            <path d="M65.35,68.9 L65.3,66.55 L62.3,69.3 L62.25,67.35 L65.15,57.1 L66.35,56 L66.6,63.4 L67.5,62.55 L67.55,64.5 L66.65,65.3 L66.75,67.65 L65.35,68.9 L65.35,68.9 Z M65.25,64.6 L65.1,60.65 L63.55,66.15 L65.25,64.6 L65.25,64.6 Z" id="Shape" fill="#FFFFFF"></path>
            <path d="M88.15,49.45 C88.55,49.4 88.65,49.6 88.6,49.95 C88.4,50.9 87.35,50.55 87.85,49.7 L88.15,49.45 L88.15,49.45 Z" id="Path" fill="#FFFFFF"></path>
            <path d="M88.35,66.35 C88.7,66.3 88.85,66.45 88.8,66.85 C88.6,67.8 87.5,67.45 88.05,66.6 L88.35,66.35 L88.35,66.35 Z" id="Path" fill="#FFFFFF"></path>
            <path d="M74.65,57.05 L75.95,55.65 C76.15,57.55 77.95,56.05 77.95,53.25 C77.9,52.3 77.65,51.45 76.85,52.15 C76.5,52.5 76.15,53.1 75.85,53.9 L74.75,54.6 L75.35,48.35 L78.9,45.2 L78.9,47.15 L76.4,49.4 L76.2,51.45 C78.3,47.85 80.25,50.4 78.85,54.8 C77.8,58.05 75,60.25 74.65,57.05 L74.65,57.05 Z" id="Path" fill="#FFFFFF"></path>
            <path d="M90.15,38.3 L88.85,39.65 C88.8,38.25 87.85,39.2 87.45,40.3 C87.25,40.85 87.1,41.75 87.05,43 C88.1,40.25 90.25,39.5 90.2,42.7 C90.15,46.3 87.5,49.7 86.25,48.45 C85.25,47.45 85.15,40.15 88.25,37.4 C89.35,36.45 90,36.9 90.15,38.3 L90.15,38.3 Z M87.1,45.3 C87.05,47.8 88.85,46.55 88.9,43.85 C88.95,41.1 87.15,43 87.1,45.3 Z" id="Shape" fill="#FFFFFF"></path>
            <path d="M63.6,81.55 L63.6,79.65 L68.2,74.9 L68.2,76.45 C67.8,77.4 67.45,78.6 67.05,80.1 C66.65,81.6 66.35,83.05 66.15,84.45 C65.95,85.9 65.9,87.1 65.9,88.05 L64.6,89.35 C64.65,86 65.55,81.8 66.65,78.4 L63.6,81.55 L63.6,81.55 Z" id="Path" fill="#FFFFFF"></path>
            <path d="M76.15,71.5 C74.65,71.95 74.9,67.9 77,65.85 C79.15,63.65 79.5,67.2 78.15,69.5 C80.05,68.85 79.6,73.85 77.4,76.05 C75,78.45 74.5,74.3 76.15,71.5 L76.15,71.5 Z M76.35,69.3 C76.4,71 77.9,69.4 77.85,67.8 C77.75,66.2 76.3,67.7 76.35,69.3 Z M76.4,73.7 C76.45,75.95 78.2,74.25 78.15,72 C78.05,69.9 76.3,71.65 76.4,73.7 Z" id="Shape" fill="#FFFFFF"></path>
            <path d="M86.25,64.8 L87.4,63.5 C87.5,64.8 88.35,63.9 88.75,62.8 C88.9,62.3 89.05,61.5 89.1,60.35 C88.1,62.9 86.15,63.75 86.2,60.8 C86.25,57.55 88.7,54.3 89.85,55.35 C90.75,56.15 90.85,62.85 87.95,65.55 C86.95,66.5 86.4,66.2 86.25,64.8 L86.25,64.8 Z M89.05,58.25 C89.1,55.95 87.45,57.25 87.4,59.7 C87.35,62.2 89,60.35 89.05,58.25 Z" id="Shape" fill="#FFFFFF"></path>
            <path d="M32.95,23.7 C31.75,22.4 35.6,20.8 38.55,21.9 C41.7,23 38.65,24.95 35.85,24.7 C37.4,26.2 32.6,28.1 29.4,27 C25.95,25.75 29.5,23.4 32.95,23.7 L32.95,23.7 Z M35.05,22.85 C33.55,23.7 35.75,24.4 37.2,23.6 C38.65,22.8 36.5,22.1 35.05,22.85 Z M31.05,24.9 C29,26.05 31.45,26.95 33.5,25.85 C35.4,24.8 32.9,23.9 31.05,24.9 Z" id="Shape" fill="#FFFFFF"></path>
            <path d="M71.95,19.85 L69.85,19.5 C70.8,18.7 69.15,18.45 68,18.7 C67.45,18.8 66.7,19.15 65.7,19.75 C68.7,19.2 71.2,20.55 68.85,22.15 C66.2,23.95 61.35,23.5 61.1,21.9 C60.9,20.6 66,16.75 70.85,17.85 C72.15,18.15 73.05,18.8 71.95,19.85 L71.95,19.85 Z M64.15,20.95 C62.3,22.25 64.85,23.05 66.85,21.7 C68.9,20.3 65.8,19.85 64.15,20.95 L64.15,20.95 Z" id="Shape" fill="#FFFFFF"></path>
            <path d="M43,16.45 L44.95,16.8 C43.8,17.8 46.2,18.45 48.1,17.15 C48.95,16.6 49,16.15 48.05,15.9 C47.55,15.8 46.9,15.8 46.1,15.9 L44.8,15.45 L49.55,13.1 L54.4,14.3 L53.1,15.15 L49.6,14.35 L48.1,15.1 C52.15,15.05 51.8,17.6 47.7,18.55 C44.7,19.2 41.05,18.15 43,16.45 L43,16.45 Z" id="Path" fill="#FFFFFF"></path>
            <path d="M61.5,23.3 C62.25,23.3 62.25,24 61.5,24 C60.75,24 60.75,23.3 61.5,23.3 Z" id="Path" fill="#FFFFFF"></path>
        </g>
    </g>
</svg>