<?xml version="1.0" encoding="UTF-8"?>
<svg width="95px" height="100px" viewBox="0 0 95 100" version="1.1" xmlns="http://www.w3.org/2000/svg" xmlns:xlink="http://www.w3.org/1999/xlink">
    <title>sudoku_2_2</title>
    <g id="Sudoku" stroke="none" stroke-width="1" fill="none" fill-rule="evenodd">
        <g id="sudoku_2_2" fill-rule="nonzero">
            <polygon id="Path" fill="#000000" points="0.0772357724 22.8923077 41.3443089 0.0692307692 94.6215447 10.2923077 94.598374 65.4692308 61.6727642 99.3153846 9.46138211 79.2076923"></polygon>
            <polygon id="Path" fill="#424242" points="51.354065 23.3 69.7052846 27.8846154 57.3089431 37.1461538 38.2934959 32.0076923"></polygon>
            <polygon id="Path" fill="#424242" points="64.2369919 14.6846154 82.5418699 18.5384615 71.0337398 26.8307692 52.6439024 22.5692308"></polygon>
            <polygon id="Path" fill="#424242" points="75.745122 7.01538462 93.1231707 10.3538462 83.4609756 17.6923077 65.5036585 13.9307692"></polygon>
            <polygon id="Path" fill="#424242" points="57.749187 3.64615385 73.9146341 6.69230769 63.5804878 13.5153846 47.1215447 10.1769231"></polygon>
            <polygon id="Path" fill="#424242" points="45.9321138 10.9769231 62.6150407 14.2769231 50.7439024 22.2 33.7365854 18.2615385"></polygon>
            <polygon id="Path" fill="#424242" points="32.4930894 19.0846154 49.4617886 22.9846154 36.6638211 31.7307692 19.2471545 27.3384615"></polygon>
            <polygon id="Path" fill="#424242" points="15.4239837 15.0538462 30.9638211 18.6307692 17.3471545 26.6923077 1.52926829 22.6615385"></polygon>
            <polygon id="Path" fill="#424242" points="29.1333333 7.44615385 44.3487805 10.5615385 32.2536585 17.8 16.8528455 14.1384615"></polygon>
            <polygon id="Path" fill="#424242" points="41.3674797 0.546153846 56.1735772 3.27692308 45.4995935 9.85384615 30.2841463 6.76153846"></polygon>
            <polygon id="Path" fill="#424242" points="37.7373984 33.7538462 56.6369919 38.7461538 57.8341463 58.8615385 39.3979675 53.2692308"></polygon>
            <polygon id="Path" fill="#424242" points="18.4130081 28.5230769 35.7910569 33.0615385 37.8146341 52.7230769 20.9926829 47.5461538"></polygon>
            <polygon id="Path" fill="#424242" points="0.702845528 23.9461538 16.6520325 27.9769231 19.2780488 47.0384615 3.78455285 42.2692308"></polygon>
            <polygon id="Path" fill="#424242" points="39.9926829 55.1 58.0117886 60.7846154 59.301626 79.3923077 41.7382114 73.1153846"></polygon>
            <polygon id="Path" fill="#424242" points="21.3634146 49.5153846 38.0463415 54.5538462 39.8382114 72.4692308 23.6573171 66.8769231"></polygon>
            <polygon id="Path" fill="#424242" points="4.15528455 44.0153846 19.548374 48.8230769 21.9426829 66.1923077 7.05162602 61.1076923"></polygon>
            <polygon id="Path" fill="#424242" points="41.9699187 74.9923077 59.4406504 81.1307692 60.545122 98.3153846 43.5841463 91.6692308"></polygon>
            <polygon id="Path" fill="#424242" points="23.8890244 68.6692308 40.2089431 74.3923077 41.8695122 91.0769231 26.051626 84.8"></polygon>
            <polygon id="Path" fill="#424242" points="7.37601626 62.7538462 22.1743902 68.0230769 24.5223577 84.2923077 9.94796748 78.6538462"></polygon>
            <polygon id="Path" fill="#424242" points="58.5369919 38.4692308 70.9410569 29.0769231 71.5434959 48.7307692 59.6878049 58.7230769"></polygon>
            <polygon id="Path" fill="#424242" points="72.2926829 28.0692308 83.2756098 19.7307692 83.5073171 38.6538462 72.8410569 47.6307692"></polygon>
            <polygon id="Path" fill="#424242" points="84.4418699 18.9 94.1349593 11.6153846 94.1813008 29.5307692 84.7121951 37.5076923"></polygon>
            <polygon id="Path" fill="#424242" points="60.0044715 60.6923077 71.5434959 50.4307692 72.2772358 68.3923077 60.9699187 79.2076923"></polygon>
            <polygon id="Path" fill="#424242" points="72.9337398 49.4692308 83.6463415 40.3 83.8703252 57.8076923 73.4898374 67.4307692"></polygon>
            <polygon id="Path" fill="#424242" points="84.7585366 39.4307692 94.1349593 31.3230769 94.0886179 47.9538462 84.897561 56.9384615"></polygon>
            <polygon id="Path" fill="#424242" points="61.0626016 80.9 72.5089431 70.1769231 73.1963415 86.8153846 62.0743902 98.2230769"></polygon>
            <polygon id="Path" fill="#424242" points="73.6752033 69.3538462 83.9630081 59.4076923 84.1947154 75.4923077 74.2235772 85.7615385"></polygon>
            <polygon id="Path" fill="#424242" points="84.9747967 58.4 94.1658537 49.6076923 94.1195122 65.3692308 85.1138211 74.4846154"></polygon>
            <path d="M46.6813008,19.0923077 L44.8044715,18.6461538 L50.2573171,15.0076923 C49.0833333,15.1769231 47.9093496,15.2230769 46.7430894,15.1538462 C48.7666667,13.8076923 47.299187,14.5 50.35,14.2 C53.7097561,13.8615385 51.3695122,13.3538462 54.2504065,14.0461538 L46.6813008,19.0923077 L46.6813008,19.0923077 Z" id="Path" fill="#FFFFFF"></path>
            <path d="M27.696748,54.6230769 L29.797561,55.1384615 L30.345935,62.9153846 C31.0642276,62.3923077 31.9292683,62.0923077 32.9487805,62.0153846 L33.0800813,63.8846154 C32.0219512,63.9692308 30.5621951,64.6307692 30.1682927,65.8384615 L28.4613821,65.4230769 L27.696748,54.6230769 L27.696748,54.6230769 Z" id="Path" fill="#FFFFFF"></path>
            <path d="M78.2939024,48.4307692 L78.3247967,50.6461538 L81.2134146,47.7769231 L81.2443089,49.6153846 L78.2861789,59.6615385 L77.1430894,60.8 L77.0426829,53.8 L76.1621951,54.6692308 L76.1313008,52.8230769 L77.0117886,51.9538462 L76.9808943,49.7384615 L78.2939024,48.4307692 L78.2939024,48.4307692 Z M78.3556911,52.4923077 L78.4097561,56.2538462 L79.9699187,50.8846154 L78.3556911,52.4923077 L78.3556911,52.4923077 Z" id="Shape" fill="#FFFFFF"></path>
        </g>
    </g>
</svg>