<?xml version="1.0" encoding="UTF-8"?>
<svg width="95px" height="100px" viewBox="0 0 95 100" version="1.1" xmlns="http://www.w3.org/2000/svg" xmlns:xlink="http://www.w3.org/1999/xlink">
    <title>sudoku_1_10</title>
    <g id="Sudoku" stroke="none" stroke-width="1" fill="none" fill-rule="evenodd">
        <g id="sudoku_1_10" fill-rule="nonzero">
            <polygon id="Path" fill="#000000" points="0.0772357724 22.8923077 41.3443089 0.0692307692 94.6215447 10.2923077 94.598374 65.4692308 61.6727642 99.3153846 9.46138211 79.2076923"></polygon>
            <polygon id="Path" fill="#424242" points="51.354065 23.3 69.7052846 27.8846154 57.3089431 37.1461538 38.2934959 32.0076923"></polygon>
            <polygon id="Path" fill="#424242" points="64.2369919 14.6846154 82.5418699 18.5384615 71.0337398 26.8307692 52.6439024 22.5692308"></polygon>
            <polygon id="Path" fill="#424242" points="75.745122 7.01538462 93.1231707 10.3538462 83.4609756 17.6923077 65.5036585 13.9307692"></polygon>
            <polygon id="Path" fill="#424242" points="57.749187 3.64615385 73.9146341 6.69230769 63.5804878 13.5153846 47.1215447 10.1769231"></polygon>
            <polygon id="Path" fill="#424242" points="45.9321138 10.9769231 62.6150407 14.2769231 50.7439024 22.2 33.7365854 18.2615385"></polygon>
            <polygon id="Path" fill="#424242" points="32.4930894 19.0846154 49.4617886 22.9846154 36.6638211 31.7307692 19.2471545 27.3384615"></polygon>
            <polygon id="Path" fill="#424242" points="15.4239837 15.0538462 30.9638211 18.6307692 17.3471545 26.6923077 1.52926829 22.6615385"></polygon>
            <polygon id="Path" fill="#424242" points="29.1333333 7.44615385 44.3487805 10.5615385 32.2536585 17.8 16.8528455 14.1384615"></polygon>
            <polygon id="Path" fill="#424242" points="41.3674797 0.546153846 56.1735772 3.27692308 45.4995935 9.85384615 30.2841463 6.76153846"></polygon>
            <polygon id="Path" fill="#424242" points="37.7373984 33.7538462 56.6369919 38.7461538 57.8341463 58.8615385 39.3979675 53.2692308"></polygon>
            <polygon id="Path" fill="#424242" points="18.4130081 28.5230769 35.7910569 33.0615385 37.8146341 52.7230769 20.9926829 47.5461538"></polygon>
            <polygon id="Path" fill="#424242" points="0.702845528 23.9461538 16.6520325 27.9769231 19.2780488 47.0384615 3.78455285 42.2692308"></polygon>
            <polygon id="Path" fill="#424242" points="39.9926829 55.1 58.0117886 60.7846154 59.301626 79.3923077 41.7382114 73.1153846"></polygon>
            <polygon id="Path" fill="#424242" points="21.3634146 49.5153846 38.0463415 54.5538462 39.8382114 72.4692308 23.6573171 66.8769231"></polygon>
            <polygon id="Path" fill="#424242" points="4.15528455 44.0153846 19.548374 48.8230769 21.9426829 66.1923077 7.05162602 61.1076923"></polygon>
            <polygon id="Path" fill="#424242" points="41.9699187 74.9923077 59.4406504 81.1307692 60.545122 98.3153846 43.5841463 91.6692308"></polygon>
            <polygon id="Path" fill="#424242" points="23.8890244 68.6692308 40.2089431 74.3923077 41.8695122 91.0769231 26.051626 84.8"></polygon>
            <polygon id="Path" fill="#424242" points="7.37601626 62.7538462 22.1743902 68.0230769 24.5223577 84.2923077 9.94796748 78.6538462"></polygon>
            <polygon id="Path" fill="#424242" points="58.5369919 38.4692308 70.9410569 29.0769231 71.5434959 48.7307692 59.6878049 58.7230769"></polygon>
            <polygon id="Path" fill="#424242" points="72.2926829 28.0692308 83.2756098 19.7307692 83.5073171 38.6538462 72.8410569 47.6307692"></polygon>
            <polygon id="Path" fill="#424242" points="84.4418699 18.9 94.1349593 11.6153846 94.1813008 29.5307692 84.7121951 37.5076923"></polygon>
            <polygon id="Path" fill="#424242" points="60.0044715 60.6923077 71.5434959 50.4307692 72.2772358 68.3923077 60.9699187 79.2076923"></polygon>
            <polygon id="Path" fill="#424242" points="72.9337398 49.4692308 83.6463415 40.3 83.8703252 57.8076923 73.4898374 67.4307692"></polygon>
            <polygon id="Path" fill="#424242" points="84.7585366 39.4307692 94.1349593 31.3230769 94.0886179 47.9538462 84.897561 56.9384615"></polygon>
            <polygon id="Path" fill="#424242" points="61.0626016 80.9 72.5089431 70.1769231 73.1963415 86.8153846 62.0743902 98.2230769"></polygon>
            <polygon id="Path" fill="#424242" points="73.6752033 69.3538462 83.9630081 59.4076923 84.1947154 75.4923077 74.2235772 85.7615385"></polygon>
            <polygon id="Path" fill="#424242" points="84.9747967 58.4 94.1658537 49.6076923 94.1195122 65.3692308 85.1138211 74.4846154"></polygon>
            <path d="M50.8288618,32.4461538 L52.4662602,31.3153846 L48.3573171,29.9923077 L49.7166667,29.0538462 L59.2552846,26.8846154 L60.8772358,27.4076923 L55.702439,30.9769231 L56.9536585,31.3769231 L55.5943089,32.3230769 L54.3353659,31.9153846 L52.6979675,33.0461538 L50.8288618,32.4461538 L50.8288618,32.4461538 Z M53.8333333,30.3769231 L56.6138211,28.4538462 L51.5239837,29.6307692 L53.8333333,30.3769231 L53.8333333,30.3769231 Z" id="Shape" fill="#FFFFFF"></path>
            <path d="M62.3910569,21.2923077 L64.5613821,21.6461538 C63.595935,22.4615385 65.2256098,22.7153846 66.3918699,22.4615385 C66.9711382,22.3384615 67.7512195,21.9846154 68.7321138,21.3923077 C65.7430894,21.9461538 63.1247967,20.5846154 65.55,18.9384615 C68.2300813,17.1230769 73.1808943,17.5461538 73.4434959,19.1923077 C73.6443089,20.4923077 68.4463415,24.4461538 63.4800813,23.3076923 C62.1130081,22.9923077 61.2170732,22.3923077 62.3910569,21.2923077 L62.3910569,21.2923077 Z M70.3308943,20.1461538 C72.2231707,18.8615385 69.6126016,18.0384615 67.596748,19.4076923 C65.5422764,20.8 68.6317073,21.3 70.3308943,20.1461538 Z" id="Shape" fill="#FFFFFF"></path>
            <path d="M78.3247967,9.72307692 L79.6069106,8.90769231 L86.2028455,10.3230769 L85.1910569,10.9615385 C84.9979675,11.0384615 81.3987805,11.5692308 78.2939024,12.8384615 C74.7101626,14.3 76.6719512,14.3384615 73.8296748,13.7307692 C76.200813,12.2846154 79.7922764,11.2153846 82.7117886,10.6615385 L78.3247967,9.72307692 L78.3247967,9.72307692 Z" id="Path" fill="#FFFFFF"></path>
            <path d="M40.0158537,24.5307692 L38.1158537,24.0230769 C39.3052846,23.2384615 37.9073171,22.8538462 36.6947154,23.0461538 C36.1077236,23.1307692 35.2504065,23.4538462 34.1227642,24.0153846 C37.1581301,23.6076923 39.0195122,25.2230769 36.1849593,26.7692308 C33.0028455,28.5153846 28.5463415,27.7538462 28.9170732,26.0230769 C29.2105691,24.6307692 35.5130081,20.8461538 39.7146341,22.3461538 C41.1280488,22.8461538 41.2439024,23.6384615 40.0158537,24.5307692 L40.0158537,24.5307692 Z M32.1764228,25.2153846 C29.9365854,26.4384615 32.0760163,27.4692308 34.454878,26.1692308 C36.8955285,24.8307692 34.1845528,24.1153846 32.1764228,25.2153846 Z" id="Shape" fill="#FFFFFF"></path>
            <path d="M46.6813008,19.0923077 L44.8044715,18.6461538 L50.2573171,15.0076923 C49.0833333,15.1769231 47.9093496,15.2230769 46.7430894,15.1538462 C48.7666667,13.8076923 47.299187,14.5 50.35,14.2 C53.7097561,13.8615385 51.3695122,13.3538462 54.2504065,14.0461538 L46.6813008,19.0923077 L46.6813008,19.0923077 Z" id="Path" fill="#FFFFFF"></path>
            <path d="M59.6955285,7.50769231 C58.150813,6.62307692 61.1861789,5.16923077 64.2756098,5.77692308 C67.5195122,6.42307692 65.349187,8.09230769 62.6691057,8.1 C64.5845528,9.14615385 60.7613821,10.9 57.5020325,10.2538462 C53.9337398,9.53846154 56.4284553,7.51538462 59.6955285,7.50769231 L59.6955285,7.50769231 Z M61.3560976,6.74615385 C60.2284553,7.48461538 62.4914634,7.87692308 63.5727642,7.18461538 C64.6617886,6.46923077 62.4142276,6.05384615 61.3560976,6.74615385 Z M58.3207317,8.57692308 C56.8069106,9.56153846 59.3711382,10.0846154 60.8849593,9.1 C62.298374,8.18461538 59.703252,7.67692308 58.3207317,8.57692308 Z" id="Shape" fill="#FFFFFF"></path>
            <path d="M10.4654472,20.7615385 L12.5199187,21.0923077 C11.0833333,22.0461538 13.5317073,22.6692308 15.8101626,21.4538462 C16.7138211,20.9692308 16.9995935,20.4923077 15.9723577,20.2615385 C15.4317073,20.1384615 14.7288618,20.1384615 13.8792683,20.2692308 L12.550813,19.8230769 L18.0577236,17.6076923 L23.0394309,18.7230769 L21.4715447,19.5615385 L17.9186992,18.7692308 L16.1345528,19.5 C20.4906504,19.4615385 19.6796748,21.8769231 15.1304878,22.7538462 C11.8556911,23.3769231 8.0402439,22.3923077 10.4654472,20.7615385 Z" id="Path" fill="#FFFFFF"></path>
            <path d="M30.8788618,14.0076923 L29.4113821,14.7923077 L23.1861789,13.4 C26.4300813,11.9307692 31.7052846,12.2076923 33.5126016,11.2461538 C34.8410569,10.5384615 33.2036585,10.2153846 32.2304878,10.3538462 C30.145122,10.6384615 32.099187,11.1615385 29.249187,10.3153846 C34.5707317,7.90769231 41.545122,11.4769231 30.1296748,12.8153846 L27.3414634,13.2153846 L30.8788618,14.0076923 Z" id="Path" fill="#FFFFFF"></path>
            <path d="M38.6873984,5.16153846 L40.5642276,5.40769231 C39.3825203,6.38461538 41.9390244,6.73076923 43.3060976,5.83846154 C44.5418699,5.03846154 42.8735772,4.84615385 42.2170732,4.80769231 C44.503252,3.63076923 42.8581301,4.49230769 44.7813008,4.24615385 C46.6195122,4.00769231 46.4109756,2.92307692 44.5109756,3.21538462 C44.1402439,3.26923077 43.7849593,3.38461538 43.445122,3.56923077 L42.0085366,3.11538462 C45.4995935,1.49230769 49.6239837,2.93846154 47.6699187,4.20769231 C47.0829268,4.59230769 46.1638211,4.80769231 44.9203252,4.85384615 C47.3223577,5.70769231 43.3292683,7.7 39.8382114,7 C38.5329268,6.74615385 37.5365854,6.09230769 38.6873984,5.16153846 L38.6873984,5.16153846 Z" id="Path" fill="#FFFFFF"></path>
            <path d="M50.6434959,47.4461538 C53.601626,49.4923077 53.400813,53.8769231 49.0601626,52.6 C44.7504065,51.3307692 43.8699187,46.6461538 46.6272358,46.2615385 C43.0357724,43.8615385 43.4682927,38.5846154 48.0560976,39.9307692 C52.7674797,41.3076923 54.003252,47 50.6434959,47.4461538 L50.6434959,47.4461538 Z M50.3036585,49.6769231 C50.1646341,47.6538462 47.1756098,46.7615385 47.3223577,48.8076923 C47.4613821,50.7769231 50.4426829,51.6769231 50.3036585,49.6769231 Z M50.1646341,44.4461538 C49.9715447,41.7307692 46.4650407,40.5384615 46.6658537,43.4 C46.8512195,45.9846154 50.3422764,47.0153846 50.1646341,44.4461538 Z" id="Shape" fill="#FFFFFF"></path>
            <path d="M24.0357724,36.3615385 L23.8890244,34.2769231 L31.9369919,36.5615385 C31.7747967,40.5615385 26.6077236,40.7461538 26.7853659,43.3230769 C26.9166667,45.1384615 28.8861789,45.7384615 29.5581301,45.2230769 C29.8207317,45.0230769 29.9520325,44.6 29.9443089,43.9461538 L32.2536585,44.8230769 C32.0760163,49.1384615 27.1715447,47.1615385 25.6654472,45.4461538 C24.2365854,43.8230769 23.9739837,41.7615385 25.4878049,40.1461538 C26.3373984,39.2307692 28.0520325,38.5461538 28.6004065,37.6615385 L24.0357724,36.3615385 L24.0357724,36.3615385 Z" id="Path" fill="#FFFFFF"></path>
            <path d="M9.55406504,29.8615385 L9.87073171,32.1923077 L14.3426829,33.6384615 L14.6052846,35.5769231 L10.8902439,41.4153846 L9.12926829,40.8461538 L8.1097561,33.4769231 L6.7504065,33.0384615 L6.4800813,31.0923077 L7.83943089,31.5384615 L7.52276423,29.2076923 L9.55406504,29.8615385 Z M10.1410569,34.1384615 L10.6894309,38.0923077 L12.6434959,34.9461538 L10.1410569,34.1384615 L10.1410569,34.1384615 Z" id="Shape" fill="#FFFFFF"></path>
            <path d="M46.0711382,69.5076923 L48.2955285,69.8153846 C48.6044715,71.4769231 50.203252,71.9153846 50.9060976,71.1230769 C51.2150407,70.7769231 51.3617886,69.9307692 51.354065,68.6 C49.6471545,70.2846154 45.746748,67.9230769 45.4918699,64.3384615 C45.1906504,60.1153846 49.8556911,60.3307692 52.1882114,63.4076923 C53.9878049,65.7923077 55.3626016,74.6923077 49.7012195,73.3076923 C47.8012195,72.8384615 46.5191057,71.4384615 46.0711382,69.5076923 L46.0711382,69.5076923 Z M50.9601626,65.8538462 C50.7670732,63.0769231 47.5308943,61.7384615 47.7471545,64.8692308 C47.9634146,67.9153846 51.153252,68.5461538 50.9601626,65.8538462 Z" id="Shape" fill="#FFFFFF"></path>
            <path d="M27.696748,54.6230769 L29.797561,55.1384615 L30.345935,62.9153846 C31.0642276,62.3923077 31.9292683,62.0923077 32.9487805,62.0153846 L33.0800813,63.8846154 C32.0219512,63.9692308 30.5621951,64.6307692 30.1682927,65.8384615 L28.4613821,65.4230769 L27.696748,54.6230769 L27.696748,54.6230769 Z" id="Path" fill="#FFFFFF"></path>
            <path d="M16.3585366,53.4153846 L14.4353659,53 C13.9101626,50.9 11.2069106,49.7846154 11.600813,52.6615385 C11.9174797,54.9384615 13.8715447,55.8230769 14.8138211,54.8692308 L16.4357724,55.6230769 L16.2117886,60.9307692 L11.0215447,59.2538462 L10.7589431,57.3153846 L14.4585366,58.5076923 L14.5126016,56.7692308 C11.600813,57.4 8.28739837,52.2615385 9.99430894,49.8846154 C11.3304878,48.0230769 15.4703252,49.9230769 16.3585366,53.4153846 L16.3585366,53.4153846 Z" id="Path" fill="#FFFFFF"></path>
            <path d="M54.3739837,84.2769231 L52.3349593,83.9384615 C51.8638211,81.5923077 49.0447154,81 49.2378049,83.2846154 C49.3536585,84.7153846 50.3654472,85.5076923 51.8174797,85.5230769 L51.7170732,87.1384615 C49.3613821,86.4153846 49.7321138,89.1307692 51.3926829,89.5923077 C52.1804878,89.8153846 52.6361789,89.3846154 52.6747967,88.5307692 L54.6520325,89.4076923 C54.1808943,92.9846154 50.203252,91.2307692 48.8747967,89.6153846 C47.7857724,88.3 47.2914634,86.2846154 49.3536585,85.7461538 C45.8780488,84.0692308 46.3414634,79.0076923 50.4813008,80.1769231 C52.4276423,80.7230769 54.003252,82.3153846 54.3739837,84.2769231 Z" id="Path" fill="#FFFFFF"></path>
            <path d="M35.4512195,78.0307692 L33.504878,77.5461538 C33.195935,76.1076923 31.8134146,75.5307692 31.2186992,76.1769231 C30.9715447,76.4461538 30.8634146,77.1692308 30.9097561,78.3230769 C32.3463415,77.0538462 35.8065041,79.4307692 36.1386179,82.5923077 C36.5247967,86.2384615 32.4699187,85.6307692 30.345935,82.7384615 C28.7471545,80.5538462 27.1947154,72.6307692 32.1995935,74.3923077 C33.8987805,74.9923077 34.9955285,76.2615385 35.4512195,78.0307692 L35.4512195,78.0307692 Z M31.3345528,80.7384615 C31.5894309,83.1307692 34.4394309,84.6461538 34.145935,81.8923077 C33.8756098,79.2769231 31.0873984,78.3769231 31.3345528,80.7384615 Z" id="Shape" fill="#FFFFFF"></path>
            <path d="M18.6601626,77.0615385 L18.8609756,78.8846154 L12.5739837,76.5769231 L12.4195122,75.1384615 C14.2731707,73.6923077 14.945122,70.0076923 14.6593496,67.6230769 L16.4280488,68.2692308 C16.6597561,70.8076923 16.0882114,73.6615385 14.4739837,75.5307692 L18.6601626,77.0615385 L18.6601626,77.0615385 Z" id="Path" fill="#FFFFFF"></path>
            <path d="M62.6304878,49.6384615 L64.1056911,48.0230769 C64.2987805,49.7307692 65.3955285,48.5692308 65.8203252,47.1923077 C66.0288618,46.5307692 66.1369919,45.4384615 66.1447154,43.9307692 C65.0093496,47.3076923 62.4296748,48.1692308 62.298374,44.2769231 C62.151626,39.8923077 65.1869919,35.8153846 66.754878,37.3 C68.0138211,38.4923077 68.654878,47.3846154 65.001626,50.7384615 C63.6808943,51.9461538 62.8930894,51.3384615 62.6304878,49.6384615 Z M65.9207317,41.1615385 C65.8203252,38.0846154 63.6808943,39.6153846 63.7890244,42.8846154 C63.904878,46.2461538 66.0134146,43.9384615 65.9207317,41.1615385 Z" id="Shape" fill="#FFFFFF"></path>
            <path d="M80.4333333,28.4307692 L79.0662602,29.9615385 C78.7882114,27.6384615 76.9113821,29.6846154 76.9963415,32.1076923 C77.0504065,33.8538462 77.8613821,33.4153846 78.6878049,32.2846154 L78.5873984,34.2538462 C77.0504065,35.5923077 77.1739837,38.4615385 78.3170732,37.4153846 C78.9195122,36.8692308 79.1666667,35.8461538 79.2052846,34.9769231 L80.5182927,34.1384615 C80.0703252,39.4538462 76.1544715,41.7538462 76.0386179,38.3076923 C76,37.2769231 76.3321138,36.1230769 77.0272358,34.8538462 C74.7256098,36.1538462 75.1195122,29.8692308 77.8922764,27.3307692 C79.2825203,26.0538462 80.2325203,26.6461538 80.4333333,28.4307692 L80.4333333,28.4307692 Z" id="Path" fill="#FFFFFF"></path>
            <path d="M92.1036585,18.7153846 L90.6979675,20.0307692 C90.5280488,18.0076923 88.6203252,19.3461538 88.6126016,22.2846154 C88.6126016,23.2538462 88.8443089,24.2 89.6939024,23.5384615 C90.103252,23.2230769 90.4662602,22.6692308 90.7829268,21.8692308 L91.9182927,21.2384615 L91.1845528,27.6769231 L87.4695122,30.5615385 L87.4772358,28.5384615 L90.1264228,26.4846154 L90.3504065,24.3846154 C88.1182927,27.8384615 86.1565041,24.9692308 87.7012195,20.5307692 C88.8520325,17.2615385 91.7947154,15.3384615 92.1036585,18.7153846 L92.1036585,18.7153846 Z" id="Path" fill="#FFFFFF"></path>
            <path d="M67.5349593,63.9538462 C69.35,63.5230769 69.0256098,68.2461538 66.5386179,70.5230769 C63.9357724,72.9153846 63.5650407,68.7538462 65.1560976,66.1384615 C62.9394309,66.7461538 63.4723577,60.8769231 66.0674797,58.4923077 C68.9252033,55.8769231 69.4890244,60.7615385 67.5349593,63.9538462 Z M67.3109756,66.5076923 C67.249187,64.5230769 65.4804878,66.2384615 65.5422764,68.1384615 C65.6117886,70.0615385 67.3727642,68.3692308 67.3109756,66.5076923 Z M67.2800813,61.3153846 C67.1873984,58.6692308 65.1174797,60.5076923 65.2101626,63.1923077 C65.2873984,65.6769231 67.3573171,63.7692308 67.2800813,61.3153846 Z" id="Shape" fill="#FFFFFF"></path>
            <path d="M78.2939024,48.4307692 L78.3247967,50.6461538 L81.2134146,47.7769231 L81.2443089,49.6153846 L78.2861789,59.6615385 L77.1430894,60.8 L77.0426829,53.8 L76.1621951,54.6692308 L76.1313008,52.8230769 L77.0117886,51.9538462 L76.9808943,49.7384615 L78.2939024,48.4307692 L78.2939024,48.4307692 Z M78.3556911,52.4923077 L78.4097561,56.2538462 L79.9699187,50.8846154 L78.3556911,52.4923077 L78.3556911,52.4923077 Z" id="Shape" fill="#FFFFFF"></path>
            <path d="M87.2764228,43.3923077 L87.3073171,41.5153846 L92.003252,37.4076923 C91.6788618,41.3461538 88.5662602,45.5692308 88.5276423,47.8923077 C88.496748,49.7615385 90.2422764,48.4153846 90.3813008,46.0230769 L91.7174797,45.0538462 C91.1845528,51.5153846 83.9861789,54.4692308 88.8288618,43.7461538 L89.9410569,41.0615385 L87.2764228,43.3923077 L87.2764228,43.3923077 Z" id="Path" fill="#FFFFFF"></path>
            <path d="M66.4382114,79.7230769 L67.797561,78.3230769 L67.8361789,86.2923077 C68.3304878,85.0615385 68.9174797,83.9230769 69.5894309,82.8769231 C69.604878,85.8384615 69.8288618,83.9153846 68.4463415,87.0153846 C66.9479675,90.3923077 68.5776423,88.6538462 66.4845528,90.8 L66.4382114,79.7230769 L66.4382114,79.7230769 Z" id="Path" fill="#FFFFFF"></path>
            <path d="M81.2520325,74.0076923 L81.3215447,75.8153846 L77.1276423,79.9692308 L77.0735772,78.5384615 C77.3979675,77.6538462 77.7223577,76.5307692 78.0390244,75.1615385 C78.5719512,72.8846154 78.9890244,69.9230769 78.904065,67.7692308 L80.0780488,66.6076923 C80.147561,69.7307692 79.4215447,73.6538462 78.4638211,76.7692308 L81.2520325,74.0076923 L81.2520325,74.0076923 Z" id="Path" fill="#FFFFFF"></path>
            <path d="M92.204065,57.6923077 L91.0069106,59.0076923 C90.9296748,57.7076923 90.049187,58.6461538 89.6630081,59.7230769 C89.4853659,60.2384615 89.354065,61.0769231 89.2845528,62.2384615 C90.2886179,59.6230769 92.3121951,58.7692308 92.2504065,61.7769231 C92.1808943,65.0615385 89.6939024,68.4 88.5430894,67.3384615 C87.6162602,66.4846154 87.5235772,59.7 90.4430894,56.9615385 C91.4780488,55.9923077 92.0650407,56.2923077 92.204065,57.6923077 L92.204065,57.6923077 Z M89.3463415,64.3461538 C89.2922764,66.6846154 90.9837398,65.4153846 91.0378049,62.9153846 C91.0918699,60.3692308 89.3849593,62.2307692 89.3463415,64.3461538 Z" id="Shape" fill="#FFFFFF"></path>
            <path d="M29.4886179,28.2384615 C30.2455285,28.2384615 30.2455285,28.9461538 29.4886179,28.9461538 C28.7317073,28.9461538 28.7317073,28.2384615 29.4886179,28.2384615 Z" id="Path" fill="#FFFFFF"></path>
            <path d="M62.0743902,23.6384615 C62.8313008,23.6384615 62.8313008,24.3538462 62.0743902,24.3538462 C61.3174797,24.3538462 61.3174797,23.6384615 62.0743902,23.6384615 Z" id="Path" fill="#FFFFFF"></path>
            <path d="M49.0369919,58.7 C49.8479675,58.8384615 49.8402439,60.1307692 49.0369919,59.9923077 C48.2337398,59.8615385 48.2337398,58.5692308 49.0369919,58.7 Z" id="Path" fill="#FFFFFF"></path>
            <path d="M31.8134146,72.0076923 C32.5780488,72.1307692 32.5703252,73.3461538 31.8134146,73.2230769 C31.0487805,73.1 31.0565041,71.8769231 31.8134146,72.0076923 Z" id="Path" fill="#FFFFFF"></path>
            <path d="M64.9784553,35.0846154 C66.1447154,35.0307692 64.7930894,36.9153846 64.545935,35.9153846 C64.453252,35.5307692 64.7004065,35.2692308 64.9784553,35.0846154 Z" id="Path" fill="#FFFFFF"></path>
            <path d="M90.0878049,54.6307692 C91.254065,54.5846154 89.902439,56.4692308 89.6552846,55.4692308 C89.5626016,55.0769231 89.8020325,54.8230769 90.0878049,54.6307692 Z" id="Path" fill="#FFFFFF"></path>
        </g>
    </g>
</svg>