<?xml version="1.0" encoding="UTF-8"?>
<svg width="95px" height="100px" viewBox="0 0 95 100" version="1.1" xmlns="http://www.w3.org/2000/svg" xmlns:xlink="http://www.w3.org/1999/xlink">
    <title>sudoku_2_4</title>
    <g id="Sudoku" stroke="none" stroke-width="1" fill="none" fill-rule="evenodd">
        <g id="sudoku_2_4" fill-rule="nonzero">
            <polygon id="Path" fill="#000000" points="0.100588235 23.0224719 41.1852941 0.101123596 94.2176471 10.3707865 94.1841176 65.8089888 61.4147059 99.8089888 9.44411765 79.6067416"></polygon>
            <polygon id="Path" fill="#424242" points="51.1547059 23.4382022 69.4058824 28.0449438 57.0670588 37.3483146 38.1452941 32.1910112"></polygon>
            <polygon id="Path" fill="#424242" points="63.9741176 14.7865169 82.1805882 18.6516854 70.7358824 26.988764 52.4288235 22.7078652"></polygon>
            <polygon id="Path" fill="#424242" points="75.4188235 7.07865169 92.72 10.4382022 83.0970588 17.7977528 65.2258824 14.0224719"></polygon>
            <polygon id="Path" fill="#424242" points="57.5141176 3.69662921 73.5970588 6.75280899 63.3147059 13.6179775 46.9411765 10.247191"></polygon>
            <polygon id="Path" fill="#424242" points="45.7452941 11.0561798 62.3535294 14.3707865 50.54 22.3370787 33.6076471 18.3820225"></polygon>
            <polygon id="Path" fill="#424242" points="32.3782353 19.2022472 49.2547059 23.1235955 36.5247059 31.9101124 19.19 27.494382"></polygon>
            <polygon id="Path" fill="#424242" points="15.3788235 15.1573034 30.8470588 18.741573 17.29 26.8539326 1.55352941 22.7977528"></polygon>
            <polygon id="Path" fill="#424242" points="29.0252941 7.51685393 44.1805882 10.6404494 32.1323529 17.9213483 16.7982353 14.2359551"></polygon>
            <polygon id="Path" fill="#424242" points="41.2076471 0.584269663 55.9494118 3.3258427 45.3205882 9.93258427 30.1764706 6.82022472"></polygon>
            <polygon id="Path" fill="#424242" points="37.5976471 33.9438202 56.4076471 38.9550562 57.5923529 59.1685393 39.2405882 53.5505618"></polygon>
            <polygon id="Path" fill="#424242" points="18.3629412 28.6853933 35.6529412 33.247191 37.6758824 53 20.9223529 47.7977528"></polygon>
            <polygon id="Path" fill="#424242" points="0.726470588 24.0898876 16.6082353 28.1348315 19.2123529 47.2921348 3.8 42.505618"></polygon>
            <polygon id="Path" fill="#424242" points="39.8329412 55.3932584 57.7711765 61.1011236 59.0564706 79.7977528 41.5764706 73.4831461"></polygon>
            <polygon id="Path" fill="#424242" points="21.2911765 49.7752809 37.8994118 54.8426966 39.6876471 72.8426966 23.5823529 67.2247191"></polygon>
            <polygon id="Path" fill="#424242" points="4.16882353 44.247191 19.4917647 49.0898876 21.8723529 66.5280899 7.05235294 61.4269663"></polygon>
            <polygon id="Path" fill="#424242" points="41.8111765 75.3707865 59.1905882 81.5393258 60.2970588 98.8089888 43.4094118 92.1348315"></polygon>
            <polygon id="Path" fill="#424242" points="23.8058824 69.0224719 40.0564706 74.7752809 41.6994118 91.5280899 25.9629412 85.2247191"></polygon>
            <polygon id="Path" fill="#424242" points="7.36529412 63.0786517 22.1070588 68.3707865 24.4429412 84.7191011 9.93588235 79.0561798"></polygon>
            <polygon id="Path" fill="#424242" points="58.2964706 38.6853933 70.6464706 29.247191 71.2388235 48.988764 59.4364706 59.0337079"></polygon>
            <polygon id="Path" fill="#424242" points="71.9876471 28.2247191 82.9182353 19.8539326 83.1417647 38.8651685 72.5352941 47.8876404"></polygon>
            <polygon id="Path" fill="#424242" points="84.0805882 19.0224719 93.7258824 11.7078652 93.7705882 29.7078652 84.3488235 37.7191011"></polygon>
            <polygon id="Path" fill="#424242" points="59.7605882 61.011236 71.2388235 50.6966292 71.9764706 68.741573 60.7217647 79.6067416"></polygon>
            <polygon id="Path" fill="#424242" points="72.6247059 49.7303371 83.2870588 40.5168539 83.5105882 58.1123596 73.1723529 67.7752809"></polygon>
            <polygon id="Path" fill="#424242" points="84.3935294 39.6516854 93.7258824 31.494382 93.6811765 48.2134831 84.5388235 57.2359551"></polygon>
            <polygon id="Path" fill="#424242" points="60.8111765 81.3146067 72.2 70.5393258 72.8929412 87.247191 61.8170588 98.7191011"></polygon>
            <polygon id="Path" fill="#424242" points="73.3623529 69.7078652 83.6 59.7191011 83.8347059 75.8764045 73.91 86.1910112"></polygon>
            <polygon id="Path" fill="#424242" points="84.6058824 58.7078652 93.7594118 49.8651685 93.7035294 65.7078652 84.7511765 74.8651685"></polygon>
            <path d="M53.7029412,15.7865169 L51.7358824,15.4494382 C52.9094118,14.4719101 50.7076471,14.5280899 50.1041176,14.6516854 C49.5564706,14.7752809 48.8188235,15.1123596 47.8911765,15.6741573 C49.7911765,15.3033708 53.4235294,16.1348315 50.6294118,18.011236 C49.0647059,19.0674157 46.7735294,19.4044944 44.9517647,18.9662921 C42.0905882,18.2696629 43.8229412,16.6292135 45.3652941,15.5955056 C47.5447059,14.1348315 50.1935294,13.2134831 52.82,13.8426966 C53.96,14.1235955 54.8317647,14.7303371 53.7029412,15.7865169 L53.7029412,15.7865169 Z M45.6670588,17.6966292 C45.7341176,18.3483146 46.9747059,18.2696629 47.4217647,18.1910112 C48.0811765,18.0561798 50.6629412,16.741573 48.9082353,16.3146067 C48.0923529,16.1123596 45.5776471,16.7752809 45.6670588,17.6966292 L45.6670588,17.6966292 Z" id="Shape" fill="#FFFFFF"></path>
            <path d="M32.2664706,66.1797753 L30.1764706,65.6629213 L29.6288235,57.8539326 C28.9135294,58.3707865 28.0529412,58.6741573 27.0358824,58.752809 L26.9017647,56.8651685 C28.0529412,56.7865169 29.4276471,56.0674157 29.8076471,54.9101124 L31.5064706,55.3258427 L32.2664706,66.1797753 L32.2664706,66.1797753 Z" id="Path" fill="#FFFFFF"></path>
            <path d="M75.7317647,52.1573034 L75.6982353,50.1910112 L80.3252941,45.988764 L80.3476471,47.5280899 C79.3976471,49.9325843 78.7047059,52.9101124 78.3694118,55.4719101 C78.1794118,56.9101124 78.1011765,58.1123596 78.1123529,59.0898876 L76.8158824,60.2696629 C76.8158824,56.7303371 77.6876471,52.6966292 78.8052941,49.3595506 L75.7317647,52.1573034 L75.7317647,52.1573034 Z" id="Path" fill="#FFFFFF"></path>
            <path d="M43.9905882,19.7078652 C43.9905882,20.1797753 42.8394118,20.1797753 42.8394118,19.7078652 C42.8394118,19.247191 43.9905882,19.247191 43.9905882,19.7078652 Z" id="Path" fill="#FFFFFF"></path>
        </g>
    </g>
</svg>