<?xml version="1.0" encoding="UTF-8"?>
<svg width="200px" height="150px" viewBox="0 0 200 150" version="1.1" xmlns="http://www.w3.org/2000/svg" xmlns:xlink="http://www.w3.org/1999/xlink">
    <title>sudoku_1_9</title>
    <g id="Sudoku" stroke="none" stroke-width="1" fill="none" fill-rule="evenodd">
        <g id="sudoku_1_9" fill-rule="nonzero">
            <path d="M99.3305085,49.7033898 C132.432203,49.7033898 165.521186,49.7033898 198.610169,49.7033898 C198.610169,66.2415254 198.610169,82.7923729 198.610169,99.3305085 C165.521186,99.3305085 132.432203,99.3305085 99.3305085,99.3305085 C99.3305085,115.881356 99.3305085,132.432203 99.3305085,148.970339 C82.7923729,148.970339 66.2415254,148.970339 49.7033898,148.970339 C49.7033898,132.432203 49.7033898,115.881356 49.7033898,99.3305085 C33.1525424,99.3305085 16.6144068,99.3305085 0.063559322,99.3305085 C0.063559322,82.7923729 0.063559322,66.2415254 0.063559322,49.7033898 C16.6144068,49.7033898 33.1525424,49.7033898 49.7033898,49.7033898 C49.7033898,33.1525424 49.7033898,16.6144068 49.7033898,0.063559322 C66.2415254,0.063559322 82.7923729,0.063559322 99.3305085,0.063559322 C99.3305085,16.6144068 99.3305085,33.1525424 99.3305085,49.7033898 Z" id="Path" fill="#000000"></path>
            <polygon id="Path" fill="#FFFFFF" points="97.6779661 97.6779661 84.4449153 97.6779661 84.4449153 84.4449153 97.6779661 84.4449153"></polygon>
            <polygon id="Path" fill="#FFFFFF" points="67.8940678 97.6779661 81.1398305 97.6779661 81.1398305 84.4449153 67.8940678 84.4449153"></polygon>
            <polygon id="Path" fill="#FFFFFF" points="64.5889831 97.6779661 51.3559322 97.6779661 51.3559322 84.4449153 64.5889831 84.4449153"></polygon>
            <polygon id="Path" fill="#FFFFFF" points="97.6779661 67.8940678 84.4449153 67.8940678 84.4449153 81.1398305 97.6779661 81.1398305"></polygon>
            <polygon id="Path" fill="#FFFFFF" points="67.8940678 67.8940678 81.1398305 67.8940678 81.1398305 81.1398305 67.8940678 81.1398305"></polygon>
            <polygon id="Path" fill="#FFFFFF" points="64.5889831 67.8940678 51.3559322 67.8940678 51.3559322 81.1398305 64.5889831 81.1398305"></polygon>
            <polygon id="Path" fill="#FFFFFF" points="97.6779661 64.5889831 84.4449153 64.5889831 84.4449153 51.3559322 97.6779661 51.3559322"></polygon>
            <polygon id="Path" fill="#FFFFFF" points="67.8940678 64.5889831 81.1398305 64.5889831 81.1398305 51.3559322 67.8940678 51.3559322"></polygon>
            <polygon id="Path" fill="#FFFFFF" points="64.5889831 64.5889831 51.3559322 64.5889831 51.3559322 51.3559322 64.5889831 51.3559322"></polygon>
            <polygon id="Path" fill="#FFFFFF" points="100.995763 97.6779661 114.228814 97.6779661 114.228814 84.4449153 100.995763 84.4449153"></polygon>
            <polygon id="Path" fill="#FFFFFF" points="130.766949 97.6779661 117.533898 97.6779661 117.533898 84.4449153 130.766949 84.4449153"></polygon>
            <polygon id="Path" fill="#FFFFFF" points="134.084746 97.6779661 147.317797 97.6779661 147.317797 84.4449153 134.084746 84.4449153"></polygon>
            <polygon id="Path" fill="#FFFFFF" points="100.995763 67.8940678 114.228814 67.8940678 114.228814 81.1398305 100.995763 81.1398305"></polygon>
            <polygon id="Path" fill="#FFFFFF" points="130.766949 67.8940678 117.533898 67.8940678 117.533898 81.1398305 130.766949 81.1398305"></polygon>
            <polygon id="Path" fill="#FFFFFF" points="134.084746 67.8940678 147.317797 67.8940678 147.317797 81.1398305 134.084746 81.1398305"></polygon>
            <polygon id="Path" fill="#FFFFFF" points="100.995763 64.5889831 114.228814 64.5889831 114.228814 51.3559322 100.995763 51.3559322"></polygon>
            <polygon id="Path" fill="#FFFFFF" points="130.766949 64.5889831 117.533898 64.5889831 117.533898 51.3559322 130.766949 51.3559322"></polygon>
            <polygon id="Path" fill="#FFFFFF" points="134.084746 64.5889831 147.317797 64.5889831 147.317797 51.3559322 134.084746 51.3559322"></polygon>
            <polygon id="Path" fill="#FFFFFF" points="196.957627 97.6779661 183.711864 97.6779661 183.711864 84.4449153 196.957627 84.4449153"></polygon>
            <polygon id="Path" fill="#FFFFFF" points="167.173729 97.6779661 180.40678 97.6779661 180.40678 84.4449153 167.173729 84.4449153"></polygon>
            <polygon id="Path" fill="#FFFFFF" points="163.855932 97.6779661 150.622881 97.6779661 150.622881 84.4449153 163.855932 84.4449153"></polygon>
            <polygon id="Path" fill="#FFFFFF" points="196.957627 67.8940678 183.711864 67.8940678 183.711864 81.1398305 196.957627 81.1398305"></polygon>
            <polygon id="Path" fill="#FFFFFF" points="167.173729 67.8940678 180.40678 67.8940678 180.40678 81.1398305 167.173729 81.1398305"></polygon>
            <polygon id="Path" fill="#FFFFFF" points="163.855932 67.8940678 150.622881 67.8940678 150.622881 81.1398305 163.855932 81.1398305"></polygon>
            <polygon id="Path" fill="#FFFFFF" points="196.957627 64.5889831 183.711864 64.5889831 183.711864 51.3559322 196.957627 51.3559322"></polygon>
            <polygon id="Path" fill="#FFFFFF" points="167.173729 64.5889831 180.40678 64.5889831 180.40678 51.3559322 167.173729 51.3559322"></polygon>
            <polygon id="Path" fill="#FFFFFF" points="163.855932 64.5889831 150.622881 64.5889831 150.622881 51.3559322 163.855932 51.3559322"></polygon>
            <polygon id="Path" fill="#FFFFFF" points="51.3559322 147.317797 64.5889831 147.317797 64.5889831 134.084746 51.3559322 134.084746"></polygon>
            <polygon id="Path" fill="#FFFFFF" points="81.1398305 147.317797 67.8940678 147.317797 67.8940678 134.084746 81.1398305 134.084746"></polygon>
            <polygon id="Path" fill="#FFFFFF" points="84.4449153 147.317797 97.6779661 147.317797 97.6779661 134.084746 84.4449153 134.084746"></polygon>
            <polygon id="Path" fill="#FFFFFF" points="51.3559322 117.533898 64.5889831 117.533898 64.5889831 130.766949 51.3559322 130.766949"></polygon>
            <polygon id="Path" fill="#FFFFFF" points="81.1398305 117.533898 67.8940678 117.533898 67.8940678 130.766949 81.1398305 130.766949"></polygon>
            <polygon id="Path" fill="#FFFFFF" points="84.4449153 117.533898 97.6779661 117.533898 97.6779661 130.766949 84.4449153 130.766949"></polygon>
            <polygon id="Path" fill="#FFFFFF" points="51.3559322 114.228814 64.5889831 114.228814 64.5889831 100.995763 51.3559322 100.995763"></polygon>
            <polygon id="Path" fill="#FFFFFF" points="81.1398305 114.228814 67.8940678 114.228814 67.8940678 100.995763 81.1398305 100.995763"></polygon>
            <polygon id="Path" fill="#FFFFFF" points="84.4449153 114.228814 97.6779661 114.228814 97.6779661 100.995763 84.4449153 100.995763"></polygon>
            <polygon id="Path" fill="#FFFFFF" points="51.3559322 1.71610169 51.3559322 14.9491525 64.5889831 14.9491525 64.5889831 1.71610169"></polygon>
            <polygon id="Path" fill="#FFFFFF" points="51.3559322 31.5 51.3559322 18.2669492 64.5889831 18.2669492 64.5889831 31.5"></polygon>
            <polygon id="Path" fill="#FFFFFF" points="51.3559322 34.8050847 51.3559322 48.0508475 64.5889831 48.0508475 64.5889831 34.8050847"></polygon>
            <polygon id="Path" fill="#FFFFFF" points="81.1398305 1.71610169 81.1398305 14.9491525 67.8940678 14.9491525 67.8940678 1.71610169"></polygon>
            <polygon id="Path" fill="#FFFFFF" points="81.1398305 31.5 81.1398305 18.2669492 67.8940678 18.2669492 67.8940678 31.5"></polygon>
            <polygon id="Path" fill="#FFFFFF" points="81.1398305 34.8050847 81.1398305 48.0508475 67.8940678 48.0508475 67.8940678 34.8050847"></polygon>
            <polygon id="Path" fill="#FFFFFF" points="84.4449153 1.71610169 84.4449153 14.9491525 97.6779661 14.9491525 97.6779661 1.71610169"></polygon>
            <polygon id="Path" fill="#FFFFFF" points="84.4449153 31.5 84.4449153 18.2669492 97.6779661 18.2669492 97.6779661 31.5"></polygon>
            <polygon id="Path" fill="#FFFFFF" points="84.4449153 34.8050847 84.4449153 48.0508475 97.6779661 48.0508475 97.6779661 34.8050847"></polygon>
            <polygon id="Path" fill="#FFFFFF" points="1.71610169 97.6779661 14.9491525 97.6779661 14.9491525 84.4449153 1.71610169 84.4449153"></polygon>
            <polygon id="Path" fill="#FFFFFF" points="31.5 97.6779661 18.2669492 97.6779661 18.2669492 84.4449153 31.5 84.4449153"></polygon>
            <polygon id="Path" fill="#FFFFFF" points="34.8050847 97.6779661 48.0508475 97.6779661 48.0508475 84.4449153 34.8050847 84.4449153"></polygon>
            <polygon id="Path" fill="#FFFFFF" points="1.71610169 67.8940678 14.9491525 67.8940678 14.9491525 81.1398305 1.71610169 81.1398305"></polygon>
            <polygon id="Path" fill="#FFFFFF" points="31.5 67.8940678 18.2669492 67.8940678 18.2669492 81.1398305 31.5 81.1398305"></polygon>
            <polygon id="Path" fill="#FFFFFF" points="34.8050847 67.8940678 48.0508475 67.8940678 48.0508475 81.1398305 34.8050847 81.1398305"></polygon>
            <polygon id="Path" fill="#FFFFFF" points="1.71610169 64.5889831 14.9491525 64.5889831 14.9491525 51.3559322 1.71610169 51.3559322"></polygon>
            <polygon id="Path" fill="#FFFFFF" points="31.5 64.5889831 18.2669492 64.5889831 18.2669492 51.3559322 31.5 51.3559322"></polygon>
            <polygon id="Path" fill="#FFFFFF" points="34.8050847 64.5889831 48.0508475 64.5889831 48.0508475 51.3559322 34.8050847 51.3559322"></polygon>
            <path d="M72.3050847,60.2288136 L73.8686441,60.0635593 C73.9957627,61.1949153 75.0889831,61.2330508 75.6228814,60.5338983 C75.8516949,60.2288136 75.9915254,59.5932203 76.0550847,58.6398305 C74.7838983,60.1271186 72.1398305,59.1737288 72.1398305,56.5932203 C72.1398305,53.6694915 75.3813559,52.9194915 76.8940678,54.75 C78.0635593,56.1610169 78.5720339,62.3262712 74.6567797,62.3262712 C73.309322,62.3262712 72.5338983,61.5762712 72.3050847,60.2288136 L72.3050847,60.2288136 Z M75.9152542,56.720339 C75.9152542,54.7372881 73.7161017,54.4067797 73.7161017,56.5932203 C73.7161017,58.7415254 75.9152542,58.6271186 75.9152542,56.720339 Z" id="Shape" fill="#000000"></path>
            <path d="M88.7923729,55.3983051 L88.7923729,53.9237288 L94.2838983,53.9237288 L94.2838983,55.0932203 C92.6694915,56.6822034 91.4618644,59.8601695 91.4745763,62.1737288 L89.9237288,62.1737288 C89.9872881,59.809322 90.9661017,57.2669492 92.4533898,55.3983051 L88.7923729,55.3983051 L88.7923729,55.3983051 Z" id="Path" fill="#000000"></path>
            <path d="M61.1313559,72.4067797 L59.5805085,72.5847458 C59.4533898,71.4279661 58.3347458,71.4152542 57.8135593,72.1016949 C57.5720339,72.4067797 57.4322034,73.0423729 57.3686441,73.9957627 C58.6525424,72.4830508 61.2838983,73.4872881 61.2838983,76.029661 C61.2838983,78.9788136 58.029661,79.7161017 56.5169492,77.8855932 C55.3474576,76.4618644 54.8644068,70.309322 58.7669492,70.309322 C60.0762712,70.309322 60.9152542,71.0974576 61.1313559,72.4067797 Z M57.5084746,75.9025424 C57.5084746,77.9110169 59.720339,78.2288136 59.720339,76.0423729 C59.720339,73.8813559 57.5084746,74.0084746 57.5084746,75.9025424 Z" id="Shape" fill="#000000"></path>
            <path d="M76.3474576,78.7245763 L74.7457627,78.7245763 L74.7457627,72.6737288 C74.1610169,73.220339 73.4745763,73.6271186 72.6864407,73.8813559 L72.6864407,72.4322034 C73.5762712,72.1398305 74.6949153,71.3135593 75.0508475,70.309322 L76.3474576,70.309322 L76.3474576,78.7245763 L76.3474576,78.7245763 Z" id="Path" fill="#000000"></path>
            <path d="M88.8177966,76.5762712 L90.4194915,76.4110169 C90.6228814,78 92.7966102,78.1271186 92.7966102,75.940678 C92.7966102,74.1483051 91.2076271,74.0084746 90.3177966,75 L89.0211864,74.809322 L89.8347458,70.4618644 L94.0677966,70.4618644 L94.0677966,71.9618644 L91.0550847,71.9618644 L90.8008475,73.3855932 C93.3686441,72.1016949 95.5932203,75.3940678 93.8516949,77.7584746 C92.5042373,79.5889831 89.1737288,79.1949153 88.8177966,76.5762712 L88.8177966,76.5762712 Z" id="Path" fill="#000000"></path>
            <path d="M57.0889831,90.75 C55.1440678,89.9237288 55.5508475,86.8601695 58.4110169,86.8601695 C61.2838983,86.8601695 61.6271186,89.9237288 59.7584746,90.75 C62.1228814,91.690678 61.5,95.4152542 58.4872881,95.4152542 C55.309322,95.4152542 54.8135593,91.7288136 57.0889831,90.75 Z M57.4194915,89.1355932 C57.4194915,90.5084746 59.4025424,90.4957627 59.4025424,89.1228814 C59.4025424,87.7881356 57.4194915,87.8008475 57.4194915,89.1355932 Z M57.2669492,92.720339 C57.2669492,94.5762712 59.5932203,94.6525424 59.5932203,92.7330508 C59.5932203,90.9788136 57.2669492,90.9788136 57.2669492,92.720339 Z" id="Shape" fill="#000000"></path>
            <path d="M77.6694915,93.7881356 L77.6694915,95.2627119 L72.0508475,95.2627119 C72.3686441,92.3262712 76.0550847,91.1313559 76.0550847,89.3008475 C76.0550847,87.8771186 73.970339,87.6101695 73.8432203,89.5042373 L72.2415254,89.3389831 C72.5720339,86.2118644 75.940678,86.5677966 76.9576271,87.5338983 C78.1144068,88.6144068 77.7330508,90.1652542 76.8305085,91.3347458 C76.2076271,92.1355932 74.9110169,93.0381356 74.4788136,93.7881356 L77.6694915,93.7881356 L77.6694915,93.7881356 Z" id="Path" fill="#000000"></path>
            <path d="M91.9322034,95.2627119 L91.9322034,93.5847458 L88.5254237,93.5847458 L88.5254237,92.1864407 L92.1483051,86.8728814 L93.4957627,86.8728814 L93.4957627,92.1864407 L94.5254237,92.1864407 L94.5254237,93.5847458 L93.4957627,93.5847458 L93.4957627,95.2627119 L91.9322034,95.2627119 L91.9322034,95.2627119 Z M91.9322034,92.1864407 L91.9322034,89.3262712 L90.0254237,92.1864407 L91.9322034,92.1864407 Z" id="Shape" fill="#000000"></path>
            <path d="M5.55508475,60.0762712 L7.1059322,59.9110169 C7.24576271,61.0423729 8.33898305,61.0805085 8.87288136,60.3813559 C9.10169492,60.0762712 9.24152542,59.440678 9.30508475,58.4872881 C8.02118644,59.9745763 5.37711864,59.0211864 5.37711864,56.440678 C5.37711864,53.5169492 8.63135593,52.7669492 10.1440678,54.5974576 C11.3135593,56.0084746 11.8220339,62.1737288 7.90677966,62.1737288 C6.55932203,62.1737288 5.77118644,61.4237288 5.55508475,60.0762712 L5.55508475,60.0762712 Z M9.16525424,56.5805085 C9.16525424,54.5847458 6.95338983,54.2542373 6.95338983,56.440678 C6.95338983,58.5889831 9.16525424,58.4745763 9.16525424,56.5805085 Z" id="Shape" fill="#000000"></path>
            <path d="M22.0423729,55.2457627 L22.0423729,53.7711864 L27.5338983,53.7711864 L27.5338983,54.940678 C25.9067797,56.529661 24.6991525,59.7076271 24.7118644,62.0211864 L23.1737288,62.0211864 C23.2372881,59.6567797 24.2161017,57.1144068 25.690678,55.2457627 L22.0423729,55.2457627 L22.0423729,55.2457627 Z" id="Path" fill="#000000"></path>
            <path d="M42.6864407,62.0211864 L41.0847458,62.0211864 L41.0847458,55.970339 C40.5,56.5169492 39.8135593,56.9237288 39.0254237,57.190678 L39.0254237,55.7288136 C39.9025424,55.4364407 41.0338983,54.6101695 41.3898305,53.6186441 L42.6864407,53.6186441 L42.6864407,62.0211864 L42.6864407,62.0211864 Z" id="Path" fill="#000000"></path>
            <path d="M10.9194915,77.0847458 L10.9194915,78.5720339 L5.30084746,78.5720339 C5.61864407,75.6355932 9.30508475,74.440678 9.30508475,72.6101695 C9.30508475,71.1864407 7.20762712,70.9194915 7.08050847,72.8008475 L5.49152542,72.6355932 C5.8220339,69.5211864 9.19067797,69.8644068 10.2076271,70.8305085 C11.3644068,71.9237288 10.9830508,73.4745763 10.0677966,74.6440678 C9.44491525,75.4449153 8.16101695,76.3474576 7.72881356,77.0847458 L10.9194915,77.0847458 Z" id="Path" fill="#000000"></path>
            <path d="M25.1822034,78.5720339 L25.1822034,76.8813559 L21.7754237,76.8813559 L21.7754237,75.4957627 L25.3855932,70.1694915 L26.7330508,70.1694915 L26.7330508,75.4830508 L27.7754237,75.4830508 L27.7754237,76.8813559 L26.7330508,76.8813559 L26.7330508,78.5720339 L25.1822034,78.5720339 Z M25.1822034,75.4830508 L25.1822034,72.6355932 L23.2754237,75.4830508 L25.1822034,75.4830508 Z" id="Shape" fill="#000000"></path>
            <path d="M39.9661017,74.0466102 C38.0338983,73.220339 38.440678,70.1567797 41.2881356,70.1567797 C44.1737288,70.1567797 44.5169492,73.2330508 42.6483051,74.0466102 C45,75 44.3771186,78.7245763 41.3644068,78.7245763 C38.1991525,78.7245763 37.690678,75.0254237 39.9661017,74.0466102 L39.9661017,74.0466102 Z M40.309322,72.4322034 C40.309322,73.8177966 42.2923729,73.8050847 42.2923729,72.4322034 C42.2923729,71.0847458 40.309322,71.0974576 40.309322,72.4322034 L40.309322,72.4322034 Z M40.1567797,76.0169492 C40.1567797,77.8855932 42.4830508,77.9618644 42.4830508,76.0423729 C42.4830508,74.2881356 40.1567797,74.2881356 40.1567797,76.0169492 L40.1567797,76.0169492 Z" id="Shape" fill="#000000"></path>
            <path d="M5.51694915,92.9618644 L7.11864407,92.7966102 C7.3220339,94.3855932 9.50847458,94.5254237 9.50847458,92.3389831 C9.50847458,90.5338983 7.90677966,90.4067797 7.01694915,91.3855932 L5.72033898,91.2076271 L6.53389831,86.8601695 L10.779661,86.8601695 L10.779661,88.3601695 L7.75423729,88.3601695 L7.5,89.7711864 C10.0677966,88.5 12.2923729,91.7923729 10.5508475,94.1567797 C9.20338983,95.9872881 5.87288136,95.5805085 5.51694915,92.9618644 L5.51694915,92.9618644 Z" id="Path" fill="#000000"></path>
            <path d="M44.0211864,88.8050847 L42.470339,88.970339 C42.3305085,87.8135593 41.2118644,87.8135593 40.690678,88.5 C40.4618644,88.7923729 40.309322,89.4279661 40.2457627,90.3940678 C41.529661,88.8813559 44.1737288,89.8728814 44.1737288,92.4279661 C44.1737288,95.3771186 40.9194915,96.1144068 39.4067797,94.2838983 C38.2372881,92.8601695 37.7415254,86.7076271 41.6440678,86.7076271 C42.9661017,86.7076271 43.7923729,87.4830508 44.0211864,88.8050847 L44.0211864,88.8050847 Z M40.3855932,92.3008475 C40.3855932,94.309322 42.6101695,94.6271186 42.6101695,92.440678 C42.6101695,90.2669492 40.3855932,90.4067797 40.3855932,92.3008475 L40.3855932,92.3008475 Z" id="Shape" fill="#000000"></path>
            <path d="M108.864407,62.0211864 L107.275424,62.0211864 L107.275424,55.970339 C106.690678,56.5169492 105.991525,56.9237288 105.20339,57.190678 L105.20339,55.7288136 C106.09322,55.4364407 107.211864,54.6101695 107.567797,53.6186441 L108.864407,53.6186441 L108.864407,62.0211864 L108.864407,62.0211864 Z" id="Path" fill="#000000"></path>
            <path d="M124.461864,62.0211864 L124.461864,60.3432203 L121.042373,60.3432203 L121.042373,58.9449153 L124.665254,53.6313559 L126.012712,53.6313559 L126.012712,58.9449153 L127.042373,58.9449153 L127.042373,60.3432203 L126.012712,60.3432203 L126.012712,62.0211864 L124.461864,62.0211864 Z M124.461864,58.9449153 L124.461864,56.0847458 L122.542373,58.9449153 L124.461864,58.9449153 Z" id="Shape" fill="#000000"></path>
            <path d="M143.275424,60.5338983 L143.275424,62.0211864 L137.669492,62.0211864 C137.974576,59.0847458 141.673729,57.8898305 141.673729,56.059322 C141.673729,54.6355932 139.576271,54.3686441 139.449153,56.25 L137.847458,56.0974576 C138.190678,52.970339 141.54661,53.3135593 142.576271,54.2923729 C143.720339,55.3728814 143.351695,56.9237288 142.436441,58.0932203 C141.813559,58.8940678 140.516949,59.7966102 140.097458,60.5338983 L143.275424,60.5338983 L143.275424,60.5338983 Z" id="Path" fill="#000000"></path>
            <path d="M106.15678,74.0466102 C104.211864,73.220339 104.618644,70.1567797 107.478814,70.1567797 C110.351695,70.1567797 110.694915,73.2330508 108.826271,74.0466102 C111.190678,75 110.555085,78.7245763 107.542373,78.7245763 C104.377119,78.7245763 103.868644,75.0254237 106.15678,74.0466102 Z M106.487288,72.4322034 C106.487288,73.8177966 108.470339,73.8050847 108.470339,72.4322034 C108.470339,71.0847458 106.487288,71.0974576 106.487288,72.4322034 Z M106.334746,76.0169492 C106.334746,77.8855932 108.661017,77.9618644 108.661017,76.0423729 C108.661017,74.2881356 106.334746,74.2881356 106.334746,76.0169492 Z" id="Shape" fill="#000000"></path>
            <path d="M121.322034,71.7966102 L121.322034,70.309322 L126.800847,70.309322 L126.800847,71.4788136 C125.186441,73.0677966 123.978814,76.2584746 123.991525,78.5720339 L122.45339,78.5720339 C122.504237,76.2076271 123.483051,73.6652542 124.970339,71.7966102 L121.322034,71.7966102 L121.322034,71.7966102 Z" id="Path" fill="#000000"></path>
            <path d="M137.809322,76.3474576 L139.372881,76.1567797 C139.5,77.2627119 140.618644,77.8601695 141.381356,77.0084746 C141.940678,76.3728814 142.004237,74.1991525 139.868644,74.7966102 L140.04661,73.5 C141.533898,73.5381356 141.584746,72.2033898 141.127119,71.7457627 C140.45339,71.0720339 139.512712,71.6949153 139.398305,72.6101695 L137.936441,72.3686441 C138.622881,68.9364407 142.983051,69.9025424 142.983051,72.3177966 C142.983051,73.0550847 142.588983,73.6398305 141.788136,74.0847458 C144.355932,74.6313559 143.669492,78.7245763 140.555085,78.7245763 C139.105932,78.7245763 137.987288,77.8220339 137.809322,76.3474576 Z" id="Path" fill="#000000"></path>
            <path d="M110.199153,88.8050847 L108.648305,88.970339 C108.508475,87.8135593 107.402542,87.8135593 106.868644,88.5 C106.639831,88.7923729 106.487288,89.4279661 106.436441,90.3940678 C107.707627,88.8813559 110.351695,89.8728814 110.351695,92.4279661 C110.351695,95.3771186 107.097458,96.1144068 105.584746,94.2838983 C104.415254,92.8601695 103.919492,86.7076271 107.822034,86.7076271 C109.144068,86.7076271 109.983051,87.4830508 110.199153,88.8050847 L110.199153,88.8050847 Z M106.563559,92.3008475 C106.563559,94.309322 108.788136,94.6271186 108.788136,92.440678 C108.788136,90.2669492 106.563559,90.4067797 106.563559,92.3008475 Z" id="Shape" fill="#000000"></path>
            <path d="M121.372881,93.1652542 L122.923729,93 C123.063559,94.1440678 124.15678,94.1822034 124.690678,93.470339 C124.919492,93.1652542 125.059322,92.529661 125.122881,91.5762712 C123.838983,93.0635593 121.194915,92.1101695 121.194915,89.529661 C121.194915,86.6059322 124.449153,85.8559322 125.961864,87.6864407 C127.131356,89.0974576 127.639831,95.2627119 123.724576,95.2627119 C122.377119,95.2627119 121.588983,94.5127119 121.372881,93.1652542 Z M124.983051,89.6694915 C124.983051,87.6737288 122.771186,87.3432203 122.771186,89.529661 C122.771186,91.6779661 124.983051,91.5635593 124.983051,89.6694915 Z" id="Shape" fill="#000000"></path>
            <path d="M137.885593,92.9618644 L139.487288,92.7966102 C139.690678,94.3855932 141.864407,94.5254237 141.864407,92.3389831 C141.864407,90.5338983 140.275424,90.4067797 139.385593,91.3855932 L138.088983,91.2076271 L138.902542,86.8601695 L143.135593,86.8601695 L143.135593,88.3601695 L140.122881,88.3601695 L139.868644,89.7711864 C142.423729,88.5 144.648305,91.7923729 142.90678,94.1567797 C141.572034,95.9872881 138.241525,95.5805085 137.885593,92.9618644 L137.885593,92.9618644 Z" id="Path" fill="#000000"></path>
            <path d="M157.550847,62.0211864 L157.550847,60.3432203 L154.144068,60.3432203 L154.144068,58.9449153 L157.754237,53.6313559 L159.101695,53.6313559 L159.101695,58.9449153 L160.144068,58.9449153 L160.144068,60.3432203 L159.101695,60.3432203 L159.101695,62.0211864 L157.550847,62.0211864 Z M157.550847,58.9449153 L157.550847,56.0847458 L155.631356,58.9449153 L157.550847,58.9449153 Z" id="Shape" fill="#000000"></path>
            <path d="M192.927966,55.7161017 L191.377119,55.8813559 C191.237288,54.7245763 190.118644,54.7245763 189.597458,55.3983051 C189.368644,55.7033898 189.216102,56.3389831 189.165254,57.3050847 C190.436441,55.7923729 193.080508,56.7838983 193.080508,59.3389831 C193.080508,62.2881356 189.826271,63.0254237 188.313559,61.1822034 C187.144068,59.7711864 186.648305,53.6186441 190.550847,53.6186441 C191.872881,53.6186441 192.699153,54.3940678 192.927966,55.7161017 Z M189.292373,59.2118644 C189.292373,61.220339 191.516949,61.5381356 191.516949,59.3516949 C191.516949,57.1779661 189.292373,57.3177966 189.292373,59.2118644 Z" id="Shape" fill="#000000"></path>
            <path d="M154.411017,71.7966102 L154.411017,70.309322 L159.889831,70.309322 L159.889831,71.4788136 C158.275424,73.0677966 157.067797,76.2584746 157.080508,78.5720339 L155.542373,78.5720339 C155.59322,76.2076271 156.572034,73.6652542 158.059322,71.7966102 L154.411017,71.7966102 L154.411017,71.7966102 Z" id="Path" fill="#000000"></path>
            <path d="M170.974576,76.4237288 L172.576271,76.2584746 C172.779661,77.8474576 174.95339,77.9745763 174.95339,75.7881356 C174.95339,73.9957627 173.364407,73.8559322 172.474576,74.8474576 L171.177966,74.6567797 L171.991525,70.309322 L176.224576,70.309322 L176.224576,71.809322 L173.211864,71.809322 L172.957627,73.2330508 C175.512712,71.9618644 177.75,75.2415254 176.008475,77.6059322 C174.661017,79.4364407 171.330508,79.0423729 170.974576,76.4237288 L170.974576,76.4237288 Z" id="Path" fill="#000000"></path>
            <path d="M191.59322,78.5720339 L189.991525,78.5720339 L189.991525,72.5211864 C189.40678,73.0677966 188.720339,73.4745763 187.932203,73.7288136 L187.932203,72.279661 C188.822034,71.9872881 189.940678,71.1610169 190.29661,70.1567797 L191.59322,70.1567797 L191.59322,78.5720339 L191.59322,78.5720339 Z" id="Path" fill="#000000"></path>
            <path d="M154.461864,93.1652542 L156.012712,93 C156.152542,94.1440678 157.245763,94.1822034 157.779661,93.470339 C158.008475,93.1652542 158.148305,92.529661 158.211864,91.5762712 C156.940678,93.0635593 154.29661,92.1101695 154.29661,89.529661 C154.29661,86.6059322 157.538136,85.8559322 159.050847,87.6864407 C160.220339,89.0974576 160.728814,95.2627119 156.813559,95.2627119 C155.466102,95.2627119 154.677966,94.5127119 154.461864,93.1652542 Z M158.072034,89.6694915 C158.072034,87.6737288 155.872881,87.3432203 155.872881,89.529661 C155.872881,91.6779661 158.072034,91.5635593 158.072034,89.6694915 Z" id="Shape" fill="#000000"></path>
            <path d="M176.364407,93.6355932 L176.364407,95.1101695 L170.758475,95.1101695 C171.063559,92.1737288 174.762712,90.9788136 174.762712,89.1483051 C174.762712,87.7372881 172.665254,87.4576271 172.538136,89.3516949 L170.936441,89.1864407 C171.279661,86.059322 174.635593,86.4152542 175.665254,87.3813559 C176.809322,88.4618644 176.440678,90.0127119 175.525424,91.1949153 C174.902542,91.9830508 173.605932,92.8855932 173.186441,93.6355932 L176.364407,93.6355932 Z" id="Path" fill="#000000"></path>
            <path d="M188.885593,90.5974576 C186.940678,89.7711864 187.347458,86.7076271 190.194915,86.7076271 C193.080508,86.7076271 193.423729,89.7711864 191.555085,90.5974576 C193.90678,91.5381356 193.283898,95.2627119 190.271186,95.2627119 C187.105932,95.2627119 186.597458,91.5762712 188.885593,90.5974576 Z M189.216102,88.9830508 C189.216102,90.3686441 191.199153,90.3432203 191.199153,88.9830508 C191.199153,87.6355932 189.216102,87.6483051 189.216102,88.9830508 Z M189.063559,92.5677966 C189.063559,94.4237288 191.389831,94.5 191.389831,92.5805085 C191.389831,90.8262712 189.063559,90.8262712 189.063559,92.5677966 Z" id="Shape" fill="#000000"></path>
            <path d="M89.4025424,136.576271 L91.0042373,136.576271 L91.0042373,142.627119 C91.5889831,142.080508 92.2754237,141.673729 93.0762712,141.40678 L93.0762712,142.868644 C92.1864407,143.148305 91.0550847,143.987288 90.6991525,144.978814 L89.4025424,144.978814 L89.4025424,136.576271 L89.4025424,136.576271 Z" id="Path" fill="#000000"></path>
            <path d="M76.9322034,138.711864 L75.3305085,138.877119 C75.1271186,137.300847 72.9533898,137.161017 72.9533898,139.347458 C72.9533898,141.152542 74.5423729,141.279661 75.4449153,140.300847 L76.7415254,140.478814 L75.9152542,144.826271 L71.6822034,144.826271 L71.6822034,143.326271 L74.7076271,143.326271 L74.9491525,141.902542 C72.3940678,143.186441 70.1694915,139.894068 71.9110169,137.529661 C73.2457627,135.699153 76.5762712,136.105932 76.9322034,138.711864 L76.9322034,138.711864 Z" id="Path" fill="#000000"></path>
            <path d="M54.9915254,138.050847 L54.9915254,136.576271 L60.6101695,136.576271 C60.2923729,139.512712 56.6059322,140.707627 56.6059322,142.538136 C56.6059322,143.949153 58.7033898,144.216102 58.8177966,142.334746 L60.4194915,142.5 C60.0889831,145.627119 56.720339,145.271186 55.7033898,144.305085 C54.5466102,143.224576 54.9279661,141.673729 55.8432203,140.491525 C56.4661017,139.70339 57.75,138.800847 58.1822034,138.050847 L54.9915254,138.050847 L54.9915254,138.050847 Z" id="Path" fill="#000000"></path>
            <path d="M90.3559322,120.025424 L90.3559322,121.70339 L93.7754237,121.70339 L93.7754237,123.101695 L90.1525424,128.415254 L88.8050847,128.415254 L88.8050847,123.114407 L87.7754237,123.114407 L87.7754237,121.70339 L88.8050847,121.70339 L88.8050847,120.025424 L90.3559322,120.025424 L90.3559322,120.025424 Z M90.3559322,123.114407 L90.3559322,125.961864 L92.2754237,123.114407 L90.3559322,123.114407 Z" id="Shape" fill="#000000"></path>
            <path d="M71.529661,126.34322 L73.0805085,126.165254 C73.220339,127.322034 74.3262712,127.322034 74.8601695,126.648305 C75.0889831,126.34322 75.2415254,125.707627 75.2923729,124.754237 C74.0211864,126.254237 71.3771186,125.262712 71.3771186,122.707627 C71.3771186,119.758475 74.6313559,119.033898 76.1440678,120.864407 C77.3135593,122.275424 77.809322,128.427966 73.9067797,128.427966 C72.5847458,128.427966 71.7457627,127.652542 71.529661,126.34322 L71.529661,126.34322 Z M75.1652542,122.834746 C75.1652542,120.838983 72.940678,120.508475 72.940678,122.694915 C72.940678,124.868644 75.1652542,124.728814 75.1652542,122.834746 Z" id="Shape" fill="#000000"></path>
            <path d="M93.5084746,110.25 L93.5084746,111.737288 L88.0169492,111.737288 L88.0169492,110.567797 C89.6313559,108.978814 90.8389831,105.788136 90.8262712,103.487288 L92.3644068,103.487288 C92.3135593,105.851695 91.3347458,108.394068 89.8474576,110.25 L93.5084746,110.25 L93.5084746,110.25 Z" id="Path" fill="#000000"></path>
            <path d="M75.5720339,108 C77.5169492,108.826271 77.1101695,111.889831 74.25,111.889831 C71.3771186,111.889831 71.0338983,108.813559 72.9025424,108 C70.5381356,107.04661 71.1737288,103.334746 74.1864407,103.334746 C77.3516949,103.334746 77.8601695,107.021186 75.5720339,108 Z M75.2415254,109.614407 C75.2415254,108.228814 73.2584746,108.241525 73.2584746,109.614407 C73.2584746,110.961864 75.2415254,110.949153 75.2415254,109.614407 Z M75.3940678,106.029661 C75.3940678,104.173729 73.0677966,104.097458 73.0677966,106.004237 C73.0677966,107.771186 75.3940678,107.758475 75.3940678,106.029661 Z" id="Shape" fill="#000000"></path>
            <path d="M60.3559322,105.419492 L58.8050847,105.597458 C58.6652542,104.45339 57.5720339,104.415254 57.0381356,105.114407 C56.809322,105.419492 56.6694915,106.055085 56.6059322,107.021186 C57.8898305,105.533898 60.5338983,106.487288 60.5338983,109.055085 C60.5338983,111.978814 57.279661,112.728814 55.7669492,110.898305 C54.5974576,109.487288 54.0889831,103.334746 58.0042373,103.334746 C59.3516949,103.334746 60.1398305,104.084746 60.3559322,105.419492 L60.3559322,105.419492 Z M56.7457627,108.927966 C56.7457627,110.923729 58.9576271,111.254237 58.9576271,109.055085 C58.9576271,106.919492 56.7457627,107.033898 56.7457627,108.927966 Z" id="Shape" fill="#000000"></path>
            <path d="M76.3983051,41.8983051 C78.3432203,42.7245763 77.9364407,45.7754237 75.0889831,45.7754237 C72.2033898,45.7754237 71.8601695,42.7118644 73.7288136,41.8983051 C71.3771186,40.9449153 72,37.220339 75.0127119,37.220339 C78.1779661,37.220339 78.6864407,40.9194915 76.3983051,41.8983051 Z M76.0677966,43.5127119 C76.0677966,42.1271186 74.0847458,42.1398305 74.0847458,43.5127119 C74.0847458,44.8601695 76.0677966,44.8474576 76.0677966,43.5127119 Z M76.220339,39.9279661 C76.220339,38.059322 73.8940678,37.9830508 73.8940678,39.9025424 C73.8940678,41.6567797 76.220339,41.6567797 76.220339,39.9279661 Z" id="Shape" fill="#000000"></path>
            <path d="M61.2457627,44.1483051 L61.2457627,45.6228814 L55.7542373,45.6228814 L55.7542373,44.4661017 C57.3686441,42.8644068 58.5762712,39.6864407 58.5635593,37.3728814 L60.1016949,37.3728814 C60.0508475,39.7372881 59.0720339,42.279661 57.5847458,44.1483051 L61.2457627,44.1483051 L61.2457627,44.1483051 Z" id="Path" fill="#000000"></path>
            <path d="M88.9194915,22.309322 L88.9194915,20.8347458 L94.5254237,20.8347458 C94.220339,23.7711864 90.5211864,24.9661017 90.5211864,26.7966102 C90.5211864,28.2076271 92.6186441,28.4745763 92.7457627,26.5932203 L94.3474576,26.7584746 C94.0042373,29.8855932 90.6483051,29.529661 89.6186441,28.5635593 C88.4745763,27.4830508 88.8432203,25.9322034 89.7584746,24.75 C90.3813559,23.9618644 91.6779661,23.059322 92.0974576,22.309322 L88.9194915,22.309322 L88.9194915,22.309322 Z" id="Path" fill="#000000"></path>
            <path d="M73.690678,20.8347458 L75.2923729,20.8347458 L75.2923729,26.8855932 C75.8771186,26.3262712 76.5635593,25.9322034 77.3516949,25.6652542 L77.3516949,27.1271186 C76.4618644,27.4067797 75.3432203,28.2457627 74.9872881,29.2372881 L73.690678,29.2372881 L73.690678,20.8347458 L73.690678,20.8347458 Z" id="Path" fill="#000000"></path>
            <path d="M61.1822034,22.7669492 L59.6313559,22.9449153 C59.4915254,21.8008475 58.3983051,21.7627119 57.8771186,22.4745763 C57.6483051,22.779661 57.4957627,23.4025424 57.4322034,24.3686441 C58.7161017,22.8813559 61.3601695,23.8347458 61.3601695,26.4025424 C61.3601695,29.3262712 58.1059322,30.0889831 56.5932203,28.2457627 C55.4237288,26.8474576 54.9152542,20.6822034 58.8305085,20.6822034 C60.1779661,20.6822034 60.9661017,21.4322034 61.1822034,22.7669492 L61.1822034,22.7669492 Z M57.5720339,26.2754237 C57.5720339,28.2711864 59.7838983,28.6016949 59.7838983,26.4152542 C59.7838983,24.2669492 57.5720339,24.3813559 57.5720339,26.2754237 Z" id="Shape" fill="#000000"></path>
            <path d="M94.309322,6.43220339 L92.7076271,6.59745763 C92.5042373,5.00847458 90.3305085,4.86864407 90.3305085,7.06779661 C90.3305085,8.86016949 91.9194915,9 92.809322,8.00847458 L94.1059322,8.19915254 L93.2923729,12.5338983 L89.059322,12.5338983 L89.059322,11.0466102 L92.0720339,11.0466102 L92.3262712,9.62288136 C89.7584746,10.8940678 87.5338983,7.61440678 89.2754237,5.23728814 C90.6228814,3.41949153 93.9533898,3.81355932 94.309322,6.43220339 L94.309322,6.43220339 Z" id="Path" fill="#000000"></path>
            <path d="M72.3559322,10.6016949 L73.9067797,10.4237288 C74.0466102,11.5805085 75.1652542,11.5805085 75.6864407,10.9067797 C75.9152542,10.6016949 76.0677966,9.96610169 76.1186441,9.01271186 C74.8474576,10.5127119 72.2033898,9.52118644 72.2033898,6.96610169 C72.2033898,4.01694915 75.4576271,3.29237288 76.970339,5.12288136 C78.1398305,6.53389831 78.6355932,12.6864407 74.7330508,12.6864407 C73.4110169,12.6864407 72.5847458,11.9110169 72.3559322,10.6016949 L72.3559322,10.6016949 Z M75.9915254,7.09322034 C75.9915254,5.09745763 73.7669492,4.76694915 73.7669492,6.95338983 C73.7669492,9.12711864 75.9915254,8.98728814 75.9915254,7.09322034 Z" id="Shape" fill="#000000"></path>
            <path d="M58.1059322,4.28389831 L58.1059322,5.96186441 L61.5127119,5.96186441 L61.5127119,7.36016949 L57.8898305,12.6737288 L56.5423729,12.6737288 L56.5423729,7.37288136 L55.5127119,7.37288136 L55.5127119,5.96186441 L56.5423729,5.96186441 L56.5423729,4.28389831 L58.1059322,4.28389831 L58.1059322,4.28389831 Z M58.1059322,7.37288136 L58.1059322,10.220339 L60.0127119,7.37288136 L58.1059322,7.37288136 L58.1059322,7.37288136 Z" id="Shape" fill="#000000"></path>
            <path d="M171.012712,59.8855932 L172.563559,59.6949153 C172.70339,60.7881356 173.822034,61.3855932 174.584746,60.5466102 C175.144068,59.9110169 175.207627,57.7372881 173.072034,58.3347458 L173.25,57.0381356 C174.737288,57.0762712 174.788136,55.7288136 174.330508,55.2711864 C173.65678,54.6101695 172.716102,55.220339 172.601695,56.1483051 L171.139831,55.8940678 C171.826271,52.4745763 176.186441,53.440678 176.186441,55.8432203 C176.186441,56.5805085 175.792373,57.1779661 174.978814,57.6101695 C177.559322,58.1694915 176.872881,62.25 173.758475,62.25 C172.29661,62.25 171.177966,61.3601695 171.012712,59.8855932 L171.012712,59.8855932 Z" id="Path" fill="#000000"></path>
            <path d="M55.1949153,59.8855932 L56.7457627,59.6949153 C56.8855932,60.7881356 58.0042373,61.3855932 58.7669492,60.5466102 C59.3262712,59.9110169 59.3898305,57.7372881 57.2542373,58.3347458 L57.4322034,57.0381356 C58.9194915,57.0762712 58.970339,55.7288136 58.5127119,55.2711864 C57.8389831,54.6101695 56.8983051,55.220339 56.7838983,56.1483051 L55.3220339,55.8940678 C56.0084746,52.4745763 60.3686441,53.440678 60.3686441,55.8432203 C60.3686441,56.5805085 59.9745763,57.1779661 59.1610169,57.6101695 C61.7415254,58.1694915 61.0550847,62.25 57.940678,62.25 C56.4915254,62.25 55.3601695,61.3601695 55.1949153,59.8855932 L55.1949153,59.8855932 Z" id="Path" fill="#000000"></path>
            <path d="M22.1059322,92.9745763 L23.6567797,92.7838983 C23.7966102,93.8771186 24.9152542,94.4745763 25.6652542,93.6355932 C26.2372881,93 26.3008475,90.8262712 24.1652542,91.4237288 L24.3432203,90.1271186 C25.8305085,90.1652542 25.8686441,88.8177966 25.4237288,88.3601695 C24.75,87.6991525 23.809322,88.309322 23.6949153,89.2372881 L22.220339,88.9830508 C22.9194915,85.5635593 27.279661,86.529661 27.279661,88.9322034 C27.279661,89.6694915 26.8855932,90.2669492 26.0720339,90.6991525 C28.6525424,91.2584746 27.9661017,95.3389831 24.8516949,95.3389831 C23.3898305,95.3389831 22.2711864,94.4491525 22.1059322,92.9745763 Z" id="Path" fill="#000000"></path>
            <path d="M93.8389831,39.5211864 L92.2881356,39.6991525 C92.1483051,38.6059322 91.029661,38.0084746 90.2669492,38.8601695 C89.7076271,39.4957627 89.6440678,41.6694915 91.779661,41.0720339 L91.6016949,42.3686441 C90.1144068,42.3305085 90.0762712,43.6652542 90.5211864,44.1228814 C91.1949153,44.7966102 92.1355932,44.1737288 92.25,43.2584746 L93.7118644,43.5 C93.0254237,46.9322034 88.6652542,45.9533898 88.6652542,43.5508475 C88.6652542,42.8135593 89.059322,42.2288136 89.8728814,41.7838983 C87.2923729,41.2372881 87.9788136,37.1440678 91.0932203,37.1440678 C92.5550847,37.1440678 93.6737288,38.0466102 93.8389831,39.5211864 L93.8389831,39.5211864 Z" id="Path" fill="#000000"></path>
            <path d="M60.8262712,122.491525 L59.2754237,122.669492 C59.1483051,121.576271 58.029661,120.978814 57.2669492,121.830508 C56.6949153,122.466102 56.6440678,124.639831 58.779661,124.042373 L58.6016949,125.338983 C57.1144068,125.300847 57.0635593,126.635593 57.5211864,127.09322 C58.1949153,127.766949 59.1355932,127.144068 59.25,126.228814 L60.7118644,126.470339 C60.0254237,129.902542 55.6652542,128.923729 55.6652542,126.521186 C55.6652542,125.783898 56.059322,125.199153 56.8601695,124.754237 C54.2923729,124.207627 54.9788136,120.114407 58.0932203,120.114407 C59.5423729,120.114407 60.6610169,121.016949 60.8262712,122.491525 L60.8262712,122.491525 Z" id="Path" fill="#000000"></path>
        </g>
    </g>
</svg>