<?xml version="1.0" encoding="UTF-8"?>
<svg width="201px" height="150px" viewBox="0 0 201 150" version="1.1" xmlns="http://www.w3.org/2000/svg" xmlns:xlink="http://www.w3.org/1999/xlink">
    <title>sudoku_1_4</title>
    <g id="Sudoku" stroke="none" stroke-width="1" fill="none" fill-rule="evenodd">
        <g id="sudoku_1_4" fill-rule="nonzero">
            <path d="M99.8164557,49.9746835 C133.044304,49.9746835 166.281646,49.9746835 199.509494,49.9746835 C199.509494,66.5886076 199.509494,83.2025316 199.509494,99.8164557 C166.281646,99.8164557 133.044304,99.8164557 99.8164557,99.8164557 C99.8164557,116.43038 99.8164557,133.044304 99.8164557,149.658228 C83.2025316,149.658228 66.5886076,149.658228 49.9746835,149.658228 C49.9746835,133.044304 49.9746835,116.43038 49.9746835,99.8164557 C33.3607595,99.8164557 16.7468354,99.8164557 0.132911392,99.8164557 C0.132911392,83.2025316 0.132911392,66.5886076 0.132911392,49.9746835 C16.7468354,49.9746835 33.3607595,49.9746835 49.9746835,49.9746835 C49.9746835,33.3607595 49.9746835,16.7468354 49.9746835,0.132911392 C66.5886076,0.132911392 83.2025316,0.132911392 99.8164557,0.132911392 C99.8164557,16.7468354 99.8164557,33.3607595 99.8164557,49.9746835 Z" id="Path" fill="#000000"></path>
            <polygon id="Path" fill="#FFFFFF" points="98.1550633 98.1550633 84.8639241 98.1550633 84.8639241 84.8639241 98.1550633 84.8639241"></polygon>
            <polygon id="Path" fill="#FFFFFF" points="68.25 98.1550633 81.5411392 98.1550633 81.5411392 84.8639241 68.25 84.8639241"></polygon>
            <polygon id="Path" fill="#FFFFFF" points="64.9272152 98.1550633 51.6360759 98.1550633 51.6360759 84.8639241 64.9272152 84.8639241"></polygon>
            <polygon id="Path" fill="#FFFFFF" points="98.1550633 68.25 84.8639241 68.25 84.8639241 81.5411392 98.1550633 81.5411392"></polygon>
            <polygon id="Path" fill="#FFFFFF" points="68.25 68.25 81.5411392 68.25 81.5411392 81.5411392 68.25 81.5411392"></polygon>
            <polygon id="Path" fill="#FFFFFF" points="64.9272152 68.25 51.6360759 68.25 51.6360759 81.5411392 64.9272152 81.5411392"></polygon>
            <polygon id="Path" fill="#FFFFFF" points="98.1550633 64.9272152 84.8639241 64.9272152 84.8639241 51.6360759 98.1550633 51.6360759"></polygon>
            <polygon id="Path" fill="#FFFFFF" points="68.25 64.9272152 81.5411392 64.9272152 81.5411392 51.6360759 68.25 51.6360759"></polygon>
            <polygon id="Path" fill="#FFFFFF" points="64.9272152 64.9272152 51.6360759 64.9272152 51.6360759 51.6360759 64.9272152 51.6360759"></polygon>
            <polygon id="Path" fill="#FFFFFF" points="101.477848 98.1550633 114.768987 98.1550633 114.768987 84.8639241 101.477848 84.8639241"></polygon>
            <polygon id="Path" fill="#FFFFFF" points="131.382911 98.1550633 118.091772 98.1550633 118.091772 84.8639241 131.382911 84.8639241"></polygon>
            <polygon id="Path" fill="#FFFFFF" points="134.705696 98.1550633 147.996835 98.1550633 147.996835 84.8639241 134.705696 84.8639241"></polygon>
            <polygon id="Path" fill="#FFFFFF" points="101.477848 68.25 114.768987 68.25 114.768987 81.5411392 101.477848 81.5411392"></polygon>
            <polygon id="Path" fill="#FFFFFF" points="131.382911 68.25 118.091772 68.25 118.091772 81.5411392 131.382911 81.5411392"></polygon>
            <polygon id="Path" fill="#FFFFFF" points="134.705696 68.25 147.996835 68.25 147.996835 81.5411392 134.705696 81.5411392"></polygon>
            <polygon id="Path" fill="#FFFFFF" points="101.477848 64.9272152 114.768987 64.9272152 114.768987 51.6360759 101.477848 51.6360759"></polygon>
            <polygon id="Path" fill="#FFFFFF" points="131.382911 64.9272152 118.091772 64.9272152 118.091772 51.6360759 131.382911 51.6360759"></polygon>
            <polygon id="Path" fill="#FFFFFF" points="134.705696 64.9272152 147.996835 64.9272152 147.996835 51.6360759 134.705696 51.6360759"></polygon>
            <polygon id="Path" fill="#FFFFFF" points="197.848101 98.1550633 184.556962 98.1550633 184.556962 84.8639241 197.848101 84.8639241"></polygon>
            <polygon id="Path" fill="#FFFFFF" points="167.943038 98.1550633 181.234177 98.1550633 181.234177 84.8639241 167.943038 84.8639241"></polygon>
            <polygon id="Path" fill="#FFFFFF" points="164.620253 98.1550633 151.31962 98.1550633 151.31962 84.8639241 164.620253 84.8639241"></polygon>
            <polygon id="Path" fill="#FFFFFF" points="197.848101 68.25 184.556962 68.25 184.556962 81.5411392 197.848101 81.5411392"></polygon>
            <polygon id="Path" fill="#FFFFFF" points="167.943038 68.25 181.234177 68.25 181.234177 81.5411392 167.943038 81.5411392"></polygon>
            <polygon id="Path" fill="#FFFFFF" points="164.620253 68.25 151.31962 68.25 151.31962 81.5411392 164.620253 81.5411392"></polygon>
            <polygon id="Path" fill="#FFFFFF" points="197.848101 64.9272152 184.556962 64.9272152 184.556962 51.6360759 197.848101 51.6360759"></polygon>
            <polygon id="Path" fill="#FFFFFF" points="167.943038 64.9272152 181.234177 64.9272152 181.234177 51.6360759 167.943038 51.6360759"></polygon>
            <polygon id="Path" fill="#FFFFFF" points="164.620253 64.9272152 151.31962 64.9272152 151.31962 51.6360759 164.620253 51.6360759"></polygon>
            <polygon id="Path" fill="#FFFFFF" points="98.1550633 101.477848 84.8639241 101.477848 84.8639241 114.768987 98.1550633 114.768987"></polygon>
            <polygon id="Path" fill="#FFFFFF" points="68.25 101.477848 81.5411392 101.477848 81.5411392 114.768987 68.25 114.768987"></polygon>
            <polygon id="Path" fill="#FFFFFF" points="64.9272152 101.477848 51.6360759 101.477848 51.6360759 114.768987 64.9272152 114.768987"></polygon>
            <polygon id="Path" fill="#FFFFFF" points="98.1550633 131.382911 84.8639241 131.382911 84.8639241 118.091772 98.1550633 118.091772"></polygon>
            <polygon id="Path" fill="#FFFFFF" points="68.25 131.382911 81.5411392 131.382911 81.5411392 118.091772 68.25 118.091772"></polygon>
            <polygon id="Path" fill="#FFFFFF" points="64.9272152 131.382911 51.6360759 131.382911 51.6360759 118.091772 64.9272152 118.091772"></polygon>
            <polygon id="Path" fill="#FFFFFF" points="98.1550633 134.705696 84.8639241 134.705696 84.8639241 147.996835 98.1550633 147.996835"></polygon>
            <polygon id="Path" fill="#FFFFFF" points="68.25 134.705696 81.5411392 134.705696 81.5411392 147.996835 68.25 147.996835"></polygon>
            <polygon id="Path" fill="#FFFFFF" points="64.9272152 134.705696 51.6360759 134.705696 51.6360759 147.996835 64.9272152 147.996835"></polygon>
            <polygon id="Path" fill="#FFFFFF" points="98.1550633 1.7943038 84.8639241 1.7943038 84.8639241 15.085443 98.1550633 15.085443"></polygon>
            <polygon id="Path" fill="#FFFFFF" points="68.25 1.7943038 81.5411392 1.7943038 81.5411392 15.085443 68.25 15.085443"></polygon>
            <polygon id="Path" fill="#FFFFFF" points="64.9272152 1.7943038 51.6360759 1.7943038 51.6360759 15.085443 64.9272152 15.085443"></polygon>
            <polygon id="Path" fill="#FFFFFF" points="98.1550633 31.6993671 84.8639241 31.6993671 84.8639241 18.4082278 98.1550633 18.4082278"></polygon>
            <polygon id="Path" fill="#FFFFFF" points="68.25 31.6993671 81.5411392 31.6993671 81.5411392 18.4082278 68.25 18.4082278"></polygon>
            <polygon id="Path" fill="#FFFFFF" points="64.9272152 31.6993671 51.6360759 31.6993671 51.6360759 18.4082278 64.9272152 18.4082278"></polygon>
            <polygon id="Path" fill="#FFFFFF" points="98.1550633 35.0221519 84.8639241 35.0221519 84.8639241 48.3132911 98.1550633 48.3132911"></polygon>
            <polygon id="Path" fill="#FFFFFF" points="68.25 35.0221519 81.5411392 35.0221519 81.5411392 48.3132911 68.25 48.3132911"></polygon>
            <polygon id="Path" fill="#FFFFFF" points="64.9272152 35.0221519 51.6360759 35.0221519 51.6360759 48.3132911 64.9272152 48.3132911"></polygon>
            <polygon id="Path" fill="#FFFFFF" points="1.7943038 98.1550633 15.085443 98.1550633 15.085443 84.8639241 1.7943038 84.8639241"></polygon>
            <polygon id="Path" fill="#FFFFFF" points="31.6993671 98.1550633 18.4082278 98.1550633 18.4082278 84.8639241 31.6993671 84.8639241"></polygon>
            <polygon id="Path" fill="#FFFFFF" points="35.0221519 98.1550633 48.3132911 98.1550633 48.3132911 84.8639241 35.0221519 84.8639241"></polygon>
            <polygon id="Path" fill="#FFFFFF" points="1.7943038 68.25 15.085443 68.25 15.085443 81.5411392 1.7943038 81.5411392"></polygon>
            <polygon id="Path" fill="#FFFFFF" points="31.6993671 68.25 18.4082278 68.25 18.4082278 81.5411392 31.6993671 81.5411392"></polygon>
            <polygon id="Path" fill="#FFFFFF" points="35.0221519 68.25 48.3132911 68.25 48.3132911 81.5411392 35.0221519 81.5411392"></polygon>
            <polygon id="Path" fill="#FFFFFF" points="1.7943038 64.9272152 15.085443 64.9272152 15.085443 51.6360759 1.7943038 51.6360759"></polygon>
            <polygon id="Path" fill="#FFFFFF" points="31.6993671 64.9272152 18.4082278 64.9272152 18.4082278 51.6360759 31.6993671 51.6360759"></polygon>
            <polygon id="Path" fill="#FFFFFF" points="35.0221519 64.9272152 48.3132911 64.9272152 48.3132911 51.6360759 35.0221519 51.6360759"></polygon>
            <path d="M60.1234177,62.5063291 L58.5189873,62.5063291 L58.5189873,56.4303797 C57.9303797,56.9810127 57.2373418,57.3892405 56.4398734,57.6455696 L56.4398734,56.1835443 C57.3322785,55.8987342 58.4620253,55.0632911 58.8227848,54.0664557 L60.1234177,54.0664557 L60.1234177,62.5063291 Z" id="Path" fill="#000000"></path>
            <path d="M78.0664557,61.0158228 L78.0664557,62.5063291 L72.4272152,62.5063291 C72.7405063,59.5537975 76.443038,58.3575949 76.443038,56.5158228 C76.443038,55.0917722 74.3449367,54.8259494 74.221519,56.7151899 L72.6075949,56.5537975 C72.9493671,53.4208861 76.3291139,53.7626582 77.3544304,54.7310127 C78.5126582,55.8227848 78.1329114,57.3797468 77.2120253,58.5664557 C76.5949367,59.3639241 75.2943038,60.2753165 74.8575949,61.0158228 L78.0664557,61.0158228 L78.0664557,61.0158228 Z" id="Path" fill="#000000"></path>
            <path d="M89.193038,60.2753165 L90.75,60.085443 C90.9683544,61.8512658 93.1044304,61.6803797 93.1044304,59.914557 C93.1044304,58.7753165 92.335443,58.414557 91.2531646,58.7183544 L91.4335443,57.4177215 C93.1898734,57.4651899 93.1139241,55.3955696 91.8417722,55.3955696 C91.2151899,55.3955696 90.8639241,55.8797468 90.7879747,56.5253165 L89.306962,56.2689873 C90,52.8322785 94.3860759,53.8101266 94.3860759,56.221519 C94.3860759,56.9620253 93.9778481,57.5601266 93.1708861,57.9968354 C95.7531646,58.5474684 95.0791139,62.6582278 91.9462025,62.6582278 C90.4651899,62.6582278 89.3544304,61.7373418 89.193038,60.2753165 L89.193038,60.2753165 Z" id="Path" fill="#000000"></path>
            <path d="M59.164557,79.1202532 L59.164557,77.4303797 L55.7373418,77.4303797 L55.7373418,76.0253165 L59.3734177,70.6898734 L60.721519,70.6898734 L60.721519,76.0253165 L61.7658228,76.0253165 L61.7658228,77.4303797 L60.721519,77.4303797 L60.721519,79.1202532 L59.164557,79.1202532 Z M59.164557,76.0253165 L59.164557,73.1582278 L57.2468354,76.0253165 L59.164557,76.0253165 Z" id="Shape" fill="#000000"></path>
            <path d="M72.6455696,76.9651899 L74.25,76.7943038 C74.4588608,78.3892405 76.6424051,78.5221519 76.6424051,76.3291139 C76.6424051,74.5253165 75.0474684,74.3829114 74.1455696,75.3797468 L72.8449367,75.1898734 L73.6708861,70.8322785 L77.9240506,70.8322785 L77.9240506,72.3322785 L74.8860759,72.3322785 L74.6297468,73.7563291 C77.2120253,72.4746835 79.443038,75.778481 77.6962025,78.1518987 C76.3481013,79.9936709 73.0063291,79.5949367 72.6455696,76.9651899 L72.6455696,76.9651899 Z" id="Path" fill="#000000"></path>
            <path d="M94.6898734,72.778481 L93.1329114,72.9493671 C93,71.7911392 91.8702532,71.7816456 91.3481013,72.4746835 C91.1107595,72.778481 90.9683544,73.414557 90.9018987,74.3734177 C92.193038,72.8544304 94.8417722,73.8607595 94.8417722,76.4240506 C94.8417722,79.3860759 91.5759494,80.1170886 90.056962,78.2753165 C88.8797468,76.8512658 88.3860759,70.6803797 92.306962,70.6803797 C93.6265823,70.6803797 94.4620253,71.4588608 94.6898734,72.778481 L94.6898734,72.778481 Z M91.0443038,76.2911392 C91.0443038,78.3037975 93.2658228,78.6265823 93.2658228,76.4335443 C93.2658228,74.2594937 91.0443038,74.3924051 91.0443038,76.2911392 Z" id="Shape" fill="#000000"></path>
            <path d="M56.0126582,88.9367089 L56.0126582,87.4462025 L61.5189873,87.4462025 L61.5189873,88.6139241 C59.8955696,90.2183544 58.6803797,93.4082278 58.6898734,95.7341772 L57.1424051,95.7341772 C57.1993671,93.3512658 58.1867089,90.806962 59.6772152,88.9367089 L56.0126582,88.9367089 L56.0126582,88.9367089 Z" id="Path" fill="#000000"></path>
            <path d="M74.0126582,91.1962025 C72.056962,90.3702532 72.4651899,87.2943038 75.3322785,87.2943038 C78.2278481,87.2943038 78.5791139,90.3702532 76.6898734,91.1962025 C79.0632911,92.1455696 78.4367089,95.8860759 75.4082278,95.8860759 C72.2278481,95.8860759 71.7246835,92.1740506 74.0126582,91.1962025 L74.0126582,91.1962025 Z M74.3449367,89.5727848 C74.3449367,90.9588608 76.3386076,90.9493671 76.3386076,89.5727848 C76.3386076,88.2151899 74.3449367,88.2341772 74.3449367,89.5727848 Z M74.193038,93.1708861 C74.193038,95.0411392 76.528481,95.1170886 76.528481,93.1898734 C76.528481,91.4335443 74.193038,91.4335443 74.193038,93.1708861 Z" id="Shape" fill="#000000"></path>
            <path d="M89.2974684,93.778481 L90.8544304,93.6075949 C90.9873418,94.7563291 92.0886076,94.7943038 92.6202532,94.0917722 C92.8481013,93.778481 93,93.1424051 93.056962,92.1835443 C91.7753165,93.6740506 89.1170886,92.7151899 89.1170886,90.1329114 C89.1170886,87.1993671 92.3829114,86.4398734 93.9018987,88.2816456 C95.0696203,89.6962025 95.5822785,95.8860759 91.6613924,95.8860759 C90.3037975,95.8860759 89.5158228,95.1265823 89.2974684,93.778481 Z M92.914557,90.2658228 C92.914557,88.2626582 90.7025316,87.9303797 90.7025316,90.1329114 C90.7025316,92.278481 92.914557,92.164557 92.914557,90.2658228 Z" id="Shape" fill="#000000"></path>
            <path d="M9.70253165,62.3544304 L8.09810127,62.3544304 L8.09810127,56.278481 C7.50949367,56.8291139 6.82594937,57.2373418 6.02848101,57.4936709 L6.02848101,56.0316456 C6.91139241,55.7468354 8.04113924,54.9113924 8.40189873,53.914557 L9.70253165,53.914557 L9.70253165,62.3544304 L9.70253165,62.3544304 Z" id="Path" fill="#000000"></path>
            <path d="M27.6455696,60.8639241 L27.6455696,62.3544304 L22.0063291,62.3544304 C22.3196203,59.4018987 26.0316456,58.2056962 26.0316456,56.3639241 C26.0316456,54.9398734 23.9240506,54.664557 23.8006329,56.5632911 L22.1962025,56.4018987 C22.528481,53.2594937 25.9082278,53.6107595 26.9335443,54.5791139 C28.0917722,55.6708861 27.7120253,57.2278481 26.8006329,58.414557 C26.1740506,59.2120253 24.8734177,60.1234177 24.4462025,60.8639241 L27.6455696,60.8639241 L27.6455696,60.8639241 Z" id="Path" fill="#000000"></path>
            <path d="M38.7721519,60.1234177 L40.3291139,59.9335443 C40.5474684,61.6993671 42.693038,61.528481 42.693038,59.7626582 C42.693038,58.6139241 41.914557,58.2626582 40.8322785,58.5664557 L41.0126582,57.2658228 C42.778481,57.3132911 42.7025316,55.2436709 41.4303797,55.2436709 C40.8037975,55.2436709 40.443038,55.7278481 40.3670886,56.3734177 L38.8860759,56.1170886 C39.5886076,52.6803797 43.9651899,53.6582278 43.9651899,56.0696203 C43.9651899,56.8101266 43.5664557,57.4082278 42.7594937,57.8449367 C45.3322785,58.3955696 44.6582278,62.5063291 41.5253165,62.5063291 C40.0443038,62.5063291 38.9335443,61.585443 38.7721519,60.1234177 L38.7721519,60.1234177 Z" id="Path" fill="#000000"></path>
            <path d="M8.74367089,78.9683544 L8.74367089,77.278481 L5.32594937,77.278481 L5.32594937,75.8734177 L8.95253165,70.5379747 L10.3006329,70.5379747 L10.3006329,75.8734177 L11.3449367,75.8734177 L11.3449367,77.278481 L10.3006329,77.278481 L10.3006329,78.9683544 L8.74367089,78.9683544 Z M8.74367089,75.8734177 L8.74367089,73.0063291 L6.82594937,75.8734177 L8.74367089,75.8734177 Z" id="Shape" fill="#000000"></path>
            <path d="M22.2246835,76.8132911 L23.8386076,76.6424051 C24.0379747,78.2373418 26.2310127,78.3702532 26.2310127,76.1772152 C26.2310127,74.3734177 24.6265823,74.2310127 23.7341772,75.2278481 L22.4240506,75.0379747 L23.25,70.6803797 L27.5031646,70.6803797 L27.5031646,72.1803797 L24.4651899,72.1803797 L24.2183544,73.6044304 C26.7911392,72.3227848 29.0221519,75.6265823 27.2753165,78 C25.9272152,79.8417722 22.585443,79.443038 22.2246835,76.8132911 L22.2246835,76.8132911 Z" id="Path" fill="#000000"></path>
            <path d="M44.2689873,72.6265823 L42.7120253,72.7974684 C42.5791139,71.6392405 41.4588608,71.6297468 40.9272152,72.3227848 C40.6993671,72.6265823 40.5474684,73.2626582 40.4905063,74.221519 C41.7721519,72.7025316 44.4208861,73.7088608 44.4208861,76.2626582 C44.4208861,79.2246835 41.1550633,79.9651899 39.6360759,78.1234177 C38.4588608,76.6993671 37.9746835,70.528481 41.8860759,70.528481 C43.2151899,70.528481 44.0506329,71.306962 44.2689873,72.6265823 L44.2689873,72.6265823 Z M40.6234177,76.1392405 C40.6234177,78.1518987 42.8544304,78.4746835 42.8544304,76.2816456 C42.8544304,74.0981013 40.6234177,74.2405063 40.6234177,76.1392405 Z" id="Shape" fill="#000000"></path>
            <path d="M5.59177215,88.7848101 L5.59177215,87.2943038 L11.0981013,87.2943038 L11.0981013,88.4620253 C9.47468354,90.0664557 8.25949367,93.2563291 8.27848101,95.5822785 L6.73101266,95.5822785 C6.78797468,93.1993671 7.76582278,90.6550633 9.25632911,88.7848101 L5.59177215,88.7848101 L5.59177215,88.7848101 Z" id="Path" fill="#000000"></path>
            <path d="M23.5917722,91.0443038 C21.6455696,90.2088608 22.0537975,87.1424051 24.9208861,87.1424051 C27.806962,87.1424051 28.1582278,90.2183544 26.278481,91.0443038 C28.6424051,91.9936709 28.0158228,95.7341772 24.9968354,95.7341772 C21.806962,95.7341772 21.3037975,92.0221519 23.5917722,91.0443038 L23.5917722,91.0443038 Z M23.9240506,89.4208861 C23.9240506,90.806962 25.9177215,90.7974684 25.9177215,89.4208861 C25.9177215,88.0632911 23.9240506,88.0822785 23.9240506,89.4208861 Z M23.7721519,93.0189873 C23.7721519,94.8892405 26.1075949,94.9651899 26.1075949,93.0379747 C26.1075949,91.2816456 23.7721519,91.2816456 23.7721519,93.0189873 Z" id="Shape" fill="#000000"></path>
            <path d="M38.8765823,93.6265823 L40.4335443,93.4556962 C40.5759494,94.6044304 41.6772152,94.6424051 42.1993671,93.9303797 C42.4367089,93.6265823 42.5791139,92.9905063 42.6455696,92.0316456 C41.3544304,93.5221519 38.7056962,92.5632911 38.7056962,89.9810127 C38.7056962,87.0379747 41.9620253,86.2879747 43.4905063,88.1297468 C44.6582278,89.5443038 45.1708861,95.7341772 41.2405063,95.7341772 C39.8829114,95.7341772 39.0949367,94.9746835 38.8765823,93.6265823 Z M42.5031646,90.1139241 C42.5031646,88.1012658 40.2816456,87.778481 40.2816456,89.9810127 C40.2816456,92.1265823 42.5031646,92.0126582 42.5031646,90.1139241 L42.5031646,90.1139241 Z" id="Shape" fill="#000000"></path>
            <path d="M109.39557,62.3544304 L107.791139,62.3544304 L107.791139,56.278481 C107.202532,56.8291139 106.509494,57.2373418 105.712025,57.4936709 L105.712025,56.0316456 C106.60443,55.7468354 107.734177,54.9113924 108.085443,53.914557 L109.39557,53.914557 L109.39557,62.3544304 Z" id="Path" fill="#000000"></path>
            <path d="M127.329114,60.8639241 L127.329114,62.3544304 L121.689873,62.3544304 C122.012658,59.4018987 125.71519,58.2056962 125.71519,56.3639241 C125.71519,54.9398734 123.607595,54.664557 123.484177,56.5632911 L121.879747,56.4018987 C122.221519,53.2594937 125.591772,53.6107595 126.626582,54.5791139 C127.775316,55.6708861 127.405063,57.2278481 126.484177,58.414557 C125.857595,59.2120253 124.566456,60.1234177 124.129747,60.8639241 L127.329114,60.8639241 L127.329114,60.8639241 Z" id="Path" fill="#000000"></path>
            <path d="M138.455696,60.1234177 L140.022152,59.9335443 C140.231013,61.6993671 142.376582,61.528481 142.376582,59.7626582 C142.376582,58.6139241 141.598101,58.2626582 140.525316,58.5664557 L140.705696,57.2658228 C142.462025,57.3132911 142.386076,55.2436709 141.113924,55.2436709 C140.487342,55.2436709 140.126582,55.7278481 140.050633,56.3734177 L138.579114,56.1170886 C139.272152,52.6803797 143.648734,53.6582278 143.648734,56.0696203 C143.648734,56.8101266 143.25,57.4082278 142.443038,57.8449367 C145.025316,58.3955696 144.351266,62.5063291 141.218354,62.5063291 C139.727848,62.5063291 138.626582,61.585443 138.455696,60.1234177 L138.455696,60.1234177 Z" id="Path" fill="#000000"></path>
            <path d="M108.427215,78.9683544 L108.427215,77.278481 L105.009494,77.278481 L105.009494,75.8734177 L108.636076,70.5379747 L109.993671,70.5379747 L109.993671,75.8734177 L111.037975,75.8734177 L111.037975,77.278481 L109.993671,77.278481 L109.993671,78.9683544 L108.427215,78.9683544 Z M108.427215,75.8734177 L108.427215,73.0063291 L106.509494,75.8734177 L108.427215,75.8734177 Z" id="Shape" fill="#000000"></path>
            <path d="M121.917722,76.8132911 L123.522152,76.6424051 C123.731013,78.2373418 125.914557,78.3702532 125.914557,76.1772152 C125.914557,74.3734177 124.310127,74.2310127 123.417722,75.2278481 L122.117089,75.0379747 L122.933544,70.6803797 L127.186709,70.6803797 L127.186709,72.1803797 L124.158228,72.1803797 L123.901899,73.6044304 C126.474684,72.3227848 128.71519,75.6265823 126.968354,78 C125.620253,79.8417722 122.268987,79.443038 121.917722,76.8132911 L121.917722,76.8132911 Z" id="Path" fill="#000000"></path>
            <path d="M143.962025,72.6265823 L142.39557,72.7974684 C142.262658,71.6392405 141.142405,71.6297468 140.620253,72.3227848 C140.382911,72.6265823 140.240506,73.2626582 140.174051,74.221519 C141.46519,72.7025316 144.113924,73.7088608 144.113924,76.2626582 C144.113924,79.2246835 140.848101,79.9651899 139.329114,78.1234177 C138.151899,76.6993671 137.658228,70.528481 141.579114,70.528481 C142.898734,70.528481 143.734177,71.306962 143.962025,72.6265823 Z M140.316456,76.1392405 C140.316456,78.1518987 142.537975,78.4746835 142.537975,76.2816456 C142.537975,74.0981013 140.316456,74.2405063 140.316456,76.1392405 Z" id="Shape" fill="#000000"></path>
            <path d="M105.275316,88.7848101 L105.275316,87.2943038 L110.791139,87.2943038 L110.791139,88.4620253 C109.158228,90.0664557 107.952532,93.2563291 107.962025,95.5822785 L106.414557,95.5822785 C106.471519,93.1993671 107.458861,90.6550633 108.939873,88.7848101 L105.275316,88.7848101 L105.275316,88.7848101 Z" id="Path" fill="#000000"></path>
            <path d="M123.275316,91.0443038 C121.329114,90.2088608 121.737342,87.1424051 124.60443,87.1424051 C127.5,87.1424051 127.841772,90.2183544 125.962025,91.0443038 C128.335443,91.9936709 127.708861,95.7341772 124.68038,95.7341772 C121.5,95.7341772 120.987342,92.0221519 123.275316,91.0443038 L123.275316,91.0443038 Z M123.617089,89.4208861 C123.617089,90.806962 125.610759,90.7974684 125.610759,89.4208861 C125.610759,88.0632911 123.617089,88.0822785 123.617089,89.4208861 Z M123.46519,93.0189873 C123.46519,94.8892405 125.800633,94.9651899 125.800633,93.0379747 C125.800633,91.2816456 123.46519,91.2816456 123.46519,93.0189873 Z" id="Shape" fill="#000000"></path>
            <path d="M138.56962,93.6265823 L140.126582,93.4556962 C140.259494,94.6044304 141.360759,94.6424051 141.892405,93.9303797 C142.120253,93.6265823 142.262658,92.9905063 142.329114,92.0316456 C141.047468,93.5221519 138.389241,92.5632911 138.389241,89.9810127 C138.389241,87.0379747 141.655063,86.2879747 143.174051,88.1297468 C144.341772,89.5443038 144.85443,95.7341772 140.924051,95.7341772 C139.575949,95.7341772 138.787975,94.9746835 138.56962,93.6265823 Z M142.186709,90.1139241 C142.186709,88.1012658 139.974684,87.778481 139.974684,89.9810127 C139.974684,92.1265823 142.186709,92.0126582 142.186709,90.1139241 Z" id="Shape" fill="#000000"></path>
            <path d="M159.237342,62.3544304 L157.632911,62.3544304 L157.632911,56.278481 C157.044304,56.8291139 156.351266,57.2373418 155.553797,57.4936709 L155.553797,56.0316456 C156.446203,55.7468354 157.575949,54.9113924 157.936709,53.914557 L159.237342,53.914557 L159.237342,62.3544304 Z" id="Path" fill="#000000"></path>
            <path d="M177.170886,60.8639241 L177.170886,62.3544304 L171.541139,62.3544304 C171.85443,59.4018987 175.556962,58.2056962 175.556962,56.3639241 C175.556962,54.9398734 173.458861,54.664557 173.325949,56.5632911 L171.721519,56.4018987 C172.063291,53.2594937 175.433544,53.6107595 176.468354,54.5791139 C177.617089,55.6708861 177.246835,57.2278481 176.325949,58.414557 C175.699367,59.2120253 174.408228,60.1234177 173.971519,60.8639241 L177.170886,60.8639241 L177.170886,60.8639241 Z" id="Path" fill="#000000"></path>
            <path d="M188.306962,60.1234177 L189.863924,59.9335443 C190.082278,61.6993671 192.218354,61.528481 192.218354,59.7626582 C192.218354,58.6139241 191.449367,58.2626582 190.367089,58.5664557 L190.547468,57.2658228 C192.303797,57.3132911 192.227848,55.2436709 190.955696,55.2436709 C190.329114,55.2436709 189.977848,55.7278481 189.901899,56.3734177 L188.420886,56.1170886 C189.113924,52.6803797 193.5,53.6582278 193.5,56.0696203 C193.5,56.8101266 193.091772,57.4082278 192.28481,57.8449367 C194.867089,58.3955696 194.193038,62.5063291 191.060127,62.5063291 C189.56962,62.5063291 188.468354,61.585443 188.306962,60.1234177 L188.306962,60.1234177 Z" id="Path" fill="#000000"></path>
            <path d="M158.278481,78.9683544 L158.278481,77.278481 L154.851266,77.278481 L154.851266,75.8734177 L158.477848,70.5379747 L159.835443,70.5379747 L159.835443,75.8734177 L160.879747,75.8734177 L160.879747,77.278481 L159.835443,77.278481 L159.835443,78.9683544 L158.278481,78.9683544 Z M158.278481,75.8734177 L158.278481,73.0063291 L156.360759,75.8734177 L158.278481,75.8734177 Z" id="Shape" fill="#000000"></path>
            <path d="M171.759494,76.8132911 L173.363924,76.6424051 C173.572785,78.2373418 175.756329,78.3702532 175.756329,76.1772152 C175.756329,74.3734177 174.151899,74.2310127 173.259494,75.2278481 L171.958861,75.0379747 L172.775316,70.6803797 L177.037975,70.6803797 L177.037975,72.1803797 L174,72.1803797 L173.743671,73.6044304 C176.325949,72.3227848 178.556962,75.6265823 176.810127,78 C175.462025,79.8417722 172.120253,79.443038 171.759494,76.8132911 L171.759494,76.8132911 Z" id="Path" fill="#000000"></path>
            <path d="M193.803797,72.6265823 L192.246835,72.7974684 C192.10443,71.6392405 190.984177,71.6297468 190.462025,72.3227848 C190.224684,72.6265823 190.082278,73.2626582 190.015823,74.221519 C191.306962,72.7025316 193.955696,73.7088608 193.955696,76.2626582 C193.955696,79.2246835 190.689873,79.9651899 189.170886,78.1234177 C187.993671,76.6993671 187.5,70.528481 191.420886,70.528481 C192.740506,70.528481 193.575949,71.306962 193.803797,72.6265823 L193.803797,72.6265823 Z M190.158228,76.1392405 C190.158228,78.1518987 192.379747,78.4746835 192.379747,76.2816456 C192.379747,74.0981013 190.158228,74.2405063 190.158228,76.1392405 Z" id="Shape" fill="#000000"></path>
            <path d="M155.117089,88.7848101 L155.117089,87.2943038 L160.632911,87.2943038 L160.632911,88.4620253 C159,90.0664557 157.794304,93.2563291 157.803797,95.5822785 L156.256329,95.5822785 C156.313291,93.1993671 157.300633,90.6550633 158.791139,88.7848101 L155.117089,88.7848101 L155.117089,88.7848101 Z" id="Path" fill="#000000"></path>
            <path d="M173.126582,91.0443038 C171.170886,90.2088608 171.579114,87.1424051 174.446203,87.1424051 C177.341772,87.1424051 177.683544,90.2183544 175.803797,91.0443038 C178.177215,91.9936709 177.550633,95.7341772 174.522152,95.7341772 C171.341772,95.7341772 170.829114,92.0221519 173.126582,91.0443038 Z M173.458861,89.4208861 C173.458861,90.806962 175.452532,90.7974684 175.452532,89.4208861 C175.452532,88.0632911 173.458861,88.0822785 173.458861,89.4208861 Z M173.306962,93.0189873 C173.306962,94.8892405 175.642405,94.9651899 175.642405,93.0379747 C175.642405,91.2816456 173.306962,91.2816456 173.306962,93.0189873 Z" id="Shape" fill="#000000"></path>
            <path d="M188.411392,93.6265823 L189.968354,93.4556962 C190.101266,94.6044304 191.202532,94.6424051 191.734177,93.9303797 C191.962025,93.6265823 192.113924,92.9905063 192.170886,92.0316456 C190.889241,93.5221519 188.231013,92.5632911 188.231013,89.9810127 C188.231013,87.0379747 191.496835,86.2879747 193.015823,88.1297468 C194.183544,89.5443038 194.696203,95.7341772 190.775316,95.7341772 C189.417722,95.7341772 188.629747,94.9746835 188.411392,93.6265823 L188.411392,93.6265823 Z M192.028481,90.1139241 C192.028481,88.1012658 189.816456,87.778481 189.816456,89.9810127 C189.816456,92.1265823 192.028481,92.0126582 192.028481,90.1139241 Z" id="Shape" fill="#000000"></path>
            <path d="M59.5537975,12.5031646 L57.9398734,12.5031646 L57.9398734,6.42721519 C57.3607595,6.9778481 56.6677215,7.38607595 55.8702532,7.65189873 L55.8702532,6.18987342 C56.8196203,5.87658228 57.9018987,5.0221519 58.2436709,4.06329114 L59.5537975,4.06329114 L59.5537975,12.5031646 Z" id="Path" fill="#000000"></path>
            <path d="M77.4873418,11.0221519 L77.4873418,12.5031646 L71.8481013,12.5031646 C72.1613924,9.56012658 75.8734177,8.36392405 75.8734177,6.5221519 C75.8734177,5.09810127 73.7658228,4.82278481 73.6424051,6.71202532 L72.0379747,6.56012658 C72.3797468,3.41772152 75.75,3.76898734 76.7753165,4.73734177 C77.9335443,5.82911392 77.5632911,7.38607595 76.6424051,8.56329114 C76.0158228,9.37025316 74.7151899,10.2721519 74.2879747,11.0221519 L77.4873418,11.0221519 Z" id="Path" fill="#000000"></path>
            <path d="M88.6139241,10.2816456 L90.1803797,10.0917722 C90.3892405,11.8481013 92.5348101,11.6867089 92.5348101,9.92088608 C92.5348101,8.7721519 91.7563291,8.42088608 90.6835443,8.72468354 L90.8544304,7.42405063 C92.6202532,7.47151899 92.5443038,5.40189873 91.2721519,5.40189873 C90.6455696,5.40189873 90.2848101,5.88607595 90.2088608,6.53164557 L88.7373418,6.27531646 C89.4303797,2.83860759 93.806962,3.8164557 93.806962,6.2278481 C93.806962,6.96835443 93.4082278,7.55696203 92.6012658,8.00316456 C95.1740506,8.55379747 94.5,12.6550633 91.3670886,12.6550633 C89.8860759,12.6550633 88.7848101,11.7341772 88.6139241,10.2816456 L88.6139241,10.2816456 Z" id="Path" fill="#000000"></path>
            <path d="M58.585443,29.1265823 L58.585443,27.4367089 L55.1677215,27.4367089 L55.1677215,26.0316456 L58.7943038,20.6962025 L60.1424051,20.6962025 L60.1424051,26.0316456 L61.1867089,26.0316456 L61.1867089,27.4367089 L60.1424051,27.4367089 L60.1424051,29.1265823 L58.585443,29.1265823 Z M58.585443,26.0316456 L58.585443,23.164557 L56.6677215,26.0316456 L58.585443,26.0316456 Z" id="Shape" fill="#000000"></path>
            <path d="M72.0759494,26.971519 L73.6803797,26.8006329 C73.8797468,28.3955696 76.0727848,28.528481 76.0727848,26.3259494 C76.0727848,24.5221519 74.4683544,24.3892405 73.5759494,25.3860759 L72.2753165,25.1962025 L73.0917722,20.8386076 L77.3449367,20.8386076 L77.3449367,22.3386076 L74.3164557,22.3386076 L74.0601266,23.7626582 C76.6329114,22.4810127 78.8734177,25.7848101 77.1170886,28.1582278 C75.7689873,29.9905063 72.4272152,29.5917722 72.0759494,26.971519 Z" id="Path" fill="#000000"></path>
            <path d="M94.1107595,22.7848101 L92.5537975,22.9556962 C92.4208861,21.7974684 91.3006329,21.7879747 90.7689873,22.471519 C90.5411392,22.7753165 90.3892405,23.4113924 90.3322785,24.3797468 C91.6139241,22.8607595 94.2626582,23.8670886 94.2626582,26.4208861 C94.2626582,29.3829114 90.9968354,30.1234177 89.4778481,28.2816456 C88.3006329,26.8575949 87.8164557,20.6772152 91.7373418,20.6772152 C93.056962,20.6772152 93.8924051,21.4651899 94.1107595,22.7848101 Z M90.4651899,26.2974684 C90.4651899,28.3101266 92.6962025,28.6329114 92.6962025,26.4398734 C92.6962025,24.2563291 90.4651899,24.3987342 90.4651899,26.2974684 Z" id="Shape" fill="#000000"></path>
            <path d="M55.4335443,38.9335443 L55.4335443,37.4525316 L60.9398734,37.4525316 L60.9398734,38.6202532 C59.3164557,40.2151899 58.1107595,43.414557 58.1202532,45.7405063 L56.5727848,45.7405063 C56.6297468,43.3575949 57.6170886,40.8037975 59.0981013,38.9335443 L55.4335443,38.9335443 L55.4335443,38.9335443 Z" id="Path" fill="#000000"></path>
            <path d="M73.4335443,41.2025316 C71.4873418,40.3670886 71.8955696,37.3006329 74.7626582,37.3006329 C77.6582278,37.3006329 78,40.3765823 76.1202532,41.2025316 C78.4936709,42.1518987 77.8575949,45.8924051 74.8386076,45.8924051 C71.6582278,45.8924051 71.1455696,42.1803797 73.4335443,41.2025316 L73.4335443,41.2025316 Z M73.7753165,39.5791139 C73.7753165,40.9651899 75.7689873,40.9462025 75.7689873,39.5696203 C75.7689873,38.221519 73.7753165,38.2405063 73.7753165,39.5791139 Z M73.6234177,43.1772152 C73.6234177,45.0474684 75.9493671,45.1234177 75.9493671,43.1962025 C75.9493671,41.4303797 73.6234177,41.4398734 73.6234177,43.1772152 Z" id="Shape" fill="#000000"></path>
            <path d="M88.7183544,43.7848101 L90.2848101,43.6139241 C90.4177215,44.7626582 91.5189873,44.7911392 92.0411392,44.0886076 C92.278481,43.7848101 92.4208861,43.1487342 92.4873418,42.1803797 C91.2056962,43.6708861 88.5474684,42.721519 88.5474684,40.1392405 C88.5474684,37.1962025 91.8132911,36.4462025 93.3322785,38.2879747 C94.5,39.7025316 95.0126582,45.8924051 91.0822785,45.8924051 C89.7246835,45.8924051 88.9367089,45.1329114 88.7183544,43.7848101 Z M92.3449367,40.2626582 C92.3449367,38.2594937 90.1329114,37.9367089 90.1329114,40.1297468 C90.1329114,42.2848101 92.3449367,42.1708861 92.3449367,40.2626582 Z" id="Shape" fill="#000000"></path>
            <path d="M59.5537975,112.196203 L57.9398734,112.196203 L57.9398734,106.120253 C57.3607595,106.670886 56.6677215,107.079114 55.8702532,107.344937 L55.8702532,105.873418 C56.7626582,105.588608 57.8829114,104.753165 58.2436709,103.756329 L59.5537975,103.756329 L59.5537975,112.196203 Z" id="Path" fill="#000000"></path>
            <path d="M77.4873418,110.705696 L77.4873418,112.196203 L71.8481013,112.196203 C72.1613924,109.243671 75.8734177,108.047468 75.8734177,106.205696 C75.8734177,104.781646 73.7658228,104.515823 73.6424051,106.405063 L72.0379747,106.243671 C72.3797468,103.110759 75.75,103.452532 76.7753165,104.43038 C77.9335443,105.512658 77.5632911,107.079114 76.6424051,108.256329 C76.0158228,109.053797 74.7151899,109.96519 74.2879747,110.705696 L77.4873418,110.705696 L77.4873418,110.705696 Z" id="Path" fill="#000000"></path>
            <path d="M88.6139241,109.96519 L90.1803797,109.775316 C90.3892405,111.541139 92.5348101,111.370253 92.5348101,109.613924 C92.5348101,108.46519 91.7563291,108.10443 90.6835443,108.408228 L90.8544304,107.107595 C92.6202532,107.155063 92.5443038,105.094937 91.2721519,105.094937 C90.6455696,105.094937 90.2848101,105.56962 90.2088608,106.21519 L88.7373418,105.968354 C89.4303797,102.522152 93.806962,103.5 93.806962,105.920886 C93.806962,106.651899 93.4082278,107.25 92.6012658,107.686709 C95.1740506,108.237342 94.5,112.348101 91.3670886,112.348101 C89.8860759,112.348101 88.7848101,111.427215 88.6139241,109.96519 L88.6139241,109.96519 Z" id="Path" fill="#000000"></path>
            <path d="M58.585443,128.810127 L58.585443,127.120253 L55.1677215,127.120253 L55.1677215,125.724684 L58.7943038,120.379747 L60.1424051,120.379747 L60.1424051,125.71519 L61.1867089,125.71519 L61.1867089,127.120253 L60.1424051,127.120253 L60.1424051,128.810127 L58.585443,128.810127 Z M58.585443,125.71519 L58.585443,122.848101 L56.6677215,125.71519 L58.585443,125.71519 Z" id="Shape" fill="#000000"></path>
            <path d="M72.0759494,126.655063 L73.6803797,126.484177 C73.8797468,128.079114 76.0727848,128.221519 76.0727848,126.018987 C76.0727848,124.21519 74.4683544,124.082278 73.5759494,125.06962 L72.2753165,124.879747 L73.0917722,120.522152 L77.3449367,120.522152 L77.3449367,122.022152 L74.3164557,122.022152 L74.0601266,123.446203 C76.6329114,122.164557 78.8734177,125.468354 77.1170886,127.851266 C75.7689873,129.683544 72.4272152,129.28481 72.0759494,126.655063 Z" id="Path" fill="#000000"></path>
            <path d="M94.1107595,122.468354 L92.5537975,122.639241 C92.4208861,121.481013 91.3006329,121.481013 90.7689873,122.164557 C90.5411392,122.468354 90.3892405,123.10443 90.3322785,124.063291 C91.6139241,122.553797 94.2626582,123.550633 94.2626582,126.113924 C94.2626582,129.075949 90.9968354,129.806962 89.4778481,127.974684 C88.3006329,126.541139 87.8164557,120.370253 91.7373418,120.370253 C93.056962,120.370253 93.8924051,121.148734 94.1107595,122.468354 Z M90.4651899,125.981013 C90.4651899,127.993671 92.6962025,128.316456 92.6962025,126.123418 C92.6962025,123.949367 90.4651899,124.082278 90.4651899,125.981013 Z" id="Shape" fill="#000000"></path>
            <path d="M55.4335443,138.626582 L55.4335443,137.136076 L60.9398734,137.136076 L60.9398734,138.303797 C59.3164557,139.908228 58.1107595,143.098101 58.1202532,145.424051 L56.5727848,145.424051 C56.6297468,143.050633 57.6170886,140.496835 59.0981013,138.626582 L55.4335443,138.626582 Z" id="Path" fill="#000000"></path>
            <path d="M73.4335443,140.886076 C71.4873418,140.060127 71.8955696,136.984177 74.7626582,136.984177 C77.6582278,136.984177 78,140.060127 76.1202532,140.886076 C78.4936709,141.835443 77.8575949,145.575949 74.8386076,145.575949 C71.6582278,145.575949 71.1455696,141.863924 73.4335443,140.886076 L73.4335443,140.886076 Z M73.7753165,139.262658 C73.7753165,140.648734 75.7689873,140.639241 75.7689873,139.262658 C75.7689873,137.914557 73.7753165,137.924051 73.7753165,139.262658 Z M73.6234177,142.870253 C73.6234177,144.731013 75.9493671,144.806962 75.9493671,142.879747 C75.9493671,141.123418 73.6234177,141.123418 73.6234177,142.870253 Z" id="Shape" fill="#000000"></path>
            <path d="M88.7183544,143.477848 L90.2848101,143.297468 C90.4177215,144.446203 91.5189873,144.484177 92.0411392,143.781646 C92.278481,143.468354 92.4208861,142.832278 92.4873418,141.873418 C91.2056962,143.363924 88.5474684,142.414557 88.5474684,139.822785 C88.5474684,136.889241 91.8132911,136.129747 93.3322785,137.971519 C94.5,139.386076 95.0126582,145.575949 91.0822785,145.575949 C89.7246835,145.575949 88.9367089,144.825949 88.7183544,143.477848 Z M92.3449367,139.955696 C92.3449367,137.952532 90.1329114,137.620253 90.1329114,139.822785 C90.1329114,141.968354 92.3449367,141.85443 92.3449367,139.955696 Z" id="Shape" fill="#000000"></path>
        </g>
    </g>
</svg>