<?xml version="1.0" encoding="UTF-8"?>
<svg width="200px" height="150px" viewBox="0 0 200 150" version="1.1" xmlns="http://www.w3.org/2000/svg" xmlns:xlink="http://www.w3.org/1999/xlink">
    <title>sudoku_1_6</title>
    <g id="Sudoku" stroke="none" stroke-width="1" fill="none" fill-rule="evenodd">
        <g id="sudoku_1_6" fill-rule="nonzero">
            <path d="M99.5844156,49.8506494 C132.730519,49.8506494 165.886364,49.8506494 199.042208,49.8506494 C199.042208,66.4285714 199.042208,83.0064935 199.042208,99.5844156 C165.886364,99.5844156 132.730519,99.5844156 99.5844156,99.5844156 C99.5844156,116.162338 99.5844156,132.730519 99.5844156,149.308442 C83.0064935,149.308442 66.4285714,149.308442 49.8506494,149.308442 C49.8506494,132.730519 49.8506494,116.162338 49.8506494,99.5844156 C33.2824675,99.5844156 16.7045455,99.5844156 0.126623377,99.5844156 C0.126623377,83.0064935 0.126623377,66.4285714 0.126623377,49.8506494 C16.7045455,49.8506494 33.2824675,49.8506494 49.8506494,49.8506494 C49.8506494,33.2824675 49.8506494,16.7045455 49.8506494,0.126623377 C66.4285714,0.126623377 83.0064935,0.126623377 99.5844156,0.126623377 C99.5844156,16.7045455 99.5844156,33.2824675 99.5844156,49.8506494 Z" id="Path" fill="#000000"></path>
            <polygon id="Path" fill="#FFFFFF" points="97.9285714 97.9285714 84.6623377 97.9285714 84.6623377 84.6623377 97.9285714 84.6623377"></polygon>
            <polygon id="Path" fill="#FFFFFF" points="68.0844156 97.9285714 81.3506494 97.9285714 81.3506494 84.6623377 68.0844156 84.6623377"></polygon>
            <polygon id="Path" fill="#FFFFFF" points="64.7727273 97.9285714 51.5162338 97.9285714 51.5162338 84.6623377 64.7727273 84.6623377"></polygon>
            <polygon id="Path" fill="#FFFFFF" points="97.9285714 68.0844156 84.6623377 68.0844156 84.6623377 81.3506494 97.9285714 81.3506494"></polygon>
            <polygon id="Path" fill="#FFFFFF" points="68.0844156 68.0844156 81.3506494 68.0844156 81.3506494 81.3506494 68.0844156 81.3506494"></polygon>
            <polygon id="Path" fill="#FFFFFF" points="64.7727273 68.0844156 51.5162338 68.0844156 51.5162338 81.3506494 64.7727273 81.3506494"></polygon>
            <polygon id="Path" fill="#FFFFFF" points="97.9285714 64.7727273 84.6623377 64.7727273 84.6623377 51.5162338 97.9285714 51.5162338"></polygon>
            <polygon id="Path" fill="#FFFFFF" points="68.0844156 64.7727273 81.3506494 64.7727273 81.3506494 51.5162338 68.0844156 51.5162338"></polygon>
            <polygon id="Path" fill="#FFFFFF" points="64.7727273 64.7727273 51.5162338 64.7727273 51.5162338 51.5162338 64.7727273 51.5162338"></polygon>
            <polygon id="Path" fill="#FFFFFF" points="101.24026 97.9285714 114.496753 97.9285714 114.496753 84.6623377 101.24026 84.6623377"></polygon>
            <polygon id="Path" fill="#FFFFFF" points="131.074675 97.9285714 117.818182 97.9285714 117.818182 84.6623377 131.074675 84.6623377"></polygon>
            <polygon id="Path" fill="#FFFFFF" points="134.396104 97.9285714 147.652597 97.9285714 147.652597 84.6623377 134.396104 84.6623377"></polygon>
            <polygon id="Path" fill="#FFFFFF" points="101.24026 68.0844156 114.496753 68.0844156 114.496753 81.3506494 101.24026 81.3506494"></polygon>
            <polygon id="Path" fill="#FFFFFF" points="131.074675 68.0844156 117.818182 68.0844156 117.818182 81.3506494 131.074675 81.3506494"></polygon>
            <polygon id="Path" fill="#FFFFFF" points="134.396104 68.0844156 147.652597 68.0844156 147.652597 81.3506494 134.396104 81.3506494"></polygon>
            <polygon id="Path" fill="#FFFFFF" points="101.24026 64.7727273 114.496753 64.7727273 114.496753 51.5162338 101.24026 51.5162338"></polygon>
            <polygon id="Path" fill="#FFFFFF" points="131.074675 64.7727273 117.818182 64.7727273 117.818182 51.5162338 131.074675 51.5162338"></polygon>
            <polygon id="Path" fill="#FFFFFF" points="134.396104 64.7727273 147.652597 64.7727273 147.652597 51.5162338 134.396104 51.5162338"></polygon>
            <polygon id="Path" fill="#FFFFFF" points="197.376623 97.9285714 184.12013 97.9285714 184.12013 84.6623377 197.376623 84.6623377"></polygon>
            <polygon id="Path" fill="#FFFFFF" points="167.542208 97.9285714 180.808442 97.9285714 180.808442 84.6623377 167.542208 84.6623377"></polygon>
            <polygon id="Path" fill="#FFFFFF" points="164.230519 97.9285714 150.964286 97.9285714 150.964286 84.6623377 164.230519 84.6623377"></polygon>
            <polygon id="Path" fill="#FFFFFF" points="197.376623 68.0844156 184.12013 68.0844156 184.12013 81.3506494 197.376623 81.3506494"></polygon>
            <polygon id="Path" fill="#FFFFFF" points="167.542208 68.0844156 180.808442 68.0844156 180.808442 81.3506494 167.542208 81.3506494"></polygon>
            <polygon id="Path" fill="#FFFFFF" points="164.230519 68.0844156 150.964286 68.0844156 150.964286 81.3506494 164.230519 81.3506494"></polygon>
            <polygon id="Path" fill="#FFFFFF" points="197.376623 64.7727273 184.12013 64.7727273 184.12013 51.5162338 197.376623 51.5162338"></polygon>
            <polygon id="Path" fill="#FFFFFF" points="167.542208 64.7727273 180.808442 64.7727273 180.808442 51.5162338 167.542208 51.5162338"></polygon>
            <polygon id="Path" fill="#FFFFFF" points="164.230519 64.7727273 150.964286 64.7727273 150.964286 51.5162338 164.230519 51.5162338"></polygon>
            <polygon id="Path" fill="#FFFFFF" points="51.5162338 147.652597 64.7727273 147.652597 64.7727273 134.396104 51.5162338 134.396104"></polygon>
            <polygon id="Path" fill="#FFFFFF" points="81.3506494 147.652597 68.0844156 147.652597 68.0844156 134.396104 81.3506494 134.396104"></polygon>
            <polygon id="Path" fill="#FFFFFF" points="84.6623377 147.652597 97.9285714 147.652597 97.9285714 134.396104 84.6623377 134.396104"></polygon>
            <polygon id="Path" fill="#FFFFFF" points="51.5162338 117.818182 64.7727273 117.818182 64.7727273 131.074675 51.5162338 131.074675"></polygon>
            <polygon id="Path" fill="#FFFFFF" points="81.3506494 117.818182 68.0844156 117.818182 68.0844156 131.074675 81.3506494 131.074675"></polygon>
            <polygon id="Path" fill="#FFFFFF" points="84.6623377 117.818182 97.9285714 117.818182 97.9285714 131.074675 84.6623377 131.074675"></polygon>
            <polygon id="Path" fill="#FFFFFF" points="51.5162338 114.496753 64.7727273 114.496753 64.7727273 101.24026 51.5162338 101.24026"></polygon>
            <polygon id="Path" fill="#FFFFFF" points="81.3506494 114.496753 68.0844156 114.496753 68.0844156 101.24026 81.3506494 101.24026"></polygon>
            <polygon id="Path" fill="#FFFFFF" points="84.6623377 114.496753 97.9285714 114.496753 97.9285714 101.24026 84.6623377 101.24026"></polygon>
            <polygon id="Path" fill="#FFFFFF" points="97.9285714 1.78246753 84.6623377 1.78246753 84.6623377 15.0487013 97.9285714 15.0487013"></polygon>
            <polygon id="Path" fill="#FFFFFF" points="68.0844156 1.78246753 81.3506494 1.78246753 81.3506494 15.0487013 68.0844156 15.0487013"></polygon>
            <polygon id="Path" fill="#FFFFFF" points="64.7727273 1.78246753 51.5162338 1.78246753 51.5162338 15.0487013 64.7727273 15.0487013"></polygon>
            <polygon id="Path" fill="#FFFFFF" points="97.9285714 31.6168831 84.6623377 31.6168831 84.6623377 18.3603896 97.9285714 18.3603896"></polygon>
            <polygon id="Path" fill="#FFFFFF" points="68.0844156 31.6168831 81.3506494 31.6168831 81.3506494 18.3603896 68.0844156 18.3603896"></polygon>
            <polygon id="Path" fill="#FFFFFF" points="64.7727273 31.6168831 51.5162338 31.6168831 51.5162338 18.3603896 64.7727273 18.3603896"></polygon>
            <polygon id="Path" fill="#FFFFFF" points="97.9285714 34.9383117 84.6623377 34.9383117 84.6623377 48.1948052 97.9285714 48.1948052"></polygon>
            <polygon id="Path" fill="#FFFFFF" points="68.0844156 34.9383117 81.3506494 34.9383117 81.3506494 48.1948052 68.0844156 48.1948052"></polygon>
            <polygon id="Path" fill="#FFFFFF" points="64.7727273 34.9383117 51.5162338 34.9383117 51.5162338 48.1948052 64.7727273 48.1948052"></polygon>
            <polygon id="Path" fill="#FFFFFF" points="1.78246753 97.9285714 15.0487013 97.9285714 15.0487013 84.6623377 1.78246753 84.6623377"></polygon>
            <polygon id="Path" fill="#FFFFFF" points="31.6168831 97.9285714 18.3603896 97.9285714 18.3603896 84.6623377 31.6168831 84.6623377"></polygon>
            <polygon id="Path" fill="#FFFFFF" points="34.9383117 97.9285714 48.1948052 97.9285714 48.1948052 84.6623377 34.9383117 84.6623377"></polygon>
            <polygon id="Path" fill="#FFFFFF" points="1.78246753 68.0844156 15.0487013 68.0844156 15.0487013 81.3506494 1.78246753 81.3506494"></polygon>
            <polygon id="Path" fill="#FFFFFF" points="31.6168831 68.0844156 18.3603896 68.0844156 18.3603896 81.3506494 31.6168831 81.3506494"></polygon>
            <polygon id="Path" fill="#FFFFFF" points="34.9383117 68.0844156 48.1948052 68.0844156 48.1948052 81.3506494 34.9383117 81.3506494"></polygon>
            <polygon id="Path" fill="#FFFFFF" points="1.78246753 64.7727273 15.0487013 64.7727273 15.0487013 51.5162338 1.78246753 51.5162338"></polygon>
            <polygon id="Path" fill="#FFFFFF" points="31.6168831 64.7727273 18.3603896 64.7727273 18.3603896 51.5162338 31.6168831 51.5162338"></polygon>
            <polygon id="Path" fill="#FFFFFF" points="34.9383117 64.7727273 48.1948052 64.7727273 48.1948052 51.5162338 34.9383117 51.5162338"></polygon>
            <path d="M55.8311688,60.1363636 L57.3798701,59.9415584 C57.5941558,61.6948052 59.737013,61.5292208 59.737013,59.775974 C59.737013,58.6266234 58.9577922,58.275974 57.8863636,58.5779221 L58.0616883,57.2727273 C59.8246753,57.3214286 59.7467532,55.2662338 58.4707792,55.2662338 C57.8474026,55.2662338 57.4967532,55.7435065 57.4188312,56.3863636 L55.9480519,56.1331169 C56.6396104,52.7045455 61.0032468,53.6785714 61.0032468,56.0941558 C61.0032468,56.8246753 60.6038961,57.4188312 59.8051948,57.8571429 C62.3766234,58.4123377 61.7045455,62.5032468 58.5779221,62.5032468 C57.0974026,62.5032468 55.987013,61.5876623 55.8311688,60.1363636 L55.8311688,60.1363636 Z" id="Path" fill="#000000"></path>
            <path d="M72.5064935,60.4090909 L74.0649351,60.2337662 C74.2012987,61.3733766 75.2922078,61.4123377 75.8279221,60.711039 C76.0519481,60.4090909 76.1980519,59.7662338 76.2662338,58.8116883 C74.9805195,60.2922078 72.3311688,59.3474026 72.3311688,56.7662338 C72.3311688,53.8344156 75.5844156,53.0844156 77.1038961,54.9155844 C78.2727273,56.3279221 78.7792208,62.5032468 74.8636364,62.5032468 C73.5097403,62.5032468 72.7305195,61.7532468 72.5064935,60.4090909 Z M76.1201299,56.8928571 C76.1201299,54.8961039 73.9090909,54.5746753 73.9090909,56.7662338 C73.9090909,58.9090909 76.1201299,58.7922078 76.1201299,56.8928571 Z" id="Shape" fill="#000000"></path>
            <path d="M89.025974,55.5681818 L89.025974,54.0876623 L94.5194805,54.0876623 L94.5194805,55.2564935 C92.9025974,56.8441558 91.6948052,60.038961 91.7045455,62.3571429 L90.1558442,62.3571429 C90.2142857,59.9805195 91.1980519,57.4383117 92.6785714,55.5681818 L89.025974,55.5681818 Z" id="Path" fill="#000000"></path>
            <path d="M93.9545455,72.525974 L92.3961039,72.6915584 C92.2597403,71.5422078 91.1396104,71.5324675 90.6136364,72.2142857 C90.3798701,72.5162338 90.2337662,73.1493506 90.1753247,74.1136364 C91.461039,72.6038961 94.1006494,73.6071429 94.1006494,76.1590909 C94.1006494,79.1103896 90.8474026,79.8506494 89.3279221,78.0097403 C88.1590909,76.5876623 87.6623377,70.4220779 91.5779221,70.4220779 C92.8928571,70.4220779 93.7305195,71.211039 93.9545455,72.525974 Z M90.3116883,76.0324675 C90.3116883,78.038961 92.5324675,78.3603896 92.5324675,76.1688312 C92.5324675,73.9967532 90.3116883,74.1331169 90.3116883,76.0324675 Z" id="Shape" fill="#000000"></path>
            <path d="M76.5584416,78.9253247 L74.9512987,78.9253247 L74.9512987,72.8668831 C74.3668831,73.4123377 73.6753247,73.8214286 72.8863636,74.0844156 L72.8863636,72.6233766 C73.7727273,72.3409091 74.8928571,71.5032468 75.2532468,70.5097403 L76.5584416,70.5097403 L76.5584416,78.9253247 Z" id="Path" fill="#000000"></path>
            <path d="M55.3149351,76.6168831 L56.9123377,76.4512987 C57.1266234,78.038961 59.2987013,78.1753247 59.2987013,75.9837662 C59.2987013,74.1818182 57.7012987,74.0454545 56.8149351,75.038961 L55.5097403,74.8538961 L56.3279221,70.5 L60.5746753,70.5 L60.5746753,72 L57.5454545,72 L57.2922078,73.4220779 C59.8636364,72.1461039 62.0941558,75.4383117 60.3506494,77.8051948 C59.0064935,79.6363636 55.6753247,79.237013 55.3149351,76.6168831 L55.3149351,76.6168831 Z" id="Path" fill="#000000"></path>
            <path d="M57.2532468,90.974026 C55.3149351,90.1558442 55.7142857,87.0876623 58.5779221,87.0876623 C61.4707792,87.0876623 61.8116883,90.1558442 59.9318182,90.974026 C62.2987013,91.9285714 61.6753247,95.6590909 58.6558442,95.6590909 C55.4805195,95.6590909 54.974026,91.9577922 57.2532468,90.974026 Z M57.5941558,89.3668831 C57.5941558,90.75 59.5811688,90.7305195 59.5811688,89.3571429 C59.5811688,88.012987 57.5941558,88.0227273 57.5941558,89.3668831 Z M57.4383117,92.9512987 C57.4383117,94.8116883 59.7662338,94.8896104 59.7662338,92.9707792 C59.7662338,91.2077922 57.4383117,91.2175325 57.4383117,92.9512987 Z" id="Shape" fill="#000000"></path>
            <path d="M77.8733766,94.0227273 L77.8733766,95.5032468 L72.2532468,95.5032468 C72.5649351,92.5616883 76.2662338,91.3636364 76.2662338,89.5324675 C76.2662338,88.1103896 74.1623377,87.8376623 74.0357143,89.7272727 L72.4383117,89.5714286 C72.7792208,86.4350649 76.1396104,86.7857143 77.1720779,87.7597403 C78.3214286,88.8409091 77.9512987,90.3993506 77.025974,91.5779221 C76.4123377,92.3766234 75.1168831,93.2824675 74.6785714,94.0227273 L77.8733766,94.0227273 L77.8733766,94.0227273 Z" id="Path" fill="#000000"></path>
            <path d="M92.1720779,95.5032468 L92.1720779,93.8181818 L88.7532468,93.8181818 L88.7532468,92.4253247 L92.3766234,87.0974026 L93.7305195,87.0974026 L93.7305195,92.4155844 L94.7727273,92.4155844 L94.7727273,93.8181818 L93.7305195,93.8181818 L93.7305195,95.5032468 L92.1720779,95.5032468 L92.1720779,95.5032468 Z M92.1720779,92.4155844 L92.1720779,89.5616883 L90.2532468,92.4155844 L92.1720779,92.4155844 Z" id="Shape" fill="#000000"></path>
            <path d="M5.62987013,60.2532468 L7.18831169,60.0876623 C7.32467532,61.2272727 8.41558442,61.2662338 8.9512987,60.5551948 C9.17532468,60.2532468 9.32142857,59.6201299 9.38961039,58.6558442 C8.1038961,60.1461039 5.45454545,59.1915584 5.45454545,56.6103896 C5.45454545,53.6883117 8.70779221,52.9285714 10.2272727,54.7694805 C11.3961039,56.1818182 11.9025974,62.3571429 7.98701299,62.3571429 C6.63311688,62.3571429 5.8538961,61.5974026 5.62987013,60.2532468 Z M9.24350649,56.7467532 C9.24350649,54.7402597 7.03246753,54.4188312 7.03246753,56.6103896 C7.03246753,58.7532468 9.24350649,58.6461039 9.24350649,56.7467532 Z" id="Shape" fill="#000000"></path>
            <path d="M22.1493506,55.4220779 L22.1493506,53.9318182 L27.6428571,53.9318182 L27.6428571,55.1006494 C26.025974,56.6980519 24.8181818,59.8831169 24.8279221,62.2012987 L23.2792208,62.2012987 C23.3376623,59.8344156 24.3214286,57.2824675 25.8019481,55.4220779 L22.1493506,55.4220779 Z" id="Path" fill="#000000"></path>
            <path d="M42.8279221,62.2012987 L41.2305195,62.2012987 L41.2305195,56.1428571 C40.6461039,56.6883117 39.9545455,57.0974026 39.1558442,57.3603896 L39.1558442,55.8993506 C40.0422078,55.6071429 41.1720779,54.7792208 41.5324675,53.775974 L42.8279221,53.775974 L42.8279221,62.2012987 L42.8279221,62.2012987 Z" id="Path" fill="#000000"></path>
            <path d="M10.9967532,77.288961 L10.9967532,78.7792208 L5.37662338,78.7792208 C5.68831169,75.8376623 9.38961039,74.6396104 9.38961039,72.8084416 C9.38961039,71.3863636 7.28571429,71.1136364 7.15909091,73.0032468 L5.56168831,72.8376623 C5.9025974,69.711039 9.26298701,70.0616883 10.2954545,71.025974 C11.4448052,72.1168831 11.0746753,73.6655844 10.1493506,74.8441558 C9.53571429,75.6428571 8.24025974,76.5487013 7.81168831,77.288961 L10.9967532,77.288961 L10.9967532,77.288961 Z" id="Path" fill="#000000"></path>
            <path d="M25.2954545,78.7792208 L25.2954545,77.0941558 L21.8766234,77.0941558 L21.8766234,75.6915584 L25.5,70.3636364 L26.8538961,70.3636364 L26.8538961,75.6915584 L27.8863636,75.6915584 L27.8863636,77.0941558 L26.8538961,77.0941558 L26.8538961,78.7792208 L25.2954545,78.7792208 Z M25.2954545,75.6915584 L25.2954545,72.8279221 L23.3766234,75.6915584 L25.2954545,75.6915584 Z" id="Shape" fill="#000000"></path>
            <path d="M40.1103896,74.25 C38.1623377,73.4220779 38.5714286,70.3538961 41.4350649,70.3538961 C44.3181818,70.3538961 44.6590909,73.4318182 42.788961,74.25 C45.1558442,75.1948052 44.5227273,78.9253247 41.5032468,78.9253247 C38.3279221,78.9253247 37.8214286,75.2337662 40.1103896,74.25 Z M40.4415584,72.6331169 C40.4415584,74.0162338 42.4285714,74.0064935 42.4285714,72.6331169 C42.4285714,71.2792208 40.4415584,71.288961 40.4415584,72.6331169 Z M40.2954545,76.2272727 C40.2954545,78.0876623 42.6233766,78.1655844 42.6233766,76.2467532 C42.6233766,74.4837662 40.2954545,74.4837662 40.2954545,76.2272727 Z" id="Shape" fill="#000000"></path>
            <path d="M5.60064935,93.2045455 L7.19805195,93.038961 C7.4025974,94.6266234 9.58441558,94.762987 9.58441558,92.5714286 C9.58441558,90.7694805 7.98701299,90.6331169 7.09090909,91.6266234 L5.79545455,91.4318182 L6.61363636,87.0876623 L10.8603896,87.0876623 L10.8603896,88.5779221 L7.83116883,88.5779221 L7.57792208,90.0097403 C10.1493506,88.7337662 12.3798701,92.025974 10.6363636,94.3928571 C9.29220779,96.224026 5.9512987,95.8246753 5.60064935,93.2045455 Z" id="Path" fill="#000000"></path>
            <path d="M22.1006494,93.1363636 L23.6590909,92.9415584 C23.8733766,94.7045455 26.0064935,94.5292208 26.0064935,92.775974 C26.0064935,91.6266234 25.237013,91.275974 24.1558442,91.5779221 L24.3409091,90.2727273 C26.0941558,90.3214286 26.0162338,88.2662338 24.75,88.2662338 C24.1266234,88.2662338 23.7662338,88.7435065 23.6883117,89.3863636 L22.2175325,89.1331169 C22.9090909,85.7045455 27.2824675,86.6785714 27.2824675,89.0941558 C27.2824675,89.8246753 26.8831169,90.4188312 26.0746753,90.8571429 C28.6461039,91.4123377 27.974026,95.5032468 24.8474026,95.5032468 C23.3668831,95.5032468 22.2662338,94.5876623 22.1006494,93.1363636 L22.1006494,93.1363636 Z" id="Path" fill="#000000"></path>
            <path d="M44.1623377,89.025974 L42.6038961,89.2012987 C42.4772727,88.0422078 41.3571429,88.0422078 40.8311688,88.724026 C40.5974026,89.025974 40.4512987,89.6590909 40.3928571,90.6233766 C41.6688312,89.1038961 44.3181818,90.1071429 44.3181818,92.6590909 C44.3181818,95.6201299 41.0551948,96.3506494 39.5454545,94.5194805 C38.3668831,93.0974026 37.8798701,86.9318182 41.7857143,86.9318182 C43.1103896,86.9318182 43.9383117,87.711039 44.1623377,89.025974 L44.1623377,89.025974 Z M40.5292208,92.5324675 C40.5292208,94.538961 42.75,94.8603896 42.75,92.6785714 C42.75,90.5064935 40.5292208,90.6428571 40.5292208,92.5324675 Z" id="Shape" fill="#000000"></path>
            <path d="M106.412338,57.6720779 C104.464286,56.8441558 104.873377,53.775974 107.737013,53.775974 C110.62013,53.775974 110.970779,56.8538961 109.090909,57.6720779 C111.457792,58.6266234 110.824675,62.3571429 107.814935,62.3571429 C104.63961,62.3571429 104.133117,58.6558442 106.412338,57.6720779 L106.412338,57.6720779 Z M106.743506,56.0551948 C106.743506,57.4383117 108.74026,57.4285714 108.74026,56.0551948 C108.74026,54.7012987 106.743506,54.7207792 106.743506,56.0551948 Z M106.597403,59.6493506 C106.597403,61.5097403 108.925325,61.5876623 108.925325,59.6688312 C108.925325,57.9058442 106.597403,57.9155844 106.597403,59.6493506 Z" id="Shape" fill="#000000"></path>
            <path d="M124.753247,62.2012987 L124.753247,60.5162338 L121.334416,60.5162338 L121.334416,59.1233766 L124.957792,53.7954545 L126.301948,53.7954545 L126.301948,59.1136364 L127.344156,59.1136364 L127.344156,60.5162338 L126.301948,60.5162338 L126.301948,62.2012987 L124.753247,62.2012987 Z M124.753247,59.1136364 L124.753247,56.25 L122.834416,59.1136364 L124.753247,59.1136364 Z" id="Shape" fill="#000000"></path>
            <path d="M143.61039,60.711039 L143.61039,62.2012987 L137.980519,62.2012987 C138.292208,59.2597403 141.993506,58.0616883 141.993506,56.2305195 C141.993506,54.8084416 139.899351,54.5357143 139.772727,56.4253247 L138.165584,56.2597403 C138.506494,53.1331169 141.876623,53.4837662 142.899351,54.4480519 C144.048701,55.538961 143.678571,57.0974026 142.762987,58.2662338 C142.13961,59.0649351 140.844156,59.9707792 140.415584,60.711039 L143.61039,60.711039 L143.61039,60.711039 Z" id="Path" fill="#000000"></path>
            <path d="M109.12987,78.7792208 L107.532468,78.7792208 L107.532468,72.711039 C106.948052,73.2662338 106.256494,73.6753247 105.457792,73.9383117 L105.457792,72.4772727 C106.353896,72.1850649 107.474026,71.3571429 107.834416,70.3538961 L109.12987,70.3538961 L109.12987,78.7792208 Z" id="Path" fill="#000000"></path>
            <path d="M121.607143,71.9902597 L121.607143,70.5097403 L127.100649,70.5097403 L127.100649,71.6785714 C125.483766,73.275974 124.266234,76.461039 124.285714,78.7792208 L122.737013,78.7792208 C122.795455,76.4025974 123.779221,73.8603896 125.25974,71.9902597 L121.607143,71.9902597 L121.607143,71.9902597 Z" id="Path" fill="#000000"></path>
            <path d="M138.136364,76.5584416 L139.685065,76.3636364 C139.909091,78.1266234 142.042208,77.9512987 142.042208,76.1980519 C142.042208,75.0584416 141.272727,74.6980519 140.191558,75 L140.366883,73.7045455 C142.12987,73.7532468 142.051948,71.6883117 140.785714,71.6883117 C140.152597,71.6883117 139.801948,72.1655844 139.724026,72.8084416 L138.253247,72.5649351 C138.944805,69.1363636 143.318182,70.1006494 143.318182,72.5162338 C143.318182,73.2467532 142.909091,73.8409091 142.11039,74.2792208 C144.681818,74.8344156 144.00974,78.9253247 140.883117,78.9253247 C139.402597,78.9253247 138.301948,78.0097403 138.136364,76.5584416 Z" id="Path" fill="#000000"></path>
            <path d="M110.464286,89.025974 L108.915584,89.2012987 C108.779221,88.0422078 107.659091,88.0422078 107.133117,88.724026 C106.899351,89.025974 106.753247,89.6590909 106.694805,90.6233766 C107.980519,89.1038961 110.62013,90.1071429 110.62013,92.6590909 C110.62013,95.6201299 107.357143,96.3506494 105.847403,94.5194805 C104.668831,93.0974026 104.181818,86.9318182 108.087662,86.9318182 C109.412338,86.9318182 110.24026,87.711039 110.464286,89.025974 L110.464286,89.025974 Z M106.831169,92.5324675 C106.831169,94.538961 109.051948,94.8603896 109.051948,92.6785714 C109.051948,90.5064935 106.831169,90.6428571 106.831169,92.5324675 Z" id="Shape" fill="#000000"></path>
            <path d="M121.665584,93.4090909 L123.214286,93.2337662 C123.350649,94.3733766 124.451299,94.4123377 124.977273,93.711039 C125.211039,93.4090909 125.357143,92.7662338 125.415584,91.8116883 C124.13961,93.2922078 121.49026,92.3474026 121.49026,89.7662338 C121.49026,86.8344156 124.743506,86.0844156 126.262987,87.9155844 C127.431818,89.3279221 127.938312,95.5032468 124.022727,95.5032468 C122.668831,95.5032468 121.87987,94.7532468 121.665584,93.4090909 L121.665584,93.4090909 Z M125.279221,89.8928571 C125.279221,87.8961039 123.068182,87.5746753 123.068182,89.7662338 C123.068182,91.9090909 125.279221,91.7922078 125.279221,89.8928571 Z" id="Shape" fill="#000000"></path>
            <path d="M138.204545,93.2045455 L139.801948,93.038961 C140.016234,94.6266234 142.188312,94.762987 142.188312,92.5714286 C142.188312,90.7694805 140.590909,90.6331169 139.704545,91.6266234 L138.399351,91.4318182 L139.217532,87.0876623 L143.464286,87.0876623 L143.464286,88.5779221 L140.444805,88.5779221 L140.191558,90.0097403 C142.753247,88.7337662 144.983766,92.025974 143.24026,94.3928571 C141.896104,96.224026 138.564935,95.8246753 138.204545,93.2045455 Z" id="Path" fill="#000000"></path>
            <path d="M157.899351,62.2012987 L157.899351,60.5162338 L154.49026,60.5162338 L154.49026,59.1233766 L158.113636,53.7954545 L159.457792,53.7954545 L159.457792,59.1136364 L160.5,59.1136364 L160.5,60.5162338 L159.457792,60.5162338 L159.457792,62.2012987 L157.899351,62.2012987 Z M157.899351,59.1136364 L157.899351,56.25 L155.99026,59.1136364 L157.899351,59.1136364 Z" id="Shape" fill="#000000"></path>
            <path d="M171.282468,59.9805195 L172.840909,59.7954545 C173.055195,61.5487013 175.188312,61.3733766 175.188312,59.6201299 C175.188312,58.4805195 174.418831,58.1298701 173.347403,58.4318182 L173.522727,57.1266234 C175.275974,57.1753247 175.207792,55.1103896 173.931818,55.1103896 C173.308442,55.1103896 172.948052,55.5974026 172.87987,56.2402597 L171.399351,55.987013 C172.100649,52.5584416 176.464286,53.5227273 176.464286,55.9383117 C176.464286,56.6785714 176.064935,57.262987 175.256494,57.7012987 C177.827922,58.2564935 177.155844,62.3571429 174.038961,62.3571429 C172.558442,62.3571429 171.448052,61.4318182 171.282468,59.9805195 L171.282468,59.9805195 Z" id="Path" fill="#000000"></path>
            <path d="M193.344156,55.8798701 L191.795455,56.0454545 C191.659091,54.8961039 190.538961,54.8863636 190.012987,55.5681818 C189.779221,55.8701299 189.633117,56.5032468 189.574675,57.4675325 C190.86039,55.9577922 193.5,56.961039 193.5,59.512987 C193.5,62.4642857 190.237013,63.2045455 188.727273,61.3636364 C187.548701,59.9415584 187.061688,53.775974 190.967532,53.775974 C192.292208,53.775974 193.12013,54.5551948 193.344156,55.8798701 L193.344156,55.8798701 Z M189.711039,59.3863636 C189.711039,61.3928571 191.931818,61.7142857 191.931818,59.5227273 C191.931818,57.3506494 189.711039,57.487013 189.711039,59.3863636 Z" id="Shape" fill="#000000"></path>
            <path d="M154.753247,71.9902597 L154.753247,70.5097403 L160.256494,70.5097403 L160.256494,71.6785714 C158.62987,73.275974 157.422078,76.461039 157.431818,78.7792208 L155.892857,78.7792208 C155.951299,76.4025974 156.925325,73.8603896 158.415584,71.9902597 L154.753247,71.9902597 L154.753247,71.9902597 Z" id="Path" fill="#000000"></path>
            <path d="M171.36039,76.6266234 L172.957792,76.461039 C173.162338,78.0487013 175.344156,78.1850649 175.344156,75.9935065 C175.344156,74.1915584 173.746753,74.0551948 172.850649,75.0487013 L171.555195,74.8636364 L172.373377,70.5097403 L176.62013,70.5097403 L176.62013,72.0097403 L173.590909,72.0097403 L173.337662,73.4318182 C175.909091,72.1558442 178.13961,75.4480519 176.396104,77.8149351 C175.051948,79.6461039 171.711039,79.2467532 171.36039,76.6266234 L171.36039,76.6266234 Z" id="Path" fill="#000000"></path>
            <path d="M192.00974,78.7792208 L190.412338,78.7792208 L190.412338,72.711039 C189.827922,73.2662338 189.136364,73.6753247 188.337662,73.9383117 L188.337662,72.4772727 C189.233766,72.1850649 190.353896,71.3571429 190.714286,70.3538961 L192.00974,70.3538961 L192.00974,78.7792208 L192.00974,78.7792208 Z" id="Path" fill="#000000"></path>
            <path d="M154.811688,93.4090909 L156.37013,93.2337662 C156.506494,94.3733766 157.607143,94.4123377 158.133117,93.711039 C158.357143,93.4090909 158.503247,92.7662338 158.571429,91.8116883 C157.285714,93.2922078 154.636364,92.3474026 154.636364,89.7662338 C154.636364,86.8344156 157.899351,86.0844156 159.409091,87.9155844 C160.577922,89.3279221 161.094156,95.5032468 157.168831,95.5032468 C155.824675,95.5032468 155.035714,94.7532468 154.811688,93.4090909 L154.811688,93.4090909 Z M158.425325,89.8928571 C158.425325,87.8961039 156.214286,87.5746753 156.214286,89.7662338 C156.214286,91.9090909 158.425325,91.7922078 158.425325,89.8928571 Z" id="Shape" fill="#000000"></path>
            <path d="M176.756494,93.8668831 L176.756494,95.3571429 L171.136364,95.3571429 C171.448052,92.4155844 175.149351,91.2175325 175.149351,89.3766234 C175.149351,87.9545455 173.045455,87.6915584 172.918831,89.5714286 L171.321429,89.4155844 C171.662338,86.288961 175.022727,86.6298701 176.055195,87.6038961 C177.204545,88.6948052 176.834416,90.2435065 175.909091,91.4220779 C175.295455,92.2207792 174,93.1266234 173.571429,93.8668831 L176.756494,93.8668831 L176.756494,93.8668831 Z" id="Path" fill="#000000"></path>
            <path d="M189.292208,90.8279221 C187.344156,90 187.753247,86.9318182 190.616883,86.9318182 C193.5,86.9318182 193.850649,90.0097403 191.970779,90.8279221 C194.337662,91.7727273 193.704545,95.5032468 190.694805,95.5032468 C187.519481,95.5032468 187.012987,91.8019481 189.292208,90.8279221 Z M189.623377,89.211039 C189.623377,90.5941558 191.62013,90.5746753 191.62013,89.2012987 C191.62013,87.8571429 189.623377,87.8668831 189.623377,89.211039 Z M189.477273,92.8051948 C189.477273,94.6655844 191.805195,94.7435065 191.805195,92.8149351 C191.805195,91.0616883 189.477273,91.0616883 189.477273,92.8051948 Z" id="Shape" fill="#000000"></path>
            <path d="M59.4058442,12.4772727 L57.8084416,12.4772727 L57.8084416,6.40909091 C57.2142857,6.96428571 56.5324675,7.36363636 55.7337662,7.62662338 L55.7337662,6.16558442 C56.6201299,5.88311688 57.75,5.04545455 58.1103896,4.05194805 L59.4058442,4.05194805 L59.4058442,12.4772727 L59.4058442,12.4772727 Z" id="Path" fill="#000000"></path>
            <path d="M71.9025974,10.3246753 L73.5,10.1590909 C73.7045455,11.7467532 75.8863636,11.8831169 75.8863636,9.69155844 C75.8863636,7.88961039 74.288961,7.75324675 73.3928571,8.74675325 L72.0974026,8.55194805 L72.9155844,4.20779221 L77.1623377,4.20779221 L77.1623377,5.69805195 L74.1331169,5.69805195 L73.8798701,7.12987013 C76.4512987,5.84415584 78.6818182,9.1461039 76.9383117,11.512987 C75.5941558,13.3441558 72.2532468,12.9448052 71.9025974,10.3246753 Z" id="Path" fill="#000000"></path>
            <path d="M93.8766234,10.987013 L93.8766234,12.4772727 L88.2564935,12.4772727 C88.5681818,9.53571429 92.2694805,8.33766234 92.2694805,6.49675325 C92.2694805,5.07467532 90.1655844,4.81168831 90.038961,6.69155844 L88.4415584,6.53571429 C88.7824675,3.40909091 92.1428571,3.75 93.1753247,4.72402597 C94.3246753,5.81493506 93.9545455,7.36363636 93.0292208,8.54220779 C92.4155844,9.34090909 91.1201299,10.2467532 90.6915584,10.987013 L93.8766234,10.987013 L93.8766234,10.987013 Z" id="Path" fill="#000000"></path>
            <path d="M58.4512987,29.0454545 L58.4512987,27.3603896 L55.0324675,27.3603896 L55.0324675,25.9675325 L58.6558442,20.6396104 L60,20.6396104 L60,25.9577922 L61.0422078,25.9577922 L61.0422078,27.3603896 L60,27.3603896 L60,29.0454545 L58.4512987,29.0454545 L58.4512987,29.0454545 Z M58.4512987,25.9577922 L58.4512987,23.1038961 L56.5324675,25.9577922 L58.4512987,25.9577922 Z" id="Shape" fill="#000000"></path>
            <path d="M77.3181818,22.724026 L75.7597403,22.8993506 C75.6233766,21.7402597 74.512987,21.7305195 73.9772727,22.4220779 C73.7435065,22.724026 73.5974026,23.3571429 73.538961,24.3214286 C74.8246753,22.8019481 77.4642857,23.8051948 77.4642857,26.3571429 C77.4642857,29.3084416 74.211039,30.0487013 72.6915584,28.2175325 C71.5227273,26.7857143 71.025974,20.6298701 74.9415584,20.6298701 C76.2564935,20.6298701 77.0941558,21.4090909 77.3181818,22.724026 Z M73.6753247,26.2305195 C73.6753247,28.237013 75.8961039,28.5584416 75.8961039,26.3766234 C75.8961039,24.1948052 73.6753247,24.3311688 73.6753247,26.2305195 Z" id="Shape" fill="#000000"></path>
            <path d="M88.4025974,26.8246753 L89.961039,26.6396104 C90.1753247,28.3928571 92.3084416,28.2272727 92.3084416,26.474026 C92.3084416,25.3246753 91.538961,24.974026 90.4675325,25.275974 L90.6428571,23.9707792 C92.3961039,24.0194805 92.3279221,21.9642857 91.0519481,21.9642857 C90.4285714,21.9642857 90.0681818,22.4415584 90,23.0844156 L88.5194805,22.8311688 C89.2207792,19.4025974 93.5844156,20.3766234 93.5844156,22.7824675 C93.5844156,23.5227273 93.1850649,24.1168831 92.3766234,24.5551948 C94.9480519,25.1103896 94.275974,29.2012987 91.1590909,29.2012987 C89.6688312,29.2012987 88.5681818,28.2857143 88.4025974,26.8246753 L88.4025974,26.8246753 Z" id="Path" fill="#000000"></path>
            <path d="M55.3051948,38.8441558 L55.3051948,37.3538961 L60.7987013,37.3538961 L60.7987013,38.5227273 C59.1720779,40.1201299 57.9642857,43.3051948 57.9837662,45.6233766 L56.4350649,45.6233766 C56.4935065,43.2564935 57.4772727,40.7045455 58.9577922,38.8441558 L55.3051948,38.8441558 Z" id="Path" fill="#000000"></path>
            <path d="M73.2564935,41.0941558 C71.3181818,40.2662338 71.7175325,37.2077922 74.5811688,37.2077922 C77.474026,37.2077922 77.8149351,40.275974 75.9350649,41.0941558 C78.3019481,42.0487013 77.6785714,45.7792208 74.6590909,45.7792208 C71.4837662,45.7792208 70.9772727,42.0779221 73.2564935,41.0941558 Z M73.5974026,39.487013 C73.5974026,40.8701299 75.5844156,40.8506494 75.5844156,39.4772727 C75.5844156,38.1331169 73.5974026,38.1428571 73.5974026,39.487013 Z M73.4415584,43.0714286 C73.4415584,44.9318182 75.7694805,45.0097403 75.7694805,43.0909091 C75.7694805,41.3279221 73.4415584,41.3376623 73.4415584,43.0714286 Z" id="Shape" fill="#000000"></path>
            <path d="M88.5097403,43.6753247 L90.0681818,43.5097403 C90.2045455,44.6493506 91.2954545,44.6883117 91.8311688,43.987013 C92.0551948,43.6753247 92.2012987,43.0422078 92.2694805,42.0779221 C90.9837662,43.5681818 88.3344156,42.6233766 88.3344156,40.0324675 C88.3344156,37.1103896 91.5876623,36.3506494 93.1071429,38.1915584 C94.275974,39.6038961 94.7824675,45.7792208 90.8668831,45.7792208 C89.512987,45.7792208 88.7337662,45.0292208 88.5097403,43.6753247 Z M92.1233766,40.1688312 C92.1233766,38.1720779 89.9123377,37.8409091 89.9123377,40.0324675 C89.9123377,42.1850649 92.1233766,42.0681818 92.1233766,40.1688312 Z" id="Shape" fill="#000000"></path>
            <path d="M94.1883117,139.188312 L92.6298701,139.373377 C92.4155844,137.62013 90.2727273,137.785714 90.2727273,139.538961 C90.2727273,140.688312 91.0519481,141.038961 92.1233766,140.737013 L91.9480519,142.042208 C90.1948052,141.993506 90.262987,144.048701 91.538961,144.048701 C92.1623377,144.048701 92.512987,143.571429 92.5909091,142.928571 L94.0616883,143.181818 C93.3701299,146.61039 89.0064935,145.636364 89.0064935,143.230519 C89.0064935,142.49026 89.4058442,141.896104 90.2045455,141.457792 C87.6428571,140.912338 88.3051948,136.811688 91.4318182,136.811688 C92.9123377,136.811688 94.0227273,137.727273 94.1883117,139.188312 L94.1883117,139.188312 Z" id="Path" fill="#000000"></path>
            <path d="M76.1785714,141.496753 C78.1266234,142.314935 77.7175325,145.383117 74.8538961,145.383117 C71.9707792,145.383117 71.6201299,142.314935 73.5,141.496753 C71.1331169,140.542208 71.7662338,136.811688 74.775974,136.811688 C77.9512987,136.811688 78.4577922,140.512987 76.1785714,141.496753 Z M75.8376623,143.103896 C75.8376623,141.720779 73.8506494,141.74026 73.8506494,143.113636 C73.8506494,144.457792 75.8376623,144.448052 75.8376623,143.103896 Z M75.9935065,139.519481 C75.9935065,137.649351 73.6655844,137.581169 73.6655844,139.5 C73.6655844,141.253247 75.9935065,141.253247 75.9935065,139.519481 Z" id="Shape" fill="#000000"></path>
            <path d="M60.9837662,143.746753 L60.9837662,145.237013 L55.4902597,145.237013 L55.4902597,144.068182 C57.1071429,142.470779 58.3149351,139.275974 58.3051948,136.967532 L59.8538961,136.967532 C59.7954545,139.334416 58.8116883,141.876623 57.3311688,143.746753 L60.9837662,143.746753 L60.9837662,143.746753 Z" id="Path" fill="#000000"></path>
            <path d="M88.7142857,121.87013 L88.7142857,120.38961 L94.3344156,120.38961 C94.0227273,123.331169 90.3214286,124.529221 90.3214286,126.36039 C90.3214286,127.782468 92.4253247,128.055195 92.5422078,126.165584 L94.1493506,126.321429 C93.8084416,129.457792 90.4480519,129.107143 89.4155844,128.142857 C88.2662338,127.051948 88.6363636,125.493506 89.5519481,124.324675 C90.1753247,123.525974 91.4707792,122.61039 91.8993506,121.87013 L88.7142857,121.87013 L88.7142857,121.87013 Z" id="Path" fill="#000000"></path>
            <path d="M73.4512987,120.38961 L75.0584416,120.38961 L75.0584416,126.448052 C75.6428571,125.902597 76.3344156,125.493506 77.1233766,125.230519 L77.1233766,126.691558 C76.237013,126.983766 75.1168831,127.811688 74.7564935,128.805195 L73.4512987,128.805195 L73.4512987,120.38961 L73.4512987,120.38961 Z" id="Path" fill="#000000"></path>
            <path d="M60.9253247,122.337662 L59.3668831,122.503247 C59.2402597,121.363636 58.1396104,121.324675 57.6136364,122.025974 C57.3798701,122.337662 57.2337662,122.970779 57.1655844,123.935065 C58.4512987,122.444805 61.1006494,123.38961 61.1006494,125.980519 C61.1006494,128.902597 57.8474026,129.662338 56.3279221,127.821429 C55.1590909,126.409091 54.6525974,120.233766 58.5681818,120.233766 C59.9220779,120.233766 60.711039,120.983766 60.9253247,122.337662 L60.9253247,122.337662 Z M57.3116883,125.844156 C57.3116883,127.840909 59.5227273,128.172078 59.5227273,125.980519 C59.5227273,123.827922 57.3116883,123.944805 57.3116883,125.844156 Z" id="Shape" fill="#000000"></path>
            <path d="M94.1103896,105.964286 L92.512987,106.12987 C92.3084416,104.542208 90.1266234,104.405844 90.1266234,106.597403 C90.1266234,108.399351 91.724026,108.535714 92.6201299,107.542208 L93.9155844,107.727273 L93.0974026,112.081169 L88.8506494,112.081169 L88.8506494,110.581169 L91.8798701,110.581169 L92.1331169,109.159091 C89.5616883,110.435065 87.3311688,107.142857 89.0746753,104.775974 C90.4188312,102.944805 93.7597403,103.344156 94.1103896,105.964286 Z" id="Path" fill="#000000"></path>
            <path d="M72.1266234,110.133117 L73.6753247,109.967532 C73.8116883,111.116883 74.9318182,111.126623 75.4577922,110.444805 C75.6915584,110.142857 75.8376623,109.50974 75.8961039,108.545455 C74.6103896,110.055195 71.9707792,109.061688 71.9707792,106.5 C71.9707792,103.548701 75.2337662,102.818182 76.7435065,104.649351 C77.9220779,106.071429 78.4090909,112.237013 74.5032468,112.237013 C73.1785714,112.237013 72.3409091,111.457792 72.1266234,110.133117 L72.1266234,110.133117 Z M75.7597403,106.626623 C75.7597403,104.62013 73.538961,104.298701 73.538961,106.49026 C73.538961,108.662338 75.7597403,108.525974 75.7597403,106.626623 Z" id="Shape" fill="#000000"></path>
            <path d="M57.8376623,103.811688 L57.8376623,105.496753 L61.2564935,105.496753 L61.2564935,106.88961 L57.6331169,112.217532 L56.2792208,112.217532 L56.2792208,106.899351 L55.2467532,106.899351 L55.2467532,105.496753 L56.2792208,105.496753 L56.2792208,103.811688 L57.8376623,103.811688 L57.8376623,103.811688 Z M57.8376623,106.899351 L57.8376623,109.762987 L59.7564935,106.899351 L57.8376623,106.899351 Z" id="Shape" fill="#000000"></path>
        </g>
    </g>
</svg>