<?xml version="1.0" encoding="UTF-8"?>
<svg width="100px" height="100px" viewBox="0 0 100 100" version="1.1" xmlns="http://www.w3.org/2000/svg" xmlns:xlink="http://www.w3.org/1999/xlink">
    <title>sudoku_5_3</title>
    <g id="Sudoku" stroke="none" stroke-width="1" fill="none" fill-rule="evenodd">
        <g id="sudoku_5_3" fill-rule="nonzero">
            <polygon id="Path" fill="#000000" points="0.0617283951 0.0617283951 99.8888889 0.0617283951 99.8888889 99.8888889 0.0617283951 99.8888889"></polygon>
            <polygon id="Path" fill="#424242" points="62.6049383 16.8518519 83.2716049 16.8518519 83.2716049 37.5185185 62.6049383 37.5185185"></polygon>
            <polygon id="Path" fill="#424242" points="39.6419753 16.8518519 60.308642 16.8518519 60.308642 37.5185185 39.6419753 37.5185185"></polygon>
            <polygon id="Path" fill="#424242" points="16.6666667 16.8518519 37.3333333 16.8518519 37.3333333 37.5185185 16.6666667 37.5185185"></polygon>
            <polygon id="Path" fill="#424242" points="62.6049383 39.8148148 83.2716049 39.8148148 83.2716049 60.4814815 62.6049383 60.4814815"></polygon>
            <polygon id="Path" fill="#424242" points="39.6419753 39.8148148 60.308642 39.8148148 60.308642 60.4814815 39.6419753 60.4814815"></polygon>
            <polygon id="Path" fill="#424242" points="16.6666667 39.8148148 37.3333333 39.8148148 37.3333333 60.4814815 16.6666667 60.4814815"></polygon>
            <polygon id="Path" fill="#424242" points="62.6049383 62.7901235 83.2716049 62.7901235 83.2716049 83.4567901 62.6049383 83.4567901"></polygon>
            <polygon id="Path" fill="#424242" points="39.6419753 62.7901235 60.308642 62.7901235 60.308642 83.4567901 39.6419753 83.4567901"></polygon>
            <polygon id="Path" fill="#424242" points="16.6666667 62.9135802 37.3333333 62.9135802 37.3333333 83.5802469 16.6666667 83.5802469"></polygon>
            <polygon id="Path" fill="#424242" points="62.6049383 4.22222222 83.2716049 4.22222222 83.2716049 13.4074074 62.6049383 13.4074074"></polygon>
            <polygon id="Path" fill="#424242" points="39.6419753 4.22222222 60.308642 4.22222222 60.308642 13.4074074 39.6419753 13.4074074"></polygon>
            <polygon id="Path" fill="#424242" points="16.6666667 4.22222222 37.3333333 4.22222222 37.3333333 13.4074074 16.6666667 13.4074074"></polygon>
            <polygon id="Path" fill="#424242" points="62.6049383 86.9012346 83.2716049 86.9012346 83.2716049 96.0864198 62.6049383 96.0864198"></polygon>
            <polygon id="Path" fill="#424242" points="39.6419753 86.9012346 60.308642 86.9012346 60.308642 96.0864198 39.6419753 96.0864198"></polygon>
            <polygon id="Path" fill="#424242" points="16.6666667 86.9012346 37.3333333 86.9012346 37.3333333 96.0864198 16.6666667 96.0864198"></polygon>
            <polygon id="Path" fill="#424242" points="95.912716 37.5223457 95.912716 16.8495062 86.7248148 16.8495062 86.7248148 37.5223457"></polygon>
            <polygon id="Path" fill="#424242" points="95.912716 60.4911111 95.912716 39.8182716 86.7248148 39.8182716 86.7248148 60.4911111"></polygon>
            <polygon id="Path" fill="#424242" points="95.912716 83.46 95.912716 62.7871605 86.7248148 62.7871605 86.7248148 83.46"></polygon>
            <polygon id="Path" fill="#424242" points="13.2251852 37.5223457 13.2251852 16.8495062 4.03728395 16.8495062 4.03728395 37.5223457"></polygon>
            <polygon id="Path" fill="#424242" points="13.2251852 60.4911111 13.2251852 39.8182716 4.03728395 39.8182716 4.03728395 60.4911111"></polygon>
            <polygon id="Path" fill="#424242" points="13.2251852 83.46 13.2251852 62.7871605 4.03728395 62.7871605 4.03728395 83.46"></polygon>
            <polygon id="Path" fill="#FFFFFF" points="49.6419753 8.0617284 49.6419753 12.7407407 50.308642 12.7407407 50.308642 8.0617284 51.7283951 8.0617284 49.9753086 4.88888889 48.2222222 8.0617284"></polygon>
            <polygon id="Path" fill="#FFFFFF" points="47 9.14814815 55.0246914 9.14814815 55.0246914 8.48148148 47 8.48148148 47 7.0617284 43.8148148 8.81481481 47 10.5555556"></polygon>
            <polygon id="Path" fill="#FFFFFF" points="53.0123457 8.48148148 44.9753086 8.48148148 44.9753086 9.14814815 53.0123457 9.14814815 53.0123457 10.5555556 56.1851852 8.81481481 53.0123457 7.0617284"></polygon>
            <polygon id="Path" fill="#FFFFFF" points="46.9753086 91.8395062 55 91.8395062 55 91.1604938 46.9753086 91.1604938 46.9753086 89.7530864 43.7901235 91.4938272 46.9753086 93.2469136"></polygon>
            <polygon id="Path" fill="#FFFFFF" points="50.2839506 92.2469136 50.2839506 87.5679012 49.617284 87.5679012 49.617284 92.2469136 48.1975309 92.2469136 49.9506173 95.4320988 51.691358 92.2469136"></polygon>
            <polygon id="Path" fill="#FFFFFF" points="52.9753086 91.1604938 44.9506173 91.1604938 44.9506173 91.8395062 52.9753086 91.8395062 52.9753086 93.2469136 56.1604938 91.4938272 52.9753086 89.7530864"></polygon>
            <polygon id="Path" fill="#FFFFFF" points="90.5679012 50.5185185 95.2469136 50.5185185 95.2469136 49.8518519 90.5679012 49.8518519 90.5679012 48.4320988 87.3950617 50.1851852 90.5679012 51.9259259"></polygon>
            <polygon id="Path" fill="#FFFFFF" points="9.38271605 49.8518519 4.7037037 49.8518519 4.7037037 50.5185185 9.38271605 50.5185185 9.38271605 51.9259259 12.5555556 50.1851852 9.38271605 48.4320988"></polygon>
        </g>
    </g>
</svg>