<?xml version="1.0" encoding="UTF-8"?>
<svg width="96px" height="100px" viewBox="0 0 96 100" version="1.1" xmlns="http://www.w3.org/2000/svg" xmlns:xlink="http://www.w3.org/1999/xlink">
    <title>sudoku_7</title>
    <g id="Sudoku" stroke="none" stroke-width="1" fill="none" fill-rule="evenodd">
        <g id="sudoku_7" fill-rule="nonzero">
            <polygon id="Path" fill="#000000" points="0.101123596 23.0224719 41.4044944 0.101123596 94.7191011 10.3707865 94.6853933 65.8089888 61.741573 99.8089888 9.49438202 79.6067416"></polygon>
            <polygon id="Path" fill="#424242" points="51.4269663 23.4382022 69.7752809 28.0449438 57.3707865 37.3483146 38.3483146 32.1910112"></polygon>
            <polygon id="Path" fill="#424242" points="64.3146067 14.7865169 82.6179775 18.6516854 71.1123596 26.988764 52.7078652 22.7078652"></polygon>
            <polygon id="Path" fill="#424242" points="75.8202247 7.07865169 93.2134831 10.4382022 83.5393258 17.7977528 65.5730337 14.0224719"></polygon>
            <polygon id="Path" fill="#424242" points="57.8202247 3.69662921 73.988764 6.75280899 63.6516854 13.6179775 47.1910112 10.247191"></polygon>
            <polygon id="Path" fill="#424242" points="45.988764 11.0561798 62.6853933 14.3707865 50.8089888 22.3370787 33.7865169 18.3820225"></polygon>
            <polygon id="Path" fill="#424242" points="32.5505618 19.2022472 49.5168539 23.1235955 36.7191011 31.9101124 19.2921348 27.494382"></polygon>
            <polygon id="Path" fill="#424242" points="15.4606742 15.1573034 31.011236 18.741573 17.3820225 26.8539326 1.56179775 22.7977528"></polygon>
            <polygon id="Path" fill="#424242" points="29.1797753 7.51685393 44.4157303 10.6404494 32.3033708 17.9213483 16.8876404 14.2359551"></polygon>
            <polygon id="Path" fill="#424242" points="41.4269663 0.584269663 56.247191 3.3258427 45.5617978 9.93258427 30.3370787 6.82022472"></polygon>
            <polygon id="Path" fill="#424242" points="37.7977528 33.9438202 56.7078652 38.9550562 57.8988764 59.1685393 39.4494382 53.5505618"></polygon>
            <polygon id="Path" fill="#424242" points="18.4606742 28.6853933 35.8426966 33.247191 37.8764045 53 21.0337079 47.7977528"></polygon>
            <polygon id="Path" fill="#424242" points="0.730337079 24.0898876 16.6966292 28.1348315 19.3146067 47.2921348 3.82022472 42.505618"></polygon>
            <polygon id="Path" fill="#424242" points="40.0449438 55.3932584 58.0786517 61.1011236 59.3707865 79.7977528 41.7977528 73.4831461"></polygon>
            <polygon id="Path" fill="#424242" points="21.4044944 49.7752809 38.1011236 54.8426966 39.8988764 72.8426966 23.7078652 67.2247191"></polygon>
            <polygon id="Path" fill="#424242" points="4.19101124 44.247191 19.5955056 49.0898876 21.988764 66.5280899 7.08988764 61.4269663"></polygon>
            <polygon id="Path" fill="#424242" points="42.0337079 75.3707865 59.505618 81.5393258 60.6179775 98.8089888 43.6404494 92.1348315"></polygon>
            <polygon id="Path" fill="#424242" points="23.9325843 69.0224719 40.2696629 74.7752809 41.9213483 91.5280899 26.1011236 85.2247191"></polygon>
            <polygon id="Path" fill="#424242" points="7.40449438 63.0786517 22.2247191 68.3707865 24.5730337 84.7191011 9.98876404 79.0561798"></polygon>
            <polygon id="Path" fill="#424242" points="58.6067416 38.6853933 71.0224719 29.247191 71.6179775 48.988764 59.752809 59.0337079"></polygon>
            <polygon id="Path" fill="#424242" points="72.3707865 28.2247191 83.3595506 19.8539326 83.5842697 38.8651685 72.9213483 47.8876404"></polygon>
            <polygon id="Path" fill="#424242" points="84.5280899 19.0224719 94.2247191 11.7078652 94.2696629 29.7078652 84.7977528 37.7191011"></polygon>
            <polygon id="Path" fill="#424242" points="60.0786517 61.011236 71.6179775 50.6966292 72.3595506 68.741573 61.0449438 79.6067416"></polygon>
            <polygon id="Path" fill="#424242" points="73.011236 49.7303371 83.7303371 40.5168539 83.9550562 58.1123596 73.5617978 67.7752809"></polygon>
            <polygon id="Path" fill="#424242" points="84.8426966 39.6516854 94.2247191 31.494382 94.1797753 48.2134831 84.988764 57.2359551"></polygon>
            <polygon id="Path" fill="#424242" points="61.1348315 81.3146067 72.5842697 70.5393258 73.2808989 87.247191 62.1460674 98.7191011"></polygon>
            <polygon id="Path" fill="#424242" points="73.752809 69.7078652 84.0449438 59.7191011 84.2808989 75.8764045 74.3033708 86.1910112"></polygon>
            <polygon id="Path" fill="#424242" points="85.0561798 58.7078652 94.258427 49.8651685 94.2022472 65.7078652 85.2022472 74.8651685"></polygon>
            <path d="M49.0674157,30.1123596 L51.1011236,30.6067416 C49.8988764,31.6404494 52.0337079,31.752809 52.7640449,31.6067416 C53.3370787,31.494382 54.1348315,31.1235955 55.1460674,30.505618 C52.8876404,30.8764045 49.4494382,29.6292135 52.4044944,27.5955056 C54.0561798,26.4494382 56.4831461,26.1123596 58.3932584,26.7303371 C61.4044944,27.7078652 59.4044944,29.5842697 57.7640449,30.7191011 C55.4719101,32.3033708 52.6292135,33.3370787 49.8651685,32.4494382 C48.505618,32 47.8539326,31.2696629 49.0674157,30.1123596 L49.0674157,30.1123596 Z M56.8426966,29.1573034 C58.8202247,27.7752809 56.4157303,26.752809 54.3033708,28.2022472 C51.988764,29.8089888 55.2247191,30.2696629 56.8426966,29.1573034 Z" id="Shape" fill="#FFFFFF"></path>
            <path d="M62.5842697,21.2134831 L64.7640449,21.5617978 C64.4606742,21.8202247 64.3483146,22.0561798 64.4382022,22.258427 C65.1235955,23.8764045 71.5617978,21.2134831 66.6853933,20.8426966 L68.1348315,20.0674157 C68.7865169,20.2359551 71.5168539,20.2247191 71.1685393,19.2808989 C70.8651685,18.494382 68.7303371,18.9775281 68.1235955,19.3146067 L66.4494382,18.7191011 C70.4831461,16.7752809 75.3258427,18.6516854 73.0449438,20.1910112 C72.3595506,20.6629213 71.2921348,20.9213483 69.8426966,20.9550562 C72.6516854,22.0674157 67.9662921,24.4606742 63.9213483,23.5393258 C62.7078652,23.258427 61.1011236,22.4719101 62.5842697,21.2134831 L62.5842697,21.2134831 Z" id="Path" fill="#FFFFFF"></path>
            <path d="M80.3483146,14.1123596 L79.0561798,14.9325843 L72.3033708,13.4831461 C74.7191011,12.2022472 78.3595506,12.2808989 81.0337079,11.6853933 C81.741573,11.5280899 83.7752809,10.7303371 81.9550562,10.3370787 C81.0561798,10.1460674 80.247191,10.3146067 79.4494382,10.7640449 L77.6629213,10.258427 C79.3820225,9.35955056 81.2696629,9.20224719 83.1460674,9.60674157 C84.1460674,9.82022472 84.7303371,10.1123596 84.9101124,10.4831461 C85.6853933,12.0786517 80.0786517,12.7640449 79.247191,12.8651685 C78.3595506,12.9775281 77.3820225,13.0674157 76.505618,13.2921348 L80.3483146,14.1123596 L80.3483146,14.1123596 Z" id="Path" fill="#FFFFFF"></path>
            <path d="M56.3483146,8.51685393 L58.258427,8.78651685 C57.2022472,9.6741573 59.5505618,10.2022472 61.2921348,9.06741573 C62.0224719,8.58426966 62.0786517,8.16853933 61.1460674,7.97752809 C60.6292135,7.87640449 60.011236,7.88764045 59.2808989,8.02247191 L57.988764,7.64044944 L62.3707865,5.5505618 L67.0898876,6.48314607 L65.8988764,7.26966292 L62.5280899,6.59550562 L61.1123596,7.28089888 C65.0224719,7.19101124 64.8202247,9.40449438 60.988764,10.258427 C58.258427,10.8651685 54.5505618,10.0561798 56.3483146,8.51685393 L56.3483146,8.51685393 Z" id="Path" fill="#FFFFFF"></path>
            <path d="M53.988764,15.7865169 L52.011236,15.4494382 C53.1910112,14.4719101 50.9775281,14.5280899 50.3707865,14.6516854 C49.8202247,14.7752809 49.0786517,15.1123596 48.1460674,15.6741573 C50.0561798,15.3033708 53.7078652,16.1348315 50.8988764,18.011236 C49.3258427,19.0674157 47.0224719,19.4044944 45.1910112,18.9662921 C42.3146067,18.2696629 44.0561798,16.6292135 45.6067416,15.5955056 C47.7977528,14.1348315 50.4606742,13.2134831 53.1011236,13.8426966 C54.247191,14.1235955 55.1235955,14.7303371 53.988764,15.7865169 L53.988764,15.7865169 Z M45.9101124,17.6966292 C45.9775281,18.3483146 47.2247191,18.2696629 47.6741573,18.1910112 C48.3370787,18.0561798 50.9325843,16.741573 49.1685393,16.3146067 C48.3483146,16.1123596 45.8202247,16.7752809 45.9101124,17.6966292 L45.9101124,17.6966292 Z" id="Shape" fill="#FFFFFF"></path>
            <path d="M33.6516854,24.1685393 C32.3932584,22.8764045 36.3033708,21.2359551 39.3820225,22.3370787 C42.4382022,23.4269663 39.6404494,25.4719101 36.5842697,25.2134831 C38.1573034,26.752809 33.2808989,28.7078652 30.0337079,27.5393258 C26.1011236,26.1348315 30.8202247,23.9213483 33.6516854,24.1685393 L33.6516854,24.1685393 Z M35.752809,24.3258427 C37.2134831,24.8539326 39.4606742,23.6404494 38,23.1123596 C36.5842697,22.6067416 34.247191,23.7865169 35.752809,24.3258427 Z M31.6741573,25.4269663 C29.8764045,26.4157303 31.5168539,27 32.7078652,26.8539326 C33.5168539,26.7640449 36.0337079,25.6966292 34.3707865,25.1011236 C33.5505618,24.8089888 32.4269663,25.011236 31.6741573,25.4269663 L31.6741573,25.4269663 Z" id="Shape" fill="#FFFFFF"></path>
            <path d="M15.3258427,18.2808989 L16.8764045,17.4494382 L23.3370787,18.8988764 L22.1123596,19.5505618 C21.1123596,19.6853933 19.8988764,19.9213483 18.4719101,20.2696629 C16.1797753,20.8314607 13.4494382,21.6741573 11.3707865,22.7977528 L9.56179775,22.3932584 C12.5280899,20.8539326 16.3370787,19.8314607 19.6179775,19.247191 L15.3258427,18.2808989 L15.3258427,18.2808989 Z" id="Path" fill="#FFFFFF"></path>
            <path d="M26.9325843,14.3258427 L28.5955056,13.4269663 L24.8202247,12.5842697 L26.1910112,11.8426966 L35.4606742,9.92134831 L36.9550562,10.258427 L31.7078652,13.0786517 L32.8539326,13.3370787 L31.4719101,14.0786517 L30.3258427,13.8202247 L28.6629213,14.7078652 L26.9325843,14.3258427 Z M29.988764,12.6853933 L32.8089888,11.1685393 L27.8651685,12.2134831 L29.988764,12.6853933 L29.988764,12.6853933 Z" id="Shape" fill="#FFFFFF"></path>
            <path d="M41.5730337,7.30337079 L39.7977528,6.94382022 L44.6516854,3.7752809 C43.5617978,3.93258427 42.4606742,3.98876404 41.3707865,3.95505618 C43.1797753,2.7752809 41.8876404,3.38202247 44.6741573,3.08988764 C47.7303371,2.76404494 45.6179775,2.35955056 48.3146067,2.8988764 L41.5730337,7.30337079 Z" id="Path" fill="#FFFFFF"></path>
            <path d="M43.9662921,41.3595506 L43.8089888,39.1685393 L52.0674157,41.5955056 L52.1797753,43.3370787 C49.7640449,45.0786517 48.4494382,49.4494382 48.6853933,52.5955056 L46.3707865,51.9101124 C46.2247191,48.752809 47.2247191,45.2921348 49.4494382,42.988764 L43.9662921,41.3595506 L43.9662921,41.3595506 Z" id="Path" fill="#FFFFFF"></path>
            <path d="M24.4269663,42.4606742 L26.6404494,42.8539326 C26.8651685,44.0786517 28.2921348,45.2696629 29.2022472,44.2359551 C29.505618,43.8988764 29.6516854,43.0674157 29.6516854,41.7303371 C28.2247191,43.0674157 26,41.5280899 25.0337079,40.3370787 C23.9325843,38.9550562 23.0449438,35.9550562 24.6966292,34.6629213 C26.5393258,33.2022472 29.3370787,35.0449438 30.4719101,36.5842697 C31.8426966,38.4719101 32.8651685,44.0786517 31.0786517,45.8426966 C29.5168539,47.3707865 25.2921348,46.3033708 24.4269663,42.4606742 L24.4269663,42.4606742 Z M26.3820225,36.3932584 C25.505618,37.247191 26.247191,40.1011236 27.8314607,40.5505618 C29.3483146,40.988764 29.5168539,39.1235955 29.0674157,38.0449438 C28.5168539,36.7078652 27.2359551,35.5505618 26.3820225,36.3932584 L26.3820225,36.3932584 Z" id="Shape" fill="#FFFFFF"></path>
            <path d="M6.96629213,36.5280899 L8.96629213,36.9325843 C9.58426966,39.4382022 12.3483146,40.1123596 12.011236,37.6966292 C11.8089888,36.2134831 10.8426966,35.2921348 9.37078652,35.247191 L9.34831461,33.5168539 C11.4831461,34.258427 10.8876404,32.0898876 10.4269663,31.5280899 C9.64044944,30.5730337 8.29213483,30.4269663 8.33707865,32 L6.35955056,31.0224719 C6.47191011,29.0786517 7.4494382,28.4494382 9.31460674,29.0561798 C12.4044944,30.0561798 14.4719101,34.3033708 11.7303371,35.0561798 C15.1685393,36.8988764 15.1348315,42.3370787 11.0224719,41 C9.02247191,40.3483146 7.4494382,38.5617978 6.96629213,36.5280899 L6.96629213,36.5280899 Z" id="Path" fill="#FFFFFF"></path>
            <path d="M45.7303371,68.8539326 L48.0224719,69.1910112 C48.2022472,70.1348315 48.8764045,71.0449438 49.8426966,71.2808989 C51.7977528,71.7640449 51.6966292,68.7191011 50.7977528,67.5955056 C50.0561798,66.6629213 48.6853933,66.2808989 47.7303371,67.1460674 L45.8426966,66.4269663 L46.5842697,60.5505618 L52.7078652,62.0561798 L52.8539326,64.1797753 L48.494382,63.1011236 L48.2696629,65.0337079 C51.011236,64.3483146 53.6067416,67.3033708 53.7865169,69.9213483 C54.1573034,75.0898876 46.7078652,73.7191011 45.7303371,68.8539326 Z" id="Path" fill="#FFFFFF"></path>
            <path d="M32.4382022,66.1797753 L30.3370787,65.6629213 L29.7865169,57.8539326 C29.0674157,58.3707865 28.2022472,58.6741573 27.1797753,58.752809 L27.0449438,56.8651685 C28.2022472,56.7865169 29.5842697,56.0674157 29.9662921,54.9101124 L31.6741573,55.3258427 L32.4382022,66.1797753 L32.4382022,66.1797753 Z" id="Path" fill="#FFFFFF"></path>
            <path d="M15.6853933,53.258427 L13.8089888,52.8651685 C13.6404494,52.1573034 13.258427,51.5280899 12.5280899,51.2921348 C11.0561798,50.8089888 11.2921348,53.0337079 11.3595506,53.8314607 C12.505618,52.5505618 14.5393258,54.2359551 15.2921348,55.1910112 C16.2247191,56.3707865 17.3146067,59.2134831 15.9662921,60.4269663 C14.494382,61.7752809 11.8988764,59.7752809 11.011236,58.5617978 C9.82022472,56.9101124 8.4494382,51.6853933 9.88764045,50.0337079 C11.2359551,48.4831461 14.7191011,49.8539326 15.6853933,53.258427 L15.6853933,53.258427 Z M11.8651685,56.3707865 C12,57.3483146 12.5955056,58.6404494 13.6067416,58.9775281 C15.2808989,59.5168539 14.5730337,56.5393258 14,55.752809 C13.1011236,54.5393258 11.5955056,54.4382022 11.8651685,56.3707865 Z" id="Shape" fill="#FFFFFF"></path>
            <path d="M51.7752809,91.6516854 L51.5955056,89.4494382 L47.0674157,88.1797753 L46.9101124,86.3595506 L51.1460674,80.7752809 L52.9325843,81.2808989 L53.505618,88.2134831 L54.8876404,88.5955056 L55.0337079,90.4269663 L53.6516854,90.0337079 L53.8426966,92.2247191 L51.7752809,91.6516854 L51.7752809,91.6516854 Z M51.4382022,87.6292135 L51.1348315,83.8988764 L48.8988764,86.9101124 L51.4382022,87.6292135 L51.4382022,87.6292135 Z" id="Shape" fill="#FFFFFF"></path>
            <path d="M36.1685393,83.8764045 L36.3595506,85.7191011 L29.247191,83.1910112 C29.247191,81.4269663 30.3595506,80.6404494 31.752809,79.7752809 C33.0224719,78.988764 34.3707865,78.0224719 33.0674157,76.4494382 C32.3258427,75.5505618 30.6853933,75 30.752809,76.8539326 L28.7078652,75.9325843 C28.7303371,72.0561798 33.2022472,74.3370787 34.4606742,75.8089888 C35.2808989,76.7752809 35.8876404,78.1685393 35.4494382,79.4382022 C34.8764045,81.1123596 32.741573,81.4494382 32.1235955,82.4494382 L36.1685393,83.8764045 L36.1685393,83.8764045 Z" id="Path" fill="#FFFFFF"></path>
            <path d="M14.3258427,72.5842697 C13.258427,71.741573 11.8314607,69.3483146 13.258427,68.3146067 C14.4269663,67.4719101 16.741573,68.9438202 17.494382,69.8764045 C18.2808989,70.8426966 19.3146067,73.505618 17.3820225,73.7078652 C18.6966292,74.7191011 20.3370787,77.5955056 18.7078652,78.8651685 C17.4606742,79.8539326 15.1685393,78.3595506 14.3033708,77.3932584 C13.2921348,76.258427 11.9325843,72.8202247 14.3258427,72.5842697 L14.3258427,72.5842697 Z M14.4831461,70.7303371 C14.6629213,72.3932584 16.9438202,73.258427 16.752809,71.5617978 C16.5842697,70.0224719 14.2808989,68.9662921 14.4831461,70.7303371 Z M15.3370787,76.5168539 C15.6853933,77.011236 16.6516854,77.7977528 17.2359551,77.2359551 C18.0337079,76.4831461 17.0674157,74.4044944 15.9550562,73.988764 C14.3370787,73.3932584 14.7191011,75.6741573 15.3370787,76.5168539 L15.3370787,76.5168539 Z" id="Shape" fill="#FFFFFF"></path>
            <path d="M66.5280899,48.4494382 L65,49.8539326 L64.6966292,40.6404494 C64.1573034,41.988764 63.5280899,43.2134831 62.7752809,44.3146067 L62.7078652,42.0898876 C63.3483146,41.1573034 64.6853933,37.8988764 64.8651685,36.7865169 L66.1011236,35.6516854 L66.5280899,48.4494382 L66.5280899,48.4494382 Z" id="Path" fill="#FFFFFF"></path>
            <path d="M78.5955056,38.9438202 L78.5168539,36.5730337 L75.4831461,39.3483146 L75.4269663,37.3820225 L78.3820225,26.9101124 L79.5730337,25.8202247 L79.8202247,33.3258427 L80.752809,32.4719101 L80.8089888,34.4494382 L79.8876404,35.3033708 L79.9662921,37.6741573 L78.5955056,38.9438202 L78.5955056,38.9438202 Z M78.4494382,34.5955056 L78.3146067,30.5617978 L76.752809,36.1460674 L78.4494382,34.5955056 L78.4494382,34.5955056 Z" id="Shape" fill="#FFFFFF"></path>
            <path d="M91.9775281,26.0337079 L91.9662921,28.0561798 L87.0449438,31.8988764 C87.2921348,28.4044944 89.2921348,25.6741573 90.2921348,22.6067416 C90.4719101,22.0337079 91.0337079,19.1797753 89.6404494,20.2696629 C88.7303371,20.9775281 88.6853933,21.741573 88.6404494,22.8314607 L87.2359551,23.7078652 C87.3258427,22.4382022 87.5955056,21.3707865 88.0337079,20.505618 C88.4719101,19.6516854 90.2359551,17.2247191 91.3820225,18.011236 C92.6516854,18.8876404 91.6629213,22.1460674 91.247191,23.2921348 C90.6629213,24.9101124 89.6067416,26.752809 89.1797753,28.2134831 L91.9775281,26.0337079 L91.9775281,26.0337079 Z" id="Path" fill="#FFFFFF"></path>
            <path d="M64.988764,65.4157303 C63.1797753,65.8426966 63.4719101,61.1235955 65.988764,58.8089888 C68.3595506,56.6292135 68.5730337,59.8202247 68.1011236,61.5393258 C67.9325843,62.1348315 67.6966292,62.6966292 67.3707865,63.2247191 C69.6292135,62.5955056 68.9550562,68.5955056 66.4606742,70.8988764 C63.741573,73.3932584 63.6404494,69.3146067 64.0898876,67.5280899 C64.2696629,66.7977528 64.5730337,66.1011236 64.988764,65.4157303 L64.988764,65.4157303 Z M66.1460674,63.4831461 C66.7752809,62.8988764 67.3483146,60.8202247 66.7078652,60.4044944 C66.2022472,60.0786517 65.5505618,61.2359551 65.4157303,61.5955056 C65.1685393,62.258427 64.988764,64.5393258 66.1460674,63.4831461 Z M65.247191,68.0561798 C65.3258427,70.3146067 66.6404494,69.1685393 67.0786517,67.9213483 C67.2921348,67.3146067 67.5505618,65.5393258 66.9775281,65.1011236 C65.9662921,64.3146067 65.2247191,67.2359551 65.247191,68.0561798 L65.247191,68.0561798 Z" id="Shape" fill="#FFFFFF"></path>
            <path d="M76.1348315,52.1573034 L76.1011236,50.1910112 L80.752809,45.988764 L80.7752809,47.5280899 C79.8202247,49.9325843 79.1235955,52.9101124 78.7865169,55.4719101 C78.5955056,56.9101124 78.5168539,58.1123596 78.5280899,59.0898876 L77.2247191,60.2696629 C77.2247191,56.7303371 78.1011236,52.6966292 79.2247191,49.3595506 L76.1348315,52.1573034 L76.1348315,52.1573034 Z" id="Path" fill="#FFFFFF"></path>
            <path d="M87.4269663,48.3595506 L88.7303371,46.9775281 C88.8764045,49.2247191 90.6629213,47.1011236 90.6966292,45.0337079 C90.7191011,43.4044944 89.9213483,43.8988764 89.1797753,44.8764045 L89.3483146,43.0898876 C89.988764,42.5505618 91.0224719,40.5505618 90.2921348,40.0561798 C89.505618,39.5393258 88.8764045,41.8651685 88.8314607,42.4269663 L87.6067416,43.1910112 C88.247191,38.3932584 91.8876404,36.2921348 91.8314607,39.4157303 C91.8202247,40.3483146 91.4719101,41.3932584 90.7865169,42.5505618 C92.9101124,41.3707865 92.2808989,47.0561798 89.6629213,49.3483146 C88.3820225,50.4831461 87.5280899,50.011236 87.4269663,48.3595506 L87.4269663,48.3595506 Z" id="Path" fill="#FFFFFF"></path>
            <path d="M69.6067416,79.1573034 L68.2808989,80.752809 C68.247191,80.3595506 68.1685393,80.1348315 68.0224719,80.0786517 C67.494382,79.8426966 66.8764045,81.3483146 66.7640449,81.6741573 C66.5730337,82.2808989 66.4494382,83.247191 66.4044944,84.5730337 C67.494382,81.4269663 69.741573,80.4494382 69.7640449,83.8202247 C69.7752809,85.8988764 68.9550562,88.4269663 67.4831461,89.9438202 C65.1573034,92.3483146 65,88.3820225 64.988764,86.9101124 C64.9775281,84.8764045 65.0561798,83.0898876 65.5280899,81.6966292 C65.8764045,80.6966292 67.494382,77.3707865 68.9213483,77.7977528 C69.2808989,77.8988764 69.505618,78.3595506 69.6067416,79.1573034 L69.6067416,79.1573034 Z M66.5280899,86.9775281 C66.5393258,89.6966292 68.4382022,88.0561798 68.4269663,85.2134831 C68.4157303,82.2808989 66.5168539,84.5280899 66.5280899,86.9775281 Z" id="Shape" fill="#FFFFFF"></path>
            <path d="M76.8988764,77.1797753 L78.0786517,75.7865169 C78.1235955,76.1460674 78.2134831,76.3595506 78.3370787,76.4269663 C78.8539326,76.7078652 79.3595506,75.3370787 79.4494382,75.0337079 C79.6067416,74.4831461 79.6966292,73.5955056 79.6966292,72.3707865 C78.7752809,75.2134831 76.7191011,75.988764 76.6067416,72.8539326 C76.5168539,70.5280899 76.8314607,69.0337079 78.5280899,67.3595506 C80.3595506,65.5280899 80.8539326,68.0449438 80.9325843,70.3258427 C81.0337079,72.988764 80.7977528,75.9662921 78.7977528,77.9550562 C77.6966292,79.0449438 77.1123596,78.5505618 76.8988764,77.1797753 L76.8988764,77.1797753 Z M79.1797753,68.9438202 C78.6292135,68.4606742 78.1011236,69.6629213 77.9775281,70.0337079 C77.7865169,70.6516854 77.5730337,73.8764045 78.7303371,72.7191011 C79.4157303,72.0449438 79.8764045,69.5393258 79.1797753,68.9438202 L79.1797753,68.9438202 Z" id="Shape" fill="#FFFFFF"></path>
            <path d="M88.0898876,65.988764 L89.3258427,64.6404494 C89.4382022,66.3595506 91.1123596,64.9101124 91.1685393,62.3820225 C91.1797753,61.741573 91.0674157,60.6966292 90.247191,61.4719101 C89.8876404,61.8089888 89.5617978,62.3370787 89.2696629,63.0786517 L88.2808989,63.7977528 L89.0224719,58.1573034 L92.2808989,55.0898876 L92.2359551,56.8314607 L89.9213483,59.011236 L89.6853933,60.8539326 C90.741573,59.0898876 92.2921348,58.2247191 92.4269663,61.1573034 C92.5280899,63.2022472 91.6629213,65.6179775 90.2022472,66.7191011 C89.0786517,67.5617978 88.2247191,67.7752809 88.0898876,65.988764 Z" id="Path" fill="#FFFFFF"></path>
            <path d="M44.2247191,19.7078652 C44.2247191,20.1797753 43.0674157,20.1797753 43.0674157,19.7078652 C43.0674157,19.247191 44.2247191,19.247191 44.2247191,19.7078652 Z" id="Path" fill="#FFFFFF"></path>
            <path d="M49.2921348,33.6179775 C49.2921348,34.0786517 48.1348315,34.0786517 48.1348315,33.6179775 C48.1348315,33.1460674 49.2921348,33.1460674 49.2921348,33.6179775 Z" id="Path" fill="#FFFFFF"></path>
            <path d="M14.258427,62.3595506 C14.258427,63.1573034 13.1011236,62.9775281 13.1011236,62.1685393 C13.1011236,61.3595506 14.258427,61.5505618 14.258427,62.3595506 Z" id="Path" fill="#FFFFFF"></path>
            <path d="M29.1910112,48.5730337 C29.1910112,49.4269663 27.9775281,49.2247191 27.9775281,48.3707865 C27.9775281,47.5168539 29.1910112,47.7078652 29.1910112,48.5730337 L29.1910112,48.5730337 Z" id="Path" fill="#FFFFFF"></path>
            <path d="M67.7303371,90.8764045 C68.1910112,90.7191011 68.2808989,91.3258427 68.0449438,91.6853933 C67.9101124,91.8988764 67.5168539,92.1685393 67.3370787,91.8426966 C67.1573034,91.5505618 67.4157303,90.988764 67.7303371,90.8764045 Z" id="Path" fill="#FFFFFF"></path>
            <path d="M79.4494382,79.0449438 C80.2359551,79.011236 79.505618,80.505618 78.9662921,80.0561798 C78.6629213,79.8089888 78.9775281,79.0674157 79.4494382,79.0449438 Z" id="Path" fill="#FFFFFF"></path>
        </g>
    </g>
</svg>