<?xml version="1.0" encoding="UTF-8"?>
<svg width="95px" height="100px" viewBox="0 0 95 100" version="1.1" xmlns="http://www.w3.org/2000/svg" xmlns:xlink="http://www.w3.org/1999/xlink">
    <title>sudoku_1_3</title>
    <g id="Sudoku" stroke="none" stroke-width="1" fill="none" fill-rule="evenodd">
        <g id="sudoku_1_3" fill-rule="nonzero">
            <polygon id="Path" fill="#000000" points="0.0606382979 22.9328859 41.4294326 0.0536912752 94.8315603 10.3020134 94.8113475 65.6241611 61.8106383 99.5503356 9.46631206 79.3959732"></polygon>
            <polygon id="Path" fill="#424242" points="51.4684397 23.3489933 69.8553191 27.9395973 57.4312057 37.2281879 38.3705674 32.0738255"></polygon>
            <polygon id="Path" fill="#424242" points="64.3776596 14.7114094 82.7241135 18.5704698 71.1893617 26.885906 52.7553191 22.6107383"></polygon>
            <polygon id="Path" fill="#424242" points="75.9056738 7.01342282 93.329078 10.3691275 83.6404255 17.7181208 65.6443262 13.9530201"></polygon>
            <polygon id="Path" fill="#424242" points="57.8758865 3.63758389 74.0730496 6.69127517 63.7173759 13.5369128 47.2237589 10.1879195"></polygon>
            <polygon id="Path" fill="#424242" points="46.0244681 10.9865772 62.7539007 14.295302 50.8553191 22.2416107 33.8024823 18.295302"></polygon>
            <polygon id="Path" fill="#424242" points="32.5560284 19.1208054 49.5617021 23.0268456 36.7400709 31.7986577 19.2762411 27.3892617"></polygon>
            <polygon id="Path" fill="#424242" points="15.4492908 15.0805369 31.0198582 18.6644295 17.3695035 26.7449664 1.51595745 22.704698"></polygon>
            <polygon id="Path" fill="#424242" points="29.187234 7.44966443 44.4411348 10.5771812 32.3134752 17.8322148 16.8776596 14.1610738"></polygon>
            <polygon id="Path" fill="#424242" points="41.4496454 0.536912752 56.2925532 3.26845638 45.5932624 9.86577181 30.3393617 6.76510067"></polygon>
            <polygon id="Path" fill="#424242" points="37.8113475 33.8187919 56.7574468 38.8322148 57.9567376 59 39.4755319 53.3892617"></polygon>
            <polygon id="Path" fill="#424242" points="18.4407801 28.5838926 35.8641844 33.1342282 37.8921986 52.8389262 21.0280142 47.6510067"></polygon>
            <polygon id="Path" fill="#424242" points="0.687234043 23.9932886 16.6755319 28.033557 19.3099291 47.1409396 3.77978723 42.3691275"></polygon>
            <polygon id="Path" fill="#424242" points="40.0751773 55.2281879 58.1386525 60.9261745 59.4322695 79.5771812 41.8269504 73.2818792"></polygon>
            <polygon id="Path" fill="#424242" points="21.3985816 49.6241611 38.1212766 54.6778523 39.9202128 72.6442953 23.7028369 67.033557"></polygon>
            <polygon id="Path" fill="#424242" points="4.14361702 44.114094 19.5861702 48.9328859 21.9847518 66.3489933 7.05425532 61.2483221"></polygon>
            <polygon id="Path" fill="#424242" points="42.0560284 75.1677852 59.5670213 81.3221477 60.6787234 98.5503356 43.6730496 91.8926174"></polygon>
            <polygon id="Path" fill="#424242" points="23.9319149 68.8255034 40.2907801 74.5704698 41.948227 91.295302 26.1014184 85"></polygon>
            <polygon id="Path" fill="#424242" points="7.37765957 62.8993289 22.2138298 68.1879195 24.5652482 84.4966443 9.95815603 78.8456376"></polygon>
            <polygon id="Path" fill="#424242" points="58.6574468 38.5503356 71.101773 29.1342282 71.7014184 48.8456376 59.8095745 58.8590604"></polygon>
            <polygon id="Path" fill="#424242" points="72.4492908 28.1275168 83.4585106 19.7651007 83.6875887 38.738255 73.001773 47.738255"></polygon>
            <polygon id="Path" fill="#424242" points="84.6241135 18.9395973 94.3397163 11.6308725 94.3868794 29.5973154 84.9003546 37.590604"></polygon>
            <polygon id="Path" fill="#424242" points="60.1329787 60.8322148 71.7014184 50.5436242 72.4358156 68.5503356 61.1031915 79.3959732"></polygon>
            <polygon id="Path" fill="#424242" points="73.0960993 49.5771812 83.829078 40.3892617 84.058156 57.9395973 73.6485816 67.590604"></polygon>
            <polygon id="Path" fill="#424242" points="84.9475177 39.5167785 94.3397163 31.3892617 94.2992908 48.0604027 85.0890071 57.0671141"></polygon>
            <polygon id="Path" fill="#424242" points="61.1975177 81.0939597 72.6648936 70.3422819 73.3588652 87.0201342 62.208156 98.4563758"></polygon>
            <polygon id="Path" fill="#424242" points="73.8304965 69.5167785 84.1524823 59.5503356 84.3815603 75.6711409 74.3897163 85.966443"></polygon>
            <polygon id="Path" fill="#424242" points="85.1631206 58.5369128 94.3734043 49.7181208 94.3262411 65.5234899 85.2978723 74.6644295"></polygon>
            <path d="M43.9964539,41.2348993 L43.8414894,39.0402685 L52.1085106,41.4697987 L52.2297872,43.1946309 C49.7638298,44.9731544 48.4904255,49.3422819 48.7262411,52.4362416 L46.401773,51.7583893 C46.2535461,48.5503356 47.2911348,45.1208054 49.4943262,42.8456376 L43.9964539,41.2348993 L43.9964539,41.2348993 Z" id="Path" fill="#FFFFFF"></path>
            <path d="M24.4237589,42.3221477 L26.6404255,42.7114094 C26.9368794,44.3489933 28.5067376,44.8926174 29.2141844,44.1006711 C29.5106383,43.7651007 29.6588652,42.9261745 29.6521277,41.6040268 C27.9542553,43.1812081 24.0666667,40.7449664 23.8106383,37.1208054 C23.520922,32.9597315 28.1496454,33.3020134 30.4741135,36.4630872 C32.0776596,38.6375839 32.6907801,44.1275168 31.0804965,45.6979866 C29.45,47.2885906 25.306383,46.2348993 24.4237589,42.3221477 L24.4237589,42.3221477 Z M29.2613475,38.8456376 C29.0659574,36.1073826 25.8588652,34.6174497 26.0744681,37.7583893 C26.2900709,40.7583893 29.45,41.5503356 29.2613475,38.8456376 L29.2613475,38.8456376 Z" id="Shape" fill="#FFFFFF"></path>
            <path d="M28.4865248,47.7181208 C29.301773,47.852349 29.2950355,49.147651 28.4865248,49.0201342 C27.6780142,48.8791946 27.6847518,47.5838926 28.4865248,47.7181208 Z" id="Path" fill="#FFFFFF"></path>
            <path d="M13.7177305,61.5771812 C14.479078,61.704698 14.4723404,62.9261745 13.7177305,62.7986577 C12.9496454,62.6711409 12.956383,61.4496644 13.7177305,61.5771812 Z" id="Path" fill="#FFFFFF"></path>
            <path d="M6.93297872,36.409396 L8.94078014,36.8053691 C9.55390071,39.3221477 12.3230496,40.0134228 11.9861702,37.5704698 C11.7840426,36.1275168 10.8407801,35.1677852 9.33829787,35.1275168 L9.31808511,33.3959732 C11.662766,34.2214765 11.1035461,31.3087248 9.47304965,30.7785235 C8.66453901,30.5167785 8.28049645,31.0201342 8.30070922,31.885906 L6.32659574,30.9127517 C6.43439716,28.9798658 7.41808511,28.3489933 9.28439716,28.9530201 C12.3567376,29.9463087 14.4521277,34.1812081 11.7099291,34.9395973 C15.1932624,36.7986577 15.085461,42.1946309 10.9957447,40.8657718 C8.99468085,40.2214765 7.41808511,38.4362416 6.93297872,36.409396 L6.93297872,36.409396 Z" id="Path" fill="#FFFFFF"></path>
            <path d="M45.7617021,68.6644295 L48.0592199,69 C48.5039007,71.2818792 51.677305,72.3221477 51.4549645,69.1812081 C51.2797872,66.6577181 48.9755319,65.8657718 47.7695035,66.9597315 L45.8695035,66.2348993 L46.6241135,60.3758389 L52.7553191,61.8791946 L52.9035461,64 L48.5308511,62.9261745 L48.3085106,64.852349 C51.8861702,63.9530201 55.4368794,69.4026846 53.1528369,72.1342282 C51.3808511,74.261745 46.5297872,72.4697987 45.7617021,68.6644295 L45.7617021,68.6644295 Z" id="Path" fill="#FFFFFF"></path>
            <path d="M32.448227,65.9932886 L30.3393617,65.4765101 L29.793617,57.6845638 C29.072695,58.2013423 28.2035461,58.5033557 27.1794326,58.5838926 L27.0514184,56.704698 C28.1159574,56.6241611 29.5780142,55.9597315 29.9755319,54.7449664 L31.6801418,55.1677852 L32.448227,65.9932886 Z" id="Path" fill="#FFFFFF"></path>
            <path d="M15.6648936,53.1073826 L13.791844,52.7114094 C13.4280142,51.1946309 12.0670213,50.6845638 11.5280142,51.3825503 C11.2989362,51.6845638 11.2315603,52.4496644 11.3258865,53.6711409 C12.6397163,52.2080537 16.0489362,54.590604 16.5003546,57.8791946 C17.0393617,61.7651007 13.1315603,61.3154362 10.9890071,58.3892617 C9.5606383,56.442953 8.57695035,51.3489933 9.8570922,49.885906 C11.1776596,48.3691275 14.6879433,49.6442953 15.6648936,53.1073826 L15.6648936,53.1073826 Z M11.8379433,56.2080537 C12.1882979,58.738255 14.9843972,60.1677852 14.5868794,57.2751678 C14.2028369,54.4832215 11.4943262,53.7248322 11.8379433,56.2080537 Z" id="Shape" fill="#FFFFFF"></path>
            <path d="M51.8187943,91.409396 L51.6368794,89.2214765 L47.1024823,87.9463087 L46.9475177,86.1275168 L51.185461,80.557047 L52.9776596,81.0604027 L53.5503546,87.9798658 L54.9382979,88.3624161 L55.0865248,90.1879195 L53.7053191,89.7986577 L53.887234,91.9865772 L51.8187943,91.409396 L51.8187943,91.409396 Z M51.4886525,87.3959732 L51.1787234,83.6778523 L48.941844,86.6778523 L51.4886525,87.3959732 L51.4886525,87.3959732 Z" id="Shape" fill="#FFFFFF"></path>
            <path d="M36.1808511,83.6577181 L36.3762411,85.4899329 L29.2478723,82.9731544 C29.2613475,79.4832215 33.7957447,79.6577181 33.5531915,77.3959732 C33.3914894,75.7986577 31.6397163,75.1409396 31.0670213,75.5503356 C30.8446809,75.7114094 30.743617,76.0738255 30.7638298,76.6442953 L28.7156028,75.7248322 C28.7358156,71.9463087 33.1219858,74.033557 34.4762411,75.6040268 C35.6822695,77.0067114 36.1404255,78.8657718 34.7929078,80.2550336 C34.0719858,81 32.5964539,81.4899329 32.1382979,82.2281879 L36.1808511,83.6577181 L36.1808511,83.6577181 Z" id="Path" fill="#FFFFFF"></path>
            <path d="M14.2971631,72.3825503 C11.9929078,70.5771812 11.9592199,66.9328859 15.2808511,68.1543624 C18.5620567,69.3624161 19.4244681,73.2885906 17.362766,73.5100671 C20.1656028,75.6442953 20.0443262,80.0067114 16.5475177,78.7248322 C12.956383,77.4026846 11.7840426,72.6241611 14.2971631,72.3825503 Z M14.4588652,70.5369128 C14.6475177,72.2147651 16.9315603,73.0805369 16.7361702,71.3691275 C16.5542553,69.7315436 14.2702128,68.8724832 14.4588652,70.5369128 Z M14.7822695,74.885906 C15.0382979,77.147651 17.7198582,78.2751678 17.4503546,75.8926174 C17.2078014,73.7315436 14.5397163,72.7449664 14.7822695,74.885906 Z" id="Shape" fill="#FFFFFF"></path>
            <path d="M66.6010638,48.295302 L65.0648936,49.704698 L64.7617021,40.5100671 C64.2294326,41.852349 63.5893617,43.0738255 62.8414894,44.1744966 C62.7269504,40.7583893 62.5113475,42.9932886 64.027305,39.5771812 C65.7049645,35.8053691 63.7712766,37.7248322 66.1698582,35.5302013 L66.6010638,48.295302 L66.6010638,48.295302 Z" id="Path" fill="#FFFFFF"></path>
            <path d="M78.6815603,38.8187919 L78.6074468,36.4496644 L75.5755319,39.2281879 L75.508156,37.2550336 L78.472695,26.8120805 L79.6652482,25.7181208 L79.9212766,33.2080537 L80.8443262,32.3624161 L80.9117021,34.3355705 L79.9886525,35.1812081 L80.062766,37.5503356 L78.6815603,38.8187919 Z M78.5400709,34.4697987 L78.4053191,30.4496644 L76.8421986,36.0268456 L78.5400709,34.4697987 Z" id="Shape" fill="#FFFFFF"></path>
            <path d="M92.0893617,25.9395973 L92.0826241,27.9463087 L87.1574468,31.7852349 C87.4471631,27.590604 90.6879433,23.442953 90.7014184,20.9597315 C90.708156,18.966443 88.8687943,20.1744966 88.7475177,22.738255 L87.3460993,23.6107383 C87.4943262,21.4765101 88.2287234,19.5771812 89.7985816,18.3557047 C92.0556738,16.5973154 92.3723404,19.261745 91.9276596,21.3087248 C91.3684397,23.9060403 89.8524823,26.2013423 89.2932624,28.114094 L92.0893617,25.9395973 L92.0893617,25.9395973 Z" id="Path" fill="#FFFFFF"></path>
            <path d="M65.058156,65.2281879 C63.2322695,65.6577181 63.5624113,60.9261745 66.0553191,58.6442953 C68.6695035,56.2483221 69.0400709,60.4161074 67.4432624,63.0402685 C69.6666667,62.4295302 69.1276596,68.3154362 66.5269504,70.704698 C63.6634752,73.3288591 63.0975177,68.4362416 65.058156,65.2281879 Z M65.2804965,62.6711409 C65.3478723,64.6644295 67.1198582,62.9395973 67.0524823,61.0402685 C66.9851064,59.1073826 65.2198582,60.7986577 65.2804965,62.6711409 Z M65.3141844,67.8724832 C65.401773,70.5302013 67.4836879,68.6845638 67.3893617,65.9932886 C67.3085106,63.5033557 65.2333333,65.4161074 65.3141844,67.8724832 Z" id="Shape" fill="#FFFFFF"></path>
            <path d="M67.6049645,90.6174497 C67.9687943,90.6040268 68.1170213,90.7583893 68.0361702,91.147651 C67.8407801,92.1006711 66.7492908,91.7449664 67.2950355,90.9060403 L67.6049645,90.6174497 L67.6049645,90.6174497 Z" id="Path" fill="#FFFFFF"></path>
            <path d="M79.3014184,78.738255 C79.6652482,78.7181208 79.8134752,78.8791946 79.7326241,79.2684564 C79.537234,80.2147651 78.4457447,79.8590604 78.9847518,79.0268456 L79.3014184,78.738255 Z" id="Path" fill="#FFFFFF"></path>
            <path d="M76.2223404,52 L76.1886525,50.0402685 L80.8510638,45.8456376 L80.8712766,47.3892617 C80.4939716,48.3221477 80.1166667,49.5167785 79.7393617,50.9798658 C79.0992908,53.4161074 78.5804965,56.590604 78.620922,58.9127517 L77.3138298,60.0939597 C77.3138298,56.7114094 78.1897163,52.5436242 79.3216312,49.2080537 L76.2223404,52 L76.2223404,52 Z" id="Path" fill="#FFFFFF"></path>
            <path d="M87.5280142,48.2080537 L88.8351064,46.8322148 C88.9833333,48.9261745 90.7687943,47.0805369 90.8024823,44.8926174 C90.8361702,43.261745 90.0343972,43.7583893 89.2865248,44.7315436 L89.4617021,42.9530201 C89.4617021,42.9530201 90.5734043,42.1006711 90.6003546,40.6040268 C90.627305,39.0469799 89.1248227,40.2281879 88.9429078,42.295302 L87.7166667,43.0536913 C88.3567376,38.2550336 92.001773,36.1744966 91.9478723,39.2885906 C91.9343972,40.2214765 91.5840426,41.261745 90.9035461,42.409396 C93.0326241,41.2348993 92.3992908,46.9060403 89.7783688,49.2013423 C88.4914894,50.3288591 87.6358156,49.8657718 87.5280142,48.2080537 L87.5280142,48.2080537 Z" id="Path" fill="#FFFFFF"></path>
            <path d="M69.6868794,78.9395973 L68.3595745,80.5302013 C68.2248227,79.033557 67.2343972,80.2483221 66.8368794,81.4563758 C66.6414894,82.0671141 66.5202128,83.0268456 66.4730496,84.3489933 C67.5443262,81.2684564 69.8216312,80.1946309 69.8351064,83.5973154 C69.8553191,87.3557047 67.1265957,91.3624161 65.7723404,90.2281879 C64.6808511,89.3154362 64.4046099,81.590604 67.6453901,78.261745 C68.7301418,77.1409396 69.4780142,77.3489933 69.6868794,78.9395973 L69.6868794,78.9395973 Z M66.6010638,86.7516779 C66.614539,89.4362416 68.514539,87.8322148 68.5010638,84.9932886 C68.4875887,82.0536913 66.5875887,84.3422819 66.6010638,86.7516779 Z" id="Shape" fill="#FFFFFF"></path>
            <path d="M76.9904255,76.966443 L78.1762411,75.5838926 C78.3379433,76.9395973 79.2003546,75.9731544 79.5439716,74.8255034 C79.7056738,74.2818792 79.7865248,73.3959732 79.7932624,72.1744966 C78.8904255,74.9328859 76.8085106,75.8255034 76.6939716,72.6577181 C76.5592199,69.1744966 78.9780142,65.6644295 80.258156,66.7852349 C81.2822695,67.6778523 81.8212766,74.8456376 78.8904255,77.7449664 C77.8326241,78.7919463 77.212766,78.409396 76.9904255,76.966443 L76.9904255,76.966443 Z M79.5978723,69.9463087 C79.5035461,67.4765101 77.7989362,68.8187919 77.9,71.4563758 C78.0010638,74.1342282 79.6787234,72.1879195 79.5978723,69.9463087 Z" id="Shape" fill="#FFFFFF"></path>
            <path d="M88.1950355,65.8053691 L89.4347518,64.4630872 C89.5492908,66.1744966 91.2202128,64.7248322 91.2741135,62.2013423 C91.2943262,61.3288591 91.0921986,60.6107383 90.3578014,61.295302 C90.0007092,61.6308725 89.677305,62.1610738 89.3875887,62.8993289 L88.3904255,63.6174497 L89.1315603,57.9865772 L92.3925532,54.9328859 L92.3521277,56.6644295 L90.0276596,58.8456376 L89.7985816,60.6778523 C91.806383,57.3489933 93.443617,59.5436242 92.035461,63.5637584 C91.0046099,66.5234899 88.4106383,68.6711409 88.1950355,65.8053691 Z" id="Path" fill="#FFFFFF"></path>
            <path d="M55.4840426,17.4295302 C56.2453901,17.4295302 56.2453901,18.1409396 55.4840426,18.1409396 C54.722695,18.1409396 54.722695,17.4295302 55.4840426,17.4295302 Z" id="Path" fill="#FFFFFF"></path>
            <path d="M86.106383,13.8657718 C86.8879433,13.8657718 86.8879433,14.5973154 86.106383,14.5973154 C85.3248227,14.5973154 85.3248227,13.8657718 86.106383,13.8657718 Z" id="Path" fill="#FFFFFF"></path>
            <path d="M46.5971631,31.6107383 L44.4546099,31.0201342 L49.7840426,26.8322148 L51.4684397,27.295302 C52.3578014,29.5771812 56.5351064,31.590604 58.9673759,32.2483221 L57.4648936,33.4228188 C54.7429078,32.6308725 51.6301418,31.0402685 50.1411348,28.8255034 L46.5971631,31.6107383 L46.5971631,31.6107383 Z" id="Path" fill="#FFFFFF"></path>
            <path d="M64.9638298,21.3892617 C62.1744681,22.4362416 58.327305,21.0939597 60.948227,19.033557 C63.5287234,17.0067114 67.9755319,17.852349 67.3691489,19.5033557 C70.7109929,18.2013423 75.2251773,19.9530201 72.4762411,22.1208054 C69.6734043,24.3154362 64.2024823,23.4026846 64.9638298,21.3892617 Z M63.1042553,20.5637584 C64.9234043,21.0604027 66.7560284,19.6711409 64.8897163,19.1543624 C63.1109929,18.6711409 61.291844,20.0671141 63.1042553,20.5637584 Z M67.7666667,21.9865772 C70.2124113,22.6577181 72.4829787,21.0604027 69.8890071,20.3489933 C67.5443262,19.704698 65.4287234,21.3422819 67.7666667,21.9865772 Z" id="Shape" fill="#FFFFFF"></path>
            <path d="M78.85,14.5234899 L79.9886525,13.3489933 C81.470922,13.590604 82.6365248,12.885906 82.1446809,12.2348993 C81.9492908,11.9731544 81.2485816,11.6711409 80.062766,11.3288591 C80.8914894,12.7516779 77.2262411,14.3020134 73.9652482,13.5302013 C70.1248227,12.6174497 72.0921986,10.0469799 75.7439716,9.53020134 C78.4659574,9.1409396 87.1035461,10.6174497 83.6336879,13.4765101 C82.3468085,14.5369128 80.5882979,14.7516779 78.85,14.5234899 L78.85,14.5234899 Z M77.4485816,10.8456376 C74.9421986,10.2483221 72.4425532,11.704698 75.3464539,12.3892617 C78.0886525,13.0402685 79.9549645,11.4362416 77.4485816,10.8456376 Z" id="Shape" fill="#FFFFFF"></path>
            <path d="M40.2166667,26.3959732 L38.0539007,25.7181208 L34.4088652,28.1342282 L32.6166667,27.5771812 L29.6251773,22.8926174 L31.0670213,21.9328859 L37.9124113,24.0604027 L39.0173759,23.3221477 L40.8230496,23.885906 L39.7113475,24.6241611 L41.8808511,25.295302 L40.2166667,26.3959732 L40.2166667,26.3959732 Z M36.248227,25.1610738 L32.5762411,24.0201342 L34.2067376,26.5167785 L36.248227,25.1610738 L36.248227,25.1610738 Z" id="Shape" fill="#FFFFFF"></path>
            <path d="M22.4159574,21.261745 L20.8124113,22.3557047 L13.5223404,20.261745 C13.6031915,20.852349 13.4010638,21.4697987 12.922695,22.1006711 L11.1641844,21.5973154 C11.6492908,20.966443 11.8851064,19.8724832 10.9890071,19.2416107 L12.2893617,18.3489933 L22.4159574,21.261745 L22.4159574,21.261745 Z" id="Path" fill="#FFFFFF"></path>
            <path d="M48.6117021,13.6510067 L47.2911348,14.7919463 C45.9099291,14.557047 44.6432624,15.2483221 44.9734043,15.8926174 C45.1014184,16.1543624 45.7078014,16.4496644 46.7925532,16.7852349 C46.2468085,15.3892617 50.1141844,13.8926174 53.0652482,14.6577181 C56.6294326,15.5771812 54.1567376,18.0872483 50.5723404,18.5771812 C47.8503546,18.9530201 39.8932624,17.4563758 43.7943262,14.6711409 C45.141844,13.704698 46.9138298,13.409396 48.6117021,13.6510067 L48.6117021,13.6510067 Z M49.1911348,17.2818792 C51.4886525,17.8724832 54.1971631,16.4496644 51.5425532,15.7651007 C49.0092199,15.1073826 46.9070922,16.6845638 49.1911348,17.2818792 Z" id="Shape" fill="#FFFFFF"></path>
            <path d="M61.1570922,10.3087248 L62.470922,9.31543624 C64.7617021,9.65100671 66.7088652,8.32214765 64.6,7.85234899 C63.4411348,7.59060403 62.1744681,7.7852349 61.3457447,8.6442953 L59.964539,8.19463087 C61.7971631,7.12080537 59.1964539,6.65771812 57.9702128,7.40268456 C57.3570922,7.77852349 57.5659574,8.12751678 58.2666667,8.34228188 L56.508156,9.16778523 C53.4964539,7.98657718 57.3638298,6.33557047 59.2099291,6.0738255 C60.2812057,5.91946309 63.0301418,5.8590604 62.3765957,7.29530201 C65.6039007,5.87919463 69.7946809,7.39597315 66.7088652,9.28187919 C65.1659574,10.2214765 62.9560284,10.5838926 61.1570922,10.3087248 L61.1570922,10.3087248 Z" id="Path" fill="#FFFFFF"></path>
            <path d="M30.4,14.3691275 L31.7677305,13.3087248 C33.6340426,13.6711409 35.985461,12.3624161 33.5666667,11.6510067 C31.7677305,11.1208054 29.9014184,11.9463087 30.1304965,12.9194631 L28.6751773,13.6845638 L24.7471631,11.7785235 L28.8503546,9.10067114 L30.4741135,9.57718121 L27.55,11.4899329 L28.8503546,12.1006711 C29.9485816,10.0738255 35.6822695,9.71812081 36.558156,11.5704698 C37.2656028,13.0469799 33.4925532,14.9597315 30.4,14.3691275 L30.4,14.3691275 Z" id="Path" fill="#FFFFFF"></path>
            <path d="M48.4836879,3.62416107 L50.0602837,4.08053691 L45.1014184,7.48322148 C42.258156,6.39597315 44.2322695,3.79194631 42.291844,3.22818792 C40.8702128,2.82550336 38.5659574,3.95973154 40.5400709,4.63758389 L38.9567376,5.55704698 C35.8304965,4.36241611 39.441844,2.43624161 41.2003546,2.1409396 C42.5882979,1.90604027 44.4882979,2.04697987 45.1351064,3.38926174 C45.451773,4.04697987 45.2496454,5.05369128 45.6673759,5.55704698 L48.4836879,3.62416107 L48.4836879,3.62416107 Z" id="Path" fill="#FFFFFF"></path>
        </g>
    </g>
</svg>