<?xml version="1.0" encoding="UTF-8"?>
<svg width="200px" height="150px" viewBox="0 0 200 150" version="1.1" xmlns="http://www.w3.org/2000/svg" xmlns:xlink="http://www.w3.org/1999/xlink">
    <title>sudoku_1_8</title>
    <g id="Sudoku" stroke="none" stroke-width="1" fill="none" fill-rule="evenodd">
        <g id="sudoku_1_8" fill-rule="nonzero">
            <path d="M99.5420168,49.8403361 C132.680672,49.8403361 165.819328,49.8403361 198.957983,49.8403361 C198.957983,66.4033613 198.957983,82.9789916 198.957983,99.5420168 C165.819328,99.5420168 132.680672,99.5420168 99.5420168,99.5420168 C99.5420168,116.105042 99.5420168,132.680672 99.5420168,149.243697 C82.9789916,149.243697 66.4033613,149.243697 49.8403361,149.243697 C49.8403361,132.680672 49.8403361,116.105042 49.8403361,99.5420168 C33.2647059,99.5420168 16.7016807,99.5420168 0.12605042,99.5420168 C0.12605042,82.9789916 0.12605042,66.4033613 0.12605042,49.8403361 C16.7016807,49.8403361 33.2647059,49.8403361 49.8403361,49.8403361 C49.8403361,33.2647059 49.8403361,16.7016807 49.8403361,0.12605042 C66.4033613,0.12605042 82.9789916,0.12605042 99.5420168,0.12605042 C99.5420168,16.7016807 99.5420168,33.2647059 99.5420168,49.8403361 Z" id="Path" fill="#000000"></path>
            <polygon id="Path" fill="#FFFFFF" points="97.8907563 97.8907563 84.6302521 97.8907563 84.6302521 84.6302521 97.8907563 84.6302521"></polygon>
            <polygon id="Path" fill="#FFFFFF" points="68.0672269 97.8907563 81.3151261 97.8907563 81.3151261 84.6302521 68.0672269 84.6302521"></polygon>
            <polygon id="Path" fill="#FFFFFF" points="64.7521008 97.8907563 51.4915966 97.8907563 51.4915966 84.6302521 64.7521008 84.6302521"></polygon>
            <polygon id="Path" fill="#FFFFFF" points="97.8907563 68.0672269 84.6302521 68.0672269 84.6302521 81.3151261 97.8907563 81.3151261"></polygon>
            <polygon id="Path" fill="#FFFFFF" points="68.0672269 68.0672269 81.3151261 68.0672269 81.3151261 81.3151261 68.0672269 81.3151261"></polygon>
            <polygon id="Path" fill="#FFFFFF" points="64.7521008 68.0672269 51.4915966 68.0672269 51.4915966 81.3151261 64.7521008 81.3151261"></polygon>
            <polygon id="Path" fill="#FFFFFF" points="97.8907563 64.7521008 84.6302521 64.7521008 84.6302521 51.4915966 97.8907563 51.4915966"></polygon>
            <polygon id="Path" fill="#FFFFFF" points="68.0672269 64.7521008 81.3151261 64.7521008 81.3151261 51.4915966 68.0672269 51.4915966"></polygon>
            <polygon id="Path" fill="#FFFFFF" points="64.7521008 64.7521008 51.4915966 64.7521008 51.4915966 51.4915966 64.7521008 51.4915966"></polygon>
            <polygon id="Path" fill="#FFFFFF" points="101.193277 97.8907563 114.453782 97.8907563 114.453782 84.6302521 101.193277 84.6302521"></polygon>
            <polygon id="Path" fill="#FFFFFF" points="131.016807 97.8907563 117.768908 97.8907563 117.768908 84.6302521 131.016807 84.6302521"></polygon>
            <polygon id="Path" fill="#FFFFFF" points="134.331933 97.8907563 147.592437 97.8907563 147.592437 84.6302521 134.331933 84.6302521"></polygon>
            <polygon id="Path" fill="#FFFFFF" points="101.193277 68.0672269 114.453782 68.0672269 114.453782 81.3151261 101.193277 81.3151261"></polygon>
            <polygon id="Path" fill="#FFFFFF" points="131.016807 68.0672269 117.768908 68.0672269 117.768908 81.3151261 131.016807 81.3151261"></polygon>
            <polygon id="Path" fill="#FFFFFF" points="134.331933 68.0672269 147.592437 68.0672269 147.592437 81.3151261 134.331933 81.3151261"></polygon>
            <polygon id="Path" fill="#FFFFFF" points="101.193277 64.7521008 114.453782 64.7521008 114.453782 51.4915966 101.193277 51.4915966"></polygon>
            <polygon id="Path" fill="#FFFFFF" points="131.016807 64.7521008 117.768908 64.7521008 117.768908 51.4915966 131.016807 51.4915966"></polygon>
            <polygon id="Path" fill="#FFFFFF" points="134.331933 64.7521008 147.592437 64.7521008 147.592437 51.4915966 134.331933 51.4915966"></polygon>
            <polygon id="Path" fill="#FFFFFF" points="197.294118 97.8907563 184.046218 97.8907563 184.046218 84.6302521 197.294118 84.6302521"></polygon>
            <polygon id="Path" fill="#FFFFFF" points="167.470588 97.8907563 180.731092 97.8907563 180.731092 84.6302521 167.470588 84.6302521"></polygon>
            <polygon id="Path" fill="#FFFFFF" points="164.155462 97.8907563 150.907563 97.8907563 150.907563 84.6302521 164.155462 84.6302521"></polygon>
            <polygon id="Path" fill="#FFFFFF" points="197.294118 68.0672269 184.046218 68.0672269 184.046218 81.3151261 197.294118 81.3151261"></polygon>
            <polygon id="Path" fill="#FFFFFF" points="167.470588 68.0672269 180.731092 68.0672269 180.731092 81.3151261 167.470588 81.3151261"></polygon>
            <polygon id="Path" fill="#FFFFFF" points="164.155462 68.0672269 150.907563 68.0672269 150.907563 81.3151261 164.155462 81.3151261"></polygon>
            <polygon id="Path" fill="#FFFFFF" points="197.294118 64.7521008 184.046218 64.7521008 184.046218 51.4915966 197.294118 51.4915966"></polygon>
            <polygon id="Path" fill="#FFFFFF" points="167.470588 64.7521008 180.731092 64.7521008 180.731092 51.4915966 167.470588 51.4915966"></polygon>
            <polygon id="Path" fill="#FFFFFF" points="164.155462 64.7521008 150.907563 64.7521008 150.907563 51.4915966 164.155462 51.4915966"></polygon>
            <polygon id="Path" fill="#FFFFFF" points="51.4915966 147.592437 64.7521008 147.592437 64.7521008 134.331933 51.4915966 134.331933"></polygon>
            <polygon id="Path" fill="#FFFFFF" points="81.3151261 147.592437 68.0672269 147.592437 68.0672269 134.331933 81.3151261 134.331933"></polygon>
            <polygon id="Path" fill="#FFFFFF" points="84.6302521 147.592437 97.8907563 147.592437 97.8907563 134.331933 84.6302521 134.331933"></polygon>
            <polygon id="Path" fill="#FFFFFF" points="51.4915966 117.768908 64.7521008 117.768908 64.7521008 131.016807 51.4915966 131.016807"></polygon>
            <polygon id="Path" fill="#FFFFFF" points="81.3151261 117.768908 68.0672269 117.768908 68.0672269 131.016807 81.3151261 131.016807"></polygon>
            <polygon id="Path" fill="#FFFFFF" points="84.6302521 117.768908 97.8907563 117.768908 97.8907563 131.016807 84.6302521 131.016807"></polygon>
            <polygon id="Path" fill="#FFFFFF" points="51.4915966 114.453782 64.7521008 114.453782 64.7521008 101.193277 51.4915966 101.193277"></polygon>
            <polygon id="Path" fill="#FFFFFF" points="81.3151261 114.453782 68.0672269 114.453782 68.0672269 101.193277 81.3151261 101.193277"></polygon>
            <polygon id="Path" fill="#FFFFFF" points="84.6302521 114.453782 97.8907563 114.453782 97.8907563 101.193277 84.6302521 101.193277"></polygon>
            <polygon id="Path" fill="#FFFFFF" points="51.4915966 1.78991597 51.4915966 15.0378151 64.7521008 15.0378151 64.7521008 1.78991597"></polygon>
            <polygon id="Path" fill="#FFFFFF" points="51.4915966 31.6134454 51.4915966 18.3529412 64.7521008 18.3529412 64.7521008 31.6134454"></polygon>
            <polygon id="Path" fill="#FFFFFF" points="51.4915966 34.9285714 51.4915966 48.1764706 64.7521008 48.1764706 64.7521008 34.9285714"></polygon>
            <polygon id="Path" fill="#FFFFFF" points="81.3151261 1.78991597 81.3151261 15.0378151 68.0672269 15.0378151 68.0672269 1.78991597"></polygon>
            <polygon id="Path" fill="#FFFFFF" points="81.3151261 31.6134454 81.3151261 18.3529412 68.0672269 18.3529412 68.0672269 31.6134454"></polygon>
            <polygon id="Path" fill="#FFFFFF" points="81.3151261 34.9285714 81.3151261 48.1764706 68.0672269 48.1764706 68.0672269 34.9285714"></polygon>
            <polygon id="Path" fill="#FFFFFF" points="84.6302521 1.78991597 84.6302521 15.0378151 97.8907563 15.0378151 97.8907563 1.78991597"></polygon>
            <polygon id="Path" fill="#FFFFFF" points="84.6302521 31.6134454 84.6302521 18.3529412 97.8907563 18.3529412 97.8907563 31.6134454"></polygon>
            <polygon id="Path" fill="#FFFFFF" points="84.6302521 34.9285714 84.6302521 48.1764706 97.8907563 48.1764706 97.8907563 34.9285714"></polygon>
            <polygon id="Path" fill="#FFFFFF" points="1.78991597 97.8907563 15.0378151 97.8907563 15.0378151 84.6302521 1.78991597 84.6302521"></polygon>
            <polygon id="Path" fill="#FFFFFF" points="31.6134454 97.8907563 18.3529412 97.8907563 18.3529412 84.6302521 31.6134454 84.6302521"></polygon>
            <polygon id="Path" fill="#FFFFFF" points="34.9285714 97.8907563 48.1764706 97.8907563 48.1764706 84.6302521 34.9285714 84.6302521"></polygon>
            <polygon id="Path" fill="#FFFFFF" points="1.78991597 68.0672269 15.0378151 68.0672269 15.0378151 81.3151261 1.78991597 81.3151261"></polygon>
            <polygon id="Path" fill="#FFFFFF" points="31.6134454 68.0672269 18.3529412 68.0672269 18.3529412 81.3151261 31.6134454 81.3151261"></polygon>
            <polygon id="Path" fill="#FFFFFF" points="34.9285714 68.0672269 48.1764706 68.0672269 48.1764706 81.3151261 34.9285714 81.3151261"></polygon>
            <polygon id="Path" fill="#FFFFFF" points="1.78991597 64.7521008 15.0378151 64.7521008 15.0378151 51.4915966 1.78991597 51.4915966"></polygon>
            <polygon id="Path" fill="#FFFFFF" points="31.6134454 64.7521008 18.3529412 64.7521008 18.3529412 51.4915966 31.6134454 51.4915966"></polygon>
            <polygon id="Path" fill="#FFFFFF" points="34.9285714 64.7521008 48.1764706 64.7521008 48.1764706 51.4915966 34.9285714 51.4915966"></polygon>
            <path d="M58.9915966,62.3319328 L58.9915966,60.6428571 L55.5882353,60.6428571 L55.5882353,59.2436975 L59.2058824,53.9243697 L60.5546218,53.9243697 L60.5546218,59.2436975 L61.5882353,59.2436975 L61.5882353,60.6428571 L60.5546218,60.6428571 L60.5546218,62.3319328 L58.9915966,62.3319328 L58.9915966,62.3319328 Z M58.9915966,59.2436975 L58.9915966,56.3823529 L57.0882353,59.2436975 L58.9915966,59.2436975 Z" id="Shape" fill="#000000"></path>
            <path d="M72.4789916,60.3907563 L74.0294118,60.2142857 C74.1680672,61.3487395 75.2647059,61.3865546 75.7941176,60.6932773 C76.0210084,60.3781513 76.1722689,59.7478992 76.2352941,58.789916 C74.9495798,60.2773109 72.302521,59.3193277 72.302521,56.7478992 C72.302521,53.8109244 75.5546218,53.0672269 77.0798319,54.894958 C78.2394958,56.3067227 78.7563025,62.4831933 74.8361345,62.4831933 C73.487395,62.4831933 72.6932773,61.7268908 72.4789916,60.3907563 L72.4789916,60.3907563 Z M76.0966387,56.8739496 C76.0966387,54.8697479 73.8781513,54.5546218 73.8781513,56.7352941 C73.8781513,58.8907563 76.0966387,58.7773109 76.0966387,56.8739496 Z" id="Shape" fill="#000000"></path>
            <path d="M88.9915966,55.5504202 L88.9915966,54.0630252 L94.487395,54.0630252 L94.487395,55.2352941 C92.8613445,56.8235294 91.6512605,60.012605 91.6638655,62.3319328 L90.1260504,62.3319328 C90.1764706,59.9621849 91.1596639,57.4159664 92.6470588,55.5504202 L88.9915966,55.5504202 Z" id="Path" fill="#000000"></path>
            <path d="M61.2857143,72.5798319 L59.7352941,72.7436975 C59.5966387,71.5966387 58.487395,71.5840336 57.9579832,72.2647059 C57.7184874,72.5798319 57.5798319,73.210084 57.5168067,74.1680672 C58.802521,72.6554622 61.4369748,73.6512605 61.4369748,76.210084 C61.4369748,79.1596639 58.1848739,79.8907563 56.6722689,78.0630252 C55.5,76.6386555 55.0084034,70.4747899 58.9159664,70.4747899 C60.2268908,70.4747899 61.0714286,71.2563025 61.2857143,72.5798319 L61.2857143,72.5798319 Z M57.6554622,76.0840336 C57.6554622,78.0882353 59.8739496,78.4033613 59.8739496,76.2226891 C59.8739496,74.0546218 57.6554622,74.1806723 57.6554622,76.0840336 Z" id="Shape" fill="#000000"></path>
            <path d="M76.5252101,78.894958 L74.9243697,78.894958 L74.9243697,72.8445378 C74.3445378,73.3865546 73.6512605,73.789916 72.8571429,74.0546218 L72.8571429,72.592437 C73.7394958,72.302521 74.8613445,71.4831933 75.2268908,70.4747899 L76.5252101,70.4747899 L76.5252101,78.894958 L76.5252101,78.894958 Z" id="Path" fill="#000000"></path>
            <path d="M90.3781513,74.3697479 C88.4243697,73.5504202 88.8403361,70.4747899 91.7016807,70.4747899 C94.5756303,70.4747899 94.9285714,73.5504202 93.0504202,74.3697479 C95.407563,75.3277311 94.789916,79.0462185 91.7647059,79.0462185 C88.6008403,79.0462185 88.0840336,75.3529412 90.3781513,74.3697479 Z M90.7058824,72.7563025 C90.7058824,74.1428571 92.697479,74.1302521 92.697479,72.7563025 C92.697479,71.407563 90.7058824,71.4201681 90.7058824,72.7563025 Z M90.5546218,76.3487395 C90.5546218,78.2142857 92.8865546,78.289916 92.8865546,76.3613445 C92.8865546,74.6092437 90.5546218,74.6092437 90.5546218,76.3487395 Z" id="Shape" fill="#000000"></path>
            <path d="M55.8781513,93.3151261 L57.4789916,93.1512605 C57.6806723,94.7394958 59.8613445,94.8781513 59.8613445,92.6848739 C59.8613445,90.8823529 58.2605042,90.7436975 57.3781513,91.7394958 L56.0798319,91.5504202 L56.8991597,87.2016807 L61.1344538,87.2016807 L61.1344538,88.7016807 L58.1092437,88.7016807 L57.8571429,90.1260504 C60.4285714,88.8403361 62.6596639,92.1428571 60.907563,94.512605 C59.5714286,96.3403361 56.2310924,95.9369748 55.8781513,93.3151261 L55.8781513,93.3151261 Z" id="Path" fill="#000000"></path>
            <path d="M77.8487395,93.9831933 L77.8487395,95.4705882 L72.2268908,95.4705882 C72.5420168,92.5210084 76.2352941,91.3361345 76.2352941,89.4957983 C76.2352941,88.0714286 74.1302521,87.8067227 74.0168067,89.697479 L72.4033613,89.5336134 C72.7436975,86.407563 76.1092437,86.7478992 77.1428571,87.7184874 C78.289916,88.802521 77.9117647,90.3655462 77.0042017,91.5378151 C76.3739496,92.3319328 75.0882353,93.2394958 74.6596639,93.9831933 L77.8487395,93.9831933 L77.8487395,93.9831933 Z" id="Path" fill="#000000"></path>
            <path d="M88.9411765,93.2521008 L90.4915966,93.0630252 C90.7184874,94.8151261 92.8487395,94.6386555 92.8487395,92.8865546 C92.8487395,91.7394958 92.0798319,91.3865546 90.9957983,91.6890756 L91.1722689,90.3907563 C92.9369748,90.4411765 92.8613445,88.3865546 91.5882353,88.3865546 C90.9579832,88.3865546 90.605042,88.8655462 90.5294118,89.5084034 L89.0546218,89.2563025 C89.7478992,85.8277311 94.1218487,86.7983193 94.1218487,89.2058824 C94.1218487,89.9369748 93.7184874,90.5294118 92.9117647,90.9705882 C95.4831933,91.5252101 94.8151261,95.6218487 91.6890756,95.6218487 C90.2142857,95.6218487 89.105042,94.7016807 88.9411765,93.2521008 L88.9411765,93.2521008 Z" id="Path" fill="#000000"></path>
            <path d="M7.90336134,53.7731092 L7.90336134,55.4495798 L11.3193277,55.4495798 L11.3193277,56.8487395 L7.68907563,62.1806723 L6.34033613,62.1806723 L6.34033613,56.8613445 L5.30672269,56.8613445 L5.30672269,55.4495798 L6.34033613,55.4495798 L6.34033613,53.7731092 L7.90336134,53.7731092 L7.90336134,53.7731092 Z M7.90336134,56.8613445 L7.90336134,59.7226891 L9.81932773,56.8613445 L7.90336134,56.8613445 Z" id="Shape" fill="#000000"></path>
            <path d="M27.6428571,56.1302521 L26.092437,56.3193277 C25.8781513,54.5672269 23.7478992,54.7310924 23.7478992,56.4957983 C23.7478992,57.6302521 24.5168067,57.9831933 25.5882353,57.6806723 L25.4117647,58.9915966 C23.6596639,58.9411765 23.7352941,60.9957983 25.0084034,60.9957983 C25.6260504,60.9957983 25.9789916,60.5168067 26.0546218,59.8739496 L27.5294118,60.1260504 C26.8361345,63.5546218 22.4747899,62.5840336 22.4747899,60.1764706 C22.4747899,59.4327731 22.8781513,58.8403361 23.6722689,58.4117647 C21.1008403,57.8571429 21.7815126,53.7605042 24.907563,53.7605042 C26.3823529,53.7605042 27.4789916,54.6806723 27.6428571,56.1302521 L27.6428571,56.1302521 Z" id="Path" fill="#000000"></path>
            <path d="M38.8613445,60.2268908 L40.4243697,60.0630252 C40.5504202,61.2226891 41.6722689,61.2226891 42.2016807,60.5420168 C42.4285714,60.2394958 42.5798319,59.6092437 42.6302521,58.6386555 C41.3571429,60.1512605 38.710084,59.1554622 38.710084,56.6092437 C38.710084,53.6470588 41.9747899,52.9159664 43.487395,54.7436975 C44.6596639,56.1680672 45.1512605,62.3319328 41.2436975,62.3319328 C39.9201681,62.3319328 39.0882353,61.5504202 38.8613445,60.2268908 Z M42.5042017,56.7352941 C42.5042017,54.7184874 40.2731092,54.4033613 40.2731092,56.5840336 C40.2731092,58.7647059 42.5042017,58.6260504 42.5042017,56.7352941 Z" id="Shape" fill="#000000"></path>
            <path d="M11.0672269,77.2563025 L11.0672269,78.7436975 L5.57142857,78.7436975 L5.57142857,77.5714286 C7.19747899,75.9831933 8.40756303,72.7941176 8.39495798,70.487395 L9.93277311,70.487395 C9.88235294,72.8445378 8.89915966,75.3907563 7.41176471,77.2563025 L11.0672269,77.2563025 Z" id="Path" fill="#000000"></path>
            <path d="M27.8067227,72.7815126 L26.2058824,72.9453782 C25.9915966,71.3571429 23.8109244,71.2184874 23.8109244,73.4117647 C23.8109244,75.2142857 25.4117647,75.3529412 26.3067227,74.3571429 L27.605042,74.5462185 L26.7857143,78.894958 L22.5378151,78.894958 L22.5378151,77.407563 L25.5630252,77.407563 L25.8151261,75.9831933 C23.2563025,77.2563025 21.0252101,73.9663866 22.7647059,71.5966387 C24.1134454,69.7689076 27.4411765,70.1596639 27.8067227,72.7815126 L27.8067227,72.7815126 Z" id="Path" fill="#000000"></path>
            <path d="M39.1386555,70.3235294 L40.7521008,70.3235294 L40.7521008,76.3865546 C41.3319328,75.8445378 42.0252101,75.4285714 42.8193277,75.1638655 L42.8193277,76.6260504 C41.9243697,76.9159664 40.802521,77.7478992 40.4495798,78.7436975 L39.1386555,78.7436975 L39.1386555,70.3235294 L39.1386555,70.3235294 Z" id="Path" fill="#000000"></path>
            <path d="M10.8655462,88.9915966 L9.31512605,89.1680672 C9.17647059,88.0210084 8.07983193,87.9831933 7.55042017,88.6890756 C7.32352941,88.9915966 7.18487395,89.6344538 7.12184874,90.592437 C8.39495798,89.105042 11.0420168,90.0504202 11.0420168,92.6344538 C11.0420168,95.5588235 7.78991597,96.3151261 6.27731092,94.4747899 C5.10504202,93.0756303 4.60084034,86.8991597 8.5210084,86.8991597 C9.8697479,86.8991597 10.6512605,87.6554622 10.8655462,88.9915966 Z M7.2605042,92.5084034 C7.2605042,94.5 9.46638655,94.8277311 9.46638655,92.6344538 C9.46638655,90.4915966 7.2605042,90.605042 7.2605042,92.5084034 Z" id="Shape" fill="#000000"></path>
            <path d="M21.9453782,88.3865546 L21.9453782,86.8991597 L27.5672269,86.8991597 C27.2521008,89.8361345 23.5588235,91.0336134 23.5588235,92.8613445 C23.5588235,94.2857143 25.6512605,94.5630252 25.7773109,92.6722689 L27.3781513,92.8361345 C27.0378151,95.9621849 23.6722689,95.6092437 22.6512605,94.6386555 C21.5042017,93.5546218 21.8697479,92.0042017 22.789916,90.8319328 C23.407563,90.0252101 24.7058824,89.1176471 25.1344538,88.3865546 L21.9453782,88.3865546 Z" id="Path" fill="#000000"></path>
            <path d="M42.7941176,91.5756303 C44.7478992,92.407563 44.3319328,95.4705882 41.4705882,95.4705882 C38.5966387,95.4705882 38.2436975,92.394958 40.1218487,91.5756303 C37.7647059,90.6302521 38.3823529,86.8991597 41.407563,86.8991597 C44.5714286,86.8991597 45.0882353,90.592437 42.7941176,91.5756303 L42.7941176,91.5756303 Z M42.4663866,93.1890756 C42.4663866,91.802521 40.4747899,91.8277311 40.4747899,93.1890756 C40.4747899,94.5378151 42.4663866,94.5252101 42.4663866,93.1890756 Z M42.6176471,89.5966387 C42.6176471,87.7436975 40.2857143,87.6554622 40.2857143,89.5840336 C40.2857143,91.3361345 42.6176471,91.3361345 42.6176471,89.5966387 Z" id="Shape" fill="#000000"></path>
            <path d="M104.936975,59.9621849 L106.487395,59.7731092 C106.714286,61.5252101 108.844538,61.3487395 108.844538,59.5966387 C108.844538,58.4495798 108.07563,58.1092437 106.991597,58.3991597 L107.168067,57.1008403 C108.932773,57.1512605 108.857143,55.0966387 107.584034,55.0966387 C106.953782,55.0966387 106.60084,55.5756303 106.52521,56.2184874 L105.05042,55.9663866 C105.743697,52.5378151 110.117647,53.5084034 110.117647,55.9159664 C110.117647,56.6596639 109.714286,57.2394958 108.907563,57.6806723 C111.478992,58.2352941 110.810924,62.3319328 107.684874,62.3319328 C106.210084,62.3319328 105.10084,61.4117647 104.936975,59.9621849 L104.936975,59.9621849 Z" id="Path" fill="#000000"></path>
            <path d="M121.613445,60.2268908 L123.163866,60.0630252 C123.302521,61.197479 124.39916,61.2352941 124.928571,60.5420168 C125.155462,60.2268908 125.306723,59.5966387 125.369748,58.6386555 C124.084034,60.1260504 121.436975,59.1680672 121.436975,56.5966387 C121.436975,53.6596639 124.689076,52.9159664 126.214286,54.7436975 C127.37395,56.1554622 127.890756,62.3319328 123.970588,62.3319328 C122.621849,62.3319328 121.827731,61.5756303 121.613445,60.2268908 Z M125.231092,56.7226891 C125.231092,54.7184874 123.012605,54.4033613 123.012605,56.5840336 C123.012605,58.7394958 125.231092,58.6260504 125.231092,56.7226891 Z" id="Shape" fill="#000000"></path>
            <path d="M138.12605,55.3991597 L138.12605,53.9117647 L143.621849,53.9117647 L143.621849,55.0840336 C141.995798,56.6722689 140.785714,59.8613445 140.798319,62.1806723 L139.260504,62.1806723 C139.310924,59.8109244 140.294118,57.2647059 141.781513,55.3991597 L138.12605,55.3991597 Z" id="Path" fill="#000000"></path>
            <path d="M110.420168,72.4285714 L108.869748,72.592437 C108.731092,71.4453782 107.621849,71.4327731 107.092437,72.1134454 C106.852941,72.4159664 106.714286,73.0588235 106.651261,74.0168067 C107.936975,72.5042017 110.571429,73.5 110.571429,76.0588235 C110.571429,79.0084034 107.319328,79.7394958 105.806723,77.9117647 C104.621849,76.487395 104.142857,70.3235294 108.05042,70.3235294 C109.361345,70.3235294 110.193277,71.105042 110.420168,72.4285714 L110.420168,72.4285714 Z M106.789916,75.9327731 C106.789916,77.9369748 109.008403,78.2521008 109.008403,76.0714286 C109.008403,73.8907563 106.789916,74.0294118 106.789916,75.9327731 Z" id="Shape" fill="#000000"></path>
            <path d="M125.659664,78.7436975 L124.058824,78.7436975 L124.058824,72.6806723 C123.466387,73.2352941 122.785714,73.6386555 121.991597,73.9033613 L121.991597,72.4411765 C122.87395,72.1512605 123.995798,71.3193277 124.361345,70.3235294 L125.659664,70.3235294 L125.659664,78.7436975 Z" id="Path" fill="#000000"></path>
            <path d="M138.151261,76.6008403 L139.752101,76.4369748 C139.953782,78.0252101 142.134454,78.1512605 142.134454,75.9579832 C142.134454,74.1680672 140.533613,74.0294118 139.638655,75.012605 L138.340336,74.8235294 L139.159664,70.4747899 L143.407563,70.4747899 L143.407563,71.9747899 L140.382353,71.9747899 L140.130252,73.3991597 C142.689076,72.1260504 144.920168,75.4159664 143.180672,77.7857143 C141.831933,79.6134454 138.504202,79.2226891 138.151261,76.6008403 L138.151261,76.6008403 Z" id="Path" fill="#000000"></path>
            <path d="M106.37395,90.7941176 C104.420168,89.9621849 104.836134,86.8991597 107.697479,86.8991597 C110.571429,86.8991597 110.92437,89.9747899 109.046218,90.7941176 C111.403361,91.7394958 110.785714,95.4705882 107.760504,95.4705882 C104.596639,95.4705882 104.092437,91.7647059 106.37395,90.7941176 Z M106.701681,89.1806723 C106.701681,90.5546218 108.693277,90.5420168 108.693277,89.1680672 C108.693277,87.8193277 106.701681,87.8319328 106.701681,89.1806723 Z M106.55042,92.7605042 C106.55042,94.6260504 108.882353,94.7016807 108.882353,92.7857143 C108.882353,91.0210084 106.55042,91.0210084 106.55042,92.7605042 Z" id="Shape" fill="#000000"></path>
            <path d="M126.983193,93.8319328 L126.983193,95.3193277 L121.361345,95.3193277 C121.663866,92.3697479 125.369748,91.1848739 125.369748,89.3445378 C125.369748,87.9201681 123.264706,87.6554622 123.138655,89.5336134 L121.537815,89.3823529 C121.878151,86.2563025 125.243697,86.5966387 126.277311,87.5672269 C127.42437,88.6512605 127.046218,90.2142857 126.138655,91.3865546 C125.508403,92.1806723 124.222689,93.0882353 123.781513,93.8319328 L126.983193,93.8319328 L126.983193,93.8319328 Z" id="Path" fill="#000000"></path>
            <path d="M141.264706,95.3193277 L141.264706,93.6302521 L137.848739,93.6302521 L137.848739,92.2310924 L141.478992,86.9117647 L142.827731,86.9117647 L142.827731,92.2310924 L143.861345,92.2310924 L143.861345,93.6302521 L142.827731,93.6302521 L142.827731,95.3193277 L141.264706,95.3193277 Z M141.264706,92.2310924 L141.264706,89.3697479 L139.348739,92.2310924 L141.264706,92.2310924 Z" id="Shape" fill="#000000"></path>
            <path d="M160.033613,55.1596639 L161.508403,55.1596639 L161.508403,60.7815126 C158.571429,60.4663866 157.37395,56.7731092 155.546218,56.7731092 C154.121849,56.7731092 153.857143,58.8655462 155.735294,58.9915966 L155.571429,60.592437 C152.445378,60.2521008 152.798319,56.8865546 153.768908,55.8655462 C154.852941,54.7184874 156.403361,55.0840336 157.588235,56.0042017 C158.382353,56.6218487 159.289916,57.9201681 160.033613,58.3487395 L160.033613,55.1596639 Z" id="Path" fill="#000000"></path>
            <path d="M175.903361,60.8193277 L175.714286,59.2689076 C177.466387,59.0546218 177.302521,56.9117647 175.537815,56.9117647 C174.403361,56.9117647 174.05042,57.6932773 174.352941,58.7647059 L173.042017,58.5882353 C173.092437,56.8361345 171.037815,56.8991597 171.037815,58.1722689 C171.037815,58.802521 171.516807,59.1554622 172.159664,59.2310924 L171.907563,60.7058824 C168.478992,60.012605 169.44958,55.6386555 171.857143,55.6386555 C172.60084,55.6386555 173.193277,56.0420168 173.621849,56.8487395 C174.176471,54.2773109 178.273109,54.9453782 178.273109,58.0714286 C178.273109,59.5588235 177.352941,60.6554622 175.903361,60.8193277 L175.903361,60.8193277 Z" id="Path" fill="#000000"></path>
            <path d="M192.579832,60.9327731 L192.415966,59.3319328 C194.004202,59.1302521 194.130252,56.9495798 191.936975,56.9495798 C190.147059,56.9495798 190.008403,58.5504202 190.991597,59.4453782 L190.815126,60.7436975 L186.466387,59.9243697 L186.466387,55.6764706 L187.953782,55.6764706 L187.953782,58.7016807 L189.378151,58.9537815 C188.105042,56.394958 191.394958,54.1638655 193.764706,55.9033613 C195.592437,57.2521008 195.201681,60.5798319 192.579832,60.9327731 L192.579832,60.9327731 Z" id="Path" fill="#000000"></path>
            <path d="M161.634454,74.1302521 L159.945378,74.1302521 L159.945378,77.5462185 L158.546218,77.5462185 L153.226891,73.9285714 L153.226891,72.5798319 L158.546218,72.5798319 L158.546218,71.5336134 L159.945378,71.5336134 L159.945378,72.5798319 L161.634454,72.5798319 L161.634454,74.1302521 Z M158.546218,74.1302521 L155.684874,74.1302521 L158.546218,76.0462185 L158.546218,74.1302521 Z" id="Shape" fill="#000000"></path>
            <path d="M171.352941,77.3571429 L169.878151,77.3571429 L169.878151,71.8613445 L171.037815,71.8613445 C172.638655,73.487395 175.827731,74.697479 178.134454,74.6848739 L178.134454,76.2226891 C175.764706,76.1722689 173.218487,75.1890756 171.352941,73.7016807 L171.352941,77.3571429 Z" id="Path" fill="#000000"></path>
            <path d="M192.693277,77.2310924 L192.516807,75.6806723 C193.663866,75.5420168 193.701681,74.4453782 192.995798,73.9159664 C192.693277,73.6890756 192.05042,73.5378151 191.092437,73.4747899 C192.579832,74.7605042 191.634454,77.407563 189.05042,77.407563 C186.12605,77.407563 185.369748,74.1554622 187.210084,72.6302521 C188.621849,71.4705882 194.785714,70.9663866 194.785714,74.8739496 C194.785714,76.2226891 194.042017,77.0168067 192.693277,77.2310924 Z M189.176471,73.6260504 C187.184874,73.6260504 186.857143,75.8319328 189.05042,75.8319328 C191.193277,75.8319328 191.079832,73.6260504 189.176471,73.6260504 Z" id="Shape" fill="#000000"></path>
            <path d="M161.168067,89.2689076 L161.168067,90.8697479 L155.105042,90.8697479 C155.659664,91.4621849 156.063025,92.1428571 156.327731,92.9369748 L154.865546,92.9369748 C154.57563,92.0546218 153.743697,90.9327731 152.747899,90.5672269 L152.747899,89.2689076 L161.168067,89.2689076 L161.168067,89.2689076 Z" id="Path" fill="#000000"></path>
            <path d="M173.596639,92.5336134 C172.777311,94.4747899 169.714286,94.0714286 169.714286,91.210084 C169.714286,88.3235294 172.777311,87.9831933 173.596639,89.8613445 C174.554622,87.4915966 178.285714,88.1218487 178.285714,91.1344538 C178.285714,94.3109244 174.579832,94.8151261 173.596639,92.5336134 L173.596639,92.5336134 Z M171.983193,92.1932773 C173.369748,92.1932773 173.357143,90.2142857 171.983193,90.2142857 C170.634454,90.2142857 170.647059,92.1932773 171.983193,92.1932773 Z M175.57563,92.3571429 C177.441176,92.3571429 177.516807,90.0252101 175.60084,90.0252101 C173.836134,90.0252101 173.836134,92.3571429 175.57563,92.3571429 Z" id="Shape" fill="#000000"></path>
            <path d="M188.432773,88.5378151 L188.609244,90.1008403 C187.44958,90.2268908 187.436975,91.3487395 188.130252,91.8781513 C188.432773,92.105042 189.063025,92.2563025 190.021008,92.3067227 C188.508403,91.0336134 189.516807,88.3865546 192.063025,88.3865546 C195.012605,88.3865546 195.756303,91.6512605 193.915966,93.1638655 C192.491597,94.3361345 186.340336,94.8277311 186.340336,90.9201681 C186.340336,89.5966387 187.121849,88.7647059 188.432773,88.5378151 Z M191.936975,92.1806723 C193.941176,92.1806723 194.268908,89.9495798 192.07563,89.9495798 C189.907563,89.9495798 190.046218,92.1806723 191.936975,92.1806723 Z" id="Shape" fill="#000000"></path>
            <path d="M55.4495798,10.6260504 L57.0504202,10.4495798 C57.2521008,12.0504202 59.4327731,12.1764706 59.4327731,9.98319328 C59.4327731,8.18067227 57.8445378,8.05462185 56.9495798,9.03781513 L55.6512605,8.8487395 L56.4705882,4.5 L60.7058824,4.5 L60.7058824,6 L57.6806723,6 L57.4285714,7.42436975 C60,6.1512605 62.2310924,9.44117647 60.4789916,11.8109244 C59.1428571,13.6386555 55.802521,13.2352941 55.4495798,10.6260504 L55.4495798,10.6260504 Z" id="Path" fill="#000000"></path>
            <path d="M77.4201681,11.2815126 L77.4201681,12.7689076 L71.7983193,12.7689076 C72.1134454,9.83193277 75.8067227,8.63445378 75.8067227,6.79411765 C75.8067227,5.38235294 73.7142857,5.10504202 73.5882353,6.99579832 L71.987395,6.83193277 C72.3151261,3.70588235 75.6806723,4.05882353 76.7142857,5.02941176 C77.8613445,6.11344538 77.4831933,7.66386555 76.5756303,8.83613445 C75.9453782,9.64285714 74.6596639,10.5504202 74.2310924,11.2815126 L77.4201681,11.2815126 Z" id="Path" fill="#000000"></path>
            <path d="M88.6260504,10.8277311 L90.1764706,10.6512605 C90.3151261,11.7983193 91.4117647,11.8361345 91.9411765,11.1302521 C92.1680672,10.8277311 92.3067227,10.1848739 92.3823529,9.22689076 C91.0966387,10.7142857 88.4495798,9.76890756 88.4495798,7.18487395 C88.4495798,4.2605042 91.7016807,3.50420168 93.2142857,5.34453782 C94.3865546,6.74369748 94.8907563,12.9201681 90.9831933,12.9201681 C89.6218487,12.9201681 88.8403361,12.1638655 88.6260504,10.8277311 Z M92.2310924,7.31092437 C92.2310924,5.31932773 90.0252101,4.99159664 90.0252101,7.18487395 C90.0252101,9.32773109 92.2310924,9.21428571 92.2310924,7.31092437 Z" id="Shape" fill="#000000"></path>
            <path d="M55.3739496,27.1134454 L56.9369748,26.9243697 C57.1512605,28.6890756 59.2815126,28.512605 59.2815126,26.7605042 C59.2815126,25.6134454 58.512605,25.2605042 57.4411765,25.5630252 L57.6176471,24.2647059 C59.3697479,24.3151261 59.2941176,22.2478992 58.0210084,22.2478992 C57.4033613,22.2478992 57.0504202,22.7394958 56.9747899,23.3823529 L55.5,23.1302521 C56.1932773,19.7016807 60.5546218,20.6722689 60.5546218,23.0798319 C60.5546218,23.8109244 60.1512605,24.4033613 59.3571429,24.8445378 C61.9159664,25.3991597 61.2478992,29.4957983 58.1218487,29.4957983 C56.6470588,29.4957983 55.5378151,28.5756303 55.3739496,27.1134454 Z" id="Path" fill="#000000"></path>
            <path d="M75.1386555,29.3445378 L75.1386555,27.6554622 L71.7226891,27.6554622 L71.7226891,26.2563025 L75.3403361,20.9369748 L76.6890756,20.9369748 L76.6890756,26.2563025 L77.7352941,26.2563025 L77.7352941,27.6554622 L76.6890756,27.6554622 L76.6890756,29.3445378 L75.1386555,29.3445378 Z M75.1386555,26.2563025 L75.1386555,23.394958 L73.2226891,26.2563025 L75.1386555,26.2563025 Z" id="Shape" fill="#000000"></path>
            <path d="M88.5630252,22.5630252 L88.5630252,21.0756303 L94.0588235,21.0756303 L94.0588235,22.2478992 C92.4327731,23.8361345 91.2226891,27.0252101 91.2352941,29.3445378 L89.697479,29.3445378 C89.7478992,26.9747899 90.7310924,24.4285714 92.2184874,22.5630252 L88.5630252,22.5630252 Z" id="Path" fill="#000000"></path>
            <path d="M60.8571429,39.592437 L59.3067227,39.7563025 C59.1680672,38.5966387 58.0588235,38.5966387 57.5294118,39.2773109 C57.302521,39.5798319 57.1512605,40.210084 57.0882353,41.1806723 C58.3739496,39.6680672 61.0084034,40.6638655 61.0084034,43.210084 C61.0084034,46.1722689 57.7563025,46.9033613 56.2436975,45.0756303 C55.0714286,43.6512605 54.5798319,37.487395 58.487395,37.487395 C59.8109244,37.487395 60.6428571,38.2689076 60.8571429,39.592437 L60.8571429,39.592437 Z M57.2268908,43.0840336 C57.2268908,45.1008403 59.4453782,45.4159664 59.4453782,43.2352941 C59.4453782,41.0546218 57.2268908,41.1932773 57.2268908,43.0840336 Z" id="Shape" fill="#000000"></path>
            <path d="M73.3739496,41.3823529 C71.4327731,40.5504202 71.8361345,37.487395 74.697479,37.487395 C77.5840336,37.487395 77.9243697,40.5630252 76.0588235,41.3823529 C78.4159664,42.3277311 77.7857143,46.0588235 74.7731092,46.0588235 C71.5966387,46.0588235 71.092437,42.3655462 73.3739496,41.3823529 L73.3739496,41.3823529 Z M73.7142857,39.7689076 C73.7142857,41.1554622 75.7058824,41.1302521 75.7058824,39.7563025 C75.7058824,38.4201681 73.7142857,38.4327731 73.7142857,39.7689076 Z M73.5630252,43.3613445 C73.5630252,45.2142857 75.8823529,45.289916 75.8823529,43.3739496 C75.8823529,41.6218487 73.5630252,41.6218487 73.5630252,43.3613445 Z" id="Shape" fill="#000000"></path>
            <path d="M92.6722689,45.907563 L91.0714286,45.907563 L91.0714286,39.8445378 C90.4789916,40.3991597 89.7857143,40.802521 88.9915966,41.0672269 L88.9915966,39.605042 C89.8865546,39.3151261 91.0084034,38.4831933 91.3613445,37.487395 L92.6722689,37.487395 L92.6722689,45.907563 Z" id="Path" fill="#000000"></path>
            <path d="M61.8907563,105.995798 L61.8907563,107.596639 L55.8403361,107.596639 C56.3823529,108.176471 56.7983193,108.869748 57.0630252,109.663866 L55.6008403,109.663866 C55.3109244,108.768908 54.4789916,107.647059 53.4831933,107.294118 L53.4831933,105.995798 L61.8907563,105.995798 L61.8907563,105.995798 Z" id="Path" fill="#000000"></path>
            <path d="M78.9327731,107.420168 L77.2436975,107.420168 L77.2436975,110.836134 L75.8445378,110.836134 L70.5252101,107.218487 L70.5252101,105.869748 L75.8445378,105.869748 L75.8445378,104.823529 L77.2436975,104.823529 L77.2436975,105.869748 L78.9327731,105.869748 L78.9327731,107.420168 Z M75.8445378,107.420168 L72.9831933,107.420168 L75.8445378,109.336134 L75.8445378,107.420168 Z" id="Shape" fill="#000000"></path>
            <path d="M88.6512605,110.647059 L87.1764706,110.647059 L87.1764706,105.151261 L88.3361345,105.151261 C89.9369748,106.777311 93.1260504,107.987395 95.4327731,107.97479 L95.4327731,109.512605 C93.0630252,109.462185 90.5168067,108.478992 88.6512605,106.991597 L88.6512605,110.647059 Z" id="Path" fill="#000000"></path>
            <path d="M60.1638655,127.361345 L60,125.760504 C61.5882353,125.558824 61.7268908,123.378151 59.5336134,123.378151 C57.7310924,123.378151 57.605042,124.978992 58.5882353,125.87395 L58.3991597,127.159664 L54.0504202,126.352941 L54.0504202,122.105042 L55.5504202,122.105042 L55.5504202,125.130252 L56.9747899,125.382353 C55.7016807,122.810924 58.9915966,120.579832 61.3613445,122.331933 C63.1890756,123.680672 62.7857143,127.008403 60.1638655,127.361345 L60.1638655,127.361345 Z" id="Path" fill="#000000"></path>
            <path d="M72.592437,121.827731 L72.7689076,123.378151 C71.6092437,123.516807 71.6092437,124.638655 72.289916,125.155462 C72.592437,125.394958 73.2226891,125.546218 74.1806723,125.596639 C72.6680672,124.323529 73.6764706,121.676471 76.2226891,121.676471 C79.1722689,121.676471 79.9159664,124.928571 78.0756303,126.453782 C76.6512605,127.62605 70.5,128.117647 70.5,124.210084 C70.5,122.886555 71.2815126,122.054622 72.592437,121.827731 L72.592437,121.827731 Z M76.0966387,125.470588 C78.1008403,125.470588 78.4285714,123.239496 76.2352941,123.239496 C74.0672269,123.239496 74.2058824,125.470588 76.0966387,125.470588 Z" id="Shape" fill="#000000"></path>
            <path d="M90.894958,125.823529 C90.0756303,127.764706 87.012605,127.361345 87.012605,124.5 C87.012605,121.613445 90.0756303,121.273109 90.894958,123.151261 C91.8529412,120.781513 95.5714286,121.411765 95.5714286,124.42437 C95.5714286,127.60084 91.8781513,128.105042 90.894958,125.823529 L90.894958,125.823529 Z M89.2815126,125.483193 C90.6680672,125.483193 90.6554622,123.504202 89.2815126,123.504202 C87.9327731,123.504202 87.9453782,125.483193 89.2815126,125.483193 Z M92.8739496,125.634454 C94.7394958,125.634454 94.8151261,123.315126 92.8865546,123.315126 C91.1344538,123.315126 91.1344538,125.634454 92.8739496,125.634454 Z" id="Shape" fill="#000000"></path>
            <path d="M60.7563025,138.151261 L62.2436975,138.151261 L62.2436975,143.773109 C59.3067227,143.457983 58.1092437,139.764706 56.2689076,139.764706 C54.8445378,139.764706 54.5798319,141.857143 56.4705882,141.983193 L56.3067227,143.584034 C53.1806723,143.256303 53.5210084,139.890756 54.4915966,138.857143 C55.5882353,137.710084 57.1386555,138.07563 58.3109244,138.995798 C59.105042,139.62605 60.012605,140.911765 60.7563025,141.340336 L60.7563025,138.151261 L60.7563025,138.151261 Z" id="Path" fill="#000000"></path>
            <path d="M76.6260504,143.810924 L76.4369748,142.260504 C78.2016807,142.046218 78.0252101,139.915966 76.2731092,139.915966 C75.1260504,139.915966 74.7731092,140.684874 75.0756303,141.756303 L73.7773109,141.579832 C73.8277311,139.827731 71.7731092,139.903361 71.7731092,141.163866 C71.7731092,141.794118 72.2521008,142.147059 72.894958,142.222689 L72.6428571,143.697479 C69.2142857,143.004202 70.1848739,138.642857 72.592437,138.642857 C73.3235294,138.642857 73.9159664,139.033613 74.3571429,139.840336 C74.9117647,137.268908 79.0084034,137.94958 79.0084034,141.063025 C79.0084034,142.55042 78.0882353,143.647059 76.6260504,143.810924 L76.6260504,143.810924 Z" id="Path" fill="#000000"></path>
            <path d="M93.4285714,143.659664 L93.2521008,142.109244 C94.3865546,141.970588 94.4243697,140.87395 93.7310924,140.344538 C93.4159664,140.117647 92.7857143,139.966387 91.8277311,139.903361 C93.3151261,141.189076 92.3571429,143.836134 89.7857143,143.836134 C86.8487395,143.836134 86.105042,140.584034 87.9327731,139.058824 C89.3445378,137.89916 95.5210084,137.382353 95.5210084,141.302521 C95.5210084,142.651261 94.7647059,143.445378 93.4285714,143.659664 L93.4285714,143.659664 Z M89.9117647,140.042017 C87.907563,140.042017 87.592437,142.260504 89.7731092,142.260504 C91.9285714,142.260504 91.8151261,140.042017 89.9117647,140.042017 Z" id="Shape" fill="#000000"></path>
        </g>
    </g>
</svg>