<?xml version="1.0" encoding="UTF-8"?>
<svg width="201px" height="150px" viewBox="0 0 201 150" version="1.1" xmlns="http://www.w3.org/2000/svg" xmlns:xlink="http://www.w3.org/1999/xlink">
    <title>sudoku_1_5</title>
    <g id="Sudoku" stroke="none" stroke-width="1" fill="none" fill-rule="evenodd">
        <g id="sudoku_1_5" fill-rule="nonzero">
            <path d="M100.006452,50.0709677 C133.296774,50.0709677 166.587097,50.0709677 199.877419,50.0709677 C199.877419,66.716129 199.877419,83.3612903 199.877419,100.006452 C166.587097,100.006452 133.296774,100.006452 100.006452,100.006452 C100.006452,116.651613 100.006452,133.296774 100.006452,149.941935 C83.3612903,149.941935 66.716129,149.941935 50.0709677,149.941935 C50.0709677,133.296774 50.0709677,116.651613 50.0709677,100.006452 C33.4258065,100.006452 16.7806452,100.006452 0.135483871,100.006452 C0.135483871,83.3612903 0.135483871,66.716129 0.135483871,50.0709677 C16.7806452,50.0709677 33.4258065,50.0709677 50.0709677,50.0709677 C50.0709677,33.4258065 50.0709677,16.7806452 50.0709677,0.135483871 C66.716129,0.135483871 83.3612903,0.135483871 100.006452,0.135483871 C100.006452,16.7806452 100.006452,33.4258065 100.006452,50.0709677 Z" id="Path" fill="#000000"></path>
            <polygon id="Path" fill="#FFFFFF" points="98.3419355 98.3419355 85.0258065 98.3419355 85.0258065 85.0258065 98.3419355 85.0258065"></polygon>
            <polygon id="Path" fill="#FFFFFF" points="68.3806452 98.3419355 81.6967742 98.3419355 81.6967742 85.0258065 68.3806452 85.0258065"></polygon>
            <polygon id="Path" fill="#FFFFFF" points="65.0516129 98.3419355 51.7354839 98.3419355 51.7354839 85.0258065 65.0516129 85.0258065"></polygon>
            <polygon id="Path" fill="#FFFFFF" points="98.3419355 68.3806452 85.0258065 68.3806452 85.0258065 81.6967742 98.3419355 81.6967742"></polygon>
            <polygon id="Path" fill="#FFFFFF" points="68.3806452 68.3806452 81.6967742 68.3806452 81.6967742 81.6967742 68.3806452 81.6967742"></polygon>
            <polygon id="Path" fill="#FFFFFF" points="65.0516129 68.3806452 51.7354839 68.3806452 51.7354839 81.6967742 65.0516129 81.6967742"></polygon>
            <polygon id="Path" fill="#FFFFFF" points="98.3419355 65.0516129 85.0258065 65.0516129 85.0258065 51.7354839 98.3419355 51.7354839"></polygon>
            <polygon id="Path" fill="#FFFFFF" points="68.3806452 65.0516129 81.6967742 65.0516129 81.6967742 51.7354839 68.3806452 51.7354839"></polygon>
            <polygon id="Path" fill="#FFFFFF" points="65.0516129 65.0516129 51.7354839 65.0516129 51.7354839 51.7354839 65.0516129 51.7354839"></polygon>
            <polygon id="Path" fill="#FFFFFF" points="101.670968 98.3419355 114.987097 98.3419355 114.987097 85.0258065 101.670968 85.0258065"></polygon>
            <polygon id="Path" fill="#FFFFFF" points="131.632258 98.3419355 118.316129 98.3419355 118.316129 85.0258065 131.632258 85.0258065"></polygon>
            <polygon id="Path" fill="#FFFFFF" points="134.96129 98.3419355 148.277419 98.3419355 148.277419 85.0258065 134.96129 85.0258065"></polygon>
            <polygon id="Path" fill="#FFFFFF" points="101.670968 68.3806452 114.987097 68.3806452 114.987097 81.6967742 101.670968 81.6967742"></polygon>
            <polygon id="Path" fill="#FFFFFF" points="131.632258 68.3806452 118.316129 68.3806452 118.316129 81.6967742 131.632258 81.6967742"></polygon>
            <polygon id="Path" fill="#FFFFFF" points="134.96129 68.3806452 148.277419 68.3806452 148.277419 81.6967742 134.96129 81.6967742"></polygon>
            <polygon id="Path" fill="#FFFFFF" points="101.670968 65.0516129 114.987097 65.0516129 114.987097 51.7354839 101.670968 51.7354839"></polygon>
            <polygon id="Path" fill="#FFFFFF" points="131.632258 65.0516129 118.316129 65.0516129 118.316129 51.7354839 131.632258 51.7354839"></polygon>
            <polygon id="Path" fill="#FFFFFF" points="134.96129 65.0516129 148.277419 65.0516129 148.277419 51.7354839 134.96129 51.7354839"></polygon>
            <polygon id="Path" fill="#FFFFFF" points="198.212903 98.3419355 184.896774 98.3419355 184.896774 85.0258065 198.212903 85.0258065"></polygon>
            <polygon id="Path" fill="#FFFFFF" points="168.251613 98.3419355 181.567742 98.3419355 181.567742 85.0258065 168.251613 85.0258065"></polygon>
            <polygon id="Path" fill="#FFFFFF" points="164.922581 98.3419355 151.606452 98.3419355 151.606452 85.0258065 164.922581 85.0258065"></polygon>
            <polygon id="Path" fill="#FFFFFF" points="198.212903 68.3806452 184.896774 68.3806452 184.896774 81.6967742 198.212903 81.6967742"></polygon>
            <polygon id="Path" fill="#FFFFFF" points="168.251613 68.3806452 181.567742 68.3806452 181.567742 81.6967742 168.251613 81.6967742"></polygon>
            <polygon id="Path" fill="#FFFFFF" points="164.922581 68.3806452 151.606452 68.3806452 151.606452 81.6967742 164.922581 81.6967742"></polygon>
            <polygon id="Path" fill="#FFFFFF" points="198.212903 65.0516129 184.896774 65.0516129 184.896774 51.7354839 198.212903 51.7354839"></polygon>
            <polygon id="Path" fill="#FFFFFF" points="168.251613 65.0516129 181.567742 65.0516129 181.567742 51.7354839 168.251613 51.7354839"></polygon>
            <polygon id="Path" fill="#FFFFFF" points="164.922581 65.0516129 151.606452 65.0516129 151.606452 51.7354839 164.922581 51.7354839"></polygon>
            <polygon id="Path" fill="#FFFFFF" points="51.7354839 148.277419 65.0516129 148.277419 65.0516129 134.96129 51.7354839 134.96129"></polygon>
            <polygon id="Path" fill="#FFFFFF" points="81.6967742 148.277419 68.3806452 148.277419 68.3806452 134.96129 81.6967742 134.96129"></polygon>
            <polygon id="Path" fill="#FFFFFF" points="85.0258065 148.277419 98.3419355 148.277419 98.3419355 134.96129 85.0258065 134.96129"></polygon>
            <polygon id="Path" fill="#FFFFFF" points="51.7354839 118.316129 65.0516129 118.316129 65.0516129 131.632258 51.7354839 131.632258"></polygon>
            <polygon id="Path" fill="#FFFFFF" points="81.6967742 118.316129 68.3806452 118.316129 68.3806452 131.632258 81.6967742 131.632258"></polygon>
            <polygon id="Path" fill="#FFFFFF" points="85.0258065 118.316129 98.3419355 118.316129 98.3419355 131.632258 85.0258065 131.632258"></polygon>
            <polygon id="Path" fill="#FFFFFF" points="51.7354839 114.987097 65.0516129 114.987097 65.0516129 101.670968 51.7354839 101.670968"></polygon>
            <polygon id="Path" fill="#FFFFFF" points="81.6967742 114.987097 68.3806452 114.987097 68.3806452 101.670968 81.6967742 101.670968"></polygon>
            <polygon id="Path" fill="#FFFFFF" points="85.0258065 114.987097 98.3419355 114.987097 98.3419355 101.670968 85.0258065 101.670968"></polygon>
            <polygon id="Path" fill="#FFFFFF" points="98.3419355 1.8 85.0258065 1.8 85.0258065 15.116129 98.3419355 15.116129"></polygon>
            <polygon id="Path" fill="#FFFFFF" points="68.3806452 1.8 81.6967742 1.8 81.6967742 15.116129 68.3806452 15.116129"></polygon>
            <polygon id="Path" fill="#FFFFFF" points="65.0516129 1.8 51.7354839 1.8 51.7354839 15.116129 65.0516129 15.116129"></polygon>
            <polygon id="Path" fill="#FFFFFF" points="98.3419355 31.7612903 85.0258065 31.7612903 85.0258065 18.4451613 98.3419355 18.4451613"></polygon>
            <polygon id="Path" fill="#FFFFFF" points="68.3806452 31.7612903 81.6967742 31.7612903 81.6967742 18.4451613 68.3806452 18.4451613"></polygon>
            <polygon id="Path" fill="#FFFFFF" points="65.0516129 31.7612903 51.7354839 31.7612903 51.7354839 18.4451613 65.0516129 18.4451613"></polygon>
            <polygon id="Path" fill="#FFFFFF" points="98.3419355 35.0903226 85.0258065 35.0903226 85.0258065 48.4064516 98.3419355 48.4064516"></polygon>
            <polygon id="Path" fill="#FFFFFF" points="68.3806452 35.0903226 81.6967742 35.0903226 81.6967742 48.4064516 68.3806452 48.4064516"></polygon>
            <polygon id="Path" fill="#FFFFFF" points="65.0516129 35.0903226 51.7354839 35.0903226 51.7354839 48.4064516 65.0516129 48.4064516"></polygon>
            <polygon id="Path" fill="#FFFFFF" points="1.8 98.3419355 15.116129 98.3419355 15.116129 85.0258065 1.8 85.0258065"></polygon>
            <polygon id="Path" fill="#FFFFFF" points="31.7612903 98.3419355 18.4451613 98.3419355 18.4451613 85.0258065 31.7612903 85.0258065"></polygon>
            <polygon id="Path" fill="#FFFFFF" points="35.0903226 98.3419355 48.4064516 98.3419355 48.4064516 85.0258065 35.0903226 85.0258065"></polygon>
            <polygon id="Path" fill="#FFFFFF" points="1.8 68.3806452 15.116129 68.3806452 15.116129 81.6967742 1.8 81.6967742"></polygon>
            <polygon id="Path" fill="#FFFFFF" points="31.7612903 68.3806452 18.4451613 68.3806452 18.4451613 81.6967742 31.7612903 81.6967742"></polygon>
            <polygon id="Path" fill="#FFFFFF" points="35.0903226 68.3806452 48.4064516 68.3806452 48.4064516 81.6967742 35.0903226 81.6967742"></polygon>
            <polygon id="Path" fill="#FFFFFF" points="1.8 65.0516129 15.116129 65.0516129 15.116129 51.7354839 1.8 51.7354839"></polygon>
            <polygon id="Path" fill="#FFFFFF" points="31.7612903 65.0516129 18.4451613 65.0516129 18.4451613 51.7354839 31.7612903 51.7354839"></polygon>
            <polygon id="Path" fill="#FFFFFF" points="35.0903226 65.0516129 48.4064516 65.0516129 48.4064516 51.7354839 35.0903226 51.7354839"></polygon>
            <path d="M56.0612903,60.3870968 L57.6290323,60.2032258 C57.8419355,61.9645161 59.9903226,61.7903226 59.9903226,60.0290323 C59.9903226,58.8774194 59.216129,58.5290323 58.1322581,58.8290323 L58.3064516,57.5225806 C60.0774194,57.5709677 60,55.5 58.7225806,55.5 C58.0935484,55.5 57.7354839,55.983871 57.6580645,56.6322581 L56.1774194,56.3806452 C56.8741935,52.9354839 61.2677419,53.9032258 61.2677419,56.3322581 C61.2677419,57.0677419 60.8612903,57.6580645 60.0580645,58.1032258 C62.6419355,58.6548387 61.9645161,62.7677419 58.8290323,62.7677419 C57.3387097,62.7677419 56.2258065,61.8483871 56.0612903,60.3870968 L56.0612903,60.3870968 Z" id="Path" fill="#000000"></path>
            <path d="M72.8129032,60.6677419 L74.3806452,60.4935484 C74.516129,61.6354839 75.6193548,61.6741935 76.1419355,60.9677419 C76.3741935,60.6580645 76.5193548,60.0290323 76.5870968,59.0612903 C75.3,60.5516129 72.6387097,59.6032258 72.6387097,57.0096774 C72.6387097,54.0677419 75.9096774,53.3129032 77.4290323,55.1516129 C78.6,56.5741935 79.1129032,62.7677419 75.183871,62.7677419 C73.8290323,62.7677419 73.0354839,62.0129032 72.8129032,60.6677419 Z M76.4419355,57.1354839 C76.4419355,55.1322581 74.2258065,54.8032258 74.2258065,57 C74.2258065,59.1580645 76.4419355,59.0419355 76.4419355,57.1354839 Z" id="Shape" fill="#000000"></path>
            <path d="M89.4,55.8096774 L89.4,54.3193548 L94.9258065,54.3193548 L94.9258065,55.4903226 C93.2903226,57.0870968 92.0806452,60.2903226 92.0903226,62.6225806 L90.5419355,62.6225806 C90.6,60.2419355 91.5870968,57.6774194 93.0774194,55.8096774 L89.4,55.8096774 L89.4,55.8096774 Z" id="Path" fill="#000000"></path>
            <path d="M94.3354839,72.8419355 L92.7774194,73.016129 C92.6322581,71.7967742 91.4903226,71.883871 90.9870968,72.5322581 C90.7548387,72.8322581 90.6096774,73.4709677 90.5516129,74.4387097 C91.4225806,73.4129032 92.8935484,73.5580645 93.7741935,74.4967742 C94.7612903,75.5516129 94.7419355,77.5258065 93.7354839,78.5612903 C92.6129032,79.7129032 90.7064516,79.5677419 89.7,78.3483871 C88.5677419,76.9741935 88.5870968,73.1225806 89.7290323,71.7580645 C90.9580645,70.2967742 93.8806452,70.1516129 94.3354839,72.8419355 L94.3354839,72.8419355 Z M91.0451613,77.5741935 C91.4709677,78.0774194 92.1677419,78.183871 92.6225806,77.6516129 C93.0387097,77.1483871 93.0096774,75.8032258 92.5935484,75.3 C92.1677419,74.7967742 91.4419355,74.7870968 91.0064516,75.2806452 C90.5322581,75.8129032 90.6,77.0419355 91.0451613,77.5741935 Z" id="Shape" fill="#000000"></path>
            <path d="M76.8774194,79.2677419 L75.2709677,79.2677419 L75.2709677,73.1806452 C74.6806452,73.7322581 73.9935484,74.1387097 73.1903226,74.4 L73.1903226,72.9290323 C74.0806452,72.6387097 75.2129032,71.8064516 75.5709677,70.8096774 L76.8774194,70.8096774 L76.8774194,79.2677419 L76.8774194,79.2677419 Z" id="Path" fill="#000000"></path>
            <path d="M55.5483871,76.9451613 L57.1548387,76.7806452 C57.3677419,78.3774194 59.5548387,78.5129032 59.5548387,76.3064516 C59.5548387,74.4967742 57.9483871,74.3612903 57.0580645,75.3580645 L55.7516129,75.1645161 L56.5741935,70.8 L60.8322581,70.8 L60.8322581,72.3 L57.7935484,72.3 L57.5419355,73.7322581 C60.116129,72.4548387 62.3612903,75.7548387 60.6096774,78.1354839 C59.2548387,79.9741935 55.9064516,79.5774194 55.5483871,76.9451613 L55.5483871,76.9451613 Z" id="Path" fill="#000000"></path>
            <path d="M40.383871,74.6419355 C38.8354839,73.983871 38.9419355,72.2032258 39.8516129,71.3419355 C40.7419355,70.5096774 42.6774194,70.5193548 43.5774194,71.3419355 C44.5451613,72.2516129 44.516129,74.0129032 43.0741935,74.6419355 C44.9419355,75.3870968 44.7967742,77.5935484 43.7612903,78.6096774 C42.783871,79.5774194 40.9354839,79.5677419 39.8806452,78.7354839 C38.6516129,77.7580645 38.5451613,75.4354839 40.383871,74.6419355 L40.383871,74.6419355 Z M41.7193548,74.0419355 C42.7064516,74.0419355 43.0258065,72.8709677 42.4451613,72.2903226 C42.0774194,71.9129032 41.3612903,71.9129032 40.9935484,72.2903226 C40.4225806,72.8709677 40.7225806,74.0419355 41.7193548,74.0419355 Z M41.7580645,78.0483871 C42.9483871,78.0483871 43.2290323,76.3935484 42.5806452,75.6870968 C42.1354839,75.2032258 41.2548387,75.1741935 40.8580645,75.7354839 C40.2677419,76.5870968 40.5967742,78.0483871 41.7580645,78.0483871 Z" id="Shape" fill="#000000"></path>
            <path d="M78.2032258,94.4129032 L78.2032258,95.9129032 L72.5612903,95.9129032 C72.8709677,92.9516129 76.5870968,91.7516129 76.5870968,89.9129032 C76.5870968,88.4806452 74.4774194,88.2096774 74.3516129,90.1064516 L72.7451613,89.9419355 C73.083871,86.8064516 76.4612903,87.1548387 77.4967742,88.1225806 C78.6483871,89.216129 78.2806452,90.783871 77.3612903,91.9645161 C76.7322581,92.7580645 75.4354839,93.6677419 75,94.4129032 L78.2032258,94.4129032 Z" id="Path" fill="#000000"></path>
            <path d="M92.5645161,95.9129032 L92.5645161,94.2193548 L89.1290323,94.2193548 L89.1290323,92.816129 L92.7677419,87.4645161 L94.1225806,87.4645161 L94.1225806,92.8064516 L95.1677419,92.8064516 L95.1677419,94.2193548 L94.1225806,94.2193548 L94.1225806,95.9129032 L92.5645161,95.9129032 L92.5645161,95.9129032 Z M92.5645161,92.8064516 L92.5645161,89.9322581 L90.6387097,92.8064516 L92.5645161,92.8064516 Z" id="Shape" fill="#000000"></path>
            <path d="M5.66129032,60.5129032 L7.21935484,60.3387097 C7.35483871,61.4903226 8.45806452,61.5193548 8.99032258,60.8129032 C9.22258065,60.5129032 9.36774194,59.8741935 9.43548387,58.9064516 C8.1483871,60.3967742 5.48709677,59.4483871 5.48709677,56.8548387 C5.48709677,53.9129032 8.7483871,53.1580645 10.2774194,54.9967742 C11.4483871,56.4193548 11.9612903,62.6225806 8.02258065,62.6225806 C6.66774194,62.6225806 5.87419355,61.8580645 5.66129032,60.5129032 L5.66129032,60.5129032 Z M9.29032258,56.9806452 C9.29032258,54.9774194 7.06451613,54.6483871 7.06451613,56.8548387 C7.06451613,59.0032258 9.29032258,58.8967742 9.29032258,56.9806452 Z" id="Shape" fill="#000000"></path>
            <path d="M22.2483871,55.6548387 L22.2483871,54.1645161 L27.7645161,54.1645161 L27.7645161,55.3354839 C26.1387097,56.9419355 24.9193548,60.1354839 24.9387097,62.4677419 L23.3903226,62.4677419 C23.4387097,60.0870968 24.4258065,57.5322581 25.916129,55.6548387 L22.2483871,55.6548387 L22.2483871,55.6548387 Z" id="Path" fill="#000000"></path>
            <path d="M43.016129,62.4677419 L41.4,62.4677419 L41.4,56.3806452 C40.8193548,56.9322581 40.1225806,57.3387097 39.3290323,57.6 L39.3290323,56.1387097 C40.2193548,55.8483871 41.3516129,55.0064516 41.7096774,54.0096774 L43.016129,54.0096774 L43.016129,62.4677419 Z" id="Path" fill="#000000"></path>
            <path d="M11.0516129,77.6225806 L11.0516129,79.1129032 L5.4,79.1129032 C5.71935484,76.1612903 9.42580645,74.9516129 9.42580645,73.1129032 C9.42580645,71.6806452 7.32580645,71.4096774 7.2,73.3064516 L5.59354839,73.1516129 C5.93225806,70.0064516 9.30967742,70.3548387 10.3354839,71.3322581 C11.4967742,72.4258065 11.1193548,73.983871 10.2,75.1645161 C9.58064516,75.9677419 8.27419355,76.8774194 7.8483871,77.6225806 L11.0516129,77.6225806 L11.0516129,77.6225806 Z" id="Path" fill="#000000"></path>
            <path d="M25.4032258,79.1129032 L25.4032258,77.4193548 L21.9774194,77.4193548 L21.9774194,76.016129 L25.616129,70.6645161 L26.9709677,70.6645161 L26.9709677,76.0064516 L28.016129,76.0064516 L28.016129,77.4193548 L26.9709677,77.4193548 L26.9709677,79.1129032 L25.4032258,79.1129032 L25.4032258,79.1129032 Z M25.4032258,76.0064516 L25.4032258,73.1419355 L23.4870968,76.0064516 L25.4032258,76.0064516 Z" id="Shape" fill="#000000"></path>
            <path d="M5.62258065,93.6 L7.23870968,93.4258065 C7.44193548,95.0225806 9.62903226,95.1677419 9.62903226,92.9612903 C9.62903226,91.1516129 8.02258065,91.016129 7.13225806,92.0129032 L5.82580645,91.8193548 L6.6483871,87.4548387 L10.9064516,87.4548387 L10.9064516,88.9548387 L7.86774194,88.9548387 L7.61612903,90.3870968 C10.1903226,89.1 12.4354839,92.4096774 10.683871,94.7903226 C9.32903226,96.6290323 5.98064516,96.2322581 5.62258065,93.6 L5.62258065,93.6 Z" id="Path" fill="#000000"></path>
            <path d="M22.2,93.5225806 L23.7580645,93.3387097 C23.9806452,95.1 26.1193548,94.9258065 26.1193548,93.1645161 C26.1193548,92.0129032 25.3451613,91.6645161 24.2709677,91.9645161 L24.4451613,90.6580645 C26.2064516,90.7064516 26.1387097,88.6354839 24.8612903,88.6354839 C24.2322581,88.6354839 23.8741935,89.1193548 23.7967742,89.7677419 L22.316129,89.516129 C23.0129032,86.0709677 27.4064516,87.0483871 27.4064516,89.4677419 C27.4064516,90.2032258 27,90.8032258 26.1870968,91.2387097 C28.7709677,91.8 28.0935484,95.9129032 24.9580645,95.9129032 C23.4677419,95.9129032 22.3645161,94.983871 22.2,93.5225806 L22.2,93.5225806 Z" id="Path" fill="#000000"></path>
            <path d="M44.3516129,89.4096774 L42.7935484,89.5741935 C42.6580645,88.4129032 41.5354839,88.4129032 41.0032258,89.1 C40.7709677,89.4 40.6258065,90.0387097 40.5677419,91.0064516 C41.8548387,89.4870968 44.5064516,90.4935484 44.5064516,93.0483871 C44.5064516,96.0193548 41.2354839,96.7548387 39.716129,94.916129 C38.5354839,93.483871 38.0419355,87.3 41.9709677,87.3 C43.2870968,87.3 44.1290323,88.083871 44.3516129,89.4096774 L44.3516129,89.4096774 Z M40.7032258,92.9225806 C40.7032258,94.9451613 42.9290323,95.2645161 42.9290323,93.0677419 C42.9290323,90.8806452 40.7032258,91.0258065 40.7032258,92.9225806 Z" id="Shape" fill="#000000"></path>
            <path d="M109.596774,62.4677419 L107.980645,62.4677419 L107.980645,56.3806452 C107.4,56.9322581 106.703226,57.3387097 105.909677,57.6 L105.909677,56.1387097 C106.8,55.8483871 107.932258,55.0064516 108.290323,54.0096774 L109.596774,54.0096774 L109.596774,62.4677419 L109.596774,62.4677419 Z" id="Path" fill="#000000"></path>
            <path d="M125.274194,62.4677419 L125.274194,60.7741935 L121.848387,60.7741935 L121.848387,59.3709677 L125.487097,54.0193548 L126.841935,54.0193548 L126.841935,59.3612903 L127.887097,59.3612903 L127.887097,60.7741935 L126.841935,60.7741935 L126.841935,62.4677419 L125.274194,62.4677419 L125.274194,62.4677419 Z M125.274194,59.3612903 L125.274194,56.4967742 L123.358065,59.3612903 L125.274194,59.3612903 Z" id="Shape" fill="#000000"></path>
            <path d="M144.212903,60.9774194 L144.212903,62.4677419 L138.56129,62.4677419 C138.880645,59.516129 142.587097,58.3064516 142.587097,56.4677419 C142.587097,55.0354839 140.487097,54.7645161 140.36129,56.6612903 L138.754839,56.5064516 C139.093548,53.3612903 142.470968,53.7096774 143.496774,54.6870968 C144.658065,55.7709677 144.280645,57.3387097 143.36129,58.5193548 C142.732258,59.3225806 141.435484,60.2322581 141.009677,60.9774194 L144.212903,60.9774194 Z" id="Path" fill="#000000"></path>
            <path d="M122.119355,72.3 L122.119355,70.8096774 L127.635484,70.8096774 L127.635484,71.9806452 C126.009677,73.5870968 124.790323,76.7806452 124.809677,79.1129032 L123.251613,79.1129032 C123.309677,76.7322581 124.296774,74.1774194 125.787097,72.3 L122.119355,72.3 L122.119355,72.3 Z" id="Path" fill="#000000"></path>
            <path d="M138.716129,76.8774194 L140.274194,76.6935484 C140.496774,78.4548387 142.635484,78.2806452 142.635484,76.5193548 C142.635484,75.3677419 141.86129,75.0193548 140.777419,75.3193548 L140.96129,74.0129032 C142.722581,74.0612903 142.645161,71.9903226 141.377419,71.9903226 C140.748387,71.9903226 140.390323,72.4741935 140.312903,73.1225806 L138.832258,72.8709677 C139.529032,69.4258065 143.922581,70.4032258 143.922581,72.8225806 C143.922581,73.5580645 143.516129,74.1580645 142.703226,74.5935484 C145.287097,75.1548387 144.609677,79.2677419 141.474194,79.2677419 C139.983871,79.2677419 138.880645,78.3387097 138.716129,76.8774194 L138.716129,76.8774194 Z" id="Path" fill="#000000"></path>
            <path d="M110.932258,89.4096774 L109.374194,89.5741935 C109.23871,88.4129032 108.116129,88.4129032 107.583871,89.1 C107.351613,89.4 107.206452,90.0387097 107.148387,91.0064516 C108.435484,89.4870968 111.087097,90.4935484 111.087097,93.0483871 C111.087097,96.0193548 107.816129,96.7548387 106.296774,94.916129 C105.116129,93.483871 104.622581,87.3 108.551613,87.3 C109.867742,87.3 110.709677,88.083871 110.932258,89.4096774 L110.932258,89.4096774 Z M107.283871,92.9225806 C107.283871,94.9451613 109.509677,95.2645161 109.509677,93.0677419 C109.509677,90.8806452 107.283871,91.0258065 107.283871,92.9225806 Z" id="Shape" fill="#000000"></path>
            <path d="M122.177419,93.8032258 L123.735484,93.6290323 C123.870968,94.7709677 124.974194,94.8096774 125.506452,94.1032258 C125.73871,93.8032258 125.883871,93.1645161 125.951613,92.1967742 C124.664516,93.6870968 122.003226,92.7387097 122.003226,90.1451613 C122.003226,87.2032258 125.264516,86.4483871 126.793548,88.2870968 C127.964516,89.7096774 128.477419,95.9129032 124.53871,95.9129032 C123.183871,95.9129032 122.390323,95.1483871 122.177419,93.8032258 L122.177419,93.8032258 Z M125.806452,90.2709677 C125.806452,88.2677419 123.580645,87.9387097 123.580645,90.1451613 C123.580645,92.2935484 125.806452,92.1870968 125.806452,90.2709677 Z" id="Shape" fill="#000000"></path>
            <path d="M138.783871,93.6 L140.390323,93.4258065 C140.603226,95.0225806 142.790323,95.1677419 142.790323,92.9612903 C142.790323,91.1516129 141.183871,91.016129 140.293548,92.0129032 L138.987097,91.8193548 L139.809677,87.4548387 L144.067742,87.4548387 L144.067742,88.9548387 L141.029032,88.9548387 L140.777419,90.3870968 C143.351613,89.1 145.596774,92.4096774 143.845161,94.7903226 C142.490323,96.6290323 139.141935,96.2322581 138.783871,93.6 L138.783871,93.6 Z" id="Path" fill="#000000"></path>
            <path d="M158.564516,62.4677419 L158.564516,60.7741935 L155.13871,60.7741935 L155.13871,59.3709677 L158.777419,54.0193548 L160.132258,54.0193548 L160.132258,59.3612903 L161.177419,59.3612903 L161.177419,60.7741935 L160.132258,60.7741935 L160.132258,62.4677419 L158.564516,62.4677419 L158.564516,62.4677419 Z M158.564516,59.3612903 L158.564516,56.4967742 L156.648387,59.3612903 L158.564516,59.3612903 Z" id="Shape" fill="#000000"></path>
            <path d="M172.006452,60.2322581 L173.564516,60.0483871 C173.787097,61.8096774 175.925806,61.6354839 175.925806,59.8741935 C175.925806,58.7225806 175.151613,58.3741935 174.077419,58.6741935 L174.251613,57.3677419 C176.012903,57.416129 175.935484,55.3451613 174.667742,55.3451613 C174.03871,55.3451613 173.680645,55.8290323 173.603226,56.4774194 L172.122581,56.2258065 C172.819355,52.7806452 177.212903,53.7580645 177.212903,56.1774194 C177.212903,56.9129032 176.806452,57.5129032 175.993548,57.9483871 C178.577419,58.5096774 177.9,62.6225806 174.764516,62.6225806 C173.274194,62.6225806 172.170968,61.6935484 172.006452,60.2322581 L172.006452,60.2322581 Z" id="Path" fill="#000000"></path>
            <path d="M194.158065,56.1193548 L192.6,56.283871 C192.464516,55.1225806 191.341935,55.1225806 190.809677,55.8096774 C190.577419,56.1096774 190.432258,56.7483871 190.364516,57.716129 C191.66129,56.1967742 194.312903,57.2032258 194.312903,59.7580645 C194.312903,62.7290323 191.041935,63.4645161 189.522581,61.6258065 C188.341935,60.1935484 187.848387,54.0096774 191.777419,54.0096774 C193.093548,54.0096774 193.935484,54.7935484 194.158065,56.1193548 L194.158065,56.1193548 Z M190.509677,59.6322581 C190.509677,61.6548387 192.735484,61.9741935 192.735484,59.7774194 C192.735484,57.5903226 190.509677,57.7354839 190.509677,59.6322581 Z" id="Shape" fill="#000000"></path>
            <path d="M155.409677,72.3 L155.409677,70.8096774 L160.925806,70.8096774 L160.925806,71.9806452 C159.3,73.5870968 158.080645,76.7806452 158.1,79.1129032 L156.541935,79.1129032 C156.6,76.7322581 157.587097,74.1774194 159.077419,72.3 L155.409677,72.3 L155.409677,72.3 Z" id="Path" fill="#000000"></path>
            <path d="M172.074194,76.9548387 L173.680645,76.7806452 C173.893548,78.3774194 176.080645,78.5225806 176.080645,76.316129 C176.080645,74.5064516 174.474194,74.3709677 173.583871,75.3677419 L172.277419,75.1741935 L173.1,70.8096774 L177.358065,70.8096774 L177.358065,72.3096774 L174.319355,72.3096774 L174.067742,73.7419355 C176.641935,72.4548387 178.887097,75.7645161 177.135484,78.1451613 C175.780645,79.983871 172.432258,79.5870968 172.074194,76.9548387 L172.074194,76.9548387 Z" id="Path" fill="#000000"></path>
            <path d="M192.822581,79.1129032 L191.206452,79.1129032 L191.206452,73.0258065 C190.625806,73.5774194 189.929032,73.983871 189.135484,74.2451613 L189.135484,72.783871 C190.025806,72.4935484 191.158065,71.6516129 191.516129,70.6548387 L192.822581,70.6548387 L192.822581,79.1129032 L192.822581,79.1129032 Z" id="Path" fill="#000000"></path>
            <path d="M155.467742,93.8032258 L157.025806,93.6290323 C157.16129,94.7709677 158.264516,94.8096774 158.796774,94.1032258 C159.029032,93.8032258 159.174194,93.1645161 159.241935,92.1967742 C157.954839,93.6870968 155.293548,92.7387097 155.293548,90.1451613 C155.293548,87.2032258 158.554839,86.4483871 160.083871,88.2870968 C161.254839,89.7096774 161.767742,95.9129032 157.829032,95.9129032 C156.474194,95.9129032 155.680645,95.1483871 155.467742,93.8032258 L155.467742,93.8032258 Z M159.096774,90.2709677 C159.096774,88.2677419 156.870968,87.9387097 156.870968,90.1451613 C156.870968,92.2935484 159.096774,92.1870968 159.096774,90.2709677 Z" id="Shape" fill="#000000"></path>
            <path d="M177.503226,94.2677419 L177.503226,95.7580645 L171.851613,95.7580645 C172.170968,92.8064516 175.877419,91.5967742 175.877419,89.7580645 C175.877419,88.3258065 173.777419,88.0548387 173.651613,89.9516129 L172.045161,89.7967742 C172.383871,86.6516129 175.76129,87 176.787097,87.9774194 C177.948387,89.0709677 177.570968,90.6290323 176.651613,91.8096774 C176.022581,92.6129032 174.725806,93.5225806 174.3,94.2677419 L177.503226,94.2677419 L177.503226,94.2677419 Z" id="Path" fill="#000000"></path>
            <path d="M59.6612903,12.5322581 L58.0451613,12.5322581 L58.0451613,6.44516129 C57.4645161,6.99677419 56.7677419,7.40322581 55.9741935,7.66451613 L55.9741935,6.20322581 C56.8645161,5.91290323 57.9967742,5.07096774 58.3548387,4.07419355 L59.6612903,4.07419355 L59.6612903,12.5322581 Z" id="Path" fill="#000000"></path>
            <path d="M72.2032258,10.3741935 L73.8096774,10.2 C74.0225806,11.8064516 76.2096774,11.9419355 76.2096774,9.73548387 C76.2096774,7.92580645 74.6032258,7.79032258 73.7129032,8.78709677 L72.4064516,8.59354839 L73.2290323,4.22903226 L77.4870968,4.22903226 L77.4870968,5.72903226 L74.4483871,5.72903226 L74.1967742,7.16129032 C76.7709677,5.87419355 79.016129,9.18387097 77.2645161,11.5645161 C75.9096774,13.4032258 72.5612903,13.0064516 72.2032258,10.3741935 L72.2032258,10.3741935 Z" id="Path" fill="#000000"></path>
            <path d="M94.2774194,11.0419355 L94.2774194,12.5322581 L88.6258065,12.5322581 C88.9451613,9.58064516 92.6516129,8.37096774 92.6516129,6.53225806 C92.6516129,5.1 90.5516129,4.83870968 90.4258065,6.72580645 L88.8193548,6.57096774 C89.1580645,3.42580645 92.5354839,3.77419355 93.5612903,4.7516129 C94.7225806,5.83548387 94.3451613,7.40322581 93.4258065,8.58387097 C92.8064516,9.38709677 91.5,10.2967742 91.0741935,11.0419355 L94.2774194,11.0419355 Z" id="Path" fill="#000000"></path>
            <path d="M58.6935484,29.1774194 L58.6935484,27.483871 L55.2677419,27.483871 L55.2677419,26.0806452 L58.9064516,20.7290323 L60.2612903,20.7290323 L60.2612903,26.0709677 L61.3064516,26.0709677 L61.3064516,27.483871 L60.2612903,27.483871 L60.2612903,29.1774194 L58.6935484,29.1774194 Z M58.6935484,26.0709677 L58.6935484,23.2064516 L56.7774194,26.0709677 L58.6935484,26.0709677 Z" id="Shape" fill="#000000"></path>
            <path d="M77.6419355,22.8290323 L76.083871,22.9935484 C75.9483871,21.8322581 74.8258065,21.8322581 74.2935484,22.5193548 C74.0612903,22.8193548 73.916129,23.4580645 73.8580645,24.4258065 C75.1451613,22.9064516 77.7967742,23.9129032 77.7967742,26.4677419 C77.7967742,29.4387097 74.5258065,30.1741935 73.0064516,28.3354839 C71.8258065,26.9032258 71.3322581,20.7193548 75.2612903,20.7193548 C76.5774194,20.7193548 77.4193548,21.5032258 77.6419355,22.8290323 Z M73.9935484,26.3419355 C73.9935484,28.3645161 76.2193548,28.683871 76.2193548,26.4870968 C76.2193548,24.3 73.9935484,24.4451613 73.9935484,26.3419355 Z" id="Shape" fill="#000000"></path>
            <path d="M88.7806452,26.9419355 L90.3387097,26.7580645 C90.5612903,28.5193548 92.7,28.3451613 92.7,26.583871 C92.7,25.4322581 91.9258065,25.083871 90.8516129,25.383871 L91.0258065,24.0774194 C92.7870968,24.1258065 92.7096774,22.0548387 91.4419355,22.0548387 C90.8129032,22.0548387 90.4548387,22.5387097 90.3774194,23.1870968 L88.8967742,22.9354839 C89.5935484,19.4903226 93.9870968,20.4677419 93.9870968,22.8870968 C93.9870968,23.6225806 93.5806452,24.2225806 92.7677419,24.6580645 C95.3516129,25.2193548 94.6741935,29.3322581 91.5387097,29.3322581 C90.0483871,29.3322581 88.9451613,28.4032258 88.7806452,26.9419355 L88.7806452,26.9419355 Z" id="Path" fill="#000000"></path>
            <path d="M55.5387097,39.0096774 L55.5387097,37.5193548 L61.0548387,37.5193548 L61.0548387,38.6903226 C59.4290323,40.2967742 58.2096774,43.4903226 58.2290323,45.8225806 L56.6709677,45.8225806 C56.7290323,43.4419355 57.716129,40.8870968 59.2064516,39.0096774 L55.5387097,39.0096774 Z" id="Path" fill="#000000"></path>
            <path d="M88.8870968,43.8677419 L90.4451613,43.6935484 C90.5806452,44.8451613 91.683871,44.8741935 92.216129,44.1677419 C92.4483871,43.8677419 92.5935484,43.2290323 92.6612903,42.2612903 C91.3741935,43.7516129 88.7129032,42.8032258 88.7129032,40.2096774 C88.7129032,37.2677419 91.9741935,36.5129032 93.5032258,38.3516129 C94.6741935,39.7741935 95.1870968,45.9774194 91.2483871,45.9774194 C89.8935484,45.9774194 89.1,45.2129032 88.8870968,43.8677419 L88.8870968,43.8677419 Z M92.516129,40.3354839 C92.516129,38.3322581 90.2903226,38.0032258 90.2903226,40.2096774 C90.2903226,42.3580645 92.516129,42.2516129 92.516129,40.3354839 Z" id="Shape" fill="#000000"></path>
            <path d="M94.5774194,139.770968 L93.0193548,139.964516 C92.8064516,138.193548 90.6580645,138.367742 90.6580645,140.129032 C90.6580645,141.280645 91.4322581,141.629032 92.516129,141.329032 L92.3322581,142.635484 C90.5709677,142.587097 90.6483871,144.658065 91.9258065,144.658065 C92.5548387,144.658065 92.9129032,144.174194 92.9806452,143.525806 L94.4612903,143.787097 C93.7645161,147.222581 89.3806452,146.254839 89.3806452,143.825806 C89.3806452,143.090323 89.7774194,142.5 90.5903226,142.054839 C88.0064516,141.503226 88.683871,137.390323 91.8193548,137.390323 C93.3096774,137.390323 94.4129032,138.309677 94.5774194,139.770968 Z" id="Path" fill="#000000"></path>
            <path d="M61.2483871,144.348387 L61.2483871,145.848387 L55.7225806,145.848387 L55.7225806,144.667742 C57.3580645,143.070968 58.5677419,139.867742 58.5580645,137.545161 L60.1064516,137.545161 C60.0483871,139.925806 59.0612903,142.480645 57.5709677,144.348387 L61.2483871,144.348387 Z" id="Path" fill="#000000"></path>
            <path d="M89.0806452,122.390323 L89.0806452,120.9 L94.7322581,120.9 C94.4225806,123.851613 90.7064516,125.051613 90.7064516,126.890323 C90.7064516,128.322581 92.816129,128.593548 92.9419355,126.696774 L94.5483871,126.86129 C94.2096774,129.996774 90.8225806,129.648387 89.7967742,128.680645 C88.6354839,127.587097 89.0129032,126.019355 89.9322581,124.848387 C90.5612903,124.045161 91.8580645,123.135484 92.2935484,122.390323 L89.0806452,122.390323 L89.0806452,122.390323 Z" id="Path" fill="#000000"></path>
            <path d="M73.7709677,120.9 L75.3774194,120.9 L75.3774194,126.987097 C75.9677419,126.435484 76.6548387,126.019355 77.4580645,125.758065 L77.4580645,127.229032 C76.5677419,127.519355 75.4354839,128.351613 75.0774194,129.348387 L73.7709677,129.348387 L73.7709677,120.9 L73.7709677,120.9 Z" id="Path" fill="#000000"></path>
            <path d="M61.1806452,122.845161 L59.6225806,123.019355 C59.4870968,121.877419 58.383871,121.83871 57.8516129,122.545161 C57.6290323,122.854839 57.4741935,123.493548 57.416129,124.451613 C58.7032258,122.96129 61.3645161,123.909677 61.3645161,126.503226 C61.3645161,129.445161 58.0935484,130.209677 56.5645161,128.36129 C55.3935484,126.93871 54.8806452,120.745161 58.8193548,120.745161 C60.1741935,120.745161 60.9677419,121.5 61.1806452,122.845161 L61.1806452,122.845161 Z M57.5516129,126.377419 C57.5516129,128.380645 59.7774194,128.709677 59.7774194,126.512903 C59.7774194,124.354839 57.5516129,124.470968 57.5516129,126.377419 Z" id="Shape" fill="#000000"></path>
            <path d="M94.5096774,106.412903 L92.9032258,106.577419 C92.7,104.980645 90.5032258,104.845161 90.5032258,107.051613 C90.5032258,108.851613 92.1096774,108.987097 93.0096774,108 L94.316129,108.183871 L93.4935484,112.558065 L89.2258065,112.558065 L89.2258065,111.048387 L92.2645161,111.048387 L92.516129,109.616129 C89.9419355,110.903226 87.6967742,107.593548 89.4483871,105.212903 C90.8032258,103.374194 94.1516129,103.780645 94.5096774,106.412903 L94.5096774,106.412903 Z" id="Path" fill="#000000"></path>
            <path d="M72.4258065,110.603226 L73.9935484,110.429032 C74.1290323,111.590323 75.2516129,111.6 75.7741935,110.912903 C76.0064516,110.603226 76.1612903,109.964516 76.2193548,108.996774 C74.9612903,110.487097 72.2709677,109.558065 72.2709677,106.954839 C72.2709677,105.319355 73.2967742,104.1 74.9806452,104.1 C77.3516129,104.1 77.8935484,106.403226 77.8935484,108.33871 C77.8935484,110.4 77.3032258,112.703226 74.816129,112.703226 C73.4709677,112.703226 72.6483871,111.9 72.4258065,110.603226 L72.4258065,110.603226 Z M75.716129,105.86129 C75.2903226,105.358065 74.6032258,105.251613 74.1483871,105.783871 C73.7225806,106.287097 73.7516129,107.641935 74.1677419,108.145161 C74.5935484,108.648387 75.3290323,108.648387 75.7548387,108.154839 C76.2290323,107.622581 76.1709677,106.403226 75.716129,105.86129 L75.716129,105.86129 Z" id="Shape" fill="#000000"></path>
            <path d="M58.083871,104.254839 L58.083871,105.93871 L61.5096774,105.93871 L61.5096774,107.341935 L57.8806452,112.693548 L56.5258065,112.693548 L56.5258065,107.351613 L55.4806452,107.351613 L55.4806452,105.93871 L56.5258065,105.93871 L56.5258065,104.254839 L58.083871,104.254839 L58.083871,104.254839 Z M58.083871,107.351613 L58.083871,110.225806 L60.0096774,107.351613 L58.083871,107.351613 Z" id="Shape" fill="#000000"></path>
            <path d="M57.0774194,90.9967742 C55.5193548,90.3387097 55.6354839,88.5580645 56.5451613,87.7064516 C57.4258065,86.8741935 59.3709677,86.8741935 60.2612903,87.7064516 C61.2290323,88.6064516 61.2096774,90.3677419 59.7677419,90.9967742 C61.6258065,91.7516129 61.4806452,93.9483871 60.4548387,94.9645161 C59.4774194,95.9322581 57.6290323,95.9322581 56.5741935,95.0903226 C55.3354839,94.1225806 55.2290323,91.7903226 57.0774194,90.9967742 L57.0774194,90.9967742 Z M58.4032258,90.4064516 C59.4,90.4064516 59.7193548,89.2258065 59.1387097,88.6451613 C58.7709677,88.2774194 58.0548387,88.2774194 57.6870968,88.6451613 C57.1064516,89.2258065 57.416129,90.4064516 58.4032258,90.4064516 Z M58.4516129,94.4032258 C59.6419355,94.4032258 59.9225806,92.7580645 59.2645161,92.0419355 C58.8193548,91.5677419 57.9387097,91.5387097 57.5516129,92.0903226 C56.9516129,92.9419355 57.2806452,94.4032258 58.4516129,94.4032258 Z" id="Shape" fill="#000000"></path>
            <path d="M73.6741935,41.3516129 C72.1258065,40.6935484 72.2322581,38.9129032 73.1419355,38.0516129 C74.0322581,37.2193548 75.9677419,37.2290323 76.8677419,38.0516129 C77.8354839,38.9612903 77.8064516,40.7225806 76.3645161,41.3516129 C78.2322581,42.0967742 78.0870968,44.3032258 77.0516129,45.3193548 C76.0741935,46.2870968 74.2258065,46.2774194 73.1709677,45.4451613 C71.9419355,44.4677419 71.8354839,42.1451613 73.6741935,41.3516129 L73.6741935,41.3516129 Z M75.0096774,40.7516129 C75.9967742,40.7516129 76.316129,39.5806452 75.7354839,39 C75.3677419,38.6225806 74.6516129,38.6225806 74.283871,39 C73.7129032,39.5806452 74.0129032,40.7516129 75.0096774,40.7516129 Z M75.0483871,44.7580645 C76.2387097,44.7580645 76.5193548,43.1032258 75.8709677,42.3967742 C75.4258065,41.9129032 74.5451613,41.883871 74.1483871,42.4451613 C73.5580645,43.2967742 73.8870968,44.7580645 75.0483871,44.7580645 Z" id="Shape" fill="#000000"></path>
            <path d="M106.964516,74.6419355 C105.416129,73.983871 105.522581,72.2032258 106.432258,71.3419355 C107.322581,70.5096774 109.258065,70.5193548 110.158065,71.3419355 C111.125806,72.2516129 111.096774,74.0129032 109.654839,74.6419355 C111.522581,75.3870968 111.377419,77.5935484 110.341935,78.6096774 C109.364516,79.5774194 107.516129,79.5677419 106.46129,78.7354839 C105.232258,77.7580645 105.125806,75.4354839 106.964516,74.6419355 L106.964516,74.6419355 Z M108.3,74.0419355 C109.287097,74.0419355 109.606452,72.8709677 109.025806,72.2903226 C108.658065,71.9129032 107.941935,71.9129032 107.574194,72.2903226 C107.003226,72.8709677 107.303226,74.0419355 108.3,74.0419355 Z M108.33871,78.0483871 C109.529032,78.0483871 109.809677,76.3935484 109.16129,75.6870968 C108.716129,75.2032258 107.835484,75.1741935 107.43871,75.7354839 C106.848387,76.5870968 107.177419,78.0483871 108.33871,78.0483871 Z" id="Shape" fill="#000000"></path>
            <path d="M190.190323,91.2870968 C188.641935,90.6290323 188.748387,88.8483871 189.658065,87.9870968 C190.548387,87.1548387 192.483871,87.1645161 193.383871,87.9870968 C194.351613,88.8967742 194.322581,90.6580645 192.880645,91.2870968 C194.748387,92.0322581 194.603226,94.2387097 193.567742,95.2548387 C192.590323,96.2225806 190.741935,96.2129032 189.687097,95.3806452 C188.458065,94.4032258 188.351613,92.0806452 190.190323,91.2870968 L190.190323,91.2870968 Z M191.525806,90.6870968 C192.512903,90.6870968 192.832258,89.516129 192.251613,88.9354839 C191.883871,88.5580645 191.167742,88.5580645 190.8,88.9354839 C190.229032,89.516129 190.529032,90.6870968 191.525806,90.6870968 Z M191.564516,94.6935484 C192.754839,94.6935484 193.035484,93.0387097 192.387097,92.3322581 C191.941935,91.8483871 191.06129,91.8193548 190.664516,92.3806452 C190.074194,93.2322581 190.403226,94.6935484 191.564516,94.6935484 Z" id="Shape" fill="#000000"></path>
            <path d="M76.3935484,142.006452 C77.9419355,142.674194 77.8354839,144.454839 76.9258065,145.306452 C76.0354839,146.13871 74.1,146.129032 73.2096774,145.306452 C72.2419355,144.406452 72.2612903,142.645161 73.7032258,142.006452 C71.8451613,141.26129 71.9806452,139.064516 73.016129,138.03871 C73.9935484,137.080645 75.8419355,137.080645 76.8967742,137.912903 C78.1354839,138.890323 78.2419355,141.222581 76.3935484,142.006452 L76.3935484,142.006452 Z M75.0677419,142.606452 C74.0709677,142.606452 73.7516129,143.777419 74.3322581,144.367742 C74.7,144.735484 75.416129,144.735484 75.783871,144.367742 C76.3645161,143.777419 76.0548387,142.606452 75.0677419,142.606452 Z M75.0193548,138.6 C73.8290323,138.6 73.5483871,140.254839 74.2064516,140.96129 C74.6419355,141.445161 75.5322581,141.474194 75.9193548,140.912903 C76.5193548,140.070968 76.1806452,138.6 75.0193548,138.6 L75.0193548,138.6 Z" id="Shape" fill="#000000"></path>
        </g>
    </g>
</svg>