<?xml version="1.0" encoding="UTF-8"?>
<svg width="96px" height="100px" viewBox="0 0 96 100" version="1.1" xmlns="http://www.w3.org/2000/svg" xmlns:xlink="http://www.w3.org/1999/xlink">
    <title>sudoku_6</title>
    <g id="Sudoku" stroke="none" stroke-width="1" fill="none" fill-rule="evenodd">
        <g id="sudoku_6" fill-rule="nonzero">
            <polygon id="Path" fill="#000000" points="0.101647059 23.0224719 41.6188235 0.101123596 95.2094118 10.3707865 95.1755294 65.8089888 62.0724706 99.8089888 9.54352941 79.6067416"></polygon>
            <polygon id="Path" fill="#424242" points="51.6931765 23.4382022 70.1364706 28.0449438 57.6677647 37.3483146 38.5468235 32.1910112"></polygon>
            <polygon id="Path" fill="#424242" points="64.6475294 14.7865169 83.0456471 18.6516854 71.4804706 26.988764 52.9807059 22.7078652"></polygon>
            <polygon id="Path" fill="#424242" points="76.2127059 7.07865169 93.696 10.4382022 83.9717647 17.7977528 65.9237647 14.0224719"></polygon>
            <polygon id="Path" fill="#424242" points="58.1195294 3.69662921 74.3717647 6.75280899 63.9811765 13.6179775 47.4352941 10.247191"></polygon>
            <polygon id="Path" fill="#424242" points="46.2268235 11.0561798 63.0098824 14.3707865 51.072 22.3370787 33.9614118 18.3820225"></polygon>
            <polygon id="Path" fill="#424242" points="32.7190588 19.2022472 49.7731765 23.1235955 36.9091765 31.9101124 19.392 27.494382"></polygon>
            <polygon id="Path" fill="#424242" points="15.5407059 15.1573034 31.1717647 18.741573 17.472 26.8539326 1.56988235 22.7977528"></polygon>
            <polygon id="Path" fill="#424242" points="29.3421176 7.51685393 44.6456471 10.6404494 32.4705882 17.9213483 16.9750588 14.2359551"></polygon>
            <polygon id="Path" fill="#424242" points="41.6414118 0.584269663 56.5383529 3.3258427 45.7976471 9.93258427 30.4941176 6.82022472"></polygon>
            <polygon id="Path" fill="#424242" points="37.9934118 33.9438202 57.0014118 38.9550562 58.1985882 59.1685393 39.6536471 53.5505618"></polygon>
            <polygon id="Path" fill="#424242" points="18.5562353 28.6853933 36.0282353 33.247191 38.0724706 53 21.1425882 47.7977528"></polygon>
            <polygon id="Path" fill="#424242" points="0.734117647 24.0898876 16.7830588 28.1348315 19.4145882 47.2921348 3.84 42.505618"></polygon>
            <polygon id="Path" fill="#424242" points="40.2522353 55.3932584 58.3792941 61.1011236 59.6781176 79.7977528 42.0141176 73.4831461"></polygon>
            <polygon id="Path" fill="#424242" points="21.5152941 49.7752809 38.2983529 54.8426966 40.1054118 72.8426966 23.8305882 67.2247191"></polygon>
            <polygon id="Path" fill="#424242" points="4.21270588 44.247191 19.6969412 49.0898876 22.1025882 66.5393258 7.12658824 61.4269663"></polygon>
            <polygon id="Path" fill="#424242" points="42.2512941 75.3707865 59.8249412 81.5393258 60.9317647 98.8089888 43.8663529 92.1348315"></polygon>
            <polygon id="Path" fill="#424242" points="24.0564706 69.0224719 40.4781176 74.7752809 42.1383529 91.5280899 26.2362353 85.2247191"></polygon>
            <polygon id="Path" fill="#424242" points="7.44282353 63.0786517 22.3397647 68.3707865 24.7002353 84.7191011 10.0404706 79.0561798"></polygon>
            <polygon id="Path" fill="#424242" points="58.9101176 38.6853933 71.3901176 29.247191 71.9887059 48.988764 60.0621176 59.0337079"></polygon>
            <polygon id="Path" fill="#424242" points="72.7454118 28.2247191 83.7910588 19.8539326 84.0169412 38.8651685 73.2988235 47.8876404"></polygon>
            <polygon id="Path" fill="#424242" points="84.9656471 19.0224719 94.7124706 11.7078652 94.7576471 29.7078652 85.2367059 37.7191011"></polygon>
            <polygon id="Path" fill="#424242" points="60.3896471 61.011236 71.9887059 50.6966292 72.7341176 68.741573 61.3609412 79.6067416"></polygon>
            <polygon id="Path" fill="#424242" points="73.3891765 49.7303371 84.1637647 40.5168539 84.3896471 58.1123596 73.9425882 67.7752809"></polygon>
            <polygon id="Path" fill="#424242" points="85.2818824 39.6516854 94.7124706 31.494382 94.6672941 48.2134831 85.4287059 57.2359551"></polygon>
            <polygon id="Path" fill="#424242" points="61.4512941 81.3146067 72.96 70.5393258 73.6602353 87.247191 62.4677647 98.7191011"></polygon>
            <polygon id="Path" fill="#424242" points="74.1345882 69.7078652 84.48 59.7191011 84.7171765 75.8764045 74.688 86.1910112"></polygon>
            <polygon id="Path" fill="#424242" points="85.4964706 58.7078652 94.7463529 49.8651685 94.7011765 65.7078652 85.6432941 74.8651685"></polygon>
            <path d="M62.9082353,21.2134831 L65.0992941,21.5617978 C64.7943529,21.8202247 64.6814118,22.0561798 64.7717647,22.258427 C65.4607059,23.8764045 71.9322353,21.2134831 67.0305882,20.8426966 L68.4875294,20.0674157 C69.1425882,20.2359551 71.8983529,20.2247191 71.5369412,19.2808989 C71.232,18.494382 69.0861176,18.9775281 68.4762353,19.3146067 L66.7934118,18.7191011 C70.848,16.7752809 75.7157647,18.6516854 73.4230588,20.1910112 C72.7341176,20.6629213 71.6611765,20.9213483 70.2042353,20.9550562 C73.0277647,22.0674157 68.3181176,24.4606742 64.2522353,23.5393258 C63.0324706,23.258427 61.4174118,22.4719101 62.9082353,21.2134831 L62.9082353,21.2134831 Z" id="Path" fill="#FFFFFF"></path>
            <path d="M56.64,8.51685393 L58.56,8.78651685 C57.5096471,9.6741573 59.8588235,10.2022472 61.6094118,9.06741573 C62.3435294,8.58426966 62.4,8.16853933 61.4625882,7.97752809 C60.9430588,7.87640449 60.3218824,7.88764045 59.5877647,8.02247191 L58.2889412,7.64044944 L62.6936471,5.5505618 L67.4371765,6.48314607 L66.24,7.26966292 L62.8517647,6.59550562 L61.4287059,7.28089888 C65.3590588,7.19101124 65.1557647,9.40449438 61.3044706,10.258427 C58.56,10.8651685 54.8329412,10.0561798 56.64,8.51685393 L56.64,8.51685393 Z" id="Path" fill="#FFFFFF"></path>
            <path d="M54.2682353,15.7865169 L52.2804706,15.4494382 C53.4663529,14.4719101 51.2414118,14.5280899 50.6315294,14.6516854 C50.0781176,14.7752809 49.3327059,15.1123596 48.3952941,15.6741573 C50.3152941,15.3033708 53.9858824,16.1348315 51.1623529,18.011236 C49.5811765,19.0674157 47.2658824,19.4044944 45.4249412,18.9662921 C42.5336471,18.2696629 44.2955294,16.6292135 45.8428235,15.5955056 C48.0451765,14.1348315 50.7218824,13.2134831 53.376,13.8426966 C54.5392941,14.1235955 55.4089412,14.7303371 54.2682353,15.7865169 L54.2682353,15.7865169 Z M46.1590588,17.6966292 C46.2155294,18.3483146 47.4691765,18.2696629 47.9209412,18.1910112 C48.5872941,18.0561798 51.1962353,16.741573 49.4230588,16.3146067 C48.5985882,16.1123596 46.0574118,16.7752809 46.1590588,17.6966292 L46.1590588,17.6966292 Z" id="Shape" fill="#FFFFFF"></path>
            <path d="M33.8258824,24.1685393 C32.5609412,22.8764045 36.4912941,21.2359551 39.5858824,22.3370787 C42.6578824,23.4269663 39.8456471,25.4719101 36.7736471,25.2134831 C38.3548235,26.752809 33.4531765,28.7078652 30.1891765,27.5393258 C26.2362353,26.1348315 30.9797647,23.9325843 33.8258824,24.1685393 L33.8258824,24.1685393 Z M35.9378824,24.3258427 C37.4061176,24.8539326 39.6649412,23.6404494 38.1967059,23.1123596 C36.7736471,22.6067416 34.4244706,23.7865169 35.9378824,24.3258427 Z M31.8381176,25.4269663 C30.0310588,26.4157303 31.68,27 32.8771765,26.8539326 C33.6903529,26.7640449 36.2202353,25.6966292 34.5487059,25.1011236 C33.7242353,24.8089888 32.5948235,25.011236 31.8381176,25.4269663 L31.8381176,25.4269663 Z" id="Shape" fill="#FFFFFF"></path>
            <path d="M27.072,14.3258427 L28.7435294,13.4269663 L24.9487059,12.5842697 L26.3378824,11.8426966 L35.6442353,9.92134831 L37.1463529,10.258427 L31.872,13.0786517 L33.024,13.3370787 L31.6348235,14.0786517 L30.4828235,13.8202247 L28.8112941,14.7078652 L27.072,14.3258427 Z M30.144,12.6853933 L32.9788235,11.1685393 L28.0094118,12.2134831 L30.144,12.6853933 L30.144,12.6853933 Z" id="Shape" fill="#FFFFFF"></path>
            <path d="M24.5534118,42.4606742 L26.7783529,42.8539326 C27.0042353,44.0786517 28.4385882,45.2696629 29.3534118,44.2359551 C29.6583529,43.8988764 29.8051765,43.0674157 29.8051765,41.7303371 C28.3708235,43.0674157 26.1345882,41.5280899 25.1632941,40.3370787 C24.0564706,38.9550562 23.1642353,35.9550562 24.8244706,34.6629213 C26.6767059,33.2022472 29.4889412,35.0449438 30.6296471,36.5842697 C32.0075294,38.4719101 33.0465882,44.0786517 31.2395294,45.8426966 C29.6696471,47.3707865 25.4230588,46.3033708 24.5534118,42.4606742 L24.5534118,42.4606742 Z M26.5185882,36.3932584 C25.6376471,37.247191 26.3830588,40.1011236 27.9755294,40.5505618 C29.5002353,40.988764 29.6696471,39.1235955 29.2178824,38.0449438 C28.6644706,36.7078652 27.3769412,35.5505618 26.5185882,36.3932584 L26.5185882,36.3932584 Z" id="Shape" fill="#FFFFFF"></path>
            <path d="M45.9670588,68.8539326 L48.2710588,69.1910112 C48.4517647,70.1348315 49.1407059,71.0449438 50.1007059,71.2921348 C52.0771765,71.7640449 51.9642353,68.7191011 51.0607059,67.5955056 C50.3152941,66.6629213 48.9374118,66.2808989 47.9774118,67.1460674 L46.08,66.4269663 L46.8254118,60.5505618 L52.9807059,62.0561798 L53.1275294,64.1797753 L48.7454118,63.1011236 L48.5195294,65.0337079 C51.2752941,64.3483146 53.8842353,67.3033708 54.0649412,69.9213483 C54.4376471,75.0898876 46.9496471,73.7191011 45.9670588,68.8539326 Z" id="Path" fill="#FFFFFF"></path>
            <path d="M32.6061176,66.1797753 L30.4941176,65.6629213 L29.9407059,57.8539326 C29.2178824,58.3707865 28.3482353,58.6741573 27.3204706,58.752809 L27.1849412,56.8651685 C28.3482353,56.7865169 29.7374118,56.0674157 30.1214118,54.9101124 L31.8381176,55.3258427 L32.6061176,66.1797753 L32.6061176,66.1797753 Z" id="Path" fill="#FFFFFF"></path>
            <path d="M15.7665882,53.2696629 L13.8917647,52.8651685 C13.7110588,52.1573034 13.3270588,51.5280899 12.5929412,51.2921348 C11.1134118,50.8089888 11.3505882,53.0337079 11.4183529,53.8314607 C12.5703529,52.5505618 14.6145882,54.2359551 15.3712941,55.1910112 C16.3087059,56.3707865 17.4042353,59.2134831 16.0489412,60.4269663 C14.5694118,61.7752809 11.9604706,59.7752809 11.0682353,58.5617978 C9.87105882,56.9101124 8.49317647,51.6853933 9.93882353,50.0337079 C11.2941176,48.4831461 14.7952941,49.8539326 15.7665882,53.2696629 L15.7665882,53.2696629 Z M11.9265882,56.3707865 C12.0621176,57.3483146 12.6607059,58.6404494 13.6771765,58.9775281 C15.3712941,59.5168539 14.6484706,56.5393258 14.0724706,55.752809 C13.1689412,54.5393258 11.6555294,54.4382022 11.9265882,56.3707865 Z" id="Shape" fill="#FFFFFF"></path>
            <path d="M52.0432941,91.6516854 L51.8625882,89.4494382 L47.3110588,88.1797753 L47.1529412,86.3595506 L51.4108235,80.7752809 L53.2065882,81.2808989 L53.7825882,88.2134831 L55.1717647,88.5955056 L55.3185882,90.4269663 L53.9294118,90.0337079 L54.1214118,92.2247191 L52.0432941,91.6516854 L52.0432941,91.6516854 Z M51.7044706,87.6292135 L51.3995294,83.8988764 L49.152,86.9101124 L51.7044706,87.6292135 L51.7044706,87.6292135 Z" id="Shape" fill="#FFFFFF"></path>
            <path d="M36.3557647,83.8764045 L36.5477647,85.7191011 L29.3985882,83.2022472 C29.3985882,81.4269663 30.5167059,80.6404494 31.9171765,79.7752809 C33.1934118,78.988764 34.5487059,78.0224719 33.2385882,76.4494382 C32.4931765,75.5505618 30.8442353,75 30.912,76.8539326 L28.8564706,75.9325843 C28.8790588,72.0561798 33.3741176,74.3370787 34.6390588,75.8089888 C35.4635294,76.7752809 36.0734118,78.1685393 35.6329412,79.4382022 C35.0569412,81.1123596 32.9110588,81.4494382 32.2898824,82.4494382 L36.3557647,83.8764045 L36.3557647,83.8764045 Z" id="Path" fill="#FFFFFF"></path>
            <path d="M14.4,72.5842697 C13.3270588,71.741573 11.8927059,69.3483146 13.3270588,68.3146067 C14.5016471,67.4719101 16.8282353,68.9438202 17.5849412,69.8764045 C18.3755294,70.8426966 19.4145882,73.505618 17.472,73.7078652 C18.7934118,74.7191011 20.4423529,77.5955056 18.8047059,78.8651685 C17.5510588,79.8539326 15.2583529,78.3595506 14.3887059,77.3932584 C13.3609412,76.2696629 11.9943529,72.8202247 14.4,72.5842697 L14.4,72.5842697 Z M14.5581176,70.7303371 C14.7388235,72.3932584 17.0315294,73.258427 16.8395294,71.5617978 C16.6701176,70.0224719 14.3661176,68.9662921 14.5581176,70.7303371 Z M15.4164706,76.5168539 C15.7665882,77.011236 16.7378824,77.7977528 17.3251765,77.2359551 C18.1270588,76.4831461 17.1670588,74.4044944 16.0376471,73.988764 C14.4112941,73.3932584 14.7952941,75.6741573 15.4164706,76.5168539 L15.4164706,76.5168539 Z" id="Shape" fill="#FFFFFF"></path>
            <path d="M79.0023529,38.9438202 L78.9232941,36.5730337 L75.8738824,39.3483146 L75.8174118,37.3820225 L78.7877647,26.9101124 L79.9849412,25.8202247 L80.2447059,33.3258427 L81.1708235,32.4719101 L81.2385882,34.4494382 L80.3011765,35.3033708 L80.3802353,37.6741573 L79.0023529,38.9438202 L79.0023529,38.9438202 Z M78.8555294,34.5955056 L78.72,30.5617978 L77.1501176,36.1460674 L78.8555294,34.5955056 L78.8555294,34.5955056 Z" id="Shape" fill="#FFFFFF"></path>
            <path d="M65.3251765,65.4157303 C63.5068235,65.8426966 63.8004706,61.1235955 66.3303529,58.8089888 C68.7134118,56.6292135 68.928,59.8202247 68.4536471,61.5393258 C68.2842353,62.1348315 68.0470588,62.6966292 67.7195294,63.2247191 C69.9896471,62.5955056 69.312,68.5955056 66.8047059,70.8988764 C64.0715294,73.4044944 63.9698824,69.3146067 64.4216471,67.5280899 C64.6023529,66.7977528 64.9072941,66.1011236 65.3251765,65.4157303 L65.3251765,65.4157303 Z M66.4884706,63.4831461 C67.1209412,62.8988764 67.6969412,60.8202247 67.0531765,60.4044944 C66.5449412,60.0786517 65.8898824,61.2359551 65.7656471,61.5955056 C65.5058824,62.258427 65.3251765,64.5393258 66.4884706,63.4831461 Z M65.5849412,68.0561798 C65.664,70.3146067 66.9854118,69.1685393 67.4258824,67.9213483 C67.6404706,67.3146067 67.9002353,65.5393258 67.3242353,65.1011236 C66.3077647,64.3146067 65.5623529,67.2359551 65.5849412,68.0561798 L65.5849412,68.0561798 Z" id="Shape" fill="#FFFFFF"></path>
            <path d="M76.5289412,52.1573034 L76.4950588,50.1910112 L81.1708235,45.988764 L81.1934118,47.5280899 C80.2334118,49.9325843 79.5331765,52.9101124 79.1943529,55.4719101 C79.0023529,56.9101124 78.9232941,58.1123596 78.9345882,59.0898876 L77.6244706,60.2696629 C77.6244706,56.7303371 78.5054118,52.6966292 79.6348235,49.3595506 L76.5289412,52.1573034 L76.5289412,52.1573034 Z" id="Path" fill="#FFFFFF"></path>
            <path d="M87.8795294,48.3595506 L89.1896471,46.9775281 C89.3364706,49.2247191 91.1322353,47.1011236 91.1661176,45.0337079 C91.1887059,43.4044944 90.3868235,43.8988764 89.6414118,44.8764045 L89.8108235,43.0898876 C90.4545882,42.5505618 91.4936471,40.5505618 90.7595294,40.0561798 C89.9689412,39.5393258 89.3364706,41.8651685 89.2912941,42.4269663 L88.0602353,43.1910112 C88.704,38.3932584 92.3632941,36.2921348 92.3068235,39.4157303 C92.2955294,40.3483146 91.9454118,41.3932584 91.2564706,42.5505618 C93.3910588,41.3707865 92.7585882,47.0561798 90.1383529,49.3483146 C88.8395294,50.4831461 87.9811765,50.011236 87.8795294,48.3595506 L87.8795294,48.3595506 Z" id="Path" fill="#FFFFFF"></path>
            <path d="M69.9670588,79.1573034 L68.6343529,80.752809 C68.6004706,80.3595506 68.5214118,80.1348315 68.3745882,80.0786517 C67.8437647,79.8426966 67.2225882,81.3483146 67.1096471,81.6741573 C66.9176471,82.2808989 66.7934118,83.247191 66.7482353,84.5730337 C67.8437647,81.4269663 70.1025882,80.4494382 70.1251765,83.8202247 C70.1364706,85.8988764 69.312,88.4269663 67.8324706,89.9438202 C65.4945882,92.3483146 65.3364706,88.3820225 65.3251765,86.9101124 C65.3138824,84.8764045 65.3929412,83.0898876 65.8672941,81.6966292 C66.2174118,80.6966292 67.8437647,77.3707865 69.2781176,77.7977528 C69.6395294,77.8988764 69.8654118,78.3595506 69.9670588,79.1573034 L69.9670588,79.1573034 Z M66.8724706,86.9775281 C66.8837647,89.6966292 68.7924706,88.0561798 68.7811765,85.2134831 C68.7698824,82.2808989 66.8611765,84.5280899 66.8724706,86.9775281 Z" id="Shape" fill="#FFFFFF"></path>
            <path d="M77.2969412,77.1797753 L78.4828235,75.7865169 C78.528,76.1460674 78.6183529,76.3595506 78.7425882,76.4269663 C79.2621176,76.7078652 79.7703529,75.3370787 79.8607059,75.0337079 C80.0188235,74.4831461 80.1091765,73.5955056 80.1091765,72.3707865 C79.1830588,75.2134831 77.1162353,75.988764 77.0032941,72.8539326 C76.9129412,70.5280899 77.2291765,69.0337079 78.9345882,67.3595506 C80.7755294,65.5280899 81.2724706,68.0449438 81.3515294,70.3258427 C81.4531765,72.988764 81.216,75.9662921 79.2056471,77.9550562 C78.0988235,79.0449438 77.5115294,78.5505618 77.2969412,77.1797753 L77.2969412,77.1797753 Z M79.5896471,68.9438202 C79.0362353,68.4606742 78.5054118,69.6629213 78.3811765,70.0337079 C78.1891765,70.6516854 77.9745882,73.8764045 79.1378824,72.7191011 C79.8268235,72.0449438 80.2898824,69.5393258 79.5896471,68.9438202 L79.5896471,68.9438202 Z" id="Shape" fill="#FFFFFF"></path>
            <path d="M88.5458824,65.988764 L89.7882353,64.6404494 C89.9011765,66.3595506 91.584,64.9101124 91.6404706,62.3820225 C91.6517647,61.741573 91.5388235,60.6966292 90.7143529,61.4719101 C90.3529412,61.8089888 90.0254118,62.3370787 89.7430588,63.0786517 L88.7378824,63.7977528 L89.4832941,58.1573034 L92.7585882,55.0898876 L92.7134118,56.8314607 L90.3868235,59.011236 L90.1496471,60.8539326 C91.2112941,59.0898876 92.7698824,58.2247191 92.9054118,61.1573034 C93.0070588,63.2022472 92.1374118,65.6179775 90.6691765,66.7191011 C89.5397647,67.5617978 88.6814118,67.7752809 88.5458824,65.988764 Z" id="Path" fill="#FFFFFF"></path>
            <path d="M44.4536471,19.7078652 C44.4536471,20.1797753 43.2903529,20.1797753 43.2903529,19.7078652 C43.2903529,19.247191 44.4536471,19.247191 44.4536471,19.7078652 Z" id="Path" fill="#FFFFFF"></path>
            <path d="M14.3322353,62.3595506 C14.3322353,63.1573034 13.1689412,62.9775281 13.1689412,62.1685393 C13.1689412,61.3595506 14.3322353,61.5505618 14.3322353,62.3595506 Z" id="Path" fill="#FFFFFF"></path>
            <path d="M29.3421176,48.5730337 C29.3421176,49.4269663 28.1223529,49.2247191 28.1223529,48.3707865 C28.1223529,47.5168539 29.3421176,47.7078652 29.3421176,48.5730337 L29.3421176,48.5730337 Z" id="Path" fill="#FFFFFF"></path>
            <path d="M68.0809412,90.8764045 C68.544,90.7191011 68.6343529,91.3258427 68.3971765,91.6853933 C68.2616471,91.8988764 67.8776471,92.1685393 67.6856471,91.8426966 C67.5049412,91.5505618 67.7647059,90.988764 68.0809412,90.8764045 Z" id="Path" fill="#FFFFFF"></path>
            <path d="M79.8607059,79.0449438 C80.6512941,79.011236 79.9171765,80.505618 79.3750588,80.0561798 C79.0701176,79.8089888 79.3863529,79.0674157 79.8607059,79.0449438 Z" id="Path" fill="#FFFFFF"></path>
            <polygon id="Path" fill="#FFFFFF" points="65.0992941 39.9213483 65.4155294 49.3146067 66.6917647 48.6292135 66.3755294 39.2359551 68.5778824 41.2134831 69.6282353 39.9775281 65.6301176 36.3707865 62.016 44.0561798 63.1115294 44.1460674"></polygon>
            <polygon id="Path" fill="#FFFFFF" points="46.4865882 42.9775281 47.1416471 52.1573034 48.4630588 52.3146067 47.7967059 43.1348315 50.1797647 46.5730337 51.2301176 46.0337079 46.9044706 39.7865169 43.4145882 45.0449438 44.5665882 45.8651685"></polygon>
            <polygon id="Path" fill="#FFFFFF" points="8.89976471 31.6966292 10.2776471 40.4494382 11.5312941 40.6067416 10.1647059 31.8539326 12.6945882 35.1348315 13.6545882 34.6179775 9.04658824 28.6516854 6.15529412 33.6741573 7.31858824 34.4606742"></polygon>
            <polygon id="Path" fill="#FFFFFF" points="89.664 21.7865169 89.6075294 30.2022472 90.7821176 29.5842697 90.8385882 21.1797753 92.736 22.9550562 93.7185882 21.8426966 90.2738824 18.6179775 86.7614118 25.494382 87.7327059 25.5730337"></polygon>
        </g>
    </g>
</svg>