<?xml version="1.0" encoding="UTF-8"?>
<svg width="95px" height="100px" viewBox="0 0 95 100" version="1.1" xmlns="http://www.w3.org/2000/svg" xmlns:xlink="http://www.w3.org/1999/xlink">
    <title>sudoku_1_2</title>
    <g id="Sudoku" stroke="none" stroke-width="1" fill="none" fill-rule="evenodd">
        <g id="sudoku_1_2" fill-rule="nonzero">
            <polygon id="Path" fill="#000000" points="0.135714286 22.6216216 40.8228571 0.135135135 93.3442857 10.2162162 93.3171429 64.5945946 60.8542857 97.9459459 9.39142857 78.1081081"></polygon>
            <polygon id="Path" fill="#424242" points="50.7028571 23.027027 68.78 27.5405405 56.5657143 36.6756757 37.81 31.6216216"></polygon>
            <polygon id="Path" fill="#424242" points="63.3785714 14.5405405 81.4285714 18.3243243 70.0828571 26.5135135 51.9514286 22.2972973"></polygon>
            <polygon id="Path" fill="#424242" points="74.7242857 6.97297297 91.8514286 10.2702703 82.3242857 17.4864865 64.6271429 13.7837838"></polygon>
            <polygon id="Path" fill="#424242" points="57 3.64864865 72.9328571 6.64864865 62.7542857 13.3783784 46.5228571 10.0810811"></polygon>
            <polygon id="Path" fill="#424242" points="45.3285714 10.8918919 61.7771429 14.1351351 50.0785714 21.9459459 33.3314286 18.0540541"></polygon>
            <polygon id="Path" fill="#424242" points="32.11 18.8648649 48.83 22.7027027 36.2085714 31.3513514 19.0271429 27"></polygon>
            <polygon id="Path" fill="#424242" points="15.2814286 14.8918919 30.59 18.4324324 17.1542857 26.3783784 1.57428571 22.4054054"></polygon>
            <polygon id="Path" fill="#424242" points="28.7985714 7.40540541 43.7814286 10.4864865 31.8657143 17.6216216 16.6928571 14"></polygon>
            <polygon id="Path" fill="#424242" points="40.85 0.594594595 55.4528571 3.2972973 44.9214286 9.78378378 29.9114286 6.72972973"></polygon>
            <polygon id="Path" fill="#424242" points="37.2671429 33.3243243 55.8871429 38.2432432 57.0814286 58.0810811 38.8957143 52.5675676"></polygon>
            <polygon id="Path" fill="#424242" points="18.2128571 28.1891892 35.34 32.6486486 37.3485714 52.027027 20.7642857 46.9189189"></polygon>
            <polygon id="Path" fill="#424242" points="0.76 23.6486486 16.4757143 27.6486486 19.0814286 46.4324324 3.8 41.7297297"></polygon>
            <polygon id="Path" fill="#424242" points="39.4928571 54.3783784 57.2442857 59.972973 58.52 78.2972973 41.2028571 72.1081081"></polygon>
            <polygon id="Path" fill="#424242" points="21.1171429 48.8648649 37.5657143 53.8378378 39.33 71.4864865 23.3971429 65.972973"></polygon>
            <polygon id="Path" fill="#424242" points="4.15285714 43.4324324 19.3528571 48.1891892 21.6871429 65.2972973 7.03 60.2972973"></polygon>
            <polygon id="Path" fill="#424242" points="41.4471429 73.972973 58.6557143 80.027027 59.7414286 96.9459459 43.0214286 90.4054054"></polygon>
            <polygon id="Path" fill="#424242" points="23.6142857 67.7297297 39.71 73.3783784 41.3385714 89.8108108 25.7585714 83.6216216"></polygon>
            <polygon id="Path" fill="#424242" points="7.32857143 61.9189189 21.9314286 67.1081081 24.2385714 83.1351351 9.88 77.5675676"></polygon>
            <polygon id="Path" fill="#424242" points="57.76 37.972973 70.0014286 28.7297297 70.5985714 48.0810811 58.9 57.9459459"></polygon>
            <polygon id="Path" fill="#424242" points="71.3314286 27.7297297 82.1614286 19.5135135 82.3785714 38.1621622 71.8742857 47"></polygon>
            <polygon id="Path" fill="#424242" points="83.3014286 18.7027027 92.8557143 11.5135135 92.91 29.1621622 83.5728571 37.027027"></polygon>
            <polygon id="Path" fill="#424242" points="59.2257143 59.8648649 70.5985714 49.7567568 71.3042857 67.4594595 60.1757143 78.1081081"></polygon>
            <polygon id="Path" fill="#424242" points="71.9557143 48.8108108 82.5142857 39.7837838 82.7314286 57.027027 72.4985714 66.5135135"></polygon>
            <polygon id="Path" fill="#424242" points="83.6271429 38.9189189 92.8557143 30.9189189 92.8014286 47.3243243 83.7628571 56.1621622"></polygon>
            <polygon id="Path" fill="#424242" points="60.2571429 79.7837838 71.5485714 69.2162162 72.2271429 85.6216216 61.2614286 96.8648649"></polygon>
            <polygon id="Path" fill="#424242" points="72.6885714 68.4054054 82.84 58.6216216 83.0571429 74.4594595 73.2314286 84.5675676"></polygon>
            <polygon id="Path" fill="#424242" points="83.8171429 57.6216216 92.8828571 48.9459459 92.8285714 64.4864865 83.9528571 73.4594595"></polygon>
            <path d="M48.3685714,29.5675676 L50.3771429,30.0540541 C49.1828571,31.0810811 51.3,31.1891892 52.0057143,31.0540541 C52.5757143,30.9189189 53.3628571,30.5675676 54.3671429,29.9459459 C52.1414286,30.3243243 48.7485714,29.1081081 51.6528571,27.1081081 C53.2814286,25.972973 55.67,25.6486486 57.57,26.2432432 C60.5285714,27.2162162 58.5471429,29.0540541 56.9457143,30.1621622 C54.6928571,31.7297297 51.8971429,32.7297297 49.1557143,31.8648649 C47.8257143,31.4324324 47.1742857,30.7027027 48.3685714,29.5675676 L48.3685714,29.5675676 Z M56.0228571,28.6216216 C57.9771429,27.2972973 55.6157143,26.2702703 53.5257143,27.7027027 C51.2457143,29.2702703 54.4485714,29.7297297 56.0228571,28.6216216 Z" id="Shape" fill="#FFFFFF"></path>
            <path d="M61.6957143,20.8378378 L63.84,21.1891892 C63.5414286,21.4324324 63.4328571,21.6756757 63.5142857,21.8648649 C64.1928571,23.4594595 70.5442857,20.8378378 65.74,20.4864865 L67.1514286,19.7297297 C67.8028571,19.8918919 70.49,19.8648649 70.1371429,18.9459459 C69.8385714,18.1891892 67.7485714,18.6486486 67.1514286,18.972973 L65.4957143,18.4054054 C69.4857143,16.4864865 74.2357143,18.3243243 71.9828571,19.8378378 C71.3314286,20.2972973 70.2728571,20.5405405 68.8342857,20.5945946 C71.6028571,21.6756757 66.9885714,24.027027 62.9985714,23.1351351 C61.8042857,22.8378378 60.23,22.0810811 61.6957143,20.8378378 L61.6957143,20.8378378 Z" id="Path" fill="#FFFFFF"></path>
            <path d="M79.1757143,13.8918919 L77.9271429,14.6756757 L71.2771429,13.2702703 C73.6385714,12 77.2214286,12.0810811 79.8542857,11.4864865 C80.56,11.3513514 82.5685714,10.5675676 80.7771429,10.1621622 C79.8814286,9.97297297 79.0942857,10.1621622 78.3071429,10.5945946 L76.5428571,10.1081081 C78.2257143,9.21621622 80.0985714,9.05405405 81.9442857,9.45945946 C82.9214286,9.67567568 83.4914286,9.94594595 83.6814286,10.3243243 C84.4414286,11.8918919 78.9314286,12.5675676 78.1171429,12.6486486 C77.2214286,12.7567568 76.2714286,12.8648649 75.4028571,13.0810811 L79.1757143,13.8918919 Z" id="Path" fill="#FFFFFF"></path>
            <path d="M55.5342857,8.37837838 L57.4342857,8.64864865 C56.4028571,9.51351351 58.6828571,10.0540541 60.42,8.91891892 C61.1257143,8.45945946 61.18,8.05405405 60.2842857,7.86486486 C59.7685714,7.75675676 59.1442857,7.78378378 58.4385714,7.89189189 L57.1628571,7.54054054 L61.4785714,5.48648649 L66.12,6.40540541 L64.9528571,7.16216216 L61.6414286,6.51351351 L60.23,7.18918919 C64.0842857,7.08108108 63.8942857,9.27027027 60.1214286,10.1081081 C57.4342857,10.7027027 53.77,9.89189189 55.5342857,8.37837838 L55.5342857,8.37837838 Z" id="Path" fill="#FFFFFF"></path>
            <path d="M53.2271429,15.5135135 L51.2728571,15.1891892 C52.44,14.2162162 50.2414286,14.2702703 49.6442857,14.4054054 C49.1285714,14.5135135 48.3957143,14.8648649 47.4728571,15.4054054 C49.3457143,15.0540541 52.9557143,15.8648649 50.1871429,17.7027027 C48.64,18.7297297 46.36,19.0810811 44.5685714,18.6486486 C41.7185714,17.9459459 43.4285714,16.3513514 44.9757143,15.3243243 C47.12,13.8918919 49.7528571,13 52.3314286,13.6216216 C53.4714286,13.8918919 54.34,14.4864865 53.2271429,15.5135135 L53.2271429,15.5135135 Z M45.2742857,17.4054054 C45.3285714,18.027027 46.55,17.9459459 47.0114286,17.8648649 C47.6628571,17.7567568 50.2142857,16.4594595 48.4771429,16.027027 C47.6628571,15.8378378 45.1657143,16.4864865 45.2742857,17.4054054 Z" id="Shape" fill="#FFFFFF"></path>
            <path d="M33.1957143,23.7297297 C31.9471429,22.4864865 35.8014286,20.8648649 38.8414286,21.9459459 C41.8271429,23.027027 39.0857143,25.027027 36.0728571,24.7837838 C37.62,26.2702703 32.8157143,28.1891892 29.6128571,27.0540541 C25.7585714,25.6756757 30.4,23.5135135 33.1957143,23.7297297 Z M35.2585714,23.8918919 C36.6971429,24.4054054 38.9228571,23.2162162 37.4571429,22.7027027 C36.0728571,22.2162162 33.7657143,23.3783784 35.2585714,23.8918919 Z M31.2414286,24.972973 C29.4771429,25.9459459 31.0785714,26.5135135 32.2728571,26.3783784 C33.06,26.2972973 35.53,25.2432432 33.9014286,24.6486486 C33.0871429,24.3783784 31.9742857,24.5675676 31.2414286,24.972973 L31.2414286,24.972973 Z" id="Shape" fill="#FFFFFF"></path>
            <path d="M15.1457143,17.972973 L16.6657143,17.1621622 L23.0171429,18.5675676 L21.8228571,19.2162162 C20.8457143,19.3513514 19.6514286,19.5675676 18.24,19.9189189 C15.9871429,20.4594595 13.3,21.2972973 11.2371429,22.4054054 L9.44571429,22 C12.3771429,20.4864865 16.1228571,19.4864865 19.3528571,18.9189189 L15.1457143,17.972973 L15.1457143,17.972973 Z" id="Path" fill="#FFFFFF"></path>
            <path d="M26.5728571,14.0810811 L28.2014286,13.2162162 L24.4828571,12.3783784 L25.84,11.6486486 L34.96,9.75675676 L36.4528571,10.1081081 L31.2685714,12.8648649 L32.4085714,13.1081081 L31.0514286,13.8378378 L29.9114286,13.5945946 L28.2828571,14.4594595 L26.5728571,14.0810811 Z M29.5857143,12.4864865 L32.3542857,11 L27.4957143,12.027027 L29.5857143,12.4864865 L29.5857143,12.4864865 Z" id="Shape" fill="#FFFFFF"></path>
            <path d="M40.9857143,7.18918919 L39.2485714,6.83783784 L44.0257143,3.72972973 C42.94,3.89189189 41.8814286,3.94594595 40.7957143,3.91891892 C42.56,2.75675676 41.3114286,3.35135135 44.0528571,3.05405405 C47.0657143,2.72972973 44.9757143,2.35135135 47.6357143,2.89189189 L40.9857143,7.18918919 L40.9857143,7.18918919 Z" id="Path" fill="#FFFFFF"></path>
            <path d="M43.3471429,40.6216216 L43.1842857,38.4594595 L51.3271429,40.8378378 L51.4357143,42.5405405 C49.0742857,44.2432432 47.7714286,48.5405405 47.9885714,51.6216216 L45.7085714,50.9459459 C45.5728571,47.8648649 46.55,44.4594595 48.7485714,42.1891892 L43.3471429,40.6216216 L43.3471429,40.6216216 Z" id="Path" fill="#FFFFFF"></path>
            <path d="M24.1028571,41.6756757 L26.2742857,42.0540541 C26.4914286,43.2702703 27.9028571,44.4324324 28.7985714,43.4324324 C29.0971429,43.1081081 29.26,42.2702703 29.2328571,40.972973 C27.8485714,42.2702703 25.65,40.7567568 24.7,39.5945946 C23.6142857,38.2432432 22.7457143,35.2972973 24.3742857,34.027027 C26.1928571,32.5945946 28.9342857,34.4054054 30.0471429,35.9189189 C31.4042857,37.7567568 32.4085714,43.2702703 30.6442857,45 C29.1242857,46.4864865 24.9442857,45.4594595 24.1028571,41.6756757 L24.1028571,41.6756757 Z M26.03,35.7297297 C25.1614286,36.5675676 25.8942857,39.3783784 27.4685714,39.8108108 C28.9342857,40.2432432 29.1242857,38.4054054 28.6628571,37.3513514 C28.12,36.0540541 26.8714286,34.9189189 26.03,35.7297297 L26.03,35.7297297 Z" id="Shape" fill="#FFFFFF"></path>
            <path d="M6.89428571,35.8648649 L8.87571429,36.2702703 C9.47285714,38.7297297 12.1871429,39.3783784 11.8614286,37 C11.6714286,35.5675676 10.7214286,34.6486486 9.25571429,34.6216216 L9.25571429,32.9189189 C11.3457143,33.6486486 10.7757143,31.5135135 10.3142857,30.9459459 C9.52714286,30.027027 8.19714286,29.8918919 8.25142857,31.4324324 L6.29714286,30.4594595 C6.40571429,28.5675676 7.38285714,27.9459459 9.20142857,28.5405405 C12.2414286,29.5135135 14.3042857,33.6756757 11.59,34.4324324 C14.9828571,36.2432432 14.9557143,41.5675676 10.8842857,40.2432432 C8.93,39.6216216 7.38285714,37.8648649 6.89428571,35.8648649 L6.89428571,35.8648649 Z" id="Path" fill="#FFFFFF"></path>
            <path d="M45.0842857,67.5675676 L47.3371429,67.8918919 C47.5271429,68.8378378 48.1785714,69.7297297 49.1285714,69.9459459 C51.0557143,70.4324324 50.9471429,67.4324324 50.0785714,66.3513514 C49.3457143,65.4324324 47.9885714,65.0540541 47.0657143,65.8918919 L45.1928571,65.1891892 L45.9257143,59.4324324 L51.9514286,60.9189189 L52.1142857,62.972973 L47.7985714,61.9459459 L47.5814286,63.8108108 C50.2957143,63.1621622 52.8471429,66.0540541 53.0371429,68.6216216 C53.39,73.7027027 46.0614286,72.3513514 45.0842857,67.5675676 L45.0842857,67.5675676 Z" id="Path" fill="#FFFFFF"></path>
            <path d="M32.0014286,64.9459459 L29.9114286,64.4324324 L29.3685714,56.7837838 C28.6628571,57.2972973 27.8214286,57.5945946 26.8171429,57.6756757 L26.6814286,55.8108108 C27.8214286,55.7297297 29.1785714,55.027027 29.5585714,53.8918919 L31.2414286,54.2972973 L32.0014286,64.9459459 L32.0014286,64.9459459 Z" id="Path" fill="#FFFFFF"></path>
            <path d="M15.4985714,52.2702703 L13.6528571,51.8918919 C13.49,51.1891892 13.0828571,50.5675676 12.3771429,50.3513514 C10.9385714,49.8648649 11.1557143,52.0540541 11.2371429,52.8378378 C12.35,51.5675676 14.3585714,53.2432432 15.0914286,54.1621622 C16.0142857,55.3243243 17.1,58.1081081 15.77,59.2972973 C14.3042857,60.6216216 11.7528571,58.6756757 10.8842857,57.4864865 C9.71714286,55.8648649 8.36,50.7297297 9.77142857,49.1081081 C11.1014286,47.5945946 14.5485714,48.9189189 15.4985714,52.2702703 L15.4985714,52.2702703 Z M11.7257143,55.3243243 C11.8614286,56.2972973 12.4314286,57.5675676 13.4357143,57.8918919 C15.0914286,58.4054054 14.3857143,55.4864865 13.8428571,54.7297297 C12.9471429,53.5135135 11.4542857,53.4324324 11.7257143,55.3243243 Z" id="Shape" fill="#FFFFFF"></path>
            <path d="M51.0285714,89.9189189 L50.8657143,87.7837838 L46.3871429,86.5135135 L46.2514286,84.7297297 L50.4314286,79.2702703 L52.1685714,79.7567568 L52.7385714,86.5675676 L54.0957143,86.9459459 L54.2585714,88.7297297 L52.9014286,88.3513514 L53.0642857,90.5135135 L51.0285714,89.9189189 Z M50.7028571,85.972973 L50.4042857,82.3243243 L48.2057143,85.2702703 L50.7028571,85.972973 L50.7028571,85.972973 Z" id="Shape" fill="#FFFFFF"></path>
            <path d="M35.6657143,82.2972973 L35.8557143,84.1081081 L28.8528571,81.6486486 C28.8528571,79.9189189 29.9385714,79.1351351 31.3228571,78.2972973 C32.5714286,77.5135135 33.9014286,76.5675676 32.6257143,75.027027 C31.8928571,74.1351351 30.2642857,73.5945946 30.3457143,75.4054054 L28.31,74.5135135 C28.3371429,70.7027027 32.7342857,72.9459459 33.9828571,74.4054054 C34.7971429,75.3513514 35.3942857,76.7027027 34.96,77.9459459 C34.39,79.5945946 32.3,79.9189189 31.6757143,80.9189189 L35.6657143,82.2972973 L35.6657143,82.2972973 Z" id="Path" fill="#FFFFFF"></path>
            <path d="M14.1414286,71.2162162 C13.11,70.4054054 11.6985714,68.0540541 13.11,67.0540541 C14.25,66.2162162 16.53,67.6756757 17.2628571,68.5675676 C18.05,69.5135135 19.0542857,72.1351351 17.1542857,72.3243243 C18.4571429,73.3243243 20.0585714,76.1351351 18.4571429,77.4054054 C17.2357143,78.3783784 14.9828571,76.8918919 14.1414286,75.9459459 C13.1371429,74.8378378 11.78,71.4594595 14.1414286,71.2162162 L14.1414286,71.2162162 Z M14.3042857,69.4054054 C14.4942857,71.0540541 16.72,71.8918919 16.5571429,70.2432432 C16.3671429,68.7027027 14.1142857,67.6756757 14.3042857,69.4054054 Z M15.1457143,75.0810811 C15.4985714,75.5675676 16.4485714,76.3513514 17.0185714,75.7837838 C17.8057143,75.0540541 16.8557143,73 15.7428571,72.5945946 C14.1685714,72.027027 14.5214286,74.2702703 15.1457143,75.0810811 L15.1457143,75.0810811 Z" id="Shape" fill="#FFFFFF"></path>
            <path d="M65.5771429,47.5675676 L64.0571429,48.9459459 L63.7585714,39.8918919 C63.2428571,41.2162162 62.6185714,42.4324324 61.8857143,43.5135135 L61.8042857,41.3243243 C62.4285714,40.4054054 63.7585714,37.2162162 63.9214286,36.1351351 L65.1428571,35 L65.5771429,47.5675676 L65.5771429,47.5675676 Z" id="Path" fill="#FFFFFF"></path>
            <path d="M77.4657143,38.2432432 L77.3842857,35.9189189 L74.3985714,38.6486486 L74.3442857,36.7027027 L77.2485714,26.4324324 L78.4157143,25.3513514 L78.66,32.7297297 L79.5828571,31.8918919 L79.6371429,33.8378378 L78.7414286,34.6756757 L78.8228571,37 L77.4657143,38.2432432 L77.4657143,38.2432432 Z M77.3028571,33.972973 L77.1942857,30 L75.6471429,35.4864865 L77.3028571,33.972973 L77.3028571,33.972973 Z" id="Shape" fill="#FFFFFF"></path>
            <path d="M90.63,25.5675676 L90.63,27.5405405 L85.7985714,31.3243243 C86.0157143,27.8918919 87.9971429,25.2162162 88.9742857,22.2162162 C89.1642857,21.6486486 89.7071429,18.8648649 88.35,19.9189189 C87.4542857,20.6216216 87.4,21.3513514 87.3457143,22.4324324 L85.9885714,23.2972973 C86.07,22.0540541 86.3142857,21 86.7485714,20.1621622 C87.1828571,19.3243243 88.92,16.9459459 90.06,17.7027027 C91.3085714,18.5675676 90.3314286,21.7567568 89.9242857,22.8918919 C89.3542857,24.4594595 88.3228571,26.2702703 87.8885714,27.7027027 L90.63,25.5675676 L90.63,25.5675676 Z" id="Path" fill="#FFFFFF"></path>
            <path d="M64.0571429,64.1891892 C62.2657143,64.6216216 62.5642857,59.972973 65.0342857,57.7297297 C67.3685714,55.5675676 67.5857143,58.7027027 67.1242857,60.4054054 C66.9614286,60.972973 66.7171429,61.5405405 66.3914286,62.0540541 C68.6171429,61.4324324 67.9657143,67.3243243 65.4957143,69.5675676 C62.8357143,72.027027 62.7271429,68.027027 63.1614286,66.2702703 C63.3514286,65.5675676 63.65,64.8648649 64.0571429,64.1891892 Z M65.1971429,62.2972973 C65.8214286,61.7297297 66.3642857,59.7027027 65.74,59.2972973 C65.2514286,58.972973 64.6271429,60.1081081 64.4914286,60.4594595 C64.2471429,61.1081081 64.0571429,63.3513514 65.1971429,62.2972973 Z M64.3014286,66.7837838 C64.3828571,69 65.6857143,67.8918919 66.12,66.6486486 C66.3371429,66.0540541 66.5814286,64.3243243 66.0114286,63.8918919 C65.0071429,63.1351351 64.2742857,65.972973 64.3014286,66.7837838 L64.3014286,66.7837838 Z" id="Shape" fill="#FFFFFF"></path>
            <path d="M75.0228571,51.1891892 L74.9957143,49.2702703 L79.5828571,45.1351351 L79.61,46.6486486 C78.66,49.027027 77.9814286,51.9459459 77.6557143,54.4594595 C77.4657143,55.8648649 77.3842857,57.027027 77.3842857,58 L76.1085714,59.1351351 C76.1085714,55.6756757 76.9771429,51.7297297 78.09,48.4594595 L75.0228571,51.1891892 L75.0228571,51.1891892 Z" id="Path" fill="#FFFFFF"></path>
            <path d="M86.1514286,47.4594595 L87.4271429,46.1081081 C87.59,48.3243243 89.3542857,46.2432432 89.3814286,44.2162162 C89.4085714,42.6216216 88.6214286,43.1081081 87.8885714,44.0540541 L88.0514286,42.2972973 C88.6757143,41.7837838 89.7071429,39.8108108 88.9742857,39.3243243 C88.2142857,38.8108108 87.59,41.1081081 87.5357143,41.6486486 L86.3414286,42.4054054 C86.9657143,37.7027027 90.5485714,35.6216216 90.4942857,38.7027027 C90.4942857,39.6216216 90.1414286,40.6486486 89.4628571,41.7567568 C91.5528571,40.6216216 90.9557143,46.1891892 88.3771429,48.4324324 C87.1014286,49.5675676 86.26,49.0810811 86.1514286,47.4594595 L86.1514286,47.4594595 Z" id="Path" fill="#FFFFFF"></path>
            <path d="M68.6171429,77.6756757 L67.3142857,79.2432432 C67.26,78.8648649 67.1785714,78.6486486 67.0428571,78.5675676 C66.5271429,78.3513514 65.9028571,79.8378378 65.7942857,80.1621622 C65.6042857,80.7567568 65.4957143,81.7027027 65.4414286,83 C66.5271429,79.8918919 68.7528571,78.9459459 68.7528571,82.2432432 C68.7528571,84.2972973 67.9657143,86.7567568 66.5271429,88.2432432 C64.22,90.6216216 64.0571429,86.7297297 64.0571429,85.2702703 C64.0571429,83.2972973 64.1114286,81.5405405 64.6,80.1621622 C64.9257143,79.1891892 66.5271429,75.9189189 67.9385714,76.3513514 C68.2914286,76.4324324 68.5085714,76.8918919 68.6171429,77.6756757 L68.6171429,77.6756757 Z M65.5771429,85.3513514 C65.5771429,88.027027 67.45,86.4054054 67.45,83.6216216 C67.4228571,80.7567568 65.5771429,82.9459459 65.5771429,85.3513514 Z" id="Shape" fill="#FFFFFF"></path>
            <path d="M75.7828571,75.7297297 L76.95,74.3783784 C77.0042857,74.7297297 77.0857143,74.9459459 77.2214286,75 C77.71,75.2702703 78.1985714,73.9459459 78.3071429,73.6216216 C78.47,73.0810811 78.5514286,72.2162162 78.5514286,71.027027 C77.6285714,73.8108108 75.62,74.5675676 75.4842857,71.4864865 C75.4028571,69.2162162 75.7285714,67.7567568 77.3842857,66.1081081 C79.2028571,64.3243243 79.6914286,66.7837838 79.7728571,69.027027 C79.8542857,71.6216216 79.6371429,74.5405405 77.6557143,76.4864865 C76.57,77.5675676 76,77.0810811 75.7828571,75.7297297 L75.7828571,75.7297297 Z M78.0357143,67.6486486 C77.4928571,67.1891892 76.9771429,68.3513514 76.8414286,68.7297297 C76.6514286,69.3243243 76.4614286,72.5135135 77.6014286,71.3783784 C78.2528571,70.7027027 78.7142857,68.2432432 78.0357143,67.6486486 Z" id="Shape" fill="#FFFFFF"></path>
            <path d="M86.8028571,64.7567568 L88.0242857,63.4324324 C88.1328571,65.1351351 89.7885714,63.7027027 89.8428571,61.2162162 C89.8428571,60.5945946 89.7342857,59.5675676 88.9471429,60.3243243 C88.5942857,60.6486486 88.2685714,61.1891892 87.97,61.9189189 L86.9928571,62.6216216 L87.7257143,57.0810811 L90.9285714,54.0810811 L90.9014286,55.7837838 L88.6214286,57.9189189 L88.3771429,59.7297297 C89.4357143,58 90.9557143,57.1351351 91.0914286,60.027027 C91.1728571,62.027027 90.3314286,64.4054054 88.8928571,65.4864865 C87.78,66.2972973 86.9385714,66.5135135 86.8028571,64.7567568 L86.8028571,64.7567568 Z" id="Path" fill="#FFFFFF"></path>
            <path d="M43.5914286,19.3783784 C43.5914286,19.8378378 42.4785714,19.8378378 42.4785714,19.3783784 C42.4785714,18.9189189 43.5914286,18.9189189 43.5914286,19.3783784 Z" id="Path" fill="#FFFFFF"></path>
            <path d="M48.5857143,33 C48.5857143,33.4594595 47.4457143,33.4594595 47.4457143,33 C47.4457143,32.5405405 48.5857143,32.5405405 48.5857143,33 Z" id="Path" fill="#FFFFFF"></path>
            <path d="M28.7985714,47.6756757 C28.7985714,48.5135135 27.6042857,48.3243243 27.6042857,47.4864865 C27.6042857,46.6486486 28.7985714,46.8378378 28.7985714,47.6756757 Z" id="Path" fill="#FFFFFF"></path>
            <path d="M14.0871429,61.1891892 C14.0871429,62 12.9471429,61.8108108 12.9471429,61 C12.9471429,60.2162162 14.0871429,60.4054054 14.0871429,61.1891892 Z" id="Path" fill="#FFFFFF"></path>
            <path d="M78.3071429,77.5675676 C79.0671429,77.5405405 78.3614286,79 77.8185714,78.5675676 C77.52,78.3243243 77.8185714,77.5945946 78.3071429,77.5675676 Z" id="Path" fill="#FFFFFF"></path>
            <path d="M66.7714286,89.1891892 C67.2057143,89.027027 67.2871429,89.6216216 67.07,89.972973 C66.9342857,90.1891892 66.5542857,90.4324324 66.3642857,90.1351351 C66.2014286,89.8378378 66.4457143,89.2972973 66.7714286,89.1891892 L66.7714286,89.1891892 Z" id="Path" fill="#FFFFFF"></path>
        </g>
    </g>
</svg>