<?xml version="1.0" encoding="UTF-8"?>
<svg width="95px" height="100px" viewBox="0 0 95 100" version="1.1" xmlns="http://www.w3.org/2000/svg" xmlns:xlink="http://www.w3.org/1999/xlink">
    <title>sudoku_3_2</title>
    <g id="Sudoku" stroke="none" stroke-width="1" fill="none" fill-rule="evenodd">
        <g id="sudoku_3_2" fill-rule="nonzero">
            <polygon id="Path" fill="#000000" points="0.100588235 23.0224719 41.1852941 0.101123596 94.2176471 10.3707865 94.1841176 65.8089888 61.4258824 99.8089888 9.44411765 79.6067416"></polygon>
            <polygon id="Path" fill="#424242" points="51.1547059 23.4382022 69.4058824 28.0449438 57.0670588 37.3483146 38.1452941 32.1910112"></polygon>
            <polygon id="Path" fill="#424242" points="63.9741176 14.7865169 82.1805882 18.6516854 70.7358824 26.988764 52.4288235 22.7078652"></polygon>
            <polygon id="Path" fill="#424242" points="75.4188235 7.07865169 92.72 10.4382022 83.0970588 17.7977528 65.2370588 14.0224719"></polygon>
            <polygon id="Path" fill="#424242" points="57.5141176 3.69662921 73.5970588 6.75280899 63.3147059 13.6179775 46.9411765 10.247191"></polygon>
            <polygon id="Path" fill="#424242" points="45.7452941 11.0561798 62.3535294 14.3707865 50.54 22.3370787 33.6076471 18.3820225"></polygon>
            <polygon id="Path" fill="#424242" points="32.3782353 19.2022472 49.2547059 23.1235955 36.5247059 31.9101124 19.19 27.494382"></polygon>
            <polygon id="Path" fill="#424242" points="15.3788235 15.1573034 30.8470588 18.741573 17.29 26.8539326 1.55352941 22.7977528"></polygon>
            <polygon id="Path" fill="#424242" points="29.0364706 7.51685393 44.1805882 10.6404494 32.1323529 17.9213483 16.7982353 14.2359551"></polygon>
            <polygon id="Path" fill="#424242" points="41.2076471 0.584269663 55.9494118 3.3258427 45.3205882 9.93258427 30.1764706 6.82022472"></polygon>
            <polygon id="Path" fill="#424242" points="37.5976471 33.9438202 56.4076471 38.9550562 57.5923529 59.1685393 39.2405882 53.5505618"></polygon>
            <polygon id="Path" fill="#424242" points="18.3629412 28.6853933 35.6529412 33.247191 37.6758824 53 20.9223529 47.7977528"></polygon>
            <polygon id="Path" fill="#424242" points="0.726470588 24.0898876 16.6082353 28.1348315 19.2123529 47.2921348 3.8 42.505618"></polygon>
            <polygon id="Path" fill="#424242" points="39.8329412 55.3932584 57.7711765 61.1011236 59.0564706 79.7977528 41.5764706 73.4831461"></polygon>
            <polygon id="Path" fill="#424242" points="21.2911765 49.7752809 37.8994118 54.8426966 39.6876471 72.8426966 23.5823529 67.2247191"></polygon>
            <polygon id="Path" fill="#424242" points="4.16882353 44.247191 19.4917647 49.0898876 21.8723529 66.5393258 7.05235294 61.4269663"></polygon>
            <polygon id="Path" fill="#424242" points="41.8111765 75.3707865 59.2017647 81.5393258 60.2970588 98.8089888 43.4094118 92.1348315"></polygon>
            <polygon id="Path" fill="#424242" points="23.8058824 69.0224719 40.0564706 74.7752809 41.6994118 91.5280899 25.9629412 85.2247191"></polygon>
            <polygon id="Path" fill="#424242" points="7.36529412 63.0786517 22.1070588 68.3707865 24.4429412 84.7191011 9.93588235 79.0561798"></polygon>
            <polygon id="Path" fill="#424242" points="58.2964706 38.6853933 70.6464706 29.247191 71.2388235 48.988764 59.4364706 59.0337079"></polygon>
            <polygon id="Path" fill="#424242" points="71.9876471 28.2247191 82.9182353 19.8539326 83.1417647 38.8651685 72.5352941 47.8876404"></polygon>
            <polygon id="Path" fill="#424242" points="84.0805882 19.0224719 93.7258824 11.7078652 93.7705882 29.7078652 84.3488235 37.7191011"></polygon>
            <polygon id="Path" fill="#424242" points="59.7605882 61.011236 71.2388235 50.6966292 71.9764706 68.741573 60.7217647 79.6067416"></polygon>
            <polygon id="Path" fill="#424242" points="72.6247059 49.7303371 83.2870588 40.5168539 83.5105882 58.1123596 73.1723529 67.7752809"></polygon>
            <polygon id="Path" fill="#424242" points="84.3935294 39.6516854 93.7258824 31.494382 93.6811765 48.2134831 84.5388235 57.2359551"></polygon>
            <polygon id="Path" fill="#424242" points="60.8111765 81.3146067 72.2 70.5393258 72.8929412 87.247191 61.8170588 98.7191011"></polygon>
            <polygon id="Path" fill="#424242" points="73.3623529 69.7078652 83.6 59.7191011 83.8347059 75.8764045 73.91 86.1910112"></polygon>
            <polygon id="Path" fill="#424242" points="84.6058824 58.7078652 93.7594118 49.8651685 93.7147059 65.7078652 84.7511765 74.8651685"></polygon>
            <path d="M32.2664706,66.1797753 L30.1764706,65.6629213 L29.6288235,57.8539326 C28.9135294,58.3707865 28.0529412,58.6741573 27.0358824,58.752809 L26.9017647,56.8651685 C28.0529412,56.7865169 29.4276471,56.0674157 29.8076471,54.9101124 L31.5064706,55.3258427 L32.2664706,66.1797753 L32.2664706,66.1797753 Z" id="Path" fill="#FFFFFF"></path>
            <path d="M35.9770588,83.8764045 L36.1670588,85.7191011 L29.0923529,83.2022472 C29.0923529,81.4269663 30.1988235,80.6404494 31.5847059,79.7752809 C32.8476471,78.988764 34.1888235,78.0224719 32.8923529,76.4494382 C32.1547059,75.5505618 30.5229412,75 30.59,76.8539326 L28.5558824,75.9325843 C28.5782353,72.0561798 33.0264706,74.3370787 34.2782353,75.8089888 C35.0941176,76.7752809 35.6976471,78.1685393 35.2617647,79.4382022 C34.6917647,81.1123596 32.5682353,81.4494382 31.9535294,82.4494382 L35.9770588,83.8764045 L35.9770588,83.8764045 Z" id="Path" fill="#FFFFFF"></path>
            <path d="M75.7317647,52.1573034 L75.6982353,50.1910112 L80.3252941,45.988764 L80.3476471,47.5280899 C79.3976471,49.9325843 78.7047059,52.9101124 78.3694118,55.4719101 C78.1794118,56.9101124 78.1011765,58.1123596 78.1123529,59.0898876 L76.8158824,60.2696629 C76.8158824,56.7303371 77.6876471,52.6966292 78.8052941,49.3595506 L75.7317647,52.1573034 L75.7317647,52.1573034 Z" id="Path" fill="#FFFFFF"></path>
            <path d="M76.4917647,77.1797753 L77.6652941,75.7865169 C77.71,76.1460674 77.7994118,76.3595506 77.9223529,76.4269663 C78.4364706,76.7078652 78.9394118,75.3370787 79.0288235,75.0337079 C79.1852941,74.4831461 79.2747059,73.5955056 79.2747059,72.3707865 C78.3582353,75.2134831 76.3129412,75.988764 76.2011765,72.8539326 C76.1117647,70.5280899 76.4247059,69.0337079 78.1123529,67.3595506 C79.9341176,65.5280899 80.4258824,68.0449438 80.5041176,70.3258427 C80.6047059,72.988764 80.37,75.9662921 78.3805882,77.9550562 C77.2852941,79.0449438 76.7041176,78.5505618 76.4917647,77.1797753 L76.4917647,77.1797753 Z M78.7605882,68.9438202 C78.2129412,68.4606742 77.6876471,69.6629213 77.5647059,70.0337079 C77.3747059,70.6516854 77.1623529,73.8764045 78.3135294,72.7191011 C78.9952941,72.0449438 79.4535294,69.5393258 78.7605882,68.9438202 L78.7605882,68.9438202 Z" id="Shape" fill="#FFFFFF"></path>
            <path d="M79.0288235,79.0449438 C79.8111765,79.011236 79.0847059,80.505618 78.5482353,80.0561798 C78.2464706,79.8089888 78.5594118,79.0674157 79.0288235,79.0449438 Z" id="Path" fill="#FFFFFF"></path>
            <polygon id="Path" fill="#FFFFFF" points="48.6735294 49.6067416 47.7905882 40.1685393 46.5388235 40 47.4217647 49.4269663 45.0635294 45.8988764 44.08 46.4494382 48.3717647 52.8764045 51.5347059 47.4719101 50.4282353 46.6292135"></polygon>
            <polygon id="Path" fill="#FFFFFF" points="65.74 47.3258427 65.5164706 37.247191 64.2088235 37.988764 64.4323529 48.0561798 62.2194118 45.9325843 61.1352941 47.2696629 65.17 51.1235955 68.9252941 42.8876404 67.8076471 42.7865169"></polygon>
        </g>
    </g>
</svg>