<?xml version="1.0" encoding="UTF-8"?>
<svg width="200px" height="150px" viewBox="0 0 200 150" version="1.1" xmlns="http://www.w3.org/2000/svg" xmlns:xlink="http://www.w3.org/1999/xlink">
    <title>sudoku_1_7</title>
    <g id="Sudoku" stroke="none" stroke-width="1" fill="none" fill-rule="evenodd">
        <g id="sudoku_1_7" fill-rule="nonzero">
            <path d="M99.9508197,50.0409836 C133.229508,50.0409836 166.5,50.0409836 199.778689,50.0409836 C199.778689,66.6803279 199.778689,83.3114754 199.778689,99.9508197 C166.5,99.9508197 133.229508,99.9508197 99.9508197,99.9508197 C99.9508197,116.590164 99.9508197,133.229508 99.9508197,149.868852 C83.3114754,149.868852 66.6803279,149.868852 50.0409836,149.868852 C50.0409836,133.229508 50.0409836,116.590164 50.0409836,99.9508197 C33.4016393,99.9508197 16.7622951,99.9508197 0.12295082,99.9508197 C0.12295082,83.3114754 0.12295082,66.6803279 0.12295082,50.0409836 C16.7622951,50.0409836 33.4016393,50.0409836 50.0409836,50.0409836 C50.0409836,33.4016393 50.0409836,16.7622951 50.0409836,0.12295082 C66.6803279,0.12295082 83.3114754,0.12295082 99.9508197,0.12295082 C99.9508197,16.7622951 99.9508197,33.4016393 99.9508197,50.0409836 Z" id="Path" fill="#000000"></path>
            <polygon id="Path" fill="#FFFFFF" points="98.2868852 98.2868852 84.9754098 98.2868852 84.9754098 84.9754098 98.2868852 84.9754098"></polygon>
            <polygon id="Path" fill="#FFFFFF" points="68.3442623 98.2868852 81.647541 98.2868852 81.647541 84.9754098 68.3442623 84.9754098"></polygon>
            <polygon id="Path" fill="#FFFFFF" points="65.0163934 98.2868852 51.704918 98.2868852 51.704918 84.9754098 65.0163934 84.9754098"></polygon>
            <polygon id="Path" fill="#FFFFFF" points="98.2868852 68.3442623 84.9754098 68.3442623 84.9754098 81.647541 98.2868852 81.647541"></polygon>
            <polygon id="Path" fill="#FFFFFF" points="68.3442623 68.3442623 81.647541 68.3442623 81.647541 81.647541 68.3442623 81.647541"></polygon>
            <polygon id="Path" fill="#FFFFFF" points="65.0163934 68.3442623 51.704918 68.3442623 51.704918 81.647541 65.0163934 81.647541"></polygon>
            <polygon id="Path" fill="#FFFFFF" points="98.2868852 65.0163934 84.9754098 65.0163934 84.9754098 51.704918 98.2868852 51.704918"></polygon>
            <polygon id="Path" fill="#FFFFFF" points="68.3442623 65.0163934 81.647541 65.0163934 81.647541 51.704918 68.3442623 51.704918"></polygon>
            <polygon id="Path" fill="#FFFFFF" points="65.0163934 65.0163934 51.704918 65.0163934 51.704918 51.704918 65.0163934 51.704918"></polygon>
            <polygon id="Path" fill="#FFFFFF" points="101.614754 98.2868852 114.92623 98.2868852 114.92623 84.9754098 101.614754 84.9754098"></polygon>
            <polygon id="Path" fill="#FFFFFF" points="131.565574 98.2868852 118.254098 98.2868852 118.254098 84.9754098 131.565574 84.9754098"></polygon>
            <polygon id="Path" fill="#FFFFFF" points="134.893443 98.2868852 148.204918 98.2868852 148.204918 84.9754098 134.893443 84.9754098"></polygon>
            <polygon id="Path" fill="#FFFFFF" points="101.614754 68.3442623 114.92623 68.3442623 114.92623 81.647541 101.614754 81.647541"></polygon>
            <polygon id="Path" fill="#FFFFFF" points="131.565574 68.3442623 118.254098 68.3442623 118.254098 81.647541 131.565574 81.647541"></polygon>
            <polygon id="Path" fill="#FFFFFF" points="134.893443 68.3442623 148.204918 68.3442623 148.204918 81.647541 134.893443 81.647541"></polygon>
            <polygon id="Path" fill="#FFFFFF" points="101.614754 65.0163934 114.92623 65.0163934 114.92623 51.704918 101.614754 51.704918"></polygon>
            <polygon id="Path" fill="#FFFFFF" points="131.565574 65.0163934 118.254098 65.0163934 118.254098 51.704918 131.565574 51.704918"></polygon>
            <polygon id="Path" fill="#FFFFFF" points="134.893443 65.0163934 148.204918 65.0163934 148.204918 51.704918 134.893443 51.704918"></polygon>
            <polygon id="Path" fill="#FFFFFF" points="198.114754 98.2868852 184.803279 98.2868852 184.803279 84.9754098 198.114754 84.9754098"></polygon>
            <polygon id="Path" fill="#FFFFFF" points="168.163934 98.2868852 181.47541 98.2868852 181.47541 84.9754098 168.163934 84.9754098"></polygon>
            <polygon id="Path" fill="#FFFFFF" points="164.836066 98.2868852 151.532787 98.2868852 151.532787 84.9754098 164.836066 84.9754098"></polygon>
            <polygon id="Path" fill="#FFFFFF" points="198.114754 68.3442623 184.803279 68.3442623 184.803279 81.647541 198.114754 81.647541"></polygon>
            <polygon id="Path" fill="#FFFFFF" points="168.163934 68.3442623 181.47541 68.3442623 181.47541 81.647541 168.163934 81.647541"></polygon>
            <polygon id="Path" fill="#FFFFFF" points="164.836066 68.3442623 151.532787 68.3442623 151.532787 81.647541 164.836066 81.647541"></polygon>
            <polygon id="Path" fill="#FFFFFF" points="198.114754 65.0163934 184.803279 65.0163934 184.803279 51.704918 198.114754 51.704918"></polygon>
            <polygon id="Path" fill="#FFFFFF" points="168.163934 65.0163934 181.47541 65.0163934 181.47541 51.704918 168.163934 51.704918"></polygon>
            <polygon id="Path" fill="#FFFFFF" points="164.836066 65.0163934 151.532787 65.0163934 151.532787 51.704918 164.836066 51.704918"></polygon>
            <polygon id="Path" fill="#FFFFFF" points="51.704918 148.204918 65.0163934 148.204918 65.0163934 134.893443 51.704918 134.893443"></polygon>
            <polygon id="Path" fill="#FFFFFF" points="81.647541 148.204918 68.3442623 148.204918 68.3442623 134.893443 81.647541 134.893443"></polygon>
            <polygon id="Path" fill="#FFFFFF" points="84.9754098 148.204918 98.2868852 148.204918 98.2868852 134.893443 84.9754098 134.893443"></polygon>
            <polygon id="Path" fill="#FFFFFF" points="51.704918 118.254098 65.0163934 118.254098 65.0163934 131.565574 51.704918 131.565574"></polygon>
            <polygon id="Path" fill="#FFFFFF" points="81.647541 118.254098 68.3442623 118.254098 68.3442623 131.565574 81.647541 131.565574"></polygon>
            <polygon id="Path" fill="#FFFFFF" points="84.9754098 118.254098 98.2868852 118.254098 98.2868852 131.565574 84.9754098 131.565574"></polygon>
            <polygon id="Path" fill="#FFFFFF" points="51.704918 114.92623 65.0163934 114.92623 65.0163934 101.614754 51.704918 101.614754"></polygon>
            <polygon id="Path" fill="#FFFFFF" points="81.647541 114.92623 68.3442623 114.92623 68.3442623 101.614754 81.647541 101.614754"></polygon>
            <polygon id="Path" fill="#FFFFFF" points="84.9754098 114.92623 98.2868852 114.92623 98.2868852 101.614754 84.9754098 101.614754"></polygon>
            <polygon id="Path" fill="#FFFFFF" points="51.704918 1.78688525 51.704918 15.0983607 65.0163934 15.0983607 65.0163934 1.78688525"></polygon>
            <polygon id="Path" fill="#FFFFFF" points="51.704918 31.7377049 51.704918 18.4262295 65.0163934 18.4262295 65.0163934 31.7377049"></polygon>
            <polygon id="Path" fill="#FFFFFF" points="51.704918 35.0655738 51.704918 48.3770492 65.0163934 48.3770492 65.0163934 35.0655738"></polygon>
            <polygon id="Path" fill="#FFFFFF" points="81.647541 1.78688525 81.647541 15.0983607 68.3442623 15.0983607 68.3442623 1.78688525"></polygon>
            <polygon id="Path" fill="#FFFFFF" points="81.647541 31.7377049 81.647541 18.4262295 68.3442623 18.4262295 68.3442623 31.7377049"></polygon>
            <polygon id="Path" fill="#FFFFFF" points="81.647541 35.0655738 81.647541 48.3770492 68.3442623 48.3770492 68.3442623 35.0655738"></polygon>
            <polygon id="Path" fill="#FFFFFF" points="84.9754098 1.78688525 84.9754098 15.0983607 98.2868852 15.0983607 98.2868852 1.78688525"></polygon>
            <polygon id="Path" fill="#FFFFFF" points="84.9754098 31.7377049 84.9754098 18.4262295 98.2868852 18.4262295 98.2868852 31.7377049"></polygon>
            <polygon id="Path" fill="#FFFFFF" points="84.9754098 35.0655738 84.9754098 48.3770492 98.2868852 48.3770492 98.2868852 35.0655738"></polygon>
            <polygon id="Path" fill="#FFFFFF" points="1.78688525 98.2868852 15.0983607 98.2868852 15.0983607 84.9754098 1.78688525 84.9754098"></polygon>
            <polygon id="Path" fill="#FFFFFF" points="31.7377049 98.2868852 18.4262295 98.2868852 18.4262295 84.9754098 31.7377049 84.9754098"></polygon>
            <polygon id="Path" fill="#FFFFFF" points="35.0655738 98.2868852 48.3770492 98.2868852 48.3770492 84.9754098 35.0655738 84.9754098"></polygon>
            <polygon id="Path" fill="#FFFFFF" points="1.78688525 68.3442623 15.0983607 68.3442623 15.0983607 81.647541 1.78688525 81.647541"></polygon>
            <polygon id="Path" fill="#FFFFFF" points="31.7377049 68.3442623 18.4262295 68.3442623 18.4262295 81.647541 31.7377049 81.647541"></polygon>
            <polygon id="Path" fill="#FFFFFF" points="35.0655738 68.3442623 48.3770492 68.3442623 48.3770492 81.647541 35.0655738 81.647541"></polygon>
            <polygon id="Path" fill="#FFFFFF" points="1.78688525 65.0163934 15.0983607 65.0163934 15.0983607 51.704918 1.78688525 51.704918"></polygon>
            <polygon id="Path" fill="#FFFFFF" points="31.7377049 65.0163934 18.4262295 65.0163934 18.4262295 51.704918 31.7377049 51.704918"></polygon>
            <polygon id="Path" fill="#FFFFFF" points="35.0655738 65.0163934 48.3770492 65.0163934 48.3770492 51.704918 35.0655738 51.704918"></polygon>
            <path d="M56.0327869,60.352459 L57.5983607,60.1639344 C57.8114754,61.9262295 59.9508197,61.7540984 59.9508197,59.9918033 C59.9508197,58.8442623 59.1803279,58.4918033 58.0983607,58.795082 L58.2786885,57.4918033 C60.6885246,57.557377 59.352459,54.4180328 57.9836066,55.7622951 C57.7868852,55.9508197 57.6721311,56.2295082 57.6311475,56.5983607 L56.147541,56.3442623 C56.8442623,52.9016393 61.2377049,53.8770492 61.2377049,56.295082 C61.2377049,57.0409836 60.8278689,57.6311475 60.0245902,58.0737705 C62.5983607,58.6229508 61.9262295,62.7377049 58.795082,62.7377049 C57.3032787,62.7377049 56.1967213,61.8114754 56.0327869,60.352459 L56.0327869,60.352459 Z" id="Path" fill="#000000"></path>
            <path d="M72.7786885,60.6311475 L74.3360656,60.4590164 C74.4754098,61.6311475 76.3278689,62.3360656 76.5491803,59.0245902 C74.4180328,61.4918033 70.9590164,57.3852459 73.3606557,54.9180328 C74.5655738,53.6721311 78.2131148,53.2868852 78.2131148,58.3852459 C78.2131148,63.9508197 73.2786885,63.704918 72.7786885,60.6311475 L72.7786885,60.6311475 Z M76.4016393,57.1065574 C76.4016393,55.0983607 74.1885246,54.7704918 74.1885246,56.9754098 C74.1885246,59.1311475 76.4016393,59.0163934 76.4016393,57.1065574 Z" id="Shape" fill="#000000"></path>
            <path d="M89.352459,55.7786885 L89.352459,54.2868852 L94.8688525,54.2868852 L94.8688525,55.4590164 C93.2459016,57.057377 92.0327869,60.2622951 92.0409836,62.5819672 L90.4918033,62.5819672 C90.5491803,60.204918 91.5409836,57.647541 93.0245902,55.7786885 L89.352459,55.7786885 L89.352459,55.7786885 Z" id="Path" fill="#000000"></path>
            <path d="M61.5409836,72.8770492 L59.9754098,73.0491803 C59.8360656,71.8606557 57.9590164,71.1967213 57.7540984,74.4754098 C59.8688525,71.9754098 63.3196721,76.1311475 60.9344262,78.5901639 C59.7377049,79.8278689 56.0819672,80.2213115 56.0819672,75.1311475 C56.0819672,69.5163934 61.0245902,69.8442623 61.5409836,72.8770492 L61.5409836,72.8770492 Z M57.8852459,76.3934426 C57.8852459,78.4098361 60.1147541,78.7295082 60.1147541,76.5327869 C60.1147541,74.352459 57.8852459,74.4918033 57.8852459,76.3934426 Z" id="Shape" fill="#E31E24"></path>
            <path d="M76.8360656,79.2213115 L75.2295082,79.2213115 L75.2295082,73.1393443 C74.6393443,73.6885246 73.9508197,74.0983607 73.1557377,74.3606557 L73.1557377,72.8934426 C74.0409836,72.6065574 75.1721311,71.7704918 75.5327869,70.7704918 L76.8360656,70.7704918 L76.8360656,79.2213115 L76.8360656,79.2213115 Z" id="Path" fill="#000000"></path>
            <path d="M89.3770492,77.0655738 L90.9918033,76.8934426 C91.1967213,78.4918033 93.3852459,78.6311475 93.3852459,76.4262295 C93.3852459,74.6229508 91.7786885,74.4836066 90.8852459,75.4754098 L89.5819672,75.2868852 L90.4016393,70.9262295 L94.6639344,70.9262295 L94.6639344,72.4262295 L91.6229508,72.4262295 L91.3688525,73.852459 C95.2786885,71.9098361 96.7459016,79.3770492 92.1557377,79.3770492 C90.6557377,79.3770492 89.5819672,78.5327869 89.3770492,77.0655738 Z" id="Path" fill="#E31E24"></path>
            <path d="M57.4672131,91.3114754 C55.5163934,90.4836066 55.9262295,87.4098361 58.795082,87.4098361 C61.6885246,87.4098361 62.0409836,90.4918033 60.1557377,91.3114754 C62.5327869,92.2704918 61.9016393,96.0081967 58.8688525,96.0081967 C55.6885246,96.0081967 55.1803279,92.295082 57.4672131,91.3114754 L57.4672131,91.3114754 Z M57.8032787,89.6967213 C57.8032787,91.0819672 59.8032787,91.0655738 59.8032787,89.6885246 C59.8032787,88.3360656 57.8032787,88.352459 57.8032787,89.6967213 Z M57.6557377,93.295082 C57.6557377,95.1639344 59.9918033,95.2459016 59.9918033,93.3196721 C59.9918033,91.5491803 57.6557377,91.557377 57.6557377,93.295082 Z" id="Shape" fill="#000000"></path>
            <path d="M78.1639344,94.3688525 L78.1639344,95.8606557 L72.5163934,95.8606557 C72.8360656,92.8688525 77.9672131,90.7540984 76.2540984,89.0327869 C75.8852459,88.6639344 74.4262295,88.3278689 74.3114754,90.057377 L72.704918,89.9016393 C73.2295082,85.0737705 81.942623,87.7704918 76.2622951,92.9918033 L74.9590164,94.3688525 L78.1639344,94.3688525 Z" id="Path" fill="#000000"></path>
            <path d="M92.5163934,95.8606557 L92.5163934,94.1721311 L89.0819672,94.1721311 L89.0819672,92.7704918 L92.7213115,87.4180328 L94.0737705,87.4180328 L94.0737705,92.7622951 L95.1229508,92.7622951 L95.1229508,94.1721311 L94.0737705,94.1721311 L94.0737705,95.8606557 L92.5163934,95.8606557 Z M92.5163934,92.7622951 L92.5163934,89.8934426 L90.5901639,92.7622951 L92.5163934,92.7622951 Z" id="Shape" fill="#000000"></path>
            <path d="M5.64754098,60.4754098 L7.21311475,60.3032787 C7.35245902,61.4836066 9.19672131,62.1803279 9.41803279,58.8770492 C7.29508197,61.3442623 3.83606557,57.2295082 6.23770492,54.7622951 C7.44262295,53.5163934 11.0819672,53.1311475 11.0819672,58.2295082 C11.0819672,63.795082 6.14754098,63.557377 5.64754098,60.4754098 L5.64754098,60.4754098 Z M9.27868852,56.9508197 C9.27868852,54.9508197 7.05737705,54.6229508 7.05737705,56.8196721 C7.05737705,58.9754098 9.27868852,58.8606557 9.27868852,56.9508197 Z" id="Shape" fill="#000000"></path>
            <path d="M22.2295082,55.6229508 L22.2295082,54.1311475 L27.7459016,54.1311475 L27.7459016,55.3032787 C26.1147541,56.9098361 24.9016393,60.1065574 24.9180328,62.4344262 L23.3688525,62.4344262 C23.4262295,60.0491803 24.4098361,57.5 25.9016393,55.6229508 L22.2295082,55.6229508 L22.2295082,55.6229508 Z" id="Path" fill="#000000"></path>
            <path d="M42.9918033,62.4344262 L41.3770492,62.4344262 L41.3770492,56.3442623 C40.795082,56.9016393 40.0983607,57.3114754 39.3032787,57.5737705 L39.3032787,56.1065574 C40.1967213,55.8114754 41.3196721,54.9836066 41.6803279,53.9836066 L42.9918033,53.9836066 L42.9918033,62.4344262 Z" id="Path" fill="#000000"></path>
            <path d="M11.0409836,77.5819672 L11.0409836,79.0655738 L5.39344262,79.0655738 C5.71311475,76.0737705 10.8360656,73.9672131 9.13114754,72.2459016 C8.76229508,71.8770492 7.30327869,71.5409836 7.18852459,73.2704918 L5.58196721,73.1065574 C6.09836066,68.2786885 14.8196721,70.9836066 9.13114754,76.1967213 L7.83606557,77.5819672 L11.0409836,77.5819672 Z" id="Path" fill="#000000"></path>
            <path d="M25.3852459,79.0655738 L25.3852459,77.3770492 L21.9590164,77.3770492 L21.9590164,75.9754098 L25.5983607,70.6311475 L26.9508197,70.6311475 L26.9508197,75.9672131 L27.9918033,75.9672131 L27.9918033,77.3770492 L26.9508197,77.3770492 L26.9508197,79.0655738 L25.3852459,79.0655738 L25.3852459,79.0655738 Z M25.3852459,75.9672131 L25.3852459,73.0983607 L23.4672131,75.9672131 L25.3852459,75.9672131 Z" id="Shape" fill="#000000"></path>
            <path d="M40.2540984,74.5245902 C38.3032787,73.6967213 38.7131148,70.6147541 41.5819672,70.6147541 C44.4836066,70.6147541 44.8278689,73.704918 42.942623,74.5245902 C45.3196721,75.4754098 44.6885246,79.2213115 41.6557377,79.2213115 C38.4754098,79.2213115 37.9672131,75.5081967 40.2540984,74.5245902 L40.2540984,74.5245902 Z M40.5901639,72.9016393 C40.5901639,74.295082 42.5901639,74.2786885 42.5901639,72.9016393 C42.5901639,71.5491803 40.5901639,71.557377 40.5901639,72.9016393 Z M40.442623,76.5081967 C40.442623,78.3770492 42.7786885,78.4508197 42.7786885,76.5245902 C42.7786885,74.7622951 40.442623,74.7622951 40.442623,76.5081967 Z" id="Shape" fill="#000000"></path>
            <path d="M5.6147541,93.5491803 L7.22131148,93.3852459 C7.42622951,94.9836066 9.6147541,95.1147541 9.6147541,92.9098361 C9.6147541,91.1065574 8.01639344,90.9672131 7.1147541,91.9590164 L5.81147541,91.7704918 L6.63934426,87.4098361 L10.9016393,87.4098361 L10.9016393,88.9098361 L7.86065574,88.9098361 L7.60655738,90.3442623 C11.5163934,88.4016393 12.9836066,95.8606557 8.39344262,95.8606557 C6.89344262,95.8606557 5.81147541,95.0163934 5.6147541,93.5491803 L5.6147541,93.5491803 Z" id="Path" fill="#000000"></path>
            <path d="M22.1803279,93.4754098 L23.7459016,93.2868852 C23.9590164,95.0491803 26.1065574,94.8770492 26.1065574,93.1147541 C26.1065574,91.9672131 25.3278689,91.6147541 24.2459016,91.9180328 L24.4262295,90.6147541 C26.8360656,90.6803279 25.5,87.5409836 24.1393443,88.8852459 C23.942623,89.0737705 23.8196721,89.352459 23.7786885,89.7213115 L22.3032787,89.4672131 C22.9918033,86.0245902 27.3852459,87 27.3852459,89.4180328 C27.3852459,90.1639344 26.9836066,90.7540984 26.1721311,91.1967213 C28.7540984,91.7459016 28.0819672,95.8606557 24.942623,95.8606557 C23.4508197,95.8606557 22.3442623,94.9344262 22.1803279,93.4754098 L22.1803279,93.4754098 Z" id="Path" fill="#000000"></path>
            <path d="M44.3278689,89.3606557 L42.7622951,89.5327869 C42.6311475,88.3442623 40.7459016,87.6803279 40.5409836,90.9590164 C42.6557377,88.4590164 46.1065574,92.6147541 43.7213115,95.0819672 C42.5245902,96.3196721 38.8688525,96.704918 38.8688525,91.6147541 C38.8688525,86 43.8114754,86.3278689 44.3278689,89.3606557 L44.3278689,89.3606557 Z M40.6721311,92.8770492 C40.6721311,94.8934426 42.9098361,95.2131148 42.9098361,93.0245902 C42.9098361,90.8360656 40.6721311,90.9754098 40.6721311,92.8770492 Z" id="Shape" fill="#000000"></path>
            <path d="M109.540984,62.4344262 L107.934426,62.4344262 L107.934426,56.3442623 C107.344262,56.9016393 106.655738,57.3114754 105.852459,57.5737705 L105.852459,56.1065574 C106.745902,55.8114754 107.877049,54.9836066 108.237705,53.9836066 L109.540984,53.9836066 L109.540984,62.4344262 Z" id="Path" fill="#000000"></path>
            <path d="M125.213115,62.4344262 L125.213115,60.7377049 L121.786885,60.7377049 L121.786885,59.3360656 L125.418033,53.9918033 L126.778689,53.9918033 L126.778689,59.3360656 L127.819672,59.3360656 L127.819672,60.7377049 L126.778689,60.7377049 L126.778689,62.4344262 L125.213115,62.4344262 Z M125.213115,59.3360656 L125.213115,56.4590164 L123.295082,59.3360656 L125.213115,59.3360656 Z" id="Shape" fill="#000000"></path>
            <path d="M144.139344,60.942623 L144.139344,62.4344262 L138.491803,62.4344262 C138.811475,59.4344262 143.942623,57.3278689 142.229508,55.6065574 C141.860656,55.2377049 140.409836,54.9016393 140.295082,56.6311475 L138.680328,56.4754098 C139.204918,51.6393443 147.92623,54.3442623 142.237705,59.557377 L140.934426,60.942623 L144.139344,60.942623 Z" id="Path" fill="#000000"></path>
            <path d="M106.811475,74.5245902 C104.852459,73.6967213 105.262295,70.6147541 108.139344,70.6147541 C111.032787,70.6147541 111.377049,73.704918 109.491803,74.5245902 C111.868852,75.4754098 111.237705,79.2213115 108.213115,79.2213115 C105.02459,79.2213115 104.516393,75.5081967 106.811475,74.5245902 Z M107.147541,72.9016393 C107.147541,74.295082 109.139344,74.2786885 109.139344,72.9016393 C109.139344,71.5491803 107.147541,71.557377 107.147541,72.9016393 Z M106.991803,76.5081967 C106.991803,78.3770492 109.327869,78.4508197 109.327869,76.5245902 C109.327869,74.7622951 106.991803,74.7622951 106.991803,76.5081967 Z" id="Shape" fill="#000000"></path>
            <path d="M122.057377,72.2622951 L122.057377,70.7704918 L127.57377,70.7704918 L127.57377,71.942623 C125.942623,73.5491803 124.729508,76.7459016 124.745902,79.0655738 L123.196721,79.0655738 C123.254098,76.6885246 124.237705,74.1311475 125.729508,72.2622951 L122.057377,72.2622951 L122.057377,72.2622951 Z" id="Path" fill="#000000"></path>
            <path d="M138.647541,76.8442623 L140.213115,76.647541 C140.42623,78.4098361 142.565574,78.2459016 142.565574,76.4836066 C142.565574,75.3360656 141.795082,74.9754098 140.713115,75.2786885 L140.893443,73.9754098 C143.303279,74.0409836 141.967213,70.9016393 140.598361,72.2459016 C140.401639,72.4344262 140.286885,72.7131148 140.245902,73.0819672 L138.762295,72.8278689 C139.459016,69.3852459 143.844262,70.3606557 143.844262,72.7868852 C143.844262,73.5245902 143.442623,74.1147541 142.639344,74.557377 C145.213115,75.1147541 144.540984,79.2213115 141.409836,79.2213115 C139.918033,79.2213115 138.811475,78.3032787 138.647541,76.8442623 L138.647541,76.8442623 Z" id="Path" fill="#000000"></path>
            <path d="M110.877049,89.3606557 L109.319672,89.5327869 C109.180328,88.3442623 107.295082,87.6803279 107.090164,90.9590164 C109.204918,88.4590164 112.655738,92.6147541 110.270492,95.0819672 C109.07377,96.3196721 105.418033,96.704918 105.418033,91.6147541 C105.418033,86 110.368852,86.3278689 110.877049,89.3606557 L110.877049,89.3606557 Z M107.229508,92.8770492 C107.229508,94.8934426 109.459016,95.2131148 109.459016,93.0245902 C109.459016,90.8360656 107.229508,90.9754098 107.229508,92.8770492 Z" id="Shape" fill="#000000"></path>
            <path d="M122.114754,93.7540984 L123.680328,93.5819672 C123.811475,94.7540984 125.663934,95.4590164 125.885246,92.147541 C123.754098,94.6147541 120.303279,90.5081967 122.696721,88.0409836 C123.909836,86.795082 127.54918,86.4098361 127.54918,91.5081967 C127.54918,97.0737705 122.614754,96.8278689 122.114754,93.7540984 Z M125.745902,90.2295082 C125.745902,88.2213115 123.52459,87.8934426 123.52459,90.0983607 C123.52459,92.2540984 125.745902,92.1393443 125.745902,90.2295082 Z" id="Shape" fill="#000000"></path>
            <path d="M138.721311,93.5491803 L140.327869,93.3852459 C140.532787,94.9836066 142.721311,95.1147541 142.721311,92.9098361 C142.721311,91.1065574 141.114754,90.9672131 140.221311,91.9590164 L138.918033,91.7704918 L139.737705,87.4098361 L144,87.4098361 L144,88.9098361 L140.959016,88.9098361 L140.704918,90.3442623 C144.614754,88.4016393 146.081967,95.8606557 141.5,95.8606557 C139.991803,95.8606557 138.918033,95.0163934 138.721311,93.5491803 L138.721311,93.5491803 Z" id="Path" fill="#000000"></path>
            <path d="M158.491803,62.4344262 L158.491803,60.7377049 L155.065574,60.7377049 L155.065574,59.3360656 L158.696721,53.9918033 L160.04918,53.9918033 L160.04918,59.3360656 L161.098361,59.3360656 L161.098361,60.7377049 L160.04918,60.7377049 L160.04918,62.4344262 L158.491803,62.4344262 Z M158.491803,59.3360656 L158.491803,56.4590164 L156.565574,59.3360656 L158.491803,59.3360656 Z" id="Shape" fill="#000000"></path>
            <path d="M171.92623,60.204918 L173.483607,60.0163934 C173.704918,61.7786885 175.844262,61.6065574 175.844262,59.8442623 C175.844262,58.6967213 175.07377,58.3442623 173.991803,58.647541 L174.163934,57.3360656 C176.57377,57.4016393 175.237705,54.2622951 173.877049,55.6065574 C173.680328,55.795082 173.565574,56.0737705 173.516393,56.442623 L172.040984,56.1885246 C172.737705,52.7540984 177.122951,53.7295082 177.122951,56.147541 C177.122951,56.8852459 176.721311,57.4754098 175.909836,57.9180328 C178.491803,58.4754098 177.819672,62.5819672 174.680328,62.5819672 C173.196721,62.5819672 172.090164,61.6639344 171.92623,60.204918 Z" id="Path" fill="#000000"></path>
            <path d="M194.065574,56.0819672 L192.508197,56.2540984 C192.368852,55.0655738 190.483607,54.4016393 190.278689,57.6803279 C192.393443,55.1885246 195.852459,59.3442623 193.459016,61.8032787 C192.262295,63.0409836 188.606557,63.4262295 188.606557,58.3442623 C188.606557,52.7295082 193.557377,53.057377 194.065574,56.0819672 L194.065574,56.0819672 Z M190.418033,59.6065574 C190.418033,61.6147541 192.647541,61.942623 192.647541,59.7459016 C192.647541,57.5655738 190.418033,57.6967213 190.418033,59.6065574 Z" id="Shape" fill="#000000"></path>
            <path d="M155.336066,72.2622951 L155.336066,70.7704918 L160.852459,70.7704918 L160.852459,71.942623 C159.221311,73.5491803 158.008197,76.7459016 158.02459,79.0655738 L156.467213,79.0655738 C156.52459,76.6885246 157.516393,74.1311475 159,72.2622951 L155.336066,72.2622951 L155.336066,72.2622951 Z" id="Path" fill="#000000"></path>
            <path d="M171.991803,76.9098361 L173.598361,76.7459016 C173.811475,78.3442623 176,78.4754098 176,76.2704918 C176,74.4672131 174.393443,74.3278689 173.5,75.3278689 L172.196721,75.1393443 L173.016393,70.7704918 L177.278689,70.7704918 L177.278689,72.2704918 L174.237705,72.2704918 L173.983607,73.704918 C177.893443,71.7622951 179.360656,79.2213115 174.770492,79.2213115 C173.270492,79.2213115 172.196721,78.3770492 171.991803,76.9098361 Z" id="Path" fill="#000000"></path>
            <path d="M192.729508,79.0655738 L191.122951,79.0655738 L191.122951,72.9836066 C190.532787,73.5327869 189.844262,73.942623 189.040984,74.2131148 L189.040984,72.7459016 C189.934426,72.4508197 191.065574,71.6147541 191.42623,70.6147541 L192.729508,70.6147541 L192.729508,79.0655738 Z" id="Path" fill="#000000"></path>
            <path d="M155.393443,93.7540984 L156.95082,93.5819672 C157.090164,94.7540984 158.942623,95.4590164 159.163934,92.147541 C157.032787,94.6147541 153.57377,90.5081967 155.97541,88.0409836 C157.180328,86.795082 160.827869,86.4098361 160.827869,91.5081967 C160.827869,97.0737705 155.893443,96.8278689 155.393443,93.7540984 Z M159.016393,90.2295082 C159.016393,88.2213115 156.803279,87.8934426 156.803279,90.0983607 C156.803279,92.2540984 159.016393,92.1393443 159.016393,90.2295082 Z" id="Shape" fill="#000000"></path>
            <path d="M177.418033,94.2131148 L177.418033,95.704918 L171.770492,95.704918 C172.090164,92.7131148 177.221311,90.5983607 175.508197,88.8852459 C175.139344,88.5163934 173.680328,88.1803279 173.565574,89.9098361 L171.959016,89.7459016 C172.483607,84.9180328 181.196721,87.6229508 175.508197,92.8360656 L174.213115,94.2131148 L177.418033,94.2131148 Z" id="Path" fill="#000000"></path>
            <path d="M190,91.1639344 C188.040984,90.3360656 188.45082,87.2540984 191.327869,87.2540984 C194.221311,87.2540984 194.565574,90.3360656 192.680328,91.1639344 C195.057377,92.1147541 194.42623,95.8606557 191.401639,95.8606557 C188.213115,95.8606557 187.704918,92.147541 190,91.1639344 Z M190.336066,89.5409836 C190.336066,90.9262295 192.327869,90.9180328 192.327869,89.5327869 C192.327869,88.1803279 190.336066,88.1967213 190.336066,89.5409836 Z M190.180328,93.147541 C190.180328,95.0163934 192.516393,95.0901639 192.516393,93.1639344 C192.516393,91.4016393 190.180328,91.4016393 190.180328,93.147541 Z" id="Shape" fill="#000000"></path>
            <path d="M62.4344262,40.4508197 L62.4344262,42.057377 L56.3442623,42.057377 C56.9016393,42.647541 57.3114754,43.3360656 57.5737705,44.1393443 L56.1065574,44.1393443 C55.8114754,43.2459016 54.9836066,42.1147541 53.9836066,41.7540984 L53.9836066,40.4508197 L62.4344262,40.4508197 L62.4344262,40.4508197 Z" id="Path" fill="#000000"></path>
            <path d="M60.2704918,27.9098361 L60.1065574,26.3032787 C61.704918,26.0983607 61.8360656,23.9098361 59.6393443,23.9098361 C57.8278689,23.9098361 57.6967213,25.5081967 58.6885246,26.4098361 L58.5,27.7131148 L54.1311475,26.8934426 L54.1311475,22.6311475 L55.6311475,22.6311475 L55.6311475,25.6639344 L57.0655738,25.9180328 C55.1229508,22.0081967 62.5819672,20.5491803 62.5819672,25.1311475 C62.5819672,26.6311475 61.7377049,27.7131148 60.2704918,27.9098361 L60.2704918,27.9098361 Z" id="Path" fill="#000000"></path>
            <path d="M60.942623,5.85245902 L62.4344262,5.85245902 L62.4344262,11.4918033 C59.4344262,11.1803279 57.3278689,6.04918033 55.6065574,7.76229508 C55.2377049,8.12295082 54.9016393,9.58196721 56.6311475,9.69672131 L56.4754098,11.3114754 C51.6393443,10.7868852 54.3442623,2.06557377 59.557377,7.75409836 L60.942623,9.05737705 L60.942623,5.85245902 Z" id="Path" fill="#000000"></path>
            <path d="M79.0655738,41.4180328 L77.3770492,41.4180328 L77.3770492,44.8442623 L75.9754098,44.8442623 L70.6311475,41.204918 L70.6311475,39.852459 L75.9672131,39.852459 L75.9672131,38.8114754 L77.3770492,38.8114754 L77.3770492,39.852459 L79.0655738,39.852459 L79.0655738,41.4180328 L79.0655738,41.4180328 Z M75.9672131,41.4180328 L73.0983607,41.4180328 L75.9672131,43.3360656 L75.9672131,41.4180328 Z" id="Shape" fill="#000000"></path>
            <path d="M72.7213115,22.4754098 L72.8934426,24.0409836 C71.704918,24.1721311 71.0409836,26.057377 74.3196721,26.2622951 C71.8278689,24.147541 75.9836066,20.6967213 78.442623,23.0819672 C79.6803279,24.2786885 80.0655738,27.9344262 74.9836066,27.9344262 C69.3688525,27.9344262 69.6885246,22.9836066 72.7213115,22.4754098 L72.7213115,22.4754098 Z M76.2377049,26.1229508 C78.2540984,26.1229508 78.5819672,23.8934426 76.3852459,23.8934426 C74.1967213,23.8934426 74.3360656,26.1229508 76.2377049,26.1229508 Z" id="Shape" fill="#000000"></path>
            <path d="M76.8442623,11.3442623 L76.647541,9.77868852 C78.4098361,9.56557377 78.2459016,7.42622951 76.4836066,7.42622951 C75.3360656,7.42622951 74.9754098,8.19672131 75.2786885,9.27868852 L73.9754098,9.09836066 C74.0409836,6.68852459 70.9016393,8.02459016 72.2459016,9.39344262 C72.4344262,9.59016393 72.7131148,9.70491803 73.0819672,9.74590164 L72.8278689,11.2295082 C69.3852459,10.5327869 70.3606557,6.13934426 72.7868852,6.13934426 C73.5245902,6.13934426 74.1147541,6.54918033 74.557377,7.35245902 C75.1147541,4.7704918 79.2213115,5.45081967 79.2213115,8.58196721 C79.2213115,10.0737705 78.3032787,11.1803279 76.8442623,11.3442623 L76.8442623,11.3442623 Z" id="Path" fill="#000000"></path>
            <path d="M88.9016393,44.5737705 L87.4098361,44.5737705 L87.4098361,39.057377 L88.5819672,39.057377 C90.1803279,40.6803279 93.3852459,41.8934426 95.704918,41.8852459 L95.704918,43.4344262 C93.3278689,43.3770492 90.7704918,42.3934426 88.9016393,40.9016393 L88.9016393,44.5737705 L88.9016393,44.5737705 Z" id="Path" fill="#000000"></path>
            <path d="M91.1639344,26.5409836 C90.3360656,28.5 87.2540984,28.0901639 87.2540984,25.2131148 C87.2540984,22.3196721 90.3360656,21.9754098 91.1639344,23.8606557 C92.1147541,21.4836066 95.8606557,22.1147541 95.8606557,25.1393443 C95.8606557,28.3278689 92.147541,28.8360656 91.1639344,26.5409836 Z M89.5409836,26.204918 C90.9262295,26.204918 90.9180328,24.2131148 89.5327869,24.2131148 C88.1803279,24.2131148 88.1967213,26.204918 89.5409836,26.204918 Z M93.147541,26.3606557 C95.0163934,26.3606557 95.0901639,24.0245902 93.1639344,24.0245902 C91.4016393,24.0245902 91.4016393,26.3606557 93.147541,26.3606557 Z" id="Shape" fill="#000000"></path>
            <path d="M93.7540984,11.2377049 L93.5819672,9.68032787 C94.7540984,9.54098361 95.4590164,7.68852459 92.147541,7.46721311 C94.6147541,9.59836066 90.5081967,13.0491803 88.0409836,10.6557377 C86.795082,9.44262295 86.4098361,5.80327869 91.5081967,5.80327869 C97.0737705,5.80327869 96.8278689,10.7377049 93.7540984,11.2377049 Z M90.2295082,7.60655738 C88.2213115,7.60655738 87.8934426,9.82786885 90.0983607,9.82786885 C92.2540984,9.82786885 92.1393443,7.60655738 90.2295082,7.60655738 L90.2295082,7.60655738 Z" id="Shape" fill="#000000"></path>
            <path d="M60.352459,144.45082 L60.1639344,142.893443 C61.9262295,142.672131 61.7540984,140.532787 59.9918033,140.532787 C58.8442623,140.532787 58.4836066,141.303279 58.7868852,142.385246 L57.4836066,142.204918 C57.5491803,139.803279 54.4098361,141.139344 55.7540984,142.5 C55.942623,142.696721 56.2213115,142.811475 56.5901639,142.852459 L56.3360656,144.336066 C52.8934426,143.639344 53.8688525,139.254098 56.295082,139.254098 C57.0327869,139.254098 57.6229508,139.655738 58.0655738,140.459016 C58.6229508,137.885246 62.7295082,138.557377 62.7295082,141.696721 C62.7295082,143.180328 61.8114754,144.286885 60.352459,144.45082 L60.352459,144.45082 Z" id="Path" fill="#000000"></path>
            <path d="M58.0327869,126.377049 C57.204918,128.336066 54.1229508,127.918033 54.1229508,125.04918 C54.1229508,122.155738 57.2131148,121.811475 58.0327869,123.688525 C58.9836066,121.319672 62.7295082,121.95082 62.7295082,124.97541 C62.7295082,128.163934 59.0163934,128.672131 58.0327869,126.377049 Z M56.4098361,126.040984 C57.8032787,126.040984 57.7868852,124.04918 56.4098361,124.04918 C55.057377,124.04918 55.0655738,126.040984 56.4098361,126.040984 Z M60.0163934,126.196721 C61.8852459,126.196721 61.9672131,123.860656 60.0327869,123.860656 C58.2704918,123.860656 58.2704918,126.196721 60.0163934,126.196721 Z" id="Shape" fill="#000000"></path>
            <path d="M55.7704918,111.131148 L54.2786885,111.131148 L54.2786885,105.614754 L55.4508197,105.614754 C57.057377,107.237705 60.2540984,108.45082 62.5737705,108.442623 L62.5737705,109.991803 C60.1967213,109.934426 57.647541,108.95082 55.7704918,107.459016 L55.7704918,111.131148 L55.7704918,111.131148 Z" id="Path" fill="#000000"></path>
            <path d="M77.7213115,138.959016 L79.2131148,138.959016 L79.2131148,144.606557 C76.2213115,144.286885 74.1147541,139.155738 72.3934426,140.868852 C72.0245902,141.237705 71.6885246,142.696721 73.4180328,142.811475 L73.2540984,144.418033 C68.4262295,143.893443 71.1311475,135.180328 76.3442623,140.860656 L77.7213115,142.163934 L77.7213115,138.959016 Z" id="Path" fill="#000000"></path>
            <path d="M79.2131148,123.647541 L79.2131148,125.254098 L73.1311475,125.254098 C73.6803279,125.844262 74.0901639,126.532787 74.352459,127.336066 L72.8852459,127.336066 C72.5983607,126.442623 71.7622951,125.311475 70.7622951,124.95082 L70.7622951,123.647541 L79.2131148,123.647541 L79.2131148,123.647541 Z" id="Path" fill="#000000"></path>
            <path d="M77.2622951,111.07377 L77.0901639,109.508197 C78.2622951,109.368852 78.9672131,107.52459 75.6557377,107.303279 C78.1311475,109.42623 74.0163934,112.885246 71.5491803,110.483607 C70.3032787,109.278689 69.9180328,105.639344 75.0163934,105.639344 C80.5819672,105.639344 80.3442623,110.57377 77.2622951,111.07377 Z M73.7377049,107.442623 C71.7295082,107.442623 71.4016393,109.663934 73.6065574,109.663934 C75.7622951,109.663934 75.647541,107.442623 73.7377049,107.442623 Z" id="Shape" fill="#000000"></path>
            <path d="M93.6967213,144.385246 L93.5327869,142.770492 C95.1229508,142.565574 95.2622951,140.377049 93.057377,140.377049 C91.2540984,140.377049 91.1147541,141.983607 92.1065574,142.877049 L91.9180328,144.180328 L87.557377,143.360656 L87.557377,139.098361 L89.057377,139.098361 L89.057377,142.139344 L90.4836066,142.393443 C88.5409836,138.483607 96.0081967,137.016393 96.0081967,141.606557 C96.0081967,143.106557 95.1639344,144.180328 93.6967213,144.385246 L93.6967213,144.385246 Z" id="Path" fill="#000000"></path>
            <path d="M89.5081967,122.311475 L89.6803279,123.868852 C88.4918033,124.008197 87.8278689,125.893443 91.1065574,126.098361 C88.6065574,123.983607 92.7622951,120.52459 95.2295082,122.909836 C96.4672131,124.114754 96.852459,127.770492 91.7622951,127.770492 C86.147541,127.770492 86.4754098,122.819672 89.5081967,122.311475 L89.5081967,122.311475 Z M93.0245902,125.959016 C95.0409836,125.959016 95.3606557,123.729508 93.1639344,123.729508 C90.9836066,123.729508 91.1229508,125.959016 93.0245902,125.959016 Z" id="Shape" fill="#000000"></path>
            <path d="M95.852459,107.97541 L94.1639344,107.97541 L94.1639344,111.401639 L92.7622951,111.401639 L87.4180328,107.762295 L87.4180328,106.409836 L92.7540984,106.409836 L92.7540984,105.368852 L94.1639344,105.368852 L94.1639344,106.409836 L95.852459,106.409836 L95.852459,107.97541 L95.852459,107.97541 Z M92.7540984,107.97541 L89.8852459,107.97541 L92.7540984,109.893443 L92.7540984,107.97541 Z" id="Shape" fill="#000000"></path>
        </g>
    </g>
</svg>