<?xml version="1.0" encoding="UTF-8"?>
<svg width="100px" height="85px" viewBox="0 0 100 85" version="1.1" xmlns="http://www.w3.org/2000/svg" xmlns:xlink="http://www.w3.org/1999/xlink">
    <title>square_1</title>
    <g id="square" stroke="none" stroke-width="1" fill="none" fill-rule="evenodd">
        <g id="square_1" fill-rule="nonzero">
            <path d="M54.0204082,0.1836 C57.7891156,2.3596 99.3265306,26.3296 99.3265306,26.3296 C99.8163265,26.622 99.9863946,27.2408 99.7006803,27.7372 L84.7142857,53.686 L84.7142857,83.6536 C84.7142857,84.218 84.2517007,84.6804 83.6870748,84.6804 C66.2176871,84.6804 48.755102,84.6804 31.2857143,84.6872 C31.0612245,84.6872 30.8639456,84.5988 30.6870748,84.4968 L11.6734694,73.5216 C11.4693878,73.3992 11.2993197,73.2428 11.1768707,73.032 L0.163265306,53.9716 C0.0680272109,53.8016 -9.66724811e-15,53.6112 -9.66724811e-15,53.414 L-9.66724811e-15,31.2732 C-9.66724811e-15,31.0624 0.074829932,30.8652 0.176870748,30.6952 L11.1768707,11.6484 C11.2993197,11.4444 11.4693878,11.2812 11.6734694,11.1656 L30.6870748,0.1904 C30.8707483,0.0884 31.0612245,1.44950718e-14 31.2857143,1.44950718e-14 L53.4353741,1.44950718e-14 C53.6394558,1.44950718e-14 53.8367347,0.0748 54.0204082,0.1836 Z" id="Path" fill="#000000"></path>
            <polygon id="Path" fill="#696969" points="72.7823129 13.3892 97.4013605 27.6012 83.1904762 52.2104 44.3537415 41.8064"></polygon>
            <polygon id="Path" fill="#696969" points="82.6530612 54.2028 82.6530612 82.62 54.2244898 82.62 43.8163265 43.7988"></polygon>
            <polygon id="Path" fill="#696969" points="52.0884354 82.62 32.6326531 82.62 42.3605442 46.3284"></polygon>
            <polygon id="Path" fill="#696969" points="38.9047619 44.336 12.3265306 70.9036 2.59863946 54.06"></polygon>
            <polygon id="Path" fill="#696969" points="30.6394558 82.0896 13.7891156 72.3656 40.3673469 45.798"></polygon>
            <polygon id="Path" fill="#696969" points="38.3741497 42.3436 2.06802721 52.0676 2.06802721 32.6196"></polygon>
            <polygon id="Path" fill="#696969" points="12.3265306 13.7836 2.59863946 30.6272 38.9047619 40.3512"></polygon>
            <polygon id="Path" fill="#696969" points="40.3673469 38.8892 13.7891156 12.3216 30.6394558 2.5976"></polygon>
            <polygon id="Path" fill="#696969" points="52.0884354 2.0672 42.3605442 38.3588 32.6326531 2.0672"></polygon>
            <polygon id="Path" fill="#696969" points="70.9319728 12.3216 44.3537415 38.8892 54.0816327 2.5976"></polygon>
        </g>
    </g>
</svg>