<?xml version="1.0" encoding="UTF-8"?>
<svg width="100px" height="100px" viewBox="0 0 100 100" version="1.1" xmlns="http://www.w3.org/2000/svg" xmlns:xlink="http://www.w3.org/1999/xlink">
    <title>square_1_9</title>
    <g id="square" stroke="none" stroke-width="1" fill="none" fill-rule="evenodd">
        <g id="square_1_9" fill-rule="nonzero">
            <polygon id="Path" fill="#000000" points="2.04022989 9.42363112 60.3448276 0.115273775 72.7298851 4.09221902 96.4942529 6.0518732 95.8333333 28.3573487 90.3735632 32.3919308 99.8850575 36.5706052 99.1954023 58.9048991 95.3735632 59.9423631 95.1724138 68.8472622 65.3448276 99.8559078 25.3448276 88.7608069 8.3045977 71.556196 7.38505747 63.054755 2.21264368 61.9308357 0.0862068966 39.6541787 9.45402299 35.1008646 4.22413793 31.3832853"></polygon>
            <polygon id="Path" fill="#696969" points="8.10344828 63.1412104 15.6034483 65.1008646 16.5229885 78.8184438 8.85057471 71.1239193"></polygon>
            <polygon id="Path" fill="#696969" points="24.3390805 68.0691643 35.1724138 77.5792507 39.0517241 76.3688761 39.9712644 91.5273775 25.8908046 87.8097983"></polygon>
            <polygon id="Path" fill="#696969" points="16.5229885 65.2737752 22.6436782 67.204611 24.3965517 86.5706052 17.5574713 79.8559078"></polygon>
            <polygon id="Path" fill="#EF7F1A" points="22.3563218 45.4178674 33.1609195 53.6599424 34.6264368 75.4755043 23.6494253 66.0806916"></polygon>
            <polygon id="Path" fill="#E31E24" points="1.03448276 40.7204611 20.2586207 44.3804035 21.7816092 65.3025937 3.07471264 61.2103746"></polygon>
            <polygon id="Path" fill="#696969" points="65.7471264 76.9164265 77.4137931 67.0317003 77.2413793 86.7435159 66.1781609 97.8674352"></polygon>
            <polygon id="Path" fill="#696969" points="86.2356322 62.6512968 94.6551724 60.3170029 94.7126437 68.8184438 86.2931034 77.0893372"></polygon>
            <polygon id="Path" fill="#696969" points="85.2586207 63.054755 85.3448276 78.4149856 78.2758621 85.5043228 78.3908046 65.0432277"></polygon>
            <polygon id="Path" fill="#0062AC" points="64.5689655 51.29683 74.7701149 44.2651297 98.7643678 38.2997118 98.362069 58.4726225 36.6954023 76.0230548 35.6321839 53.8616715 53.6494253 49.6541787"></polygon>
            <polygon id="Path" fill="#696969" points="2.67241379 10.6628242 10.9482759 15.5907781 12.7011494 36.3400576 4.74137931 30.8069164"></polygon>
            <polygon id="Path" fill="#696969" points="12.3275862 16.1383285 19.1954023 20.0288184 20.7471264 42.1613833 13.8218391 37.0317003"></polygon>
            <polygon id="Path" fill="#696969" points="21.0632184 20.4899135 36.2931034 22.5360231 37.7586207 45.5907781 22.7011494 42.795389"></polygon>
            <polygon id="Path" fill="#696969" points="38.908046 22.9394813 62.5574713 26.0806916 63.1321839 50.0288184 39.9712644 46.0230548"></polygon>
            <polygon id="Path" fill="#696969" points="78.4482759 17.8962536 85.9770115 13.4582133 85.7471264 35.1008646 78.5632184 40.2881844"></polygon>
            <polygon id="Path" fill="#696969" points="86.8965517 12.8242075 96.0344828 7.52161383 95.3735632 27.8674352 86.8103448 34.1786744"></polygon>
            <polygon id="Path" fill="#696969" points="73.4482759 4.58213256 94.454023 6.34005764 85.4885057 11.556196 51.7528736 10.518732"></polygon>
            <polygon id="Path" fill="#696969" points="39.3390805 21.037464 49.7413793 11.4985591 76.1494253 16.9740634 63.7643678 24.0345821"></polygon>
            <polygon id="Path" fill="#696969" points="3.87931034 9.56772334 24.4827586 6.31123919 45.1724138 10.6916427 12.4137931 14.0057637"></polygon>
            <polygon id="Path" fill="#696969" points="42.2988506 3.4870317 60.2011494 0.60518732 71.1206897 4.17867435 49.5977011 10.0576369"></polygon>
            <polygon id="Path" fill="#696969" points="22.7586207 18.70317 46.1781609 12.1325648 36.6954023 20.6628242"></polygon>
            <polygon id="Path" fill="#696969" points="53.6781609 11.29683 83.8793103 12.3631124 77.6149425 16.1095101"></polygon>
            <polygon id="Path" fill="#696969" points="46.408046 9.88472622 27.7011494 5.7925072 39.9137931 3.9481268"></polygon>
            <polygon id="Path" fill="#696969" points="13.9367816 14.4380403 43.908046 11.8731988 19.8563218 17.8674352"></polygon>
            <polygon id="Path" fill="#696969" points="47.9597701 73.8616715 63.591954 77.4927954 64.3103448 98.3573487 42.4425287 92.3919308 41.5804598 75.7060519"></polygon>
            <polygon id="Path" fill="#696969" points="65 25.8789625 76.9827586 18.8472622 77.0977011 41.4409222 65.1724138 49.7982709"></polygon>
        </g>
    </g>
</svg>