<?xml version="1.0" encoding="UTF-8"?>
<svg width="100px" height="100px" viewBox="0 0 100 100" version="1.1" xmlns="http://www.w3.org/2000/svg" xmlns:xlink="http://www.w3.org/1999/xlink">
    <title>square_2</title>
    <g id="square" stroke="none" stroke-width="1" fill="none" fill-rule="evenodd">
        <g id="square_2" fill-rule="nonzero">
            <polygon id="Path" fill="#000000" points="0.00586166471 15.0293083 41.3774912 0 99.9589683 5.00586166 98.862837 68.4290739 68.5990621 99.5720985 6.96951934 82.5849941"></polygon>
            <polygon id="Path" fill="#696969" points="52.5205158 10.7502931 79.0679953 16.2192263 66.3364596 23.3059789 42.063306 20.1582649"></polygon>
            <polygon id="Path" fill="#696969" points="76.8229777 3.57561547 98.0187573 5.40445487 88.7104338 10.5627198 55.5451348 9.66588511"></polygon>
            <polygon id="Path" fill="#696969" points="41.6002345 0.474794842 59.2614302 2.19812427 50.9202814 9.28487691 29.6424385 4.85345838"></polygon>
            <polygon id="Path" fill="#696969" points="17.6143025 9.36107855 48.2297773 10.3341149 21.4712778 17.5263775 2.22743259 15.1289566"></polygon>
            <polygon id="Path" fill="#696969" points="48.6635404 11.5005862 39.5603751 19.85932 25.6271981 17.8018757"></polygon>
            <polygon id="Path" fill="#696969" points="57.9777257 10.5392732 86.8815944 11.5123095 80.3868699 15.3458382"></polygon>
            <polygon id="Path" fill="#696969" points="61.5123095 2.61430246 73.8218054 3.48182884 54.9062134 8.59906213"></polygon>
            <polygon id="Path" fill="#696969" points="28.2708089 5.45134818 46.6822978 9.47831184 19.3083236 8.65181712"></polygon>
            <polygon id="Path" fill="#696969" points="1.1137163 16.7936694 21.0961313 19.3083236 22.6494725 41.8347011 3.09495897 38.3001172"></polygon>
            <polygon id="Path" fill="#696969" points="41.4830012 21.9812427 65.7502931 25.2989449 66.0199297 49.6424385 42.8780774 45.5744431"></polygon>
            <polygon id="Path" fill="#696969" points="5.82649472 62.936694 25.0586166 67.1101993 26.5592028 87.1981243 7.62016413 82.1101993"></polygon>
            <polygon id="Path" fill="#696969" points="44.0504103 71.8229777 66.8171161 76.9636577 67.2450176 98.5521688 45.3106682 92.2860492"></polygon>
            <polygon id="Path" fill="#696969" points="23.5990621 19.6834701 39.0269637 21.7174678 40.6858148 45.0468933 25.2520516 42.2626026"></polygon>
            <polygon id="Path" fill="#696969" points="26.7057444 67.6494725 41.7643611 71.2895662 42.9425557 91.8053927 28.3939039 87.5791325"></polygon>
            <polygon id="Path" fill="#696969" points="24.8886284 44.6307151 65.961313 52.2332943 66.7116061 75 26.4654162 65.8440797"></polygon>
            <polygon id="Path" fill="#696969" points="3.15357562 40.1348183 23.024619 43.7749121 24.7362251 65.2520516 5.47479484 60.9144197"></polygon>
            <polygon id="Path" fill="#696969" points="67.9835873 25.1934349 80.3106682 17.6436108 80.6330598 40.4923798 68.3587339 49.4841735"></polygon>
            <polygon id="Path" fill="#696969" points="90.3048066 12.028136 99.4724502 6.78194607 98.9917937 27.0867526 90.0117233 33.5638921"></polygon>
            <polygon id="Path" fill="#696969" points="68.9449004 76.7467761 80.3634232 66.4654162 80.7913247 86.1781946 69.4021102 98.0656506"></polygon>
            <polygon id="Path" fill="#696969" points="89.7186401 58.0128957 98.4583822 50.03517 98.4056272 68.2473623 89.5838218 77.2391559"></polygon>
            <polygon id="Path" fill="#696969" points="81.6354045 17.1101993 89.2497069 12.7725674 89.091442 34.3083236 81.6119578 39.7127784"></polygon>
            <polygon id="Path" fill="#696969" points="81.5767878 65.1348183 88.4935522 59.1383353 88.5463072 78.2649472 81.6529894 85.3868699"></polygon>
            <polygon id="Path" fill="#696969" points="68.3001172 51.7467761 98.933177 29.2086753 98.6635404 47.9601407 68.8042204 74.4079719"></polygon>
        </g>
    </g>
</svg>