<?xml version="1.0" encoding="UTF-8"?>
<svg width="100px" height="100px" viewBox="0 0 100 100" version="1.1" xmlns="http://www.w3.org/2000/svg" xmlns:xlink="http://www.w3.org/1999/xlink">
    <title>square_2_2</title>
    <g id="square" stroke="none" stroke-width="1" fill="none" fill-rule="evenodd">
        <g id="square_2_2" fill-rule="nonzero">
            <polygon id="Path" fill="#000000" points="34.3161094 0.105740181 93.3282675 5.55891239 93.9361702 24.7583082 89.6048632 32.0090634 99.6960486 37.6888218 99.9696049 55.4833837 94.118541 58.8821752 74.5440729 99.8791541 16.337386 84.4561934 0.136778116 33.6404834"></polygon>
            <polygon id="Path" fill="#FFFFFF" points="76.6869301 29.3806647 67.2644377 44.0936556 42.781155 40.0906344 49.6960486 20.4531722"></polygon>
            <polygon id="Path" fill="#FFFFFF" points="45.56231 20.0755287 22.5075988 36.7371601 2.11246201 33.2779456 15.0759878 20.5740181"></polygon>
            <polygon id="Path" fill="#FFFFFF" points="53.1458967 2.55287009 47.5683891 17.7794562 24.9392097 10.5438066 34.893617 0.664652568"></polygon>
            <polygon id="Path" fill="#FFFFFF" points="91.5349544 6.10271903 84.1337386 17.5226586 51.5045593 18.1873112 70.8054711 4.10876133"></polygon>
            <polygon id="Path" fill="#FFFFFF" points="68.0547112 3.98791541 50.7142857 16.5861027 55.4255319 2.74924471"></polygon>
            <polygon id="Path" fill="#FFFFFF" points="39.9696049 39.4712991 25.6990881 37.0694864 46.3829787 21.9033233"></polygon>
            <polygon id="Path" fill="#FFFFFF" points="43.6170213 18.5649547 16.5349544 19.1087613 23.8297872 11.9335347"></polygon>
            <polygon id="Path" fill="#FFFFFF" points="83.0547112 19.1540785 77.5987842 27.5830816 53.3738602 19.6978852"></polygon>
            <polygon id="Path" fill="#696969" points="7.40121581 53.7613293 26.8085106 57.734139 30.7142857 73.2628399 12.2948328 68.7613293"></polygon>
            <polygon id="Path" fill="#696969" points="1.55015198 35.1812689 21.8693009 38.7311178 26.3829787 55.9516616 6.89969605 52.0694864"></polygon>
            <polygon id="Path" fill="#696969" points="24.4832827 39.1087613 40.2583587 41.9335347 43.7234043 59.5619335 29.0577508 56.5256798"></polygon>
            <polygon id="Path" fill="#696969" points="42.5531915 42.2809668 66.5349544 46.510574 68.9513678 64.7734139 46.2462006 60.1812689"></polygon>
            <polygon id="Path" fill="#696969" points="12.8419453 70.5135952 31.2006079 74.8942598 34.7720365 88.6706949 17.0820669 83.8519637"></polygon>
            <polygon id="Path" fill="#696969" points="51.0030395 85.1812689 57.5987842 81.2084592 71.3677812 84.652568 73.0091185 98.7915408 52.887538 93.4743202"></polygon>
            <polygon id="Path" fill="#696969" points="73.2522796 83.7311178 81.2462006 68.1722054 82.3860182 82.4773414 74.8176292 98.0966767"></polygon>
            <polygon id="Path" fill="#696969" points="68.8753799 45.6042296 78.1306991 30.8459215 79.5592705 48.776435 70.8358663 64.0634441"></polygon>
            <polygon id="Path" fill="#696969" points="79.331307 29.0634441 85 20.0755287 85.9726444 37.9154079 80.6382979 46.9486405"></polygon>
            <polygon id="Path" fill="#696969" points="85.881459 18.776435 92.9179331 7.56797583 93.556231 24.6827795 86.7781155 35.9667674"></polygon>
            <polygon id="Path" fill="#696969" points="43.7234043 71.0120846 57.2796353 63.3081571 70.4255319 66.0120846 79.2553191 50.7250755 98.6170213 39.6374622 99.0577508 55.1510574 46.9756839 86.7069486"></polygon>
            <polygon id="Path" fill="#696969" points="28.9057751 59.0332326 41.5045593 70.8006042 44.893617 86.5861027 32.6595745 74.2145015"></polygon>
            <polygon id="Path" fill="#696969" points="82.112462 66.3897281 87.5075988 63.0060423 87.9179331 71.0271903 83.2066869 80.6797583"></polygon>
            <polygon id="Path" fill="#696969" points="88.4194529 62.4018127 93.5106383 59.3353474 88.7234043 69.1238671"></polygon>
            <polygon id="Path" fill="#696969" points="33.3586626 75.6193353 46.0030395 88.3081571 48.9361702 86.4048338 50.1975684 92.7492447 36.7933131 89.1540785"></polygon>
        </g>
    </g>
</svg>