<?xml version="1.0" encoding="UTF-8"?>
<svg width="100px" height="100px" viewBox="0 0 100 100" version="1.1" xmlns="http://www.w3.org/2000/svg" xmlns:xlink="http://www.w3.org/1999/xlink">
    <title>square_1_8</title>
    <g id="square" stroke="none" stroke-width="1" fill="none" fill-rule="evenodd">
        <g id="square_1_8" fill-rule="nonzero">
            <polygon id="Path" fill="#000000" points="2.13043478 9.10869565 59.4347826 0.130434783 98.673913 12.2826087 97.826087 35.6521739 94.1304348 36.3695652 93.8695652 48.0652174 88.4782609 52.7826087 97.5 57.7608696 96.8043478 78.4347826 36.3695652 98.2391304 8.45652174 70.0217391 7.56521739 61.673913 2.56521739 60.6304348 0.130434783 38.9782609 9.54347826 34.4130435 4.45652174 30.6086957"></polygon>
            <polygon id="Path" fill="#696969" points="8.15217391 62 15.7173913 63.9347826 16.4782609 77.2826087 8.91304348 69.6304348"></polygon>
            <polygon id="Path" fill="#696969" points="23.9130435 66.7391304 34.2391304 76.2826087 35.4130435 96.4130435 25.4565217 86.1304348"></polygon>
            <polygon id="Path" fill="#696969" points="16.5652174 63.9782609 22.7608696 65.8043478 24.2608696 85.1521739 17.673913 78.3913043"></polygon>
            <polygon id="Path" fill="#E31E24" points="22.326087 44.1304348 24.2826087 44.4782609 33.3478261 51.3478261 45.173913 48.3043478 61.7826087 51.2173913 62.2826087 73.173913 23.8478261 64.4565217"></polygon>
            <polygon id="Path" fill="#E31E24" points="1.2826087 40.0869565 20.0869565 43.5652174 21.9130435 63.9130435 3.23913043 59.6956522"></polygon>
            <polygon id="Path" fill="#696969" points="36.5434783 76.1956522 51.5434783 71.826087 58.7608696 73.6304348 59 89.6304348 37.6956522 96.7826087"></polygon>
            <polygon id="Path" fill="#696969" points="77.5869565 64.3913043 96.4130435 58.9565217 95.9130435 77.673913 77.5 83.5869565"></polygon>
            <polygon id="Path" fill="#696969" points="64.2173913 74.7608696 75 65.173913 75.1521739 84.4782609 60.9782609 89.0652174 60.8478261 74.1304348"></polygon>
            <polygon id="Path" fill="#0062AC" points="64.2826087 51.0869565 78.326087 40.4130435 93.5434783 36.4565217 93.3043478 47.4130435 64.6956522 72.6521739"></polygon>
            <polygon id="Path" fill="#696969" points="2.82608696 10.6521739 11.1521739 15.4565217 12.8695652 35.8043478 5.04347826 30.2391304"></polygon>
            <polygon id="Path" fill="#696969" points="12.3913043 15.9565217 19.173913 19.7173913 20.6304348 41.0217391 13.8478261 36.4565217"></polygon>
            <polygon id="Path" fill="#696969" points="20.1521739 20.3695652 31.326087 26.2391304 32.4782609 49.2608696 21.8695652 42.0869565"></polygon>
            <polygon id="Path" fill="#696969" points="33.6956522 26.5652174 57.1304348 21.7608696 57.6304348 44.2173913 34.673913 49.7608696"></polygon>
            <polygon id="Path" fill="#696969" points="60 21.173913 75.3478261 18.2391304 75.4347826 40.2826087 60.5652174 43.7173913"></polygon>
            <polygon id="Path" fill="#696969" points="77.5434783 17.5869565 97.7173913 13.7391304 97.1521739 35.1521739 77.3913043 39.7173913"></polygon>
            <polygon id="Path" fill="#696969" points="81.9130435 7.56521739 96.7391304 12.3695652 76.326087 16.2826087 51.5869565 10.7173913"></polygon>
            <polygon id="Path" fill="#696969" points="21.5434783 18.4782609 47.4130435 11.3695652 56.2391304 19.7826087 33.0434783 24.6956522"></polygon>
            <polygon id="Path" fill="#696969" points="3.65217391 9.41304348 24.4782609 6.23913043 44.8913043 10.5652174 12.3043478 13.7391304"></polygon>
            <polygon id="Path" fill="#696969" points="41.6956522 3.43478261 59.4347826 0.630434783 70.6956522 4.02173913 48.9347826 10.0434783"></polygon>
            <polygon id="Path" fill="#696969" points="27.326087 5.67391304 39.3695652 3.82608696 45.8695652 9.82608696"></polygon>
            <polygon id="Path" fill="#696969" points="52.3913043 9.7826087 71.8043478 4.52173913 80.173913 7.13043478"></polygon>
            <polygon id="Path" fill="#696969" points="58.8913043 19.3478261 50.8478261 11.5869565 73.3913043 16.6956522"></polygon>
            <polygon id="Path" fill="#696969" points="14.0652174 14.3913043 43.6304348 11.5 19.9782609 17.826087"></polygon>
        </g>
    </g>
</svg>