<?xml version="1.0" encoding="UTF-8"?>
<svg width="94px" height="100px" viewBox="0 0 94 100" version="1.1" xmlns="http://www.w3.org/2000/svg" xmlns:xlink="http://www.w3.org/1999/xlink">
    <title>square_2_1</title>
    <g id="square" stroke="none" stroke-width="1" fill="none" fill-rule="evenodd">
        <g id="square_2_1" fill-rule="nonzero">
            <polygon id="Path" fill="#000000" points="10.9666667 80 0.0417777778 29.9166667 19.5728889 7.89583333 32.9626667 2.08333333 48.4622222 0.0416666667 64.0662222 1.72916667 75.8266667 7.25 81.5293333 16.0833333 81.1324444 28.2083333 93.1017778 34.6458333 91.9111111 51.3541667 82.9706667 57.25 87.2111111 66.375 86.104 81.4583333 64.0453333 85.25 46.248 98.0416667 31.208 84.6458333"></polygon>
            <polygon id="Path" fill="#FFFFFF" points="61.0582222 33.7708333 41.7986667 44.4166667 26.1737778 33.6458333 45.9137778 17.8333333"></polygon>
            <polygon id="Path" fill="#FFFFFF" points="43.3235556 17.125 23.4791111 32.875 2.19333333 29.25 12.6586667 17.1041667"></polygon>
            <polygon id="Path" fill="#FFFFFF" points="42.8013333 14.4583333 21.6826667 7.77083333 32.2942222 3.16666667"></polygon>
            <polygon id="Path" fill="#FFFFFF" points="45.1408889 13.6458333 34.6755556 2.58333333 47.2297778 0.8125"></polygon>
            <polygon id="Path" fill="#FFFFFF" points="62.1235556 2.20833333 47.8146667 13.5833333 49.7364444 0.770833333"></polygon>
            <polygon id="Path" fill="#FFFFFF" points="73.7168889 7.27083333 50.0915556 14.2083333 64.4004444 2.75"></polygon>
            <polygon id="Path" fill="#FFFFFF" points="75.9311111 24.5625 51.3866667 16.875 79.4404444 16.7291667"></polygon>
            <polygon id="Path" fill="#FFFFFF" points="63.168 32.4166667 49.6528889 18.1458333 74.2182222 26.1041667"></polygon>
            <polygon id="Path" fill="#FFFFFF" points="79.336 15.3125 51.4075556 15.4375 75.3671111 8.39583333"></polygon>
            <polygon id="Path" fill="#FFFFFF" points="41.0048889 15.5833333 13.912 15.75 19.9071111 8.91666667"></polygon>
            <polygon id="Path" fill="#696969" points="1.39955556 31.375 22.8524444 34.8541667 25.1293333 51.5625 4.90888889 47.7708333"></polygon>
            <polygon id="Path" fill="#696969" points="25.2128889 35.7291667 40.4826667 46.4791667 42.0493333 63.7708333 27.3644444 52.2708333"></polygon>
            <polygon id="Path" fill="#696969" points="5.55644444 49.8541667 25.5053333 53.5208333 27.6986667 68.3958333 8.52266667 64.375"></polygon>
            <polygon id="Path" fill="#696969" points="27.8657778 54.8958333 42.4044444 66.2916667 43.6995556 81.3125 29.7875556 69.4791667"></polygon>
            <polygon id="Path" fill="#696969" points="8.96133333 66.1458333 27.9911111 70.3541667 29.9337778 83.6041667 11.7813333 79.4375"></polygon>
            <polygon id="Path" fill="#696969" points="30.1844444 71.4166667 43.7413333 82.8958333 45.2035556 96.3541667 31.9391111 84.25"></polygon>
            <polygon id="Path" fill="#696969" points="46.0182222 82.8541667 62.6248889 71.7708333 62.6457778 85.1458333 46.9164444 96.3333333"></polygon>
            <polygon id="Path" fill="#696969" points="64.9226667 70.7708333 85.8742222 67.25 84.8715556 80.75 65.1524444 84.1666667"></polygon>
            <polygon id="Path" fill="#696969" points="42.9893333 46.4791667 61.664 35.9583333 61.9773333 53.1041667 44.2635556 63.875"></polygon>
            <polygon id="Path" fill="#696969" points="44.6604444 66.125 92.1408889 36.5416667 91.2008889 51.0416667 45.8511111 81.1458333"></polygon>
            <polygon id="Path" fill="#696969" points="64.0871111 34.5208333 76.0773333 27.6875 75.7013333 44.5416667 64.4422222 51.375"></polygon>
            <polygon id="Path" fill="#696969" points="77.456 26.4583333 81.1115556 18.2708333 80.5266667 34.4375 77.1008889 42.5"></polygon>
        </g>
    </g>
</svg>