<?xml version="1.0" encoding="UTF-8"?>
<svg width="100px" height="229px" viewBox="0 0 100 229" version="1.1" xmlns="http://www.w3.org/2000/svg" xmlns:xlink="http://www.w3.org/1999/xlink">
    <title>square_5_1</title>
    <g id="square" stroke="none" stroke-width="1" fill="none" fill-rule="evenodd">
        <g id="square_5_1" fill-rule="nonzero">
            <path d="M1.1754386,0.0352307692 L97.122807,0.0352307692 C97.754386,0.0352307692 98.2631579,0.563692308 98.2631579,1.18023077 L98.2631579,97.5187692 C98.2631579,98.1529231 97.754386,98.6637692 97.122807,98.6637692 L1.1754386,98.6637692 C0.561403509,98.6637692 0.0350877193,98.1529231 0.0350877193,97.5187692 L0.0350877193,1.18023077 C0.0350877193,0.563692308 0.561403509,0.0352307692 1.1754386,0.0352307692 Z" id="Path" fill="#000000"></path>
            <polygon id="Path" fill="#696969" points="2.31578947 2.32523077 35.4210526 2.32523077 47.5438596 47.7376923 2.31578947 35.5654615"></polygon>
            <polygon id="Path" fill="#696969" points="95.9824561 2.32523077 62.877193 2.32523077 50.7719298 47.7376923 95.9824561 35.5654615"></polygon>
            <polygon id="Path" fill="#696969" points="2.31578947 96.3737692 35.4210526 96.3737692 47.5438596 50.9789231 2.31578947 63.1335385"></polygon>
            <polygon id="Path" fill="#696969" points="95.9824561 96.3737692 62.877193 96.3737692 50.7719298 50.9789231 95.9824561 63.1335385"></polygon>
            <polygon id="Path" fill="#696969" points="37.7894737 2.32523077 49.1578947 44.9368462 60.5263158 2.32523077"></polygon>
            <polygon id="Path" fill="#696969" points="2.31578947 60.7730769 44.754386 49.3583077 2.31578947 37.9435385"></polygon>
            <polygon id="Path" fill="#696969" points="95.9824561 60.7730769 53.5614035 49.3583077 95.9824561 37.9435385"></polygon>
            <polygon id="Path" fill="#696969" points="37.7894737 96.3737692 49.1578947 53.7797692 60.5263158 96.3737692"></polygon>
            <path d="M1.1754386,228.771 L97.122807,228.771 C97.754386,228.771 98.2631579,228.242538 98.2631579,227.626 L98.2631579,131.287462 C98.2631579,130.653308 97.754386,130.142462 97.122807,130.142462 L1.1754386,130.142462 C0.561403509,130.142462 0.0350877193,130.653308 0.0350877193,131.287462 L0.0350877193,227.626 C0.0350877193,228.242538 0.561403509,228.771 1.1754386,228.771 Z" id="Path" fill="#000000"></path>
            <polygon id="Path" fill="#696969" points="2.31578947 132.432462 35.4210526 132.432462 47.5438596 177.827308 2.31578947 165.672692"></polygon>
            <polygon id="Path" fill="#696969" points="95.9824561 132.432462 62.877193 132.432462 50.7719298 177.827308 95.9824561 165.672692"></polygon>
            <polygon id="Path" fill="#696969" points="2.31578947 226.481 35.4210526 226.481 47.5438596 181.068538 2.31578947 193.240769"></polygon>
            <polygon id="Path" fill="#696969" points="95.9824561 226.481 62.877193 226.481 50.7719298 181.068538 95.9824561 193.240769"></polygon>
            <polygon id="Path" fill="#696969" points="37.7894737 132.432462 49.1578947 175.026462 60.5263158 132.432462"></polygon>
            <polygon id="Path" fill="#696969" points="2.31578947 168.033154 44.754386 179.447923 2.31578947 190.862692"></polygon>
            <polygon id="Path" fill="#696969" points="95.9824561 168.033154 53.5614035 179.447923 95.9824561 190.862692"></polygon>
            <polygon id="Path" fill="#696969" points="37.7894737 226.481 49.1578947 183.869385 60.5263158 226.481"></polygon>
            <path d="M1.1754386,130.142462 L97.122807,130.142462 C97.754386,130.142462 98.2631579,129.983923 98.2631579,129.772538 L98.2631579,99.0336923 C98.2631579,98.8223077 97.754386,98.6637692 97.122807,98.6637692 L1.1754386,98.6637692 C0.561403509,98.6637692 0.0350877193,98.8223077 0.0350877193,99.0336923 L0.0350877193,129.772538 C0.0350877193,129.983923 0.561403509,130.142462 1.1754386,130.142462 Z" id="Path" fill="#000000"></path>
            <polygon id="Path" fill="#E31E24" points="35.4210526 127.852462 35.4210526 100.953769 2.31578947 100.953769 2.31578947 127.852462"></polygon>
            <polygon id="Path" fill="#E31E24" points="95.9824561 127.852462 95.9824561 100.953769 37.7894737 100.953769 37.7894737 127.852462"></polygon>
            <path d="M24.9298246,155.138692 L36.9122807,149.977385 C36.1929825,151.421846 35.7719298,152.848692 35.6666667,154.275538 L62.6491228,154.275538 C62.5263158,152.848692 62.1052632,151.421846 61.4035088,149.977385 L73.3684211,155.138692 L61.4035088,160.282385 C62.1052632,158.837923 62.5263158,157.411077 62.6491228,155.984231 L35.6666667,155.984231 C35.7719298,157.411077 36.1929825,158.837923 36.9122807,160.282385 L24.9298246,155.138692 Z" id="Path" fill="#FFFFFF"></path>
        </g>
    </g>
</svg>