<?xml version="1.0" encoding="UTF-8"?>
<svg width="83px" height="101px" viewBox="0 0 83 101" version="1.1" xmlns="http://www.w3.org/2000/svg" xmlns:xlink="http://www.w3.org/1999/xlink">
    <title>square_1_11</title>
    <g id="square" stroke="none" stroke-width="1" fill="none" fill-rule="evenodd">
        <g id="square_1_11" fill-rule="nonzero">
            <polygon id="Path" fill="#000000" points="7.67860963 41.3053097 3.41764706 25.9292035 9.18770053 13.6725664 21.8374332 4.51327434 38.171123 0.0442477876 77.6516043 3.09734513 78.1398396 46.8362832 76.6973262 53.7168142 82.8224599 66.2610619 82.5339572 78.4292035 61.6064171 84.7566372 45.8941176 100 29.959893 87.1238938 8.81042781 83.6283186 0.0221925134 59.3362832"></polygon>
            <polygon id="Path" fill="#BDBDBD" points="55.4590909 2.12389381 76.2756684 4.04867257 72.4363636 19.0929204 41.1671123 21.460177"></polygon>
            <polygon id="Path" fill="#BDBDBD" points="39.9465241 24.7566372 68.7967914 34.0707965 64.2029412 52.0132743 39.9465241 49.0265487"></polygon>
            <polygon id="Path" fill="#FFFFFF" points="36.9727273 26.7920354 37.1058824 48.4955752 22.0815508 46.659292"></polygon>
            <polygon id="Path" fill="#696969" points="8.23342246 40.420354 19.0855615 48.340708 22.3700535 61.2389381 11.9173797 53.6946903"></polygon>
            <polygon id="Path" fill="#696969" points="40.2128342 51.4380531 63.7812834 54.4026549 64.8909091 67.4336283 42.2989305 64.4026549"></polygon>
            <polygon id="Path" fill="#696969" points="6.08074866 73.0973451 25.6989305 75.9292035 28.2954545 86.2168142 9.67593583 83.2522124"></polygon>
            <polygon id="Path" fill="#696969" points="44.740107 88.4070796 54.0387701 79.6460177 60.2526738 80.619469 60.6743316 84.7566372 46.559893 98.539823"></polygon>
            <polygon id="Path" fill="#696969" points="21.4601604 49.0265487 37.4609626 50.9513274 39.857754 64.1150442 24.5671123 61.9911504"></polygon>
            <polygon id="Path" fill="#696969" points="27.9847594 76.9469027 43.0312834 88.7168142 44.5847594 98.3628319 30.2705882 86.9469027"></polygon>
            <polygon id="Path" fill="#696969" points="24.6558824 63.3628319 64.9131016 69.2920354 65.6898396 80.5530973 27.5631016 74.7787611"></polygon>
            <polygon id="Path" fill="#696969" points="1.4868984 60.2433628 22.1703209 63.0973451 25.1441176 74.4247788 5.61470588 71.7256637"></polygon>
            <polygon id="Path" fill="#FFFFFF" points="34.8200535 25.7079646 19.5294118 45.7300885 9.52058824 38.5840708"></polygon>
            <polygon id="Path" fill="#FFFFFF" points="33.0446524 24.5575221 8.10026738 36.9026549 5.32620321 26.8584071"></polygon>
            <polygon id="Path" fill="#FFFFFF" points="10.0088235 15 33.3997326 22.4778761 5.39278075 24.8230088"></polygon>
            <polygon id="Path" fill="#FFFFFF" points="21.571123 6.01769912 34.6203209 20.7079646 11.4957219 13.2743363"></polygon>
            <polygon id="Path" fill="#FFFFFF" points="36.7729947 1.34955752 36.8839572 19.6238938 23.7903743 4.88938053"></polygon>
            <polygon id="Path" fill="#FFFFFF" points="52.4631016 2.25663717 39.6580214 19.4911504 39.3473262 1.30530973"></polygon>
            <polygon id="Path" fill="#FFFFFF" points="72.0147059 21.0840708 43.0534759 23.3185841 69.2406417 31.7035398"></polygon>
            <polygon id="Path" fill="#696969" points="70.8606952 32.6769912 73.5681818 22.4115044 73.9676471 35.6858407 71.4377005 46.3053097"></polygon>
            <polygon id="Path" fill="#696969" points="65.8229947 53.2300885 70.2171123 36.0840708 70.7941176 48.8274336 66.6885027 65.840708"></polygon>
            <polygon id="Path" fill="#696969" points="66.7772727 67.6548673 77.6072193 22.2123894 77.7181818 33.8495575 67.5096257 79.0044248"></polygon>
            <polygon id="Path" fill="#696969" points="77.7403743 36.1725664 77.8513369 46.3716814 76.431016 53.3628319 74.8775401 49.6460177"></polygon>
            <polygon id="Path" fill="#696969" points="69.7510695 70.7522124 81.5131016 67.4115044 81.4909091 78.0752212 62.5606952 83.8274336 62.4053476 80.9292035 67.2877005 81.6150442"></polygon>
            <polygon id="Path" fill="#696969" points="74.2561497 19.0707965 77.2965241 6.4380531 77.5628342 20.3982301 74.6334225 32.8982301"></polygon>
        </g>
    </g>
</svg>