<?xml version="1.0" encoding="UTF-8"?>
<svg width="104px" height="100px" viewBox="0 0 104 100" version="1.1" xmlns="http://www.w3.org/2000/svg" xmlns:xlink="http://www.w3.org/1999/xlink">
    <title>square_1_4</title>
    <g id="square" stroke="none" stroke-width="1" fill="none" fill-rule="evenodd">
        <g id="square_1_4" fill-rule="nonzero">
            <polygon id="Path" fill="#000000" points="0.137142857 14.5558087 42.1714286 0.13667426 76.7771429 4.53302961 103.862857 14.4874715 98.88 80.523918 37.0514286 99.9088838 26.1257143 86.6287016 6.4 79.5899772"></polygon>
            <polygon id="Path" fill="#FFED00" points="51.4514286 11.7312073 60.4571429 21.6173121 35.4285714 25.9681093 24.0914286 18.6104784"></polygon>
            <polygon id="Path" fill="#FFED00" points="87.2685714 8.92938497 101.942857 14.3052392 80.64 17.9271071 55.4285714 11.0933941"></polygon>
            <polygon id="Path" fill="#FFFFFF" points="42.2857143 0.569476082 59.84 2.80182232 51.2685714 10.0683371 30.5828571 4.66970387"></polygon>
            <polygon id="Path" fill="#FFFFFF" points="18.5142857 8.92938497 48.8228571 11.2072893 21.92 17.9954442 2.78857143 14.4191344"></polygon>
            <polygon id="Path" fill="#FFED00" points="54.4228571 11.9817768 78.1485714 18.4965831 63.2914286 21.0022779"></polygon>
            <polygon id="Path" fill="#FFED00" points="76.7085714 5.19362187 85.0971429 8.24601367 56.2285714 10.3189066"></polygon>
            <polygon id="Path" fill="#FFFFFF" points="62.1028571 3.25740319 74.2628571 4.80637813 54.72 9.68109339"></polygon>
            <polygon id="Path" fill="#FFFFFF" points="29.0971429 5.30751708 48.8 10.3872437 20.5028571 8.26879271"></polygon>
            <polygon id="Path" fill="#E31E24" points="1.41714286 16.1503417 21.0742857 19.9088838 22.2628571 41.6856492 3.40571429 37.4259681"></polygon>
            <polygon id="Path" fill="#0062AC" points="36.0685714 27.8132118 60.8228571 23.5307517 60.8914286 46.5603645 36.8914286 51.8678815"></polygon>
            <polygon id="Path" fill="#E31E24" points="5.66857143 61.047836 23.7714286 66.4920273 24.9828571 85.3075171 7.33714286 79.1571754"></polygon>
            <polygon id="Path" fill="#EF7F1A" points="25.6457143 67.6309795 35.7257143 77.9498861 36.5942857 98.1093394 26.5828571 86.1958998"></polygon>
            <polygon id="Path" fill="#EF7F1A" points="22.8571429 20.501139 33.76 27.8359909 34.6742857 51.571754 24.0457143 42.3690205"></polygon>
            <polygon id="Path" fill="#EF7F1A" points="24.3657143 45.0569476 34.6514286 54.2369021 35.5885714 75.8542141 25.3485714 65.284738"></polygon>
            <polygon id="Path" fill="#E31E24" points="3.56571429 39.4077449 22.4457143 44.0318907 23.7028571 64.214123 5.37142857 58.9977221"></polygon>
            <polygon id="Path" fill="#0062AC" points="64.0685714 23.0068337 79.7028571 20.2277904 78.9714286 42.5512528 63.7485714 45.8314351"></polygon>
            <polygon id="Path" fill="#0062AC" points="82.2171429 19.6810934 102.674286 16.0820046 101.142857 37.4031891 81.28 41.594533"></polygon>
            <polygon id="Path" fill="#0062AC" points="37.9428571 78.428246 60.7085714 72.2095672 60.6857143 91.4806378 38.4 98.5421412"></polygon>
            <polygon id="Path" fill="#0062AC" points="80.32 66.5148064 99.4057143 61.2984055 98.08 79.6583144 79.4742857 85.4441913"></polygon>
            <polygon id="Path" fill="#0062AC" points="77.7142857 67.2892938 77.0285714 86.309795 62.8571429 90.7061503 63.0171429 71.6400911"></polygon>
            <polygon id="Path" fill="#0062AC" points="37.3028571 54.3052392 100.845714 39.9316629 99.5657143 59.498861 37.7828571 76.309795"></polygon>
        </g>
    </g>
</svg>