<?xml version="1.0" encoding="UTF-8"?>
<svg width="100px" height="100px" viewBox="0 0 100 100" version="1.1" xmlns="http://www.w3.org/2000/svg" xmlns:xlink="http://www.w3.org/1999/xlink">
    <title>square_7</title>
    <g id="square" stroke="none" stroke-width="1" fill="none" fill-rule="evenodd">
        <g id="square_7" fill-rule="nonzero">
            <polygon id="Path" fill="#000000" points="0.00586166471 15.0912301 41.3774912 0 99.9589683 5.02648617 98.862837 68.7110065 68.5990621 99.9823426 6.96951934 82.9252501"></polygon>
            <polygon id="Path" fill="#FFFFFF" points="52.5205158 10.7945851 79.0679953 16.2860506 66.3364596 23.4020012 42.063306 20.2413184"></polygon>
            <polygon id="Path" fill="#FFFFFF" points="76.8229777 3.59034726 98.0187573 5.4267216 88.7104338 10.606239 55.5451348 9.70570924"></polygon>
            <polygon id="Path" fill="#FFFFFF" points="41.6002345 0.47675103 59.2614302 2.20718069 50.9202814 9.32313125 29.6424385 4.87345497"></polygon>
            <polygon id="Path" fill="#FFFFFF" points="17.6143025 9.39964685 48.2297773 10.3766922 21.4712778 17.5985874 2.22743259 15.191289"></polygon>
            <polygon id="Path" fill="#FFFFFF" points="48.6635404 11.5479694 39.5603751 19.9411418 25.6271981 17.8752207"></polygon>
            <polygon id="Path" fill="#FFFFFF" points="57.9777257 10.5826957 86.8815944 11.559741 80.3868699 15.4090642"></polygon>
            <polygon id="Path" fill="#FFFFFF" points="61.5123095 2.62507357 73.8218054 3.49617422 54.9062134 8.63449088"></polygon>
            <polygon id="Path" fill="#FFFFFF" points="28.2708089 5.47380812 46.6822978 9.51736315 19.3083236 8.68746321"></polygon>
            <polygon id="Path" fill="#E31E24" points="1.1137163 16.8628605 21.0961313 19.3878752 22.6494725 42.007063 3.09495897 38.4579164"></polygon>
            <polygon id="Path" fill="#E31E24" points="41.4830012 22.0718069 65.7502931 25.4031783 66.0199297 49.8469688 42.8780774 45.7622131"></polygon>
            <polygon id="Path" fill="#E31E24" points="5.82649472 63.1959976 25.0586166 67.3866981 26.5592028 87.5573867 7.62016413 82.4484991"></polygon>
            <polygon id="Path" fill="#E31E24" points="44.0504103 72.1188935 66.8171161 77.2807534 67.2450176 98.9582107 45.3106682 92.6662743"></polygon>
            <polygon id="Path" fill="#E31E24" points="23.5990621 19.7645674 39.0269637 21.8069453 40.6858148 45.2324897 25.2520516 42.4367275"></polygon>
            <polygon id="Path" fill="#E31E24" points="26.7057444 67.9281931 41.7643611 71.5832843 42.9425557 92.1836374 28.3939039 87.9399647"></polygon>
            <polygon id="Path" fill="#E31E24" points="24.8886284 44.8145968 65.961313 52.4484991 66.7116061 75.3090053 26.4654162 66.115362"></polygon>
            <polygon id="Path" fill="#E31E24" points="3.15357562 40.3001766 23.024619 43.9552678 24.7362251 65.5208946 5.47479484 61.1653914"></polygon>
            <polygon id="Path" fill="#0062AC" points="67.9835873 25.2972337 80.3106682 17.7163037 80.6330598 40.6592113 68.3587339 49.6880518"></polygon>
            <polygon id="Path" fill="#0062AC" points="90.3048066 12.0776928 99.4724502 6.80988817 98.9917937 27.198352 90.0117233 33.7021778"></polygon>
            <polygon id="Path" fill="#0062AC" points="68.9449004 77.0629782 80.3634232 66.7392584 80.7913247 86.5332549 69.4021102 98.4696881"></polygon>
            <polygon id="Path" fill="#0062AC" points="89.7186401 58.2519129 98.4583822 50.2413184 98.4056272 68.5285462 89.5838218 77.5573867"></polygon>
            <polygon id="Path" fill="#0062AC" points="81.6354045 17.1806945 89.2497069 12.8251913 89.091442 34.4496763 81.6119578 39.8763979"></polygon>
            <polygon id="Path" fill="#0062AC" points="81.5767878 65.4031783 88.4935522 59.3819894 88.5463072 78.5874044 81.6529894 85.7386698"></polygon>
            <polygon id="Path" fill="#009846" points="68.3001172 51.9599765 98.933177 29.3290171 98.6635404 48.1577398 68.8042204 74.714538"></polygon>
        </g>
    </g>
</svg>