<?xml version="1.0" encoding="UTF-8"?>
<svg width="100px" height="100px" viewBox="0 0 100 100" version="1.1" xmlns="http://www.w3.org/2000/svg" xmlns:xlink="http://www.w3.org/1999/xlink">
    <title>square_1_2</title>
    <g id="square" stroke="none" stroke-width="1" fill="none" fill-rule="evenodd">
        <g id="square_1_2" fill-rule="nonzero">
            <polygon id="Path" fill="#000000" points="3.66995074 7.86600496 61.182266 0.124069479 99.9753695 14.5657568 98.2019704 38.08933 93.7192118 38.7841191 91.7487685 67.9652605 62.4137931 99.9007444 4.01477833 79.3052109 0.123152709 37.7171216 10.1231527 33.2506203 5.12315271 28.9081886"></polygon>
            <polygon id="Path" fill="#E31E24" points="22.7832512 64.516129 61.0344828 75.6079404 61.4285714 54.044665 45.0738916 50.2233251 32.4876847 52.7791563 23.0049261 44.6898263 21.7487685 44.4913151"></polygon>
            <polygon id="Path" fill="#E31E24" points="1.15763547 38.9578164 19.7536946 43.6228288 20.9605911 63.82134 3.07881773 58.7593052"></polygon>
            <polygon id="Path" fill="#E31E24" points="3.22660099 60.6699752 21.2807882 66.0545906 22.3152709 84.7146402 4.82758621 78.7593052"></polygon>
            <polygon id="Path" fill="#E31E24" points="23.1773399 66.6253102 36.9211823 70.8933002 37.5615764 90.1240695 24.2364532 85.5334988"></polygon>
            <polygon id="Path" fill="#E31E24" points="39.8029557 71.7617866 61.2068966 78.1885856 61.1330049 98.2133995 39.9753695 90.8933002"></polygon>
            <polygon id="Path" fill="#E31E24" points="4.11330049 9.35483871 11.6256158 14.6650124 12.9802956 34.8635236 5.39408867 28.5856079"></polygon>
            <polygon id="Path" fill="#E31E24" points="12.8817734 15.2109181 19.2610837 19.7270471 20.3694581 41.2158809 13.9901478 36.0545906"></polygon>
            <polygon id="Path" fill="#E31E24" points="20.2463054 20.4466501 30.862069 27.5186104 31.7487685 51.3399504 21.2068966 42.0099256"></polygon>
            <polygon id="Path" fill="#0062AC" points="33.2512315 27.6923077 57.5123153 23.3498759 57.5862069 46.2034739 34.0394089 51.5136476"></polygon>
            <polygon id="Path" fill="#0062AC" points="60.7142857 22.7791563 76.2068966 20.1240695 75.5665025 41.9354839 60.3940887 45.5583127"></polygon>
            <polygon id="Path" fill="#0062AC" points="78.5960591 19.4789082 98.8669951 16.0297767 97.2660099 37.2704715 77.7093596 41.5384615"></polygon>
            <polygon id="Path" fill="#0062AC" points="63.6699507 53.9205955 78.4482759 42.5062035 93.2019704 39.0074442 92.5862069 48.4615385 63.5221675 75.4094293"></polygon>
            <polygon id="Path" fill="#0062AC" points="63.4236453 77.9652605 74.7536946 67.4193548 74.1133005 85.9305211 63.1773399 97.9156328"></polygon>
            <polygon id="Path" fill="#0062AC" points="75.8866995 66.1290323 82.9064039 59.528536 82.0197044 77.5930521 75.2463054 84.9131514"></polygon>
            <polygon id="Path" fill="#0062AC" points="84.1133005 58.4863524 92.4137931 50.5955335 91.3793103 67.6426799 83.1527094 76.2531017"></polygon>
            <polygon id="Path" fill="#FFFFFF" points="83.4236453 8.95781638 97.8325123 14.2431762 77.4630542 17.866005 52.1428571 11.0173697"></polygon>
            <polygon id="Path" fill="#FFFFFF" points="21.6009852 18.3622829 48.2758621 11.439206 56.8226601 21.4143921 32.7093596 25.8312655"></polygon>
            <polygon id="Path" fill="#FFFFFF" points="5.54187192 7.89081886 26.3054187 5.16129032 45.6403941 10.5459057 12.6600985 12.8039702"></polygon>
            <polygon id="Path" fill="#FFFFFF" points="42.9802956 2.9280397 60.9359606 0.521091811 71.4039409 4.59057072 49.9261084 9.90074442"></polygon>
            <polygon id="Path" fill="#FFFFFF" points="28.8916256 4.81389578 40.7142857 3.27543424 46.6502463 9.67741935"></polygon>
            <polygon id="Path" fill="#FFFFFF" points="53.9162562 9.95037221 73.0295567 5.23573201 80.9852217 8.06451613"></polygon>
            <polygon id="Path" fill="#FFFFFF" points="59.8768473 20.719603 51.5270936 11.8610422 73.817734 18.2630273"></polygon>
            <polygon id="Path" fill="#FFFFFF" points="14.2118227 13.7717122 43.9901478 11.6377171 20.3940887 17.7171216"></polygon>
        </g>
    </g>
</svg>