<?xml version="1.0" encoding="UTF-8"?>
<svg width="88px" height="100px" viewBox="0 0 88 100" version="1.1" xmlns="http://www.w3.org/2000/svg" xmlns:xlink="http://www.w3.org/1999/xlink">
    <title>square_1_10</title>
    <g id="square" stroke="none" stroke-width="1" fill="none" fill-rule="evenodd">
        <g id="square_1_10" fill-rule="nonzero">
            <polygon id="Path" fill="#000000" points="7.66243902 41 3.41268293 25.7446809 9.16487805 13.5957447 21.7853659 4.4893617 38.097561 0.0425531915 54.302439 1.40425532 86.9482927 18.7234043 86.5190244 34.4042553 78.4273171 41.5957447 76.56 53.3191489 82.6770732 65.7659574 82.3980488 77.8510638 61.5141463 84.1276596 45.8243902 99.2553191 29.92 86.4893617 8.82146341 83 0.0429268293 58.893617"></polygon>
            <polygon id="Path" fill="#BDBDBD" points="67.6956098 9.53191489 84.844878 18.6595745 69.7990244 31.787234 41.1453659 22.4893617"></polygon>
            <polygon id="Path" fill="#BDBDBD" points="39.8790244 24.5744681 68.6829268 33.8085106 64.0897561 51.6170213 39.9004878 48.6382979"></polygon>
            <polygon id="Path" fill="#FFFFFF" points="36.8956098 26.5744681 37.0458537 48.1276596 22.0429268 46.2978723"></polygon>
            <polygon id="Path" fill="#696969" points="8.2204878 40.1276596 19.0595122 47.9787234 22.3219512 60.787234 11.8907317 53.2978723"></polygon>
            <polygon id="Path" fill="#696969" points="40.1365854 51.0638298 63.6604878 54 64.7765854 66.9361702 42.2185366 63.9148936"></polygon>
            <polygon id="Path" fill="#696969" points="6.05268293 72.5531915 25.6273171 75.3617021 28.2458537 85.5744681 9.65853659 82.6382979"></polygon>
            <polygon id="Path" fill="#696969" points="44.6653659 87.7446809 53.937561 79.0425532 60.1404878 80 60.5482927 84.106383 46.4682927 97.787234"></polygon>
            <polygon id="Path" fill="#696969" points="21.4204878 48.6382979 37.3678049 50.5531915 39.7717073 63.6170213 24.5112195 61.5106383"></polygon>
            <polygon id="Path" fill="#696969" points="27.9239024 76.3829787 42.9482927 88.0425532 44.4936585 97.6170213 30.1990244 86.2765957"></polygon>
            <polygon id="Path" fill="#696969" points="24.6185366 62.893617 64.7980488 68.787234 65.5921951 79.9574468 27.537561 74.2340426"></polygon>
            <polygon id="Path" fill="#696969" points="1.48097561 59.787234 22.1287805 62.6170213 25.0907317 73.8723404 5.60195122 71.1914894"></polygon>
            <polygon id="Path" fill="#FFFFFF" points="34.7492683 25.5106383 19.4887805 45.3829787 9.48682927 38.2765957"></polygon>
            <polygon id="Path" fill="#FFFFFF" points="32.9892683 24.3829787 8.09170732 36.6170213 5.32292683 26.6382979"></polygon>
            <polygon id="Path" fill="#FFFFFF" points="9.9804878 14.8723404 33.3326829 22.2978723 5.38731707 24.6382979"></polygon>
            <polygon id="Path" fill="#FFFFFF" points="21.5278049 5.9787234 34.5346341 20.5744681 11.4614634 13.1914894"></polygon>
            <polygon id="Path" fill="#FFFFFF" points="36.702439 1.34042553 36.8097561 19.4680851 23.7385366 4.82978723"></polygon>
            <polygon id="Path" fill="#FFFFFF" points="52.3492683 2.23404255 39.5570732 19.3404255 39.2565854 1.29787234"></polygon>
            <polygon id="Path" fill="#FFFFFF" points="65.1414634 8.4893617 41.7678049 20.0638298 54.8819512 2.82978723"></polygon>
            <polygon id="Path" fill="#696969" points="71.6878049 33.106383 85.9180488 20.4893617 85.7892683 34.0851064 72.0097561 46.5531915"></polygon>
            <polygon id="Path" fill="#696969" points="65.6995122 52.8297872 70.0995122 35.8085106 70.6790244 48.4468085 66.5795122 65.3404255"></polygon>
            <polygon id="Path" fill="#696969" points="66.6439024 67.1489362 71.3873171 48.1702128 75.2721951 44.5531915 67.3736585 78.3829787"></polygon>
            <polygon id="Path" fill="#696969" points="75.7658537 44 78.0409756 42.0212766 76.2809756 52.9787234 74.7356098 49.2978723"></polygon>
            <polygon id="Path" fill="#696969" points="69.6273171 70.212766 81.3678049 66.9148936 81.3463415 77.4893617 62.4585366 83.212766 62.3082927 80.3404255 67.1804878 81"></polygon>
        </g>
    </g>
</svg>