<?xml version="1.0" encoding="UTF-8"?>
<svg width="100px" height="100px" viewBox="0 0 100 100" version="1.1" xmlns="http://www.w3.org/2000/svg" xmlns:xlink="http://www.w3.org/1999/xlink">
    <title>square_1_3</title>
    <g id="square" stroke="none" stroke-width="1" fill="none" fill-rule="evenodd">
        <g id="square_1_3" fill-rule="nonzero">
            <polygon id="Path" fill="#000000" points="0.130434783 14.3695652 41.5434783 0.130434783 97.326087 7.39130435 94.7173913 48.4782609 89.2826087 53.4782609 97.9565217 58.673913 96.6956522 78.9130435 36.2391304 98.2826087 10.6521739 66.8695652 10.0869565 60.1956522 4.43478261 58.5434783"></polygon>
            <polygon id="Path" fill="#FFFFFF" points="51.9782609 11.3695652 77.0434783 18.1304348 65.0652174 25.1956522 41.1956522 20.9782609"></polygon>
            <polygon id="Path" fill="#FFFFFF" points="75.3913043 4.93478261 95.0869565 7.45652174 86.7391304 12.4782609 54.3913043 10.3478261"></polygon>
            <polygon id="Path" fill="#FFFFFF" points="41.7391304 0.456521739 58.5217391 2.76086957 50.3478261 9.80434783 29.8913043 4.52173913"></polygon>
            <polygon id="Path" fill="#FFFFFF" points="17.8913043 8.67391304 47.9347826 10.7608696 21.7826087 17.5217391 2.58695652 14.1521739"></polygon>
            <polygon id="Path" fill="#FFFFFF" points="48.0652174 11.9782609 38.3695652 20.4565217 24.673913 18"></polygon>
            <polygon id="Path" fill="#FFFFFF" points="56.0434783 11.2826087 85.1956522 13.3913043 78.3695652 17.1956522"></polygon>
            <polygon id="Path" fill="#FFFFFF" points="61.0652174 3.04347826 72.4782609 4.52173913 53.8695652 9.36956522"></polygon>
            <polygon id="Path" fill="#FFFFFF" points="28.5 5.10869565 47.0434783 9.91304348 19.7608696 8.10869565"></polygon>
            <polygon id="Path" fill="#E31E24" points="1.36956522 15.7826087 20.4782609 19.2826087 21.6521739 40.9565217 3.2173913 36.4347826"></polygon>
            <polygon id="Path" fill="#E31E24" points="40.5869565 23.0217391 63.9347826 27.0434783 63.5434783 50.9782609 40.8043478 45.5869565"></polygon>
            <polygon id="Path" fill="#E31E24" points="10.8478261 60.3913043 17.3478261 62.326087 18.1086957 74.7826087 11.1086957 66.3913043"></polygon>
            <polygon id="Path" fill="#E31E24" points="25.0434783 66.1304348 34.9565217 76.326087 35.7391304 96.1086957 25.9347826 84.2173913"></polygon>
            <polygon id="Path" fill="#E31E24" points="23.1086957 19.826087 37.9347826 22.5434783 38.6956522 44.9130435 24.173913 41.2826087"></polygon>
            <polygon id="Path" fill="#E31E24" points="18.2826087 62.6086957 23.826087 64.2173913 24.9130435 83.0652174 18.9782609 76.0434783"></polygon>
            <polygon id="Path" fill="#E31E24" points="23.9565217 43.7391304 63.2608696 53.5217391 63.173913 74.7608696 25.2173913 63.5869565"></polygon>
            <polygon id="Path" fill="#E31E24" points="3.65217391 38.5 21.8695652 43.0217391 23.0652174 62.8043478 5.36956522 57.6086957"></polygon>
            <polygon id="Path" fill="#0062AC" points="66.2391304 27.2826087 78.3695652 20.0434783 77.6956522 41.4347826 65.8043478 50.4565217"></polygon>
            <polygon id="Path" fill="#0062AC" points="88.0652174 14.3043478 96.7826087 8.86956522 95.673913 27.9130435 87.1521739 34.6521739"></polygon>
            <polygon id="Path" fill="#0062AC" points="36.7826087 77.1956522 52.3478261 72.7608696 59.2391304 74.8043478 59.0869565 89.7608696 37.7826087 96.7173913"></polygon>
            <polygon id="Path" fill="#0062AC" points="78.3913043 65.326087 97.1521739 60.1304348 95.826087 78.0434783 77.7391304 83.7826087"></polygon>
            <polygon id="Path" fill="#0062AC" points="79.7826087 19.3695652 87.1521739 14.9347826 86.0434783 35.3478261 79.0434783 40.7173913"></polygon>
            <polygon id="Path" fill="#0062AC" points="65.0434783 76.3478261 75.8913043 66.1086957 75.326087 84.5869565 61.3695652 89 61.5 75.326087"></polygon>
            <polygon id="Path" fill="#0062AC" points="65.7608696 53.173913 95.4347826 30.1304348 94.2826087 47.8478261 65.4347826 74.2391304"></polygon>
        </g>
    </g>
</svg>