<?xml version="1.0" encoding="UTF-8"?>
<svg width="98px" height="100px" viewBox="0 0 98 100" version="1.1" xmlns="http://www.w3.org/2000/svg" xmlns:xlink="http://www.w3.org/1999/xlink">
    <title>blind_4x4_5</title>
    <g id="Blind_4x4" stroke="none" stroke-width="1" fill="none" fill-rule="evenodd">
        <g id="blind_4x4_5" fill-rule="nonzero">
            <path d="M95.4275,71.7283951 L97.8775,16.6666667 C97.9118,15.4790123 97.6227,15.0419753 96.53,14.691358 L52.92,1.97530864 C49.79625,1.0691358 48.0004,1.06419753 44.7125,1.97530864 L2.0825,13.4567901 C2.0825,13.4567901 0.8869,13.654321 0.49,14.3209877 C0.12005,14.9432099 0.245,16.2962963 0.245,16.2962963 C1.8375,38.0864198 2.36425,50.345679 3.92,71.7283951 C3.9837,72.5925926 4.165,73.2098765 5.0225,73.8271605 L47.285,99.5555556 C48.5786,100.11358 49.33075,100.098765 50.715,99.5555556 L94.08,74.8148148 C94.08,74.8148148 94.74395,74.3555556 95.06,73.8271605 C95.47895,73.1234568 95.4275,71.7283951 95.4275,71.7283951 Z" id="Path" fill="#000000"></path>
            <polygon id="Path" fill="#E31E24" points="49.735 35.1851852 49.98 50.617284 60.8825 46.0493827 61.1275 30.7407407"></polygon>
            <polygon id="Path" fill="#E31E24" points="63.3325 29.8765432 62.965 45.0617284 73.5 40.617284 73.8675 25.9259259"></polygon>
            <polygon id="Path" fill="#E31E24" points="75.705 25.308642 75.3375 39.8765432 85.1375 35.8024691 85.505 21.4814815"></polygon>
            <polygon id="Path" fill="#E31E24" points="87.465 20.8641975 86.975 34.9382716 95.1825 31.4814815 95.795 17.5308642"></polygon>
            <polygon id="Path" fill="#E31E24" points="49.98 52.8395062 49.98 68.0246914 60.8825 62.5925926 61.1275 48.1481481"></polygon>
            <polygon id="Path" fill="#E31E24" points="63.21 47.2839506 62.8425 61.6049383 73.255 56.1728395 73.5 42.8395062"></polygon>
            <polygon id="Path" fill="#E31E24" points="75.5825 41.9753086 75.3375 55.308642 84.525 50.617284 85.015 38.0246914"></polygon>
            <polygon id="Path" fill="#E31E24" points="86.975 37.2839506 86.485 49.8765432 94.4475 45.5555556 95.1825 33.5802469"></polygon>
            <polygon id="Path" fill="#E31E24" points="49.98 70.2469136 49.98 83.4567901 60.515 77.7777778 60.6375 64.8148148"></polygon>
            <polygon id="Path" fill="#E31E24" points="62.8425 63.8271605 62.5975 76.7901235 72.8875 71.3580247 73.255 58.6419753"></polygon>
            <polygon id="Path" fill="#E31E24" points="75.215 57.7777778 74.97 70.3703704 84.035 65.5555556 84.525 53.0864198"></polygon>
            <polygon id="Path" fill="#E31E24" points="86.485 52.2222222 85.995 64.691358 93.835 60.4938272 94.4475 47.9012346"></polygon>
            <polygon id="Path" fill="#E31E24" points="49.98 85.9259259 49.98 97.5308642 60.27 91.7283951 60.515 80.1234568"></polygon>
            <polygon id="Path" fill="#E31E24" points="62.5975 79.2592593 62.3525 90.4938272 72.765 84.5679012 73.01 73.5802469"></polygon>
            <polygon id="Path" fill="#E31E24" points="74.97 72.4691358 74.6025 83.7037037 83.4225 78.3950617 83.79 67.9012346"></polygon>
            <polygon id="Path" fill="#E31E24" points="85.8725 67.037037 85.505 77.4074074 93.345 72.8395062 93.7125 62.7160494"></polygon>
            <polygon id="Path" fill="#009846" points="35.8925 30.2469136 36.26 45.308642 47.6525 50.3703704 47.6525 35.0617284"></polygon>
            <polygon id="Path" fill="#009846" points="23.6425 25.1851852 24.1325 40 34.1775 44.4444444 33.81 29.382716"></polygon>
            <polygon id="Path" fill="#009846" points="12.74 20.9876543 13.475 35.1851852 22.05 39.0123457 21.4375 24.4444444"></polygon>
            <polygon id="Path" fill="#009846" points="2.3275 16.2962963 3.3075 30.4938272 11.515 34.1975309 10.78 19.8765432"></polygon>
            <polygon id="Path" fill="#009846" points="36.26 47.1604938 36.6275 62.2222222 47.775 67.7777778 47.775 52.345679"></polygon>
            <polygon id="Path" fill="#009846" points="24.1325 42.0987654 24.6225 56.5432099 34.4225 61.2345679 34.1775 46.5432099"></polygon>
            <polygon id="Path" fill="#009846" points="13.72 37.2839506 14.21 51.1111111 22.6625 55.4320988 22.1725 41.3580247"></polygon>
            <polygon id="Path" fill="#009846" points="3.43 32.7160494 4.41 46.2962963 12.25 50.1234568 11.515 36.4197531"></polygon>
            <polygon id="Path" fill="#009846" points="36.505 64.4444444 36.8725 76.9135802 47.775 83.0864198 47.775 70.2469136"></polygon>
            <polygon id="Path" fill="#009846" points="24.745 58.5185185 25.1125 70.3703704 34.6675 75.5555556 34.4225 63.4567901"></polygon>
            <polygon id="Path" fill="#009846" points="14.3325 53.4567901 14.945 64.8148148 23.03 69.1358025 22.785 57.654321"></polygon>
            <polygon id="Path" fill="#009846" points="4.5325 48.6419753 5.2675 59.5061728 12.8625 63.5802469 12.25 52.4691358"></polygon>
            <polygon id="Path" fill="#009846" points="36.75 79.1358025 36.995 90.7407407 47.8975 97.4074074 47.8975 85.4320988"></polygon>
            <polygon id="Path" fill="#009846" points="25.235 72.7160494 25.48 83.8271605 34.9125 89.5061728 34.6675 78.0246914"></polygon>
            <polygon id="Path" fill="#009846" points="14.945 67.037037 15.435 77.7777778 23.3975 82.345679 23.03 71.7283951"></polygon>
            <polygon id="Path" fill="#009846" points="5.39 61.8518519 6.125 72.0987654 13.475 76.5432099 12.985 66.1728395"></polygon>
            <polygon id="Path" fill="#FFFFFF" points="48.755 24.9382716 37.8525 28.7654321 48.755 33.2098765 59.535 29.0123457"></polygon>
            <polygon id="Path" fill="#FFFFFF" points="61.1275 20.617284 51.695 23.8271605 62.3525 28.0246914 71.6625 24.4444444"></polygon>
            <polygon id="Path" fill="#FFFFFF" points="72.8875 16.5432099 64.19 19.6296296 74.6025 23.4567901 83.3 20.1234568"></polygon>
            <polygon id="Path" fill="#FFFFFF" points="83.1775 12.8395062 75.8275 15.4320988 86.3625 19.0123457 93.7125 16.0493827"></polygon>
            <polygon id="Path" fill="#FFFFFF" points="36.505 20.2469136 25.97 23.8271605 35.035 27.5308642 45.6925 23.8271605"></polygon>
            <polygon id="Path" fill="#FFFFFF" points="48.8775 16.0493827 39.69 19.1358025 48.755 22.7160494 58.065 19.5061728"></polygon>
            <polygon id="Path" fill="#FFFFFF" points="60.1475 12.0987654 51.94 14.9382716 61.1275 18.5185185 69.335 15.4320988"></polygon>
            <polygon id="Path" fill="#FFFFFF" points="70.07 8.88888889 63.3325 11.2345679 72.6425 14.4444444 79.625 11.8518519"></polygon>
            <polygon id="Path" fill="#FFFFFF" points="25.8475 15.9259259 14.945 19.382716 23.1525 22.7160494 33.565 19.0123457"></polygon>
            <polygon id="Path" fill="#FFFFFF" points="38.3425 12.0987654 29.0325 15.0617284 36.75 18.1481481 45.815 14.8148148"></polygon>
            <polygon id="Path" fill="#FFFFFF" points="49.245 8.7654321 41.5275 11.1111111 48.8775 13.9506173 56.7175 11.2345679"></polygon>
            <polygon id="Path" fill="#FFFFFF" points="59.1675 5.67901235 53.0425 7.65432099 60.025 10.1234568 66.2725 7.90123457"></polygon>
            <polygon id="Path" fill="#FFFFFF" points="15.435 11.9753086 4.41 15.0617284 12.005 18.1481481 22.54 14.8148148"></polygon>
            <polygon id="Path" fill="#FFFFFF" points="28.175 8.39506173 18.4975 10.9876543 25.97 13.9506173 34.9125 10.9876543"></polygon>
            <polygon id="Path" fill="#FFFFFF" points="39.5675 5.30864198 31.7275 7.5308642 38.3425 10 45.9375 7.65432099"></polygon>
            <polygon id="Path" fill="#FFFFFF" points="49.245 2.71604938 43.12 4.32098765 49.49 6.54320988 55.4925 4.69135802"></polygon>
            <path d="M9.8098,75.4814815 L5.88,67.9012346 L14.35945,68.2617284 L12.4754,71.2493827 L15.2929,73.0765432 C21.3248,76.9901235 26.6413,80.4419753 31.60745,83.162963 C37.48745,86.3876543 42.8162,88.5555556 48.16945,89.2518519 C58.68485,90.6222222 69.55305,86.3358025 85.1228,72.3901235 L82.7463,69.8123457 L91.0175,67.9012346 L88.5234,76.0765432 L86.12485,73.4765432 C70.43015,87.5358025 59.1381,92.1753086 47.97835,90.7209877 C42.36785,89.9925926 36.85535,87.7283951 30.9043,84.4641975 C25.8867,81.7135802 20.5163,78.2296296 14.4844,74.3160494 C13.5681,73.7185185 12.6371,73.1135802 11.68895,72.5012346 L9.8098,75.4839506 L9.8098,75.4814815 Z" id="Path" fill="#FFFFFF"></path>
            <path d="M5.88,67.9012346 L5.8898,67.654321 L5.46595,67.637037 L5.66195,68.0148148 L5.88,67.9012346 Z M9.8098,75.4814815 L9.59175,75.5975309 L9.78775,75.9753086 L10.0156,75.6148148 L9.8098,75.4839506 L9.8098,75.4814815 Z M14.35945,68.2617284 L14.56525,68.3950617 L14.7931,68.0345679 L14.36925,68.017284 L14.35945,68.2641975 L14.35945,68.2617284 Z M12.4754,71.2493827 L12.2696,71.1185185 L12.13975,71.3259259 L12.3431,71.4592593 L12.4754,71.2493827 L12.4754,71.2493827 Z M15.2929,73.0765432 L15.15815,73.2839506 L15.2929,73.0765432 Z M31.605,83.1604938 L31.4874,83.3777778 L31.605,83.1604938 Z M48.167,89.2493827 L48.1964,89.0049383 L48.16455,89.2518519 L48.167,89.2493827 Z M85.12035,72.3876543 L85.2845,72.5728395 L85.4707,72.4049383 L85.2992,72.2197531 L85.12035,72.3901235 L85.12035,72.3876543 Z M82.74385,69.8098765 L82.6875,69.5703704 L82.27345,69.6641975 L82.56255,69.9777778 L82.74385,69.8098765 L82.74385,69.8098765 Z M91.0175,67.9012346 L91.2527,67.9753086 L91.3752,67.5654321 L90.9636,67.6592593 L91.0175,67.9012346 Z M88.5234,76.0765432 L88.34455,76.2444444 L88.63365,76.5580247 L88.75615,76.1506173 L88.5234,76.0765432 Z M86.12485,73.4765432 L86.3037,73.308642 L86.142,73.1308642 L85.96315,73.291358 L86.12485,73.4765432 L86.12485,73.4765432 Z M47.97835,90.7209877 L47.94895,90.9679012 L47.9808,90.7209877 L47.97835,90.7209877 Z M30.9043,84.4641975 L30.7867,84.6814815 L30.9043,84.4641975 Z M14.4844,74.3160494 L14.3521,74.5209877 L14.4844,74.3135802 L14.4844,74.3160494 Z M11.68895,72.5012346 L11.82125,72.2938272 L11.613,72.1580247 L11.4807,72.3679012 L11.68895,72.5012346 L11.68895,72.5012346 Z M5.66195,68.0148148 L9.59175,75.5950617 L10.0254,75.3679012 L6.09805,67.7876543 L5.66195,68.0148148 Z M14.36925,68.0148148 L5.89225,67.654321 L5.86775,68.1481481 L14.34965,68.508642 L14.36925,68.0148148 L14.36925,68.0148148 Z M12.68365,71.382716 L14.56525,68.3950617 L14.15365,68.1308642 L12.2696,71.1185185 L12.68365,71.382716 Z M15.4252,72.8691358 L12.6077,71.0419753 L12.3431,71.4592593 L15.1606,73.2839506 L15.4252,72.8691358 Z M31.72505,82.945679 C26.7687,80.2296296 21.45955,76.7851852 15.4252,72.8691358 L15.15815,73.2839506 C21.19005,77.1975309 26.51635,80.6518519 31.48985,83.382716 L31.72505,82.9481481 L31.72505,82.945679 Z M48.19885,89.0074074 C42.8897,88.3160494 37.59035,86.162963 31.72505,82.945679 L31.48985,83.3802469 C37.3821,86.6098765 42.74025,88.7950617 48.13515,89.4962963 L48.19885,89.0074074 L48.19885,89.0074074 Z M84.9611,72.2074074 C69.4085,86.1333333 58.61135,90.362963 48.19885,89.0074074 L48.1376,89.4962963 C58.7608,90.8790123 69.6976,86.5358025 85.28695,72.5753086 L84.9611,72.2049383 L84.9611,72.2074074 Z M82.565,69.9802469 L84.94395,72.5604938 L85.3041,72.2222222 L82.92515,69.6444444 L82.565,69.9802469 Z M90.9636,67.6592593 L82.68995,69.5728395 L82.8002,70.054321 L91.0714,68.1407407 L90.9636,67.6592593 Z M88.7586,76.1506173 L91.2527,67.9728395 L90.7823,67.8296296 L88.29065,76.0024691 L88.75615,76.1506173 L88.7586,76.1506173 Z M85.946,73.6444444 L88.34455,76.2444444 L88.7047,75.908642 L86.3037,73.308642 L85.946,73.6444444 L85.946,73.6444444 Z M47.9465,90.9679012 C59.2116,92.4320988 70.5747,87.7382716 86.289,73.6592593 L85.96315,73.291358 C70.2856,87.3358025 59.06215,91.9160494 48.01265,90.4765432 L47.94895,90.9679012 L47.9465,90.9679012 Z M30.7867,84.6814815 C36.75,87.9530864 42.29435,90.2320988 47.94895,90.9679012 L48.0102,90.4765432 C42.4438,89.7530864 36.9607,87.5037037 31.0219,84.2469136 L30.7867,84.6814815 L30.7867,84.6814815 Z M14.3521,74.5209877 C20.3791,78.4345679 25.76175,81.9259259 30.7867,84.6814815 L31.0219,84.2493827 C26.0141,81.5012346 20.65105,78.0222222 14.6167,74.1061728 L14.3521,74.5209877 Z M11.55665,72.708642 L14.3521,74.5209877 L14.6167,74.1061728 L11.82125,72.2938272 L11.55665,72.708642 Z M10.0156,75.6148148 L11.89475,72.6345679 L11.4807,72.3679012 L9.60155,75.3506173 L10.01805,75.6148148 L10.0156,75.6148148 Z" id="Shape" fill="#000000"></path>
            <path d="M9.3198,61.654321 L5.39,54.0740741 L13.86945,54.437037 L11.9854,57.4246914 L14.8029,59.2493827 C20.8348,63.162963 26.1513,66.6148148 31.11745,69.3358025 C36.99745,72.5604938 42.32375,74.7283951 47.67945,75.4246914 C58.19485,76.7950617 69.06305,72.508642 84.6328,58.562963 L82.2563,55.9851852 L90.5275,54.0740741 L88.0334,62.2493827 L85.63485,59.6493827 C69.94015,73.708642 58.6481,78.345679 47.48835,76.8938272 C41.87785,76.1654321 36.36535,73.9012346 30.4143,70.637037 C25.3967,67.8864198 20.0263,64.4024691 13.9944,60.4888889 C13.0781,59.891358 12.1471,59.2864198 11.19895,58.6740741 L9.3198,61.6567901 L9.3198,61.654321 Z" id="Path" fill="#FFFFFF"></path>
            <path d="M5.39,54.0740741 L5.3998,53.8271605 L4.97595,53.8098765 L5.17195,54.1876543 L5.39,54.0740741 Z M9.3198,61.654321 L9.10175,61.7703704 L9.29775,62.1481481 L9.5256,61.7876543 L9.3198,61.6567901 L9.3198,61.654321 Z M13.86945,54.437037 L14.07525,54.5679012 L14.3031,54.2074074 L13.87925,54.1901235 L13.86945,54.437037 L13.86945,54.437037 Z M11.9854,57.4246914 L11.7796,57.291358 L11.64975,57.4987654 L11.8531,57.6320988 L11.9854,57.4222222 L11.9854,57.4246914 Z M14.8029,59.2493827 L14.66815,59.4567901 L14.8029,59.2493827 Z M31.115,69.3333333 L30.9974,69.5506173 L31.115,69.3333333 Z M47.677,75.4222222 L47.7064,75.1777778 L47.67455,75.4246914 L47.677,75.4222222 Z M84.63035,58.5604938 L84.7945,58.745679 L84.9807,58.5777778 L84.8092,58.3925926 L84.63035,58.562963 L84.63035,58.5604938 Z M82.25385,55.982716 L82.1975,55.7432099 L81.78345,55.837037 L82.07255,56.1506173 L82.25385,55.982716 Z M90.5275,54.0740741 L90.7627,54.1481481 L90.8852,53.7382716 L90.4736,53.8345679 L90.5275,54.0740741 Z M88.0334,62.2493827 L87.85455,62.417284 L88.14365,62.7308642 L88.26615,62.3234568 L88.0334,62.2493827 Z M85.63485,59.6493827 L85.8137,59.4814815 L85.652,59.3037037 L85.47315,59.4641975 L85.63485,59.6493827 Z M47.48835,76.8938272 L47.45895,77.1407407 L47.4908,76.8938272 L47.48835,76.8938272 Z M30.4143,70.637037 L30.2967,70.854321 L30.4143,70.637037 Z M13.9944,60.4888889 L13.8621,60.6938272 L13.9944,60.4864198 L13.9944,60.4888889 Z M11.19895,58.6740741 L11.33125,58.4666667 L11.123,58.3333333 L10.9907,58.5407407 L11.19895,58.6740741 Z M5.17195,54.1876543 L9.10175,61.7679012 L9.5354,61.5407407 L5.60805,53.9604938 L5.17195,54.1876543 Z M13.87925,54.1876543 L5.40225,53.8271605 L5.37775,54.3209877 L13.85965,54.6814815 L13.87925,54.1876543 L13.87925,54.1876543 Z M12.19365,57.5555556 L14.07525,54.5679012 L13.66365,54.3037037 L11.7796,57.291358 L12.19365,57.5555556 Z M14.9352,59.0419753 L12.1177,57.2148148 L11.8531,57.6320988 L14.6706,59.4567901 L14.9352,59.0419753 L14.9352,59.0419753 Z M31.23505,69.1185185 C26.2787,66.4024691 20.96955,62.9580247 14.9352,59.0419753 L14.66815,59.4567901 C20.70005,63.3703704 26.02635,66.8246914 30.99985,69.5555556 L31.23505,69.1209877 L31.23505,69.1185185 Z M47.70885,75.1802469 C42.3997,74.4888889 37.10035,72.3358025 31.23505,69.1185185 L30.99985,69.5530864 C36.8921,72.782716 42.25025,74.9679012 47.64515,75.6691358 L47.70885,75.1802469 L47.70885,75.1802469 Z M84.4711,58.3802469 C68.9185,72.3061728 58.12135,76.5358025 47.70885,75.1802469 L47.6476,75.6691358 C58.2708,77.0518519 69.2076,72.708642 84.79695,58.7481481 L84.4711,58.3777778 L84.4711,58.3802469 Z M82.075,56.1530864 L84.45395,58.7333333 L84.8141,58.3950617 L82.43515,55.817284 L82.075,56.1530864 Z M90.4736,53.8320988 L82.19995,55.745679 L82.3102,56.2271605 L90.5814,54.3135802 L90.4736,53.8345679 L90.4736,53.8320988 Z M88.2686,62.3234568 L90.7627,54.145679 L90.2923,54.0024691 L87.80065,62.1753086 L88.26615,62.3234568 L88.2686,62.3234568 Z M85.456,59.817284 L87.85455,62.417284 L88.2147,62.0814815 L85.8137,59.4814815 L85.456,59.817284 L85.456,59.817284 Z M47.4565,77.1407407 C58.7216,78.6049383 70.0847,73.9111111 85.799,59.8320988 L85.47315,59.4641975 C69.7956,73.508642 58.57215,78.0888889 47.52265,76.6493827 L47.45895,77.1407407 L47.4565,77.1407407 Z M30.2967,70.854321 C36.26,74.1259259 41.80435,76.4049383 47.45895,77.1407407 L47.5202,76.6493827 C41.9538,75.9259259 36.4707,73.6765432 30.5319,70.4197531 L30.2967,70.854321 L30.2967,70.854321 Z M13.8621,60.6938272 C19.8891,64.6074074 25.27175,68.0987654 30.2967,70.854321 L30.5319,70.4222222 C25.5241,67.6740741 20.16105,64.1950617 14.1267,60.2790123 L13.8621,60.6938272 L13.8621,60.6938272 Z M11.06665,58.8814815 L13.8621,60.6938272 L14.1267,60.2790123 L11.33125,58.4666667 L11.06665,58.8814815 Z M9.5256,61.7876543 L11.40475,58.8049383 L10.9907,58.5407407 L9.11155,61.5234568 L9.52805,61.7876543 L9.5256,61.7876543 Z" id="Shape" fill="#000000"></path>
            <path d="M10.16995,46.8197531 L5.39,39.7530864 L13.8523,39.1160494 L12.3284,42.3061728 C14.6069,43.4419753 16.7825,44.5432099 18.8748,45.6024691 C23.36565,47.8790123 27.4645,49.9555556 31.3551,51.7135802 C37.2155,54.3604938 42.52955,56.2469136 47.86565,56.9481481 C58.3394,58.3308642 69.0704,55.1777778 84.28735,43.7382716 L82.1289,40.9753086 L90.5275,39.7530864 L87.37925,47.6962963 L85.19875,44.9061728 C69.8005,56.4839506 58.6824,59.8691358 47.67455,58.4197531 C42.13265,57.6888889 36.6667,55.7358025 30.7524,53.0641975 C26.8324,51.2938272 22.68455,49.1925926 18.1741,46.9061728 C16.0916,45.8518519 13.9356,44.7580247 11.68895,43.6419753 L10.16995,46.8197531 Z" id="Path" fill="#E5E5E5"></path>
            <path d="M5.39,39.7530864 L5.37285,39.5061728 L4.949,39.5382716 L5.18665,39.891358 L5.39,39.7530864 Z M10.16995,46.8197531 L9.9666,46.9604938 L10.2067,47.3135802 L10.39045,46.9283951 L10.16995,46.8197531 Z M13.8523,39.1160494 L14.0728,39.2222222 L14.259,38.837037 L13.83515,38.8691358 L13.8523,39.1160494 Z M12.3284,42.3061728 L12.1079,42.2 L12.00255,42.4197531 L12.2206,42.5283951 L12.3284,42.3061728 L12.3284,42.3061728 Z M18.8748,45.6024691 L18.76455,45.8246914 L18.8748,45.6024691 Z M31.3551,51.7135802 L31.25465,51.9358025 L31.35265,51.7135802 L31.3551,51.7135802 Z M47.86565,56.9481481 L47.8338,57.1950617 L47.86565,56.9481481 Z M84.28735,43.7382716 L84.43435,43.9382716 L84.63525,43.7876543 L84.4809,43.5876543 L84.28735,43.7407407 L84.28735,43.7382716 Z M82.1289,40.9753086 L82.09215,40.7308642 L81.6732,40.7925926 L81.93535,41.1283951 L82.12645,40.9753086 L82.1289,40.9753086 Z M90.5275,39.7530864 L90.75535,39.8444444 L90.91215,39.4493827 L90.4932,39.508642 L90.5275,39.7530864 L90.5275,39.7530864 Z M87.37925,47.6962963 L87.1857,47.8493827 L87.44785,48.1851852 L87.6071,47.7876543 L87.37925,47.6962963 L87.37925,47.6962963 Z M85.19875,44.9061728 L85.38985,44.7506173 L85.24285,44.562963 L85.05175,44.7061728 L85.19875,44.9037037 L85.19875,44.9061728 Z M47.6721,58.4197531 L47.64025,58.6641975 L47.6721,58.417284 L47.6721,58.4197531 Z M30.74995,53.0641975 L30.65195,53.2888889 L30.74995,53.0666667 L30.74995,53.0641975 Z M18.17165,46.9061728 L18.0614,47.1259259 L18.17165,46.9037037 L18.17165,46.9061728 Z M11.6865,43.6419753 L11.79675,43.4197531 L11.57625,43.308642 L11.466,43.5333333 L11.6865,43.6419753 Z M5.1842,39.891358 L9.96415,46.9604938 L10.37085,46.6814815 L5.5909,39.6148148 L5.1842,39.891358 L5.1842,39.891358 Z M13.8327,38.8691358 L5.37285,39.5061728 L5.40715,40 L13.8719,39.3604938 L13.83515,38.8666667 L13.8327,38.8691358 Z M12.54645,42.4148148 L14.0728,39.2222222 L13.6318,39.0074074 L12.10545,42.2 L12.54645,42.4148148 L12.54645,42.4148148 Z M18.9826,45.3802469 C16.8903,44.3209877 14.7147,43.2197531 12.43375,42.0839506 L12.21815,42.5283951 C14.49665,43.6617284 16.6698,44.762963 18.75965,45.8222222 L18.98015,45.3802469 L18.9826,45.3802469 Z M31.4531,51.4864198 C27.5674,49.7333333 23.47345,47.6592593 18.9826,45.3802469 L18.7621,45.8246914 C23.2505,48.0962963 27.35425,50.1777778 31.2522,51.9382716 L31.4531,51.4864198 L31.4531,51.4864198 Z M47.89505,56.7037037 C42.59325,56.0049383 37.3037,54.1308642 31.4531,51.4864198 L31.2522,51.9382716 C37.1224,54.5901235 42.46095,56.4864198 47.83135,57.1950617 L47.89505,56.7061728 L47.89505,56.7037037 Z M84.1379,43.5432099 C68.9479,54.9580247 58.28305,58.0740741 47.89505,56.7037037 L47.83135,57.1950617 C58.39085,58.5876543 69.188,55.3950617 84.4319,43.9382716 L84.1379,43.5432099 L84.1379,43.5432099 Z M81.9329,41.1283951 L84.09135,43.8938272 L84.47845,43.5876543 L82.31755,40.8222222 L81.9329,41.1283951 Z M90.49075,39.508642 L82.0897,40.7308642 L82.16075,41.2197531 L90.55935,39.9975309 L90.49075,39.508642 Z M87.60465,47.7876543 L90.7529,39.8444444 L90.2972,39.6617284 L87.14895,47.6049383 L87.60465,47.7876543 Z M85.00275,45.0567901 L87.18325,47.8469136 L87.5679,47.5432099 L85.3874,44.7530864 L85.00275,45.0567901 Z M47.64025,58.6617284 C58.73385,60.1259259 69.9181,56.7012346 85.34085,45.1012346 L85.04685,44.7061728 C69.68045,56.2641975 58.6236,59.6148148 47.70395,58.1728395 L47.64025,58.6641975 L47.64025,58.6617284 Z M30.6495,53.2888889 C36.5736,55.9654321 42.0665,57.9283951 47.64025,58.6641975 L47.70395,58.1728395 C42.1988,57.4469136 36.75735,55.5061728 30.8504,52.8395062 L30.6495,53.2888889 Z M18.0614,47.1259259 C22.5694,49.4123457 26.7246,51.5160494 30.6495,53.2888889 L30.8504,52.8395062 C26.93775,51.0716049 22.7948,48.9728395 18.2819,46.6839506 L18.0614,47.1259259 L18.0614,47.1259259 Z M11.5787,43.8617284 C13.82535,44.9802469 15.98135,46.0716049 18.0614,47.1259259 L18.2819,46.6839506 C16.1994,45.6320988 14.0434,44.5358025 11.79675,43.4197531 L11.5787,43.8641975 L11.5787,43.8617284 Z M10.388,46.9283951 L11.907,43.7481481 L11.466,43.5333333 L9.947,46.7135802 L10.388,46.9283951 Z" id="Shape" fill="#000000"></path>
            <path d="M56.154,6.78518519 L54.96085,10.1185185 L49.49,3.58024691 L57.8445,2.07407407 L56.65625,5.39012346 C61.13975,6.95308642 65.0916,8.21481481 68.58285,9.31111111 L70.15575,9.80493827 C73.1619,10.7481481 75.81035,11.5777778 78.12805,12.3901235 C83.53275,14.2864198 87.2935,16.1358025 89.73125,19.2888889 C92.17145,22.4493827 93.1931,26.7901235 93.4675,33.4222222 C93.737,39.9308642 93.28375,48.7950617 92.6296,61.1604938 L96.1331,61.3481481 L91.5075,68.5185185 L87.661,60.8938272 L91.1645,61.0814815 C91.81865,48.6864198 92.2621,39.908642 91.9975,33.4839506 C91.728,26.9283951 90.72105,22.9802469 88.5724,20.2 C86.4164,17.4148148 83.02805,15.6765432 77.6454,13.7901235 C75.35465,12.9851852 72.73315,12.162963 69.7221,11.2222222 L68.1443,10.7259259 C64.6457,9.62469136 60.6669,8.35555556 56.15645,6.78518519 L56.154,6.78518519 Z" id="Path" fill="#FFFFFF"></path>
            <path d="M54.96085,10.1185185 L54.77465,10.2790123 L55.0466,10.6049383 L55.1936,10.2024691 L54.96085,10.1185185 L54.96085,10.1185185 Z M56.15645,6.78518519 L56.2373,6.55061728 L56.007,6.47160494 L55.92615,6.70123457 L56.15645,6.78518519 Z M49.49,3.58024691 L49.4459,3.3382716 L49.0294,3.41234568 L49.3038,3.7382716 L49.49,3.58024691 Z M57.8445,2.07407407 L58.0748,2.15802469 L58.21935,1.75555556 L57.80285,1.82962963 L57.8445,2.07654321 L57.8445,2.07407407 Z M56.65625,5.39012346 L56.42595,5.30617284 L56.3402,5.54320988 L56.5754,5.62469136 L56.65625,5.39012346 L56.65625,5.39012346 Z M68.58285,9.31111111 L68.50935,9.54567901 L68.58285,9.31111111 Z M70.15575,9.80493827 L70.08225,10.0395062 L70.15575,9.80493827 Z M78.12805,12.3901235 L78.2089,12.1555556 L78.12805,12.3901235 Z M89.73125,19.2888889 L89.9248,19.1382716 L89.73125,19.2888889 Z M93.4675,33.4222222 L93.2225,33.4320988 L93.4675,33.4222222 Z M92.6296,61.1604938 L92.3846,61.1481481 L92.37235,61.3950617 L92.61735,61.4074074 L92.63205,61.1604938 L92.6296,61.1604938 Z M96.1331,61.3481481 L96.3389,61.4814815 L96.57165,61.1234568 L96.1478,61.1012346 L96.1331,61.3481481 L96.1331,61.3481481 Z M91.5075,68.5185185 L91.287,68.6296296 L91.483,69.0123457 L91.7133,68.654321 L91.5075,68.5185185 L91.5075,68.5185185 Z M87.661,60.8938272 L87.67325,60.6469136 L87.24695,60.6246914 L87.44295,61.0074074 L87.65855,60.8938272 L87.661,60.8938272 Z M91.1645,61.0814815 L91.1498,61.3283951 L91.3948,61.3432099 L91.40705,61.0962963 L91.16205,61.0814815 L91.1645,61.0814815 Z M91.9975,33.4839506 L91.7525,33.4938272 L91.9975,33.4839506 Z M88.5724,20.2 L88.76595,20.0493827 L88.56995,20.2 L88.5724,20.2 Z M77.6454,13.7901235 L77.7238,13.5555556 L77.6454,13.7901235 Z M69.7221,11.2222222 L69.6486,11.4567901 L69.7221,11.2197531 L69.7221,11.2222222 Z M68.1443,10.7259259 L68.0708,10.9604938 L68.1443,10.7259259 Z M55.19115,10.2024691 L56.38675,6.8691358 L55.92615,6.70123457 L54.73055,10.0345679 L55.19115,10.2024691 Z M49.3038,3.7382716 L54.77465,10.2790123 L55.1495,9.95802469 L49.6762,3.42222222 L49.3038,3.7382716 Z M57.8004,1.83209877 L49.4459,3.3382716 L49.5341,3.82222222 L57.8886,2.31604938 L57.8004,1.83209877 Z M56.88655,5.47407407 L58.0748,2.15802469 L57.6142,1.99012346 L56.42595,5.30617284 L56.88655,5.47407407 Z M68.6539,9.07407407 C65.1651,7.97777778 61.21325,6.71851852 56.73465,5.15802469 L56.5754,5.62469136 C61.0589,7.18765432 65.0181,8.44938272 68.5069,9.54567901 L68.6539,9.07654321 L68.6539,9.07407407 Z M70.22925,9.56790123 L68.6539,9.07407407 L68.5069,9.54567901 L70.08225,10.0395062 L70.22925,9.57037037 L70.22925,9.56790123 Z M78.2089,12.1555556 C75.8863,11.3407407 73.2354,10.5111111 70.22925,9.56790123 L70.08225,10.0395062 C73.09085,10.982716 75.73685,11.8123457 78.0472,12.6222222 L78.2089,12.1555556 L78.2089,12.1555556 Z M89.9248,19.1382716 C87.4405,15.9234568 83.6185,14.0518519 78.2089,12.1555556 L78.0472,12.6246914 C83.44945,14.5185185 87.14895,16.3506173 89.5377,19.4395062 L89.9248,19.1382716 L89.9248,19.1382716 Z M93.7125,33.4098765 C93.4381,26.7679012 92.414,22.3604938 89.9248,19.1382716 L89.5377,19.4419753 C91.93135,22.5382716 92.95055,26.8148148 93.2225,33.4320988 L93.7125,33.4123457 L93.7125,33.4098765 Z M92.8746,61.1728395 C93.52875,48.8123457 93.97955,39.9358025 93.7125,33.4123457 L93.2225,33.4320988 C93.492,39.9259259 93.0412,48.7777778 92.38705,61.1481481 L92.87705,61.1728395 L92.8746,61.1728395 Z M96.1478,61.1012346 L92.6443,60.9135802 L92.6198,61.4074074 L96.1233,61.5950617 L96.1478,61.1012346 Z M91.7133,68.654321 L96.3389,61.4814815 L95.92975,61.2123457 L91.3017,68.382716 L91.7133,68.654321 L91.7133,68.654321 Z M87.4405,61.0074074 L91.287,68.6296296 L91.728,68.4074074 L87.8766,60.782716 L87.4405,61.0049383 L87.4405,61.0074074 Z M91.17675,60.8345679 L87.67325,60.6493827 L87.6463,61.1432099 L91.1498,61.3283951 L91.1743,60.8345679 L91.17675,60.8345679 Z M91.7525,33.4938272 C92.0171,39.9037037 91.57365,48.6716049 90.9195,61.0691358 L91.4095,61.0938272 C92.0612,48.7061728 92.5071,39.9111111 92.2425,33.4740741 L91.7525,33.4938272 L91.7525,33.4938272 Z M88.37885,20.3530864 C90.4785,23.0691358 91.483,26.9506173 91.7525,33.4938272 L92.2425,33.4740741 C91.973,26.9061728 90.96115,22.891358 88.7635,20.0493827 L88.37885,20.3530864 L88.37885,20.3530864 Z M77.56455,14.0222222 C82.94475,15.908642 86.27185,17.6271605 88.37885,20.3530864 L88.7635,20.0493827 C86.5634,17.2024691 83.11135,15.4444444 77.7238,13.5555556 L77.56455,14.0222222 Z M69.65105,11.454321 C72.65965,12.4 75.2787,13.2197531 77.56455,14.0222222 L77.72625,13.5555556 C75.4306,12.7506173 72.80175,11.9259259 69.7956,10.9851852 L69.6486,11.454321 L69.65105,11.454321 Z M68.0708,10.9604938 L69.65105,11.454321 L69.7956,10.9851852 L68.2178,10.491358 L68.0708,10.9604938 L68.0708,10.9604938 Z M56.0756,7.01728395 C60.59095,8.59259259 64.5722,9.8617284 68.0708,10.9604938 L68.2178,10.491358 C64.7192,9.39012346 60.7453,8.12098765 56.2373,6.55061728 L56.0756,7.01975309 L56.0756,7.01728395 Z" id="Shape" fill="#000000"></path>
            <path d="M8.67055,62.9333333 L12.17405,62.745679 L8.33,70.3703704 L3.6995,63.2024691 L7.203,63.0123457 C6.99475,59.2839506 6.78895,55.8320988 6.6003,52.6320988 C6.08335,43.908642 5.67665,37.0691358 5.6252,31.6617284 C5.5517,24.1654321 6.14215,19.237037 8.18545,15.7950617 C10.2606,12.2962963 13.7396,10.4740741 18.99485,8.91358025 C22.0157,8.01728395 25.7152,7.18518519 30.1791,6.18518519 C33.2416,5.49876543 36.6618,4.72839506 40.4691,3.80493827 L39.60915,0.385185185 L47.775,2.71604938 L41.69165,8.67901235 L40.82925,5.24444444 C36.9362,6.19012346 33.4866,6.96296296 30.41675,7.65185185 C26.01165,8.63950617 22.39545,9.44938272 19.4089,10.3358025 C14.24185,11.8666667 11.2259,13.5580247 9.4472,16.5555556 C7.63665,19.6049383 7.0217,24.145679 7.0952,31.6469136 C7.14665,37.0148148 7.54845,43.8 8.0654,52.5012346 C8.25405,55.7111111 8.45985,59.1802469 8.67055,62.9333333 Z" id="Path" fill="#FFFFFF"></path>
            <path d="M12.1765,62.745679 L12.39455,62.8567901 L12.58565,62.4765432 L12.1618,62.4987654 L12.17405,62.745679 L12.1765,62.745679 Z M8.67055,62.9333333 L8.42555,62.9481481 L8.4378,63.1950617 L8.6828,63.1802469 L8.67055,62.9333333 Z M8.33,70.3703704 L8.1242,70.5061728 L8.35695,70.8641975 L8.54805,70.4814815 L8.33,70.3703704 Z M3.6995,63.2024691 L3.68725,62.9555556 L3.2634,62.9802469 L3.4937,63.3358025 L3.6995,63.2024691 L3.6995,63.2024691 Z M7.203,63.0123457 L7.21525,63.2592593 L7.46025,63.2469136 L7.44555,63 L7.20055,63.0123457 L7.203,63.0123457 Z M6.6003,52.6320988 L6.8453,52.617284 L6.6003,52.6320988 Z M5.6252,31.6617284 L5.8702,31.6592593 L5.6252,31.6592593 L5.6252,31.6617284 Z M8.183,15.7950617 L7.9723,15.6691358 L8.183,15.7925926 L8.183,15.7950617 Z M18.99485,8.91358025 L18.9238,8.67654321 L18.99485,8.91358025 Z M30.1791,6.18518519 L30.1252,5.94320988 L30.1791,6.18518519 Z M40.4691,3.80493827 L40.52545,4.04691358 L40.76555,3.98765432 L40.7043,3.74567901 L40.46665,3.80493827 L40.4691,3.80493827 Z M39.60915,0.385185185 L39.6753,0.148148148 L39.26615,0.0320987654 L39.3715,0.44691358 L39.60915,0.385185185 L39.60915,0.385185185 Z M47.775,2.71604938 L47.9465,2.89382716 L48.2503,2.59506173 L47.84115,2.47901235 L47.775,2.71604938 Z M41.69165,8.67901235 L41.454,8.74074074 L41.5569,9.15555556 L41.86315,8.85679012 L41.69165,8.67901235 Z M40.82925,5.24444444 L41.0669,5.18271605 L41.00565,4.94814815 L40.77045,5.00493827 L40.82925,5.24444444 Z M30.41675,7.65185185 L30.47065,7.89382716 L30.41675,7.65185185 Z M19.4089,10.3358025 L19.3403,10.0987654 L19.4089,10.3358025 Z M9.4472,16.5555556 L9.2365,16.4296296 L9.4472,16.5530864 L9.4472,16.5555556 Z M7.0952,31.6469136 L6.8502,31.6493827 L7.0952,31.6469136 Z M8.0654,52.5012346 L8.3104,52.4864198 L8.0654,52.5012346 Z M12.1618,62.4987654 L8.6583,62.6864198 L8.6828,63.1802469 L12.1863,62.9925926 L12.1618,62.4987654 L12.1618,62.4987654 Z M8.54805,70.4814815 L12.39455,62.8567901 L11.956,62.6345679 L8.1095,70.2592593 L8.5505,70.4814815 L8.54805,70.4814815 Z M3.4937,63.3358025 L8.1242,70.5061728 L8.5358,70.2345679 L3.9053,63.0666667 L3.4937,63.3382716 L3.4937,63.3358025 Z M7.1883,62.7679012 L3.6848,62.9555556 L3.7142,63.4493827 L7.21525,63.2592593 L7.19075,62.7654321 L7.1883,62.7679012 Z M6.3553,52.6469136 C6.54395,55.8469136 6.7473,59.2987654 6.958,63.0271605 L7.448,63 C7.23975,59.2716049 7.03395,55.817284 6.8453,52.617284 L6.3553,52.6469136 Z M5.3802,31.6641975 C5.43165,37.0790123 5.83835,43.9259259 6.3553,52.6469136 L6.8453,52.617284 C6.32835,43.891358 5.92165,37.0592593 5.8702,31.6592593 L5.3802,31.6641975 Z M7.9772,15.6691358 C5.8947,19.1753086 5.3067,24.1679012 5.3802,31.6641975 L5.8702,31.6592593 C5.7967,24.162963 6.39205,19.2987654 8.39615,15.9209877 L7.97475,15.6691358 L7.9772,15.6691358 Z M18.9238,8.67901235 C13.6563,10.2419753 10.0989,12.0888889 7.97475,15.6666667 L8.39615,15.9209877 C10.41985,12.508642 13.8229,10.7061728 19.06345,9.15308642 L18.9238,8.67901235 L18.9238,8.67901235 Z M30.1252,5.94567901 C25.6662,6.94814815 21.9569,7.78024691 18.9238,8.67901235 L19.06345,9.15308642 C22.07695,8.25925926 25.76665,7.42962963 30.23055,6.42962963 L30.1252,5.94567901 L30.1252,5.94567901 Z M40.4103,3.56790123 C36.60545,4.49135802 33.1877,5.25925926 30.1252,5.94567901 L30.23055,6.42962963 C33.29305,5.74074074 36.7157,4.97283951 40.52545,4.04938272 L40.4103,3.56790123 L40.4103,3.56790123 Z M39.3715,0.449382716 L40.229,3.8691358 L40.7043,3.74567901 L39.8468,0.328395062 L39.3715,0.449382716 Z M47.84115,2.47901235 L39.6753,0.148148148 L39.543,0.622222222 L47.70885,2.95061728 L47.84115,2.47654321 L47.84115,2.47901235 Z M41.86315,8.85679012 L47.9465,2.89382716 L47.6035,2.5382716 L41.52015,8.5037037 L41.86315,8.85679012 Z M40.58915,5.30617284 L41.454,8.7382716 L41.9293,8.61975309 L41.0669,5.18271605 L40.5916,5.30617284 L40.58915,5.30617284 Z M30.47065,7.89382716 C33.53805,7.20493827 36.99255,6.42962963 40.8856,5.48395062 L40.77045,5.00493827 C36.8823,5.95061728 33.4327,6.72345679 30.36285,7.41234568 L30.47065,7.89382716 L30.47065,7.89382716 Z M19.4775,10.5728395 C22.4567,9.69135802 26.0631,8.88148148 30.47065,7.89382716 L30.36285,7.41234568 C25.9602,8.4 22.33665,9.20987654 19.33785,10.0987654 L19.4775,10.5728395 Z M9.6579,16.6814815 C11.3876,13.7679012 14.32515,12.1012346 19.4775,10.5728395 L19.3403,10.0987654 C14.15855,11.637037 11.0642,13.3481481 9.2365,16.4296296 L9.6579,16.6814815 Z M7.3402,31.6444444 C7.2667,24.1432099 7.88655,19.6666667 9.6579,16.6814815 L9.2365,16.4296296 C7.3892,19.5432099 6.77425,24.1481481 6.8502,31.6493827 L7.3402,31.6444444 Z M8.3104,52.4864198 C7.79345,43.782716 7.39165,37.0049383 7.3402,31.6444444 L6.8502,31.6493827 C6.90165,37.0246914 7.3059,43.817284 7.8204,52.5160494 L8.3104,52.4864198 Z M8.9131,62.9209877 C8.70485,59.1654321 8.49905,55.6962963 8.3104,52.4864198 L7.8204,52.5160494 C8.0115,55.7259259 8.21485,59.1925926 8.42555,62.9481481 L8.91555,62.9209877 L8.9131,62.9209877 Z" id="Shape" fill="#000000"></path>
        </g>
    </g>
</svg>