<?xml version="1.0" encoding="UTF-8"?>
<svg width="98px" height="100px" viewBox="0 0 98 100" version="1.1" xmlns="http://www.w3.org/2000/svg" xmlns:xlink="http://www.w3.org/1999/xlink">
    <title>v4x4_begin_2_3</title>
    <g id="Begin_4x4" stroke="none" stroke-width="1" fill="none" fill-rule="evenodd">
        <g id="v4x4_begin_2_3" fill-rule="nonzero">
            <path d="M48.2846715,99.8089983 C33.7256333,90.8955857 19.1665951,82.0033956 4.60755689,73.1324278 C4.2919708,72.9414261 4.03950193,72.62309 4.01846286,72.2198642 L0.0210390726,14.410017 C-0.0210390726,13.8794567 0.294547016,13.3488964 0.82052383,13.2003396 C16.810219,8.80730051 32.7788751,4.43548387 48.7685702,0.0424448217 C49.0210391,-0.0212224109 49.3155861,0.0212224109 49.5470159,0.0848896435 L97.1794762,14.3463497 C97.705453,14.4949066 98,14.9617997 97.9789609,15.5135823 C97.0953199,34.6561969 96.1906398,53.7988115 95.3069987,72.9414261 C95.2859596,73.3234295 95.096608,73.6842105 94.7599828,73.8752122 L49.4418205,99.8514431 C49.0631172,100.063667 48.6212967,100.021222 48.2846715,99.8089983 Z" id="Path" fill="#000000"></path>
            <polygon id="Path" fill="#696969" points="37.8492915 28.1833616 48.7264921 24.3845501 59.4564191 28.5441426 48.7264921 32.7037351"></polygon>
            <polygon id="Path" fill="#696969" points="75.8668957 14.87691 83.0622585 12.3514431 93.5186775 15.5348048 86.2391584 18.3573854"></polygon>
            <polygon id="Path" fill="#696969" points="43.0249034 3.86247878 49.1262344 2.18590832 55.3958781 4.0959253 49.3155861 6.00594228"></polygon>
            <polygon id="Path" fill="#696969" points="4.41820524 14.4524618 15.3374839 11.4813243 22.4697295 14.2614601 11.8029197 17.5509338"></polygon>
            <polygon id="Path" fill="#696969" points="51.7140404 23.3234295 61.0764277 20.0339559 71.5328467 23.9601019 62.3598111 27.4405772"></polygon>
            <polygon id="Path" fill="#696969" points="64.1481322 18.9940577 72.7110348 16.0016978 83.1253757 19.524618 74.4993559 22.8353141"></polygon>
            <polygon id="Path" fill="#696969" points="25.793903 23.2597623 36.4817518 19.6307301 45.6547875 23.1960951 34.8617432 26.9949066"></polygon>
            <polygon id="Path" fill="#696969" points="39.5955346 18.6120543 48.7896093 15.5135823 57.9416058 18.9091681 48.6633748 22.1774194"></polygon>
            <polygon id="Path" fill="#696969" points="51.9244311 14.4524618 59.9403177 11.7147708 69.3447832 14.8981324 61.0133104 17.8480475"></polygon>
            <polygon id="Path" fill="#696969" points="63.1803349 10.6536503 69.8497209 8.42529711 79.5697724 11.3327674 72.6058394 13.8157895"></polygon>
            <polygon id="Path" fill="#696969" points="14.9377415 18.8242784 25.6466295 15.4923599 33.3679691 18.5059423 22.8063547 22.0713073"></polygon>
            <polygon id="Path" fill="#696969" points="28.9287248 14.4949066 38.2490339 11.6298812 45.6127093 14.3463497 36.52383 17.4448217"></polygon>
            <polygon id="Path" fill="#696969" points="41.5521683 10.6112054 49.2735079 8.23429542 56.5740661 10.6324278 48.7685702 13.3064516"></polygon>
            <polygon id="Path" fill="#696969" points="52.8291112 7.13073005 59.1197939 5.22071307 66.2520395 7.36417657 59.8982396 9.50764007"></polygon>
            <polygon id="Path" fill="#696969" points="18.7458137 10.5263158 28.2344354 7.91595925 34.9458995 10.4202037 25.7097467 13.2640068"></polygon>
            <polygon id="Path" fill="#696969" points="31.7689996 6.96095076 39.427222 4.85993209 45.8231 7.04584041 38.270073 9.42275042"></polygon>
            <polygon id="Path" fill="#696969" points="35.955775 29.7113752 47.5903821 34.5076401 47.6745384 49.8726655 36.2082439 44.8641766"></polygon>
            <polygon id="Path" fill="#696969" points="2.23014169 15.8319185 10.7088879 19.3336163 11.3400601 33.573854 3.2189781 29.9235993"></polygon>
            <polygon id="Path" fill="#696969" points="36.7552598 78.6502547 47.842851 84.9108659 47.842851 96.9651952 36.9235723 90.3438031"></polygon>
            <polygon id="Path" fill="#696969" points="5.3649635 61.417657 12.7917561 65.5135823 13.2546157 75.8701188 6.08029197 71.540747"></polygon>
            <polygon id="Path" fill="#696969" points="23.5637613 24.6179966 33.8308287 28.8624788 34.0622585 43.7606112 24.0897381 39.3887946"></polygon>
            <polygon id="Path" fill="#696969" points="12.7917561 20.2249576 21.5860884 23.7691002 22.0068699 38.3488964 13.4229283 34.5288625"></polygon>
            <polygon id="Path" fill="#696969" points="36.229283 46.9651952 47.7797338 52.1010187 47.6955775 67.4448217 36.4396737 61.8421053"></polygon>
            <polygon id="Path" fill="#696969" points="24.0897381 41.4685908 34.1043366 46.0950764 34.3147274 60.6324278 24.5525977 55.8786078"></polygon>
            <polygon id="Path" fill="#696969" points="13.5281237 36.8421053 22.1120653 40.6833616 22.5538858 54.75382 14.1803349 50.6154499"></polygon>
            <polygon id="Path" fill="#696969" points="3.38729068 32.2580645 11.4452555 35.8870968 12.0764277 49.533107 4.31300988 45.6918506"></polygon>
            <polygon id="Path" fill="#696969" points="36.4817518 63.9219015 47.7586947 69.6307301 47.8218119 82.5339559 36.7131816 76.4855688"></polygon>
            <polygon id="Path" fill="#696969" points="24.5946758 58.0220713 34.3988836 63.0093379 34.5882353 75.1697793 24.9733791 69.885399"></polygon>
            <polygon id="Path" fill="#696969" points="14.2855303 52.9286927 22.6380421 57.1307301 22.9536282 68.7606112 14.790468 64.3039049"></polygon>
            <polygon id="Path" fill="#696969" points="4.43924431 48.0475382 12.181623 51.910017 12.7075998 63.1154499 5.19665092 59.0195246"></polygon>
            <polygon id="Path" fill="#696969" points="25.0575354 72.262309 34.6303134 77.5891341 34.798626 89.0704584 25.3731215 83.3828523"></polygon>
            <polygon id="Path" fill="#696969" points="14.9167024 66.6808149 23.0167454 71.1375212 23.3112924 82.024618 15.358523 77.2071307"></polygon>
            <polygon id="Path" fill="#696969" points="49.6311722 34.5288625 61.0553886 30.1570458 60.8660369 45.4584041 49.7574066 49.9787776"></polygon>
            <polygon id="Path" fill="#696969" points="87.6487763 20.0551783 95.7908974 16.9142615 95.1176471 30.9847199 87.0807213 34.3803056"></polygon>
            <polygon id="Path" fill="#696969" points="49.8205238 85.3565365 60.4452555 79.75382 60.2769429 91.2139219 49.9257192 97.1137521"></polygon>
            <polygon id="Path" fill="#696969" points="85.7131816 66.4473684 93.7080292 62.3089983 93.2662087 72.3259762 85.3555174 76.8463497"></polygon>
            <polygon id="Path" fill="#696969" points="63.1803349 29.2657046 73.7209103 25.4032258 73.4053242 40.1315789 62.927866 44.524618"></polygon>
            <polygon id="Path" fill="#696969" points="75.7196222 24.6179966 85.52383 20.9040747 84.955775 35.2504244 75.4040361 39.2826825"></polygon>
            <polygon id="Path" fill="#696969" points="49.7994848 52.2071307 60.8660369 47.5806452 60.6556462 62.1816638 49.862602 67.5721562"></polygon>
            <polygon id="Path" fill="#696969" points="62.9489051 46.6893039 73.3211679 42.4023769 73.1107772 55.8573854 62.7174753 61.0568761"></polygon>
            <polygon id="Path" fill="#0062AC" points="75.3619579 41.426146 84.9347359 37.4787776 84.4087591 50.1910017 75.1515672 54.9023769"></polygon>
            <polygon id="Path" fill="#696969" points="86.8913697 36.6298812 95.0545298 33.1706282 94.4654358 45.0976231 86.4285101 49.1935484"></polygon>
            <polygon id="Path" fill="#696969" points="49.883641 69.885399 60.6135681 64.2826825 60.4242164 77.3344652 49.883641 82.8735144"></polygon>
            <polygon id="Path" fill="#696969" points="62.6964362 63.4337861 73.0476599 58.1706282 72.7951911 70.9252971 62.5491627 76.2521222"></polygon>
            <polygon id="Path" fill="#696969" points="75.0253328 57.1519525 84.2614856 52.5466893 83.798626 65.1740238 74.8780593 69.9066214"></polygon>
            <polygon id="Path" fill="#696969" points="86.3864319 51.5280136 94.3392014 47.4108659 93.8553027 59.9108659 85.8604551 64.1129032"></polygon>
            <polygon id="Path" fill="#696969" points="62.5281237 78.6926995 72.7531129 73.2597623 72.6058394 84.1893039 62.3177329 90.0466893"></polygon>
            <polygon id="Path" fill="#696969" points="74.793903 72.1349745 83.7144697 67.508489 83.3988836 77.9923599 74.5835122 83.0008489"></polygon>
            <path d="M79.8012022,14.0280136 C80.3482181,14.4736842 80.7689996,15.0254669 81.0214684,15.6409168 C71.322456,18.3998302 63.8535852,20.352292 58.0888793,22.4957555 C51.5246887,24.9363328 47.1485616,27.6315789 44.3924431,31.9821732 C39.132675,40.2801358 39.7848862,54.4354839 41.173465,83.8285229 C40.5002147,83.7860781 39.8480034,83.573854 39.2799485,83.1706282 C40.1425505,85.3140917 41.0682696,87.4363328 41.9519107,89.5373514 C42.6462001,87.3514431 43.3194504,85.1443124 44.0137398,82.9584041 C43.4667239,83.4040747 42.8355517,83.679966 42.1623014,83.7860781 C40.7947617,54.393039 40.2687849,40.3650255 45.234006,32.5127334 C47.842851,28.3955857 51.9665092,25.827674 58.4465436,23.4083192 C64.1270932,21.3073005 71.5959639,19.3336163 81.3160155,16.5747029 C81.4212108,17.2325976 81.3580936,17.9329372 81.1266638,18.5908319 C82.9991413,17.2325976 84.8295406,15.8531409 86.6599399,14.516129 C84.3877201,14.3463497 82.1155002,14.1765705 79.8222413,14.0067912 L79.8012022,14.0280136 Z" id="Path" fill="#FFFFFF"></path>
        </g>
    </g>
</svg>