<?xml version="1.0" encoding="UTF-8"?>
<svg width="100px" height="100px" viewBox="0 0 100 100" version="1.1" xmlns="http://www.w3.org/2000/svg" xmlns:xlink="http://www.w3.org/1999/xlink">
    <title>ivy_2_5</title>
    <g id="ivy" stroke="none" stroke-width="1" fill="none" fill-rule="evenodd">
        <g id="ivy_2_5" fill-rule="nonzero">
            <path d="M0.1875,26.641791 C-0.046875,22.8955224 4.25,15.6119403 7.90625,14.238806 L41.09375,1.73134328 C45.1875,0.194029851 50.265625,-0.656716418 55.8125,1.35820896 L91.34375,14.3283582 C94.46875,15.4626866 100.171875,23.4626866 99.578125,27.5970149 L93.984375,66.4925373 C93.1875,72.0447761 90.734375,73.7761194 85.140625,77.8507463 L59.578125,96.5223881 C55.375,99.5820896 46.984375,101 41.40625,97.5522388 L8.9375,77.4626866 C6.515625,75.9701493 3.09375,70.7910448 2.765625,65.761194 L0.1875,26.641791 Z" id="Path" fill="#000000"></path>
            <path d="M49.375,1.29850746 C52.40625,1.29850746 67.125,9.62686567 67.125,18.641791 C67.125,27.6716418 55.328125,36.9104478 52.296875,36.9104478 C49.265625,36.9104478 34,26.1044776 34,17.0746269 C34,8.04477612 46.34375,1.29850746 49.375,1.29850746 Z" id="Path" fill="#EF7F1A"></path>
            <path d="M90.828125,15.1343284 L60.796875,4.58208955 C72.734375,12.6119403 75.546875,22.2238806 66.46875,32.3731343 L91.671875,19.7910448 C93.921875,18.6716418 93.234375,15.9850746 90.828125,15.1343284 Z" id="Path" fill="#0062AC"></path>
            <path d="M9.796875,20.0746269 L37.4375,32.8358209 C22.140625,18.9402985 29.15625,11.3134328 37.140625,3.92537313 L9.65625,14.6268657 C5.796875,16.1343284 7.4375,19.0597015 9.796875,20.0746269 Z" id="Path" fill="#0062AC"></path>
            <path d="M94.78125,25.238806 L71.015625,36.9402985 C86.0625,38.2686567 91.015625,42.3432836 94.359375,59.1044776 L98.6875,29.4328358 C99.140625,26.2238806 97.609375,23.8507463 94.78125,25.238806 Z" id="Path" fill="#FFFFFF"></path>
            <path d="M71.125,75.4029851 C81.296875,78.3880597 90.1875,73.6865672 91.21875,71.3731343 C92.234375,69.0447761 92.296875,58.880597 86.5,49.0447761 C81.171875,40.0298507 61.359375,41.6865672 58.4375,45.6567164 C55.6875,49.3880597 60.953125,72.4179104 71.125,75.4029851 L71.125,75.4029851 Z" id="Path" fill="#0062AC"></path>
            <path d="M58.40625,95.8358209 L81.96875,79.2537313 C65.734375,82.9104478 61.625,77.0298507 55.6875,62.7164179 L54,93.0895522 C53.78125,96.8507463 57.265625,96.641791 58.40625,95.8358209 Z" id="Path" fill="#FFFFFF"></path>
            <path d="M40.671875,94.9552239 L15.75,79.358209 C34.078125,83.5970149 42.40625,77.238806 49.140625,63.0447761 L48.609375,91.6119403 C48.515625,96.4477612 45.859375,98.2089552 40.671875,94.9552239 L40.671875,94.9552239 Z" id="Path" fill="#EF7F1A"></path>
            <path d="M5.703125,24.6716418 L33.359375,37.8955224 C10.96875,38.9253731 8.9375,45.6567164 3.203125,59.3134328 L1.03125,28.2089552 C0.90625,26.3134328 3.203125,23.4776119 5.703125,24.6716418 Z" id="Path" fill="#EF7F1A"></path>
            <path d="M15.34375,47.4179104 C23.40625,40.9402985 44.921875,43.6119403 47.4375,47.9104478 C49.953125,52.1940299 43.484375,67.9104478 34.53125,73.6716418 C25.59375,79.4328358 9.25,75.0895522 6.234375,71.7910448 C3.234375,68.4776119 7.296875,53.8955224 15.34375,47.4179104 Z" id="Path" fill="#FFFFFF"></path>
        </g>
    </g>
</svg>