<?xml version="1.0" encoding="UTF-8"?>
<svg width="200px" height="188px" viewBox="0 0 200 188" version="1.1" xmlns="http://www.w3.org/2000/svg" xmlns:xlink="http://www.w3.org/1999/xlink">
    <title>ivy_1_2</title>
    <g id="ivy" stroke="none" stroke-width="1" fill="none" fill-rule="evenodd">
        <g id="ivy_1_2" fill-rule="nonzero">
            <path d="M51.3285714,14.8821374 L90.1142857,1.86564885 C97.5714286,-0.358778626 97.4142857,-0.473587786 106,1.20549618 L160.657143,11.4235115 L162.5,15.3270229 L199.1,1.23419847 L197.857143,67.3212214 L153.371429,92.7658015 L120.028571,109.78626 L113.928571,111.680611 L113.642857,187.36855 L46.8,167.047328 L47.5285714,94.2439695 L0.771428571,80.2803053 L0.0571428571,7.46259542 L48.0571429,18.2977099 L51.3285714,14.8821374 Z" id="Path" fill="#000000"></path>
            <path d="M53.0285714,14.9825954 L94.1285714,23.650687 C76.6857143,14.0067176 80.2,9.58656489 83.7714286,4.66412214 L53.0285714,14.9825954 L53.0285714,14.9825954 Z" id="Path" fill="#FFFFFF"></path>
            <path d="M120.442857,8.72549618 C107.128571,0.617099237 97.8857143,-0.344427481 95.1,1.1480916 C92.3,2.62625954 81.5571429,8.39541985 88.0571429,15.8149618 C94.5428571,23.2201527 114.071429,28.7022901 116.728571,26.9945038 C119.371429,25.3010687 133.757143,16.819542 120.442857,8.72549618 Z" id="Path" fill="#696969"></path>
            <path d="M157.071429,11.7248855 L117.657143,4.11877863 C126.885714,8.85465649 135.285714,14.0784733 128.685714,22.7896183 L157.071429,11.7248855 Z" id="Path" fill="#FFFFFF"></path>
            <path d="M2.54285714,78.2137405 L32.0857143,87.4989313 C18.1428571,74.6116031 7.4,53.3862595 2.1,29.0754198 L2.54285714,78.2137405 Z" id="Path" fill="#E31E24"></path>
            <path d="M33.7428571,44.1584733 C25.7428571,26.7361832 4.47142857,5.61129771 3.24285714,11.9545038 C2.01428571,18.2833588 4.68571429,35.7343511 14.3142857,56.600916 C23.9571429,77.4531298 40,91.3450382 43.4714286,89.1349618 C46.9428571,86.9392366 41.7428571,61.5807634 33.7428571,44.1584733 Z" id="Path" fill="#696969"></path>
            <path d="M45.1857143,21.0244275 L16.0857143,14.0067176 C30.3714286,27.2384733 40.3285714,45.4644275 45.6285714,69.0146565 L45.1857143,21.0244275 Z" id="Path" fill="#E31E24"></path>
            <path d="M49.8857143,21.770687 C63.8,24.4974046 77.7142857,27.2241221 91.6142857,29.9651908 C71.6571429,35.6625954 57.7571429,48.679084 50.3571429,69.5169466 L49.8857143,21.770687 Z" id="Path" fill="#0062AC"></path>
            <path d="M66.9571429,50.5877863 C78.1285714,37.7148092 107.842857,30.0082443 109.557143,37.4851908 C111.271429,44.9764885 107.528571,61.5090076 94.0857143,76.8647328 C80.6285714,92.220458 58.2142857,95.8943511 53.3714286,91.2158779 C48.5285714,86.5517557 55.7857143,63.4464122 66.9571429,50.5877863 Z" id="Path" fill="#696969"></path>
            <path d="M110.528571,107.820153 L69.2571429,97.3294656 C88.7428571,93.7560305 103.742857,79.6345038 111.142857,58.7966412 L110.528571,107.820153 Z" id="Path" fill="#0062AC"></path>
            <path d="M118.371429,107.66229 L147.471429,93.3972519 C130.771429,88.6470229 124.785714,77.768855 118.757143,58.0073282 L118.371429,107.66229 L118.371429,107.66229 Z" id="Path" fill="#EF7F1A"></path>
            <path d="M129.028571,73.4061069 C136.985714,87.9294656 155.3,92.2778626 157.871429,85.3462595 C160.442857,78.4003053 158.314286,67.780458 152.328571,53.1709924 C145.771429,37.1551145 130.4,30.6109924 122.285714,34.4283969 C117.4,36.710229 121.085714,58.8827481 129.028571,73.4061069 L129.028571,73.4061069 Z" id="Path" fill="#696969"></path>
            <path d="M161.428571,17.8241221 L132.871429,28.7740458 C149.928571,33.6964885 154.785714,45.3926718 160.1,63.8482443 L161.428571,17.8241221 L161.428571,17.8241221 Z" id="Path" fill="#EF7F1A"></path>
            <path d="M165.257143,16.0876336 L188.571429,6.80244275 C173.757143,24.0381679 169.071429,39.1212214 163.671429,61.2219847 L165.257143,16.0876336 L165.257143,16.0876336 Z" id="Path" fill="#009846"></path>
            <path d="M186.142857,47.6601527 C179.671429,66.6754198 165.928571,85.2601527 164.3,81.3135878 C162.671429,77.381374 164.685714,66.4458015 169.7,48.9661069 C175.2,29.778626 186.842857,11.6674809 192.714286,8.40977099 C196.228571,6.44366412 192.614286,28.6448855 186.142857,47.6601527 L186.142857,47.6601527 Z" id="Path" fill="#696969"></path>
            <path d="M196.5,66.488855 L172.9,79.5770992 C186.885714,59.2558779 192.085714,42.7951145 197.5,17.4079389 L196.5,66.488855 Z" id="Path" fill="#009846"></path>
            <path d="M110.528571,113.589313 L69.2571429,102.352366 C88.7428571,115.842443 103.742857,137.11084 111.142857,160.919389 L110.528571,113.589313 Z" id="Path" fill="#FFED00"></path>
            <path d="M66.9571429,145.994198 C78.1285714,164.090992 107.842857,186.823206 109.557143,180.523053 C111.271429,174.237252 107.528571,156.456183 94.0857143,134.785954 C80.6285714,113.115725 58.2142857,98.0326718 53.3714286,100.01313 C48.5285714,101.993588 55.7857143,127.897405 66.9571429,145.994198 L66.9571429,145.994198 Z" id="Path" fill="#696969"></path>
            <path d="M49.8857143,164.822901 C63.8,169.386565 77.7142857,173.935878 91.6142857,178.499542 C71.6571429,162.727634 57.7571429,143.080916 50.3571429,119.272366 L49.8857143,164.822901 L49.8857143,164.822901 Z" id="Path" fill="#FFED00"></path>
        </g>
    </g>
</svg>