<?xml version="1.0" encoding="UTF-8"?>
<svg width="200px" height="180px" viewBox="0 0 200 180" version="1.1" xmlns="http://www.w3.org/2000/svg" xmlns:xlink="http://www.w3.org/1999/xlink">
    <title>ivy_2_4</title>
    <g id="ivy" stroke="none" stroke-width="1" fill="none" fill-rule="evenodd">
        <g id="ivy_2_4" fill-rule="nonzero">
            <path d="M51.3285714,14.248855 L90.1142857,1.78625954 C97.5714286,-0.34351145 97.4142857,-0.453435115 106,1.15419847 L160.657143,10.9374046 L162.5,14.6748092 L199.1,1.18167939 L197.857143,64.4564885 L153.371429,88.8183206 L120.028571,105.114504 L113.928571,106.928244 L113.642857,179.39542 L46.8,159.938931 L47.5285714,90.2335878 L0.771428571,76.8641221 L0.0571428571,7.14503817 L48.0571429,17.519084 L51.3285714,14.248855 Z" id="Path" fill="#000000"></path>
            <path d="M53.0285714,14.3450382 L94.1285714,22.6442748 C76.6857143,13.410687 80.2,9.17862595 83.7714286,4.46564885 L53.0285714,14.3450382 L53.0285714,14.3450382 Z" id="Path" fill="#0062AC"></path>
            <path d="M120.442857,8.35419847 C107.128571,0.590839695 97.8857143,-0.329770992 95.1,1.09923664 C92.3,2.51450382 81.5571429,8.03816794 88.0571429,15.1419847 C94.5428571,22.2320611 114.071429,27.480916 116.728571,25.8458015 C119.371429,24.2244275 133.757143,16.1038168 120.442857,8.35419847 Z" id="Path" fill="#E31E24"></path>
            <path d="M157.071429,11.2259542 L117.657143,3.94351145 C126.885714,8.4778626 135.285714,13.4793893 128.685714,21.8198473 L157.071429,11.2259542 Z" id="Path" fill="#0062AC"></path>
            <path d="M2.54285714,74.8854962 L32.0857143,83.7755725 C18.1428571,71.4366412 7.4,51.1145038 2.1,27.8381679 L2.54285714,74.8854962 Z" id="Path" fill="#FFED00"></path>
            <path d="M33.7428571,42.2793893 C25.7428571,25.5984733 4.47142857,5.37251908 3.24285714,11.4458015 C2.01428571,17.5053435 4.68571429,34.2137405 14.3142857,54.1923664 C23.9571429,74.1572519 40,87.4580153 43.4714286,85.3419847 C46.9428571,83.2396947 41.7428571,58.9603053 33.7428571,42.2793893 Z" id="Path" fill="#FFED00"></path>
            <path d="M45.1857143,20.129771 L16.0857143,13.410687 C30.3714286,26.0793893 40.3285714,43.529771 45.6285714,66.0778626 L45.1857143,20.129771 Z" id="Path" fill="#FFED00"></path>
            <path d="M49.8857143,20.8442748 C63.8,23.4549618 77.7142857,26.0656489 91.6142857,28.6900763 C71.6571429,34.1450382 57.7571429,46.6076336 50.3571429,66.5587786 L49.8857143,20.8442748 Z" id="Path" fill="#EF7F1A"></path>
            <path d="M66.9571429,48.4351145 C78.1285714,36.1099237 107.842857,28.7312977 109.557143,35.8900763 C111.271429,43.0625954 107.528571,58.8916031 94.0857143,73.5938931 C80.6285714,88.2961832 58.2142857,91.8137405 53.3714286,87.3343511 C48.5285714,82.8687023 55.7857143,60.7465649 66.9571429,48.4351145 Z" id="Path" fill="#EF7F1A"></path>
            <path d="M110.528571,103.232061 L69.2571429,93.1877863 C88.7428571,89.7664122 103.742857,76.2458015 111.142857,56.2946565 L110.528571,103.232061 Z" id="Path" fill="#EF7F1A"></path>
            <path d="M118.371429,103.080916 L147.471429,89.4229008 C130.771429,84.8748092 124.785714,74.459542 118.757143,55.5389313 L118.371429,103.080916 L118.371429,103.080916 Z" id="Path" fill="#FFFFFF"></path>
            <path d="M129.028571,70.2824427 C136.985714,84.1877863 155.3,88.351145 157.871429,81.7145038 C160.442857,75.0641221 158.314286,64.8961832 152.328571,50.9083969 C145.771429,35.5740458 130.4,29.3083969 122.285714,32.9633588 C117.4,35.1480916 121.085714,56.3770992 129.028571,70.2824427 L129.028571,70.2824427 Z" id="Path" fill="#0062AC"></path>
            <path d="M161.428571,17.0656489 L132.871429,27.5496183 C149.928571,32.2625954 154.785714,43.4610687 160.1,61.1312977 L161.428571,17.0656489 L161.428571,17.0656489 Z" id="Path" fill="#FFFFFF"></path>
            <path d="M165.257143,15.4030534 L188.571429,6.5129771 C173.757143,23.0152672 169.071429,37.4564885 163.671429,58.6167939 L165.257143,15.4030534 L165.257143,15.4030534 Z" id="Path" fill="#E31E24"></path>
            <path d="M186.142857,45.6320611 C179.671429,63.8381679 165.928571,81.6320611 164.3,77.8534351 C162.671429,74.0885496 164.685714,63.6183206 169.7,46.8824427 C175.2,28.5114504 186.842857,11.1709924 192.714286,8.0519084 C196.228571,6.16946565 192.614286,27.4259542 186.142857,45.6320611 L186.142857,45.6320611 Z" id="Path" fill="#FFFFFF"></path>
            <path d="M196.5,63.659542 L172.9,76.1908397 C186.885714,56.7343511 192.085714,40.9740458 197.5,16.6671756 L196.5,63.659542 Z" id="Path" fill="#E31E24"></path>
            <path d="M110.528571,108.755725 L69.2571429,97.9969466 C88.7428571,110.912977 103.742857,131.276336 111.142857,154.071756 L110.528571,108.755725 Z" id="Path" fill="#009846"></path>
            <path d="M66.9571429,139.781679 C78.1285714,157.108397 107.842857,178.873282 109.557143,172.841221 C111.271429,166.822901 107.528571,149.798473 94.0857143,129.050382 C80.6285714,108.30229 58.2142857,93.8610687 53.3714286,95.7572519 C48.5285714,97.6534351 55.7857143,122.454962 66.9571429,139.781679 L66.9571429,139.781679 Z" id="Path" fill="#009846"></path>
            <path d="M49.8857143,157.80916 C63.8,162.178626 77.7142857,166.534351 91.6142857,170.903817 C71.6571429,155.803053 57.7571429,136.992366 50.3571429,114.196947 L49.8857143,157.80916 L49.8857143,157.80916 Z" id="Path" fill="#009846"></path>
        </g>
    </g>
</svg>