<?xml version="1.0" encoding="UTF-8"?>
<svg width="100px" height="100px" viewBox="0 0 100 100" version="1.1" xmlns="http://www.w3.org/2000/svg" xmlns:xlink="http://www.w3.org/1999/xlink">
    <title>ivy_1</title>
    <g id="ivy" stroke="none" stroke-width="1" fill="none" fill-rule="evenodd">
        <g id="ivy_1" fill-rule="nonzero">
            <path d="M4.89130435,12.6 L36.6304348,1.64444444 C43.0869565,-0.311111111 42.9565217,-0.422222222 50.3913043,1.06666667 L95.6086957,10.0444444 C97.5217391,10.6888889 99.2173913,11.9111111 99.2826087,14.2888889 L97.8695652,69.9555556 C97.3913043,77.2222222 93.8043478,80.6 91.4347826,81.8 L62.5434783,96.8 C57.2826087,99.5777778 57.7826087,99.4222222 52.0869565,97.8222222 L11.5,86.6666667 C7.76086957,85.6444444 0.0434782609,81.3777778 0.5,72.3555556 L0.0434782609,18.5555556 C0.108695652,14.0666667 0.413043478,14.2666667 4.89130435,12.6 Z" id="Path" fill="#000000"></path>
            <path d="M1.76086957,19.2 C13.826087,21.6 25.8695652,24 37.9347826,26.4222222 C20.6304348,31.4444444 8.58695652,42.9333333 2.17391304,61.2888889 L1.76086957,19.2 Z" id="Path" fill="#009846"></path>
            <path d="M16.5652174,44.6 C26.2391304,33.2666667 51.9782609,26.4666667 53.4782609,33.0666667 C54.9565217,39.6666667 51.7173913,54.2444444 40.0652174,67.7777778 C28.3913043,81.3111111 8.97826087,84.5555556 4.7826087,80.4444444 C0.586956522,76.3111111 6.89130435,55.9555556 16.5652174,44.6 Z" id="Path" fill="#696969"></path>
            <path d="M54.3043478,95.0666667 C42.2608696,92.6666667 30.6086957,88.2444444 18.5652174,85.8222222 C35.4347826,82.6666667 48.4347826,70.2222222 54.8478261,51.8444444 L54.3043478,95.0666667 Z" id="Path" fill="#009846"></path>
            <path d="M61.1086957,94.9333333 C73.5652174,88.5555556 73.6521739,88.3777778 86.326087,82.3555556 C72.3695652,79.8222222 67.8695652,69.5333333 61.4565217,51.1555556 L61.1086957,94.9333333 L61.1086957,94.9333333 Z" id="Path" fill="#EF7F1A"></path>
            <path d="M70.3478261,64.7333333 C77.2391304,77.5333333 93.1086957,81.3777778 95.3478261,75.2444444 C97.5652174,69.1333333 95.5652174,59.8222222 90.5434783,46.8888889 C85.0217391,32.6888889 71.5434783,27 64.5,30.3555556 C60.2826087,32.3777778 63.4565217,51.9333333 70.3478261,64.7333333 L70.3478261,64.7333333 Z" id="Path" fill="#696969"></path>
            <path d="M98.4347826,15.7111111 L73.673913,25.3777778 C88.4565217,29.7111111 92.0652174,40.2888889 97.2608696,56.2888889 L98.4347826,15.7111111 Z" id="Path" fill="#EF7F1A"></path>
            <path d="M4.47826087,13.2222222 L40.1086957,20.8666667 C24.9782609,12.3555556 28.0217391,8.44444444 31.1304348,4.11111111 L4.47826087,13.2222222 Z" id="Path" fill="#FFED00"></path>
            <path d="M62.8913043,7.68888889 C51.3695652,0.555555556 43.3478261,-0.311111111 40.9347826,1 C38.5217391,2.31111111 29.2173913,7.4 34.8478261,13.9333333 C40.4565217,20.4888889 57.3913043,25.3111111 59.673913,23.8 C61.9782609,22.3111111 74.4347826,14.8444444 62.8913043,7.68888889 L62.8913043,7.68888889 Z" id="Path" fill="#696969"></path>
            <path d="M94.6521739,10.3333333 L60.5,3.62222222 C68.5,7.82222222 75.7608696,12.4222222 70.0434783,20.0888889 L94.6521739,10.3333333 Z" id="Path" fill="#FFED00"></path>
        </g>
    </g>
</svg>