<?xml version="1.0" encoding="UTF-8"?>
<svg width="205px" height="100px" viewBox="0 0 205 100" version="1.1" xmlns="http://www.w3.org/2000/svg" xmlns:xlink="http://www.w3.org/1999/xlink">
    <title>adv_f2l_1_6</title>
    <g id="Advanced_F2L" stroke="none" stroke-width="1" fill="none" fill-rule="evenodd">
        <g id="adv_f2l_1_6" fill-rule="nonzero">
            <path d="M99.7595855,35.8315789 L100.556218,16.5578947 C100.609326,16.3368421 100.556218,16.1684211 100.503109,15.9473684 C100.216321,15.4421053 99.7064767,15.1052632 99.0904145,15.1052632 C99.0904145,14.5473684 98.6336788,14.0421053 98.0707254,13.8736842 L82.1274611,9.62105263 C81.8512953,9.50526316 81.511399,9.50526316 81.2777202,9.62105263 C81.1715026,9.62105263 81.107772,9.67368421 81.0015544,9.67368421 C80.884715,9.28421053 80.5448187,8.94736842 80.0987047,8.77894737 L64.3784974,4.12631579 C64.3253886,4.12631579 64.2085492,4.07368421 64.1023316,4.07368421 C63.9323834,3.78947368 63.6455959,3.51578947 63.2525907,3.4 L51.5474093,0.0421052632 C51.3243523,-0.0105263158 51.0375648,-0.0105263158 50.761399,0.0421052632 L38.1533679,3.46315789 C37.8772021,3.51578947 37.5904145,3.68421053 37.4204663,3.90526316 C37.1336788,3.85263158 36.9106218,3.85263158 36.634456,3.95789474 L20.9779793,8.38947368 C20.5743523,8.49473684 20.1813472,8.83157895 20.011399,9.23157895 C20.011399,9.28421053 19.7246114,9.11578947 19.6715026,9.11578947 C19.3953368,9 19.1085492,9 18.7686528,9.11578947 L2.65544041,13.8210526 C2.26243523,13.9263158 1.92253886,14.2105263 1.75259067,14.6 C1.69948187,14.7684211 1.64637306,14.8842105 1.64637306,15.0526316 C1.52953368,15.0526316 1.4126943,15.0526316 1.35958549,15.0526316 C0.57357513,15.1052632 -0.0531088083,15.7789474 1.08489606e-14,16.5052632 L1.47642487,35.5473684 C1.52953368,35.8842105 1.64637306,36.2210526 1.92253886,36.4421053 C1.52953368,36.7263158 1.24274611,37.1684211 1.30647668,37.6736842 C1.86943005,43.7789474 2.37927461,49.9368421 2.99533679,56.0421053 C3.05906736,56.3789474 3.22901554,56.7684211 3.50518135,57 C3.16528497,57.2736842 2.94222798,57.6631579 2.94222798,58.1684211 L4.01502591,73.6315789 C4.01502591,74.0736842 4.30181347,74.5263158 4.69481865,74.7473684 C8.31683938,76.6526316 11.8751295,78.6736842 15.4865285,80.5157895 C15.7202073,80.6315789 15.9963731,80.7368421 16.2300518,80.7368421 C16.4,80.6842105 16.5699482,80.6842105 16.7398964,80.6315789 C16.7930052,81.0736842 17.0160622,81.4736842 17.4727979,81.6947368 C21.9339378,84.1052632 26.3419689,86.5052632 30.8668394,88.8631579 C31.0367876,88.9684211 31.2598446,89.0315789 31.5466321,89.0315789 C31.6528497,89.0315789 31.8227979,89.0315789 31.9396373,88.9684211 C31.9927461,89.4210526 32.2264249,89.8105263 32.6194301,90.0315789 L48.6158031,99 C48.8388601,99.1052632 49.0619171,99.1684211 49.3487047,99.1684211 C49.6248705,99.1684211 49.911658,99.1052632 50.134715,98.9368421 C50.538342,99.5578947 51.3774611,99.7263158 52.0041451,99.3894737 L66.8108808,91.2736842 C67.9474093,90.6526316 68.1704663,90.6526316 68.8502591,90.3157895 L83.0940415,82.5894737 C83.5401554,82.3684211 83.826943,81.9157895 83.826943,81.4631579 C84.2199482,81.6315789 84.7297927,81.6315789 85.1227979,81.4105263 L96.7111399,75.3052632 C97.1678756,75.1368421 97.4440415,74.6947368 97.507772,74.1894737 L98.5168394,57.6631579 C98.5168394,57.3894737 98.5168394,57.1684211 98.3468912,56.9368421 C98.2406736,56.7684211 98.1238342,56.6 97.953886,56.4947368 C98.2937824,56.2631579 98.5168394,55.8736842 98.5805699,55.4315789 L99.6533679,37.8421053 C99.7064767,37.6210526 99.6533679,37.4 99.5365285,37.1684211 C99.4834197,37 99.3134715,36.8315789 99.1966321,36.7263158 C99.4834197,36.4421053 99.7064767,36.2736842 99.7595855,35.8315789 L99.7595855,35.8315789 L99.7595855,35.8315789 Z" id="Path" fill="#000000"></path>
            <polygon id="Path" fill="#FFFFFF" points="33.3523316 26.6947368 50.9313472 20.8210526 66.6940415 26.5263158 49.9647668 32.4631579"></polygon>
            <polygon id="Path" fill="#009846" points="52.9601036 20.0315789 68.2766839 14.7157895 84.05 19.6947368 69.0202073 25.8631579"></polygon>
            <polygon id="Path" fill="#696969" points="70.4860104 13.9263158 81.734456 10.4631579 97.6777202 14.7157895 86.0893782 19.0842105"></polygon>
            <polygon id="Path" fill="#696969" points="52.5670984 8.66315789 63.9854922 4.96842105 79.6419689 9.62105263 67.0339378 13.3157895"></polygon>
            <polygon id="Path" fill="#FFED00" points="35.0518135 13.9894737 50.134715 9.16842105 65.7380829 13.8736842 50.3046632 19.2"></polygon>
            <polygon id="Path" fill="#696969" points="16.3362694 19.9789474 33.2354922 14.6 48.4989637 19.9789474 31.2598446 25.5789474"></polygon>
            <polygon id="Path" fill="#696969" points="3.11217617 14.6631579 19.2253886 9.95789474 30.8031088 14.0421053 14.5836788 19.2526316"></polygon>
            <polygon id="Path" fill="#696969" points="21.4240933 9.23157895 37.0805699 4.8 48.4989637 8.72631579 33.5753886 13.3684211"></polygon>
            <polygon id="Path" fill="#696969" points="38.5463731 4.29473684 51.1544041 0.884210526 62.8595855 4.24210526 50.3683938 8.15789474"></polygon>
            <polygon id="Path" fill="#009846" points="32.2158031 28.0421053 48.9556995 34.1473684 48.9556995 55.2631579 32.8955959 48.4315789"></polygon>
            <polygon id="Path" fill="#696969" points="15.4865285 21.7157895 30.3569948 27.3157895 31.0367876 47.7578947 16.1663212 41.3157895"></polygon>
            <polygon id="Path" fill="#696969" points="1.35958549 15.9473684 13.5639896 20.9263158 14.2437824 40.3052632 2.8253886 34.9894737"></polygon>
            <polygon id="Path" fill="#9E9E9E" points="32.7893782 50.3894737 49.0088083 57.3368421 49.0088083 77.6 33.4054404 70.0421053"></polygon>
            <polygon id="Path" fill="#E31E24" points="16.5062176 43.4421053 30.9199482 49.6631579 31.4829016 68.8736842 17.3028497 62.1473684"></polygon>
            <polygon id="Path" fill="#696969" points="2.65544041 37.0631579 14.5836788 42.6 15.3165803 61.1368421 4.35492228 55.4315789"></polygon>
            <polygon id="Path" fill="#9E9E9E" points="33.3523316 72.1684211 49.1787565 79.7368421 49.2318653 97.3157895 33.2992228 88.3578947"></polygon>
            <polygon id="Path" fill="#E31E24" points="17.5790155 64.4421053 31.4297927 71.0526316 31.4297927 87.1789474 18.0888601 80.0105263"></polygon>
            <polygon id="Path" fill="#696969" points="4.30181347 57.6105263 15.6564767 63.5473684 16.1132124 78.8315789 5.32150259 73.0736842"></polygon>
            <polygon id="Path" fill="#E31E24" points="50.8145078 34.4315789 67.5437824 28.3789474 67.203886 48.9894737 50.9313472 55.4315789"></polygon>
            <polygon id="Path" fill="#E31E24" points="69.5300518 27.8210526 84.8997409 21.6631579 84.1031088 41.6526316 69.2432642 48.0315789"></polygon>
            <polygon id="Path" fill="#696969" points="86.769171 21.0421053 99.0904145 16.2315789 98.176943 35.3789474 86.0893782 40.6947368"></polygon>
            <polygon id="Path" fill="#9E9E9E" points="50.984456 57.5578947 67.203886 51.0631579 66.5878238 70.0421053 51.0375648 77.8315789"></polygon>
            <polygon id="Path" fill="#009846" points="69.2963731 50.2210526 83.9437824 43.7789474 82.8603627 62.2631579 68.6803109 69.3157895"></polygon>
            <polygon id="Path" fill="#696969" points="86.0893782 42.8315789 98.1238342 37.5052632 97.0510363 55.0947368 85.0165803 61.5894737"></polygon>
            <polygon id="Path" fill="#9E9E9E" points="51.1544041 79.8421053 66.757772 72.0631579 66.0248705 89.8105263 51.207513 97.9368421"></polygon>
            <polygon id="Path" fill="#009846" points="68.7865285 71.4421053 83.0940415 64.3368421 82.3611399 81.0736842 68.0005181 88.8631579"></polygon>
            <polygon id="Path" fill="#696969" points="85.1227979 63.6631579 96.9979275 57.3368421 95.9782383 73.8526316 84.3367876 79.9578947"></polygon>
            <path d="M203.651036,35.8315789 L204.447668,16.5578947 C204.500777,16.3368421 204.447668,16.1684211 204.383938,15.9473684 C204.107772,15.4421053 203.597927,15.1052632 202.971244,15.1052632 C202.971244,14.5473684 202.52513,14.0421053 201.951554,13.8736842 L186.018912,9.62105263 C185.732124,9.50526316 185.392228,9.50526316 185.169171,9.62105263 C185.052332,9.62105263 184.999223,9.67368421 184.882383,9.67368421 C184.776166,9.28421053 184.436269,8.94736842 183.979534,8.77894737 L168.269948,4.12631579 C168.216839,4.12631579 168.1,4.07368421 167.983161,4.07368421 C167.813212,3.78947368 167.537047,3.51578947 167.13342,3.4 L155.43886,0.0421052632 C155.215803,-0.0105263158 154.929016,-0.0105263158 154.642228,0.0421052632 L142.044819,3.46315789 C141.758031,3.51578947 141.481865,3.68421053 141.311917,3.90526316 C141.02513,3.85263158 140.802073,3.85263158 140.515285,3.95789474 L124.858808,8.38947368 C124.465803,8.49473684 124.072798,8.83157895 123.90285,9.23157895 C123.90285,9.28421053 123.616062,9.11578947 123.562953,9.11578947 C123.276166,9 123,9 122.660104,9.11578947 L106.546891,13.8210526 C106.153886,13.9263158 105.81399,14.2105263 105.644041,14.6 C105.590933,14.7684211 105.527202,14.8842105 105.527202,15.0526316 C105.420984,15.0526316 105.304145,15.0526316 105.251036,15.0526316 C104.454404,15.1052632 103.838342,15.7789474 103.891451,16.5052632 L105.357254,35.5473684 C105.420984,35.8842105 105.527202,36.2210526 105.81399,36.4421053 C105.420984,36.7263158 105.134197,37.1684211 105.187306,37.6736842 C105.760881,43.7789474 106.270725,49.9368421 106.886788,56.0421053 C106.939896,56.3789474 107.109845,56.7684211 107.396632,57 C107.056736,57.2736842 106.833679,57.6631579 106.833679,58.1684211 L107.906477,73.6315789 C107.906477,74.0736842 108.182642,74.5263158 108.586269,74.7473684 C112.197668,76.6526316 115.755959,78.6736842 119.377979,80.5157895 C119.601036,80.6315789 119.887824,80.7368421 120.110881,80.7368421 C120.280829,80.6842105 120.450777,80.6842105 120.620725,80.6315789 C120.673834,81.0736842 120.907513,81.4736842 121.353627,81.6947368 C125.825389,84.1052632 130.23342,86.5052632 134.747668,88.8631579 C134.917617,88.9684211 135.151295,89.0315789 135.427461,89.0315789 C135.544301,89.0315789 135.714249,89.0315789 135.831088,88.9684211 C135.884197,89.4210526 136.107254,89.8105263 136.500259,90.0315789 L152.496632,99 C152.730311,99.1052632 152.953368,99.1684211 153.229534,99.1684211 C153.516321,99.1684211 153.803109,99.1052632 154.026166,98.9368421 C154.419171,99.5578947 155.268912,99.7263158 155.895596,99.3894737 L170.702332,91.2736842 C171.828238,90.6526316 172.051295,90.6526316 172.731088,90.3157895 L186.97487,82.5894737 C187.431606,82.3684211 187.707772,81.9157895 187.707772,81.4631579 C188.111399,81.6315789 188.621244,81.6315789 189.014249,81.4105263 L200.602591,75.3052632 C201.048705,75.1368421 201.335492,74.6947368 201.388601,74.1894737 L202.40829,57.6631579 C202.40829,57.3894737 202.40829,57.1684211 202.238342,56.9368421 C202.121503,56.7684211 202.015285,56.6 201.845337,56.4947368 C202.185233,56.2631579 202.40829,55.8736842 202.461399,55.4315789 L203.534197,37.8421053 C203.597927,37.6210526 203.534197,37.4 203.427979,37.1684211 C203.37487,37 203.204922,36.8315789 203.088083,36.7263158 C203.37487,36.4421053 203.597927,36.2736842 203.651036,35.8315789 L203.651036,35.8315789 L203.651036,35.8315789 Z" id="Path" fill="#000000"></path>
            <polygon id="Path" fill="#696969" points="137.243782 26.6947368 154.812176 20.8210526 170.585492 26.5263158 153.856218 32.4631579"></polygon>
            <polygon id="Path" fill="#696969" points="156.851554 20.0315789 172.168135 14.7157895 187.941451 19.6947368 172.901036 25.8631579"></polygon>
            <polygon id="Path" fill="#FFFFFF" points="174.377461 13.9263158 185.625907 10.4631579 201.558549 14.7157895 189.970207 19.0842105"></polygon>
            <polygon id="Path" fill="#EF7F1A" points="156.458549 8.66315789 167.876943 4.96842105 183.53342 9.62105263 170.925389 13.3157895"></polygon>
            <polygon id="Path" fill="#FFED00" points="138.932642 13.9894737 154.026166 9.16842105 169.629534 13.8736842 154.196114 19.2"></polygon>
            <polygon id="Path" fill="#696969" points="120.22772 19.9789474 137.126943 14.6 152.390415 19.9789474 135.151295 25.5789474"></polygon>
            <polygon id="Path" fill="#696969" points="107.003627 14.6631579 123.106218 9.95789474 134.69456 14.0421053 118.47513 19.2526316"></polygon>
            <polygon id="Path" fill="#696969" points="125.315544 9.23157895 140.972021 4.8 152.390415 8.72631579 137.466839 13.3684211"></polygon>
            <polygon id="Path" fill="#696969" points="142.437824 4.29473684 155.045855 0.884210526 166.740415 4.24210526 154.249223 8.15789474"></polygon>
            <polygon id="Path" fill="#696969" points="136.107254 28.0421053 152.836528 34.1473684 152.836528 55.2631579 136.787047 48.4315789"></polygon>
            <polygon id="Path" fill="#696969" points="119.377979 21.7157895 134.248446 27.3157895 134.917617 47.7578947 120.057772 41.3157895"></polygon>
            <polygon id="Path" fill="#696969" points="105.251036 15.9473684 117.45544 20.9263158 118.135233 40.3052632 106.716839 34.9894737"></polygon>
            <polygon id="Path" fill="#696969" points="136.670207 50.3894737 152.900259 57.3368421 152.900259 77.6 137.296891 70.0421053"></polygon>
            <polygon id="Path" fill="#EF7F1A" points="120.397668 43.4421053 134.811399 49.6631579 135.374352 68.8736842 121.183679 62.1473684"></polygon>
            <polygon id="Path" fill="#696969" points="106.546891 37.0631579 118.47513 42.6 119.208031 61.1368421 108.246373 55.4315789"></polygon>
            <polygon id="Path" fill="#696969" points="137.243782 72.1684211 153.059585 79.7368421 153.123316 97.3157895 137.180052 88.3578947"></polygon>
            <polygon id="Path" fill="#EF7F1A" points="121.470466 64.4421053 135.321244 71.0526316 135.321244 87.1789474 121.980311 80.0105263"></polygon>
            <polygon id="Path" fill="#696969" points="108.182642 57.6105263 119.547927 63.5473684 120.004663 78.8315789 109.202332 73.0736842"></polygon>
            <polygon id="Path" fill="#696969" points="154.705959 34.4315789 171.435233 28.3789474 171.095337 48.9894737 154.812176 55.4315789"></polygon>
            <polygon id="Path" fill="#696969" points="173.410881 27.8210526 188.791192 21.6631579 187.99456 41.6526316 173.134715 48.0315789"></polygon>
            <polygon id="Path" fill="#EF7F1A" points="190.65 21.0421053 202.971244 16.2315789 202.068394 35.3789474 189.970207 40.6947368"></polygon>
            <polygon id="Path" fill="#696969" points="154.875907 57.5578947 171.095337 51.0631579 170.468653 70.0421053 154.929016 77.8315789"></polygon>
            <polygon id="Path" fill="#0062AC" points="173.187824 50.2210526 187.824611 43.7789474 186.751813 62.2631579 172.56114 69.3157895"></polygon>
            <polygon id="Path" fill="#9E9E9E" points="189.970207 42.8315789 202.015285 37.5052632 200.942487 55.0947368 188.897409 61.5894737"></polygon>
            <polygon id="Path" fill="#696969" points="155.045855 79.8421053 170.638601 72.0631579 169.905699 89.8105263 155.098964 97.9368421"></polygon>
            <polygon id="Path" fill="#0062AC" points="172.677979 71.4421053 186.97487 64.3368421 186.241969 81.0736842 171.881347 88.8631579"></polygon>
            <polygon id="Path" fill="#9E9E9E" points="189.014249 63.6631579 200.878756 57.3368421 199.869689 73.8526316 188.217617 79.9578947"></polygon>
        </g>
    </g>
</svg>