<?xml version="1.0" encoding="UTF-8"?>
<svg width="100px" height="100px" viewBox="0 0 100 100" version="1.1" xmlns="http://www.w3.org/2000/svg" xmlns:xlink="http://www.w3.org/1999/xlink">
    <title>oll_38</title>
    <g id="oll_38" stroke="none" stroke-width="1" fill="none" fill-rule="evenodd">
        <g fill-rule="nonzero" id="Rectangle">
            <rect fill="#000000" x="0" y="0" width="100" height="100"></rect>
            <rect fill="#696969" transform="translate(7.000000, 75.000000) rotate(90.000000) translate(-7.000000, -75.000000) " x="-4" y="73" width="22" height="4"></rect>
            <rect fill="#696969" transform="translate(7.000000, 50.000000) rotate(90.000000) translate(-7.000000, -50.000000) " x="-4" y="48" width="22" height="4"></rect>
            <rect fill="#696969" transform="translate(7.000000, 25.000000) rotate(90.000000) translate(-7.000000, -25.000000) " x="-4" y="23" width="22" height="4"></rect>
            <rect fill="#696969" transform="translate(93.000000, 75.000000) rotate(90.000000) translate(-93.000000, -75.000000) " x="82" y="73" width="22" height="4"></rect>
            <rect fill="#696969" transform="translate(93.000000, 50.000000) rotate(90.000000) translate(-93.000000, -50.000000) " x="82" y="48" width="22" height="4"></rect>
            <rect fill="#696969" transform="translate(93.000000, 25.000000) rotate(90.000000) translate(-93.000000, -25.000000) " x="82" y="23" width="22" height="4"></rect>
            <rect fill="#696969" x="64" y="91" width="22" height="4"></rect>
            <rect fill="#FFDB11" x="39" y="91" width="22" height="4"></rect>
            <rect fill="#FFDB11" x="14" y="91" width="22" height="4"></rect>
            <rect fill="#696969" x="64" y="5" width="22" height="4"></rect>
            <rect fill="#FFDB11" x="39" y="5" width="22" height="4"></rect>
            <rect fill="#FFDB11" x="14" y="5" width="22" height="4"></rect>
            <rect fill="#FFDB11" x="64" y="64" width="22" height="22"></rect>
            <rect fill="#696969" x="39" y="64" width="22" height="22"></rect>
            <rect fill="#696969" x="14" y="64" width="22" height="22"></rect>
            <rect fill="#FFDB11" x="64" y="39" width="22" height="22"></rect>
            <rect fill="#FFDB11" x="39" y="39" width="22" height="22"></rect>
            <rect fill="#FFDB11" x="14" y="39" width="22" height="22"></rect>
            <rect fill="#FFDB11" x="64" y="14" width="22" height="22"></rect>
            <rect fill="#696969" x="39" y="14" width="22" height="22"></rect>
            <rect fill="#696969" x="14" y="14" width="22" height="22"></rect>
        </g>
    </g>
</svg>