<?xml version="1.0" encoding="UTF-8"?>
<svg width="210px" height="100px" viewBox="0 0 210 100" version="1.1" xmlns="http://www.w3.org/2000/svg" xmlns:xlink="http://www.w3.org/1999/xlink">
    <title>oll_40_2</title>
    <g id="oll_40_2" stroke="none" stroke-width="1" fill="none" fill-rule="evenodd">
        <g transform="translate(1.000000, 0.000000)">
            <polygon id="Path" fill="#000000" points="0.08545 19.2753 9.1878 80.886 63.8335 99.9204 97.7492 67.4144 97.7492 7.49818 42.6407 0.144531"></polygon>
            <polygon id="Path" fill="#FF8100" points="88.2039 58.1468 96.9186 50.488 97.0048 66.9565 88.2039 75.3621"></polygon>
            <polygon id="Path" fill="#FF8100" points="76.6035 67.8499 86.717 59.3083 86.7141 76.6773 76.9182 85.9898"></polygon>
            <polygon id="Path" fill="#FF8100" points="63.655 79.1916 75.0462 69.2908 75.5865 87.2923 64.4654 97.7813"></polygon>
            <polygon id="Path" fill="#FF8100" points="88.0244 37.3905 96.8589 30.5461 96.8589 48.1383 88.0672 55.7736"></polygon>
            <polygon id="Path" fill="#FF8100" points="75.9275 46.3319 86.2615 38.4482 86.5736 56.9519 76.3789 65.5683"></polygon>
            <polygon id="Path" fill="#FF8100" points="62.3853 56.8013 74.1625 47.8723 74.7936 66.6079 63.5013 76.5138"></polygon>
            <polygon id="Path" fill="#696969" points="87.6858 15.2509 96.9215 9.35107 96.9215 28.1914 87.6858 35.3293"></polygon>
            <polygon id="Path" fill="#696969" points="74.9431 23.1384 86.1413 16.1482 86.1413 36.0794 75.6622 43.6626"></polygon>
            <polygon id="Path" fill="#696969" points="61.0303 32.1809 73.352 24.2988 74.0396 45.0007 61.9627 54.179"></polygon>
            <polygon id="Path" fill="#009A0E" points="7.36426 63.0674 22.4453 67.7863 24.464 85.1274 9.8589 80.0764"></polygon>
            <polygon id="Path" fill="#009A0E" points="24.5278 68.2725 41.0741 73.5716 42.6973 91.5579 26.6732 85.9836"></polygon>
            <polygon id="Path" fill="#009A0E" points="43.4451 74.0815 61.3213 79.7311 62.4823 98.3867 44.93 92.1747"></polygon>
            <polygon id="Path" fill="#009A0E" points="4.26611 42.5068 19.8784 46.8521 22.148 65.4159 7.00575 60.8649"></polygon>
            <polygon id="Path" fill="#009A0E" points="22.1382 47.3862 39.2125 51.6013 40.8242 71.0198 24.4249 66.051"></polygon>
            <polygon id="Path" fill="#009A0E" points="41.6633 52.407 60.1244 57.2167 61.1024 77.1709 43.0068 71.7277"></polygon>
            <polygon id="Path" fill="#696969" points="1.2583 20.9258 17.1016 24.1438 19.4008 44.159 4.11262 40.4847"></polygon>
            <polygon id="Path" fill="#FFDB11" points="19.2793 24.5273 36.8079 28.1914 38.9262 49.2003 21.6844 44.8322"></polygon>
            <polygon id="Path" fill="#FFDB11" points="39.5457 28.6228 58.7385 32.7126 59.7615 54.451 41.1882 49.7451"></polygon>
            <polygon id="Path" fill="#696969" points="42.7298 0.661133 57.3693 2.70313 46.7244 7.95516 31.6843 5.69442"></polygon>
            <polygon id="Path" fill="#FFDB11" points="29.9586 6.37842 45.3161 8.68987 33.1447 14.7347 17.6279 12.0187"></polygon>
            <polygon id="Path" fill="#FFDB11" points="15.8538 12.8521 31.2681 15.5268 17.7551 22.2073 2.10889 19.0718"></polygon>
            <polygon id="Path" fill="#696969" points="33.5258 15.8462 50.8285 18.8556 37.4672 26.2273 19.8796 22.7101"></polygon>
            <polygon id="Path" fill="#FFDB11" points="47.3393 9.073 63.9466 11.6658 52.331 18.0047 35.3425 15.0288"></polygon>
            <polygon id="Path" fill="#696969" points="59.6527 2.98438 75.6607 5.20123 65.5415 10.8859 48.752 8.28641"></polygon>
            <polygon id="Path" fill="#FFDB11" points="77.7519 5.55518 95.686 7.94184 86.017 13.9057 67.9966 11.1253 73.2117 8.00195"></polygon>
            <polygon id="Path" fill="#FFDB11" points="66.3189 11.9231 84.3961 14.7701 73.4315 21.6944 54.8103 18.3865"></polygon>
            <polygon id="Path" fill="#696969" points="53.1081 19.4277 71.7186 22.697 59.36 30.5818 39.8911 26.7168"></polygon>
            <rect id="Rectangle" fill="#000000" fill-rule="nonzero" transform="translate(159.000000, 50.000000) rotate(-180.000000) translate(-159.000000, -50.000000) " x="109" y="0" width="100" height="100"></rect>
            <rect id="Rectangle" fill="#696969" fill-rule="nonzero" transform="translate(202.000000, 25.000000) rotate(-90.000000) translate(-202.000000, -25.000000) " x="191" y="23" width="22" height="4"></rect>
            <rect id="Rectangle" fill="#696969" fill-rule="nonzero" transform="translate(202.000000, 50.000000) rotate(-90.000000) translate(-202.000000, -50.000000) " x="191" y="48" width="22" height="4"></rect>
            <rect id="Rectangle" fill="#696969" fill-rule="nonzero" transform="translate(202.000000, 75.000000) rotate(-90.000000) translate(-202.000000, -75.000000) " x="191" y="73" width="22" height="4"></rect>
            <rect id="Rectangle" fill="#FFDB11" fill-rule="nonzero" transform="translate(116.000000, 25.000000) rotate(-90.000000) translate(-116.000000, -25.000000) " x="105" y="23" width="22" height="4"></rect>
            <rect id="Rectangle" fill="#696969" fill-rule="nonzero" transform="translate(116.000000, 50.000000) rotate(-90.000000) translate(-116.000000, -50.000000) " x="105" y="48" width="22" height="4"></rect>
            <rect id="Rectangle" fill="#696969" fill-rule="nonzero" transform="translate(116.000000, 75.000000) rotate(-90.000000) translate(-116.000000, -75.000000) " x="105" y="73" width="22" height="4"></rect>
            <rect id="Rectangle" fill="#696969" fill-rule="nonzero" transform="translate(134.000000, 7.000000) rotate(-180.000000) translate(-134.000000, -7.000000) " x="123" y="5" width="22" height="4"></rect>
            <rect id="Rectangle" fill="#FFDB11" fill-rule="nonzero" transform="translate(159.000000, 7.000000) rotate(-180.000000) translate(-159.000000, -7.000000) " x="148" y="5" width="22" height="4"></rect>
            <rect id="Rectangle" fill="#696969" fill-rule="nonzero" transform="translate(184.000000, 7.000000) rotate(-180.000000) translate(-184.000000, -7.000000) " x="173" y="5" width="22" height="4"></rect>
            <rect id="Rectangle" fill="#696969" fill-rule="nonzero" transform="translate(134.000000, 93.000000) rotate(-180.000000) translate(-134.000000, -93.000000) " x="123" y="91" width="22" height="4"></rect>
            <rect id="Rectangle" fill="#FFDB11" fill-rule="nonzero" transform="translate(159.000000, 93.000000) rotate(-180.000000) translate(-159.000000, -93.000000) " x="148" y="91" width="22" height="4"></rect>
            <rect id="Rectangle" fill="#FFDB11" fill-rule="nonzero" transform="translate(184.000000, 93.000000) rotate(-180.000000) translate(-184.000000, -93.000000) " x="173" y="91" width="22" height="4"></rect>
            <rect id="Rectangle" fill="#696969" fill-rule="nonzero" transform="translate(134.000000, 25.000000) rotate(-180.000000) translate(-134.000000, -25.000000) " x="123" y="14" width="22" height="22"></rect>
            <rect id="Rectangle" fill="#696969" fill-rule="nonzero" transform="translate(159.000000, 25.000000) rotate(-180.000000) translate(-159.000000, -25.000000) " x="148" y="14" width="22" height="22"></rect>
            <rect id="Rectangle" fill="#FFDB11" fill-rule="nonzero" transform="translate(184.000000, 25.000000) rotate(-180.000000) translate(-184.000000, -25.000000) " x="173" y="14" width="22" height="22"></rect>
            <rect id="Rectangle" fill="#FFDB11" fill-rule="nonzero" transform="translate(134.000000, 50.000000) rotate(-180.000000) translate(-134.000000, -50.000000) " x="123" y="39" width="22" height="22"></rect>
            <rect id="Rectangle" fill="#FFDB11" fill-rule="nonzero" transform="translate(159.000000, 50.000000) rotate(-180.000000) translate(-159.000000, -50.000000) " x="148" y="39" width="22" height="22"></rect>
            <rect id="Rectangle" fill="#FFDB11" fill-rule="nonzero" transform="translate(184.000000, 50.000000) rotate(-180.000000) translate(-184.000000, -50.000000) " x="173" y="39" width="22" height="22"></rect>
            <rect id="Rectangle" fill="#FFDB11" fill-rule="nonzero" transform="translate(134.000000, 75.000000) rotate(-180.000000) translate(-134.000000, -75.000000) " x="123" y="64" width="22" height="22"></rect>
            <rect id="Rectangle" fill="#696969" fill-rule="nonzero" transform="translate(159.000000, 75.000000) rotate(-180.000000) translate(-159.000000, -75.000000) " x="148" y="64" width="22" height="22"></rect>
            <rect id="Rectangle" fill="#696969" fill-rule="nonzero" transform="translate(184.000000, 75.000000) rotate(-180.000000) translate(-184.000000, -75.000000) " x="173" y="64" width="22" height="22"></rect>
        </g>
    </g>
</svg>