<?xml version="1.0" encoding="UTF-8"?>
<svg width="210px" height="100px" viewBox="0 0 210 100" version="1.1" xmlns="http://www.w3.org/2000/svg" xmlns:xlink="http://www.w3.org/1999/xlink">
    <title>oll_31_1</title>
    <g id="oll_31_1" stroke="none" stroke-width="1" fill="none" fill-rule="evenodd">
        <g transform="translate(1.000000, 0.000000)">
            <polygon id="Path" fill="#000000" points="0.08542 19.2753 9.1878 80.886 63.8335 99.9204 97.7492 67.4144 97.7492 7.49818 42.6407 0.144531"></polygon>
            <polygon id="Path" fill="#FF8100" points="88.2038 58.1468 96.9186 50.488 97.0048 66.9565 88.2038 75.3621"></polygon>
            <polygon id="Path" fill="#FF8100" points="76.6033 67.8501 86.7168 59.3086 86.7139 76.6776 76.918 85.9901"></polygon>
            <polygon id="Path" fill="#FF8100" points="63.655 79.1918 75.0462 69.291 75.5864 87.2925 64.4654 97.7816"></polygon>
            <polygon id="Path" fill="#FF8100" points="88.0242 37.3905 96.8587 30.5461 96.8587 48.1383 88.067 55.7736"></polygon>
            <polygon id="Path" fill="#FF8100" points="75.9273 46.3321 86.2613 38.4485 86.5735 56.9521 76.3787 65.5685"></polygon>
            <polygon id="Path" fill="#FF8100" points="62.3851 56.8013 74.1623 47.8723 74.7934 66.6079 63.5011 76.5138"></polygon>
            <polygon id="Path" fill="#FFDB11" points="87.6857 15.2511 96.9214 9.35132 96.9214 28.1917 87.6857 35.3295"></polygon>
            <polygon id="Path" fill="#FFDB11" points="74.9431 23.1384 86.1413 16.1482 86.1413 36.0794 75.6622 43.6626"></polygon>
            <polygon id="Path" fill="#696969" points="61.0302 32.1809 73.3519 24.2988 74.0394 45.0007 61.9626 54.179"></polygon>
            <polygon id="Path" fill="#009A0E" points="7.36404 63.0671 22.4451 67.7861 24.4638 85.1272 9.8587 80.0761"></polygon>
            <polygon id="Path" fill="#009A0E" points="24.5278 68.2725 41.0741 73.5716 42.6972 91.5579 26.6732 85.9836"></polygon>
            <polygon id="Path" fill="#009A0E" points="43.445 74.0815 61.3213 79.7311 62.4822 98.3867 44.9299 92.1747"></polygon>
            <polygon id="Path" fill="#009A0E" points="4.2659 42.5068 19.8782 46.8521 22.1478 65.4159 7.00553 60.8649"></polygon>
            <polygon id="Path" fill="#009A0E" points="22.1381 47.3862 39.2124 51.6013 40.8241 71.0198 24.4247 66.051"></polygon>
            <polygon id="Path" fill="#009A0E" points="41.6631 52.407 60.1242 57.2167 61.1022 77.1709 43.0066 71.7277"></polygon>
            <polygon id="Path" fill="#FFDB11" points="1.25818 20.9258 17.1014 24.1438 19.4007 44.159 4.1125 40.4847"></polygon>
            <polygon id="Path" fill="#FFDB11" points="19.2792 24.5273 36.8078 28.1914 38.9261 49.2003 21.6843 44.8322"></polygon>
            <polygon id="Path" fill="#696969" points="39.5455 28.6228 58.7383 32.7126 59.7614 54.451 41.188 49.7451"></polygon>
            <polygon id="Path" fill="#FFDB11" points="42.7298 0.661133 57.3693 2.70313 46.7244 7.95516 31.6843 5.69442"></polygon>
            <polygon id="Path" fill="#FFDB11" points="29.9587 6.37866 45.3162 8.69011 33.1448 14.7349 17.6281 12.0189"></polygon>
            <polygon id="Path" fill="#696969" points="15.8539 12.8521 31.2682 15.5268 17.7552 22.2073 2.10898 19.0718"></polygon>
            <polygon id="Path" fill="#696969" points="33.5259 15.8462 50.8285 18.8556 37.4673 26.2273 19.8797 22.7101"></polygon>
            <polygon id="Path" fill="#FFDB11" points="47.3393 9.073 63.9467 11.6658 52.3311 18.0047 35.3426 15.0288"></polygon>
            <polygon id="Path" fill="#FFDB11" points="59.6527 2.98438 75.6608 5.20123 65.5416 10.8859 48.752 8.28641"></polygon>
            <polygon id="Path" fill="#696969" points="78.2103 5.5144 95.686 7.94187 86.017 13.9058 68.2812 11.1602"></polygon>
            <polygon id="Path" fill="#696969" points="66.3191 11.9233 84.3962 14.7704 73.4317 21.6947 54.8104 18.3867"></polygon>
            <polygon id="Path" fill="#FFDB11" points="53.1082 19.4277 71.7187 22.697 59.36 30.5818 39.8912 26.7168"></polygon>
            <rect id="Rectangle" fill="#000000" fill-rule="nonzero" transform="translate(159.000000, 50.000000) rotate(180.000000) translate(-159.000000, -50.000000) " x="109" y="0" width="100" height="100"></rect>
            <rect id="Rectangle" fill="#FFDB11" fill-rule="nonzero" transform="translate(202.000000, 25.000000) rotate(-90.000000) translate(-202.000000, -25.000000) " x="191" y="23" width="22" height="4"></rect>
            <rect id="Rectangle" fill="#FFDB11" fill-rule="nonzero" transform="translate(202.000000, 50.000000) rotate(-90.000000) translate(-202.000000, -50.000000) " x="191" y="48" width="22" height="4"></rect>
            <rect id="Rectangle" fill="#696969" fill-rule="nonzero" transform="translate(202.000000, 75.000000) rotate(-90.000000) translate(-202.000000, -75.000000) " x="191" y="73" width="22" height="4"></rect>
            <rect id="Rectangle" fill="#696969" fill-rule="nonzero" transform="translate(116.000000, 25.000000) rotate(-90.000000) translate(-116.000000, -25.000000) " x="105" y="23" width="22" height="4"></rect>
            <rect id="Rectangle" fill="#696969" fill-rule="nonzero" transform="translate(116.000000, 50.000000) rotate(-90.000000) translate(-116.000000, -50.000000) " x="105" y="48" width="22" height="4"></rect>
            <rect id="Rectangle" fill="#696969" fill-rule="nonzero" transform="translate(116.000000, 75.000000) rotate(-90.000000) translate(-116.000000, -75.000000) " x="105" y="73" width="22" height="4"></rect>
            <rect id="Rectangle" fill="#696969" fill-rule="nonzero" transform="translate(134.000000, 7.000000) rotate(180.000000) translate(-134.000000, -7.000000) " x="123" y="5" width="22" height="4"></rect>
            <rect id="Rectangle" fill="#696969" fill-rule="nonzero" transform="translate(159.000000, 7.000000) rotate(180.000000) translate(-159.000000, -7.000000) " x="148" y="5" width="22" height="4"></rect>
            <rect id="Rectangle" fill="#696969" fill-rule="nonzero" transform="translate(184.000000, 7.000000) rotate(180.000000) translate(-184.000000, -7.000000) " x="173" y="5" width="22" height="4"></rect>
            <rect id="Rectangle" fill="#FFDB11" fill-rule="nonzero" transform="translate(134.000000, 93.000000) rotate(180.000000) translate(-134.000000, -93.000000) " x="123" y="91" width="22" height="4"></rect>
            <rect id="Rectangle" fill="#FFDB11" fill-rule="nonzero" transform="translate(159.000000, 93.000000) rotate(180.000000) translate(-159.000000, -93.000000) " x="148" y="91" width="22" height="4"></rect>
            <rect id="Rectangle" fill="#696969" fill-rule="nonzero" transform="translate(184.000000, 93.000000) rotate(180.000000) translate(-184.000000, -93.000000) " x="173" y="91" width="22" height="4"></rect>
            <rect id="Rectangle" fill="#FFDB11" fill-rule="nonzero" transform="translate(134.000000, 25.000000) rotate(180.000000) translate(-134.000000, -25.000000) " x="123" y="14" width="22" height="22"></rect>
            <rect id="Rectangle" fill="#FFDB11" fill-rule="nonzero" transform="translate(159.000000, 25.000000) rotate(180.000000) translate(-159.000000, -25.000000) " x="148" y="14" width="22" height="22"></rect>
            <rect id="Rectangle" fill="#696969" fill-rule="nonzero" transform="translate(184.000000, 25.000000) rotate(180.000000) translate(-184.000000, -25.000000) " x="173" y="14" width="22" height="22"></rect>
            <rect id="Rectangle" fill="#FFDB11" fill-rule="nonzero" transform="translate(134.000000, 50.000000) rotate(180.000000) translate(-134.000000, -50.000000) " x="123" y="39" width="22" height="22"></rect>
            <rect id="Rectangle" fill="#FFDB11" fill-rule="nonzero" transform="translate(159.000000, 50.000000) rotate(180.000000) translate(-159.000000, -50.000000) " x="148" y="39" width="22" height="22"></rect>
            <rect id="Rectangle" fill="#696969" fill-rule="nonzero" transform="translate(184.000000, 50.000000) rotate(180.000000) translate(-184.000000, -50.000000) " x="173" y="39" width="22" height="22"></rect>
            <rect id="Rectangle" fill="#696969" fill-rule="nonzero" transform="translate(134.000000, 75.000000) rotate(180.000000) translate(-134.000000, -75.000000) " x="123" y="64" width="22" height="22"></rect>
            <rect id="Rectangle" fill="#696969" fill-rule="nonzero" transform="translate(159.000000, 75.000000) rotate(180.000000) translate(-159.000000, -75.000000) " x="148" y="64" width="22" height="22"></rect>
            <rect id="Rectangle" fill="#FFDB11" fill-rule="nonzero" transform="translate(184.000000, 75.000000) rotate(180.000000) translate(-184.000000, -75.000000) " x="173" y="64" width="22" height="22"></rect>
        </g>
    </g>
</svg>