<?xml version="1.0" encoding="UTF-8"?>
<svg width="210px" height="100px" viewBox="0 0 210 100" version="1.1" xmlns="http://www.w3.org/2000/svg" xmlns:xlink="http://www.w3.org/1999/xlink">
    <title>oll_16_1</title>
    <g id="oll_16_1" stroke="none" stroke-width="1" fill="none" fill-rule="evenodd">
        <g transform="translate(1.000000, 0.000000)">
            <polygon id="Path" fill="#000000" points="0.08545 19.2754 9.1878 80.8861 63.8335 99.9206 97.7492 67.4146 97.7492 7.4983 42.6407 0.144653"></polygon>
            <polygon id="Path" fill="#FF8100" points="88.2037 58.1468 96.9185 50.488 97.0047 66.9565 88.2037 75.3621"></polygon>
            <polygon id="Path" fill="#FF8100" points="76.6033 67.85 86.7167 59.3085 86.7139 76.6774 76.9179 85.9899"></polygon>
            <polygon id="Path" fill="#FF8100" points="63.6549 79.1916 75.0461 69.2908 75.5863 87.2923 64.4653 97.7813"></polygon>
            <polygon id="Path" fill="#FF8100" points="88.0242 37.3905 96.8586 30.5461 96.8586 48.1383 88.0669 55.7736"></polygon>
            <polygon id="Path" fill="#FF8100" points="75.9272 46.3319 86.2613 38.4482 86.5734 56.9519 76.3787 65.5683"></polygon>
            <polygon id="Path" fill="#FF8100" points="62.385 56.8013 74.1622 47.8723 74.7933 66.6079 63.5011 76.5138"></polygon>
            <polygon id="Path" fill="#696969" points="87.6857 15.2509 96.9214 9.35107 96.9214 28.1914 87.6857 35.3293"></polygon>
            <polygon id="Path" fill="#696969" points="74.943 23.1382 86.1412 16.1481 86.1412 36.0793 75.6621 43.6625"></polygon>
            <polygon id="Path" fill="#696969" points="61.0302 32.1808 73.3519 24.2987 74.0394 45.0006 61.9626 54.1789"></polygon>
            <polygon id="Path" fill="#009A0E" points="7.36401 63.0673 22.4451 67.7862 24.4638 85.1273 9.8586 80.0763"></polygon>
            <polygon id="Path" fill="#009A0E" points="24.5277 68.2723 41.074 73.5715 42.6971 91.5578 26.6731 85.9835"></polygon>
            <polygon id="Path" fill="#009A0E" points="43.4449 74.0815 61.3212 79.7311 62.4821 98.3867 44.9298 92.1747"></polygon>
            <polygon id="Path" fill="#009A0E" points="4.26587 42.5067 19.8782 46.852 22.1477 65.4158 7.0055 60.8648"></polygon>
            <polygon id="Path" fill="#009A0E" points="22.1381 47.3861 39.2124 51.6011 40.8241 71.0197 24.4247 66.0509"></polygon>
            <polygon id="Path" fill="#009A0E" points="41.6631 52.407 60.1242 57.2167 61.1022 77.1709 43.0065 71.7277"></polygon>
            <polygon id="Path" fill="#696969" points="1.25818 20.9258 17.1014 24.1438 19.4007 44.159 4.1125 40.4847"></polygon>
            <polygon id="Path" fill="#FFDB11" points="19.2792 24.5273 36.8078 28.1914 38.9261 49.2003 21.6843 44.8322"></polygon>
            <polygon id="Path" fill="#FFDB11" points="39.5454 28.6229 58.7383 32.7128 59.7613 54.4511 41.188 49.7452"></polygon>
            <polygon id="Path" fill="#696969" points="42.7298 0.661011 57.3693 2.70301 46.7244 7.95504 31.6843 5.6943"></polygon>
            <polygon id="Path" fill="#696969" points="29.9587 6.37842 45.3162 8.68987 33.1448 14.7347 17.6281 12.0187"></polygon>
            <polygon id="Path" fill="#696969" points="15.8539 12.8521 31.2682 15.5268 17.7552 22.2073 2.10901 19.0718"></polygon>
            <polygon id="Path" fill="#696969" points="33.5259 15.8462 50.8286 18.8556 37.4674 26.2273 19.8798 22.7101"></polygon>
            <polygon id="Path" fill="#FFDB11" points="47.3394 9.07288 63.9467 11.6656 52.3312 18.0046 35.3427 15.0286"></polygon>
            <polygon id="Path" fill="#FFDB11" points="59.6528 2.98438 75.6608 5.20123 65.5417 10.8859 48.7521 8.28641"></polygon>
            <polygon id="Path" fill="#696969" points="78.2104 5.5144 95.6861 7.94187 86.0171 13.9058 68.2812 11.1602"></polygon>
            <polygon id="Path" fill="#FFDB11" points="66.3191 11.9231 84.3962 14.7701 73.4317 21.6944 54.8104 18.3865"></polygon>
            <polygon id="Path" fill="#696969" points="53.1083 19.4277 71.7187 22.697 59.3601 30.5818 39.8912 26.7168"></polygon>
            <rect id="Rectangle" fill="#000000" fill-rule="nonzero" transform="translate(159.000000, 50.000000) rotate(90.000000) translate(-159.000000, -50.000000) " x="109" y="0" width="100" height="100"></rect>
            <rect id="Rectangle" fill="#696969" fill-rule="nonzero" transform="translate(134.000000, 7.000000) rotate(180.000000) translate(-134.000000, -7.000000) " x="123" y="5" width="22" height="4"></rect>
            <rect id="Rectangle" fill="#696969" fill-rule="nonzero" transform="translate(159.000000, 7.000000) rotate(180.000000) translate(-159.000000, -7.000000) " x="148" y="5" width="22" height="4"></rect>
            <rect id="Rectangle" fill="#FFDB11" fill-rule="nonzero" transform="translate(184.000000, 7.000000) rotate(180.000000) translate(-184.000000, -7.000000) " x="173" y="5" width="22" height="4"></rect>
            <rect id="Rectangle" fill="#696969" fill-rule="nonzero" transform="translate(134.000000, 93.000000) rotate(180.000000) translate(-134.000000, -93.000000) " x="123" y="91" width="22" height="4"></rect>
            <rect id="Rectangle" fill="#FFDB11" fill-rule="nonzero" transform="translate(159.000000, 93.000000) rotate(180.000000) translate(-159.000000, -93.000000) " x="148" y="91" width="22" height="4"></rect>
            <rect id="Rectangle" fill="#FFDB11" fill-rule="nonzero" transform="translate(184.000000, 93.000000) rotate(180.000000) translate(-184.000000, -93.000000) " x="173" y="91" width="22" height="4"></rect>
            <rect id="Rectangle" fill="#FFDB11" fill-rule="nonzero" transform="translate(116.000000, 75.000000) rotate(90.000000) translate(-116.000000, -75.000000) " x="105" y="73" width="22" height="4"></rect>
            <rect id="Rectangle" fill="#FFDB11" fill-rule="nonzero" transform="translate(116.000000, 50.000000) rotate(90.000000) translate(-116.000000, -50.000000) " x="105" y="48" width="22" height="4"></rect>
            <rect id="Rectangle" fill="#FFDB11" fill-rule="nonzero" transform="translate(116.000000, 25.000000) rotate(90.000000) translate(-116.000000, -25.000000) " x="105" y="23" width="22" height="4"></rect>
            <rect id="Rectangle" fill="#696969" fill-rule="nonzero" transform="translate(202.000000, 75.000000) rotate(90.000000) translate(-202.000000, -75.000000) " x="191" y="73" width="22" height="4"></rect>
            <rect id="Rectangle" fill="#696969" fill-rule="nonzero" transform="translate(202.000000, 50.000000) rotate(90.000000) translate(-202.000000, -50.000000) " x="191" y="48" width="22" height="4"></rect>
            <rect id="Rectangle" fill="#696969" fill-rule="nonzero" transform="translate(202.000000, 25.000000) rotate(90.000000) translate(-202.000000, -25.000000) " x="191" y="23" width="22" height="4"></rect>
            <rect id="Rectangle" fill="#696969" fill-rule="nonzero" transform="translate(134.000000, 75.000000) rotate(90.000000) translate(-134.000000, -75.000000) " x="123" y="64" width="22" height="22"></rect>
            <rect id="Rectangle" fill="#696969" fill-rule="nonzero" transform="translate(134.000000, 50.000000) rotate(90.000000) translate(-134.000000, -50.000000) " x="123" y="39" width="22" height="22"></rect>
            <rect id="Rectangle" fill="#696969" fill-rule="nonzero" transform="translate(134.000000, 25.000000) rotate(90.000000) translate(-134.000000, -25.000000) " x="123" y="14" width="22" height="22"></rect>
            <rect id="Rectangle" fill="#696969" fill-rule="nonzero" transform="translate(159.000000, 75.000000) rotate(90.000000) translate(-159.000000, -75.000000) " x="148" y="64" width="22" height="22"></rect>
            <rect id="Rectangle" fill="#FFDB11" fill-rule="nonzero" transform="translate(159.000000, 50.000000) rotate(90.000000) translate(-159.000000, -50.000000) " x="148" y="39" width="22" height="22"></rect>
            <rect id="Rectangle" fill="#FFDB11" fill-rule="nonzero" transform="translate(159.000000, 25.000000) rotate(90.000000) translate(-159.000000, -25.000000) " x="148" y="14" width="22" height="22"></rect>
            <rect id="Rectangle" fill="#696969" fill-rule="nonzero" transform="translate(184.000000, 75.000000) rotate(90.000000) translate(-184.000000, -75.000000) " x="173" y="64" width="22" height="22"></rect>
            <rect id="Rectangle" fill="#FFDB11" fill-rule="nonzero" transform="translate(184.000000, 50.000000) rotate(90.000000) translate(-184.000000, -50.000000) " x="173" y="39" width="22" height="22"></rect>
            <rect id="Rectangle" fill="#696969" fill-rule="nonzero" transform="translate(184.000000, 25.000000) rotate(90.000000) translate(-184.000000, -25.000000) " x="173" y="14" width="22" height="22"></rect>
        </g>
    </g>
</svg>