<?xml version="1.0" encoding="UTF-8"?>
<svg width="210px" height="100px" viewBox="0 0 210 100" version="1.1" xmlns="http://www.w3.org/2000/svg" xmlns:xlink="http://www.w3.org/1999/xlink">
    <title>oll_13_2</title>
    <g id="oll_13_2" stroke="none" stroke-width="1" fill="none" fill-rule="evenodd">
        <g id="oll_13_1-1" transform="translate(1.000000, 0.000000)">
            <polygon id="Path" fill="#000000" points="0.08545 19.2754 9.1878 80.8861 63.8335 99.9206 97.7492 67.4146 97.7492 7.4983 42.6407 0.144653"></polygon>
            <polygon id="Path" fill="#FF8100" points="88.2039 58.1468 96.9186 50.488 97.0048 66.9565 88.2039 75.3621"></polygon>
            <polygon id="Path" fill="#FF8100" points="76.6034 67.8501 86.7168 59.3086 86.714 76.6776 76.9181 85.9901"></polygon>
            <polygon id="Path" fill="#FF8100" points="63.655 79.1917 75.0462 69.2909 75.5865 87.2924 64.4654 97.7814"></polygon>
            <polygon id="Path" fill="#FF8100" points="88.0242 37.3905 96.8586 30.5461 96.8586 48.1383 88.0669 55.7736"></polygon>
            <polygon id="Path" fill="#FF8100" points="75.9272 46.332 86.2613 38.4484 86.5734 56.952 76.3787 65.5684"></polygon>
            <polygon id="Path" fill="#FF8100" points="62.385 56.8014 74.1622 47.8724 74.7933 66.608 63.5011 76.5139"></polygon>
            <polygon id="Path" fill="#696969" points="87.6858 15.251 96.9215 9.3512 96.9215 28.1916 87.6858 35.3294"></polygon>
            <polygon id="Path" fill="#FFDB11" points="74.9431 23.1384 86.1413 16.1482 86.1413 36.0794 75.6622 43.6626"></polygon>
            <polygon id="Path" fill="#FFDB11" points="61.0302 32.1809 73.3519 24.2988 74.0394 45.0007 61.9626 54.179"></polygon>
            <polygon id="Path" fill="#009A0E" points="7.36407 63.0673 22.4452 67.7862 24.4638 85.1273 9.8587 80.0763"></polygon>
            <polygon id="Path" fill="#009A0E" points="24.5278 68.2723 41.0741 73.5715 42.6973 91.5578 26.6732 85.9835"></polygon>
            <polygon id="Path" fill="#009A0E" points="43.4451 74.0815 61.3213 79.7311 62.4823 98.3867 44.93 92.1747"></polygon>
            <polygon id="Path" fill="#009A0E" points="4.26593 42.5068 19.8783 46.8521 22.1478 65.4159 7.00556 60.8649"></polygon>
            <polygon id="Path" fill="#009A0E" points="22.1381 47.3861 39.2124 51.6011 40.8241 71.0197 24.4248 66.0509"></polygon>
            <polygon id="Path" fill="#009A0E" points="41.6631 52.4071 60.1242 57.2168 61.1023 77.171 43.0066 71.7279"></polygon>
            <polygon id="Path" fill="#696969" points="1.25824 20.9258 17.1015 24.1438 19.4007 44.159 4.11256 40.4847"></polygon>
            <polygon id="Path" fill="#FFDB11" points="19.2792 24.5275 36.8079 28.1915 38.9262 49.2004 21.6844 44.8324"></polygon>
            <polygon id="Path" fill="#696969" points="39.5455 28.6229 58.7384 32.7128 59.7614 54.4511 41.1881 49.7452"></polygon>
            <polygon id="Path" fill="#696969" points="42.7298 0.661133 57.3693 2.70313 46.7244 7.95516 31.6843 5.69442"></polygon>
            <polygon id="Path" fill="#FFDB11" points="29.9588 6.37854 45.3163 8.68999 33.1449 14.7348 17.6281 12.0188"></polygon>
            <polygon id="Path" fill="#696969" points="15.8539 12.8521 31.2682 15.5268 17.7552 22.2073 2.10901 19.0718"></polygon>
            <polygon id="Path" fill="#696969" points="33.5259 15.8463 50.8286 18.8557 37.4674 26.2275 19.8798 22.7102"></polygon>
            <polygon id="Path" fill="#FFDB11" points="47.3394 9.073 63.9467 11.6658 52.3312 18.0047 35.3427 15.0288"></polygon>
            <polygon id="Path" fill="#FFDB11" points="59.6528 2.98438 75.6608 5.20123 65.5417 10.8859 48.7521 8.28641"></polygon>
            <polygon id="Path" fill="#696969" points="78.2104 5.5144 95.6861 7.94187 86.0171 13.9058 68.2812 11.1602"></polygon>
            <polygon id="Path" fill="#696969" points="66.3191 11.9232 84.3962 14.7702 73.4317 21.6946 54.8104 18.3866"></polygon>
            <polygon id="Path" fill="#696969" points="53.1083 19.4277 71.7187 22.697 59.3601 30.5818 39.8912 26.7168"></polygon>
            <rect id="Rectangle" fill="#000000" fill-rule="nonzero" x="109" y="0" width="100" height="100"></rect>
            <rect id="Rectangle" fill="#FFDB11" fill-rule="nonzero" transform="translate(116.000000, 75.000000) rotate(90.000000) translate(-116.000000, -75.000000) " x="105" y="73" width="22" height="4"></rect>
            <rect id="Rectangle" fill="#696969" fill-rule="nonzero" transform="translate(116.000000, 50.000000) rotate(90.000000) translate(-116.000000, -50.000000) " x="105" y="48" width="22" height="4"></rect>
            <rect id="Rectangle" fill="#696969" fill-rule="nonzero" transform="translate(116.000000, 25.000000) rotate(90.000000) translate(-116.000000, -25.000000) " x="105" y="23" width="22" height="4"></rect>
            <rect id="Rectangle" fill="#FFDB11" fill-rule="nonzero" transform="translate(202.000000, 75.000000) rotate(90.000000) translate(-202.000000, -75.000000) " x="191" y="73" width="22" height="4"></rect>
            <rect id="Rectangle" fill="#FFDB11" fill-rule="nonzero" transform="translate(202.000000, 50.000000) rotate(90.000000) translate(-202.000000, -50.000000) " x="191" y="48" width="22" height="4"></rect>
            <rect id="Rectangle" fill="#696969" fill-rule="nonzero" transform="translate(202.000000, 25.000000) rotate(90.000000) translate(-202.000000, -25.000000) " x="191" y="23" width="22" height="4"></rect>
            <rect id="Rectangle" fill="#696969" fill-rule="nonzero" x="173" y="91" width="22" height="4"></rect>
            <rect id="Rectangle" fill="#FFDB11" fill-rule="nonzero" x="148" y="91" width="22" height="4"></rect>
            <rect id="Rectangle" fill="#696969" fill-rule="nonzero" x="123" y="91" width="22" height="4"></rect>
            <rect id="Rectangle" fill="#FFDB11" fill-rule="nonzero" x="173" y="5" width="22" height="4"></rect>
            <rect id="Rectangle" fill="#696969" fill-rule="nonzero" x="148" y="5" width="22" height="4"></rect>
            <rect id="Rectangle" fill="#FFDB11" fill-rule="nonzero" x="123" y="5" width="22" height="4"></rect>
            <rect id="Rectangle" fill="#696969" fill-rule="nonzero" x="173" y="64" width="22" height="22"></rect>
            <rect id="Rectangle" fill="#696969" fill-rule="nonzero" x="148" y="64" width="22" height="22"></rect>
            <rect id="Rectangle" fill="#696969" fill-rule="nonzero" x="123" y="64" width="22" height="22"></rect>
            <rect id="Rectangle" fill="#696969" fill-rule="nonzero" x="173" y="39" width="22" height="22"></rect>
            <rect id="Rectangle" fill="#FFDB11" fill-rule="nonzero" x="148" y="39" width="22" height="22"></rect>
            <rect id="Rectangle" fill="#FFDB11" fill-rule="nonzero" x="123" y="39" width="22" height="22"></rect>
            <rect id="Rectangle" fill="#696969" fill-rule="nonzero" x="173" y="14" width="22" height="22"></rect>
            <rect id="Rectangle" fill="#FFDB11" fill-rule="nonzero" x="148" y="14" width="22" height="22"></rect>
            <rect id="Rectangle" fill="#696969" fill-rule="nonzero" x="123" y="14" width="22" height="22"></rect>
        </g>
    </g>
</svg>