<?xml version="1.0" encoding="UTF-8"?>
<svg width="210px" height="100px" viewBox="0 0 210 100" version="1.1" xmlns="http://www.w3.org/2000/svg" xmlns:xlink="http://www.w3.org/1999/xlink">
    <title>oll_45_2</title>
    <g id="oll_45_2" stroke="none" stroke-width="1" fill="none" fill-rule="evenodd">
        <g transform="translate(1.000000, 0.000000)">
            <polygon id="Path" fill="#000000" points="0.08545 19.2753 9.1878 80.886 63.8335 99.9204 97.7492 67.4144 97.7492 7.49818 42.6407 0.144531"></polygon>
            <polygon id="Path" fill="#FF8100" points="88.2039 58.1468 96.9186 50.488 97.0048 66.9565 88.2039 75.3621"></polygon>
            <polygon id="Path" fill="#FF8100" points="76.6034 67.8499 86.7168 59.3083 86.714 76.6773 76.9181 85.9898"></polygon>
            <polygon id="Path" fill="#FF8100" points="63.655 79.1916 75.0462 69.2908 75.5865 87.2923 64.4654 97.7813"></polygon>
            <polygon id="Path" fill="#FF8100" points="88.0242 37.3905 96.8586 30.5461 96.8586 48.1383 88.0669 55.7736"></polygon>
            <polygon id="Path" fill="#FF8100" points="75.9272 46.3319 86.2613 38.4482 86.5734 56.9519 76.3787 65.5683"></polygon>
            <polygon id="Path" fill="#FF8100" points="62.385 56.8013 74.1622 47.8723 74.7933 66.6079 63.5011 76.5138"></polygon>
            <polygon id="Path" fill="#696969" points="87.6858 15.2509 96.9215 9.35107 96.9215 28.1914 87.6858 35.3293"></polygon>
            <polygon id="Path" fill="#696969" points="74.9431 23.1384 86.1413 16.1482 86.1413 36.0794 75.6622 43.6626"></polygon>
            <polygon id="Path" fill="#696969" points="61.0302 32.1809 73.3519 24.2988 74.0394 45.0007 61.9626 54.179"></polygon>
            <polygon id="Path" fill="#009A0E" points="7.36401 63.0674 22.4451 67.7863 24.4638 85.1274 9.8586 80.0764"></polygon>
            <polygon id="Path" fill="#009A0E" points="24.5278 68.2725 41.0741 73.5716 42.6973 91.5579 26.6732 85.9836"></polygon>
            <polygon id="Path" fill="#009A0E" points="43.4449 74.0815 61.3212 79.7311 62.4821 98.3867 44.9298 92.1747"></polygon>
            <polygon id="Path" fill="#009A0E" points="4.26587 42.5068 19.8782 46.8521 22.1477 65.4159 7.0055 60.8649"></polygon>
            <polygon id="Path" fill="#009A0E" points="22.1381 47.3862 39.2124 51.6013 40.8241 71.0198 24.4247 66.051"></polygon>
            <polygon id="Path" fill="#009A0E" points="41.6631 52.407 60.1242 57.2167 61.1022 77.1709 43.0065 71.7277"></polygon>
            <polygon id="Path" fill="#FFDB11" points="1.25818 20.9258 17.1014 24.1438 19.4007 44.159 4.1125 40.4847"></polygon>
            <polygon id="Path" fill="#FFDB11" points="19.2792 24.5273 36.8078 28.1914 38.9261 49.2003 21.6843 44.8322"></polygon>
            <polygon id="Path" fill="#696969" points="39.5454 28.6228 58.7383 32.7126 59.7613 54.451 41.188 49.7451"></polygon>
            <polygon id="Path" fill="#696969" points="42.7298 0.661133 57.3693 2.70313 46.7244 7.95516 31.6843 5.69442"></polygon>
            <polygon id="Path" fill="#FFDB11" points="29.9587 6.37842 45.3162 8.68987 33.1448 14.7347 17.6281 12.0187"></polygon>
            <polygon id="Path" fill="#696969" points="15.8539 12.8521 31.2682 15.5268 17.7552 22.2073 2.10901 19.0718"></polygon>
            <polygon id="Path" fill="#696969" points="33.5259 15.8462 50.8286 18.8556 37.4674 26.2273 19.8798 22.7101"></polygon>
            <polygon id="Path" fill="#FFDB11" points="47.3394 9.073 63.9467 11.6658 52.3312 18.0047 35.3427 15.0288"></polygon>
            <polygon id="Path" fill="#696969" points="59.6528 2.98438 75.6608 5.20123 65.5417 10.8859 48.7521 8.28641"></polygon>
            <polygon id="Path" fill="#696969" points="78.2104 5.5144 95.6861 7.94187 86.0171 13.9058 68.2812 11.1602"></polygon>
            <polygon id="Path" fill="#FFDB11" points="66.3191 11.9231 84.3962 14.7701 73.4317 21.6944 54.8104 18.3865"></polygon>
            <polygon id="Path" fill="#FFDB11" points="53.1083 19.4277 71.7187 22.697 59.3601 30.5818 39.8912 26.7168"></polygon>
            <rect id="Rectangle" fill="#FFFFFF" fill-rule="nonzero" x="109" y="0" width="100" height="100"></rect>
            <rect id="Rectangle" fill="#000000" fill-rule="nonzero" x="109" y="0" width="100" height="100"></rect>
            <rect id="Rectangle" fill="#696969" fill-rule="nonzero" transform="translate(116.000000, 75.000000) rotate(90.000000) translate(-116.000000, -75.000000) " x="105" y="73" width="22" height="4"></rect>
            <rect id="Rectangle" fill="#696969" fill-rule="nonzero" transform="translate(116.000000, 50.000000) rotate(90.000000) translate(-116.000000, -50.000000) " x="105" y="48" width="22" height="4"></rect>
            <rect id="Rectangle" fill="#FFDB11" fill-rule="nonzero" transform="translate(116.000000, 25.000000) rotate(90.000000) translate(-116.000000, -25.000000) " x="105" y="23" width="22" height="4"></rect>
            <rect id="Rectangle" fill="#696969" fill-rule="nonzero" transform="translate(202.000000, 75.000000) rotate(90.000000) translate(-202.000000, -75.000000) " x="191" y="73" width="22" height="4"></rect>
            <rect id="Rectangle" fill="#696969" fill-rule="nonzero" transform="translate(202.000000, 50.000000) rotate(90.000000) translate(-202.000000, -50.000000) " x="191" y="48" width="22" height="4"></rect>
            <rect id="Rectangle" fill="#696969" fill-rule="nonzero" transform="translate(202.000000, 25.000000) rotate(90.000000) translate(-202.000000, -25.000000) " x="191" y="23" width="22" height="4"></rect>
            <rect id="Rectangle" fill="#696969" fill-rule="nonzero" x="173" y="91" width="22" height="4"></rect>
            <rect id="Rectangle" fill="#FFDB11" fill-rule="nonzero" x="148" y="91" width="22" height="4"></rect>
            <rect id="Rectangle" fill="#FFDB11" fill-rule="nonzero" x="123" y="91" width="22" height="4"></rect>
            <rect id="Rectangle" fill="#FFDB11" fill-rule="nonzero" x="173" y="5" width="22" height="4"></rect>
            <rect id="Rectangle" fill="#FFDB11" fill-rule="nonzero" x="148" y="5" width="22" height="4"></rect>
            <rect id="Rectangle" fill="#696969" fill-rule="nonzero" x="123" y="5" width="22" height="4"></rect>
            <rect id="Rectangle" fill="#FFDB11" fill-rule="nonzero" x="173" y="64" width="22" height="22"></rect>
            <rect id="Rectangle" fill="#696969" fill-rule="nonzero" x="148" y="64" width="22" height="22"></rect>
            <rect id="Rectangle" fill="#696969" fill-rule="nonzero" x="123" y="64" width="22" height="22"></rect>
            <rect id="Rectangle" fill="#FFDB11" fill-rule="nonzero" x="173" y="39" width="22" height="22"></rect>
            <rect id="Rectangle" fill="#FFDB11" fill-rule="nonzero" x="148" y="39" width="22" height="22"></rect>
            <rect id="Rectangle" fill="#FFDB11" fill-rule="nonzero" x="123" y="39" width="22" height="22"></rect>
            <rect id="Rectangle" fill="#696969" fill-rule="nonzero" x="173" y="14" width="22" height="22"></rect>
            <rect id="Rectangle" fill="#696969" fill-rule="nonzero" x="148" y="14" width="22" height="22"></rect>
            <rect id="Rectangle" fill="#696969" fill-rule="nonzero" x="123" y="14" width="22" height="22"></rect>
        </g>
    </g>
</svg>