<?xml version="1.0" encoding="UTF-8"?>
<svg width="92px" height="100px" viewBox="0 0 92 100" version="1.1" xmlns="http://www.w3.org/2000/svg" xmlns:xlink="http://www.w3.org/1999/xlink">
    <title>redi_1</title>
    <g id="redi" stroke="none" stroke-width="1" fill="none" fill-rule="evenodd">
        <g id="redi_1" fill-rule="nonzero">
            <polygon id="Path" fill="#000000" points="0.0593548387 23.4411765 36.443871 0.0588235294 89.7148387 13.0882353 87.963871 67.3529412 56.6541935 97.5294118 4.15483871 78.7352941"></polygon>
            <polygon id="Path" fill="#FFFFFF" points="49.8283871 25.2941176 66.4477419 29.2352941 56.12 37.0294118 38.6696774 32.5588235"></polygon>
            <polygon id="Path" fill="#696969" points="61.3432258 16.2941176 77.2206452 20.6470588 67.6941935 27.8235294 50.6 23.8529412 47.276129 17.8823529"></polygon>
            <polygon id="Path" fill="#FFFFFF" points="71.2554839 9.02941176 87.5483871 12.8823529 78.4670968 19.4117647 63.3316129 15.3529412"></polygon>
            <polygon id="Path" fill="#696969" points="30.5380645 20 44.4567742 18.5588235 47.5135484 24.6470588 36.6812903 32.1764706 20.0619355 27.5588235"></polygon>
            <polygon id="Path" fill="#696969" points="43.4180645 11.0882353 53.6864516 4.76470588 68.8219355 8.41176471 59.5625806 15.2058824 46 16.6176471"></polygon>
            <polygon id="Path" fill="#FFFFFF" points="13.6219355 15.3235294 27.8967742 19.7058824 17.9548387 26.7941176 2.40387097 22.5"></polygon>
            <polygon id="Path" fill="#696969" points="25.0774194 7.91176471 40.1535484 11.5588235 42.8541935 17.3823529 28.5496774 19.0588235 14.363871 14.8823529"></polygon>
            <polygon id="Path" fill="#FFFFFF" points="36.5329032 0.470588235 50.9858065 4 41.1032258 10.3235294 26.3535484 6.97058824"></polygon>
            <polygon id="Path" fill="#E31E24" points="37.6309677 35.9705882 54.8735484 40.8235294 54.9032258 58.1470588 38.4322581 52.8529412"></polygon>
            <polygon id="Path" fill="#696969" points="18.6967742 30.8823529 35.2864516 35.5882353 35.9987097 52.7058824 27.7483871 58.8235294 18.9935484 47.2058824"></polygon>
            <polygon id="Path" fill="#E31E24" points="0.979354839 25.7352941 16.6193548 30.1470588 17.0051613 46.6470588 2.04774194 42.7058824"></polygon>
            <polygon id="Path" fill="#696969" points="38.7587097 54.9411765 55.3780645 60.4705882 55.1703226 77.2647059 39.0554839 72.4411765 30.2116129 60.8235294"></polygon>
            <polygon id="Path" fill="#696969" points="2.34451613 44.4705882 17.123871 48.4705882 25.8787097 59.8823529 18.0141935 65.7058824 3.41290323 60.3529412"></polygon>
            <polygon id="Path" fill="#E31E24" points="39.203871 74.8823529 55.1703226 79.3823529 55.1109677 95.7352941 38.9070968 90"></polygon>
            <polygon id="Path" fill="#696969" points="20.24 67.9705882 28.2232258 62.0294118 36.8 73.2352941 36.5922581 89.0588235 21.3083871 83.5882353"></polygon>
            <polygon id="Path" fill="#E31E24" points="3.8283871 62.6176471 18.3406452 67.9705882 19.32 83 4.92645161 78"></polygon>
            <polygon id="Path" fill="#0062AC" points="58.316129 40.7058824 68.6141935 32.1470588 68.2580645 49.3529412 58.316129 57.9705882"></polygon>
            <polygon id="Path" fill="#696969" points="69.5935484 30.9705882 79.2980645 23.5588235 79.2980645 40.0294118 74.0154839 52.7058824 69.2077419 48.0294118"></polygon>
            <polygon id="Path" fill="#0062AC" points="80.4258065 22.5588235 89.24 15.7352941 88.7058065 32.3529412 80.603871 38.4705882"></polygon>
            <polygon id="Path" fill="#696969" points="58.88 60.2058824 68.7032258 51.4705882 73.3329032 55.9117647 68.08 69.0588235 58.6722581 77.1764706"></polygon>
            <polygon id="Path" fill="#696969" points="80.3070968 41.0294118 88.5870968 34.9411765 88.0529032 50.7941176 80.04 58.2058824 75.083871 53.4411765"></polygon>
            <polygon id="Path" fill="#0062AC" points="58.4645161 79.2941176 67.8425806 71.3823529 67.516129 85.8529412 57.9303226 95.2352941"></polygon>
            <polygon id="Path" fill="#696969" points="69.2077419 69.3235294 74.3419355 56.7647059 78.8232258 60.7647059 78.0812903 76 69.0593548 84.7352941"></polygon>
            <polygon id="Path" fill="#0062AC" points="79.9806452 60 88.1419355 52.0882353 87.5780645 67.0588235 79.4167742 75.0294118"></polygon>
        </g>
    </g>
</svg>