<?xml version="1.0" encoding="UTF-8"?>
<svg width="210px" height="100px" viewBox="0 0 210 100" version="1.1" xmlns="http://www.w3.org/2000/svg" xmlns:xlink="http://www.w3.org/1999/xlink">
    <title>begin_2_3</title>
    <g id="begin_2_3" stroke="none" stroke-width="1" fill="none" fill-rule="evenodd">
        <g id="left_cube">
            <path d="M99.5824963,16.6052632 L96.5163399,74.1513158 C96.4901961,74.6710526 96.1633987,75.1052632 95.7189542,75.3157895 L51.4836601,99.2894737 C50.8366013,99.6447368 48.5816993,99.1776316 48.1176471,98.9144737 L4.2875817,74.6315789 C3.81045752,74.375 3.54248366,73.8947368 3.54901961,73.4078947 L0.653253673,16.4605263 C0.62745098,15.8355263 2.11111111,13.9802632 2.7124183,13.8486842 L49.9542484,0.0592105263 C50.2287582,-0.0197368421 50.5098039,-0.0197368421 50.7647059,0.0592105263 L96.5163399,14 C97.0980392,14.1644737 99.6339869,15.5131579 99.5824963,16.6052632 Z" id="Background" fill="#000000"></path>
            <g id="Right" transform="translate(50.000000, 16.000000)" fill="#4A4A4A">
                <polygon id="R1" points="0.408804306 19.0487636 17.1302191 12.9593353 16.7939446 33.5737636 0.48792772 40.0124773"></polygon>
                <polygon id="R2" points="19.0885236 12.4387024 33.9703191 6.56016334 33.4955786 25.9487976 18.8115917 32.6379424"></polygon>
                <polygon id="R3" points="36.0275279 5.80887024 48.5883699 0.833200998 47.6982314 19.9911751 35.2033256 25.1711434"></polygon>
                <polygon id="R4" points="0.586831988 42.1411411 16.7741638 35.669476 16.1543637 54.6692831 0.586831988 62.4194646"></polygon>
                <polygon id="R5" points="18.8709343 34.8325091 33.179085 28.4135662 32.1306997 47.1827132 18.2115725 53.9509415"></polygon>
                <polygon id="R6" points="34.8670511 27.6029605 47.4542676 22.0868875 46.4256632 39.8740812 34.0098808 45.9766901"></polygon>
                <polygon id="R7" points="0.718704344 64.4295032 16.2994233 56.6925023 15.5543445 74.4269737 0.791234141 82.5198503"></polygon>
                <polygon id="R8" points="18.323664 56.0466538 32.2098231 49.219113 31.4251826 66.149569 17.5785852 73.4713816"></polygon>
                <polygon id="R9" points="34.2340638 48.2635209 46.5113802 41.9104809 45.4959631 58.4652904 33.5878893 64.7128857"></polygon>
            </g>
            <g id="Left" transform="translate(1.000000, 16.000000)">
                <polygon id="L1" fill="#4A4A4A" points="30.814802 12.8736615 47.5362168 18.9564995 47.5098424 40.0849705 31.4807574 33.2376588"></polygon>
                <polygon id="L2" fill="#4A4A4A" points="14.3769127 6.40199637 28.9356209 12.1487296 29.6345444 32.5720395 15.2274894 26.1992287"></polygon>
                <polygon id="L3" fill="#4A4A4A" points="0.649000384 0.68821461 12.4845444 5.76932849 13.3219339 25.1316016 1.53254517 19.3782781"></polygon>
                <polygon id="L4" fill="#4A4A4A" points="31.3620723 35.2081556 47.5757785 42.1740926 47.5625913 62.4128743 31.9818724 54.8604015"></polygon>
                <polygon id="L5" fill="#4A4A4A" points="15.4055171 28.5980944 29.502672 34.4700431 30.0960977 53.7202813 16.1044406 47.1431715"></polygon>
                <polygon id="L6" fill="#4A4A4A" points="1.88200692 21.8232759 13.5527105 27.4382033 14.2252595 46.0491833 2.73917724 39.959755"></polygon>
                <polygon id="L7" fill="#4A4A4A" points="31.9225298 56.9956556 47.740619 64.5876701 47.826336 82.1573843 31.8697809 73.2011797"></polygon>
                <polygon id="L8" fill="#FFFFFF" points="16.1637832 49.1993421 29.9971934 55.8621257 30.1158785 72.0017468 16.6780854 64.8578721"></polygon>
                <polygon id="L9" fill="#4A4A4A" points="2.92379854 42.4377042 14.3307574 48.1580762 14.7263745 63.6913907 3.57656671 57.8128516"></polygon>
            </g>
            <g id="Up" transform="translate(3.000000, 1.000000)">
                <polygon id="Up1" fill="#4A4A4A" points="30.0254506 26.0033443 46.4396118 20.0272478 62.9710636 25.7945724 46.4656764 31.7184759"></polygon>
                <polygon id="Up2" fill="#FFFFFF" points="49.0786492 19.2900219 64.1309368 14.4099781 79.5546445 19.3356908 65.1800357 25.1095395"></polygon>
                <polygon id="Up3" fill="#4A4A4A" points="66.3724896 13.4770285 77.7887701 9.88223684 92.997445 14.2794956 81.6789067 18.657182"></polygon>
                <polygon id="Up4" fill="#FFFFFF" points="49.0069717 8.12072368 60.32551 4.60422149 75.0910873 9.02757675 64.1439691 12.6288925"></polygon>
                <polygon id="Up5" fill="#FFFFFF" points="32.7687463 13.5683662 46.954387 8.83837719 61.4788671 13.4313596 46.7589028 18.3244518"></polygon>
                <polygon id="Up6" fill="#4A4A4A" points="13.226837 19.3095943 29.7908695 14.3186404 43.9243811 19.0877741 27.9533175 24.8877193"></polygon>
                <polygon id="Up7" fill="#4A4A4A" points="0.175004951 14.0576754 16.074391 9.39945175 27.5232521 13.4444079 11.526124 18.6310855"></polygon>
                <polygon id="Up8" fill="#4A4A4A" points="17.9445237 8.53826754 32.8208754 4.36935307 44.6998019 8.13377193 30.2600317 12.8246162"></polygon>
                <polygon id="Up9" fill="#4A4A4A" points="35.512042 3.81480263 47.3649039 0.357017544 58.8267974 3.61255482 47.0651614 7.46178728"></polygon>
            </g>
        </g>
        <g id="right_cube" transform="translate(110.000000, 0.000000)">
            <path d="M99.5824963,16.6052632 L96.5163399,74.1513158 C96.4901961,74.6710526 96.1633987,75.1052632 95.7189542,75.3157895 L51.4836601,99.2894737 C50.8366013,99.6447368 48.5816993,99.1776316 48.1176471,98.9144737 L4.2875817,74.6315789 C3.81045752,74.375 3.54248366,73.8947368 3.54901961,73.4078947 L0.653253673,16.4605263 C0.62745098,15.8355263 2.11111111,13.9802632 2.7124183,13.8486842 L49.9542484,0.0592105263 C50.2287582,-0.0197368421 50.5098039,-0.0197368421 50.7647059,0.0592105263 L96.5163399,14 C97.0980392,14.1644737 99.6339869,15.5131579 99.5824963,16.6052632 Z" id="Background" fill="#000000"></path>
            <g id="Right" transform="translate(50.000000, 16.000000)" fill="#4A4A4A">
                <polygon id="R1" points="0.408804306 19.0487636 17.1302191 12.9593353 16.7939446 33.5737636 0.48792772 40.0124773"></polygon>
                <polygon id="R2" points="19.0885236 12.4387024 33.9703191 6.56016334 33.4955786 25.9487976 18.8115917 32.6379424"></polygon>
                <polygon id="R3" points="36.0275279 5.80887024 48.5883699 0.833200998 47.6982314 19.9911751 35.2033256 25.1711434"></polygon>
                <polygon id="R4" points="0.586831988 42.1411411 16.7741638 35.669476 16.1543637 54.6692831 0.586831988 62.4194646"></polygon>
                <polygon id="R5" points="18.8709343 34.8325091 33.179085 28.4135662 32.1306997 47.1827132 18.2115725 53.9509415"></polygon>
                <polygon id="R6" points="34.8670511 27.6029605 47.4542676 22.0868875 46.4256632 39.8740812 34.0098808 45.9766901"></polygon>
                <polygon id="R7" points="0.718704344 64.4295032 16.2994233 56.6925023 15.5543445 74.4269737 0.791234141 82.5198503"></polygon>
                <polygon id="R8" points="18.323664 56.0466538 32.2098231 49.219113 31.4251826 66.149569 17.5785852 73.4713816"></polygon>
                <polygon id="R9" points="34.2340638 48.2635209 46.5113802 41.9104809 45.4959631 58.4652904 33.5878893 64.7128857"></polygon>
            </g>
            <g id="Left" transform="translate(1.000000, 16.000000)">
                <polygon id="L1" fill="#4A4A4A" points="30.814802 12.8736615 47.5362168 18.9564995 47.5098424 40.0849705 31.4807574 33.2376588"></polygon>
                <polygon id="L2" fill="#4A4A4A" points="14.3769127 6.40199637 28.9356209 12.1487296 29.6345444 32.5720395 15.2274894 26.1992287"></polygon>
                <polygon id="L3" fill="#4A4A4A" points="0.649000384 0.68821461 12.4845444 5.76932849 13.3219339 25.1316016 1.53254517 19.3782781"></polygon>
                <polygon id="L4" fill="#4A4A4A" points="31.3620723 35.2081556 47.5757785 42.1740926 47.5625913 62.4128743 31.9818724 54.8604015"></polygon>
                <polygon id="L5" fill="#4A4A4A" points="15.4055171 28.5980944 29.502672 34.4700431 30.0960977 53.7202813 16.1044406 47.1431715"></polygon>
                <polygon id="L6" fill="#FFFFFF" points="1.88200692 21.8232759 13.5527105 27.4382033 14.2252595 46.0491833 2.73917724 39.959755"></polygon>
                <polygon id="L7" fill="#4A4A4A" points="31.9225298 56.9956556 47.740619 64.5876701 47.826336 82.1573843 31.8697809 73.2011797"></polygon>
                <polygon id="L8" fill="#4A4A4A" points="16.1637832 49.1993421 29.9971934 55.8621257 30.1158785 72.0017468 16.6780854 64.8578721"></polygon>
                <polygon id="L9" fill="#4A4A4A" points="2.92379854 42.4377042 14.3307574 48.1580762 14.7263745 63.6913907 3.57656671 57.8128516"></polygon>
            </g>
            <g id="Up" transform="translate(3.000000, 1.000000)">
                <polygon id="Up1" fill="#4A4A4A" points="30.0254506 26.0033443 46.4396118 20.0272478 62.9710636 25.7945724 46.4656764 31.7184759"></polygon>
                <polygon id="Up2" fill="#FFFFFF" points="49.0786492 19.2900219 64.1309368 14.4099781 79.5546445 19.3356908 65.1800357 25.1095395"></polygon>
                <polygon id="Up3" fill="#4A4A4A" points="66.3724896 13.4770285 77.7887701 9.88223684 92.997445 14.2794956 81.6789067 18.657182"></polygon>
                <polygon id="Up4" fill="#FFFFFF" points="49.0069717 8.12072368 60.32551 4.60422149 75.0910873 9.02757675 64.1439691 12.6288925"></polygon>
                <polygon id="Up5" fill="#FFFFFF" points="32.7687463 13.5683662 46.954387 8.83837719 61.4788671 13.4313596 46.7589028 18.3244518"></polygon>
                <polygon id="Up6" fill="#4A4A4A" points="13.226837 19.3095943 29.7908695 14.3186404 43.9243811 19.0877741 27.9533175 24.8877193"></polygon>
                <polygon id="Up7" fill="#4A4A4A" points="0.175004951 14.0576754 16.074391 9.39945175 27.5232521 13.4444079 11.526124 18.6310855"></polygon>
                <polygon id="Up8" fill="#4A4A4A" points="17.9445237 8.53826754 32.8208754 4.36935307 44.6998019 8.13377193 30.2600317 12.8246162"></polygon>
                <polygon id="Up9" fill="#4A4A4A" points="35.512042 3.81480263 47.3649039 0.357017544 58.8267974 3.61255482 47.0651614 7.46178728"></polygon>
            </g>
        </g>
        <path d="M140.339696,9.01807595 L131.939534,9.88993201 C131.485606,9.76379921 131.207888,9.24470155 131.319235,8.73049494 C131.430582,8.21628833 131.888828,7.90169235 132.342756,8.02782515 L143.880565,8.02782515 C144.521488,8.20591795 144.743843,9.10955443 144.276663,9.63753982 L136.582774,17.0765617 C136.251898,17.4505031 135.716066,17.4497955 135.38596,17.0749813 C135.055854,16.700167 135.056479,16.0931806 135.387355,15.7192392 L140.794666,10.864405 L134.179926,12.951972 C126.283893,15.9842779 122.233361,19.4513773 120.328135,24.5028025 C118.740781,28.7114381 118.542707,32.4740706 118.772583,45.1115877 C118.838519,48.7364808 118.865904,50.8999478 118.865904,53.4148897 C118.865904,53.9443403 118.487014,54.3735448 118.019628,54.3735448 C117.552243,54.3735448 117.173352,53.9443403 117.173352,53.4148897 C117.173352,50.9164214 117.146104,48.7637324 117.08039,45.1510863 C116.844626,32.189856 117.048424,28.3184944 118.771692,23.7495047 C120.894616,18.1208826 125.326303,14.3275291 133.680987,11.1206191 L140.339696,9.01807595 Z" id="Path" fill="#FFFFFF" fill-rule="nonzero"></path>
        <path d="M64.2817276,69.0207732 C64.5773603,68.554276 65.1951888,68.415763 65.6616861,68.7113958 C66.1281834,69.0070285 66.2666964,69.624857 65.9710636,70.0913543 L59.7291379,82.4959361 L58.7775103,83.9975681 L57.9883851,82.4045285 L52.0179949,73.4173427 C51.7728452,72.9224488 51.9753028,72.3225248 52.4701968,72.077375 C52.9650908,71.8322252 53.5650147,72.0346829 53.8101645,72.5295769 L58.0860305,78.0959567 L58.5116663,69.9903158 C60.1921684,35.4531902 57.8493224,29.4429688 38.6498137,22.1786764 C33.853019,20.3637695 29.4018385,18.9557191 16.8758521,15.1835524 C16.3470265,15.024298 16.0474299,14.466499 16.2066843,13.9376734 C16.3659387,13.4088478 16.9237377,13.1092512 17.4525632,13.2685056 C30.0292828,17.0559505 34.499828,18.4701266 39.3575649,20.3080914 C50.3968472,24.4848949 55.7461469,28.6455273 58.5106122,35.7373499 C61.0791186,42.3264692 61.4469692,50.8169085 60.5091087,70.0913543 L60.0832771,78.2008293 L64.2817276,69.0207732 Z" id="Path-2" fill="#FFFFFF" fill-rule="nonzero"></path>
    </g>
</svg>