<?xml version="1.0" encoding="UTF-8"?>
<svg width="100px" height="100px" viewBox="0 0 100 100" version="1.1" xmlns="http://www.w3.org/2000/svg" xmlns:xlink="http://www.w3.org/1999/xlink">
    <title>begin_7_2</title>
    <g id="begin_7_2" stroke="none" stroke-width="1" fill="none" fill-rule="evenodd">
        <g id="cube" transform="translate(4.000000, 7.000000)">
            <path d="M92.6117216,15.4428947 L89.7601961,68.9607237 C89.7358824,69.4440789 89.4319608,69.8478947 89.0186275,70.0436842 L47.8798039,92.3392105 C47.2780392,92.6696053 45.1809804,92.2351974 44.7494118,91.9904605 L3.98745098,69.4073684 C3.54372549,69.16875 3.2945098,68.7221053 3.30058824,68.2693421 L0.607525916,15.3082895 C0.583529412,14.7270395 1.96333333,13.0016447 2.52254902,12.8792763 L46.457451,0.0550657895 C46.7127451,-0.0183552632 46.9741176,-0.0183552632 47.2111765,0.0550657895 L89.7601961,13.02 C90.3011765,13.1729605 92.6596078,14.4272368 92.6117216,15.4428947 Z" id="Background" fill="#000000"></path>
            <g id="Right" transform="translate(46.500000, 14.880000)" fill="#FFFFFF">
                <polygon id="R1" points="0.380188005 17.7153502 15.9311038 12.0521818 15.6183685 31.2236002 0.45377278 37.2116039"></polygon>
                <polygon id="R2" points="17.752327 11.5679932 31.5923968 6.10095191 31.1508881 24.1323818 17.4947803 30.3532864"></polygon>
                <polygon id="R3" points="33.5056009 5.40224932 45.187184 0.774876928 44.3593552 18.5917929 32.7390928 23.4091633"></polygon>
                <polygon id="R4" points="0.545753749 39.1912612 15.5999723 33.1726126 15.0235582 50.8424333 0.545753749 58.0501021"></polygon>
                <polygon id="R5" points="17.5499689 32.3942334 30.856549 26.4246166 29.8815507 43.8799233 16.9367624 50.1743756"></polygon>
                <polygon id="R6" points="32.4263576 25.6707533 44.1324689 20.5408054 43.1758668 37.0828955 31.6291892 42.7583218"></polygon>
                <polygon id="R7" points="0.66839504 59.919438 15.1584637 52.7240271 14.4655404 69.2170855 0.735847751 76.7434608"></polygon>
                <polygon id="R8" points="17.0410075 52.123388 29.9551355 45.7737751 29.2254198 61.5190991 16.3480842 68.3283849"></polygon>
                <polygon id="R9" points="31.8376794 44.8850744 43.2555836 38.9767473 42.3112457 54.3727201 31.236737 60.1829837"></polygon>
            </g>
            <g id="Left" transform="translate(0.930000, 14.880000)">
                <polygon id="L1" fill="#025AC1" points="28.6577659 11.9725052 44.2086817 17.6295446 44.1841534 37.2790226 29.2771044 30.9110227"></polygon>
                <polygon id="L2" fill="#025AC1" points="13.3705288 5.95385662 26.9101275 11.2983185 27.5601263 30.2919967 14.1615652 24.3652827"></polygon>
                <polygon id="L3" fill="#4A4A4A" points="0.603570358 0.640039587 11.6106263 5.3654755 12.3893985 23.3723895 1.42526701 18.0217987"></polygon>
                <polygon id="L4" fill="#025AC1" points="29.1667272 32.7435847 44.245474 39.2219061 44.2332099 58.0439731 29.7431413 51.0201734"></polygon>
                <polygon id="L5" fill="#025AC1" points="14.3271309 26.5962278 27.437485 32.0571401 27.9893708 49.9598616 14.9771298 43.8431495"></polygon>
                <polygon id="L6" fill="#4A4A4A" points="1.75026644 20.2956466 12.6040208 25.517529 13.2294913 42.8257405 2.54743483 37.1625721"></polygon>
                <polygon id="L7" fill="#025AC1" points="29.6879527 53.0059597 44.3987757 60.0665332 44.4784925 76.4063674 29.6388962 68.0770971"></polygon>
                <polygon id="L8" fill="#025AC1" points="15.0323183 45.7553882 27.8973899 51.9517769 28.007767 66.9616245 15.5106194 60.317821"></polygon>
                <polygon id="L9" fill="#4A4A4A" points="2.71913264 39.4670649 13.3276044 44.7870109 13.6955283 59.2329933 3.32620704 53.765952"></polygon>
            </g>
            <g id="Up" transform="translate(2.790000, 0.930000)">
                <polygon id="Up1" fill="#D0021B" points="27.923669 24.1831102 43.188839 18.6253405 58.5630891 23.9889523 43.213079 29.4981826"></polygon>
                <polygon id="Up2" fill="#D0021B" points="45.6431438 17.9397204 59.6417712 13.4012796 73.9858194 17.9821924 60.6174332 23.3518717"></polygon>
                <polygon id="Up3" fill="#D0021B" points="61.7264153 12.5336365 72.3435561 9.19048026 86.4876239 13.2799309 75.9613832 17.3511793"></polygon>
                <polygon id="Up4" fill="#D0021B" points="45.5764837 7.55227303 56.1027243 4.28192599 69.8347112 8.39564638 59.6538913 11.7448701"></polygon>
                <polygon id="Up5" fill="#D0021B" points="30.474934 12.6185806 43.6675799 8.21969079 57.1753464 12.4911645 43.4857796 17.0417401"></polygon>
                <polygon id="Up6" fill="#D0021B" points="12.3009584 17.9579227 27.7055086 13.3163355 40.8496744 17.7516299 25.9965853 23.1455789"></polygon>
                <polygon id="Up7" fill="#4A4A4A" points="0.162754605 13.0736382 14.9491836 8.74149013 25.5966245 12.5032993 10.7192953 17.3269095"></polygon>
                <polygon id="Up8" fill="#4A4A4A" points="16.688407 7.94058882 30.5234141 4.06349836 41.5708158 7.56440789 28.1418295 11.9268931"></polygon>
                <polygon id="Up9" fill="#4A4A4A" points="33.026199 3.54776645 44.0493607 0.332026316 54.7089216 3.35967599 43.7706001 6.93946217"></polygon>
            </g>
        </g>
        <path d="M37.7034206,1.68099983 C37.3580633,1.22152279 37.445137,0.564927228 37.8979051,0.214452602 C38.3506733,-0.136022025 38.9976817,-0.0476581092 39.343039,0.411818931 L43.8883117,6.88826518 L45,8.36729945 L43.1771876,8.5633805 L35.2034659,8.99408488 C34.6371907,9.05499945 34.129474,8.63852161 34.0694488,8.0638556 C34.0094237,7.48918958 34.4198204,6.97394972 34.9860956,6.91303514 L39.0456057,6.9033849 L31.4648076,3.58908703 C28.2289069,2.77671149 24.9323871,2.40543824 22.0657685,2.50334319 C21.4966431,2.5227808 21.0197485,2.07033444 21.0005947,1.49277596 C20.981441,0.915217484 21.4272811,0.431256537 21.9964065,0.411818931 C25.0827542,0.306409462 28.6013115,0.706421391 32.0451226,1.57908165 L32.2032859,1.63329636 L39.8615122,4.98144556 L37.7034206,1.68099983 Z" id="Path-5" fill="#D0021B" fill-rule="nonzero"></path>
    </g>
</svg>