<?xml version="1.0" encoding="UTF-8"?>
<svg width="210px" height="100px" viewBox="0 0 210 100" version="1.1" xmlns="http://www.w3.org/2000/svg" xmlns:xlink="http://www.w3.org/1999/xlink">
    <title>begin_2_4</title>
    <g id="begin_2_4" stroke="none" stroke-width="1" fill="none" fill-rule="evenodd">
        <g id="left_cube">
            <path d="M99.5824963,16.6052632 L96.5163399,74.1513158 C96.4901961,74.6710526 96.1633987,75.1052632 95.7189542,75.3157895 L51.4836601,99.2894737 C50.8366013,99.6447368 48.5816993,99.1776316 48.1176471,98.9144737 L4.2875817,74.6315789 C3.81045752,74.375 3.54248366,73.8947368 3.54901961,73.4078947 L0.653253673,16.4605263 C0.62745098,15.8355263 2.11111111,13.9802632 2.7124183,13.8486842 L49.9542484,0.0592105263 C50.2287582,-0.0197368421 50.5098039,-0.0197368421 50.7647059,0.0592105263 L96.5163399,14 C97.0980392,14.1644737 99.6339869,15.5131579 99.5824963,16.6052632 Z" id="Background" fill="#000000"></path>
            <g id="Right" transform="translate(50.000000, 16.000000)" fill="#4A4A4A">
                <polygon id="R1" points="0.408804306 19.0487636 17.1302191 12.9593353 16.7939446 33.5737636 0.48792772 40.0124773"></polygon>
                <polygon id="R2" points="19.0885236 12.4387024 33.9703191 6.56016334 33.4955786 25.9487976 18.8115917 32.6379424"></polygon>
                <polygon id="R3" points="36.0275279 5.80887024 48.5883699 0.833200998 47.6982314 19.9911751 35.2033256 25.1711434"></polygon>
                <polygon id="R4" points="0.586831988 42.1411411 16.7741638 35.669476 16.1543637 54.6692831 0.586831988 62.4194646"></polygon>
                <polygon id="R5" points="18.8709343 34.8325091 33.179085 28.4135662 32.1306997 47.1827132 18.2115725 53.9509415"></polygon>
                <polygon id="R6" points="34.8670511 27.6029605 47.4542676 22.0868875 46.4256632 39.8740812 34.0098808 45.9766901"></polygon>
                <polygon id="R7" points="0.718704344 64.4295032 16.2994233 56.6925023 15.5543445 74.4269737 0.791234141 82.5198503"></polygon>
                <polygon id="R8" points="18.323664 56.0466538 32.2098231 49.219113 31.4251826 66.149569 17.5785852 73.4713816"></polygon>
                <polygon id="R9" points="34.2340638 48.2635209 46.5113802 41.9104809 45.4959631 58.4652904 33.5878893 64.7128857"></polygon>
            </g>
            <g id="Left" transform="translate(1.000000, 16.000000)" fill="#4A4A4A">
                <polygon id="L1" points="30.814802 12.8736615 47.5362168 18.9564995 47.5098424 40.0849705 31.4807574 33.2376588"></polygon>
                <polygon id="L2" points="14.3769127 6.40199637 28.9356209 12.1487296 29.6345444 32.5720395 15.2274894 26.1992287"></polygon>
                <polygon id="L3" points="0.649000384 0.68821461 12.4845444 5.76932849 13.3219339 25.1316016 1.53254517 19.3782781"></polygon>
                <polygon id="L4" points="31.3620723 35.2081556 47.5757785 42.1740926 47.5625913 62.4128743 31.9818724 54.8604015"></polygon>
                <polygon id="L5" points="15.4055171 28.5980944 29.502672 34.4700431 30.0960977 53.7202813 16.1044406 47.1431715"></polygon>
                <polygon id="L6" points="1.88200692 21.8232759 13.5527105 27.4382033 14.2252595 46.0491833 2.73917724 39.959755"></polygon>
                <polygon id="L7" points="31.9225298 56.9956556 47.740619 64.5876701 47.826336 82.1573843 31.8697809 73.2011797"></polygon>
                <polygon id="L8" points="16.1637832 49.1993421 29.9971934 55.8621257 30.1158785 72.0017468 16.6780854 64.8578721"></polygon>
                <polygon id="L9" points="2.92379854 42.4377042 14.3307574 48.1580762 14.7263745 63.6913907 3.57656671 57.8128516"></polygon>
            </g>
            <g id="Up" transform="translate(3.000000, 1.000000)">
                <polygon id="Up1" fill="#4A4A4A" points="30.0254506 26.0033443 46.4396118 20.0272478 62.9710636 25.7945724 46.4656764 31.7184759"></polygon>
                <polygon id="Up2" fill="#FFFFFF" points="49.0786492 19.2900219 64.1309368 14.4099781 79.5546445 19.3356908 65.1800357 25.1095395"></polygon>
                <polygon id="Up3" fill="#4A4A4A" points="66.3724896 13.4770285 77.7887701 9.88223684 92.997445 14.2794956 81.6789067 18.657182"></polygon>
                <polygon id="Up4" fill="#FFFFFF" points="49.0069717 8.12072368 60.32551 4.60422149 75.0910873 9.02757675 64.1439691 12.6288925"></polygon>
                <polygon id="Up5" fill="#FFFFFF" points="32.7687463 13.5683662 46.954387 8.83837719 61.4788671 13.4313596 46.7589028 18.3244518"></polygon>
                <polygon id="Up6" fill="#4A4A4A" points="13.226837 19.3095943 29.7908695 14.3186404 43.9243811 19.0877741 27.9533175 24.8877193"></polygon>
                <polygon id="Up7" fill="#4A4A4A" points="0.175004951 14.0576754 16.074391 9.39945175 27.5232521 13.4444079 11.526124 18.6310855"></polygon>
                <polygon id="Up8" fill="#FFFFFF" points="17.9445237 8.53826754 32.8208754 4.36935307 44.6998019 8.13377193 30.2600317 12.8246162"></polygon>
                <polygon id="Up9" fill="#4A4A4A" points="35.512042 3.81480263 47.3649039 0.357017544 58.8267974 3.61255482 47.0651614 7.46178728"></polygon>
            </g>
        </g>
        <g id="right_cube" transform="translate(110.000000, 0.000000)">
            <path d="M99.5824963,16.6052632 L96.5163399,74.1513158 C96.4901961,74.6710526 96.1633987,75.1052632 95.7189542,75.3157895 L51.4836601,99.2894737 C50.8366013,99.6447368 48.5816993,99.1776316 48.1176471,98.9144737 L4.2875817,74.6315789 C3.81045752,74.375 3.54248366,73.8947368 3.54901961,73.4078947 L0.653253673,16.4605263 C0.62745098,15.8355263 2.11111111,13.9802632 2.7124183,13.8486842 L49.9542484,0.0592105263 C50.2287582,-0.0197368421 50.5098039,-0.0197368421 50.7647059,0.0592105263 L96.5163399,14 C97.0980392,14.1644737 99.6339869,15.5131579 99.5824963,16.6052632 Z" id="Background" fill="#000000"></path>
            <g id="Right" transform="translate(50.000000, 16.000000)" fill="#4A4A4A">
                <polygon id="R1" points="0.408804306 19.0487636 17.1302191 12.9593353 16.7939446 33.5737636 0.48792772 40.0124773"></polygon>
                <polygon id="R2" points="19.0885236 12.4387024 33.9703191 6.56016334 33.4955786 25.9487976 18.8115917 32.6379424"></polygon>
                <polygon id="R3" points="36.0275279 5.80887024 48.5883699 0.833200998 47.6982314 19.9911751 35.2033256 25.1711434"></polygon>
                <polygon id="R4" points="0.586831988 42.1411411 16.7741638 35.669476 16.1543637 54.6692831 0.586831988 62.4194646"></polygon>
                <polygon id="R5" points="18.8709343 34.8325091 33.179085 28.4135662 32.1306997 47.1827132 18.2115725 53.9509415"></polygon>
                <polygon id="R6" points="34.8670511 27.6029605 47.4542676 22.0868875 46.4256632 39.8740812 34.0098808 45.9766901"></polygon>
                <polygon id="R7" points="0.718704344 64.4295032 16.2994233 56.6925023 15.5543445 74.4269737 0.791234141 82.5198503"></polygon>
                <polygon id="R8" points="18.323664 56.0466538 32.2098231 49.219113 31.4251826 66.149569 17.5785852 73.4713816"></polygon>
                <polygon id="R9" points="34.2340638 48.2635209 46.5113802 41.9104809 45.4959631 58.4652904 33.5878893 64.7128857"></polygon>
            </g>
            <g id="Left" transform="translate(1.000000, 16.000000)" fill="#4A4A4A">
                <polygon id="L1" points="30.814802 12.8736615 47.5362168 18.9564995 47.5098424 40.0849705 31.4807574 33.2376588"></polygon>
                <polygon id="L2" points="14.3769127 6.40199637 28.9356209 12.1487296 29.6345444 32.5720395 15.2274894 26.1992287"></polygon>
                <polygon id="L3" points="0.649000384 0.68821461 12.4845444 5.76932849 13.3219339 25.1316016 1.53254517 19.3782781"></polygon>
                <polygon id="L4" points="31.3620723 35.2081556 47.5757785 42.1740926 47.5625913 62.4128743 31.9818724 54.8604015"></polygon>
                <polygon id="L5" points="15.4055171 28.5980944 29.502672 34.4700431 30.0960977 53.7202813 16.1044406 47.1431715"></polygon>
                <polygon id="L6" points="1.88200692 21.8232759 13.5527105 27.4382033 14.2252595 46.0491833 2.73917724 39.959755"></polygon>
                <polygon id="L7" points="31.9225298 56.9956556 47.740619 64.5876701 47.826336 82.1573843 31.8697809 73.2011797"></polygon>
                <polygon id="L8" points="16.1637832 49.1993421 29.9971934 55.8621257 30.1158785 72.0017468 16.6780854 64.8578721"></polygon>
                <polygon id="L9" points="2.92379854 42.4377042 14.3307574 48.1580762 14.7263745 63.6913907 3.57656671 57.8128516"></polygon>
            </g>
            <g id="Up" transform="translate(3.000000, 1.000000)">
                <polygon id="Up1" fill="#4A4A4A" points="30.0254506 26.0033443 46.4396118 20.0272478 62.9710636 25.7945724 46.4656764 31.7184759"></polygon>
                <polygon id="Up2" fill="#FFFFFF" points="49.0786492 19.2900219 64.1309368 14.4099781 79.5546445 19.3356908 65.1800357 25.1095395"></polygon>
                <polygon id="Up3" fill="#4A4A4A" points="66.3724896 13.4770285 77.7887701 9.88223684 92.997445 14.2794956 81.6789067 18.657182"></polygon>
                <polygon id="Up4" fill="#FFFFFF" points="49.0069717 8.12072368 60.32551 4.60422149 75.0910873 9.02757675 64.1439691 12.6288925"></polygon>
                <polygon id="Up5" fill="#FFFFFF" points="32.7687463 13.5683662 46.954387 8.83837719 61.4788671 13.4313596 46.7589028 18.3244518"></polygon>
                <polygon id="Up6" fill="#FFFFFF" points="13.226837 19.3095943 29.7908695 14.3186404 43.9243811 19.0877741 27.9533175 24.8877193"></polygon>
                <polygon id="Up7" fill="#4A4A4A" points="0.175004951 14.0576754 16.074391 9.39945175 27.5232521 13.4444079 11.526124 18.6310855"></polygon>
                <polygon id="Up8" fill="#FFFFFF" points="17.9445237 8.53826754 32.8208754 4.36935307 44.6998019 8.13377193 30.2600317 12.8246162"></polygon>
                <polygon id="Up9" fill="#4A4A4A" points="35.512042 3.81480263 47.3649039 0.357017544 58.8267974 3.61255482 47.0651614 7.46178728"></polygon>
            </g>
        </g>
        <path d="M17.8142177,78.4745906 C18.1264283,78.9301595 18.0102134,79.5525677 17.5546445,79.8647783 C17.0990756,80.1769888 16.4766674,80.0607739 16.1644568,79.6052051 L7.27537645,69.8036619 L6.27038585,68.3372077 L8.04549607,68.2398552 L19.8912633,68.8599232 C20.4427194,68.8296796 20.9142801,69.2522058 20.9445237,69.8036619 C20.9747672,70.3551179 20.552241,70.8266786 20.000785,70.8569222 L11.9664636,70.0278226 L19.2110426,73.5960013 C28.59211,77.8208765 33.8060058,78.7171552 36.2687763,76.9746244 C38.2863808,75.5470704 38.8631077,72.4784249 38.8631077,65.0086888 C38.8631077,64.6629716 38.8660801,64.3083565 38.8718777,63.9406537 C38.8879968,62.9183267 38.9157554,62.0934143 38.9876486,60.2824602 C39.3530575,51.0779895 38.8628299,47.2255086 35.8246504,42.8174529 C31.7797978,36.9488278 23.3062722,32.3972342 8.54453896,28.9316501 C8.00687251,28.8054232 7.67333488,28.2672313 7.79956181,27.7295648 C7.92578874,27.1918984 8.46398066,26.8583608 9.00164711,26.9845877 C24.2012468,30.5529688 33.0922592,35.3288175 37.4714005,41.6824576 C40.8371273,46.5657477 41.3681101,50.7385053 40.9860744,60.3617959 C40.9148104,62.1569026 40.8874142,62.9710457 40.8716292,63.9721839 C40.8659924,64.3296877 40.8631077,64.6738347 40.8631077,65.0086888 C40.8631077,73.2039147 40.2193103,76.6294285 37.4239581,78.6072772 C34.1592891,80.9171904 28.3976003,79.9267451 18.3586061,75.4049142 L11.0832014,71.822034 L17.8142177,78.4745906 Z" id="Path-3" fill="#FFFFFF" fill-rule="nonzero"></path>
    </g>
</svg>