<?xml version="1.0" encoding="UTF-8"?>
<svg width="100px" height="100px" viewBox="0 0 100 100" version="1.1" xmlns="http://www.w3.org/2000/svg" xmlns:xlink="http://www.w3.org/1999/xlink">
    <title>no_image</title>
    <g id="no_image" stroke="none" stroke-width="1" fill="none" fill-rule="evenodd">
        <g id="begin_1" fill="#000000">
            <path d="M99.5824963,16.6052632 L96.5163399,74.1513158 C96.4901961,74.6710526 96.1633987,75.1052632 95.7189542,75.3157895 L51.4836601,99.2894737 C50.8366013,99.6447368 48.5816993,99.1776316 48.1176471,98.9144737 L4.2875817,74.6315789 C3.81045752,74.375 3.54248366,73.8947368 3.54901961,73.4078947 L0.653253673,16.4605263 C0.62745098,15.8355263 2.11111111,13.9802632 2.7124183,13.8486842 L49.9542484,0.0592105263 C50.2287582,-0.0197368421 50.5098039,-0.0197368421 50.7647059,0.0592105263 L96.5163399,14 C97.0980392,14.1644737 99.6339869,15.5131579 99.5824963,16.6052632 Z" id="Background"></path>
        </g>
        <path d="M51.1523438,63.390625 L51.1523438,71.5 L43.3505859,71.5 L43.3505859,63.390625 L51.1523438,63.390625 Z M47.9521484,19.640625 C52.588727,19.640625 56.2936848,20.9779004 59.0800939,23.6232255 C61.8799433,26.2813104 63.2861328,29.6758279 63.2861328,33.8125 C63.2861328,36.3439276 62.7544043,38.3922599 61.7167955,39.9665629 C60.7135639,41.4887075 58.6934932,43.7288385 55.6486789,46.6813857 C53.5230259,48.7406121 52.1342337,50.4785089 51.5027535,51.9076483 C50.8362955,53.4159478 50.5367053,55.6883365 50.5744516,58.7167969 L50.5744516,58.7167969 L43.4902732,58.7167969 C43.4483066,55.1497828 43.8515741,52.2979143 44.6833618,50.1572843 C45.4769787,48.1148878 47.205879,45.7678697 49.8908647,43.1295816 L49.8908647,43.1295816 L52.6332507,40.4216497 C53.4173065,39.6811525 54.0500109,38.9087974 54.5331552,38.0963497 C55.3928551,36.6993373 55.8261719,35.2492404 55.8261719,33.7441406 C55.8261719,31.6330703 55.1992846,29.800498 53.9386032,28.2488901 C52.6838021,26.7045195 50.5927579,25.9726562 47.7128906,25.9726562 C45.90484,25.9726562 44.3729446,26.3009843 43.1214864,26.9727626 C41.8935812,27.6318979 40.9418018,28.6225485 40.2606752,29.9422205 C39.4221396,31.5494138 38.9784384,33.9093923 38.9003978,37.0126953 L38.9003978,37.0126953 L31.8366589,37.0126953 C31.7391675,31.7127821 33.1823941,27.4781499 36.1354075,24.2951888 C39.0043619,21.2028321 42.9380827,19.640625 47.9521484,19.640625 Z" id="?" stroke="#FFFFFF" fill="#D0021B" stroke-linecap="round" stroke-linejoin="round"></path>
    </g>
</svg>