<?xml version="1.0" encoding="UTF-8"?>
<svg width="100px" height="100px" viewBox="0 0 100 100" version="1.1" xmlns="http://www.w3.org/2000/svg" xmlns:xlink="http://www.w3.org/1999/xlink">
    <title>rozov_2_rb</title>
    <g id="rozov_2_rb" stroke="none" stroke-width="1" fill="none" fill-rule="evenodd">
        <polygon id="background" fill="#000000" points="100 0 0 0 0 100 100 100"></polygon>
        <g id="Group" transform="translate(6.000000, 6.000000)" fill="#696969">
            <polygon id="9" opacity="0.900000036" points="87 60 60 60 60 87 87 87"></polygon>
            <polygon id="8" points="57 60 30 60 30 87 57 87"></polygon>
            <polygon id="7" points="27 60 0 60 0 87 27 87"></polygon>
            <polygon id="6" points="87 30 60 30 60 57 87 57"></polygon>
            <polygon id="5" points="57 30 30 30 30 57 57 57"></polygon>
            <polygon id="4" points="27 30 0 30 0 57 27 57"></polygon>
            <polygon id="3" points="87 0 60 0 60 27 87 27"></polygon>
            <polygon id="2" points="57 0 30 0 30 27 57 27"></polygon>
            <polygon id="1" points="27 0 0 0 0 27 27 27"></polygon>
        </g>
        <path d="M79.5131965,80 L75,69.5238095 C76.2668622,70.1322751 77.5073314,70.5026455 78.7478006,70.6084656 L78.7478006,20 L80.2521994,20 L80.2521994,70.6084656 C81.4926686,70.5026455 82.7331378,70.1322751 84,69.5238095 L79.5131965,80 Z" id="Path" stroke="#FFFFFF" fill="#FFFFFF" stroke-linecap="round" stroke-linejoin="round"></path>
        <path d="M63,36 L63,38.6312292 C63,39.7209302 62.92,40.5448505 62.7333333,41.1827243 C62.5466667,41.7940199 62.2,42.3521595 61.6933333,42.8305648 C61.16,43.3355482 60.52,43.7076412 59.72,44 L59,42.4584718 C59.7466667,42.2192691 60.28,41.8737542 60.6,41.448505 C60.8933333,41.0232558 61.08,40.4385382 61.08,39.6943522 L59.32,39.6943522 L59.32,36 L63,36 Z" id="Path" fill="#FFFFFF"></path>
        <path d="M41,59 L41,40 L49.0444104,40 C51.0490046,40 52.532925,40.1572414 53.4441041,40.497931 C54.3552833,40.8386207 55.0842266,41.4675862 55.6309342,42.3324138 C56.1776417,43.1972414 56.4640123,44.1931034 56.4640123,45.32 C56.4640123,46.7613793 56.0474732,47.9406897 55.2143951,48.857931 C54.381317,49.8013793 53.1577335,50.377931 51.4915773,50.6137931 C52.3246554,51.0855172 53.0015314,51.6358621 53.5222052,52.2124138 C54.0689127,52.7889655 54.797856,53.8110345 55.6830015,55.3048276 L58,59 L53.4441041,59 L50.7105666,54.8593103 C49.7212864,53.3917241 49.0444104,52.4482759 48.6799387,52.0551724 C48.3154671,51.6882759 47.9509954,51.4262069 47.5344564,51.2689655 C47.1179173,51.137931 46.4931087,51.0593103 45.6079632,51.0593103 L44.8269525,51.0593103 L44.8269525,59 L41,59 L41,59 Z M44.8269525,48.0455172 L47.6646248,48.0455172 C49.4869832,48.0455172 50.6324655,47.9668966 51.0750383,47.8096552 C51.5436447,47.6524138 51.8820827,47.3903448 52.1424196,46.9972414 C52.4027565,46.6303448 52.532925,46.1324138 52.532925,45.582069 C52.532925,44.9268966 52.3506891,44.4027586 52.0122511,44.0096552 C51.6738132,43.6165517 51.2052067,43.3806897 50.5803982,43.2758621 C50.2679939,43.2234483 49.3568147,43.1972414 47.820827,43.1972414 L44.8269525,43.1972414 L44.8269525,48.0455172 Z" id="Shape" stroke="#FFFFFF" fill="#FFFFFF" stroke-linecap="round" stroke-linejoin="round"></path>
    </g>
</svg>