<?xml version="1.0" encoding="UTF-8"?>
<svg width="100px" height="100px" viewBox="0 0 100 100" version="1.1" xmlns="http://www.w3.org/2000/svg" xmlns:xlink="http://www.w3.org/1999/xlink">
    <title>rozov_2_lb</title>
    <g id="rozov_2_lb" stroke="none" stroke-width="1" fill="none" fill-rule="evenodd">
        <polygon id="background" fill="#000000" points="100 0 0 0 0 100 100 100"></polygon>
        <g id="Group" transform="translate(6.000000, 6.000000)" fill="#696969">
            <polygon id="9" opacity="0.900000036" points="87 60 60 60 60 87 87 87"></polygon>
            <polygon id="8" points="57 60 30 60 30 87 57 87"></polygon>
            <polygon id="7" points="27 60 0 60 0 87 27 87"></polygon>
            <polygon id="6" points="87 30 60 30 60 57 87 57"></polygon>
            <polygon id="5" points="57 30 30 30 30 57 57 57"></polygon>
            <polygon id="4" points="27 30 0 30 0 57 27 57"></polygon>
            <polygon id="3" points="87 0 60 0 60 27 87 27"></polygon>
            <polygon id="2" points="57 0 30 0 30 27 57 27"></polygon>
            <polygon id="1" points="27 0 0 0 0 27 27 27"></polygon>
        </g>
        <path d="M19.5131965,80 L15,69.5238095 C16.2668622,70.1322751 17.5073314,70.5026455 18.7478006,70.6084656 L18.7478006,20 L20.2521994,20 L20.2521994,70.6084656 C21.4926686,70.5026455 22.7331378,70.1322751 24,69.5238095 L19.5131965,80 Z" id="Path" stroke="#FFFFFF" fill="#FFFFFF" stroke-linecap="round" stroke-linejoin="round" transform="translate(19.500000, 50.000000) scale(1, -1) translate(-19.500000, -50.000000) "></path>
        <polygon id="Path" stroke="#FFFFFF" fill="#FFFFFF" stroke-linecap="round" stroke-linejoin="round" points="43 59 43 40 46.739726 40 46.739726 55.7760779 56 55.7760779 56 59"></polygon>
        <path d="M63,36 L63,38.6312292 C63,39.7209302 62.92,40.5448505 62.7333333,41.1827243 C62.5466667,41.7940199 62.2,42.3521595 61.6933333,42.8305648 C61.16,43.3355482 60.52,43.7076412 59.72,44 L59,42.4584718 C59.7466667,42.2192691 60.28,41.8737542 60.6,41.448505 C60.8933333,41.0232558 61.08,40.4385382 61.08,39.6943522 L59.32,39.6943522 L59.32,36 L63,36 Z" id="Path" fill="#FFFFFF"></path>
    </g>
</svg>