<?xml version="1.0" encoding="UTF-8"?>
<svg width="100px" height="100px" viewBox="0 0 100 100" version="1.1" xmlns="http://www.w3.org/2000/svg" xmlns:xlink="http://www.w3.org/1999/xlink">
    <title>rozov_2_f</title>
    <g id="rozov_2_f" stroke="none" stroke-width="1" fill="none" fill-rule="evenodd">
        <polygon id="background" fill="#000000" points="100 0 0 0 0 100 100 100"></polygon>
        <g id="Group" transform="translate(6.000000, 6.000000)" fill="#696969">
            <polygon id="9" opacity="0.900000036" points="87 60 60 60 60 87 87 87"></polygon>
            <polygon id="8" points="57 60 30 60 30 87 57 87"></polygon>
            <polygon id="7" points="27 60 0 60 0 87 27 87"></polygon>
            <polygon id="6" points="87 30 60 30 60 57 87 57"></polygon>
            <polygon id="5" points="57 30 30 30 30 57 57 57"></polygon>
            <polygon id="4" points="27 30 0 30 0 57 27 57"></polygon>
            <polygon id="3" points="87 0 60 0 60 27 87 27"></polygon>
            <polygon id="2" points="57 0 30 0 30 27 57 27"></polygon>
            <polygon id="1" points="27 0 0 0 0 27 27 27"></polygon>
        </g>
        <path d="M19,49.5131183 C19.0263478,55.7311828 20.8179976,61.5556989 24.3486015,66.6980645 C28.9594649,73.3621505 35.8362383,77.9010753 43.8459668,79.4490323 C45.7693555,79.8163441 47.6663964,80 49.6424807,80 L49.6424807,78.5045161 C42.054317,78.4782796 35.0458046,75.6972043 29.5391163,70.5023656 C24.2432104,65.4387097 21.1078233,58.8270968 20.5808675,51.5595699 C20.5281719,50.8511828 20.5018241,50.1952688 20.5018241,49.5131183 C20.5281719,41.9569892 23.3210377,34.9780645 28.5379003,29.4946237 C33.6230239,24.2210753 40.2626672,21.0989247 47.5610053,20.5741935 C48.2723956,20.5217204 48.9310904,20.4954839 49.6424807,20.4954839 C57.2042967,20.5217204 64.2391569,23.3027957 69.7194974,28.4976344 C74.5147953,33.0627957 77.5447912,38.9135484 78.4669639,45.3677419 C77.3076611,45.2365591 76.1747061,44.8954839 75.0154033,44.3182796 L79.5208756,54.7341935 L84,44.3182796 C82.6562627,44.9741935 81.3125253,45.3415054 79.968788,45.4202151 C79.3627888,40.723871 77.6501824,36.2898925 74.9100122,32.3019355 C70.2991488,25.6378495 63.4223754,21.0989247 55.4389947,19.5509677 C53.4892582,19.1836559 51.5922173,19 49.6424807,19 C43.3717065,19.0262366 37.522497,20.8103226 32.35833,24.3260215 C25.6659911,28.9174194 21.1078233,35.7651613 19.5533036,43.7410753 C19.1844345,45.6563441 19,47.5453763 19,49.5131183 L19,49.5131183 Z" id="Path" stroke="#FFFFFF" fill="#FFFFFF" stroke-linecap="round" stroke-linejoin="round"></path>
        <polygon id="Path" stroke="#FFFFFF" fill="#FFFFFF" stroke-linecap="round" stroke-linejoin="round" points="44 60 44 41 57 41 57 44.1972414 47.8296593 44.1972414 47.8296593 48.7310345 55.749499 48.7310345 55.749499 51.9282759 47.8296593 51.9282759 47.8296593 60"></polygon>
    </g>
</svg>