<?xml version="1.0" encoding="UTF-8"?>
<svg width="100px" height="100px" viewBox="0 0 100 100" version="1.1" xmlns="http://www.w3.org/2000/svg" xmlns:xlink="http://www.w3.org/1999/xlink">
    <title>rozov_2_ub</title>
    <g id="rozov_2_ub" stroke="none" stroke-width="1" fill="none" fill-rule="evenodd">
        <polygon id="background" fill="#000000" points="100 0 0 0 0 100 100 100"></polygon>
        <g id="Group" transform="translate(6.000000, 6.000000)" fill="#696969">
            <polygon id="9" opacity="0.900000036" points="87 60 60 60 60 87 87 87"></polygon>
            <polygon id="8" points="57 60 30 60 30 87 57 87"></polygon>
            <polygon id="7" points="27 60 0 60 0 87 27 87"></polygon>
            <polygon id="6" points="87 30 60 30 60 57 87 57"></polygon>
            <polygon id="5" points="57 30 30 30 30 57 57 57"></polygon>
            <polygon id="4" points="27 30 0 30 0 57 27 57"></polygon>
            <polygon id="3" points="87 0 60 0 60 27 87 27"></polygon>
            <polygon id="2" points="57 0 30 0 30 27 57 27"></polygon>
            <polygon id="1" points="27 0 0 0 0 27 27 27"></polygon>
        </g>
        <path d="M31.5933093,14.9776263 C30.7287378,16.4351149 30.1651117,17.8436986 29.9537575,19.2478006 L29.9537575,19.2478006 L80.5,19.2478006 L80.5,21.7521994 L29.9537575,21.7521994 C30.1653267,23.15773 30.729885,24.5677514 31.5959491,26.0268225 L31.5959491,26.0268225 L18.7331349,20.4854563 Z" id="Path" stroke="#FFFFFF" fill="#FFFFFF" stroke-linecap="round" stroke-linejoin="round" transform="translate(50.000000, 20.500000) scale(-1, 1) translate(-50.000000, -20.500000) "></path>
        <path d="M63,36 L63,38.6312292 C63,39.7209302 62.92,40.5448505 62.7333333,41.1827243 C62.5466667,41.7940199 62.2,42.3521595 61.6933333,42.8305648 C61.16,43.3355482 60.52,43.7076412 59.72,44 L59,42.4584718 C59.7466667,42.2192691 60.28,41.8737542 60.6,41.448505 C60.8933333,41.0232558 61.08,40.4385382 61.08,39.6943522 L59.32,39.6943522 L59.32,36 L63,36 Z" id="Path" fill="#FFFFFF"></path>
        <path d="M42,40 L45.828125,40 L45.828125,50.1178862 C45.828125,51.7140921 45.8802083,52.7696477 45.9583333,53.2330623 C46.1145833,54.0054201 46.5052083,54.6233062 47.1041667,55.0867209 C47.7291667,55.5501355 48.5625,55.7818428 49.6041667,55.7818428 C50.671875,55.7818428 51.4791667,55.5501355 52.0260417,55.1124661 C52.5729167,54.6747967 52.9114583,54.1341463 53.015625,53.5162602 C53.1197917,52.8726287 53.171875,51.8170732 53.171875,50.3238482 L53.171875,40 L57,40 L57,49.8089431 C57,52.0487805 56.8958333,53.6449864 56.6875,54.5718157 C56.5052083,55.498645 56.1145833,56.2710027 55.5677083,56.9146341 C55.0208333,57.5582656 54.265625,58.0731707 53.3541667,58.4336043 C52.4166667,58.8197832 51.21875,59 49.734375,59 C47.9375,59 46.5572917,58.7940379 45.6458333,58.3821138 C44.7083333,57.9701897 43.9791667,57.4552846 43.4322917,56.7859079 C42.8854167,56.1165312 42.546875,55.4471545 42.3645833,54.700542 C42.1041667,53.6449864 42,52.0487805 42,49.9634146 L42,40 L42,40 Z" id="Path" stroke="#FFFFFF" fill="#FFFFFF" stroke-linecap="round" stroke-linejoin="round"></path>
    </g>
</svg>