<?xml version="1.0" encoding="UTF-8"?>
<svg width="100px" height="100px" viewBox="0 0 100 100" version="1.1" xmlns="http://www.w3.org/2000/svg" xmlns:xlink="http://www.w3.org/1999/xlink">
    <title>rozov_2_r</title>
    <g id="rozov_2_r" stroke="none" stroke-width="1" fill="none" fill-rule="evenodd">
        <g id="r_cube" transform="translate(1.000000, 0.000000)">
            <polygon id="background" fill="#000000" points="0.0854215024 19.2754025 9.18778033 80.8860643 63.8334869 99.9205349 97.7492091 67.4145347 97.7492091 7.4982769 42.6407163 0.144627068"></polygon>
            <g id="right" transform="translate(60.983696, 9.308511)" fill="#4A4A4A">
                <polygon id="Rectangle" points="0.0464490684 22.8723404 12.3681756 14.9902898 13.05573 35.6921627 0.978849421 44.8704483"></polygon>
                <polygon id="Rectangle" points="13.9594083 13.8297872 25.1576093 6.83962562 25.1576093 26.7708053 14.6785215 34.3540275"></polygon>
                <polygon id="Rectangle" points="26.7020359 5.94243637 35.9377459 0.0426246969 35.9377459 18.8829787 26.7020359 26.020845"></polygon>
                <polygon id="Rectangle" points="1.40135688 47.4928117 13.1785569 38.5638298 13.8096869 57.2994033 2.51742399 67.205335"></polygon>
                <polygon id="Rectangle" points="14.9435931 37.0234456 25.2776078 29.1398038 25.5897369 47.643415 15.395011 56.2598642"></polygon>
                <polygon id="Rectangle" points="27.040506 28.0820037 35.8749802 21.2376166 35.8749802 38.8297872 27.0832797 46.4651225"></polygon>
                <polygon id="Rectangle" points="2.67128246 69.883141 14.0624675 59.982313 14.602706 77.9838066 3.48164027 88.4728487"></polygon>
                <polygon id="Rectangle" points="15.6196313 58.5415116 25.7330768 50 25.7302174 67.3689651 15.9343021 76.6814763"></polygon>
                <polygon id="Rectangle" points="27.2201039 48.838316 35.9348915 41.1795159 36.0210822 57.6479555 27.2201039 66.0535841"></polygon>
            </g>
            <g id="front" transform="translate(1.065217, 20.744681)" fill="#4A4A4A">
                <polygon id="Rectangle" points="38.4802589 7.8782454 57.6731362 11.9680851 58.6961519 33.706413 40.1228283 29.0005437"></polygon>
                <polygon id="Rectangle" points="18.2139576 3.78276638 35.7425781 7.44680851 37.8609006 28.4557501 20.6190996 24.087665"></polygon>
                <polygon id="Rectangle" points="0.192976496 0.181118774 16.0362392 3.3991474 18.3354846 23.414355 3.04729983 19.7400699"></polygon>
                <polygon id="Rectangle" points="40.5979007 31.6624024 59.0589945 36.4720917 60.0370154 56.4262848 41.9413484 50.9831619"></polygon>
                <polygon id="Rectangle" points="21.0728479 26.6414973 38.1471447 30.8565318 39.7588637 50.2750964 23.359523 45.3062958"></polygon>
                <polygon id="Rectangle" points="3.20067404 21.7621257 18.8129962 26.1074009 21.0825437 44.6711645 5.94030863 40.1202258"></polygon>
                <polygon id="Rectangle" points="42.3797847 53.3369243 60.2560433 58.9864476 61.4169678 77.6420459 43.864688 71.4300957"></polygon>
                <polygon id="Rectangle" points="23.4625726 47.5277112 40.0088827 52.8268331 41.6320094 70.813173 25.6079822 65.2388424"></polygon>
                <polygon id="Rectangle" points="6.29883305 42.3226202 21.3799138 47.041563 23.398592 64.382663 8.79345967 59.331619"></polygon>
            </g>
            <g id="up" transform="translate(1.864130, 0.531915)" fill="#4A4A4A">
                <polygon id="Rectangle" points="51.2440686 18.8958226 69.8545425 22.1651172 57.4958847 30.0498663 38.0270453 26.1848921"></polygon>
                <polygon id="Rectangle" points="64.4549352 11.3912692 82.5320487 14.2383002 71.567524 21.1626109 52.9462887 17.8546793"></polygon>
                <polygon id="Rectangle" points="76.3461867 4.98249394 93.8219117 7.4099587 84.1528899 13.373868 66.4170714 10.6282953"></polygon>
                <polygon id="Rectangle" points="57.7886006 2.4524879 73.7966683 4.6693439 63.6774916 10.3540214 46.8879026 7.75452754"></polygon>
                <polygon id="Rectangle" points="45.4752071 8.54105105 62.0825356 11.1338164 50.4669796 17.4727497 33.4784644 14.4968153"></polygon>
                <polygon id="Rectangle" points="31.6617109 15.3143252 48.9643949 18.323725 35.6031812 25.6954795 18.0155823 22.1782568"></polygon>
                <polygon id="Rectangle" points="13.9897191 12.3201531 29.404022 14.9948997 15.8910428 21.6753917 0.244836519 18.5399216"></polygon>
                <polygon id="Rectangle" points="28.0945786 5.846608 43.4520809 8.15805907 31.2807015 14.2028871 15.7639214 11.4868844"></polygon>
                <polygon id="Rectangle" points="40.865668 0.129202186 55.5051873 2.17120252 44.8602357 7.42323129 29.820185 5.16249398"></polygon>
            </g>
        </g>
        <path d="M72,59 L72,40 L80.0444104,40 C82.0490046,40 83.532925,40.1572414 84.4441041,40.497931 C85.3552833,40.8386207 86.0842266,41.4675862 86.6309342,42.3324138 C87.1776417,43.1972414 87.4640123,44.1931034 87.4640123,45.32 C87.4640123,46.7613793 87.0474732,47.9406897 86.2143951,48.857931 C85.381317,49.8013793 84.1577335,50.377931 82.4915773,50.6137931 C83.3246554,51.0855172 84.0015314,51.6358621 84.5222052,52.2124138 C85.0689127,52.7889655 85.797856,53.8110345 86.6830015,55.3048276 L89,59 L84.4441041,59 L81.7105666,54.8593103 C80.7212864,53.3917241 80.0444104,52.4482759 79.6799387,52.0551724 C79.3154671,51.6882759 78.9509954,51.4262069 78.5344564,51.2689655 C78.1179173,51.137931 77.4931087,51.0593103 76.6079632,51.0593103 L75.8269525,51.0593103 L75.8269525,59 L72,59 L72,59 Z M75.8269525,48.0455172 L78.6646248,48.0455172 C80.4869832,48.0455172 81.6324655,47.9668966 82.0750383,47.8096552 C82.5436447,47.6524138 82.8820827,47.3903448 83.1424196,46.9972414 C83.4027565,46.6303448 83.532925,46.1324138 83.532925,45.582069 C83.532925,44.9268966 83.3506891,44.4027586 83.0122511,44.0096552 C82.6738132,43.6165517 82.2052067,43.3806897 81.5803982,43.2758621 C81.2679939,43.2234483 80.3568147,43.1972414 78.820827,43.1972414 L75.8269525,43.1972414 L75.8269525,48.0455172 Z" id="Shape" stroke="#FFFFFF" fill="#FFFFFF" stroke-linecap="round" stroke-linejoin="round"></path>
        <path id="Path-2" d="M67.3977496,9.26778652 L81.1634035,9.53098642 L82.9408564,9.5649714 L81.9888032,11.0663336 L74.6155361,22.6937767 L72.9265036,21.6227169 L78.254,13.219 L71.0921327,17.0701105 C63.2617531,21.3827657 58.2651064,24.4521362 56.158188,26.2318686 C54.2683941,27.8281941 53.142452,29.1842638 52.7718037,30.2373402 C51.4358369,34.0330546 52.1225539,52.5409119 54.8759358,85.1568355 L54.9600042,86.1495146 L52.967183,86.3188173 C50.0970385,52.5350523 49.3879507,33.8274137 50.885247,29.5733342 C51.3996191,28.1119136 52.7299196,26.5097173 54.8675907,24.7040078 C57.0631272,22.8494189 61.9643757,19.8278863 69.632195,15.5914026 L70.1361931,15.3133872 L77.309,11.457 L67.3595165,11.267421 L67.3977496,9.26778652 Z" fill="#FFFFFF" fill-rule="nonzero"></path>
    </g>
</svg>