<?xml version="1.0" encoding="UTF-8"?>
<svg width="92px" height="100px" viewBox="0 0 92 100" version="1.1" xmlns="http://www.w3.org/2000/svg" xmlns:xlink="http://www.w3.org/1999/xlink">
    <title>windmill_8</title>
    <g id="Windmill" stroke="none" stroke-width="1" fill="none" fill-rule="evenodd">
        <g id="windmill_8" fill-rule="nonzero">
            <polygon id="Path" fill="#000000" points="42.390122 0.0448179272 91.8681707 20.4509804 84.2220732 64.1512605 52.510122 99.8823529 7.24780488 71.8039216 0.0448780488 26.0644258"></polygon>
            <polygon id="Path" fill="#FFED00" points="31.8493902 29.1792717 29.21 38.8291317 6.74573171 27.3977591"></polygon>
            <polygon id="Path" fill="#FFED00" points="36.2334146 29.6414566 53.8873171 30.67507 51.0319512 49.8319328 33.5603659 40.8235294"></polygon>
            <polygon id="Path" fill="#FFED00" points="58.4508537 30.745098 73.2830488 31.8123249 56.739878 46.4509804"></polygon>
            <polygon id="Path" fill="#FFED00" points="60.5180488 18.0308123 87.904878 19.8123249 76.4217073 28.9635854 59.4129268 27.7535014"></polygon>
            <polygon id="Path" fill="#FFED00" points="39.6946341 16.8935574 56.1676829 17.9607843 54.5997561 28.1092437 37.0187805 26.8991597"></polygon>
            <polygon id="Path" fill="#FFED00" points="19.6173171 15.5378151 35.6640244 16.5714286 32.775 26.4369748 5.03195122 24.512605"></polygon>
            <polygon id="Path" fill="#FFED00" points="39.3720732 2.96918768 35.9837805 14.6134454 22.8260976 13.4733894"></polygon>
            <polygon id="Path" fill="#FFED00" points="43.2231707 1.29411765 57.4523171 7.13445378 56.3808537 15.6806723 40.227561 14.4705882"></polygon>
            <polygon id="Path" fill="#FFED00" points="61.480122 8.70308123 82.7354878 17.2829132 60.697561 15.7871148"></polygon>
            <polygon id="Path" fill="#EF7F1A" points="31.8297561 44.9551821 49.8931707 54.1848739 49.7781707 67.7815126 32.8114634 58.7983193"></polygon>
            <polygon id="Path" fill="#696969" points="2.12609756 29.5714286 27.9982927 42.6470588 28.9547561 56.7058824 4.28304878 43.2016807"></polygon>
            <polygon id="Path" fill="#EF7F1A" points="33.2546341 61.9411765 50.1091463 71.3137255 50.277439 83.9495798 33.9530488 74.5378151"></polygon>
            <polygon id="Path" fill="#EF7F1A" points="4.83560976 46.4509804 29.3530488 59.7058824 30.5591463 72.1260504 6.63634146 58.7282913"></polygon>
            <polygon id="Path" fill="#EF7F1A" points="34.3597561 77.394958 50.4990244 86.9467787 50.5270732 97.8711485 34.7720732 87.8207283"></polygon>
            <polygon id="Path" fill="#EF7F1A" points="7.2954878 61.4061625 30.8171951 75.0532213 31.6278049 86.0504202 8.9195122 71.6190476"></polygon>
            <polygon id="Path" fill="#696969" points="56.0414634 52.859944 76.9602439 34.4929972 75.3109756 48.6582633 55.5982927 66.7030812"></polygon>
            <polygon id="Path" fill="#0062AC" points="79.5407317 32.5266106 90.7602439 22.4901961 88.4686585 35.6582633 77.8129268 45.6918768"></polygon>
            <polygon id="Path" fill="#0062AC" points="55.6852439 70.3809524 74.820122 51.8711485 73.5270732 64.2184874 55.1326829 82.907563"></polygon>
            <polygon id="Path" fill="#0062AC" points="77.3669512 49.9047619 87.8712195 39.3361345 85.6890244 51.3641457 75.922439 61.7170868"></polygon>
            <polygon id="Path" fill="#0062AC" points="55.2560976 86.2268908 72.9660976 67.5042017 71.852561 77.394958 54.6334146 96.9019608"></polygon>
            <polygon id="Path" fill="#0062AC" points="75.510122 64.2913165 85.4113415 53.6526611 83.7985366 64.0784314 74.175 74.859944"></polygon>
        </g>
    </g>
</svg>