<?xml version="1.0" encoding="UTF-8"?>
<svg width="92px" height="100px" viewBox="0 0 92 100" version="1.1" xmlns="http://www.w3.org/2000/svg" xmlns:xlink="http://www.w3.org/1999/xlink">
    <title>windmill_1_3</title>
    <g id="Windmill" stroke="none" stroke-width="1" fill="none" fill-rule="evenodd">
        <g id="windmill_1_3" fill-rule="nonzero">
            <polygon id="Path" fill="#000000" points="41.7136364 0.0416666667 90.4945455 20.9375 82.5490909 64.9166667 50.2027273 98.9583333 6.87909091 71.1458333 0.0418181818 24.8958333"></polygon>
            <polygon id="Path" fill="#FFFFFF" points="22.9790909 34.6666667 38.1381818 32.25 46.0418182 47.25"></polygon>
            <polygon id="Path" fill="#696969" points="42.3409091 31.0625 58.6290909 27.9166667 65.2363636 38.25 51.7918182 49.1458333"></polygon>
            <polygon id="Path" fill="#FFFFFF" points="62.7063636 26.875 84.2009091 22.25 68.31 35.3958333"></polygon>
            <polygon id="Path" fill="#696969" points="55.0954545 15.2083333 70.0872727 12.7708333 86.1872727 19.5416667 61.3472727 24.2916667"></polygon>
            <polygon id="Path" fill="#696969" points="35.5872727 18.8541667 50.9554545 16 56.8518182 25.125 40.9609091 28.2916667"></polygon>
            <polygon id="Path" fill="#696969" points="4.68363636 24.2916667 31.6563636 19.5833333 36.5072727 29.3333333 19.6963636 32.4166667"></polygon>
            <polygon id="Path" fill="#FFFFFF" points="21.62 13.0416667 26.8472727 10.0208333 30.2972727 17.5208333 7.92454545 21.2083333"></polygon>
            <polygon id="Path" fill="#696969" points="29.9418182 8.22916667 41.9436364 1.20833333 49.7427273 13.9583333 34.5418182 16.6875"></polygon>
            <polygon id="Path" fill="#FFFFFF" points="46.7109091 2.75 66.2609091 11.3541667 53.7154545 13.2291667"></polygon>
            <polygon id="Path" fill="#0062AC" points="20.2190909 38.5625 47.4009091 53.625 47.1918182 67.375 21.3481818 52.4583333"></polygon>
            <path d="M1.27545455,27.3125 L16.6854545,36.1458333 L18.1072727,50.1666667 C12.9009091,46.9791667 8.34272727,44.5416667 3.22,41.3333333 L1.27545455,27.3125 L1.27545455,27.3125 Z" id="Path" fill="#696969"></path>
            <polygon id="Path" fill="#696969" points="21.5572727 55.375 47.4636364 70.7083333 47.5472727 82.5208333 22.4563636 67.4583333"></polygon>
            <path d="M3.63818182,44.3958333 L18.3372727,53.4166667 L19.4872727,65.4375 C14.5945455,62.3333333 10.2872727,59.9375 5.45727273,56.8333333 L3.63818182,44.3958333 L3.63818182,44.3958333 Z" id="Path" fill="#696969"></path>
            <polygon id="Path" fill="#0062AC" points="22.6027273 69.7291667 47.5472727 85.0833333 47.4009091 96.4583333 23.5018182 80.9791667"></polygon>
            <path d="M5.60363636,59.0416667 L19.5918182,67.9375 L20.47,79.1041667 C15.8909091,76 11.8554545,73.625 7.33909091,70.5 L5.60363636,59.0416667 L5.60363636,59.0416667 Z" id="Path" fill="#696969"></path>
            <polygon id="Path" fill="#696969" points="53.4018182 53.5208333 67.8290909 41.6458333 66.4909091 55.1875 52.9836364 67.5416667"></polygon>
            <polygon id="Path" fill="#EF7F1A" points="70.5472727 39.0625 88.9263636 23.4583333 86.5636364 37.1875 69.2927273 52.75"></polygon>
            <polygon id="Path" fill="#696969" points="53.1927273 70.25 66.4909091 57.9583333 65.5290909 70.0416667 52.9418182 82.375"></polygon>
            <polygon id="Path" fill="#696969" points="69 55.4583333 86.2918182 39.8333333 84.3263636 51.0208333 67.6827273 67.8541667"></polygon>
            <polygon id="Path" fill="#696969" points="53.0463636 85.6458333 65.1109091 73.375 64.4 83.125 52.6909091 95.5"></polygon>
            <polygon id="Path" fill="#EF7F1A" points="67.2645455 71.0833333 83.6781818 54.25 81.9009091 64.75 66.5745455 80.7291667"></polygon>
        </g>
    </g>
</svg>