<?xml version="1.0" encoding="UTF-8"?>
<svg width="92px" height="100px" viewBox="0 0 92 100" version="1.1" xmlns="http://www.w3.org/2000/svg" xmlns:xlink="http://www.w3.org/1999/xlink">
    <title>windmill_1</title>
    <g id="Windmill" stroke="none" stroke-width="1" fill="none" fill-rule="evenodd">
        <g id="windmill_1" fill-rule="nonzero">
            <polygon id="Path" fill="#000000" points="42.3998664 0.0455927052 91.9800334 21.1413374 83.9196661 65.5258359 51.0331219 99.8981763 6.98524207 71.8115502 0.0445409015 25.1352584"></polygon>
            <polygon id="Path" fill="#696969" points="23.359399 35.0045593 38.7644073 32.5516717 46.8032721 47.6899696"></polygon>
            <polygon id="Path" fill="#FFFFFF" points="43.0495492 31.3601824 59.5880467 28.1717325 66.3167947 38.6139818 52.6473456 49.6170213"></polygon>
            <polygon id="Path" fill="#696969" points="63.7318865 27.1200608 85.5815025 22.4604863 69.4331219 35.7401216"></polygon>
            <polygon id="Path" fill="#FFFFFF" points="56.0109516 15.3465046 71.2393322 12.893617 87.601202 19.7264438 62.3495826 24.5273556"></polygon>
            <polygon id="Path" fill="#FFFFFF" points="36.1794992 19.0258359 51.7964608 16.1519757 57.7818364 25.3677812 41.6334558 28.556231"></polygon>
            <polygon id="Path" fill="#FFFFFF" points="4.76741235 24.5273556 32.1769616 19.7613982 37.0994992 29.6079027 20.0311185 32.7264438"></polygon>
            <polygon id="Path" fill="#696969" points="21.9786311 13.1732523 27.2897496 10.1246201 30.7961937 17.6945289 8.06036728 21.4088146"></polygon>
            <polygon id="Path" fill="#FFFFFF" points="30.4429382 8.30243161 42.6241068 1.22340426 50.556995 14.0835866 35.1166611 16.8525836"></polygon>
            <polygon id="Path" fill="#696969" points="47.4759933 2.76595745 67.3443072 11.4559271 54.5948581 13.3480243"></polygon>
            <polygon id="Path" fill="#696969" points="20.5625376 38.9316109 48.185576 54.1398176 47.9736227 68.0167173 21.6960267 52.9483283"></polygon>
            <polygon id="Path" fill="#696969" points="1.29629382 27.5775076 16.9501169 36.4787234 18.083606 49.6534954 11.2765275 45.8829787 10.2828047 45.8966565 3.28066778 41.7340426"></polygon>
            <polygon id="Path" fill="#696969" points="21.90798 55.8920973 48.256227 71.3799392 48.3268781 83.2948328 22.8295159 68.0866261"></polygon>
            <polygon id="Path" fill="#0062AC" points="11.284207 47.3419453 19.0742571 51.8966565 9.58397329 67.174772 5.40480801 57.1534954"></polygon>
            <polygon id="Path" fill="#696969" points="22.970818 70.399696 48.3268781 85.887538 48.185576 97.381459 23.890818 81.7522796"></polygon>
            <polygon id="Path" fill="#696969" points="6.39699499 63.881459 8.82831386 68.7781155 14.8950918 66.7112462 20.2783973 69.1367781 20.7744908 79.7902736 7.53048414 71.449848"></polygon>
            <polygon id="Path" fill="#696969" points="54.2753923 54.0167173 68.9370284 42.0334347 67.591586 55.6990881 53.8514858 68.174772"></polygon>
            <polygon id="Path" fill="#696969" points="71.7001002 39.4392097 90.3980634 23.6702128 87.989783 37.5471125 70.4253088 53.2462006"></polygon>
            <polygon id="Path" fill="#EF7F1A" points="54.0634391 70.9072948 67.591586 58.5030395 66.6009349 70.6975684 53.805409 83.1458967"></polygon>
            <polygon id="Path" fill="#696969" points="70.1411686 55.9802432 87.7071786 40.2112462 85.7243406 51.493921 68.7957262 68.4893617"></polygon>
            <polygon id="Path" fill="#696969" points="53.9221369 86.4665653 66.1754925 74.0607903 65.4674457 83.9088146 53.5489149 96.4103343"></polygon>
            <polygon id="Path" fill="#696969" points="68.3702838 71.7492401 85.0516194 54.7522796 83.245409 65.3708207 67.6622371 81.4908815"></polygon>
        </g>
    </g>
</svg>