<?xml version="1.0" encoding="UTF-8"?>
<svg width="100px" height="100px" viewBox="0 0 100 100" version="1.1" xmlns="http://www.w3.org/2000/svg" xmlns:xlink="http://www.w3.org/1999/xlink">
    <title>f2l</title>
    <g id="Main_F2L" stroke="none" stroke-width="1" fill="none" fill-rule="evenodd">
        <g id="f2l" fill-rule="nonzero">
            <path d="M99.8947368,83.2030075 C99.9,83.4601504 99.8947368,83.593985 99.8421053,83.8195489 C99.2315789,85.106015 98.8646617,85.5030075 97.4285714,85.8947368 C81.3541353,90.2270677 65.2887218,95.3323308 51.2105263,99.7593985 C50.9849624,99.8195489 50.7067669,99.8195489 50.4285714,99.7593985 C34.1992481,95.2661654 16.556391,90.0390977 2.63909774,85.9473684 C0.421052632,85.2263158 -4.3411455e-15,84.3225564 0.00742077022,83.2556391 C1.51503759,63.7917293 2.88045113,42.5278195 3.9924812,25.9924812 C3.9924812,25.5488722 4.27067669,25.0977444 4.66165414,24.8721805 C21.3345865,16.1308271 32.1541353,9.69097744 48.2932331,0.563909774 C48.518797,0.45112782 48.7443609,0.398496241 49.0225564,0.398496241 C49.3082707,0.398496241 49.5864662,0.45112782 49.8120301,0.616541353 C50.2030075,0.00044925707 51.0451128,-0.165413534 51.6616541,0.172932331 C68.3556391,9.73609023 79.9052632,15.7112782 96.075188,24.3082707 C96.6383459,24.687218 96.8045113,24.924812 96.8646617,25.4360902 C97.6601504,45.0172932 99.1849624,65.987218 99.8947368,83.2030075 Z" id="Path" fill="#000000"></path>
            <polygon id="Path" fill="#FFFFFF" points="33.1353383 73.037594 50.593985 78.9323308 66.2631579 73.2030075 49.6390977 67.2556391"></polygon>
            <polygon id="Path" fill="#696969" points="52.6165414 79.7218045 67.8345865 85.0526316 83.5037594 80.0526316 68.5639098 73.8796992"></polygon>
            <polygon id="Path" fill="#FFFFFF" points="70.0225564 85.8345865 81.1954887 89.3157895 97.0300752 85.0526316 85.518797 80.6766917"></polygon>
            <polygon id="Path" fill="#696969" points="52.2255639 91.112782 63.5639098 94.8195489 79.1203008 90.1578947 66.6015038 86.4586466"></polygon>
            <polygon id="Path" fill="#696969" points="34.8195489 85.7819549 49.8120301 90.6090226 65.3082707 85.8947368 49.9774436 80.5639098"></polygon>
            <polygon id="Path" fill="#696969" points="16.2330827 79.7744361 33.0225564 85.1654135 48.1804511 79.7744361 31.0526316 74.1578947"></polygon>
            <polygon id="Path" fill="#FFFFFF" points="3.09022556 85.1052632 19.0977444 89.8270677 30.6090226 85.7293233 14.4887218 80.5037594"></polygon>
            <polygon id="Path" fill="#696969" points="21.2857143 90.556391 36.8421053 94.9924812 48.1804511 91.0601504 33.3609023 86.3984962"></polygon>
            <polygon id="Path" fill="#FFFFFF" points="38.3007519 95.4962406 50.8195489 98.9172932 62.443609 95.5488722 50.037594 91.6240602"></polygon>
            <polygon id="Path" fill="#E31E24" points="32.0075188 71.6917293 48.6315789 65.5714286 48.6315789 44.406015 32.6842105 51.2556391"></polygon>
            <polygon id="Path" fill="#696969" points="15.3909774 78.037594 30.1578947 72.4210526 30.8270677 51.9323308 16.0601504 58.3834586"></polygon>
            <polygon id="Path" fill="#E31E24" points="1.35338346 83.8195489 13.481203 78.8195489 14.1503759 59.3984962 2.81203008 64.7293233"></polygon>
            <polygon id="Path" fill="#E31E24" points="32.5714286 49.2932331 48.6842105 42.3308271 48.6842105 22.0075188 33.1879699 29.5864662"></polygon>
            <polygon id="Path" fill="#696969" points="16.3984962 56.2556391 30.7218045 50.0225564 31.2781955 30.7669173 17.1879699 37.5037594"></polygon>
            <polygon id="Path" fill="#E31E24" points="2.64661654 62.6541353 14.4887218 57.0977444 15.2180451 38.5112782 4.33082707 44.2406015"></polygon>
            <polygon id="Path" fill="#696969" points="33.1353383 27.4511278 48.8571429 19.8721805 48.9097744 2.2481203 33.075188 11.2255639"></polygon>
            <polygon id="Path" fill="#696969" points="17.4661654 35.2030075 31.2255639 28.5789474 31.2255639 12.406015 17.9699248 19.593985"></polygon>
            <polygon id="Path" fill="#696969" points="4.27067669 42.0526316 15.556391 36.0977444 16.0075188 20.7744361 5.28571429 26.556391"></polygon>
            <polygon id="Path" fill="#009846" points="50.481203 65.2932331 67.1052632 71.3533835 66.7669173 50.6917293 50.593985 44.2406015"></polygon>
            <polygon id="Path" fill="#696969" points="69.0676692 71.9172932 84.3458647 78.0902256 83.556391 58.0526316 68.7894737 51.6466165"></polygon>
            <polygon id="Path" fill="#009846" points="86.1954887 78.7067669 98.4360902 83.5338346 97.5413534 64.3383459 85.518797 59"></polygon>
            <polygon id="Path" fill="#009846" points="50.6541353 42.1052632 66.7669173 48.6165414 66.1503759 29.5864662 50.7067669 21.7819549"></polygon>
            <polygon id="Path" fill="#696969" points="68.8421053 49.4586466 83.3909774 55.9172932 82.3233083 37.3909774 68.2255639 30.3157895"></polygon>
            <polygon id="Path" fill="#009846" points="85.518797 56.8721805 97.481203 62.2030075 96.4135338 44.5789474 84.4511278 38.0601504"></polygon>
            <polygon id="Path" fill="#696969" points="50.8195489 19.7593985 66.3157895 27.5639098 65.5864662 9.76691729 50.8796992 1.63157895"></polygon>
            <polygon id="Path" fill="#696969" points="68.3383459 28.1804511 82.5488722 35.3157895 81.8120301 18.5263158 67.556391 10.7218045"></polygon>
            <polygon id="Path" fill="#696969" points="84.5639098 35.9849624 96.3609023 42.3308271 95.3458647 25.7669173 83.7819549 19.6541353"></polygon>
        </g>
    </g>
</svg>