<?xml version="1.0" encoding="UTF-8"?>
<svg width="100px" height="100px" viewBox="0 0 100 100" version="1.1" xmlns="http://www.w3.org/2000/svg" xmlns:xlink="http://www.w3.org/1999/xlink">
    <title>coll_21</title>
    <g id="COLL" stroke="none" stroke-width="1" fill="none" fill-rule="evenodd">
        <g id="coll_21" fill-rule="nonzero">
            <polygon id="Path" fill="#000000" points="0.176470588 18.9428571 43.1470588 0.171428571 99.1176471 7.48571429 98.9117647 66.4285714 64.9117647 98.3714286 9.20588235 79.3142857"></polygon>
            <polygon id="Path" fill="#E31E24" points="53.7941176 19.0857143 72.8235294 22.3428571 60.0882353 30.0571429 40.2647059 26.3714286"></polygon>
            <polygon id="Path" fill="#FFED00" points="67.1176471 11.8 85.7647059 14.5714286 74.4705882 21.4 55.3529412 18.1428571"></polygon>
            <polygon id="Path" fill="#0062AC" points="79.0294118 5.45714286 97.0294118 7.71428571 87.0588235 13.7714286 68.7058824 11.0285714"></polygon>
            <polygon id="Path" fill="#FFED00" points="60.4411765 2.97142857 76.8235294 5.08571429 66.4117647 10.6857143 49.4117647 8.17142857"></polygon>
            <polygon id="Path" fill="#FFED00" points="48.0294118 8.94285714 64.9411765 11.4571429 53 17.7428571 35.6764706 14.8571429"></polygon>
            <polygon id="Path" fill="#FFED00" points="34.1176471 15.6285714 51.5 18.6 38.0294118 25.8 20.1470588 22.4"></polygon>
            <polygon id="Path" fill="#E31E24" points="16.0294118 12.5428571 31.9705882 15.3428571 17.8235294 21.9714286 1.79411765 18.8571429"></polygon>
            <polygon id="Path" fill="#FFED00" points="30.3529412 6.28571429 46 8.57142857 33.5882353 14.5142857 17.7941176 11.8571429"></polygon>
            <polygon id="Path" fill="#009846" points="43.2352941 0.6 58.3823529 2.62857143 47.4705882 7.91428571 31.9411765 5.6"></polygon>
            <polygon id="Path" fill="#FFED00" points="39.8823529 28.3142857 59.6176471 32.1428571 60.6764706 53.6857143 41.6470588 48.9714286"></polygon>
            <polygon id="Path" fill="#696969" points="19.4705882 24.1714286 37.3823529 27.8571429 39.3529412 48.3714286 21.9705882 44.2"></polygon>
            <polygon id="Path" fill="#FFED00" points="1.20588235 20.5428571 17.4411765 23.7428571 19.7352941 43.6 4.08823529 39.8"></polygon>
            <polygon id="Path" fill="#696969" points="42.0882353 51.5142857 61 56.3142857 61.9705882 76.1714286 43.6176471 70.6857143"></polygon>
            <polygon id="Path" fill="#696969" points="22.4117647 46.6571429 39.7941176 50.9142857 41.5588235 70.0857143 24.7058824 65.0857143"></polygon>
            <polygon id="Path" fill="#696969" points="4.23529412 41.9428571 20.2352941 46.0857143 22.5 64.5428571 7.02941176 59.9142857"></polygon>
            <polygon id="Path" fill="#696969" points="43.8823529 72.9714286 62.1764706 78.5428571 63.3823529 97.0857143 45.4705882 90.8571429"></polygon>
            <polygon id="Path" fill="#696969" points="24.7647059 67.2571429 41.6470588 72.4571429 43.3235294 90.2857143 26.9705882 84.6571429"></polygon>
            <polygon id="Path" fill="#696969" points="7.32352941 62.0285714 22.8529412 66.8 24.8529412 83.9142857 9.91176471 78.9714286"></polygon>
            <polygon id="Path" fill="#696969" points="61.8235294 31.4571429 74.4705882 23.7714286 75.1470588 44.3142857 62.8529412 53.1714286"></polygon>
            <polygon id="Path" fill="#696969" points="75.9705882 22.7428571 87.2941176 15.8 87.4117647 35.4857143 76.6764706 43.1714286"></polygon>
            <polygon id="Path" fill="#696969" points="88.6470588 14.9428571 98.3235294 9.08571429 98.3235294 27.6571429 88.7941176 34.7142857"></polygon>
            <polygon id="Path" fill="#696969" points="63.1176471 55.7428571 75.3529412 46.9142857 75.9705882 65.7714286 64.2352941 75.6571429"></polygon>
            <polygon id="Path" fill="#696969" points="76.8529412 45.7428571 87.4705882 37.8571429 87.7647059 56.1428571 77.3529412 64.7142857"></polygon>
            <polygon id="Path" fill="#696969" points="88.9117647 36.8285714 98.2941176 29.9714286 98.2941176 47.4285714 89.1470588 54.9142857"></polygon>
            <polygon id="Path" fill="#696969" points="64.4411765 78.0571429 76.1176471 68.3142857 76.7352941 86.0571429 65.4117647 96.5714286"></polygon>
            <polygon id="Path" fill="#696969" points="77.5588235 66.8571429 87.9117647 58.3714286 88.0882353 75.4857143 78.0588235 84.7714286"></polygon>
            <polygon id="Path" fill="#696969" points="89.2058824 57.3428571 98.3235294 49.5714286 98.3823529 66 89.3823529 74.3428571"></polygon>
        </g>
    </g>
</svg>