<?xml version="1.0" encoding="UTF-8"?>
<svg width="187px" height="100px" viewBox="0 0 187 100" version="1.1" xmlns="http://www.w3.org/2000/svg" xmlns:xlink="http://www.w3.org/1999/xlink">
    <title>cub_2x2x3_3_6</title>
    <g id="cuboid_2x2x3" stroke="none" stroke-width="1" fill="none" fill-rule="evenodd">
        <g id="cub_2x2x3_3_6" fill-rule="nonzero">
            <polygon id="Path" fill="#000000" points="185.608372 0.239130435 99.11 0.239130435 86.7375581 0.239130435 0.239186047 0.239130435 0.239186047 99.0869565 86.7375581 99.0869565 99.11 99.0869565 185.608372 99.0869565"></polygon>
            <polygon id="Path" fill="#FFED00" points="12.6116279 12.6086957 47.3588372 12.6086957 47.3588372 47.3478261 12.6116279 47.3478261"></polygon>
            <polygon id="Path" fill="#FFED00" points="51.9903488 12.6086957 86.7375581 12.6086957 86.7375581 47.3478261 51.9903488 47.3478261"></polygon>
            <polygon id="Path" fill="#FFED00" points="12.6116279 51.9782609 47.3588372 51.9782609 47.3588372 86.7173913 12.6116279 86.7173913"></polygon>
            <polygon id="Path" fill="#FFED00" points="51.9903488 51.9782609 86.7375581 51.9782609 86.7375581 86.7173913 51.9903488 86.7173913"></polygon>
            <polygon id="Path" fill="#FFFFFF" points="138.488721 12.6086957 173.23593 12.6086957 173.23593 47.3478261 138.488721 47.3478261"></polygon>
            <polygon id="Path" fill="#FFFFFF" points="99.11 12.6086957 133.857209 12.6086957 133.857209 47.3478261 99.11 47.3478261"></polygon>
            <polygon id="Path" fill="#FFFFFF" points="138.488721 51.9782609 173.23593 51.9782609 173.23593 86.7173913 138.488721 86.7173913"></polygon>
            <polygon id="Path" fill="#FFFFFF" points="99.11 51.9782609 133.857209 51.9782609 133.857209 86.7173913 99.11 86.7173913"></polygon>
            <polygon id="Path" fill="#E31E24" points="118.027442 29.7608696 131.682791 32.673913 131.052209 35.5869565 122.311047 33.7173913 152.122326 63.5217391 150.252326 54.7826087 153.166047 54.1521739 156.55814 70.0434783 140.66314 66.6521739 141.293721 63.7608696 150.034884 65.6086957 120.223605 35.8043478 122.07186 44.5434783 119.179884 45.173913 115.787791 29.2826087"></polygon>
        </g>
    </g>
</svg>