<?xml version="1.0" encoding="UTF-8"?>
<svg width="100px" height="135px" viewBox="0 0 100 135" version="1.1" xmlns="http://www.w3.org/2000/svg" xmlns:xlink="http://www.w3.org/1999/xlink">
    <title>cub_2x2x3_3_1</title>
    <g id="cuboid_2x2x3" stroke="none" stroke-width="1" fill="none" fill-rule="evenodd">
        <g id="cub_2x2x3_3_1" transform="translate(0.000000, 0.000000)" fill-rule="nonzero">
            <polygon id="Path" fill="#000000" points="0.0625 22.2593023 36.40625 0.0627906977 98.5 6.31046512 98.4375 97.6709302 73.375 133.524419 11.625 118.109302"></polygon>
            <polygon id="Path" fill="#696969" points="51.6875 14.944186 82.1875 18.4604651 68.46875 30.4534884 36.34375 26.1523256"></polygon>
            <polygon id="Path" fill="#696969" points="67 3.9244186 95.9375 6.84418605 84.0625 16.7651163 53.6875 13.4372093"></polygon>
            <polygon id="Path" fill="#696969" points="19.84375 11.3023256 48 14.3790698 32.40625 25.5872093 2.4375 21.9139535"></polygon>
            <polygon id="Path" fill="#696969" points="36.6875 0.847674419 63.21875 3.51627907 49.75 12.9976744 22.1875 9.82674419"></polygon>
            <polygon id="Path" fill="#696969" points="35.375 29.3232558 67.875 33.4988372 68.71875 66.6837209 37.71875 61.2523256"></polygon>
            <polygon id="Path" fill="#696969" points="1.65625 24.7709302 31.59375 28.8523256 33.90625 60.655814 5.53125 55.8209302"></polygon>
            <polygon id="Path" fill="#696969" points="38.21875 65.3337209 69.09375 70.6395349 70.15625 100.684884 40.4375 94.3430233"></polygon>
            <polygon id="Path" fill="#696969" points="6.09375 59.2430233 34.3125 64.3918605 36.6875 93.5267442 9.4375 87.4988372"></polygon>
            <polygon id="Path" fill="#696969" points="40.9375 98.0162791 70.3125 104.389535 71.09375 131.295349 42.9375 124.451163"></polygon>
            <polygon id="Path" fill="#696969" points="9.78125 91.0465116 37.09375 97.1372093 39.0625 123.509302 12.90625 116.947674"></polygon>
            <polygon id="Path" fill="#696969" points="71.0625 32.7139535 84.78125 20.344186 85.1875 51.6453488 72.125 65.522093"></polygon>
            <polygon id="Path" fill="#696969" points="86.40625 18.994186 97.90625 8.53953488 97.90625 37.9255814 86.875 49.8244186"></polygon>
            <polygon id="Path" fill="#696969" points="72.375 69.6662791 85.3125 55.4755814 85.6875 84.1395349 73.1875 99.6488372"></polygon>
            <polygon id="Path" fill="#696969" points="87.0625 53.4976744 97.9375 41.5046512 97.84375 68.4418605 87.21875 82.1302326"></polygon>
            <polygon id="Path" fill="#696969" points="73.40625 103.47907 85.65625 87.8127907 86.09375 113.619767 74.25 130.510465"></polygon>
            <polygon id="Path" fill="#696969" points="87.28125 85.5523256 97.875 72.177907 97.875 97.105814 87.65625 111.57907"></polygon>
            <path d="M42.71875,6.90697674 L47.0625,8.53953488 C46.53125,8.72790698 46.0625,8.97906977 45.6875,9.3244186 L56.71875,19.8418605 C57.03125,19.4337209 57.28125,18.9627907 57.4375,18.4290698 L59.28125,22.6988372 L54.9375,21.0976744 C55.46875,20.877907 55.90625,20.6267442 56.28125,20.2813953 L45.25,9.76395349 C44.9375,10.172093 44.71875,10.6430233 44.53125,11.1767442 L42.71875,6.90697674 L42.71875,6.90697674 Z" id="Path" fill="#FFFFFF"></path>
            <path d="M79.03125,77.5465116 L80.4375,73.1197674 C80.65625,73.6534884 80.9375,74.0930233 81.28125,74.4697674 L89.78125,64.5174419 C89.375,64.2348837 88.90625,64.0151163 88.34375,63.8581395 L92.5,61.8174419 L91.09375,66.244186 C90.875,65.7104651 90.59375,65.2709302 90.25,64.9255814 L81.75,74.8465116 C82.15625,75.1604651 82.625,75.3802326 83.1875,75.505814 L79.03125,77.5465116 L79.03125,77.5465116 Z" id="Path" fill="#FFFFFF"></path>
            <path d="M79.75,109.161628 L80.84375,104.640698 C81.09375,105.143023 81.40625,105.582558 81.78125,105.896512 L90.0625,94.7511628 C89.625,94.5 89.125,94.3116279 88.5625,94.2174419 L92.5625,91.8627907 L91.5,96.3837209 C91.25,95.8813953 90.9375,95.4732558 90.53125,95.127907 L82.28125,106.273256 C82.71875,106.555814 83.1875,106.712791 83.75,106.838372 L79.75,109.161628 Z" id="Path" fill="#FFFFFF"></path>
        </g>
    </g>
</svg>