<?xml version="1.0" encoding="UTF-8"?>
<svg width="187px" height="100px" viewBox="0 0 187 100" version="1.1" xmlns="http://www.w3.org/2000/svg" xmlns:xlink="http://www.w3.org/1999/xlink">
    <title>cub_2x2x3_3_4</title>
    <g id="cuboid_2x2x3" stroke="none" stroke-width="1" fill="none" fill-rule="evenodd">
        <g id="cub_2x2x3_3_4" fill-rule="nonzero">
            <polygon id="Path" fill="#000000" points="185.608372 0.239130435 99.11 0.239130435 86.7375581 0.239130435 0.239186047 0.239130435 0.239186047 99.0869565 86.7375581 99.0869565 99.11 99.0869565 185.608372 99.0869565"></polygon>
            <polygon id="Path" fill="#FFED00" points="12.6116279 12.6086957 47.3588372 12.6086957 47.3588372 47.3478261 12.6116279 47.3478261"></polygon>
            <polygon id="Path" fill="#FFED00" points="51.9903488 12.6086957 86.7375581 12.6086957 86.7375581 47.3478261 51.9903488 47.3478261"></polygon>
            <polygon id="Path" fill="#FFED00" points="12.6116279 51.9782609 47.3588372 51.9782609 47.3588372 86.7173913 12.6116279 86.7173913"></polygon>
            <polygon id="Path" fill="#FFED00" points="51.9903488 51.9782609 86.7375581 51.9782609 86.7375581 86.7173913 51.9903488 86.7173913"></polygon>
            <polygon id="Path" fill="#FFFFFF" points="138.488721 12.6086957 173.23593 12.6086957 173.23593 47.3478261 138.488721 47.3478261"></polygon>
            <polygon id="Path" fill="#FFFFFF" points="99.11 12.6086957 133.857209 12.6086957 133.857209 47.3478261 99.11 47.3478261"></polygon>
            <polygon id="Path" fill="#FFFFFF" points="138.488721 51.9782609 173.23593 51.9782609 173.23593 86.7173913 138.488721 86.7173913"></polygon>
            <polygon id="Path" fill="#FFFFFF" points="99.11 51.9782609 133.857209 51.9782609 133.857209 86.7173913 99.11 86.7173913"></polygon>
            <polygon id="Path" fill="#E31E24" points="30.9419767 68.1086957 42.6403488 60.5217391 44.2494186 63.0217391 36.7476744 67.8695652 62.6015116 67.8695652 55.0997674 63.0217391 56.7088372 60.5217391 70.3424419 69.3478261 56.7088372 78.1956522 55.0997674 75.6956522 62.6015116 70.826087 36.7476744 70.826087 44.2494186 75.6956522 42.6403488 78.1956522 29.0067442 69.3478261"></polygon>
            <polygon id="Path" fill="#E31E24" points="117.048953 30.9347826 124.637674 42.6304348 122.137093 44.2391304 117.28814 36.7391304 117.28814 62.5869565 122.137093 55.0869565 124.637674 56.6956522 115.787791 70.3043478 106.959651 56.6956522 109.438488 55.0869565 114.309186 62.5869565 114.309186 36.7391304 109.438488 44.2391304 106.959651 42.6304348 115.787791 29"></polygon>
        </g>
    </g>
</svg>