<?xml version="1.0" encoding="UTF-8"?>
<svg width="100px" height="135px" viewBox="0 0 100 135" version="1.1" xmlns="http://www.w3.org/2000/svg" xmlns:xlink="http://www.w3.org/1999/xlink">
    <title>cub_2x2x3_4_2</title>
    <g id="cuboid_2x2x3" stroke="none" stroke-width="1" fill="none" fill-rule="evenodd">
        <g id="cub_2x2x3_4_2" fill-rule="nonzero">
            <polygon id="Path" fill="#000000" points="0.0625 22.2593023 36.40625 0.0627906977 98.5 6.31046512 98.4375 97.6709302 73.375 133.524419 11.625 118.109302"></polygon>
            <polygon id="Path" fill="#696969" points="51.6875 14.944186 82.1875 18.4604651 68.46875 30.4534884 36.34375 26.1523256"></polygon>
            <polygon id="Path" fill="#696969" points="67 3.9244186 95.9375 6.84418605 84.0625 16.7651163 53.6875 13.4372093"></polygon>
            <polygon id="Path" fill="#696969" points="19.84375 11.3023256 48 14.3790698 32.40625 25.5872093 2.4375 21.9139535"></polygon>
            <polygon id="Path" fill="#696969" points="36.6875 0.847674419 63.21875 3.51627907 49.75 12.9976744 22.1875 9.82674419"></polygon>
            <polygon id="Path" fill="#696969" points="35.375 29.3232558 67.875 33.4988372 68.71875 66.6837209 37.71875 61.2523256"></polygon>
            <polygon id="Path" fill="#696969" points="1.65625 24.7709302 31.59375 28.8523256 33.90625 60.655814 5.53125 55.8209302"></polygon>
            <polygon id="Path" fill="#009846" points="38.21875 65.3337209 69.09375 70.6395349 70.15625 100.684884 40.4375 94.3430233"></polygon>
            <polygon id="Path" fill="#0062AC" points="6.09375 59.2430233 34.3125 64.3918605 36.6875 93.5267442 9.4375 87.4988372"></polygon>
            <polygon id="Path" fill="#0062AC" points="40.9375 98.0162791 70.3125 104.389535 71.09375 131.295349 42.9375 124.451163"></polygon>
            <polygon id="Path" fill="#0062AC" points="9.78125 91.0465116 37.09375 97.1372093 39.0625 123.509302 12.90625 116.947674"></polygon>
            <polygon id="Path" fill="#696969" points="71.0625 32.7139535 84.78125 20.344186 85.1875 51.6453488 72.125 65.522093"></polygon>
            <polygon id="Path" fill="#696969" points="86.40625 18.994186 97.90625 8.53953488 97.90625 37.9255814 86.875 49.8244186"></polygon>
            <polygon id="Path" fill="#EF7F1A" points="72.375 69.6662791 85.3125 55.4755814 85.6875 84.1395349 73.1875 99.6488372"></polygon>
            <polygon id="Path" fill="#EF7F1A" points="87.0625 53.4976744 97.9375 41.5046512 97.84375 68.4418605 87.21875 82.1302326"></polygon>
            <polygon id="Path" fill="#EF7F1A" points="73.40625 103.47907 85.65625 87.8127907 86.09375 113.619767 74.25 130.510465"></polygon>
            <polygon id="Path" fill="#EF7F1A" points="87.28125 85.5523256 97.875 72.177907 97.875 97.105814 87.65625 111.57907"></polygon>
        </g>
    </g>
</svg>