<?xml version="1.0" encoding="UTF-8"?>
<svg width="96px" height="100px" viewBox="0 0 96 100" version="1.1" xmlns="http://www.w3.org/2000/svg" xmlns:xlink="http://www.w3.org/1999/xlink">
    <title>cll_15</title>
    <g id="CLL" stroke="none" stroke-width="1" fill="none" fill-rule="evenodd">
        <g id="cll_15" fill-rule="nonzero">
            <polygon id="Path" fill="#000000" points="36.3252632 0.15408805 95.5105263 4.93396226 95.8105263 62.2044025 73.4684211 99.8867925 12.1168421 84.9433962 0.167368421 25.0314465"></polygon>
            <polygon id="Path" fill="#E31E24" points="50.6715789 15.5471698 80.8136842 18.5849057 67.7178947 33.1194969 35.3242105 28.8396226"></polygon>
            <polygon id="Path" fill="#FFED00" points="64.9673684 3.15408805 92.8105263 5.44339623 82.1621053 17.0408805 52.4210526 14.0062893"></polygon>
            <polygon id="Path" fill="#E31E24" points="36.3726316 1.01257862 61.6673684 2.95283019 48.7705263 13.6069182 22.2252632 10.9685535"></polygon>
            <polygon id="Path" fill="#FFED00" points="20.2263158 12.4119497 47.1221053 15.1509434 31.2757895 28.3930818 2.77894737 24.5597484"></polygon>
            <polygon id="Path" fill="#FFED00" points="34.6231579 31.7264151 67.3168421 36.5062893 69.1168421 67.3679245 38.4221053 61.6446541"></polygon>
            <polygon id="Path" fill="#EF7F1A" points="1.92947368 27.4968553 30.6757895 31.2798742 34.8726316 61.0471698 7.57894737 55.9685535"></polygon>
            <polygon id="Path" fill="#696969" points="39.0221053 65.2295597 69.3663158 71.0534591 71.3147368 98.1320755 42.3221053 90.9654088"></polygon>
            <polygon id="Path" fill="#696969" points="8.17894737 59.1572327 35.3242105 64.5314465 38.9242105 90.2672956 13.1778947 84.1949686"></polygon>
            <polygon id="Path" fill="#696969" points="70.4147368 35.0125786 83.2136842 20.5754717 84.0126316 49.8459119 72.2147368 66.4245283"></polygon>
            <polygon id="Path" fill="#696969" points="84.6126316 18.8333333 94.7621053 7.28616352 94.9105263 34.4150943 85.4115789 48.0062893"></polygon>
            <polygon id="Path" fill="#696969" points="72.4642105 70.0566038 84.1642105 53.1320755 84.9631579 78.4716981 74.0652632 96.8396226"></polygon>
            <polygon id="Path" fill="#696969" points="85.5631579 51.0408805 94.9105263 37.6509434 95.0115789 61.745283 86.2136842 76.3301887"></polygon>
        </g>
    </g>
</svg>