<?xml version="1.0" encoding="UTF-8"?>
<svg width="100px" height="86px" viewBox="0 0 100 86" version="1.1" xmlns="http://www.w3.org/2000/svg" xmlns:xlink="http://www.w3.org/1999/xlink">
    <title>sq_star_5_7</title>
    <g id="square_star" stroke="none" stroke-width="1" fill="none" fill-rule="evenodd">
        <g id="sq_star_5_7" fill-rule="nonzero">
            <polygon id="Path" fill="#000000" points="22.7985075 10.5518261 35.0223881 0.0523478261 54.7164179 5.60121739 78.0597015 5.13008696 81.8955224 17.7833043 99.3059701 31.3413913 93.1268657 56.9693913 75.0895522 66.6836522 65.2686567 85.2970435 40.4328358 75.1266087 13.3507463 76.4876522 8.30597015 51.1513043 8.44776119 47.7786087 4.69402985 43.889913 0.0597014925 18.2469565"></polygon>
            <path d="M52.2761194,16.2427826 C58.9402985,17.3495652 63.8358209,20.984 63.8358209,25.2989565 C63.8358209,30.4888696 56.738806,34.6991304 47.9925373,34.6991304 C47.3134328,34.6991304 46.641791,34.6766957 45.9850746,34.6243478 L52.2761194,16.2427826 L52.2761194,16.2427826 Z" id="Path" fill="#696969"></path>
            <path d="M50.0597015,15.9586087 L43.858209,34.3775652 C37.1119403,33.3006957 32.141791,29.6438261 32.141791,25.2989565 C32.141791,17.7907826 43.8731343,15.2033043 50.0597015,15.9586087 Z" id="Path" fill="#696969"></path>
            <path d="M55.4776119,6.31165217 L77.3656716,6.00504348 L80.8880597,17.2448696 L64.5373134,20.6175652 C62.2164179,17.686087 58.2462687,15.6445217 52.9029851,14.5826087 L55.4776119,6.31165217 Z" id="Path" fill="#009846"></path>
            <path d="M65.3208955,22.188 L81.7313433,18.8676522 L98.1492537,31.1993043 L78.6791045,40.0386087 L62.9029851,31.849913 C66.0447761,29.441913 67.0671642,26.2337391 65.3208955,22.188 L65.3208955,22.188 Z" id="Path" fill="#009846"></path>
            <path d="M45.3283582,36.7107826 C51.3432836,37.324 56.8880597,36.4191304 61.738806,33.3006957 L77.1044776,41.7885217 L66.8880597,58.7641739 L40.8432836,49.2593043 L45.3283582,36.7107826 Z" id="Path" fill="#009846"></path>
            <path d="M11.9552239,32.1191304 L30.4626866,28.8810435 C32.4626866,32.3584348 36.5223881,34.8561739 43.119403,36.321913 L38.5522388,49.1097391 L9.41791045,49.5285217 L11.9552239,32.1191304 L11.9552239,32.1191304 Z" id="Path" fill="#009846"></path>
            <path d="M1.03731343,18.6507826 L22.6940299,11.4716522 L33.9776119,17.9777391 C30.7313433,20.4455652 29.0820896,23.4443478 29.8507463,27.2208696 L10.7313433,30.6309565 L1.03731343,18.6507826 Z" id="Path" fill="#009846"></path>
            <path d="M35.2835821,0.583304348 L53.6641791,6.04991304 L50.7835821,14.3133913 C44.3656716,13.6777391 40.9477612,14.246087 35.4626866,17.028 L23.8283582,10.5593043 L35.2835821,0.583304348 Z" id="Path" fill="#009846"></path>
            <polygon id="Path" fill="#FFFFFF" points="79.9029851 41.6165217 98.2313433 33.0389565 95.4402985 44.2413913 78.3283582 52.288"></polygon>
            <polygon id="Path" fill="#E31E24" points="68.1343284 60.514087 77.3880597 43.7104348 76.0820896 54.3893913 67.0895522 70.6172174"></polygon>
            <polygon id="Path" fill="#E31E24" points="40.8507463 51.8093913 65.7313433 60.8206957 65.0373134 71.6641739 41.3731343 62.2191304"></polygon>
            <polygon id="Path" fill="#FFED00" points="9.85820896 51.629913 38.141791 51.1961739 38.5820896 61.6956522 11.9552239 63.1763478"></polygon>
            <polygon id="Path" fill="#EF7F1A" points="1.08208955 20.8344348 10.3358209 32.6874783 9.41791045 39.6871304 2.91791045 31.3787826"></polygon>
            <polygon id="Path" fill="#FFFFFF" points="78.1343284 54.4716522 95.0671642 46.297913 92.6268657 56.617913 76.3880597 65.3674783"></polygon>
            <polygon id="Path" fill="#E31E24" points="67.0895522 73.5486957 75.7313433 57.5377391 74.2462687 66.8107826 66.1268657 82.3805217"></polygon>
            <polygon id="Path" fill="#E31E24" points="41.4626866 64.9262609 64.7761194 74.161913 64.1641791 84.0033043 41.8134328 74.9022609"></polygon>
            <polygon id="Path" fill="#FFED00" points="12.4776119 65.6292174 38.4925373 64.4027826 39.1044776 74.5507826 14.3955224 75.8669565"></polygon>
            <polygon id="Path" fill="#EF7F1A" points="3.48507463 34.2205217 9.20149254 42.0502609 8.50746269 47.2551304 5.2761194 43.7104348"></polygon>
        </g>
    </g>
</svg>