<?xml version="1.0" encoding="UTF-8"?>
<svg width="100px" height="90px" viewBox="0 0 100 90" version="1.1" xmlns="http://www.w3.org/2000/svg" xmlns:xlink="http://www.w3.org/1999/xlink">
    <title>sq_star_3_2</title>
    <g id="square_star" stroke="none" stroke-width="1" fill="none" fill-rule="evenodd">
        <g id="sq_star_3_2" fill-rule="nonzero">
            <polygon id="Path" fill="#000000" points="25.0357143 0.252 49.7857143 7.452 74.5714286 0.252 80.75 25.452 99.3214286 43.452 80.75 61.488 74.5714286 86.688 49.7857143 79.488 25.0357143 86.688 18.8571429 61.488 0.285714286 43.452 18.8571429 25.452"></polygon>
            <path d="M48.3571429,57.168 C41.5,56.448 36.1428571,50.58 36.1428571,43.452 C36.1428571,36.36 41.5,30.492 48.3571429,29.772 L48.3571429,57.168 L48.3571429,57.168 Z" id="Path" fill="#696969"></path>
            <path d="M51.2142857,29.772 C58.1071429,30.492 63.4642857,36.36 63.4642857,43.452 C63.4642857,50.58 58.1071429,56.448 51.2142857,57.168 L51.2142857,29.772 Z" id="Path" fill="#696969"></path>
            <path d="M51.2142857,10.044 L72.5,3.852 L77.7857143,25.488 L63.3571429,33.912 C60.6428571,29.952 56.25,27.288 51.2142857,26.856 L51.2142857,10.044 L51.2142857,10.044 Z" id="Path" fill="#0062AC"></path>
            <path d="M79.2142857,28.008 L95.1785714,43.452 L79.25,58.932 L64.7857143,50.544 C65.7857143,48.384 66.3571429,46.008 66.3571429,43.452 C66.3571429,40.932 65.7857143,38.556 64.7857143,36.396 L79.2142857,28.008 L79.2142857,28.008 Z" id="Path" fill="#0062AC"></path>
            <path d="M63.3571429,53.028 L77.7857143,61.452 L72.5,83.088 L51.2142857,76.896 L51.2142857,60.084 C56.25,59.652 60.6428571,56.988 63.3571429,53.028 L63.3571429,53.028 Z" id="Path" fill="#0062AC"></path>
            <path d="M21.7857143,61.416 L36.2142857,53.028 C38.9642857,56.988 43.3571429,59.652 48.3571429,60.084 L48.3571429,76.896 L27.1071429,83.088 L21.7857143,61.416 Z" id="Path" fill="#696969"></path>
            <path d="M20.3571429,28.008 L34.7857143,36.396 C33.7857143,38.556 33.25,40.932 33.25,43.452 C33.25,46.008 33.7857143,48.384 34.7857143,50.544 L20.3571429,58.932 L4.42857143,43.452 L20.3571429,28.008 Z" id="Path" fill="#696969"></path>
            <path d="M27.1071429,3.852 L48.3571429,10.044 L48.3571429,26.856 C43.3571429,27.288 38.9642857,29.952 36.2142857,33.912 L21.7857143,25.488 L27.1071429,3.852 Z" id="Path" fill="#696969"></path>
            <path d="M77.1785714,38.088 L64.9285714,18.612 L64.1071429,19.152 L76.3571429,38.592 C75.6428571,38.988 74.8571429,39.204 73.9642857,39.312 L80,43.452 L78.8214286,36.216 C78.3571429,36.972 77.8214286,37.62 77.1785714,38.088 Z" id="Path" fill="#EF7F1A"></path>
            <path d="M64.0357143,24.948 L64.0357143,68.076 L65,68.076 L65,24.948 C65.7857143,25.02 66.5714286,25.236 67.3928571,25.632 L64.5,18.864 L61.6428571,25.632 C62.4285714,25.236 63.25,25.02 64.0357143,24.948 L64.0357143,24.948 Z" id="Path" fill="#EF7F1A"></path>
            <path d="M68.1428571,63.216 L80.3928571,43.74 L79.5714286,43.2 L67.3214286,62.676 C66.6785714,62.208 66.1428571,61.56 65.6785714,60.804 L64.5,68.076 L70.5357143,63.9 C69.6428571,63.792 68.8571429,63.576 68.1428571,63.216 L68.1428571,63.216 Z" id="Path" fill="#EF7F1A"></path>
        </g>
    </g>
</svg>