<?xml version="1.0" encoding="UTF-8"?>
<svg width="100px" height="175px" viewBox="0 0 100 175" version="1.1" xmlns="http://www.w3.org/2000/svg" xmlns:xlink="http://www.w3.org/1999/xlink">
    <title>sq_star_3_3</title>
    <g id="square_star" stroke="none" stroke-width="1" fill="none" fill-rule="evenodd">
        <g id="sq_star_3_3" fill-rule="nonzero">
            <polygon id="Path" fill="#000000" points="25.0357143 0.25 49.7857143 7.39285714 74.5714286 0.25 80.75 25.25 99.3214286 43.1071429 80.75 61 74.5714286 86 49.7857143 78.8571429 25.0357143 86 18.8571429 61 0.285714286 43.1071429 18.8571429 25.25"></polygon>
            <polygon id="Path" fill="#000000" points="25.0357143 171.785714 49.7857143 164.607143 74.5714286 171.785714 80.75 146.75 99.3214286 128.892857 80.75 111.035714 74.5714286 86 49.7857143 93.1428571 25.0357143 86 18.8571429 111.035714 0.285714286 128.892857 18.8571429 146.75"></polygon>
            <path d="M48.3571429,56.7142857 C41.5,56 36.1428571,50.1785714 36.1428571,43.1071429 C36.1428571,36.0714286 41.5,30.25 48.3571429,29.5357143 L48.3571429,56.7142857 L48.3571429,56.7142857 Z" id="Path" fill="#696969"></path>
            <path d="M51.2142857,29.5357143 C58.1071429,30.25 63.4642857,36.0714286 63.4642857,43.1071429 C63.4642857,50.1785714 58.1071429,56 51.2142857,56.7142857 L51.2142857,29.5357143 Z" id="Path" fill="#696969"></path>
            <path d="M48.3571429,115.321429 C41.5,116.035714 36.1428571,121.821429 36.1428571,128.892857 C36.1428571,135.964286 41.5,141.75 48.3571429,142.464286 L48.3571429,115.321429 L48.3571429,115.321429 Z" id="Path" fill="#696969"></path>
            <path d="M51.2142857,142.464286 C58.1071429,141.75 63.4642857,135.964286 63.4642857,128.892857 C63.4642857,121.821429 58.1071429,116.035714 51.2142857,115.321429 L51.2142857,142.464286 L51.2142857,142.464286 Z" id="Path" fill="#696969"></path>
            <path d="M51.2142857,9.96428571 L72.5,3.82142857 L77.7857143,25.2857143 L63.3571429,33.6428571 C60.6428571,29.7142857 56.25,27.0714286 51.2142857,26.6428571 L51.2142857,9.96428571 L51.2142857,9.96428571 Z" id="Path" fill="#696969"></path>
            <path d="M79.2142857,27.7857143 L95.1785714,43.1071429 L79.25,58.4642857 L64.7857143,50.1428571 C65.7857143,48 66.3571429,45.6428571 66.3571429,43.1071429 C66.3571429,40.6071429 65.7857143,38.25 64.7857143,36.1071429 L79.2142857,27.7857143 L79.2142857,27.7857143 Z" id="Path" fill="#696969"></path>
            <path d="M63.3571429,52.6071429 L77.7857143,60.9642857 L72.5,82.4285714 L51.2142857,76.2857143 L51.2142857,59.6071429 C56.25,59.1785714 60.6428571,56.5357143 63.3571429,52.6071429 L63.3571429,52.6071429 Z" id="Path" fill="#696969"></path>
            <path d="M21.7857143,60.9285714 L36.2142857,52.6071429 C38.9642857,56.5357143 43.3571429,59.1785714 48.3571429,59.6071429 L48.3571429,76.2857143 L27.1071429,82.4285714 L21.7857143,60.9285714 Z" id="Path" fill="#696969"></path>
            <path d="M20.3571429,27.7857143 L34.7857143,36.1071429 C33.7857143,38.25 33.25,40.6071429 33.25,43.1071429 C33.25,45.6428571 33.7857143,48 34.7857143,50.1428571 L20.3571429,58.4642857 L4.42857143,43.1071429 L20.3571429,27.7857143 Z" id="Path" fill="#696969"></path>
            <path d="M27.1071429,3.82142857 L48.3571429,9.96428571 L48.3571429,26.6428571 C43.3571429,27.0714286 38.9642857,29.7142857 36.2142857,33.6428571 L21.7857143,25.2857143 L27.1071429,3.82142857 Z" id="Path" fill="#696969"></path>
            <path d="M63.3571429,119.392857 L77.7857143,111.071429 L72.5,89.5714286 L51.2142857,95.7142857 L51.2142857,112.392857 C56.25,112.821429 60.6428571,115.5 63.3571429,119.392857 L63.3571429,119.392857 Z" id="Path" fill="#696969"></path>
            <path d="M79.2142857,144.214286 L95.1785714,128.892857 L79.25,113.535714 L64.7857143,121.892857 C65.7857143,124 66.3571429,126.392857 66.3571429,128.892857 C66.3571429,131.392857 65.7857143,133.785714 64.7857143,135.892857 L79.2142857,144.214286 L79.2142857,144.214286 Z" id="Path" fill="#696969"></path>
            <path d="M51.2142857,162.071429 L72.5,168.178571 L77.7857143,146.714286 L63.3571429,138.392857 C60.6428571,142.285714 56.25,144.964286 51.2142857,145.392857 L51.2142857,162.071429 L51.2142857,162.071429 Z" id="Path" fill="#696969"></path>
            <path d="M27.1071429,168.178571 L48.3571429,162.071429 L48.3571429,145.392857 C43.3571429,144.964286 38.9642857,142.285714 36.2142857,138.392857 L21.7857143,146.714286 L27.1071429,168.178571 L27.1071429,168.178571 Z" id="Path" fill="#696969"></path>
            <path d="M20.3571429,144.214286 L34.7857143,135.892857 C33.7857143,133.785714 33.25,131.392857 33.25,128.892857 C33.25,126.392857 33.7857143,124 34.7857143,121.892857 L20.3571429,113.535714 L4.42857143,128.892857 L20.3571429,144.214286 Z" id="Path" fill="#696969"></path>
            <path d="M21.7857143,111.071429 L36.2142857,119.392857 C38.9642857,115.5 43.3571429,112.821429 48.3571429,112.392857 L48.3571429,95.7142857 L27.1071429,89.5714286 L21.7857143,111.071429 L21.7857143,111.071429 Z" id="Path" fill="#696969"></path>
            <path d="M35.0714286,18.7142857 L39.3214286,24.6785714 C38.4642857,24.4642857 37.6428571,24.3928571 36.8214286,24.5 L63.7142857,147.321429 C64.4642857,147.071429 65.1785714,146.678571 65.8928571,146.107143 L64.5,153.285714 L60.2857143,147.357143 C61.1428571,147.571429 61.9642857,147.607143 62.75,147.5 L35.8928571,24.7142857 C35.1428571,24.9285714 34.3928571,25.3214286 33.7142857,25.8928571 L35.0714286,18.7142857 L35.0714286,18.7142857 Z" id="Path" fill="#E31E24"></path>
            <path d="M77.1785714,37.7857143 L64.9285714,18.4642857 L64.1071429,19 L76.3571429,38.2857143 C75.6428571,38.6785714 74.8571429,38.8928571 73.9642857,39 L80,43.1071429 L78.8214286,35.9285714 C78.3571429,36.6785714 77.8214286,37.3214286 77.1785714,37.7857143 Z" id="Path" fill="#EF7F1A"></path>
            <path d="M64.0357143,24.75 L64.0357143,67.5357143 L65,67.5357143 L65,24.75 C65.7857143,24.8214286 66.5714286,25.0357143 67.3928571,25.4285714 L64.5,18.7142857 L61.6428571,25.4285714 C62.4285714,25.0357143 63.25,24.8214286 64.0357143,24.75 L64.0357143,24.75 Z" id="Path" fill="#EF7F1A"></path>
            <path d="M68.1428571,62.7142857 L80.3928571,43.3928571 L79.5714286,42.8571429 L67.3214286,62.1785714 C66.6785714,61.7142857 66.1428571,61.0714286 65.6785714,60.3214286 L64.5,67.5357143 L70.5357143,63.3928571 C69.6428571,63.2857143 68.8571429,63.0714286 68.1428571,62.7142857 L68.1428571,62.7142857 Z" id="Path" fill="#EF7F1A"></path>
            <path d="M21.25,47.7857143 L73.8928571,127.321429 L74.7142857,126.785714 L22.0714286,47.25 C22.75,46.8571429 23.5357143,46.6071429 24.4285714,46.5 L18.3214286,42.5 L19.6428571,49.6785714 C20.0714286,48.8928571 20.6071429,48.25 21.25,47.7857143 Z" id="Path" fill="#FFFFFF"></path>
            <path d="M75.1071429,130.607143 L70.8214286,124.678571 C71.6785714,124.892857 72.5,124.964286 73.2857143,124.857143 L67.3928571,98.9285714 L68.3214286,98.7142857 L74.25,124.642857 C75,124.392857 75.7142857,124 76.4285714,123.428571 L75.1071429,130.607143 L75.1071429,130.607143 Z" id="Path" fill="#FFFFFF"></path>
            <path d="M64.75,94.3214286 L20.3928571,44.7142857 L19.6785714,45.3571429 L64.0357143,94.9642857 C63.3928571,95.4285714 62.6428571,95.7857143 61.7857143,96.0357143 L68.3928571,99.1071429 L66.0714286,92.2142857 C65.75,93.0357143 65.2857143,93.75 64.75,94.3214286 L64.75,94.3214286 Z" id="Path" fill="#FFFFFF"></path>
        </g>
    </g>
</svg>