<?xml version="1.0" encoding="UTF-8"?>
<svg width="100px" height="86px" viewBox="0 0 100 86" version="1.1" xmlns="http://www.w3.org/2000/svg" xmlns:xlink="http://www.w3.org/1999/xlink">
    <title>sq_star_3_1</title>
    <g id="square_star" stroke="none" stroke-width="1" fill="none" fill-rule="evenodd">
        <g id="sq_star_3_1" fill-rule="nonzero">
            <polygon id="Path" fill="#000000" points="22.7946429 10.561875 35.0089286 0.05375 54.6875 5.59895833 78.0267857 5.133125 81.8571429 17.8002083 99.2589286 31.363125 93.0892857 57.0108333 75.0625 66.7395833 65.2410714 85.3639583 40.4107143 75.1872917 13.3392857 76.5489583 8.30357143 51.1879167 8.44642857 47.8195833 4.6875 43.9227083 0.0535714286 18.2570833"></polygon>
            <path d="M55.4553571,6.315625 L77.3303571,6.01104167 L80.8482143,17.2627083 L64.5089286,20.6310417 C62.1875,17.7016667 58.2142857,15.6502083 52.875,14.593125 L55.4553571,6.315625 Z" id="Path" fill="#696969"></path>
            <path d="M65.2946429,22.2077083 L81.6964286,18.8841667 L98.1071429,31.22875 L78.6428571,40.070625 L62.875,31.87375 C66.0178571,29.4639583 67.0357143,26.256875 65.2946429,22.2077083 Z" id="Path" fill="#0062AC"></path>
            <path d="M45.3035714,36.7470833 C51.3214286,37.35625 56.8660714,36.4514583 61.7142857,33.325 L77.0714286,41.8264583 L66.8660714,58.8114583 L40.8214286,49.2977083 L45.3035714,36.7470833 L45.3035714,36.7470833 Z" id="Path" fill="#0062AC"></path>
            <path d="M11.9464286,32.1425 L30.4464286,28.9085417 C32.4464286,32.384375 36.5089286,34.88375 43.0982143,36.3529167 L38.5357143,49.1454167 L9.41964286,49.5754167 L11.9464286,32.1425 Z" id="Path" fill="#0062AC"></path>
            <path d="M1.03571429,18.6602083 L22.6785714,11.4845833 L33.9642857,17.9972917 C30.7232143,20.4608333 29.0714286,23.461875 29.8392857,27.2422917 L10.7232143,30.6554167 L1.03571429,18.6602083 Z" id="Path" fill="#696969"></path>
            <path d="M35.2678571,0.582291667 L53.6428571,6.05583333 L50.7589286,14.324375 C44.3482143,13.6883333 40.9285714,14.2616667 35.4464286,17.03875 L23.8214286,10.5708333 L35.2678571,0.582291667 Z" id="Path" fill="#696969"></path>
            <polygon id="Path" fill="#424242" points="79.8660714 41.6472917 98.1964286 33.0652083 95.4017857 44.2720833 78.2946429 52.325625"></polygon>
            <polygon id="Path" fill="#424242" points="68.1071429 60.5583333 77.3571429 43.7525 76.0446429 54.4308333 67.0625 70.6722917"></polygon>
            <polygon id="Path" fill="#EF7F1A" points="40.8303571 51.8508333 65.7053571 60.8629167 65.0089286 71.7204167 41.3571429 62.269375"></polygon>
            <polygon id="Path" fill="#651FFF" points="9.84821429 51.6716667 38.125 51.2327083 38.5625 61.7408333 11.9464286 63.2279167"></polygon>
            <polygon id="Path" fill="#696969" points="1.08035714 20.855 10.3303571 32.7158333 9.41964286 39.72125 2.91071429 31.3989583"></polygon>
            <polygon id="Path" fill="#696969" points="78.0982143 54.5204167 95.0267857 46.3325 92.5892857 56.6614583 76.3571429 65.4227083"></polygon>
            <polygon id="Path" fill="#696969" points="67.0625 73.610625 75.6964286 57.5841667 74.2142857 66.865 66.0982143 82.4525"></polygon>
            <polygon id="Path" fill="#696969" points="41.4464286 64.98375 64.7410714 74.2197917 64.1339286 84.0739583 41.7946429 74.9633333"></polygon>
            <polygon id="Path" fill="#696969" points="12.4732143 65.6825 38.4732143 64.4552083 39.0892857 74.6139583 14.3928571 75.9308333"></polygon>
            <polygon id="Path" fill="#696969" points="3.48214286 34.2477083 9.19642857 42.08625 8.5 47.2910417 5.26785714 43.7525"></polygon>
            <path d="M47.9375,15.8472917 C54.1607143,15.8472917 59.5535714,17.979375 62.1517857,21.0789583 L32.2589286,26.7854167 C32.125,26.2927083 32.0625,25.7910417 32.0625,25.289375 C32.0625,20.075625 39.1696429,15.8472917 47.9375,15.8472917 L47.9375,15.8472917 Z M63.1607143,22.6197917 C63.5803571,23.461875 63.8035714,24.3577083 63.8035714,25.289375 C63.8035714,30.503125 56.6964286,34.7314583 47.9375,34.7314583 C41.0178571,34.7314583 35.1339286,32.0977083 32.9553571,28.4247917 L63.1607143,22.6197917 L63.1607143,22.6197917 Z" id="Shape" fill="#696969"></path>
        </g>
    </g>
</svg>