<?xml version="1.0" encoding="UTF-8"?>
<svg width="93px" height="100px" viewBox="0 0 93 100" version="1.1" xmlns="http://www.w3.org/2000/svg" xmlns:xlink="http://www.w3.org/1999/xlink">
    <title>clover_1</title>
    <g id="clover" stroke="none" stroke-width="1" fill="none" fill-rule="evenodd">
        <g id="clover_1" fill-rule="nonzero">
            <path d="M0.159428571,26.5789474 C-0.265714286,22.8947368 1.32857143,19.7105263 4.67657143,18.1315789 L25.7742857,8.13157895 C26.412,6.73684211 26.8637143,5.60526316 27.6874286,3.92105263 C29.6802857,3.60526316 31.1417143,3.60526316 33.4268571,4.5 L39.7508571,1.5 C43.152,-0.131578947 45.9154286,-0.421052632 49.4228571,0.973684211 L56.4111429,3.73684211 C58.218,2.71052632 58.8822857,2.28947368 61.3268571,2.36842105 L63.798,7.31578947 L85.932,16.7368421 C88.6688571,17.8947368 91.2994286,22.2105263 91.0868571,25.6578947 L87.7654286,62.6842105 C87.606,65.2105263 86.9682857,68.0526316 84.3642857,70.2105263 L52.9568571,96.0789474 C49.9542857,98.5526316 45.0651429,98.6578947 42.1954286,96.5789474 L8.39657143,72.2631579 C5.52685714,70.2105263 4.67657143,67.6315789 4.30457143,64.1578947 L0.159428571,26.5789474 Z" id="Path" fill="#000000"></path>
            <path d="M45.5434286,23.5 C48.2802857,23.0789474 53.2225714,28.1052632 53.5945714,33.5263158 C53.8602857,37.4473684 49.6354286,44.7894737 47.4565714,44.7105263 C45.0385714,44.6052632 39.6977143,39.7105263 39.4851429,32.8947368 C39.3522857,28.6052632 42.8065714,23.9473684 45.5434286,23.5 L45.5434286,23.5 Z" id="Path" fill="#FFFFFF"></path>
            <path d="M57.7397143,36.9736842 C58.6165714,33.3157895 57.5802857,28.7894737 56.0125714,25 C63.798,25.9473684 71.0785714,25.2631579 77.5885714,24.5526316 L57.7397143,36.9736842 L57.7397143,36.9736842 Z" id="Path" fill="#FFFFFF"></path>
            <path d="M67.2788571,16.8947368 C66.588,14.3947368 62.2834286,3.42105263 62.124,4.86842105 C61.938,6.28947368 63.9042857,12.2631579 65.6048571,17.3421053 C66.3222857,19.5526316 66.8802857,21.1315789 67.704,23.3421053 L69.1122857,23.2105263 C68.5277143,21.0526316 67.9431429,19.4210526 67.2788571,16.8947368 L67.2788571,16.8947368 Z" id="Path" fill="#FFFFFF"></path>
            <path d="M64.1168571,8.71052632 L65.658,12.4473684 C69.1122857,12.5789474 70.2814286,12.6052632 73.0714286,12.7105263 L64.1168571,8.71052632 L64.1168571,8.71052632 Z" id="Path" fill="#FFFFFF"></path>
            <path d="M35.4462857,39.1315789 C33.6128571,34.1052632 34.9148571,29.6052632 36.0042857,24.8157895 C29.7865714,25.7368421 21.576,26.8684211 15.0394286,26.0789474 L35.4462857,39.1315789 L35.4462857,39.1315789 Z" id="Path" fill="#FFFFFF"></path>
            <path d="M21.7885714,18.4210526 C22.4528571,15.9210526 26.784,4.94736842 26.9434286,6.39473684 C27.1028571,7.81578947 25.1365714,13.7894737 23.4625714,18.8421053 C22.7185714,21.0789474 22.1605714,22.6315789 21.3634286,24.8684211 L19.9551429,24.7368421 C20.5397143,22.5789474 21.0977143,20.9210526 21.7885714,18.4210526 L21.7885714,18.4210526 Z" id="Path" fill="#FFFFFF"></path>
            <path d="M24.924,10.2105263 L23.3828571,13.9736842 C19.9551429,14.1052632 18.7594286,14.1052632 15.9694286,14.2368421 L24.924,10.2105263 L24.924,10.2105263 Z" id="Path" fill="#FFFFFF"></path>
            <path d="M44.9322857,1.55263158 C46.7922857,1.5 49.7948571,5.52631579 50.964,8.15789474 C48.7585714,10.3684211 46.6328571,13.9210526 45.6497143,17.8684211 C44.8791429,14.5 40.6808571,9.47368421 39.1397143,8.18421053 C39.8305714,5.39473684 42.2751429,1.57894737 44.9322857,1.55263158 Z" id="Path" fill="#FFFFFF"></path>
            <path d="M41.7437143,50.7894737 C43.4442857,52.3684211 40.92,60.7894737 35.1805714,61.7631579 C29.4411429,62.7368421 25.11,61 24.3128571,59.6315789 C23.5422857,58.2368421 23.1968571,51.2368421 29.4677143,49.2631579 C35.712,47.2894737 40.0431429,49.1842105 41.7437143,50.7894737 L41.7437143,50.7894737 Z" id="Path" fill="#009846"></path>
            <path d="M12.1962857,31.0526316 C17.7231429,38.4473684 21.7354286,47.5789474 22.1605714,50.2894737 C22.6122857,48.6052632 27.7937143,44.7368421 32.55,43.8157895 L12.1962857,31.0526316 L12.1962857,31.0526316 Z" id="Path" fill="#009846"></path>
            <path d="M2.49771429,27.2105263 C3.82628571,26.4473684 12.1697143,35.7368421 14.7471429,40.9473684 C17.3511429,46.1842105 21.2571429,56.4210526 20.3537143,57.1052632 C19.4502857,57.8157895 11.4257143,49.2105263 8.556,43.9473684 C5.68628571,38.7105263 1.19571429,27.9736842 2.49771429,27.2105263 Z" id="Path" fill="#009846"></path>
            <path d="M43.9757143,61.0789474 C39.432,66.4473684 35.8182857,66.4210526 32.55,66.6052632 C37.3594286,71.3421053 41.3451429,77.3421053 44.3742857,84.6315789 L43.9757143,61.0789474 L43.9757143,61.0789474 Z" id="Path" fill="#009846"></path>
            <path d="M4.836,59.5263158 C5.81914286,56.6578947 9.03428571,54.6578947 12.462,54.5263158 C9.06085714,51.3684211 5.022,43.2894737 2.76342857,38.7105263 L4.836,59.5263158 L4.836,59.5263158 Z" id="Path" fill="#009846"></path>
            <path d="M25.6148571,65.2894737 C26.6245714,64.4210526 36.6685714,75.9473684 38.6614286,79.8157895 C40.6808571,83.7105263 45.4902857,94.7105263 44.3742857,95.2631579 C43.2582857,95.8421053 34.3037143,86.1842105 31.3277143,80.9210526 C28.3782857,75.6842105 24.6051429,66.1578947 25.6148571,65.2894737 L25.6148571,65.2894737 Z" id="Path" fill="#009846"></path>
            <path d="M32.6031429,88.0526316 C28.7237143,82.5526316 25.2428571,76.9473684 23.3031429,71.8421053 C20.6991429,75.6842105 18.414,75.5526316 15.5974286,75.5 L32.6031429,88.0526316 Z" id="Path" fill="#009846"></path>
            <path d="M20.9382857,61.8421053 C21.7088571,63.8947368 20.646,68.3684211 17.5371429,70.4210526 C14.4017143,72.4736842 9.16714286,71.2368421 7.54628571,69.5 C5.89885714,67.7631579 6.82885714,63.4736842 10.0971429,60.5 C13.3654286,57.5263158 20.1677143,59.7631579 20.9382857,61.8421053 L20.9382857,61.8421053 Z" id="Path" fill="#009846"></path>
            <path d="M50.964,49.9210526 C49.7682857,51.5263158 51.4422857,57.6315789 56.4642857,60.3421053 C61.4862857,63.0263158 68.1822857,59.2105263 68.6605714,58.3421053 C69.1654286,57.4736842 69.564,52.5526316 64.6217143,48.9473684 C59.706,45.3421053 52.1597143,48.3421053 50.964,49.9210526 Z" id="Path" fill="#E31E24"></path>
            <path d="M80.91,29.6842105 C75.5425714,36.5526316 72.4071429,42.1052632 70.9722857,48.8421053 C69.6968571,45.4736842 65.0202857,42.6842105 60.7954286,42.3684211 L80.91,29.6842105 L80.91,29.6842105 Z" id="Path" fill="#E31E24"></path>
            <path d="M89.3331429,24.3947368 C88.0577143,23.1315789 80.2722857,33.9210526 77.6948571,39.1315789 C75.0908571,44.3421053 71.7694286,54.8947368 72.54,55.2368421 C73.3371429,55.5789474 80.0862857,47.8421053 82.956,42.6052632 C85.8257143,37.3684211 90.6085714,25.6578947 89.3331429,24.3947368 Z" id="Path" fill="#E31E24"></path>
            <path d="M50.034,62.3947368 C53.2491429,64.8157895 55.614,66.6315789 60.4234286,66.3157895 C57.1551429,70.1578947 51.9737143,80.2631579 50.4591429,84.2105263 L50.034,62.3947368 Z" id="Path" fill="#E31E24"></path>
            <path d="M87.2074286,57.1052632 C85.9851429,54.4210526 82.4245714,52.6842105 79.5814286,52.9736842 C82.1322857,50.0526316 86.7822857,42.7105263 88.9611429,36.7894737 L87.2074286,57.1052632 Z" id="Path" fill="#E31E24"></path>
            <path d="M68.5808571,63.1578947 C66.8537143,62.4736842 58.032,75.4210526 56.0391429,79.3157895 C54.0197143,83.1842105 50.3794286,94.3684211 51.522,94.6315789 C52.638,94.8947368 59.4934286,86.9736842 62.4428571,81.7368421 C65.4188571,76.4736842 70.308,63.8157895 68.5808571,63.1578947 L68.5808571,63.1578947 Z" id="Path" fill="#E31E24"></path>
            <path d="M61.2471429,87.2894737 C65.3125714,81.3684211 68.4745714,76.7631579 69.7765714,70.7631579 C71.2645714,72.8684211 74.3734286,74.6578947 77.6151429,74.2894737 L61.2471429,87.2894737 Z" id="Path" fill="#E31E24"></path>
            <path d="M72.1148571,60.6052632 C71.3708571,62.6842105 72.5665714,67.2631579 75.702,69.3157895 C78.8374286,71.3421053 84.63,69.3947368 85.3208571,67.4473684 C86.0382857,65.5263158 84.7362857,60.6052632 82.1322857,58.7368421 C79.5282857,56.8947368 72.8854286,58.5263158 72.1148571,60.6052632 Z" id="Path" fill="#E31E24"></path>
        </g>
    </g>
</svg>