<?xml version="1.0" encoding="UTF-8"?>
<svg width="93px" height="100px" viewBox="0 0 93 100" version="1.1" xmlns="http://www.w3.org/2000/svg" xmlns:xlink="http://www.w3.org/1999/xlink">
    <title>clover_2_1</title>
    <g id="clover" stroke="none" stroke-width="1" fill="none" fill-rule="evenodd">
        <g id="clover_2_1" fill-rule="nonzero">
            <path d="M0.1395,26.4545455 C-0.279,22.7727273 1.3485,19.6363636 4.743,18.0454545 L25.947,8.13636364 C26.598,6.72727273 27.063,5.59090909 27.8535,3.95454545 C29.853,3.63636364 31.341,3.63636364 33.666,4.5 L39.99,1.54545455 C43.431,-0.0909090909 46.2675,-0.454545455 49.755,1 L86.49,16.6818182 C89.28,17.8181818 91.9305,22.1363636 91.698,25.5454545 L88.35,62.3181818 C88.2105,64.8636364 87.5595,67.6818182 84.909,69.8181818 L53.3355,95.5 C50.2665,98 45.384,98.0909091 42.4545,96 L8.463,71.8636364 C5.58,69.8181818 4.743,67.2272727 4.3245,63.7727273 L0.1395,26.4545455 L0.1395,26.4545455 Z" id="Path" fill="#000000"></path>
            <path d="M46.7325,16.0909091 C50.499,16.1363636 53.8005,28.1818182 54.1725,34.3181818 C54.312,37.0909091 53.1495,41.1818182 51.615,43.4545455 C49.7085,46.2727273 48.639,47.4090909 46.965,49.9090909 C44.9655,46.9545455 43.1985,45.6818182 42.036,42.9545455 C40.9665,40.4545455 39.7575,37.1818182 39.7575,34.7272727 C39.804,29.4545455 42.966,16.0909091 46.7325,16.0909091 L46.7325,16.0909091 Z" id="Path" fill="#E31E24"></path>
            <path d="M58.125,36.7727273 C59.0085,33.1363636 57.9855,28.6363636 56.4045,24.9090909 C64.2165,25.8181818 71.5635,25.1363636 78.12,24.4545455 L58.125,36.7727273 Z" id="Path" fill="#FFFFFF"></path>
            <path d="M68.541,15.7272727 C76.074,15.5454545 85.002,17.5 84.9556809,18.7727273 C84.909,20.0909091 77.5155,21.9545455 69.099,22.5454545 C63.8445,22.9090909 59.985,22.1363636 54.7305,20.8181818 C54.219,20.0454545 53.661,19 52.824,17.9545455 C59.892,16.3636364 63.1935,15.8636364 68.541,15.7272727 L68.541,15.7272727 Z" id="Path" fill="#FFFFFF"></path>
            <path d="M75.1905,13.4090909 C67.053,12.5454545 61.3335,13.2272727 55.5675,14.5909091 C57.102,12.7272727 58.404,9.18181818 55.8,4.59090909 L75.1905,13.4090909 L75.1905,13.4090909 Z" id="Path" fill="#FFFFFF"></path>
            <path d="M35.6655,38.9090909 C33.852,33.9090909 35.154,29.4545455 36.2235,24.6818182 C29.9925,25.6363636 21.7155,26.7272727 15.159,25.9545455 L35.6655,38.9090909 Z" id="Path" fill="#FFFFFF"></path>
            <path d="M21.948,18.3636364 C22.599,15.8636364 26.97,4.95454545 27.1095,6.36363636 C27.2955,7.81818182 25.296,13.7272727 23.622,18.7727273 C22.878,20.9545455 22.32,22.5454545 21.483,24.7272727 L20.088,24.6363636 C20.6925,22.4545455 21.2505,20.8181818 21.948,18.3636364 L21.948,18.3636364 Z" id="Path" fill="#FFFFFF"></path>
            <path d="M25.11,10.1818182 L23.5755,13.9090909 C20.088,14.0454545 18.879,14.0454545 16.089,14.1818182 L25.11,10.1818182 Z" id="Path" fill="#FFFFFF"></path>
            <path d="M45.2445,1.59090909 C47.895,1.54545455 51.7545,6.45454545 51.3825,9.86363636 C51.243,11.5909091 50.6385,13.4090909 49.8015,13.2272727 C48.918,13.0454545 48.1275,10.7272727 46.779,10.7272727 C45.7095,10.7272727 45.198,11.6363636 43.617,13.3636364 C43.152,12.9545455 40.9665,9.63636364 39.3855,8.36363636 C40.083,5.59090909 42.5475,1.63636364 45.2445,1.59090909 Z" id="Path" fill="#FFFFFF"></path>
            <path d="M42.036,50.5 C43.7565,52.0909091 41.199,60.4545455 35.433,61.4090909 C29.6205,62.4090909 25.296,60.6818182 24.5055,59.2727273 C23.6685,57.9090909 23.343,50.9545455 29.667,49 C35.9445,47.0454545 40.3155,48.9090909 42.036,50.5 Z" id="Path" fill="#009846"></path>
            <path d="M12.276,30.9090909 C17.856,38.2727273 21.855,47.3181818 22.32,50 C22.785,48.3181818 27.993,44.5 32.7825,43.5909091 L12.276,30.9090909 Z" id="Path" fill="#009846"></path>
            <path d="M2.511,27.0909091 C3.8595,26.3181818 12.2295,35.5454545 14.8335,40.7272727 C17.4375,45.9090909 21.39,56.0909091 20.5065,56.7727273 C19.5765,57.5 11.4855,48.9545455 8.6025,43.7272727 C5.7195,38.5 1.209,27.8181818 2.511,27.0909091 Z" id="Path" fill="#009846"></path>
            <path d="M44.268,60.7272727 C39.711,66.0909091 36.084,66.0454545 32.7825,66.2272727 C37.6185,70.9545455 41.6175,76.9090909 44.6865,84.1363636 L44.268,60.7272727 L44.268,60.7272727 Z" id="Path" fill="#009846"></path>
            <path d="M4.836,59.1818182 C5.859,56.3636364 9.114,54.3636364 12.555,54.2272727 C9.114,51.0909091 5.0685,43.0909091 2.79,38.5 L4.836,59.1818182 Z" id="Path" fill="#009846"></path>
            <path d="M25.8075,64.9090909 C26.784,64.0454545 36.921,75.5 38.9205,79.3636364 C40.9665,83.2272727 45.8025,94.1363636 44.6865,94.7272727 C43.5705,95.2727273 34.503,85.6818182 31.527,80.4545455 C28.551,75.2272727 24.7845,65.7727273 25.8075,64.9090909 Z" id="Path" fill="#009846"></path>
            <path d="M32.829,87.5454545 C28.923,82.0454545 25.389,76.5 23.4825,71.4090909 C20.832,75.2727273 18.5535,75.0909091 15.717,75.0454545 L32.829,87.5454545 L32.829,87.5454545 Z" id="Path" fill="#009846"></path>
            <path d="M21.0645,61.5 C21.855,63.5454545 20.7855,67.9545455 17.6235,70 C14.508,72.0454545 9.207,70.8181818 7.5795,69.0909091 C5.952,67.4090909 6.882,63.0909091 10.1835,60.1363636 C13.4385,57.1818182 20.3205,59.4090909 21.0645,61.5 L21.0645,61.5 Z" id="Path" fill="#009846"></path>
            <path d="M51.2895,49.6363636 C50.127,51.2272727 51.801,57.3181818 56.823,60 C61.8915,62.6818182 68.634,58.8636364 69.1455,58 C69.6105,57.1363636 70.029,52.2727273 65.0535,48.6818182 C60.1245,45.0909091 52.4985,48.0909091 51.2895,49.6363636 L51.2895,49.6363636 Z" id="Path" fill="#FFFFFF"></path>
            <path d="M81.468,29.5454545 C76.074,36.3636364 72.912,41.8636364 71.4705,48.5909091 C70.1685,45.2272727 65.472,42.4545455 61.194,42.1363636 L81.468,29.5454545 L81.468,29.5454545 Z" id="Path" fill="#E31E24"></path>
            <path d="M89.931,24.2727273 C88.629,23.0454545 80.817,33.7272727 78.213,38.9545455 C75.609,44.1363636 72.261,54.5909091 73.0515,54.9545455 C73.842,55.2727273 80.631,47.5909091 83.514,42.3636364 C86.397,37.1818182 91.233,25.5454545 89.931,24.2727273 Z" id="Path" fill="#E31E24"></path>
            <path d="M50.3595,62.0454545 C53.6145,64.4545455 55.986,66.2727273 60.822,65.9545455 C57.5205,69.7272727 52.3125,79.7727273 50.778,83.7272727 L50.3595,62.0454545 L50.3595,62.0454545 Z" id="Path" fill="#E31E24"></path>
            <path d="M87.792,56.7727273 C86.5365,54.1363636 83.0025,52.4090909 80.1195,52.6818182 C82.677,49.7727273 87.3735,42.5 89.559,36.5909091 L87.792,56.7727273 L87.792,56.7727273 Z" id="Path" fill="#E31E24"></path>
            <path d="M69.0525,62.8181818 C67.332,62.1363636 58.4505,75 56.4045,78.8636364 C54.405,82.6818182 50.7315,93.8181818 51.8475,94.0909091 C53.01,94.3181818 59.892,86.4545455 62.868,81.2727273 C65.844,76.0454545 70.773,63.4545455 69.0525,62.8181818 L69.0525,62.8181818 Z" id="Path" fill="#E31E24"></path>
            <path d="M61.659,86.7727273 C65.751,80.9090909 68.913,76.3181818 70.2615,70.3636364 C71.7495,72.4545455 74.865,74.2272727 78.12,73.8636364 L61.659,86.7727273 L61.659,86.7727273 Z" id="Path" fill="#E31E24"></path>
            <path d="M72.633,60.2727273 C71.8425,62.3181818 73.0515,66.8636364 76.2135,68.9090909 C79.3755,70.9545455 85.188,69 85.8855,67.0909091 C86.6295,65.1363636 85.281,60.2727273 82.677,58.4090909 C80.073,56.5909091 73.377,58.2272727 72.633,60.2727273 L72.633,60.2727273 Z" id="Path" fill="#E31E24"></path>
        </g>
    </g>
</svg>