<?xml version="1.0" encoding="UTF-8"?>
<svg width="93px" height="100px" viewBox="0 0 93 100" version="1.1" xmlns="http://www.w3.org/2000/svg" xmlns:xlink="http://www.w3.org/1999/xlink">
    <title>clover_2_3</title>
    <g id="clover" stroke="none" stroke-width="1" fill="none" fill-rule="evenodd">
        <g id="clover_2_3" fill-rule="nonzero">
            <path d="M0.16275,26.7727273 C-0.25575,23.0681818 1.3485,19.8863636 4.7895,18.2727273 C17.2515,12.4318182 28.737,7.06818182 40.5015,1.54545455 C43.989,-0.0681818182 46.84875,-0.477272727 50.38275,1.02272727 L87.606,16.8863636 L92.83725,25.8636364 L89.466,63.1136364 C89.30325,65.6590909 88.6755,68.5227273 86.00175,70.7045455 L53.9865,96.7272727 C50.9175,99.2272727 45.942,99.3181818 43.0125,97.2272727 L25.6215,84.8636364 L18.43725,86.3863636 C16.01925,83.6818182 15.69375,81.5909091 15.92625,77.9772727 L8.556,72.75 C5.64975,70.6818182 4.7895,68.0909091 4.39425,64.5909091 L0.16275,26.7727273 Z" id="Path" fill="#000000"></path>
            <path d="M46.43025,21.4545455 C49.22025,21.0227273 54.24225,26.0681818 54.6375,31.5227273 C54.89325,35.4772727 50.592,42.8636364 48.38325,42.7727273 C45.91875,42.6818182 40.47825,37.75 40.24575,30.8863636 C40.10625,26.5909091 43.64025,21.8863636 46.43025,21.4545455 Z" id="Path" fill="#009846"></path>
            <path d="M58.869,37.25 C59.77575,33.5681818 58.28775,28.3863636 56.6835,24.5909091 C64.61175,25.5454545 72.47025,25.4545455 79.0965,24.75 L58.869,37.25 L58.869,37.25 Z" id="Path" fill="#FFFFFF"></path>
            <path d="M69.4245,15.7272727 C77.02725,15.6363636 86.97825,17.6136364 86.9085,18.9090909 C86.862,20.2272727 78.3525,22.4318182 69.81975,23.0227273 C63.54225,23.4545455 50.9175,21.1363636 51.057,19.6818182 C51.21975,18.25 61.63575,15.8409091 69.4245,15.7272727 L69.4245,15.7272727 Z" id="Path" fill="#E31E24"></path>
            <path d="M76.1205,13.5681818 C67.91325,12.7045455 61.54275,13.6363636 55.707,15.0454545 C57.21825,13.1363636 58.1715,8.81818182 55.521,4.15909091 L76.1205,13.5681818 Z" id="Path" fill="#FFFFFF"></path>
            <path d="M36.084,38.7045455 C33.8985,33.6363636 35.17725,29.7727273 36.642,24.9545455 C30.29475,25.8863636 21.9945,27.0909091 15.345,26.2727273 L36.084,38.7045455 Z" id="Path" fill="#FFFFFF"></path>
            <path d="M23.45925,16.25 C30.8295,15.8181818 42.222,18 42.2686795,19.4545455 C42.315,20.7954545 33.31725,23.2272727 24.1335,23.4090909 C15.08925,23.5909091 5.92875,21.5681818 6.0915,20.2045455 C6.231,18.9772727 16.06575,16.6590909 23.45925,16.25 Z" id="Path" fill="#FFFFFF"></path>
            <path d="M36.10725,4.65909091 C34.4565,8 35.13075,12.3181818 36.828,14.8636364 C31.0155,14.2954545 22.80825,13.2727273 16.182,14.3636364 L36.10725,4.65909091 Z" id="Path" fill="#FFFFFF"></path>
            <path d="M45.63975,0.977272727 C47.6625,1.13636364 52.28925,5.29545455 52.0335,10 C51.894,12.8409091 48.174,17.3181818 46.38375,17.3637636 C44.733,17.3863636 39.45525,14.3636364 39.59475,8.5 C39.68775,4.63636364 43.64025,0.840909091 45.63975,0.977272727 L45.63975,0.977272727 Z" id="Path" fill="#FFFFFF"></path>
            <path d="M42.57075,51.1363636 C44.29125,52.75 41.7105,61.2045455 35.8515,62.1818182 C30.01575,63.1818182 25.59825,61.4318182 24.80775,60.0454545 C23.994,58.6590909 23.6685,51.6136364 30.039,49.6136364 C36.4095,47.6363636 40.827,49.5454545 42.57075,51.1363636 Z" id="Path" fill="#E31E24"></path>
            <path d="M12.43875,31.2954545 C18.06525,38.7272727 22.15725,47.9318182 22.57575,50.6363636 C23.064,48.9318182 28.34175,45.0681818 33.17775,44.1363636 L12.43875,31.2954545 Z" id="Path" fill="#009846"></path>
            <path d="M2.5575,27.4318182 C3.906,26.6590909 12.39225,36 15.04275,41.25 C17.67,46.5 21.669,56.8181818 20.739,57.5 C19.83225,58.2045455 11.64825,49.5454545 8.71875,44.2727273 C5.78925,39 1.209,28.1818182 2.5575,27.4318182 L2.5575,27.4318182 Z" id="Path" fill="#009846"></path>
            <path d="M44.84925,61.4772727 C40.19925,66.9090909 36.52575,66.8636364 33.17775,67.0454545 C38.0835,71.8181818 42.129,77.8863636 45.2445,85.2045455 L44.84925,61.4772727 L44.84925,61.4772727 Z" id="Path" fill="#009846"></path>
            <path d="M4.929,59.9545455 C5.92875,57.0681818 9.207,55.0454545 12.6945,54.9090909 C9.23025,51.7272727 5.115,43.6136364 2.81325,39 L4.929,59.9545455 L4.929,59.9545455 Z" id="Path" fill="#009846"></path>
            <path d="M36.828,81.4090909 C23.55225,84.9318182 22.0875,85.3863636 20.94825,85.5 C17.60025,85.7954545 50.10375,77.8863636 36.828,81.4090909 Z" id="Path" fill="#FFFFFF"></path>
            <path d="M33.22425,88.6363636 C31.87575,86.6590909 31.341,85.8636364 29.87625,83.7272727 L27.27225,84.2954545 L33.22425,88.6363636 L33.22425,88.6363636 Z" id="Path" fill="#009846"></path>
            <path d="M21.3435,62.25 C22.134,64.3409091 21.0645,68.8409091 17.87925,70.8863636 C14.67075,72.9545455 9.3465,71.7045455 7.69575,69.9772727 C6.02175,68.2272727 6.975,63.9090909 10.29975,60.9090909 C13.6245,57.9318182 20.57625,60.1818182 21.3435,62.25 L21.3435,62.25 Z" id="Path" fill="#009846"></path>
            <path d="M47.616,47.4772727 C47.802,48.4545455 48.61575,51.6818182 50.47575,55.7954545 C51.59175,58.3181818 55.59075,59.7045455 57.567,60.75 C62.682,63.4772727 74.98125,63.9545455 75.49275,63.0681818 C75.981,62.2045455 70.9125,52.9090909 65.8905,49.2954545 C63.44925,47.5454545 59.07825,44.5227273 55.3815,45.4090909 C51.615,46.2727273 48.47625,47.0681818 47.616,47.4772727 Z" id="Path" fill="#FFFFFF"></path>
            <path d="M82.46775,29.9090909 C77.004,36.8409091 73.81875,42.4090909 72.354,49.1818182 C71.052,45.7954545 66.28575,43 61.9845,42.6818182 L82.46775,29.9090909 Z" id="Path" fill="#E31E24"></path>
            <path d="M91.07025,24.5909091 C89.76825,23.3181818 81.84,34.1818182 79.1895,39.4318182 C76.56225,44.6818182 73.1445,55.2954545 73.95825,55.6363636 C74.772,55.9772727 81.654,48.1818182 84.56025,42.9090909 C87.48975,37.6363636 92.37225,25.8636364 91.07025,24.5909091 Z" id="Path" fill="#E31E24"></path>
            <path d="M51.0105,62.8181818 C54.28875,65.2727273 56.6835,67.0909091 61.58925,66.7727273 C58.2645,70.6363636 52.9635,80.7954545 51.429,84.7727273 L51.0105,62.8181818 L51.0105,62.8181818 Z" id="Path" fill="#E31E24"></path>
            <path d="M88.908,57.5 C87.6525,54.7954545 84.0255,53.0681818 81.1425,53.3409091 C83.7465,50.4090909 88.46625,43.0227273 90.69825,37.0681818 L88.908,57.5 L88.908,57.5 Z" id="Path" fill="#E31E24"></path>
            <path d="M66.3555,66.4772727 C63.0075,70.4090909 58.497,77.2045455 57.12525,79.8409091 C55.07925,83.75 51.35925,95 52.52175,95.25 C53.661,95.5227273 60.65925,87.5681818 63.6585,82.2727273 C65.7975,78.5454545 68.913,71.0909091 69.936,66.7954545 C67.425,66.6136364 68.14575,66.7045455 66.3555,66.4772727 L66.3555,66.4772727 Z" id="Path" fill="#E31E24"></path>
            <path d="M62.42625,87.8636364 C66.588,81.9090909 69.7965,77.2727273 71.145,71.2272727 C72.65625,73.3636364 75.81825,75.1590909 79.11975,74.7954545 L62.42625,87.8636364 Z" id="Path" fill="#E31E24"></path>
            <path d="M74.121,66.9545455 C74.74875,68.0681818 76.074,69.0681818 77.16675,69.7727273 C80.37525,71.8409091 86.42025,69.5454545 87.141,67.6136364 C87.86175,65.6590909 86.5365,61.3409091 83.886,59.4545455 C82.491,58.4772727 79.7475,58.1590909 77.53875,58.7045455 C80.28225,62.8863636 80.817,66.2727273 74.121,66.9545455 L74.121,66.9545455 Z" id="Path" fill="#E31E24"></path>
        </g>
    </g>
</svg>