<?xml version="1.0" encoding="UTF-8"?>
<svg width="93px" height="100px" viewBox="0 0 93 100" version="1.1" xmlns="http://www.w3.org/2000/svg" xmlns:xlink="http://www.w3.org/1999/xlink">
    <title>clover_3_4</title>
    <g id="clover" stroke="none" stroke-width="1" fill="none" fill-rule="evenodd">
        <g id="clover_3_4" fill-rule="nonzero">
            <path d="M0.105,25.641791 C-0.15,21.8507463 0.12,19.7910448 3.585,18.2238806 L39.99,1.68656716 C43.5,0.104477612 46.11,-0.656716418 49.665,0.850746269 L86.385,16.3880597 C89.175,17.5671642 92.085,20.4477612 91.86,23.9850746 L88.995,67.4328358 C88.83,70.0298507 87.99,72.9253731 85.11,74.8507463 L51.285,97.4179104 C47.955,99.641791 44.505,99.0447761 41.445,97.1044776 L6.645,74.9701493 C3.6,73.0298507 3.12,70.3432836 2.88,66.761194 L0.105,25.641791 L0.105,25.641791 Z" id="Path" fill="#000000"></path>
            <path d="M45.855,20.2686567 C47.82,19.9850746 54.285,23.5970149 54.63,29.9104478 C54.99,36.2238806 49.17,40.4029851 46.5,40.3880995 C43.815,40.3731343 38.13,35.1641791 38.1598817,29.7313433 C38.19,24.2835821 43.905,20.5373134 45.855,20.2686567 Z" id="Path" fill="#696969"></path>
            <path d="M56.385,36.3134328 C58.845,30.0149254 58.41,27.9552239 53.67,22.3134328 C62.715,23.7761194 68.745,24.2238806 80.265,23.0447761 L56.385,36.3134328 Z" id="Path" fill="#696969"></path>
            <path d="M67.875,14.7761194 C75.495,14.5820896 87.705,16.9104478 87.6452203,18.238806 C87.585,19.5820896 78.96,22.1492537 68.745,22.2238806 C58.53,22.3134328 48.795,20.0597015 48.915,18.5671642 C49.035,17.0597015 60.27,14.9552239 67.875,14.7761194 L67.875,14.7761194 Z" id="Path" fill="#FFFFFF"></path>
            <path d="M79.275,14.0298507 C68.04,13.3731343 62.04,13.2238806 53.16,15.1791045 C56.145,12.1044776 57.3,9.08955224 54.435,3.52238806 L79.275,14.0298507 L79.275,14.0298507 Z" id="Path" fill="#696969"></path>
            <path d="M37.17,36.2238806 C33.285,29.9701493 35.745,24.9850746 38.73,22.3134328 C33.525,23.8507463 21.765,25.2238806 11.445,23.4626866 L37.17,36.2238806 Z" id="Path" fill="#696969"></path>
            <path d="M24.165,15.4179104 C31.83,15.3134328 42.51,17.2835821 42.69,18.7462687 C42.855,20.2238806 31.98,23.0149254 24.15,22.9104478 C16.335,22.8059701 5.025,21.7164179 4.23,19.6567164 C3.435,17.6119403 16.5,15.5074627 24.165,15.4179104 L24.165,15.4179104 Z" id="Path" fill="#FFFFFF"></path>
            <path d="M37.395,3.47761194 C35.22,7.46268657 33.855,10.5820896 38.82,15.4179104 C30.075,13.5223881 23.235,13.3880597 12.915,14.4477612 L37.395,3.47761194 Z" id="Path" fill="#696969"></path>
            <path d="M45.9,0.597014925 C48.615,0.552238806 53.64,5.43283582 53.31,8.95522388 C52.965,12.4925373 48.66,17.3880597 45.99,17.3731684 C43.32,17.3731684 38.55,13.1641791 38.34,8.82089552 C38.145,4.47761194 43.2,0.641791045 45.9,0.597014925 Z" id="Path" fill="#696969"></path>
            <path d="M43.5,45.3731343 C45.54,47.6268657 42.645,57.0746269 37.515,59.8507463 C32.385,62.6119403 25.905,61.1492537 24.15,59.6268657 C22.395,58.119403 23.85,49.4776119 28.875,45.7910448 C33.9,42.1044776 41.46,43.119403 43.5,45.3731343 L43.5,45.3731343 Z" id="Path" fill="#FFFFFF"></path>
            <path d="M9.375,27.5373134 C14.325,33.880597 20.04,42.2089552 21.93,51.4925373 C23.595,47.6865672 24.825,41.5074627 34.725,40.6119403 L9.375,27.5373134 Z" id="Path" fill="#696969"></path>
            <path d="M1.575,24.0149254 C3.555,23.0298507 13.41,34.8358209 16.05,40.1791045 C18.69,45.5223881 22.68,56.761194 20.925,57.5671642 C19.185,58.3880597 10.56,48.8358209 7.635,43.4626866 C4.71,38.0746269 -0.405,25 1.575,24.0149254 Z" id="Path" fill="#696969"></path>
            <path d="M43.905,57.2686567 C40.2,63.5074627 36.72,64.8208955 29.4,64.2835821 C38.28,72.2686567 40.47,79.880597 44.1,86.7313433 L43.905,57.2686567 L43.905,57.2686567 Z" id="Path" fill="#696969"></path>
            <path d="M3.42,63.2686567 C5.055,59.4925373 6.87,55.5820896 15.48,55.761194 C7.71,47.641791 5.985,43.7164179 1.515,33.7164179 L3.42,63.2686567 Z" id="Path" fill="#696969"></path>
            <path d="M24.015,62.4328358 C26.07,61.5373134 36.855,75.6268657 38.895,79.6119403 C40.935,83.5820896 45.345,95.4925373 43.365,96.1791045 C41.385,96.8507463 32.445,86.4328358 29.43,81.0597015 C26.415,75.6716418 21.945,63.3283582 24.015,62.4328358 Z" id="Path" fill="#696969"></path>
            <path d="M35.415,92 C30.105,86.3432836 23.52,73.641791 22.695,68.1044776 C20.76,74.8507463 17.61,76.880597 11.49,77.0298507 L35.415,92 Z" id="Path" fill="#696969"></path>
            <path d="M21.105,61.0597015 C21.9,63.1791045 19.89,70.880597 16.695,72.9701493 C13.5,75.0746269 6.18,74.641791 4.935,71.9402985 C3.69,69.2238806 5.37,63.1492537 8.7,60.1044776 C12.015,57.0597015 20.325,58.9402985 21.105,61.0597015 L21.105,61.0597015 Z" id="Path" fill="#696969"></path>
            <path d="M50.4,45.7313433 C48.345,47.9850746 50.88,57.1791045 56.01,59.9402985 C61.14,62.7164179 67.395,60.9253731 69.15,59.4029851 C70.89,57.880597 69.675,49.5671642 64.65,45.880597 C59.625,42.1940299 52.44,43.4776119 50.4,45.7313433 L50.4,45.7313433 Z" id="Path" fill="#696969"></path>
            <path d="M83.295,27.2537313 C78.36,33.5970149 72.915,41.6119403 71.025,50.9104478 C69.36,47.0895522 68.775,41.3283582 58.875,40.4328358 L83.295,27.2537313 L83.295,27.2537313 Z" id="Path" fill="#696969"></path>
            <path d="M90.645,23.5074627 C88.665,22.5223881 79.74,34.0597015 77.085,39.4029851 C74.445,44.7462687 70.365,56.3432836 72.12,57.1641791 C73.86,57.9701493 82.26,47.9253731 85.185,42.5373134 C88.11,37.1641791 92.625,24.4925373 90.645,23.5074627 Z" id="Path" fill="#696969"></path>
            <path d="M49.56,57.2686567 C53.265,63.5074627 56.28,64.641791 63.585,64.1044776 C54.72,72.0895522 52.665,79.7462687 49.035,86.5970149 L49.56,57.2686567 Z" id="Path" fill="#696969"></path>
            <path d="M88.8,61.8059701 C87.165,58.0298507 84.375,54.7462687 77.16,55.761194 C84.93,47.641791 85.965,44.7761194 90.42,34.7761194 L88.8,61.8059701 Z" id="Path" fill="#696969"></path>
            <path d="M68.895,62.5223881 C66.825,61.6268657 56.055,75.7313433 54.015,79.7014925 C51.96,83.6716418 47.52,95.358209 49.5,96.0447761 C51.48,96.7164179 60.465,86.5223881 63.48,81.1492537 C66.495,75.7761194 70.965,63.4179104 68.895,62.5223881 L68.895,62.5223881 Z" id="Path" fill="#696969"></path>
            <path d="M57.96,91.3134328 C63.27,85.6567164 69.405,73.4626866 70.23,67.9253731 C72.15,74.6716418 74.715,76.3880597 80.835,76.5373134 L57.96,91.3134328 Z" id="Path" fill="#696969"></path>
            <path d="M71.985,60.7462687 C71.205,62.8656716 72.72,70.1044776 75.9,72.1940299 C79.095,74.2985075 86.46,73.6268657 87.705,70.9253731 C88.95,68.2238806 87.465,62.9701493 84.135,59.9253731 C80.805,56.880597 72.78,58.6119403 71.985,60.7462687 L71.985,60.7462687 Z" id="Path" fill="#696969"></path>
        </g>
    </g>
</svg>