<?xml version="1.0" encoding="UTF-8"?>
<svg width="172px" height="100px" viewBox="0 0 172 100" version="1.1" xmlns="http://www.w3.org/2000/svg" xmlns:xlink="http://www.w3.org/1999/xlink">
    <title>container_1_6</title>
    <g id="container" stroke="none" stroke-width="1" fill="none" fill-rule="evenodd">
        <g id="container_1_6" fill-rule="nonzero">
            <path d="M4.95,12.9 L34.71,0.62 C35.6577669,0.270336429 36.6516595,0.0614505128 37.66,0 C38.36,0 39.4,0.2 40.78,0.62 L72.5,11.93 C73.7281347,12.9446247 74.7732674,14.1622551 75.59,15.53 C76.3220261,16.8772192 76.7967847,18.3489709 76.99,19.87 L72.5,72.07 C72.31,73.09 71.97,74.07 71.46,75.01 C70.9053842,76.0234888 70.2268404,76.9640447 69.44,77.81 L43.92,98.78 C42.399874,99.5708663 40.7135146,99.9890286 39,100.000052 C37.3593922,100.005434 35.7459314,99.5813836 34.32,98.77 L6.13,78.17 C5.62130151,77.6656346 5.21991484,77.0635545 4.95,76.4 C4.5892816,75.560674 4.33076062,74.6810312 4.18,73.78 L1,21.04 C0.940073798,19.4930701 1.27020105,17.9559151 1.96,16.57 C2.67,15.11 3.66,13.89 4.94,12.9 L4.95,12.9 Z" id="Path" fill="#000000"></path>
            <polygon id="Path" fill="#FFFFFF" points="6.53 14.53 37.73 1.45 71.33 14.53 40.64 31.41"></polygon>
            <polygon id="Path" fill="#009A0E" points="4.2 21.8 19 55.26 34.6 37.42"></polygon>
            <polygon id="Path" fill="#009A0E" points="3.04 30.52 5.33 70.12 15.43 58.5"></polygon>
            <polygon id="Path" fill="#009A0E" points="21.67 60.71 37.74 43.31 36.61 93.08"></polygon>
            <polygon id="Path" fill="#009A0E" points="17.95 65 8 75.18 30.39 92.39"></polygon>
            <polygon id="Path" fill="#D0021B" points="46.13 36.71 74.18 21 60.17 54.98"></polygon>
            <polygon id="Path" fill="#D0021B" points="44.02 43.31 56.91 59.48 42.64 92.72"></polygon>
            <polygon id="Path" fill="#D0021B" points="61.06 63.66 49.34 91.08 69.02 74.34"></polygon>
            <polygon id="Path" fill="#D0021B" points="74.18 32.85 63.61 58.16 71.06 69.01"></polygon>
            <path d="M103.88,24.25 L129.94,2.35 C130.887267,1.692494 131.990898,1.29587667 133.14,1.2 C134.42627,1.09372018 135.72056,1.25720943 136.94,1.68 L167.52,13.51 C168.504401,14.3297835 169.342916,15.310304 170,16.41 C170.664004,17.7076317 171.039262,19.1336142 171.1,20.59 L167.52,57.36 L171.82,66.54 C172.106581,68.5033149 171.98746,70.5045446 171.47,72.42 C170.865654,74.2136006 169.864077,75.847573 168.54,77.2 L137.3,97 C135.947157,97.906491 134.427775,98.5353182 132.83,98.85 C131.41,99.09 129.3,98.72 126.48,97.75 L95.85,74.2 C94.8479509,73.0584753 93.9634829,71.81888 93.21,70.5 C92.64,69.45 92.26,67.72 92.07,65.32 L101.11,29 C101.315132,28.1177803 101.652263,27.2715804 102.11,26.49 C102.595883,25.6666544 103.191324,24.913103 103.88,24.25 Z" id="Path" fill="#000000"></path>
            <polygon id="Path" fill="#009A0E" points="131.83 4.32 129.97 31.78 117.11 28.26"></polygon>
            <polygon id="Path" fill="#009A0E" points="104.97 25.34 125.51 7.61 113.11 27.01"></polygon>
            <polygon id="Path" fill="#009A0E" points="96.23 61.93 114.78 32.85 128.16 37.33"></polygon>
            <polygon id="Path" fill="#009A0E" points="102.95 29.2 96.46 53.76 109.59 31.23"></polygon>
            <polygon id="Path" fill="#FF8100" points="136.88 5.1 136.88 31.63 149.03 28.77"></polygon>
            <polygon id="Path" fill="#FF8100" points="140.47 38.18 152.5 35.3 168.28 64.05"></polygon>
            <polygon id="Path" fill="#D0021B" points="168.24 32.51 161.89 47.01 166.14 55.16"></polygon>
            <polygon id="Path" fill="#FFFFFF" points="98.23 71.07 133.38 45.61 166.74 73.23 131.24 96.54"></polygon>
            <line x1="167.5" y1="18.37" x2="153.6" y2="28.9" id="Path" stroke="#979797" fill="#FFFFFF"></line>
            <path d="M29.83,77.45 L39.76,76.92 C40.1172656,76.9021367 40.4569226,77.0762293 40.6510255,77.3766987 C40.8451283,77.6771682 40.8641882,78.058366 40.7010255,78.3766987 C40.5378627,78.6950315 40.2172656,78.9021367 39.86,78.92 L26.12,79.65 C25.7574905,79.6694283 25.4129242,79.4908684 25.2197727,79.1834874 C25.0266211,78.8761065 25.0152255,78.4881893 25.19,78.17 L31.7,66.05 C31.8679148,65.7338199 32.1917546,65.531239 32.5495319,65.5185675 C32.9073093,65.505896 33.2446694,65.685059 33.4345319,65.9885675 C33.6243945,66.292076 33.6379148,66.67382 33.47,66.99 L28.75,75.76 L35.57,71.44 C45.67,64.04 52.47,55.26 55.97,45.08 C60.44,32.09 59.19,21.48 52.27,13.12 C52.0158166,12.8481883 51.9335955,12.4577122 52.0565868,12.1064802 C52.1795782,11.7552483 52.4874351,11.5013663 52.8556601,11.4475042 C53.2238851,11.3936422 53.5915612,11.5487107 53.81,11.85 C61.21,20.78 62.54,32.12 57.86,45.73 C54.22,56.32 47.17,65.43 36.69,73.09 L29.83,77.45 L29.83,77.45 Z" id="Path" fill="#979797"></path>
        </g>
    </g>
</svg>