<?xml version="1.0" encoding="UTF-8"?>
<svg width="78px" height="100px" viewBox="0 0 78 100" version="1.1" xmlns="http://www.w3.org/2000/svg" xmlns:xlink="http://www.w3.org/1999/xlink">
    <title>container_5_2</title>
    <g id="container" stroke="none" stroke-width="1" fill="none" fill-rule="evenodd">
        <g id="container_5_2" fill-rule="nonzero">
            <path d="M4.8,16.32 L33.45,1.72 C36.0614852,0.194104491 39.2369134,-0.020551495 42.03,1.14 L72.38,14.19 C74.39,15.59 75.65,16.74 76.16,17.61 C77.93,20.65 77.82,23.54 77.82,23.54 L73.28,72.18 C73.0323193,73.5421807 72.5591601,74.8535077 71.88,76.06 C71.167347,77.3339424 70.2672969,78.4935574 69.21,79.5 L45.15,98.38 C43.5269286,99.1430693 41.7534537,99.5326187 39.96,99.5202971 C38.2136014,99.4689849 36.5039081,99.0064427 34.97,98.17 L8.88,79.7 C8.10067624,79.0178633 7.43263152,78.218234 6.9,77.33 C6.38162834,76.2457447 6.13780445,75.0506642 6.19,73.85 L6.19,70.35 C4.13,71.46 2.73,71.91 1.98,71.69 C1.23,71.48 0.8,70.49 0.7,68.75 L0.24,25.5 C0.256062675,23.7831212 0.666638001,22.0929194 1.44,20.56 C2.24,18.96 3.34,17.55 4.79,16.31 L4.8,16.32 Z" id="Path" fill="#000000"></path>
            <polygon id="Path" fill="#FFDB11" points="6.06 18.33 38.14 1.9 72.21 17.34 40.4 36.29"></polygon>
            <polygon id="Path" fill="#D0021B" points="3.61 24.84 3.61 67.52 34.09 43.31"></polygon>
            <polygon id="Path" fill="#D0021B" points="8.97 76.17 18.43 66.28 30.88 91.08"></polygon>
            <polygon id="Path" fill="#D0021B" points="22.81 62.53 36.99 48.76 36.99 92.72"></polygon>
            <polygon id="Path" fill="#009A0E" points="43.62 48.76 43.62 92.24 56.26 62.06"></polygon>
            <polygon id="Path" fill="#009A0E" points="45.9 42.55 73.05 25.15 59.35 57.43"></polygon>
            <polygon id="Path" fill="#009A0E" points="63.81 61.39 73.82 34.69 71.86 70.42"></polygon>
            <polygon id="Path" fill="#009A0E" points="61.26 66.6 50.59 90.75 68.79 75.02"></polygon>
        </g>
    </g>
</svg>