<?xml version="1.0" encoding="UTF-8"?>
<svg width="176px" height="100px" viewBox="0 0 176 100" version="1.1" xmlns="http://www.w3.org/2000/svg" xmlns:xlink="http://www.w3.org/1999/xlink">
    <title>container_1_3</title>
    <g id="container" stroke="none" stroke-width="1" fill="none" fill-rule="evenodd">
        <g id="container_1_3" transform="translate(0.000000, 0.000000)" fill-rule="nonzero">
            <path d="M4.95,12.9 L34.71,0.62 C35.6577669,0.270336429 36.6516595,0.0614505128 37.66,0 C38.36,0 39.4,0.2 40.78,0.62 L72.5,11.93 C73.7281347,12.9446247 74.7732674,14.1622551 75.59,15.53 C76.3220261,16.8772192 76.7967847,18.3489709 76.99,19.87 L72.5,72.07 C72.31,73.09 71.97,74.07 71.46,75.01 C70.9053842,76.0234888 70.2268404,76.9640447 69.44,77.81 L43.92,98.78 C42.399874,99.5708663 40.7135146,99.9890286 39,100.000052 C37.3593922,100.005434 35.7459314,99.5813836 34.32,98.77 L6.13,78.17 C5.62130151,77.6656346 5.21991484,77.0635545 4.95,76.4 C4.5892816,75.560674 4.33076062,74.6810312 4.18,73.78 L1,21.04 C0.940073798,19.4930701 1.27020105,17.9559151 1.96,16.57 C2.67,15.11 3.66,13.89 4.94,12.9 L4.95,12.9 Z" id="Path" fill="#000000"></path>
            <polygon id="Path" fill="#FFFFFF" points="6.53 14.53 37.73 1.45 71.33 14.53 40.64 31.41"></polygon>
            <polygon id="Path" fill="#009A0E" points="4.2 21.8 19 55.26 34.6 37.42"></polygon>
            <polygon id="Path" fill="#009A0E" points="3.04 30.52 5.33 70.12 15.43 58.5"></polygon>
            <polygon id="Path" fill="#009A0E" points="21.67 60.71 37.74 43.31 36.61 93.08"></polygon>
            <polygon id="Path" fill="#009A0E" points="17.95 65 8 75.18 30.39 92.39"></polygon>
            <polygon id="Path" fill="#D0021B" points="46.13 36.71 75.46 20.64 60.17 54.98"></polygon>
            <polygon id="Path" fill="#D0021B" points="44.02 43.31 56.91 59.48 42.64 92.72"></polygon>
            <polygon id="Path" fill="#D0021B" points="61.06 63.66 49.34 91.08 69.02 74.34"></polygon>
            <polygon id="Path" fill="#D0021B" points="74.18 32.85 63.61 58.16 71.06 69.01"></polygon>
            <path d="M97.1,13.33 L127.43,1.13 C128.707394,1.0235596 129.991926,1.21880833 131.18,1.7 C132.358146,2.14070479 133.409252,2.86548685 134.24,3.81 L139.82,14.28 L164.5,13.88 C166.35361,14.3832806 168.134864,15.1226689 169.8,16.08 C171.05,16.85 172.12,18.39 173,20.68 L175.72,64.08 C175.47,66.99 174.89,69.03 173.97,70.19 C173.07,71.35 171.44,72.29 169.12,72.99 L167.25,72.99 L135.1,98.11 C133.839015,98.5652551 132.518535,98.8347409 131.18,98.91 C129.895865,98.8410076 128.630493,98.5710616 127.43,98.11 L98.57,74.75 C96.9468831,73.7439028 95.4980081,72.4807809 94.28,71.01 C93.2348061,69.6372089 92.4733425,68.0700898 92.04,66.4 L93.5,19.4 C93.7054494,18.220256 94.1330207,17.0902462 94.76,16.07 C95.3645149,15.0202911 96.1578399,14.091355 97.1,13.33 L97.1,13.33 Z" id="Path" fill="#000000"></path>
            <polygon id="Path" fill="#009A0E" points="101.26 73.97 122.2 90.1 114.66 73.97"></polygon>
            <polygon id="Path" fill="#D0021B" points="96.29 21.96 95.34 63.62 125.65 41.85"></polygon>
            <polygon id="Path" fill="#D0021B" points="101.23 67.13 131.72 45.58 163.61 67.13"></polygon>
            <polygon id="Path" fill="#D0021B" points="102.87 18.25 131.31 37.45 161.11 16.94"></polygon>
            <polygon id="Path" fill="#D0021B" points="137.32 40.05 168.92 62.19 167.12 18.98"></polygon>
            <line x1="131.5" y1="73.5" x2="131.5" y2="93.5" id="Path" stroke="#979797" fill="#D0021B"></line>
            <line x1="129.5" y1="5.5" x2="129.5" y2="13.5" id="Path" stroke="#979797" fill="#D0021B"></line>
            <path d="M31.74,12.78 L22.2,15.6 C21.694599,15.6957278 21.1990169,15.392428 21.0542941,14.8988195 C20.9095712,14.4052111 21.1629218,13.8823289 21.64,13.69 L34.84,9.79 C35.1833093,9.69019116 35.5537861,9.78125876 35.811699,10.0288552 C36.069612,10.2764516 36.1757189,10.6429044 36.09,10.99 L32.57,24.31 C32.4039413,24.8117382 31.8761309,25.0976314 31.3651654,24.9626094 C30.8541999,24.8275875 30.5365216,24.3182749 30.64,23.8 L33.18,14.18 L27.53,19.98 C24.13,24.45 22.53,28.72 22.67,32.81 C22.9,39.41 29.31,53.61 41.87,75.17 C42.1184017,75.6448504 41.9483237,76.2311063 41.4843602,76.4992932 C41.0203968,76.7674802 40.427496,76.6222526 40.14,76.17 C27.4,54.3 20.92,39.95 20.67,32.89 C20.52,28.29 22.3,23.56 25.98,18.74 L26.06,18.64 L31.74,12.79 L31.74,12.78 Z" id="Path" stroke="#979797" fill="#9B9B9B"></path>
        </g>
    </g>
</svg>