<?xml version="1.0" encoding="UTF-8"?>
<svg width="178px" height="100px" viewBox="0 0 178 100" version="1.1" xmlns="http://www.w3.org/2000/svg" xmlns:xlink="http://www.w3.org/1999/xlink">
    <title>container_1_10</title>
    <g id="container" stroke="none" stroke-width="1" fill="none" fill-rule="evenodd">
        <g id="container_1_10" fill-rule="nonzero">
            <path d="M4.95,12.9 L34.71,0.62 C35.6577669,0.270336429 36.6516595,0.0614505128 37.66,0 C38.36,0 39.4,0.2 40.78,0.62 L72.5,11.93 C73.7281347,12.9446247 74.7732674,14.1622551 75.59,15.53 C76.3220261,16.8772192 76.7967847,18.3489709 76.99,19.87 L72.5,72.07 C72.31,73.09 71.97,74.07 71.46,75.01 C70.9053842,76.0234888 70.2268404,76.9640447 69.44,77.81 L43.92,98.78 C42.399874,99.5708663 40.7135146,99.9890286 39,100.000052 C37.3593922,100.005434 35.7459314,99.5813836 34.32,98.77 L6.13,78.17 C5.62130151,77.6656346 5.21991484,77.0635545 4.95,76.4 C4.5892816,75.560674 4.33076062,74.6810312 4.18,73.78 L1,21.04 C0.940073798,19.4930701 1.27020105,17.9559151 1.96,16.57 C2.67,15.11 3.66,13.89 4.94,12.9 L4.95,12.9 Z" id="Path" fill="#000000"></path>
            <polygon id="Path" fill="#FFFFFF" points="6.53 14.53 37.73 1.45 71.33 14.53 40.64 31.41"></polygon>
            <polygon id="Path" fill="#009A0E" points="4.2 21.8 19 55.26 34.6 37.42"></polygon>
            <polygon id="Path" fill="#009A0E" points="3.04 30.52 5.33 70.12 15.43 58.5"></polygon>
            <polygon id="Path" fill="#009A0E" points="21.67 60.71 37.74 43.31 36.61 93.08"></polygon>
            <polygon id="Path" fill="#009A0E" points="17.95 65 8 75.18 30.39 92.39"></polygon>
            <polygon id="Path" fill="#D0021B" points="46.13 36.71 74.18 21 60.17 54.98"></polygon>
            <polygon id="Path" fill="#D0021B" points="44.02 43.31 56.91 59.48 42.64 92.72"></polygon>
            <polygon id="Path" fill="#D0021B" points="61.06 63.66 49.34 91.08 69.02 74.34"></polygon>
            <polygon id="Path" fill="#D0021B" points="74.18 32.85 63.61 58.16 71.06 69.01"></polygon>
            <path d="M107.53,12.47 L133.33,4.12 C134.891618,3.42318797 136.580042,3.05554745 138.29,3.04 C139.91,3.04 141.54,3.4 143.17,4.12 L173.16,15.16 C175.04,16.39 176.35,17.65 177.08,18.92 C177.829422,20.2821576 178.117133,21.8505325 177.9,23.39 L171.42,62.79 L174.48,65.43 C175.321659,66.0630093 175.989114,66.8990486 176.42,67.86 C176.715391,68.759708 176.715391,69.730292 176.42,70.63 L174.48,79.69 C173.756376,80.5876193 172.858288,81.3292218 171.84,81.87 C170.548497,82.4832179 169.128881,82.778114 167.7,82.73 L107,81.87 C105.608665,81.5068948 104.351697,80.7499363 103.38,79.69 L95.17,69.51 C94.0689397,68.4218366 93.2161291,67.1085083 92.67,65.66 C92.2121699,64.0959085 92.1063033,62.4498536 92.36,60.84 L96.81,21.62 C97.2375619,20.6210463 97.8403917,19.7066416 98.59,18.92 C99.1687488,18.3860357 99.9140291,18.0681436 100.7,18.02 L103.38,18.42 C103.35739,17.2744381 103.655251,16.1453383 104.24,15.16 C104.82,14.22 105.91,13.32 107.54,12.47 L107.53,12.47 Z" id="Path" fill="#000000"></path>
            <polygon id="Path" fill="#FFFFFF" points="108.1 15.27 138.45 4.8 171.77 16.95 138.17 29.52"></polygon>
            <polygon id="Path" fill="#FF8100" points="102.43 22.15 99.06 58.13 129.53 40.14"></polygon>
            <polygon id="Path" fill="#FF8100" points="136.37 43.37 102.85 62.92 166.1 62.92"></polygon>
            <polygon id="Path" fill="#D0021B" points="142 36.6 174.66 23.91 159.67 54.75"></polygon>
            <polygon id="Path" fill="#D0021B" points="174.5 34.38 163.43 57.57 169.67 61.91"></polygon>
            <polygon id="Path" fill="#009A0E" points="107.77 70.59 136.81 75.72 165.86 70.59"></polygon>
            <polygon id="Path" fill="#009A0E" points="136.85 78.45 119.78 81.4 156.04 82.01"></polygon>
            <polygon id="Path" fill="#009A0E" points="142.72 77.02 171.61 71.89 170.06 80.68"></polygon>
            <polygon id="Path" fill="#009A0E" points="99.87 72.03 131.16 77.06 106.92 80.73"></polygon>
            <path d="M52.1,76.64 L51.15,66.74 C51.1142734,66.3845207 51.2709066,66.0369844 51.5608974,65.8283046 C51.8508882,65.6196249 52.2301801,65.5815051 52.5558975,65.7283046 C52.8816148,65.8751042 53.1042735,66.1845207 53.14,66.54 L54.46,80.24 C54.4960322,80.6001381 54.3346525,80.9516376 54.0380455,81.1590551 C53.7414385,81.3664726 53.3559039,81.3974306 53.03,81.24 L40.63,75.26 C40.2980767,75.1108223 40.0733932,74.7931083 40.0433492,74.4304453 C40.0133053,74.0677823 40.1826439,73.7174264 40.4854943,73.5156624 C40.7883447,73.3138984 41.1768938,73.29258 41.5,73.46 L50.46,77.78 L45.87,71.19 C43.1891617,67.8573709 40.2464756,64.7441427 37.07,61.88 C31.11,56.5 21.23,49.17 7.44,39.9 C6.98160366,39.5907205 6.86072054,38.9683963 7.17,38.51 C7.47927946,38.0516037 8.10160366,37.9307205 8.56,38.24 C22.42,47.56 32.36,54.94 38.41,60.39 C41.6822277,63.3421964 44.7119751,66.5525247 47.47,69.99 L52.1,76.64 L52.1,76.64 Z" id="Path" fill="#FFFFFF"></path>
        </g>
    </g>
</svg>