<?xml version="1.0" encoding="UTF-8"?>
<svg width="172px" height="100px" viewBox="0 0 172 100" version="1.1" xmlns="http://www.w3.org/2000/svg" xmlns:xlink="http://www.w3.org/1999/xlink">
    <title>container_1_4</title>
    <g id="container" stroke="none" stroke-width="1" fill="none" fill-rule="evenodd">
        <g id="container_1_4" fill-rule="nonzero">
            <path d="M4.95,12.9 L34.71,0.62 C35.6577669,0.270336429 36.6516595,0.0614505128 37.66,0 C38.36,0 39.4,0.2 40.78,0.62 L72.5,11.93 C73.7281347,12.9446247 74.7732674,14.1622551 75.59,15.53 C76.3220261,16.8772192 76.7967847,18.3489709 76.99,19.87 L72.5,72.07 C72.31,73.09 71.97,74.07 71.46,75.01 C70.9053842,76.0234888 70.2268404,76.9640447 69.44,77.81 L43.92,98.78 C42.399874,99.5708663 40.7135146,99.9890286 39,100.000052 C37.3593922,100.005434 35.7459314,99.5813836 34.32,98.77 L6.13,78.17 C5.62130151,77.6656346 5.21991484,77.0635545 4.95,76.4 C4.5892816,75.560674 4.33076062,74.6810312 4.18,73.78 L1,21.04 C0.940073798,19.4930701 1.27020105,17.9559151 1.96,16.57 C2.67,15.11 3.66,13.89 4.94,12.9 L4.95,12.9 Z" id="Path" fill="#000000"></path>
            <polygon id="Path" fill="#FFFFFF" points="6.53 14.53 37.73 1.45 71.33 14.53 40.64 31.41"></polygon>
            <polygon id="Path" fill="#009A0E" points="4.2 21.8 19 55.26 34.6 37.42"></polygon>
            <polygon id="Path" fill="#009A0E" points="3.04 30.52 5.33 70.12 15.43 58.5"></polygon>
            <polygon id="Path" fill="#009A0E" points="21.67 60.71 37.74 43.31 36.61 93.08"></polygon>
            <polygon id="Path" fill="#009A0E" points="17.95 65 8 75.18 30.39 92.39"></polygon>
            <polygon id="Path" fill="#D0021B" points="46.13 36.71 75.46 20.64 60.17 54.98"></polygon>
            <polygon id="Path" fill="#D0021B" points="44.02 43.31 56.91 59.48 42.64 92.72"></polygon>
            <polygon id="Path" fill="#D0021B" points="61.06 63.66 49.34 91.08 69.02 74.34"></polygon>
            <polygon id="Path" fill="#D0021B" points="74.18 32.85 63.61 58.16 71.06 69.01"></polygon>
            <path d="M95.51,13.5 L125.41,1.84 C126.633226,1.37509174 127.948509,1.20383099 129.25,1.34 C130.483197,1.52256916 131.647862,2.02220352 132.63,2.79 L157.32,24.64 C158.227697,25.3869962 159.028511,26.2551059 159.7,27.22 C160.288449,28.1346046 160.727292,29.137192 161,30.19 L172,64.64 C172,66.45 171.74,68.14 171.21,69.7 C170.622806,71.3764182 169.779475,72.9517622 168.71,74.37 L135.55,98.54 C133.94,99.34 132.45,99.75 131.08,99.75 C129.7,99.75 128.38,99.35 127.1,98.55 L96.06,77.2 C94.5136292,75.8384737 93.3196583,74.1229982 92.58,72.2 C91.96,70.44 91.96,68.09 92.58,65.13 L95.05,59.37 L93.02,19 C93.2466193,16.9531955 94.1227346,15.0327506 95.52,13.52 L95.51,13.5 Z" id="Path" fill="#000000"></path>
            <polygon id="Path" fill="#009A0E" points="95 30.54 96.03 57.83 101.84 46.61"></polygon>
            <polygon id="Path" fill="#025AC1" points="96.14 63.33 110.81 34.84 125.85 37.45"></polygon>
            <polygon id="Path" fill="#025AC1" points="126.4 6.25 127.24 31.22 114.23 28.98"></polygon>
            <polygon id="Path" fill="#D0021B" points="138.45 37.41 149.91 33.3 167.8 62.85"></polygon>
            <polygon id="Path" fill="#D0021B" points="135.24 32.05 131.68 4.34 146.7 28.5"></polygon>
            <polygon id="Path" fill="#D0021B" points="137.96 9.64 150.59 27.3 156.17 26.04"></polygon>
            <polygon id="Path" fill="#D0021B" points="154.34 32.03 159.6 30.59 166.62 52.86"></polygon>
            <polygon id="Path" fill="#FFFFFF" points="97.23 73.62 131.9 45.46 165.72 71.84 131.48 97.38"></polygon>
            <polygon id="Path" fill="#979797" points="95.43 18.54 96.07 17.77 110.53 29.61 109.9 30.38"></polygon>
            <path d="M44.47,72.18 L41.11,62.81 C40.9249846,62.2880909 41.1980909,61.7150154 41.72,61.53 C42.2419091,61.3449846 42.8149846,61.6180909 43,62.14 L47.65,75.1 C47.7730007,75.4400713 47.7028132,75.8200552 47.4664434,76.0937466 C47.2300735,76.367438 46.8643535,76.4921891 46.51,76.42 L33.02,73.66 C32.6698797,73.5885469 32.384475,73.3357345 32.2712951,72.9967949 C32.1581152,72.6578553 32.2343547,72.2842814 32.4712951,72.0167949 C32.7082355,71.7493084 33.0698797,71.6285469 33.42,71.7 L43.17,73.7 L36.99,68.33 C28.76,60.02 23.33,50.37 20.71,39.42 C17.27,24.98 17.27,15.41 20.88,10.59 C21.0943594,10.3041875 21.4449147,10.1544453 21.7996152,10.1971797 C22.1543158,10.2399141 22.4592741,10.4686328 22.5996152,10.7971797 C22.7399564,11.1257266 22.6943594,11.5041875 22.48,11.79 C19.34,15.97 19.34,25.07 22.66,38.95 C25.1873877,49.5386126 30.6255037,59.2094534 38.36,66.87 L44.48,72.18 L44.47,72.18 Z" id="Path" fill="#9B9B9B"></path>
        </g>
    </g>
</svg>