<?xml version="1.0" encoding="UTF-8"?>
<svg width="172px" height="100px" viewBox="0 0 172 100" version="1.1" xmlns="http://www.w3.org/2000/svg" xmlns:xlink="http://www.w3.org/1999/xlink">
    <title>container_1_7</title>
    <g id="container" stroke="none" stroke-width="1" fill="none" fill-rule="evenodd">
        <g id="container_1_7" fill-rule="nonzero">
            <path d="M4.95,12.9 L34.71,0.62 C35.6577669,0.270336429 36.6516595,0.0614505128 37.66,0 C38.36,0 39.4,0.2 40.78,0.62 L72.5,11.93 C73.7281347,12.9446247 74.7732674,14.1622551 75.59,15.53 C76.3220261,16.8772192 76.7967847,18.3489709 76.99,19.87 L72.5,72.07 C72.31,73.09 71.97,74.07 71.46,75.01 C70.9053842,76.0234888 70.2268404,76.9640447 69.44,77.81 L43.92,98.78 C42.399874,99.5708663 40.7135146,99.9890286 39,100.000052 C37.3593922,100.005434 35.7459314,99.5813836 34.32,98.77 L6.13,78.17 C5.62130151,77.6656346 5.21991484,77.0635545 4.95,76.4 C4.5892816,75.560674 4.33076062,74.6810312 4.18,73.78 L1,21.04 C0.940073798,19.4930701 1.27020105,17.9559151 1.96,16.57 C2.67,15.11 3.66,13.89 4.94,12.9 L4.95,12.9 Z" id="Path" fill="#000000"></path>
            <polygon id="Path" fill="#FFFFFF" points="6.53 14.53 37.73 1.45 71.33 14.53 40.64 31.41"></polygon>
            <polygon id="Path" fill="#009A0E" points="4.2 21.8 19 55.26 34.6 37.42"></polygon>
            <polygon id="Path" fill="#009A0E" points="3.04 30.52 5.33 70.12 15.43 58.5"></polygon>
            <polygon id="Path" fill="#009A0E" points="21.67 60.71 37.74 43.31 36.61 93.08"></polygon>
            <polygon id="Path" fill="#009A0E" points="17.95 65 8 75.18 30.39 92.39"></polygon>
            <polygon id="Path" fill="#D0021B" points="46.13 36.71 74.18 21 60.17 54.98"></polygon>
            <polygon id="Path" fill="#D0021B" points="44.02 43.31 56.91 59.48 42.64 92.72"></polygon>
            <polygon id="Path" fill="#D0021B" points="61.06 63.66 49.34 91.08 69.02 74.34"></polygon>
            <polygon id="Path" fill="#D0021B" points="74.18 32.85 63.61 58.16 71.06 69.01"></polygon>
            <path d="M97.45,12.47 L124.31,1.49 C125.895895,0.628668344 127.657054,0.139647452 129.46,0.06 C130.96,0.06 132.56,0.35 134.24,0.91 L162.84,10.31 C164.78,11.19 166.11,12.21 166.8,13.37 C167.5,14.52 167.63,15.92 167.2,17.57 L155.96,29.21 L162.66,28.21 L171.75,64.56 C171.97,66.46 171.87,67.94 171.45,68.99 C171.02,70.04 169.89,71.76 168.05,74.14 L135.94,98.5 C134.33,99.4 133.09,99.88 132.23,99.95 C131.48,100.01 130.3,99.72 128.7,99.08 L94.9,75.36 C93.6314854,74.7797399 92.6862617,73.6659879 92.32,72.32 C91.67,70.17 92.95,68.99 92.95,68.99 L96.63,65.21 L92.06,20.48 C92.26,18.45 92.69,16.98 93.31,16.08 C93.94,15.17 95.31,13.96 97.44,12.47 L97.45,12.47 Z" id="Path" fill="#000000"></path>
            <polygon id="Path" fill="#FFFFFF" points="98.14 14.57 129.2 1.25 163.02 12.87 131.67 29.13"></polygon>
            <polygon id="Path" fill="#009A0E" points="94.91 21.61 124.63 35.54 108.79 50.79"></polygon>
            <polygon id="Path" fill="#009A0E" points="94.91 31.36 97.9 63.88 106.53 56.2"></polygon>
            <polygon id="Path" fill="#009A0E" points="136.88 34.98 149.77 32.65 168.28 61.3"></polygon>
            <polygon id="Path" fill="#009A0E" points="154.22 32.01 161.68 30.57 167.15 53.24"></polygon>
            <polygon id="Path" fill="#FFDB11" points="131.49 40.74 97.23 72.13 132.29 96.83 165.79 70.07"></polygon>
            <path d="M65.87,39.23 L55.93,39.51 C55.5727344,39.520718 55.2368894,39.3400229 55.0489746,39.0359808 C54.8610597,38.7319387 54.8496238,38.3507408 55.0189746,38.0359807 C55.1883253,37.7212207 55.5127344,37.520718 55.87,37.51 L69.63,37.12 C69.9933113,37.1075257 70.3347755,37.2931948 70.5218078,37.6049153 C70.7088401,37.9166358 70.7119768,38.3053014 70.53,38.62 L63.72,50.58 C63.5431535,50.8908211 63.2139196,51.0836851 62.8563174,51.0859421 C62.4987153,51.0881991 62.1670731,50.8995062 61.9863174,50.5909421 C61.8055617,50.282378 61.8031535,49.9008211 61.98,49.59 L66.9,40.94 L59.98,45.1 C55.9058067,48.0519113 52.0918742,51.3472828 48.58,54.95 C41.1061568,62.6147387 34.0620608,70.6870724 27.48,79.13 C27.1274253,79.5168101 26.5362319,79.5663216 26.1242304,79.2435433 C25.7122289,78.9207651 25.6188121,78.334903 25.91,77.9 C32.5355236,69.3978399 39.6263592,61.2687511 47.15,53.55 C50.7617214,49.8456423 54.6862702,46.459757 58.88,43.43 L65.88,39.23 L65.87,39.23 Z" id="Path" fill="#FFFFFF"></path>
        </g>
    </g>
</svg>