<?xml version="1.0" encoding="UTF-8"?>
<svg width="177px" height="100px" viewBox="0 0 177 100" version="1.1" xmlns="http://www.w3.org/2000/svg" xmlns:xlink="http://www.w3.org/1999/xlink">
    <title>container_1_5</title>
    <g id="container" stroke="none" stroke-width="1" fill="none" fill-rule="evenodd">
        <g id="container_1_5" fill-rule="nonzero">
            <path d="M4.95,12.9 L34.71,0.62 C35.6577669,0.270336429 36.6516595,0.0614505128 37.66,0 C38.36,0 39.4,0.2 40.78,0.62 L72.5,11.93 C73.7281347,12.9446247 74.7732674,14.1622551 75.59,15.53 C76.3220261,16.8772192 76.7967847,18.3489709 76.99,19.87 L72.5,72.07 C72.31,73.09 71.97,74.07 71.46,75.01 C70.9053842,76.0234888 70.2268404,76.9640447 69.44,77.81 L43.92,98.78 C42.399874,99.5708663 40.7135146,99.9890286 39,100.000052 C37.3593922,100.005434 35.7459314,99.5813836 34.32,98.77 L6.13,78.17 C5.62130151,77.6656346 5.21991484,77.0635545 4.95,76.4 C4.5892816,75.560674 4.33076062,74.6810312 4.18,73.78 L1,21.04 C0.940073798,19.4930701 1.27020105,17.9559151 1.96,16.57 C2.67,15.11 3.66,13.89 4.94,12.9 L4.95,12.9 Z" id="Path" fill="#000000"></path>
            <polygon id="Path" fill="#FFFFFF" points="6.53 14.53 37.73 1.45 71.33 14.53 40.64 31.41"></polygon>
            <polygon id="Path" fill="#009A0E" points="4.2 21.8 19 55.26 34.6 37.42"></polygon>
            <polygon id="Path" fill="#009A0E" points="3.04 30.52 5.33 70.12 15.43 58.5"></polygon>
            <polygon id="Path" fill="#009A0E" points="21.67 60.71 37.74 43.31 36.61 93.08"></polygon>
            <polygon id="Path" fill="#009A0E" points="17.95 65 8 75.18 30.39 92.39"></polygon>
            <polygon id="Path" fill="#D0021B" points="46.13 36.71 75.46 20.64 60.17 54.98"></polygon>
            <polygon id="Path" fill="#D0021B" points="44.02 43.31 56.91 59.48 42.64 92.72"></polygon>
            <polygon id="Path" fill="#D0021B" points="61.06 63.66 49.34 91.08 69.02 74.34"></polygon>
            <polygon id="Path" fill="#D0021B" points="74.18 32.85 63.61 58.16 71.06 69.01"></polygon>
            <path d="M123.91,14.26 L129.34,3.66 C130.022783,2.61077027 131.070262,1.85188256 132.28,1.53 C133.6,1.13 135.09,1.04 136.78,1.26 L168.59,13.13 C169.668766,14.0431985 170.617559,15.099656 171.41,16.27 C172.258172,17.5549278 172.880467,18.9753827 173.25,20.47 L176.72,64.19 C176.262149,66.2450354 175.357393,68.1740417 174.07,69.84 C173.012249,71.1695449 171.606992,72.1802217 170.01,72.76 L166.44,73.46 L140.12,97.16 C138.54,97.95 137.12,98.46 135.87,98.69 C134.62,98.92 132.85,98.62 130.58,97.8 L97.74,74.8 C96.09,73.8 94.8,72.67 93.88,71.42 C92.929198,70.1066337 92.2866118,68.5958726 92,67 L93.3,20.05 C93.6480097,18.900388 94.27695,17.855591 95.13,17.01 C95.83,16.41 97.17,15.73 99.16,15.01 L123.91,14.26 L123.91,14.26 Z" id="Path" fill="#000000"></path>
            <polygon id="Path" fill="#009A0E" points="104.61 18.16 135.38 37.95 164.88 17.06"></polygon>
            <polygon id="Path" fill="#009A0E" points="141.04 41.53 170.2 20.39 173.38 63.52"></polygon>
            <polygon id="Path" fill="#009A0E" points="134.98 45.82 104.34 67.6 165.79 66.44"></polygon>
            <polygon id="Path" fill="#009A0E" points="99.24 21.17 129.4 41.19 98.58 63.79"></polygon>
            <polygon id="Path" fill="#D0021B" points="152.44 74.03 145.64 88.74 161.76 73.59"></polygon>
            <line x1="133.34" y1="4.61" x2="133.63" y2="12.71" id="Path" stroke="#979797" fill="#D0021B"></line>
            <line x1="136.24" y1="95.39" x2="135.37" y2="77.17" id="Path" stroke="#979797" fill="#D0021B"></line>
            <path d="M49.62,13.19 L48.55,23.09 C48.5089145,23.4454793 48.2813039,23.7520368 47.9529071,23.8941953 C47.6245102,24.0363538 47.2452184,23.9925161 46.9579071,23.7791953 C46.6705958,23.5658745 46.5189144,23.2154793 46.56,22.86 L48.05,9.18 C48.0881818,8.82101048 48.316893,8.51047084 48.6483952,8.36751053 C48.9798973,8.22455023 49.3627183,8.27136663 49.65,8.49 L60.58,16.87 C60.8640261,17.087932 61.0102118,17.4408356 60.9634902,17.7957755 C60.9167686,18.1507154 60.6842379,18.4537676 60.3534902,18.5907755 C60.0227425,18.7277833 59.6440261,18.677932 59.36,18.46 L51.46,12.4 L54.66,19.87 C58.77,30.52 60.23,38.38 58.98,43.55 C57.4,50.09 50.62,63.4 38.6,83.6 C38.4210729,83.913992 38.0866521,84.1070131 37.7252641,84.104898 C37.363876,84.1027478 37.0317566,83.9057933 36.8565477,83.5897115 C36.6813388,83.2736296 36.6903049,82.8876063 36.88,82.58 C48.79,62.56 55.52,49.35 57.04,43.08 C58.17,38.41 56.77,30.88 52.81,20.62 L49.62,13.19 L49.62,13.19 Z" id="Path" fill="#979797"></path>
        </g>
    </g>
</svg>