<?xml version="1.0" encoding="UTF-8"?>
<svg width="77px" height="100px" viewBox="0 0 77 100" version="1.1" xmlns="http://www.w3.org/2000/svg" xmlns:xlink="http://www.w3.org/1999/xlink">
    <title>container_3_1</title>
    <g id="container" stroke="none" stroke-width="1" fill="none" fill-rule="evenodd">
        <g id="container_3_1" fill-rule="nonzero">
            <path d="M4.95,12.9 L34.71,0.62 C35.6577669,0.270336429 36.6516595,0.0614505128 37.66,0 C38.36,0 39.4,0.2 40.78,0.62 L72.5,11.93 C73.7281347,12.9446247 74.7732674,14.1622551 75.59,15.53 C76.3220261,16.8772192 76.7967847,18.3489709 76.99,19.87 L72.5,72.07 C72.31,73.09 71.97,74.07 71.46,75.01 C70.9053842,76.0234888 70.2268404,76.9640447 69.44,77.81 L43.92,98.78 C42.399874,99.5708663 40.7135146,99.9890286 39,100.000052 C37.3593922,100.005434 35.7459314,99.5813836 34.32,98.77 L6.13,78.17 C5.62130151,77.6656346 5.21991484,77.0635545 4.95,76.4 C4.5892816,75.560674 4.33076062,74.6810312 4.18,73.78 L1,21.04 C0.940073798,19.4930701 1.27020105,17.9559151 1.96,16.57 C2.67,15.11 3.66,13.89 4.94,12.9 L4.95,12.9 Z" id="Path" fill="#000000"></path>
            <polygon id="Path" fill="#696969" points="6.53 14.53 37.73 1.45 71.33 14.53 40.64 31.41"></polygon>
            <polygon id="Path" fill="#696969" points="4.2 21.8 19 55.26 34.6 37.42"></polygon>
            <polygon id="Path" fill="#696969" points="3.04 30.52 5.33 70.12 15.43 58.5"></polygon>
            <polygon id="Path" fill="#696969" points="21.67 60.71 37.74 43.31 36.61 93.08"></polygon>
            <polygon id="Path" fill="#D0021B" points="17.95 65 8 75.18 30.39 92.39"></polygon>
            <polygon id="Path" fill="#696969" points="46.13 36.71 75.46 20.64 60.17 54.98"></polygon>
            <polygon id="Path" fill="#696969" points="44.02 43.31 56.91 59.48 42.64 92.72"></polygon>
            <polygon id="Path" fill="#009A0E" points="61.06 63.66 49.34 91.08 69.02 74.34"></polygon>
            <polygon id="Path" fill="#696969" points="74.18 32.85 63.61 58.16 71.06 69.01"></polygon>
            <path d="M38.97,17.07 L34.1,25.74 C33.9249399,26.0526074 33.5964036,26.2480751 33.2381476,26.2527722 C32.8798915,26.2574694 32.5463434,26.0706825 32.3631476,25.7627722 C32.1799517,25.454862 32.1749399,25.0726074 32.35,24.76 L39.1,12.76 C39.2761188,12.4416842 39.6112105,12.2441229 39.975,12.2441229 C40.3387895,12.2441229 40.6738812,12.4416842 40.85,12.76 L47.6,24.76 C47.8706195,25.2432492 47.6982492,25.8543805 47.215,26.125 C46.7317508,26.3956195 46.1206195,26.2232492 45.85,25.74 L40.97,17.07 L40.97,64.93 L45.85,56.26 C46.1206195,55.7767509 46.7317508,55.6043805 47.215,55.875 C47.6982491,56.1456195 47.8706195,56.7567508 47.6,57.24 L40.85,69.24 C40.6738812,69.5583158 40.3387895,69.7558771 39.975,69.7558771 C39.6112105,69.7558771 39.2761188,69.5583158 39.1,69.24 L32.35,57.24 C32.0793805,56.7567508 32.2517509,56.1456195 32.735,55.875 C33.2182492,55.6043805 33.8293805,55.7767509 34.1,56.26 L38.97,64.93 L38.97,17.07 Z" id="Path" fill="#FFFFFF"></path>
            <path d="M11.07,53.5 L19.74,58.38 C20.072159,58.5437971 20.2865922,58.8777574 20.297305,59.2479525 C20.3080179,59.6181475 20.113256,59.9639493 19.7911249,60.1466805 C19.4689938,60.3294117 19.07225,60.3191459 18.76,60.12 L6.76,53.37 C6.44668955,53.1924388 6.25305172,52.860127 6.25305172,52.5 C6.25305172,52.139873 6.44668955,51.8075612 6.76,51.63 L18.76,44.88 C19.07225,44.6808541 19.4689938,44.6705883 19.7911249,44.8533195 C20.113256,45.0360507 20.3080179,45.3818525 20.297305,45.7520475 C20.2865922,46.1222426 20.072159,46.4562029 19.74,46.62 L11.07,51.5 L65.95,51.5 L57.28,46.62 C56.947841,46.4562029 56.7334078,46.1222426 56.722695,45.7520475 C56.7119821,45.3818525 56.906744,45.0360507 57.2288751,44.8533195 C57.5510062,44.6705883 57.94775,44.6808541 58.26,44.88 L70.26,51.63 C70.5733105,51.8075612 70.7669483,52.139873 70.7669483,52.5 C70.7669483,52.860127 70.5733105,53.1924388 70.26,53.37 L58.26,60.12 C57.7837542,60.3548504 57.2069985,60.1765255 56.9464156,59.7138579 C56.6858326,59.2511903 56.8322996,58.6655331 57.28,58.38 L65.95,53.5 L11.07,53.5 Z" id="Path" fill="#FFFFFF"></path>
        </g>
    </g>
</svg>