<?xml version="1.0" encoding="UTF-8"?>
<svg width="100px" height="99px" viewBox="0 0 100 99" version="1.1" xmlns="http://www.w3.org/2000/svg" xmlns:xlink="http://www.w3.org/1999/xlink">
    <title>container_5_1</title>
    <g id="container" stroke="none" stroke-width="1" fill="none" fill-rule="evenodd">
        <g id="container_5_1" fill-rule="nonzero">
            <path d="M9.28,3.71 L50,0.14 C52.16,0.14 53.83,0.39 55,0.89 C56.5257713,1.62759733 57.9397326,2.57697131 59.2,3.71 L69.58,16 L82.81,11 C84.2154778,10.7481998 85.6545222,10.7481998 87.06,11 C88.2527952,11.3120627 89.3534986,11.9052766 90.27,12.73 L99.14,41.65 C99.6632799,44.5159784 99.8977869,47.4272153 99.84,50.34 C99.7376566,52.856771 99.3004776,55.3486911 98.54,57.75 L88.66,86.97 C87.62,89.06 86.5,90.47 85.3,91.22 C84.09,91.97 82.52,92.22 80.58,91.98 L67.18,84.67 L55.44,95.72 C53.6797676,96.5042025 51.8608858,97.1495043 50,97.65 C48.4463145,98.0468598 46.8530261,98.2682431 45.25,98.31 L4.92,91.97 C3.23,91.77 2.12,91.2 1.57,90.23 C1.02,89.26 1.02,87.87 1.57,86.04 L13.45,63.8 L3.12,52.32 C1.47698967,51.0034428 0.529542025,49.0053236 0.549675373,46.9 C0.549675373,44.75 1.41,42.7 3.12,40.77 L15.4,30.52 L4.92,11 C4.7,9.07 4.93,7.55 5.61,6.43 C6.28,5.3 7.5,4.4 9.28,3.7 L9.28,3.71 Z" id="Path" fill="#000000"></path>
            <polygon id="Path" fill="#FFDB11" points="6.47 45.76 52.54 6.22 94.47 50.42 50 92.06"></polygon>
            <polygon id="Path" fill="#696969" points="72.68 18.93 85.61 13.99 95.34 43.75"></polygon>
            <polygon id="Path" fill="#696969" points="94.86 58.7 82.88 88 70.91 80.78"></polygon>
            <polygon id="Path" fill="#696969" points="17.04 66.31 5.62 86.96 43.16 93.87"></polygon>
            <polygon id="Path" fill="#696969" points="9 9.21 19.34 28.41 45.09 5.79"></polygon>
        </g>
    </g>
</svg>