<?xml version="1.0" encoding="UTF-8"?>
<svg width="178px" height="100px" viewBox="0 0 178 100" version="1.1" xmlns="http://www.w3.org/2000/svg" xmlns:xlink="http://www.w3.org/1999/xlink">
    <title>container_1_8</title>
    <g id="container" stroke="none" stroke-width="1" fill="none" fill-rule="evenodd">
        <g id="container_1_8" fill-rule="nonzero">
            <path d="M4.95,12.9 L34.71,0.62 C35.6577669,0.270336429 36.6516595,0.0614505128 37.66,0 C38.36,0 39.4,0.2 40.78,0.62 L72.5,11.93 C73.7281347,12.9446247 74.7732674,14.1622551 75.59,15.53 C76.3220261,16.8772192 76.7967847,18.3489709 76.99,19.87 L72.5,72.07 C72.31,73.09 71.97,74.07 71.46,75.01 C70.9053842,76.0234888 70.2268404,76.9640447 69.44,77.81 L43.92,98.78 C42.399874,99.5708663 40.7135146,99.9890286 39,100.000052 C37.3593922,100.005434 35.7459314,99.5813836 34.32,98.77 L6.13,78.17 C5.62130151,77.6656346 5.21991484,77.0635545 4.95,76.4 C4.5892816,75.560674 4.33076062,74.6810312 4.18,73.78 L1,21.04 C0.940073798,19.4930701 1.27020105,17.9559151 1.96,16.57 C2.67,15.11 3.66,13.89 4.94,12.9 L4.95,12.9 Z" id="Path" fill="#000000"></path>
            <polygon id="Path" fill="#FFFFFF" points="6.53 14.53 37.73 1.45 71.33 14.53 40.64 31.41"></polygon>
            <polygon id="Path" fill="#009A0E" points="4.2 21.8 19 55.26 34.6 37.42"></polygon>
            <polygon id="Path" fill="#009A0E" points="3.04 30.52 5.33 70.12 15.43 58.5"></polygon>
            <polygon id="Path" fill="#009A0E" points="21.67 60.71 37.74 43.31 36.61 93.08"></polygon>
            <polygon id="Path" fill="#009A0E" points="17.95 65 8 75.18 30.39 92.39"></polygon>
            <polygon id="Path" fill="#D0021B" points="46.13 36.71 74.18 21 60.17 54.98"></polygon>
            <polygon id="Path" fill="#D0021B" points="44.02 43.31 56.91 59.48 42.64 92.72"></polygon>
            <polygon id="Path" fill="#D0021B" points="61.06 63.66 49.34 91.08 69.02 74.34"></polygon>
            <polygon id="Path" fill="#D0021B" points="74.18 32.85 63.61 58.16 71.06 69.01"></polygon>
            <path d="M162.47,12.47 L136.67,4.12 C135.108382,3.42318797 133.419958,3.05554745 131.71,3.04 C130.09,3.04 128.46,3.4 126.83,4.12 L96.84,15.16 C94.96,16.39 93.65,17.65 92.92,18.92 C92.1705779,20.2821576 91.8828671,21.8505325 92.1,23.39 L98.58,62.79 L95.52,65.43 C94.6783412,66.0630093 94.010886,66.8990486 93.58,67.86 C93.2846086,68.759708 93.2846086,69.730292 93.58,70.63 L95.52,79.69 C96.2436241,80.5876193 97.1417116,81.3292218 98.16,81.87 C99.451503,82.4832179 100.871119,82.778114 102.3,82.73 L163,81.87 C164.391335,81.5068948 165.648303,80.7499363 166.62,79.69 L174.83,69.51 C175.93106,68.4218366 176.783871,67.1085083 177.33,65.66 C177.78783,64.0959085 177.893697,62.4498536 177.64,60.84 L173.19,21.62 C172.762438,20.6210463 172.159608,19.7066416 171.41,18.92 C170.831251,18.3860357 170.085971,18.0681436 169.3,18.02 L166.62,18.42 C166.64261,17.2744381 166.344749,16.1453383 165.76,15.16 C165.18,14.22 164.09,13.32 162.46,12.47 L162.47,12.47 Z" id="Path" fill="#000000"></path>
            <polygon id="Path" fill="#FFFFFF" points="163.03 14.91 131 4.46 98.24 16.95 131.84 29.52"></polygon>
            <polygon id="Path" fill="#025AC1" points="167.57 22.15 170.94 58.13 140.47 40.14"></polygon>
            <polygon id="Path" fill="#025AC1" points="133.63 43.37 167.15 62.92 103.9 62.92"></polygon>
            <polygon id="Path" fill="#009A0E" points="128 36.6 95.34 23.91 110.32 54.75"></polygon>
            <polygon id="Path" fill="#009A0E" points="95.5 34.38 106.57 57.57 100.32 61.91"></polygon>
            <polygon id="Path" fill="#D0021B" points="162.24 70.59 133.19 75.72 104.15 70.59"></polygon>
            <polygon id="Path" fill="#D0021B" points="133.16 78.45 150.23 81.4 113.97 82.01"></polygon>
            <polygon id="Path" fill="#D0021B" points="127.28 77.02 98.39 71.89 99.94 80.68"></polygon>
            <polygon id="Path" fill="#D0021B" points="170.13 72.03 138.84 77.06 163.08 80.73"></polygon>
            <path d="M29.13,78.94 L37.77,74 C38.0806628,73.7865419 38.4849598,73.7659033 38.8157443,73.9466169 C39.1465287,74.1273305 39.3475961,74.4786906 39.3358199,74.855436 C39.3240438,75.2321813 39.101425,75.5702981 38.76,75.73 L26.81,82.58 C26.4953014,82.7619768 26.1066358,82.7588401 25.7949153,82.5718078 C25.4831948,82.3847755 25.2975257,82.0433113 25.31,81.68 L25.67,67.92 C25.6789316,67.5627344 25.8777837,67.2373724 26.1916506,67.0664746 C26.5055175,66.8955768 26.8867154,66.9051068 27.1916506,67.0914746 C27.4965859,67.2778424 27.6789316,67.6127344 27.67,67.97 L27.41,77.92 L31.61,70.88 C36.11,63.91 40.71,58.08 45.43,53.38 C54.25,44.58 67.96,35.52 71.33,35.52 C71.8822847,35.52 72.33,35.9677153 72.33,36.52 C72.33,37.0722847 71.8822847,37.52 71.33,37.52 C68.67,37.52 55.3,46.35 46.84,54.79 C42.24,59.39 37.72,65.11 33.32,71.94 L29.13,78.94 L29.13,78.94 Z" id="Path" fill="#FFFFFF"></path>
        </g>
    </g>
</svg>