<?xml version="1.0" encoding="UTF-8"?>
<svg width="172px" height="100px" viewBox="0 0 172 100" version="1.1" xmlns="http://www.w3.org/2000/svg" xmlns:xlink="http://www.w3.org/1999/xlink">
    <title>container_1_9</title>
    <g id="container" stroke="none" stroke-width="1" fill="none" fill-rule="evenodd">
        <g id="container_1_9" fill-rule="nonzero">
            <path d="M4.95,12.9 L34.71,0.62 C35.6577669,0.270336429 36.6516595,0.0614505128 37.66,0 C38.36,0 39.4,0.2 40.78,0.62 L72.5,11.93 C73.7281347,12.9446247 74.7732674,14.1622551 75.59,15.53 C76.3220261,16.8772192 76.7967847,18.3489709 76.99,19.87 L72.5,72.07 C72.31,73.09 71.97,74.07 71.46,75.01 C70.9053842,76.0234888 70.2268404,76.9640447 69.44,77.81 L43.92,98.78 C42.399874,99.5708663 40.7135146,99.9890286 39,100.000052 C37.3593922,100.005434 35.7459314,99.5813836 34.32,98.77 L6.13,78.17 C5.62130151,77.6656346 5.21991484,77.0635545 4.95,76.4 C4.5892816,75.560674 4.33076062,74.6810312 4.18,73.78 L1,21.04 C0.940073798,19.4930701 1.27020105,17.9559151 1.96,16.57 C2.67,15.11 3.66,13.89 4.94,12.9 L4.95,12.9 Z" id="Path" fill="#000000"></path>
            <polygon id="Path" fill="#FFFFFF" points="6.53 14.53 37.73 1.45 71.33 14.53 40.64 31.41"></polygon>
            <polygon id="Path" fill="#009A0E" points="4.2 21.8 19 55.26 34.6 37.42"></polygon>
            <polygon id="Path" fill="#009A0E" points="3.04 30.52 5.33 70.12 15.43 58.5"></polygon>
            <polygon id="Path" fill="#009A0E" points="21.67 60.71 37.74 43.31 36.61 93.08"></polygon>
            <polygon id="Path" fill="#009A0E" points="17.95 65 8 75.18 30.39 92.39"></polygon>
            <polygon id="Path" fill="#D0021B" points="46.13 36.71 74.18 21 60.17 54.98"></polygon>
            <polygon id="Path" fill="#D0021B" points="44.02 43.31 56.91 59.48 42.64 92.72"></polygon>
            <polygon id="Path" fill="#D0021B" points="61.06 63.66 49.34 91.08 69.02 74.34"></polygon>
            <polygon id="Path" fill="#D0021B" points="74.18 32.85 63.61 58.16 71.06 69.01"></polygon>
            <path d="M166.55,12.47 L139.69,1.49 C138.104105,0.628668344 136.342946,0.139647452 134.54,0.06 C133.04,0.06 131.44,0.35 129.76,0.91 L101.16,10.31 C99.22,11.19 97.89,12.21 97.2,13.37 C96.5,14.52 96.37,15.92 96.8,17.57 L108.04,29.21 L101.34,28.21 L92.25,64.56 C92.03,66.46 92.13,67.94 92.55,68.99 C92.98,70.04 94.11,71.76 95.95,74.14 L128.07,98.5 C129.68,99.4 130.92,99.88 131.78,99.95 C132.53,100.01 133.71,99.72 135.31,99.08 L169.09,75.36 C170.358515,74.7797399 171.303738,73.6659879 171.67,72.32 C172.32,70.17 171.04,68.99 171.04,68.99 L167.36,65.21 L171.93,20.48 C171.73,18.45 171.3,16.98 170.68,16.08 C170.05,15.17 168.68,13.96 166.55,12.47 L166.55,12.47 Z" id="Path" fill="#000000"></path>
            <polygon id="Path" fill="#FFFFFF" points="165.86 14.57 134.8 1.25 100.98 12.87 132.33 29.13"></polygon>
            <polygon id="Path" fill="#D0021B" points="169.09 21.61 139.37 35.54 155.21 50.79"></polygon>
            <polygon id="Path" fill="#D0021B" points="169.09 31.36 166.11 63.88 157.47 56.2"></polygon>
            <polygon id="Path" fill="#D0021B" points="126.41 35.16 114.23 32.65 95.89 60.66"></polygon>
            <polygon id="Path" fill="#D0021B" points="109.78 32.01 102.32 30.57 96.85 53.24"></polygon>
            <polygon id="Path" fill="#FFDB11" points="132.5 40.74 166.8 72.4 131.71 96.83 98.21 70.07"></polygon>
            <path d="M10.63,46.45 L17.48,53.68 C17.858315,54.0831679 17.8381678,54.7166849 17.4349999,55.0949999 C17.0318321,55.473315 16.3983151,55.4531678 16.02,55.05 L6.56,45.05 C6.31440589,44.7883031 6.22788241,44.4150659 6.33328152,44.0720022 C6.43868063,43.7289384 6.71983743,43.4686632 7.07,43.39 L20.53,40.49 C21.0712391,40.3740202 21.6040202,40.7187609 21.72,41.26 C21.8359798,41.8012391 21.4912391,42.3340202 20.95,42.45 L11.22,44.55 L19.07,46.98 C25.0184187,49.3075375 30.5042455,52.6769188 35.27,56.93 C42.27,63.26 48.48,72.6 53.92,84.92 C54.1409139,85.428102 53.908102,86.0190861 53.4,86.24 C52.891898,86.4609139 52.3009139,86.228102 52.08,85.72 C46.76,73.65 40.7,64.55 33.93,58.42 C29.3599184,54.341849 24.1015089,51.1082488 18.4,48.87 L10.63,46.47 L10.63,46.45 Z" id="Path" fill="#FFFFFF"></path>
        </g>
    </g>
</svg>