<?xml version="1.0" encoding="UTF-8"?>
<svg width="187px" height="100px" viewBox="0 0 187 100" version="1.1" xmlns="http://www.w3.org/2000/svg" xmlns:xlink="http://www.w3.org/1999/xlink">
    <title>ortega_3_11</title>
    <g id="Ortega" stroke="none" stroke-width="1" fill="none" fill-rule="evenodd">
        <g id="ortega_3_11" fill-rule="nonzero">
            <polygon id="Path" fill="#000000" points="185.565217 0.239130435 99.0869565 0.239130435 86.7173913 0.239130435 0.239130435 0.239130435 0.239130435 99.0869565 86.7173913 99.0869565 99.0869565 99.0869565 185.565217 99.0869565"></polygon>
            <polygon id="Path" fill="#FFED00" points="12.6086957 12.6086957 47.3478261 12.6086957 47.3478261 47.3478261 12.6086957 47.3478261"></polygon>
            <polygon id="Path" fill="#FFED00" points="51.9782609 12.6086957 86.7173913 12.6086957 86.7173913 47.3478261 51.9782609 47.3478261"></polygon>
            <polygon id="Path" fill="#FFED00" points="12.6086957 51.9782609 47.3478261 51.9782609 47.3478261 86.7173913 12.6086957 86.7173913"></polygon>
            <polygon id="Path" fill="#FFED00" points="51.9782609 51.9782609 86.7173913 51.9782609 86.7173913 86.7173913 51.9782609 86.7173913"></polygon>
            <polygon id="Path" fill="#FFFFFF" points="138.456522 12.6086957 173.195652 12.6086957 173.195652 47.3478261 138.456522 47.3478261"></polygon>
            <polygon id="Path" fill="#FFFFFF" points="99.0869565 12.6086957 133.826087 12.6086957 133.826087 47.3478261 99.0869565 47.3478261"></polygon>
            <polygon id="Path" fill="#FFFFFF" points="138.456522 51.9782609 173.195652 51.9782609 173.195652 86.7173913 138.456522 86.7173913"></polygon>
            <polygon id="Path" fill="#FFFFFF" points="99.0869565 51.9782609 133.826087 51.9782609 133.826087 86.7173913 99.0869565 86.7173913"></polygon>
            <polygon id="Path" fill="#E31E24" points="31.6956522 29.9347826 45.326087 32.8478261 44.7173913 35.7391304 35.9782609 33.8695652 65.7826087 63.673913 63.9130435 54.9347826 66.8043478 54.326087 70.1956522 70.1956522 54.326087 66.8043478 54.9347826 63.9130435 63.673913 65.7826087 33.8695652 35.9782609 35.7391304 44.7173913 32.8478261 45.326087 29.4565217 29.4565217"></polygon>
            <polygon id="Path" fill="#E31E24" points="117.413043 28.8913043 129.108696 21.3043478 130.717391 23.8043478 123.217391 28.6521739 149.065217 28.6521739 141.565217 23.8043478 143.173913 21.3043478 156.782609 30.1304348 143.173913 38.9782609 141.565217 36.4782609 149.065217 31.6086957 123.217391 31.6086957 130.717391 36.4782609 129.108696 38.9782609 115.478261 30.1304348"></polygon>
        </g>
    </g>
</svg>