<?xml version="1.0" encoding="UTF-8"?>
<svg width="100px" height="100px" viewBox="0 0 100 100" version="1.1" xmlns="http://www.w3.org/2000/svg" xmlns:xlink="http://www.w3.org/1999/xlink">
    <title>ortega_1</title>
    <g id="Ortega" stroke="none" stroke-width="1" fill="none" fill-rule="evenodd">
        <g id="ortega_1" fill-rule="nonzero">
            <path d="M1.99146515,15.5049787 L49.5021337,0.142247511 C49.9288762,-6.9388939e-18 50.4978663,-6.9388939e-18 50.9246088,0.142247511 L98.2930299,16.9274538 C99.43101,17.3541963 100,19.3456615 100,20.341394 C99.5732575,38.8335704 99.1465149,57.3257468 98.8620199,75.8179232 C98.8620199,76.5291607 98.4352774,77.3826458 97.7240398,77.6671408 L51.7780939,99.715505 C51.2091038,100 49.9288762,100 49.3598862,99.715505 L2.98719772,77.6671408 C2.27596017,77.3826458 1.84921764,76.6714083 1.84921764,75.9601707 C1.2802276,56.6145092 0.568990043,37.1266003 0,17.7809388 C0,16.6429587 0.853485064,16.0739687 1.84921764,15.6472262 L1.99146515,15.5049787 Z" id="Path" fill="#000000"></path>
            <polygon id="Path" fill="#696969" points="26.742532 28.8762447 48.2219061 37.2688478 48.3641536 64.2958748 27.311522 55.4765292"></polygon>
            <polygon id="Path" fill="#696969" points="3.9829303 19.9146515 22.9018492 27.311522 23.3285917 53.485064 4.97866287 45.8036984"></polygon>
            <polygon id="Path" fill="#696969" points="27.311522 59.1749644 48.5064011 68.1365576 48.3641536 95.1635846 27.7382646 85.3485064"></polygon>
            <polygon id="Path" fill="#696969" points="4.97866287 49.5021337 23.3285917 57.6102418 23.7553343 83.2147937 5.83214794 74.8221906"></polygon>
            <polygon id="Path" fill="#696969" points="51.9203414 37.2688478 72.972973 29.5874822 72.5462304 56.4722617 52.2048364 64.4381223"></polygon>
            <polygon id="Path" fill="#696969" points="76.8136558 28.0227596 96.3015647 21.3371266 95.7325747 47.083926 76.3869132 54.9075391"></polygon>
            <polygon id="Path" fill="#696969" points="52.2048364 68.4210526 72.688478 60.3129445 72.2617354 85.9174964 52.3470839 95.3058321"></polygon>
            <polygon id="Path" fill="#696969" points="76.3869132 58.7482219 95.4480797 51.2091038 95.1635846 74.8221906 75.9601707 83.9260313"></polygon>
            <polygon id="Path" fill="#FFFFFF" points="30.2987198 26.173542 50.2133713 19.487909 69.9857752 26.742532 50.2133713 34.1394026"></polygon>
            <polygon id="Path" fill="#FFFFFF" points="55.7610242 17.6386913 72.972973 11.8065434 92.1763869 18.7766714 75.3911807 24.8933144"></polygon>
            <polygon id="Path" fill="#FFFFFF" points="33.428165 9.3883357 50.3556188 3.9829303 67.2830725 9.95732575 50.2133713 15.6472262"></polygon>
            <polygon id="Path" fill="#FFFFFF" points="8.10810811 17.4964438 27.7382646 11.2375533 44.6657183 17.4964438 24.7510669 24.1820768"></polygon>
        </g>
    </g>
</svg>