<?xml version="1.0" encoding="UTF-8"?>
<svg width="187px" height="100px" viewBox="0 0 187 100" version="1.1" xmlns="http://www.w3.org/2000/svg" xmlns:xlink="http://www.w3.org/1999/xlink">
    <title>ortega_3_1</title>
    <g id="Ortega" stroke="none" stroke-width="1" fill="none" fill-rule="evenodd">
        <g id="ortega_3_1" fill-rule="nonzero">
            <polygon id="Path" fill="#000000" points="185.565217 0.239130435 99.0869565 0.239130435 86.7173913 0.239130435 0.239130435 0.239130435 0.239130435 99.0869565 86.7173913 99.0869565 99.0869565 99.0869565 185.565217 99.0869565"></polygon>
            <polygon id="Path" fill="#FFED00" points="12.6086957 12.6086957 47.3478261 12.6086957 47.3478261 47.3478261 12.6086957 47.3478261"></polygon>
            <polygon id="Path" fill="#FFED00" points="51.9782609 12.6086957 86.7173913 12.6086957 86.7173913 47.3478261 51.9782609 47.3478261"></polygon>
            <polygon id="Path" fill="#FFED00" points="12.6086957 51.9782609 47.3478261 51.9782609 47.3478261 86.7173913 12.6086957 86.7173913"></polygon>
            <polygon id="Path" fill="#FFED00" points="51.9782609 51.9782609 86.7173913 51.9782609 86.7173913 86.7173913 51.9782609 86.7173913"></polygon>
            <polygon id="Path" fill="#FFFFFF" points="138.456522 12.6086957 173.195652 12.6086957 173.195652 47.3478261 138.456522 47.3478261"></polygon>
            <polygon id="Path" fill="#FFFFFF" points="99.0869565 12.6086957 133.826087 12.6086957 133.826087 47.3478261 99.0869565 47.3478261"></polygon>
            <polygon id="Path" fill="#FFFFFF" points="138.456522 51.9782609 173.195652 51.9782609 173.195652 86.7173913 138.456522 86.7173913"></polygon>
            <polygon id="Path" fill="#FFFFFF" points="99.0869565 51.9782609 133.826087 51.9782609 133.826087 86.7173913 99.0869565 86.7173913"></polygon>
            <polygon id="Path" fill="#E31E24" points="70.5869565 30.9347826 78.173913 42.6304348 75.6956522 44.2391304 70.826087 36.7391304 70.826087 62.5869565 75.6956522 55.0869565 78.173913 56.6956522 69.3478261 70.3043478 60.5217391 56.6956522 63 55.0869565 67.8695652 62.5869565 67.8695652 36.7391304 63 44.2391304 60.5217391 42.6304348 69.3478261 29"></polygon>
        </g>
    </g>
</svg>