<?xml version="1.0" encoding="UTF-8"?>
<svg width="187px" height="100px" viewBox="0 0 187 100" version="1.1" xmlns="http://www.w3.org/2000/svg" xmlns:xlink="http://www.w3.org/1999/xlink">
    <title>ortega_3_6</title>
    <g id="Ortega" stroke="none" stroke-width="1" fill="none" fill-rule="evenodd">
        <g id="ortega_3_6" fill-rule="nonzero">
            <polygon id="Path" fill="#000000" points="185.565217 0.239130435 99.0869565 0.239130435 86.7173913 0.239130435 0.239130435 0.239130435 0.239130435 99.0869565 86.7173913 99.0869565 99.0869565 99.0869565 185.565217 99.0869565"></polygon>
            <polygon id="Path" fill="#FFED00" points="12.6086957 12.6086957 47.3478261 12.6086957 47.3478261 47.3478261 12.6086957 47.3478261"></polygon>
            <polygon id="Path" fill="#FFED00" points="51.9782609 12.6086957 86.7173913 12.6086957 86.7173913 47.3478261 51.9782609 47.3478261"></polygon>
            <polygon id="Path" fill="#FFED00" points="12.6086957 51.9782609 47.3478261 51.9782609 47.3478261 86.7173913 12.6086957 86.7173913"></polygon>
            <polygon id="Path" fill="#FFED00" points="51.9782609 51.9782609 86.7173913 51.9782609 86.7173913 86.7173913 51.9782609 86.7173913"></polygon>
            <polygon id="Path" fill="#FFFFFF" points="138.456522 12.6086957 173.195652 12.6086957 173.195652 47.3478261 138.456522 47.3478261"></polygon>
            <polygon id="Path" fill="#FFFFFF" points="99.0869565 12.6086957 133.826087 12.6086957 133.826087 47.3478261 99.0869565 47.3478261"></polygon>
            <polygon id="Path" fill="#FFFFFF" points="138.456522 51.9782609 173.195652 51.9782609 173.195652 86.7173913 138.456522 86.7173913"></polygon>
            <polygon id="Path" fill="#FFFFFF" points="99.0869565 51.9782609 133.826087 51.9782609 133.826087 86.7173913 99.0869565 86.7173913"></polygon>
            <polygon id="Path" fill="#E31E24" points="31.0869565 28.8913043 42.7608696 21.2608696 44.3695652 23.7391304 36.9130435 28.6304348 62.5652174 28.5217391 55.0652174 23.6956522 56.6521739 21.1956522 70.326087 29.9782609 56.7391304 38.8695652 55.1086957 36.3695652 62.5869565 31.4782609 36.9130435 31.5869565 44.4347826 36.4130435 42.826087 38.9130435 29.173913 30.1304348"></polygon>
            <polygon id="Path" fill="#E31E24" points="118 29.7608696 131.652174 32.673913 131.021739 35.5869565 122.282609 33.7173913 152.086957 63.5217391 150.217391 54.7826087 153.130435 54.1521739 156.521739 70.0434783 140.630435 66.6521739 141.26087 63.7608696 150 65.6086957 120.195652 35.8043478 122.043478 44.5434783 119.152174 45.173913 115.76087 29.2826087"></polygon>
        </g>
    </g>
</svg>