<?xml version="1.0" encoding="UTF-8"?>
<svg width="94px" height="100px" viewBox="0 0 94 100" version="1.1" xmlns="http://www.w3.org/2000/svg" xmlns:xlink="http://www.w3.org/1999/xlink">
    <title>skewb_4</title>
    <g id="skewb" stroke="none" stroke-width="1" fill="none" fill-rule="evenodd">
        <g id="skewb_4" fill-rule="nonzero">
            <path d="M93.919244,15.0224359 L92.1361512,69.8717949 C92.1264605,70.2179487 91.9649485,70.5576923 91.6677663,70.7884615 L54.6976632,99.4551282 C54.3261856,99.7371795 53.8545704,99.7884615 53.4314089,99.599359 L4.94549828,78.1410256 C4.51910653,77.9519231 4.25745704,77.5480769 4.22515464,77.1185897 L0.00323024055,20.7852564 C-0.035532646,20.2371795 0.297182131,19.75 0.788178694,19.5641026 L42.6682474,0.134615385 C42.9331271,-0.000397857497 43.2464605,-0.0416666667 43.5565636,0.0448717949 L92.9534021,13.7147436 C93.5671478,13.8429487 93.9806186,14.4070513 93.919244,15.0224359 L93.919244,15.0224359 Z" id="Path" fill="#000000"></path>
            <polygon id="Path" fill="#0062AC" points="30.3997938 8.60897436 43.3369072 2.60576923 59.2781443 7.01923077"></polygon>
            <polygon id="Path" fill="#0062AC" points="4.45450172 20.6442308 23.1123711 11.9903846 24.788866 27.7564103"></polygon>
            <polygon id="Path" fill="#0062AC" points="27.166323 26.9679487 25.5027491 11.3108974 65.961512 9.08333333 72.1700344 23.2980769"></polygon>
            <polygon id="Path" fill="#0062AC" points="75.1580069 24.0673077 68.8816495 9.67628205 89.6327148 15.4198718"></polygon>
            <polygon id="Path" fill="#0062AC" points="29.0689347 29.2532051 52.6658419 37.5032051 72.3864605 25.7211538"></polygon>
            <polygon id="Path" fill="#FFED00" points="4.4932646 48.0160256 2.58742268 22.5673077 22.6375258 29.5801282"></polygon>
            <polygon id="Path" fill="#FFED00" points="52.2200687 68.0544872 27.8737457 31.4102564 51.5998625 39.7083333"></polygon>
            <polygon id="Path" fill="#EF7F1A" points="54.6621306 67.9262821 54.0419244 39.5192308 73.6914777 27.7820513"></polygon>
            <polygon id="Path" fill="#EF7F1A" points="90.7471478 39.5128205 76.9895533 25.8108974 91.4093471 17.1955128"></polygon>
            <polygon id="Path" fill="#FFED00" points="27.6024055 84.9807692 5.03271478 50.9391026 24.6693471 30.9903846 50.4821993 69.8397436"></polygon>
            <polygon id="Path" fill="#EF7F1A" points="56.8393127 69.0288462 76.1109278 28.375 90.4435052 42.6474359 74.7122337 80.1762821"></polygon>
            <polygon id="Path" fill="#FFED00" points="6.61230241 76.3173077 5.0424055 55.3653846 23.9586942 83.8974359"></polygon>
            <polygon id="Path" fill="#FFED00" points="52.8402749 96.5128205 29.7957388 86.4455128 52.2943643 71.5576923"></polygon>
            <polygon id="Path" fill="#EF7F1A" points="55.272646 95.9487179 54.7202749 70.5737179 73.1617182 82.0769231"></polygon>
            <polygon id="Path" fill="#EF7F1A" points="89.8685223 69.1217949 78.207354 78.1634615 90.4693471 48.9134615"></polygon>
        </g>
    </g>
</svg>