<?xml version="1.0" encoding="UTF-8"?>
<svg width="94px" height="100px" viewBox="0 0 94 100" version="1.1" xmlns="http://www.w3.org/2000/svg" xmlns:xlink="http://www.w3.org/1999/xlink">
    <title>skewb_5</title>
    <g id="skewb" stroke="none" stroke-width="1" fill="none" fill-rule="evenodd">
        <g id="skewb_5" fill-rule="nonzero">
            <path d="M93.9281529,15.0922619 L92.1469427,70.0267857 C92.1349682,70.375 91.9763057,70.7142857 91.6769427,70.9464286 L54.7205732,99.6577381 C54.3523567,99.9404762 53.8823567,99.9910714 53.4542675,99.8005952 L4.99038217,78.3095238 C4.56528662,78.1190476 4.30184713,77.7172619 4.2689172,77.2857143 L0.0508917197,20.8630952 C0.0119745223,20.3154762 0.344267516,19.827381 0.83522293,19.639881 L42.6981529,0.181547619 C42.9615924,0.0476190476 43.2759236,0.00595238095 43.5842675,0.0892857143 L92.9642038,13.7827381 C93.5749045,13.9107143 93.9880255,14.4761905 93.9281529,15.0922619 L93.9281529,15.0922619 Z" id="Path" fill="#000000"></path>
            <polygon id="Path" fill="#009846" points="27.0803822 27.6994048 25.5386624 11.375 65.1713376 8.86309524 72.1884076 23.3809524"></polygon>
            <polygon id="Path" fill="#FFED00" points="4.49942675 20.7232143 22.7515924 12.2380952 23.9041401 27.5238095"></polygon>
            <polygon id="Path" fill="#FFED00" points="30.4332484 8.66964286 43.3657325 2.6577381 60.5192357 7.19642857"></polygon>
            <polygon id="Path" fill="#FFED00" points="75.337707 23.9880952 68.9014013 9.73809524 89.6442675 15.4880952"></polygon>
            <polygon id="Path" fill="#FFED00" points="29.6698726 29.672619 52.6908917 37.610119 72.403949 25.8095238"></polygon>
            <polygon id="Path" fill="#E31E24" points="56.8221019 69.1041667 75.9663694 28.7083333 90.4525478 42.7619048 74.73 80.3482143"></polygon>
            <polygon id="Path" fill="#EF7F1A" points="54.6696815 67.264881 54.0679618 39.6279762 73.709172 27.8720238"></polygon>
            <polygon id="Path" fill="#EF7F1A" points="90.7578981 39.6220238 76.9243312 26.0595238 91.4194904 17.2678571"></polygon>
            <polygon id="Path" fill="#EF7F1A" points="89.8807643 69.2767857 78.2235669 78.3333333 90.7219745 47.827381"></polygon>
            <polygon id="Path" fill="#EF7F1A" points="55.2983439 96.1428571 54.8343312 71.3333333 73.1792994 82.25"></polygon>
            <polygon id="Path" fill="#FFED00" points="27.6371975 85.1577381 5.07719745 51.0654762 24.6226115 31.327381 50.4396815 69.1845238"></polygon>
            <polygon id="Path" fill="#009846" points="4.53834395 48.1369048 2.63140127 22.6488095 22.673758 29.672619"></polygon>
            <polygon id="Path" fill="#009846" points="52.2119108 66.7113095 28.0712739 31.5059524 51.6281529 39.8154762"></polygon>
            <polygon id="Path" fill="#009846" points="52.8645223 96.7113095 29.828535 86.6279762 52.3615924 71.3125"></polygon>
            <polygon id="Path" fill="#009846" points="6.65484076 76.4821429 5.08617834 55.4970238 23.9969427 84.0744048"></polygon>
        </g>
    </g>
</svg>