<?xml version="1.0" encoding="UTF-8"?>
<svg width="200px" height="193px" viewBox="0 0 200 193" version="1.1" xmlns="http://www.w3.org/2000/svg" xmlns:xlink="http://www.w3.org/1999/xlink">
    <title>skewb_3_2</title>
    <g id="skewb" stroke="none" stroke-width="1" fill="none" fill-rule="evenodd">
        <g id="skewb_3_2" fill-rule="nonzero">
            <path d="M200,0 L199.802021,56.7597854 C199.78911,57.1650476 198.952722,58.5438045 198.611281,58.8120563 L115.46745,123.442005 L116.402827,193 L60.2486408,164.735484 C59.7594328,164.514826 56.8471392,99.4118306 56.8112735,98.9084979 L6.30808502,76.167663 L0,11.1886984 C-0.0444451242,10.5512397 52.2965011,30.7451241 52.8617443,30.528792 L100.993494,7.90621871 C101.2962,7.74901735 101.657726,7.70142428 102.012079,7.79949485 L158.783155,23.7172139 L200,0 Z" id="Path" fill="#000000"></path>
            <polygon id="Path" fill="#0062AC" points="82.8176218 39.7159864 81.0457516 20.9430586 126.576793 18.0527211 134.640523 34.7499129"></polygon>
            <polygon id="Path" fill="#FFED00" points="57.1895425 31.8306026 78.0915478 21.9914966 79.4117647 39.7159864"></polygon>
            <polygon id="Path" fill="#FFED00" points="86.9281046 17.7244898 101.818788 10.8316327 121.568627 16.0375462"></polygon>
            <polygon id="Path" fill="#FFED00" points="138.445295 35.4489796 131.045752 19.037415 154.901961 25.660327"></polygon>
            <polygon id="Path" fill="#FFED00" points="85.9477124 42.2582606 112.354777 51.5323129 134.96732 37.7465986"></polygon>
            <polygon id="Path" fill="#FFED00" points="117.320261 88.0158842 139.269692 41.0289116 155.882353 57.3752179 137.85323 101.095238"></polygon>
            <polygon id="Path" fill="#E31E24" points="114.742754 85.6683673 114.052288 53.66178 136.601307 40.0442177"></polygon>
            <polygon id="Path" fill="#E31E24" points="156.102365 53.829932 140.196078 38.09678 156.862745 27.8996599"></polygon>
            <polygon id="Path" fill="#E31E24" points="155.240209 88.2747843 141.830065 98.797619 156.20915 63.3486395"></polygon>
            <polygon id="Path" fill="#E31E24" points="115.56871 119.47619 115.03268 90.5918367 136.27451 103.303032"></polygon>
            <polygon id="Path" fill="#009846" points="83.5206166 106.67517 57.5163399 66.9719066 80.0457088 43.9829932 109.803922 88.0725275"></polygon>
            <polygon id="Path" fill="#0062AC" points="57.1078126 63.6768707 54.9019608 34.1360544 78.1045752 42.2757751"></polygon>
            <polygon id="Path" fill="#0062AC" points="112.091503 85.0119048 84.3137255 44.3112245 111.418129 53.9188166"></polygon>
            <polygon id="Path" fill="#0062AC" points="112.418301 119.804422 85.9477124 108.076402 111.840422 90.2636054"></polygon>
            <polygon id="Path" fill="#0062AC" points="59.3054229 96.5559425 57.5163399 72.2108844 79.0849673 105.362245"></polygon>
            <polygon id="Path" fill="#EF7F1A" points="161.111111 58.0041937 182.869965 14.4421769 198.039216 29.4324959 179.994346 69.9132653"></polygon>
            <polygon id="Path" fill="#009846" points="158.823529 55.7993197 159.679664 25.8653049 180.718954 13.457483"></polygon>
            <polygon id="Path" fill="#009846" points="197.772971 26.914966 183.986928 12.117725 198.039216 3.93877551"></polygon>
            <polygon id="Path" fill="#009846" points="197.626677 55.8750952 183.006536 67.9438776 198.039216 33.8078231"></polygon>
            <polygon id="Path" fill="#009846" points="158.169935 86.6530612 159.028009 59.7380952 178.431373 71.4647053"></polygon>
            <polygon id="Path" fill="#FFFFFF" points="86.3077215 174.947279 62.0915033 133.429483 83.072467 111.926871 110.784314 158.089265"></polygon>
            <polygon id="Path" fill="#FFFFFF" points="61.1787605 129.979592 59.8039216 100.110544 81.0457516 109.858093"></polygon>
            <polygon id="Path" fill="#FFFFFF" points="112.745098 154.92517 86.9281046 112.255102 112.118806 123.707693"></polygon>
            <polygon id="Path" fill="#FFFFFF" points="113.72549 188.732993 88.8888889 176.547639 113.183616 160.505102"></polygon>
            <polygon id="Path" fill="#FFFFFF" points="62.7920366 163.139362 61.4379085 138.185374 82.3529412 173.306122"></polygon>
            <polygon id="Path" fill="#E31E24" points="30.6171217 84.0272109 5.55555556 45.5703568 24.01177 23.3044218 52.6143791 66.0081687"></polygon>
            <polygon id="Path" fill="#EF7F1A" points="5.33290657 42.3418367 2.2875817 14.1139456 21.8954248 21.3340203"></polygon>
            <polygon id="Path" fill="#EF7F1A" points="53.9215686 63.0204082 27.4509804 23.3044218 51.6822746 32.8970009"></polygon>
            <polygon id="Path" fill="#EF7F1A" points="55.8823529 94.8588435 32.6797386 85.2976332 54.6627655 68.2721088"></polygon>
            <polygon id="Path" fill="#EF7F1A" points="8.84325476 74.1694758 5.88235294 50.547619 26.7973856 82.7142857"></polygon>
        </g>
    </g>
</svg>