<?xml version="1.0" encoding="UTF-8"?>
<svg width="94px" height="100px" viewBox="0 0 94 100" version="1.1" xmlns="http://www.w3.org/2000/svg" xmlns:xlink="http://www.w3.org/1999/xlink">
    <title>skewb_1_3</title>
    <g id="skewb" stroke="none" stroke-width="1" fill="none" fill-rule="evenodd">
        <g id="skewb_1_3" fill-rule="nonzero">
            <path d="M93.9942371,15.0658736 L92.2108661,70.073168 C92.1988771,70.4218436 92.0400222,70.7615787 91.740296,70.9940291 L54.7390954,99.7433719 C54.3704322,100.026485 53.8998621,100.077147 53.4712536,99.8864183 L4.94857755,78.3668781 C4.52296633,78.1761496 4.25920727,77.7738316 4.22623739,77.3417123 L0.00309509704,20.8443514 C-0.0358693102,20.2960069 0.296826782,19.8072651 0.788377765,19.6195167 L42.7020909,0.135407346 C42.9658499,0.00130136203 43.2805625,-0.0404204996 43.5892805,0.0430232237 L93.0291187,13.754615 C93.6405602,13.8827608 94.0541823,14.448986 93.9942371,15.0658736 L93.9942371,15.0658736 Z" id="Path" fill="#000000"></path>
            <polygon id="Path" fill="#FFFFFF" points="27.4148417 27.7027027 25.884058 11.3067049 65.2356033 8.78378378 72.2028986 23.3653111"></polygon>
            <polygon id="Path" fill="#FFFFFF" points="4.76811594 20.7887356 23.3484678 12.1621622 24.5217391 27.7027027"></polygon>
            <polygon id="Path" fill="#696969" points="29.9710145 8.10810811 42.8540774 2.02702703 59.942029 6.6179422"></polygon>
            <polygon id="Path" fill="#696969" points="75.1378119 23.6486486 68.7971014 9.45945946 89.2318841 15.1849218"></polygon>
            <polygon id="Path" fill="#696969" points="29.9710145 29.6571351 53.0884439 37.8378378 72.884058 25.6756757"></polygon>
            <polygon id="Path" fill="#696969" points="56.5362319 69.0770608 75.9238698 28.3783784 90.5942029 42.5373099 74.6717831 80.4054054"></polygon>
            <polygon id="Path" fill="#696969" points="54.4167578 66.8918919 53.8115942 39.3978748 73.5652174 27.7027027"></polygon>
            <polygon id="Path" fill="#696969" points="90.622479 39.8648649 76.9710145 26.3368681 91.2753623 17.5675676"></polygon>
            <polygon id="Path" fill="#696969" points="89.7231346 69.3516809 77.6521739 78.3783784 90.5942029 47.972973"></polygon>
            <polygon id="Path" fill="#696969" points="55.6390978 95.9459459 55.173913 70.9459459 73.5652174 81.9464258"></polygon>
            <polygon id="Path" fill="#696969" points="27.8073792 85.1351351 5.44927536 50.9011998 24.8197717 31.0810811 50.4057971 69.0955427"></polygon>
            <polygon id="Path" fill="#696969" points="4.60410863 48.6486486 2.72463768 22.972973 22.4782609 30.0484744"></polygon>
            <polygon id="Path" fill="#696969" points="51.7681159 66.2162162 27.9275362 31.0810811 51.1916138 39.3740304"></polygon>
            <polygon id="Path" fill="#696969" points="53.1304348 96.6216216 29.9710145 86.4283724 52.62481 70.9459459"></polygon>
            <polygon id="Path" fill="#696969" points="6.35019145 76.2443917 4.76811594 55.4054054 23.8405797 83.7837838"></polygon>
        </g>
    </g>
</svg>