<?xml version="1.0" encoding="UTF-8"?>
<svg width="210px" height="100px" viewBox="0 0 210 100" version="1.1" xmlns="http://www.w3.org/2000/svg" xmlns:xlink="http://www.w3.org/1999/xlink">
    <title>pattern_7_3</title>
    <g id="Patterns" stroke="none" stroke-width="1" fill="none" fill-rule="evenodd">
        <g id="pattern_7_3" fill-rule="nonzero">
            <path d="M209.580731,17.4257426 L206.52,74.4059406 C206.491466,74.9092662 206.183363,75.3554062 205.72,75.5643564 L161.48,99.2970297 C160.84,99.6435644 158.58,99.1881188 158.12,98.9207921 L114.29,74.8811881 C113.834311,74.6475449 113.54871,74.1813505 113.55,73.6732673 L110.649799,17.2871287 C110.63,16.6732673 112.11,14.8316832 112.71,14.7029703 L159.95,1.03960396 C160.214274,0.961742361 160.495726,0.961742361 160.76,1.03960396 L206.52,14.8514851 C207.1,15.009901 209.63,16.3465347 209.580731,17.4257426 Z" id="Path" fill="#000000"></path>
            <polygon id="Path" fill="#FFED00" points="194.23 64.6138614 206.51 58.3267327 205.5 74.7227723 193.59 80.9009901 194.23 64.6138614"></polygon>
            <polygon id="Path" fill="#EF7F1A" points="178.32 72.3267327 192.21 65.5643564 191.43 82.3267327 177.58 89.5742574"></polygon>
            <polygon id="Path" fill="#EF7F1A" points="160.72 80.6237624 176.3 72.960396 175.55 90.5247525 160.79 98.5346535 160.72 80.6237624"></polygon>
            <polygon id="Path" fill="#EF7F1A" points="194.87 44.1584158 207.45 38.7029703 206.43 56.3069307 194.01 62.3465347 194.87 44.1584158"></polygon>
            <polygon id="Path" fill="#EF7F1A" points="178.87 51.3168317 193.17 44.960396 192.13 63.5445545 178.21 70.2475248 178.87 51.3168317"></polygon>
            <polygon id="Path" fill="#EF7F1A" points="160.59 58.5544554 176.77 52.1485149 176.15 70.960396 160.59 78.6336634"></polygon>
            <polygon id="Path" fill="#EF7F1A" points="196.03 22.5742574 208.59 17.6534653 207.69 36.6237624 195.2 41.7524752 196.03 22.5841584"></polygon>
            <polygon id="Path" fill="#EF7F1A" points="179.09 29.1485149 193.97 23.3267327 193.5 42.5247525 178.81 49.1485149"></polygon>
            <polygon id="Path" fill="#FFED00" points="160.4 35.6930693 177.13 29.6534653 176.79 50.0693069 160.49 56.4455446 160.41 35.6930693"></polygon>
            <polygon id="Path" fill="#EF7F1A" points="113.92 58.8514851 125.33 64.5148515 125.73 79.8910891 114.58 74.0693069 113.92 58.8514851"></polygon>
            <polygon id="Path" fill="#009846" points="127.16 65.5445545 141 72.1386139 141.12 88.1188119 127.68 81.049505 127.16 65.5445545"></polygon>
            <polygon id="Path" fill="#009846" points="142.92 73.2673267 158.74 80.7821782 158.83 98.1782178 142.87 89.3069307 142.92 73.2673267"></polygon>
            <polygon id="Path" fill="#009846" points="112.88 38.4356436 124.55 44 125.22 62.4158416 113.74 56.3960396"></polygon>
            <polygon id="Path" fill="#009846" points="126.4 45.1485149 140.5 50.960396 141.1 70.019802 127.1 63.5049505 126.4 45.1485149"></polygon>
            <polygon id="Path" fill="#009846" points="142.36 51.6831683 158.58 58.5841584 158.56 78.6237624 142.98 71.1485149 142.36 51.6930693"></polygon>
            <polygon id="Path" fill="#009846" points="111.65 17.5148515 123.48 22.5445545 124.32 41.7128713 112.53 36.019802 111.65 17.5049505"></polygon>
            <polygon id="Path" fill="#009846" points="125.38 23.1683168 139.94 28.8613861 140.64 49.0792079 126.23 42.7722772"></polygon>
            <polygon id="Path" fill="#EF7F1A" points="141.81 29.5742574 158.54 35.6039604 158.51 56.5247525 142.48 49.7425743 141.82 29.5742574"></polygon>
            <polygon id="Path" fill="#009846" points="148.51 5.75247525 160.37 2.33663366 171.83 5.55445545 160.06 9.36633663"></polygon>
            <polygon id="Path" fill="#FFED00" points="130.94 10.4356436 145.82 6.30693069 157.7 10.029703 143.26 14.6831683 130.94 10.4257426"></polygon>
            <polygon id="Path" fill="#FFED00" points="113.17 15.9009901 129.07 11.2871287 140.52 15.2871287 124.52 20.4356436 113.18 15.9009901"></polygon>
            <polygon id="Path" fill="#FFED00" points="126.23 21.0990099 142.79 16.1485149 156.92 20.8811881 140.95 26.6237624 126.23 21.0990099"></polygon>
            <polygon id="Path" fill="#FFED00" points="145.77 15.4158416 159.95 10.7326733 174.48 15.2871287 159.76 20.1188119 145.76 15.4158416"></polygon>
            <polygon id="Path" fill="#FFED00" points="162 10.019802 173.32 6.53465347 188.09 10.9207921 177.14 14.4851485 162.01 10.029703"></polygon>
            <polygon id="Path" fill="#FFED00" points="179.37 15.3267327 190.79 11.7623762 205.99 16.1188119 194.68 20.4554455 179.38 15.3267327"></polygon>
            <polygon id="Path" fill="#FFED00" points="162.08 21.0792079 177.13 16.2475248 192.56 21.1287129 178.18 26.8415842 162.08 21.0792079"></polygon>
            <polygon id="Path" fill="#009846" points="143.03 27.7227723 159.44 21.8118812 175.97 27.5148515 159.47 33.3861386"></polygon>
            <path d="M99.5807309,17.4257426 L96.52,74.4059406 C96.4914664,74.9092662 96.1833628,75.3554062 95.72,75.5643564 L51.48,99.2970297 C50.84,99.6435644 48.58,99.1881188 48.12,98.9207921 L4.29,74.8811881 C3.8359181,74.6458463 3.5509736,74.1807242 3.55,73.6732673 L0.649799289,17.2871287 C0.63,16.6732673 2.11,14.8316832 2.71,14.7029703 L49.95,1.03960396 C50.2142738,0.961742361 50.4957262,0.961742361 50.76,1.03960396 L96.52,14.8514851 C97.1,15.009901 99.63,16.3465347 99.5807309,17.4257426 Z" id="Path" fill="#000000"></path>
            <polygon id="Path" fill="#0062AC" points="84.23 64.6138614 96.51 58.3267327 95.5 74.7227723 83.59 80.9009901 84.23 64.6138614"></polygon>
            <polygon id="Path" fill="#0062AC" points="68.32 72.3267327 82.21 65.5643564 81.43 82.3267327 67.58 89.5742574"></polygon>
            <polygon id="Path" fill="#E31E24" points="50.72 80.6237624 66.3 72.960396 65.55 90.5247525 50.79 98.5346535"></polygon>
            <polygon id="Path" fill="#0062AC" points="84.87 44.1584158 97.45 38.7029703 96.43 56.3069307 84 62.3465347 84.86 44.1584158"></polygon>
            <polygon id="Path" fill="#0062AC" points="68.87 51.3168317 83.17 44.960396 82.13 63.5445545 68.21 70.2475248 68.87 51.3168317"></polygon>
            <polygon id="Path" fill="#E31E24" points="50.59 58.5544554 66.77 52.1485149 66.15 70.960396 50.59 78.6336634"></polygon>
            <polygon id="Path" fill="#E31E24" points="86.03 22.5742574 98.59 17.6534653 97.69 36.6336634 85.2 41.7524752 86.03 22.5841584"></polygon>
            <polygon id="Path" fill="#E31E24" points="69.09 29.1485149 83.97 23.3267327 83.5 42.5247525 68.81 49.1485149"></polygon>
            <polygon id="Path" fill="#E31E24" points="50.4 35.6930693 67.13 29.6534653 66.79 50.0693069 50.49 56.4455446 50.41 35.6930693"></polygon>
            <polygon id="Path" fill="#E31E24" points="3.92 58.8514851 15.33 64.5148515 15.73 79.8910891 4.58 74.0693069 3.92 58.8514851"></polygon>
            <polygon id="Path" fill="#E31E24" points="17.16 65.5445545 31 72.1386139 31.12 88.1188119 17.68 81.049505"></polygon>
            <polygon id="Path" fill="#FFFFFF" points="32.92 73.2673267 48.74 80.7821782 48.83 98.1782178 32.87 89.3069307 32.92 73.2673267"></polygon>
            <polygon id="Path" fill="#E31E24" points="2.88 38.4356436 14.55 44 15.23 62.4158416 3.73 56.3960396"></polygon>
            <polygon id="Path" fill="#E31E24" points="16.4 45.1485149 30.5 50.960396 31.1 70.019802 17.1 63.5049505 16.4 45.1485149"></polygon>
            <polygon id="Path" fill="#FFFFFF" points="32.36 51.6831683 48.58 58.5841584 48.56 78.6237624 32.98 71.1485149 32.36 51.6930693"></polygon>
            <polygon id="Path" fill="#FFFFFF" points="1.65 17.5148515 13.48 22.5445545 14.32 41.7128713 2.53 36.019802 1.65 17.5049505"></polygon>
            <polygon id="Path" fill="#FFFFFF" points="15.38 23.1683168 29.94 28.8613861 30.64 49.0792079 16.23 42.7722772"></polygon>
            <polygon id="Path" fill="#FFFFFF" points="31.81 29.5742574 48.54 35.6039604 48.51 56.5247525 32.48 49.7425743"></polygon>
            <polygon id="Path" fill="#FFFFFF" points="38.51 5.75247525 50.36 2.33663366 61.83 5.54455446 50.07 9.36633663 38.5 5.75247525"></polygon>
            <polygon id="Path" fill="#FFFFFF" points="20.94 10.4356436 35.82 6.30693069 47.7 10.029703 33.26 14.6831683 20.94 10.4257426"></polygon>
            <polygon id="Path" fill="#0062AC" points="3.17 15.9009901 19.07 11.2871287 30.52 15.2871287 14.52 20.4356436"></polygon>
            <polygon id="Path" fill="#0062AC" points="16.23 21.0990099 32.79 16.1485149 46.92 20.8811881 30.95 26.6237624 16.23 21.0990099"></polygon>
            <polygon id="Path" fill="#FFFFFF" points="35.77 15.4158416 49.95 10.7326733 64.48 15.2871287 49.76 20.1188119 35.76 15.4158416"></polygon>
            <polygon id="Path" fill="#FFFFFF" points="52 10.019802 63.34 6.53465347 78.1 10.9207921 67.15 14.4851485 52.02 10.029703"></polygon>
            <polygon id="Path" fill="#0062AC" points="69.37 15.3267327 80.79 11.7623762 95.99 16.1188119 84.68 20.4554455 69.38 15.3267327"></polygon>
            <polygon id="Path" fill="#0062AC" points="52.08 21.0792079 67.13 16.2475248 82.55 21.1287129 68.18 26.8415842 52.08 21.0792079"></polygon>
            <polygon id="Path" fill="#0062AC" points="33.03 27.7227723 49.44 21.8118812 65.97 27.5148515 49.47 33.3861386"></polygon>
        </g>
    </g>
</svg>