<?xml version="1.0" encoding="UTF-8"?>
<svg width="100px" height="100px" viewBox="0 0 100 100" version="1.1" xmlns="http://www.w3.org/2000/svg" xmlns:xlink="http://www.w3.org/1999/xlink">
    <title>pattern_9_3</title>
    <g id="Patterns" stroke="none" stroke-width="1" fill="none" fill-rule="evenodd">
        <g id="pattern_9_3" fill-rule="nonzero">
            <path d="M99.5807309,17.4257426 L96.52,74.4059406 C96.4914664,74.9092662 96.1833628,75.3554062 95.72,75.5643564 L51.48,99.2970297 C50.84,99.6435644 48.58,99.1881188 48.12,98.9207921 L4.29,74.8811881 C3.8359181,74.6458463 3.5509736,74.1807242 3.55,73.6732673 L0.649799289,17.2871287 C0.63,16.6732673 2.11,14.8316832 2.71,14.7029703 L49.95,1.03960396 C50.2142738,0.961742361 50.4957262,0.961742361 50.76,1.03960396 L96.52,14.8514851 C97.1,15.009901 99.63,16.3465347 99.5807309,17.4257426 Z" id="Path" fill="#000000"></path>
            <polygon id="Path" fill="#0062AC" points="84.23 64.6138614 96.51 58.3267327 95.5 74.7227723 83.59 80.9009901 84.23 64.6138614"></polygon>
            <polygon id="Path" fill="#FFED00" points="68.32 72.3267327 82.21 65.5643564 81.43 82.3267327 67.58 89.5742574"></polygon>
            <polygon id="Path" fill="#FFFFFF" points="50.72 80.6237624 66.3 72.960396 65.55 90.5247525 50.79 98.5346535"></polygon>
            <polygon id="Path" fill="#E31E24" points="84.87 44.1584158 97.45 38.7029703 96.43 56.3069307 84 62.3465347 84.86 44.1584158"></polygon>
            <polygon id="Path" fill="#E31E24" points="68.87 51.3168317 83.17 44.960396 82.13 63.5445545 68.21 70.2475248 68.87 51.3168317"></polygon>
            <polygon id="Path" fill="#E31E24" points="50.59 58.5544554 66.77 52.1485149 66.15 70.960396 50.59 78.6336634"></polygon>
            <polygon id="Path" fill="#E31E24" points="86.03 22.5742574 98.59 17.6534653 97.69 36.6336634 85.2 41.7524752 86.03 22.5841584"></polygon>
            <polygon id="Path" fill="#E31E24" points="69.09 29.1485149 83.97 23.3267327 83.5 42.5247525 68.81 49.1485149"></polygon>
            <polygon id="Path" fill="#E31E24" points="50.4 35.6930693 67.13 29.6534653 66.79 50.0693069 50.49 56.4455446 50.41 35.6930693"></polygon>
            <polygon id="Path" fill="#FFFFFF" points="3.92 58.8514851 15.33 64.5148515 15.73 79.8910891 4.58 74.0693069 3.92 58.8514851"></polygon>
            <polygon id="Path" fill="#0062AC" points="17.16 65.5445545 31 72.1386139 31.12 88.1188119 17.68 81.049505"></polygon>
            <polygon id="Path" fill="#0062AC" points="32.92 73.2673267 48.74 80.7821782 48.83 98.1782178 32.87 89.3069307 32.92 73.2673267"></polygon>
            <polygon id="Path" fill="#009846" points="2.88 38.4356436 14.55 44 15.23 62.4158416 3.73 56.3960396"></polygon>
            <polygon id="Path" fill="#FFFFFF" points="16.4 45.1485149 30.5 50.960396 31.1 70.019802 17.1 63.5049505 16.4 45.1485149"></polygon>
            <polygon id="Path" fill="#009846" points="32.36 51.6831683 48.58 58.5841584 48.56 78.6237624 32.98 71.1485149 32.36 51.6930693"></polygon>
            <polygon id="Path" fill="#0062AC" points="1.65 17.5148515 13.48 22.5445545 14.32 41.7128713 2.53 36.019802 1.65 17.5049505"></polygon>
            <polygon id="Path" fill="#FFFFFF" points="15.38 23.1683168 29.94 28.8613861 30.64 49.0792079 16.23 42.7722772"></polygon>
            <polygon id="Path" fill="#009846" points="31.81 29.5742574 48.54 35.6039604 48.51 56.5247525 32.48 49.7425743"></polygon>
            <polygon id="Path" fill="#E31E24" points="38.51 5.75247525 50.36 2.33663366 61.83 5.54455446 50.07 9.36633663 38.5 5.75247525"></polygon>
            <polygon id="Path" fill="#E31E24" points="20.94 10.4356436 35.82 6.30693069 47.7 10.029703 33.26 14.6831683 20.94 10.4257426"></polygon>
            <polygon id="Path" fill="#E31E24" points="3.18 15.9009901 19.08 11.2871287 30.52 15.2871287 14.52 20.4356436"></polygon>
            <polygon id="Path" fill="#0062AC" points="16.23 21.0990099 32.79 16.1485149 46.92 20.8811881 30.95 26.6237624 16.23 21.0990099"></polygon>
            <polygon id="Path" fill="#0062AC" points="35.77 15.4158416 49.95 10.7326733 64.48 15.2871287 49.76 20.1188119 35.76 15.4158416"></polygon>
            <polygon id="Path" fill="#0062AC" points="52 10.019802 63.34 6.53465347 78.1 10.9207921 67.15 14.4851485 52.02 10.029703"></polygon>
            <polygon id="Path" fill="#FFFFFF" points="69.37 15.3267327 80.79 11.7623762 95.99 16.1188119 84.68 20.4554455 69.38 15.3267327"></polygon>
            <polygon id="Path" fill="#FFFFFF" points="52.08 21.0792079 67.13 16.2475248 82.55 21.1287129 68.18 26.8415842 52.08 21.0792079"></polygon>
            <polygon id="Path" fill="#FFFFFF" points="33.03 27.7227723 49.44 21.8118812 65.97 27.5148515 49.47 33.3861386"></polygon>
        </g>
    </g>
</svg>