<?xml version="1.0" encoding="UTF-8"?>
<svg width="90px" height="101px" viewBox="0 0 90 101" version="1.1" xmlns="http://www.w3.org/2000/svg" xmlns:xlink="http://www.w3.org/1999/xlink">
    <title>keyhole_4_6</title>
    <g id="keyhole" stroke="none" stroke-width="1" fill="none" fill-rule="evenodd">
        <g id="keyhole_4_6" fill-rule="nonzero">
            <path d="M2.2,51.96 C30.3,67.86 58.42,83.75 86.53,99.64 C88.33,100.66 89.23,100.55 89.23,98.17 L89.23,2.33 C89.23,0.03 88.66,-0.07 86.8,0.98 L2.47,48.69 C0.5,49.79 0.03,50.74 2.2,51.96 Z" id="Path" fill="#000000"></path>
            <polygon id="Path" fill="#FFED00" points="61.28 50.43 68.51 38.16 68.51 62.7 61.28 50.43"></polygon>
            <polygon id="Path" fill="#696969" points="70.6 66.25 77.83 53.98 77.83 78.52"></polygon>
            <polygon id="Path" fill="#FFED00" points="77.14 50.43 69.91 38.16 69.91 62.7 77.14 50.43"></polygon>
            <polygon id="Path" fill="#696969" points="70.6 34.62 77.84 22.35 77.84 46.88"></polygon>
            <polygon id="Path" fill="#FFED00" points="79.93 82.06 87.16 69.79 87.16 94.33 79.93 82.06"></polygon>
            <polygon id="Path" fill="#FFED00" points="86.46 66.1 79.23 53.83 79.23 78.37 86.46 66.1"></polygon>
            <polygon id="Path" fill="#696969" points="79.93 50.43 87.16 38.16 87.16 62.7 79.93 50.43"></polygon>
            <polygon id="Path" fill="#FFED00" points="86.46 34.62 79.23 22.35 79.23 46.88"></polygon>
            <polygon id="Path" fill="#FFED00" points="79.93 18.8 87.16 6.53 87.16 31.07"></polygon>
            <polygon id="Path" fill="#696969" points="59.04 49.18 44.8 49.05 66.04 36.78 59.04 49.18"></polygon>
            <polygon id="Path" fill="#696969" points="68.07 33.2 53.83 33.07 75.08 20.8 68.08 33.2"></polygon>
            <polygon id="Path" fill="#696969" points="51.1 35.44 44.1 47.84 65.35 35.57 51.1 35.44"></polygon>
            <polygon id="Path" fill="#E31E24" points="40.68 49.01 26.44 48.88 47.68 36.61 40.68 49.01"></polygon>
            <polygon id="Path" fill="#696969" points="77.1 17.21 62.86 17.08 84.11 4.81 77.11 17.21"></polygon>
            <polygon id="Path" fill="#696969" points="60.01 19.53 53.01 31.93 74.25 19.66"></polygon>
            <polygon id="Path" fill="#009846" points="49.71 33.03 35.47 32.9 56.72 20.63 49.72 33.03"></polygon>
            <polygon id="Path" fill="#009846" points="32.75 35.28 25.74 47.68 46.99 35.4"></polygon>
            <polygon id="Path" fill="#009846" points="22.32 48.84 8.08 48.71 29.33 36.45 22.32 48.85"></polygon>
            <polygon id="Path" fill="#696969" points="59.04 51.76 44.8 51.9 66.04 64.17 59.04 51.77"></polygon>
            <polygon id="Path" fill="#696969" points="68.07 67.75 53.83 67.88 75.08 80.14 68.08 67.74"></polygon>
            <polygon id="Path" fill="#696969" points="51.1 65.5 44.1 53.1 65.35 65.37"></polygon>
            <polygon id="Path" fill="#009846" points="40.68 51.93 26.44 52.06 47.68 64.33 40.68 51.93"></polygon>
            <polygon id="Path" fill="#696969" points="77.1 83.73 62.86 83.86 84.11 96.13 77.11 83.73"></polygon>
            <polygon id="Path" fill="#696969" points="60.01 81.41 53.01 69.01 74.25 81.28 60.01 81.41"></polygon>
            <polygon id="Path" fill="#E31E24" points="49.71 67.92 35.47 68.04 56.72 80.31 49.72 67.91"></polygon>
            <polygon id="Path" fill="#E31E24" points="32.75 65.67 25.74 53.27 46.99 65.54"></polygon>
            <polygon id="Path" fill="#E31E24" points="22.32 52.1 8.08 52.23 29.33 64.5"></polygon>
        </g>
    </g>
</svg>