<?xml version="1.0" encoding="UTF-8"?>
<svg width="100px" height="90px" viewBox="0 0 100 90" version="1.1" xmlns="http://www.w3.org/2000/svg" xmlns:xlink="http://www.w3.org/1999/xlink">
    <title>keyhole_5_4</title>
    <g id="keyhole" stroke="none" stroke-width="1" fill="none" fill-rule="evenodd">
        <g id="keyhole_5_4" fill-rule="nonzero">
            <path d="M99,85.23 L52.9,2.75 C52.9,2.75 51.53,-0.04 50.05,-0.000426033105 C48.61,0.04 47.32,2.75 47.32,2.75 L0.7,85.38 C0.7,85.38 -0.43,87.58 0.18,88.7 C0.78,89.8 3.18,90 3.18,90 L97.04,90 C97.04,90 99.44,89.81 99.91,88.56 C100.36,87.36 99,85.23 99,85.23 Z" id="Path" fill="#000000"></path>
            <polygon id="Path" fill="#FFED00" points="31.69 59.52 52.52 40.74 71.26 59.95 31.69 59.52"></polygon>
            <path d="M72.7,61.97 L29.86,61.97 C29.86,61.97 49.52,76.57 51.08,76.57 C52.65,76.57 72.7,61.97 72.7,61.97 Z" id="Path" fill="#FFED00"></path>
            <polygon id="Path" fill="#FFED00" points="13.72 77.72 27.65 64.3 45.1 77.43 13.72 77.73"></polygon>
            <polygon id="Path" fill="#FFED00" points="56.3 77 75.04 64 87.67 77 56.29 77"></polygon>
            <polygon id="Path" fill="#FFED00" points="1.74 89.28 10.72 80.61 27.39 89.28"></polygon>
            <polygon id="Path" fill="#FFED00" points="46 79.45 13.08 79.45 32.35 89.57"></polygon>
            <polygon id="Path" fill="#FFED00" points="63.84 89.42 36.37 89.42 50.69 79.74 63.84 89.42"></polygon>
            <polygon id="Path" fill="#FFED00" points="67.88 89.42 54.99 79.31 88.71 79.31"></polygon>
            <polygon id="Path" fill="#FFED00" points="97.7 89.13 90.4 80.75 72.44 89.57 97.69 89.13"></polygon>
            <polygon id="Path" fill="#0062AC" points="54.34 35.68 52.91 20.95 73.21 56.63 54.34 35.68"></polygon>
            <polygon id="Path" fill="#696969" points="76.73 59.37 72.31 45.37 89.23 73.67"></polygon>
            <polygon id="Path" fill="#0062AC" points="73.87 55.18 54.34 20.95 69.84 40.59 73.87 55.19"></polygon>
            <polygon id="Path" fill="#696969" points="52.65 16.18 51.87 8.38 66.19 34.82"></polygon>
            <polygon id="Path" fill="#0062AC" points="92.1 77.58 87.02 64.72 99 85.96"></polygon>
            <polygon id="Path" fill="#0062AC" points="88.84 71.36 73.22 44.78 83.12 57.64"></polygon>
            <polygon id="Path" fill="#696969" points="69.96 38.43 67.23 29.18 81.16 54.18"></polygon>
            <polygon id="Path" fill="#696969" points="68.14 35.97 53.17 9.4 65.67 26.3 68.14 35.98"></polygon>
            <polygon id="Path" fill="#696969" points="51.74 5.63 51.22 0.73 63.45 22.39"></polygon>
            <polygon id="Path" fill="#009846" points="50.3 34.96 49.78 21.09 29.86 56.05"></polygon>
            <polygon id="Path" fill="#0062AC" points="12.29 74.1 28.82 45.22 25.31 59.95 12.29 74.11"></polygon>
            <polygon id="Path" fill="#009846" points="28.56 55.62 31.82 39.87 48.62 20.37 28.56 55.62"></polygon>
            <polygon id="Path" fill="#696969" points="49.52 16.61 49.13 8.38 34.68 34.68 49.52 16.6"></polygon>
            <polygon id="Path" fill="#009846" points="13.72 63.27 1.74 84.51 8.64 77.29 13.72 63.27"></polygon>
            <polygon id="Path" fill="#009846" points="11.12 73.68 16.19 58.8 28.04 44.5"></polygon>
            <polygon id="Path" fill="#696969" points="19.19 53.16 32.59 29.62 29.86 40.31 19.2 53.16"></polygon>
            <polygon id="Path" fill="#696969" points="32.2 36.26 34.29 26.44 48.09 8.52 32.21 36.26"></polygon>
            <polygon id="Path" fill="#696969" points="48.61 5.49 48.61 1.3 37.54 20.8 48.61 5.5"></polygon>
        </g>
    </g>
</svg>