<?xml version="1.0" encoding="UTF-8"?>
<svg width="100px" height="89px" viewBox="0 0 100 89" version="1.1" xmlns="http://www.w3.org/2000/svg" xmlns:xlink="http://www.w3.org/1999/xlink">
    <title>keyhole_3_2</title>
    <g id="keyhole" stroke="none" stroke-width="1" fill="none" fill-rule="evenodd">
        <g id="keyhole_3_2" fill-rule="nonzero">
            <path d="M48.34,1.5 L0.65,85.81 C-0.37,87.61 -0.26,88.51 2.12,88.51 L97.96,88.51 C100.26,88.51 100.36,87.94 99.32,86.08 L51.6,1.76 C50.5,-0.2 49.55,-0.68 48.34,1.49 L48.34,1.5 Z" id="Path" fill="#000000"></path>
            <polygon id="Path" fill="#696969" points="49.86 60.57 62.13 67.8 37.6 67.8 49.87 60.57"></polygon>
            <polygon id="Path" fill="#0062AC" points="34.05 69.9 46.32 77.13 21.78 77.13"></polygon>
            <polygon id="Path" fill="#696969" points="49.86 76.43 62.13 69.2 37.6 69.2 49.87 76.43"></polygon>
            <polygon id="Path" fill="#696969" points="65.68 69.9 77.95 77.13 53.4 77.13 65.67 69.9"></polygon>
            <polygon id="Path" fill="#0062AC" points="18.23 79.22 30.5 86.45 5.96 86.45"></polygon>
            <polygon id="Path" fill="#0062AC" points="34.2 85.76 46.46 78.53 21.92 78.53 34.19 85.76"></polygon>
            <polygon id="Path" fill="#0062AC" points="49.86 79.22 62.13 86.45 37.6 86.45 49.87 79.22"></polygon>
            <polygon id="Path" fill="#696969" points="65.68 85.76 77.95 78.53 53.4 78.53 65.67 85.76"></polygon>
            <polygon id="Path" fill="#696969" points="81.5 79.22 93.76 86.45 69.23 86.45 81.49 79.22"></polygon>
            <polygon id="Path" fill="#696969" points="51.12 58.33 51.24 44.09 63.51 65.34 51.11 58.33"></polygon>
            <polygon id="Path" fill="#696969" points="67.1 67.36 67.23 53.12 79.49 74.37 67.09 67.37"></polygon>
            <polygon id="Path" fill="#696969" points="64.85 50.4 52.45 43.39 64.72 64.64"></polygon>
            <polygon id="Path" fill="#696969" points="51.28 39.97 51.41 25.73 63.68 46.98 51.28 39.97"></polygon>
            <polygon id="Path" fill="#696969" points="83.08 76.4 83.21 62.16 95.48 83.4 83.08 76.39"></polygon>
            <polygon id="Path" fill="#696969" points="80.76 59.3 68.36 52.3 80.63 73.55 80.76 59.31"></polygon>
            <polygon id="Path" fill="#696969" points="67.27 49 67.39 34.76 79.66 56.01 67.26 49.01"></polygon>
            <polygon id="Path" fill="#FFED00" points="65.02 32.04 52.62 25.04 64.9 46.27 65.03 32.03"></polygon>
            <polygon id="Path" fill="#FFED00" points="51.45 21.61 51.58 7.37 63.85 28.62 51.45 21.62"></polygon>
            <polygon id="Path" fill="#696969" points="48.53 58.33 48.4 44.09 36.13 65.34"></polygon>
            <polygon id="Path" fill="#E31E24" points="32.55 67.36 32.42 53.12 20.15 74.37 32.55 67.37"></polygon>
            <polygon id="Path" fill="#696969" points="34.8 50.4 47.19 43.39 34.92 64.64"></polygon>
            <polygon id="Path" fill="#696969" points="48.36 39.97 48.23 25.73 35.96 46.98 48.36 39.97"></polygon>
            <polygon id="Path" fill="#E31E24" points="16.56 76.4 16.43 62.16 4.17 83.4 16.57 76.39"></polygon>
            <polygon id="Path" fill="#E31E24" points="18.88 59.3 31.28 52.3 19.01 73.55 18.88 59.31"></polygon>
            <polygon id="Path" fill="#696969" points="32.38 49 32.25 34.76 19.98 56.01 32.38 49.01"></polygon>
            <polygon id="Path" fill="#696969" points="34.63 32.04 47.03 25.04 34.75 46.28"></polygon>
            <polygon id="Path" fill="#696969" points="48.2 21.61 48.06 7.37 35.8 28.62 48.2 21.62"></polygon>
        </g>
    </g>
</svg>