<?xml version="1.0" encoding="UTF-8"?>
<svg width="100px" height="88px" viewBox="0 0 100 88" version="1.1" xmlns="http://www.w3.org/2000/svg" xmlns:xlink="http://www.w3.org/1999/xlink">
    <title>keyhole_4_7</title>
    <g id="keyhole" stroke="none" stroke-width="1" fill="none" fill-rule="evenodd">
        <g id="keyhole_4_7" fill-rule="nonzero">
            <path d="M51.8,1.05 L99.71,84.05 C100.51,85.43 99.49,87.13 97.93,87.13 L2.08,87.13 C0.38,87.13 -0.57,85.23 0.39,83.88 L48.22,1.03 C49.02,-0.37 51.03,-0.32 51.8,1.05 Z" id="Path" fill="#000000"></path>
            <polygon id="Path" fill="#E31E24" points="50 6.17 62.34 27.55 37.66 27.55"></polygon>
            <polygon id="Path" fill="#E31E24" points="34.09 33.73 46.43 55.1 21.75 55.1 34.09 33.73"></polygon>
            <polygon id="Path" fill="#E31E24" points="50 53.05 62.34 31.68 37.66 31.68"></polygon>
            <polygon id="Path" fill="#009846" points="65.9 33.74 78.26 55.1 53.57 55.1"></polygon>
            <polygon id="Path" fill="#696969" points="18.18 61.3 30.52 82.66 5.84 82.66"></polygon>
            <polygon id="Path" fill="#696969" points="34.24 80.6 46.58 59.23 21.9 59.23 34.24 80.61"></polygon>
            <polygon id="Path" fill="#696969" points="50 61.3 62.34 82.66 37.66 82.66"></polygon>
            <polygon id="Path" fill="#696969" points="65.9 80.6 78.25 59.23 53.57 59.23 65.9 80.61"></polygon>
            <polygon id="Path" fill="#696969" points="81.82 61.3 94.16 82.66 69.48 82.66"></polygon>
        </g>
    </g>
</svg>