<?xml version="1.0" encoding="UTF-8"?>
<svg width="210px" height="100px" viewBox="0 0 210 100" version="1.1" xmlns="http://www.w3.org/2000/svg" xmlns:xlink="http://www.w3.org/1999/xlink">
    <title>pll_16_3</title>
    <g id="pll_16_3" stroke="none" stroke-width="1" fill="none" fill-rule="evenodd">
        <g transform="translate(1.000000, 0.000000)">
            <polygon id="Path" fill="#000000" points="0.08545 19.2754 9.1878 80.8861 63.8335 99.9205 97.7492 67.4145 97.7492 7.49827 42.6407 0.144623"></polygon>
            <polygon id="Path" fill="#009A0E" points="88.2041 58.1468 96.9189 50.488 97.0051 66.9565 88.2041 75.3621"></polygon>
            <polygon id="Path" fill="#009A0E" points="76.6035 67.85 86.717 59.3085 86.7141 76.6775 76.9182 85.99"></polygon>
            <polygon id="Path" fill="#009A0E" points="63.6553 79.1917 75.0465 69.2908 75.5867 87.2923 64.4656 97.7814"></polygon>
            <polygon id="Path" fill="#009A0E" points="88.0244 37.3905 96.8589 30.5461 96.8589 48.1383 88.0672 55.7736"></polygon>
            <polygon id="Path" fill="#009A0E" points="75.9272 46.332 86.2613 38.4484 86.5734 56.952 76.3787 65.5684"></polygon>
            <polygon id="Path" fill="#009A0E" points="62.3853 56.8014 74.1625 47.8724 74.7936 66.6079 63.5013 76.5139"></polygon>
            <polygon id="Path" fill="#009A0E" points="87.686 15.2509 96.9217 9.35114 96.9217 28.1915 87.686 35.3294"></polygon>
            <polygon id="Path" fill="#FF8100" points="74.9434 23.1383 86.1416 16.1481 86.1416 36.0793 75.6625 43.6625"></polygon>
            <polygon id="Path" fill="#D0021B" points="61.0303 32.1809 73.352 24.2988 74.0396 45.0007 61.9627 54.179"></polygon>
            <polygon id="Path" fill="#D0021B" points="7.36426 63.0673 22.4453 67.7863 24.464 85.1274 9.8589 80.0763"></polygon>
            <polygon id="Path" fill="#D0021B" points="24.5278 68.2724 41.0741 73.5715 42.6973 91.5579 26.6732 85.9835"></polygon>
            <polygon id="Path" fill="#D0021B" points="43.4453 74.0816 61.3216 79.7311 62.4825 98.3867 44.9302 92.1748"></polygon>
            <polygon id="Path" fill="#D0021B" points="4.26611 42.5068 19.8784 46.8521 22.148 65.4159 7.00575 60.8649"></polygon>
            <polygon id="Path" fill="#D0021B" points="22.1382 47.3862 39.2125 51.6012 40.8242 71.0198 24.4249 66.051"></polygon>
            <polygon id="Path" fill="#D0021B" points="41.6631 52.4071 60.1242 57.2168 61.1022 77.171 43.0065 71.7279"></polygon>
            <polygon id="Path" fill="#009A0E" points="1.2583 20.9258 17.1016 24.1438 19.4008 44.159 4.11262 40.4847"></polygon>
            <polygon id="Path" fill="#D0021B" points="19.2793 24.5275 36.8079 28.1915 38.9262 49.2004 21.6844 44.8324"></polygon>
            <polygon id="Path" fill="#025AC1" points="39.5459 28.6229 58.7388 32.7128 59.7618 54.4511 41.1885 49.7452"></polygon>
            <polygon id="Path" fill="#FFDB11" points="42.7301 0.661133 57.3696 2.70313 46.7246 7.95516 31.6846 5.69442"></polygon>
            <polygon id="Path" fill="#FFDB11" points="29.9591 6.37854 45.3166 8.68999 33.1452 14.7348 17.6284 12.0188"></polygon>
            <polygon id="Path" fill="#FFDB11" points="15.8538 12.8521 31.2681 15.5268 17.7551 22.2073 2.10889 19.0718"></polygon>
            <polygon id="Path" fill="#FFDB11" points="33.526 15.8463 50.8287 18.8557 37.4675 26.2274 19.8799 22.7102"></polygon>
            <polygon id="Path" fill="#FFDB11" points="47.3395 9.073 63.9468 11.6658 52.3313 18.0047 35.3428 15.0288"></polygon>
            <polygon id="Path" fill="#FFDB11" points="59.6527 2.98444 75.6607 5.20129 65.5415 10.886 48.752 8.28648"></polygon>
            <polygon id="Path" fill="#FFDB11" points="78.2104 5.5144 95.6861 7.94187 86.0171 13.9058 68.2812 11.1602"></polygon>
            <polygon id="Path" fill="#FFDB11" points="66.3192 11.9232 84.3963 14.7702 73.4318 21.6946 54.8105 18.3866"></polygon>
            <polygon id="Path" fill="#FFDB11" points="53.1081 19.4277 71.7186 22.697 59.36 30.5818 39.8911 26.7168"></polygon>
            <rect id="Rectangle" fill="#000000" fill-rule="nonzero" transform="translate(159.000000, 50.000000) rotate(90.000000) translate(-159.000000, -50.000000) " x="109" y="0" width="100" height="100"></rect>
            <rect id="Rectangle" fill="#FF8100" fill-rule="nonzero" transform="translate(134.000000, 7.000000) rotate(180.000000) translate(-134.000000, -7.000000) " x="123" y="5" width="22" height="4"></rect>
            <rect id="Rectangle" fill="#009A0E" fill-rule="nonzero" transform="translate(159.000000, 7.000000) rotate(180.000000) translate(-159.000000, -7.000000) " x="148" y="5" width="22" height="4"></rect>
            <rect id="Rectangle" fill="#FF8100" fill-rule="nonzero" transform="translate(184.000000, 7.000000) rotate(180.000000) translate(-184.000000, -7.000000) " x="173" y="5" width="22" height="4"></rect>
            <rect id="Rectangle" fill="#009A0E" fill-rule="nonzero" transform="translate(134.000000, 93.000000) rotate(180.000000) translate(-134.000000, -93.000000) " x="123" y="91" width="22" height="4"></rect>
            <rect id="Rectangle" fill="#D0021B" fill-rule="nonzero" transform="translate(159.000000, 93.000000) rotate(180.000000) translate(-159.000000, -93.000000) " x="148" y="91" width="22" height="4"></rect>
            <rect id="Rectangle" fill="#025AC1" fill-rule="nonzero" transform="translate(184.000000, 93.000000) rotate(180.000000) translate(-184.000000, -93.000000) " x="173" y="91" width="22" height="4"></rect>
            <rect id="Rectangle" fill="#D0021B" fill-rule="nonzero" transform="translate(116.000000, 75.000000) rotate(90.000000) translate(-116.000000, -75.000000) " x="105" y="73" width="22" height="4"></rect>
            <rect id="Rectangle" fill="#025AC1" fill-rule="nonzero" transform="translate(116.000000, 50.000000) rotate(90.000000) translate(-116.000000, -50.000000) " x="105" y="48" width="22" height="4"></rect>
            <rect id="Rectangle" fill="#025AC1" fill-rule="nonzero" transform="translate(116.000000, 25.000000) rotate(90.000000) translate(-116.000000, -25.000000) " x="105" y="23" width="22" height="4"></rect>
            <rect id="Rectangle" fill="#D0021B" fill-rule="nonzero" transform="translate(202.000000, 75.000000) rotate(90.000000) translate(-202.000000, -75.000000) " x="191" y="73" width="22" height="4"></rect>
            <rect id="Rectangle" fill="#FF8100" fill-rule="nonzero" transform="translate(202.000000, 50.000000) rotate(90.000000) translate(-202.000000, -50.000000) " x="191" y="48" width="22" height="4"></rect>
            <rect id="Rectangle" fill="#009A0E" fill-rule="nonzero" transform="translate(202.000000, 25.000000) rotate(90.000000) translate(-202.000000, -25.000000) " x="191" y="23" width="22" height="4"></rect>
            <rect id="Rectangle" fill="#FFDB11" fill-rule="nonzero" transform="translate(134.000000, 75.000000) rotate(90.000000) translate(-134.000000, -75.000000) " x="123" y="64" width="22" height="22"></rect>
            <rect id="Rectangle" fill="#FFDB11" fill-rule="nonzero" transform="translate(134.000000, 50.000000) rotate(90.000000) translate(-134.000000, -50.000000) " x="123" y="39" width="22" height="22"></rect>
            <rect id="Rectangle" fill="#FFDB11" fill-rule="nonzero" transform="translate(134.000000, 25.000000) rotate(90.000000) translate(-134.000000, -25.000000) " x="123" y="14" width="22" height="22"></rect>
            <rect id="Rectangle" fill="#FFDB11" fill-rule="nonzero" transform="translate(159.000000, 75.000000) rotate(90.000000) translate(-159.000000, -75.000000) " x="148" y="64" width="22" height="22"></rect>
            <rect id="Rectangle" fill="#FFDB11" fill-rule="nonzero" transform="translate(159.000000, 50.000000) rotate(90.000000) translate(-159.000000, -50.000000) " x="148" y="39" width="22" height="22"></rect>
            <rect id="Rectangle" fill="#FFDB11" fill-rule="nonzero" transform="translate(159.000000, 25.000000) rotate(90.000000) translate(-159.000000, -25.000000) " x="148" y="14" width="22" height="22"></rect>
            <rect id="Rectangle" fill="#FFDB11" fill-rule="nonzero" transform="translate(184.000000, 75.000000) rotate(90.000000) translate(-184.000000, -75.000000) " x="173" y="64" width="22" height="22"></rect>
            <rect id="Rectangle" fill="#FFDB11" fill-rule="nonzero" transform="translate(184.000000, 50.000000) rotate(90.000000) translate(-184.000000, -50.000000) " x="173" y="39" width="22" height="22"></rect>
            <rect id="Rectangle" fill="#FFDB11" fill-rule="nonzero" transform="translate(184.000000, 25.000000) rotate(90.000000) translate(-184.000000, -25.000000) " x="173" y="14" width="22" height="22"></rect>
            <path d="M186.616,76.1796 C187.006,75.7891 187.006,75.156 186.616,74.7654 L180.252,68.4015 C179.861,68.0109 179.228,68.0109 178.838,68.4015 C178.447,68.792 178.447,69.4252 178.838,69.8157 L184.495,75.4725 L178.838,81.1294 C178.447,81.5199 178.447,82.1531 178.838,82.5436 C179.228,82.9341 179.861,82.9341 180.252,82.5436 L186.616,76.1796 Z M130.942,74.7654 C130.552,75.156 130.552,75.7891 130.942,76.1796 L137.306,82.5436 C137.697,82.9341 138.33,82.9341 138.72,82.5436 C139.111,82.1531 139.111,81.5199 138.72,81.1294 L133.064,75.4725 L138.72,69.8157 C139.111,69.4252 139.111,68.792 138.72,68.4015 C138.33,68.0109 137.697,68.0109 137.306,68.4015 L130.942,74.7654 Z M185.909,74.4725 L131.649,74.4725 L131.649,76.4725 L185.909,76.4725 L185.909,74.4725 Z" id="Shape" fill="#D0021B" fill-rule="nonzero"></path>
            <path d="M155.522,20.4635226 C154.97,20.4568 154.517,20.899 154.51,21.4513 L154.399918,30.4506 C154.393,31.0028 154.836,31.456 155.388,31.4627774 C155.94,31.4695 156.393,31.0273 156.4,30.4751 L156.498,22.4757 L164.497,22.5736 C165.05,22.5803 165.503,22.1381 165.51006,21.5859 C165.516,21.0336 165.074,20.5805 164.522,20.5737 L155.522,20.4635226 Z M186.941,54.6852751 C187.493,54.6919 187.946,54.2497 187.953,53.6975 L188.063082,44.6982 C188.07,44.1459 187.627,43.6927 187.075,43.6859226 C186.523,43.6792 186.07,44.1214 186.063,44.6737 L185.965,52.6731 L177.966,52.5752 C177.413,52.5684 176.96,53.0106 176.953918,53.5629 C176.947,54.1151 177.389,54.5683 177.941,54.575 L186.941,54.6852751 Z M154.795,22.1619 L186.237,54.3836 L187.669,52.9868 L156.226,20.7651 L154.795,22.1619 Z" id="Shape" fill="#025AC1" fill-rule="nonzero"></path>
        </g>
    </g>
</svg>