<?xml version="1.0" encoding="UTF-8"?>
<svg width="210px" height="100px" viewBox="0 0 210 100" version="1.1" xmlns="http://www.w3.org/2000/svg" xmlns:xlink="http://www.w3.org/1999/xlink">
    <title>pll_18_4</title>
    <g id="pll_18_4" stroke="none" stroke-width="1" fill="none" fill-rule="evenodd">
        <g transform="translate(1.000000, 0.000000)">
            <polygon id="Path" fill="#000000" points="0.08545 19.2754 9.1878 80.8861 63.8335 99.9206 97.7492 67.4146 97.7492 7.4983 42.6407 0.144653"></polygon>
            <polygon id="Path" fill="#025AC1" points="88.2041 58.1468 96.9189 50.488 97.0051 66.9565 88.2041 75.3621"></polygon>
            <polygon id="Path" fill="#025AC1" points="76.6035 67.85 86.717 59.3085 86.7141 76.6775 76.9182 85.99"></polygon>
            <polygon id="Path" fill="#025AC1" points="63.6553 79.1917 75.0465 69.2908 75.5867 87.2923 64.4656 97.7814"></polygon>
            <polygon id="Path" fill="#025AC1" points="88.0244 37.3905 96.8589 30.5461 96.8589 48.1383 88.0672 55.7736"></polygon>
            <polygon id="Path" fill="#025AC1" points="75.9272 46.332 86.2613 38.4484 86.5734 56.952 76.3787 65.5684"></polygon>
            <polygon id="Path" fill="#025AC1" points="62.3853 56.8014 74.1625 47.8724 74.7936 66.6079 63.5013 76.5139"></polygon>
            <polygon id="Path" fill="#009A0E" points="87.686 15.2509 96.9217 9.35114 96.9217 28.1915 87.686 35.3294"></polygon>
            <polygon id="Path" fill="#FF8100" points="74.9434 23.1383 86.1416 16.1481 86.1416 36.0793 75.6625 43.6625"></polygon>
            <polygon id="Path" fill="#D0021B" points="61.0303 32.1809 73.352 24.2988 74.0396 45.0007 61.9627 54.179"></polygon>
            <polygon id="Path" fill="#FF8100" points="7.36426 63.0673 22.4453 67.7863 24.464 85.1274 9.8589 80.0763"></polygon>
            <polygon id="Path" fill="#FF8100" points="24.5278 68.2724 41.0741 73.5715 42.6973 91.5579 26.6732 85.9835"></polygon>
            <polygon id="Path" fill="#FF8100" points="43.4453 74.0816 61.3216 79.7311 62.4825 98.3867 44.9302 92.1748"></polygon>
            <polygon id="Path" fill="#FF8100" points="4.26611 42.5068 19.8784 46.8521 22.148 65.4159 7.00575 60.8649"></polygon>
            <polygon id="Path" fill="#FF8100" points="22.1382 47.3862 39.2125 51.6012 40.8242 71.0198 24.4249 66.051"></polygon>
            <polygon id="Path" fill="#FF8100" points="41.6631 52.4071 60.1242 57.2168 61.1022 77.171 43.0065 71.7279"></polygon>
            <polygon id="Path" fill="#025AC1" points="1.2583 20.9258 17.1016 24.1438 19.4008 44.159 4.11262 40.4847"></polygon>
            <polygon id="Path" fill="#D0021B" points="19.2793 24.5275 36.8079 28.1915 38.9262 49.2004 21.6844 44.8324"></polygon>
            <polygon id="Path" fill="#025AC1" points="39.5459 28.6229 58.7388 32.7128 59.7618 54.4511 41.1885 49.7452"></polygon>
            <polygon id="Path" fill="#FFDB11" points="42.7301 0.661133 57.3696 2.70313 46.7246 7.95516 31.6846 5.69442"></polygon>
            <polygon id="Path" fill="#FFDB11" points="29.9591 6.37854 45.3166 8.68999 33.1452 14.7348 17.6284 12.0188"></polygon>
            <polygon id="Path" fill="#FFDB11" points="15.8538 12.8521 31.2681 15.5268 17.7551 22.2073 2.10889 19.0718"></polygon>
            <polygon id="Path" fill="#FFDB11" points="33.526 15.8463 50.8287 18.8557 37.4675 26.2274 19.8799 22.7102"></polygon>
            <polygon id="Path" fill="#FFDB11" points="47.3395 9.073 63.9468 11.6658 52.3313 18.0047 35.3428 15.0288"></polygon>
            <polygon id="Path" fill="#FFDB11" points="59.6527 2.98444 75.6607 5.20129 65.5415 10.886 48.752 8.28648"></polygon>
            <polygon id="Path" fill="#FFDB11" points="78.2104 5.5144 95.6861 7.94187 86.0171 13.9058 68.2812 11.1602"></polygon>
            <polygon id="Path" fill="#FFDB11" points="66.3192 11.9232 84.3963 14.7702 73.4318 21.6946 54.8105 18.3866"></polygon>
            <polygon id="Path" fill="#FFDB11" points="53.1081 19.4277 71.7186 22.697 59.36 30.5818 39.8911 26.7168"></polygon>
            <rect id="Rectangle" fill="#000000" fill-rule="nonzero" transform="translate(159.000000, 50.000000) rotate(90.000000) translate(-159.000000, -50.000000) " x="109" y="0" width="100" height="100"></rect>
            <rect id="Rectangle" fill="#D0021B" fill-rule="nonzero" transform="translate(134.000000, 7.000000) rotate(180.000000) translate(-134.000000, -7.000000) " x="123" y="5" width="22" height="4"></rect>
            <rect id="Rectangle" fill="#025AC1" fill-rule="nonzero" transform="translate(159.000000, 7.000000) rotate(180.000000) translate(-159.000000, -7.000000) " x="148" y="5" width="22" height="4"></rect>
            <rect id="Rectangle" fill="#FF8100" fill-rule="nonzero" transform="translate(184.000000, 7.000000) rotate(180.000000) translate(-184.000000, -7.000000) " x="173" y="5" width="22" height="4"></rect>
            <rect id="Rectangle" fill="#025AC1" fill-rule="nonzero" transform="translate(134.000000, 93.000000) rotate(180.000000) translate(-134.000000, -93.000000) " x="123" y="91" width="22" height="4"></rect>
            <rect id="Rectangle" fill="#D0021B" fill-rule="nonzero" transform="translate(159.000000, 93.000000) rotate(180.000000) translate(-159.000000, -93.000000) " x="148" y="91" width="22" height="4"></rect>
            <rect id="Rectangle" fill="#025AC1" fill-rule="nonzero" transform="translate(184.000000, 93.000000) rotate(180.000000) translate(-184.000000, -93.000000) " x="173" y="91" width="22" height="4"></rect>
            <rect id="Rectangle" fill="#FF8100" fill-rule="nonzero" transform="translate(116.000000, 75.000000) rotate(90.000000) translate(-116.000000, -75.000000) " x="105" y="73" width="22" height="4"></rect>
            <rect id="Rectangle" fill="#009A0E" fill-rule="nonzero" transform="translate(116.000000, 50.000000) rotate(90.000000) translate(-116.000000, -50.000000) " x="105" y="48" width="22" height="4"></rect>
            <rect id="Rectangle" fill="#009A0E" fill-rule="nonzero" transform="translate(116.000000, 25.000000) rotate(90.000000) translate(-116.000000, -25.000000) " x="105" y="23" width="22" height="4"></rect>
            <rect id="Rectangle" fill="#D0021B" fill-rule="nonzero" transform="translate(202.000000, 75.000000) rotate(90.000000) translate(-202.000000, -75.000000) " x="191" y="73" width="22" height="4"></rect>
            <rect id="Rectangle" fill="#FF8100" fill-rule="nonzero" transform="translate(202.000000, 50.000000) rotate(90.000000) translate(-202.000000, -50.000000) " x="191" y="48" width="22" height="4"></rect>
            <rect id="Rectangle" fill="#009A0E" fill-rule="nonzero" transform="translate(202.000000, 25.000000) rotate(90.000000) translate(-202.000000, -25.000000) " x="191" y="23" width="22" height="4"></rect>
            <rect id="Rectangle" fill="#FFDB11" fill-rule="nonzero" transform="translate(134.000000, 75.000000) rotate(90.000000) translate(-134.000000, -75.000000) " x="123" y="64" width="22" height="22"></rect>
            <rect id="Rectangle" fill="#FFDB11" fill-rule="nonzero" transform="translate(134.000000, 50.000000) rotate(90.000000) translate(-134.000000, -50.000000) " x="123" y="39" width="22" height="22"></rect>
            <rect id="Rectangle" fill="#FFDB11" fill-rule="nonzero" transform="translate(134.000000, 25.000000) rotate(90.000000) translate(-134.000000, -25.000000) " x="123" y="14" width="22" height="22"></rect>
            <rect id="Rectangle" fill="#FFDB11" fill-rule="nonzero" transform="translate(159.000000, 75.000000) rotate(90.000000) translate(-159.000000, -75.000000) " x="148" y="64" width="22" height="22"></rect>
            <rect id="Rectangle" fill="#FFDB11" fill-rule="nonzero" transform="translate(159.000000, 50.000000) rotate(90.000000) translate(-159.000000, -50.000000) " x="148" y="39" width="22" height="22"></rect>
            <rect id="Rectangle" fill="#FFDB11" fill-rule="nonzero" transform="translate(159.000000, 25.000000) rotate(90.000000) translate(-159.000000, -25.000000) " x="148" y="14" width="22" height="22"></rect>
            <rect id="Rectangle" fill="#FFDB11" fill-rule="nonzero" transform="translate(184.000000, 75.000000) rotate(90.000000) translate(-184.000000, -75.000000) " x="173" y="64" width="22" height="22"></rect>
            <rect id="Rectangle" fill="#FFDB11" fill-rule="nonzero" transform="translate(184.000000, 50.000000) rotate(90.000000) translate(-184.000000, -50.000000) " x="173" y="39" width="22" height="22"></rect>
            <rect id="Rectangle" fill="#FFDB11" fill-rule="nonzero" transform="translate(184.000000, 25.000000) rotate(90.000000) translate(-184.000000, -25.000000) " x="173" y="14" width="22" height="22"></rect>
            <path d="M185.7,77.4571 C186.094,77.0704 186.1,76.4372 185.714,76.0429 L179.412,69.617 C179.026,69.2227 178.393,69.2165 177.998,69.6032 C177.604,69.9899 177.598,70.623 177.984,71.0173 L183.586,76.7292 L177.874,82.3305 C177.479,82.7172 177.473,83.3503 177.86,83.7446 C178.247,84.139 178.88,84.1452 179.274,83.7585 L185.7,77.4571 Z M135.314,75.257 C134.762,75.2516 134.31,75.6949 134.305,76.2471 C134.299,76.7994 134.743,77.2515 135.295,77.2569 L135.314,75.257 Z M185.01,75.7431 L135.314,75.257 L135.295,77.2569 L184.99,77.743 L185.01,75.7431 Z" id="Shape" fill="#D0021B" fill-rule="nonzero"></path>
            <path d="M183.793,23.2929 C184.183,22.9024 184.817,22.9024 185.207,23.2929 L191.571,29.6569 C191.962,30.0474 191.962,30.6805 191.571,31.0711 C191.181,31.4616 190.547,31.4616 190.157,31.0711 L184.5,25.4142 L178.843,31.0711 C178.453,31.4616 177.819,31.4616 177.429,31.0711 C177.038,30.6805 177.038,30.0474 177.429,29.6569 L183.793,23.2929 Z M185.5,72.0958 C185.5,72.648 185.052,73.0958 184.5,73.0958 C183.948,73.0958 183.5,72.648 183.5,72.0958 L185.5,72.0958 Z M185.5,24 L185.5,72.0958 L183.5,72.0958 L183.5,24 L185.5,24 Z" id="Shape" fill="#D0021B" fill-rule="nonzero"></path>
            <path d="M133.166,75.3364 C132.614,75.3549 132.151,74.9225 132.133,74.3705 L131.831,65.3756 C131.812,64.8236 132.244,64.3611 132.796,64.3426 C133.348,64.324 133.811,64.7564 133.829,65.3084 L134.098,73.3039 L142.094,73.0351 C142.646,73.0166 143.108,73.449 143.127,74.0009 C143.145,74.5529 142.713,75.0154 142.161,75.034 L133.166,75.3364 Z M182.269,20.317 C182.647,19.9136 183.279,19.8924 183.683,20.2695 C184.086,20.6467 184.108,21.2795 183.73,21.683 L182.269,20.317 Z M132.402,73.654 L182.269,20.317 L183.73,21.683 L133.863,75.0199 L132.402,73.654 Z" id="Shape" fill="#D0021B" fill-rule="nonzero"></path>
            <path d="M183.966,48.5924 C184.518,48.6109 184.981,48.1785 184.999,47.6266 L185.302,38.6317 C185.321,38.0797 184.888,37.6172 184.336,37.5986 C183.785,37.58 183.322,38.0124 183.303,38.5644 L183.034,46.5598 L175.039,46.2906 C174.487,46.2721 174.024,46.7045 174.006,47.2564 C173.987,47.8084 174.419,48.2709 174.971,48.2895 L183.966,48.5924 Z M160.805,21.3171 C160.428,20.9136 159.795,20.8923 159.391,21.2695 C158.988,21.6467 158.967,22.2795 159.344,22.6829 L160.805,21.3171 Z M184.731,46.91 L160.805,21.3171 L159.344,22.6829 L183.269,48.2758 L184.731,46.91 Z" id="Shape" fill="#025AC1" fill-rule="nonzero"></path>
            <path d="M158.314,23.9308 C157.923,23.5402 157.29,23.5402 156.899,23.9308 L150.535,30.2947 C150.145,30.6853 150.145,31.3184 150.535,31.7089 C150.926,32.0995 151.559,32.0995 151.95,31.7089 L157.606,26.0521 L163.263,31.7089 C163.654,32.0995 164.287,32.0995 164.678,31.7089 C165.068,31.3184 165.068,30.6853 164.678,30.2947 L158.314,23.9308 Z M156.606,75.7012 C156.606,76.2535 157.054,76.7012 157.606,76.7012 C158.159,76.7012 158.606,76.2535 158.606,75.7012 L156.606,75.7012 Z M156.606,24.6379 L156.606,75.7012 L158.606,75.7012 L158.606,24.6379 L156.606,24.6379 Z" id="Shape" fill="#025AC1" fill-rule="nonzero"></path>
            <path d="M161.108,77.5924 C160.556,77.6109 160.093,77.1785 160.075,76.6266 L159.772,67.6317 C159.753,67.0797 160.186,66.6172 160.738,66.5986 C161.29,66.58 161.752,67.0124 161.771,67.5644 L162.04,75.5598 L170.035,75.2906 C170.587,75.2721 171.05,75.7045 171.069,76.2564 C171.087,76.8084 170.655,77.2709 170.103,77.2895 L161.108,77.5924 Z M184.269,50.3171 C184.647,49.9136 185.279,49.8923 185.683,50.2695 C186.086,50.6467 186.108,51.2795 185.73,51.6829 L184.269,50.3171 Z M160.344,75.91 L184.269,50.3171 L185.73,51.6829 L161.805,77.2758 L160.344,75.91 Z" id="Shape" fill="#025AC1" fill-rule="nonzero"></path>
        </g>
    </g>
</svg>