<?xml version="1.0" encoding="UTF-8"?>
<svg width="210px" height="100px" viewBox="0 0 210 100" version="1.1" xmlns="http://www.w3.org/2000/svg" xmlns:xlink="http://www.w3.org/1999/xlink">
    <title>pll_17_2</title>
    <g id="pll_17_2" stroke="none" stroke-width="1" fill="none" fill-rule="evenodd">
        <g transform="translate(1.000000, 0.000000)">
            <polygon id="Path" fill="#000000" points="0.08545 19.2754 9.1878 80.8861 63.8335 99.9205 97.7492 67.4145 97.7492 7.49827 42.6407 0.144623"></polygon>
            <polygon id="Path" fill="#009A0E" points="88.2041 58.1468 96.9189 50.488 97.0051 66.9564 88.2041 75.3621"></polygon>
            <polygon id="Path" fill="#009A0E" points="76.6035 67.85 86.717 59.3085 86.7141 76.6775 76.9182 85.99"></polygon>
            <polygon id="Path" fill="#009A0E" points="63.6553 79.1916 75.0465 69.2908 75.5867 87.2923 64.4656 97.7813"></polygon>
            <polygon id="Path" fill="#009A0E" points="88.0244 37.3905 96.8589 30.5461 96.8589 48.1383 88.0672 55.7736"></polygon>
            <polygon id="Path" fill="#009A0E" points="75.9272 46.3319 86.2613 38.4483 86.5734 56.9519 76.3787 65.5684"></polygon>
            <polygon id="Path" fill="#009A0E" points="62.3853 56.8013 74.1625 47.8723 74.7936 66.6079 63.5013 76.5139"></polygon>
            <polygon id="Path" fill="#D0021B" points="87.686 15.2509 96.9217 9.35114 96.9217 28.1915 87.686 35.3294"></polygon>
            <polygon id="Path" fill="#025AC1" points="74.9434 23.1383 86.1416 16.1481 86.1416 36.0793 75.6625 43.6625"></polygon>
            <polygon id="Path" fill="#FF8100" points="61.0303 32.1808 73.352 24.2988 74.0396 45.0007 61.9627 54.179"></polygon>
            <polygon id="Path" fill="#D0021B" points="7.36426 63.0673 22.4453 67.7863 24.464 85.1274 9.8589 80.0763"></polygon>
            <polygon id="Path" fill="#D0021B" points="24.5278 68.2724 41.0741 73.5715 42.6973 91.5579 26.6732 85.9835"></polygon>
            <polygon id="Path" fill="#D0021B" points="43.4453 74.0816 61.3216 79.7311 62.4825 98.3867 44.9302 92.1748"></polygon>
            <polygon id="Path" fill="#D0021B" points="4.26611 42.5068 19.8784 46.8521 22.148 65.4158 7.00575 60.8649"></polygon>
            <polygon id="Path" fill="#D0021B" points="22.1382 47.3862 39.2125 51.6012 40.8242 71.0198 24.4249 66.051"></polygon>
            <polygon id="Path" fill="#D0021B" points="41.6631 52.4071 60.1242 57.2168 61.1022 77.171 43.0065 71.7279"></polygon>
            <polygon id="Path" fill="#D0021B" points="1.2583 20.9258 17.1016 24.1438 19.4008 44.159 4.11262 40.4848"></polygon>
            <polygon id="Path" fill="#009A0E" points="19.2793 24.5275 36.8079 28.1915 38.9262 49.2004 21.6844 44.8324"></polygon>
            <polygon id="Path" fill="#009A0E" points="39.5459 28.6229 58.7388 32.7128 59.7618 54.4511 41.1885 49.7452"></polygon>
            <polygon id="Path" fill="#FFDB11" points="42.7301 0.661133 57.3696 2.70313 46.7246 7.95516 31.6846 5.69442"></polygon>
            <polygon id="Path" fill="#FFDB11" points="29.9591 6.37854 45.3166 8.68999 33.1452 14.7348 17.6284 12.0188"></polygon>
            <polygon id="Path" fill="#FFDB11" points="15.8538 12.8521 31.2681 15.5268 17.7551 22.2073 2.10889 19.0718"></polygon>
            <polygon id="Path" fill="#FFDB11" points="33.526 15.8463 50.8287 18.8557 37.4675 26.2274 19.8799 22.7102"></polygon>
            <polygon id="Path" fill="#FFDB11" points="47.3395 9.07297 63.9468 11.6657 52.3313 18.0047 35.3428 15.0287"></polygon>
            <polygon id="Path" fill="#FFDB11" points="59.6527 2.98441 75.6607 5.20126 65.5415 10.8859 48.752 8.28645"></polygon>
            <polygon id="Path" fill="#FFDB11" points="78.2104 5.5144 95.6861 7.94187 86.0171 13.9058 68.2812 11.1602"></polygon>
            <polygon id="Path" fill="#FFDB11" points="66.3192 11.9232 84.3963 14.7702 73.4318 21.6945 54.8105 18.3866"></polygon>
            <polygon id="Path" fill="#FFDB11" points="53.1081 19.4277 71.7186 22.697 59.36 30.5818 39.8911 26.7168"></polygon>
            <rect id="Rectangle" fill="#000000" fill-rule="nonzero" x="109" y="0" width="100" height="100"></rect>
            <rect id="Rectangle" fill="#025AC1" fill-rule="nonzero" transform="translate(116.000000, 75.000000) rotate(90.000000) translate(-116.000000, -75.000000) " x="105" y="73" width="22" height="4"></rect>
            <rect id="Rectangle" fill="#FF8100" fill-rule="nonzero" transform="translate(116.000000, 50.000000) rotate(90.000000) translate(-116.000000, -50.000000) " x="105" y="48" width="22" height="4"></rect>
            <rect id="Rectangle" fill="#025AC1" fill-rule="nonzero" transform="translate(116.000000, 25.000000) rotate(90.000000) translate(-116.000000, -25.000000) " x="105" y="23" width="22" height="4"></rect>
            <rect id="Rectangle" fill="#FF8100" fill-rule="nonzero" transform="translate(202.000000, 75.000000) rotate(90.000000) translate(-202.000000, -75.000000) " x="191" y="73" width="22" height="4"></rect>
            <rect id="Rectangle" fill="#025AC1" fill-rule="nonzero" transform="translate(202.000000, 50.000000) rotate(90.000000) translate(-202.000000, -50.000000) " x="191" y="48" width="22" height="4"></rect>
            <rect id="Rectangle" fill="#D0021B" fill-rule="nonzero" transform="translate(202.000000, 25.000000) rotate(90.000000) translate(-202.000000, -25.000000) " x="191" y="23" width="22" height="4"></rect>
            <rect id="Rectangle" fill="#009A0E" fill-rule="nonzero" x="173" y="91" width="22" height="4"></rect>
            <rect id="Rectangle" fill="#009A0E" fill-rule="nonzero" x="148" y="91" width="22" height="4"></rect>
            <rect id="Rectangle" fill="#D0021B" fill-rule="nonzero" x="123" y="91" width="22" height="4"></rect>
            <rect id="Rectangle" fill="#009A0E" fill-rule="nonzero" x="173" y="5" width="22" height="4"></rect>
            <rect id="Rectangle" fill="#D0021B" fill-rule="nonzero" x="148" y="5" width="22" height="4"></rect>
            <rect id="Rectangle" fill="#FF8100" fill-rule="nonzero" x="123" y="5" width="22" height="4"></rect>
            <rect id="Rectangle" fill="#FFDB11" fill-rule="nonzero" x="173" y="64" width="22" height="22"></rect>
            <rect id="Rectangle" fill="#FFDB11" fill-rule="nonzero" x="148" y="64" width="22" height="22"></rect>
            <rect id="Rectangle" fill="#FFDB11" fill-rule="nonzero" x="123" y="64" width="22" height="22"></rect>
            <rect id="Rectangle" fill="#FFDB11" fill-rule="nonzero" x="173" y="39" width="22" height="22"></rect>
            <rect id="Rectangle" fill="#FFDB11" fill-rule="nonzero" x="148" y="39" width="22" height="22"></rect>
            <rect id="Rectangle" fill="#FFDB11" fill-rule="nonzero" x="123" y="39" width="22" height="22"></rect>
            <rect id="Rectangle" fill="#FFDB11" fill-rule="nonzero" x="173" y="14" width="22" height="22"></rect>
            <rect id="Rectangle" fill="#FFDB11" fill-rule="nonzero" x="148" y="14" width="22" height="22"></rect>
            <rect id="Rectangle" fill="#FFDB11" fill-rule="nonzero" x="123" y="14" width="22" height="22"></rect>
            <path d="M133.457,23.2998 C133.07,22.9055 132.437,22.8993 132.043,23.286 L125.617,29.5874 C125.223,29.9741 125.216,30.6072 125.603,31.0016 C125.99,31.3959 126.623,31.4021 127.017,31.0154 L132.729,25.4141 L138.33,31.1261 C138.717,31.5204 139.35,31.5266 139.745,31.1399 C140.139,30.7532 140.145,30.1201 139.758,29.7257 L133.457,23.2998 Z M131.257,73.6853 C131.252,74.2376 131.695,74.6896 132.247,74.6951 C132.799,74.7005 133.251,74.2571 133.257,73.7049 L131.257,73.6853 Z M131.743,23.9902 L131.257,73.6853 L133.257,73.7049 L133.743,24.0098 L131.743,23.9902 Z" id="Shape" fill="#D0021B" fill-rule="nonzero"></path>
            <path d="M185.18,25.5728 C185.57,25.1823 185.57,24.5491 185.18,24.1586 L178.816,17.7947 C178.425,17.4041 177.792,17.4041 177.402,17.7947 C177.011,18.1852 177.011,18.8183 177.402,19.2089 L183.058,24.8657 L177.402,30.5226 C177.011,30.9131 177.011,31.5463 177.402,31.9368 C177.792,32.3273 178.425,32.3273 178.816,31.9368 L185.18,25.5728 Z M136.377,23.8657 C135.825,23.8657 135.377,24.3134 135.377,24.8657 C135.377,25.418 135.825,25.8657 136.377,25.8657 L136.377,23.8657 Z M184.473,23.8657 L136.377,23.8657 L136.377,25.8657 L184.473,25.8657 L184.473,23.8657 Z" id="Shape" fill="#D0021B" fill-rule="nonzero"></path>
            <path d="M133.919,74.9607 C133.9,75.5127 134.333,75.9752 134.885,75.9938 L143.88,76.2961 C144.432,76.3147 144.894,75.8823 144.913,75.3303 C144.931,74.7783 144.499,74.3158 143.947,74.2973 L135.951,74.0285 L136.22,66.033 C136.239,65.481 135.806,65.0185 135.254,65 C134.702,64.9814 134.24,65.4138 134.221,65.9658 L133.919,74.9607 Z M188.938,25.8573 C189.342,25.4801 189.363,24.8473 188.986,24.4438 C188.609,24.0404 187.976,24.0191 187.572,24.3963 L188.938,25.8573 Z M135.601,75.7248 L188.938,25.8573 L187.572,24.3963 L134.235,74.2639 L135.601,75.7248 Z" id="Shape" fill="#D0021B" fill-rule="nonzero"></path>
            <path d="M130,48.892 C129.982,49.444 130.414,49.9065 130.966,49.9251 L139.961,50.228 C140.513,50.2466 140.976,49.8142 140.994,49.2622 C141.013,48.7102 140.58,48.2477 140.028,48.2291 L132.033,47.9599 L132.302,39.9644 C132.321,39.4125 131.888,38.9499 131.336,38.9314 C130.784,38.9128 130.322,39.3452 130.303,39.8971 L130,48.892 Z M157.276,25.7305 C157.679,25.3533 157.7,24.7205 157.323,24.3171 C156.946,23.9136 156.313,23.8923 155.91,24.2695 L157.276,25.7305 Z M131.683,49.6562 L157.276,25.7305 L155.91,24.2695 L130.317,48.1952 L131.683,49.6562 Z" id="Shape" fill="#025AC1" fill-rule="nonzero"></path>
            <path d="M185.408,52.1008 C185.799,51.7102 185.799,51.0771 185.408,50.6865 L179.044,44.3226 C178.654,43.9321 178.021,43.9321 177.63,44.3226 C177.24,44.7131 177.24,45.3463 177.63,45.7368 L183.287,51.3936 L177.63,57.0505 C177.24,57.441 177.24,58.0742 177.63,58.4647 C178.021,58.8552 178.654,58.8552 179.044,58.4647 L185.408,52.1008 Z M133.638,50.3936 C133.086,50.3936 132.638,50.8414 132.638,51.3936 C132.638,51.9459 133.086,52.3936 133.638,52.3936 L133.638,50.3936 Z M184.701,50.3936 L133.638,50.3936 L133.638,52.3936 L184.701,52.3936 L184.701,50.3936 Z" id="Shape" fill="#025AC1" fill-rule="nonzero"></path>
            <path d="M158,23.0336 C157.982,22.4817 158.414,22.0192 158.966,22.0006 L167.961,21.6977 C168.513,21.6791 168.976,22.1115 168.994,22.6635 C169.013,23.2155 168.58,23.678 168.028,23.6966 L160.033,23.9658 L160.302,31.9613 C160.321,32.5132 159.888,32.9758 159.336,32.9943 C158.784,33.0129 158.322,32.5805 158.303,32.0286 L158,23.0336 Z M185.276,46.1952 C185.679,46.5724 185.7,47.2052 185.323,47.6086 C184.946,48.0121 184.313,48.0334 183.91,47.6562 L185.276,46.1952 Z M159.683,22.2695 L185.276,46.1952 L183.91,47.6562 L158.317,23.7305 L159.683,22.2695 Z" id="Shape" fill="#025AC1" fill-rule="nonzero"></path>
        </g>
    </g>
</svg>