<?xml version="1.0" encoding="UTF-8"?>
<svg width="210px" height="100px" viewBox="0 0 210 100" version="1.1" xmlns="http://www.w3.org/2000/svg" xmlns:xlink="http://www.w3.org/1999/xlink">
    <title>pll_18_3</title>
    <g id="pll_18_3" stroke="none" stroke-width="1" fill="none" fill-rule="evenodd">
        <g transform="translate(1.000000, 0.000000)">
            <polygon id="Path" fill="#000000" points="0.08545 19.2754 9.1878 80.8861 63.8335 99.9205 97.7492 67.4145 97.7492 7.49827 42.6407 0.144623"></polygon>
            <polygon id="Path" fill="#025AC1" points="88.2041 58.1468 96.9189 50.488 97.0051 66.9565 88.2041 75.3621"></polygon>
            <polygon id="Path" fill="#025AC1" points="76.6035 67.85 86.717 59.3085 86.7141 76.6775 76.9182 85.99"></polygon>
            <polygon id="Path" fill="#025AC1" points="63.6553 79.1917 75.0465 69.2908 75.5867 87.2923 64.4656 97.7814"></polygon>
            <polygon id="Path" fill="#025AC1" points="88.0244 37.3905 96.8589 30.5461 96.8589 48.1383 88.0672 55.7736"></polygon>
            <polygon id="Path" fill="#025AC1" points="75.9272 46.332 86.2613 38.4484 86.5734 56.952 76.3787 65.5684"></polygon>
            <polygon id="Path" fill="#025AC1" points="62.3853 56.8014 74.1625 47.8724 74.7936 66.6079 63.5013 76.5139"></polygon>
            <polygon id="Path" fill="#FF8100" points="87.686 15.2509 96.9217 9.35114 96.9217 28.1915 87.686 35.3294"></polygon>
            <polygon id="Path" fill="#009A0E" points="74.9434 23.1383 86.1416 16.1481 86.1416 36.0793 75.6625 43.6625"></polygon>
            <polygon id="Path" fill="#D0021B" points="61.0303 32.1809 73.352 24.2988 74.0396 45.0007 61.9627 54.179"></polygon>
            <polygon id="Path" fill="#FF8100" points="7.36426 63.0673 22.4453 67.7863 24.464 85.1274 9.8589 80.0763"></polygon>
            <polygon id="Path" fill="#FF8100" points="24.5278 68.2724 41.0741 73.5715 42.6973 91.5579 26.6732 85.9835"></polygon>
            <polygon id="Path" fill="#FF8100" points="43.4453 74.0816 61.3216 79.7311 62.4825 98.3867 44.9302 92.1748"></polygon>
            <polygon id="Path" fill="#FF8100" points="4.26611 42.5068 19.8784 46.8521 22.148 65.4159 7.00575 60.8649"></polygon>
            <polygon id="Path" fill="#FF8100" points="22.1382 47.3862 39.2125 51.6012 40.8242 71.0198 24.4249 66.051"></polygon>
            <polygon id="Path" fill="#FF8100" points="41.6631 52.4071 60.1242 57.2168 61.1022 77.171 43.0065 71.7279"></polygon>
            <polygon id="Path" fill="#FF8100" points="1.2583 20.9258 17.1016 24.1438 19.4008 44.159 4.11262 40.4847"></polygon>
            <polygon id="Path" fill="#D0021B" points="19.2793 24.5275 36.8079 28.1915 38.9262 49.2004 21.6844 44.8324"></polygon>
            <polygon id="Path" fill="#025AC1" points="39.5459 28.6229 58.7388 32.7128 59.7618 54.4511 41.1885 49.7452"></polygon>
            <polygon id="Path" fill="#FFDB11" points="42.7301 0.661133 57.3696 2.70313 46.7246 7.95516 31.6846 5.69442"></polygon>
            <polygon id="Path" fill="#FFDB11" points="29.9591 6.37854 45.3166 8.68999 33.1452 14.7348 17.6284 12.0188"></polygon>
            <polygon id="Path" fill="#FFDB11" points="15.8538 12.8521 31.2681 15.5268 17.7551 22.2073 2.10889 19.0718"></polygon>
            <polygon id="Path" fill="#FFDB11" points="33.526 15.8463 50.8287 18.8557 37.4675 26.2274 19.8799 22.7102"></polygon>
            <polygon id="Path" fill="#FFDB11" points="47.3395 9.073 63.9468 11.6658 52.3313 18.0047 35.3428 15.0288"></polygon>
            <polygon id="Path" fill="#FFDB11" points="59.6527 2.98444 75.6607 5.20129 65.5415 10.886 48.752 8.28648"></polygon>
            <polygon id="Path" fill="#FFDB11" points="78.2104 5.5144 95.6861 7.94187 86.0171 13.9058 68.2812 11.1602"></polygon>
            <polygon id="Path" fill="#FFDB11" points="66.3192 11.9232 84.3963 14.7702 73.4318 21.6946 54.8105 18.3866"></polygon>
            <polygon id="Path" fill="#FFDB11" points="53.1081 19.4277 71.7186 22.697 59.36 30.5818 39.8911 26.7168"></polygon>
            <rect id="Rectangle" fill="#000000" fill-rule="nonzero" transform="translate(159.000000, 50.000000) rotate(180.000000) translate(-159.000000, -50.000000) " x="109" y="0" width="100" height="100"></rect>
            <rect id="Rectangle" fill="#FF8100" fill-rule="nonzero" transform="translate(202.000000, 25.000000) rotate(-90.000000) translate(-202.000000, -25.000000) " x="191" y="23" width="22" height="4"></rect>
            <rect id="Rectangle" fill="#009A0E" fill-rule="nonzero" transform="translate(202.000000, 50.000000) rotate(-90.000000) translate(-202.000000, -50.000000) " x="191" y="48" width="22" height="4"></rect>
            <rect id="Rectangle" fill="#D0021B" fill-rule="nonzero" transform="translate(202.000000, 75.000000) rotate(-90.000000) translate(-202.000000, -75.000000) " x="191" y="73" width="22" height="4"></rect>
            <rect id="Rectangle" fill="#009A0E" fill-rule="nonzero" transform="translate(116.000000, 25.000000) rotate(-90.000000) translate(-116.000000, -25.000000) " x="105" y="23" width="22" height="4"></rect>
            <rect id="Rectangle" fill="#FF8100" fill-rule="nonzero" transform="translate(116.000000, 50.000000) rotate(-90.000000) translate(-116.000000, -50.000000) " x="105" y="48" width="22" height="4"></rect>
            <rect id="Rectangle" fill="#009A0E" fill-rule="nonzero" transform="translate(116.000000, 75.000000) rotate(-90.000000) translate(-116.000000, -75.000000) " x="105" y="73" width="22" height="4"></rect>
            <rect id="Rectangle" fill="#D0021B" fill-rule="nonzero" transform="translate(134.000000, 7.000000) rotate(180.000000) translate(-134.000000, -7.000000) " x="123" y="5" width="22" height="4"></rect>
            <rect id="Rectangle" fill="#025AC1" fill-rule="nonzero" transform="translate(159.000000, 7.000000) rotate(180.000000) translate(-159.000000, -7.000000) " x="148" y="5" width="22" height="4"></rect>
            <rect id="Rectangle" fill="#025AC1" fill-rule="nonzero" transform="translate(184.000000, 7.000000) rotate(180.000000) translate(-184.000000, -7.000000) " x="173" y="5" width="22" height="4"></rect>
            <rect id="Rectangle" fill="#FF8100" fill-rule="nonzero" transform="translate(134.000000, 93.000000) rotate(180.000000) translate(-134.000000, -93.000000) " x="123" y="91" width="22" height="4"></rect>
            <rect id="Rectangle" fill="#D0021B" fill-rule="nonzero" transform="translate(159.000000, 93.000000) rotate(180.000000) translate(-159.000000, -93.000000) " x="148" y="91" width="22" height="4"></rect>
            <rect id="Rectangle" fill="#025AC1" fill-rule="nonzero" transform="translate(184.000000, 93.000000) rotate(180.000000) translate(-184.000000, -93.000000) " x="173" y="91" width="22" height="4"></rect>
            <rect id="Rectangle" fill="#FFDB11" fill-rule="nonzero" transform="translate(134.000000, 25.000000) rotate(180.000000) translate(-134.000000, -25.000000) " x="123" y="14" width="22" height="22"></rect>
            <rect id="Rectangle" fill="#FFDB11" fill-rule="nonzero" transform="translate(159.000000, 25.000000) rotate(180.000000) translate(-159.000000, -25.000000) " x="148" y="14" width="22" height="22"></rect>
            <rect id="Rectangle" fill="#FFDB11" fill-rule="nonzero" transform="translate(184.000000, 25.000000) rotate(180.000000) translate(-184.000000, -25.000000) " x="173" y="14" width="22" height="22"></rect>
            <rect id="Rectangle" fill="#FFDB11" fill-rule="nonzero" transform="translate(134.000000, 50.000000) rotate(180.000000) translate(-134.000000, -50.000000) " x="123" y="39" width="22" height="22"></rect>
            <rect id="Rectangle" fill="#FFDB11" fill-rule="nonzero" transform="translate(159.000000, 50.000000) rotate(180.000000) translate(-159.000000, -50.000000) " x="148" y="39" width="22" height="22"></rect>
            <rect id="Rectangle" fill="#FFDB11" fill-rule="nonzero" transform="translate(184.000000, 50.000000) rotate(180.000000) translate(-184.000000, -50.000000) " x="173" y="39" width="22" height="22"></rect>
            <rect id="Rectangle" fill="#FFDB11" fill-rule="nonzero" transform="translate(134.000000, 75.000000) rotate(180.000000) translate(-134.000000, -75.000000) " x="123" y="64" width="22" height="22"></rect>
            <rect id="Rectangle" fill="#FFDB11" fill-rule="nonzero" transform="translate(159.000000, 75.000000) rotate(180.000000) translate(-159.000000, -75.000000) " x="148" y="64" width="22" height="22"></rect>
            <rect id="Rectangle" fill="#FFDB11" fill-rule="nonzero" transform="translate(184.000000, 75.000000) rotate(180.000000) translate(-184.000000, -75.000000) " x="173" y="64" width="22" height="22"></rect>
            <path d="M131.543,76.7001 C131.93,77.0945 132.563,77.1006 132.957,76.714 L139.383,70.4126 C139.777,70.0259 139.784,69.3927 139.397,68.9984 C139.01,68.6041 138.377,68.5979 137.983,68.9846 L132.271,74.5858 L126.67,68.8739 C126.283,68.4796 125.65,68.4734 125.255,68.8601 C124.861,69.2468 124.855,69.8799 125.242,70.2742 L131.543,76.7001 Z M133.743,26.3147 C133.748,25.7624 133.305,25.3103 132.753,25.3049 C132.201,25.2995 131.749,25.7428 131.743,26.2951 L133.743,26.3147 Z M133.257,76.0098 L133.743,26.3147 L131.743,26.2951 L131.257,75.9902 L133.257,76.0098 Z" id="Shape" fill="#D0021B" fill-rule="nonzero"></path>
            <path d="M185.707,74.7929 C186.098,75.1834 186.098,75.8166 185.707,76.2071 L179.343,82.5711 C178.953,82.9616 178.319,82.9616 177.929,82.5711 C177.538,82.1805 177.538,81.5474 177.929,81.1569 L183.586,75.5 L177.929,69.8431 C177.538,69.4526 177.538,68.8195 177.929,68.4289 C178.319,68.0384 178.953,68.0384 179.343,68.4289 L185.707,74.7929 Z M136.904,76.5 C136.352,76.5 135.904,76.0523 135.904,75.5 C135.904,74.9477 136.352,74.5 136.904,74.5 L136.904,76.5 Z M185,76.5 L136.904,76.5 L136.904,74.5 L185,74.5 L185,76.5 Z" id="Shape" fill="#D0021B" fill-rule="nonzero"></path>
            <path d="M133.664,24.166 C133.645,23.6141 134.078,23.1516 134.629,23.133 L143.624,22.8306 C144.176,22.8121 144.639,23.2445 144.657,23.7965 C144.676,24.3484 144.244,24.8109 143.692,24.8295 L135.696,25.0983 L135.965,33.0938 C135.983,33.6457 135.551,34.1082 134.999,34.1268 C134.447,34.1454 133.985,33.7129 133.966,33.161 L133.664,24.166 Z M188.683,73.2695 C189.086,73.6467 189.108,74.2795 188.73,74.6829 C188.353,75.0864 187.72,75.1076 187.317,74.7304 L188.683,73.2695 Z M135.346,23.402 L188.683,73.2695 L187.317,74.7304 L133.98,24.8629 L135.346,23.402 Z" id="Shape" fill="#D0021B" fill-rule="nonzero"></path>
            <path d="M160.408,74.9664 C160.389,75.5183 160.821,75.9808 161.373,75.9994 L170.368,76.3023 C170.92,76.3209 171.383,75.8885 171.401,75.3365 C171.42,74.7845 170.988,74.322 170.436,74.3034 L162.44,74.0342 L162.709,66.0387 C162.728,65.4868 162.296,65.0242 161.744,65.0057 C161.192,64.9871 160.729,65.4195 160.71,65.9714 L160.408,74.9664 Z M187.683,51.8048 C188.086,51.4276 188.108,50.7948 187.731,50.3914 C187.353,49.9879 186.721,49.9666 186.317,50.3438 L187.683,51.8048 Z M162.09,75.7305 L187.683,51.8048 L186.317,50.3438 L160.724,74.2695 L162.09,75.7305 Z" id="Shape" fill="#025AC1" fill-rule="nonzero"></path>
            <path d="M185.069,49.3134 C185.46,48.9229 185.46,48.2897 185.069,47.8992 L178.705,41.5353 C178.315,41.1447 177.682,41.1447 177.291,41.5353 C176.901,41.9258 176.901,42.5589 177.291,42.9495 L182.948,48.6063 L177.291,54.2632 C176.901,54.6537 176.901,55.2869 177.291,55.6774 C177.682,56.0679 178.315,56.0679 178.705,55.6774 L185.069,49.3134 Z M133.299,47.6063 C132.747,47.6063 132.299,48.054 132.299,48.6063 C132.299,49.1586 132.747,49.6063 133.299,49.6063 L133.299,47.6063 Z M184.362,47.6063 L133.299,47.6063 L133.299,49.6063 L184.362,49.6063 L184.362,47.6063 Z" id="Shape" fill="#025AC1" fill-rule="nonzero"></path>
            <path d="M131.408,52.1079 C131.389,51.556 131.821,51.0934 132.373,51.0748 L141.368,50.772 C141.92,50.7534 142.383,51.1858 142.401,51.7378 C142.42,52.2898 141.988,52.7523 141.436,52.7709 L133.44,53.0401 L133.709,61.0355 C133.728,61.5875 133.296,62.05 132.744,62.0686 C132.192,62.0872 131.729,61.6548 131.71,61.1028 L131.408,52.1079 Z M158.683,75.2695 C159.086,75.6466 159.108,76.2794 158.731,76.6829 C158.353,77.0863 157.721,77.1076 157.317,76.7305 L158.683,75.2695 Z M133.09,51.3438 L158.683,75.2695 L157.317,76.7305 L131.724,52.8048 L133.09,51.3438 Z" id="Shape" fill="#025AC1" fill-rule="nonzero"></path>
        </g>
    </g>
</svg>