<?xml version="1.0" encoding="UTF-8"?>
<svg width="210px" height="100px" viewBox="0 0 210 100" version="1.1" xmlns="http://www.w3.org/2000/svg" xmlns:xlink="http://www.w3.org/1999/xlink">
    <title>pll_19_1</title>
    <g id="pll_19_1" stroke="none" stroke-width="1" fill="none" fill-rule="evenodd">
        <g transform="translate(1.000000, 0.000000)">
            <polygon id="Path" fill="#000000" points="0 22.4068 9.1337 81.6859 63.9675 100 98 68.7242 98 11.0754 42.7018 4"></polygon>
            <polygon id="Path" fill="#D0021B" points="88.2202 59.4133 96.935 52.0548 97.0212 67.8775 88.2202 75.9535"></polygon>
            <polygon id="Path" fill="#D0021B" points="76.6196 68.736 86.7331 60.5294 86.7302 77.2172 76.9343 86.1646"></polygon>
            <polygon id="Path" fill="#D0021B" points="63.6714 79.6328 75.0626 70.1203 75.6028 87.4158 64.4817 97.4935"></polygon>
            <polygon id="Path" fill="#D0021B" points="88.0405 39.4709 96.875 32.895 96.875 49.7972 88.0833 57.1332"></polygon>
            <polygon id="Path" fill="#D0021B" points="75.9434 48.0617 86.2774 40.4873 86.5895 58.2652 76.3948 66.5438"></polygon>
            <polygon id="Path" fill="#D0021B" points="62.4014 58.1205 74.1786 49.5417 74.8097 67.5426 63.5174 77.06"></polygon>
            <polygon id="Path" fill="#FF8100" points="87.7021 18.1996 96.9379 12.5311 96.9379 30.6327 87.7021 37.4906"></polygon>
            <polygon id="Path" fill="#D0021B" points="74.9595 25.7776 86.1577 19.0616 86.1577 38.2112 75.6786 45.497"></polygon>
            <polygon id="Path" fill="#D0021B" points="61.0464 34.4656 73.3681 26.8926 74.0557 46.7827 61.9788 55.601"></polygon>
            <polygon id="Path" fill="#025AC1" points="7.29883 64.6948 22.3799 69.2323 24.3986 85.9064 9.7935 81.0496"></polygon>
            <polygon id="Path" fill="#025AC1" points="24.4624 69.6997 41.0087 74.795 42.6318 92.0896 26.6078 86.7296"></polygon>
            <polygon id="Path" fill="#025AC1" points="43.3799 75.2855 61.2561 80.7177 62.4171 98.6558 44.8648 92.6828"></polygon>
            <polygon id="Path" fill="#025AC1" points="4.20068 44.9251 19.813 49.1033 22.0826 66.953 6.94032 62.5771"></polygon>
            <polygon id="Path" fill="#025AC1" points="22.0728 49.6168 39.1471 53.6697 40.7588 72.3414 24.3594 67.5637"></polygon>
            <polygon id="Path" fill="#025AC1" points="41.5977 54.4446 60.0588 59.0693 61.0368 78.256 42.9411 73.0223"></polygon>
            <polygon id="Path" fill="#FF8100" points="1.19287 24.1741 17.0361 27.2684 19.3354 46.5138 4.04719 42.9808"></polygon>
            <polygon id="Path" fill="#009A0E" points="19.2139 27.6373 36.7425 31.1604 38.8608 51.3613 21.619 47.1612"></polygon>
            <polygon id="Path" fill="#025AC1" points="39.4805 31.5752 58.6733 35.5078 59.6964 56.41 41.123 51.8851"></polygon>
            <polygon id="Path" fill="#FFDB11" points="42.8658 4.12503 57.5053 6.10116 46.8604 11.1838 31.8203 8.99596"></polygon>
            <polygon id="Path" fill="#FFDB11" points="30.0948 9.658 45.4523 11.8949 33.2809 17.7447 17.7642 15.1163"></polygon>
            <polygon id="Path" fill="#FFDB11" points="15.9895 15.9227 31.4038 18.5112 17.8908 24.9762 2.24463 21.9419"></polygon>
            <polygon id="Path" fill="#FFDB11" points="33.6618 18.8203 50.9644 21.7326 37.6032 28.8666 20.0156 25.4628"></polygon>
            <polygon id="Path" fill="#FFDB11" points="47.4753 12.2655 64.0826 14.7747 52.467 20.9091 35.4785 18.0292"></polygon>
            <polygon id="Path" fill="#FFDB11" points="59.7884 6.37338 75.7965 8.51873 65.6773 14.02 48.8877 11.5044"></polygon>
            <polygon id="Path" fill="#FFDB11" points="78.3461 8.82176 95.8218 11.1709 86.1528 16.9424 68.417 14.2854"></polygon>
            <polygon id="Path" fill="#FFDB11" points="66.4549 15.0238 84.532 17.779 73.5675 24.4799 54.9463 21.2787"></polygon>
            <polygon id="Path" fill="#FFDB11" points="53.2439 22.2863 71.8544 25.4501 59.4957 33.0805 40.0269 29.3402"></polygon>
            <polygon id="Path" fill="#009A0E" points="0.9798 21.2669 0 17.3287 12.5515 12.4902 13.7368 15.7485"></polygon>
            <polygon id="Path" fill="#009A0E" points="29.9798 8.77666 29 4.83852 41.5515 0 42.7368 3.25829"></polygon>
            <rect id="Rectangle" fill="#000000" fill-rule="nonzero" transform="translate(159.000000, 50.000000) rotate(-90.000000) translate(-159.000000, -50.000000) " x="109" y="0" width="100" height="100"></rect>
            <rect id="Rectangle" fill="#025AC1" fill-rule="nonzero" x="173" y="91" width="22" height="4"></rect>
            <rect id="Rectangle" fill="#009A0E" fill-rule="nonzero" x="148" y="91" width="22" height="4"></rect>
            <rect id="Rectangle" fill="#FF8100" fill-rule="nonzero" x="123" y="91" width="22" height="4"></rect>
            <rect id="Rectangle" fill="#025AC1" fill-rule="nonzero" x="173" y="5" width="22" height="4"></rect>
            <rect id="Rectangle" fill="#FF8100" fill-rule="nonzero" x="148" y="5" width="22" height="4"></rect>
            <rect id="Rectangle" fill="#D0021B" fill-rule="nonzero" x="123" y="5" width="22" height="4"></rect>
            <rect id="Rectangle" fill="#FF8100" fill-rule="nonzero" transform="translate(202.000000, 25.000000) rotate(-90.000000) translate(-202.000000, -25.000000) " x="191" y="23" width="22" height="4"></rect>
            <rect id="Rectangle" fill="#D0021B" fill-rule="nonzero" transform="translate(202.000000, 50.000000) rotate(-90.000000) translate(-202.000000, -50.000000) " x="191" y="48" width="22" height="4"></rect>
            <rect id="Rectangle" fill="#D0021B" fill-rule="nonzero" transform="translate(202.000000, 75.000000) rotate(-90.000000) translate(-202.000000, -75.000000) " x="191" y="73" width="22" height="4"></rect>
            <rect id="Rectangle" fill="#009A0E" fill-rule="nonzero" transform="translate(116.000000, 25.000000) rotate(-90.000000) translate(-116.000000, -25.000000) " x="105" y="23" width="22" height="4"></rect>
            <rect id="Rectangle" fill="#025AC1" fill-rule="nonzero" transform="translate(116.000000, 50.000000) rotate(-90.000000) translate(-116.000000, -50.000000) " x="105" y="48" width="22" height="4"></rect>
            <rect id="Rectangle" fill="#009A0E" fill-rule="nonzero" transform="translate(116.000000, 75.000000) rotate(-90.000000) translate(-116.000000, -75.000000) " x="105" y="73" width="22" height="4"></rect>
            <rect id="Rectangle" fill="#FFDB11" fill-rule="nonzero" transform="translate(184.000000, 25.000000) rotate(-90.000000) translate(-184.000000, -25.000000) " x="173" y="14" width="22" height="22"></rect>
            <rect id="Rectangle" fill="#FFDB11" fill-rule="nonzero" transform="translate(184.000000, 50.000000) rotate(-90.000000) translate(-184.000000, -50.000000) " x="173" y="39" width="22" height="22"></rect>
            <rect id="Rectangle" fill="#FFDB11" fill-rule="nonzero" transform="translate(184.000000, 75.000000) rotate(-90.000000) translate(-184.000000, -75.000000) " x="173" y="64" width="22" height="22"></rect>
            <rect id="Rectangle" fill="#FFDB11" fill-rule="nonzero" transform="translate(159.000000, 25.000000) rotate(-90.000000) translate(-159.000000, -25.000000) " x="148" y="14" width="22" height="22"></rect>
            <rect id="Rectangle" fill="#FFDB11" fill-rule="nonzero" transform="translate(159.000000, 50.000000) rotate(-90.000000) translate(-159.000000, -50.000000) " x="148" y="39" width="22" height="22"></rect>
            <rect id="Rectangle" fill="#FFDB11" fill-rule="nonzero" transform="translate(159.000000, 75.000000) rotate(-90.000000) translate(-159.000000, -75.000000) " x="148" y="64" width="22" height="22"></rect>
            <rect id="Rectangle" fill="#FFDB11" fill-rule="nonzero" transform="translate(134.000000, 25.000000) rotate(-90.000000) translate(-134.000000, -25.000000) " x="123" y="14" width="22" height="22"></rect>
            <rect id="Rectangle" fill="#FFDB11" fill-rule="nonzero" transform="translate(134.000000, 50.000000) rotate(-90.000000) translate(-134.000000, -50.000000) " x="123" y="39" width="22" height="22"></rect>
            <rect id="Rectangle" fill="#FFDB11" fill-rule="nonzero" transform="translate(134.000000, 75.000000) rotate(-90.000000) translate(-134.000000, -75.000000) " x="123" y="64" width="22" height="22"></rect>
            <path d="M184.401,22.5534 C184.789,22.9459 184.786,23.5791 184.394,23.9676 L177.998,30.2992 C177.605,30.6878 176.972,30.6846 176.583,30.2921 C176.195,29.8996 176.198,29.2664 176.591,28.8779 L182.276,23.2498 L176.648,17.5643 C176.259,17.1718 176.263,16.5386 176.655,16.1501 C177.048,15.7616 177.681,15.7648 178.069,16.1573 L184.401,22.5534 Z M132.995,24 C132.443,23.9972 131.997,23.5472 132,22.9949 C132.003,22.4427 132.453,21.9972 133.005,21.9999869 L132.995,24 Z M183.685,24.2569 L132.995,24 L133.005,22 L183.695,22.2569 L183.685,24.2569 Z" id="Shape" fill="#D0021B" fill-rule="nonzero"></path>
            <path d="M131.793,26.1971 C132.183,25.8066 132.817,25.8066 133.207,26.1971 L139.571,32.5611 C139.962,32.9516 139.962,33.5848 139.571,33.9753 C139.181,34.3658 138.547,34.3658 138.157,33.9753 L132.5,28.3185 L126.843,33.9753 C126.453,34.3658 125.819,34.3658 125.429,33.9753 C125.038,33.5848 125.038,32.9516 125.429,32.5611 L131.793,26.1971 Z M133.5,75 C133.5,75.5523 133.052,76 132.5,76 C131.948,76 131.5,75.5523 131.5,75 L133.5,75 Z M133.5,26.9043 L133.5,75 L131.5,75 L131.5,26.9043 L133.5,26.9043 Z" id="Shape" fill="#D0021B" fill-rule="nonzero"></path>
            <path d="M135.034,79.9994 C134.482,80.018 134.019,79.5856 134.001,79.0336 L133.698,70.0387 C133.68,69.4867 134.112,69.0242 134.664,69.0056 C135.216,68.9871 135.679,69.4195 135.697,69.9715 L135.966,77.967 L143.961,77.6982 C144.513,77.6796 144.976,78.112 144.994,78.664 C145.013,79.216 144.58,79.6785 144.029,79.6971 L135.034,79.9994 Z M184.137,24.9801 C184.514,24.5767 185.147,24.5554 185.55,24.9326 C185.954,25.3098 185.975,25.9426 185.598,26.346 L184.137,24.9801 Z M134.27,78.317 L184.137,24.9801 L185.598,26.346 L135.73,79.6829 L134.27,78.317 Z" id="Shape" fill="#D0021B" fill-rule="nonzero"></path>
            <path d="M157.892,78.9994 C158.444,79.018 158.907,78.5856 158.925,78.0336 L159.228,69.0387 C159.247,68.4868 158.814,68.0242 158.262,68.0057 C157.71,67.9871 157.248,68.4195 157.229,68.9714 L156.96,76.9669 L148.965,76.6977 C148.413,76.6791 147.95,77.1115 147.931,77.6635 C147.913,78.2155 148.345,78.678 148.897,78.6966 L157.892,78.9994 Z M134.731,51.7242 C134.353,51.3207 133.721,51.2994 133.317,51.6766 C132.914,52.0537 132.892,52.6865 133.27,53.09 L134.731,51.7242 Z M158.656,77.3171 L134.731,51.7242 L133.27,53.09 L157.195,78.6829 L158.656,77.3171 Z" id="Shape" fill="#025AC1" fill-rule="nonzero"></path>
            <path d="M159.686,23.5917 C160.077,23.2012 160.71,23.2012 161.101,23.5917 L167.465,29.9557 C167.855,30.3462 167.855,30.9793 167.465,31.3699 C167.074,31.7604 166.441,31.7604 166.05,31.3699 L160.394,25.713 L154.737,31.3699 C154.346,31.7604 153.713,31.7604 153.322,31.3699 C152.932,30.9793 152.932,30.3462 153.322,29.9557 L159.686,23.5917 Z M161.394,75.3621 C161.394,75.9144 160.946,76.3621 160.394,76.3621 C159.841,76.3621 159.394,75.9144 159.394,75.3621 L161.394,75.3621 Z M161.394,24.2988 L161.394,75.3621 L159.394,75.3621 L159.394,24.2988 L161.394,24.2988 Z" id="Shape" fill="#025AC1" fill-rule="nonzero"></path>
            <path d="M133.034,49.9994 C132.482,50.018 132.019,49.5856 132.001,49.0336 L131.698,40.0387 C131.679,39.4868 132.112,39.0242 132.664,39.0057 C133.215,38.9871 133.678,39.4195 133.697,39.9714 L133.966,47.9669 L141.961,47.6977 C142.513,47.6791 142.976,48.1115 142.994,48.6635 C143.013,49.2155 142.581,49.678 142.029,49.6966 L133.034,49.9994 Z M156.195,22.7242 C156.572,22.3207 157.205,22.2994 157.609,22.6766 C158.012,23.0537 158.033,23.6865 157.656,24.09 L156.195,22.7242 Z M132.269,48.3171 L156.195,22.7242 L157.656,24.09 L133.731,49.6829 L132.269,48.3171 Z" id="Shape" fill="#025AC1" fill-rule="nonzero"></path>
        </g>
    </g>
</svg>