<?xml version="1.0" encoding="UTF-8"?>
<svg width="210px" height="100px" viewBox="0 0 210 100" version="1.1" xmlns="http://www.w3.org/2000/svg" xmlns:xlink="http://www.w3.org/1999/xlink">
    <title>pll_2_3</title>
    <g id="pll_2_3" stroke="none" stroke-width="1" fill="none" fill-rule="evenodd">
        <g transform="translate(1.000000, 0.000000)">
            <polygon id="Path" fill="#000000" points="0.08545 19.2754 9.1878 80.8861 63.8335 99.9205 97.7492 67.4145 97.7492 7.49827 42.6407 0.144623"></polygon>
            <polygon id="Path" fill="#FF8100" points="88.2038 58.1468 96.9186 50.488 97.0048 66.9565 88.2038 75.3621"></polygon>
            <polygon id="Path" fill="#FF8100" points="76.6033 67.85 86.7168 59.3085 86.7139 76.6775 76.918 85.99"></polygon>
            <polygon id="Path" fill="#FF8100" points="63.655 79.1917 75.0462 69.2908 75.5864 87.2923 64.4653 97.7814"></polygon>
            <polygon id="Path" fill="#FF8100" points="88.0242 37.3905 96.8587 30.5461 96.8587 48.1383 88.067 55.7736"></polygon>
            <polygon id="Path" fill="#FF8100" points="75.9273 46.332 86.2613 38.4484 86.5735 56.952 76.3787 65.5684"></polygon>
            <polygon id="Path" fill="#FF8100" points="62.3851 56.8014 74.1623 47.8724 74.7934 66.6079 63.5011 76.5139"></polygon>
            <polygon id="Path" fill="#FF8100" points="87.6857 15.2509 96.9214 9.35114 96.9214 28.1915 87.6857 35.3294"></polygon>
            <polygon id="Path" fill="#009A0E" points="74.9431 23.1383 86.1413 16.1481 86.1413 36.0793 75.6622 43.6625"></polygon>
            <polygon id="Path" fill="#FF8100" points="61.0302 32.1809 73.3519 24.2988 74.0394 45.0007 61.9626 54.179"></polygon>
            <polygon id="Path" fill="#009A0E" points="7.36407 63.0673 22.4452 67.7863 24.4638 85.1274 9.8587 80.0763"></polygon>
            <polygon id="Path" fill="#009A0E" points="24.5278 68.2724 41.0741 73.5715 42.6973 91.5579 26.6732 85.9835"></polygon>
            <polygon id="Path" fill="#009A0E" points="43.445 74.0816 61.3213 79.7311 62.4822 98.3867 44.9299 92.1748"></polygon>
            <polygon id="Path" fill="#009A0E" points="4.26593 42.5068 19.8783 46.8521 22.1478 65.4159 7.00556 60.8649"></polygon>
            <polygon id="Path" fill="#009A0E" points="22.1381 47.3862 39.2124 51.6012 40.8241 71.0198 24.4248 66.051"></polygon>
            <polygon id="Path" fill="#009A0E" points="41.6631 52.4071 60.1242 57.2168 61.1023 77.171 43.0066 71.7279"></polygon>
            <polygon id="Path" fill="#009A0E" points="1.25824 20.9258 17.1015 24.1438 19.4007 44.159 4.11256 40.4847"></polygon>
            <polygon id="Path" fill="#D0021B" points="19.2792 24.5275 36.8078 28.1915 38.9261 49.2004 21.6843 44.8324"></polygon>
            <polygon id="Path" fill="#009A0E" points="39.5455 28.6229 58.7384 32.7128 59.7614 54.4511 41.1881 49.7452"></polygon>
            <polygon id="Path" fill="#FFDB11" points="42.7298 0.661133 57.3693 2.70313 46.7244 7.95516 31.6843 5.69442"></polygon>
            <polygon id="Path" fill="#FFDB11" points="29.9587 6.37854 45.3162 8.68999 33.1448 14.7348 17.6281 12.0188"></polygon>
            <polygon id="Path" fill="#FFDB11" points="15.8538 12.8521 31.2681 15.5268 17.7552 22.2073 2.10895 19.0718"></polygon>
            <polygon id="Path" fill="#FFDB11" points="33.5258 15.8463 50.8285 18.8557 37.4673 26.2274 19.8797 22.7102"></polygon>
            <polygon id="Path" fill="#FFDB11" points="47.3393 9.073 63.9467 11.6658 52.3311 18.0047 35.3426 15.0288"></polygon>
            <polygon id="Path" fill="#FFDB11" points="59.6527 2.98444 75.6608 5.20129 65.5416 10.886 48.752 8.28648"></polygon>
            <polygon id="Path" fill="#FFDB11" points="78.2103 5.5144 95.686 7.94187 86.017 13.9058 68.2812 11.1602"></polygon>
            <polygon id="Path" fill="#FFDB11" points="66.3191 11.9232 84.3962 14.7702 73.4317 21.6946 54.8104 18.3866"></polygon>
            <polygon id="Path" fill="#FFDB11" points="53.1082 19.4277 71.7187 22.697 59.36 30.5818 39.8912 26.7168"></polygon>
            <rect id="Rectangle" fill="#000000" fill-rule="nonzero" transform="translate(159.000000, 50.000000) rotate(90.000000) translate(-159.000000, -50.000000) " x="109" y="0" width="100" height="100"></rect>
            <rect id="Rectangle" fill="#025AC1" fill-rule="nonzero" transform="translate(134.000000, 7.000000) rotate(180.000000) translate(-134.000000, -7.000000) " x="123" y="5" width="22" height="4"></rect>
            <rect id="Rectangle" fill="#025AC1" fill-rule="nonzero" transform="translate(159.000000, 7.000000) rotate(180.000000) translate(-159.000000, -7.000000) " x="148" y="5" width="22" height="4"></rect>
            <rect id="Rectangle" fill="#025AC1" fill-rule="nonzero" transform="translate(184.000000, 7.000000) rotate(180.000000) translate(-184.000000, -7.000000) " x="173" y="5" width="22" height="4"></rect>
            <rect id="Rectangle" fill="#009A0E" fill-rule="nonzero" transform="translate(134.000000, 93.000000) rotate(180.000000) translate(-134.000000, -93.000000) " x="123" y="91" width="22" height="4"></rect>
            <rect id="Rectangle" fill="#D0021B" fill-rule="nonzero" transform="translate(159.000000, 93.000000) rotate(180.000000) translate(-159.000000, -93.000000) " x="148" y="91" width="22" height="4"></rect>
            <rect id="Rectangle" fill="#009A0E" fill-rule="nonzero" transform="translate(184.000000, 93.000000) rotate(180.000000) translate(-184.000000, -93.000000) " x="173" y="91" width="22" height="4"></rect>
            <rect id="Rectangle" fill="#D0021B" fill-rule="nonzero" transform="translate(116.000000, 75.000000) rotate(90.000000) translate(-116.000000, -75.000000) " x="105" y="73" width="22" height="4"></rect>
            <rect id="Rectangle" fill="#FF8100" fill-rule="nonzero" transform="translate(116.000000, 50.000000) rotate(90.000000) translate(-116.000000, -50.000000) " x="105" y="48" width="22" height="4"></rect>
            <rect id="Rectangle" fill="#D0021B" fill-rule="nonzero" transform="translate(116.000000, 25.000000) rotate(90.000000) translate(-116.000000, -25.000000) " x="105" y="23" width="22" height="4"></rect>
            <rect id="Rectangle" fill="#FF8100" fill-rule="nonzero" transform="translate(202.000000, 75.000000) rotate(90.000000) translate(-202.000000, -75.000000) " x="191" y="73" width="22" height="4"></rect>
            <rect id="Rectangle" fill="#009A0E" fill-rule="nonzero" transform="translate(202.000000, 50.000000) rotate(90.000000) translate(-202.000000, -50.000000) " x="191" y="48" width="22" height="4"></rect>
            <rect id="Rectangle" fill="#FF8100" fill-rule="nonzero" transform="translate(202.000000, 25.000000) rotate(90.000000) translate(-202.000000, -25.000000) " x="191" y="23" width="22" height="4"></rect>
            <rect id="Rectangle" fill="#FFDB11" fill-rule="nonzero" transform="translate(134.000000, 75.000000) rotate(90.000000) translate(-134.000000, -75.000000) " x="123" y="64" width="22" height="22"></rect>
            <rect id="Rectangle" fill="#FFDB11" fill-rule="nonzero" transform="translate(134.000000, 50.000000) rotate(90.000000) translate(-134.000000, -50.000000) " x="123" y="39" width="22" height="22"></rect>
            <rect id="Rectangle" fill="#FFDB11" fill-rule="nonzero" transform="translate(134.000000, 25.000000) rotate(90.000000) translate(-134.000000, -25.000000) " x="123" y="14" width="22" height="22"></rect>
            <rect id="Rectangle" fill="#FFDB11" fill-rule="nonzero" transform="translate(159.000000, 75.000000) rotate(90.000000) translate(-159.000000, -75.000000) " x="148" y="64" width="22" height="22"></rect>
            <rect id="Rectangle" fill="#FFDB11" fill-rule="nonzero" transform="translate(159.000000, 50.000000) rotate(90.000000) translate(-159.000000, -50.000000) " x="148" y="39" width="22" height="22"></rect>
            <rect id="Rectangle" fill="#FFDB11" fill-rule="nonzero" transform="translate(159.000000, 25.000000) rotate(90.000000) translate(-159.000000, -25.000000) " x="148" y="14" width="22" height="22"></rect>
            <rect id="Rectangle" fill="#FFDB11" fill-rule="nonzero" transform="translate(184.000000, 75.000000) rotate(90.000000) translate(-184.000000, -75.000000) " x="173" y="64" width="22" height="22"></rect>
            <rect id="Rectangle" fill="#FFDB11" fill-rule="nonzero" transform="translate(184.000000, 50.000000) rotate(90.000000) translate(-184.000000, -50.000000) " x="173" y="39" width="22" height="22"></rect>
            <rect id="Rectangle" fill="#FFDB11" fill-rule="nonzero" transform="translate(184.000000, 25.000000) rotate(90.000000) translate(-184.000000, -25.000000) " x="173" y="14" width="22" height="22"></rect>
            <path d="M187.707,45.7929 C188.098,46.1834 188.098,46.8166 187.707,47.2071 L181.343,53.5711 C180.953,53.9616 180.319,53.9616 179.929,53.5711 C179.538,53.1805 179.538,52.5474 179.929,52.1569 L185.586,46.5 L179.929,40.8431 C179.538,40.4526 179.538,39.8195 179.929,39.4289 C180.319,39.0384 180.953,39.0384 181.343,39.4289 L187.707,45.7929 Z M128.581,47.5 C128.028,47.5 127.581,47.0523 127.581,46.5 C127.581,45.9477 128.028,45.5 128.581,45.5 L128.581,47.5 Z M187,47.5 L128.581,47.5 L128.581,45.5 L187,45.5 L187,47.5 Z" id="Shape" fill="#025AC1" fill-rule="nonzero"></path>
            <path d="M128.462,49.0005 C127.91,49.0187 127.478,49.481 127.496,50.033 L127.792,59.0281 C127.811,59.5801 128.273,60.0128 128.825,59.9946 C129.377,59.9764 129.809,59.5142 129.791,58.9622 L129.528,50.9665 L137.523,50.7029 C138.075,50.6847 138.508,50.2225 138.49,49.6705 C138.472,49.1185 138.009,48.6858 137.457,48.704 L128.462,49.0005 Z M157.317,78.3515 C157.72,78.729 158.353,78.7081 158.73,78.3049 C159.107,77.9018 159.087,77.2689 158.683,76.8915 L157.317,78.3515 Z M127.812,50.73 L157.317,78.3515 L158.683,76.8915 L129.179,49.27 L127.812,50.73 Z" id="Shape" fill="#025AC1" fill-rule="nonzero"></path>
            <path d="M160.128,78.9026 C160.148,79.4545 160.611,79.886 161.163,79.8663 L170.158,79.5457 C170.71,79.526 171.141,79.0626 171.121,78.5107 C171.102,77.9588 170.638,77.5273 170.086,77.547 L162.091,77.832 L161.806,69.837 C161.787,69.2851 161.323,68.8536 160.771,68.8733 C160.22,68.893 159.788,69.3563 159.808,69.9083 L160.128,78.9026 Z M188.705,50.7187 C189.081,50.3146 189.058,49.6818 188.654,49.3054 C188.25,48.9291 187.617,48.9516 187.241,49.3558 L188.705,50.7187 Z M161.86,79.5484 L188.705,50.7187 L187.241,49.3558 L160.396,78.1855 L161.86,79.5484 Z" id="Shape" fill="#025AC1" fill-rule="nonzero"></path>
        </g>
    </g>
</svg>