<?xml version="1.0" encoding="UTF-8"?>
<svg width="210px" height="100px" viewBox="0 0 210 100" version="1.1" xmlns="http://www.w3.org/2000/svg" xmlns:xlink="http://www.w3.org/1999/xlink">
    <title>pll_10_1</title>
    <g id="pll_10_1" stroke="none" stroke-width="1" fill="none" fill-rule="evenodd">
        <g transform="translate(1.000000, 0.000000)">
            <polygon id="Path" fill="#000000" points="0.08545 19.2754 9.1878 80.8861 63.8335 99.9205 97.7492 67.4145 97.7492 7.49827 42.6407 0.144623"></polygon>
            <polygon id="Path" fill="#D0021B" points="88.2039 58.1468 96.9186 50.488 97.0048 66.9565 88.2039 75.3621"></polygon>
            <polygon id="Path" fill="#D0021B" points="76.6033 67.85 86.7167 59.3085 86.7139 76.6775 76.9179 85.99"></polygon>
            <polygon id="Path" fill="#D0021B" points="63.655 79.1917 75.0462 69.2908 75.5865 87.2923 64.4654 97.7814"></polygon>
            <polygon id="Path" fill="#D0021B" points="88.0242 37.3905 96.8586 30.5461 96.8586 48.1383 88.0669 55.7736"></polygon>
            <polygon id="Path" fill="#D0021B" points="75.9272 46.332 86.2613 38.4483 86.5734 56.9519 76.3787 65.5684"></polygon>
            <polygon id="Path" fill="#D0021B" points="62.385 56.8013 74.1622 47.8723 74.7933 66.6079 63.5011 76.5139"></polygon>
            <polygon id="Path" fill="#009A0E" points="87.6858 15.2509 96.9215 9.35114 96.9215 28.1915 87.6858 35.3294"></polygon>
            <polygon id="Path" fill="#D0021B" points="74.9431 23.1383 86.1413 16.1481 86.1413 36.0793 75.6622 43.6625"></polygon>
            <polygon id="Path" fill="#D0021B" points="61.03 32.1809 73.3518 24.2988 74.0393 45.0007 61.9624 54.179"></polygon>
            <polygon id="Path" fill="#025AC1" points="7.36401 63.0673 22.4451 67.7862 24.4638 85.1273 9.8586 80.0763"></polygon>
            <polygon id="Path" fill="#025AC1" points="24.5278 68.2724 41.0741 73.5715 42.6973 91.5579 26.6732 85.9835"></polygon>
            <polygon id="Path" fill="#025AC1" points="43.4451 74.0816 61.3213 79.7311 62.4823 98.3867 44.93 92.1748"></polygon>
            <polygon id="Path" fill="#025AC1" points="4.26587 42.5068 19.8782 46.8521 22.1477 65.4158 7.0055 60.8649"></polygon>
            <polygon id="Path" fill="#025AC1" points="22.1379 47.3862 39.2122 51.6012 40.824 71.0198 24.4246 66.051"></polygon>
            <polygon id="Path" fill="#025AC1" points="41.6631 52.4071 60.1242 57.2168 61.1022 77.171 43.0065 71.7278"></polygon>
            <polygon id="Path" fill="#009A0E" points="1.25806 20.9258 17.1013 24.1438 19.4006 44.159 4.11238 40.4847"></polygon>
            <polygon id="Path" fill="#025AC1" points="19.2791 24.5274 36.8077 28.1915 38.926 49.2004 21.6842 44.8323"></polygon>
            <polygon id="Path" fill="#025AC1" points="39.5454 28.6229 58.7383 32.7128 59.7613 54.4511 41.188 49.7452"></polygon>
            <polygon id="Path" fill="#FFDB11" points="42.7296 0.661118 57.3691 2.70312 46.7241 7.95515 31.6841 5.69441"></polygon>
            <polygon id="Path" fill="#FFDB11" points="29.9586 6.37852 45.3161 8.68998 33.1447 14.7348 17.6279 12.0188"></polygon>
            <polygon id="Path" fill="#FFDB11" points="15.8538 12.8521 31.2681 15.5268 17.7551 22.2073 2.10889 19.0718"></polygon>
            <polygon id="Path" fill="#FFDB11" points="33.5258 15.8463 50.8285 18.8557 37.4672 26.2274 19.8796 22.7102"></polygon>
            <polygon id="Path" fill="#FFDB11" points="47.3393 9.07297 63.9466 11.6657 52.331 18.0047 35.3425 15.0287"></polygon>
            <polygon id="Path" fill="#FFDB11" points="59.6527 2.98441 75.6607 5.20126 65.5415 10.8859 48.752 8.28645"></polygon>
            <polygon id="Path" fill="#FFDB11" points="78.2101 5.51442 95.6858 7.94188 86.0168 13.9058 68.281 11.1602"></polygon>
            <polygon id="Path" fill="#FFDB11" points="66.3189 11.9232 84.3961 14.7702 73.4315 21.6945 54.8103 18.3866"></polygon>
            <polygon id="Path" fill="#FFDB11" points="53.1081 19.4277 71.7186 22.697 59.36 30.5818 39.8911 26.7168"></polygon>
            <rect id="Rectangle" fill="#000000" fill-rule="nonzero" transform="translate(159.000000, 50.000000) rotate(-90.000000) translate(-159.000000, -50.000000) " x="109" y="0" width="100" height="100"></rect>
            <rect id="Rectangle" fill="#025AC1" fill-rule="nonzero" x="173" y="91" width="22" height="4"></rect>
            <rect id="Rectangle" fill="#025AC1" fill-rule="nonzero" x="148" y="91" width="22" height="4"></rect>
            <rect id="Rectangle" fill="#009A0E" fill-rule="nonzero" x="123" y="91" width="22" height="4"></rect>
            <rect id="Rectangle" fill="#FF8100" fill-rule="nonzero" x="173" y="5" width="22" height="4"></rect>
            <rect id="Rectangle" fill="#009A0E" fill-rule="nonzero" x="148" y="5" width="22" height="4"></rect>
            <rect id="Rectangle" fill="#FF8100" fill-rule="nonzero" x="123" y="5" width="22" height="4"></rect>
            <rect id="Rectangle" fill="#009A0E" fill-rule="nonzero" transform="translate(202.000000, 25.000000) rotate(-90.000000) translate(-202.000000, -25.000000) " x="191" y="23" width="22" height="4"></rect>
            <rect id="Rectangle" fill="#D0021B" fill-rule="nonzero" transform="translate(202.000000, 50.000000) rotate(-90.000000) translate(-202.000000, -50.000000) " x="191" y="48" width="22" height="4"></rect>
            <rect id="Rectangle" fill="#D0021B" fill-rule="nonzero" transform="translate(202.000000, 75.000000) rotate(-90.000000) translate(-202.000000, -75.000000) " x="191" y="73" width="22" height="4"></rect>
            <rect id="Rectangle" fill="#025AC1" fill-rule="nonzero" transform="translate(116.000000, 25.000000) rotate(-90.000000) translate(-116.000000, -25.000000) " x="105" y="23" width="22" height="4"></rect>
            <rect id="Rectangle" fill="#FF8100" fill-rule="nonzero" transform="translate(116.000000, 50.000000) rotate(-90.000000) translate(-116.000000, -50.000000) " x="105" y="48" width="22" height="4"></rect>
            <rect id="Rectangle" fill="#D0021B" fill-rule="nonzero" transform="translate(116.000000, 75.000000) rotate(-90.000000) translate(-116.000000, -75.000000) " x="105" y="73" width="22" height="4"></rect>
            <rect id="Rectangle" fill="#FFDB11" fill-rule="nonzero" transform="translate(184.000000, 25.000000) rotate(-90.000000) translate(-184.000000, -25.000000) " x="173" y="14" width="22" height="22"></rect>
            <rect id="Rectangle" fill="#FFDB11" fill-rule="nonzero" transform="translate(184.000000, 50.000000) rotate(-90.000000) translate(-184.000000, -50.000000) " x="173" y="39" width="22" height="22"></rect>
            <rect id="Rectangle" fill="#FFDB11" fill-rule="nonzero" transform="translate(184.000000, 75.000000) rotate(-90.000000) translate(-184.000000, -75.000000) " x="173" y="64" width="22" height="22"></rect>
            <rect id="Rectangle" fill="#FFDB11" fill-rule="nonzero" transform="translate(159.000000, 25.000000) rotate(-90.000000) translate(-159.000000, -25.000000) " x="148" y="14" width="22" height="22"></rect>
            <rect id="Rectangle" fill="#FFDB11" fill-rule="nonzero" transform="translate(159.000000, 50.000000) rotate(-90.000000) translate(-159.000000, -50.000000) " x="148" y="39" width="22" height="22"></rect>
            <rect id="Rectangle" fill="#FFDB11" fill-rule="nonzero" transform="translate(159.000000, 75.000000) rotate(-90.000000) translate(-159.000000, -75.000000) " x="148" y="64" width="22" height="22"></rect>
            <rect id="Rectangle" fill="#FFDB11" fill-rule="nonzero" transform="translate(134.000000, 25.000000) rotate(-90.000000) translate(-134.000000, -25.000000) " x="123" y="14" width="22" height="22"></rect>
            <rect id="Rectangle" fill="#FFDB11" fill-rule="nonzero" transform="translate(134.000000, 50.000000) rotate(-90.000000) translate(-134.000000, -50.000000) " x="123" y="39" width="22" height="22"></rect>
            <rect id="Rectangle" fill="#FFDB11" fill-rule="nonzero" transform="translate(134.000000, 75.000000) rotate(-90.000000) translate(-134.000000, -75.000000) " x="123" y="64" width="22" height="22"></rect>
            <path d="M133.220033,76.7198692 C132.822843,77.0933769 132.177157,77.0933769 131.779967,76.7198692 L125.298656,70.6327931 C124.900448,70.2592854 124.900448,69.6537342 125.298656,69.2801308 C125.695845,68.9066231 126.341532,68.9066231 126.738721,69.2801308 L132.5,74.6908757 L138.261279,69.2801308 C138.658468,68.9066231 139.304155,68.9066231 139.701344,69.2801308 C140.099552,69.6537342 140.099552,70.2592854 139.701344,70.6327931 L133.220033,76.7198692 Z M131,26 C131,25.4477 131.448,25 132,25 C132.552,25 133,25.4477 133,26 L131,26 Z M131,76 L131,26 L133,26 L133,76 L131,76 Z" id="Shape" fill="#D0021B" fill-rule="nonzero"></path>
            <path d="M131.384,22.0702 C130.993,22.4608 130.993,23.0939 131.384,23.4845 L137.748,29.8484 C138.138,30.2389 138.772,30.2389 139.162,29.8484 C139.553,29.4579 139.553,28.8247 139.162,28.4342 L133.505,22.7773 L139.162,17.1205 C139.553,16.73 139.553,16.0968 139.162,15.7063 C138.772,15.3158 138.138,15.3158 137.748,15.7063 L131.384,22.0702 Z M186.337,23.7773 C186.89,23.7773 187.337,23.3296 187.337,22.7773 C187.337,22.2251 186.89,21.7773 186.337,21.7773 L186.337,23.7773 Z M132.091,23.7773 L186.337,23.7773 L186.337,21.7773 L132.091,21.7773 L132.091,23.7773 Z" id="Shape" fill="#D0021B" fill-rule="nonzero"></path>
            <path d="M134.24,77.53 C133.853,77.9246 133.86,78.5577 134.254,78.9442 C134.649,79.3306 135.282,79.324 135.669,78.9294 L134.24,77.53 Z M186.882,26.2169 C186.876,25.6647 186.424,25.2217 185.871,25.2273456 L176.872,25.3214 C176.319,25.3272 175.876,25.7795 175.88194,26.3318 C175.888,26.8841 176.34,27.3271 176.893,27.3213 L184.892,27.2378 L184.976,35.2373 C184.981,35.7896 185.434,36.2326 185.986,36.2268563 C186.538,36.2211 186.981,35.7687 186.976042,35.2165 L186.882,26.2169 Z M135.669,78.9294 L186.596,26.9271 L185.167,25.5277 L134.24,77.53 L135.669,78.9294 Z" id="Shape" fill="#D0021B" fill-rule="nonzero"></path>
        </g>
    </g>
</svg>