<?xml version="1.0" encoding="UTF-8"?>
<svg width="210px" height="100px" viewBox="0 0 210 100" version="1.1" xmlns="http://www.w3.org/2000/svg" xmlns:xlink="http://www.w3.org/1999/xlink">
    <title>pll_16_2</title>
    <g id="pll_16_2" stroke="none" stroke-width="1" fill="none" fill-rule="evenodd">
        <g transform="translate(1.000000, 0.000000)">
            <polygon id="Path" fill="#000000" points="0.08545 19.2754 9.1878 80.8861 63.8335 99.9205 97.7492 67.4145 97.7492 7.49827 42.6407 0.144623"></polygon>
            <polygon id="Path" fill="#009A0E" points="88.2041 58.1468 96.9189 50.488 97.0051 66.9564 88.2041 75.3621"></polygon>
            <polygon id="Path" fill="#009A0E" points="76.6035 67.85 86.717 59.3085 86.7141 76.6775 76.9182 85.99"></polygon>
            <polygon id="Path" fill="#009A0E" points="63.6553 79.1916 75.0465 69.2908 75.5867 87.2923 64.4656 97.7813"></polygon>
            <polygon id="Path" fill="#009A0E" points="88.0244 37.3905 96.8589 30.5461 96.8589 48.1383 88.0672 55.7736"></polygon>
            <polygon id="Path" fill="#009A0E" points="75.9272 46.3319 86.2613 38.4483 86.5734 56.9519 76.3787 65.5684"></polygon>
            <polygon id="Path" fill="#009A0E" points="62.3853 56.8013 74.1625 47.8723 74.7936 66.6079 63.5013 76.5139"></polygon>
            <polygon id="Path" fill="#D0021B" points="87.686 15.2509 96.9217 9.35114 96.9217 28.1915 87.686 35.3294"></polygon>
            <polygon id="Path" fill="#009A0E" points="74.9434 23.1383 86.1416 16.1481 86.1416 36.0793 75.6625 43.6625"></polygon>
            <polygon id="Path" fill="#FF8100" points="61.0303 32.1808 73.352 24.2988 74.0396 45.0007 61.9627 54.179"></polygon>
            <polygon id="Path" fill="#D0021B" points="7.36426 63.0673 22.4453 67.7863 24.464 85.1274 9.8589 80.0763"></polygon>
            <polygon id="Path" fill="#D0021B" points="24.5278 68.2724 41.0741 73.5715 42.6973 91.5579 26.6732 85.9835"></polygon>
            <polygon id="Path" fill="#D0021B" points="43.4453 74.0816 61.3216 79.7311 62.4825 98.3867 44.9302 92.1748"></polygon>
            <polygon id="Path" fill="#D0021B" points="4.26611 42.5068 19.8784 46.8521 22.148 65.4158 7.00575 60.8649"></polygon>
            <polygon id="Path" fill="#D0021B" points="22.1382 47.3862 39.2125 51.6012 40.8242 71.0198 24.4249 66.051"></polygon>
            <polygon id="Path" fill="#D0021B" points="41.6631 52.4071 60.1242 57.2168 61.1022 77.171 43.0065 71.7279"></polygon>
            <polygon id="Path" fill="#D0021B" points="1.2583 20.9258 17.1016 24.1438 19.4008 44.159 4.11262 40.4848"></polygon>
            <polygon id="Path" fill="#D0021B" points="19.2793 24.5275 36.8079 28.1915 38.9262 49.2004 21.6844 44.8324"></polygon>
            <polygon id="Path" fill="#009A0E" points="39.5459 28.6229 58.7388 32.7128 59.7618 54.4511 41.1885 49.7452"></polygon>
            <polygon id="Path" fill="#FFDB11" points="42.7301 0.661133 57.3696 2.70313 46.7246 7.95516 31.6846 5.69442"></polygon>
            <polygon id="Path" fill="#FFDB11" points="29.9591 6.37854 45.3166 8.68999 33.1452 14.7348 17.6284 12.0188"></polygon>
            <polygon id="Path" fill="#FFDB11" points="15.8538 12.8521 31.2681 15.5268 17.7551 22.2073 2.10889 19.0718"></polygon>
            <polygon id="Path" fill="#FFDB11" points="33.526 15.8463 50.8287 18.8557 37.4675 26.2274 19.8799 22.7102"></polygon>
            <polygon id="Path" fill="#FFDB11" points="47.3395 9.07297 63.9468 11.6657 52.3313 18.0047 35.3428 15.0287"></polygon>
            <polygon id="Path" fill="#FFDB11" points="59.6527 2.98441 75.6607 5.20126 65.5415 10.8859 48.752 8.28645"></polygon>
            <polygon id="Path" fill="#FFDB11" points="78.2104 5.5144 95.6861 7.94187 86.0171 13.9058 68.2812 11.1602"></polygon>
            <polygon id="Path" fill="#FFDB11" points="66.3192 11.9232 84.3963 14.7702 73.4318 21.6945 54.8105 18.3866"></polygon>
            <polygon id="Path" fill="#FFDB11" points="53.1081 19.4277 71.7186 22.697 59.36 30.5818 39.8911 26.7168"></polygon>
            <rect id="Rectangle" fill="#000000" fill-rule="nonzero" x="109" y="0" width="100" height="100"></rect>
            <rect id="Rectangle" fill="#025AC1" fill-rule="nonzero" transform="translate(116.000000, 75.000000) rotate(90.000000) translate(-116.000000, -75.000000) " x="105" y="73" width="22" height="4"></rect>
            <rect id="Rectangle" fill="#FF8100" fill-rule="nonzero" transform="translate(116.000000, 50.000000) rotate(90.000000) translate(-116.000000, -50.000000) " x="105" y="48" width="22" height="4"></rect>
            <rect id="Rectangle" fill="#025AC1" fill-rule="nonzero" transform="translate(116.000000, 25.000000) rotate(90.000000) translate(-116.000000, -25.000000) " x="105" y="23" width="22" height="4"></rect>
            <rect id="Rectangle" fill="#FF8100" fill-rule="nonzero" transform="translate(202.000000, 75.000000) rotate(90.000000) translate(-202.000000, -75.000000) " x="191" y="73" width="22" height="4"></rect>
            <rect id="Rectangle" fill="#009A0E" fill-rule="nonzero" transform="translate(202.000000, 50.000000) rotate(90.000000) translate(-202.000000, -50.000000) " x="191" y="48" width="22" height="4"></rect>
            <rect id="Rectangle" fill="#D0021B" fill-rule="nonzero" transform="translate(202.000000, 25.000000) rotate(90.000000) translate(-202.000000, -25.000000) " x="191" y="23" width="22" height="4"></rect>
            <rect id="Rectangle" fill="#009A0E" fill-rule="nonzero" x="173" y="91" width="22" height="4"></rect>
            <rect id="Rectangle" fill="#D0021B" fill-rule="nonzero" x="148" y="91" width="22" height="4"></rect>
            <rect id="Rectangle" fill="#D0021B" fill-rule="nonzero" x="123" y="91" width="22" height="4"></rect>
            <rect id="Rectangle" fill="#009A0E" fill-rule="nonzero" x="173" y="5" width="22" height="4"></rect>
            <rect id="Rectangle" fill="#025AC1" fill-rule="nonzero" x="148" y="5" width="22" height="4"></rect>
            <rect id="Rectangle" fill="#FF8100" fill-rule="nonzero" x="123" y="5" width="22" height="4"></rect>
            <rect id="Rectangle" fill="#FFDB11" fill-rule="nonzero" x="173" y="64" width="22" height="22"></rect>
            <rect id="Rectangle" fill="#FFDB11" fill-rule="nonzero" x="148" y="64" width="22" height="22"></rect>
            <rect id="Rectangle" fill="#FFDB11" fill-rule="nonzero" x="123" y="64" width="22" height="22"></rect>
            <rect id="Rectangle" fill="#FFDB11" fill-rule="nonzero" x="173" y="39" width="22" height="22"></rect>
            <rect id="Rectangle" fill="#FFDB11" fill-rule="nonzero" x="148" y="39" width="22" height="22"></rect>
            <rect id="Rectangle" fill="#FFDB11" fill-rule="nonzero" x="123" y="39" width="22" height="22"></rect>
            <rect id="Rectangle" fill="#FFDB11" fill-rule="nonzero" x="173" y="14" width="22" height="22"></rect>
            <rect id="Rectangle" fill="#FFDB11" fill-rule="nonzero" x="148" y="14" width="22" height="22"></rect>
            <rect id="Rectangle" fill="#FFDB11" fill-rule="nonzero" x="123" y="14" width="22" height="22"></rect>
            <path d="M185.18,22.384 C184.789,21.9935 184.156,21.9935 183.766,22.384 L177.402,28.748 C177.011,29.1385 177.011,29.7716 177.402,30.1622 C177.792,30.5527 178.425,30.5527 178.816,30.1622 L184.473,24.5053 L190.13,30.1622 C190.52,30.5527 191.153,30.5527 191.544,30.1622 C191.934,29.7716 191.934,29.1385 191.544,28.748 L185.18,22.384 Z M183.766,78.0576 C184.156,78.4481 184.789,78.4481 185.18,78.0576 L191.544,71.6936 C191.934,71.3031 191.934,70.6699 191.544,70.2794 C191.153,69.8889 190.52,69.8889 190.13,70.2794 L184.473,75.9363 L178.816,70.2794 C178.425,69.8889 177.792,69.8889 177.402,70.2794 C177.011,70.6699 177.011,71.3031 177.402,71.6936 L183.766,78.0576 Z M183.473,23.0911 L183.473,77.3505 L185.473,77.3505 L185.473,23.0911 L183.473,23.0911 Z" id="Shape" fill="#D0021B" fill-rule="nonzero"></path>
            <path d="M129.46294,53.4773 C129.457,54.0296 129.899,54.4827 130.451,54.4895 L139.45,54.5996774 C140.003,54.6064 140.456,54.1642 140.46306,53.6119 C140.469,53.0597 140.027,52.6065 139.475,52.5998 L131.475,52.5019 L131.573,44.5025 C131.58,43.9502 131.138,43.4971 130.586,43.4902249 C130.033,43.4836 129.58,43.9258 129.574,44.478 L129.46294,53.4773 Z M163.685082,22.0592 C163.692,21.507 163.25,21.0538 162.697,21.0471 L153.698,20.9368249 C153.146,20.9302 152.693,21.3724 152.685918,21.9246 C152.679,22.4769 153.121,22.93 153.673,22.9368 L161.673,23.0347 L161.575,31.0341 C161.568,31.5863 162.01,32.0395 162.563,32.0463751 C163.115,32.053 163.568,31.6108 163.575,31.0586 L163.685082,22.0592 Z M131.162,54.2053 L163.383,22.7627 L161.987,21.3313 L129.765,52.7739 L131.162,54.2053 Z" id="Shape" fill="#025AC1" fill-rule="nonzero"></path>
        </g>
    </g>
</svg>