<?xml version="1.0" encoding="UTF-8"?>
<svg width="210px" height="100px" viewBox="0 0 210 100" version="1.1" xmlns="http://www.w3.org/2000/svg" xmlns:xlink="http://www.w3.org/1999/xlink">
    <title>pll_18_1</title>
    <g id="pll_18_1" stroke="none" stroke-width="1" fill="none" fill-rule="evenodd">
        <g transform="translate(1.000000, 0.000000)">
            <polygon id="Path" fill="#000000" points="0.08545 19.2754 9.1878 80.8861 63.8335 99.9205 97.7492 67.4145 97.7492 7.49827 42.6407 0.144623"></polygon>
            <polygon id="Path" fill="#025AC1" points="88.2041 58.1468 96.9189 50.488 97.0051 66.9565 88.2041 75.3621"></polygon>
            <polygon id="Path" fill="#025AC1" points="76.6035 67.85 86.717 59.3085 86.7141 76.6775 76.9182 85.99"></polygon>
            <polygon id="Path" fill="#025AC1" points="63.6553 79.1917 75.0465 69.2908 75.5867 87.2923 64.4656 97.7814"></polygon>
            <polygon id="Path" fill="#025AC1" points="88.0244 37.3905 96.8589 30.5461 96.8589 48.1383 88.0672 55.7736"></polygon>
            <polygon id="Path" fill="#025AC1" points="75.9272 46.332 86.2613 38.4483 86.5734 56.9519 76.3787 65.5684"></polygon>
            <polygon id="Path" fill="#025AC1" points="62.3853 56.8013 74.1625 47.8723 74.7936 66.6079 63.5013 76.5139"></polygon>
            <polygon id="Path" fill="#D0021B" points="87.686 15.2509 96.9217 9.35114 96.9217 28.1915 87.686 35.3294"></polygon>
            <polygon id="Path" fill="#025AC1" points="74.9434 23.1383 86.1416 16.1481 86.1416 36.0793 75.6625 43.6625"></polygon>
            <polygon id="Path" fill="#025AC1" points="61.0303 32.1809 73.352 24.2988 74.0396 45.0007 61.9627 54.179"></polygon>
            <polygon id="Path" fill="#FF8100" points="7.36426 63.0673 22.4453 67.7862 24.464 85.1273 9.8589 80.0763"></polygon>
            <polygon id="Path" fill="#FF8100" points="24.5278 68.2724 41.0741 73.5715 42.6973 91.5579 26.6732 85.9835"></polygon>
            <polygon id="Path" fill="#FF8100" points="43.4453 74.0816 61.3216 79.7311 62.4825 98.3867 44.9302 92.1748"></polygon>
            <polygon id="Path" fill="#FF8100" points="4.26611 42.5068 19.8784 46.8521 22.148 65.4158 7.00575 60.8649"></polygon>
            <polygon id="Path" fill="#FF8100" points="22.1382 47.3862 39.2125 51.6012 40.8242 71.0198 24.4249 66.051"></polygon>
            <polygon id="Path" fill="#FF8100" points="41.6631 52.4071 60.1242 57.2168 61.1022 77.171 43.0065 71.7278"></polygon>
            <polygon id="Path" fill="#D0021B" points="1.2583 20.9258 17.1016 24.1438 19.4008 44.159 4.11262 40.4847"></polygon>
            <polygon id="Path" fill="#009A0E" points="19.2793 24.5274 36.8079 28.1915 38.9262 49.2004 21.6844 44.8323"></polygon>
            <polygon id="Path" fill="#FF8100" points="39.5459 28.6229 58.7388 32.7128 59.7618 54.4511 41.1885 49.7452"></polygon>
            <polygon id="Path" fill="#FFDB11" points="42.7301 0.661118 57.3696 2.70312 46.7246 7.95515 31.6846 5.69441"></polygon>
            <polygon id="Path" fill="#FFDB11" points="29.9591 6.37852 45.3166 8.68998 33.1452 14.7348 17.6284 12.0188"></polygon>
            <polygon id="Path" fill="#FFDB11" points="15.8538 12.8521 31.2681 15.5268 17.7551 22.2073 2.10889 19.0718"></polygon>
            <polygon id="Path" fill="#FFDB11" points="33.526 15.8463 50.8287 18.8557 37.4675 26.2274 19.8799 22.7102"></polygon>
            <polygon id="Path" fill="#FFDB11" points="47.3395 9.07297 63.9468 11.6657 52.3313 18.0047 35.3428 15.0287"></polygon>
            <polygon id="Path" fill="#FFDB11" points="59.6527 2.98441 75.6607 5.20126 65.5415 10.8859 48.752 8.28645"></polygon>
            <polygon id="Path" fill="#FFDB11" points="78.2104 5.51442 95.6861 7.94188 86.0171 13.9058 68.2812 11.1602"></polygon>
            <polygon id="Path" fill="#FFDB11" points="66.3192 11.9232 84.3963 14.7702 73.4318 21.6945 54.8105 18.3866"></polygon>
            <polygon id="Path" fill="#FFDB11" points="53.1081 19.4277 71.7186 22.697 59.36 30.5818 39.8911 26.7168"></polygon>
            <rect id="Rectangle" fill="#000000" fill-rule="nonzero" transform="translate(159.000000, 50.000000) rotate(-90.000000) translate(-159.000000, -50.000000) " x="109" y="0" width="100" height="100"></rect>
            <rect id="Rectangle" fill="#FF8100" fill-rule="nonzero" x="173" y="91" width="22" height="4"></rect>
            <rect id="Rectangle" fill="#009A0E" fill-rule="nonzero" x="148" y="91" width="22" height="4"></rect>
            <rect id="Rectangle" fill="#D0021B" fill-rule="nonzero" x="123" y="91" width="22" height="4"></rect>
            <rect id="Rectangle" fill="#009A0E" fill-rule="nonzero" x="173" y="5" width="22" height="4"></rect>
            <rect id="Rectangle" fill="#FF8100" fill-rule="nonzero" x="148" y="5" width="22" height="4"></rect>
            <rect id="Rectangle" fill="#009A0E" fill-rule="nonzero" x="123" y="5" width="22" height="4"></rect>
            <rect id="Rectangle" fill="#D0021B" fill-rule="nonzero" transform="translate(202.000000, 25.000000) rotate(-90.000000) translate(-202.000000, -25.000000) " x="191" y="23" width="22" height="4"></rect>
            <rect id="Rectangle" fill="#025AC1" fill-rule="nonzero" transform="translate(202.000000, 50.000000) rotate(-90.000000) translate(-202.000000, -50.000000) " x="191" y="48" width="22" height="4"></rect>
            <rect id="Rectangle" fill="#025AC1" fill-rule="nonzero" transform="translate(202.000000, 75.000000) rotate(-90.000000) translate(-202.000000, -75.000000) " x="191" y="73" width="22" height="4"></rect>
            <rect id="Rectangle" fill="#FF8100" fill-rule="nonzero" transform="translate(116.000000, 25.000000) rotate(-90.000000) translate(-116.000000, -25.000000) " x="105" y="23" width="22" height="4"></rect>
            <rect id="Rectangle" fill="#D0021B" fill-rule="nonzero" transform="translate(116.000000, 50.000000) rotate(-90.000000) translate(-116.000000, -50.000000) " x="105" y="48" width="22" height="4"></rect>
            <rect id="Rectangle" fill="#025AC1" fill-rule="nonzero" transform="translate(116.000000, 75.000000) rotate(-90.000000) translate(-116.000000, -75.000000) " x="105" y="73" width="22" height="4"></rect>
            <rect id="Rectangle" fill="#FFDB11" fill-rule="nonzero" transform="translate(184.000000, 25.000000) rotate(-90.000000) translate(-184.000000, -25.000000) " x="173" y="14" width="22" height="22"></rect>
            <rect id="Rectangle" fill="#FFDB11" fill-rule="nonzero" transform="translate(184.000000, 50.000000) rotate(-90.000000) translate(-184.000000, -50.000000) " x="173" y="39" width="22" height="22"></rect>
            <rect id="Rectangle" fill="#FFDB11" fill-rule="nonzero" transform="translate(184.000000, 75.000000) rotate(-90.000000) translate(-184.000000, -75.000000) " x="173" y="64" width="22" height="22"></rect>
            <rect id="Rectangle" fill="#FFDB11" fill-rule="nonzero" transform="translate(159.000000, 25.000000) rotate(-90.000000) translate(-159.000000, -25.000000) " x="148" y="14" width="22" height="22"></rect>
            <rect id="Rectangle" fill="#FFDB11" fill-rule="nonzero" transform="translate(159.000000, 50.000000) rotate(-90.000000) translate(-159.000000, -50.000000) " x="148" y="39" width="22" height="22"></rect>
            <rect id="Rectangle" fill="#FFDB11" fill-rule="nonzero" transform="translate(159.000000, 75.000000) rotate(-90.000000) translate(-159.000000, -75.000000) " x="148" y="64" width="22" height="22"></rect>
            <rect id="Rectangle" fill="#FFDB11" fill-rule="nonzero" transform="translate(134.000000, 25.000000) rotate(-90.000000) translate(-134.000000, -25.000000) " x="123" y="14" width="22" height="22"></rect>
            <rect id="Rectangle" fill="#FFDB11" fill-rule="nonzero" transform="translate(134.000000, 50.000000) rotate(-90.000000) translate(-134.000000, -50.000000) " x="123" y="39" width="22" height="22"></rect>
            <rect id="Rectangle" fill="#FFDB11" fill-rule="nonzero" transform="translate(134.000000, 75.000000) rotate(-90.000000) translate(-134.000000, -75.000000) " x="123" y="64" width="22" height="22"></rect>
            <path d="M132.3,22.5429 C131.906,22.9296 131.9,23.5628 132.286,23.9571 L138.588,30.383 C138.974,30.7773 139.607,30.7835 140.002,30.3968 C140.396,30.0101 140.402,29.377 140.016,28.9827 L134.414,23.2708 L140.126,17.6695 C140.521,17.2828 140.527,16.6497 140.14,16.2554 C139.753,15.861 139.12,15.8548 138.726,16.2415 L132.3,22.5429 Z M182.686,24.743 C183.238,24.7484 183.69,24.3051 183.695,23.7529 C183.701,23.2006 183.257,22.7485 182.705,22.7431 L182.686,24.743 Z M132.99,24.2569 L182.686,24.743 L182.705,22.7431 L133.01,22.257 L132.99,24.2569 Z" id="Shape" fill="#D0021B" fill-rule="nonzero"></path>
            <path d="M134.207,76.7071 C133.817,77.0976 133.183,77.0976 132.793,76.7071 L126.429,70.3431 C126.038,69.9526 126.038,69.3195 126.429,68.9289 C126.819,68.5384 127.453,68.5384 127.843,68.9289 L133.5,74.5858 L139.157,68.9289 C139.547,68.5384 140.181,68.5384 140.571,68.9289 C140.962,69.3195 140.962,69.9526 140.571,70.3431 L134.207,76.7071 Z M132.5,27.9042 C132.5,27.352 132.948,26.9042 133.5,26.9042 C134.052,26.9042 134.5,27.352 134.5,27.9042 L132.5,27.9042 Z M132.5,76 L132.5,27.9042 L134.5,27.9042 L134.5,76 L132.5,76 Z" id="Shape" fill="#D0021B" fill-rule="nonzero"></path>
            <path d="M184.834,24.6636 C185.386,24.6451 185.849,25.0775 185.867,25.6295 L186.169,34.6244 C186.188,35.1764 185.756,35.6389 185.204,35.6574 C184.652,35.676 184.189,35.2436 184.171,34.6916 L183.902,26.6961 L175.906,26.9649 C175.354,26.9834 174.892,26.551 174.873,25.9991 C174.855,25.4471 175.287,24.9846 175.839,24.966 L184.834,24.6636 Z M135.731,79.683 C135.353,80.0864 134.721,80.1076 134.317,79.7305 C133.914,79.3533 133.892,78.7205 134.27,78.317 L135.731,79.683 Z M185.598,26.346 L135.731,79.683 L134.27,78.317 L184.137,24.9801 L185.598,26.346 Z" id="Shape" fill="#D0021B" fill-rule="nonzero"></path>
            <path d="M134.034,51.4076 C133.482,51.3891 133.019,51.8215 133.001,52.3734 L132.698,61.3683 C132.679,61.9203 133.112,62.3828 133.664,62.4014 C134.215,62.42 134.678,61.9876 134.697,61.4356 L134.966,53.4402 L142.961,53.7094 C143.513,53.7279 143.976,53.2955 143.994,52.7436 C144.013,52.1916 143.581,51.7291 143.029,51.7105 L134.034,51.4076 Z M157.195,78.6829 C157.572,79.0864 158.205,79.1077 158.609,78.7305 C159.012,78.3533 159.033,77.7205 158.656,77.3171 L157.195,78.6829 Z M133.269,53.09 L157.195,78.6829 L158.656,77.3171 L134.731,51.7242 L133.269,53.09 Z" id="Shape" fill="#025AC1" fill-rule="nonzero"></path>
            <path d="M159.686,76.0692 C160.077,76.4597 160.71,76.4597 161.101,76.0692 L167.465,69.7052 C167.855,69.3147 167.855,68.6815 167.465,68.291 C167.074,67.9005 166.441,67.9005 166.05,68.291 L160.394,73.9479 L154.737,68.291 C154.346,67.9005 153.713,67.9005 153.322,68.291 C152.932,68.6815 152.932,69.3147 153.322,69.7052 L159.686,76.0692 Z M161.394,24.2988 C161.394,23.7465 160.946,23.2988 160.394,23.2988 C159.841,23.2988 159.394,23.7465 159.394,24.2988 L161.394,24.2988 Z M161.394,75.3621 L161.394,24.2988 L159.394,24.2988 L159.394,75.3621 L161.394,75.3621 Z" id="Shape" fill="#025AC1" fill-rule="nonzero"></path>
            <path d="M156.892,22.4076 C157.444,22.3891 157.907,22.8215 157.925,23.3734 L158.228,32.3683 C158.247,32.9203 157.814,33.3828 157.262,33.4014 C156.71,33.42 156.248,32.9876 156.229,32.4356 L155.96,24.4402 L147.965,24.7094 C147.413,24.7279 146.95,24.2955 146.931,23.7436 C146.913,23.1916 147.345,22.7291 147.897,22.7105 L156.892,22.4076 Z M133.731,49.6829 C133.353,50.0864 132.721,50.1077 132.317,49.7305 C131.914,49.3533 131.892,48.7205 132.27,48.3171 L133.731,49.6829 Z M157.656,24.09 L133.731,49.6829 L132.27,48.3171 L156.195,22.7242 L157.656,24.09 Z" id="Shape" fill="#025AC1" fill-rule="nonzero"></path>
        </g>
    </g>
</svg>