<?xml version="1.0" encoding="UTF-8"?>
<svg width="210px" height="100px" viewBox="0 0 210 100" version="1.1" xmlns="http://www.w3.org/2000/svg" xmlns:xlink="http://www.w3.org/1999/xlink">
    <title>pll_20_1</title>
    <g id="pll_20_1" stroke="none" stroke-width="1" fill="none" fill-rule="evenodd">
        <g transform="translate(1.000000, 0.000000)">
            <polygon id="Path" fill="#000000" points="0 22.4068 9.1337 81.6859 63.9675 100 98 68.7242 98 11.0754 42.7018 4"></polygon>
            <polygon id="Path" fill="#D0021B" points="88.2202 59.4133 96.935 52.0548 97.0212 67.8775 88.2202 75.9535"></polygon>
            <polygon id="Path" fill="#D0021B" points="76.6196 68.736 86.7331 60.5294 86.7302 77.2172 76.9343 86.1646"></polygon>
            <polygon id="Path" fill="#D0021B" points="63.6714 79.6328 75.0626 70.1203 75.6028 87.4158 64.4817 97.4935"></polygon>
            <polygon id="Path" fill="#D0021B" points="88.0405 39.4709 96.875 32.895 96.875 49.7972 88.0833 57.1332"></polygon>
            <polygon id="Path" fill="#D0021B" points="75.9434 48.0617 86.2774 40.4873 86.5895 58.2652 76.3948 66.5438"></polygon>
            <polygon id="Path" fill="#D0021B" points="62.4014 58.1205 74.1786 49.5417 74.8097 67.5426 63.5174 77.06"></polygon>
            <polygon id="Path" fill="#D0021B" points="87.7021 18.1996 96.9379 12.5311 96.9379 30.6327 87.7021 37.4906"></polygon>
            <polygon id="Path" fill="#D0021B" points="74.9595 25.7776 86.1577 19.0616 86.1577 38.2112 75.6786 45.497"></polygon>
            <polygon id="Path" fill="#FF8100" points="61.0464 34.4656 73.3681 26.8926 74.0557 46.7827 61.9788 55.601"></polygon>
            <polygon id="Path" fill="#025AC1" points="7.29883 64.6948 22.3799 69.2323 24.3986 85.9064 9.7935 81.0496"></polygon>
            <polygon id="Path" fill="#025AC1" points="24.4624 69.6997 41.0087 74.795 42.6318 92.0896 26.6078 86.7296"></polygon>
            <polygon id="Path" fill="#025AC1" points="43.3799 75.2855 61.2561 80.7177 62.4171 98.6558 44.8648 92.6828"></polygon>
            <polygon id="Path" fill="#025AC1" points="4.20068 44.9251 19.813 49.1033 22.0826 66.953 6.94032 62.5771"></polygon>
            <polygon id="Path" fill="#025AC1" points="22.0728 49.6168 39.1471 53.6697 40.7588 72.3414 24.3594 67.5637"></polygon>
            <polygon id="Path" fill="#025AC1" points="41.5977 54.4446 60.0588 59.0693 61.0368 78.256 42.9411 73.0223"></polygon>
            <polygon id="Path" fill="#D0021B" points="1.19287 24.1741 17.0361 27.2684 19.3354 46.5138 4.04719 42.9808"></polygon>
            <polygon id="Path" fill="#FF8100" points="19.2139 27.6373 36.7425 31.1604 38.8608 51.3613 21.619 47.1612"></polygon>
            <polygon id="Path" fill="#009A0E" points="39.4805 31.5752 58.6733 35.5078 59.6964 56.41 41.123 51.8851"></polygon>
            <polygon id="Path" fill="#FFDB11" points="42.8658 4.12503 57.5053 6.10116 46.8604 11.1838 31.8203 8.99596"></polygon>
            <polygon id="Path" fill="#FFDB11" points="30.0948 9.658 45.4523 11.8949 33.2809 17.7447 17.7642 15.1163"></polygon>
            <polygon id="Path" fill="#FFDB11" points="15.9895 15.9227 31.4038 18.5112 17.8908 24.9762 2.24463 21.9419"></polygon>
            <polygon id="Path" fill="#FFDB11" points="33.6618 18.8203 50.9644 21.7326 37.6032 28.8666 20.0156 25.4628"></polygon>
            <polygon id="Path" fill="#FFDB11" points="47.4753 12.2655 64.0826 14.7747 52.467 20.9091 35.4785 18.0292"></polygon>
            <polygon id="Path" fill="#FFDB11" points="59.7884 6.37338 75.7965 8.51873 65.6773 14.02 48.8877 11.5044"></polygon>
            <polygon id="Path" fill="#FFDB11" points="78.3461 8.82176 95.8218 11.1709 86.1528 16.9424 68.417 14.2854"></polygon>
            <polygon id="Path" fill="#FFDB11" points="66.4549 15.0238 84.532 17.779 73.5675 24.4799 54.9463 21.2787"></polygon>
            <polygon id="Path" fill="#FFDB11" points="53.2439 22.2863 71.8544 25.4501 59.4957 33.0805 40.0269 29.3402"></polygon>
            <polygon id="Path" fill="#025AC1" points="0.9798 21.2669 0 17.3287 12.5515 12.4902 13.7368 15.7485"></polygon>
            <polygon id="Path" fill="#025AC1" points="29.9798 8.77666 29 4.83852 41.5515 0 42.7368 3.25829"></polygon>
            <rect id="Rectangle" fill="#000000" fill-rule="nonzero" transform="translate(159.000000, 50.000000) rotate(-90.000000) translate(-159.000000, -50.000000) " x="109" y="0" width="100" height="100"></rect>
            <rect id="Rectangle" fill="#009A0E" fill-rule="nonzero" x="173" y="91" width="22" height="4"></rect>
            <rect id="Rectangle" fill="#FF8100" fill-rule="nonzero" x="148" y="91" width="22" height="4"></rect>
            <rect id="Rectangle" fill="#D0021B" fill-rule="nonzero" x="123" y="91" width="22" height="4"></rect>
            <rect id="Rectangle" fill="#009A0E" fill-rule="nonzero" x="173" y="5" width="22" height="4"></rect>
            <rect id="Rectangle" fill="#025AC1" fill-rule="nonzero" x="148" y="5" width="22" height="4"></rect>
            <rect id="Rectangle" fill="#FF8100" fill-rule="nonzero" x="123" y="5" width="22" height="4"></rect>
            <rect id="Rectangle" fill="#D0021B" fill-rule="nonzero" transform="translate(202.000000, 25.000000) rotate(-90.000000) translate(-202.000000, -25.000000) " x="191" y="23" width="22" height="4"></rect>
            <rect id="Rectangle" fill="#D0021B" fill-rule="nonzero" transform="translate(202.000000, 50.000000) rotate(-90.000000) translate(-202.000000, -50.000000) " x="191" y="48" width="22" height="4"></rect>
            <rect id="Rectangle" fill="#FF8100" fill-rule="nonzero" transform="translate(202.000000, 75.000000) rotate(-90.000000) translate(-202.000000, -75.000000) " x="191" y="73" width="22" height="4"></rect>
            <rect id="Rectangle" fill="#025AC1" fill-rule="nonzero" transform="translate(116.000000, 25.000000) rotate(-90.000000) translate(-116.000000, -25.000000) " x="105" y="23" width="22" height="4"></rect>
            <rect id="Rectangle" fill="#009A0E" fill-rule="nonzero" transform="translate(116.000000, 50.000000) rotate(-90.000000) translate(-116.000000, -50.000000) " x="105" y="48" width="22" height="4"></rect>
            <rect id="Rectangle" fill="#025AC1" fill-rule="nonzero" transform="translate(116.000000, 75.000000) rotate(-90.000000) translate(-116.000000, -75.000000) " x="105" y="73" width="22" height="4"></rect>
            <rect id="Rectangle" fill="#FFDB11" fill-rule="nonzero" transform="translate(184.000000, 25.000000) rotate(-90.000000) translate(-184.000000, -25.000000) " x="173" y="14" width="22" height="22"></rect>
            <rect id="Rectangle" fill="#FFDB11" fill-rule="nonzero" transform="translate(184.000000, 50.000000) rotate(-90.000000) translate(-184.000000, -50.000000) " x="173" y="39" width="22" height="22"></rect>
            <rect id="Rectangle" fill="#FFDB11" fill-rule="nonzero" transform="translate(184.000000, 75.000000) rotate(-90.000000) translate(-184.000000, -75.000000) " x="173" y="64" width="22" height="22"></rect>
            <rect id="Rectangle" fill="#FFDB11" fill-rule="nonzero" transform="translate(159.000000, 25.000000) rotate(-90.000000) translate(-159.000000, -25.000000) " x="148" y="14" width="22" height="22"></rect>
            <rect id="Rectangle" fill="#FFDB11" fill-rule="nonzero" transform="translate(159.000000, 50.000000) rotate(-90.000000) translate(-159.000000, -50.000000) " x="148" y="39" width="22" height="22"></rect>
            <rect id="Rectangle" fill="#FFDB11" fill-rule="nonzero" transform="translate(159.000000, 75.000000) rotate(-90.000000) translate(-159.000000, -75.000000) " x="148" y="64" width="22" height="22"></rect>
            <rect id="Rectangle" fill="#FFDB11" fill-rule="nonzero" transform="translate(134.000000, 25.000000) rotate(-90.000000) translate(-134.000000, -25.000000) " x="123" y="14" width="22" height="22"></rect>
            <rect id="Rectangle" fill="#FFDB11" fill-rule="nonzero" transform="translate(134.000000, 50.000000) rotate(-90.000000) translate(-134.000000, -50.000000) " x="123" y="39" width="22" height="22"></rect>
            <rect id="Rectangle" fill="#FFDB11" fill-rule="nonzero" transform="translate(134.000000, 75.000000) rotate(-90.000000) translate(-134.000000, -75.000000) " x="123" y="64" width="22" height="22"></rect>
            <path d="M184.401,77.9249 C184.789,78.3174 184.786,78.9506 184.394,79.3391 L177.998,85.6708 C177.605,86.0593 176.972,86.0561 176.583,85.6636 C176.195,85.2711 176.198,84.6379 176.591,84.2494 L182.276,78.6213 L176.648,72.9358 C176.259,72.5433 176.263,71.9102 176.655,71.5216 C177.048,71.1331 177.681,71.1363 178.069,71.5288 L184.401,77.9249 Z M132.995,79.3715 C132.443,79.3687 131.997,78.9187 132,78.3665 C132.003,77.8142 132.453,77.3688 133.005,77.3715869 L132.995,79.3715 Z M183.685,79.6284 L132.995,79.3715 L133.005,77.3716 L183.695,77.6285 L183.685,79.6284 Z" id="Shape" fill="#D0021B" fill-rule="nonzero"></path>
            <path d="M131.793,75.7071 C132.183,76.0976 132.817,76.0976 133.207,75.7071 L139.571,69.3431 C139.962,68.9526 139.962,68.3195 139.571,67.9289 C139.181,67.5384 138.547,67.5384 138.157,67.9289 L132.5,73.5858 L126.843,67.9289 C126.453,67.5384 125.819,67.5384 125.429,67.9289 C125.038,68.3195 125.038,68.9526 125.429,69.3431 L131.793,75.7071 Z M133.5,26.9042 C133.5,26.352 133.052,25.9042 132.5,25.9042 C131.948,25.9042 131.5,26.352 131.5,26.9042 L133.5,26.9042 Z M133.5,75 L133.5,26.9042 L131.5,26.9042 L131.5,75 L133.5,75 Z" id="Shape" fill="#D0021B" fill-rule="nonzero"></path>
            <path d="M135.034,20.6636 C134.482,20.6451 134.019,21.0775 134.001,21.6295 L133.698,30.6244 C133.68,31.1764 134.112,31.6389 134.664,31.6574 C135.216,31.676 135.679,31.2436 135.697,30.6916 L135.966,22.6961 L143.961,22.9649 C144.513,22.9834 144.976,22.551 144.994,21.9991 C145.013,21.4471 144.58,20.9846 144.029,20.966 L135.034,20.6636 Z M184.137,75.683 C184.514,76.0864 185.147,76.1076 185.55,75.7305 C185.954,75.3533 185.975,74.7205 185.598,74.317 L184.137,75.683 Z M134.27,22.346 L184.137,75.683 L185.598,74.317 L135.73,20.9801 L134.27,22.346 Z" id="Shape" fill="#D0021B" fill-rule="nonzero"></path>
            <path d="M134.034,51.4076 C133.482,51.3891 133.019,51.8215 133.001,52.3734 L132.698,61.3683 C132.679,61.9203 133.112,62.3828 133.664,62.4014 C134.215,62.42 134.678,61.9876 134.697,61.4356 L134.966,53.4402 L142.961,53.7094 C143.513,53.7279 143.976,53.2955 143.994,52.7436 C144.013,52.1916 143.581,51.7291 143.029,51.7105 L134.034,51.4076 Z M157.195,78.6829 C157.572,79.0864 158.205,79.1077 158.609,78.7305 C159.012,78.3533 159.033,77.7205 158.656,77.3171 L157.195,78.6829 Z M133.269,53.09 L157.195,78.6829 L158.656,77.3171 L134.731,51.7242 L133.269,53.09 Z" id="Shape" fill="#025AC1" fill-rule="nonzero"></path>
            <path d="M159.686,76.0692 C160.077,76.4597 160.71,76.4597 161.101,76.0692 L167.465,69.7052 C167.855,69.3147 167.855,68.6815 167.465,68.291 C167.074,67.9005 166.441,67.9005 166.05,68.291 L160.394,73.9479 L154.737,68.291 C154.346,67.9005 153.713,67.9005 153.322,68.291 C152.932,68.6815 152.932,69.3147 153.322,69.7052 L159.686,76.0692 Z M161.394,24.2988 C161.394,23.7465 160.946,23.2988 160.394,23.2988 C159.841,23.2988 159.394,23.7465 159.394,24.2988 L161.394,24.2988 Z M161.394,75.3621 L161.394,24.2988 L159.394,24.2988 L159.394,75.3621 L161.394,75.3621 Z" id="Shape" fill="#025AC1" fill-rule="nonzero"></path>
            <path d="M156.892,22.4076 C157.444,22.3891 157.907,22.8215 157.925,23.3734 L158.228,32.3683 C158.247,32.9203 157.814,33.3828 157.262,33.4014 C156.71,33.42 156.248,32.9876 156.229,32.4356 L155.96,24.4402 L147.965,24.7094 C147.413,24.7279 146.95,24.2955 146.931,23.7436 C146.913,23.1916 147.345,22.7291 147.897,22.7105 L156.892,22.4076 Z M133.731,49.6829 C133.353,50.0864 132.721,50.1077 132.317,49.7305 C131.914,49.3533 131.892,48.7205 132.27,48.3171 L133.731,49.6829 Z M157.656,24.09 L133.731,49.6829 L132.27,48.3171 L156.195,22.7242 L157.656,24.09 Z" id="Shape" fill="#025AC1" fill-rule="nonzero"></path>
        </g>
    </g>
</svg>