<?xml version="1.0" encoding="UTF-8"?>
<svg width="210px" height="100px" viewBox="0 0 210 100" version="1.1" xmlns="http://www.w3.org/2000/svg" xmlns:xlink="http://www.w3.org/1999/xlink">
    <title>pll_7_1</title>
    <g id="pll_7_1" stroke="none" stroke-width="1" fill="none" fill-rule="evenodd">
        <g>
            <polygon id="Path" fill="#000000" points="0.08545 19.2754 9.1878 80.8861 63.8335 99.9205 97.7492 67.4145 97.7492 7.49827 42.6407 0.144623"></polygon>
            <polygon id="Path" fill="#009A0E" points="88.2039 58.1468 96.9186 50.488 97.0048 66.9565 88.2039 75.3621"></polygon>
            <polygon id="Path" fill="#009A0E" points="76.6033 67.85 86.7167 59.3085 86.7139 76.6775 76.9179 85.99"></polygon>
            <polygon id="Path" fill="#009A0E" points="63.655 79.1917 75.0462 69.2908 75.5865 87.2923 64.4654 97.7814"></polygon>
            <polygon id="Path" fill="#009A0E" points="88.0242 37.3905 96.8586 30.5461 96.8586 48.1383 88.0669 55.7736"></polygon>
            <polygon id="Path" fill="#009A0E" points="75.9272 46.332 86.2613 38.4483 86.5734 56.9519 76.3787 65.5684"></polygon>
            <polygon id="Path" fill="#009A0E" points="62.385 56.8013 74.1622 47.8723 74.7933 66.6079 63.5011 76.5139"></polygon>
            <polygon id="Path" fill="#D0021B" points="87.6858 15.2509 96.9215 9.35114 96.9215 28.1915 87.6858 35.3294"></polygon>
            <polygon id="Path" fill="#009A0E" points="74.9431 23.1383 86.1413 16.1481 86.1413 36.0793 75.6622 43.6625"></polygon>
            <polygon id="Path" fill="#FF8100" points="61.03 32.1809 73.3518 24.2988 74.0393 45.0007 61.9624 54.179"></polygon>
            <polygon id="Path" fill="#D0021B" points="7.36401 63.0673 22.4451 67.7862 24.4638 85.1273 9.8586 80.0763"></polygon>
            <polygon id="Path" fill="#D0021B" points="24.5278 68.2724 41.0741 73.5715 42.6973 91.5579 26.6732 85.9835"></polygon>
            <polygon id="Path" fill="#D0021B" points="43.4451 74.0816 61.3213 79.7311 62.4823 98.3867 44.93 92.1748"></polygon>
            <polygon id="Path" fill="#D0021B" points="4.26587 42.5068 19.8782 46.8521 22.1477 65.4158 7.0055 60.8649"></polygon>
            <polygon id="Path" fill="#D0021B" points="22.1379 47.3862 39.2122 51.6012 40.824 71.0198 24.4246 66.051"></polygon>
            <polygon id="Path" fill="#D0021B" points="41.6631 52.4071 60.1242 57.2168 61.1022 77.171 43.0065 71.7278"></polygon>
            <polygon id="Path" fill="#D0021B" points="1.25806 20.9258 17.1013 24.1438 19.4006 44.159 4.11238 40.4847"></polygon>
            <polygon id="Path" fill="#FF8100" points="19.2791 24.5274 36.8077 28.1915 38.926 49.2004 21.6842 44.8323"></polygon>
            <polygon id="Path" fill="#009A0E" points="39.5454 28.6229 58.7383 32.7128 59.7613 54.4511 41.188 49.7452"></polygon>
            <polygon id="Path" fill="#FFDB11" points="42.7296 0.661118 57.3691 2.70312 46.7241 7.95515 31.6841 5.69441"></polygon>
            <polygon id="Path" fill="#FFDB11" points="29.9586 6.37852 45.3161 8.68998 33.1447 14.7348 17.6279 12.0188"></polygon>
            <polygon id="Path" fill="#FFDB11" points="15.8538 12.8521 31.2681 15.5268 17.7551 22.2073 2.10889 19.0718"></polygon>
            <polygon id="Path" fill="#FFDB11" points="33.5258 15.8463 50.8285 18.8557 37.4672 26.2274 19.8796 22.7102"></polygon>
            <polygon id="Path" fill="#FFDB11" points="47.3393 9.07297 63.9466 11.6657 52.331 18.0047 35.3425 15.0287"></polygon>
            <polygon id="Path" fill="#FFDB11" points="59.6527 2.98441 75.6607 5.20126 65.5415 10.8859 48.752 8.28645"></polygon>
            <polygon id="Path" fill="#FFDB11" points="78.2101 5.51442 95.6858 7.94188 86.0168 13.9058 68.281 11.1602"></polygon>
            <polygon id="Path" fill="#FFDB11" points="66.3189 11.9232 84.3961 14.7702 73.4315 21.6945 54.8103 18.3866"></polygon>
            <polygon id="Path" fill="#FFDB11" points="53.1081 19.4277 71.7186 22.697 59.36 30.5818 39.8911 26.7168"></polygon>
            <rect id="Rectangle" fill="#000000" fill-rule="nonzero" transform="translate(159.000000, 50.000000) rotate(-90.000000) translate(-159.000000, -50.000000) " x="109" y="0" width="100" height="100"></rect>
            <rect id="Rectangle" fill="#009A0E" fill-rule="nonzero" x="173" y="91" width="22" height="4"></rect>
            <rect id="Rectangle" fill="#FF8100" fill-rule="nonzero" x="148" y="91" width="22" height="4"></rect>
            <rect id="Rectangle" fill="#D0021B" fill-rule="nonzero" x="123" y="91" width="22" height="4"></rect>
            <rect id="Rectangle" fill="#009A0E" fill-rule="nonzero" x="173" y="5" width="22" height="4"></rect>
            <rect id="Rectangle" fill="#D0021B" fill-rule="nonzero" x="148" y="5" width="22" height="4"></rect>
            <rect id="Rectangle" fill="#FF8100" fill-rule="nonzero" x="123" y="5" width="22" height="4"></rect>
            <rect id="Rectangle" fill="#D0021B" fill-rule="nonzero" transform="translate(202.000000, 25.000000) rotate(-90.000000) translate(-202.000000, -25.000000) " x="191" y="23" width="22" height="4"></rect>
            <rect id="Rectangle" fill="#009A0E" fill-rule="nonzero" transform="translate(202.000000, 50.000000) rotate(-90.000000) translate(-202.000000, -50.000000) " x="191" y="48" width="22" height="4"></rect>
            <rect id="Rectangle" fill="#FF8100" fill-rule="nonzero" transform="translate(202.000000, 75.000000) rotate(-90.000000) translate(-202.000000, -75.000000) " x="191" y="73" width="22" height="4"></rect>
            <rect id="Rectangle" fill="#025AC1" fill-rule="nonzero" transform="translate(116.000000, 25.000000) rotate(-90.000000) translate(-116.000000, -25.000000) " x="105" y="23" width="22" height="4"></rect>
            <rect id="Rectangle" fill="#025AC1" fill-rule="nonzero" transform="translate(116.000000, 50.000000) rotate(-90.000000) translate(-116.000000, -50.000000) " x="105" y="48" width="22" height="4"></rect>
            <rect id="Rectangle" fill="#025AC1" fill-rule="nonzero" transform="translate(116.000000, 75.000000) rotate(-90.000000) translate(-116.000000, -75.000000) " x="105" y="73" width="22" height="4"></rect>
            <rect id="Rectangle" fill="#FFDB11" fill-rule="nonzero" transform="translate(184.000000, 25.000000) rotate(-90.000000) translate(-184.000000, -25.000000) " x="173" y="14" width="22" height="22"></rect>
            <rect id="Rectangle" fill="#FFDB11" fill-rule="nonzero" transform="translate(184.000000, 50.000000) rotate(-90.000000) translate(-184.000000, -50.000000) " x="173" y="39" width="22" height="22"></rect>
            <rect id="Rectangle" fill="#FFDB11" fill-rule="nonzero" transform="translate(184.000000, 75.000000) rotate(-90.000000) translate(-184.000000, -75.000000) " x="173" y="64" width="22" height="22"></rect>
            <rect id="Rectangle" fill="#FFDB11" fill-rule="nonzero" transform="translate(159.000000, 25.000000) rotate(-90.000000) translate(-159.000000, -25.000000) " x="148" y="14" width="22" height="22"></rect>
            <rect id="Rectangle" fill="#FFDB11" fill-rule="nonzero" transform="translate(159.000000, 50.000000) rotate(-90.000000) translate(-159.000000, -50.000000) " x="148" y="39" width="22" height="22"></rect>
            <rect id="Rectangle" fill="#FFDB11" fill-rule="nonzero" transform="translate(159.000000, 75.000000) rotate(-90.000000) translate(-159.000000, -75.000000) " x="148" y="64" width="22" height="22"></rect>
            <rect id="Rectangle" fill="#FFDB11" fill-rule="nonzero" transform="translate(134.000000, 25.000000) rotate(-90.000000) translate(-134.000000, -25.000000) " x="123" y="14" width="22" height="22"></rect>
            <rect id="Rectangle" fill="#FFDB11" fill-rule="nonzero" transform="translate(134.000000, 50.000000) rotate(-90.000000) translate(-134.000000, -50.000000) " x="123" y="39" width="22" height="22"></rect>
            <rect id="Rectangle" fill="#FFDB11" fill-rule="nonzero" transform="translate(134.000000, 75.000000) rotate(-90.000000) translate(-134.000000, -75.000000) " x="123" y="64" width="22" height="22"></rect>
            <path d="M184.207,19.67 C183.817,19.2794 183.183,19.2794 182.793,19.67 L176.429,26.0339 C176.038,26.4245 176.038,27.0576 176.429,27.4481 C176.819,27.8387 177.453,27.8387 177.843,27.4481 L183.5,21.7913 L189.157,27.4481 C189.547,27.8387 190.181,27.8387 190.571,27.4481 C190.962,27.0576 190.962,26.4245 190.571,26.0339 L184.207,19.67 Z M182.793,81.0842 C183.183,81.4747 183.817,81.4747 184.207,81.0842 L190.571,74.7202 C190.962,74.3297 190.962,73.6965 190.571,73.306 C190.181,72.9155 189.547,72.9155 189.157,73.306 L183.5,78.9629 L177.843,73.306 C177.453,72.9155 176.819,72.9155 176.429,73.306 C176.038,73.6965 176.038,74.3297 176.429,74.7202 L182.793,81.0842 Z M182.5,20.3771 L182.5,80.3771 L184.5,80.3771 L184.5,20.3771 L182.5,20.3771 Z" id="Shape" fill="#D0021B" fill-rule="nonzero"></path>
            <path d="M159.211,20.3201 C158.821,19.9296 158.188,19.9296 157.797,20.3201 L151.433,26.6841 C151.043,27.0746 151.043,27.7078 151.433,28.0983 C151.824,28.4888 152.457,28.4888 152.847,28.0983 L158.504,22.4415 L164.161,28.0983 C164.552,28.4888 165.185,28.4888 165.575,28.0983 C165.966,27.7078 165.966,27.0746 165.575,26.6841 L159.211,20.3201 Z M157.797,81.0842 C158.188,81.4747 158.821,81.4747 159.211,81.0842 L165.575,74.7202 C165.966,74.3297 165.966,73.6965 165.575,73.306 C165.185,72.9155 164.552,72.9155 164.161,73.306 L158.504,78.9629 L152.847,73.306 C152.457,72.9155 151.824,72.9155 151.433,73.306 C151.043,73.6965 151.043,74.3297 151.433,74.7202 L157.797,81.0842 Z M157.504,21.0273 L157.504,80.3771 L159.504,80.3771 L159.504,21.0273 L157.504,21.0273 Z" id="Shape" fill="#025AC1" fill-rule="nonzero"></path>
        </g>
    </g>
</svg>