<?xml version="1.0" encoding="UTF-8"?>
<svg width="210px" height="100px" viewBox="0 0 210 100" version="1.1" xmlns="http://www.w3.org/2000/svg" xmlns:xlink="http://www.w3.org/1999/xlink">
    <title>pll_7_2</title>
    <g id="pll_7_2" stroke="none" stroke-width="1" fill="none" fill-rule="evenodd">
        <g transform="translate(1.000000, 0.000000)">
            <polygon id="Path" fill="#000000" points="0.08545 19.2754 9.1878 80.8861 63.8335 99.9205 97.7492 67.4145 97.7492 7.49827 42.6407 0.144623"></polygon>
            <polygon id="Path" fill="#FF8100" points="88.2039 58.1468 96.9186 50.488 97.0048 66.9564 88.2039 75.3621"></polygon>
            <polygon id="Path" fill="#FF8100" points="76.6033 67.85 86.7167 59.3085 86.7139 76.6775 76.9179 85.99"></polygon>
            <polygon id="Path" fill="#FF8100" points="63.655 79.1916 75.0462 69.2908 75.5865 87.2923 64.4654 97.7813"></polygon>
            <polygon id="Path" fill="#FF8100" points="88.0242 37.3905 96.8586 30.5461 96.8586 48.1383 88.0669 55.7736"></polygon>
            <polygon id="Path" fill="#FF8100" points="75.9272 46.3319 86.2613 38.4483 86.5734 56.9519 76.3787 65.5684"></polygon>
            <polygon id="Path" fill="#FF8100" points="62.385 56.8013 74.1622 47.8723 74.7933 66.6079 63.5011 76.5139"></polygon>
            <polygon id="Path" fill="#FF8100" points="87.6858 15.2509 96.9215 9.35114 96.9215 28.1915 87.6858 35.3294"></polygon>
            <polygon id="Path" fill="#D0021B" points="74.9431 23.1383 86.1413 16.1481 86.1413 36.0793 75.6622 43.6625"></polygon>
            <polygon id="Path" fill="#009A0E" points="61.03 32.1808 73.3518 24.2988 74.0393 45.0007 61.9624 54.179"></polygon>
            <polygon id="Path" fill="#009A0E" points="7.36401 63.0673 22.4451 67.7863 24.4638 85.1274 9.8586 80.0763"></polygon>
            <polygon id="Path" fill="#009A0E" points="24.5278 68.2724 41.0741 73.5715 42.6973 91.5579 26.6732 85.9835"></polygon>
            <polygon id="Path" fill="#009A0E" points="43.4451 74.0816 61.3213 79.7311 62.4823 98.3867 44.93 92.1748"></polygon>
            <polygon id="Path" fill="#009A0E" points="4.26587 42.5068 19.8782 46.8521 22.1477 65.4158 7.0055 60.8649"></polygon>
            <polygon id="Path" fill="#009A0E" points="22.1379 47.3862 39.2122 51.6012 40.824 71.0198 24.4246 66.051"></polygon>
            <polygon id="Path" fill="#009A0E" points="41.6631 52.4071 60.1242 57.2168 61.1022 77.171 43.0065 71.7279"></polygon>
            <polygon id="Path" fill="#FF8100" points="1.25806 20.9258 17.1013 24.1438 19.4006 44.159 4.11238 40.4848"></polygon>
            <polygon id="Path" fill="#009A0E" points="19.2791 24.5275 36.8077 28.1915 38.926 49.2004 21.6842 44.8324"></polygon>
            <polygon id="Path" fill="#D0021B" points="39.5454 28.6229 58.7383 32.7128 59.7613 54.4511 41.188 49.7452"></polygon>
            <polygon id="Path" fill="#FFDB11" points="42.7296 0.661133 57.3691 2.70313 46.7241 7.95516 31.6841 5.69442"></polygon>
            <polygon id="Path" fill="#FFDB11" points="29.9586 6.37854 45.3161 8.68999 33.1447 14.7348 17.6279 12.0188"></polygon>
            <polygon id="Path" fill="#FFDB11" points="15.8538 12.8521 31.2681 15.5268 17.7551 22.2073 2.10889 19.0718"></polygon>
            <polygon id="Path" fill="#FFDB11" points="33.5258 15.8463 50.8285 18.8557 37.4672 26.2274 19.8796 22.7102"></polygon>
            <polygon id="Path" fill="#FFDB11" points="47.3393 9.07297 63.9466 11.6657 52.331 18.0047 35.3425 15.0287"></polygon>
            <polygon id="Path" fill="#FFDB11" points="59.6527 2.98441 75.6607 5.20126 65.5415 10.8859 48.752 8.28645"></polygon>
            <polygon id="Path" fill="#FFDB11" points="78.2101 5.5144 95.6858 7.94187 86.0168 13.9058 68.281 11.1602"></polygon>
            <polygon id="Path" fill="#FFDB11" points="66.3189 11.9232 84.3961 14.7702 73.4315 21.6945 54.8103 18.3866"></polygon>
            <polygon id="Path" fill="#FFDB11" points="53.1081 19.4277 71.7186 22.697 59.36 30.5818 39.8911 26.7168"></polygon>
            <rect id="Rectangle" fill="#000000" fill-rule="nonzero" x="109" y="0" width="100" height="100"></rect>
            <rect id="Rectangle" fill="#009A0E" fill-rule="nonzero" transform="translate(116.000000, 75.000000) rotate(90.000000) translate(-116.000000, -75.000000) " x="105" y="73" width="22" height="4"></rect>
            <rect id="Rectangle" fill="#FF8100" fill-rule="nonzero" transform="translate(116.000000, 50.000000) rotate(90.000000) translate(-116.000000, -50.000000) " x="105" y="48" width="22" height="4"></rect>
            <rect id="Rectangle" fill="#D0021B" fill-rule="nonzero" transform="translate(116.000000, 25.000000) rotate(90.000000) translate(-116.000000, -25.000000) " x="105" y="23" width="22" height="4"></rect>
            <rect id="Rectangle" fill="#009A0E" fill-rule="nonzero" transform="translate(202.000000, 75.000000) rotate(90.000000) translate(-202.000000, -75.000000) " x="191" y="73" width="22" height="4"></rect>
            <rect id="Rectangle" fill="#D0021B" fill-rule="nonzero" transform="translate(202.000000, 50.000000) rotate(90.000000) translate(-202.000000, -50.000000) " x="191" y="48" width="22" height="4"></rect>
            <rect id="Rectangle" fill="#FF8100" fill-rule="nonzero" transform="translate(202.000000, 25.000000) rotate(90.000000) translate(-202.000000, -25.000000) " x="191" y="23" width="22" height="4"></rect>
            <rect id="Rectangle" fill="#D0021B" fill-rule="nonzero" x="173" y="91" width="22" height="4"></rect>
            <rect id="Rectangle" fill="#009A0E" fill-rule="nonzero" x="148" y="91" width="22" height="4"></rect>
            <rect id="Rectangle" fill="#FF8100" fill-rule="nonzero" x="123" y="91" width="22" height="4"></rect>
            <rect id="Rectangle" fill="#025AC1" fill-rule="nonzero" x="173" y="5" width="22" height="4"></rect>
            <rect id="Rectangle" fill="#025AC1" fill-rule="nonzero" x="148" y="5" width="22" height="4"></rect>
            <rect id="Rectangle" fill="#025AC1" fill-rule="nonzero" x="123" y="5" width="22" height="4"></rect>
            <rect id="Rectangle" fill="#FFDB11" fill-rule="nonzero" x="173" y="64" width="22" height="22"></rect>
            <rect id="Rectangle" fill="#FFDB11" fill-rule="nonzero" x="148" y="64" width="22" height="22"></rect>
            <rect id="Rectangle" fill="#FFDB11" fill-rule="nonzero" x="123" y="64" width="22" height="22"></rect>
            <rect id="Rectangle" fill="#FFDB11" fill-rule="nonzero" x="173" y="39" width="22" height="22"></rect>
            <rect id="Rectangle" fill="#FFDB11" fill-rule="nonzero" x="148" y="39" width="22" height="22"></rect>
            <rect id="Rectangle" fill="#FFDB11" fill-rule="nonzero" x="123" y="39" width="22" height="22"></rect>
            <rect id="Rectangle" fill="#FFDB11" fill-rule="nonzero" x="173" y="14" width="22" height="22"></rect>
            <rect id="Rectangle" fill="#FFDB11" fill-rule="nonzero" x="148" y="14" width="22" height="22"></rect>
            <rect id="Rectangle" fill="#FFDB11" fill-rule="nonzero" x="123" y="14" width="22" height="22"></rect>
            <path d="M189.33,75.2071 C189.721,74.8166 189.721,74.1834 189.33,73.7929 L182.966,67.4289 C182.576,67.0384 181.942,67.0384 181.552,67.4289 C181.161,67.8195 181.161,68.4526 181.552,68.8431 L187.209,74.5 L181.552,80.1569 C181.161,80.5474 181.161,81.1805 181.552,81.5711 C181.942,81.9616 182.576,81.9616 182.966,81.5711 L189.33,75.2071 Z M127.916,73.7929 C127.525,74.1834 127.525,74.8166 127.916,75.2071 L134.28,81.5711 C134.67,81.9616 135.303,81.9616 135.694,81.5711 C136.085,81.1805 136.085,80.5474 135.694,80.1569 L130.037,74.5 L135.694,68.8431 C136.085,68.4526 136.085,67.8195 135.694,67.4289 C135.303,67.0384 134.67,67.0384 134.28,67.4289 L127.916,73.7929 Z M188.623,73.5 L128.623,73.5 L128.623,75.5 L188.623,75.5 L188.623,73.5 Z" id="Shape" fill="#D0021B" fill-rule="nonzero"></path>
            <path d="M188.68,50.2113 C189.07,49.8208 189.07,49.1876 188.68,48.7971 L182.316,42.4331 C181.925,42.0426 181.292,42.0426 180.902,42.4331 C180.511,42.8237 180.511,43.4568 180.902,43.8474 L186.558,49.5042 L180.902,55.1611 C180.511,55.5516 180.511,56.1848 180.902,56.5753 C181.292,56.9658 181.925,56.9658 182.316,56.5753 L188.68,50.2113 Z M127.916,48.7971 C127.525,49.1876 127.525,49.8208 127.916,50.2113 L134.28,56.5753 C134.67,56.9658 135.303,56.9658 135.694,56.5753 C136.084,56.1848 136.084,55.5516 135.694,55.1611 L130.037,49.5042 L135.694,43.8474 C136.084,43.4568 136.084,42.8237 135.694,42.4331 C135.303,42.0426 134.67,42.0426 134.28,42.4331 L127.916,48.7971 Z M187.973,48.5042 L128.623,48.5042 L128.623,50.5042 L187.973,50.5042 L187.973,48.5042 Z" id="Shape" fill="#025AC1" fill-rule="nonzero"></path>
        </g>
    </g>
</svg>