<?xml version="1.0" encoding="UTF-8"?>
<svg width="100px" height="100px" viewBox="0 0 100 100" version="1.1" xmlns="http://www.w3.org/2000/svg" xmlns:xlink="http://www.w3.org/1999/xlink">
    <title>pll_20</title>
    <g id="pll_20" stroke="none" stroke-width="1" fill="none" fill-rule="evenodd">
        <g id="cube" transform="translate(0.000000, 2.000000)">
            <path d="M99.5824963,16.2731579 L96.5163399,72.6682895 C96.4901961,73.1776316 96.1633987,73.6031579 95.7189542,73.8094737 L51.4836601,97.3036842 C50.8366013,97.6518421 48.5816993,97.1940789 48.1176471,96.9361842 L4.2875817,73.1389474 C3.81045752,72.8875 3.54248366,72.4168421 3.54901961,71.9397368 L0.653253673,16.1313158 C0.62745098,15.5188158 2.11111111,13.7006579 2.7124183,13.5717105 L49.9542484,0.0580263158 C50.2287582,-0.0193421053 50.5098039,-0.0193421053 50.7647059,0.0580263158 L96.5163399,13.72 C97.0980392,13.8811842 99.6339869,15.2028947 99.5824963,16.2731579 Z" id="Background" fill="#000000"></path>
            <g id="Right" transform="translate(50.000000, 15.680000)">
                <polygon id="R1" fill="#FF8100" points="0.408804306 18.6677883 17.1302191 12.7001486 16.7939446 32.9022883 0.48792772 39.2122278"></polygon>
                <polygon id="R2" fill="#FF001F" points="19.0885236 12.1899283 33.9703191 6.42896007 33.4955786 25.4298217 18.8115917 31.9851835"></polygon>
                <polygon id="R3" fill="#FF001F" points="36.0275279 5.69269283 48.5883699 0.816536978 47.6982314 19.5913516 35.2033256 24.6677205"></polygon>
                <polygon id="R4" fill="#FF001F" points="0.586831988 41.2983183 16.7741638 34.9560864 16.1543637 53.5758975 0.586831988 61.1710753"></polygon>
                <polygon id="R5" fill="#FF001F" points="18.8709343 34.1358589 33.179085 27.8452949 32.1306997 46.239059 18.2115725 52.8719226"></polygon>
                <polygon id="R6" fill="#FF001F" points="34.8670511 27.0509013 47.4542676 21.6451497 46.4256632 39.0765996 34.0098808 45.0571563"></polygon>
                <polygon id="R7" fill="#FF001F" points="0.718704344 63.1409131 16.2994233 55.5586522 15.5543445 72.9384342 0.791234141 80.8694533"></polygon>
                <polygon id="R8" fill="#FF001F" points="18.323664 54.9257207 32.2098231 48.2347307 31.4251826 64.8265776 17.5785852 72.0019539"></polygon>
                <polygon id="R9" fill="#FF001F" points="34.2340638 47.2982505 46.5113802 41.0722713 45.4959631 57.2959846 33.5878893 63.4186279"></polygon>
            </g>
            <g id="Left" transform="translate(1.000000, 15.680000)">
                <polygon id="L1" fill="#009A0E" points="30.814802 12.6161883 47.5362168 18.5773696 47.5098424 39.2832711 31.4807574 32.5729056"></polygon>
                <polygon id="L2" fill="#FF8100" points="14.3769127 6.27395644 28.9356209 11.905755 29.6345444 31.9205987 15.2274894 25.6752441"></polygon>
                <polygon id="L3" fill="#FF001F" points="0.649000384 0.674450318 12.4845444 5.65394192 13.3219339 24.6289696 1.53254517 18.9907126"></polygon>
                <polygon id="L4" fill="#025AC1" points="31.3620723 34.5039925 47.5757785 41.3306107 47.5625913 61.1646168 31.9818724 53.7631935"></polygon>
                <polygon id="L5" fill="#025AC1" points="15.4055171 28.0261325 29.502672 33.7806422 30.0960977 52.6458757 16.1044406 46.2003081"></polygon>
                <polygon id="L6" fill="#025AC1" points="1.88200692 21.3868103 13.5527105 26.8894392 14.2252595 45.1281996 2.73917724 39.1605599"></polygon>
                <polygon id="L7" fill="#025AC1" points="31.9225298 55.8557425 47.740619 63.2959167 47.826336 80.5142366 31.8697809 71.7371561"></polygon>
                <polygon id="L8" fill="#025AC1" points="16.1637832 48.2153553 29.9971934 54.7448832 30.1158785 70.5617119 16.6780854 63.5607146"></polygon>
                <polygon id="L9" fill="#025AC1" points="2.92379854 41.5889501 14.3307574 47.1949147 14.7263745 62.4175628 3.57656671 56.6565946"></polygon>
            </g>
            <g id="Up" transform="translate(3.000000, 0.980000)" fill="#FFDB11">
                <polygon id="Up1" points="30.0254506 25.4832774 46.4396118 19.6267029 62.9710636 25.2786809 46.4656764 31.0841064"></polygon>
                <polygon id="Up2" points="49.0786492 18.9042215 64.1309368 14.1217785 79.5546445 18.948977 65.1800357 24.6073487"></polygon>
                <polygon id="Up3" points="66.3724896 13.2074879 77.7887701 9.68459211 92.997445 13.9939057 81.6789067 18.2840384"></polygon>
                <polygon id="Up4" points="49.0069717 7.95830921 60.32551 4.51213706 75.0910873 8.84702522 64.1439691 12.3763147"></polygon>
                <polygon id="Up5" points="32.7687463 13.2969989 46.954387 8.66160965 61.4788671 13.1627325 46.7589028 17.9579627"></polygon>
                <polygon id="Up6" points="13.226837 18.9234024 29.7908695 14.0322675 43.9243811 18.7060186 27.9533175 24.3899649"></polygon>
                <polygon id="Up7" points="0.175004951 13.7765219 16.074391 9.21146272 27.5232521 13.1755197 11.526124 18.2584638"></polygon>
                <polygon id="Up8" points="17.9445237 8.36750219 32.8208754 4.28196601 44.6998019 7.97109649 30.2600317 12.5681239"></polygon>
                <polygon id="Up9" points="35.512042 3.73850658 47.3649039 0.349877193 58.8267974 3.54030373 47.0651614 7.31255154"></polygon>
            </g>
        </g>
        <polygon id="Path" fill="#025AC1" points="0 9.99526066 2.80968492 13.837597 16 10.6613844 12.8494791 7"></polygon>
        <polygon id="Path-2" fill="#025AC1" points="32.2884414 2.10057963 35.899851 5 47 2.10057963 43.7614174 0"></polygon>
    </g>
</svg>