<?xml version="1.0" encoding="UTF-8"?>
<svg width="210px" height="100px" viewBox="0 0 210 100" version="1.1" xmlns="http://www.w3.org/2000/svg" xmlns:xlink="http://www.w3.org/1999/xlink">
    <title>pll_2_2</title>
    <g id="pll_2_2" stroke="none" stroke-width="1" fill="none" fill-rule="evenodd">
        <g transform="translate(1.000000, 0.000000)">
            <polygon id="Path" fill="#000000" points="0.08545 19.2754 9.1878 80.8861 63.8335 99.9205 97.7492 67.4145 97.7492 7.49827 42.6407 0.144623"></polygon>
            <polygon id="Path" fill="#D0021B" points="88.2038 58.1468 96.9186 50.488 97.0048 66.9564 88.2038 75.3621"></polygon>
            <polygon id="Path" fill="#D0021B" points="76.6033 67.85 86.7168 59.3085 86.7139 76.6775 76.918 85.99"></polygon>
            <polygon id="Path" fill="#D0021B" points="63.655 79.1916 75.0462 69.2908 75.5864 87.2923 64.4653 97.7813"></polygon>
            <polygon id="Path" fill="#D0021B" points="88.0242 37.3905 96.8587 30.5461 96.8587 48.1383 88.067 55.7736"></polygon>
            <polygon id="Path" fill="#D0021B" points="75.9273 46.3319 86.2613 38.4483 86.5735 56.9519 76.3787 65.5684"></polygon>
            <polygon id="Path" fill="#D0021B" points="62.3851 56.8013 74.1623 47.8723 74.7934 66.6079 63.5011 76.5139"></polygon>
            <polygon id="Path" fill="#D0021B" points="87.6857 15.2509 96.9214 9.35114 96.9214 28.1915 87.6857 35.3294"></polygon>
            <polygon id="Path" fill="#FF8100" points="74.9431 23.1383 86.1413 16.1481 86.1413 36.0793 75.6622 43.6625"></polygon>
            <polygon id="Path" fill="#D0021B" points="61.0302 32.1808 73.3519 24.2988 74.0394 45.0007 61.9626 54.179"></polygon>
            <polygon id="Path" fill="#025AC1" points="7.36407 63.0673 22.4452 67.7863 24.4638 85.1274 9.8587 80.0763"></polygon>
            <polygon id="Path" fill="#025AC1" points="24.5278 68.2724 41.0741 73.5715 42.6973 91.5579 26.6732 85.9835"></polygon>
            <polygon id="Path" fill="#025AC1" points="43.445 74.0816 61.3213 79.7311 62.4822 98.3867 44.9299 92.1748"></polygon>
            <polygon id="Path" fill="#025AC1" points="4.26593 42.5068 19.8783 46.8521 22.1478 65.4158 7.00556 60.8649"></polygon>
            <polygon id="Path" fill="#025AC1" points="22.1381 47.3862 39.2124 51.6012 40.8241 71.0198 24.4248 66.051"></polygon>
            <polygon id="Path" fill="#025AC1" points="41.6631 52.4071 60.1242 57.2168 61.1023 77.171 43.0066 71.7279"></polygon>
            <polygon id="Path" fill="#025AC1" points="1.25824 20.9258 17.1015 24.1438 19.4007 44.159 4.11256 40.4848"></polygon>
            <polygon id="Path" fill="#025AC1" points="19.2792 24.5275 36.8078 28.1915 38.9261 49.2004 21.6843 44.8324"></polygon>
            <polygon id="Path" fill="#025AC1" points="39.5455 28.6229 58.7384 32.7128 59.7614 54.4511 41.1881 49.7452"></polygon>
            <polygon id="Path" fill="#FFDB11" points="42.7298 0.661133 57.3693 2.70313 46.7244 7.95516 31.6843 5.69442"></polygon>
            <polygon id="Path" fill="#FFDB11" points="29.9587 6.37854 45.3162 8.68999 33.1448 14.7348 17.6281 12.0188"></polygon>
            <polygon id="Path" fill="#FFDB11" points="15.8538 12.8521 31.2681 15.5268 17.7552 22.2073 2.10895 19.0718"></polygon>
            <polygon id="Path" fill="#FFDB11" points="33.5258 15.8463 50.8285 18.8557 37.4673 26.2274 19.8797 22.7102"></polygon>
            <polygon id="Path" fill="#FFDB11" points="47.3393 9.07297 63.9467 11.6657 52.3311 18.0047 35.3426 15.0287"></polygon>
            <polygon id="Path" fill="#FFDB11" points="59.6527 2.98441 75.6608 5.20126 65.5416 10.8859 48.752 8.28645"></polygon>
            <polygon id="Path" fill="#FFDB11" points="78.2103 5.5144 95.686 7.94187 86.017 13.9058 68.2812 11.1602"></polygon>
            <polygon id="Path" fill="#FFDB11" points="66.3191 11.9232 84.3962 14.7702 73.4317 21.6945 54.8104 18.3866"></polygon>
            <polygon id="Path" fill="#FFDB11" points="53.1082 19.4277 71.7187 22.697 59.36 30.5818 39.8912 26.7168"></polygon>
            <rect id="Rectangle" fill="#000000" fill-rule="nonzero" transform="translate(159.000000, 50.000000) rotate(-90.000000) translate(-159.000000, -50.000000) " x="109" y="0" width="100" height="100"></rect>
            <rect id="Rectangle" fill="#025AC1" fill-rule="nonzero" x="173" y="91" width="22" height="4"></rect>
            <rect id="Rectangle" fill="#025AC1" fill-rule="nonzero" x="148" y="91" width="22" height="4"></rect>
            <rect id="Rectangle" fill="#025AC1" fill-rule="nonzero" x="123" y="91" width="22" height="4"></rect>
            <rect id="Rectangle" fill="#009A0E" fill-rule="nonzero" x="173" y="5" width="22" height="4"></rect>
            <rect id="Rectangle" fill="#D0021B" fill-rule="nonzero" x="148" y="5" width="22" height="4"></rect>
            <rect id="Rectangle" fill="#009A0E" fill-rule="nonzero" x="123" y="5" width="22" height="4"></rect>
            <rect id="Rectangle" fill="#D0021B" fill-rule="nonzero" transform="translate(202.000000, 25.000000) rotate(-90.000000) translate(-202.000000, -25.000000) " x="191" y="23" width="22" height="4"></rect>
            <rect id="Rectangle" fill="#FF8100" fill-rule="nonzero" transform="translate(202.000000, 50.000000) rotate(-90.000000) translate(-202.000000, -50.000000) " x="191" y="48" width="22" height="4"></rect>
            <rect id="Rectangle" fill="#D0021B" fill-rule="nonzero" transform="translate(202.000000, 75.000000) rotate(-90.000000) translate(-202.000000, -75.000000) " x="191" y="73" width="22" height="4"></rect>
            <rect id="Rectangle" fill="#FF8100" fill-rule="nonzero" transform="translate(116.000000, 25.000000) rotate(-90.000000) translate(-116.000000, -25.000000) " x="105" y="23" width="22" height="4"></rect>
            <rect id="Rectangle" fill="#009A0E" fill-rule="nonzero" transform="translate(116.000000, 50.000000) rotate(-90.000000) translate(-116.000000, -50.000000) " x="105" y="48" width="22" height="4"></rect>
            <rect id="Rectangle" fill="#FF8100" fill-rule="nonzero" transform="translate(116.000000, 75.000000) rotate(-90.000000) translate(-116.000000, -75.000000) " x="105" y="73" width="22" height="4"></rect>
            <rect id="Rectangle" fill="#FFDB11" fill-rule="nonzero" transform="translate(184.000000, 25.000000) rotate(-90.000000) translate(-184.000000, -25.000000) " x="173" y="14" width="22" height="22"></rect>
            <rect id="Rectangle" fill="#FFDB11" fill-rule="nonzero" transform="translate(184.000000, 50.000000) rotate(-90.000000) translate(-184.000000, -50.000000) " x="173" y="39" width="22" height="22"></rect>
            <rect id="Rectangle" fill="#FFDB11" fill-rule="nonzero" transform="translate(184.000000, 75.000000) rotate(-90.000000) translate(-184.000000, -75.000000) " x="173" y="64" width="22" height="22"></rect>
            <rect id="Rectangle" fill="#FFDB11" fill-rule="nonzero" transform="translate(159.000000, 25.000000) rotate(-90.000000) translate(-159.000000, -25.000000) " x="148" y="14" width="22" height="22"></rect>
            <rect id="Rectangle" fill="#FFDB11" fill-rule="nonzero" transform="translate(159.000000, 50.000000) rotate(-90.000000) translate(-159.000000, -50.000000) " x="148" y="39" width="22" height="22"></rect>
            <rect id="Rectangle" fill="#FFDB11" fill-rule="nonzero" transform="translate(159.000000, 75.000000) rotate(-90.000000) translate(-159.000000, -75.000000) " x="148" y="64" width="22" height="22"></rect>
            <rect id="Rectangle" fill="#FFDB11" fill-rule="nonzero" transform="translate(134.000000, 25.000000) rotate(-90.000000) translate(-134.000000, -25.000000) " x="123" y="14" width="22" height="22"></rect>
            <rect id="Rectangle" fill="#FFDB11" fill-rule="nonzero" transform="translate(134.000000, 50.000000) rotate(-90.000000) translate(-134.000000, -50.000000) " x="123" y="39" width="22" height="22"></rect>
            <rect id="Rectangle" fill="#FFDB11" fill-rule="nonzero" transform="translate(134.000000, 75.000000) rotate(-90.000000) translate(-134.000000, -75.000000) " x="123" y="64" width="22" height="22"></rect>
            <path d="M130.293,54.2071 C129.902,53.8166 129.902,53.1834 130.293,52.7929 L136.657,46.4289 C137.047,46.0384 137.681,46.0384 138.071,46.4289 C138.462,46.8195 138.462,47.4526 138.071,47.8431 L132.414,53.5 L138.071,59.1569 C138.462,59.5474 138.462,60.1805 138.071,60.5711 C137.681,60.9616 137.047,60.9616 136.657,60.5711 L130.293,54.2071 Z M189.419,52.5 C189.972,52.5 190.419,52.9477 190.419,53.5 C190.419,54.0523 189.972,54.5 189.419,54.5 L189.419,52.5 Z M131,52.5 L189.419,52.5 L189.419,54.5 L131,54.5 L131,52.5 Z" id="Shape" fill="#025AC1" fill-rule="nonzero"></path>
            <path d="M189.538,50.9995 C190.09,50.9813 190.522,50.519 190.504,49.967 L190.208,40.9719 C190.189,40.4199 189.727,39.9872 189.175,40.0054 C188.623,40.0236 188.191,40.4858 188.209,41.0378 L188.472,49.0335 L180.477,49.2971 C179.925,49.3153 179.492,49.7775 179.51,50.3295 C179.528,50.8815 179.991,51.3142 180.543,51.296 L189.538,50.9995 Z M160.683,21.6485 C160.28,21.271 159.647,21.2919 159.27,21.6951 C158.893,22.0982 158.913,22.7311 159.317,23.1085 L160.683,21.6485 Z M190.188,49.27 L160.683,21.6485 L159.317,23.1085 L188.821,50.73 L190.188,49.27 Z" id="Shape" fill="#025AC1" fill-rule="nonzero"></path>
            <path d="M157.872,21.0974 C157.852,20.5455 157.389,20.114 156.837,20.1337 L147.842,20.4543 C147.29,20.474 146.859,20.9374 146.879,21.4893 C146.898,22.0412 147.362,22.4727 147.914,22.453 L155.909,22.168 L156.194,30.163 C156.213,30.7149 156.677,31.1464 157.229,31.1267 C157.78,31.107 158.212,30.6437 158.192,30.0917 L157.872,21.0974 Z M129.295,49.2813 C128.919,49.6854 128.942,50.3182 129.346,50.6946 C129.75,51.0709 130.383,51.0484 130.759,50.6442 L129.295,49.2813 Z M156.14,20.4516 L129.295,49.2813 L130.759,50.6442 L157.604,21.8145 L156.14,20.4516 Z" id="Shape" fill="#025AC1" fill-rule="nonzero"></path>
        </g>
    </g>
</svg>