<?xml version="1.0" encoding="UTF-8"?>
<svg width="210px" height="100px" viewBox="0 0 210 100" version="1.1" xmlns="http://www.w3.org/2000/svg" xmlns:xlink="http://www.w3.org/1999/xlink">
    <title>pll_10_3</title>
    <g id="pll_10_3" stroke="none" stroke-width="1" fill="none" fill-rule="evenodd">
        <g transform="translate(1.000000, 0.000000)">
            <polygon id="Path" fill="#000000" points="0.08545 19.2754 9.1878 80.8861 63.8335 99.9205 97.7492 67.4145 97.7492 7.49827 42.6407 0.144623"></polygon>
            <polygon id="Path" fill="#FF8100" points="88.2039 58.1468 96.9186 50.488 97.0048 66.9565 88.2039 75.3621"></polygon>
            <polygon id="Path" fill="#009A0E" points="76.6033 67.85 86.7167 59.3085 86.7139 76.6775 76.9179 85.99"></polygon>
            <polygon id="Path" fill="#009A0E" points="63.655 79.1917 75.0462 69.2908 75.5865 87.2923 64.4654 97.7814"></polygon>
            <polygon id="Path" fill="#009A0E" points="88.0242 37.3905 96.8586 30.5461 96.8586 48.1383 88.0669 55.7736"></polygon>
            <polygon id="Path" fill="#009A0E" points="75.9272 46.332 86.2613 38.4484 86.5734 56.952 76.3787 65.5684"></polygon>
            <polygon id="Path" fill="#009A0E" points="62.385 56.8014 74.1622 47.8724 74.7933 66.6079 63.5011 76.5139"></polygon>
            <polygon id="Path" fill="#FF8100" points="87.6858 15.2509 96.9215 9.35114 96.9215 28.1915 87.6858 35.3294"></polygon>
            <polygon id="Path" fill="#009A0E" points="74.9431 23.1383 86.1413 16.1481 86.1413 36.0793 75.6622 43.6625"></polygon>
            <polygon id="Path" fill="#009A0E" points="61.03 32.1809 73.3518 24.2988 74.0393 45.0007 61.9624 54.179"></polygon>
            <polygon id="Path" fill="#FFFFFF" points="7.36401 63.0673 22.4451 67.7863 24.4638 85.1274 9.8586 80.0763"></polygon>
            <polygon id="Path" fill="#FFFFFF" points="24.5278 68.2724 41.0741 73.5715 42.6973 91.5579 26.6732 85.9835"></polygon>
            <polygon id="Path" fill="#FFFFFF" points="43.4451 74.0816 61.3213 79.7311 62.4823 98.3867 44.93 92.1748"></polygon>
            <polygon id="Path" fill="#FFFFFF" points="4.26587 42.5068 19.8782 46.8521 22.1477 65.4159 7.0055 60.8649"></polygon>
            <polygon id="Path" fill="#FFFFFF" points="22.1379 47.3862 39.2122 51.6012 40.824 71.0198 24.4246 66.051"></polygon>
            <polygon id="Path" fill="#FFFFFF" points="41.6631 52.4071 60.1242 57.2168 61.1022 77.171 43.0065 71.7279"></polygon>
            <polygon id="Path" fill="#FFFFFF" points="1.25806 20.9258 17.1013 24.1438 19.4006 44.159 4.11238 40.4847"></polygon>
            <polygon id="Path" fill="#FFFFFF" points="19.2791 24.5275 36.8077 28.1915 38.926 49.2004 21.6842 44.8324"></polygon>
            <polygon id="Path" fill="#FFFFFF" points="39.5454 28.6229 58.7383 32.7128 59.7613 54.4511 41.188 49.7452"></polygon>
            <polygon id="Path" fill="#D0021B" points="42.7296 0.661133 57.3691 2.70313 46.7241 7.95516 31.6841 5.69442"></polygon>
            <polygon id="Path" fill="#D0021B" points="29.9586 6.37854 45.3161 8.68999 33.1447 14.7348 17.6279 12.0188"></polygon>
            <polygon id="Path" fill="#D0021B" points="15.8538 12.8521 31.2681 15.5268 17.7551 22.2073 2.10889 19.0718"></polygon>
            <polygon id="Path" fill="#D0021B" points="33.5258 15.8463 50.8285 18.8557 37.4672 26.2274 19.8796 22.7102"></polygon>
            <polygon id="Path" fill="#D0021B" points="47.3393 9.073 63.9466 11.6658 52.331 18.0047 35.3425 15.0288"></polygon>
            <polygon id="Path" fill="#D0021B" points="59.6527 2.98444 75.6607 5.20129 65.5415 10.886 48.752 8.28648"></polygon>
            <polygon id="Path" fill="#009A0E" points="78.2101 5.5144 95.6858 7.94187 86.0168 13.9058 68.281 11.1602"></polygon>
            <polygon id="Path" fill="#D0021B" points="66.3189 11.9232 84.3961 14.7702 73.4315 21.6946 54.8103 18.3866"></polygon>
            <polygon id="Path" fill="#D0021B" points="53.1081 19.4277 71.7186 22.697 59.36 30.5818 39.8911 26.7168"></polygon>
            <rect id="Rectangle" fill="#000000" fill-rule="nonzero" x="109" y="0" width="100" height="100"></rect>
            <rect id="Rectangle" fill="#025AC1" fill-rule="nonzero" transform="translate(116.000000, 75.000000) rotate(90.000000) translate(-116.000000, -75.000000) " x="105" y="73" width="22" height="4"></rect>
            <rect id="Rectangle" fill="#025AC1" fill-rule="nonzero" transform="translate(116.000000, 50.000000) rotate(90.000000) translate(-116.000000, -50.000000) " x="105" y="48" width="22" height="4"></rect>
            <rect id="Rectangle" fill="#009A0E" fill-rule="nonzero" transform="translate(116.000000, 25.000000) rotate(90.000000) translate(-116.000000, -25.000000) " x="105" y="23" width="22" height="4"></rect>
            <rect id="Rectangle" fill="#FF8100" fill-rule="nonzero" transform="translate(202.000000, 75.000000) rotate(90.000000) translate(-202.000000, -75.000000) " x="191" y="73" width="22" height="4"></rect>
            <rect id="Rectangle" fill="#009A0E" fill-rule="nonzero" transform="translate(202.000000, 50.000000) rotate(90.000000) translate(-202.000000, -50.000000) " x="191" y="48" width="22" height="4"></rect>
            <rect id="Rectangle" fill="#FF8100" fill-rule="nonzero" transform="translate(202.000000, 25.000000) rotate(90.000000) translate(-202.000000, -25.000000) " x="191" y="23" width="22" height="4"></rect>
            <rect id="Rectangle" fill="#009A0E" fill-rule="nonzero" x="173" y="91" width="22" height="4"></rect>
            <rect id="Rectangle" fill="#D0021B" fill-rule="nonzero" x="148" y="91" width="22" height="4"></rect>
            <rect id="Rectangle" fill="#D0021B" fill-rule="nonzero" x="123" y="91" width="22" height="4"></rect>
            <rect id="Rectangle" fill="#025AC1" fill-rule="nonzero" x="173" y="5" width="22" height="4"></rect>
            <rect id="Rectangle" fill="#FF8100" fill-rule="nonzero" x="148" y="5" width="22" height="4"></rect>
            <rect id="Rectangle" fill="#D0021B" fill-rule="nonzero" x="123" y="5" width="22" height="4"></rect>
            <rect id="Rectangle" fill="#FFDB11" fill-rule="nonzero" x="173" y="64" width="22" height="22"></rect>
            <rect id="Rectangle" fill="#FFDB11" fill-rule="nonzero" x="148" y="64" width="22" height="22"></rect>
            <rect id="Rectangle" fill="#FFDB11" fill-rule="nonzero" x="123" y="64" width="22" height="22"></rect>
            <rect id="Rectangle" fill="#FFDB11" fill-rule="nonzero" x="173" y="39" width="22" height="22"></rect>
            <rect id="Rectangle" fill="#FFDB11" fill-rule="nonzero" x="148" y="39" width="22" height="22"></rect>
            <rect id="Rectangle" fill="#FFDB11" fill-rule="nonzero" x="123" y="39" width="22" height="22"></rect>
            <rect id="Rectangle" fill="#FFDB11" fill-rule="nonzero" x="173" y="14" width="22" height="22"></rect>
            <rect id="Rectangle" fill="#FFDB11" fill-rule="nonzero" x="148" y="14" width="22" height="22"></rect>
            <rect id="Rectangle" fill="#FFDB11" fill-rule="nonzero" x="123" y="14" width="22" height="22"></rect>
            <path d="M132.280471,24.2201613 C131.90651,23.8224481 131.90651,23.1775519 132.280471,22.7798387 L138.367147,16.2982849 C138.740152,15.9005717 139.346524,15.9005717 139.719529,16.2982849 C140.09349,16.6960999 140.09349,17.3408944 139.719529,17.7386075 L134.309044,23.5 L139.719529,29.2613925 C140.09349,29.6591056 140.09349,30.3039001 139.719529,30.7017151 C139.346524,31.0994283 138.740152,31.0994283 138.367147,30.7017151 L132.280471,24.2201613 Z M183,23 C183.552,23 184,23.4477 184,24 C184,24.5523 183.552,25 183,25 L183,23 Z M133,23 L183,23 L183,25 L133,25 L133,23 Z" id="Shape" fill="#D0021B" fill-rule="nonzero"></path>
            <path d="M186.93,22.384 C186.539,21.9934 185.906,21.9934 185.516,22.384 L179.152,28.7479 C178.761,29.1384 178.761,29.7716 179.152,30.1621 C179.542,30.5527 180.175,30.5527 180.566,30.1621 L186.223,24.5053 L191.88,30.1621 C192.27,30.5527 192.903,30.5527 193.294,30.1621 C193.684,29.7716 193.684,29.1384 193.294,28.7479 L186.93,22.384 Z M185.223,77.3372 C185.223,77.8895 185.67,78.3372 186.223,78.3372 C186.775,78.3372 187.223,77.8895 187.223,77.3372 L185.223,77.3372 Z M185.223,23.0911 L185.223,77.3372 L187.223,77.3372 L187.223,23.0911 L185.223,23.0911 Z" id="Shape" fill="#D0021B" fill-rule="nonzero"></path>
            <path d="M131.47,25.2397 C131.075,24.8532 130.442,24.8598 130.056,25.2544 C129.669,25.649 129.676,26.2821 130.071,26.6686 L131.47,25.2397 Z M182.783,77.8816 C183.335,77.8759 183.778,77.4235 183.773042,76.8713 L183.679,67.8718 C183.673,67.3195 183.22,66.8765 182.668,66.8821456 C182.116,66.888 181.673,67.3404 181.679,67.8926 L181.762,75.8922 L173.763,75.9757 C173.21,75.9815 172.767,76.4339 172.77294,76.9861 C172.779,77.5384 173.231,77.9814 173.784,77.9756563 L182.783,77.8816 Z M130.071,26.6686 L182.073,77.5962 L183.472,76.1673 L131.47,25.2397 L130.071,26.6686 Z" id="Shape" fill="#D0021B" fill-rule="nonzero"></path>
        </g>
    </g>
</svg>