<?xml version="1.0" encoding="UTF-8"?>
<svg width="210px" height="100px" viewBox="0 0 210 100" version="1.1" xmlns="http://www.w3.org/2000/svg" xmlns:xlink="http://www.w3.org/1999/xlink">
    <title>pll_9_2</title>
    <g id="pll_9_2" stroke="none" stroke-width="1" fill="none" fill-rule="evenodd">
        <g transform="translate(1.000000, 0.000000)">
            <polygon id="Path" fill="#000000" points="0.08545 19.2754 9.1878 80.8861 63.8335 99.9205 97.7492 67.4145 97.7492 7.49827 42.6407 0.144623"></polygon>
            <polygon id="Path" fill="#FF8100" points="88.2039 58.1468 96.9186 50.488 97.0048 66.9564 88.2039 75.3621"></polygon>
            <polygon id="Path" fill="#FF8100" points="76.6033 67.85 86.7167 59.3085 86.7139 76.6775 76.9179 85.99"></polygon>
            <polygon id="Path" fill="#009A0E" points="63.655 79.1916 75.0462 69.2908 75.5865 87.2923 64.4654 97.7813"></polygon>
            <polygon id="Path" fill="#FF8100" points="88.0242 37.3905 96.8586 30.5461 96.8586 48.1383 88.0669 55.7736"></polygon>
            <polygon id="Path" fill="#FF8100" points="75.9272 46.3319 86.2613 38.4483 86.5734 56.9519 76.3787 65.5684"></polygon>
            <polygon id="Path" fill="#FF8100" points="62.385 56.8013 74.1622 47.8723 74.7933 66.6079 63.5011 76.5139"></polygon>
            <polygon id="Path" fill="#FF8100" points="87.6858 15.2509 96.9215 9.35114 96.9215 28.1915 87.6858 35.3294"></polygon>
            <polygon id="Path" fill="#FF8100" points="74.9431 23.1383 86.1413 16.1481 86.1413 36.0793 75.6622 43.6625"></polygon>
            <polygon id="Path" fill="#009A0E" points="61.03 32.1808 73.3518 24.2988 74.0393 45.0007 61.9624 54.179"></polygon>
            <polygon id="Path" fill="#FFDB11" points="7.36401 63.0673 22.4451 67.7863 24.4638 85.1274 9.8586 80.0763"></polygon>
            <polygon id="Path" fill="#FFDB11" points="24.5278 68.2724 41.0741 73.5715 42.6973 91.5579 26.6732 85.9835"></polygon>
            <polygon id="Path" fill="#FFDB11" points="43.4451 74.0816 61.3213 79.7311 62.4823 98.3867 44.93 92.1748"></polygon>
            <polygon id="Path" fill="#FFDB11" points="4.26587 42.5068 19.8782 46.8521 22.1477 65.4158 7.0055 60.8649"></polygon>
            <polygon id="Path" fill="#FFDB11" points="22.1379 47.3862 39.2122 51.6012 40.824 71.0198 24.4246 66.051"></polygon>
            <polygon id="Path" fill="#FFDB11" points="41.6631 52.4071 60.1242 57.2168 61.1022 77.171 43.0065 71.7279"></polygon>
            <polygon id="Path" fill="#FFDB11" points="1.25806 20.9258 17.1013 24.1438 19.4006 44.159 4.11238 40.4848"></polygon>
            <polygon id="Path" fill="#FFDB11" points="19.2791 24.5275 36.8077 28.1915 38.926 49.2004 21.6842 44.8324"></polygon>
            <polygon id="Path" fill="#FFDB11" points="39.5454 28.6229 58.7383 32.7128 59.7613 54.4511 41.188 49.7452"></polygon>
            <polygon id="Path" fill="#025AC1" points="42.7296 0.661133 57.3691 2.70313 46.7241 7.95516 31.6841 5.69442"></polygon>
            <polygon id="Path" fill="#025AC1" points="29.9586 6.37854 45.3161 8.68999 33.1447 14.7348 17.6279 12.0188"></polygon>
            <polygon id="Path" fill="#025AC1" points="15.8538 12.8521 31.2681 15.5268 17.7551 22.2073 2.10889 19.0718"></polygon>
            <polygon id="Path" fill="#025AC1" points="33.5258 15.8463 50.8285 18.8557 37.4672 26.2274 19.8796 22.7102"></polygon>
            <polygon id="Path" fill="#025AC1" points="47.3393 9.07297 63.9466 11.6657 52.331 18.0047 35.3425 15.0287"></polygon>
            <polygon id="Path" fill="#025AC1" points="59.6527 2.98441 75.6607 5.20126 65.5415 10.8859 48.752 8.28645"></polygon>
            <polygon id="Path" fill="#025AC1" points="78.2101 5.5144 95.6858 7.94187 86.0168 13.9058 68.281 11.1602"></polygon>
            <polygon id="Path" fill="#025AC1" points="66.3189 11.9232 84.3961 14.7702 73.4315 21.6945 54.8103 18.3866"></polygon>
            <polygon id="Path" fill="#FF8100" points="53.1081 19.4277 71.7186 22.697 59.36 30.5818 39.8911 26.7168"></polygon>
            <rect id="Rectangle" fill="#000000" fill-rule="nonzero" transform="translate(159.000000, 50.000000) rotate(90.000000) translate(-159.000000, -50.000000) " x="109" y="0" width="100" height="100"></rect>
            <rect id="Rectangle" fill="#025AC1" fill-rule="nonzero" transform="translate(134.000000, 7.000000) rotate(180.000000) translate(-134.000000, -7.000000) " x="123" y="5" width="22" height="4"></rect>
            <rect id="Rectangle" fill="#025AC1" fill-rule="nonzero" transform="translate(159.000000, 7.000000) rotate(180.000000) translate(-159.000000, -7.000000) " x="148" y="5" width="22" height="4"></rect>
            <rect id="Rectangle" fill="#FF8100" fill-rule="nonzero" transform="translate(184.000000, 7.000000) rotate(180.000000) translate(-184.000000, -7.000000) " x="173" y="5" width="22" height="4"></rect>
            <rect id="Rectangle" fill="#025AC1" fill-rule="nonzero" transform="translate(134.000000, 93.000000) rotate(180.000000) translate(-134.000000, -93.000000) " x="123" y="91" width="22" height="4"></rect>
            <rect id="Rectangle" fill="#009A0E" fill-rule="nonzero" transform="translate(159.000000, 93.000000) rotate(180.000000) translate(-159.000000, -93.000000) " x="148" y="91" width="22" height="4"></rect>
            <rect id="Rectangle" fill="#D0021B" fill-rule="nonzero" transform="translate(184.000000, 93.000000) rotate(180.000000) translate(-184.000000, -93.000000) " x="173" y="91" width="22" height="4"></rect>
            <rect id="Rectangle" fill="#FF8100" fill-rule="nonzero" transform="translate(116.000000, 75.000000) rotate(90.000000) translate(-116.000000, -75.000000) " x="105" y="73" width="22" height="4"></rect>
            <rect id="Rectangle" fill="#D0021B" fill-rule="nonzero" transform="translate(116.000000, 50.000000) rotate(90.000000) translate(-116.000000, -50.000000) " x="105" y="48" width="22" height="4"></rect>
            <rect id="Rectangle" fill="#D0021B" fill-rule="nonzero" transform="translate(116.000000, 25.000000) rotate(90.000000) translate(-116.000000, -25.000000) " x="105" y="23" width="22" height="4"></rect>
            <rect id="Rectangle" fill="#009A0E" fill-rule="nonzero" transform="translate(202.000000, 75.000000) rotate(90.000000) translate(-202.000000, -75.000000) " x="191" y="73" width="22" height="4"></rect>
            <rect id="Rectangle" fill="#FF8100" fill-rule="nonzero" transform="translate(202.000000, 50.000000) rotate(90.000000) translate(-202.000000, -50.000000) " x="191" y="48" width="22" height="4"></rect>
            <rect id="Rectangle" fill="#009A0E" fill-rule="nonzero" transform="translate(202.000000, 25.000000) rotate(90.000000) translate(-202.000000, -25.000000) " x="191" y="23" width="22" height="4"></rect>
            <rect id="Rectangle" fill="#FFDB11" fill-rule="nonzero" transform="translate(134.000000, 75.000000) rotate(90.000000) translate(-134.000000, -75.000000) " x="123" y="64" width="22" height="22"></rect>
            <rect id="Rectangle" fill="#FFDB11" fill-rule="nonzero" transform="translate(134.000000, 50.000000) rotate(90.000000) translate(-134.000000, -50.000000) " x="123" y="39" width="22" height="22"></rect>
            <rect id="Rectangle" fill="#FFDB11" fill-rule="nonzero" transform="translate(134.000000, 25.000000) rotate(90.000000) translate(-134.000000, -25.000000) " x="123" y="14" width="22" height="22"></rect>
            <rect id="Rectangle" fill="#FFDB11" fill-rule="nonzero" transform="translate(159.000000, 75.000000) rotate(90.000000) translate(-159.000000, -75.000000) " x="148" y="64" width="22" height="22"></rect>
            <rect id="Rectangle" fill="#FFDB11" fill-rule="nonzero" transform="translate(159.000000, 50.000000) rotate(90.000000) translate(-159.000000, -50.000000) " x="148" y="39" width="22" height="22"></rect>
            <rect id="Rectangle" fill="#FFDB11" fill-rule="nonzero" transform="translate(159.000000, 25.000000) rotate(90.000000) translate(-159.000000, -25.000000) " x="148" y="14" width="22" height="22"></rect>
            <rect id="Rectangle" fill="#FFDB11" fill-rule="nonzero" transform="translate(184.000000, 75.000000) rotate(90.000000) translate(-184.000000, -75.000000) " x="173" y="64" width="22" height="22"></rect>
            <rect id="Rectangle" fill="#FFDB11" fill-rule="nonzero" transform="translate(184.000000, 50.000000) rotate(90.000000) translate(-184.000000, -50.000000) " x="173" y="39" width="22" height="22"></rect>
            <rect id="Rectangle" fill="#FFDB11" fill-rule="nonzero" transform="translate(184.000000, 25.000000) rotate(90.000000) translate(-184.000000, -25.000000) " x="173" y="14" width="22" height="22"></rect>
            <path d="M184.793,74.4797 C185.183,74.8702 185.817,74.8702 186.207,74.4797 L192.571,68.1158 C192.962,67.7252 192.962,67.0921 192.571,66.7015 C192.181,66.311 191.547,66.311 191.157,66.7015 L185.5,72.3584 L179.843,66.7015 C179.453,66.311 178.819,66.311 178.429,66.7015 C178.038,67.0921 178.038,67.7252 178.429,68.1158 L184.793,74.4797 Z M186.5,22 C186.5,21.4477 186.052,21 185.5,21 C184.948,21 184.5,21.4477 184.5,22 L186.5,22 Z M186.5,73.7726 L186.5,22 L184.5,22 L184.5,73.7726 L186.5,73.7726 Z" id="Shape" fill="#D0021B" fill-rule="nonzero"></path>
            <path d="M130.956,76.5155 C130.565,76.9061 130.565,77.5392 130.956,77.9298 L137.32,84.2937 C137.71,84.6842 138.343,84.6842 138.734,84.2937 C139.124,83.9032 139.124,83.27 138.734,82.8795 L133.077,77.2227 L138.734,71.5658 C139.124,71.1753 139.124,70.5421 138.734,70.1516 C138.343,69.7611 137.71,69.7611 137.32,70.1516 L130.956,76.5155 Z M185.909,78.2227 C186.461,78.2227 186.909,77.7749 186.909,77.2227 C186.909,76.6704 186.461,76.2227 185.909,76.2227 L185.909,78.2227 Z M131.663,78.2227 L185.909,78.2227 L185.909,76.2227 L131.663,76.2227 L131.663,78.2227 Z" id="Shape" fill="#D0021B" fill-rule="nonzero"></path>
            <path d="M131.404,73.0729 C131.018,73.4675 131.024,74.1006 131.419,74.4871 C131.813,74.8735 132.446,74.8669 132.833,74.4723 L131.404,73.0729 Z M184.046,21.7599 C184.04,21.2076 183.588,20.7646 183.036,20.7703437 L174.036,20.8643 C173.484,20.8701 173.041,21.3224 173.04694,21.8747 C173.052,22.427 173.505,22.87 174.057,22.8642 L182.057,22.7807 L182.14,30.7802 C182.146,31.3325 182.598,31.7755 183.15,31.7698544 C183.703,31.764 184.146,31.3116 184.14006,30.7594 L184.046,21.7599 Z M132.833,74.4723 L183.76,22.47 L182.332,21.0706 L131.404,73.0729 L132.833,74.4723 Z" id="Shape" fill="#D0021B" fill-rule="nonzero"></path>
        </g>
    </g>
</svg>