<?xml version="1.0" encoding="UTF-8"?>
<svg width="210px" height="100px" viewBox="0 0 210 100" version="1.1" xmlns="http://www.w3.org/2000/svg" xmlns:xlink="http://www.w3.org/1999/xlink">
    <title>pll_1_2</title>
    <g id="pll_1_2" stroke="none" stroke-width="1" fill="none" fill-rule="evenodd">
        <g transform="translate(1.000000, 0.000000)">
            <polygon id="Path" fill="#000000" points="0.08542 19.2754 9.1878 80.8861 63.8335 99.9205 97.7492 67.4145 97.7492 7.49827 42.6407 0.144623"></polygon>
            <polygon id="Path" fill="#D0021B" points="88.2038 58.1468 96.9186 50.488 97.0048 66.9564 88.2038 75.3621"></polygon>
            <polygon id="Path" fill="#D0021B" points="76.6033 67.85 86.7168 59.3085 86.7139 76.6775 76.918 85.99"></polygon>
            <polygon id="Path" fill="#D0021B" points="63.655 79.1916 75.0462 69.2908 75.5864 87.2923 64.4654 97.7813"></polygon>
            <polygon id="Path" fill="#D0021B" points="88.0242 37.3905 96.8587 30.5461 96.8587 48.1383 88.067 55.7736"></polygon>
            <polygon id="Path" fill="#D0021B" points="75.9273 46.3319 86.2613 38.4483 86.5735 56.9519 76.3787 65.5684"></polygon>
            <polygon id="Path" fill="#D0021B" points="62.3851 56.8013 74.1623 47.8723 74.7934 66.6079 63.5011 76.5139"></polygon>
            <polygon id="Path" fill="#D0021B" points="87.6857 15.2509 96.9214 9.35114 96.9214 28.1915 87.6857 35.3294"></polygon>
            <polygon id="Path" fill="#009A0E" points="74.9431 23.1383 86.1413 16.1481 86.1413 36.0793 75.6622 43.6625"></polygon>
            <polygon id="Path" fill="#D0021B" points="61.0302 32.1808 73.3519 24.2988 74.0394 45.0007 61.9626 54.179"></polygon>
            <polygon id="Path" fill="#025AC1" points="7.36404 63.0673 22.4451 67.7863 24.4638 85.1274 9.8587 80.0763"></polygon>
            <polygon id="Path" fill="#025AC1" points="24.5278 68.2724 41.0741 73.5715 42.6972 91.5579 26.6732 85.9835"></polygon>
            <polygon id="Path" fill="#025AC1" points="43.445 74.0816 61.3213 79.7311 62.4822 98.3867 44.9299 92.1748"></polygon>
            <polygon id="Path" fill="#025AC1" points="4.2659 42.5068 19.8782 46.8521 22.1478 65.4158 7.00553 60.8649"></polygon>
            <polygon id="Path" fill="#025AC1" points="22.1381 47.3862 39.2124 51.6012 40.8241 71.0198 24.4247 66.051"></polygon>
            <polygon id="Path" fill="#025AC1" points="41.6631 52.4071 60.1242 57.2168 61.1022 77.171 43.0066 71.7279"></polygon>
            <polygon id="Path" fill="#025AC1" points="1.25818 20.9258 17.1014 24.1438 19.4007 44.159 4.1125 40.4848"></polygon>
            <polygon id="Path" fill="#025AC1" points="19.2792 24.5275 36.8078 28.1915 38.9261 49.2004 21.6843 44.8324"></polygon>
            <polygon id="Path" fill="#025AC1" points="39.5455 28.6229 58.7383 32.7128 59.7614 54.4511 41.188 49.7452"></polygon>
            <polygon id="Path" fill="#FFDB11" points="42.7298 0.661133 57.3693 2.70313 46.7244 7.95516 31.6843 5.69442"></polygon>
            <polygon id="Path" fill="#FFDB11" points="29.9587 6.37854 45.3162 8.68999 33.1448 14.7348 17.6281 12.0188"></polygon>
            <polygon id="Path" fill="#FFDB11" points="15.8539 12.8521 31.2682 15.5268 17.7552 22.2073 2.10898 19.0718"></polygon>
            <polygon id="Path" fill="#FFDB11" points="33.5259 15.8463 50.8285 18.8557 37.4673 26.2274 19.8797 22.7102"></polygon>
            <polygon id="Path" fill="#FFDB11" points="47.3393 9.07297 63.9467 11.6657 52.3311 18.0047 35.3426 15.0287"></polygon>
            <polygon id="Path" fill="#FFDB11" points="59.6527 2.98441 75.6608 5.20126 65.5416 10.8859 48.752 8.28645"></polygon>
            <polygon id="Path" fill="#FFDB11" points="78.2103 5.5144 95.686 7.94187 86.017 13.9058 68.2812 11.1602"></polygon>
            <polygon id="Path" fill="#FFDB11" points="66.3191 11.9232 84.3962 14.7702 73.4317 21.6945 54.8104 18.3866"></polygon>
            <polygon id="Path" fill="#FFDB11" points="53.1082 19.4277 71.7187 22.697 59.36 30.5818 39.8912 26.7168"></polygon>
            <rect id="Rectangle" fill="#000000" fill-rule="nonzero" transform="translate(159.000000, 50.000000) rotate(-90.000000) translate(-159.000000, -50.000000) " x="109" y="0" width="100" height="100"></rect>
            <rect id="Rectangle" fill="#025AC1" fill-rule="nonzero" x="173" y="91" width="22" height="4"></rect>
            <rect id="Rectangle" fill="#025AC1" fill-rule="nonzero" x="148" y="91" width="22" height="4"></rect>
            <rect id="Rectangle" fill="#025AC1" fill-rule="nonzero" x="123" y="91" width="22" height="4"></rect>
            <rect id="Rectangle" fill="#009A0E" fill-rule="nonzero" x="173" y="5" width="22" height="4"></rect>
            <rect id="Rectangle" fill="#FF8100" fill-rule="nonzero" x="148" y="5" width="22" height="4"></rect>
            <rect id="Rectangle" fill="#009A0E" fill-rule="nonzero" x="123" y="5" width="22" height="4"></rect>
            <rect id="Rectangle" fill="#D0021B" fill-rule="nonzero" transform="translate(202.000000, 25.000000) rotate(-90.000000) translate(-202.000000, -25.000000) " x="191" y="23" width="22" height="4"></rect>
            <rect id="Rectangle" fill="#009A0E" fill-rule="nonzero" transform="translate(202.000000, 50.000000) rotate(-90.000000) translate(-202.000000, -50.000000) " x="191" y="48" width="22" height="4"></rect>
            <rect id="Rectangle" fill="#D0021B" fill-rule="nonzero" transform="translate(202.000000, 75.000000) rotate(-90.000000) translate(-202.000000, -75.000000) " x="191" y="73" width="22" height="4"></rect>
            <rect id="Rectangle" fill="#FF8100" fill-rule="nonzero" transform="translate(116.000000, 25.000000) rotate(-90.000000) translate(-116.000000, -25.000000) " x="105" y="23" width="22" height="4"></rect>
            <rect id="Rectangle" fill="#D0021B" fill-rule="nonzero" transform="translate(116.000000, 50.000000) rotate(-90.000000) translate(-116.000000, -50.000000) " x="105" y="48" width="22" height="4"></rect>
            <rect id="Rectangle" fill="#FF8100" fill-rule="nonzero" transform="translate(116.000000, 75.000000) rotate(-90.000000) translate(-116.000000, -75.000000) " x="105" y="73" width="22" height="4"></rect>
            <rect id="Rectangle" fill="#FFDB11" fill-rule="nonzero" transform="translate(184.000000, 25.000000) rotate(-90.000000) translate(-184.000000, -25.000000) " x="173" y="14" width="22" height="22"></rect>
            <rect id="Rectangle" fill="#FFDB11" fill-rule="nonzero" transform="translate(184.000000, 50.000000) rotate(-90.000000) translate(-184.000000, -50.000000) " x="173" y="39" width="22" height="22"></rect>
            <rect id="Rectangle" fill="#FFDB11" fill-rule="nonzero" transform="translate(184.000000, 75.000000) rotate(-90.000000) translate(-184.000000, -75.000000) " x="173" y="64" width="22" height="22"></rect>
            <rect id="Rectangle" fill="#FFDB11" fill-rule="nonzero" transform="translate(159.000000, 25.000000) rotate(-90.000000) translate(-159.000000, -25.000000) " x="148" y="14" width="22" height="22"></rect>
            <rect id="Rectangle" fill="#FFDB11" fill-rule="nonzero" transform="translate(159.000000, 50.000000) rotate(-90.000000) translate(-159.000000, -50.000000) " x="148" y="39" width="22" height="22"></rect>
            <rect id="Rectangle" fill="#FFDB11" fill-rule="nonzero" transform="translate(159.000000, 75.000000) rotate(-90.000000) translate(-159.000000, -75.000000) " x="148" y="64" width="22" height="22"></rect>
            <rect id="Rectangle" fill="#FFDB11" fill-rule="nonzero" transform="translate(134.000000, 25.000000) rotate(-90.000000) translate(-134.000000, -25.000000) " x="123" y="14" width="22" height="22"></rect>
            <rect id="Rectangle" fill="#FFDB11" fill-rule="nonzero" transform="translate(134.000000, 50.000000) rotate(-90.000000) translate(-134.000000, -50.000000) " x="123" y="39" width="22" height="22"></rect>
            <rect id="Rectangle" fill="#FFDB11" fill-rule="nonzero" transform="translate(134.000000, 75.000000) rotate(-90.000000) translate(-134.000000, -75.000000) " x="123" y="64" width="22" height="22"></rect>
            <path d="M188.127,52.7071 C188.517,52.3166 188.517,51.6834 188.127,51.2929 L181.763,44.9289 C181.372,44.5384 180.739,44.5384 180.348,44.9289 C179.958,45.3195 179.958,45.9526 180.348,46.3431 L186.005,52 L180.348,57.6569 C179.958,58.0474 179.958,58.6805 180.348,59.0711 C180.739,59.4616 181.372,59.4616 181.763,59.0711 L188.127,52.7071 Z M129,51 C128.448,51 128,51.4477 128,52 C128,52.5523 128.448,53 129,53 L129,51 Z M187.419,51 L129,51 L129,53 L187.419,53 L187.419,51 Z" id="Shape" fill="#025AC1" fill-rule="nonzero"></path>
            <path d="M159.967,20.379 C159.415,20.3972 158.982,20.8594 159.001,21.4114 L159.297,30.4065 C159.315,30.9585 159.777,31.3913 160.329,31.3731 C160.881,31.3549 161.314,30.8926 161.296,30.3407 L161.032,22.345 L169.028,22.0814 C169.58,22.0632 170.013,21.601 169.995,21.049 C169.976,20.497 169.514,20.0643 168.962,20.0825 L159.967,20.379 Z M188.821,49.73 C189.224,50.1075 189.857,50.0866 190.235,49.6834 C190.612,49.2802 190.591,48.6474 190.188,48.27 L188.821,49.73 Z M159.317,22.1085 L188.821,49.73 L190.188,48.27 L160.683,20.6485 L159.317,22.1085 Z" id="Shape" fill="#025AC1" fill-rule="nonzero"></path>
            <path d="M129.028,48.9983 C129.048,49.5503 129.511,49.9817 130.063,49.9621 L139.057,49.6415 C139.609,49.6218 140.041,49.1584 140.021,48.6065 C140.001,48.0545 139.538,47.6231 138.986,47.6427 L130.991,47.9277 L130.706,39.9328 C130.686,39.3809 130.223,38.9494 129.671,38.9691 C129.119,38.9887 128.688,39.4521 128.707,40.004 L129.028,48.9983 Z M157.604,20.8145 C157.981,20.4103 157.958,19.7776 157.554,19.4012 C157.15,19.0248 156.517,19.0474 156.14,19.4516 L157.604,20.8145 Z M130.759,49.6442 L157.604,20.8145 L156.14,19.4516 L129.295,48.2812 L130.759,49.6442 Z" id="Shape" fill="#025AC1" fill-rule="nonzero"></path>
        </g>
    </g>
</svg>