<?xml version="1.0" encoding="UTF-8"?>
<svg width="210px" height="100px" viewBox="0 0 210 100" version="1.1" xmlns="http://www.w3.org/2000/svg" xmlns:xlink="http://www.w3.org/1999/xlink">
    <title>pll_11_3</title>
    <g id="pll_11_3" stroke="none" stroke-width="1" fill="none" fill-rule="evenodd">
        <g transform="translate(1.000000, 0.000000)">
            <polygon id="Path" fill="#000000" points="0.08545 19.2754 9.1878 80.8861 63.8335 99.9205 97.7492 67.4145 97.7492 7.49827 42.6407 0.144623"></polygon>
            <polygon id="Path" fill="#D0021B" points="88.2039 58.1468 96.9186 50.488 97.0048 66.9565 88.2039 75.3621"></polygon>
            <polygon id="Path" fill="#D0021B" points="76.6033 67.85 86.7167 59.3085 86.7139 76.6775 76.9179 85.99"></polygon>
            <polygon id="Path" fill="#009A0E" points="63.655 79.1917 75.0462 69.2908 75.5865 87.2923 64.4654 97.7814"></polygon>
            <polygon id="Path" fill="#D0021B" points="88.0242 37.3905 96.8586 30.5461 96.8586 48.1383 88.0669 55.7736"></polygon>
            <polygon id="Path" fill="#D0021B" points="75.9272 46.332 86.2613 38.4484 86.5734 56.952 76.3787 65.5684"></polygon>
            <polygon id="Path" fill="#D0021B" points="62.385 56.8014 74.1622 47.8724 74.7933 66.6079 63.5011 76.5139"></polygon>
            <polygon id="Path" fill="#D0021B" points="87.6858 15.2509 96.9215 9.35114 96.9215 28.1915 87.6858 35.3294"></polygon>
            <polygon id="Path" fill="#D0021B" points="74.9431 23.1383 86.1413 16.1481 86.1413 36.0793 75.6622 43.6625"></polygon>
            <polygon id="Path" fill="#025AC1" points="61.03 32.1809 73.3518 24.2988 74.0393 45.0007 61.9624 54.179"></polygon>
            <polygon id="Path" fill="#FFDB11" points="7.36401 63.0673 22.4451 67.7863 24.4638 85.1274 9.8586 80.0763"></polygon>
            <polygon id="Path" fill="#FFDB11" points="24.5278 68.2724 41.0741 73.5715 42.6973 91.5579 26.6732 85.9835"></polygon>
            <polygon id="Path" fill="#FFDB11" points="43.4451 74.0816 61.3213 79.7311 62.4823 98.3867 44.93 92.1748"></polygon>
            <polygon id="Path" fill="#FFDB11" points="4.26587 42.5068 19.8782 46.8521 22.1477 65.4159 7.0055 60.8649"></polygon>
            <polygon id="Path" fill="#FFDB11" points="22.1379 47.3862 39.2122 51.6012 40.824 71.0198 24.4246 66.051"></polygon>
            <polygon id="Path" fill="#FFDB11" points="41.6631 52.4071 60.1242 57.2168 61.1022 77.171 43.0065 71.7279"></polygon>
            <polygon id="Path" fill="#FFDB11" points="1.25806 20.9258 17.1013 24.1438 19.4006 44.159 4.11238 40.4847"></polygon>
            <polygon id="Path" fill="#FFDB11" points="19.2791 24.5275 36.8077 28.1915 38.926 49.2004 21.6842 44.8324"></polygon>
            <polygon id="Path" fill="#FFDB11" points="39.5454 28.6229 58.7383 32.7128 59.7613 54.4511 41.188 49.7452"></polygon>
            <polygon id="Path" fill="#009A0E" points="42.7296 0.661133 57.3691 2.70313 46.7241 7.95516 31.6841 5.69442"></polygon>
            <polygon id="Path" fill="#009A0E" points="29.9586 6.37854 45.3161 8.68999 33.1447 14.7348 17.6279 12.0188"></polygon>
            <polygon id="Path" fill="#FF8100" points="15.8538 12.8521 31.2681 15.5268 17.7551 22.2073 2.10889 19.0718"></polygon>
            <polygon id="Path" fill="#009A0E" points="33.5258 15.8463 50.8285 18.8557 37.4672 26.2274 19.8796 22.7102"></polygon>
            <polygon id="Path" fill="#009A0E" points="47.3393 9.073 63.9466 11.6658 52.331 18.0047 35.3425 15.0288"></polygon>
            <polygon id="Path" fill="#009A0E" points="59.6527 2.98444 75.6607 5.20129 65.5415 10.886 48.752 8.28648"></polygon>
            <polygon id="Path" fill="#009A0E" points="78.2101 5.5144 95.6858 7.94187 86.0168 13.9058 68.281 11.1602"></polygon>
            <polygon id="Path" fill="#009A0E" points="66.3189 11.9232 84.3961 14.7702 73.4315 21.6946 54.8103 18.3866"></polygon>
            <polygon id="Path" fill="#D0021B" points="53.1081 19.4277 71.7186 22.697 59.36 30.5818 39.8911 26.7168"></polygon>
            <rect id="Rectangle" fill="#000000" fill-rule="nonzero" x="109" y="0" width="100" height="100"></rect>
            <rect id="Rectangle" fill="#009A0E" fill-rule="nonzero" transform="translate(116.000000, 75.000000) rotate(90.000000) translate(-116.000000, -75.000000) " x="105" y="73" width="22" height="4"></rect>
            <rect id="Rectangle" fill="#FF8100" fill-rule="nonzero" transform="translate(116.000000, 50.000000) rotate(90.000000) translate(-116.000000, -50.000000) " x="105" y="48" width="22" height="4"></rect>
            <rect id="Rectangle" fill="#025AC1" fill-rule="nonzero" transform="translate(116.000000, 25.000000) rotate(90.000000) translate(-116.000000, -25.000000) " x="105" y="23" width="22" height="4"></rect>
            <rect id="Rectangle" fill="#009A0E" fill-rule="nonzero" transform="translate(202.000000, 75.000000) rotate(90.000000) translate(-202.000000, -75.000000) " x="191" y="73" width="22" height="4"></rect>
            <rect id="Rectangle" fill="#D0021B" fill-rule="nonzero" transform="translate(202.000000, 50.000000) rotate(90.000000) translate(-202.000000, -50.000000) " x="191" y="48" width="22" height="4"></rect>
            <rect id="Rectangle" fill="#025AC1" fill-rule="nonzero" transform="translate(202.000000, 25.000000) rotate(90.000000) translate(-202.000000, -25.000000) " x="191" y="23" width="22" height="4"></rect>
            <rect id="Rectangle" fill="#D0021B" fill-rule="nonzero" x="173" y="91" width="22" height="4"></rect>
            <rect id="Rectangle" fill="#025AC1" fill-rule="nonzero" x="148" y="91" width="22" height="4"></rect>
            <rect id="Rectangle" fill="#FF8100" fill-rule="nonzero" x="123" y="91" width="22" height="4"></rect>
            <rect id="Rectangle" fill="#D0021B" fill-rule="nonzero" x="173" y="5" width="22" height="4"></rect>
            <rect id="Rectangle" fill="#009A0E" fill-rule="nonzero" x="148" y="5" width="22" height="4"></rect>
            <rect id="Rectangle" fill="#FF8100" fill-rule="nonzero" x="123" y="5" width="22" height="4"></rect>
            <rect id="Rectangle" fill="#FFDB11" fill-rule="nonzero" x="173" y="64" width="22" height="22"></rect>
            <rect id="Rectangle" fill="#FFDB11" fill-rule="nonzero" x="148" y="64" width="22" height="22"></rect>
            <rect id="Rectangle" fill="#FFDB11" fill-rule="nonzero" x="123" y="64" width="22" height="22"></rect>
            <rect id="Rectangle" fill="#FFDB11" fill-rule="nonzero" x="173" y="39" width="22" height="22"></rect>
            <rect id="Rectangle" fill="#FFDB11" fill-rule="nonzero" x="148" y="39" width="22" height="22"></rect>
            <rect id="Rectangle" fill="#FFDB11" fill-rule="nonzero" x="123" y="39" width="22" height="22"></rect>
            <rect id="Rectangle" fill="#FFDB11" fill-rule="nonzero" x="173" y="14" width="22" height="22"></rect>
            <rect id="Rectangle" fill="#FFDB11" fill-rule="nonzero" x="148" y="14" width="22" height="22"></rect>
            <rect id="Rectangle" fill="#FFDB11" fill-rule="nonzero" x="123" y="14" width="22" height="22"></rect>
            <path d="M185.207,22.2929 C184.817,21.9024 184.183,21.9024 183.793,22.2929 L177.429,28.6569 C177.038,29.0474 177.038,29.6805 177.429,30.0711 C177.819,30.4616 178.453,30.4616 178.843,30.0711 L184.5,24.4142 L190.157,30.0711 C190.547,30.4616 191.181,30.4616 191.571,30.0711 C191.962,29.6805 191.962,29.0474 191.571,28.6569 L185.207,22.2929 Z M183.793,77.9533 C184.183,78.3438 184.817,78.3438 185.207,77.9533 L191.571,71.5893 C191.962,71.1988 191.962,70.5656 191.571,70.1751 C191.181,69.7846 190.547,69.7846 190.157,70.1751 L184.5,75.832 L178.843,70.1751 C178.453,69.7846 177.819,69.7846 177.429,70.1751 C177.038,70.5656 177.038,71.1988 177.429,71.5893 L183.793,77.9533 Z M183.5,23 L183.5,77.2462 L185.5,77.2462 L185.5,23 L183.5,23 Z" id="Shape" fill="#D0021B" fill-rule="nonzero"></path>
            <path d="M135.207,22.2929 C134.817,21.9024 134.183,21.9024 133.793,22.2929 L127.429,28.6569 C127.038,29.0474 127.038,29.6805 127.429,30.0711 C127.819,30.4616 128.453,30.4616 128.843,30.0711 L134.5,24.4142 L140.157,30.0711 C140.547,30.4616 141.181,30.4616 141.571,30.0711 C141.962,29.6805 141.962,29.0474 141.571,28.6569 L135.207,22.2929 Z M133.793,77.9533 C134.183,78.3438 134.817,78.3438 135.207,77.9533 L141.571,71.5893 C141.962,71.1988 141.962,70.5656 141.571,70.1751 C141.181,69.7846 140.547,69.7846 140.157,70.1751 L134.5,75.832 L128.843,70.1751 C128.453,69.7846 127.819,69.7846 127.429,70.1751 C127.038,70.5656 127.038,71.1988 127.429,71.5893 L133.793,77.9533 Z M133.5,23 L133.5,77.2462 L135.5,77.2462 L135.5,23 L133.5,23 Z" id="Shape" fill="#D0021B" fill-rule="nonzero"></path>
        </g>
    </g>
</svg>