<?xml version="1.0" encoding="UTF-8"?>
<svg width="210px" height="100px" viewBox="0 0 210 100" version="1.1" xmlns="http://www.w3.org/2000/svg" xmlns:xlink="http://www.w3.org/1999/xlink">
    <title>pll_17_1</title>
    <g id="pll_17_1" stroke="none" stroke-width="1" fill="none" fill-rule="evenodd">
        <g transform="translate(1.000000, 0.000000)">
            <polygon id="Path" fill="#000000" points="0.08545 19.2754 9.1878 80.8861 63.8335 99.9205 97.7492 67.4145 97.7492 7.49827 42.6407 0.144623"></polygon>
            <polygon id="Path" fill="#009A0E" points="88.2041 58.1468 96.9189 50.488 97.0051 66.9565 88.2041 75.3621"></polygon>
            <polygon id="Path" fill="#009A0E" points="76.6035 67.85 86.717 59.3085 86.7141 76.6775 76.9182 85.99"></polygon>
            <polygon id="Path" fill="#009A0E" points="63.6553 79.1917 75.0465 69.2908 75.5867 87.2923 64.4656 97.7814"></polygon>
            <polygon id="Path" fill="#009A0E" points="88.0244 37.3905 96.8589 30.5461 96.8589 48.1383 88.0672 55.7736"></polygon>
            <polygon id="Path" fill="#009A0E" points="75.9272 46.332 86.2613 38.4483 86.5734 56.9519 76.3787 65.5684"></polygon>
            <polygon id="Path" fill="#009A0E" points="62.3853 56.8013 74.1625 47.8723 74.7936 66.6079 63.5013 76.5139"></polygon>
            <polygon id="Path" fill="#009A0E" points="87.686 15.2509 96.9217 9.35114 96.9217 28.1915 87.686 35.3294"></polygon>
            <polygon id="Path" fill="#009A0E" points="74.9434 23.1383 86.1416 16.1481 86.1416 36.0793 75.6625 43.6625"></polygon>
            <polygon id="Path" fill="#D0021B" points="61.0303 32.1809 73.352 24.2988 74.0396 45.0007 61.9627 54.179"></polygon>
            <polygon id="Path" fill="#D0021B" points="7.36426 63.0673 22.4453 67.7862 24.464 85.1273 9.8589 80.0763"></polygon>
            <polygon id="Path" fill="#D0021B" points="24.5278 68.2724 41.0741 73.5715 42.6973 91.5579 26.6732 85.9835"></polygon>
            <polygon id="Path" fill="#D0021B" points="43.4453 74.0816 61.3216 79.7311 62.4825 98.3867 44.9302 92.1748"></polygon>
            <polygon id="Path" fill="#D0021B" points="4.26611 42.5068 19.8784 46.8521 22.148 65.4158 7.00575 60.8649"></polygon>
            <polygon id="Path" fill="#D0021B" points="22.1382 47.3862 39.2125 51.6012 40.8242 71.0198 24.4249 66.051"></polygon>
            <polygon id="Path" fill="#D0021B" points="41.6631 52.4071 60.1242 57.2168 61.1022 77.171 43.0065 71.7278"></polygon>
            <polygon id="Path" fill="#025AC1" points="1.2583 20.9258 17.1016 24.1438 19.4008 44.159 4.11262 40.4847"></polygon>
            <polygon id="Path" fill="#FF8100" points="19.2793 24.5274 36.8079 28.1915 38.9262 49.2004 21.6844 44.8323"></polygon>
            <polygon id="Path" fill="#025AC1" points="39.5459 28.6229 58.7388 32.7128 59.7618 54.4511 41.1885 49.7452"></polygon>
            <polygon id="Path" fill="#FFDB11" points="42.7301 0.661118 57.3696 2.70312 46.7246 7.95515 31.6846 5.69441"></polygon>
            <polygon id="Path" fill="#FFDB11" points="29.9591 6.37852 45.3166 8.68998 33.1452 14.7348 17.6284 12.0188"></polygon>
            <polygon id="Path" fill="#FFDB11" points="15.8538 12.8521 31.2681 15.5268 17.7551 22.2073 2.10889 19.0718"></polygon>
            <polygon id="Path" fill="#FFDB11" points="33.526 15.8463 50.8287 18.8557 37.4675 26.2274 19.8799 22.7102"></polygon>
            <polygon id="Path" fill="#FFDB11" points="47.3395 9.07297 63.9468 11.6657 52.3313 18.0047 35.3428 15.0287"></polygon>
            <polygon id="Path" fill="#FFDB11" points="59.6527 2.98441 75.6607 5.20126 65.5415 10.8859 48.752 8.28645"></polygon>
            <polygon id="Path" fill="#FFDB11" points="78.2104 5.51442 95.6861 7.94188 86.0171 13.9058 68.2812 11.1602"></polygon>
            <polygon id="Path" fill="#FFDB11" points="66.3192 11.9232 84.3963 14.7702 73.4318 21.6945 54.8105 18.3866"></polygon>
            <polygon id="Path" fill="#FFDB11" points="53.1081 19.4277 71.7186 22.697 59.36 30.5818 39.8911 26.7168"></polygon>
            <rect id="Rectangle" fill="#000000" fill-rule="nonzero" transform="translate(159.000000, 50.000000) rotate(-90.000000) translate(-159.000000, -50.000000) " x="109" y="0" width="100" height="100"></rect>
            <rect id="Rectangle" fill="#025AC1" fill-rule="nonzero" x="173" y="91" width="22" height="4"></rect>
            <rect id="Rectangle" fill="#FF8100" fill-rule="nonzero" x="148" y="91" width="22" height="4"></rect>
            <rect id="Rectangle" fill="#025AC1" fill-rule="nonzero" x="123" y="91" width="22" height="4"></rect>
            <rect id="Rectangle" fill="#FF8100" fill-rule="nonzero" x="173" y="5" width="22" height="4"></rect>
            <rect id="Rectangle" fill="#025AC1" fill-rule="nonzero" x="148" y="5" width="22" height="4"></rect>
            <rect id="Rectangle" fill="#D0021B" fill-rule="nonzero" x="123" y="5" width="22" height="4"></rect>
            <rect id="Rectangle" fill="#009A0E" fill-rule="nonzero" transform="translate(202.000000, 25.000000) rotate(-90.000000) translate(-202.000000, -25.000000) " x="191" y="23" width="22" height="4"></rect>
            <rect id="Rectangle" fill="#009A0E" fill-rule="nonzero" transform="translate(202.000000, 50.000000) rotate(-90.000000) translate(-202.000000, -50.000000) " x="191" y="48" width="22" height="4"></rect>
            <rect id="Rectangle" fill="#D0021B" fill-rule="nonzero" transform="translate(202.000000, 75.000000) rotate(-90.000000) translate(-202.000000, -75.000000) " x="191" y="73" width="22" height="4"></rect>
            <rect id="Rectangle" fill="#009A0E" fill-rule="nonzero" transform="translate(116.000000, 25.000000) rotate(-90.000000) translate(-116.000000, -25.000000) " x="105" y="23" width="22" height="4"></rect>
            <rect id="Rectangle" fill="#D0021B" fill-rule="nonzero" transform="translate(116.000000, 50.000000) rotate(-90.000000) translate(-116.000000, -50.000000) " x="105" y="48" width="22" height="4"></rect>
            <rect id="Rectangle" fill="#FF8100" fill-rule="nonzero" transform="translate(116.000000, 75.000000) rotate(-90.000000) translate(-116.000000, -75.000000) " x="105" y="73" width="22" height="4"></rect>
            <rect id="Rectangle" fill="#FFDB11" fill-rule="nonzero" transform="translate(184.000000, 25.000000) rotate(-90.000000) translate(-184.000000, -25.000000) " x="173" y="14" width="22" height="22"></rect>
            <rect id="Rectangle" fill="#FFDB11" fill-rule="nonzero" transform="translate(184.000000, 50.000000) rotate(-90.000000) translate(-184.000000, -50.000000) " x="173" y="39" width="22" height="22"></rect>
            <rect id="Rectangle" fill="#FFDB11" fill-rule="nonzero" transform="translate(184.000000, 75.000000) rotate(-90.000000) translate(-184.000000, -75.000000) " x="173" y="64" width="22" height="22"></rect>
            <rect id="Rectangle" fill="#FFDB11" fill-rule="nonzero" transform="translate(159.000000, 25.000000) rotate(-90.000000) translate(-159.000000, -25.000000) " x="148" y="14" width="22" height="22"></rect>
            <rect id="Rectangle" fill="#FFDB11" fill-rule="nonzero" transform="translate(159.000000, 50.000000) rotate(-90.000000) translate(-159.000000, -50.000000) " x="148" y="39" width="22" height="22"></rect>
            <rect id="Rectangle" fill="#FFDB11" fill-rule="nonzero" transform="translate(159.000000, 75.000000) rotate(-90.000000) translate(-159.000000, -75.000000) " x="148" y="64" width="22" height="22"></rect>
            <rect id="Rectangle" fill="#FFDB11" fill-rule="nonzero" transform="translate(134.000000, 25.000000) rotate(-90.000000) translate(-134.000000, -25.000000) " x="123" y="14" width="22" height="22"></rect>
            <rect id="Rectangle" fill="#FFDB11" fill-rule="nonzero" transform="translate(134.000000, 50.000000) rotate(-90.000000) translate(-134.000000, -50.000000) " x="123" y="39" width="22" height="22"></rect>
            <rect id="Rectangle" fill="#FFDB11" fill-rule="nonzero" transform="translate(134.000000, 75.000000) rotate(-90.000000) translate(-134.000000, -75.000000) " x="123" y="64" width="22" height="22"></rect>
            <path d="M132.3,75.5429 C131.906,75.9296 131.9,76.5628 132.286,76.9571 L138.588,83.383 C138.974,83.7773 139.607,83.7835 140.002,83.3968 C140.396,83.0101 140.402,82.377 140.016,81.9827 L134.414,76.2708 L140.126,70.6695 C140.521,70.2828 140.527,69.6497 140.14,69.2554 C139.753,68.861 139.12,68.8548 138.726,69.2415 L132.3,75.5429 Z M182.686,77.743 C183.238,77.7484 183.69,77.3051 183.695,76.7529 C183.701,76.2006 183.257,75.7485 182.705,75.7431 L182.686,77.743 Z M132.99,77.2569 L182.686,77.743 L182.705,75.7431 L133.01,75.257 L132.99,77.2569 Z" id="Shape" fill="#D0021B" fill-rule="nonzero"></path>
            <path d="M134.573,23.8203 C134.182,23.4298 133.549,23.4298 133.159,23.8203 L126.795,30.1843 C126.404,30.5748 126.404,31.208 126.795,31.5985 C127.185,31.989 127.818,31.989 128.209,31.5985 L133.866,25.9417 L139.523,31.5985 C139.913,31.989 140.546,31.989 140.937,31.5985 C141.327,31.208 141.327,30.5748 140.937,30.1843 L134.573,23.8203 Z M132.866,72.6232 C132.866,73.1755 133.313,73.6232 133.866,73.6232 C134.418,73.6232 134.866,73.1755 134.866,72.6232 L132.866,72.6232 Z M132.866,24.5275 L132.866,72.6232 L134.866,72.6232 L134.866,24.5275 L132.866,24.5275 Z" id="Shape" fill="#D0021B" fill-rule="nonzero"></path>
            <path d="M183.961,75.0811 C184.513,75.0996 184.975,74.6672 184.994,74.1152 L185.296,65.1203 C185.315,64.5683 184.882,64.1058 184.33,64.0873 C183.778,64.0687 183.316,64.5011 183.297,65.0531 L183.028,73.0486 L175.033,72.7798 C174.481,72.7612 174.018,73.1937 174,73.7456 C173.981,74.2976 174.414,74.7601 174.966,74.7787 L183.961,75.0811 Z M134.857,20.0617 C134.48,19.6583 133.847,19.637 133.444,20.0142 C133.04,20.3914 133.019,21.0242 133.396,21.4276 L134.857,20.0617 Z M184.725,73.3987 L134.857,20.0617 L133.396,21.4276 L183.264,74.7646 L184.725,73.3987 Z" id="Shape" fill="#D0021B" fill-rule="nonzero"></path>
            <path d="M157.892,78.9994 C158.444,79.018 158.907,78.5856 158.925,78.0336 L159.228,69.0387 C159.247,68.4868 158.814,68.0242 158.262,68.0057 C157.71,67.9871 157.248,68.4195 157.229,68.9714 L156.96,76.9669 L148.965,76.6977 C148.413,76.6791 147.95,77.1115 147.931,77.6635 C147.913,78.2155 148.345,78.678 148.897,78.6966 L157.892,78.9994 Z M134.731,51.7242 C134.353,51.3207 133.721,51.2994 133.317,51.6766 C132.914,52.0537 132.892,52.6865 133.27,53.09 L134.731,51.7242 Z M158.656,77.3171 L134.731,51.7242 L133.27,53.09 L157.195,78.6829 L158.656,77.3171 Z" id="Shape" fill="#025AC1" fill-rule="nonzero"></path>
            <path d="M161.101,23.5917 C160.71,23.2012 160.077,23.2012 159.686,23.5917 L153.322,29.9557 C152.932,30.3462 152.932,30.9793 153.322,31.3699 C153.713,31.7604 154.346,31.7604 154.737,31.3699 L160.394,25.713 L166.05,31.3699 C166.441,31.7604 167.074,31.7604 167.465,31.3699 C167.855,30.9793 167.855,30.3462 167.465,29.9557 L161.101,23.5917 Z M159.394,75.3621 C159.394,75.9144 159.841,76.3621 160.394,76.3621 C160.946,76.3621 161.394,75.9144 161.394,75.3621 L159.394,75.3621 Z M159.394,24.2988 L159.394,75.3621 L161.394,75.3621 L161.394,24.2988 L159.394,24.2988 Z" id="Shape" fill="#025AC1" fill-rule="nonzero"></path>
            <path d="M132.034,50.9994 C131.482,51.018 131.019,50.5856 131.001,50.0336 L130.698,41.0387 C130.679,40.4868 131.112,40.0242 131.664,40.0057 C132.215,39.9871 132.678,40.4195 132.697,40.9714 L132.966,48.9669 L140.961,48.6977 C141.513,48.6791 141.976,49.1115 141.994,49.6635 C142.013,50.2155 141.581,50.678 141.029,50.6966 L132.034,50.9994 Z M155.195,23.7242 C155.572,23.3207 156.205,23.2994 156.609,23.6766 C157.012,24.0537 157.033,24.6865 156.656,25.09 L155.195,23.7242 Z M131.269,49.3171 L155.195,23.7242 L156.656,25.09 L132.731,50.6829 L131.269,49.3171 Z" id="Shape" fill="#025AC1" fill-rule="nonzero"></path>
        </g>
    </g>
</svg>