<?xml version="1.0" encoding="UTF-8"?>
<svg width="210px" height="100px" viewBox="0 0 210 100" version="1.1" xmlns="http://www.w3.org/2000/svg" xmlns:xlink="http://www.w3.org/1999/xlink">
    <title>pll_19_2</title>
    <g id="pll_19_2" stroke="none" stroke-width="1" fill="none" fill-rule="evenodd">
        <g transform="translate(1.000000, 0.000000)">
            <polygon id="Path" fill="#000000" points="0 22.4068 9.1337 81.6859 63.9675 100 98 68.7242 98 11.0754 42.7018 4"></polygon>
            <polygon id="Path" fill="#D0021B" points="88.2202 59.4133 96.935 52.0548 97.0212 67.8775 88.2202 75.9535"></polygon>
            <polygon id="Path" fill="#D0021B" points="76.6196 68.736 86.7331 60.5294 86.7302 77.2172 76.9343 86.1646"></polygon>
            <polygon id="Path" fill="#D0021B" points="63.6714 79.6328 75.0626 70.1203 75.6028 87.4158 64.4817 97.4935"></polygon>
            <polygon id="Path" fill="#D0021B" points="88.0405 39.4709 96.875 32.895 96.875 49.7972 88.0833 57.1332"></polygon>
            <polygon id="Path" fill="#D0021B" points="75.9434 48.0618 86.2774 40.4873 86.5895 58.2653 76.3948 66.5438"></polygon>
            <polygon id="Path" fill="#D0021B" points="62.4014 58.1205 74.1786 49.5417 74.8097 67.5426 63.5174 77.06"></polygon>
            <polygon id="Path" fill="#025AC1" points="87.7021 18.1996 96.9379 12.5312 96.9379 30.6327 87.7021 37.4906"></polygon>
            <polygon id="Path" fill="#009A0E" points="74.9595 25.7777 86.1577 19.0616 86.1577 38.2112 75.6786 45.497"></polygon>
            <polygon id="Path" fill="#FF8100" points="61.0464 34.4656 73.3681 26.8926 74.0557 46.7827 61.9788 55.601"></polygon>
            <polygon id="Path" fill="#025AC1" points="7.29883 64.6948 22.3799 69.2323 24.3986 85.9064 9.7935 81.0496"></polygon>
            <polygon id="Path" fill="#025AC1" points="24.4624 69.6997 41.0087 74.795 42.6318 92.0896 26.6078 86.7297"></polygon>
            <polygon id="Path" fill="#025AC1" points="43.3799 75.2855 61.2561 80.7178 62.4171 98.6558 44.8648 92.6828"></polygon>
            <polygon id="Path" fill="#025AC1" points="4.20068 44.9251 19.813 49.1033 22.0826 66.9531 6.94032 62.5772"></polygon>
            <polygon id="Path" fill="#025AC1" points="22.0728 49.6168 39.1471 53.6697 40.7588 72.3414 24.3594 67.5637"></polygon>
            <polygon id="Path" fill="#025AC1" points="41.5977 54.4446 60.0588 59.0693 61.0368 78.2561 42.9411 73.0223"></polygon>
            <polygon id="Path" fill="#025AC1" points="1.19287 24.1742 17.0361 27.2684 19.3354 46.5138 4.04719 42.9808"></polygon>
            <polygon id="Path" fill="#025AC1" points="19.2139 27.6373 36.7425 31.1604 38.8608 51.3613 21.619 47.1612"></polygon>
            <polygon id="Path" fill="#009A0E" points="39.48 31.5753 58.6729 35.5078 59.6959 56.41 41.1225 51.8852"></polygon>
            <polygon id="Path" fill="#FFDB11" points="42.8653 4.12503 57.5048 6.10116 46.8599 11.1838 31.8198 8.99596"></polygon>
            <polygon id="Path" fill="#FFDB11" points="30.0943 9.65799 45.4518 11.8949 33.2805 17.7447 17.7637 15.1163"></polygon>
            <polygon id="Path" fill="#FFDB11" points="15.9895 15.9227 31.4038 18.5112 17.8908 24.9762 2.24463 21.9419"></polygon>
            <polygon id="Path" fill="#FFDB11" points="33.6613 18.8203 50.9639 21.7326 37.6027 28.8666 20.0151 25.4628"></polygon>
            <polygon id="Path" fill="#FFDB11" points="47.4748 12.2655 64.0821 14.7747 52.4665 20.9091 35.478 18.0292"></polygon>
            <polygon id="Path" fill="#FFDB11" points="59.7884 6.37338 75.7965 8.51873 65.6773 14.02 48.8877 11.5044"></polygon>
            <polygon id="Path" fill="#FFDB11" points="78.3461 8.82178 95.8218 11.1709 86.1528 16.9425 68.417 14.2855"></polygon>
            <polygon id="Path" fill="#FFDB11" points="66.4549 15.0238 84.532 17.779 73.5675 24.4799 54.9463 21.2787"></polygon>
            <polygon id="Path" fill="#FFDB11" points="53.2439 22.2863 71.8544 25.4501 59.4957 33.0805 40.0269 29.3402"></polygon>
            <polygon id="Path" fill="#D0021B" points="79.5 8 81 5.5 97 7.5 96 10"></polygon>
            <polygon id="Path" fill="#D0021B" points="44 3.50001 46.5 1 60 2.5 58.5 5.00001"></polygon>
            <rect id="Rectangle" fill="#000000" fill-rule="nonzero" x="109" y="0" width="100" height="100"></rect>
            <rect id="Rectangle" fill="#FF8100" fill-rule="nonzero" transform="translate(116.000000, 75.000000) rotate(90.000000) translate(-116.000000, -75.000000) " x="105" y="73" width="22" height="4"></rect>
            <rect id="Rectangle" fill="#D0021B" fill-rule="nonzero" transform="translate(116.000000, 50.000000) rotate(90.000000) translate(-116.000000, -50.000000) " x="105" y="48" width="22" height="4"></rect>
            <rect id="Rectangle" fill="#009A0E" fill-rule="nonzero" transform="translate(116.000000, 25.000000) rotate(90.000000) translate(-116.000000, -25.000000) " x="105" y="23" width="22" height="4"></rect>
            <rect id="Rectangle" fill="#FF8100" fill-rule="nonzero" transform="translate(202.000000, 75.000000) rotate(90.000000) translate(-202.000000, -75.000000) " x="191" y="73" width="22" height="4"></rect>
            <rect id="Rectangle" fill="#009A0E" fill-rule="nonzero" transform="translate(202.000000, 50.000000) rotate(90.000000) translate(-202.000000, -50.000000) " x="191" y="48" width="22" height="4"></rect>
            <rect id="Rectangle" fill="#025AC1" fill-rule="nonzero" transform="translate(202.000000, 25.000000) rotate(90.000000) translate(-202.000000, -25.000000) " x="191" y="23" width="22" height="4"></rect>
            <rect id="Rectangle" fill="#009A0E" fill-rule="nonzero" x="173" y="91" width="22" height="4"></rect>
            <rect id="Rectangle" fill="#025AC1" fill-rule="nonzero" x="148" y="91" width="22" height="4"></rect>
            <rect id="Rectangle" fill="#025AC1" fill-rule="nonzero" x="123" y="91" width="22" height="4"></rect>
            <rect id="Rectangle" fill="#D0021B" fill-rule="nonzero" x="173" y="5" width="22" height="4"></rect>
            <rect id="Rectangle" fill="#FF8100" fill-rule="nonzero" x="148" y="5" width="22" height="4"></rect>
            <rect id="Rectangle" fill="#D0021B" fill-rule="nonzero" x="123" y="5" width="22" height="4"></rect>
            <rect id="Rectangle" fill="#FFDB11" fill-rule="nonzero" x="173" y="64" width="22" height="22"></rect>
            <rect id="Rectangle" fill="#FFDB11" fill-rule="nonzero" x="148" y="64" width="22" height="22"></rect>
            <rect id="Rectangle" fill="#FFDB11" fill-rule="nonzero" x="123" y="64" width="22" height="22"></rect>
            <rect id="Rectangle" fill="#FFDB11" fill-rule="nonzero" x="173" y="39" width="22" height="22"></rect>
            <rect id="Rectangle" fill="#FFDB11" fill-rule="nonzero" x="148" y="39" width="22" height="22"></rect>
            <rect id="Rectangle" fill="#FFDB11" fill-rule="nonzero" x="123" y="39" width="22" height="22"></rect>
            <rect id="Rectangle" fill="#FFDB11" fill-rule="nonzero" x="173" y="14" width="22" height="22"></rect>
            <rect id="Rectangle" fill="#FFDB11" fill-rule="nonzero" x="148" y="14" width="22" height="22"></rect>
            <rect id="Rectangle" fill="#FFDB11" fill-rule="nonzero" x="123" y="14" width="22" height="22"></rect>
            <path d="M186.447,75.4009 C186.054,75.7895 185.421,75.7863 185.032,75.3938 L178.701,68.9976 C178.312,68.6051 178.315,67.972 178.708,67.5834 C179.1,67.1949 179.734,67.1981 180.122,67.5906 L185.75,73.2761 L191.436,67.6479 C191.828,67.2594 192.461,67.2626 192.85,67.6551 C193.238,68.0476 193.235,68.6808 192.843,69.0693 L186.447,75.4009 Z M185,23.9949 C185.003,23.4427 185.453,22.9972 186.005,23 C186.557,23.0028 187.003,23.4528 187.000015,24.0051 L185,23.9949 Z M184.743,74.6852 L185,23.9949 L187,24.0051 L186.743,74.6953 L184.743,74.6852 Z" id="Shape" fill="#D0021B" fill-rule="nonzero"></path>
            <path d="M182.803,22.7929 C183.193,23.1834 183.193,23.8166 182.803,24.2071 L176.439,30.5711 C176.048,30.9616 175.415,30.9616 175.025,30.5711 C174.634,30.1805 174.634,29.5474 175.025,29.1569 L180.681,23.5 L175.025,17.8431 C174.634,17.4526 174.634,16.8195 175.025,16.4289 C175.415,16.0384 176.048,16.0384 176.439,16.4289 L182.803,22.7929 Z M134,24.5 C133.448,24.5 133,24.0523 133,23.5 C133,22.9477 133.448,22.5 134,22.5 L134,24.5 Z M182.096,24.5 L134,24.5 L134,22.5 L182.096,22.5 L182.096,24.5 Z" id="Shape" fill="#D0021B" fill-rule="nonzero"></path>
            <path d="M129.001,26.0336 C128.982,25.4816 129.414,25.0191 129.966,25.0006 L138.961,24.6982 C139.513,24.6796 139.976,25.1121 139.994,25.664 C140.013,26.216 139.58,26.6785 139.029,26.6971 L131.033,26.9658 L131.302,34.9613 C131.32,35.5133 130.888,35.9758 130.336,35.9944 C129.784,36.0129 129.321,35.5805 129.303,35.0285 L129.001,26.0336 Z M184.02,75.1371 C184.423,75.5143 184.445,76.1471 184.067,76.5505 C183.69,76.9539 183.057,76.9752 182.654,76.598 L184.02,75.1371 Z M130.683,25.2695 L184.02,75.1371 L182.654,76.598 L129.317,26.7305 L130.683,25.2695 Z" id="Shape" fill="#D0021B" fill-rule="nonzero"></path>
            <path d="M130,48.892 C129.982,49.444 130.414,49.9065 130.966,49.9251 L139.961,50.228 C140.513,50.2466 140.976,49.8142 140.994,49.2622 C141.013,48.7102 140.58,48.2477 140.028,48.2291 L132.033,47.9599 L132.302,39.9644 C132.321,39.4125 131.888,38.9499 131.336,38.9314 C130.784,38.9128 130.322,39.3452 130.303,39.8971 L130,48.892 Z M157.276,25.7305 C157.679,25.3533 157.7,24.7205 157.323,24.3171 C156.946,23.9136 156.313,23.8923 155.91,24.2695 L157.276,25.7305 Z M131.683,49.6562 L157.276,25.7305 L155.91,24.2695 L130.317,48.1952 L131.683,49.6562 Z" id="Shape" fill="#025AC1" fill-rule="nonzero"></path>
            <path d="M185.408,50.6865 C185.799,51.0771 185.799,51.7102 185.408,52.1008 L179.044,58.4647 C178.654,58.8552 178.021,58.8552 177.63,58.4647 C177.24,58.0742 177.24,57.441 177.63,57.0505 L183.287,51.3936 L177.63,45.7368 C177.24,45.3463 177.24,44.7131 177.63,44.3226 C178.021,43.9321 178.654,43.9321 179.044,44.3226 L185.408,50.6865 Z M133.638,52.3936 C133.086,52.3936 132.638,51.9459 132.638,51.3936 C132.638,50.8414 133.086,50.3936 133.638,50.3936 L133.638,52.3936 Z M184.701,52.3936 L133.638,52.3936 L133.638,50.3936 L184.701,50.3936 L184.701,52.3936 Z" id="Shape" fill="#025AC1" fill-rule="nonzero"></path>
            <path d="M159,24.0336 C158.982,23.4817 159.414,23.0192 159.966,23.0006 L168.961,22.6977 C169.513,22.6791 169.976,23.1115 169.994,23.6635 C170.013,24.2155 169.58,24.678 169.028,24.6966 L161.033,24.9658 L161.302,32.9613 C161.321,33.5132 160.888,33.9758 160.336,33.9943 C159.784,34.0129 159.322,33.5805 159.303,33.0286 L159,24.0336 Z M186.276,47.1952 C186.679,47.5724 186.7,48.2052 186.323,48.6086 C185.946,49.0121 185.313,49.0334 184.91,48.6562 L186.276,47.1952 Z M160.683,23.2695 L186.276,47.1952 L184.91,48.6562 L159.317,24.7305 L160.683,23.2695 Z" id="Shape" fill="#025AC1" fill-rule="nonzero"></path>
        </g>
    </g>
</svg>