<?xml version="1.0" encoding="UTF-8"?>
<svg width="210px" height="100px" viewBox="0 0 210 100" version="1.1" xmlns="http://www.w3.org/2000/svg" xmlns:xlink="http://www.w3.org/1999/xlink">
    <title>pll_9_3</title>
    <g id="pll_9_3" stroke="none" stroke-width="1" fill="none" fill-rule="evenodd">
        <g transform="translate(1.000000, 0.000000)">
            <polygon id="Path" fill="#000000" points="0.08545 19.2754 9.1878 80.8861 63.8335 99.9205 97.7492 67.4145 97.7492 7.49827 42.6407 0.144623"></polygon>
            <polygon id="Path" fill="#D0021B" points="88.2039 58.1468 96.9186 50.488 97.0048 66.9565 88.2039 75.3621"></polygon>
            <polygon id="Path" fill="#009A0E" points="76.6033 67.85 86.7167 59.3085 86.7139 76.6775 76.9179 85.99"></polygon>
            <polygon id="Path" fill="#009A0E" points="63.655 79.1917 75.0462 69.2908 75.5865 87.2923 64.4654 97.7814"></polygon>
            <polygon id="Path" fill="#009A0E" points="88.0242 37.3905 96.8586 30.5461 96.8586 48.1383 88.0669 55.7736"></polygon>
            <polygon id="Path" fill="#009A0E" points="75.9272 46.332 86.2613 38.4484 86.5734 56.952 76.3787 65.5684"></polygon>
            <polygon id="Path" fill="#009A0E" points="62.385 56.8014 74.1622 47.8724 74.7933 66.6079 63.5011 76.5139"></polygon>
            <polygon id="Path" fill="#025AC1" points="87.6858 15.2509 96.9215 9.35114 96.9215 28.1915 87.6858 35.3294"></polygon>
            <polygon id="Path" fill="#009A0E" points="74.9431 23.1383 86.1413 16.1481 86.1413 36.0793 75.6622 43.6625"></polygon>
            <polygon id="Path" fill="#009A0E" points="61.03 32.1809 73.3518 24.2988 74.0393 45.0007 61.9624 54.179"></polygon>
            <polygon id="Path" fill="#FFFFFF" points="7.36401 63.0673 22.4451 67.7863 24.4638 85.1274 9.8586 80.0763"></polygon>
            <polygon id="Path" fill="#FFFFFF" points="24.5278 68.2724 41.0741 73.5715 42.6973 91.5579 26.6732 85.9835"></polygon>
            <polygon id="Path" fill="#FFFFFF" points="43.4451 74.0816 61.3213 79.7311 62.4823 98.3867 44.93 92.1748"></polygon>
            <polygon id="Path" fill="#FFFFFF" points="4.26587 42.5068 19.8782 46.8521 22.1477 65.4159 7.0055 60.8649"></polygon>
            <polygon id="Path" fill="#FFFFFF" points="22.1379 47.3862 39.2122 51.6012 40.824 71.0198 24.4246 66.051"></polygon>
            <polygon id="Path" fill="#FFFFFF" points="41.6631 52.4071 60.1242 57.2168 61.1022 77.171 43.0065 71.7279"></polygon>
            <polygon id="Path" fill="#FFFFFF" points="1.25806 20.9258 17.1013 24.1438 19.4006 44.159 4.11238 40.4847"></polygon>
            <polygon id="Path" fill="#FFFFFF" points="19.2791 24.5275 36.8077 28.1915 38.926 49.2004 21.6842 44.8324"></polygon>
            <polygon id="Path" fill="#FFFFFF" points="39.5454 28.6229 58.7383 32.7128 59.7613 54.4511 41.188 49.7452"></polygon>
            <polygon id="Path" fill="#D0021B" points="42.7296 0.661133 57.3691 2.70313 46.7241 7.95516 31.6841 5.69442"></polygon>
            <polygon id="Path" fill="#D0021B" points="29.9586 6.37854 45.3161 8.68999 33.1447 14.7348 17.6279 12.0188"></polygon>
            <polygon id="Path" fill="#D0021B" points="15.8538 12.8521 31.2681 15.5268 17.7551 22.2073 2.10889 19.0718"></polygon>
            <polygon id="Path" fill="#D0021B" points="33.5258 15.8463 50.8285 18.8557 37.4672 26.2274 19.8796 22.7102"></polygon>
            <polygon id="Path" fill="#D0021B" points="47.3393 9.073 63.9466 11.6658 52.331 18.0047 35.3425 15.0288"></polygon>
            <polygon id="Path" fill="#D0021B" points="59.6527 2.98444 75.6607 5.20129 65.5415 10.886 48.752 8.28648"></polygon>
            <polygon id="Path" fill="#FF8100" points="78.2101 5.5144 95.6858 7.94187 86.0168 13.9058 68.281 11.1602"></polygon>
            <polygon id="Path" fill="#D0021B" points="66.3189 11.9232 84.3961 14.7702 73.4315 21.6946 54.8103 18.3866"></polygon>
            <polygon id="Path" fill="#D0021B" points="53.1081 19.4277 71.7186 22.697 59.36 30.5818 39.8911 26.7168"></polygon>
            <rect id="Rectangle" fill="#000000" fill-rule="nonzero" x="109" y="0" width="100" height="100"></rect>
            <rect id="Rectangle" fill="#025AC1" fill-rule="nonzero" transform="translate(116.000000, 75.000000) rotate(90.000000) translate(-116.000000, -75.000000) " x="105" y="73" width="22" height="4"></rect>
            <rect id="Rectangle" fill="#025AC1" fill-rule="nonzero" transform="translate(116.000000, 50.000000) rotate(90.000000) translate(-116.000000, -50.000000) " x="105" y="48" width="22" height="4"></rect>
            <rect id="Rectangle" fill="#FF8100" fill-rule="nonzero" transform="translate(116.000000, 25.000000) rotate(90.000000) translate(-116.000000, -25.000000) " x="105" y="23" width="22" height="4"></rect>
            <rect id="Rectangle" fill="#025AC1" fill-rule="nonzero" transform="translate(202.000000, 75.000000) rotate(90.000000) translate(-202.000000, -75.000000) " x="191" y="73" width="22" height="4"></rect>
            <rect id="Rectangle" fill="#009A0E" fill-rule="nonzero" transform="translate(202.000000, 50.000000) rotate(90.000000) translate(-202.000000, -50.000000) " x="191" y="48" width="22" height="4"></rect>
            <rect id="Rectangle" fill="#D0021B" fill-rule="nonzero" transform="translate(202.000000, 25.000000) rotate(90.000000) translate(-202.000000, -25.000000) " x="191" y="23" width="22" height="4"></rect>
            <rect id="Rectangle" fill="#FF8100" fill-rule="nonzero" x="173" y="91" width="22" height="4"></rect>
            <rect id="Rectangle" fill="#D0021B" fill-rule="nonzero" x="148" y="91" width="22" height="4"></rect>
            <rect id="Rectangle" fill="#D0021B" fill-rule="nonzero" x="123" y="91" width="22" height="4"></rect>
            <rect id="Rectangle" fill="#009A0E" fill-rule="nonzero" x="173" y="5" width="22" height="4"></rect>
            <rect id="Rectangle" fill="#FF8100" fill-rule="nonzero" x="148" y="5" width="22" height="4"></rect>
            <rect id="Rectangle" fill="#009A0E" fill-rule="nonzero" x="123" y="5" width="22" height="4"></rect>
            <rect id="Rectangle" fill="#FFDB11" fill-rule="nonzero" x="173" y="64" width="22" height="22"></rect>
            <rect id="Rectangle" fill="#FFDB11" fill-rule="nonzero" x="148" y="64" width="22" height="22"></rect>
            <rect id="Rectangle" fill="#FFDB11" fill-rule="nonzero" x="123" y="64" width="22" height="22"></rect>
            <rect id="Rectangle" fill="#FFDB11" fill-rule="nonzero" x="173" y="39" width="22" height="22"></rect>
            <rect id="Rectangle" fill="#FFDB11" fill-rule="nonzero" x="148" y="39" width="22" height="22"></rect>
            <rect id="Rectangle" fill="#FFDB11" fill-rule="nonzero" x="123" y="39" width="22" height="22"></rect>
            <rect id="Rectangle" fill="#FFDB11" fill-rule="nonzero" x="173" y="14" width="22" height="22"></rect>
            <rect id="Rectangle" fill="#FFDB11" fill-rule="nonzero" x="148" y="14" width="22" height="22"></rect>
            <rect id="Rectangle" fill="#FFDB11" fill-rule="nonzero" x="123" y="14" width="22" height="22"></rect>
            <path d="M183.48,24.2071 C183.87,23.8166 183.87,23.1834 183.48,22.7929 L177.116,16.4289 C176.725,16.0384 176.092,16.0384 175.702,16.4289 C175.311,16.8195 175.311,17.4526 175.702,17.8431 L181.358,23.5 L175.702,29.1569 C175.311,29.5474 175.311,30.1805 175.702,30.5711 C176.092,30.9616 176.725,30.9616 177.116,30.5711 L183.48,24.2071 Z M131,22.5 C130.448,22.5 130,22.9477 130,23.5 C130,24.0523 130.448,24.5 131,24.5 L131,22.5 Z M182.773,22.5 L131,22.5 L131,24.5 L182.773,24.5 L182.773,22.5 Z" id="Shape" fill="#D0021B" fill-rule="nonzero"></path>
            <path d="M185.516,78.0444 C185.906,78.4349 186.539,78.4349 186.93,78.0444 L193.294,71.6804 C193.684,71.2899 193.684,70.6567 193.294,70.2662 C192.903,69.8757 192.27,69.8757 191.88,70.2662 L186.223,75.9231 L180.566,70.2662 C180.175,69.8757 179.542,69.8757 179.152,70.2662 C178.761,70.6567 178.761,71.2899 179.152,71.6804 L185.516,78.0444 Z M187.223,23.0911 C187.223,22.5388 186.775,22.0911 186.223,22.0911 C185.67,22.0911 185.223,22.5388 185.223,23.0911 L187.223,23.0911 Z M187.223,77.3373 L187.223,23.0911 L185.223,23.0911 L185.223,77.3373 L187.223,77.3373 Z" id="Shape" fill="#D0021B" fill-rule="nonzero"></path>
            <path d="M182.073,77.5962 C182.468,77.9826 183.101,77.976 183.487,77.5814 C183.874,77.1868 183.867,76.5537 183.472,76.1673 L182.073,77.5962 Z M130.76,24.9542 C130.208,24.9599 129.765,25.4123 129.769958,25.9646 L129.864,34.9641 C129.87,35.5163 130.323,35.9593 130.875,35.9536544 C131.427,35.9478 131.87,35.4954 131.864,34.9432 L131.781,26.9436 L139.78,26.8601 C140.333,26.8543 140.776,26.402 140.77006,25.8497 C140.764,25.2975 140.312,24.8544 139.759,24.8601437 L130.76,24.9542 Z M183.472,76.1673 L131.47,25.2397 L130.071,26.6686 L182.073,77.5962 L183.472,76.1673 Z" id="Shape" fill="#D0021B" fill-rule="nonzero"></path>
        </g>
    </g>
</svg>