<?xml version="1.0" encoding="UTF-8"?>
<svg width="210px" height="100px" viewBox="0 0 210 100" version="1.1" xmlns="http://www.w3.org/2000/svg" xmlns:xlink="http://www.w3.org/1999/xlink">
    <title>pll_2_1</title>
    <g id="pll_2_1" stroke="none" stroke-width="1" fill="none" fill-rule="evenodd">
        <g transform="translate(1.000000, 0.000000)">
            <polygon id="Path" fill="#000000" points="0.08545 19.2754 9.1878 80.8861 63.8335 99.9205 97.7492 67.4145 97.7492 7.49827 42.6407 0.144623"></polygon>
            <polygon id="Path" fill="#009A0E" points="88.2038 58.1468 96.9186 50.488 97.0048 66.9565 88.2038 75.3621"></polygon>
            <polygon id="Path" fill="#009A0E" points="76.6033 67.85 86.7168 59.3085 86.7139 76.6775 76.918 85.99"></polygon>
            <polygon id="Path" fill="#009A0E" points="63.655 79.1917 75.0462 69.2908 75.5864 87.2923 64.4653 97.7814"></polygon>
            <polygon id="Path" fill="#009A0E" points="88.0242 37.3905 96.8587 30.5461 96.8587 48.1383 88.067 55.7736"></polygon>
            <polygon id="Path" fill="#009A0E" points="75.9273 46.332 86.2613 38.4483 86.5735 56.9519 76.3787 65.5684"></polygon>
            <polygon id="Path" fill="#009A0E" points="62.3851 56.8013 74.1623 47.8723 74.7934 66.6079 63.5011 76.5139"></polygon>
            <polygon id="Path" fill="#009A0E" points="87.6857 15.2509 96.9214 9.35114 96.9214 28.1915 87.6857 35.3294"></polygon>
            <polygon id="Path" fill="#D0021B" points="74.9431 23.1383 86.1413 16.1481 86.1413 36.0793 75.6622 43.6625"></polygon>
            <polygon id="Path" fill="#009A0E" points="61.0302 32.1809 73.3519 24.2988 74.0394 45.0007 61.9626 54.179"></polygon>
            <polygon id="Path" fill="#D0021B" points="7.36407 63.0673 22.4452 67.7862 24.4638 85.1273 9.8587 80.0763"></polygon>
            <polygon id="Path" fill="#D0021B" points="24.5278 68.2724 41.0741 73.5715 42.6973 91.5579 26.6732 85.9835"></polygon>
            <polygon id="Path" fill="#D0021B" points="43.445 74.0816 61.3213 79.7311 62.4822 98.3867 44.9299 92.1748"></polygon>
            <polygon id="Path" fill="#D0021B" points="4.26593 42.5068 19.8783 46.8521 22.1478 65.4158 7.00556 60.8649"></polygon>
            <polygon id="Path" fill="#D0021B" points="22.1381 47.3862 39.2124 51.6012 40.8241 71.0198 24.4248 66.051"></polygon>
            <polygon id="Path" fill="#D0021B" points="41.6631 52.4071 60.1242 57.2168 61.1023 77.171 43.0066 71.7278"></polygon>
            <polygon id="Path" fill="#D0021B" points="1.25824 20.9258 17.1015 24.1438 19.4007 44.159 4.11256 40.4847"></polygon>
            <polygon id="Path" fill="#FF8100" points="19.2792 24.5274 36.8078 28.1915 38.9261 49.2004 21.6843 44.8323"></polygon>
            <polygon id="Path" fill="#D0021B" points="39.5455 28.6229 58.7384 32.7128 59.7614 54.4511 41.1881 49.7452"></polygon>
            <polygon id="Path" fill="#FFDB11" points="42.7298 0.661118 57.3693 2.70312 46.7244 7.95515 31.6843 5.69441"></polygon>
            <polygon id="Path" fill="#FFDB11" points="29.9587 6.37852 45.3162 8.68998 33.1448 14.7348 17.6281 12.0188"></polygon>
            <polygon id="Path" fill="#FFDB11" points="15.8538 12.8521 31.2681 15.5268 17.7552 22.2073 2.10895 19.0718"></polygon>
            <polygon id="Path" fill="#FFDB11" points="33.5258 15.8463 50.8285 18.8557 37.4673 26.2274 19.8797 22.7102"></polygon>
            <polygon id="Path" fill="#FFDB11" points="47.3393 9.07297 63.9467 11.6657 52.3311 18.0047 35.3426 15.0287"></polygon>
            <polygon id="Path" fill="#FFDB11" points="59.6527 2.98441 75.6608 5.20126 65.5416 10.8859 48.752 8.28645"></polygon>
            <polygon id="Path" fill="#FFDB11" points="78.2103 5.51442 95.686 7.94188 86.017 13.9058 68.2812 11.1602"></polygon>
            <polygon id="Path" fill="#FFDB11" points="66.3191 11.9232 84.3962 14.7702 73.4317 21.6945 54.8104 18.3866"></polygon>
            <polygon id="Path" fill="#FFDB11" points="53.1082 19.4277 71.7187 22.697 59.36 30.5818 39.8912 26.7168"></polygon>
            <rect id="Rectangle" fill="#000000" fill-rule="nonzero" x="109" y="0" width="100" height="100"></rect>
            <rect id="Rectangle" fill="#025AC1" fill-rule="nonzero" transform="translate(116.000000, 75.000000) rotate(90.000000) translate(-116.000000, -75.000000) " x="105" y="73" width="22" height="4"></rect>
            <rect id="Rectangle" fill="#025AC1" fill-rule="nonzero" transform="translate(116.000000, 50.000000) rotate(90.000000) translate(-116.000000, -50.000000) " x="105" y="48" width="22" height="4"></rect>
            <rect id="Rectangle" fill="#025AC1" fill-rule="nonzero" transform="translate(116.000000, 25.000000) rotate(90.000000) translate(-116.000000, -25.000000) " x="105" y="23" width="22" height="4"></rect>
            <rect id="Rectangle" fill="#009A0E" fill-rule="nonzero" transform="translate(202.000000, 75.000000) rotate(90.000000) translate(-202.000000, -75.000000) " x="191" y="73" width="22" height="4"></rect>
            <rect id="Rectangle" fill="#D0021B" fill-rule="nonzero" transform="translate(202.000000, 50.000000) rotate(90.000000) translate(-202.000000, -50.000000) " x="191" y="48" width="22" height="4"></rect>
            <rect id="Rectangle" fill="#009A0E" fill-rule="nonzero" transform="translate(202.000000, 25.000000) rotate(90.000000) translate(-202.000000, -25.000000) " x="191" y="23" width="22" height="4"></rect>
            <rect id="Rectangle" fill="#D0021B" fill-rule="nonzero" x="173" y="91" width="22" height="4"></rect>
            <rect id="Rectangle" fill="#FF8100" fill-rule="nonzero" x="148" y="91" width="22" height="4"></rect>
            <rect id="Rectangle" fill="#D0021B" fill-rule="nonzero" x="123" y="91" width="22" height="4"></rect>
            <rect id="Rectangle" fill="#FF8100" fill-rule="nonzero" x="173" y="5" width="22" height="4"></rect>
            <rect id="Rectangle" fill="#009A0E" fill-rule="nonzero" x="148" y="5" width="22" height="4"></rect>
            <rect id="Rectangle" fill="#FF8100" fill-rule="nonzero" x="123" y="5" width="22" height="4"></rect>
            <rect id="Rectangle" fill="#FFDB11" fill-rule="nonzero" x="173" y="64" width="22" height="22"></rect>
            <rect id="Rectangle" fill="#FFDB11" fill-rule="nonzero" x="148" y="64" width="22" height="22"></rect>
            <rect id="Rectangle" fill="#FFDB11" fill-rule="nonzero" x="123" y="64" width="22" height="22"></rect>
            <rect id="Rectangle" fill="#FFDB11" fill-rule="nonzero" x="173" y="39" width="22" height="22"></rect>
            <rect id="Rectangle" fill="#FFDB11" fill-rule="nonzero" x="148" y="39" width="22" height="22"></rect>
            <rect id="Rectangle" fill="#FFDB11" fill-rule="nonzero" x="123" y="39" width="22" height="22"></rect>
            <rect id="Rectangle" fill="#FFDB11" fill-rule="nonzero" x="173" y="14" width="22" height="22"></rect>
            <rect id="Rectangle" fill="#FFDB11" fill-rule="nonzero" x="148" y="14" width="22" height="22"></rect>
            <rect id="Rectangle" fill="#FFDB11" fill-rule="nonzero" x="123" y="14" width="22" height="22"></rect>
            <path d="M154.793,21.2929 C155.183,20.9024 155.817,20.9024 156.207,21.2929 L162.571,27.6569 C162.962,28.0474 162.962,28.6805 162.571,29.0711 C162.181,29.4616 161.547,29.4616 161.157,29.0711 L155.5,23.4142 L149.843,29.0711 C149.453,29.4616 148.819,29.4616 148.429,29.0711 C148.038,28.6805 148.038,28.0474 148.429,27.6569 L154.793,21.2929 Z M156.5,80.4195 C156.5,80.9717 156.052,81.4195 155.5,81.4195 C154.948,81.4195 154.5,80.9717 154.5,80.4195 L156.5,80.4195 Z M156.5,22 L156.5,80.4195 L154.5,80.4195 L154.5,22 L156.5,22 Z" id="Shape" fill="#025AC1" fill-rule="nonzero"></path>
            <path d="M158.001,80.5377 C158.019,81.0897 158.481,81.5224 159.033,81.5042 L168.028,81.2077 C168.58,81.1895 169.013,80.7272 168.995,80.1753 C168.976,79.6233 168.514,79.1905 167.962,79.2087 L159.967,79.4723 L159.703,71.4767 C159.685,70.9247 159.223,70.492 158.671,70.5102 C158.119,70.5284 157.686,70.9906 157.704,71.5426 L158.001,80.5377 Z M187.352,51.6834 C187.729,51.2802 187.708,50.6474 187.305,50.27 C186.902,49.8925 186.269,49.9134 185.892,50.3166 L187.352,51.6834 Z M159.73,81.1882 L187.352,51.6834 L185.892,50.3166 L158.27,79.8213 L159.73,81.1882 Z" id="Shape" fill="#025AC1" fill-rule="nonzero"></path>
            <path d="M187.903,48.8717 C188.455,48.852 188.886,48.3887 188.866,47.8367 L188.546,38.8424 C188.526,38.2905 188.063,37.859 187.511,37.8787 C186.959,37.8984 186.527,38.3617 186.547,38.9137 L186.832,46.9086 L178.837,47.1936 C178.285,47.2133 177.854,47.6766 177.873,48.2286 C177.893,48.7805 178.356,49.212 178.908,49.1923 L187.903,48.8717 Z M159.719,20.2954 C159.315,19.919 158.682,19.9416 158.305,20.3458 C157.929,20.75 157.952,21.3827 158.356,21.7591 L159.719,20.2954 Z M188.548,47.1405 L159.719,20.2954 L158.356,21.7591 L187.185,48.6042 L188.548,47.1405 Z" id="Shape" fill="#025AC1" fill-rule="nonzero"></path>
        </g>
    </g>
</svg>