<?xml version="1.0" encoding="UTF-8"?>
<svg width="210px" height="100px" viewBox="0 0 210 100" version="1.1" xmlns="http://www.w3.org/2000/svg" xmlns:xlink="http://www.w3.org/1999/xlink">
    <title>pll_16_1</title>
    <g id="pll_16_1" stroke="none" stroke-width="1" fill="none" fill-rule="evenodd">
        <g transform="translate(1.000000, 0.000000)">
            <polygon id="Path" fill="#000000" points="0.08545 19.2754 9.1878 80.8861 63.8335 99.9205 97.7492 67.4145 97.7492 7.49827 42.6407 0.144623"></polygon>
            <polygon id="Path" fill="#D0021B" points="88.2041 58.1468 96.9189 50.488 97.0051 66.9565 88.2041 75.3621"></polygon>
            <polygon id="Path" fill="#D0021B" points="76.6035 67.85 86.717 59.3085 86.7141 76.6775 76.9182 85.99"></polygon>
            <polygon id="Path" fill="#D0021B" points="63.6553 79.1917 75.0465 69.2908 75.5867 87.2923 64.4656 97.7814"></polygon>
            <polygon id="Path" fill="#D0021B" points="88.0244 37.3905 96.8589 30.5461 96.8589 48.1383 88.0672 55.7736"></polygon>
            <polygon id="Path" fill="#D0021B" points="75.9272 46.332 86.2613 38.4483 86.5734 56.9519 76.3787 65.5684"></polygon>
            <polygon id="Path" fill="#D0021B" points="62.3853 56.8013 74.1625 47.8723 74.7936 66.6079 63.5013 76.5139"></polygon>
            <polygon id="Path" fill="#009A0E" points="87.686 15.2509 96.9217 9.35114 96.9217 28.1915 87.686 35.3294"></polygon>
            <polygon id="Path" fill="#D0021B" points="74.9434 23.1383 86.1416 16.1481 86.1416 36.0793 75.6625 43.6625"></polygon>
            <polygon id="Path" fill="#D0021B" points="61.0303 32.1809 73.352 24.2988 74.0396 45.0007 61.9627 54.179"></polygon>
            <polygon id="Path" fill="#025AC1" points="7.36426 63.0673 22.4453 67.7862 24.464 85.1273 9.8589 80.0763"></polygon>
            <polygon id="Path" fill="#025AC1" points="24.5278 68.2724 41.0741 73.5715 42.6973 91.5579 26.6732 85.9835"></polygon>
            <polygon id="Path" fill="#025AC1" points="43.4453 74.0816 61.3216 79.7311 62.4825 98.3867 44.9302 92.1748"></polygon>
            <polygon id="Path" fill="#025AC1" points="4.26611 42.5068 19.8784 46.8521 22.148 65.4158 7.00575 60.8649"></polygon>
            <polygon id="Path" fill="#025AC1" points="22.1382 47.3862 39.2125 51.6012 40.8242 71.0198 24.4249 66.051"></polygon>
            <polygon id="Path" fill="#025AC1" points="41.6631 52.4071 60.1242 57.2168 61.1022 77.171 43.0065 71.7278"></polygon>
            <polygon id="Path" fill="#025AC1" points="1.2583 20.9258 17.1016 24.1438 19.4008 44.159 4.11262 40.4847"></polygon>
            <polygon id="Path" fill="#FF8100" points="19.2793 24.5274 36.8079 28.1915 38.9262 49.2004 21.6844 44.8323"></polygon>
            <polygon id="Path" fill="#025AC1" points="39.5459 28.6229 58.7388 32.7128 59.7618 54.4511 41.1885 49.7452"></polygon>
            <polygon id="Path" fill="#FFDB11" points="42.7301 0.661118 57.3696 2.70312 46.7246 7.95515 31.6846 5.69441"></polygon>
            <polygon id="Path" fill="#FFDB11" points="29.9591 6.37852 45.3166 8.68998 33.1452 14.7348 17.6284 12.0188"></polygon>
            <polygon id="Path" fill="#FFDB11" points="15.8538 12.8521 31.2681 15.5268 17.7551 22.2073 2.10889 19.0718"></polygon>
            <polygon id="Path" fill="#FFDB11" points="33.526 15.8463 50.8287 18.8557 37.4675 26.2274 19.8799 22.7102"></polygon>
            <polygon id="Path" fill="#FFDB11" points="47.3395 9.07297 63.9468 11.6657 52.3313 18.0047 35.3428 15.0287"></polygon>
            <polygon id="Path" fill="#FFDB11" points="59.6527 2.98441 75.6607 5.20126 65.5415 10.8859 48.752 8.28645"></polygon>
            <polygon id="Path" fill="#FFDB11" points="78.2104 5.51442 95.6861 7.94188 86.0171 13.9058 68.2812 11.1602"></polygon>
            <polygon id="Path" fill="#FFDB11" points="66.3192 11.9232 84.3963 14.7702 73.4318 21.6945 54.8105 18.3866"></polygon>
            <polygon id="Path" fill="#FFDB11" points="53.1081 19.4277 71.7186 22.697 59.36 30.5818 39.8911 26.7168"></polygon>
            <rect id="Rectangle" fill="#000000" fill-rule="nonzero" transform="translate(159.000000, 50.000000) rotate(-90.000000) translate(-159.000000, -50.000000) " x="109" y="0" width="100" height="100"></rect>
            <rect id="Rectangle" fill="#025AC1" fill-rule="nonzero" x="173" y="91" width="22" height="4"></rect>
            <rect id="Rectangle" fill="#FF8100" fill-rule="nonzero" x="148" y="91" width="22" height="4"></rect>
            <rect id="Rectangle" fill="#025AC1" fill-rule="nonzero" x="123" y="91" width="22" height="4"></rect>
            <rect id="Rectangle" fill="#FF8100" fill-rule="nonzero" x="173" y="5" width="22" height="4"></rect>
            <rect id="Rectangle" fill="#009A0E" fill-rule="nonzero" x="148" y="5" width="22" height="4"></rect>
            <rect id="Rectangle" fill="#D0021B" fill-rule="nonzero" x="123" y="5" width="22" height="4"></rect>
            <rect id="Rectangle" fill="#009A0E" fill-rule="nonzero" transform="translate(202.000000, 25.000000) rotate(-90.000000) translate(-202.000000, -25.000000) " x="191" y="23" width="22" height="4"></rect>
            <rect id="Rectangle" fill="#D0021B" fill-rule="nonzero" transform="translate(202.000000, 50.000000) rotate(-90.000000) translate(-202.000000, -50.000000) " x="191" y="48" width="22" height="4"></rect>
            <rect id="Rectangle" fill="#D0021B" fill-rule="nonzero" transform="translate(202.000000, 75.000000) rotate(-90.000000) translate(-202.000000, -75.000000) " x="191" y="73" width="22" height="4"></rect>
            <rect id="Rectangle" fill="#009A0E" fill-rule="nonzero" transform="translate(116.000000, 25.000000) rotate(-90.000000) translate(-116.000000, -25.000000) " x="105" y="23" width="22" height="4"></rect>
            <rect id="Rectangle" fill="#025AC1" fill-rule="nonzero" transform="translate(116.000000, 50.000000) rotate(-90.000000) translate(-116.000000, -50.000000) " x="105" y="48" width="22" height="4"></rect>
            <rect id="Rectangle" fill="#FF8100" fill-rule="nonzero" transform="translate(116.000000, 75.000000) rotate(-90.000000) translate(-116.000000, -75.000000) " x="105" y="73" width="22" height="4"></rect>
            <rect id="Rectangle" fill="#FFDB11" fill-rule="nonzero" transform="translate(184.000000, 25.000000) rotate(-90.000000) translate(-184.000000, -25.000000) " x="173" y="14" width="22" height="22"></rect>
            <rect id="Rectangle" fill="#FFDB11" fill-rule="nonzero" transform="translate(184.000000, 50.000000) rotate(-90.000000) translate(-184.000000, -50.000000) " x="173" y="39" width="22" height="22"></rect>
            <rect id="Rectangle" fill="#FFDB11" fill-rule="nonzero" transform="translate(184.000000, 75.000000) rotate(-90.000000) translate(-184.000000, -75.000000) " x="173" y="64" width="22" height="22"></rect>
            <rect id="Rectangle" fill="#FFDB11" fill-rule="nonzero" transform="translate(159.000000, 25.000000) rotate(-90.000000) translate(-159.000000, -25.000000) " x="148" y="14" width="22" height="22"></rect>
            <rect id="Rectangle" fill="#FFDB11" fill-rule="nonzero" transform="translate(159.000000, 50.000000) rotate(-90.000000) translate(-159.000000, -50.000000) " x="148" y="39" width="22" height="22"></rect>
            <rect id="Rectangle" fill="#FFDB11" fill-rule="nonzero" transform="translate(159.000000, 75.000000) rotate(-90.000000) translate(-159.000000, -75.000000) " x="148" y="64" width="22" height="22"></rect>
            <rect id="Rectangle" fill="#FFDB11" fill-rule="nonzero" transform="translate(134.000000, 25.000000) rotate(-90.000000) translate(-134.000000, -25.000000) " x="123" y="14" width="22" height="22"></rect>
            <rect id="Rectangle" fill="#FFDB11" fill-rule="nonzero" transform="translate(134.000000, 50.000000) rotate(-90.000000) translate(-134.000000, -50.000000) " x="123" y="39" width="22" height="22"></rect>
            <rect id="Rectangle" fill="#FFDB11" fill-rule="nonzero" transform="translate(134.000000, 75.000000) rotate(-90.000000) translate(-134.000000, -75.000000) " x="123" y="64" width="22" height="22"></rect>
            <path d="M131.384,23.8203 C130.994,24.2109 130.994,24.844 131.384,25.2346 L137.748,31.5985 C138.139,31.989 138.772,31.989 139.162,31.5985 C139.553,31.208 139.553,30.5748 139.162,30.1843 L133.505,24.5275 L139.162,18.8706 C139.553,18.4801 139.553,17.8469 139.162,17.4564 C138.772,17.0659 138.139,17.0659 137.748,17.4564 L131.384,23.8203 Z M187.058,25.2346 C187.448,24.844 187.448,24.2109 187.058,23.8203 L180.694,17.4564 C180.303,17.0659 179.67,17.0659 179.28,17.4564 C178.889,17.8469 178.889,18.4801 179.28,18.8706 L184.936,24.5275 L179.28,30.1843 C178.889,30.5748 178.889,31.208 179.28,31.5985 C179.67,31.989 180.303,31.989 180.694,31.5985 L187.058,25.2346 Z M132.091,25.5275 L186.351,25.5275 L186.351,23.5275 L132.091,23.5275 L132.091,25.5275 Z" id="Shape" fill="#D0021B" fill-rule="nonzero"></path>
            <path d="M162.478,79.5364774 C163.03,79.5432 163.483,79.101 163.49,78.5487 L163.600082,69.5494 C163.607,68.9971 163.164,68.544 162.612,68.5371249 C162.06,68.5305 161.607,68.9727 161.6,69.5249 L161.502,77.5243 L153.503,77.4264 C152.95,77.4197 152.497,77.8619 152.48994,78.4141 C152.484,78.9663 152.926,79.4195 153.478,79.4263 L162.478,79.5364774 Z M131.059,45.3147226 C130.507,45.308 130.054,45.7502 130.047,46.3025 L129.936918,55.3018 C129.93,55.8541 130.373,56.3072 130.925,56.3140751 C131.477,56.3207 131.93,55.8785 131.937,55.3263 L132.035,47.3269 L140.034,47.4248 C140.587,47.4316 141.04,46.9894 141.046082,46.4371 C141.053,45.8849 140.611,45.4317 140.059,45.4249 L131.059,45.3147226 Z M163.205,77.8381 L131.763,45.6163 L130.331,47.0131 L161.774,79.2349 L163.205,77.8381 Z" id="Shape" fill="#025AC1" fill-rule="nonzero"></path>
        </g>
    </g>
</svg>