<?xml version="1.0" encoding="UTF-8"?>
<svg width="210px" height="100px" viewBox="0 0 210 100" version="1.1" xmlns="http://www.w3.org/2000/svg" xmlns:xlink="http://www.w3.org/1999/xlink">
    <title>pll_10_2</title>
    <g id="pll_10_2" stroke="none" stroke-width="1" fill="none" fill-rule="evenodd">
        <g transform="translate(1.000000, 0.000000)">
            <polygon id="Path" fill="#000000" points="0.08545 19.2754 9.1878 80.8861 63.8335 99.9205 97.7492 67.4145 97.7492 7.49827 42.6407 0.144623"></polygon>
            <polygon id="Path" fill="#FF8100" points="88.2039 58.1468 96.9186 50.488 97.0048 66.9564 88.2039 75.3621"></polygon>
            <polygon id="Path" fill="#FF8100" points="76.6033 67.85 86.7167 59.3085 86.7139 76.6775 76.9179 85.99"></polygon>
            <polygon id="Path" fill="#025AC1" points="63.655 79.1916 75.0462 69.2908 75.5865 87.2923 64.4654 97.7813"></polygon>
            <polygon id="Path" fill="#FF8100" points="88.0242 37.3905 96.8586 30.5461 96.8586 48.1383 88.0669 55.7736"></polygon>
            <polygon id="Path" fill="#FF8100" points="75.9272 46.3319 86.2613 38.4483 86.5734 56.9519 76.3787 65.5684"></polygon>
            <polygon id="Path" fill="#FF8100" points="62.385 56.8013 74.1622 47.8723 74.7933 66.6079 63.5011 76.5139"></polygon>
            <polygon id="Path" fill="#FF8100" points="87.6858 15.2509 96.9215 9.35114 96.9215 28.1915 87.6858 35.3294"></polygon>
            <polygon id="Path" fill="#FF8100" points="74.9431 23.1383 86.1413 16.1481 86.1413 36.0793 75.6622 43.6625"></polygon>
            <polygon id="Path" fill="#D0021B" points="61.03 32.1808 73.3518 24.2988 74.0393 45.0007 61.9624 54.179"></polygon>
            <polygon id="Path" fill="#FFDB11" points="7.36401 63.0673 22.4451 67.7863 24.4638 85.1274 9.8586 80.0763"></polygon>
            <polygon id="Path" fill="#FFDB11" points="24.5278 68.2724 41.0741 73.5715 42.6973 91.5579 26.6732 85.9835"></polygon>
            <polygon id="Path" fill="#FFDB11" points="43.4451 74.0816 61.3213 79.7311 62.4823 98.3867 44.93 92.1748"></polygon>
            <polygon id="Path" fill="#FFDB11" points="4.26587 42.5068 19.8782 46.8521 22.1477 65.4158 7.0055 60.8649"></polygon>
            <polygon id="Path" fill="#FFDB11" points="22.1379 47.3862 39.2122 51.6012 40.824 71.0198 24.4246 66.051"></polygon>
            <polygon id="Path" fill="#FFDB11" points="41.6631 52.4071 60.1242 57.2168 61.1022 77.171 43.0065 71.7279"></polygon>
            <polygon id="Path" fill="#FFDB11" points="1.25806 20.9258 17.1013 24.1438 19.4006 44.159 4.11238 40.4848"></polygon>
            <polygon id="Path" fill="#FFDB11" points="19.2791 24.5275 36.8077 28.1915 38.926 49.2004 21.6842 44.8324"></polygon>
            <polygon id="Path" fill="#FFDB11" points="39.5454 28.6229 58.7383 32.7128 59.7613 54.4511 41.188 49.7452"></polygon>
            <polygon id="Path" fill="#025AC1" points="42.7296 0.661133 57.3691 2.70313 46.7241 7.95516 31.6841 5.69442"></polygon>
            <polygon id="Path" fill="#025AC1" points="29.9586 6.37854 45.3161 8.68999 33.1447 14.7348 17.6279 12.0188"></polygon>
            <polygon id="Path" fill="#025AC1" points="15.8538 12.8521 31.2681 15.5268 17.7551 22.2073 2.10889 19.0718"></polygon>
            <polygon id="Path" fill="#025AC1" points="33.5258 15.8463 50.8285 18.8557 37.4672 26.2274 19.8796 22.7102"></polygon>
            <polygon id="Path" fill="#025AC1" points="47.3393 9.07297 63.9466 11.6657 52.331 18.0047 35.3425 15.0287"></polygon>
            <polygon id="Path" fill="#025AC1" points="59.6527 2.98441 75.6607 5.20126 65.5415 10.8859 48.752 8.28645"></polygon>
            <polygon id="Path" fill="#025AC1" points="78.2101 5.5144 95.6858 7.94187 86.0168 13.9058 68.281 11.1602"></polygon>
            <polygon id="Path" fill="#025AC1" points="66.3189 11.9232 84.3961 14.7702 73.4315 21.6945 54.8103 18.3866"></polygon>
            <polygon id="Path" fill="#009A0E" points="53.1081 19.4277 71.7186 22.697 59.36 30.5818 39.8911 26.7168"></polygon>
            <rect id="Rectangle" fill="#000000" fill-rule="nonzero" transform="translate(159.000000, 50.000000) rotate(90.000000) translate(-159.000000, -50.000000) " x="109" y="0" width="100" height="100"></rect>
            <rect id="Rectangle" fill="#025AC1" fill-rule="nonzero" transform="translate(134.000000, 7.000000) rotate(180.000000) translate(-134.000000, -7.000000) " x="123" y="5" width="22" height="4"></rect>
            <rect id="Rectangle" fill="#025AC1" fill-rule="nonzero" transform="translate(159.000000, 7.000000) rotate(180.000000) translate(-159.000000, -7.000000) " x="148" y="5" width="22" height="4"></rect>
            <rect id="Rectangle" fill="#009A0E" fill-rule="nonzero" transform="translate(184.000000, 7.000000) rotate(180.000000) translate(-184.000000, -7.000000) " x="173" y="5" width="22" height="4"></rect>
            <rect id="Rectangle" fill="#FF8100" fill-rule="nonzero" transform="translate(134.000000, 93.000000) rotate(180.000000) translate(-134.000000, -93.000000) " x="123" y="91" width="22" height="4"></rect>
            <rect id="Rectangle" fill="#009A0E" fill-rule="nonzero" transform="translate(159.000000, 93.000000) rotate(180.000000) translate(-159.000000, -93.000000) " x="148" y="91" width="22" height="4"></rect>
            <rect id="Rectangle" fill="#FF8100" fill-rule="nonzero" transform="translate(184.000000, 93.000000) rotate(180.000000) translate(-184.000000, -93.000000) " x="173" y="91" width="22" height="4"></rect>
            <rect id="Rectangle" fill="#009A0E" fill-rule="nonzero" transform="translate(116.000000, 75.000000) rotate(90.000000) translate(-116.000000, -75.000000) " x="105" y="73" width="22" height="4"></rect>
            <rect id="Rectangle" fill="#D0021B" fill-rule="nonzero" transform="translate(116.000000, 50.000000) rotate(90.000000) translate(-116.000000, -50.000000) " x="105" y="48" width="22" height="4"></rect>
            <rect id="Rectangle" fill="#D0021B" fill-rule="nonzero" transform="translate(116.000000, 25.000000) rotate(90.000000) translate(-116.000000, -25.000000) " x="105" y="23" width="22" height="4"></rect>
            <rect id="Rectangle" fill="#025AC1" fill-rule="nonzero" transform="translate(202.000000, 75.000000) rotate(90.000000) translate(-202.000000, -75.000000) " x="191" y="73" width="22" height="4"></rect>
            <rect id="Rectangle" fill="#FF8100" fill-rule="nonzero" transform="translate(202.000000, 50.000000) rotate(90.000000) translate(-202.000000, -50.000000) " x="191" y="48" width="22" height="4"></rect>
            <rect id="Rectangle" fill="#D0021B" fill-rule="nonzero" transform="translate(202.000000, 25.000000) rotate(90.000000) translate(-202.000000, -25.000000) " x="191" y="23" width="22" height="4"></rect>
            <rect id="Rectangle" fill="#FFDB11" fill-rule="nonzero" transform="translate(134.000000, 75.000000) rotate(90.000000) translate(-134.000000, -75.000000) " x="123" y="64" width="22" height="22"></rect>
            <rect id="Rectangle" fill="#FFDB11" fill-rule="nonzero" transform="translate(134.000000, 50.000000) rotate(90.000000) translate(-134.000000, -50.000000) " x="123" y="39" width="22" height="22"></rect>
            <rect id="Rectangle" fill="#FFDB11" fill-rule="nonzero" transform="translate(134.000000, 25.000000) rotate(90.000000) translate(-134.000000, -25.000000) " x="123" y="14" width="22" height="22"></rect>
            <rect id="Rectangle" fill="#FFDB11" fill-rule="nonzero" transform="translate(159.000000, 75.000000) rotate(90.000000) translate(-159.000000, -75.000000) " x="148" y="64" width="22" height="22"></rect>
            <rect id="Rectangle" fill="#FFDB11" fill-rule="nonzero" transform="translate(159.000000, 50.000000) rotate(90.000000) translate(-159.000000, -50.000000) " x="148" y="39" width="22" height="22"></rect>
            <rect id="Rectangle" fill="#FFDB11" fill-rule="nonzero" transform="translate(159.000000, 25.000000) rotate(90.000000) translate(-159.000000, -25.000000) " x="148" y="14" width="22" height="22"></rect>
            <rect id="Rectangle" fill="#FFDB11" fill-rule="nonzero" transform="translate(184.000000, 75.000000) rotate(90.000000) translate(-184.000000, -75.000000) " x="173" y="64" width="22" height="22"></rect>
            <rect id="Rectangle" fill="#FFDB11" fill-rule="nonzero" transform="translate(184.000000, 50.000000) rotate(90.000000) translate(-184.000000, -50.000000) " x="173" y="39" width="22" height="22"></rect>
            <rect id="Rectangle" fill="#FFDB11" fill-rule="nonzero" transform="translate(184.000000, 25.000000) rotate(90.000000) translate(-184.000000, -25.000000) " x="173" y="14" width="22" height="22"></rect>
            <path d="M184.779967,23.2801308 C185.177157,22.9066231 185.822843,22.9066231 186.220033,23.2801308 L192.701344,29.3672069 C193.099552,29.7407146 193.099552,30.3462658 192.701344,30.7198692 C192.304155,31.0933769 191.658468,31.0933769 191.261279,30.7198692 L185.5,25.3091243 L179.738721,30.7198692 C179.341532,31.0933769 178.695845,31.0933769 178.298656,30.7198692 C177.900448,30.3462658 177.900448,29.7407146 178.298656,29.3672069 L184.779967,23.2801308 Z M186,74 C186,74.5523 185.552,75 185,75 C184.448,75 184,74.5523 184,74 L186,74 Z M186,24 L186,74 L184,74 L184,24 L186,24 Z" id="Shape" fill="#D0021B" fill-rule="nonzero"></path>
            <path d="M186.616,77.9298 C187.007,77.5392 187.007,76.9061 186.616,76.5155 L180.252,70.1516 C179.862,69.7611 179.228,69.7611 178.838,70.1516 C178.447,70.5421 178.447,71.1753 178.838,71.5658 L184.495,77.2227 L178.838,82.8795 C178.447,83.27 178.447,83.9032 178.838,84.2937 C179.228,84.6842 179.862,84.6842 180.252,84.2937 L186.616,77.9298 Z M131.663,76.2227 C131.11,76.2227 130.663,76.6704 130.663,77.2227 C130.663,77.7749 131.11,78.2227 131.663,78.2227 L131.663,76.2227 Z M185.909,76.2227 L131.663,76.2227 L131.663,78.2227 L185.909,78.2227 L185.909,76.2227 Z" id="Shape" fill="#D0021B" fill-rule="nonzero"></path>
            <path d="M183.76,22.47 C184.147,22.0754 184.14,21.4423 183.746,21.0558 C183.351,20.6694 182.718,20.676 182.331,21.0706 L183.76,22.47 Z M131.118,73.7831 C131.124,74.3353 131.576,74.7783 132.129,74.7726544 L141.128,74.6786 C141.681,74.6728 142.124,74.2205 142.11806,73.6682 C142.112,73.1159 141.66,72.6729 141.107,72.6787 L133.108,72.7622 L133.024,64.7627 C133.019,64.2104 132.566,63.7674 132.014,63.7731437 C131.462,63.7789 131.019,64.2313 131.023958,64.7835 L131.118,73.7831 Z M182.331,21.0706 L131.404,73.0729 L132.833,74.4723 L183.76,22.47 L182.331,21.0706 Z" id="Shape" fill="#D0021B" fill-rule="nonzero"></path>
        </g>
    </g>
</svg>