<?xml version="1.0" encoding="UTF-8"?>
<svg width="210px" height="100px" viewBox="0 0 210 100" version="1.1" xmlns="http://www.w3.org/2000/svg" xmlns:xlink="http://www.w3.org/1999/xlink">
    <title>pll_3_1</title>
    <g id="pll_3_1" stroke="none" stroke-width="1" fill="none" fill-rule="evenodd">
        <g transform="translate(1.000000, 0.000000)">
            <polygon id="Path" fill="#000000" points="0.08545 19.2754 9.1878 80.8861 63.8335 99.9205 97.7492 67.4145 97.7492 7.49827 42.6407 0.144623"></polygon>
            <polygon id="Path" fill="#D0021B" points="88.2038 58.1468 96.9186 50.488 97.0048 66.9565 88.2038 75.3621"></polygon>
            <polygon id="Path" fill="#D0021B" points="76.6033 67.85 86.7168 59.3085 86.7139 76.6775 76.918 85.99"></polygon>
            <polygon id="Path" fill="#D0021B" points="63.655 79.1917 75.0462 69.2908 75.5864 87.2923 64.4653 97.7814"></polygon>
            <polygon id="Path" fill="#D0021B" points="88.0242 37.3905 96.8587 30.5461 96.8587 48.1383 88.067 55.7736"></polygon>
            <polygon id="Path" fill="#D0021B" points="75.9273 46.332 86.2613 38.4483 86.5735 56.9519 76.3787 65.5684"></polygon>
            <polygon id="Path" fill="#D0021B" points="62.3851 56.8013 74.1623 47.8723 74.7934 66.6079 63.5011 76.5139"></polygon>
            <polygon id="Path" fill="#D0021B" points="87.6857 15.2509 96.9214 9.35114 96.9214 28.1915 87.6857 35.3294"></polygon>
            <polygon id="Path" fill="#025AC1" points="74.9431 23.1383 86.1413 16.1481 86.1413 36.0793 75.6622 43.6625"></polygon>
            <polygon id="Path" fill="#D0021B" points="61.0302 32.1809 73.3519 24.2988 74.0394 45.0007 61.9626 54.179"></polygon>
            <polygon id="Path" fill="#025AC1" points="7.36407 63.0673 22.4452 67.7862 24.4638 85.1273 9.8587 80.0763"></polygon>
            <polygon id="Path" fill="#025AC1" points="24.5278 68.2724 41.0741 73.5715 42.6973 91.5579 26.6732 85.9835"></polygon>
            <polygon id="Path" fill="#025AC1" points="43.445 74.0816 61.3213 79.7311 62.4822 98.3867 44.9299 92.1748"></polygon>
            <polygon id="Path" fill="#025AC1" points="4.26593 42.5068 19.8783 46.8521 22.1478 65.4158 7.00556 60.8649"></polygon>
            <polygon id="Path" fill="#025AC1" points="22.1381 47.3862 39.2124 51.6012 40.8241 71.0198 24.4248 66.051"></polygon>
            <polygon id="Path" fill="#025AC1" points="41.6631 52.4071 60.1242 57.2168 61.1023 77.171 43.0066 71.7278"></polygon>
            <polygon id="Path" fill="#025AC1" points="1.25824 20.9258 17.1015 24.1438 19.4007 44.159 4.11256 40.4847"></polygon>
            <polygon id="Path" fill="#D0021B" points="19.2792 24.5274 36.8078 28.1915 38.9261 49.2004 21.6843 44.8323"></polygon>
            <polygon id="Path" fill="#025AC1" points="39.5455 28.6229 58.7384 32.7128 59.7614 54.4511 41.1881 49.7452"></polygon>
            <polygon id="Path" fill="#FFDB11" points="42.7298 0.661118 57.3693 2.70312 46.7244 7.95515 31.6843 5.69441"></polygon>
            <polygon id="Path" fill="#FFDB11" points="29.9587 6.37852 45.3162 8.68998 33.1448 14.7348 17.6281 12.0188"></polygon>
            <polygon id="Path" fill="#FFDB11" points="15.8538 12.8521 31.2681 15.5268 17.7552 22.2073 2.10895 19.0718"></polygon>
            <polygon id="Path" fill="#FFDB11" points="33.5258 15.8463 50.8285 18.8557 37.4673 26.2274 19.8797 22.7102"></polygon>
            <polygon id="Path" fill="#FFDB11" points="47.3393 9.07297 63.9467 11.6657 52.3311 18.0047 35.3426 15.0287"></polygon>
            <polygon id="Path" fill="#FFDB11" points="59.6527 2.98441 75.6608 5.20126 65.5416 10.8859 48.752 8.28645"></polygon>
            <polygon id="Path" fill="#FFDB11" points="78.2103 5.51442 95.686 7.94188 86.017 13.9058 68.2812 11.1602"></polygon>
            <polygon id="Path" fill="#FFDB11" points="66.3191 11.9232 84.3962 14.7702 73.4317 21.6945 54.8104 18.3866"></polygon>
            <polygon id="Path" fill="#FFDB11" points="53.1082 19.4277 71.7187 22.697 59.36 30.5818 39.8912 26.7168"></polygon>
            <rect id="Rectangle" fill="#000000" fill-rule="nonzero" transform="translate(159.000000, 50.000000) rotate(-90.000000) translate(-159.000000, -50.000000) " x="109" y="0" width="100" height="100"></rect>
            <rect id="Rectangle" fill="#025AC1" fill-rule="nonzero" x="173" y="91" width="22" height="4"></rect>
            <rect id="Rectangle" fill="#D0021B" fill-rule="nonzero" x="148" y="91" width="22" height="4"></rect>
            <rect id="Rectangle" fill="#025AC1" fill-rule="nonzero" x="123" y="91" width="22" height="4"></rect>
            <rect id="Rectangle" fill="#009A0E" fill-rule="nonzero" x="173" y="5" width="22" height="4"></rect>
            <rect id="Rectangle" fill="#FF8100" fill-rule="nonzero" x="148" y="5" width="22" height="4"></rect>
            <rect id="Rectangle" fill="#009A0E" fill-rule="nonzero" x="123" y="5" width="22" height="4"></rect>
            <rect id="Rectangle" fill="#D0021B" fill-rule="nonzero" transform="translate(202.000000, 25.000000) rotate(-90.000000) translate(-202.000000, -25.000000) " x="191" y="23" width="22" height="4"></rect>
            <rect id="Rectangle" fill="#025AC1" fill-rule="nonzero" transform="translate(202.000000, 50.000000) rotate(-90.000000) translate(-202.000000, -50.000000) " x="191" y="48" width="22" height="4"></rect>
            <rect id="Rectangle" fill="#D0021B" fill-rule="nonzero" transform="translate(202.000000, 75.000000) rotate(-90.000000) translate(-202.000000, -75.000000) " x="191" y="73" width="22" height="4"></rect>
            <rect id="Rectangle" fill="#FF8100" fill-rule="nonzero" transform="translate(116.000000, 25.000000) rotate(-90.000000) translate(-116.000000, -25.000000) " x="105" y="23" width="22" height="4"></rect>
            <rect id="Rectangle" fill="#009A0E" fill-rule="nonzero" transform="translate(116.000000, 50.000000) rotate(-90.000000) translate(-116.000000, -50.000000) " x="105" y="48" width="22" height="4"></rect>
            <rect id="Rectangle" fill="#FF8100" fill-rule="nonzero" transform="translate(116.000000, 75.000000) rotate(-90.000000) translate(-116.000000, -75.000000) " x="105" y="73" width="22" height="4"></rect>
            <rect id="Rectangle" fill="#FFDB11" fill-rule="nonzero" transform="translate(184.000000, 25.000000) rotate(-90.000000) translate(-184.000000, -25.000000) " x="173" y="14" width="22" height="22"></rect>
            <rect id="Rectangle" fill="#FFDB11" fill-rule="nonzero" transform="translate(184.000000, 50.000000) rotate(-90.000000) translate(-184.000000, -50.000000) " x="173" y="39" width="22" height="22"></rect>
            <rect id="Rectangle" fill="#FFDB11" fill-rule="nonzero" transform="translate(184.000000, 75.000000) rotate(-90.000000) translate(-184.000000, -75.000000) " x="173" y="64" width="22" height="22"></rect>
            <rect id="Rectangle" fill="#FFDB11" fill-rule="nonzero" transform="translate(159.000000, 25.000000) rotate(-90.000000) translate(-159.000000, -25.000000) " x="148" y="14" width="22" height="22"></rect>
            <rect id="Rectangle" fill="#FFDB11" fill-rule="nonzero" transform="translate(159.000000, 50.000000) rotate(-90.000000) translate(-159.000000, -50.000000) " x="148" y="39" width="22" height="22"></rect>
            <rect id="Rectangle" fill="#FFDB11" fill-rule="nonzero" transform="translate(159.000000, 75.000000) rotate(-90.000000) translate(-159.000000, -75.000000) " x="148" y="64" width="22" height="22"></rect>
            <rect id="Rectangle" fill="#FFDB11" fill-rule="nonzero" transform="translate(134.000000, 25.000000) rotate(-90.000000) translate(-134.000000, -25.000000) " x="123" y="14" width="22" height="22"></rect>
            <rect id="Rectangle" fill="#FFDB11" fill-rule="nonzero" transform="translate(134.000000, 50.000000) rotate(-90.000000) translate(-134.000000, -50.000000) " x="123" y="39" width="22" height="22"></rect>
            <rect id="Rectangle" fill="#FFDB11" fill-rule="nonzero" transform="translate(134.000000, 75.000000) rotate(-90.000000) translate(-134.000000, -75.000000) " x="123" y="64" width="22" height="22"></rect>
            <path d="M160.844,22.1347 C160.825,21.5828 160.361,21.1513 159.809,21.171 L150.815,21.4916 C150.263,21.5113 149.832,21.9746 149.851,22.5266 C149.871,23.0785 150.334,23.51 150.886,23.4903 L158.881,23.2053 L159.166,31.2002 C159.186,31.7522 159.649,32.1837 160.201,32.164 C160.753,32.1443 161.185,31.6809 161.165,31.129 L160.844,22.1347 Z M132.001,51.0356 C132.02,51.5876 132.484,52.019 133.036,51.9994 L142.03,51.6788 C142.582,51.6591 143.013,51.1957 142.994,50.6438 C142.974,50.0918 142.511,49.6604 141.959,49.68 L133.964,49.965 L133.679,41.9701 C133.659,41.4182 133.196,40.9867 132.644,41.0063 C132.092,41.026 131.66,41.4894 131.68,42.0413 L132.001,51.0356 Z M159.113,21.4889 L132.268,50.3185 L133.732,51.6815 L160.577,22.8518 L159.113,21.4889 Z" id="Shape" fill="#025AC1" fill-rule="nonzero"></path>
            <path d="M185.844,48.1347 C185.825,47.5828 185.361,47.1513 184.809,47.171 L175.815,47.4916 C175.263,47.5113 174.832,47.9746 174.851,48.5266 C174.871,49.0785 175.334,49.51 175.886,49.4903 L183.881,49.2053 L184.166,57.2003 C184.186,57.7522 184.649,58.1837 185.201,58.164 C185.753,58.1443 186.185,57.6809 186.165,57.129 L185.844,48.1347 Z M157.001,77.0356 C157.02,77.5876 157.484,78.0191 158.036,77.9994 L167.03,77.6788 C167.582,77.6591 168.013,77.1957 167.994,76.6438 C167.974,76.0918 167.511,75.6604 166.959,75.68 L158.964,75.965 L158.679,67.9701 C158.659,67.4182 158.196,66.9867 157.644,67.0064 C157.092,67.026 156.66,67.4894 156.68,68.0413 L157.001,77.0356 Z M184.113,47.4889 L157.268,76.3185 L158.732,77.6815 L185.577,48.8518 L184.113,47.4889 Z" id="Shape" fill="#025AC1" fill-rule="nonzero"></path>
        </g>
    </g>
</svg>