<?xml version="1.0" encoding="UTF-8"?>
<svg width="100px" height="100px" viewBox="0 0 100 100" version="1.1" xmlns="http://www.w3.org/2000/svg" xmlns:xlink="http://www.w3.org/1999/xlink">
    <title>g2f_pll</title>
    <g id="g2f_pll" stroke="none" stroke-width="1" fill="none" fill-rule="evenodd">
        <g id="cube">
            <path d="M99.5813675,16.6052627 L96.5163504,74.1513189 C96.4902047,74.671056 96.1634069,75.1052665 95.7189592,75.3157912 L51.483668,99.2894726 C50.8366058,99.64474 48.5817062,99.1776356 48.1176551,98.9144723 L4.28758744,74.6315785 C3.81046319,74.3749988 3.54248935,73.8947392 3.54902523,73.407896 L0.653259277,16.4605258 C0.627456583,15.8355264 2.11111679,13.9802639 2.71242396,13.8486838 L49.9542558,0.0592105248 C50.2287622,-0.0197368426 50.509808,-0.0197368426 50.764714,0.0592105248 L96.5163504,14 C97.0980483,14.1644738 99.6339938,15.5131573 99.5813675,16.6052627 Z" id="Background" fill="#000000"></path>
            <g id="Right" transform="translate(50.000000, 16.000000)">
                <polygon id="R9" fill="#D0021B" points="34.2340653 48.2635195 46.5113831 41.9104805 45.4959657 58.4652886 33.5878906 64.712883"></polygon>
                <polygon id="R8" fill="#D0021B" points="18.3236616 56.0466573 32.2098217 49.2191162 31.4251807 66.149573 17.5785828 73.471386"></polygon>
                <polygon id="R7" fill="#D0021B" points="0.718704224 64.4295064 16.2994232 56.6925049 15.5543444 74.4269778 0.79123402 82.5198555"></polygon>
                <polygon id="R6" fill="#D0021B" points="34.8670579 27.6029608 47.4542732 22.0868874 46.4256688 39.8740826 34.0098877 45.9766922"></polygon>
                <polygon id="R5" fill="#D0021B" points="18.8709401 34.8325098 33.1790905 28.4135666 32.1307055 47.1827151 18.2115784 53.950943"></polygon>
                <polygon id="R4" fill="#D0021B" points="0.58682251 42.1411408 16.7741547 35.6694756 16.1543548 54.6692821 0.58682251 62.4194641"></polygon>
                <polygon id="R3" fill="#4A4A4A" points="36.0275256 5.80886769 48.5883675 0.833198547 47.6982292 19.991173 35.2033234 25.1711407"></polygon>
                <polygon id="R2" fill="#4A4A4A" points="19.0885165 12.4387047 33.970314 6.56016541 33.4955737 25.9488002 18.8115845 32.6379452"></polygon>
                <polygon id="R1" fill="#4A4A4A" points="0.408813477 19.0487638 17.130228 12.9593353 16.7939532 33.5737645 0.487936893 40.0124779"></polygon>
            </g>
            <g id="Left" transform="translate(1.000000, 16.000000)">
                <polygon id="L9" fill="#025AC1" points="2.92379856 42.437706 14.3307574 48.1580774 14.7263746 63.691391 3.57656672 57.8128522"></polygon>
                <polygon id="L8" fill="#025AC1" points="16.1637878 49.1993408 29.997198 55.8621251 30.1158829 72.0017471 16.67809 64.8578725"></polygon>
                <polygon id="L7" fill="#025AC1" points="31.9225304 56.9956512 47.7406184 64.5876647 47.8263359 82.1573753 31.8697815 73.2011722"></polygon>
                <polygon id="L6" fill="#025AC1" points="1.88200378 21.8232765 13.5527071 27.4382044 14.225256 46.0491867 2.73917412 39.9597576"></polygon>
                <polygon id="L5" fill="#025AC1" points="15.4055176 28.5980949 29.5026725 34.4700442 30.0960979 53.7202835 16.104441 47.1431735"></polygon>
                <polygon id="L4" fill="#025AC1" points="31.3620758 35.2081566 47.5757828 42.1740934 47.5625951 62.4128761 31.9818759 54.8604036"></polygon>
                <polygon id="L3" fill="#4A4A4A" points="0.649002075 0.688217163 12.4845463 5.76933101 13.3219357 25.1316032 1.53254692 19.3782794"></polygon>
                <polygon id="L2" fill="#4A4A4A" points="14.3769073 6.40199661 28.935615 12.1487302 29.6345387 32.5720406 15.227484 26.1992294"></polygon>
                <polygon id="L1" fill="#4A4A4A" points="30.8148041 12.873661 47.5362186 18.9564997 47.5098447 40.0849724 31.4807595 33.2376601"></polygon>
            </g>
            <g id="Up" transform="translate(3.000000, 1.000000)" fill="#F4E200">
                <polygon id="Up9" points="35.512043 3.81480266 47.3649048 0.357017547 58.8267975 3.61255478 47.0651618 7.46178725"></polygon>
                <polygon id="Up8" points="17.944519 8.53826868 32.82087 4.36935425 44.6997948 8.13377319 30.2600258 12.8246174"></polygon>
                <polygon id="Up7" points="0.175003052 14.0576758 16.07439 9.39945221 27.5232506 13.4444084 11.5261222 18.6310863"></polygon>
                <polygon id="Up6" points="13.2268372 19.3095947 29.7908701 14.3186407 43.9243813 19.0877748 27.9533172 24.8877201"></polygon>
                <polygon id="Up5" points="32.7687378 13.5683678 46.9543788 8.83837891 61.4788589 13.4313614 46.7588943 18.3244534"></polygon>
                <polygon id="Up4" points="49.0069733 8.12071952 60.3255109 4.60421753 75.0910873 9.02757263 64.1439695 12.6288881"></polygon>
                <polygon id="Up3" points="66.3724976 13.477024 77.7887777 9.88223267 92.9974518 14.2794912 81.6789132 18.657177"></polygon>
                <polygon id="Up2" points="49.0786438 19.2900246 64.1309308 14.4099808 79.5546379 19.3356934 65.1800303 25.1095419"></polygon>
                <polygon id="Up1" points="30.0254517 26.0033445 46.4396114 20.0272484 62.9710617 25.7945723 46.4656758 31.7184753"></polygon>
            </g>
        </g>
    </g>
</svg>