<?xml version="1.0" encoding="UTF-8"?>
<svg width="100px" height="100px" viewBox="0 0 100 100" version="1.1" xmlns="http://www.w3.org/2000/svg" xmlns:xlink="http://www.w3.org/1999/xlink">
    <title>g2f_accel</title>
    <defs>
        <path d="M97.5555556,15.3092105 C98.5163399,14.9210526 99.6339869,15.5131579 99.5816993,16.6052632 L98.6993464,35.7302632 C98.6797386,36.1842105 98.4313725,36.5789474 98.0653595,36.8157895 C98.3333333,37.0855263 98.4836601,37.4605263 98.4575163,37.8421053 L97.4379085,55.5921053 C97.4183007,55.9473684 97.254902,56.2697368 97.0130719,56.5 C97.3594771,56.7828947 97.5620915,57.2236842 97.5163399,57.6776316 L96.5163399,74.1513158 C96.4901961,74.6710526 96.1633987,75.1052632 95.7189542,75.3157895 L83.9738562,81.5197368 C83.5228758,81.7565789 82.9934641,81.7302632 82.5816993,81.5 C82.5490196,82.1381579 82.4640523,82.6184211 81.8300654,82.9539474 L68.1111111,90.2631579 C67.6928105,90.4868421 67.2091503,90.4868421 66.8104575,90.2960526 C66.7254902,90.6907895 66.4640523,91.0197368 66.1176471,91.2039474 L51.4836601,99.2894737 C50.8366013,99.6447368 50.0261438,99.4539474 49.6143791,98.875 C49.1633987,99.1578947 48.5816993,99.1776316 48.1176471,98.9144737 L32.3006536,89.9671053 C31.8954248,89.7368421 31.6535948,89.3421053 31.6078431,88.9276316 C31.2679739,89.0065789 30.9019608,88.9539474 30.5947712,88.7894737 L17.2745098,81.6644737 C16.8431373,81.4276316 16.5816993,81.0131579 16.5490196,80.5657895 C16.1568627,80.7171053 15.7124183,80.6907895 15.3464052,80.4934211 L4.2875817,74.6315789 C3.81045752,74.375 3.54248366,73.8947368 3.54901961,73.4078947 L2.90849673,58.1315789 C2.88888889,57.6052632 3.17647059,57.1381579 3.60784314,56.8947368 C3.08496732,56.6118421 2.71895425,56.2434211 2.71895425,55.5986842 L1.87581699,37.5592105 C1.85620915,37.0723684 2.09803922,36.6315789 2.48366013,36.375 C1.92156863,36.0986842 1.50980392,35.7171053 1.52941176,35.0263158 L0.653594771,16.4605263 C0.62745098,15.8355263 1.03267974,15.2894737 1.61437908,15.0986842 C1.65359477,14.4802632 2.11111111,13.9802632 2.7124183,13.8486842 L18.5686275,9.17763158 C18.9477124,9.06578947 19.1437908,9.11842105 19.503268,9.21052632 C19.6535948,8.74342105 20.0457516,8.40131579 20.5163399,8.28947368 L35.379085,4.09868421 C35.9607843,3.94078947 36.5751634,4.22368421 37.1372549,4.40131579 C37.3006536,3.94736842 37.6993464,3.625 38.1568627,3.51973684 L49.9542484,0.0592105263 C50.2287582,-0.0197368421 50.5098039,-0.0197368421 50.7647059,0.0592105263 L62.2679739,3.33552632 C62.751634,3.47368421 63.1045752,3.84210526 63.2352941,4.28289474 C63.4248366,4.26315789 63.6078431,4.28947368 63.7843137,4.34210526 L78.6013072,8.80263158 C79.1503268,8.96710526 79.5228758,9.42105263 79.5882353,9.94078947 C80.1437908,9.76973684 80.7124183,9.49342105 81.2875817,9.65789474 L96.5424837,14.0921053 C97.124183,14.2565789 97.5098039,14.7565789 97.5555556,15.3092105 Z" id="path-1"></path>
    </defs>
    <g id="g2f_accel" stroke="none" stroke-width="1" fill="none" fill-rule="evenodd">
        <g id="cube">
            <g id="Background">
                <mask id="mask-2" fill="white">
                    <use xlink:href="#path-1"></use>
                </mask>
                <g id="Clip-2"></g>
                <polygon id="Fill-1" fill="#000000" mask="url(#mask-2)" points="-2.61557451 102.758158 102.851419 102.758158 102.851419 -3.28947368 -2.61557451 -3.28947368"></polygon>
            </g>
            <g id="Right" transform="translate(50.000000, 15.714286)">
                <polygon id="R1" fill="#4A4A4A" points="0.405228758 19.0159774 16.9803922 12.9370301 16.6470588 33.5159774 0.483660131 39.943609"></polygon>
                <polygon id="R2" fill="#4A4A4A" points="18.9215686 12.4172932 33.6732026 6.54887218 33.2026144 25.9041353 18.6470588 32.5817669"></polygon>
                <polygon id="R3" fill="#F4E200" points="35.7124183 5.79887218 48.1633987 0.831766917 47.2810458 19.9567669 34.8954248 25.1278195"></polygon>
                <polygon id="R4" fill="#FF8100" points="0.581699346 42.068609 16.627451 35.6080827 16.0130719 54.575188 0.581699346 62.3120301"></polygon>
                <polygon id="R5" fill="#FF8100" points="18.7058824 34.7725564 32.8888889 28.3646617 31.8496732 47.1015038 18.0522876 53.8580827"></polygon>
                <polygon id="R6" fill="#FF8100" points="34.5620915 27.5554511 47.0392157 22.0488722 46.0196078 39.8054511 33.7124183 45.8975564"></polygon>
                <polygon id="R7" fill="#FF8100" points="0.712418301 64.318609 16.1568627 56.5949248 15.4183007 74.2988722 0.784313725 82.3778195"></polygon>
                <polygon id="R8" fill="#FF8100" points="18.1633987 55.950188 31.9281046 49.1343985 31.1503268 66.0357143 17.4248366 73.3449248"></polygon>
                <polygon id="R9" fill="#FF8100" points="33.9346405 48.1804511 46.1045752 41.8383459 45.0980392 58.3646617 33.2941176 64.6015038"></polygon>
            </g>
            <g id="Left" transform="translate(1.428571, 15.714286)">
                <polygon id="L1" fill="#F4E200" points="30.5452848 12.8515038 47.1204482 18.9238722 47.0943044 40.0159774 31.2054155 33.1804511"></polygon>
                <polygon id="L2" fill="#4A4A4A" points="14.2511671 6.39097744 28.6825397 12.1278195 29.3753501 32.5159774 15.0943044 26.1541353"></polygon>
                <polygon id="L3" fill="#4A4A4A" points="0.643323996 0.687030075 12.3753501 5.7593985 13.2054155 25.0883459 1.51914099 19.3449248"></polygon>
                <polygon id="L4" fill="#009A0E" points="31.0877684 35.1475564 47.1596639 42.1015038 47.146592 62.3054511 31.7021475 54.7659774"></polygon>
                <polygon id="L5" fill="#009A0E" points="15.270775 28.5488722 29.2446312 34.4107143 29.8328665 53.6278195 15.9635854 47.0620301"></polygon>
                <polygon id="L6" fill="#009A0E" points="1.86554622 21.7857143 13.4341737 27.3909774 14.1008403 45.9699248 2.71521942 39.8909774"></polygon>
                <polygon id="L7" fill="#009A0E" points="31.643324 56.8975564 47.3230626 64.4765038 47.4080299 82.0159774 31.5910364 73.075188"></polygon>
                <polygon id="L8" fill="#009A0E" points="16.022409 49.1146617 29.7348273 55.7659774 29.8524743 71.8778195 16.5322129 64.7462406"></polygon>
                <polygon id="L9" fill="#009A0E" points="2.89822596 42.3646617 14.2054155 48.075188 14.5975724 63.5817669 3.54528478 57.7133459"></polygon>
            </g>
            <g id="Up" transform="translate(2.857143, 1.000000)">
                <polygon id="Up1" fill="#4A4A4A" points="30.1167134 26.2302632 46.5807656 20.2039474 63.162465 26.0197368 46.6069094 31.9934211"></polygon>
                <polygon id="Up2" fill="#F4E200" points="49.2278245 19.4605263 64.3258637 14.5394737 79.7964519 19.5065789 65.3781513 25.3289474"></polygon>
                <polygon id="Up3" fill="#4A4A4A" points="66.5742297 13.5986842 78.0252101 9.97368421 93.280112 14.4078947 81.9271709 18.8223684"></polygon>
                <polygon id="Up4" fill="#F4E200" points="49.155929 8.19736842 60.5088702 4.65131579 75.3193277 9.11184211 64.3389356 12.7434211"></polygon>
                <polygon id="Up5" fill="#F4E200" points="32.8683473 13.6907895 47.0971055 8.92105263 61.665733 13.5526316 46.9010271 18.4868421"></polygon>
                <polygon id="Up6" fill="#F4E200" points="13.2670401 19.4802632 29.8814192 14.4473684 44.0578898 19.2565789 28.038282 25.1052632"></polygon>
                <polygon id="Up7" fill="#F4E200" points="0.175536881 14.1842105 16.1232493 9.48684211 27.6069094 13.5657895 11.5611578 18.7960526"></polygon>
                <polygon id="Up8" fill="#F4E200" points="17.9990663 8.61842105 32.9206349 4.41447368 44.8356676 8.21052632 30.3520075 12.9407895"></polygon>
                <polygon id="Up9" fill="#4A4A4A" points="35.6199813 3.85526316 47.5088702 0.368421053 59.0056022 3.65131579 47.2082166 7.53289474"></polygon>
            </g>
        </g>
    </g>
</svg>