<?xml version="1.0" encoding="UTF-8"?>
<svg width="91px" height="101px" viewBox="0 0 91 101" version="1.1" xmlns="http://www.w3.org/2000/svg" xmlns:xlink="http://www.w3.org/1999/xlink">
    <title>mirror_1_2</title>
    <g id="Mirror" stroke="none" stroke-width="1" fill="none" fill-rule="evenodd">
        <g id="mirror_1_2" transform="translate(0.000000, 0.557823)" fill-rule="nonzero">
            <polygon id="Path" fill="#000000" points="32.46875 0.21875 40.84375 3.125 45.78125 1.40625 59 6.125 75.3125 0.15625 88.375 4.28125 86.3125 29.75 85.4375 30.34375 84.28125 42.875 75.46875 47.78125 78.28125 49 77.875 57.5625 78.6875 58.03125 77.53125 74.84375 65.3125 82.875 62.5 81.25 62.125 87.125 47.65625 96.96875 31.0625 85.15625 30.1875 69.5625 21.5 63.9375 12.9375 68.375 1.3125 60.3125 0.15625 49.84375 11.6875 45.09375 10.375 29.625 12.65625 28.75 12.4375 23.8125 14.8125 22.90625 13.78125 7.8125 18.8125 6.09375 18.8125 4.375"></polygon>
            <polygon id="Path" fill="#424242" points="33.75 34.9375 45.34375 30.03125 53.21875 33.8125 41.5625 39.03125"></polygon>
            <polygon id="Path" fill="#424242" points="46.90625 29.3125 58.6875 24.40625 75.28125 31.375 63.75 36.9375"></polygon>
            <polygon id="Path" fill="#424242" points="60.875 6.09375 75.34375 0.84375 86.3125 4.1875 72.09375 9.75"></polygon>
            <polygon id="Path" fill="#424242" points="32.09375 17.25 43 22.25 25.15625 29.375 14.34375 23.9375"></polygon>
            <polygon id="Path" fill="#9E9E9E" points="45.78125 2 56.96875 6.03125 44.96875 10.375 33.8125 6.03125"></polygon>
            <polygon id="Path" fill="#424242" points="21.125 5.84375 30.1875 9.46875 24.40625 11.5625 15.6875 7.625"></polygon>
            <polygon id="Path" fill="#424242" points="32.46875 0.84375 39.5 3.3125 31.6875 5.90625 31.65625 8.75 20.71875 4.3125"></polygon>
            <polygon id="Path" fill="#424242" points="32.65625 36.46875 40.75 40.375 40.75 47.40625 32.8125 43.28125"></polygon>
            <polygon id="Path" fill="#424242" points="13.4375 25.65625 24.40625 30.9375 24.9375 45.15625 14.375 39.15625"></polygon>
            <polygon id="Path" fill="#424242" points="14.6875 9.25 23.59375 12.90625 24.03125 19.53125 15.59375 22.34375"></polygon>
            <polygon id="Path" fill="#424242" points="33.40625 45.6875 52.4375 56.3125 52.40625 71.25 33.59375 60.1875"></polygon>
            <polygon id="Path" fill="#424242" points="14.625 41.46875 25.15625 47.34375 25.875 62.09375 15.625 55.40625"></polygon>
            <polygon id="Path" fill="#424242" points="11.28125 31.125 12.90625 31.6875 13.875 45.34375 12.28125 43.875"></polygon>
            <polygon id="Path" fill="#424242" points="31 64.03125 46.53125 73.75 46.53125 95.125 31.75 84.71875"></polygon>
            <polygon id="Path" fill="#424242" points="21.96875 60.59375 26.9375 63.84375 29.9375 62.125 30.1875 68.5625 22.21875 63.375"></polygon>
            <polygon id="Path" fill="#424242" points="1.09375 51.5 11.1875 58.03125 11.96875 66.84375 2.03125 60.03125"></polygon>
            <polygon id="Path" fill="#424242" points="42.65625 40.53125 53.96875 35.28125 53.9375 42 42.65625 47.5"></polygon>
            <polygon id="Path" fill="#424242" points="64.6875 38.5625 76.4375 32.84375 76 39.46875 64.46875 45.46875"></polygon>
            <polygon id="Path" fill="#424242" points="73.25 11.34375 87.34375 5.84375 85.59375 29.21875 77.375 33.125 77.375 31.3125 72.28125 29.03125"></polygon>
            <polygon id="Path" fill="#424242" points="54.625 56.125 65.75 50 65.125 64.90625 54.4375 71.375"></polygon>
            <polygon id="Path" fill="#424242" points="63.6875 46.90625 72.71875 42.25 72 54.5 66.5 57.8125 66.75 48.4375"></polygon>
            <polygon id="Path" fill="#424242" points="77.28125 34.3125 84.53125 30.6875 83.75 42.21875 73.34375 48.0625 73.6875 41.6875 76.90625 40.1875"></polygon>
            <polygon id="Path" fill="#424242" points="51.4375 72 53.375 73.28125 61.96875 68 61.3125 86.78125 48.5 95.375 48.46875 73.8125"></polygon>
            <polygon id="Path" fill="#424242" points="66.84375 66.28125 77.6875 59.6875 76.78125 74.4375 66.125 81.34375"></polygon>
            <polygon id="Path" fill="#424242" points="73.0625 53.125 77.28125 50.875 77.0625 57.34375 73.09375 55.0625"></polygon>
        </g>
    </g>
</svg>