<?xml version="1.0" encoding="UTF-8"?>
<svg width="87px" height="100px" viewBox="0 0 87 100" version="1.1" xmlns="http://www.w3.org/2000/svg" xmlns:xlink="http://www.w3.org/1999/xlink">
    <title>mirror_4_2</title>
    <g id="Mirror" stroke="none" stroke-width="1" fill="none" fill-rule="evenodd">
        <g id="mirror_4_2" fill-rule="nonzero">
            <polygon id="Path" fill="#000000" points="0.162790698 34.7906977 12.0930233 30.2790698 11.2093023 18.4418605 18.3255814 16.1395349 20.744186 17 30 13.6511628 39.2790698 17.3488372 39.1162791 3.95348837 50.4883721 0.162790698 56.7906977 2.34883721 56.5813953 17.372093 58.5348837 18.0232558 58.5581395 14.5813953 65.1162791 12.1860465 84.627907 19.0465116 83.1860465 38.627907 79.255814 41 76.7906977 73.5581395 38.8372093 98.0697674 4.11627907 72.744186"></polygon>
            <polygon id="Path" fill="#424242" points="33.0232558 36.7674419 44.8139535 31.8604651 52.7906977 35.627907 41.0930233 41"></polygon>
            <polygon id="Path" fill="#9E9E9E" points="58.627907 26.2093023 69.627907 30.627907 57.8837209 36.1162791 46.3023256 31.255814"></polygon>
            <polygon id="Path" fill="#424242" points="60.5116279 14.8837209 65.6511628 12.9302326 83 19.2093023 77.8837209 21.2325581"></polygon>
            <polygon id="Path" fill="#9E9E9E" points="46.8372093 19.8837209 54.1395349 17.1162791 58.4418605 18.7674419 58.3255814 24.6744186"></polygon>
            <polygon id="Path" fill="#9E9E9E" points="45.1860465 20.6046512 56.5348837 25.3255814 44.4186047 30.372093 33.4186047 25.2790698"></polygon>
            <polygon id="Path" fill="#9E9E9E" points="16.627907 31.6976744 31.9069767 26.0232558 42.8139535 31.2093023 27.9767442 37.4883721"></polygon>
            <polygon id="Path" fill="#424242" points="12.6976744 18.627907 18.372093 16.6744186 29.8139535 21.7209302 24.1162791 23.7674419"></polygon>
            <polygon id="Path" fill="#9E9E9E" points="21.3023256 17.3488372 29.9534884 14.2790698 43.3953488 19.9767442 31.8604651 24.5348837 31.2790698 21.627907"></polygon>
            <polygon id="Path" fill="#424242" points="40.8139535 3.90697674 50.5581395 0.697674419 54.9534884 2.3255814 45.4651163 5.72093023"></polygon>
            <polygon id="Path" fill="#424242" points="12.255814 19.8837209 23.3255814 25.1860465 23.3953488 28.255814 16.0465116 31.2093023 12.8372093 29.4186047"></polygon>
            <polygon id="Path" fill="#424242" points="16 33.0697674 27.1860465 39.0930233 27.2325581 45.8604651 16.4418605 40.0232558"></polygon>
            <polygon id="Path" fill="#424242" points="32.0930233 38.3255814 40.1395349 42.4186047 40.1860465 49.744186 32.1395349 45.4651163"></polygon>
            <polygon id="Path" fill="#9E9E9E" points="0.906976744 36.2790698 11.8604651 42.372093 12.9767442 57.0465116 2.37209302 50.4186047"></polygon>
            <polygon id="Path" fill="#9E9E9E" points="13.3255814 43.4418605 24.4651163 49.6046512 25.1860465 64.7906977 14.3953488 58.0697674"></polygon>
            <polygon id="Path" fill="#9E9E9E" points="26.1162791 50.6744186 36.8604651 56.9069767 37.255814 72.4651163 26.6046512 65.5116279"></polygon>
            <polygon id="Path" fill="#9E9E9E" points="2.72093023 52.1860465 13.2325581 59.0930233 14.9302326 79.8604651 4.69767442 72.5116279"></polygon>
            <polygon id="Path" fill="#9E9E9E" points="14.7209302 60.1627907 25.3488372 67.0930233 26.372093 88.1860465 16.2790698 80.8837209"></polygon>
            <polygon id="Path" fill="#9E9E9E" points="27 68.0930233 37.5116279 74.7209302 37.7906977 96.4186047 27.9069767 89.3023256"></polygon>
            <polygon id="Path" fill="#9E9E9E" points="39.3488372 74.3255814 56.1395349 65 55.7906977 86.2325581 39.6511628 96.4651163"></polygon>
            <polygon id="Path" fill="#9E9E9E" points="38.9534884 56.627907 56.3255814 47.744186 56.1860465 62.8837209 39.2093023 72.2790698"></polygon>
            <polygon id="Path" fill="#424242" points="42.1162791 42.5581395 53.6046512 37.1627907 53.6046512 44.1395349 42.1860465 49.7906977"></polygon>
            <polygon id="Path" fill="#424242" points="58.4651163 37.6976744 70.255814 32.2325581 70.0465116 38.9069767 58.4651163 44.744186"></polygon>
            <polygon id="Path" fill="#424242" points="78.9069767 22.7209302 83.6976744 20.7209302 82.4186047 38.0697674 77.8604651 40.4883721"></polygon>
            <polygon id="Path" fill="#9E9E9E" points="71.5348837 39.8139535 77.0232558 42.1627907 78.3488372 41.4418605 77.8837209 50.7209302 70.744186 54.7209302"></polygon>
            <polygon id="Path" fill="#9E9E9E" points="58.2325581 46.8372093 70.1627907 41.0232558 69.3255814 55.5348837 58.0930233 61.7209302"></polygon>
            <polygon id="Path" fill="#9E9E9E" points="57.7906977 64.1627907 69.0930233 57.7906977 68.3023256 78.1162791 57.4418605 85.0930233"></polygon>
            <polygon id="Path" fill="#9E9E9E" points="70.8139535 56.7674419 77.6511628 52.7906977 76.2325581 73.2325581 69.5348837 77.4651163"></polygon>
        </g>
    </g>
</svg>