<?xml version="1.0" encoding="UTF-8"?>
<svg width="94px" height="100px" viewBox="0 0 94 100" version="1.1" xmlns="http://www.w3.org/2000/svg" xmlns:xlink="http://www.w3.org/1999/xlink">
    <title>mirror</title>
    <g id="Mirror" stroke="none" stroke-width="1" fill="none" fill-rule="evenodd">
        <g id="mirror" transform="translate(-0.000000, 0.000000)" fill-rule="nonzero">
            <polygon id="Path" fill="#000000" points="0.166666667 17 46.5 0.166666667 91.9 17.3 87.3666667 70.1666667 45.5 98.5 4.9 69.4333333"></polygon>
            <polygon id="Path" fill="#9E9E9E" points="25.8333333 29.1333333 42.4666667 22.1 61.5 31.0333333 45.1333333 39.0666667"></polygon>
            <polygon id="Path" fill="#9E9E9E" points="58 15.4666667 77.2 23.4666667 63.8 30.0666667 44.6333333 21.1"></polygon>
            <polygon id="Path" fill="#9E9E9E" points="60.0666667 14.6 70.6333333 10 89.7333333 17.3333333 78.9666667 22.4666667"></polygon>
            <polygon id="Path" fill="#9E9E9E" points="45.3666667 8.6 55.7666667 4.43333333 68.5 9.36666667 58 13.7666667"></polygon>
            <polygon id="Path" fill="#9E9E9E" points="30.2 14.4666667 43.3 9.4 56 14.7333333 42.8 20.3666667"></polygon>
            <polygon id="Path" fill="#9E9E9E" points="11.3666667 21.6666667 27.7 15.4 40.3 21.2333333 23.8 28.1666667"></polygon>
            <polygon id="Path" fill="#9E9E9E" points="1.93333333 17.0333333 18.7 11.1666667 25.7666667 14.6333333 9.63333333 20.9"></polygon>
            <polygon id="Path" fill="#9E9E9E" points="20.5 10.2666667 33.9 5.43333333 41.5 8.66666667 27.8666667 13.6333333"></polygon>
            <polygon id="Path" fill="#9E9E9E" points="35.9 4.63333333 46.4333333 0.733333333 54.1333333 3.66666667 43.4666667 8"></polygon>
            <polygon id="Path" fill="#9E9E9E" points="1.06666667 18.6666667 8.66666667 22.4 9.3 30.2666667 1.73333333 26.1333333"></polygon>
            <polygon id="Path" fill="#9E9E9E" points="10.4 23.3666667 23 29.9 23.2666667 37.9666667 10.9 31.1666667"></polygon>
            <polygon id="Path" fill="#9E9E9E" points="24.9666667 31.0666667 44 40.9666667 44.0333333 49.2 25.2333333 38.9333333"></polygon>
            <polygon id="Path" fill="#9E9E9E" points="1.93333333 28.5 9.46666667 32.3666667 10.5 48.5 3.36666667 44.2333333"></polygon>
            <polygon id="Path" fill="#9E9E9E" points="11.0666667 33.1333333 23.2666667 39.9 24.1 57 12.1 49.4666667"></polygon>
            <polygon id="Path" fill="#9E9E9E" points="25.4666667 41.3 44.0333333 51.8333333 44.1 69.3666667 26.1 58.4"></polygon>
            <polygon id="Path" fill="#9E9E9E" points="3.7 46.5 10.8333333 51 12.4666667 74.0666667 5.53333333 69.0666667"></polygon>
            <polygon id="Path" fill="#9E9E9E" points="12.5666667 52.0666667 24.4 59.6333333 25.3333333 83.1333333 14 75.1666667"></polygon>
            <polygon id="Path" fill="#9E9E9E" points="26.3333333 60.7666667 44.2 71.9 44.3333333 96.6333333 27.3 84.6"></polygon>
            <polygon id="Path" fill="#9E9E9E" points="46.4 71.9 61.9333333 62.8333333 61.3333333 86.6 46.4 96.7"></polygon>
            <polygon id="Path" fill="#9E9E9E" points="46.3333333 51.9 62.5333333 43.3333333 61.8666667 60.4333333 46.1666667 69.5333333"></polygon>
            <polygon id="Path" fill="#9E9E9E" points="46.1666667 41.0333333 63.0333333 32.7333333 62.7666667 40.9 46.2333333 49.3666667"></polygon>
            <polygon id="Path" fill="#9E9E9E" points="65.0333333 31.8333333 78.4 25.0666667 77.9 33 64.7 39.7666667"></polygon>
            <polygon id="Path" fill="#9E9E9E" points="80.2 24.3666667 91.0333333 19 90.4 26.3666667 79.9 31.7666667"></polygon>
            <polygon id="Path" fill="#9E9E9E" points="79.7 34.3666667 90.2 28.6666667 88.8333333 44.5 78.6333333 50.8333333"></polygon>
            <polygon id="Path" fill="#9E9E9E" points="64.7666667 42.2333333 77.8 35.1 76.8666667 51.8666667 64.1 59.1666667"></polygon>
            <polygon id="Path" fill="#9E9E9E" points="64.0666667 61.5333333 76.7 54.1333333 75.1333333 77.5666667 63.2 85.5333333"></polygon>
            <polygon id="Path" fill="#9E9E9E" points="78.3666667 53.2666667 88.5333333 47.1 86.7333333 69.6333333 76.8333333 76.3333333"></polygon>
        </g>
    </g>
</svg>