<?xml version="1.0" encoding="UTF-8"?>
<svg width="80px" height="100px" viewBox="0 0 80 100" version="1.1" xmlns="http://www.w3.org/2000/svg" xmlns:xlink="http://www.w3.org/1999/xlink">
    <title>mirror_2</title>
    <g id="Mirror" stroke="none" stroke-width="1" fill="none" fill-rule="evenodd">
        <g id="mirror_2" fill-rule="nonzero">
            <polygon id="Path" fill="#000000" points="11.9655172 15.5517241 25.2413793 10.9310345 29.6896552 12.7241379 36.2758621 10.2068966 36.3448276 4.79310345 50.137931 0.137931034 63.4137931 4.37931034 63.1034483 13.3448276 75.3793103 17.6896552 73.862069 37.2068966 67.6551724 40.7241379 67.5172414 46.6206897 77.2413793 50.9655172 75.1724138 73.1724138 37.7931034 98.137931 2.13793103 72.5862069 0.137931034 50.5862069 7.20689655 47.4137931 7.17241379 45.7241379 4.48275862 44.2068966 4.34482759 40.7931034 3.51724138 40.0344828 1.82758621 22.5517241 12 19.0344828"></polygon>
            <polygon id="Path" fill="#424242" points="35.3793103 19.2413793 43.7586207 22.7586207 38.2068966 25.3448276 29.8275862 21.5517241"></polygon>
            <polygon id="Path" fill="#424242" points="45.5862069 22.5862069 49.3793103 21.0344828 54.6206897 23.3103448 45.7931034 27.0344828"></polygon>
            <polygon id="Path" fill="#424242" points="56.3448276 11.4482759 73.6896552 17.6206897 68.8965517 19.862069 51.2068966 13.3448276"></polygon>
            <polygon id="Path" fill="#424242" points="22.2758621 17.5862069 29.7931034 20.8965517 27.8275862 21.6896552 27.8275862 24.7586207 15.3103448 29.7241379 4.31034483 24.0689655"></polygon>
            <polygon id="Path" fill="#424242" points="50.2068966 0.827586207 61.5172414 4.4137931 49.3448276 8.96551724 38.1034483 4.89655172"></polygon>
            <polygon id="Path" fill="#424242" points="36.1724138 10.862069 36.1724138 15.1034483 30.6551724 13"></polygon>
            <polygon id="Path" fill="#424242" points="22.3103448 16.6206897 18.7931034 18 13.5172414 15.6896552 25.2758621 11.6896552 34.3793103 15.1724138 26.1034483 18.4137931"></polygon>
            <polygon id="Path" fill="#424242" points="3.24137931 22.6551724 11.8275862 19.7241379 13.0344828 20.2068966 4.68965517 23.3103448"></polygon>
            <polygon id="Path" fill="#424242" points="28.8965517 23.1724138 37.0344828 26.9310345 37.1724138 45 29.1034483 40.7586207"></polygon>
            <polygon id="Path" fill="#424242" points="3.20689655 25.862069 14.3448276 31.4827586 15.1034483 45.7586207 4.31034483 39.5517241"></polygon>
            <polygon id="Path" fill="#424242" points="17.0344828 49.1034483 22.0689655 51.8275862 22.6206897 67.1724138 17.7586207 63.9655172"></polygon>
            <polygon id="Path" fill="#9E9E9E" points="7.75862069 42.7586207 15.9655172 47.2068966 16.6206897 59.8965517 8.75862069 54.9655172"></polygon>
            <polygon id="Path" fill="#424242" points="4.96551724 40.9310345 7.03448276 42.2413793 7.06896552 44.8275862 5.06896552 43.6206897"></polygon>
            <polygon id="Path" fill="#9E9E9E" points="21.2068966 67.3448276 23.5517241 68.7931034 25.5172414 67.7241379 36.9310345 74.862069 37 96.3793103 22.0344828 85.8275862"></polygon>
            <polygon id="Path" fill="#9E9E9E" points="9 57.2413793 16.7931034 62.0344828 17.0689655 64.7241379 19.5517241 66.2758621 20.3448276 84.7241379 10.3103448 77.3793103"></polygon>
            <polygon id="Path" fill="#9E9E9E" points="1.03448276 52.137931 7.51724138 56.1034483 8.82758621 76.4482759 2.86206897 72.2068966"></polygon>
            <polygon id="Path" fill="#424242" points="39.0344828 26.9310345 44.7241379 24.3793103 44.4482759 42.4137931 39.0344828 45.1724138"></polygon>
            <polygon id="Path" fill="#424242" points="45.5517241 28.9310345 55.4137931 24.6896552 55.1724138 34.6896552 45.4482759 39.4827586"></polygon>
            <polygon id="Path" fill="#424242" points="69.5517241 21.5172414 74.4482759 19.2758621 73.2413793 36.5517241 68.4827586 39.0689655"></polygon>
            <polygon id="Path" fill="#424242" points="24.2068966 51.8275862 36.3448276 45.862069 38.137931 46.7241379 41.5517241 45.0344828 41.6206897 57.862069 24.7931034 66.9655172"></polygon>
            <polygon id="Path" fill="#9E9E9E" points="55.3793103 48.1724138 66.6896552 42.137931 65.9310345 56.6206897 54.7586207 63.137931"></polygon>
            <polygon id="Path" fill="#9E9E9E" points="38.9655172 74.7931034 52.7241379 66.7586207 52.0344828 87.8275862 38.7586207 96.7241379"></polygon>
            <polygon id="Path" fill="#9E9E9E" points="54.5517241 65.4137931 65.6551724 58.862069 64.4137931 79.6551724 53.7241379 86.7931034"></polygon>
            <polygon id="Path" fill="#9E9E9E" points="67.2758621 57.8965517 76.3448276 52.6206897 74.5517241 72.9655172 65.9310345 78.4827586"></polygon>
        </g>
    </g>
</svg>