<?xml version="1.0" encoding="UTF-8"?>
<svg width="100px" height="100px" viewBox="0 0 100 100" version="1.1" xmlns="http://www.w3.org/2000/svg" xmlns:xlink="http://www.w3.org/1999/xlink">
    <title>mirror_5_1</title>
    <g id="Mirror" stroke="none" stroke-width="1" fill="none" fill-rule="evenodd">
        <g id="mirror_5_1" fill-rule="nonzero">
            <polygon id="Path" fill="#000000" points="0.186046512 26.547619 12.3023256 21.9047619 11.9534884 14.3333333 20.9302326 11.0952381 21 8.92857143 45.7209302 0.166666667 74.627907 11.7142857 77.5116279 10.4285714 98.4418605 18.3333333 97.8139535 28.1428571 88.0465116 33.6190476 85.3023256 70.6428571 43.1627907 98.5238095 4.58139535 69.7380952"></polygon>
            <polygon id="Path" fill="#9E9E9E" points="33.2790698 30.5714286 49.2790698 23.5 68.3023256 32.3809524 52.0930233 40.5238095"></polygon>
            <polygon id="Path" fill="#9E9E9E" points="65.1162791 16.7857143 77.3488372 21.8333333 64.3023256 28.0714286 51.4418605 22.547619"></polygon>
            <polygon id="Path" fill="#9E9E9E" points="66.6976744 15.8095238 77.627907 11.2142857 96.4186047 18.4761905 85.9767442 23.7380952"></polygon>
            <polygon id="Path" fill="#9E9E9E" points="52.0465116 9.5952381 60.1395349 6.45238095 72.8139535 11.6666667 64.7906977 15.047619"></polygon>
            <polygon id="Path" fill="#9E9E9E" points="50.2093023 10.4285714 62.7906977 15.7857143 49.3488372 21.547619 37.1162791 15.7380952"></polygon>
            <polygon id="Path" fill="#9E9E9E" points="15.1162791 24.4285714 35.4418605 16.5714286 47.5581395 22.4761905 27.8139535 31"></polygon>
            <polygon id="Path" fill="#9E9E9E" points="13.9302326 14.3095238 23.3488372 10.9761905 33.0697674 15.7857143 24.0930233 19.547619"></polygon>
            <polygon id="Path" fill="#9E9E9E" points="22.9069767 9.0952381 36.0465116 4.28571429 48.2093023 9.69047619 35.3953488 14.9047619"></polygon>
            <polygon id="Path" fill="#9E9E9E" points="37.5813953 3.80952381 45.7906977 0.857142857 58.255814 5.88095238 50.2325581 8.95238095"></polygon>
            <polygon id="Path" fill="#424242" points="13.0697674 16.1428571 22.0930233 20.6666667 14.372093 23.8095238 13.2790698 23.1428571"></polygon>
            <polygon id="Path" fill="#9E9E9E" points="14.0930233 26.3095238 26.4186047 32.952381 26.7906977 40.9047619 14.5813953 34"></polygon>
            <polygon id="Path" fill="#424242" points="32.1395349 32.452381 50.7906977 42.4285714 51.0697674 50.9285714 32.3023256 40.4047619"></polygon>
            <polygon id="Path" fill="#9E9E9E" points="1.02325581 28.2619048 13.1860465 35.1666667 14.4186047 51.8571429 2.62790698 44.3333333"></polygon>
            <polygon id="Path" fill="#9E9E9E" points="14.7906977 36.3809524 27.1860465 43.4047619 27.9767442 60.6666667 15.9767442 53.0238095"></polygon>
            <polygon id="Path" fill="#9E9E9E" points="29.0232558 44.6428571 40.9534884 51.7142857 41.3953488 69.4047619 29.5581395 61.5"></polygon>
            <polygon id="Path" fill="#9E9E9E" points="3.02325581 46.3571429 14.6976744 54.2142857 16.5813953 77.8333333 5.23255814 69.4761905"></polygon>
            <polygon id="Path" fill="#9E9E9E" points="16.372093 55.4285714 28.1395349 63.2857143 29.2790698 87.2857143 18.0930233 78.9761905"></polygon>
            <polygon id="Path" fill="#9E9E9E" points="29.9767442 64.452381 41.6511628 71.9761905 41.9767442 96.6428571 31.0232558 88.547619"></polygon>
            <polygon id="Path" fill="#9E9E9E" points="43.7209302 71.5238095 62.372093 60.9047619 61.9767442 85.0714286 44.0465116 96.6904762"></polygon>
            <polygon id="Path" fill="#9E9E9E" points="43.2790698 51.3809524 46.9069767 49.6666667 52.0930233 52.7380952 62.5813953 47.1666667 62.4186047 58.5 43.5581395 69.1904762"></polygon>
            <polygon id="Path" fill="#424242" points="53.3953488 42.3571429 69.7209302 34.2857143 69.6046512 42.2380952 53.3488372 50.8095238"></polygon>
            <polygon id="Path" fill="#9E9E9E" points="65.4418605 29.6904762 78.0465116 23.6666667 78.1395349 31.2142857 70.744186 34.7619048 70.7674419 32.3809524"></polygon>
            <polygon id="Path" fill="#424242" points="86.8604651 25.5 97.4651163 20.3809524 97.0232558 27.6190476 86.6744186 33.3095238"></polygon>
            <polygon id="Path" fill="#9E9E9E" points="79.4651163 32.2619048 85.5581395 34.952381 87.0465116 34.1190476 86.5348837 44.6666667 78.5813953 49.2142857"></polygon>
            <polygon id="Path" fill="#9E9E9E" points="64.744186 46.1190476 70.6046512 42.9285714 70.8604651 37.0952381 77.9302326 33.6428571 77.0232558 50.1428571 64.5348837 57.1904762"></polygon>
            <polygon id="Path" fill="#9E9E9E" points="64.2093023 59.952381 76.744186 52.7142857 75.8837209 75.8333333 63.8139535 83.7619048"></polygon>
            <polygon id="Path" fill="#9E9E9E" points="78.6511628 51.547619 86.255814 47.047619 84.6976744 70.2619048 77.255814 75.0952381"></polygon>
        </g>
    </g>
</svg>