<?xml version="1.0" encoding="UTF-8"?>
<svg width="100px" height="95px" viewBox="0 0 100 95" version="1.1" xmlns="http://www.w3.org/2000/svg" xmlns:xlink="http://www.w3.org/1999/xlink">
    <title>mirror_1</title>
    <g id="Mirror" stroke="none" stroke-width="1" fill="none" fill-rule="evenodd">
        <g id="mirror_1" fill-rule="nonzero">
            <polygon id="Path" fill="#000000" points="20.8639456 7.17687075 35.537415 2.84353741 40.4761905 4.55782313 55.1428571 0.0612244898 64.2176871 2.87755102 66.877551 2.07482993 80.877551 6.27891156 80.6598639 13.585034 99.6938776 19.7278912 97.3537415 44.0612245 86.0748299 50.3673469 78.952381 47.1428571 78.7687075 51.3061224 83.2721088 53.0884354 82.5646259 64.0408163 78.3469388 66.2789116 77.2857143 85.4761905 64.3877551 94.0884354 57.0544218 89.4285714 54.5034014 90.9659864 39.0204082 80.952381 36.3401361 82.5510204 34.2653061 81.2517007 18.7823129 89.7891156 6.67346939 80.8503401 4.36054422 57.8639456 13.4285714 54.2312925 13.2040816 50.3129252 1.50340136 43.7278912 0.0612244898 31.122449 21.755102 23.5646259"></polygon>
            <polygon id="Path" fill="#9E9E9E" points="36.6394558 12.5714286 49.2312925 8.25170068 61.9183673 12.6734694 48.8231293 17.3945578"></polygon>
            <polygon id="Path" fill="#424242" points="48.9727891 38.4081633 57.2993197 42.1088435 45.3197279 47.8503401 37.0952381 43.5306122"></polygon>
            <polygon id="Path" fill="#9E9E9E" points="63.6462585 13.2312925 75.7278912 17.4421769 62.829932 22.5714286 50.5510204 18"></polygon>
            <polygon id="Path" fill="#424242" points="75.9795918 12.6734694 97.6530612 19.9319728 87.4013605 24.292517 77.8027211 21.047619 77.8367347 17.3469388 70.3129252 14.7619048"></polygon>
            <polygon id="Path" fill="#9E9E9E" points="66.7891156 2.61904762 79.0272109 6.27210884 63.8435374 11.8095238 51.5102041 7.74829932"></polygon>
            <polygon id="Path" fill="#9E9E9E" points="25.3197279 16.170068 34.6122449 13.2312925 46.8911565 18 37.2993197 21.4489796"></polygon>
            <polygon id="Path" fill="#424242" points="2.12244898 31.047619 23.6462585 23.585034 24.1020408 31.1496599 11.0068027 35.9183673"></polygon>
            <polygon id="Path" fill="#9E9E9E" points="35.4693878 3.38095238 47.5510204 7.74829932 34.6122449 12.0612245 22.829932 7.34013605"></polygon>
            <polygon id="Path" fill="#424242" points="42.2244898 4.65306122 55.0136054 0.639455782 62.4285714 2.92517007 49.3809524 7.13605442"></polygon>
            <polygon id="Path" fill="#424242" points="35.7755102 45.1564626 44.047619 49.2653061 44.1496599 56.7823129 35.9319728 52.414966"></polygon>
            <polygon id="Path" fill="#9E9E9E" points="24.1496599 17.8503401 36.2857143 22.8231293 37.1972789 42.5646259 35 43.3129252 34.952381 48.5578231 25.7278912 43.6326531"></polygon>
            <polygon id="Path" fill="#424242" points="0.952380952 32.6190476 10.0408163 37.4897959 10.952381 48.2040816 2.12244898 42.9251701"></polygon>
            <polygon id="Path" fill="#424242" points="42.6054422 57.0068027 45.244898 58.6326531 50.6258503 56.0204082 53.7006803 57.5918367 53.5442177 73.170068 42.7823129 66.9319728"></polygon>
            <polygon id="Path" fill="#9E9E9E" points="25.9319728 46.0680272 35.0136054 50.7414966 35.0680272 53.0952381 37.6054422 54.244898 37.8095238 67.6258503 26.6394558 61.0952381"></polygon>
            <polygon id="Path" fill="#424242" points="13.8503401 49.0136054 17.9591837 47.5442177 19.0748299 62.8231293 14.6598639 60.2312925"></polygon>
            <polygon id="Path" fill="#424242" points="36.9659864 72.4897959 53.5918367 82.6190476 53.5646259 89.244898 37.0952381 78.6802721"></polygon>
            <polygon id="Path" fill="#424242" points="23.8503401 64.5442177 34.8639456 71.1972789 35.2721088 80.8911565 24.4081633 73.7346939"></polygon>
            <polygon id="Path" fill="#424242" points="5.21768707 59.8231293 16.0816327 66.829932 17.6054422 88.1020408 7.45578231 80.6870748"></polygon>
            <polygon id="Path" fill="#424242" points="46.1292517 49.4217687 58.3673469 43.8367347 58.2108844 51.047619 46.3877551 56.7278912"></polygon>
            <polygon id="Path" fill="#9E9E9E" points="63.8979592 24.1428571 76.7891156 19.170068 75.3673469 45.3605442 63.1836735 51.244898"></polygon>
            <polygon id="Path" fill="#424242" points="88.6190476 26.122449 98.462585 21.8095238 96.585034 43.5306122 86.9387755 48.5102041"></polygon>
            <polygon id="Path" fill="#424242" points="55.7278912 57.6938776 61.3061224 54.9047619 61.1564626 70.4353741 55.6734694 73.3265306"></polygon>
            <polygon id="Path" fill="#9E9E9E" points="63.3401361 53.7891156 75.4693878 47.6938776 74.7619048 62.8231293 62.8843537 69.4217687"></polygon>
            <polygon id="Path" fill="#424242" points="76.3333333 46.122449 78.1088435 46.9319728 77.7006803 55.0544218 75.9251701 56.0204082"></polygon>
            <polygon id="Path" fill="#424242" points="55.5714286 82.5646259 66.9931973 75.9183673 66.8435374 82.3129252 55.5238095 89.1156463"></polygon>
            <polygon id="Path" fill="#424242" points="67.9591837 74.0884354 66.3129252 73.292517 77.244898 66.7823129 76.3333333 85.2585034 65.3401361 92.3333333 65.3673469 84.5238095 67.8027211 83.0748299"></polygon>
            <polygon id="Path" fill="#424242" points="75.6734694 58.2517007 82.2244898 54.7006803 81.6326531 63.6938776 78.5170068 65.2040816 75.5714286 63.585034"></polygon>
        </g>
    </g>
</svg>