<?xml version="1.0" encoding="UTF-8"?>
<svg width="84px" height="100px" viewBox="0 0 84 100" version="1.1" xmlns="http://www.w3.org/2000/svg" xmlns:xlink="http://www.w3.org/1999/xlink">
    <title>mirror_3_1</title>
    <g id="Mirror" stroke="none" stroke-width="1" fill="none" fill-rule="evenodd">
        <g id="mirror_3_1" fill-rule="nonzero">
            <polygon id="Path" fill="#000000" points="14.8333333 4.42666667 28.8533333 0.153333333 40.8133333 4.46666667 52.56 0.626666667 58.64 2.82666667 58.5333333 12.4733333 64.74 10 72.0933333 12.54 71.6866667 23.2333333 75.1666667 24.6133333 73.9533333 47.1 83.74 51.74 81.9066667 74.2933333 44.1333333 99.4333333 7.97333333 73.46 6.04666667 51.3666667 13.02 48.2466667 13.04 46.3666667 10.1266667 44.7933333 9.48 34.7066667 0.766666667 30.0866667 0.153333333 21.8066667 13.3733333 17.3266667 15.5866667 18.3266667"></polygon>
            <polygon id="Path" fill="#424242" points="41.9266667 30.7866667 49.8133333 34.7066667 38.3 40.0933333 30.12 35.9266667"></polygon>
            <polygon id="Path" fill="#424242" points="43.8866667 22.8466667 56.04 17.8 73.4333333 24.76 61.0866667 30.1933333"></polygon>
            <polygon id="Path" fill="#424242" points="57.36 13.5866667 64.86 10.6 70.54 12.5066667 63.14 15.74"></polygon>
            <polygon id="Path" fill="#424242" points="43.64 15.4933333 48.98 13.6333333 55.7933333 16.1333333 55.6266667 17.0666667 51.9733333 18.6333333"></polygon>
            <polygon id="Path" fill="#424242" points="42.32 19.3666667 45.8933333 20.9333333 41.56 22.74 41.68 26.4733333 33.5466667 22.8"></polygon>
            <polygon id="Path" fill="#424242" points="16.5933333 25.8333333 28.3066667 21.2266667 39.62 26.5666667 27.9133333 31.3733333"></polygon>
            <polygon id="Path" fill="#424242" points="13.26 18.0933333 23.5533333 22.4533333 14.9 25.74 14.88 28.38 1.94666667 21.8666667"></polygon>
            <polygon id="Path" fill="#424242" points="16.5933333 4.47333333 28.8933333 0.7 40.4066667 4.96 27.96 9.22666667"></polygon>
            <polygon id="Path" fill="#424242" points="42.1733333 4.72 52.6066667 1.18666667 57.1666667 2.90666667 42.2666667 8"></polygon>
            <polygon id="Path" fill="#424242" points="28.9933333 37.4 37.0733333 41.4666667 37.22 48.7133333 29.04 44.4533333"></polygon>
            <polygon id="Path" fill="#424242" points="15.96 27.5 27.0333333 32.94 27.3733333 43.52 16.3 37.5933333"></polygon>
            <polygon id="Path" fill="#424242" points="0.913333333 23.3333333 14.2933333 30.1 14.6333333 36.6666667 1.45333333 29.6066667"></polygon>
            <polygon id="Path" fill="#424242" points="22.82 49.5 28.06 52.4866667 28.7 67.9733333 23.7 64.6866667"></polygon>
            <polygon id="Path" fill="#424242" points="13.5533333 41.2666667 24.0933333 46.8533333 22.0133333 47.9266667 22.7666667 60.8666667 14.4866667 55.6733333"></polygon>
            <polygon id="Path" fill="#424242" points="10.2733333 35.24 15.5133333 38.1333333 12.6533333 39.4133333 12.92 45.4333333 10.86 44.2066667"></polygon>
            <polygon id="Path" fill="#424242" points="27.2733333 68.12 29.5333333 69.7266667 31.9 68.52 43.1533333 75.86 43.1533333 97.86 28.0133333 86.8866667"></polygon>
            <polygon id="Path" fill="#424242" points="14.8333333 58.0266667 22.7466667 62.9533333 22.88 65.3533333 25.4133333 66.9466667 26.2466667 85.8066667 16.1533333 78.4066667"></polygon>
            <polygon id="Path" fill="#424242" points="6.84666667 52.9333333 13.1666667 56.9466667 14.5866667 77.38 8.60666667 73.12"></polygon>
            <polygon id="Path" fill="#424242" points="39.0866667 41.4666667 50.7933333 36.0266667 50.8933333 43.2266667 39.2333333 48.8133333"></polygon>
            <polygon id="Path" fill="#9E9E9E" points="62.3066667 31.76 74.46 26.2266667 73.6266667 40.2866667 61.7733333 46.3666667"></polygon>
            <polygon id="Path" fill="#424242" points="63.7333333 17.0133333 71.2733333 14.0733333 70.98 23.14 63.88 20.2466667"></polygon>
            <polygon id="Path" fill="#424242" points="30.2133333 52.54 36.44 49.4866667 38.18 50.4466667 47.7533333 45.68 47.7066667 58.7133333 30.7533333 67.8733333"></polygon>
            <polygon id="Path" fill="#9E9E9E" points="61.72 48.7133333 73.3333333 42.64 72.4533333 57.44 61.1333333 63.9066667"></polygon>
            <polygon id="Path" fill="#424242" points="44.9133333 75.7133333 59.0733333 67.58 58.3866667 89.04 45.0133333 97.9133333"></polygon>
            <polygon id="Path" fill="#9E9E9E" points="60.9866667 66.5533333 72.3066667 59.4 71.08 80.4666667 60.2533333 87.6666667"></polygon>
            <polygon id="Path" fill="#424242" points="73.8733333 58.8066667 82.8866667 53.32 81.0733333 74 72.6 79.3866667"></polygon>
        </g>
    </g>
</svg>