<?xml version="1.0" encoding="UTF-8"?>
<svg width="80px" height="100px" viewBox="0 0 80 100" version="1.1" xmlns="http://www.w3.org/2000/svg" xmlns:xlink="http://www.w3.org/1999/xlink">
    <title>mirror_4_1</title>
    <g id="Mirror" stroke="none" stroke-width="1" fill="none" fill-rule="evenodd">
        <g id="mirror_4_1" fill-rule="nonzero">
            <polygon id="Path" fill="#000000" points="0.155555556 35.1333333 12.2888889 30.5555556 11.9333333 24.4666667 16.6444444 22.8444444 16.5333333 18.8888889 29.7555556 14.3555556 32.1111111 15.2888889 31.6 2.13333333 38.1555556 0.155555556 51.4 4.68888889 51.5333333 8.22222222 59.9777778 11.1555556 65 9.33333333 78.1555556 13.8222222 76.8 34.6444444 79 35.6 76.1555556 73.5777778 38.5333333 97.9111111 4.08888889 72.7777778"></polygon>
            <polygon id="Path" fill="#424242" points="29.2888889 34.9777778 44.0444444 28.8444444 49.6 31.2888889 34.6 37.5555556"></polygon>
            <polygon id="Path" fill="#9E9E9E" points="58.1333333 26.6222222 66.1555556 29.9111111 54.4666667 35.1777778 51.4222222 34.0222222 51.2666667 31.2222222 49.4 30.1333333"></polygon>
            <polygon id="Path" fill="#424242" points="60.0222222 11.8222222 65.0222222 9.93333333 76.2888889 13.8444444 71.4888889 15.9333333"></polygon>
            <polygon id="Path" fill="#424242" points="46.3111111 10.3555556 51.4444444 8.75555556 58.2666667 11.2444444 58.0444444 14.7555556"></polygon>
            <polygon id="Path" fill="#9E9E9E" points="44.8222222 21.0666667 56.0666667 25.7333333 47.5333333 29.6 44.3333333 28.1777778 44.2444444 24.4888889 40.4666667 22.8666667"></polygon>
            <polygon id="Path" fill="#424242" points="25.6222222 21.5555556 31.1111111 19.5333333 42.3555556 24.4888889 36.8222222 26.6"></polygon>
            <polygon id="Path" fill="#424242" points="13.6 24.5555556 24.9777778 20.3555556 25.8666667 20.7777778 23.8888889 21.6444444 24.0222222 24.5777778 18.0444444 26.7555556"></polygon>
            <polygon id="Path" fill="#9E9E9E" points="18.3777778 18.9555556 29.6666667 15.1333333 43.1777778 20.5333333 39.0444444 22.2222222 31.2666667 18.7555556 26.9111111 20.4444444 25.2444444 19.8 22.0444444 20.9333333"></polygon>
            <polygon id="Path" fill="#424242" points="33.2 2.22222222 38.0888889 0.622222222 49.7333333 4.66666667 44.7111111 6.33333333"></polygon>
            <polygon id="Path" fill="#424242" points="12.5777778 25.9555556 17.2888889 28.1555556 17.8 38.2 13.3555556 35.8222222"></polygon>
            <polygon id="Path" fill="#424242" points="24.7555556 23.0888889 35.8444444 28.0666667 35.9333333 31.4444444 27.6222222 34.8666667 27.5555556 37.8 25.2222222 36.4444444"></polygon>
            <polygon id="Path" fill="#424242" points="28.3555556 36.4666667 33.6666667 39.0666667 34.0222222 50.0666667 28.7555556 47.1111111"></polygon>
            <polygon id="Path" fill="#9E9E9E" points="0.911111111 36.6222222 11.7555556 42.6444444 12.8666667 57.2 2.35555556 50.6444444"></polygon>
            <polygon id="Path" fill="#9E9E9E" points="13.2222222 43.7111111 24.2666667 49.8444444 24.9777778 64.8888889 14.2666667 58.2222222"></polygon>
            <polygon id="Path" fill="#9E9E9E" points="25.9111111 50.8888889 36.5777778 57.0666667 36.9555556 72.5111111 26.3777778 65.6"></polygon>
            <polygon id="Path" fill="#9E9E9E" points="2.68888889 52.4 13.1111111 59.2444444 14.8 79.8444444 4.66666667 72.5555556"></polygon>
            <polygon id="Path" fill="#9E9E9E" points="14.6 60.3111111 25.1333333 67.1555556 26.1555556 88.0888889 16.1555556 80.8666667"></polygon>
            <polygon id="Path" fill="#9E9E9E" points="26.7777778 68.1777778 37.2 74.7333333 37.4888889 96.2444444 27.6888889 89.2"></polygon>
            <polygon id="Path" fill="#9E9E9E" points="39.0222222 74.3555556 55.6888889 65.0888889 55.3555556 86.1555556 39.3111111 96.2888889"></polygon>
            <polygon id="Path" fill="#9E9E9E" points="38.6444444 56.7777778 55.8666667 47.9777778 55.7333333 63 38.8888889 72.3111111"></polygon>
            <polygon id="Path" fill="#424242" points="35.6444444 39.1111111 50.2666667 32.8888889 50.4222222 43.1333333 36.0888889 49.8222222"></polygon>
            <polygon id="Path" fill="#424242" points="55.4 36.6222222 67.0666667 31.2 66.8888889 37.8 55.4 43.6"></polygon>
            <polygon id="Path" fill="#424242" points="72.3333333 17.3777778 77.2222222 15.4222222 76 35.7777778 71.2444444 38.2666667"></polygon>
            <polygon id="Path" fill="#9E9E9E" points="71 40.3555556 78.2444444 36.9111111 77.2444444 50.9333333 70.1555556 54.8888889"></polygon>
            <polygon id="Path" fill="#9E9E9E" points="57.7555556 47.0888889 69.5777778 41.3111111 68.7555556 55.7111111 57.6222222 61.8444444"></polygon>
            <polygon id="Path" fill="#9E9E9E" points="57.3333333 64.2666667 68.5111111 57.9333333 67.7555556 78.1111111 56.9777778 85.0222222"></polygon>
            <polygon id="Path" fill="#9E9E9E" points="70.2222222 56.9333333 77.0222222 53 75.6222222 73.2444444 68.9777778 77.4444444"></polygon>
        </g>
    </g>
</svg>