<?xml version="1.0" encoding="UTF-8"?>
<svg width="84px" height="100px" viewBox="0 0 84 100" version="1.1" xmlns="http://www.w3.org/2000/svg" xmlns:xlink="http://www.w3.org/1999/xlink">
    <title>mirror_2_2</title>
    <g id="Mirror" stroke="none" stroke-width="1" fill="none" fill-rule="evenodd">
        <g id="mirror_2_2" fill-rule="nonzero">
            <polygon id="Path" fill="#000000" points="3.43548387 3.96774194 14.0645161 0.903225806 27.3387097 5.93548387 27.4516129 12.1935484 30.8870968 10.983871 35.3225806 12.8225806 41.5645161 10.3548387 41.6612903 4.90322581 55.7096774 0.161290323 69.016129 4.5 68.5483871 13.3709677 80.8225806 17.7419355 79.5967742 37.4516129 73.6774194 40.3225806 83.6935484 44.9193548 81.9193548 63.483871 71.3387097 70.4032258 70.5806452 80.4354839 43.5322581 98.4354839 14.9354839 78.0967742 13.9516129 63.1451613 1.12903226 54.6612903 0.161290323 44.516129 9.12903226 40.6935484 8.16129032 31.2741935 5.5 29.7258065"></polygon>
            <polygon id="Path" fill="#424242" points="41.0806452 19.4354839 49.2419355 23.0322581 43.3709677 25.3064516 35.0645161 21.6774194"></polygon>
            <polygon id="Path" fill="#424242" points="42.9354839 18.7580645 55.1129032 14 63.4032258 17.2096774 51.0806452 22.2580645"></polygon>
            <polygon id="Path" fill="#424242" points="61.7580645 11.4354839 79.1774194 17.7419355 74.2741935 19.9193548 56.7096774 13.4677419"></polygon>
            <polygon id="Path" fill="#424242" points="9.5 24.2419355 27.6451613 17.6451613 35.1612903 20.9354839 33.3064516 21.6129032 33.3225806 25.016129 20.6129032 29.8225806"></polygon>
            <polygon id="Path" fill="#424242" points="43.4193548 4.93548387 55.7419355 0.758064516 67.2903226 4.5 54.8709677 9.16129032"></polygon>
            <polygon id="Path" fill="#424242" points="5.32258065 4.16129032 13.8709677 1.58064516 25.4193548 6 16.7741935 8.85483871"></polygon>
            <polygon id="Path" fill="#424242" points="30.6612903 11.6290323 39.7741935 15.3709677 31.4354839 18.4677419 27.8870968 16.9677419 27.6774194 12.6774194"></polygon>
            <polygon id="Path" fill="#424242" points="41.5806452 11 41.6290323 15.2741935 36.1935484 13.0806452"></polygon>
            <polygon id="Path" fill="#424242" points="34.3387097 23.5645161 42.5967742 27.0645161 42.6451613 45.2580645 34.5806452 41.0806452"></polygon>
            <polygon id="Path" fill="#424242" points="8.58064516 25.8387097 19.7903226 31.3709677 20.516129 45.8870968 9.64516129 39.7741935"></polygon>
            <polygon id="Path" fill="#424242" points="4.35483871 5.9516129 15.7096774 10.3225806 16.3870968 20.8870968 7.66129032 24.1774194 7.96774194 30.0483871 6.20967742 29.0967742"></polygon>
            <polygon id="Path" fill="#424242" points="22.3064516 49.0806452 27.5483871 52 28.0806452 67.2741935 23.0806452 64.0806452"></polygon>
            <polygon id="Path" fill="#9E9E9E" points="13.0967742 42.8709677 21.3387097 47.3870968 22.1129032 60.0483871 14.0645161 55.0967742"></polygon>
            <polygon id="Path" fill="#424242" points="10.0322581 41.0322581 12.2258065 42.2903226 12.4677419 45.0645161 10.4193548 43.6935484"></polygon>
            <polygon id="Path" fill="#9E9E9E" points="26.6774194 67.516129 29.0967742 68.8870968 31.1290323 67.7258065 42.4516129 74.9032258 42.5 96.7258065 27.3548387 86.1451613"></polygon>
            <polygon id="Path" fill="#9E9E9E" points="14.1612903 57.1451613 22.1451613 62.2741935 22.2741935 64.5 24.8870968 66.1612903 25.6129032 84.8387097 15.6129032 77.8064516"></polygon>
            <polygon id="Path" fill="#424242" points="0.870967742 45.8387097 13.0967742 53.0645161 13.6774194 62.1290323 1.69354839 54.1774194"></polygon>
            <polygon id="Path" fill="#424242" points="44.4354839 27.0645161 50.3548387 24.5806452 50.2096774 42.483871 44.5322581 45.3548387"></polygon>
            <polygon id="Path" fill="#424242" points="52.0967742 23.8064516 64.1774194 18.7580645 63.5967742 35.983871 51.9032258 41.6129032"></polygon>
            <polygon id="Path" fill="#424242" points="75.1935484 21.5322581 80 19.2419355 78.8870968 36.8064516 73.983871 39.0967742"></polygon>
            <polygon id="Path" fill="#424242" points="29.4354839 51.8548387 41.8225806 46.0322581 43.4354839 46.9354839 47.0483871 45.2580645 47 58.0645161 30.1290323 67.0322581"></polygon>
            <polygon id="Path" fill="#9E9E9E" points="60.7419355 48.3064516 72.2419355 42.2419355 71.516129 56.8548387 60.3548387 63.3064516"></polygon>
            <polygon id="Path" fill="#9E9E9E" points="44.3870968 75.0967742 58.2096774 66.8870968 57.5322581 88.2419355 44.3387097 96.9677419"></polygon>
            <polygon id="Path" fill="#9E9E9E" points="59.9677419 65.6290323 71.1129032 59.0322581 69.9516129 79.8870968 59.2741935 86.983871"></polygon>
            <polygon id="Path" fill="#424242" points="72.483871 52.1451613 82.7580645 46.2741935 81.2096774 63.2096774 71.4193548 69.6129032"></polygon>
        </g>
    </g>
</svg>