<?xml version="1.0" encoding="UTF-8"?>
<svg width="87px" height="100px" viewBox="0 0 87 100" version="1.1" xmlns="http://www.w3.org/2000/svg" xmlns:xlink="http://www.w3.org/1999/xlink">
    <title>mirror_3</title>
    <g id="Mirror" stroke="none" stroke-width="1" fill="none" fill-rule="evenodd">
        <g id="mirror_3" fill-rule="nonzero">
            <polygon id="Path" fill="#000000" points="0.160305344 35.4503817 12.3206107 30.8549618 11.4198473 18.8015267 18.6870229 16.4427481 25.9083969 19.5648855 25.8549618 15.8931298 39.9923664 11.0916031 39.8549618 4.02290076 51.4656489 0.160305344 57.8854962 2.38167939 57.9618321 5.76335878 66.4961832 8.64885496 66.3587786 12.4198473 86.2519084 19.4122137 84.7709924 39.3587786 80.7709924 41.7862595 78.2671756 74.9694656 39.5954198 99.9541985 4.20610687 74.1450382"></polygon>
            <polygon id="Path" fill="#424242" points="33.6641221 37.4732824 45.6641221 32.4656489 53.7938931 36.3206107 41.8931298 41.778626"></polygon>
            <polygon id="Path" fill="#424242" points="59.7480916 26.7099237 67.9770992 30.0839695 55.9770992 35.5114504 47.1984733 31.8549618"></polygon>
            <polygon id="Path" fill="#424242" points="61.6793893 15.1679389 66.9160305 13.1755725 84.5954198 19.5801527 79.3664122 21.6335878"></polygon>
            <polygon id="Path" fill="#424242" points="47.9923664 6.42748092 52.8015267 4.59541985 64.7328244 8.72519084 59.9465649 10.6564885"></polygon>
            <polygon id="Path" fill="#424242" points="46.0610687 21.0076336 57.6183206 25.8091603 45.2671756 30.9618321 34.0534351 25.778626"></polygon>
            <polygon id="Path" fill="#424242" points="16.9465649 32.3206107 32.519084 26.5114504 43.6335878 31.8091603 28.5038168 38.2061069"></polygon>
            <polygon id="Path" fill="#424242" points="12.9312977 18.9770992 18.7328244 16.9923664 30.389313 22.1374046 24.5877863 24.221374"></polygon>
            <polygon id="Path" fill="#424242" points="27.7633588 15.9541985 39.8625954 11.6870229 44.5725191 13.5572519 32.3282443 17.9312977"></polygon>
            <polygon id="Path" fill="#424242" points="41.5954198 3.97709924 51.5419847 0.702290076 56 2.3740458 46.3358779 5.81679389"></polygon>
            <polygon id="Path" fill="#424242" points="12.4885496 20.2671756 23.778626 25.6641221 23.8396947 28.7938931 16.351145 31.8091603 13.0763359 29.9694656"></polygon>
            <polygon id="Path" fill="#424242" points="16.3053435 33.7022901 27.7099237 39.8549618 27.7633588 46.7328244 16.7480916 40.7862595"></polygon>
            <polygon id="Path" fill="#424242" points="32.7175573 39.0610687 40.9007634 43.2290076 40.9541985 50.7022901 32.7709924 46.3358779"></polygon>
            <polygon id="Path" fill="#9E9E9E" points="0.93129771 36.9770992 12.0916031 43.1755725 13.2290076 58.1450382 2.41984733 51.3969466"></polygon>
            <polygon id="Path" fill="#9E9E9E" points="13.5725191 44.2671756 24.9312977 50.5648855 25.6793893 66.0305344 14.6641221 59.1832061"></polygon>
            <polygon id="Path" fill="#9E9E9E" points="26.6183206 51.6564885 37.5801527 58.0076336 37.9770992 73.8625954 27.1145038 66.7709924"></polygon>
            <polygon id="Path" fill="#9E9E9E" points="2.76335878 53.1984733 13.4732824 60.2366412 15.2137405 81.4045802 4.80152672 73.9160305"></polygon>
            <polygon id="Path" fill="#9E9E9E" points="15.0152672 61.3282443 25.8244275 68.3740458 26.870229 89.8778626 16.6030534 82.4427481"></polygon>
            <polygon id="Path" fill="#9E9E9E" points="27.5114504 69.4122137 38.221374 76.1603053 38.519084 98.259542 28.4503817 91.0229008"></polygon>
            <polygon id="Path" fill="#9E9E9E" points="40.1068702 75.7633588 57.221374 66.2366412 56.870229 87.9007634 40.4045802 98.3129771"></polygon>
            <polygon id="Path" fill="#9E9E9E" points="39.7099237 57.7099237 57.4198473 48.6717557 57.2671756 64.0916031 39.9618321 73.6641221"></polygon>
            <polygon id="Path" fill="#424242" points="42.9389313 43.3740458 54.6412214 37.870229 54.6412214 45 42.9847328 50.7557252"></polygon>
            <polygon id="Path" fill="#424242" points="56.9236641 36.9770992 68.9236641 31.4274809 68.7251908 38.2061069 56.9236641 44.1526718"></polygon>
            <polygon id="Path" fill="#424242" points="80.4274809 23.1679389 85.3129771 21.1068702 84 38.8015267 79.3587786 41.2519084"></polygon>
            <polygon id="Path" fill="#9E9E9E" points="72.9160305 40.5725191 78.5038168 42.9770992 79.8549618 42.2366412 79.389313 51.6946565 72.0992366 55.7633588"></polygon>
            <polygon id="Path" fill="#9E9E9E" points="59.351145 47.740458 71.5038168 41.8015267 70.6564885 56.6030534 59.1984733 62.9007634"></polygon>
            <polygon id="Path" fill="#9E9E9E" points="58.9083969 65.3969466 70.4122137 58.9007634 69.6183206 79.6183206 58.5572519 86.7328244"></polygon>
            <polygon id="Path" fill="#9E9E9E" points="72.1679389 57.8549618 79.1374046 53.8167939 77.7022901 74.6335878 70.8778626 78.9465649"></polygon>
        </g>
    </g>
</svg>