<?xml version="1.0" encoding="UTF-8"?>
<svg width="96px" height="101px" viewBox="0 0 96 101" version="1.1" xmlns="http://www.w3.org/2000/svg" xmlns:xlink="http://www.w3.org/1999/xlink">
    <title>mirror_1_5</title>
    <g id="Mirror" stroke="none" stroke-width="1" fill="none" fill-rule="evenodd">
        <g id="mirror_1_5" transform="translate(0.000000, 0.557823)" fill-rule="nonzero">
            <polygon id="Path" fill="#000000" points="0.16875 12.9875 14.39375 8.71875 22.21875 11.54375 22.05 7.575 46.875 0.16875 58.9125 3.96875 64.53125 2.1875 79.1125 6.775 78.98125 10.35 91.875 14.5625 89.475 43.8125 86.94375 44.85 86.39375 52.91875 95.525 57.11875 93.3125 80.8 77.95 90.75 68.05625 85.33125 67.70625 94.9875 60.36875 99.6 42.0125 87.7125 38.85 89.3125 26.13125 80.8625 25.66875 74.14375 2.275 59.1125 0.64375 41.825 7.05625 39.4125 2.4625 36.7875"></polygon>
            <polygon id="Path" fill="#424242" points="48.875 38.83125 63.84375 45.76875 54.65 50.2875 39.625 42.775"></polygon>
            <polygon id="Path" fill="#9E9E9E" points="50.60625 17.7625 64.05625 12.825 83.18125 19.55 70.04375 25.225"></polygon>
            <polygon id="Path" fill="#9E9E9E" points="64.425 2.58125 77.1875 6.68125 63.9 11.4625 51.13125 7.15"></polygon>
            <polygon id="Path" fill="#9E9E9E" points="35.7375 12.0375 49.1875 7.68125 62.00625 12.19375 48.1875 16.975"></polygon>
            <polygon id="Path" fill="#9E9E9E" points="33.6875 12.775 46.4 17.6625 36.58125 21.2875 24.2875 15.98125"></polygon>
            <polygon id="Path" fill="#424242" points="2.43125 12.9875 14.5125 9.30625 27.375 14.1625 22.4125 15.69375 22.34375 19.34375 19.1875 20.3375"></polygon>
            <polygon id="Path" fill="#9E9E9E" points="23.7625 7.78125 37.05 3.7375 47.50625 7.15 34.2125 11.4625"></polygon>
            <polygon id="Path" fill="#424242" points="39.05 3.05625 47.03125 0.74375 57.175 4 49.1875 6.575"></polygon>
            <polygon id="Path" fill="#424242" points="38.41875 44.35 53.49375 51.8625 53.55 59.5875 38.68125 51.9125"></polygon>
            <polygon id="Path" fill="#424242" points="23.44375 17.925 35.63125 22.9125 36.58125 50.44375 24.8125 44.35"></polygon>
            <polygon id="Path" fill="#424242" points="1.325 14.6125 18.03125 22.075 19.50625 44.6125 3.375 36.05"></polygon>
            <polygon id="Path" fill="#424242" points="42.15 54.90625 50.45 59.21875 50.65625 73.3 42.25 68.61875"></polygon>
            <polygon id="Path" fill="#424242" points="21.86875 48.5 33.58125 54.64375 34.00625 70.725 22.7625 63.63125"></polygon>
            <polygon id="Path" fill="#424242" points="1.64375 43.6125 13.30625 50.3375 14.3 65.73125 3.1125 58.69375"></polygon>
            <polygon id="Path" fill="#424242" points="42.4625 71.0375 59.64375 80.96875 59.325 97.675 42.725 87.00625"></polygon>
            <polygon id="Path" fill="#424242" points="26.175 67.15 34.9875 72.46875 37.2625 71.40625 37.8375 87.5875 27.01875 80.2875"></polygon>
            <polygon id="Path" fill="#424242" points="21.86875 64.3125 25.23125 66.51875 25.70625 73.24375 16.14375 67.1"></polygon>
            <polygon id="Path" fill="#424242" points="55.75625 51.9125 64.95 47.45 64.84375 55.06875 55.7 59.74375"></polygon>
            <polygon id="Path" fill="#9E9E9E" points="71.25625 27.0125 84.3875 21.49375 82.8625 48.7125 70.1 55.4375"></polygon>
            <polygon id="Path" fill="#424242" points="74.25 9.25625 89.8 14.45625 82.23125 17.7125 66.10625 12.25"></polygon>
            <polygon id="Path" fill="#424242" points="83.96875 18.81875 90.8 16.03125 88.90625 42.45625 84.01875 45.1375 85.56875 19.65"></polygon>
            <polygon id="Path" fill="#424242" points="52.44375 60.31875 54.6 61.53125 58.38125 59.48125 58.16875 70.35625 52.5 73.45625"></polygon>
            <polygon id="Path" fill="#9E9E9E" points="70.1 58.0625 82.44375 51.65 81.55 67.51875 69.25625 74.35"></polygon>
            <polygon id="Path" fill="#424242" points="83.75625 46.60625 86.225 45.24375 85.8875 52.01875 83.41875 53.625"></polygon>
            <polygon id="Path" fill="#424242" points="61.74375 81.23125 67.41875 77.65625 66.89375 94.68125 61.43125 97.9875"></polygon>
            <polygon id="Path" fill="#424242" points="68.51875 76.13125 78.1375 70.40625 77.925 74.29375 68.3625 80.075"></polygon>
            <polygon id="Path" fill="#424242" points="82.65625 65.46875 94.36875 59.0625 92.6375 80.3375 78.76875 89.21875 80 69.4125 82.55625 67.925"></polygon>
        </g>
    </g>
</svg>