<?xml version="1.0" encoding="UTF-8"?>
<svg width="100px" height="100px" viewBox="0 0 100 100" version="1.1" xmlns="http://www.w3.org/2000/svg" xmlns:xlink="http://www.w3.org/1999/xlink">
    <title>mirror_4</title>
    <g id="Mirror" stroke="none" stroke-width="1" fill="none" fill-rule="evenodd">
        <g id="mirror_4" fill-rule="nonzero">
            <polygon id="Path" fill="#000000" points="0.174193548 28.4276316 7.81935484 25.4868421 7.54193548 20.2171053 38.116129 8.77631579 38.1483871 6.63815789 55.7870968 0.177631579 67.683871 4.70394737 67.7419355 8.71710526 76.9290323 12.4736842 82.2774194 9.98684211 99.8193548 16.4473684 98.9677419 26.0592105 87.6903226 32.0328947 84.8645161 72.125 42.9290323 99.75 4.55483871 71.2171053"></polygon>
            <polygon id="Path" fill="#9E9E9E" points="36.4967742 30.6644737 49.516129 25.125 58.3354839 29.3881579 45.4258065 35.4210526"></polygon>
            <polygon id="Path" fill="#9E9E9E" points="64.7870968 18.7631579 83.6064516 26.6644737 70.5419355 33.0657895 51.1806452 24.4539474"></polygon>
            <polygon id="Path" fill="#9E9E9E" points="66.9354839 17.9539474 82.1806452 10.9210526 98.1806452 16.6381579 82.2967742 24.3947368"></polygon>
            <polygon id="Path" fill="#9E9E9E" points="51.7741935 11.6381579 62.8516129 7.41447368 75.1354839 12.4736842 64.4645161 17.0263158"></polygon>
            <polygon id="Path" fill="#9E9E9E" points="49.9419355 12.4605263 62.4709677 17.7631579 49.083871 23.4671053 36.9225806 17.7302632"></polygon>
            <polygon id="Path" fill="#9E9E9E" points="18.3806452 24.9605263 35.2645161 18.5460526 47.3096774 24.4013158 30.9096774 31.4736842"></polygon>
            <polygon id="Path" fill="#9E9E9E" points="9.61290323 20.1907895 25.4193548 14.2105263 33.1677419 17.6513158 16.8193548 24.1776316"></polygon>
            <polygon id="Path" fill="#9E9E9E" points="27.6774194 13.3355263 40.8580645 8.45394737 48.116129 11.6776316 35.2064516 16.8881579"></polygon>
            <polygon id="Path" fill="#9E9E9E" points="40.1032258 6.83552632 55.7225806 0.809210526 65.8322581 4.90131579 49.8064516 11.0197368"></polygon>
            <polygon id="Path" fill="#424242" points="8.58709677 21.7828947 15.7935484 25.6776316 16.2774194 33.3355263 9.01935484 29.1118421"></polygon>
            <polygon id="Path" fill="#424242" points="17.6774194 26.5 30.0451613 33.2960526 30.1032258 40.9013158 18.1612903 34.3223684"></polygon>
            <polygon id="Path" fill="#424242" points="35.4774194 32.4210526 44.3483871 37.0263158 44.4064516 45.2894737 35.5290323 40.4671053"></polygon>
            <polygon id="Path" fill="#9E9E9E" points="1.00645161 30.1184211 13.1096774 36.9736842 14.3419355 53.5197368 2.61935484 46.0592105"></polygon>
            <polygon id="Path" fill="#9E9E9E" points="14.7225806 38.1776316 27.0322581 45.1447368 27.8387097 62.2368421 15.9032258 54.6710526"></polygon>
            <polygon id="Path" fill="#9E9E9E" points="28.8645161 46.3486842 40.7483871 53.3684211 41.1806452 70.9013158 29.4 63.0592105"></polygon>
            <polygon id="Path" fill="#9E9E9E" points="3 48.0460526 14.6129032 55.8355263 16.4967742 79.2368421 5.2 70.9539474"></polygon>
            <polygon id="Path" fill="#9E9E9E" points="16.2774194 57.0394737 28.0064516 64.8289474 29.1354839 88.6118421 18 80.3881579"></polygon>
            <polygon id="Path" fill="#9E9E9E" points="29.8322581 65.9802632 41.4451613 73.4342105 41.7677419 97.8815789 30.8516129 89.875"></polygon>
            <polygon id="Path" fill="#9E9E9E" points="43.4903226 73 62.0451613 62.4671053 61.6645161 86.4210526 43.8129032 97.9342105"></polygon>
            <polygon id="Path" fill="#9E9E9E" points="43.0580645 53.0394737 62.2580645 43.0394737 62.0967742 60.0986842 43.3290323 70.6776316"></polygon>
            <polygon id="Path" fill="#424242" points="46.5548387 37.1907895 59.2451613 31.1052632 59.2451613 38.9868421 46.6064516 45.3486842"></polygon>
            <polygon id="Path" fill="#424242" points="71.5096774 34.9407895 84.6258065 28.1973684 84.2516129 35.8026316 71.3483871 42.8815789"></polygon>
            <polygon id="Path" fill="#424242" points="83.8193548 25.7039474 98.7419355 18.2697368 98.2322581 25.4934211 85.4064516 32.2697368 85.883871 26.5394737"></polygon>
            <polygon id="Path" fill="#9E9E9E" points="78.8451613 39.8486842 84.9677419 36.5460526 85.283871 33.2434211 86.916129 32.3618421 86.0774194 46.3881579 78.1741935 50.8815789"></polygon>
            <polygon id="Path" fill="#9E9E9E" points="64.3032258 42.0131579 70.2387097 44.4276316 77.2064516 40.7697368 76.6129032 51.8157895 64.1935484 58.7828947"></polygon>
            <polygon id="Path" fill="#9E9E9E" points="63.8709677 61.5394737 76.3483871 54.3552632 75.483871 77.2631579 63.4967742 85.1315789"></polygon>
            <polygon id="Path" fill="#9E9E9E" points="78.2580645 53.2039474 85.8129032 48.7302632 84.2516129 71.75 76.8580645 76.5197368"></polygon>
        </g>
    </g>
</svg>