<?xml version="1.0" encoding="UTF-8"?>
<svg width="92px" height="100px" viewBox="0 0 92 100" version="1.1" xmlns="http://www.w3.org/2000/svg" xmlns:xlink="http://www.w3.org/1999/xlink">
    <title>mirror_2_1</title>
    <g id="Mirror" stroke="none" stroke-width="1" fill="none" fill-rule="evenodd">
        <g id="mirror_2_1" fill-rule="nonzero">
            <polygon id="Path" fill="#000000" points="15.7034483 4.71724138 30.4413793 0.165517241 45.0275862 5.39310345 45 9.30344828 55.0344828 5.6 63.862069 8.87586207 74.8482759 4.82068966 82.4758621 7.6137931 80.5517241 31.3655172 79.9862069 31.8275862 79.3103448 43.4896552 90.3793103 48.3517241 88.6413793 68.6758621 77.0344828 76.1310345 76.4344828 86.4827586 63.3310345 95.3793103 60.1724138 93.5241379 50.3655172 100 34.8482759 89.6827586 28.937931 93.1724138 16.4344828 84.2275862 15.1862069 67.7655172 1.49655172 58.9241379 0.434482759 47.7793103 10.5724138 43.6275862 10.0413793 37.0758621 0.951724138 32.3172414 0.165517241 23.3724138 14.1862069 18.337931 16.5862069 19.5103448"></polygon>
            <polygon id="Path" fill="#9E9E9E" points="24.5931034 20.2413793 44.6137931 12.662069 60.0896552 18.937931 40.1655172 27.2482759"></polygon>
            <polygon id="Path" fill="#424242" points="62.3310345 20.1862069 78.2275862 26.3586207 65.3655172 32.2137931 62.0206897 30.6482759"></polygon>
            <polygon id="Path" fill="#424242" points="61.5517241 10.4137931 74.8827586 5.49655172 80.737931 7.48275862 67.5586207 12.662069"></polygon>
            <polygon id="Path" fill="#424242" points="46.9655172 9.26206897 54.9103448 6.28275862 63.1724138 9.2137931 59.4275862 10.4068966 59.462069 13.862069"></polygon>
            <polygon id="Path" fill="#424242" points="17.6344828 27.5103448 22.0827586 25.8896552 22.2896552 29.7586207"></polygon>
            <polygon id="Path" fill="#424242" points="2.31724138 23.2758621 14.1862069 19.1448276 21.9724138 22.5931034 22 25.0965517 15.7241379 27.4 15.7517241 30.3862069"></polygon>
            <polygon id="Path" fill="#424242" points="30.6 0.793103448 42.937931 5.39310345 29.8689655 9.84137931 17.6896552 4.86896552"></polygon>
            <polygon id="Path" fill="#9E9E9E" points="23.0206897 22.0206897 38.6551724 29.0758621 39.0689655 58.4551724 24.3310345 50.6137931"></polygon>
            <polygon id="Path" fill="#424242" points="16.6965517 29.1793103 22.4482759 31.9517241 23.0206897 43.2413793 17.3724138 40"></polygon>
            <polygon id="Path" fill="#424242" points="0.910344828 24.8413793 15.2344828 32.0551724 15.6482759 39.2689655 1.53793103 31.5862069"></polygon>
            <polygon id="Path" fill="#424242" points="24.4827586 52.9172414 29.9724138 55.8965517 30.6551724 72.5724138 25.3724138 69.2275862"></polygon>
            <polygon id="Path" fill="#9E9E9E" points="14.2896552 43.8206897 23.337931 48.7310345 24.2758621 64.7310345 15.4413793 59.4"></polygon>
            <polygon id="Path" fill="#424242" points="10.8413793 37.6482759 16.6413793 40.7862069 13.4689655 42.0896552 13.662069 48.5241379 11.5172414 46.9586207"></polygon>
            <polygon id="Path" fill="#424242" points="35.1517241 72.3655172 40.1793103 69.5517241 49.3724138 75.1862069 49.3172414 98.3448276 35.6689655 89.0896552"></polygon>
            <polygon id="Path" fill="#9E9E9E" points="15.6 62.0137931 24.3103448 67.1034483 24.4689655 69.6137931 27.3103448 71.5241379 28.0413793 91.6 17.062069 83.6551724"></polygon>
            <polygon id="Path" fill="#424242" points="1.22068966 49.4137931 14.5517241 57.3034483 14.9724138 66.8206897 2.11034483 58.5103448"></polygon>
            <polygon id="Path" fill="#9E9E9E" points="40.7448276 29.0758621 61.0827586 20.8137931 60.6068966 49.0482759 41.2137931 58.6689655"></polygon>
            <polygon id="Path" fill="#424242" points="66.5172414 34.0413793 79.2206897 28.1862069 78.4344828 43.0896552 65.7862069 49.7241379"></polygon>
            <polygon id="Path" fill="#424242" points="68.4 14.4413793 81.5724138 9.10344828 80.2689655 26.3034483 68.1862069 21.5517241"></polygon>
            <polygon id="Path" fill="#424242" points="32.0137931 56.1586207 40.1724138 60.7172414 51.0413793 55.2137931 51.0413793 62.5862069 32.6413793 72.3655172"></polygon>
            <polygon id="Path" fill="#9E9E9E" points="65.6827586 52.0758621 78.1241379 45.4896552 77.337931 61.2275862 65.1034483 68.2827586"></polygon>
            <polygon id="Path" fill="#424242" points="51.3034483 75.1862069 59.9793103 70.062069 59.4068966 93.1655172 51.2482759 98.5517241"></polygon>
            <polygon id="Path" fill="#9E9E9E" points="64.8965517 70.7931034 77.1310345 63.5793103 75.7724138 86.1103448 64.1103448 93.8482759"></polygon>
            <polygon id="Path" fill="#424242" points="78.4344828 56.2068966 89.4689655 50.0896552 87.8965517 68.2344828 77.2344828 75.0275862"></polygon>
        </g>
    </g>
</svg>