<?xml version="1.0" encoding="UTF-8" standalone="no"?><svg xmlns:android="http://schemas.android.com/apk/res/android" height="100" width="100" xmlns="http://www.w3.org/2000/svg">
    <path d="M4.86 18.23c0.5-0.74 1.15-1.65 1.15-1.65L48.05 0.31S48.53 0 49.65 0a6.8 6.8 0 0 1 2.37 0.58l40.94 16.7s1.82 0.6 2.56 1.88c0.73 1.27 0.35 3.25 0.35 3.25l-6.28 45.78s-0.2 1.47-0.48 2.02c-0.29 0.56-1.45 1.54-1.45 1.54L52.02 98.76s-1.14 1.12-2.68 1.23a4.87 4.87 0 0 1-2.85-0.84l-35.78-28.1s-0.99-0.67-1.49-1.83c-0.5-1.17-0.59-2.24-0.59-2.24L4 20.67s0.37-1.69 0.86-2.44z" fill="#000000" fill-opacity="1.0"/>
    <path d="M51.99 45.32l9.8-5.27-0.68 14.3s-0.16 0.98-0.8 2.16c-0.66 1.17-1.46 1.93-1.46 1.93l-7.24 4.12 0.38-17.24z" fill="#696969"/>
    <path d="M64.1 37.67V50s0.04 0.92 0.56 1.64c0.52 0.72 1.58 0.72 1.58 0.72h16.89l-19.04-14.7z" fill="#FFED00"/>
    <path d="M88.25 25.72l7.7-4.48-2.14 15.87-5.1 3.1s-1 0.04-1.42-0.29c-0.43-0.33-0.56-1.25-0.56-1.25l1.52-12.95z" fill="#696969"/>
    <path d="M51.65 65.27l5.6-3.33s1.17-0.39 2.23 0c0.64 0 1.4 1.03 1.4 1.03l-0.4 9.04s-0.63 2.27-1.44 3.4c-0.8 1.13-2.77 2.97-2.77 2.97l-4.62 3V65.28z" fill="#009846"/>
    <path d="M63.45 61.2s0.12-1 0.92-2.31c0.8-1.3 1.87-2.2 1.87-2.2s4.18-3.35 4.68-3.35H82.6l-0.14 5.12s-0.61 1.96-1.42 3.01a9.23 9.23 0 0 1-1.97 1.8l-13.35 8.94s-1.34 0.73-1.91 0.45c-0.57-0.28-0.76-1.76-0.76-1.76l0.4-9.7z" fill="#009846"/>
    <path d="M85.5 47.64s0.47-1.6 1.6-3.18c1.13-1.58 2.49-2.52 2.49-2.52l3.74-2.26-2.03 14.6L87.44 57s-1.15 0.39-1.69 0.18c-0.54-0.22-0.99-1.3-0.99-1.3l0.75-8.24z" fill="#009846"/>
    <path d="M51.43 83.49l5.82-3.98s0.9-0.67 2-0.34c0.66 0.3 0.88 1.28 0.88 1.28l-0.45 11-8.5 6.36 0.25-14.32z" fill="#009846"/>
    <path d="M62.74 78.84l-0.66 10.68 18.16-13.46 1.27-10.17s-0.05-0.9-0.54-1.23c-0.49-0.33-1.29 0-1.29 0l-13.54 9.17s-1.65 1.12-2.4 2.23c-0.76 1.12-1 2.78-1 2.78z" fill="#009846"/>
    <path d="M83.45 64.31s0.41-1.64 0.9-2.36a11.12 11.12 0 0 1 1.9-1.78l4.65-3.1L89 69.71l-6.4 4.9 0.85-10.3z" fill="#009846"/>
    <path d="M47.11 45.54l-9.23-5.6v12.98s0.17 2 0.48 2.88c0.3 0.88 1.18 1.9 1.18 1.9l7.33 4.8 0.24-16.96z" fill="#696969"/>
    <path d="M35.26 36.86V51.2s-0.37 1.54-0.85 1.9c-0.47 0.37-1.84 0.16-1.84 0.16l-16.46-0.9 19.15-15.5z" fill="#FFED00"/>
    <path d="M5.1 21.07l6.97 4.15 1.2 12.9s-0.12 1.22-0.38 1.52c-0.26 0.3-1.13 0.26-1.13 0.26l-5.1-3.35L5.1 21.07z" fill="#696969"/>
    <path d="M46.96 65.47l-4.76-3.13s-1.84-0.47-2.62-0.2c-0.79 0.27-1.07 1.72-1.07 1.72v7.77s0.35 2.57 1.07 3.78c0.72 1.2 3.1 3.2 3.1 3.2l4.28 2.95v-16.1z" fill="#E31E24"/>
    <path d="M7.2 39.42l3.55 2.2s1.45 1.2 2.03 2.1c0.59 0.9 1.31 3.02 1.31 3.02l0.67 8.22s0 1.2-0.67 1.72c-0.67 0.5-1.64 0-1.64 0l-3.8-2.38L7.2 39.42z" fill="#E31E24"/>
    <path d="M29.32 54.12l2.59 1.11s2.11 1.48 2.91 2.61c0.8 1.14 0.86 4.34 0.86 4.34v7.8s-0.12 2.05-0.64 2.27C34.53 72.47 32.45 71 32.45 71l-12.42-8.82s-1.3-0.97-1.82-1.83c-0.53-0.86-1.04-2.84-1.04-2.84l-0.7-4.13 12.85 0.74z" fill="#E31E24"/>
    <path d="M46.74 84.42l-5.87-4.34s-1.2-0.64-1.73-0.42c-0.53 0.22-0.74 1.44-0.74 1.44v10.34l8.34 6.52V84.42z" fill="#E31E24"/>
    <path d="M17.8 65.47l0.75 9.83 17.4 14.23V79.35s-0.25-2.08-0.84-3.03c-0.59-0.96-2.57-2.5-2.57-2.5l-12.08-8.67s-1.74-1.08-2.24-1.03c-0.5 0.06-0.42 1.35-0.42 1.35z" fill="#E31E24"/>
    <path d="M8.95 56.37l1.14 12.14 6.02 5.24-0.55-9.37s-0.38-2.33-0.84-3.17c-0.47-0.85-1.93-1.89-1.93-1.89l-3.84-2.95z" fill="#E31E24"/>
    <path d="M39.89 25.37s0.38-0.6 1.04-0.97c0.65-0.36 1.54-0.45 1.54-0.45l14.52 0.23s1.36 0.23 1.9 0.64c0.53 0.4 1.23 1.31 1.23 1.31l0.46 9.81-10.86 5.77L38.9 35.3l0.99-9.92z" fill="#FFED00"/>
    <path d="M63.7 25.04l19.8 15.17V50L64.1 34.63l-0.4-9.59z" fill="#696969"/>
    <path d="M62.06 15.44l0.39 5.96s0.34 0.7 0.87 1.06a9.3 9.3 0 0 0 1.91 0.76l19.17 0.25 8.57-4.6-10.74-4.58H64.7s-0.9 0-1.6 0.3c-0.72 0.3-1.04 0.85-1.04 0.85z" fill="#FFED00"/>
    <path d="M60.84 5.53l0.65 6.25s0.1 0.49 0.72 0.86c0.62 0.36 1.66 0.54 1.66 0.54h15.08L60.84 5.53z" fill="#FFED00"/>
    <path d="M40.5 15.19s0.42-0.51 1.1-0.88c0.69-0.37 1.65-0.63 1.65-0.63h12.43s1.42 0.19 2.1 0.63A5.35 5.35 0 0 1 59 15.53l0.37 5.21s-0.58 1.03-1.24 1.42c-0.65 0.38-2 0.49-2 0.49H42.82s-1.23-0.41-1.9-0.86c-0.7-0.45-0.98-1.05-0.98-1.05l0.57-5.55z" fill="#FFED00"/>
    <path d="M17.98 38.7l18.3-14.6-1.02 10.01L16.1 50l1.87-11.3z" fill="#696969"/>
    <path d="M34.31 13.52s1.22 0.05 2.23 0.54c1.01 0.5 1.2 1.12 1.2 1.12l-0.61 5.9s-1 0.91-1.43 1.14a8.17 8.17 0 0 1-1.84 0.39l-18.87-0.33-7.93-4.68 10.65-4.08h16.6z" fill="#FFED00"/>
    <path d="M20.63 12.41l17.94-7.03-0.75 5.78s-0.47 0.96-1.16 1.25c-0.68 0.3-1.94 0.35-1.94 0.35l-14.1-0.35z" fill="#FFED00"/>
    <path d="M41.23 4.3l-0.72 6.58s0.09 0.86 0.43 1.18a4.48 4.48 0 0 0 1.44 0.57l13.6 0.15s1.13-0.04 1.83-0.5c0.7-0.47 0.79-1.25 0.79-1.25L58.13 4.3 49.7 1l-8.47 3.3z" fill="#FFED00"/>
</svg>