<?xml version="1.0" encoding="UTF-8" standalone="no"?><svg xmlns:android="http://schemas.android.com/apk/res/android" height="100" width="100" xmlns="http://www.w3.org/2000/svg">
    <path d="M14.35 5.82c0.9-0.7 2.15-0.89 2.15-0.89L72.24 0.2s2.71-0.4 3.76 0c1.05 0.4 1.92 2.17 1.92 2.17l21.19 49.2s0.69 1.39 0.65 2.5c-0.04 1.1-0.81 2.13-0.81 2.13l-17.9 31.42s-0.58 1.64-1.8 2.52a7.42 7.42 0 0 1-3.16 1.03L22.8 99.58s-1.97 0.49-2.9 0c-0.94-0.49-1.33-2.2-1.33-2.2L4.38 47.6S4.02 46.54 4 45.56a6.28 6.28 0 0 1 0.3-1.9l8.9-36.18s0.25-0.96 1.15-1.66z" fill="#000000" fill-opacity="1.0"/>
    <path d="M35.16 61.23l-4.02-11.87 14.22-1.88s1.94-0.54 3.64 0.3a7.5 7.5 0 0 1 2.64 2.2l2.84 8.26-19.32 3z" fill="#0062AC"/>
    <path d="M57.35 57.83l-2.45-6.69s0.14-1.9 0.51-2.79c0.37-0.88 1.83-2.29 1.83-2.29l10.82-1.5s2.15 0.38 3.08 0.98c0.92 0.6 3.02 2.5 3.02 2.5l2.93 6.94-19.74 2.85z" fill="#0062AC"/>
    <path d="M79.73 54.49l-3.17-7.68s-0.05-1.79 0.3-2.46c0.36-0.68 1.77-1.5 1.77-1.5l14.59-1.77 4.57 10.71-18.06 2.7z" fill="#0062AC"/>
    <path d="M68.02 14.7l13.3-1.1 10.7 24.42L77.9 39.8s-1.9-0.01-2.81-0.53c-0.9-0.51-2.34-2.39-2.34-2.39L65.55 19s-0.61-1.9 0-2.95c0.6-1.05 2.47-1.34 2.47-1.34z" fill="#0062AC"/>
    <path d="M43.43 20.55s0.2-1.8 0.61-2.4c0.4-0.6 1.72-1 1.72-1l12.22-1.19s1.2-0.14 2.52 0.7a7.1 7.1 0 0 1 2.11 2.23L69.83 37s0.2 1.71 0 2.43c-0.2 0.71-1.2 1.78-1.2 1.78l-14.26 1.65s-1.22-0.04-2.4-0.98c-1.16-0.93-1.9-2.45-1.9-2.45l-6.64-18.87z" fill="#0062AC"/>
    <path d="M20.68 19.92l15.17-1.69s1.58 0.03 2.4 0.41a11.76 11.76 0 0 1 2.17 1.73l6.91 19.44s0.3 1.69 0 2.44c-0.3 0.76-1.68 1.9-1.68 1.9l-16.29 2.08-8.68-26.31z" fill="#EF7F1A"/>
    <path d="M16.6 6.18l18.47-1.4 2.35 6.06s0.4 2-0.09 3.05c-0.48 1.05-1.85 1.43-1.85 1.43l-15.3 1.36-3.58-10.5z" fill="#0062AC"/>
    <path d="M38.09 4.45l18.73-1.57 1.81 5.32s0.28 2.2-0.31 3.2a6.48 6.48 0 0 1-2.1 1.84l-10.2 0.9s-2.4-0.71-3.3-1.3c-0.88-0.58-2.57-2.65-2.57-2.65L38.1 4.45z" fill="#0062AC"/>
    <path d="M59.1 2.4l16.79-1.55 4.34 9.62-12.96 1.5s-2.12 0-3.61-0.71c-1.5-0.72-2.46-3.06-2.46-3.06l-2.1-5.8z" fill="#0062AC"/>
    <path d="M17.91 22.68l1.22 17.82s0.19 1.5 0.48 2.17a7.26 7.26 0 0 0 1.18 1.55l5.1 2.96-7.98-24.5z" fill="#FFED00"/>
    <path d="M13.26 9.16l3.58 10.36 1.4 20.33s-0.2 1.35-0.4 1.8c-0.2 0.45-0.95 0.38-0.95 0.38l-3.31-1.71s-0.74-0.96-0.89-1.3c-0.56-1.27-0.48-1.77-0.48-1.77l-1.18-18.94 2.23-9.15z" fill="#FFED00"/>
    <path d="M10.6 21.13l0.95 14.93s0.13 1.35 0 1.6c-0.31 0.58-0.93 0.43-0.93 0.43l-3.89-2.05 3.88-14.9z" fill="#FFED00"/>
    <path d="M21.16 46.96l5.46 3.02 4.52 12.57-3.21 9.09-6.04-4.28s-0.76-0.91-1-1.4c-0.51-1.1-0.63-2.05-0.63-2.05l-0.73-14.8s0.08-1.8 0.38-2.15c0.3-0.35 1.25 0 1.25 0z" fill="#FFED00"/>
    <path d="M13.95 43.1l3.17 1.68s0.66 0.45 0.87 0.92a10 10 0 0 1 0.69 2.42L19.5 63S19.35 64 19 64.45c-0.36 0.46-1.24 0-1.24 0l-2.83-1.73s-0.67-0.92-0.88-1.44c-0.21-0.51-0.44-1.7-0.44-1.7l-0.87-14.04s0.14-1.5 0.34-2 0.88-0.44 0.88-0.44z" fill="#FFED00"/>
    <path d="M6.19 37.92l4.76 2.87s0.65 0.9 0.77 1.3c0.12 0.41 0.26 1.56 0.26 1.56l0.96 14.6s-0.1 0.85-0.35 1.33c-0.24 0.48-1.06 0.12-1.06 0.12l-4.15-3-3.15-11.08 1.96-7.7z" fill="#FFED00"/>
    <path d="M22.33 70.1l5.13 3.4-5.4 14.61-0.83-16.47s0.1-1.35 0.3-1.55c0.2-0.2 0.8 0 0.8 0z" fill="#FFED00"/>
    <path d="M15.48 65.01l3.49 2.6s0.6 0.8 0.81 1.3a10.8 10.8 0 0 1 0.4 1.65l0.98 19.23-2.54 6.33-3.5-12.4-0.96-17.34S14.04 65.4 14.4 65c0.37-0.38 1.08 0 1.08 0z" fill="#FFED00"/>
    <path d="M8.28 59.7l3.74 2.54s0.87 0.7 1.12 1.2a7.22 7.22 0 0 1 0.37 1.77l0.61 14.92L8.28 59.7z" fill="#FFED00"/>
    <path d="M35.16 64.63l19.47-2.39-1.96 5.15s-1 1.44-1.9 2.09c-0.88 0.65-2.44 1.08-2.44 1.08l-16.13 2 2.96-7.93z" fill="#EF7F1A"/>
    <path d="M57.58 61.69L77 59.05l-2.3 4.72s-1 1.1-2.23 1.93c-1.22 0.82-2.64 1.33-2.64 1.33l-10.27 1.58s-1.48 0-2.65-0.75C55.73 67.1 56 65.7 56 65.7l1.57-4.01z" fill="#EF7F1A"/>
    <path d="M80.3 58.54l-2.24 4.18s-0.58 1.77 0 2.49c0.57 0.71 1.9 0.49 1.9 0.49l13.84-2.05 4.35-7.4-17.84 2.29z" fill="#EF7F1A"/>
    <path d="M73.5 71.27s1.24-1.94 2.32-2.58c1.08-0.63 3.92-1.09 3.92-1.09l12.97-1.9-9.25 16.05-12.33 2.27s-2.1 0.07-2.6-0.29-0.32-1.77-0.32-1.77l5.28-10.69z" fill="#EF7F1A"/>
    <path d="M56 71.05l12.65-1.68s1.48-0.04 1.83 0.44c0.35 0.47 0 2.03 0 2.03l-5.4 11.05s-0.64 1.04-1.63 1.7c-0.99 0.67-2.37 1-2.37 1l-11.5 1.7s-1.9 0.12-2.4-0.16c-0.52-0.27 0-2.2 0-2.2l4.2-10.45s0.63-1.2 1.7-1.99c1.09-0.8 2.92-1.44 2.92-1.44z" fill="#EF7F1A"/>
    <path d="M31.14 74.94l15.06-1.97s1.27-0.24 1.92 0.44c0.65 0.68 0.44 2.03 0.44 2.03L44.3 85.57s-0.8 1.53-1.82 2.31c-1.03 0.8-2.63 1.1-2.63 1.1l-14.8 2.2 6.09-16.24z" fill="#0062AC"/>
    <path d="M24.37 93.03c-0.24 0-2.54 5.98-2.54 5.98l17.32-2.67 1.52-3.68s0.32-1.39 0-1.73c-0.33-0.34-1.92-0.3-1.92-0.3s-14.15 2.4-14.38 2.4z" fill="#EF7F1A"/>
    <path d="M43.5 92.66l-1 3.2 17.23-2.69 1.34-3.38s0.1-0.89-0.24-1.43c-0.33-0.55-1.49-0.71-1.49-0.71l-11.27 1.66s-1.87 0.6-2.72 1.22c-0.85 0.62-1.85 2.13-1.85 2.13z" fill="#EF7F1A"/>
    <path d="M64.23 88.78l-1.63 3.88 16.14-2.68 3.46-5.96-13.1 2s-2.02 0.43-2.95 0.96a8.48 8.48 0 0 0-1.92 1.8z" fill="#EF7F1A"/>
</svg>