<?xml version="1.0" encoding="UTF-8"?>
<svg width="210px" height="100px" viewBox="0 0 210 100" version="1.1" xmlns="http://www.w3.org/2000/svg" xmlns:xlink="http://www.w3.org/1999/xlink">
    <title>blaccel_6_1</title>
    <g id="Blind" stroke="none" stroke-width="1" fill="none" fill-rule="evenodd">
        <g id="blaccel_6_1" fill-rule="nonzero">
            <path d="M95.777027,18.5633803 C96.5574324,18.5352113 97.2243243,19.1549296 97.1968197,19.9295775 C96.3445946,38.3239437 95.3513514,56.7887324 94.2304054,75.1690141 C94.202027,75.6760563 93.8898649,76.084507 93.45,76.2957746 C79.0763514,83.8591549 65.3128378,91.3098592 50.7831081,99.2957746 C50.1587838,99.6338028 49.3783784,99.4507042 48.9810811,98.9014085 C48.5412162,99.1690141 47.9736486,99.1830986 47.5337838,98.9295775 C47.5337838,98.9295775 9.08108108,77.5774648 5.59054054,75.6901408 C5.15067568,75.4647887 4.90945946,75.028169 4.89527027,74.5774648 C3.66081081,56.1690141 2.52567568,38.4225352 1.07837838,19.9014085 C1.02162162,19.0422535 1.81621622,18.3802817 2.65337838,18.4929577 C2.69594595,17.9014085 3.12162162,17.4225352 3.71756757,17.2816901 C19.0277027,12.7887324 34.1675676,8.29577465 49.5912162,4.11267606 C49.8466216,4.04225352 50.102027,4.04225352 50.3432432,4.11267606 C65.5966216,8.52112676 79.2891892,13.1971831 94.7695946,17.3661972 C95.3513514,17.5211268 95.7486486,18.0140845 95.777027,18.5633803 L95.777027,18.5633803 Z" id="Path" fill="#000000"></path>
            <polygon id="Path" fill="#009846" points="31.9540541 31.4084507 47.9452703 37.2394366 47.9168919 57.4929577 32.5925676 50.915493"></polygon>
            <polygon id="Path" fill="#E31E24" points="15.9486486 25.3521127 30.152027 30.7183099 30.8189189 50.2816901 16.6155405 44.1126761"></polygon>
            <polygon id="Path" fill="#009846" points="2.45472973 19.8028169 14.1324324 24.6056338 14.7851351 43.1549296 3.87364865 38.0704225"></polygon>
            <polygon id="Path" fill="#009846" points="32.4790541 52.8169014 47.9878378 59.4788732 47.9736486 78.8873239 33.075 71.6478873"></polygon>
            <polygon id="Path" fill="#009846" points="16.9277027 46.1971831 30.7054054 52.1126761 31.272973 70.5492958 17.6655405 64.0985915"></polygon>
            <polygon id="Path" fill="#009846" points="3.70337838 40.056338 15.0831081 45.3661972 15.7925676 63.1267606 5.32094595 57.6478873"></polygon>
            <polygon id="Path" fill="#009846" points="33.0182432 73.6901408 48.1439189 80.9577465 48.2290541 97.8028169 32.9614865 89.2112676"></polygon>
            <polygon id="Path" fill="#009846" points="17.9493243 66.2816901 31.1736486 72.6056338 31.2162162 88.0704225 18.4317568 81.2253521"></polygon>
            <polygon id="Path" fill="#009846" points="5.27837838 59.7323944 16.1189189 65.4366197 16.572973 80.0985915 6.25743243 74.5352113"></polygon>
            <polygon id="Path" fill="#E31E24" points="49.7331081 37.3239437 65.7385135 31.4929577 65.4121622 51.2394366 49.8182432 57.4225352"></polygon>
            <polygon id="Path" fill="#0062AC" points="67.6114865 31 82.2689189 25.0704225 81.5310811 44.2253521 67.3418919 50.3521127"></polygon>
            <polygon id="Path" fill="#E31E24" points="84.0993243 24.4929577 95.8337838 19.8732394 94.9682432 38.2394366 83.4466216 43.3380282"></polygon>
            <polygon id="Path" fill="#E31E24" points="49.9033784 59.4507042 65.397973 53.2535211 64.802027 71.4507042 49.9175676 78.8873239"></polygon>
            <polygon id="Path" fill="#E31E24" points="67.3986486 52.4507042 81.375 46.2957746 80.3675676 64 66.7743243 70.7746479"></polygon>
            <polygon id="Path" fill="#E31E24" points="83.4182432 45.3802817 94.9540541 40.2394366 93.9040541 57.1408451 82.3824324 63.3521127"></polygon>
            <polygon id="Path" fill="#E31E24" points="50.0310811 80.8169014 64.9439189 73.3943662 64.2344595 90.3943662 50.102027 98.1408451"></polygon>
            <polygon id="Path" fill="#E31E24" points="66.8736486 72.7746479 80.5945946 65.943662 79.8425676 82.028169 66.1641892 89.4788732"></polygon>
            <polygon id="Path" fill="#E31E24" points="82.5243243 65.3239437 93.8331081 59.2394366 92.8682432 75.0985915 81.7722973 80.943662"></polygon>
            <polygon id="Path" fill="#FFFFFF" points="32.9189189 30.1267606 49.7472973 24.4929577 64.802027 29.9295775 48.8391892 35.6619718"></polygon>
            <polygon id="Path" fill="#FFFFFF" points="51.6486486 23.7042254 66.2918919 18.6197183 81.4033784 23.4225352 67.0155405 29.3380282"></polygon>
            <polygon id="Path" fill="#FFFFFF" points="68.3918919 17.8591549 79.1472973 14.5352113 94.4148649 18.6338028 83.3472973 22.8450704"></polygon>
            <polygon id="Path" fill="#FFFFFF" points="51.2939189 12.8169014 62.2054054 9.30985915 77.1891892 13.7746479 65.1141892 17.2957746"></polygon>
            <polygon id="Path" fill="#FFFFFF" points="34.5648649 17.943662 48.9810811 13.2957746 63.8655405 17.8591549 49.1087838 22.915493"></polygon>
            <polygon id="Path" fill="#FFFFFF" points="16.6581081 23.6478873 32.8337838 18.5352113 47.4202703 23.6478873 30.9182432 29.056338"></polygon>
            <polygon id="Path" fill="#FFFFFF" points="4.02972973 18.5633803 19.4108108 14.056338 30.4925676 17.971831 15.0121622 23"></polygon>
            <polygon id="Path" fill="#FFFFFF" points="21.5108108 13.3661972 36.4945946 9.12676056 47.4060811 12.9014085 33.1459459 17.3661972"></polygon>
            <polygon id="Path" fill="#FFFFFF" points="37.8993243 8.66197183 49.9601351 5.38028169 61.127027 8.6056338 49.1939189 12.3661972"></polygon>
            <polygon id="Path" fill="#000000" points="109.866892 0.985915493 209.077703 0.985915493 209.077703 99.4647887 109.866892 99.4647887"></polygon>
            <polygon id="Path" fill="#FFFFFF" points="197.22973 12.8450704 173.817568 12.8450704 173.817568 36.084507 197.22973 36.084507"></polygon>
            <polygon id="Path" fill="#FFFFFF" points="171.121622 12.8450704 147.709459 12.8450704 147.709459 36.084507 171.121622 36.084507"></polygon>
            <polygon id="Path" fill="#FFFFFF" points="145.013514 12.8450704 121.601351 12.8450704 121.601351 36.084507 145.013514 36.084507"></polygon>
            <polygon id="Path" fill="#FFFFFF" points="197.22973 38.7605634 173.817568 38.7605634 173.817568 62 197.22973 62"></polygon>
            <polygon id="Path" fill="#FFFFFF" points="171.121622 38.7605634 147.709459 38.7605634 147.709459 62 171.121622 62"></polygon>
            <polygon id="Path" fill="#FFFFFF" points="145.013514 38.7605634 121.601351 38.7605634 121.601351 62 145.013514 62"></polygon>
            <polygon id="Path" fill="#FFFFFF" points="197.22973 64.6760563 173.817568 64.6760563 173.817568 87.915493 197.22973 87.915493"></polygon>
            <polygon id="Path" fill="#FFFFFF" points="171.121622 64.6760563 147.709459 64.6760563 147.709459 87.915493 171.121622 87.915493"></polygon>
            <polygon id="Path" fill="#FFFFFF" points="145.013514 64.8169014 121.601351 64.8169014 121.601351 88.056338 145.013514 88.056338"></polygon>
            <polygon id="Path" fill="#0062AC" points="145.112838 3.77464789 121.700676 3.77464789 121.700676 8.95774648 145.112838 8.95774648"></polygon>
            <polygon id="Path" fill="#009846" points="171.220946 3.77464789 147.808784 3.77464789 147.808784 8.95774648 171.220946 8.95774648"></polygon>
            <polygon id="Path" fill="#0062AC" points="197.329054 3.77464789 173.916892 3.77464789 173.916892 8.95774648 197.329054 8.95774648"></polygon>
            <polygon id="Path" fill="#E31E24" points="206.466892 36.1690141 206.466892 12.9295775 201.24527 12.9295775 201.24527 36.1690141"></polygon>
            <polygon id="Path" fill="#0062AC" points="206.466892 62.084507 206.466892 38.8450704 201.24527 38.8450704 201.24527 62.084507"></polygon>
            <polygon id="Path" fill="#E31E24" points="206.466892 88 206.466892 64.7605634 201.24527 64.7605634 201.24527 88"></polygon>
            <polygon id="Path" fill="#009846" points="197.329054 91.9014085 173.916892 91.9014085 173.916892 97.084507 197.329054 97.084507"></polygon>
            <polygon id="Path" fill="#E31E24" points="171.220946 91.9014085 147.808784 91.9014085 147.808784 97.084507 171.220946 97.084507"></polygon>
            <polygon id="Path" fill="#009846" points="145.112838 91.9014085 121.700676 91.9014085 121.700676 97.084507 145.112838 97.084507"></polygon>
            <polygon id="Path" fill="#EF7F1A" points="117.699324 88 117.699324 64.7605634 112.477703 64.7605634 112.477703 88"></polygon>
            <polygon id="Path" fill="#EF7F1A" points="117.699324 62.084507 117.699324 38.8450704 112.477703 38.8450704 112.477703 62.084507"></polygon>
            <polygon id="Path" fill="#EF7F1A" points="117.699324 36.1690141 117.699324 12.9295775 112.477703 12.9295775 112.477703 36.1690141"></polygon>
            <path d="M185.67973,50.4929577 L182.558108,58.2253521 L182.558108,58.2253521 L182.487162,58.0140845 L182.402027,57.8028169 L182.316892,57.5915493 L182.231757,57.3943662 L182.132432,57.1971831 L182.047297,57 L181.933784,56.8169014 L181.834459,56.6338028 L181.720946,56.4507042 L181.607432,56.2816901 L181.47973,56.1126761 L181.352027,55.943662 L181.224324,55.7887324 L181.096622,55.6197183 L180.95473,55.4788732 L180.812838,55.3239437 L180.656757,55.1830986 L180.500676,55.0422535 L180.344595,54.915493 L180.188514,54.7887324 L180.018243,54.6619718 L179.847973,54.5352113 L179.677703,54.4225352 L179.493243,54.3098592 L179.308784,54.2112676 L179.124324,54.0985915 L178.925676,54 L178.727027,53.915493 L178.528378,53.8309859 L178.315541,53.7464789 L178.102703,53.6619718 L177.889865,53.5915493 L185.67973,50.4929577 L185.67973,50.4929577 Z M159.784459,76.6197183 L159.358784,76.1971831 L182.714189,53 L183.154054,53.4366197 L159.784459,76.6197183 L159.784459,76.6197183 Z" id="Shape" fill="#1A237E"></path>
            <path d="M159.571622,24.5774648 L167.361486,27.6619718 L167.361486,27.6619718 L167.148649,27.7464789 L166.935811,27.8169014 L166.722973,27.9014085 L166.524324,28 L166.325676,28.084507 L166.127027,28.1830986 L165.942568,28.2816901 L165.758108,28.3943662 L165.573649,28.5070423 L165.403378,28.6197183 L165.233108,28.7464789 L165.062838,28.8591549 L164.906757,29 L164.750676,29.1267606 L164.594595,29.2676056 L164.438514,29.4084507 L164.296622,29.5633803 L164.15473,29.7042254 L164.027027,29.8591549 L163.899324,30.028169 L163.771622,30.1971831 L163.643919,30.3661972 L163.530405,30.5352113 L163.416892,30.7183099 L163.317568,30.9014085 L163.204054,31.084507 L163.118919,31.2816901 L163.019595,31.4788732 L162.934459,31.6760563 L162.849324,31.8873239 L162.764189,32.0985915 L162.693243,32.3098592 L159.571622,24.5774648 L159.571622,24.5774648 Z M185.466892,50.7042254 L162.097297,27.5070423 L162.537162,27.084507 L185.906757,50.2676056 L185.466892,50.7042254 Z" id="Shape" fill="#1A237E"></path>
            <path d="M159.24527,74.028169 L159.24527,26.056338 L159.897973,26.056338 L159.897973,74.028169 L159.24527,74.028169 Z M159.571622,77.8873239 L156.265541,70.2253521 L156.464189,70.3239437 L156.677027,70.4084507 L156.889865,70.5070423 L157.088514,70.5774648 L157.301351,70.6619718 L157.5,70.7183099 L157.712838,70.7887324 L157.911486,70.8450704 L158.124324,70.8873239 L158.337162,70.9295775 L158.535811,70.9577465 L158.748649,70.9859155 L158.947297,71.0140845 L159.160135,71.028169 L159.358784,71.0422535 L159.571622,71.0422535 L159.784459,71.0422535 L159.983108,71.028169 L160.195946,71.0140845 L160.394595,70.9859155 L160.607432,70.9577465 L160.806081,70.9295775 L161.018919,70.8873239 L161.231757,70.8450704 L161.430405,70.7887324 L161.643243,70.7183099 L161.841892,70.6619718 L162.05473,70.5774648 L162.253378,70.5070423 L162.466216,70.4084507 L162.679054,70.3239437 L162.877703,70.2253521 L162.877703,70.2253521 L159.571622,77.8873239 L159.571622,77.8873239 Z" id="Shape" fill="#1A237E"></path>
        </g>
    </g>
</svg>