<?xml version="1.0" encoding="UTF-8"?>
<svg width="204px" height="100px" viewBox="0 0 204 100" version="1.1" xmlns="http://www.w3.org/2000/svg" xmlns:xlink="http://www.w3.org/1999/xlink">
    <title>blaccel_2_1</title>
    <g id="Blind" stroke="none" stroke-width="1" fill="none" fill-rule="evenodd">
        <g id="blaccel_2_1" fill-rule="nonzero">
            <path d="M98.8631579,35.8315789 L99.6526316,16.5578947 C99.7052632,16.3368421 99.6526316,16.1684211 99.6,15.9473684 C99.3157895,15.4421053 98.8105263,15.1052632 98.2,15.1052632 C98.2,14.5473684 97.7473684,14.0421053 97.1894737,13.8736842 L81.3894737,9.62105263 C81.1157895,9.50526316 80.7789474,9.50526316 80.5473684,9.62105263 C80.4421053,9.62105263 80.3789474,9.67368421 80.2736842,9.67368421 C80.1578947,9.28421053 79.8210526,8.94736842 79.3789474,8.77894737 L63.8,4.12631579 C63.7473684,4.12631579 63.6315789,4.07368421 63.5263158,4.07368421 C63.3578947,3.78947368 63.0736842,3.51578947 62.6842105,3.4 L51.0842105,0.0421052632 C50.8631579,-0.0105263158 50.5789474,-0.0105263158 50.3052632,0.0421052632 L37.8105263,3.46315789 C37.5368421,3.51578947 37.2526316,3.68421053 37.0842105,3.90526316 C36.8,3.85263158 36.5789474,3.85263158 36.3052632,3.95789474 L20.7894737,8.38947368 C20.3894737,8.49473684 20,8.83157895 19.8315789,9.23157895 C19.8315789,9.28421053 19.5473684,9.11578947 19.4947368,9.11578947 C19.2210526,9 18.9368421,9 18.6,9.11578947 L2.63157895,13.8210526 C2.24210526,13.9263158 1.90526316,14.2105263 1.73684211,14.6 C1.68421053,14.7684211 1.63157895,14.8842105 1.63157895,15.0526316 C1.51578947,15.0526316 1.4,15.0526316 1.34736842,15.0526316 C0.568421053,15.1052632 -0.0526315789,15.7789474 1.07513824e-14,16.5052632 L1.46315789,35.5473684 C1.51578947,35.8842105 1.63157895,36.2210526 1.90526316,36.4421053 C1.51578947,36.7263158 1.23157895,37.1684211 1.29473684,37.6736842 C1.85263158,43.7789474 2.35789474,49.9368421 2.96842105,56.0421053 C3.03157895,56.3789474 3.2,56.7684211 3.47368421,57 C3.13684211,57.2736842 2.91578947,57.6631579 2.91578947,58.1684211 L3.97894737,73.6315789 C3.97894737,74.0736842 4.26315789,74.5263158 4.65263158,74.7473684 C8.24210526,76.6526316 11.7684211,78.6736842 15.3473684,80.5157895 C15.5789474,80.6315789 15.8526316,80.7368421 16.0842105,80.7368421 C16.2526316,80.6842105 16.4210526,80.6842105 16.5894737,80.6315789 C16.6421053,81.0736842 16.8631579,81.4736842 17.3157895,81.6947368 C21.7368421,84.1052632 26.1052632,86.5052632 30.5894737,88.8631579 C30.7578947,88.9684211 30.9789474,89.0315789 31.2631579,89.0315789 C31.3684211,89.0315789 31.5368421,89.0315789 31.6526316,88.9684211 C31.7052632,89.4210526 31.9368421,89.8105263 32.3263158,90.0315789 L48.1789474,99 C48.4,99.1052632 48.6210526,99.1684211 48.9052632,99.1684211 C49.1789474,99.1684211 49.4631579,99.1052632 49.6842105,98.9368421 C50.0842105,99.5578947 50.9157895,99.7263158 51.5368421,99.3894737 L66.2105263,91.2736842 C67.3368421,90.6526316 67.5578947,90.6526316 68.2315789,90.3157895 L82.3473684,82.5894737 C82.7894737,82.3684211 83.0736842,81.9157895 83.0736842,81.4631579 C83.4631579,81.6315789 83.9684211,81.6315789 84.3578947,81.4105263 L95.8421053,75.3052632 C96.2947368,75.1368421 96.5684211,74.6947368 96.6315789,74.1894737 L97.6315789,57.6631579 C97.6315789,57.3894737 97.6315789,57.1684211 97.4631579,56.9368421 C97.3578947,56.7684211 97.2421053,56.6 97.0736842,56.4947368 C97.4105263,56.2631579 97.6315789,55.8736842 97.6947368,55.4315789 L98.7578947,37.8421053 C98.8105263,37.6210526 98.7578947,37.4 98.6421053,37.1684211 C98.5894737,37 98.4210526,36.8315789 98.3052632,36.7263158 C98.5894737,36.4421053 98.8105263,36.2736842 98.8631579,35.8315789 L98.8631579,35.8315789 L98.8631579,35.8315789 Z" id="Path" fill="#000000"></path>
            <polygon id="Path" fill="#FFFFFF" points="33.0526316 26.6947368 50.4736842 20.8210526 66.0947368 26.5263158 49.5157895 32.4631579"></polygon>
            <polygon id="Path" fill="#E31E24" points="52.4842105 20.0315789 67.6631579 14.7157895 83.2947368 19.6947368 68.4 25.8631579"></polygon>
            <polygon id="Path" fill="#FFFFFF" points="69.8526316 13.9263158 81 10.4631579 96.8 14.7157895 85.3157895 19.0842105"></polygon>
            <polygon id="Path" fill="#FFFFFF" points="52.0947368 8.66315789 63.4105263 4.96842105 78.9263158 9.62105263 66.4315789 13.3157895"></polygon>
            <polygon id="Path" fill="#FFFFFF" points="34.7368421 13.9894737 49.6842105 9.16842105 65.1473684 13.8736842 49.8526316 19.2"></polygon>
            <polygon id="Path" fill="#009846" points="16.1894737 19.9789474 32.9368421 14.6 48.0631579 19.9789474 30.9789474 25.5789474"></polygon>
            <polygon id="Path" fill="#FFFFFF" points="3.08421053 14.6631579 19.0526316 9.95789474 30.5263158 14.0421053 14.4526316 19.2526316"></polygon>
            <polygon id="Path" fill="#FFFFFF" points="21.2315789 9.23157895 36.7473684 4.8 48.0631579 8.72631579 33.2736842 13.3684211"></polygon>
            <polygon id="Path" fill="#FFFFFF" points="38.2 4.29473684 50.6947368 0.884210526 62.2947368 4.24210526 49.9157895 8.15789474"></polygon>
            <polygon id="Path" fill="#009846" points="31.9263158 28.0421053 48.5157895 34.1473684 48.5157895 55.2631579 32.6 48.4315789"></polygon>
            <polygon id="Path" fill="#FFFFFF" points="15.3473684 21.7157895 30.0842105 27.3157895 30.7578947 47.7578947 16.0210526 41.3157895"></polygon>
            <polygon id="Path" fill="#009846" points="1.34736842 15.9473684 13.4421053 20.9263158 14.1157895 40.3052632 2.8 34.9894737"></polygon>
            <polygon id="Path" fill="#009846" points="32.4947368 50.3894737 48.5684211 57.3368421 48.5684211 77.6 33.1052632 70.0421053"></polygon>
            <polygon id="Path" fill="#009846" points="16.3578947 43.4421053 30.6421053 49.6631579 31.2 68.8736842 17.1473684 62.1473684"></polygon>
            <polygon id="Path" fill="#009846" points="2.63157895 37.0631579 14.4526316 42.6 15.1789474 61.1368421 4.31578947 55.4315789"></polygon>
            <polygon id="Path" fill="#009846" points="33.0526316 72.1684211 48.7368421 79.7368421 48.7894737 97.3157895 33 88.3578947"></polygon>
            <polygon id="Path" fill="#009846" points="17.4210526 64.4421053 31.1473684 71.0526316 31.1473684 87.1789474 17.9263158 80.0105263"></polygon>
            <polygon id="Path" fill="#009846" points="4.26315789 57.6105263 15.5157895 63.5473684 15.9684211 78.8315789 5.27368421 73.0736842"></polygon>
            <polygon id="Path" fill="#E31E24" points="50.3578947 34.4315789 66.9368421 28.3789474 66.6 48.9894737 50.4736842 55.4315789"></polygon>
            <polygon id="Path" fill="#FFFFFF" points="68.9052632 27.8210526 84.1368421 21.6631579 83.3473684 41.6526316 68.6210526 48.0315789"></polygon>
            <polygon id="Path" fill="#E31E24" points="85.9894737 21.0421053 98.2 16.2315789 97.2947368 35.3789474 85.3157895 40.6947368"></polygon>
            <polygon id="Path" fill="#E31E24" points="50.5263158 57.5578947 66.6 51.0631579 65.9894737 70.0421053 50.5789474 77.8315789"></polygon>
            <polygon id="Path" fill="#E31E24" points="68.6736842 50.2210526 83.1894737 43.7789474 82.1157895 62.2631579 68.0631579 69.3157895"></polygon>
            <polygon id="Path" fill="#E31E24" points="85.3157895 42.8315789 97.2421053 37.5052632 96.1789474 55.0947368 84.2526316 61.5894737"></polygon>
            <polygon id="Path" fill="#E31E24" points="50.6947368 79.8421053 66.1578947 72.0631579 65.4315789 89.8105263 50.7473684 97.9368421"></polygon>
            <polygon id="Path" fill="#E31E24" points="68.1684211 71.4421053 82.3473684 64.3368421 81.6210526 81.0736842 67.3894737 88.8631579"></polygon>
            <polygon id="Path" fill="#E31E24" points="84.3578947 63.6631579 96.1263158 57.3368421 95.1157895 73.8526316 83.5789474 79.9578947"></polygon>
            <path d="M201.821053,35.8315789 L202.610526,16.5578947 C202.663158,16.3368421 202.610526,16.1684211 202.547368,15.9473684 C202.273684,15.4421053 201.768421,15.1052632 201.147368,15.1052632 C201.147368,14.5473684 200.705263,14.0421053 200.136842,13.8736842 L184.347368,9.62105263 C184.063158,9.50526316 183.726316,9.50526316 183.505263,9.62105263 C183.389474,9.62105263 183.336842,9.67368421 183.221053,9.67368421 C183.115789,9.28421053 182.778947,8.94736842 182.326316,8.77894737 L166.757895,4.12631579 C166.705263,4.12631579 166.589474,4.07368421 166.473684,4.07368421 C166.305263,3.78947368 166.031579,3.51578947 165.631579,3.4 L154.042105,0.0421052632 C153.821053,-0.0105263158 153.536842,-0.0105263158 153.252632,0.0421052632 L140.768421,3.46315789 C140.484211,3.51578947 140.210526,3.68421053 140.042105,3.90526316 C139.757895,3.85263158 139.536842,3.85263158 139.252632,3.95789474 L123.736842,8.38947368 C123.347368,8.49473684 122.957895,8.83157895 122.789474,9.23157895 C122.789474,9.28421053 122.505263,9.11578947 122.452632,9.11578947 C122.168421,9 121.894737,9 121.557895,9.11578947 L105.589474,13.8210526 C105.2,13.9263158 104.863158,14.2105263 104.694737,14.6 C104.642105,14.7684211 104.578947,14.8842105 104.578947,15.0526316 C104.473684,15.0526316 104.357895,15.0526316 104.305263,15.0526316 C103.515789,15.1052632 102.905263,15.7789474 102.957895,16.5052632 L104.410526,35.5473684 C104.473684,35.8842105 104.578947,36.2210526 104.863158,36.4421053 C104.473684,36.7263158 104.189474,37.1684211 104.242105,37.6736842 C104.810526,43.7789474 105.315789,49.9368421 105.926316,56.0421053 C105.978947,56.3789474 106.147368,56.7684211 106.431579,57 C106.094737,57.2736842 105.873684,57.6631579 105.873684,58.1684211 L106.936842,73.6315789 C106.936842,74.0736842 107.210526,74.5263158 107.610526,74.7473684 C111.189474,76.6526316 114.715789,78.6736842 118.305263,80.5157895 C118.526316,80.6315789 118.810526,80.7368421 119.031579,80.7368421 C119.2,80.6842105 119.368421,80.6842105 119.536842,80.6315789 C119.589474,81.0736842 119.821053,81.4736842 120.263158,81.6947368 C124.694737,84.1052632 129.063158,86.5052632 133.536842,88.8631579 C133.705263,88.9684211 133.936842,89.0315789 134.210526,89.0315789 C134.326316,89.0315789 134.494737,89.0315789 134.610526,88.9684211 C134.663158,89.4210526 134.884211,89.8105263 135.273684,90.0315789 L151.126316,99 C151.357895,99.1052632 151.578947,99.1684211 151.852632,99.1684211 C152.136842,99.1684211 152.421053,99.1052632 152.642105,98.9368421 C153.031579,99.5578947 153.873684,99.7263158 154.494737,99.3894737 L169.168421,91.2736842 C170.284211,90.6526316 170.505263,90.6526316 171.178947,90.3157895 L185.294737,82.5894737 C185.747368,82.3684211 186.021053,81.9157895 186.021053,81.4631579 C186.421053,81.6315789 186.926316,81.6315789 187.315789,81.4105263 L198.8,75.3052632 C199.242105,75.1368421 199.526316,74.6947368 199.578947,74.1894737 L200.589474,57.6631579 C200.589474,57.3894737 200.589474,57.1684211 200.421053,56.9368421 C200.305263,56.7684211 200.2,56.6 200.031579,56.4947368 C200.368421,56.2631579 200.589474,55.8736842 200.642105,55.4315789 L201.705263,37.8421053 C201.768421,37.6210526 201.705263,37.4 201.6,37.1684211 C201.547368,37 201.378947,36.8315789 201.263158,36.7263158 C201.547368,36.4421053 201.768421,36.2736842 201.821053,35.8315789 L201.821053,35.8315789 L201.821053,35.8315789 Z" id="Path" fill="#000000"></path>
            <polygon id="Path" fill="#696969" points="136.010526 26.6947368 153.421053 20.8210526 169.052632 26.5263158 152.473684 32.4631579"></polygon>
            <polygon id="Path" fill="#E31E24" points="155.442105 20.0315789 170.621053 14.7157895 186.252632 19.6947368 171.347368 25.8631579"></polygon>
            <polygon id="Path" fill="#696969" points="172.810526 13.9263158 183.957895 10.4631579 199.747368 14.7157895 188.263158 19.0842105"></polygon>
            <polygon id="Path" fill="#FFFFFF" points="155.052632 8.66315789 166.368421 4.96842105 181.884211 9.62105263 169.389474 13.3157895"></polygon>
            <polygon id="Path" fill="#FFFFFF" points="137.684211 13.9894737 152.642105 9.16842105 168.105263 13.8736842 152.810526 19.2"></polygon>
            <polygon id="Path" fill="#FFFFFF" points="119.147368 19.9789474 135.894737 14.6 151.021053 19.9789474 133.936842 25.5789474"></polygon>
            <polygon id="Path" fill="#696969" points="106.042105 14.6631579 122 9.95789474 133.484211 14.0421053 117.410526 19.2526316"></polygon>
            <polygon id="Path" fill="#FFFFFF" points="124.189474 9.23157895 139.705263 4.8 151.021053 8.72631579 136.231579 13.3684211"></polygon>
            <polygon id="Path" fill="#696969" points="141.157895 4.29473684 153.652632 0.884210526 165.242105 4.24210526 152.863158 8.15789474"></polygon>
            <polygon id="Path" fill="#696969" points="134.884211 28.0421053 151.463158 34.1473684 151.463158 55.2631579 135.557895 48.4315789"></polygon>
            <polygon id="Path" fill="#009846" points="118.305263 21.7157895 133.042105 27.3157895 133.705263 47.7578947 118.978947 41.3157895"></polygon>
            <polygon id="Path" fill="#696969" points="104.305263 15.9473684 116.4 20.9263158 117.073684 40.3052632 105.757895 34.9894737"></polygon>
            <polygon id="Path" fill="#009846" points="135.442105 50.3894737 151.526316 57.3368421 151.526316 77.6 136.063158 70.0421053"></polygon>
            <polygon id="Path" fill="#009846" points="119.315789 43.4421053 133.6 49.6631579 134.157895 68.8736842 120.094737 62.1473684"></polygon>
            <polygon id="Path" fill="#009846" points="105.589474 37.0631579 117.410526 42.6 118.136842 61.1368421 107.273684 55.4315789"></polygon>
            <polygon id="Path" fill="#696969" points="136.010526 72.1684211 151.684211 79.7368421 151.747368 97.3157895 135.947368 88.3578947"></polygon>
            <polygon id="Path" fill="#FFED00" points="120.378947 64.4421053 134.105263 71.0526316 134.105263 87.1789474 120.884211 80.0105263"></polygon>
            <polygon id="Path" fill="#696969" points="107.210526 57.6105263 118.473684 63.5473684 118.926316 78.8315789 108.221053 73.0736842"></polygon>
            <polygon id="Path" fill="#696969" points="153.315789 34.4315789 169.894737 28.3789474 169.557895 48.9894737 153.421053 55.4315789"></polygon>
            <polygon id="Path" fill="#FFFFFF" points="171.852632 27.8210526 187.094737 21.6631579 186.305263 41.6526316 171.578947 48.0315789"></polygon>
            <polygon id="Path" fill="#696969" points="188.936842 21.0421053 201.147368 16.2315789 200.252632 35.3789474 188.263158 40.6947368"></polygon>
            <polygon id="Path" fill="#E31E24" points="153.484211 57.5578947 169.557895 51.0631579 168.936842 70.0421053 153.536842 77.8315789"></polygon>
            <polygon id="Path" fill="#E31E24" points="171.631579 50.2210526 186.136842 43.7789474 185.073684 62.2631579 171.010526 69.3157895"></polygon>
            <polygon id="Path" fill="#E31E24" points="188.263158 42.8315789 200.2 37.5052632 199.136842 55.0947368 187.2 61.5894737"></polygon>
            <polygon id="Path" fill="#696969" points="153.652632 79.8421053 169.105263 72.0631579 168.378947 89.8105263 153.705263 97.9368421"></polygon>
            <polygon id="Path" fill="#E31E24" points="171.126316 71.4421053 185.294737 64.3368421 184.568421 81.0736842 170.336842 88.8631579"></polygon>
            <polygon id="Path" fill="#696969" points="187.315789 63.6631579 199.073684 57.3368421 198.073684 73.8526316 186.526316 79.9578947"></polygon>
            <path d="M124.757895,57.8736842 L124.726316,56.9789474 C123.810526,23.6842105 123.726316,20.5157895 144.463158,15.5263158 L141.052632,13.0842105 L155.221053,13.7578947 L144.989474,20.2736842 C145.031579,19.2105263 144.515789,17.9684211 144.642105,16.9157895 C124.968421,21.7052632 125.042105,24.8736842 125.936842,56.9263158 L125.957895,57.8210526 L124.757895,57.8736842 Z" id="Path" fill="#000000"></path>
        </g>
    </g>
</svg>