<?xml version="1.0" encoding="UTF-8"?>
<svg width="210px" height="100px" viewBox="0 0 210 100" version="1.1" xmlns="http://www.w3.org/2000/svg" xmlns:xlink="http://www.w3.org/1999/xlink">
    <title>blaccel_3_1</title>
    <g id="Blind" stroke="none" stroke-width="1" fill="none" fill-rule="evenodd">
        <g id="blaccel_3_1" fill-rule="nonzero">
            <path d="M102.192746,35.8315789 L103.008808,16.5578947 C103.063212,16.3368421 103.008808,16.1684211 102.954404,15.9473684 C102.660622,15.4421053 102.138342,15.1052632 101.507254,15.1052632 C101.507254,14.5473684 101.039378,14.0421053 100.462694,13.8736842 L84.1305699,9.62105263 C83.8476684,9.50526316 83.4994819,9.50526316 83.2601036,9.62105263 C83.1512953,9.62105263 83.0860104,9.67368421 82.9772021,9.67368421 C82.857513,9.28421053 82.5093264,8.94736842 82.0523316,8.77894737 L65.9487047,4.12631579 C65.8943005,4.12631579 65.7746114,4.07368421 65.6658031,4.07368421 C65.4917098,3.78947368 65.1979275,3.51578947 64.7953368,3.4 L52.8046632,0.0421052632 C52.5761658,-0.0105263158 52.2823834,-0.0105263158 51.9994819,0.0421052632 L39.0839378,3.46315789 C38.8010363,3.51578947 38.5072539,3.68421053 38.3331606,3.90526316 C38.0393782,3.85263158 37.8108808,3.85263158 37.5279793,3.95789474 L21.4896373,8.38947368 C21.0761658,8.49473684 20.6735751,8.83157895 20.4994819,9.23157895 C20.4994819,9.28421053 20.2056995,9.11578947 20.1512953,9.11578947 C19.8683938,9 19.5746114,9 19.2264249,9.11578947 L2.72020725,13.8210526 C2.31761658,13.9263158 1.96943005,14.2105263 1.79533679,14.6 C1.74093264,14.7684211 1.6865285,14.8842105 1.6865285,15.0526316 C1.56683938,15.0526316 1.44715026,15.0526316 1.39274611,15.0526316 C0.587564767,15.1052632 -0.0544041451,15.7789474 1.11130723e-14,16.5052632 L1.51243523,35.5473684 C1.56683938,35.8842105 1.6865285,36.2210526 1.96943005,36.4421053 C1.56683938,36.7263158 1.27305699,37.1684211 1.33834197,37.6736842 C1.91502591,43.7789474 2.4373057,49.9368421 3.06839378,56.0421053 C3.13367876,56.3789474 3.30777202,56.7684211 3.59067358,57 C3.24248705,57.2736842 3.01398964,57.6631579 3.01398964,58.1684211 L4.11295337,73.6315789 C4.11295337,74.0736842 4.40673575,74.5263158 4.80932642,74.7473684 C8.51968912,76.6526316 12.1647668,78.6736842 15.8642487,80.5157895 C16.1036269,80.6315789 16.3865285,80.7368421 16.6259067,80.7368421 C16.8,80.6842105 16.9740933,80.6842105 17.1481865,80.6315789 C17.2025907,81.0736842 17.4310881,81.4736842 17.8989637,81.6947368 C22.4689119,84.1052632 26.984456,86.5052632 31.6196891,88.8631579 C31.7937824,88.9684211 32.0222798,89.0315789 32.3160622,89.0315789 C32.4248705,89.0315789 32.5989637,89.0315789 32.7186528,88.9684211 C32.773057,89.4210526 33.0124352,89.8105263 33.4150259,90.0315789 L49.8015544,99 C50.0300518,99.1052632 50.2585492,99.1684211 50.5523316,99.1684211 C50.8352332,99.1684211 51.1290155,99.1052632 51.357513,98.9368421 C51.7709845,99.5578947 52.6305699,99.7263158 53.2725389,99.3894737 L68.4404145,91.2736842 C69.6046632,90.6526316 69.8331606,90.6526316 70.5295337,90.3157895 L85.1207254,82.5894737 C85.5777202,82.3684211 85.8715026,81.9157895 85.8715026,81.4631579 C86.2740933,81.6315789 86.7963731,81.6315789 87.1989637,81.4105263 L99.0699482,75.3052632 C99.5378238,75.1368421 99.8207254,74.6947368 99.8860104,74.1894737 L100.919689,57.6631579 C100.919689,57.3894737 100.919689,57.1684211 100.745596,56.9368421 C100.636788,56.7684211 100.517098,56.6 100.343005,56.4947368 C100.691192,56.2631579 100.919689,55.8736842 100.984974,55.4315789 L102.083938,37.8421053 C102.138342,37.6210526 102.083938,37.4 101.964249,37.1684211 C101.909845,37 101.735751,36.8315789 101.616062,36.7263158 C101.909845,36.4421053 102.138342,36.2736842 102.192746,35.8315789 L102.192746,35.8315789 L102.192746,35.8315789 Z" id="Path" fill="#000000"></path>
            <polygon id="Path" fill="#FFFFFF" points="34.1658031 26.6947368 52.1735751 20.8210526 68.3207254 26.5263158 51.1834197 32.4631579"></polygon>
            <polygon id="Path" fill="#FFFFFF" points="54.2518135 20.0315789 69.9419689 14.7157895 86.1 19.6947368 70.7036269 25.8631579"></polygon>
            <polygon id="Path" fill="#FFFFFF" points="72.2051813 13.9263158 83.7279793 10.4631579 100.060104 14.7157895 88.1891192 19.0842105"></polygon>
            <polygon id="Path" fill="#FFFFFF" points="53.8492228 8.66315789 65.546114 4.96842105 81.584456 9.62105263 68.6689119 13.3157895"></polygon>
            <polygon id="Path" fill="#FFFFFF" points="35.9067358 13.9894737 51.357513 9.16842105 67.3414508 13.8736842 51.5316062 19.2"></polygon>
            <polygon id="Path" fill="#FFFFFF" points="16.734715 19.9789474 34.046114 14.6 49.6818653 19.9789474 32.0222798 25.5789474"></polygon>
            <polygon id="Path" fill="#FFFFFF" points="3.1880829 14.6631579 19.6943005 9.95789474 31.5544041 14.0421053 14.9393782 19.2526316"></polygon>
            <polygon id="Path" fill="#FFFFFF" points="21.9466321 9.23157895 37.9849741 4.8 49.6818653 8.72631579 34.3943005 13.3684211"></polygon>
            <polygon id="Path" fill="#FFFFFF" points="39.4865285 4.29473684 52.4020725 0.884210526 64.3927461 4.24210526 51.5968912 8.15789474"></polygon>
            <polygon id="Path" fill="#009846" points="33.0015544 28.0421053 50.1497409 34.1473684 50.1497409 55.2631579 33.6979275 48.4315789"></polygon>
            <polygon id="Path" fill="#009846" points="15.8642487 21.7157895 31.0974093 27.3157895 31.7937824 47.7578947 16.5606218 41.3157895"></polygon>
            <polygon id="Path" fill="#009846" points="1.39274611 15.9473684 13.8948187 20.9263158 14.5911917 40.3052632 2.89430052 34.9894737"></polygon>
            <polygon id="Path" fill="#E31E24" points="33.5891192 50.3894737 50.2041451 57.3368421 50.2041451 77.6 34.2202073 70.0421053"></polygon>
            <polygon id="Path" fill="#009846" points="16.9088083 43.4421053 31.6740933 49.6631579 32.2507772 68.8736842 17.7248705 62.1473684"></polygon>
            <polygon id="Path" fill="#009846" points="2.72020725 37.0631579 14.9393782 42.6 15.6901554 61.1368421 4.4611399 55.4315789"></polygon>
            <polygon id="Path" fill="#009846" points="34.1658031 72.1684211 50.3782383 79.7368421 50.4326425 97.3157895 34.111399 88.3578947"></polygon>
            <polygon id="Path" fill="#009846" points="18.007772 64.4421053 32.1963731 71.0526316 32.1963731 87.1789474 18.5300518 80.0105263"></polygon>
            <polygon id="Path" fill="#009846" points="4.40673575 57.6105263 16.038342 63.5473684 16.5062176 78.8315789 5.45129534 73.0736842"></polygon>
            <polygon id="Path" fill="#E31E24" points="52.053886 34.4315789 69.1911917 28.3789474 68.8430052 48.9894737 52.1735751 55.4315789"></polygon>
            <polygon id="Path" fill="#E31E24" points="71.2259067 27.8210526 86.9704663 21.6631579 86.1544041 41.6526316 70.9321244 48.0315789"></polygon>
            <polygon id="Path" fill="#E31E24" points="88.8854922 21.0421053 101.507254 16.2315789 100.571503 35.3789474 88.1891192 40.6947368"></polygon>
            <polygon id="Path" fill="#009846" points="52.2279793 57.5578947 68.8430052 51.0631579 68.2119171 70.0421053 52.2823834 77.8315789"></polygon>
            <polygon id="Path" fill="#E31E24" points="70.9865285 50.2210526 85.9911917 43.7789474 84.8813472 62.2631579 70.3554404 69.3157895"></polygon>
            <polygon id="Path" fill="#0062AC" points="88.1891192 42.8315789 100.517098 37.5052632 99.4181347 55.0947368 87.0901554 61.5894737"></polygon>
            <polygon id="Path" fill="#E31E24" points="52.4020725 79.8421053 68.3860104 72.0631579 67.6352332 89.8105263 52.4564767 97.9368421"></polygon>
            <polygon id="Path" fill="#E31E24" points="70.4642487 71.4421053 85.1207254 64.3368421 84.3699482 81.0736842 69.6590674 88.8631579"></polygon>
            <polygon id="Path" fill="#E31E24" points="87.1989637 63.6631579 99.3637306 57.3368421 98.319171 73.8526316 86.3937824 79.9578947"></polygon>
            <path d="M62.4450777,62.9157895 C63.6419689,44.5473684 64.1860104,35.3263158 60.6279793,29.7578947 C57.6466321,25.1052632 51.9559585,23.1894737 41.5974093,20.8526316 L46.2544041,17.9684211 L29.7590674,18.9473684 L44.2958549,26.5473684 L42.3590674,23.6105263 L41.3689119,22.1052632 C51.3248705,24.3578947 56.7870466,26.1894737 59.5072539,30.4315789 C62.8476684,35.6526316 62.3145078,44.7368421 61.1284974,62.8421053 L62.4450777,62.9157895 Z" id="Path" fill="#000000"></path>
            <path d="M94.880829,51.9473684 C96.0777202,33.5789474 96.6217617,24.3578947 93.0637306,18.7894737 C90.0823834,14.1368421 84.3917098,12.2210526 74.0331606,9.88421053 L78.6901554,7 L62.1948187,7.97894737 L76.7316062,15.5789474 L74.7948187,12.6421053 L73.8046632,11.1368421 C83.7606218,13.3894737 89.2227979,15.2210526 91.9430052,19.4631579 C95.2834197,24.6842105 94.7502591,33.7684211 93.5642487,51.8736842 L94.880829,51.9473684 Z" id="Path" fill="#000000"></path>
            <path d="M208.618135,35.8315789 L209.434197,16.5578947 C209.488601,16.3368421 209.434197,16.1684211 209.368912,15.9473684 C209.08601,15.4421053 208.563731,15.1052632 207.921762,15.1052632 C207.921762,14.5473684 207.464767,14.0421053 206.877202,13.8736842 L190.555959,9.62105263 C190.262176,9.50526316 189.91399,9.50526316 189.685492,9.62105263 C189.565803,9.62105263 189.511399,9.67368421 189.39171,9.67368421 C189.282902,9.28421053 188.934715,8.94736842 188.466839,8.77894737 L172.374093,4.12631579 C172.319689,4.12631579 172.2,4.07368421 172.080311,4.07368421 C171.906218,3.78947368 171.623316,3.51578947 171.209845,3.4 L159.230052,0.0421052632 C159.001554,-0.0105263158 158.707772,-0.0105263158 158.41399,0.0421052632 L145.509326,3.46315789 C145.215544,3.51578947 144.932642,3.68421053 144.758549,3.90526316 C144.464767,3.85263158 144.236269,3.85263158 143.942487,3.95789474 L127.904145,8.38947368 C127.501554,8.49473684 127.098964,8.83157895 126.92487,9.23157895 C126.92487,9.28421053 126.631088,9.11578947 126.576684,9.11578947 C126.282902,9 126,9 125.651813,9.11578947 L109.145596,13.8210526 C108.743005,13.9263158 108.394819,14.2105263 108.220725,14.6 C108.166321,14.7684211 108.101036,14.8842105 108.101036,15.0526316 C107.992228,15.0526316 107.872539,15.0526316 107.818135,15.0526316 C107.002073,15.1052632 106.370984,15.7789474 106.425389,16.5052632 L107.926943,35.5473684 C107.992228,35.8842105 108.101036,36.2210526 108.394819,36.4421053 C107.992228,36.7263158 107.698446,37.1684211 107.75285,37.6736842 C108.340415,43.7789474 108.862694,49.9368421 109.493782,56.0421053 C109.548187,56.3789474 109.72228,56.7684211 110.016062,57 C109.667876,57.2736842 109.439378,57.6631579 109.439378,58.1684211 L110.538342,73.6315789 C110.538342,74.0736842 110.821244,74.5263158 111.234715,74.7473684 C114.934197,76.6526316 118.579275,78.6736842 122.289637,80.5157895 C122.518135,80.6315789 122.811917,80.7368421 123.040415,80.7368421 C123.214508,80.6842105 123.388601,80.6842105 123.562694,80.6315789 C123.617098,81.0736842 123.856477,81.4736842 124.313472,81.6947368 C128.894301,84.1052632 133.409845,86.5052632 138.034197,88.8631579 C138.20829,88.9684211 138.447668,89.0315789 138.73057,89.0315789 C138.850259,89.0315789 139.024352,89.0315789 139.144041,88.9684211 C139.198446,89.4210526 139.426943,89.8105263 139.829534,90.0315789 L156.216062,99 C156.45544,99.1052632 156.683938,99.1684211 156.966839,99.1684211 C157.260622,99.1684211 157.554404,99.1052632 157.782902,98.9368421 C158.185492,99.5578947 159.055959,99.7263158 159.697927,99.3894737 L174.865803,91.2736842 C176.019171,90.6526316 176.247668,90.6526316 176.944041,90.3157895 L191.535233,82.5894737 C192.003109,82.3684211 192.28601,81.9157895 192.28601,81.4631579 C192.699482,81.6315789 193.221762,81.6315789 193.624352,81.4105263 L205.495337,75.3052632 C205.952332,75.1368421 206.246114,74.6947368 206.300518,74.1894737 L207.345078,57.6631579 C207.345078,57.3894737 207.345078,57.1684211 207.170984,56.9368421 C207.051295,56.7684211 206.942487,56.6 206.768394,56.4947368 C207.11658,56.2631579 207.345078,55.8736842 207.399482,55.4315789 L208.498446,37.8421053 C208.563731,37.6210526 208.498446,37.4 208.389637,37.1684211 C208.335233,37 208.16114,36.8315789 208.041451,36.7263158 C208.335233,36.4421053 208.563731,36.2736842 208.618135,35.8315789 L208.618135,35.8315789 L208.618135,35.8315789 Z" id="Path" fill="#000000"></path>
            <polygon id="Path" fill="#FFFFFF" points="140.591192 26.6947368 158.588083 20.8210526 174.746114 26.5263158 157.608808 32.4631579"></polygon>
            <polygon id="Path" fill="#FFFFFF" points="160.677202 20.0315789 176.367358 14.7157895 192.525389 19.6947368 177.118135 25.8631579"></polygon>
            <polygon id="Path" fill="#FFFFFF" points="178.63057 13.9263158 190.153368 10.4631579 206.474611 14.7157895 194.603627 19.0842105"></polygon>
            <polygon id="Path" fill="#FFFFFF" points="160.274611 8.66315789 171.971503 4.96842105 188.009845 9.62105263 175.094301 13.3157895"></polygon>
            <polygon id="Path" fill="#FFFFFF" points="142.321244 13.9894737 157.782902 9.16842105 173.766839 13.8736842 157.956995 19.2"></polygon>
            <polygon id="Path" fill="#FFFFFF" points="123.160104 19.9789474 140.471503 14.6 156.107254 19.9789474 138.447668 25.5789474"></polygon>
            <polygon id="Path" fill="#FFFFFF" points="109.613472 14.6631579 126.108808 9.95789474 137.979793 14.0421053 121.364767 19.2526316"></polygon>
            <polygon id="Path" fill="#FFFFFF" points="128.372021 9.23157895 144.410363 4.8 156.107254 8.72631579 140.819689 13.3684211"></polygon>
            <polygon id="Path" fill="#FFFFFF" points="145.911917 4.29473684 158.827461 0.884210526 170.807254 4.24210526 158.011399 8.15789474"></polygon>
            <polygon id="Path" fill="#009846" points="139.426943 28.0421053 156.564249 34.1473684 156.564249 55.2631579 140.123316 48.4315789"></polygon>
            <polygon id="Path" fill="#009846" points="122.289637 21.7157895 137.522798 27.3157895 138.20829 47.7578947 122.98601 41.3157895"></polygon>
            <polygon id="Path" fill="#009846" points="107.818135 15.9473684 120.320207 20.9263158 121.01658 40.3052632 109.319689 34.9894737"></polygon>
            <polygon id="Path" fill="#E31E24" points="140.003627 50.3894737 156.629534 57.3368421 156.629534 77.6 140.645596 70.0421053"></polygon>
            <polygon id="Path" fill="#009846" points="123.334197 43.4421053 138.099482 49.6631579 138.676166 68.8736842 124.139378 62.1473684"></polygon>
            <polygon id="Path" fill="#EF7F1A" points="109.145596 37.0631579 121.364767 42.6 122.115544 61.1368421 110.886528 55.4315789"></polygon>
            <polygon id="Path" fill="#009846" points="140.591192 72.1684211 156.792746 79.7368421 156.858031 97.3157895 140.525907 88.3578947"></polygon>
            <polygon id="Path" fill="#009846" points="124.433161 64.4421053 138.621762 71.0526316 138.621762 87.1789474 124.95544 80.0105263"></polygon>
            <polygon id="Path" fill="#009846" points="110.821244 57.6105263 122.463731 63.5473684 122.931606 78.8315789 111.865803 73.0736842"></polygon>
            <polygon id="Path" fill="#E31E24" points="158.479275 34.4315789 175.61658 28.3789474 175.268394 48.9894737 158.588083 55.4315789"></polygon>
            <polygon id="Path" fill="#E31E24" points="177.640415 27.8210526 193.395855 21.6631579 192.579793 41.6526316 177.357513 48.0315789"></polygon>
            <polygon id="Path" fill="#E31E24" points="195.3 21.0421053 207.921762 16.2315789 206.996891 35.3789474 194.603627 40.6947368"></polygon>
            <polygon id="Path" fill="#009846" points="158.653368 57.5578947 175.268394 51.0631579 174.626425 70.0421053 158.707772 77.8315789"></polygon>
            <polygon id="Path" fill="#E31E24" points="177.411917 50.2210526 192.405699 43.7789474 191.306736 62.2631579 176.769948 69.3157895"></polygon>
            <polygon id="Path" fill="#E31E24" points="194.603627 42.8315789 206.942487 37.5052632 205.843523 55.0947368 193.504663 61.5894737"></polygon>
            <polygon id="Path" fill="#E31E24" points="158.827461 79.8421053 174.800518 72.0631579 174.049741 89.8105263 158.881865 97.9368421"></polygon>
            <polygon id="Path" fill="#E31E24" points="176.889637 71.4421053 191.535233 64.3368421 190.784456 81.0736842 176.073575 88.8631579"></polygon>
            <polygon id="Path" fill="#E31E24" points="193.624352 63.6631579 205.778238 57.3368421 204.74456 73.8526316 192.80829 79.9578947"></polygon>
            <path d="M168.641969,64.6105263 C169.83886,46.2421053 170.382902,37.0210526 166.82487,31.4526316 C163.843523,26.8 158.15285,24.8842105 147.794301,22.5473684 L152.451295,19.6631579 L135.955959,20.6421053 L150.492746,28.2421053 L148.555959,25.3052632 L147.565803,23.8 C157.521762,26.0526316 162.983938,27.8842105 165.704145,32.1263158 C169.04456,37.3473684 168.511399,46.4315789 167.325389,64.5368421 L168.641969,64.6105263 Z" id="Path" fill="#000000"></path>
            <path d="M112.61658,48.5263158 L112.583938,47.7157895 C111.572021,17.5473684 111.484974,14.6842105 134.378238,10.1578947 L130.613472,7.94736842 L146.260104,8.55789474 L134.965803,14.4631579 C135.009326,13.5052632 134.432642,12.3789474 134.574093,11.4210526 C112.845078,15.7578947 112.932124,18.6315789 113.911399,47.6736842 L113.933161,48.4842105 L112.61658,48.5263158 Z" id="Path" fill="#000000"></path>
        </g>
    </g>
</svg>