<?xml version="1.0" encoding="UTF-8"?>
<svg width="210px" height="100px" viewBox="0 0 210 100" version="1.1" xmlns="http://www.w3.org/2000/svg" xmlns:xlink="http://www.w3.org/1999/xlink">
    <title>blaccel_8_1</title>
    <g id="Blind" stroke="none" stroke-width="1" fill="none" fill-rule="evenodd">
        <g id="blaccel_8_1" fill-rule="nonzero">
            <path d="M95.777027,18.5633803 C96.5574324,18.5352113 97.2243243,19.1549296 97.1968197,19.9295775 C96.3445946,38.3239437 95.3513514,56.7887324 94.2304054,75.1690141 C94.202027,75.6760563 93.8898649,76.084507 93.45,76.2957746 C79.0763514,83.8591549 65.3128378,91.3098592 50.7831081,99.2957746 C50.1587838,99.6338028 49.3783784,99.4507042 48.9810811,98.9014085 C48.5412162,99.1690141 47.9736486,99.1830986 47.5337838,98.9295775 C47.5337838,98.9295775 9.08108108,77.5774648 5.59054054,75.6901408 C5.15067568,75.4647887 4.90945946,75.028169 4.89527027,74.5774648 C3.66081081,56.1690141 2.52567568,38.4225352 1.07837838,19.9014085 C1.02162162,19.0422535 1.81621622,18.3802817 2.65337838,18.4929577 C2.69594595,17.9014085 3.12162162,17.4225352 3.71756757,17.2816901 C19.0277027,12.7887324 34.1675676,8.29577465 49.5912162,4.11267606 C49.8466216,4.04225352 50.102027,4.04225352 50.3432432,4.11267606 C65.5966216,8.52112676 79.2891892,13.1971831 94.7695946,17.3661972 C95.3513514,17.5211268 95.7486486,18.0140845 95.777027,18.5633803 L95.777027,18.5633803 Z" id="Path" fill="#000000"></path>
            <polygon id="Path" fill="#009846" points="31.9540541 31.4084507 47.9452703 37.2394366 47.9168919 57.4929577 32.5925676 50.915493"></polygon>
            <polygon id="Path" fill="#009846" points="15.9486486 25.3521127 30.152027 30.7183099 30.8189189 50.2816901 16.6155405 44.1126761"></polygon>
            <polygon id="Path" fill="#009846" points="2.45472973 19.8028169 14.1324324 24.6056338 14.7851351 43.1549296 3.87364865 38.0704225"></polygon>
            <polygon id="Path" fill="#0062AC" points="32.4790541 52.8169014 47.9878378 59.4788732 47.9736486 78.8873239 33.075 71.6478873"></polygon>
            <polygon id="Path" fill="#009846" points="16.9277027 46.1971831 30.7054054 52.1126761 31.272973 70.5492958 17.6655405 64.0985915"></polygon>
            <polygon id="Path" fill="#009846" points="3.70337838 40.056338 15.0831081 45.3661972 15.7925676 63.1267606 5.32094595 57.6478873"></polygon>
            <polygon id="Path" fill="#009846" points="33.0182432 73.6901408 48.1439189 80.9577465 48.2290541 97.8028169 32.9614865 89.2112676"></polygon>
            <polygon id="Path" fill="#009846" points="17.9493243 66.2816901 31.1736486 72.6056338 31.2162162 88.0704225 18.4317568 81.2253521"></polygon>
            <polygon id="Path" fill="#009846" points="5.27837838 59.7323944 16.1189189 65.4366197 16.572973 80.0985915 6.25743243 74.5352113"></polygon>
            <polygon id="Path" fill="#E31E24" points="49.7331081 37.3239437 65.7385135 31.4929577 65.4121622 51.2394366 49.8182432 57.4225352"></polygon>
            <polygon id="Path" fill="#009846" points="67.6114865 31 82.2689189 25.0704225 81.5310811 44.2253521 67.3418919 50.3521127"></polygon>
            <polygon id="Path" fill="#E31E24" points="84.0993243 24.4929577 95.8337838 19.8732394 94.9682432 38.2394366 83.4466216 43.3380282"></polygon>
            <polygon id="Path" fill="#EF7F1A" points="49.9033784 59.4507042 65.397973 53.2535211 64.802027 71.4507042 49.9175676 78.8873239"></polygon>
            <polygon id="Path" fill="#E31E24" points="67.3986486 52.4507042 81.375 46.2957746 80.3675676 64 66.7743243 70.7746479"></polygon>
            <polygon id="Path" fill="#E31E24" points="83.4182432 45.3802817 94.9540541 40.2394366 93.9040541 57.1408451 82.3824324 63.3521127"></polygon>
            <polygon id="Path" fill="#E31E24" points="50.0310811 80.8169014 64.9439189 73.3943662 64.2344595 90.3943662 50.102027 98.1408451"></polygon>
            <polygon id="Path" fill="#E31E24" points="66.8736486 72.7746479 80.5945946 65.943662 79.8425676 82.028169 66.1641892 89.4788732"></polygon>
            <polygon id="Path" fill="#E31E24" points="82.5243243 65.3239437 93.8331081 59.2394366 92.8682432 75.0985915 81.7722973 80.943662"></polygon>
            <polygon id="Path" fill="#FFFFFF" points="32.9189189 30.1267606 49.7472973 24.4929577 64.802027 29.9295775 48.8391892 35.6619718"></polygon>
            <polygon id="Path" fill="#E31E24" points="51.6486486 23.7042254 66.2918919 18.6197183 81.4033784 23.4225352 67.0155405 29.3380282"></polygon>
            <polygon id="Path" fill="#FFFFFF" points="68.3918919 17.8591549 79.1472973 14.5352113 94.4148649 18.6338028 83.3472973 22.8450704"></polygon>
            <polygon id="Path" fill="#FFFFFF" points="51.2939189 12.8169014 62.2054054 9.30985915 77.1891892 13.7746479 65.1141892 17.2957746"></polygon>
            <polygon id="Path" fill="#FFFFFF" points="34.5648649 17.943662 48.9810811 13.2957746 63.8655405 17.8591549 49.1087838 22.915493"></polygon>
            <polygon id="Path" fill="#FFFFFF" points="16.6581081 23.6478873 32.8337838 18.5352113 47.4202703 23.6478873 30.9182432 29.056338"></polygon>
            <polygon id="Path" fill="#FFFFFF" points="4.02972973 18.5633803 19.4108108 14.056338 30.4925676 17.971831 15.0121622 23"></polygon>
            <polygon id="Path" fill="#FFFFFF" points="21.5108108 13.3661972 36.4945946 9.12676056 47.4060811 12.9014085 33.1459459 17.3661972"></polygon>
            <polygon id="Path" fill="#FFFFFF" points="37.8993243 8.66197183 49.9601351 5.38028169 61.127027 8.6056338 49.1939189 12.3661972"></polygon>
            <polygon id="Path" fill="#000000" points="109.866892 0.985915493 209.077703 0.985915493 209.077703 99.4647887 109.866892 99.4647887"></polygon>
            <polygon id="Path" fill="#EF7F1A" points="197.22973 12.8450704 173.817568 12.8450704 173.817568 36.084507 197.22973 36.084507"></polygon>
            <polygon id="Path" fill="#FFFFFF" points="171.121622 12.8450704 147.709459 12.8450704 147.709459 36.084507 171.121622 36.084507"></polygon>
            <polygon id="Path" fill="#EF7F1A" points="145.013514 12.8450704 121.601351 12.8450704 121.601351 36.084507 145.013514 36.084507"></polygon>
            <polygon id="Path" fill="#E31E24" points="197.22973 38.7605634 173.817568 38.7605634 173.817568 62 197.22973 62"></polygon>
            <polygon id="Path" fill="#FFFFFF" points="171.121622 38.7605634 147.709459 38.7605634 147.709459 62 171.121622 62"></polygon>
            <polygon id="Path" fill="#FFFFFF" points="145.013514 38.7605634 121.601351 38.7605634 121.601351 62 145.013514 62"></polygon>
            <polygon id="Path" fill="#E31E24" points="197.22973 64.6760563 173.817568 64.6760563 173.817568 87.915493 197.22973 87.915493"></polygon>
            <polygon id="Path" fill="#EF7F1A" points="171.121622 64.6760563 147.709459 64.6760563 147.709459 87.915493 171.121622 87.915493"></polygon>
            <polygon id="Path" fill="#E31E24" points="145.013514 64.8169014 121.601351 64.8169014 121.601351 88.056338 145.013514 88.056338"></polygon>
            <polygon id="Path" fill="#0062AC" points="145.112838 3.77464789 121.700676 3.77464789 121.700676 8.95774648 145.112838 8.95774648"></polygon>
            <polygon id="Path" fill="#E31E24" points="171.220946 3.77464789 147.808784 3.77464789 147.808784 8.95774648 171.220946 8.95774648"></polygon>
            <polygon id="Path" fill="#0062AC" points="197.329054 3.77464789 173.916892 3.77464789 173.916892 8.95774648 197.329054 8.95774648"></polygon>
            <polygon id="Path" fill="#FFFFFF" points="206.466892 36.1690141 206.466892 12.9295775 201.24527 12.9295775 201.24527 36.1690141"></polygon>
            <polygon id="Path" fill="#009846" points="206.466892 62.084507 206.466892 38.8450704 201.24527 38.8450704 201.24527 62.084507"></polygon>
            <polygon id="Path" fill="#FFED00" points="206.466892 88 206.466892 64.7605634 201.24527 64.7605634 201.24527 88"></polygon>
            <polygon id="Path" fill="#009846" points="197.329054 91.9014085 173.916892 91.9014085 173.916892 97.084507 197.329054 97.084507"></polygon>
            <polygon id="Path" fill="#0062AC" points="171.220946 91.9014085 147.808784 91.9014085 147.808784 97.084507 171.220946 97.084507"></polygon>
            <polygon id="Path" fill="#009846" points="145.112838 91.9014085 121.700676 91.9014085 121.700676 97.084507 145.112838 97.084507"></polygon>
            <polygon id="Path" fill="#FFFFFF" points="117.699324 88 117.699324 64.7605634 112.477703 64.7605634 112.477703 88"></polygon>
            <polygon id="Path" fill="#EF7F1A" points="117.699324 62.084507 117.699324 38.8450704 112.477703 38.8450704 112.477703 62.084507"></polygon>
            <polygon id="Path" fill="#FFED00" points="117.699324 36.1690141 117.699324 12.9295775 112.477703 12.9295775 112.477703 36.1690141"></polygon>
            <path d="M185.580405,50.4225352 L177.776351,47.3380282 L177.776351,47.3380282 L178.003378,47.2535211 L178.216216,47.1830986 L178.414865,47.0985915 L178.627703,47 L178.826351,46.915493 L179.010811,46.8169014 L179.209459,46.7183099 L179.393919,46.6056338 L179.564189,46.4929577 L179.748649,46.3802817 L179.918919,46.2535211 L180.089189,46.1408451 L180.24527,46 L180.401351,45.8732394 L180.557432,45.7323944 L180.699324,45.5915493 L180.855405,45.4366197 L180.983108,45.2957746 L181.125,45.1408451 L181.252703,44.971831 L181.380405,44.8028169 L181.493919,44.6338028 L181.621622,44.4647887 L181.735135,44.2816901 L181.834459,44.0985915 L181.933784,43.915493 L182.033108,43.7183099 L182.132432,43.5211268 L182.217568,43.3239437 L182.302703,43.1126761 L182.387838,42.9014085 L182.458784,42.6901408 L185.580405,50.4225352 L185.580405,50.4225352 Z M159.685135,24.2957746 L183.05473,47.4929577 L182.614865,47.915493 L159.24527,24.7323944 L159.685135,24.2957746 L159.685135,24.2957746 Z" id="Shape" fill="#1A237E"></path>
            <path d="M159.472297,76.3380282 L162.57973,68.6056338 L162.57973,68.6056338 L162.664865,68.8169014 L162.735811,69.028169 L162.820946,69.2394366 L162.92027,69.4366197 L163.005405,69.6338028 L163.10473,69.8309859 L163.204054,70.0140845 L163.317568,70.1971831 L163.431081,70.3802817 L163.544595,70.5492958 L163.672297,70.7323944 L163.785811,70.8873239 L163.927703,71.056338 L164.055405,71.2112676 L164.197297,71.3661972 L164.339189,71.5070423 L164.49527,71.6478873 L164.637162,71.7887324 L164.793243,71.9295775 L164.963514,72.056338 L165.133784,72.1830986 L165.304054,72.2957746 L165.474324,72.4084507 L165.658784,72.5211268 L165.843243,72.6338028 L166.027703,72.7323944 L166.226351,72.8309859 L166.425,72.9295775 L166.623649,73.0140845 L166.836486,73.0985915 L167.049324,73.1690141 L167.262162,73.2535211 L159.472297,76.3380282 L159.472297,76.3380282 Z M185.353378,50.2112676 L185.793243,50.6478873 L162.423649,73.8450704 L161.997973,73.4084507 L185.353378,50.2112676 Z" id="Shape" fill="#1A237E"></path>
            <path d="M159.145946,26.8873239 L159.798649,26.8873239 L159.798649,74.8732394 L159.145946,74.8732394 L159.145946,26.8873239 Z M159.472297,23.028169 L162.778378,30.6901408 L162.565541,30.5915493 L162.366892,30.5070423 L162.154054,30.4225352 L161.955405,30.3380282 L161.742568,30.2676056 L161.52973,30.1971831 L161.331081,30.1408451 L161.118243,30.084507 L160.919595,30.028169 L160.706757,29.9859155 L160.508108,29.9577465 L160.29527,29.9295775 L160.082432,29.9014085 L159.883784,29.8873239 L159.670946,29.8732394 L159.472297,29.8732394 L159.259459,29.8732394 L159.060811,29.8873239 L158.847973,29.9014085 L158.635135,29.9295775 L158.436486,29.9577465 L158.223649,29.9859155 L158.025,30.028169 L157.812162,30.084507 L157.613514,30.1408451 L157.400676,30.1971831 L157.187838,30.2676056 L156.989189,30.3380282 L156.776351,30.4225352 L156.577703,30.5070423 L156.364865,30.5915493 L156.166216,30.6901408 L156.166216,30.6901408 L159.472297,23.028169 L159.472297,23.028169 Z" id="Shape" fill="#1A237E"></path>
            <path d="M39.375,22.5211268 L31.0885135,22.9577465 C31.0601351,22.943662 31.0317568,22.943662 31.0033784,22.9295775 L30.9891892,22.9577465 L28.8608108,23.0704225 L30.5493243,24.3521127 L30.5493243,24.3661972 C30.5635135,24.3661972 30.5635135,24.3661972 30.5777027,24.3661972 L37.2324324,29.4084507 C36.8777027,28.3661972 36.8351351,27.2957746 37.0337838,26.2816901 C41.0777027,27.4507042 44.397973,28.4084507 46.9804054,29.3661972 C50.8540541,30.8028169 53.2094595,32.2394366 54.7418919,34.6619718 C57.8067568,39.4788732 57.6364865,48.8028169 57.7074324,69.915493 L59.2114865,69.915493 C59.1405405,48.8028169 59.5378378,39.4084507 56.0189189,33.8732394 C54.2452703,31.0985915 51.5067568,29.4507042 47.5054054,27.971831 C44.8378378,26.9859155 41.5033784,26.028169 37.4878378,24.8591549 C37.9135135,23.9577465 38.5378378,23.1408451 39.3891892,22.5211268 L39.375,22.5211268 Z" id="Path" fill="#000000"></path>
            <path d="M63.6527027,12.3521127 L63.2695946,13.8028169 C70.1371622,15.5774648 75.2594595,16.6901408 78.9912162,17.9014085 C82.722973,19.1267606 85.0074324,20.4225352 86.4689189,22.5211268 C87.9304054,24.6338028 88.6256757,27.7042254 88.8527027,32.5633803 C89.022973,36.056338 88.9236486,40.8732394 88.7817568,46.4366197 L86.5966216,44.1408451 L88.6256757,52.056338 C88.6114865,52.4788732 88.6114865,52.7464789 88.5972973,53.1830986 L88.9236486,53.1971831 L89.3067568,54.7042254 L89.775,53.2253521 L90.1013514,53.2394366 C90.1155405,52.8169014 90.1155405,52.5492958 90.1297297,52.1267606 L92.6128378,44.3239437 L90.2716216,46.5211268 C90.4277027,40.9295775 90.5128378,36.084507 90.3425676,32.5070423 C90.1013514,27.5352113 89.4060811,24.1690141 87.6891892,21.6901408 C85.9722973,19.2112676 83.3047297,17.7464789 79.4452703,16.4929577 C75.5858108,15.2253521 70.4777027,14.1267606 63.6243243,12.3661972 L63.6527027,12.3521127 Z" id="Path" fill="#000000"></path>
        </g>
    </g>
</svg>