<?xml version="1.0" encoding="UTF-8"?>
<svg width="100px" height="100px" viewBox="0 0 100 100" version="1.1" xmlns="http://www.w3.org/2000/svg" xmlns:xlink="http://www.w3.org/1999/xlink">
    <title>blind_3_1</title>
    <g id="Blind" stroke="none" stroke-width="1" fill="none" fill-rule="evenodd">
        <g id="blind_3_1" fill-rule="nonzero">
            <polygon id="Path" fill="#000000" points="0 0 99.3255814 0 99.3255814 99.3255814 0 99.3255814"></polygon>
            <polygon id="Path" fill="#FFED00" points="64.0465116 11.9767442 87.5813953 11.9767442 87.5813953 35.5116279 64.0465116 35.5116279"></polygon>
            <polygon id="Path" fill="#FFED00" points="37.9069767 11.9767442 61.4418605 11.9767442 61.4418605 35.5116279 37.9069767 35.5116279"></polygon>
            <polygon id="Path" fill="#FFED00" points="11.7674419 11.9767442 35.3023256 11.9767442 35.3023256 35.5116279 11.7674419 35.5116279"></polygon>
            <polygon id="Path" fill="#FFED00" points="64.0465116 38.1162791 87.5813953 38.1162791 87.5813953 61.6511628 64.0465116 61.6511628"></polygon>
            <polygon id="Path" fill="#FFED00" points="37.9069767 38.1162791 61.4418605 38.1162791 61.4418605 61.6511628 37.9069767 61.6511628"></polygon>
            <polygon id="Path" fill="#FFED00" points="11.7674419 38.1162791 35.3023256 38.1162791 35.3023256 61.6511628 11.7674419 61.6511628"></polygon>
            <polygon id="Path" fill="#FFED00" points="64.0465116 64.255814 87.5813953 64.255814 87.5813953 87.7906977 64.0465116 87.7906977"></polygon>
            <polygon id="Path" fill="#FFED00" points="37.9069767 64.255814 61.4418605 64.255814 61.4418605 87.7906977 37.9069767 87.7906977"></polygon>
            <polygon id="Path" fill="#FFED00" points="11.7674419 64.3953488 35.3023256 64.3953488 35.3023256 87.9302326 11.7674419 87.9302326"></polygon>
            <polygon id="Path" fill="#EF7F1A" points="11.7674419 2.81395349 35.3023256 2.81395349 35.3023256 8.04651163 11.7674419 8.04651163"></polygon>
            <polygon id="Path" fill="#EF7F1A" points="37.9069767 2.81395349 61.4418605 2.81395349 61.4418605 8.04651163 37.9069767 8.04651163"></polygon>
            <polygon id="Path" fill="#009846" points="64.0465116 2.81395349 87.5813953 2.81395349 87.5813953 8.04651163 64.0465116 8.04651163"></polygon>
            <polygon id="Path" fill="#E31E24" points="96.7209302 35.4883721 96.7209302 11.9534884 91.4883721 11.9534884 91.4883721 35.4883721"></polygon>
            <polygon id="Path" fill="#0062AC" points="96.7209302 61.627907 96.7209302 38.0930233 91.4883721 38.0930233 91.4883721 61.627907"></polygon>
            <polygon id="Path" fill="#EF7F1A" points="96.7209302 87.7674419 96.7209302 64.2325581 91.4883721 64.2325581 91.4883721 87.7674419"></polygon>
            <polygon id="Path" fill="#009846" points="64.0465116 91.6976744 87.5813953 91.6976744 87.5813953 96.9302326 64.0465116 96.9302326"></polygon>
            <polygon id="Path" fill="#E31E24" points="37.9069767 91.6976744 61.4418605 91.6976744 61.4418605 96.9302326 37.9069767 96.9302326"></polygon>
            <polygon id="Path" fill="#E31E24" points="11.7674419 91.6976744 35.3023256 91.6976744 35.3023256 96.9302326 11.7674419 96.9302326"></polygon>
            <polygon id="Path" fill="#0062AC" points="7.8372093 35.4883721 7.8372093 11.9534884 2.60465116 11.9534884 2.60465116 35.4883721"></polygon>
            <polygon id="Path" fill="#009846" points="7.8372093 61.627907 7.8372093 38.0930233 2.60465116 38.0930233 2.60465116 61.627907"></polygon>
            <polygon id="Path" fill="#0062AC" points="7.8372093 87.7674419 7.8372093 64.2325581 2.60465116 64.2325581 2.60465116 87.7674419"></polygon>
            <path d="M23.5116279,49.7674419 L30.3488372,46.8139535 L30.3488372,46.8139535 L30.255814,47.0232558 L30.1860465,47.2093023 L30.0930233,47.3953488 L30.0232558,47.5813953 L29.9534884,47.7674419 L29.8837209,47.9767442 L29.8372093,48.1627907 L29.7906977,48.3488372 L29.744186,48.5348837 L29.6976744,48.7209302 L29.6744186,48.9302326 L29.6511628,49.1162791 L29.627907,49.3023256 L29.6046512,49.4883721 L29.6046512,49.6976744 L29.6046512,49.8837209 L29.6046512,50.0697674 L29.6046512,50.255814 L29.627907,50.4418605 L29.6511628,50.6511628 L29.6744186,50.8372093 L29.6976744,51.0232558 L29.744186,51.2093023 L29.7906977,51.3953488 L29.8372093,51.6046512 L29.8837209,51.7906977 L29.9534884,51.9767442 L30.0232558,52.1627907 L30.0930233,52.3488372 L30.1860465,52.5581395 L30.255814,52.744186 L30.3488372,52.9302326 L23.5116279,49.7674419 Z M75.7906977,50.255814 L26.9534884,50.255814 L26.9534884,49.2790698 L75.7906977,49.2790698 L75.7906977,50.255814 Z" id="Shape" fill="#1A237E"></path>
            <path d="M75.7906977,49.5581395 L68.9534884,52.4883721 L68.9534884,52.4883721 L69.0465116,52.3023256 L69.1395349,52.1162791 L69.2093023,51.9302326 L69.2790698,51.7209302 L69.3488372,51.5348837 L69.4186047,51.3488372 L69.4651163,51.1627907 L69.5348837,50.9767442 L69.5581395,50.7674419 L69.6046512,50.5813953 L69.6511628,50.3953488 L69.6744186,50.2093023 L69.6976744,50.0232558 L69.6976744,49.8139535 L69.7209302,49.627907 L69.7209302,49.4418605 L69.7209302,49.255814 L69.6976744,49.0465116 L69.6976744,48.8604651 L69.6744186,48.6744186 L69.6511628,48.4883721 L69.6046512,48.3023256 L69.5581395,48.0930233 L69.5348837,47.9069767 L69.4651163,47.7209302 L69.4186047,47.5348837 L69.3488372,47.3488372 L69.2790698,47.1395349 L69.2093023,46.9534884 L69.1395349,46.7674419 L69.0465116,46.5813953 L68.9534884,46.3953488 L75.7906977,49.5581395 Z M23.5116279,49.0697674 L72.3488372,49.0697674 L72.3488372,50.0465116 L23.5116279,50.0465116 L23.5116279,49.0697674 Z" id="Shape" fill="#1A237E"></path>
            <path d="M75.7906977,75.7674419 L72.8604651,68.9069767 L72.8604651,68.9069767 L73.0465116,69 L73.2325581,69.0930233 L73.4186047,69.1627907 L73.627907,69.2325581 L73.8139535,69.3023256 L74,69.372093 L74.1860465,69.4186047 L74.372093,69.4883721 L74.5813953,69.5116279 L74.7674419,69.5581395 L74.9534884,69.6046512 L75.1395349,69.627907 L75.3488372,69.6511628 L75.5348837,69.6511628 L75.7209302,69.6744186 L75.7906977,69.627907 L75.9767442,69.627907 L76.1627907,69.6046512 L76.3488372,69.6046512 L76.5348837,69.5813953 L76.6976744,69.5581395 L76.8837209,69.5116279 L77.0930233,69.4651163 L77.2790698,69.4418605 L77.4418605,69.372093 L77.627907,69.3488372 L77.8372093,69.2790698 L78,69.2093023 L78.1860465,69.1395349 L78.372093,69.0697674 L78.5348837,68.9767442 L78.744186,68.8837209 L75.7906977,75.7674419 Z M76.2790698,23.5116279 L76.2790698,72.2790698 L75.3023256,72.2790698 L75.3023256,23.5116279 L76.2790698,23.5116279 Z" id="Shape" fill="#E31E24"></path>
            <path d="M75.7906977,23.5116279 L78.744186,30.372093 L78.744186,30.372093 L78.5348837,30.2790698 L78.3488372,30.1860465 L78.1627907,30.0930233 L77.9767442,30.0232558 L77.7906977,29.9534884 L77.5813953,29.8837209 L77.3953488,29.8372093 L77.2093023,29.7906977 L77.0232558,29.744186 L76.8139535,29.6976744 L76.627907,29.6744186 L76.4418605,29.6511628 L76.255814,29.627907 L76.0697674,29.6046512 L75.8604651,29.6046512 L75.6744186,29.6046512 L75.4883721,29.6046512 L75.3023256,29.6046512 L75.1162791,29.627907 L74.9069767,29.6511628 L74.7209302,29.6744186 L74.5348837,29.6976744 L74.3488372,29.744186 L74.1395349,29.7906977 L73.9534884,29.8372093 L73.7674419,29.8837209 L73.5813953,29.9534884 L73.3953488,30.0232558 L73.1860465,30.0930233 L73,30.1860465 L72.8139535,30.2790698 L72.627907,30.372093 L75.7906977,23.5116279 Z M75.3023256,75.8139535 L75.3023256,26.9767442 L76.2790698,26.9767442 L76.2790698,75.8139535 L75.3023256,75.8139535 Z" id="Shape" fill="#E31E24"></path>
        </g>
    </g>
</svg>