<?xml version="1.0" encoding="UTF-8"?>
<svg width="100px" height="100px" viewBox="0 0 100 100" version="1.1" xmlns="http://www.w3.org/2000/svg" xmlns:xlink="http://www.w3.org/1999/xlink">
    <title>blind_7_1</title>
    <g id="Blind" stroke="none" stroke-width="1" fill="none" fill-rule="evenodd">
        <g id="blind_7_1" fill-rule="nonzero">
            <polygon id="Path" fill="#000000" points="0 0 99.3255814 0 99.3255814 99.3255814 0 99.3255814"></polygon>
            <polygon id="Path" fill="#FFED00" points="64.0465116 11.9767442 87.5813953 11.9767442 87.5813953 35.5116279 64.0465116 35.5116279"></polygon>
            <polygon id="Path" fill="#FFED00" points="37.9069767 11.9767442 61.4418605 11.9767442 61.4418605 35.5116279 37.9069767 35.5116279"></polygon>
            <polygon id="Path" fill="#FFED00" points="11.7674419 11.9767442 35.3023256 11.9767442 35.3023256 35.5116279 11.7674419 35.5116279"></polygon>
            <polygon id="Path" fill="#FFED00" points="64.0465116 38.1162791 87.5813953 38.1162791 87.5813953 61.6511628 64.0465116 61.6511628"></polygon>
            <polygon id="Path" fill="#FFED00" points="37.9069767 38.1162791 61.4418605 38.1162791 61.4418605 61.6511628 37.9069767 61.6511628"></polygon>
            <polygon id="Path" fill="#FFED00" points="11.7674419 38.1162791 35.3023256 38.1162791 35.3023256 61.6511628 11.7674419 61.6511628"></polygon>
            <polygon id="Path" fill="#FFED00" points="64.0465116 64.255814 87.5813953 64.255814 87.5813953 87.7906977 64.0465116 87.7906977"></polygon>
            <polygon id="Path" fill="#FFED00" points="37.9069767 64.255814 61.4418605 64.255814 61.4418605 87.7906977 37.9069767 87.7906977"></polygon>
            <polygon id="Path" fill="#FFED00" points="11.7674419 64.3953488 35.3023256 64.3953488 35.3023256 87.9302326 11.7674419 87.9302326"></polygon>
            <polygon id="Path" fill="#EF7F1A" points="11.7674419 2.81395349 35.3023256 2.81395349 35.3023256 8.04651163 11.7674419 8.04651163"></polygon>
            <polygon id="Path" fill="#EF7F1A" points="37.9069767 2.81395349 61.4418605 2.81395349 61.4418605 8.04651163 37.9069767 8.04651163"></polygon>
            <polygon id="Path" fill="#009846" points="64.0465116 2.81395349 87.5813953 2.81395349 87.5813953 8.04651163 64.0465116 8.04651163"></polygon>
            <polygon id="Path" fill="#E31E24" points="96.7209302 35.4883721 96.7209302 11.9534884 91.4883721 11.9534884 91.4883721 35.4883721"></polygon>
            <polygon id="Path" fill="#E31E24" points="96.7209302 61.627907 96.7209302 38.0930233 91.4883721 38.0930233 91.4883721 61.627907"></polygon>
            <polygon id="Path" fill="#EF7F1A" points="96.7209302 87.7674419 96.7209302 64.2325581 91.4883721 64.2325581 91.4883721 87.7674419"></polygon>
            <polygon id="Path" fill="#009846" points="64.0465116 91.6976744 87.5813953 91.6976744 87.5813953 96.9302326 64.0465116 96.9302326"></polygon>
            <polygon id="Path" fill="#009846" points="37.9069767 91.6976744 61.4418605 91.6976744 61.4418605 96.9302326 37.9069767 96.9302326"></polygon>
            <polygon id="Path" fill="#E31E24" points="11.7674419 91.6976744 35.3023256 91.6976744 35.3023256 96.9302326 11.7674419 96.9302326"></polygon>
            <polygon id="Path" fill="#0062AC" points="7.8372093 35.4883721 7.8372093 11.9534884 2.60465116 11.9534884 2.60465116 35.4883721"></polygon>
            <polygon id="Path" fill="#0062AC" points="7.8372093 61.627907 7.8372093 38.0930233 2.60465116 38.0930233 2.60465116 61.627907"></polygon>
            <polygon id="Path" fill="#0062AC" points="7.8372093 87.7674419 7.8372093 64.2325581 2.60465116 64.2325581 2.60465116 87.7674419"></polygon>
            <path d="M49.6511628,75.8604651 L52.4186047,68.9534884 L52.4186047,68.9534884 L52.4883721,69.1395349 L52.5581395,69.3488372 L52.627907,69.5348837 L52.7209302,69.7209302 L52.7906977,69.9069767 L52.8837209,70.0930233 L52.9767442,70.255814 L53.0697674,70.4418605 L53.1860465,70.6046512 L53.3023256,70.7674419 L53.3953488,70.9302326 L53.5116279,71.0697674 L53.627907,71.2325581 L53.7674419,71.372093 L53.8837209,71.5116279 L54.0232558,71.6511628 L54.1627907,71.7906977 L54.3023256,71.9069767 L54.4418605,72.0232558 L54.6046512,72.1627907 L54.744186,72.2790698 L54.9069767,72.372093 L55.0697674,72.4883721 L55.2325581,72.6046512 L55.4186047,72.6976744 L55.5813953,72.7906977 L55.7674419,72.8837209 L55.9534884,72.9534884 L56.1395349,73.0465116 L56.3255814,73.1162791 L56.5116279,73.2093023 L56.7209302,73.2790698 L49.6511628,75.8604651 Z M76.1395349,50.0930233 L52.4418605,73.7906977 L51.744186,73.0930233 L75.4651163,49.3953488 L76.1395349,50.0930233 Z" id="Shape" fill="#1A237E"></path>
            <path d="M75.7906977,49.5581395 L73.0232558,56.4651163 L73.0232558,56.4651163 L72.9534884,56.2790698 L72.8837209,56.0697674 L72.8139535,55.8837209 L72.7209302,55.6976744 L72.6511628,55.5116279 L72.5581395,55.3255814 L72.4651163,55.1627907 L72.3488372,54.9767442 L72.255814,54.8139535 L72.1395349,54.6511628 L72.0232558,54.4883721 L71.9069767,54.3488372 L71.7906977,54.1860465 L71.6744186,54.0465116 L71.5348837,53.9069767 L71.4186047,53.7674419 L71.2790698,53.627907 L71.1395349,53.5116279 L71,53.3953488 L70.8372093,53.255814 L70.6976744,53.1395349 L70.5348837,53.0465116 L70.372093,52.9302326 L70.2093023,52.8372093 L70.0232558,52.7209302 L69.8604651,52.627907 L69.6744186,52.5348837 L69.4883721,52.4651163 L69.3023256,52.372093 L69.1162791,52.3023256 L68.9069767,52.2093023 L68.7209302,52.1395349 L75.7906977,49.5581395 Z M49.3023256,75.3255814 L73.0232558,51.6511628 L73.7209302,52.3255814 L50,76.0232558 L49.3023256,75.3255814 Z" id="Shape" fill="#1A237E"></path>
            <path d="M75.7906977,75.7674419 L72.8604651,68.9069767 L72.8604651,68.9069767 L73.0465116,69 L73.2325581,69.0930233 L73.4186047,69.1627907 L73.627907,69.2325581 L73.8139535,69.3023256 L74,69.372093 L74.1860465,69.4186047 L74.372093,69.4883721 L74.5813953,69.5116279 L74.7674419,69.5581395 L74.9534884,69.6046512 L75.1395349,69.627907 L75.3488372,69.6511628 L75.5348837,69.6511628 L75.7209302,69.6744186 L75.7906977,69.627907 L75.9767442,69.627907 L76.1627907,69.6046512 L76.3488372,69.6046512 L76.5348837,69.5813953 L76.6976744,69.5581395 L76.8837209,69.5116279 L77.0930233,69.4651163 L77.2790698,69.4418605 L77.4418605,69.372093 L77.627907,69.3488372 L77.8372093,69.2790698 L78,69.2093023 L78.1860465,69.1395349 L78.372093,69.0697674 L78.5348837,68.9767442 L78.744186,68.8837209 L75.7906977,75.7674419 Z M76.2790698,23.5116279 L76.2790698,72.2790698 L75.3023256,72.2790698 L75.3023256,23.5116279 L76.2790698,23.5116279 Z" id="Shape" fill="#E31E24"></path>
            <path d="M75.7906977,23.5116279 L78.744186,30.372093 L78.744186,30.372093 L78.5348837,30.2790698 L78.3488372,30.1860465 L78.1627907,30.0930233 L77.9767442,30.0232558 L77.7906977,29.9534884 L77.5813953,29.8837209 L77.3953488,29.8372093 L77.2093023,29.7906977 L77.0232558,29.744186 L76.8139535,29.6976744 L76.627907,29.6744186 L76.4418605,29.6511628 L76.255814,29.627907 L76.0697674,29.6046512 L75.8604651,29.6046512 L75.6744186,29.6046512 L75.4883721,29.6046512 L75.3023256,29.6046512 L75.1162791,29.627907 L74.9069767,29.6511628 L74.7209302,29.6744186 L74.5348837,29.6976744 L74.3488372,29.744186 L74.1395349,29.7906977 L73.9534884,29.8372093 L73.7674419,29.8837209 L73.5813953,29.9534884 L73.3953488,30.0232558 L73.1860465,30.0930233 L73,30.1860465 L72.8139535,30.2790698 L72.627907,30.372093 L75.7906977,23.5116279 Z M75.3023256,75.8139535 L75.3023256,26.9767442 L76.2790698,26.9767442 L76.2790698,75.8139535 L75.3023256,75.8139535 Z" id="Shape" fill="#E31E24"></path>
        </g>
    </g>
</svg>