<?xml version="1.0" encoding="UTF-8"?>
<svg width="210px" height="100px" viewBox="0 0 210 100" version="1.1" xmlns="http://www.w3.org/2000/svg" xmlns:xlink="http://www.w3.org/1999/xlink">
    <title>blind_19_1</title>
    <g id="Blind" stroke="none" stroke-width="1" fill="none" fill-rule="evenodd">
        <g id="blind_19_1" fill-rule="nonzero">
            <path d="M95.777027,18.5633803 C96.5574324,18.5352113 97.2243243,19.1549296 97.1968197,19.9295775 C96.3445946,38.3239437 95.3513514,56.7887324 94.2304054,75.1690141 C94.202027,75.6760563 93.8898649,76.084507 93.45,76.2957746 C79.0763514,83.8591549 65.3128378,91.3098592 50.7831081,99.2957746 C50.1587838,99.6338028 49.3783784,99.4507042 48.9810811,98.9014085 C48.5412162,99.1690141 47.9736486,99.1830986 47.5337838,98.9295775 C47.5337838,98.9295775 9.08108108,77.5774648 5.59054054,75.6901408 C5.15067568,75.4647887 4.90945946,75.028169 4.89527027,74.5774648 C3.66081081,56.1690141 2.52567568,38.4225352 1.07837838,19.9014085 C1.02162162,19.0422535 1.81621622,18.3802817 2.65337838,18.4929577 C2.69594595,17.9014085 3.12162162,17.4225352 3.71756757,17.2816901 C19.0277027,12.7887324 34.1675676,8.29577465 49.5912162,4.11267606 C49.8466216,4.04225352 50.102027,4.04225352 50.3432432,4.11267606 C65.5966216,8.52112676 79.2891892,13.1971831 94.7695946,17.3661972 C95.3513514,17.5211268 95.7486486,18.0140845 95.777027,18.5633803 L95.777027,18.5633803 Z" id="Path" fill="#000000"></path>
            <polygon id="Path" fill="#009846" points="31.9540541 31.4084507 47.9452703 37.2394366 47.9168919 57.4929577 32.5925676 50.915493"></polygon>
            <polygon id="Path" fill="#E31E24" points="15.9486486 25.3521127 30.152027 30.7183099 30.8189189 50.2816901 16.6155405 44.1126761"></polygon>
            <polygon id="Path" fill="#E31E24" points="2.45472973 19.8028169 14.1324324 24.6056338 14.7851351 43.1549296 3.87364865 38.0704225"></polygon>
            <polygon id="Path" fill="#E31E24" points="32.4790541 52.8169014 47.9878378 59.4788732 47.9736486 78.8873239 33.075 71.6478873"></polygon>
            <polygon id="Path" fill="#E31E24" points="16.9277027 46.1971831 30.7054054 52.1126761 31.272973 70.5492958 17.6655405 64.0985915"></polygon>
            <polygon id="Path" fill="#E31E24" points="3.70337838 40.056338 15.0831081 45.3661972 15.7925676 63.1267606 5.32094595 57.6478873"></polygon>
            <polygon id="Path" fill="#E31E24" points="33.0182432 73.6901408 48.1439189 80.9577465 48.2290541 97.8028169 32.9614865 89.2112676"></polygon>
            <polygon id="Path" fill="#E31E24" points="17.9493243 66.2816901 31.1736486 72.6056338 31.2162162 88.0704225 18.4317568 81.2253521"></polygon>
            <polygon id="Path" fill="#E31E24" points="5.27837838 59.7323944 16.1189189 65.4366197 16.572973 80.0985915 6.25743243 74.5352113"></polygon>
            <polygon id="Path" fill="#EF7F1A" points="49.7331081 37.3239437 65.7385135 31.4929577 65.4121622 51.2394366 49.8182432 57.4225352"></polygon>
            <polygon id="Path" fill="#009846" points="67.6114865 31 82.2689189 25.0704225 81.5310811 44.2253521 67.3418919 50.3521127"></polygon>
            <polygon id="Path" fill="#E31E24" points="84.0993243 24.4929577 95.8337838 19.8732394 94.9682432 38.2394366 83.4466216 43.3380282"></polygon>
            <polygon id="Path" fill="#009846" points="49.9033784 59.4507042 65.397973 53.2535211 64.802027 71.4507042 49.9175676 78.8873239"></polygon>
            <polygon id="Path" fill="#009846" points="67.3986486 52.4507042 81.375 46.2957746 80.3675676 64 66.7743243 70.7746479"></polygon>
            <polygon id="Path" fill="#009846" points="83.4182432 45.3802817 94.9540541 40.2394366 93.9040541 57.1408451 82.3824324 63.3521127"></polygon>
            <polygon id="Path" fill="#009846" points="50.0310811 80.8169014 64.9439189 73.3943662 64.2344595 90.3943662 50.102027 98.1408451"></polygon>
            <polygon id="Path" fill="#009846" points="66.8736486 72.7746479 80.5945946 65.943662 79.8425676 82.028169 66.1641892 89.4788732"></polygon>
            <polygon id="Path" fill="#009846" points="82.5243243 65.3239437 93.8331081 59.2394366 92.8682432 75.0985915 81.7722973 80.943662"></polygon>
            <polygon id="Path" fill="#FFED00" points="32.9189189 30.1267606 49.7472973 24.4929577 64.802027 29.9295775 48.8391892 35.6619718"></polygon>
            <polygon id="Path" fill="#FFED00" points="51.6486486 23.7042254 66.2918919 18.6197183 81.4033784 23.4225352 67.0155405 29.3380282"></polygon>
            <polygon id="Path" fill="#FFED00" points="68.3918919 17.8591549 79.1472973 14.5352113 94.4148649 18.6338028 83.3472973 22.8450704"></polygon>
            <polygon id="Path" fill="#FFED00" points="51.2939189 12.8169014 62.2054054 9.30985915 77.1891892 13.7746479 65.1141892 17.2957746"></polygon>
            <polygon id="Path" fill="#FFED00" points="34.5648649 17.943662 48.9810811 13.2957746 63.8655405 17.8591549 49.1087838 22.915493"></polygon>
            <polygon id="Path" fill="#FFED00" points="16.6581081 23.6478873 32.8337838 18.5352113 47.4202703 23.6478873 30.9182432 29.056338"></polygon>
            <polygon id="Path" fill="#FFED00" points="4.02972973 18.5633803 19.4108108 14.056338 30.4925676 17.971831 15.0121622 23"></polygon>
            <polygon id="Path" fill="#FFED00" points="21.5108108 13.3661972 36.4945946 9.12676056 47.4060811 12.9014085 33.1459459 17.3661972"></polygon>
            <polygon id="Path" fill="#FFED00" points="37.8993243 8.66197183 49.9601351 5.38028169 61.127027 8.6056338 49.1939189 12.3661972"></polygon>
            <polygon id="Path" fill="#000000" points="109.866892 0.985915493 209.077703 0.985915493 209.077703 99.4647887 109.866892 99.4647887"></polygon>
            <polygon id="Path" fill="#FFED00" points="197.22973 12.8450704 173.817568 12.8450704 173.817568 36.084507 197.22973 36.084507"></polygon>
            <polygon id="Path" fill="#FFED00" points="171.121622 12.8450704 147.709459 12.8450704 147.709459 36.084507 171.121622 36.084507"></polygon>
            <polygon id="Path" fill="#FFED00" points="145.013514 12.8450704 121.601351 12.8450704 121.601351 36.084507 145.013514 36.084507"></polygon>
            <polygon id="Path" fill="#FFED00" points="197.22973 38.7605634 173.817568 38.7605634 173.817568 62 197.22973 62"></polygon>
            <polygon id="Path" fill="#FFED00" points="171.121622 38.7605634 147.709459 38.7605634 147.709459 62 171.121622 62"></polygon>
            <polygon id="Path" fill="#FFED00" points="145.013514 38.7605634 121.601351 38.7605634 121.601351 62 145.013514 62"></polygon>
            <polygon id="Path" fill="#FFED00" points="197.22973 64.6760563 173.817568 64.6760563 173.817568 87.915493 197.22973 87.915493"></polygon>
            <polygon id="Path" fill="#FFED00" points="171.121622 64.6760563 147.709459 64.6760563 147.709459 87.915493 171.121622 87.915493"></polygon>
            <polygon id="Path" fill="#FFED00" points="145.013514 64.8169014 121.601351 64.8169014 121.601351 88.056338 145.013514 88.056338"></polygon>
            <polygon id="Path" fill="#EF7F1A" points="145.112838 3.77464789 121.700676 3.77464789 121.700676 8.95774648 145.112838 8.95774648"></polygon>
            <polygon id="Path" fill="#0062AC" points="171.220946 3.77464789 147.808784 3.77464789 147.808784 8.95774648 171.220946 8.95774648"></polygon>
            <polygon id="Path" fill="#009846" points="197.329054 3.77464789 173.916892 3.77464789 173.916892 8.95774648 197.329054 8.95774648"></polygon>
            <polygon id="Path" fill="#E31E24" points="206.466892 36.1690141 206.466892 12.9295775 201.24527 12.9295775 201.24527 36.1690141"></polygon>
            <polygon id="Path" fill="#009846" points="206.466892 62.084507 206.466892 38.8450704 201.24527 38.8450704 201.24527 62.084507"></polygon>
            <polygon id="Path" fill="#EF7F1A" points="206.466892 88 206.466892 64.7605634 201.24527 64.7605634 201.24527 88"></polygon>
            <polygon id="Path" fill="#009846" points="197.329054 91.9014085 173.916892 91.9014085 173.916892 97.084507 197.329054 97.084507"></polygon>
            <polygon id="Path" fill="#E31E24" points="171.220946 91.9014085 147.808784 91.9014085 147.808784 97.084507 171.220946 97.084507"></polygon>
            <polygon id="Path" fill="#E31E24" points="145.112838 91.9014085 121.700676 91.9014085 121.700676 97.084507 145.112838 97.084507"></polygon>
            <polygon id="Path" fill="#0062AC" points="117.699324 88 117.699324 64.7605634 112.477703 64.7605634 112.477703 88"></polygon>
            <polygon id="Path" fill="#EF7F1A" points="117.699324 62.084507 117.699324 38.8450704 112.477703 38.8450704 112.477703 62.084507"></polygon>
            <polygon id="Path" fill="#0062AC" points="117.699324 36.1690141 117.699324 12.9295775 112.477703 12.9295775 112.477703 36.1690141"></polygon>
            <path d="M156.492568,27 L156.960811,27.4647887 L133.591216,50.6619718 L133.122973,50.1971831 L156.492568,27 Z M159.472297,24.5070423 L156.350676,32.2535211 L156.27973,32.028169 L156.194595,31.8169014 L156.109459,31.6197183 L156.024324,31.4084507 L155.925,31.2112676 L155.825676,31.028169 L155.726351,30.8309859 L155.612838,30.6478873 L155.513514,30.4788732 L155.385811,30.2957746 L155.272297,30.1267606 L155.144595,29.9577465 L155.016892,29.8028169 L154.875,29.6478873 L154.747297,29.4929577 L154.591216,29.3521127 L154.449324,29.1971831 L154.293243,29.0704225 L154.137162,28.9295775 L153.981081,28.8028169 L153.810811,28.6760563 L153.640541,28.5633803 L153.456081,28.4366197 L153.285811,28.3239437 L153.101351,28.2253521 L152.902703,28.1267606 L152.718243,28.028169 L152.519595,27.9295775 L152.306757,27.8450704 L152.108108,27.7605634 L151.89527,27.6760563 L151.668243,27.6056338 L151.668243,27.6056338 L159.472297,24.5070423 L159.472297,24.5070423 Z" id="Shape" fill="#1A237E"></path>
            <path d="M136.32973,47.9295775 L135.875676,47.4788732 L159.24527,24.2816901 L159.699324,24.7323944 L136.32973,47.9295775 Z M133.364189,50.4225352 L136.471622,42.6901408 L136.556757,42.9014085 L136.627703,43.1126761 L136.712838,43.3239437 L136.812162,43.5211268 L136.897297,43.7183099 L136.996622,43.915493 L137.095946,44.0985915 L137.209459,44.2816901 L137.322973,44.4647887 L137.436486,44.6338028 L137.564189,44.8028169 L137.677703,44.971831 L137.819595,45.1408451 L137.947297,45.2957746 L138.089189,45.4366197 L138.231081,45.5915493 L138.372973,45.7323944 L138.529054,45.8732394 L138.685135,46 L138.855405,46.1408451 L139.025676,46.2535211 L139.195946,46.3802817 L139.366216,46.4929577 L139.550676,46.6056338 L139.735135,46.7183099 L139.919595,46.8169014 L140.118243,46.915493 L140.316892,47 L140.515541,47.0985915 L140.728378,47.1830986 L140.941216,47.2535211 L141.154054,47.3380282 L141.154054,47.3380282 L133.364189,50.4225352 L133.364189,50.4225352 Z" id="Shape" fill="#1A237E"></path>
            <path d="M185.339189,24.5774648 L188.64527,32.2394366 L188.64527,32.2394366 L188.446622,32.1408451 L188.233784,32.0422535 L188.020946,31.9577465 L187.822297,31.8732394 L187.609459,31.8028169 L187.410811,31.7323944 L187.197973,31.6760563 L186.999324,31.6197183 L186.786486,31.5774648 L186.573649,31.5352113 L186.375,31.4929577 L186.162162,31.4647887 L185.963514,31.4366197 L185.750676,31.4225352 L185.552027,31.4225352 L185.339189,31.4084507 L185.126351,31.4225352 L184.927703,31.4225352 L184.714865,31.4366197 L184.516216,31.4647887 L184.303378,31.4929577 L184.10473,31.5352113 L183.891892,31.5774648 L183.693243,31.6197183 L183.480405,31.6760563 L183.267568,31.7323944 L183.068919,31.8028169 L182.856081,31.8732394 L182.657432,31.9577465 L182.444595,32.0422535 L182.245946,32.1408451 L182.033108,32.2394366 L185.339189,24.5774648 L185.339189,24.5774648 Z M185.353378,76.4084507 L185.353378,28.4225352 L186.006081,28.4225352 L186.006081,76.4084507 L185.353378,76.4084507 Z" id="Shape" fill="#E31E24"></path>
            <path d="M185.339189,76.2957746 L182.033108,68.6338028 C183.040541,69.1267606 184.019595,69.3943662 185.012838,69.4366197 L185.012838,24.4507042 L185.665541,24.4507042 L185.665541,69.4366197 C186.644595,69.3943662 187.637838,69.1267606 188.64527,68.6338028 L185.339189,76.2957746 L185.339189,76.2957746 Z" id="Path" fill="#E31E24"></path>
        </g>
    </g>
</svg>