<?xml version="1.0" encoding="UTF-8"?>
<svg width="100px" height="100px" viewBox="0 0 100 100" version="1.1" xmlns="http://www.w3.org/2000/svg" xmlns:xlink="http://www.w3.org/1999/xlink">
    <title>blind_10</title>
    <g id="Blind" stroke="none" stroke-width="1" fill="none" fill-rule="evenodd">
        <g id="blind_10" fill-rule="nonzero">
            <path d="M99.112782,63.887218 L99.8947368,83.2030075 C99.9548872,83.4210526 99.8947368,83.593985 99.8421053,83.8195489 C99.556391,84.3233083 99.0526316,84.6616541 98.4360902,84.6616541 C98.4360902,85.2180451 97.9849624,85.7293233 97.4285714,85.8947368 L81.593985,90.1578947 C81.3082707,90.2706767 80.9699248,90.2706767 80.7518797,90.1578947 C80.6390977,90.1578947 80.5789474,90.1052632 80.4661654,90.1052632 C80.3533835,90.4962406 80.0150376,90.8345865 79.5714286,91 L63.962406,95.6616541 C63.9022556,95.6616541 63.7894737,95.7218045 63.6766917,95.7218045 C63.5112782,96 63.2330827,96.2781955 62.8345865,96.3909774 L51.2105263,99.7593985 C50.9849624,99.8195489 50.7067669,99.8195489 50.4285714,99.7593985 L37.9022556,96.3383459 C37.6240602,96.2781955 37.3458647,96.112782 37.1729323,95.887218 C36.8947368,95.9398496 36.6691729,95.9398496 36.3909774,95.8270677 L20.8345865,91.3984962 C20.443609,91.2857143 20.0526316,90.9473684 19.8796992,90.556391 C19.8796992,90.4962406 19.6015038,90.6691729 19.5413534,90.6691729 C19.2631579,90.7744361 18.9849624,90.7744361 18.6466165,90.6691729 L2.63909774,85.9473684 C2.2481203,85.8345865 1.90977444,85.556391 1.7443609,85.1654135 C1.69172932,84.9924812 1.63157895,84.8796992 1.63157895,84.7142857 C1.51879699,84.7142857 1.40601504,84.7142857 1.35338346,84.7142857 C0.563909774,84.6616541 -0.0526315789,83.9849624 0.00751879699,83.2556391 L1.46616541,64.1654135 C1.51879699,63.8345865 1.63157895,63.4962406 1.90977444,63.2706767 C1.51879699,62.9924812 1.2406015,62.5413534 1.29323308,62.037594 C1.85714286,55.9172932 2.36090226,49.7443609 2.97744361,43.6240602 C3.03759398,43.2857143 3.20300752,42.8947368 3.4887218,42.6691729 C3.15037594,42.3834586 2.92481203,41.9924812 2.92481203,41.4887218 L3.9924812,25.9924812 C3.9924812,25.5488722 4.27067669,25.0977444 4.66165414,24.8721805 C8.2556391,22.962406 11.7969925,20.9398496 15.3909774,19.0902256 C15.6165414,18.9774436 15.8947368,18.8646617 16.1203008,18.8646617 C16.2857143,18.9172932 16.4586466,18.9172932 16.6240602,18.9774436 C16.6842105,18.5263158 16.9022556,18.1353383 17.3533835,17.9097744 C21.7894737,15.4962406 26.1729323,13.0827068 30.6616541,10.7218045 C30.8345865,10.6090226 31.0526316,10.556391 31.3383459,10.556391 C31.4511278,10.556391 31.6165414,10.556391 31.7293233,10.6090226 C31.7894737,10.1654135 32.0075188,9.76691729 32.406015,9.54887218 L48.2932331,0.563909774 C48.518797,0.45112782 48.7443609,0.398496241 49.0225564,0.398496241 C49.3082707,0.398496241 49.5864662,0.45112782 49.8120301,0.616541353 C50.2030075,0.00044925707 51.0451128,-0.165413534 51.6616541,0.172932331 L66.3759398,8.30827068 C67.4962406,8.92481203 67.7218045,8.92481203 68.3984962,9.26315789 L82.5488722,17.0150376 C82.9924812,17.2406015 83.2781955,17.6842105 83.2781955,18.1353383 C83.6691729,17.9699248 84.1729323,17.9699248 84.5639098,18.1879699 L96.075188,24.3082707 C96.5263158,24.481203 96.8045113,24.924812 96.8646617,25.4360902 L97.8721805,41.9924812 C97.8721805,42.2781955 97.8721805,42.4962406 97.7067669,42.7218045 C97.593985,42.8947368 97.481203,43.0601504 97.3157895,43.1729323 C97.6541353,43.3984962 97.8721805,43.7894737 97.9323308,44.2406015 L99,61.8646617 C99.0526316,62.0902256 99,62.3157895 98.887218,62.5413534 C98.8270677,62.7067669 98.6616541,62.8796992 98.5488722,62.9924812 C98.8270677,63.2706767 99.0526316,63.4360902 99.112782,63.887218 L99.112782,63.887218 L99.112782,63.887218 Z" id="Path" fill="#000000"></path>
            <polygon id="Path" fill="#696969" points="33.1353383 73.037594 50.593985 78.9323308 66.2631579 73.2030075 49.6390977 67.2556391"></polygon>
            <polygon id="Path" fill="#FFED00" points="52.6165414 79.7218045 67.8345865 85.0526316 83.5037594 80.0526316 68.5639098 73.8796992"></polygon>
            <polygon id="Path" fill="#696969" points="70.0225564 85.8345865 81.1954887 89.3157895 97.0300752 85.0526316 85.518797 80.6766917"></polygon>
            <polygon id="Path" fill="#FFED00" points="52.2255639 91.112782 63.5639098 94.8195489 79.1203008 90.1578947 66.6015038 86.4586466"></polygon>
            <polygon id="Path" fill="#FFED00" points="34.8195489 85.7819549 49.8120301 90.6090226 65.3082707 85.8947368 49.9774436 80.5639098"></polygon>
            <polygon id="Path" fill="#FFED00" points="16.2330827 79.7744361 33.0225564 85.1654135 48.1804511 79.7744361 31.0526316 74.1578947"></polygon>
            <polygon id="Path" fill="#696969" points="3.09022556 85.1052632 19.0977444 89.8270677 30.6090226 85.7293233 14.4887218 80.5037594"></polygon>
            <polygon id="Path" fill="#FFED00" points="21.2857143 90.556391 36.8421053 94.9924812 48.1804511 91.0601504 33.3609023 86.3984962"></polygon>
            <polygon id="Path" fill="#696969" points="38.3007519 95.4962406 50.8195489 98.9172932 62.443609 95.5488722 50.037594 91.6240602"></polygon>
            <polygon id="Path" fill="#696969" points="32.0075188 71.6917293 48.6315789 65.5714286 48.6315789 44.406015 32.6842105 51.2556391"></polygon>
            <polygon id="Path" fill="#696969" points="15.3909774 78.037594 30.1578947 72.4210526 30.8270677 51.9323308 16.0601504 58.3834586"></polygon>
            <polygon id="Path" fill="#696969" points="1.35338346 83.8195489 13.481203 78.8195489 14.1503759 59.3984962 2.81203008 64.7293233"></polygon>
            <polygon id="Path" fill="#696969" points="32.5714286 49.2932331 48.6842105 42.3308271 48.6842105 22.0075188 33.1879699 29.5864662"></polygon>
            <polygon id="Path" fill="#009846" points="16.3984962 56.2556391 30.7218045 50.0225564 31.2781955 30.7669173 17.1879699 37.5037594"></polygon>
            <polygon id="Path" fill="#696969" points="2.64661654 62.6541353 14.4887218 57.0977444 15.2180451 38.5112782 4.33082707 44.2406015"></polygon>
            <polygon id="Path" fill="#696969" points="33.1353383 27.4511278 48.8571429 19.8721805 48.9097744 2.2481203 33.075188 11.2255639"></polygon>
            <polygon id="Path" fill="#696969" points="17.4661654 35.2030075 31.2255639 28.5789474 31.2255639 12.406015 17.9699248 19.593985"></polygon>
            <polygon id="Path" fill="#696969" points="4.27067669 42.0526316 15.556391 36.0977444 16.0075188 20.7744361 5.28571429 26.556391"></polygon>
            <polygon id="Path" fill="#696969" points="50.481203 65.2932331 67.1052632 71.3533835 66.7669173 50.6917293 50.593985 44.2406015"></polygon>
            <polygon id="Path" fill="#E31E24" points="69.0676692 71.9172932 84.3458647 78.0902256 83.556391 58.0526316 68.7894737 51.6466165"></polygon>
            <polygon id="Path" fill="#696969" points="86.1954887 78.7067669 98.4360902 83.5338346 97.5413534 64.3383459 85.518797 59"></polygon>
            <polygon id="Path" fill="#E31E24" points="50.6541353 42.1052632 66.7669173 48.6165414 66.1503759 29.5864662 50.7067669 21.7819549"></polygon>
            <polygon id="Path" fill="#E31E24" points="68.8421053 49.4586466 83.3909774 55.9172932 82.3233083 37.3909774 68.2255639 30.3157895"></polygon>
            <polygon id="Path" fill="#E31E24" points="85.518797 56.8721805 97.481203 62.2030075 96.4135338 44.5789474 84.4511278 38.0601504"></polygon>
            <polygon id="Path" fill="#696969" points="50.8195489 19.7593985 66.3157895 27.5639098 65.5864662 9.76691729 50.8796992 1.63157895"></polygon>
            <polygon id="Path" fill="#E31E24" points="68.3383459 28.1804511 82.5488722 35.3157895 81.8120301 18.5263158 67.556391 10.7218045"></polygon>
            <polygon id="Path" fill="#696969" points="84.5639098 35.9849624 96.3609023 42.3308271 95.3458647 25.7669173 83.7819549 19.6541353"></polygon>
        </g>
    </g>
</svg>