<?xml version="1.0" encoding="UTF-8"?>
<svg width="520px" height="400px" viewBox="0 0 520 400" version="1.1" xmlns="http://www.w3.org/2000/svg" xmlns:xlink="http://www.w3.org/1999/xlink">
    <title>blind_12_1</title>
    <g id="Blind" stroke="none" stroke-width="1" fill="none" fill-rule="evenodd">
        <g id="blind_12_1" fill-rule="nonzero">
            <path d="M138.160962,18.1575434 L178.146495,18.1575434 L178.146495,0 L221.762224,0 L221.762224,18.1575434 L261.747758,18.1575434 L261.747758,58.2109479 L279.898734,58.2109479 L279.898734,101.842457 L261.747758,101.842457 L261.747758,138.210948 L298.103096,138.210948 L298.103096,120 L341.718824,120 L341.718824,138.210948 C367.183577,138.210948 392.594944,138.210948 418.059696,138.210948 L418.059696,120 L461.675425,120 L461.675425,138.210948 L501.660958,138.210948 L501.660958,178.210948 L519.86532,178.210948 L519.86532,221.842457 L501.660958,221.842457 L501.660958,261.842457 L461.675425,261.842457 L461.675425,280 L418.059696,280 L418.059696,261.842457 C392.594944,261.842457 367.183577,261.842457 341.718824,261.842457 L341.718824,280 L298.103096,280 L298.103096,261.842457 L261.747758,261.842457 L261.747758,298.210948 L279.898734,298.210948 L279.898734,341.842457 L261.747758,341.842457 L261.747758,381.842457 L221.762224,381.842457 L221.762224,400 L178.146495,400 L178.146495,381.842457 L138.160962,381.842457 L138.160962,341.842457 L119.9566,341.842457 L119.9566,298.210948 L138.160962,298.210948 L138.160962,261.842457 L101.805624,261.842457 L101.805624,280 L58.1898951,280 L58.1898951,261.842457 L18.1509765,261.842457 L18.1509765,221.842457 L0,221.842457 L0,178.210948 L18.1509765,178.210948 L18.1509765,138.210948 L58.1898951,138.210948 L58.1898951,120 L101.805624,120 L101.805624,138.210948 L138.160962,138.210948 L138.160962,101.842457 L119.9566,101.842457 L119.9566,58.2109479 L138.160962,58.2109479 L138.160962,18.1575434 Z" id="Path" fill="#000000"></path>
            <polygon id="Path" fill="#0062AC" points="142.087542 21.5488215 178.451178 21.5488215 178.451178 57.9124579 142.087542 57.9124579"></polygon>
            <polygon id="Path" fill="#0062AC" points="181.818182 21.5488215 218.181818 21.5488215 218.181818 57.9124579 181.818182 57.9124579"></polygon>
            <polygon id="Path" fill="#0062AC" points="221.548822 21.5488215 257.912458 21.5488215 257.912458 57.9124579 221.548822 57.9124579"></polygon>
            <polygon id="Path" fill="#0062AC" points="142.087542 61.952862 178.451178 61.952862 178.451178 98.3164983 142.087542 98.3164983"></polygon>
            <polygon id="Path" fill="#0062AC" points="181.818182 61.952862 218.181818 61.952862 218.181818 98.3164983 181.818182 98.3164983"></polygon>
            <polygon id="Path" fill="#0062AC" points="221.548822 61.952862 257.912458 61.952862 257.912458 98.3164983 221.548822 98.3164983"></polygon>
            <polygon id="Path" fill="#0062AC" points="142.087542 101.683502 178.451178 101.683502 178.451178 138.047138 142.087542 138.047138"></polygon>
            <polygon id="Path" fill="#0062AC" points="181.818182 101.683502 218.181818 101.683502 218.181818 138.047138 181.818182 138.047138"></polygon>
            <polygon id="Path" fill="#0062AC" points="221.548822 101.683502 257.912458 101.683502 257.912458 138.047138 221.548822 138.047138"></polygon>
            <polygon id="Path" fill="#FFFFFF" points="142.087542 222.222222 178.451178 222.222222 178.451178 258.585859 142.087542 258.585859"></polygon>
            <polygon id="Path" fill="#FFFFFF" points="181.818182 222.222222 218.181818 222.222222 218.181818 258.585859 181.818182 258.585859"></polygon>
            <polygon id="Path" fill="#FFFFFF" points="221.548822 222.222222 257.912458 222.222222 257.912458 258.585859 221.548822 258.585859"></polygon>
            <polygon id="Path" fill="#FFFFFF" points="142.087542 181.818182 178.451178 181.818182 178.451178 218.181818 142.087542 218.181818"></polygon>
            <polygon id="Path" fill="#FFFFFF" points="181.818182 181.818182 218.181818 181.818182 218.181818 218.181818 181.818182 218.181818"></polygon>
            <polygon id="Path" fill="#FFFFFF" points="221.548822 181.818182 257.912458 181.818182 257.912458 218.181818 221.548822 218.181818"></polygon>
            <polygon id="Path" fill="#FFFFFF" points="142.087542 142.087542 178.451178 142.087542 178.451178 178.451178 142.087542 178.451178"></polygon>
            <polygon id="Path" fill="#FFFFFF" points="181.818182 142.087542 218.181818 142.087542 218.181818 178.451178 181.818182 178.451178"></polygon>
            <polygon id="Path" fill="#FFFFFF" points="221.548822 142.087542 257.912458 142.087542 257.912458 178.451178 221.548822 178.451178"></polygon>
            <polygon id="Path" fill="#EF7F1A" points="101.683502 222.222222 138.047138 222.222222 138.047138 258.585859 101.683502 258.585859"></polygon>
            <polygon id="Path" fill="#EF7F1A" points="61.952862 222.222222 98.3164983 222.222222 98.3164983 258.585859 61.952862 258.585859"></polygon>
            <polygon id="Path" fill="#EF7F1A" points="21.5488215 222.222222 57.9124579 222.222222 57.9124579 258.585859 21.5488215 258.585859"></polygon>
            <polygon id="Path" fill="#EF7F1A" points="101.683502 181.818182 138.047138 181.818182 138.047138 218.181818 101.683502 218.181818"></polygon>
            <polygon id="Path" fill="#EF7F1A" points="61.952862 181.818182 98.3164983 181.818182 98.3164983 218.181818 61.952862 218.181818"></polygon>
            <polygon id="Path" fill="#EF7F1A" points="21.5488215 181.818182 57.9124579 181.818182 57.9124579 218.181818 21.5488215 218.181818"></polygon>
            <polygon id="Path" fill="#EF7F1A" points="101.683502 142.087542 138.047138 142.087542 138.047138 178.451178 101.683502 178.451178"></polygon>
            <polygon id="Path" fill="#EF7F1A" points="61.952862 142.087542 98.3164983 142.087542 98.3164983 178.451178 61.952862 178.451178"></polygon>
            <polygon id="Path" fill="#EF7F1A" points="21.5488215 142.087542 57.9124579 142.087542 57.9124579 178.451178 21.5488215 178.451178"></polygon>
            <polygon id="Path" fill="#E31E24" points="342.087542 222.222222 378.451178 222.222222 378.451178 258.585859 342.087542 258.585859"></polygon>
            <polygon id="Path" fill="#E31E24" points="301.683502 222.222222 338.047138 222.222222 338.047138 258.585859 301.683502 258.585859"></polygon>
            <polygon id="Path" fill="#E31E24" points="261.952862 222.222222 298.316498 222.222222 298.316498 258.585859 261.952862 258.585859"></polygon>
            <polygon id="Path" fill="#E31E24" points="342.087542 181.818182 378.451178 181.818182 378.451178 218.181818 342.087542 218.181818"></polygon>
            <polygon id="Path" fill="#E31E24" points="301.683502 181.818182 338.047138 181.818182 338.047138 218.181818 301.683502 218.181818"></polygon>
            <polygon id="Path" fill="#E31E24" points="261.952862 181.818182 298.316498 181.818182 298.316498 218.181818 261.952862 218.181818"></polygon>
            <polygon id="Path" fill="#E31E24" points="342.087542 142.087542 378.451178 142.087542 378.451178 178.451178 342.087542 178.451178"></polygon>
            <polygon id="Path" fill="#E31E24" points="301.683502 142.087542 338.047138 142.087542 338.047138 178.451178 301.683502 178.451178"></polygon>
            <polygon id="Path" fill="#E31E24" points="261.952862 142.087542 298.316498 142.087542 298.316498 178.451178 261.952862 178.451178"></polygon>
            <polygon id="Path" fill="#FFED00" points="381.818182 222.222222 418.181818 222.222222 418.181818 258.585859 381.818182 258.585859"></polygon>
            <polygon id="Path" fill="#FFED00" points="421.548822 222.222222 457.912458 222.222222 457.912458 258.585859 421.548822 258.585859"></polygon>
            <polygon id="Path" fill="#FFED00" points="461.952862 222.222222 498.316498 222.222222 498.316498 258.585859 461.952862 258.585859"></polygon>
            <polygon id="Path" fill="#FFED00" points="381.818182 181.818182 418.181818 181.818182 418.181818 218.181818 381.818182 218.181818"></polygon>
            <polygon id="Path" fill="#FFED00" points="421.548822 181.818182 457.912458 181.818182 457.912458 218.181818 421.548822 218.181818"></polygon>
            <polygon id="Path" fill="#FFED00" points="461.952862 181.818182 498.316498 181.818182 498.316498 218.181818 461.952862 218.181818"></polygon>
            <polygon id="Path" fill="#FFED00" points="381.818182 142.087542 418.181818 142.087542 418.181818 178.451178 381.818182 178.451178"></polygon>
            <polygon id="Path" fill="#FFED00" points="421.548822 142.087542 457.912458 142.087542 457.912458 178.451178 421.548822 178.451178"></polygon>
            <polygon id="Path" fill="#FFED00" points="461.952862 142.087542 498.316498 142.087542 498.316498 178.451178 461.952862 178.451178"></polygon>
            <polygon id="Path" fill="#009846" points="142.087542 261.952862 178.451178 261.952862 178.451178 298.316498 142.087542 298.316498"></polygon>
            <polygon id="Path" fill="#009846" points="181.818182 261.952862 218.181818 261.952862 218.181818 298.316498 181.818182 298.316498"></polygon>
            <polygon id="Path" fill="#009846" points="221.548822 261.952862 257.912458 261.952862 257.912458 298.316498 221.548822 298.316498"></polygon>
            <polygon id="Path" fill="#009846" points="142.087542 301.683502 178.451178 301.683502 178.451178 338.047138 142.087542 338.047138"></polygon>
            <polygon id="Path" fill="#009846" points="181.818182 301.683502 218.181818 301.683502 218.181818 338.047138 181.818182 338.047138"></polygon>
            <polygon id="Path" fill="#009846" points="221.548822 301.683502 257.912458 301.683502 257.912458 338.047138 221.548822 338.047138"></polygon>
            <polygon id="Path" fill="#009846" points="142.087542 342.087542 178.451178 342.087542 178.451178 378.451178 142.087542 378.451178"></polygon>
            <polygon id="Path" fill="#009846" points="181.818182 342.087542 218.181818 342.087542 218.181818 378.451178 181.818182 378.451178"></polygon>
            <polygon id="Path" fill="#009846" points="221.548822 342.087542 257.912458 342.087542 257.912458 378.451178 221.548822 378.451178"></polygon>
            <polygon id="Path" fill="#0062AC" points="301.683502 123.232323 338.047138 123.232323 338.047138 138.047138 301.683502 138.047138"></polygon>
            <polygon id="Path" fill="#009846" points="301.683502 261.952862 338.047138 261.952862 338.047138 276.767677 301.683502 276.767677"></polygon>
            <polygon id="Path" fill="#0062AC" points="421.548822 123.232323 457.912458 123.232323 457.912458 138.047138 421.548822 138.047138"></polygon>
            <polygon id="Path" fill="#009846" points="421.548822 261.952862 457.912458 261.952862 457.912458 276.767677 421.548822 276.767677"></polygon>
            <polygon id="Path" fill="#EF7F1A" points="501.683502 218.181818 501.683502 181.818182 516.498316 181.818182 516.498316 218.181818"></polygon>
            <polygon id="Path" fill="#FFED00" points="181.818182 3.36700337 218.181818 3.36700337 218.181818 18.1818182 181.818182 18.1818182"></polygon>
            <polygon id="Path" fill="#E31E24" points="261.952862 98.3164983 261.952862 61.952862 276.767677 61.952862 276.767677 98.3164983"></polygon>
            <polygon id="Path" fill="#EF7F1A" points="123.232323 98.3164983 123.232323 61.952862 138.047138 61.952862 138.047138 98.3164983"></polygon>
            <polygon id="Path" fill="#0062AC" points="61.952862 123.232323 98.3164983 123.232323 98.3164983 138.047138 61.952862 138.047138"></polygon>
            <polygon id="Path" fill="#009846" points="61.952862 261.952862 98.3164983 261.952862 98.3164983 276.767677 61.952862 276.767677"></polygon>
            <polygon id="Path" fill="#FFED00" points="3.36700337 218.181818 3.36700337 181.818182 18.1818182 181.818182 18.1818182 218.181818"></polygon>
            <polygon id="Path" fill="#FFED00" points="181.818182 381.818182 218.181818 381.818182 218.181818 396.632997 181.818182 396.632997"></polygon>
            <polygon id="Path" fill="#E31E24" points="261.952862 338.047138 261.952862 301.683502 276.767677 301.683502 276.767677 338.047138"></polygon>
            <polygon id="Path" fill="#EF7F1A" points="123.232323 338.047138 123.232323 301.683502 138.047138 301.683502 138.047138 338.047138"></polygon>
            <path d="M189.89899,169.023569 L198.421772,146.801347 L201.712213,146.801347 L210.774411,169.023569 L207.376086,169.023569 L204.840829,162.297715 L195.45498,162.297715 L193.027606,169.023569 L189.89899,169.023569 L189.89899,169.023569 Z M196.318047,159.876407 L203.92382,159.876407 L201.604329,153.742428 C200.903088,151.859189 200.363671,150.298791 199.98608,149.115041 C199.66243,150.514018 199.284838,151.966803 198.745421,153.36578 L196.318047,159.876407 Z" id="Shape" fill="#000000"></path>
            <path d="M231.649832,190.572391 L246.157177,190.572391 L246.157177,193.208925 L234.627085,193.208925 L234.627085,200.042393 L239.93201,200.042393 C241.93489,200.042393 243.504715,200.257621 244.641485,200.634268 C245.832386,201.010916 246.752628,201.710405 247.456343,202.732735 C248.160057,203.755065 248.484848,204.992622 248.484848,206.337793 C248.484848,207.467736 248.268321,208.543873 247.727002,209.512396 C247.239815,210.480919 246.481969,211.288021 245.507595,211.879897 C244.479089,212.471772 242.801,212.794613 240.419197,212.794613 L231.649832,212.794613 L231.649832,190.572391 L231.649832,190.572391 Z M234.627085,210.265692 L240.527461,210.265692 C242.097286,210.265692 243.342319,209.996657 244.100166,209.350975 C244.912144,208.705293 245.291067,207.73677 245.291067,206.445406 C245.291067,205.53069 245.07454,204.723588 244.641485,204.131713 C244.154298,203.486031 243.558847,203.109383 242.746868,202.894155 C241.93489,202.678928 240.527461,202.625121 238.578713,202.625121 L234.627085,202.625121 L234.627085,210.265692 L234.627085,210.265692 Z" id="Shape" fill="#000000"></path>
            <path d="M191.919192,253.198653 L191.919192,230.976431 L200.282742,230.976431 C202.00941,230.976431 203.35837,231.191658 204.383579,231.622113 C205.408789,232.106374 206.218165,232.752056 206.811707,233.720579 C207.405249,234.635296 207.675041,235.603819 207.675041,236.626148 C207.675041,237.594671 207.405249,238.509388 206.919624,239.31649 C206.38004,240.177399 205.624622,240.823082 204.545455,241.36115 C205.894414,241.737798 206.973582,242.437287 207.675041,243.352003 C208.3765,244.320526 208.754209,245.450469 208.754209,246.741833 C208.754209,247.764163 208.538375,248.732686 208.106708,249.647402 C207.675041,250.508312 207.135457,251.2078 206.487956,251.692062 C205.840456,252.176323 204.977122,252.552971 204.005871,252.822005 C203.03462,253.037233 201.847535,253.198653 200.444617,253.198653 L191.919192,253.198653 L191.919192,253.198653 Z M194.886903,240.285013 L199.6892,240.285013 C200.984201,240.285013 201.955452,240.231206 202.495036,240.015979 C203.250453,239.800752 203.843996,239.424104 204.221704,238.939842 C204.599413,238.401774 204.761288,237.756092 204.761288,237.002796 C204.761288,236.249501 204.599413,235.603819 204.221704,235.011943 C203.897954,234.473875 203.35837,234.097227 202.710869,233.882 C202.063369,233.666773 200.930243,233.559159 199.365449,233.559159 L194.886903,233.559159 L194.886903,240.285013 L194.886903,240.285013 Z M194.886903,250.562118 L200.444617,250.562118 C201.36191,250.562118 202.063369,250.508312 202.441077,250.454505 C203.142536,250.346891 203.68212,250.131664 204.167746,249.86263 C204.599413,249.593595 204.977122,249.163141 205.246914,248.625072 C205.570664,248.087004 205.732539,247.441322 205.732539,246.741833 C205.732539,245.880924 205.516706,245.181435 205.085038,244.58956 C204.653371,243.943878 204.059829,243.513423 203.304412,243.298196 C202.548994,243.029162 201.469826,242.921548 200.01295,242.921548 L194.886903,242.921548 L194.886903,250.562118 L194.886903,250.562118 Z" id="Shape" fill="#000000"></path>
            <polygon id="Path" fill="#000000" points="152.861953 189.225589 167.003367 189.225589 167.003367 191.808317 155.722014 191.808317 155.722014 211.447811 152.861953 211.447811"></polygon>
            <polygon id="Path" fill="#000000" points="191.245791 292.929293 191.245791 270.707071 206.933614 270.707071 206.933614 273.289799 194.088551 273.289799 194.088551 280.123267 206.091315 280.123267 206.091315 282.759801 194.088551 282.759801 194.088551 290.292758 207.407407 290.292758 207.407407 292.929293"></polygon>
            <path d="M231.649832,333.333333 L231.649832,311.465461 L247.28672,311.465461 L247.28672,314.059954 L234.535835,314.059954 L234.535835,320.784457 L246.499628,320.784457 L246.499628,323.326002 L234.535835,323.326002 L234.535835,330.791789 L247.811448,330.791789 L247.811448,333.333333 L231.649832,333.333333 L231.649832,333.333333 Z M235.322926,310.14174 L235.322926,307.070707 L238.103984,307.070707 L238.103984,310.14174 L235.322926,310.14174 Z M240.832568,310.14174 L240.832568,307.070707 L243.613625,307.070707 L243.613625,310.14174 L240.832568,310.14174 Z" id="Shape" fill="#000000"></path>
            <path d="M200.153046,348.201825 L200.153046,357.917338 C201.599327,357.917338 202.563514,357.648953 203.099174,357.112185 C203.634833,356.575416 204.331191,355.340848 205.188246,353.354804 C205.777472,351.905529 206.259565,350.885668 206.688093,350.295223 C207.063055,349.704777 207.65228,349.168009 208.402204,348.792271 C209.098561,348.362856 209.902051,348.148148 210.812672,348.148148 C211.77686,348.148148 212.366085,348.148148 212.580349,348.201825 L212.580349,350.724638 C212.473217,350.724638 212.312519,350.724638 211.991123,350.724638 C211.669728,350.724638 211.50903,350.670961 211.401898,350.670961 C210.491276,350.670961 209.794919,350.939345 209.366391,351.36876 C208.884298,351.851852 208.348638,352.818035 207.759412,354.267311 C207.116621,355.877617 206.580961,357.004831 206.098867,357.595276 C205.616774,358.132045 204.920416,358.615137 204.063361,359.044552 C205.509642,359.42029 206.902357,360.762211 208.241506,362.962963 L212.794613,370.37037 L209.152127,370.37037 L205.456076,364.358561 C204.491889,362.748256 203.634833,361.621041 202.992042,360.976919 C202.34925,360.332797 201.385063,359.957059 200.153046,359.957059 L200.153046,370.37037 L197.153352,370.37037 L197.153352,359.957059 C196.189164,359.957059 195.332109,360.225443 194.635751,360.762211 C193.885828,361.245303 193.028773,362.372517 192.064585,364.0365 L191.850321,364.358561 L188.15427,370.37037 L184.511785,370.37037 L189.064891,362.962963 C190.457606,360.708535 191.850321,359.42029 193.296602,359.044552 C192.493113,358.668814 191.850321,358.239399 191.368228,357.70263 C190.832568,357.165862 190.243343,356.038647 189.546985,354.267311 C188.904193,352.710682 188.368534,351.690821 187.940006,351.315083 C187.457912,350.885668 186.815121,350.670961 185.9045,350.670961 L184.726048,350.724638 L184.726048,348.201825 C184.83318,348.148148 185.422406,348.148148 186.440159,348.148148 C187.404346,348.148148 188.207836,348.362856 188.957759,348.738594 C189.654117,349.168009 190.189777,349.6511 190.618304,350.241546 C190.993266,350.831991 191.528926,351.905529 192.171717,353.354804 C192.975207,355.340848 193.671564,356.629093 194.207224,357.112185 C194.742883,357.648953 195.707071,357.863661 197.153352,357.917338 L197.153352,348.201825 L200.153046,348.201825 L200.153046,348.201825 Z" id="Path" fill="#000000"></path>
            <path d="M153.535354,323.990885 L156.308964,323.293828 C156.522319,324.366223 157.109044,325.438617 158.015802,326.511012 C158.922559,327.583406 160.09601,328.119604 161.642831,328.119604 C163.189652,328.119604 164.363103,327.690646 165.26986,326.93997 C166.176618,326.135674 166.603327,325.170519 166.603327,324.044504 C166.603327,322.811251 166.123279,321.846096 165.216522,321.149039 C164.256426,320.398363 162.976298,320.023025 161.376138,320.023025 L159.989332,320.023025 L159.989332,317.502898 C161.322799,317.502898 162.336234,317.395658 163.082975,317.234799 C163.776378,317.07394 164.416442,316.698602 164.949828,316.055165 C165.483215,315.411729 165.749908,314.714672 165.749908,313.856756 C165.749908,312.945221 165.376538,312.087306 164.629796,311.390249 C163.883055,310.639573 162.86962,310.317855 161.642831,310.317855 C160.522719,310.317855 159.562623,310.585953 158.815882,311.12215 C158.015802,311.711967 157.482415,312.462644 157.162383,313.374179 C156.89569,314.285714 156.735674,314.982771 156.735674,315.411729 L153.962063,314.768292 C154.602127,310.103376 157.215722,307.744108 161.642831,307.744108 C163.776378,307.744108 165.483215,308.333925 166.763343,309.567178 C167.990132,310.746812 168.630196,312.140925 168.630196,313.749517 C168.630196,315.787067 167.6701,317.395658 165.749908,318.521673 C166.87002,318.843391 167.776778,319.486828 168.576858,320.451983 C169.323599,321.417138 169.69697,322.543152 169.69697,323.883645 C169.69697,325.813955 168.950228,327.422547 167.510084,328.709421 C166.016602,329.996294 164.09641,330.639731 161.642831,330.639731 C157.482415,330.639731 154.815482,328.387702 153.535354,323.990885 L153.535354,323.990885 Z" id="Path" fill="#000000"></path>
            <polygon id="Path" fill="#000000" points="191.245791 109.090909 193.901867 109.090909 193.901867 126.685744 205.827105 109.090909 208.754209 109.090909 208.754209 131.313131 206.043927 131.313131 206.043927 113.772104 194.172895 131.313131 191.245791 131.313131"></polygon>
            <path d="M232.323232,68.7405456 L235.270817,68.7405456 L235.270817,78.4560582 C236.610628,78.4560582 237.521699,78.1876738 238.057624,77.6509052 C238.593548,77.1678134 239.29025,75.8795686 240.147729,73.9472015 C240.737246,72.4442493 241.27317,71.4243888 241.648317,70.8339433 C242.077057,70.2434978 242.612981,69.7067291 243.363275,69.3309911 C244.113569,68.9015761 244.917456,68.6868687 245.774935,68.6868687 C246.900376,68.6868687 247.543486,68.7405456 247.597078,68.7405456 L247.597078,71.2633582 C247.489893,71.2633582 247.275523,71.2633582 247.007561,71.2633582 C246.686007,71.2633582 246.471637,71.2633582 246.418044,71.2633582 C245.45338,71.2633582 244.756679,71.4780657 244.327939,71.9074806 C243.845607,72.3905724 243.309683,73.356756 242.720166,74.8060313 C241.969872,76.6847216 241.380355,77.9192895 240.84443,78.4023813 C240.362098,78.8854731 239.718989,79.2612111 239.022287,79.5295955 C240.415691,79.9590104 241.862687,81.2472552 243.25609,83.5016835 L247.811448,90.9090909 L244.167162,90.9090909 L240.469283,84.897282 C239.451027,83.2332992 238.593548,82.106085 237.896846,81.4619626 C237.200144,80.8178402 236.342665,80.5494559 235.270817,80.5494559 L235.270817,90.9090909 L232.323232,90.9090909 L232.323232,68.7405456 L232.323232,68.7405456 Z" id="Path" fill="#000000"></path>
            <path d="M194.982344,28.956229 L208.754209,28.956229 L208.754209,50.8080808 L205.818346,50.8080808 L205.818346,31.5488215 L197.918206,31.5488215 L197.918206,42.7657528 C197.918206,45.0937951 197.811448,46.7340067 197.597931,47.7922078 C197.384413,48.8504089 196.903999,49.6969697 196.210068,50.2789803 C195.516137,50.8609909 194.662068,51.1784512 193.594481,51.1784512 C192.95393,51.1784512 192.15324,51.019721 191.245791,50.7551708 L191.779584,48.2154882 C192.259998,48.4800385 192.687033,48.5858586 193.007309,48.5858586 C193.70124,48.5858586 194.181654,48.3213083 194.50193,47.8451178 C194.822206,47.3689274 194.982344,46.2049062 194.982344,44.3530544 L194.982344,28.956229 L194.982344,28.956229 Z" id="Path" fill="#000000"></path>
            <path d="M149.494949,90.9090909 L149.494949,68.6868687 L153.83958,68.6868687 L159.031944,84.436599 C159.508794,85.8929097 159.826693,86.9716583 160.038627,87.7267824 C160.303543,86.9177209 160.727409,85.7310974 161.257242,84.1669118 L166.502589,68.6868687 L170.37037,68.6868687 L170.37037,90.9090909 L167.615239,90.9090909 L167.615239,72.3006767 L161.204259,90.9090909 L158.608077,90.9090909 L152.303064,71.9770521 L152.303064,90.9090909 L149.494949,90.9090909 Z" id="Path" fill="#000000"></path>
            <path d="M109.76431,200.294908 C109.76431,196.595147 110.715595,193.753302 112.671014,191.662133 C114.626433,189.570963 117.110344,188.552189 120.175596,188.552189 C122.236713,188.552189 124.033585,189.034766 125.671909,189.999921 C127.257384,190.965076 128.472915,192.359189 129.318501,194.07502 C130.216937,195.844471 130.639731,197.828401 130.639731,200.02681 C130.639731,202.278838 130.164088,204.262768 129.265652,206.032219 C128.367216,207.80167 127.098836,209.142163 125.460512,210.053699 C123.822188,210.965234 122.078166,211.447811 120.175596,211.447811 C118.114478,211.447811 116.317606,210.911614 114.679282,209.892839 C113.040958,208.927684 111.825427,207.533571 110.979841,205.81774 C110.187103,204.048289 109.76431,202.225219 109.76431,200.294908 Z M112.723863,200.348528 C112.723863,202.975895 113.463751,205.067064 114.83783,206.622036 C116.264757,208.177008 118.00878,208.927684 120.175596,208.927684 C122.342411,208.927684 124.139283,208.123388 125.513361,206.622036 C126.940289,205.067064 127.627328,202.868655 127.627328,200.02681 C127.627328,198.203739 127.310233,196.648767 126.728892,195.308274 C126.147551,193.967781 125.249116,192.949006 124.086434,192.19833 C122.923752,191.447654 121.655372,191.072316 120.228445,191.072316 C118.167327,191.072316 116.423305,191.769372 114.943528,193.217105 C113.463751,194.611218 112.723863,197.024105 112.723863,200.348528 L112.723863,200.348528 Z" id="Shape" fill="#000000"></path>
            <polygon id="Path" fill="#000000" points="71.3804714 228.956229 88.8888889 228.956229 88.8888889 251.178451 85.916781 251.178451 85.916781 231.538957 74.3525793 231.538957 74.3525793 251.178451 71.3804714 251.178451"></polygon>
            <path d="M31.6498316,211.447811 L31.6498316,189.225589 L39.9337288,189.225589 C41.4301748,189.225589 42.5525092,189.333203 43.3007322,189.440817 C44.4230666,189.656044 45.3316231,189.978885 46.0264016,190.463146 C46.7746246,191.001215 47.362514,191.700704 47.79007,192.61542 C48.2710705,193.530136 48.4848485,194.552466 48.4848485,195.628602 C48.4848485,197.511842 47.896959,199.126047 46.6677356,200.417411 C45.4919566,201.762581 43.3541767,202.408263 40.2009513,202.408263 L34.5358345,202.408263 L34.5358345,211.447811 L31.6498316,211.447811 L31.6498316,211.447811 Z M34.5358345,199.771729 L40.2543958,199.771729 C42.1249532,199.771729 43.4610657,199.448888 44.2627332,198.749399 C45.0644006,197.996103 45.4385121,197.02758 45.4385121,195.736216 C45.4385121,194.8215 45.2247341,194.014397 44.7437336,193.368715 C44.3161776,192.669227 43.6748437,192.238772 42.9266207,192.023545 C42.4456202,191.915931 41.5370638,191.862124 40.2009513,191.862124 L34.5358345,191.862124 L34.5358345,199.771729 Z" id="Shape" fill="#000000"></path>
            <path d="M86.6651867,163.566973 L89.5622896,164.31765 C88.972139,166.676917 87.8454878,168.553608 86.2896363,169.786862 C84.6801347,171.073735 82.7487327,171.717172 80.4417804,171.717172 C78.027528,171.717172 76.0961261,171.180974 74.5939246,170.215819 C73.0917231,169.250664 71.965072,167.856551 71.2139712,166.033481 C70.4092204,164.15679 70.03367,162.22648 70.03367,160.081691 C70.03367,157.776043 70.4628705,155.792113 71.3749214,154.076282 C72.2333222,152.360451 73.4672735,151.019958 75.1304251,150.162042 C76.7399267,149.250507 78.5103785,148.821549 80.4417804,148.821549 C82.6950827,148.821549 84.5191845,149.357746 86.0750361,150.48376 C87.5772376,151.609775 88.5965886,153.218366 89.1867392,155.255916 L86.3432863,155.952972 C85.8067858,154.344381 85.0556851,153.164747 84.0899841,152.41407 C83.1242831,151.663394 81.8903319,151.341676 80.4417804,151.341676 C78.7249787,151.341676 77.2764273,151.717014 76.1497761,152.52131 C75.023125,153.379226 74.2183742,154.45162 73.7355237,155.845733 C73.3063233,157.186226 73.038073,158.633959 73.038073,160.081691 C73.038073,161.958382 73.3599734,163.620593 73.8964739,165.014706 C74.4329744,166.408819 75.2913753,167.427594 76.4180264,168.12465 C77.5983276,168.821707 78.8322788,169.197045 80.1735302,169.197045 C81.8366818,169.197045 83.1779332,168.714467 84.3582344,167.749312 C85.4848855,166.837777 86.2359862,165.443664 86.6651867,163.566973 L86.6651867,163.566973 Z" id="Path" fill="#000000"></path>
            <path d="M270.03367,189.225589 L273.008944,189.225589 L280.311891,202.696817 L286.641111,189.225589 L289.56229,189.225589 L281.177425,206.250251 C280.149603,208.371704 279.284069,209.803685 278.634918,210.440121 C277.985767,211.076557 277.012041,211.447811 275.767835,211.447811 C275.010493,211.447811 274.090862,211.235666 272.954849,210.917448 L272.954849,208.424741 C273.766287,208.849031 274.577726,209.114213 275.44326,209.114213 C276.200603,209.114213 276.795657,208.849031 277.336616,208.424741 C277.823479,207.947414 278.418534,206.939723 279.067685,205.295597 L270.03367,189.225589 L270.03367,189.225589 Z" id="Path" fill="#000000"></path>
            <path d="M318.87068,231.787426 L318.87068,228.956229 L321.586614,228.956229 L321.586614,231.787426 C324.409057,231.894263 326.592455,232.748964 328.243318,234.298109 C329.840926,235.847255 330.639731,237.770332 330.639731,240.06734 C330.639731,242.31093 329.89418,244.180588 328.296571,245.783152 C326.752216,247.332297 324.515564,248.186998 321.586614,248.347255 L321.586614,251.178451 L318.87068,251.178451 L318.87068,248.347255 C316.261252,248.240417 314.131107,247.492554 312.373737,245.996827 C310.669621,244.501101 309.76431,242.524605 309.76431,240.06734 C309.76431,237.610075 310.669621,235.633579 312.373737,234.137853 C314.077853,232.695545 316.261252,231.894263 318.87068,231.787426 L318.87068,231.787426 Z M321.586614,234.24469 L321.586614,245.88999 C323.503745,245.783152 324.941593,245.248964 326.059919,244.234007 C327.124991,243.219049 327.657528,241.830161 327.657528,240.06734 C327.657528,238.357938 327.124991,236.969049 326.059919,235.954092 C324.994846,234.939135 323.503745,234.351528 321.586614,234.24469 L321.586614,234.24469 Z M318.87068,234.298109 C317.060056,234.351528 315.622208,234.885716 314.450629,235.900673 C313.332303,236.915631 312.799766,238.30452 312.799766,240.06734 C312.799766,241.830161 313.332303,243.219049 314.450629,244.234007 C315.568955,245.195545 317.006803,245.783152 318.87068,245.836571 L318.87068,234.298109 Z" id="Shape" fill="#000000"></path>
            <path d="M350.16835,211.447811 L358.696908,199.879342 L351.181116,189.225589 L354.645843,189.225589 L358.696908,194.875307 C359.49646,196.059057 360.082798,196.973773 360.402619,197.619455 C360.935654,196.812353 361.521992,196.00525 362.161634,195.144341 L366.585823,189.225589 L369.784032,189.225589 L362.10833,199.771729 L370.37037,211.447811 L366.745734,211.447811 L361.202171,203.4844 C360.88235,203.053945 360.615833,202.623491 360.296012,202.139229 C359.816281,202.892525 359.49646,203.430593 359.283246,203.699627 L353.68638,211.447811 L350.16835,211.447811 L350.16835,211.447811 Z" id="Path" fill="#000000"></path>
            <polygon id="Path" fill="#000000" points="310.43771 146.127946 313.358889 146.127946 313.358889 165.679522 324.989507 165.679522 324.989507 146.127946 327.964782 146.127946 327.964782 165.679522 329.96633 165.679522 329.96633 174.410774 327.369727 174.410774 327.369727 168.250689 310.43771 168.250689"></polygon>
            <path d="M398.126061,198.364598 L398.126061,200.938345 L406.353133,200.938345 C406.245589,203.404853 405.546557,205.388782 404.309808,206.782895 C403.019287,208.230628 401.352364,208.927684 399.362811,208.927684 C395.86765,208.927684 393.609238,207.104614 392.74889,203.351233 L389.89899,204.101909 C391.189511,208.981304 394.254498,211.447811 399.201496,211.447811 C402.696657,211.447811 405.277699,210.321797 406.998393,208.069769 C408.719088,205.81774 409.525664,203.029515 409.41812,199.758711 C409.41812,197.721162 409.041718,195.898091 408.235143,194.235879 C407.482339,192.573668 406.299361,191.233175 404.739982,190.16078 C403.180602,189.088386 401.298592,188.552189 399.093952,188.552189 C396.781769,188.552189 394.899759,189.088386 393.340379,190.26802 C391.781,191.394034 390.705566,192.949006 390.167848,194.986556 L393.071521,195.737232 C393.931868,192.627288 395.921421,191.125935 399.147724,191.125935 C401.298592,191.125935 403.019287,191.769372 404.256036,193.056246 C405.492786,194.343119 406.138046,196.11257 406.245589,198.364598 L398.126061,198.364598 L398.126061,198.364598 Z" id="Path" fill="#000000"></path>
            <polygon id="Path" fill="#000000" points="429.62963 150.16835 432.58921 150.16835 432.58921 169.754038 439.961256 169.754038 439.961256 150.16835 442.867026 150.16835 442.867026 169.754038 450.239073 169.754038 450.239073 150.16835 453.198653 150.16835 453.198653 172.390572 429.62963 172.390572"></polygon>
            <path d="M488.888889,212.794613 L488.888889,190.572391 L479.070929,190.572391 C477.085877,190.572391 475.583676,190.787618 474.564325,191.164266 C473.544974,191.59472 472.686573,192.294209 472.096422,193.262732 C471.506272,194.285062 471.184371,195.415006 471.184371,196.652563 C471.184371,198.212961 471.667222,199.558132 472.686573,200.634268 C473.705924,201.710405 475.261775,202.356087 477.407777,202.678928 C476.603027,203.055576 476.012876,203.432224 475.637326,203.755065 C474.778925,204.562167 473.974174,205.53069 473.223073,206.714441 L469.360269,212.794613 L473.062123,212.794613 L475.959226,208.167225 C476.817627,206.822054 477.515078,205.799724 478.105228,205.100236 C478.641729,204.400747 479.124579,203.916485 479.55378,203.593644 C479.98298,203.32461 480.46583,203.16319 480.895031,203.001769 C481.216931,202.947962 481.753432,202.947962 482.558183,202.947962 L485.938136,202.947962 L485.938136,212.794613 L488.888889,212.794613 L488.888889,212.794613 Z M485.938136,200.365234 L479.66108,200.365234 C478.319828,200.365234 477.246827,200.257621 476.495726,199.93478 C475.744626,199.665745 475.154475,199.235291 474.778925,198.643416 C474.403374,197.997734 474.188774,197.352052 474.188774,196.652563 C474.188774,195.576426 474.564325,194.715517 475.315425,194.016028 C476.120176,193.370346 477.300477,193.047505 478.909979,193.047505 L485.938136,193.047505 L485.938136,200.365234 Z" id="Shape" fill="#000000"></path>
            <path d="M426.262626,229.331567 L429.18468,229.331567 L429.18468,239.251216 L433.434941,239.251216 C433.647454,236.141272 434.656891,233.621145 436.463252,231.744455 C438.322741,229.867764 440.554128,228.956229 443.263669,228.956229 C446.132595,228.956229 448.470238,229.975004 450.382856,232.012553 C452.242345,234.050103 453.198653,236.784709 453.198653,240.269991 C453.198653,243.916132 452.242345,246.704358 450.382856,248.741908 C448.523366,250.833077 446.132595,251.851852 443.210541,251.851852 C440.554128,251.851852 438.322741,250.940317 436.569508,249.170866 C434.816276,247.401415 433.753711,244.988527 433.434941,241.824963 L429.18468,241.824963 L429.18468,251.476514 L426.262626,251.476514 L426.262626,229.331567 L426.262626,229.331567 Z M436.303867,240.48447 C436.303867,243.272696 436.941406,245.471104 438.216484,247.026077 C439.491563,248.527429 441.138539,249.331725 443.210541,249.331725 C445.335671,249.331725 447.035775,248.527429 448.257725,247.026077 C449.532803,245.471104 450.170342,243.219076 450.170342,240.323611 C450.170342,237.535385 449.532803,235.390596 448.310853,233.782004 C447.088903,232.227032 445.388799,231.422736 443.263669,231.422736 C441.138539,231.422736 439.438434,232.227032 438.163356,233.835624 C436.941406,235.444216 436.303867,237.642625 436.303867,240.48447 L436.303867,240.48447 Z" id="Shape" fill="#000000"></path>
        </g>
    </g>
</svg>