<?xml version="1.0" encoding="UTF-8"?>
<svg width="521px" height="400px" viewBox="0 0 521 400" version="1.1" xmlns="http://www.w3.org/2000/svg" xmlns:xlink="http://www.w3.org/1999/xlink">
    <title>blind_22_1</title>
    <g id="Blind" stroke="none" stroke-width="1" fill="none" fill-rule="evenodd">
        <g id="blind_22_1" fill-rule="nonzero">
            <path d="M181.963627,18.1747168 L218.345928,18.1747168 L218.345928,0 L262.025538,0 L262.025538,18.1747168 L280.268812,18.1747168 L280.268812,61.8148679 L262.025538,61.8148679 L262.025538,138.159094 L338.490918,138.159094 L338.490918,119.984377 C366.377066,119.984377 394.315337,119.984377 422.201484,119.984377 L422.201484,138.159094 L458.583785,138.159094 L458.583785,119.984377 L502.263395,119.984377 L502.263395,138.159094 L520.454545,138.159094 L520.454545,181.799245 L502.263395,181.799245 L502.263395,218.148679 L520.454545,218.148679 L520.454545,261.78883 L502.263395,261.78883 L502.263395,280.015623 L458.583785,280.015623 L458.583785,261.78883 L422.201484,261.78883 L422.201484,280.015623 C394.315337,280.015623 366.377066,280.015623 338.490918,280.015623 L338.490918,261.78883 L262.025538,261.78883 L262.025538,338.185132 L280.268812,338.185132 L280.268812,381.825283 L262.025538,381.825283 L262.025538,400 L218.345928,400 L218.345928,381.825283 L181.963627,381.825283 L181.963627,400 L138.284017,400 L138.284017,381.825283 L120.092867,381.825283 L120.092867,338.185132 L138.284017,338.185132 L138.284017,261.78883 L61.8707607,261.78883 L61.8707607,280.015623 L18.1911504,280.015623 L18.1911504,261.78883 L0,261.78883 L0,218.148679 L18.1911504,218.148679 L18.1911504,181.799245 L0,181.799245 L0,138.159094 L18.1911504,138.159094 L18.1911504,119.984377 L61.8707607,119.984377 L61.8707607,138.159094 L138.284017,138.159094 L138.284017,61.8148679 L120.092867,61.8148679 L120.092867,18.1747168 L138.284017,18.1747168 L138.284017,0 L181.963627,0 L181.963627,18.1747168 Z" id="Path" fill="#000000"></path>
            <polygon id="Path" fill="#0062AC" points="181.818182 61.9318182 218.181818 61.9318182 218.181818 98.2954545 181.818182 98.2954545"></polygon>
            <polygon id="Path" fill="#0062AC" points="142.045455 22.1590909 178.409091 22.1590909 178.409091 58.5227273 142.045455 58.5227273"></polygon>
            <polygon id="Path" fill="#0062AC" points="181.818182 22.1590909 218.181818 22.1590909 218.181818 58.5227273 181.818182 58.5227273"></polygon>
            <polygon id="Path" fill="#0062AC" points="222.159091 22.1590909 258.522727 22.1590909 258.522727 58.5227273 222.159091 58.5227273"></polygon>
            <polygon id="Path" fill="#0062AC" points="142.045455 61.9318182 178.409091 61.9318182 178.409091 98.2954545 142.045455 98.2954545"></polygon>
            <polygon id="Path" fill="#0062AC" points="222.159091 61.9318182 258.522727 61.9318182 258.522727 98.2954545 222.159091 98.2954545"></polygon>
            <polygon id="Path" fill="#0062AC" points="142.045455 102.272727 178.409091 102.272727 178.409091 138.636364 142.045455 138.636364"></polygon>
            <polygon id="Path" fill="#0062AC" points="181.818182 102.272727 218.181818 102.272727 218.181818 138.636364 181.818182 138.636364"></polygon>
            <polygon id="Path" fill="#0062AC" points="222.159091 102.272727 258.522727 102.272727 258.522727 138.636364 222.159091 138.636364"></polygon>
            <polygon id="Path" fill="#FFFFFF" points="181.818182 181.818182 218.181818 181.818182 218.181818 218.181818 181.818182 218.181818"></polygon>
            <polygon id="Path" fill="#FFFFFF" points="142.045455 222.159091 178.409091 222.159091 178.409091 258.522727 142.045455 258.522727"></polygon>
            <polygon id="Path" fill="#FFFFFF" points="181.818182 222.159091 218.181818 222.159091 218.181818 258.522727 181.818182 258.522727"></polygon>
            <polygon id="Path" fill="#FFFFFF" points="222.159091 222.159091 258.522727 222.159091 258.522727 258.522727 222.159091 258.522727"></polygon>
            <polygon id="Path" fill="#FFFFFF" points="142.045455 181.818182 178.409091 181.818182 178.409091 218.181818 142.045455 218.181818"></polygon>
            <polygon id="Path" fill="#FFFFFF" points="222.159091 181.818182 258.522727 181.818182 258.522727 218.181818 222.159091 218.181818"></polygon>
            <polygon id="Path" fill="#FFFFFF" points="142.045455 142.045455 178.409091 142.045455 178.409091 178.409091 142.045455 178.409091"></polygon>
            <polygon id="Path" fill="#FFFFFF" points="181.818182 142.045455 218.181818 142.045455 218.181818 178.409091 181.818182 178.409091"></polygon>
            <polygon id="Path" fill="#FFFFFF" points="222.159091 142.045455 258.522727 142.045455 258.522727 178.409091 222.159091 178.409091"></polygon>
            <polygon id="Path" fill="#EF7F1A" points="61.9318182 181.818182 98.2954545 181.818182 98.2954545 218.181818 61.9318182 218.181818"></polygon>
            <polygon id="Path" fill="#EF7F1A" points="102.272727 222.159091 138.636364 222.159091 138.636364 258.522727 102.272727 258.522727"></polygon>
            <polygon id="Path" fill="#EF7F1A" points="61.9318182 222.159091 98.2954545 222.159091 98.2954545 258.522727 61.9318182 258.522727"></polygon>
            <polygon id="Path" fill="#EF7F1A" points="22.1590909 222.159091 58.5227273 222.159091 58.5227273 258.522727 22.1590909 258.522727"></polygon>
            <polygon id="Path" fill="#EF7F1A" points="102.272727 181.818182 138.636364 181.818182 138.636364 218.181818 102.272727 218.181818"></polygon>
            <polygon id="Path" fill="#EF7F1A" points="22.1590909 181.818182 58.5227273 181.818182 58.5227273 218.181818 22.1590909 218.181818"></polygon>
            <polygon id="Path" fill="#EF7F1A" points="102.272727 142.045455 138.636364 142.045455 138.636364 178.409091 102.272727 178.409091"></polygon>
            <polygon id="Path" fill="#EF7F1A" points="61.9318182 142.045455 98.2954545 142.045455 98.2954545 178.409091 61.9318182 178.409091"></polygon>
            <polygon id="Path" fill="#EF7F1A" points="22.1590909 142.045455 58.5227273 142.045455 58.5227273 178.409091 22.1590909 178.409091"></polygon>
            <polygon id="Path" fill="#E31E24" points="302.272727 181.818182 338.636364 181.818182 338.636364 218.181818 302.272727 218.181818"></polygon>
            <polygon id="Path" fill="#E31E24" points="342.045455 222.159091 378.409091 222.159091 378.409091 258.522727 342.045455 258.522727"></polygon>
            <polygon id="Path" fill="#E31E24" points="302.272727 222.159091 338.636364 222.159091 338.636364 258.522727 302.272727 258.522727"></polygon>
            <polygon id="Path" fill="#E31E24" points="261.931818 222.159091 298.295455 222.159091 298.295455 258.522727 261.931818 258.522727"></polygon>
            <polygon id="Path" fill="#E31E24" points="342.045455 181.818182 378.409091 181.818182 378.409091 218.181818 342.045455 218.181818"></polygon>
            <polygon id="Path" fill="#E31E24" points="261.931818 181.818182 298.295455 181.818182 298.295455 218.181818 261.931818 218.181818"></polygon>
            <polygon id="Path" fill="#E31E24" points="342.045455 142.045455 378.409091 142.045455 378.409091 178.409091 342.045455 178.409091"></polygon>
            <polygon id="Path" fill="#E31E24" points="302.272727 142.045455 338.636364 142.045455 338.636364 178.409091 302.272727 178.409091"></polygon>
            <polygon id="Path" fill="#E31E24" points="261.931818 142.045455 298.295455 142.045455 298.295455 178.409091 261.931818 178.409091"></polygon>
            <polygon id="Path" fill="#FFED00" points="422.159091 181.818182 458.522727 181.818182 458.522727 218.181818 422.159091 218.181818"></polygon>
            <polygon id="Path" fill="#FFED00" points="382.386364 222.159091 418.75 222.159091 418.75 258.522727 382.386364 258.522727"></polygon>
            <polygon id="Path" fill="#FFED00" points="422.159091 222.159091 458.522727 222.159091 458.522727 258.522727 422.159091 258.522727"></polygon>
            <polygon id="Path" fill="#FFED00" points="461.931818 222.159091 498.295455 222.159091 498.295455 258.522727 461.931818 258.522727"></polygon>
            <polygon id="Path" fill="#FFED00" points="382.386364 181.818182 418.75 181.818182 418.75 218.181818 382.386364 218.181818"></polygon>
            <polygon id="Path" fill="#FFED00" points="461.931818 181.818182 498.295455 181.818182 498.295455 218.181818 461.931818 218.181818"></polygon>
            <polygon id="Path" fill="#FFED00" points="382.386364 142.045455 418.75 142.045455 418.75 178.409091 382.386364 178.409091"></polygon>
            <polygon id="Path" fill="#FFED00" points="422.159091 142.045455 458.522727 142.045455 458.522727 178.409091 422.159091 178.409091"></polygon>
            <polygon id="Path" fill="#FFED00" points="461.931818 142.045455 498.295455 142.045455 498.295455 178.409091 461.931818 178.409091"></polygon>
            <polygon id="Path" fill="#009846" points="181.818182 302.272727 218.181818 302.272727 218.181818 338.636364 181.818182 338.636364"></polygon>
            <polygon id="Path" fill="#009846" points="142.045455 261.931818 178.409091 261.931818 178.409091 298.295455 142.045455 298.295455"></polygon>
            <polygon id="Path" fill="#009846" points="181.818182 261.931818 218.181818 261.931818 218.181818 298.295455 181.818182 298.295455"></polygon>
            <polygon id="Path" fill="#009846" points="222.159091 261.931818 258.522727 261.931818 258.522727 298.295455 222.159091 298.295455"></polygon>
            <polygon id="Path" fill="#009846" points="142.045455 302.272727 178.409091 302.272727 178.409091 338.636364 142.045455 338.636364"></polygon>
            <polygon id="Path" fill="#009846" points="222.159091 302.272727 258.522727 302.272727 258.522727 338.636364 222.159091 338.636364"></polygon>
            <polygon id="Path" fill="#009846" points="142.045455 342.045455 178.409091 342.045455 178.409091 378.409091 142.045455 378.409091"></polygon>
            <polygon id="Path" fill="#009846" points="181.818182 342.045455 218.181818 342.045455 218.181818 378.409091 181.818182 378.409091"></polygon>
            <polygon id="Path" fill="#009846" points="222.159091 342.045455 258.522727 342.045455 258.522727 378.409091 222.159091 378.409091"></polygon>
            <polygon id="Path" fill="#FFED00" points="142.045455 3.40909091 178.409091 3.40909091 178.409091 18.1818182 142.045455 18.1818182"></polygon>
            <polygon id="Path" fill="#FFED00" points="222.159091 3.40909091 258.522727 3.40909091 258.522727 18.1818182 222.159091 18.1818182"></polygon>
            <polygon id="Path" fill="#FFED00" points="222.159091 381.818182 258.522727 381.818182 258.522727 396.590909 222.159091 396.590909"></polygon>
            <polygon id="Path" fill="#FFED00" points="142.045455 381.818182 178.409091 381.818182 178.409091 396.590909 142.045455 396.590909"></polygon>
            <polygon id="Path" fill="#0062AC" points="342.045455 123.863636 378.409091 123.863636 378.409091 138.636364 342.045455 138.636364"></polygon>
            <polygon id="Path" fill="#0062AC" points="382.386364 123.863636 418.75 123.863636 418.75 138.636364 382.386364 138.636364"></polygon>
            <polygon id="Path" fill="#0062AC" points="461.931818 123.863636 498.295455 123.863636 498.295455 138.636364 461.931818 138.636364"></polygon>
            <polygon id="Path" fill="#0062AC" points="22.1590909 123.863636 58.5227273 123.863636 58.5227273 138.636364 22.1590909 138.636364"></polygon>
            <polygon id="Path" fill="#009846" points="461.931818 261.931818 498.295455 261.931818 498.295455 276.704545 461.931818 276.704545"></polygon>
            <polygon id="Path" fill="#009846" points="382.386364 261.931818 418.75 261.931818 418.75 276.704545 382.386364 276.704545"></polygon>
            <polygon id="Path" fill="#009846" points="342.045455 261.931818 378.409091 261.931818 378.409091 276.704545 342.045455 276.704545"></polygon>
            <polygon id="Path" fill="#009846" points="22.1590909 261.931818 58.5227273 261.931818 58.5227273 276.704545 22.1590909 276.704545"></polygon>
            <polygon id="Path" fill="#EF7F1A" points="502.272727 178.409091 502.272727 142.045455 517.045455 142.045455 517.045455 178.409091"></polygon>
            <polygon id="Path" fill="#EF7F1A" points="502.272727 258.522727 502.272727 222.159091 517.045455 222.159091 517.045455 258.522727"></polygon>
            <polygon id="Path" fill="#EF7F1A" points="123.863636 378.409091 123.863636 342.045455 138.636364 342.045455 138.636364 378.409091"></polygon>
            <polygon id="Path" fill="#EF7F1A" points="123.863636 58.5227273 123.863636 22.1590909 138.636364 22.1590909 138.636364 58.5227273"></polygon>
            <polygon id="Path" fill="#FFED00" points="3.40909091 178.409091 3.40909091 142.045455 18.1818182 142.045455 18.1818182 178.409091"></polygon>
            <polygon id="Path" fill="#FFED00" points="3.40909091 258.522727 3.40909091 222.159091 18.1818182 222.159091 18.1818182 258.522727"></polygon>
            <polygon id="Path" fill="#E31E24" points="261.931818 58.5227273 261.931818 22.1590909 276.704545 22.1590909 276.704545 58.5227273"></polygon>
            <polygon id="Path" fill="#E31E24" points="261.931818 378.409091 261.931818 342.045455 276.704545 342.045455 276.704545 378.409091"></polygon>
            <path d="M150,171.022727 L158.367769,148.863636 L161.570248,148.863636 L170.454545,171.022727 L167.200413,171.022727 L164.669421,164.317376 L155.423554,164.317376 L153.047521,171.022727 L150,171.022727 L150,171.022727 Z M156.301653,161.90764 L163.739669,161.90764 L161.466942,155.77853 C160.795455,153.89265 160.278926,152.373469 159.917355,151.116215 C159.607438,152.583011 159.194215,153.997421 158.677686,155.411831 L156.301653,161.90764 Z" id="Shape" fill="#000000"></path>
            <path d="M231.818182,148.863636 L246.022727,148.863636 L246.022727,151.430529 L234.710744,151.430529 L234.710744,158.293037 L239.927686,158.293037 C241.838843,158.293037 243.38843,158.450193 244.524793,158.869278 C245.661157,159.235977 246.590909,159.916989 247.262397,160.9647 C247.933884,162.012411 248.295455,163.217279 248.295455,164.579304 C248.295455,165.6794 248.03719,166.727112 247.572314,167.722437 C247.055785,168.665377 246.332645,169.451161 245.35124,170.079787 C244.369835,170.708414 242.716942,171.022727 240.392562,171.022727 L231.818182,171.022727 L231.818182,148.863636 L231.818182,148.863636 Z M234.710744,168.508221 L240.495868,168.508221 C242.045455,168.508221 243.233471,168.193907 244.008264,167.56528 C244.783058,166.884268 245.196281,165.941328 245.196281,164.631689 C245.196281,163.741135 244.938017,162.955351 244.524793,162.326725 C244.059917,161.750484 243.440083,161.331399 242.665289,161.121857 C241.838843,160.912315 240.495868,160.807544 238.584711,160.807544 L234.710744,160.807544 L234.710744,168.508221 L234.710744,168.508221 Z" id="Shape" fill="#000000"></path>
            <path d="M231.818182,251.136364 L231.818182,228.977273 L240.005327,228.977273 C241.704545,228.977273 243.043324,229.186815 244.021662,229.658285 C245.051491,230.077369 245.823864,230.758382 246.39027,231.701322 C246.956676,232.644262 247.265625,233.639587 247.265625,234.634913 C247.265625,235.577853 247.008168,236.468407 246.493253,237.306576 C245.978338,238.144745 245.205966,238.825758 244.227628,239.349613 C245.514915,239.716312 246.544744,240.397324 247.265625,241.340264 C247.935014,242.283204 248.295455,243.435687 248.295455,244.69294 C248.295455,245.740651 248.089489,246.735977 247.677557,247.626531 C247.214134,248.517086 246.699219,249.198098 246.081321,249.669568 C245.411932,250.141038 244.63956,250.507737 243.661222,250.769665 C242.734375,251.031593 241.550071,251.136364 240.159801,251.136364 L231.818182,251.136364 L231.818182,251.136364 Z M234.753196,238.301902 L239.43892,238.301902 C240.726207,238.301902 241.653054,238.197131 242.21946,238.039974 C242.940341,237.830432 243.506747,237.411348 243.867187,236.939877 C244.227628,236.416022 244.433594,235.73501 244.433594,235.001612 C244.433594,234.215828 244.227628,233.587202 243.918679,233.010961 C243.558239,232.487105 243.043324,232.068021 242.425426,231.858478 C241.756037,231.648936 240.674716,231.544165 239.07848,231.544165 L234.753196,231.544165 L234.753196,238.301902 L234.753196,238.301902 Z M234.753196,248.517086 L240.159801,248.517086 C241.086648,248.517086 241.756037,248.517086 242.116477,248.412315 C242.785866,248.307544 243.352273,248.098001 243.815696,247.836074 C244.227628,247.52176 244.588068,247.155061 244.897017,246.57882 C245.205966,246.054965 245.308949,245.426338 245.308949,244.69294 C245.308949,243.907157 245.102983,243.173759 244.691051,242.545132 C244.279119,241.916505 243.712713,241.497421 242.940341,241.235493 C242.21946,241.025951 241.189631,240.868794 239.799361,240.868794 L234.753196,240.868794 L234.753196,248.517086 Z" id="Shape" fill="#000000"></path>
            <polygon id="Path" fill="#000000" points="152.840909 228.977273 167.045455 228.977273 167.045455 231.544165 155.744028 231.544165 155.744028 251.136364 152.840909 251.136364"></polygon>
            <polygon id="Path" fill="#000000" points="151.704545 291.477273 151.704545 269.318182 167.660386 269.318182 167.660386 271.93746 154.624568 271.93746 154.624568 278.747582 166.826093 278.747582 166.826093 281.314475 154.624568 281.314475 154.624568 288.91038 168.181818 288.91038 168.181818 291.477273"></polygon>
            <path d="M231.818182,293.75 L231.818182,271.504956 L247.772367,271.504956 L247.772367,274.128193 L234.747475,274.128193 L234.747475,280.948607 L246.935426,280.948607 L246.935426,283.571843 L234.747475,283.571843 L234.747475,291.126764 L248.295455,291.126764 L248.295455,293.75 L231.818182,293.75 L231.818182,293.75 Z M235.532107,270.140873 L235.532107,267.045455 L238.409091,267.045455 L238.409091,270.140873 L235.532107,270.140873 Z M241.181457,270.140873 L241.181457,267.045455 L244.006133,267.045455 L244.006133,270.140873 L241.181457,270.140873 Z" id="Shape" fill="#000000"></path>
            <path d="M241.837506,349.431818 L241.837506,359.152551 C243.307847,359.152551 244.305579,358.891241 244.830701,358.368621 C245.355823,357.846001 246.038481,356.591713 246.878676,354.605757 C247.508822,353.142421 247.981432,352.149443 248.401529,351.522298 C248.821627,350.947416 249.346748,350.424796 250.134431,350.058962 C250.869602,349.640866 251.657284,349.431818 252.549992,349.431818 C253.495211,349.431818 254.125357,349.431818 254.335406,349.431818 L254.335406,351.992657 C254.230381,351.992657 254.072845,351.992657 253.757772,351.992657 C253.442699,351.940395 253.23265,351.940395 253.180138,351.940395 C252.234919,351.940395 251.55226,352.201705 251.07965,352.619801 C250.607041,353.090159 250.081919,354.083137 249.504285,355.546473 C248.821627,357.166595 248.296505,358.264097 247.823895,358.838979 C247.351285,359.413861 246.668627,359.88422 245.723408,360.250054 C247.193749,360.66815 248.611578,361.9747 249.976895,364.221966 L254.545455,371.590909 L250.922114,371.590909 L247.193749,365.580778 C246.196017,364.012918 245.355823,362.863154 244.673164,362.23601 C244.043018,361.556604 243.097799,361.243032 241.837506,361.243032 L241.837506,371.590909 L238.844312,371.590909 L238.844312,361.243032 C237.899093,361.243032 237.006385,361.504342 236.271215,361.9747 C235.536044,362.49732 234.695849,363.594822 233.698118,365.267206 L233.488069,365.580778 L229.759704,371.590909 L226.136364,371.590909 L230.704924,364.221966 C232.07024,361.9747 233.488069,360.66815 234.95841,360.250054 C234.170728,359.936482 233.488069,359.518386 233.01546,358.995765 C232.490338,358.420883 231.912704,357.271119 231.177533,355.546473 C230.547387,353.978613 230.022265,352.985635 229.549656,352.567539 C229.077046,352.149443 228.394387,351.940395 227.50168,351.940395 L226.346412,351.992657 L226.346412,349.431818 C226.451437,349.431818 227.029071,349.431818 228.026802,349.431818 C229.024534,349.431818 229.864729,349.640866 230.547387,350.0067 C231.282558,350.424796 231.860192,350.895154 232.227777,351.522298 C232.647874,352.097181 233.172996,353.142421 233.803142,354.605757 C234.643337,356.643975 235.325996,357.846001 235.851117,358.368621 C236.376239,358.891241 237.373971,359.152551 238.844312,359.152551 L238.844312,349.431818 L241.837506,349.431818 L241.837506,349.431818 Z" id="Path" fill="#000000"></path>
            <path d="M152.272727,365.001038 L154.992669,364.274595 C155.197947,365.364259 155.762463,366.402034 156.686217,367.491698 C157.558651,368.529473 158.739003,369.100249 160.278592,369.100249 C161.766862,369.100249 162.947214,368.685139 163.870968,367.906808 C164.743402,367.128477 165.153959,366.14259 165.153959,365.052927 C165.153959,363.807597 164.692082,362.873599 163.768328,362.147156 C162.844575,361.420714 161.612903,361.057493 160.021994,361.057493 L158.636364,361.057493 L158.636364,358.514944 C159.970674,358.514944 160.945748,358.463055 161.664223,358.307389 C162.382698,358.151723 162.998534,357.736613 163.51173,357.113948 C164.024927,356.491283 164.332845,355.76484 164.332845,354.986509 C164.332845,354.000623 163.973607,353.170403 163.203812,352.495849 C162.485337,351.769406 161.510264,351.406185 160.278592,351.406185 C159.14956,351.406185 158.225806,351.665629 157.456012,352.236405 C156.686217,352.807181 156.173021,353.533624 155.865103,354.467621 C155.557185,355.34973 155.403226,356.076173 155.403226,356.491283 L152.683284,355.868618 C153.35044,351.19863 155.865103,348.863636 160.278592,348.863636 C162.382698,348.863636 164.076246,349.486301 165.307918,350.679743 C166.539589,351.873184 167.155425,353.222291 167.155425,354.830843 C167.155425,356.854504 166.231672,358.463055 164.281525,359.604608 C165.410557,359.91594 166.334311,360.538605 167.104106,361.472603 C167.822581,362.458489 168.181818,363.600042 168.181818,364.89726 C168.181818,366.817144 167.463343,368.373807 166.026393,369.671025 C164.589443,370.916355 162.690616,371.590909 160.278592,371.590909 C156.173021,371.590909 153.504399,369.359693 152.272727,365.001038 L152.272727,365.001038 Z" id="Path" fill="#000000"></path>
            <polygon id="Path" fill="#000000" points="151.704545 109.090909 154.322974 109.090909 154.322974 126.650943 165.926205 109.090909 168.75 109.090909 168.75 131.25 166.131572 131.25 166.131572 113.742228 154.579682 131.25 151.704545 131.25"></polygon>
            <path d="M232.386364,109.143171 L235.278926,109.143171 L235.278926,118.811642 C236.621901,118.811642 237.551653,118.550332 238.068182,118.027712 C238.636364,117.505092 239.307851,116.303066 240.134298,114.31711 C240.754132,112.853774 241.270661,111.808533 241.632231,111.233651 C242.045455,110.606507 242.613636,110.136149 243.336777,109.718053 C244.059917,109.299957 244.834711,109.090909 245.71281,109.090909 C246.849174,109.090909 247.417355,109.090909 247.469008,109.143171 L247.469008,111.651747 C247.365702,111.651747 247.210744,111.651747 246.900826,111.651747 C246.590909,111.651747 246.384298,111.651747 246.332645,111.651747 C245.402893,111.651747 244.731405,111.860795 244.266529,112.331154 C243.801653,112.74925 243.285124,113.742228 242.716942,115.205564 C241.942149,117.086996 241.322314,118.289022 240.857438,118.75938 C240.340909,119.229738 239.721074,119.647834 238.997934,119.909145 C240.444215,120.327241 241.838843,121.633791 243.181818,123.881057 L247.727273,131.25 L244.11157,131.25 L240.444215,125.239869 C239.46281,123.567485 238.584711,122.469983 237.913223,121.842839 C237.241736,121.215695 236.363636,120.902123 235.278926,120.902123 L235.278926,131.25 L232.386364,131.25 L232.386364,109.143171 L232.386364,109.143171 Z" id="Path" fill="#000000"></path>
            <path d="M234.983039,28.9772727 L248.863636,28.9772727 L248.863636,50.7756342 L245.919267,50.7756342 L245.919267,31.5023784 L237.927408,31.5023784 L237.927408,42.7365222 C237.927408,45.0554968 237.822252,46.7045455 237.61194,47.7867336 C237.401628,48.817389 236.928426,49.6419133 236.244912,50.2603066 C235.50882,50.827167 234.667571,51.1363636 233.563433,51.1363636 C232.932497,51.1363636 232.143826,50.9817653 231.25,50.7241015 L231.77578,48.1989958 C232.248982,48.4051268 232.669607,48.5597252 232.985075,48.5597252 C233.668589,48.5597252 234.141791,48.3020613 234.509837,47.7867336 C234.825305,47.3229387 234.983039,46.137685 234.983039,44.3340381 L234.983039,28.9772727 Z" id="Path" fill="#000000"></path>
            <path d="M149.431818,51.1363636 L149.431818,28.9772727 L153.80288,28.9772727 L159.006526,44.69294 C159.52689,46.1597357 159.839109,47.2598324 160.099291,47.9408446 C160.307437,47.1550613 160.723729,45.9501934 161.244093,44.4310123 L166.551811,28.9772727 L170.454545,28.9772727 L170.454545,51.1363636 L167.644577,51.1363636 L167.644577,32.5918762 L161.244093,51.1363636 L158.590234,51.1363636 L152.241787,32.2775629 L152.241787,51.1363636 L149.431818,51.1363636 L149.431818,51.1363636 Z" id="Path" fill="#000000"></path>
            <path d="M109.659091,160.538605 C109.659091,156.906393 110.593434,154.052511 112.565937,151.976961 C114.53844,149.901411 117.08193,148.863636 120.144501,148.863636 C122.168911,148.863636 124.037598,149.382524 125.646745,150.316521 C127.255892,151.302408 128.501684,152.651515 129.384119,154.363844 C130.214646,156.128061 130.681818,158.099834 130.681818,160.279161 C130.681818,162.510378 130.214646,164.48215 129.332211,166.246368 C128.397868,168.010585 127.152076,169.307804 125.491021,170.241802 C123.829966,171.12391 122.065095,171.590909 120.144501,171.590909 C118.068182,171.590909 116.251403,171.072022 114.590348,170.086135 C112.981201,169.100249 111.73541,167.751142 110.904882,165.986924 C110.074355,164.274595 109.659091,162.458489 109.659091,160.538605 L109.659091,160.538605 Z M112.617845,160.590494 C112.617845,163.23682 113.344557,165.31237 114.79798,166.817144 C116.199495,168.321918 117.964366,169.100249 120.144501,169.100249 C122.324635,169.100249 124.141414,168.321918 125.542929,166.817144 C126.944444,165.260482 127.671156,163.081154 127.671156,160.279161 C127.671156,158.463055 127.359708,156.906393 126.736813,155.609174 C126.165825,154.260066 125.231481,153.222291 124.089506,152.495849 C122.947531,151.769406 121.649832,151.406185 120.196409,151.406185 C118.12009,151.406185 116.355219,152.080739 114.849888,153.533624 C113.396465,154.93462 112.617845,157.269614 112.617845,160.590494 Z" id="Shape" fill="#000000"></path>
            <polygon id="Path" fill="#000000" points="111.931818 228.977273 128.977273 228.977273 128.977273 251.136364 126.102136 251.136364 126.102136 231.544165 114.806955 231.544165 114.806955 251.136364 111.931818 251.136364"></polygon>
            <path d="M31.8181818,251.136364 L31.8181818,228.977273 L40.2617506,228.977273 C41.7393752,228.977273 42.8475936,229.029658 43.6391782,229.186815 C44.7473966,229.343972 45.6972981,229.710671 46.4361103,230.234526 C47.1749226,230.705996 47.755418,231.439394 48.2303687,232.329948 C48.6525471,233.272888 48.8636364,234.268214 48.8636364,235.368311 C48.8636364,237.254191 48.283141,238.825758 47.069378,240.135397 C45.855615,241.445035 43.6919505,242.073662 40.5256122,242.073662 L34.7734309,242.073662 L34.7734309,251.136364 L31.8181818,251.136364 L31.8181818,251.136364 Z M34.7734309,239.50677 L40.5783845,239.50677 C42.4781874,239.50677 43.8502674,239.140071 44.641852,238.459059 C45.4334365,237.725661 45.855615,236.730335 45.855615,235.473082 C45.855615,234.530142 45.5917534,233.744358 45.1168027,233.063346 C44.641852,232.43472 44.0085843,231.96325 43.269772,231.753707 C42.742049,231.648936 41.8449198,231.544165 40.5256122,231.544165 L34.7734309,231.544165 L34.7734309,239.50677 Z" id="Shape" fill="#000000"></path>
            <path d="M47.0557851,163.496264 L50,164.274595 C49.3801653,166.661478 48.2954545,168.477584 46.6942149,169.722914 C45.1446281,170.968244 43.2334711,171.590909 40.9607438,171.590909 C38.5847107,171.590909 36.6735537,171.12391 35.1756198,170.138024 C33.7293388,169.204027 32.5929752,167.80303 31.8181818,165.935035 C31.0433884,164.118929 30.6818182,162.147156 30.6818182,160.071606 C30.6818182,157.788501 31.0950413,155.816729 31.9731405,154.1044 C32.8512397,152.392071 34.0909091,151.094853 35.6921488,150.212744 C37.2933884,149.330635 39.0495868,148.863636 40.9607438,148.863636 C43.1818182,148.863636 44.9896694,149.434413 46.4876033,150.575965 C47.9855372,151.665629 49.018595,153.27418 49.6384298,155.297841 L46.7975207,155.972395 C46.2809917,154.363844 45.5061983,153.170403 44.5764463,152.44396 C43.5950413,151.717518 42.4070248,151.354296 40.9607438,151.354296 C39.2561983,151.354296 37.8615702,151.769406 36.7252066,152.599626 C35.588843,153.377958 34.8140496,154.467621 34.3491736,155.816729 C33.8842975,157.217725 33.677686,158.618721 33.677686,160.071606 C33.677686,161.939601 33.9359504,163.548153 34.5041322,164.949149 C35.0206612,166.350145 35.8471074,167.38792 36.9834711,168.062474 C38.1198347,168.737028 39.3595041,169.100249 40.7024793,169.100249 C42.303719,169.100249 43.6983471,168.63325 44.7830579,167.699253 C45.9194215,166.765255 46.6942149,165.364259 47.0557851,163.496264 L47.0557851,163.496264 Z" id="Path" fill="#000000"></path>
            <path d="M270.454545,148.863636 L273.422568,148.863636 L280.608307,162.293388 L286.908846,148.863636 L289.772727,148.863636 L281.493506,165.857438 C280.504166,167.975207 279.618966,169.369835 278.994119,170.041322 C278.317202,170.661157 277.379931,171.022727 276.130238,171.022727 C275.40125,171.022727 274.463979,170.816116 273.370497,170.506198 L273.370497,168.02686 C274.151556,168.491736 274.984685,168.698347 275.869885,168.698347 C276.546802,168.698347 277.171649,168.440083 277.692355,168.02686 C278.213061,167.561983 278.785837,166.528926 279.410684,164.927686 L270.454545,148.863636 Z" id="Path" fill="#000000"></path>
            <path d="M279.038048,231.779593 L279.038048,228.977273 L281.757406,228.977273 L281.757406,231.779593 C284.581355,231.935278 286.830054,232.765595 288.45121,234.32244 C290.072365,235.82739 290.909091,237.747498 290.909091,240.030871 C290.909091,242.262348 290.072365,244.182457 288.503505,245.739302 C286.934645,247.296146 284.685945,248.126464 281.757406,248.282148 L281.757406,251.136364 L279.038048,251.136364 L279.038048,248.282148 C276.370986,248.178359 274.226877,247.399936 272.448835,245.946881 C270.723089,244.441931 269.886364,242.469928 269.886364,240.030871 C269.886364,237.591814 270.723089,235.619811 272.448835,234.166755 C274.226877,232.661805 276.370986,231.883383 279.038048,231.779593 Z M281.757406,234.270545 L281.757406,245.843091 C283.640038,245.739302 285.156603,245.168459 286.20251,244.182457 C287.300712,243.196455 287.875961,241.795295 287.875961,240.030871 C287.875961,238.318341 287.300712,236.969076 286.254806,235.931179 C285.208899,234.945178 283.692334,234.374335 281.757406,234.270545 Z M279.038048,234.270545 C277.207711,234.374335 275.691147,234.893283 274.592944,235.879285 C273.442447,236.865286 272.867198,238.266447 272.867198,240.030871 C272.867198,241.795295 273.442447,243.14456 274.540649,244.182457 C275.691147,245.168459 277.155416,245.687407 279.038048,245.791197 L279.038048,234.270545 Z" id="Shape" fill="#000000"></path>
            <path d="M350,251.136364 L358.593018,239.611541 L351.00164,228.977273 L354.533739,228.977273 L358.593018,234.634913 C359.436504,235.839781 360.016401,236.730335 360.385426,237.358962 C360.859888,236.573179 361.492502,235.73501 362.177835,234.844455 L366.606139,228.977273 L369.874649,228.977273 L362.072399,239.50677 L370.454545,251.136364 L366.81701,251.136364 L361.176195,243.226144 C360.859888,242.80706 360.54358,242.33559 360.279991,241.916505 C359.752812,242.649903 359.436504,243.173759 359.172915,243.435687 L353.532099,251.136364 L350,251.136364 L350,251.136364 Z" id="Path" fill="#000000"></path>
            <polygon id="Path" fill="#000000" points="350.568182 146.022727 353.536204 146.022727 353.536204 165.609771 364.99173 165.609771 364.99173 146.022727 367.907682 146.022727 367.907682 165.609771 369.886364 165.609771 369.886364 174.431818 367.282835 174.431818 367.282835 168.235381 350.568182 168.235381"></polygon>
            <path d="M400.194697,157.482358 L400.194697,160.024907 L408.343939,160.024907 C408.240127,162.515567 407.565349,164.43545 406.319605,165.836447 C405.021955,167.289332 403.412869,167.963885 401.440441,167.963885 C397.962739,167.963885 395.730781,166.147779 394.848379,162.411789 L392.045455,163.138232 C393.343105,168.015774 396.405559,170.454545 401.232817,170.454545 C404.710519,170.454545 407.305819,169.312993 408.966811,167.081777 C410.679709,164.85056 411.458299,162.100457 411.354487,158.831465 C411.354487,156.859693 410.991145,155.043587 410.212555,153.383147 C409.485871,151.722707 408.292033,150.373599 406.734853,149.335824 C405.177673,148.24616 403.309057,147.727273 401.180911,147.727273 C398.897047,147.727273 396.976525,148.298049 395.471251,149.439601 C393.914071,150.529265 392.875951,152.085928 392.356891,154.109589 L395.211721,154.836032 C396.042217,151.826484 398.014645,150.269822 401.232817,150.269822 C403.360963,150.269822 405.021955,150.944375 406.267699,152.241594 C407.461537,153.486924 408.136315,155.251142 408.240127,157.482358 L400.194697,157.482358 L400.194697,157.482358 Z" id="Path" fill="#000000"></path>
            <polygon id="Path" fill="#000000" points="468.75 148.863636 471.655446 148.863636 471.655446 168.403449 478.919063 168.403449 478.919063 148.863636 481.824509 148.863636 481.824509 168.403449 489.088125 168.403449 489.088125 148.863636 492.045455 148.863636 492.045455 171.022727 468.75 171.022727"></polygon>
            <path d="M489.772727,251.136364 L489.772727,228.977273 L480.061706,228.977273 C478.088343,228.977273 476.582356,229.186815 475.595674,229.553514 C474.557063,229.972598 473.778104,230.653611 473.154936,231.648936 C472.531769,232.696647 472.220186,233.796744 472.220186,235.001612 C472.220186,236.573179 472.739492,237.935203 473.726173,238.982914 C474.764785,240.083011 476.322703,240.764023 478.399927,241.025951 C477.620968,241.39265 477.049731,241.811734 476.686217,242.126048 C475.803397,242.911831 475.024438,243.907157 474.245479,245.112025 L470.454545,251.136364 L474.089687,251.136364 L476.997801,246.526435 C477.82869,245.16441 478.555718,244.169084 479.075024,243.488072 C479.646261,242.754674 480.113636,242.283204 480.581012,241.968891 C480.996457,241.706963 481.463832,241.497421 481.879277,241.39265 C482.242791,241.340264 482.762097,241.287879 483.489125,241.287879 L486.864614,241.287879 L486.864614,251.136364 L489.772727,251.136364 L489.772727,251.136364 Z M486.864614,238.773372 L480.632942,238.773372 C479.282747,238.773372 478.244135,238.616215 477.517107,238.354288 C476.790078,238.039974 476.218842,237.62089 475.803397,236.992263 C475.439883,236.416022 475.23216,235.73501 475.23216,235.001612 C475.23216,233.953901 475.595674,233.115732 476.374633,232.43472 C477.101662,231.753707 478.296065,231.387008 479.905914,231.387008 L486.864614,231.387008 L486.864614,238.773372 L486.864614,238.773372 Z" id="Shape" fill="#000000"></path>
            <path d="M386.931818,229.341325 L389.927089,229.341325 L389.927089,239.222748 L394.183526,239.222748 C394.39372,236.102299 395.444693,233.605939 397.283894,231.73367 C399.123095,229.913408 401.435234,228.977273 404.167761,228.977273 C407.057935,228.977273 409.475171,229.965415 411.366921,231.993707 C413.258671,234.021999 414.204545,236.778396 414.204545,240.21089 C414.204545,243.799407 413.258671,246.659819 411.366921,248.688111 C409.475171,250.716403 407.057935,251.704545 404.115213,251.704545 C401.435234,251.704545 399.175644,250.820418 397.388991,249.052164 C395.602338,247.335916 394.551366,244.891564 394.236075,241.771115 L389.927089,241.771115 L389.927089,251.340493 L386.931818,251.340493 L386.931818,229.341325 L386.931818,229.341325 Z M397.126248,240.41892 C397.126248,243.227325 397.756831,245.359632 399.070547,246.919856 C400.331713,248.480081 402.013269,249.208186 404.115213,249.208186 C406.269706,249.208186 408.00381,248.480081 409.264976,246.919856 C410.526143,245.359632 411.209275,243.175317 411.209275,240.262898 C411.209275,237.506501 410.578692,235.374194 409.317525,233.761962 C408.056358,232.201737 406.322254,231.421625 404.167761,231.421625 C402.013269,231.421625 400.279164,232.201737 399.017998,233.813969 C397.756831,235.426201 397.126248,237.610516 397.126248,240.41892 Z" id="Shape" fill="#000000"></path>
        </g>
    </g>
</svg>