<?xml version="1.0" encoding="UTF-8"?>
<svg width="100px" height="100px" viewBox="0 0 100 100" version="1.1" xmlns="http://www.w3.org/2000/svg" xmlns:xlink="http://www.w3.org/1999/xlink">
    <title>blind_23</title>
    <g id="Blind" stroke="none" stroke-width="1" fill="none" fill-rule="evenodd">
        <g id="blind_23" fill-rule="nonzero">
            <path d="M99.7037037,16.6343284 C99.8074074,14.9477612 98.4222222,14.1940299 97.5555556,13.9029851 C79.8259259,8.71641791 68.1666667,4.97014925 51.2925926,0.0410447761 C51.0703704,-0.0149253731 50.7925926,-0.0149253731 50.5111111,0.0410447761 C32.5777778,4.6380597 20.6222222,7.89552239 2.9962963,13.8768657 C1.06296296,14.5597015 0.274074074,14.988806 0.374074074,16.5783582 C1.72222222,37.9141791 2.94074074,53.4738806 4.33703704,73.9402985 C4.33703704,74.3880597 4.61851852,74.8395522 5.00740741,75.0634328 C21.6407407,83.761194 32.3444444,90.2798507 48.3925926,99.4141791 C49.4740741,99.8171642 50.4777778,100.216418 51.7407407,99.8097015 C68.337037,90.2238806 79.8296296,84.238806 95.9074074,75.6268657 C96.3518519,75.4589552 96.6296296,75.0074627 96.6888889,74.5 C97.7407407,52.4029851 98.8148148,38.5261194 99.7037037,16.6343284 Z" id="Path" fill="#000000"></path>
            <polygon id="Path" fill="#9E9E9E" points="33.3148148 26.8134328 50.6814815 20.9067164 66.2592593 26.641791 49.7296296 32.6044776"></polygon>
            <polygon id="Path" fill="#696969" points="52.6888889 20.119403 67.8222222 14.7761194 83.4 19.7835821 68.5481481 25.9701493"></polygon>
            <polygon id="Path" fill="#696969" points="70 13.988806 81.1111111 10.5037313 96.8555556 14.7761194 85.4074074 19.1641791"></polygon>
            <polygon id="Path" fill="#696969" points="52.3 8.70522388 63.5777778 4.99253731 79.0444444 9.66044776 66.5925926 13.369403"></polygon>
            <polygon id="Path" fill="#FFFFFF" points="34.9925926 14.0447761 49.9 9.20895522 65.3074074 13.9328358 50.0666667 19.2761194"></polygon>
            <polygon id="Path" fill="#696969" points="16.5111111 20.0634328 33.2037037 14.6641791 48.2777778 20.0634328 31.2518519 25.6865672"></polygon>
            <polygon id="Path" fill="#696969" points="3.44444444 14.7201493 19.3592593 9.99626866 30.8037037 14.1007463 14.7777778 19.3320896"></polygon>
            <polygon id="Path" fill="#696969" points="21.537037 9.26492537 37 4.82089552 48.2777778 8.76119403 33.5407407 13.4253731"></polygon>
            <polygon id="Path" fill="#9E9E9E" points="38.4518519 4.31716418 50.9037037 0.884328358 62.462963 4.26119403 50.1222222 8.19776119"></polygon>
            <polygon id="Path" fill="#9E9E9E" points="32.2 28.1604478 48.7259259 34.2910448 48.7259259 55.4925373 32.8703704 48.6343284"></polygon>
            <polygon id="Path" fill="#696969" points="15.6740741 21.8059701 30.3555556 27.4291045 31.0259259 47.9589552 16.3444444 41.488806"></polygon>
            <polygon id="Path" fill="#696969" points="1.71481481 16.0149254 13.7740741 21.0186567 14.4444444 40.4776119 3.16666667 35.1343284"></polygon>
            <polygon id="Path" fill="#696969" points="32.7592593 50.6007463 48.7814815 57.5746269 48.7814815 77.9328358 33.3703704 70.3395522"></polygon>
            <polygon id="Path" fill="#009846" points="16.6777778 43.6268657 30.9148148 49.869403 31.4740741 69.1604478 17.4592593 62.4104478"></polygon>
            <polygon id="Path" fill="#696969" points="3 37.2164179 14.7777778 42.7835821 15.5037037 61.3992537 4.67407407 55.6604478"></polygon>
            <polygon id="Path" fill="#696969" points="33.3148148 72.4776119 48.9481481 80.0708955 49.0037037 97.7276119 33.2592593 88.7313433"></polygon>
            <polygon id="Path" fill="#696969" points="17.737037 64.7164179 31.4185185 71.3507463 31.4185185 87.5485075 18.2407407 80.3507463"></polygon>
            <polygon id="Path" fill="#696969" points="4.61851852 57.8544776 15.8407407 63.8171642 16.2851852 79.1679104 5.62222222 73.3768657"></polygon>
            <polygon id="Path" fill="#9E9E9E" points="50.5703704 34.5746269 67.0962963 28.5 66.7592593 49.1940299 50.6814815 55.6604478"></polygon>
            <polygon id="Path" fill="#696969" points="69.0481481 27.9365672 84.237037 21.75 83.4555556 41.8283582 68.7703704 48.238806"></polygon>
            <polygon id="Path" fill="#696969" points="86.0777778 21.130597 98.2518519 16.2947761 97.3555556 35.5298507 85.4074074 40.8731343"></polygon>
            <polygon id="Path" fill="#696969" points="50.737037 57.7985075 66.7592593 51.2761194 66.1444444 70.3395522 50.7925926 78.1567164"></polygon>
            <polygon id="Path" fill="#E31E24" points="68.8259259 50.4328358 83.2888889 43.9664179 82.2259259 62.5223881 68.2111111 69.608209"></polygon>
            <polygon id="Path" fill="#696969" points="85.4074074 43.0074627 97.3 37.6641791 96.2407407 55.3246269 84.3481481 61.8470149"></polygon>
            <polygon id="Path" fill="#696969" points="50.9037037 80.1828358 66.3148148 72.3656716 65.5888889 90.1902985 50.9592593 98.3470149"></polygon>
            <polygon id="Path" fill="#696969" points="68.3222222 71.7462687 82.4481481 64.6044776 81.7222222 81.4179104 67.5407407 89.2350746"></polygon>
            <polygon id="Path" fill="#696969" points="84.4592593 63.9291045 96.1851852 57.5746269 95.1777778 74.1641791 83.6777778 80.2947761"></polygon>
            <path d="M16.6259259,12.3843284 L16.6148148,12.4179104 L14.5111111,12.4141791 L16.1111111,13.7910448 L16.1111111,13.7947761 C16.1148148,13.7985075 16.1185185,13.7985075 16.1222222,13.7985075 L22.4333333,19.2201493 C22.1444444,18.1641791 22.1518519,17.0858209 22.4,16.0746269 C31.8518519,19.4328358 38.9666667,21.6268657 44.1962963,23.6231343 C50.5296296,26.0410448 54.062963,28.1455224 56.0592593,31.6753731 C58.0518519,35.2052239 58.5703704,40.3843284 58.4555556,49.0186567 C58.3592593,56.4328358 57.8222222,66.5895522 57.4703704,80.1455224 C56.4518519,80.011194 55.4666667,79.6268657 54.6148148,78.9701493 L57.3037037,86.7835821 C57.3037037,86.8171642 57.3037037,86.8432836 57.3037037,86.8768657 L57.337037,86.8768657 L58.0259259,88.880597 L58.7888889,86.9067164 L58.7925926,86.9067164 C58.7925926,86.9029851 58.7925926,86.8992537 58.7925926,86.891791 L61.7962963,79.1044776 C60.9333333,79.7089552 59.9555556,80.0559701 58.9592593,80.1679104 C59.3111111,66.6455224 59.8481481,56.5074627 59.9481481,49.0373134 C60.062963,40.3395522 59.5962963,34.9029851 57.3518519,30.9328358 C55.1111111,26.9589552 51.1555556,24.6753731 44.7222222,22.2201493 C39.4185185,20.1977612 32.3296296,18.0074627 22.9222222,14.6679104 C23.3851852,13.7835821 24.0555556,13.0037313 24.9222222,12.4291045 L16.7148148,12.4179104 C16.6851852,12.4067164 16.6555556,12.3955224 16.6259259,12.3843284 Z" id="Path" fill="#FFFFFF"></path>
            <path d="M7.90740741,67.261194 L9.26666667,68.8768657 L9.26666667,68.880597 C9.26666667,68.8843284 9.27037037,68.8843284 9.27407407,68.8843284 L14.637037,75.2649254 C14.5222222,74.2089552 14.6851852,73.1753731 15.062963,72.2425373 C34.237037,83.4216418 42.3518519,89.1343284 50.5111111,89.2574627 C54.9851852,89.3283582 59.3666667,87.6902985 65.4518519,84.4925373 C70.4148148,81.880597 76.6666667,78.1604478 84.9851852,73.4440299 C85.3481481,74.380597 85.4962963,75.4067164 85.3592593,76.4477612 L90.7444444,70.2052239 C90.7740741,70.1865672 90.7962963,70.1753731 90.8222222,70.1604478 L90.8074074,70.130597 L92.1851852,68.5298507 L90.1074074,68.8470149 L90.1037037,68.8432836 C90.1,68.8470149 90.0962963,68.8470149 90.0888889,68.8507463 L81.8925926,70.1044776 C82.8703704,70.5746269 83.6740741,71.2835821 84.2703704,72.1268657 C75.9296296,76.8544776 69.6666667,80.5820896 64.762963,83.1604478 C58.7555556,86.3171642 54.6333333,87.8208955 50.5333333,87.7574627 C43.0592593,87.641791 35.0074074,82.1007463 15.7962963,70.9253731 C16.4,70.0932836 17.2037037,69.4067164 18.1777778,68.9664179 L10.0777778,67.619403 C10.0518519,67.6044776 10.0296296,67.5932836 10,67.5746269 L9.98148148,67.6044776 L7.90740741,67.261194 Z" id="Path" fill="#FFFFFF"></path>
            <path d="M74.0407407,13.369403 C74.8851852,13.9962687 75.5333333,14.8097015 75.962963,15.7164179 C65.4518519,20.1492537 46.5111111,24.3768657 41.6111111,31.238806 C36.7111111,38.1007463 39.4666667,64.108209 39.6185185,78.4365672 C38.6333333,78.3059701 37.6740741,77.9440299 36.837037,77.3208955 C38.0296296,80.5634328 39.2703704,84.011194 40.4296296,87.1641791 C41.6407407,83.8470149 42.9185185,80.3470149 44.0222222,77.3208955 C43.1407407,77.9589552 42.1333333,78.3208955 41.1074074,78.4402985 C40.4259259,60.6231343 39.1259259,36.9776119 42.9111111,31.9701493 C46.6962963,26.9589552 66.2185185,20.9664179 76.4296296,17.141791 C76.637037,18.1567164 76.6037037,19.2276119 76.262963,20.2537313 C79.0259259,18.1044776 81.7333333,15.9141791 84.4407407,13.7686567 C80.9777778,13.630597 77.5111111,13.5037313 74.0407407,13.3731343 L74.0407407,13.369403 Z" id="Path" fill="#FFFFFF"></path>
        </g>
    </g>
</svg>