<?xml version="1.0" encoding="UTF-8"?>
<svg width="100px" height="100px" viewBox="0 0 100 100" version="1.1" xmlns="http://www.w3.org/2000/svg" xmlns:xlink="http://www.w3.org/1999/xlink">
    <title>pyraminx_4x4_2_2</title>
    <g id="pyraminx_4x4_2_2" stroke="none" stroke-width="1" fill="none" fill-rule="evenodd">
        <g id="pyraminx-copy" transform="translate(4.000000, 0.000000)">
            <path d="M43.6323507,3.07580955 C44.6171619,1.78131898 46.4016801,1.58280715 47.4389805,2.87729771 L87.3058486,61.9490276 C87.9506273,63.2142982 88.4756228,64.472261 87.3058486,65.6268273 L48.9047636,97.0113393 C47.2812396,98.3006319 45.6596897,98.3581614 44.0403904,97.0113393 L4.87457542,65.6268273 C3.34733705,64.4008941 4.1342451,63.1749608 4.87457542,61.9490276 L43.6323507,3.07580955 Z" id="background" fill="#000000"></path>
            <g id="right" transform="translate(47.000000, 4.000000)">
                <path d="M0.620253644,0.579023467 L1.06577989,13.5540399 C1.20889233,14.4519709 1.54177446,15.071155 2.38011088,14.9478933 L7.98905524,12.4519017 C8.625844,12.1066335 8.70263227,11.541136 8.54537993,10.8835983 L1.73030874,0.579023467 C0.946126865,-0.293358741 0.674691385,-0.0857065608 0.620253644,0.579023467 Z" id="Path" fill="#FFED00"></path>
                <path d="M3.24243406,18.2709539 L9.18203312,15.7327668 C10.1040188,15.460897 10.5242455,15.9894845 10.6412143,17.0018604 L11.0320191,30.0339201 C11.0206066,31.3006662 10.6759406,31.561252 9.91889433,30.5770071 L2.96791485,20.5172831 C2.32328742,19.5679494 2.19366948,18.7589284 3.24243406,18.2709539 Z" id="Path-2" fill="#FFED00"></path>
                <path d="M12.349407,18.9516469 L12.695736,30.8003208 C12.913279,31.5653447 12.7942948,32.66129 13.9002787,32.5526729 L19.3228909,29.5455163 C20.20171,28.816684 19.9264249,28.2521903 19.8027699,27.6661053 L13.6282242,18.4030336 C12.8239536,17.5175547 12.4546961,17.861569 12.349407,18.9516469 Z" id="Path-3" fill="#696969"></path>
                <path d="M1.07328701,24.0376342 L1.370814,37.4471695 C1.46657827,38.4279596 1.77725844,39.0580537 2.61838426,38.8225757 L9.07960383,35.1146049 C9.67189351,34.4450258 9.44657941,33.6765699 9.07960383,32.8909822 L2.61838426,23.720633 C1.9430459,23.1249578 1.21479893,22.2978061 1.07328701,24.0376342 Z" id="Path-4" fill="#696969"></path>
                <path d="M23.9604088,35.8317839 L24.292661,47.709903 C24.418198,48.8611517 24.8399497,49.303378 25.5196814,49.1281013 L30.7424326,45.5649589 C31.3686391,44.9613085 31.0167233,44.3389961 30.7424326,43.7181647 L25.1928247,35.3501473 C24.7703609,35.3826254 24.1865177,33.6423775 23.9604088,35.8317839 Z" id="Path-5" fill="#696969"></path>
                <path d="M14.6832725,36.1191367 L20.7767928,32.8096343 C21.5079437,32.4816289 22.0817467,32.5439655 22.2002139,33.7358789 L22.6651472,47.0622229 C22.7132802,48.6296002 22.3085081,48.7760794 21.558324,47.8388983 L14.6832725,38.1196418 C14.2342539,37.4463064 13.9226027,36.7749596 14.6832725,36.1191367 Z" id="Path-6" fill="#696969"></path>
                <path d="M13.1280182,41.4925457 L13.3503344,54.6277378 C13.413101,55.8593034 13.6360363,56.8271791 14.7580122,56.3149412 L20.6748628,52.1902453 C21.6885714,51.3852372 21.1381655,50.6892146 20.8586832,50.0679477 L14.4113986,40.9398433 C13.8544091,40.5373824 13.2392022,39.8705494 13.1280182,41.4925457 Z" id="Path-7" fill="#696969"></path>
                <path d="M2.58394588,44.5313331 L10.2172949,54.8989245 C11.1926421,56.130391 11.4718754,55.5290542 11.6023439,54.5360333 L11.3064211,40.0041843 C11.2064467,38.0573586 10.623931,38.2207677 9.9943868,38.5898397 L2.81604756,42.5850761 C1.88004452,43.2654511 2.23600243,43.8982446 2.58394588,44.5313331 Z" id="Path-8" fill="#696969"></path>
                <path d="M0,49.1651576 L0.218933253,62.7879374 C0.465997613,64.5291733 1.13928555,64.418187 1.83596221,64.2055613 L8.81573459,59.5578421 C9.68974987,58.8777383 9.41072311,58.1981874 9.04001003,57.5186805 L1.55916016,48.0703798 C0.550215466,47.0358913 0.0972911663,47.5918847 0,49.1651576 Z" id="Path-9" fill="#696969"></path>
                <path d="M34.7148615,51.9029975 L34.3205656,63.2241 C34.2600766,64.4803072 34.6676715,64.840021 35.3417578,64.6893396 L40.3838137,60.4134313 C41.1001739,59.2202362 40.6111983,58.7225586 40.3838137,58.1715261 L36.0322276,51.1456242 C35.2280383,50.2967336 34.8622747,50.7705016 34.7148615,51.9029975 Z" id="Path-10" fill="#696969"></path>
                <path d="M26.4449923,52.1475191 C25.9470919,52.6631033 25.6872351,53.2916427 26.2648067,54.3175541 L32.0993543,62.6562771 C32.7992935,63.554896 33.2272814,63.4930488 33.3238801,62.2608146 L32.9084687,49.7148036 C32.7783517,48.6639787 32.4681001,48.046788 31.745623,48.4219388 L26.4449923,52.1475191 Z" id="Path-11" fill="#696969"></path>
                <path d="M24.5689773,58.0312768 L24.8435928,70.436362 C24.949745,71.3650739 25.2735663,71.877805 25.9353101,71.7447428 L31.4490082,67.3647395 C31.9632197,66.6715528 31.975188,65.9047518 31.4490082,65.0590738 L25.9353101,57.2463726 C24.8099176,56.1780936 24.673568,57.073163 24.5689773,58.0312768 Z" id="Path-12" fill="#696969"></path>
                <path d="M15.1533814,59.3953266 C14.7205901,60.0069081 14.5060183,60.6935988 15.1533814,61.6769597 L22.091993,70.7976059 C22.8796508,71.6754982 23.1919197,71.3030958 23.1982189,70.1259787 L22.9253106,56.2365536 C22.9234288,55.1362201 22.5421478,54.6053882 21.560679,54.9754747 L15.1533814,59.3953266 Z" id="Path-13" fill="#696969"></path>
                <path d="M13.3315467,65.6237813 L13.7593835,78.6309474 C13.9847332,80.5051097 14.5647879,80.8365359 15.3433117,80.3047508 L21.5494417,75.1627938 C22.0524751,74.5102477 22.0800066,73.7817998 21.5494417,72.9642661 L14.744403,64.7215552 C13.8792672,64.0649167 13.4015306,64.3491807 13.3315467,65.6237813 Z" id="Path-14" fill="#696969"></path>
                <path d="M2.68988528,67.9181092 C2.04469136,68.7691084 2.05817245,69.6023793 2.68988528,70.4190105 L10.5946397,79.7306133 C11.4895459,80.4650121 11.7976235,79.9072549 11.9018661,78.9006668 L11.4769632,64.322258 C11.3342709,62.7530669 10.5946397,62.529526 10.0096654,62.9201375 L2.68988528,67.9181092 Z" id="Path-15" fill="#FFED00"></path>
                <path d="M1.59905518,75.1278112 L1.18779725,89.2995057 C1.19112179,90.5889475 1.60025324,91.1941867 2.66515558,90.6937763 L9.31691998,85.4022559 C9.94256822,84.5798536 9.82319426,83.6859734 9.31691998,82.7549737 L3.18814432,73.850871 C2.322221,72.9551464 1.76885358,73.287766 1.59905518,75.1278112 Z" id="Path-16" fill="#FFED00"></path>
            </g>
            <g id="left" transform="translate(4.000000, 4.000000)">
                <path d="M38.3365047,0.725927066 C39.5258881,-0.724552568 40.1043584,0.319957448 40.1043584,1.08660569 L40.3438599,13.3475996 C40.263689,14.3928659 39.9384341,15.174502 38.729779,15.0058881 L32.0170193,12.8172071 C30.98075,12.5341826 31.1554859,11.9683065 31.4068292,11.2143623 L38.3365047,0.725927066 Z" id="Path-17" fill="#BDBDBD"></path>
                <path d="M20.3396478,30.3966959 C19.8553765,30.2173151 19.5436711,29.860819 19.8598775,28.8598582 L26.4095383,18.755091 C26.9544768,18.2253363 27.3461884,18.2117353 27.4533246,19.1567424 L27.4533246,31.2186888 C27.3974052,32.3103944 27.0461004,32.979231 26.1954627,32.9332303 L20.3396478,30.3966959 Z" id="Path-18" fill="#696969"></path>
                <path d="M29.3619192,17.2953126 L29.5302431,30.0410074 C29.4954083,31.6339782 30.0121444,31.7529551 30.9907664,30.6376086 L38.0520929,20.6282592 C38.5458819,19.6670615 38.5958625,18.8815918 37.8956144,18.3931787 L30.9907664,15.9358881 C30.1266273,15.7317861 29.5170672,16.0486232 29.3619192,17.2953126 Z" id="Path-19" fill="#BDBDBD"></path>
                <path d="M38.6574231,23.8457312 L32.0416813,33.2458958 C31.6577453,33.9877567 31.4045277,34.7302348 32.0416813,35.4769168 L38.8977562,38.5957251 C39.7892527,38.9558984 40.4646773,38.8293428 40.6422155,37.5810656 L40.4418084,24.3606619 C40.3505593,22.9678471 39.9402121,22.348891 38.6574231,23.8457312 Z" id="Path-20" fill="#696969"></path>
                <path d="M9.89683699,44.1550846 L15.575335,35.4990014 C16.2720082,34.676174 16.7031374,34.7089178 16.8310309,35.7186732 L16.5486645,47.9414844 C16.3414665,48.6382053 16.412238,49.6883463 15.258574,49.1816971 L10.2317338,46.0069393 C9.28614752,45.5075196 9.59613227,44.8306463 9.89683699,44.1550846 Z" id="Path-21" fill="#696969"></path>
                <path d="M18.2079641,34.1890759 L17.8896139,47.375427 C17.8529486,49.0134542 18.3216215,49.2244573 19.258172,48.1142217 L25.7862163,38.3616862 C26.4286373,37.2758798 26.2352651,36.59579 25.4730534,36.1918302 L19.7319531,33.2080083 C18.9822163,32.9230787 18.3092115,32.8323918 18.2079641,34.1890759 Z" id="Path-22" fill="#696969"></path>
                <path d="M19.8511882,50.1723996 C19.326356,51.1275274 19.1494042,51.9504082 19.8511882,52.4392371 L25.7150367,56.3107752 C26.6821546,56.8631469 27.0511714,56.373931 27.1698069,55.4486788 L27.466634,42.1167515 C27.2478405,39.9408415 26.6992008,40.6420455 26.1733062,41.1448538 L19.8511882,50.1723996 Z" id="Path-23" fill="#696969"></path>
                <path d="M29.1589919,40.0115555 L28.9310458,54.0693974 C28.9115028,55.9057947 29.4801835,55.9805948 30.4075263,54.9812837 L37.803126,44.8728397 C38.465315,43.6184752 38.2665235,42.8473204 37.475871,42.4083368 L30.6495022,38.914374 C29.7737808,38.5622811 29.2934716,38.9593207 29.1589919,40.0115555 Z" id="Path-24" fill="#696969"></path>
                <path d="M31.3171879,57.4183242 C30.664428,58.5706404 30.7069843,59.4042891 31.3171879,59.9777817 L37.7316422,64.0737139 C38.6901558,64.689694 39.3347389,64.4868743 39.4955016,63.0220989 L39.2871108,49.0167992 C39.0947352,46.7921665 38.201976,47.2051995 37.7316422,47.9593457 L31.3171879,57.4183242 Z" id="Path-25" fill="#696969"></path>
                <path d="M5.27390759,50.9426691 C5.84016393,50.3057209 6.41661693,50.2172776 6.41362903,51.1590822 L6.19647299,62.9379879 C6.13523617,64.4668332 5.58455222,64.6586007 4.76877887,64.1261937 L0.466153925,60.6687632 C-0.119396792,60.1651895 -0.0881205851,59.5069855 0.203175708,58.7835979 L5.27390759,50.9426691 Z" id="Path-26" fill="#FFED00"></path>
                <path d="M7.88517639,50.0410773 L7.44999303,62.3721036 C7.44772325,63.6250194 7.78067061,64.0304051 8.61658381,63.1637126 L14.5891708,54.5402407 C14.9800812,53.7882674 15.3496247,53.0390668 14.4413492,52.4556826 L9.2568116,49.0379391 C8.56263321,48.830498 8.06819438,49.0797582 7.88517639,50.0410773 Z" id="Path-27" fill="#FFED00"></path>
                <path d="M9.39269042,65.7498986 L14.8871427,57.8253872 C15.5257917,57.0185043 16.1069579,56.5590311 16.361646,58.0726937 L16.0578895,70.3211145 C16.0023688,71.6597405 15.6879235,72.5089904 14.5655272,71.8311858 L9.39269042,67.838806 C8.85752889,67.4080242 8.95644137,66.6626463 9.39269042,65.7498986 Z" id="Path-28" fill="#696969"></path>
                <path d="M17.7722486,56.5433154 C17.7722486,55.8791287 17.8945295,54.5776728 19.2668521,55.4394185 L25.2114699,59.3118206 C26.0062974,59.866414 26.2867466,60.6567508 25.6556916,61.8648369 L18.9911286,70.8820785 C18.0806777,72.0414966 17.6350379,71.780791 17.5252764,70.4938856 L17.7722486,56.5433154 Z" id="Path-29" fill="#696969"></path>
                <path d="M19.7330166,73.7639013 C19.1438806,74.5364571 19.1438806,75.6018007 19.7330166,76.0815685 L25.6793127,80.8163888 C26.5949645,81.3907715 27.003683,80.8047872 27.2292125,79.7994842 L27.2292125,66.3596683 C27.2292125,65.0152301 26.6481397,64.187536 25.858635,65.1734793 L19.7330166,73.7639013 Z" id="Path-30" fill="#696969"></path>
                <path d="M28.9157193,65.0295021 L28.9157193,79.234269 C29.0651616,81.3881704 29.7539526,81.1343291 30.5602197,80.3560548 L37.4397359,70.9435139 C38.1535557,69.7636474 38.0462798,68.8500968 37.1105215,68.205258 L30.5602197,64.0811598 C29.4154948,63.38337 29.0093544,63.9408707 28.9157193,65.0295021 Z" id="Path-31" fill="#BDBDBD"></path>
                <path d="M31.2940713,82.1636753 C30.7835591,83.0228302 30.3159868,83.8810562 31.2940713,84.7080128 L38.6790224,90.5938212 C39.8356777,91.0771661 40.1126727,90.3671577 40.262168,89.4841824 L40.6421398,74.7843196 C40.7470411,72.8318807 40.1604441,72.6597181 39.2131757,73.4161113 L31.2940713,82.1636753 Z" id="Path-32" fill="#BDBDBD"></path>
            </g>
            <circle id="Oval" fill="#E31E24" cx="45.5" cy="3.5" r="3.5"></circle>
            <circle id="Oval-Copy" fill="#E31E24" cx="3.5" cy="64.5" r="3.5"></circle>
            <circle id="Oval-Copy-2" fill="#E31E24" cx="45.5" cy="96.5" r="3.5"></circle>
        </g>
    </g>
</svg>