<?xml version="1.0" encoding="UTF-8"?>
<svg width="100px" height="100px" viewBox="0 0 100 100" version="1.1" xmlns="http://www.w3.org/2000/svg" xmlns:xlink="http://www.w3.org/1999/xlink">
    <title>pyraminx_4x4_5</title>
    <g id="pyraminx_4x4_5" stroke="none" stroke-width="1" fill="none" fill-rule="evenodd">
        <g id="pyraminx-copy" transform="translate(6.000000, 0.000000)">
            <path d="M41.4302946,1.11928297 C42.4597823,-0.227517907 44.3252562,-0.434051595 45.4096143,0.912749279 L87.0850653,62.3715654 C87.7590948,63.6879655 88.307907,64.9967625 87.0850653,66.1979848 L46.9418935,98.8507436 C45.2447174,100.192137 43.5496049,100.251991 41.8568453,98.8507436 L0.914251024,66.1979848 C-0.682271376,64.9225117 0.140335202,63.6470385 0.914251024,62.3715654 L41.4302946,1.11928297 Z" id="background" fill="#000000"></path>
            <g id="right" transform="translate(44.532670, 2.323188)">
                <path d="M0.650509919,0.604475048 L1.11776915,14.1498219 C1.26786269,15.0872223 1.61698297,15.7336234 2.49621385,15.6049436 L8.37876525,12.999238 C9.04661688,12.6387932 9.12715092,12.0484387 8.96222773,11.3619983 L1.81471405,0.604475048 C0.992279395,-0.306253631 0.70760316,-0.0894738822 0.650509919,0.604475048 Z" id="Path" fill="#696969"></path>
                <path d="M3.40060158,19.0740727 L9.62993717,16.424317 C10.5968977,16.1404969 11.0376234,16.692319 11.1602979,17.7491949 L11.5701663,31.3540924 C11.5581972,32.6765197 11.1967181,32.9485598 10.4027428,31.9210514 L3.11269118,21.4191417 C2.43661851,20.428079 2.30067774,19.5834967 3.40060158,19.0740727 Z" id="Path-2" fill="#696969"></path>
                <path d="M12.9518171,19.7846864 L13.3150402,32.154181 C13.543195,32.9528324 13.4184067,34.0969511 14.5783411,33.9835596 L20.265471,30.8442203 C21.1871593,30.0833514 20.8984456,29.4940449 20.7687587,28.8821979 L14.2930156,19.2119581 C13.4495123,18.2875571 13.0622422,18.6466929 12.9518171,19.7846864 Z" id="Path-3" fill="#009846"></path>
                <path d="M1.12564247,25.0942335 L1.43768297,39.0931989 C1.53811867,40.1171007 1.86395397,40.7748912 2.74611032,40.5290626 L9.52251133,36.658104 C10.1436932,35.9590928 9.90738816,35.1568586 9.52251133,34.3367396 L2.74611032,24.7632982 C2.03782862,24.1414394 1.27405741,23.2779295 1.12564247,25.0942335 Z" id="Path-4" fill="#009846"></path>
                <path d="M25.1292092,37.4068074 L25.4776689,49.8070416 C25.6093296,51.0088946 26.0516546,51.4705595 26.7645439,51.2875782 L32.2420635,47.5678142 C32.8988166,46.9376298 32.5297342,46.2879629 32.2420635,45.6398423 L26.421743,36.9039999 C25.9786712,36.9379056 25.3663478,35.1211633 25.1292092,37.4068074 Z" id="Path-5" fill="#009846"></path>
                <path d="M15.3995297,37.706791 L21.7902948,34.251816 C22.5571117,33.9093928 23.1589051,33.9744695 23.2831512,35.2187746 L23.7707642,49.130892 C23.8212451,50.767165 23.396728,50.9200829 22.6099495,49.941707 L15.3995297,39.7952304 C14.9286077,39.0922979 14.601754,38.3914414 15.3995297,37.706791 Z" id="Path-6" fill="#009846"></path>
                <path d="M13.7684094,43.3163938 L14.0015702,57.0289571 C14.0673986,58.3146573 14.3012088,59.325077 15.4779153,58.7903233 L21.6833926,54.4843221 C22.7465505,53.643929 22.1692955,52.917312 21.87618,52.2687366 L15.1143937,42.7393969 C14.5302339,42.3192454 13.885017,41.623101 13.7684094,43.3163938 Z" id="Path-7" fill="#696969"></path>
                <path d="M2.70999202,46.4887544 L10.7156995,57.312064 C11.7386247,58.597661 12.0314791,57.9698918 12.1683118,56.9332215 L11.8579538,41.76261 C11.7531027,39.7302095 11.1421715,39.9008014 10.4819179,40.2860964 L2.95341573,44.4569475 C1.97175401,45.1672292 2.34507572,45.8278377 2.70999202,46.4887544 Z" id="Path-8" fill="#009846"></path>
                <path d="M0,51.3262634 L0.229612924,65.5478467 C0.488729203,67.3656205 1.19486045,67.2497557 1.92552135,67.0277837 L9.24577043,62.1757692 C10.1624206,61.4657708 9.86978277,60.7563495 9.48098613,60.0469741 L1.63521675,50.1833636 C0.577055245,49.103403 0.102037077,49.6838357 0,51.3262634 Z" id="Path-9" fill="#009846"></path>
                <path d="M36.4082694,54.1844479 L35.9947395,66.0031813 C35.9312998,67.3146064 36.3587775,67.6901318 37.065746,67.5328271 L42.3537558,63.0689668 C43.1050605,61.8233235 42.5922323,61.30377 42.3537558,60.7285163 L37.7898972,53.3937835 C36.9464792,52.507579 36.5628734,53.002172 36.4082694,54.1844479 Z" id="Path-10" fill="#009846"></path>
                <path d="M27.7349919,54.4397177 C27.2128037,54.977965 26.9402709,55.6341325 27.5460168,56.7051389 L33.6651764,65.4103991 C34.399259,66.3485178 34.8481244,66.283952 34.9494352,64.9975537 L34.5137599,51.9000697 C34.3772957,50.8030547 34.0519099,50.1587347 33.29419,50.5503756 L27.7349919,54.4397177 Z" id="Path-11" fill="#009846"></path>
                <path d="M25.767464,60.5821022 L26.0554754,73.5324659 C26.1668057,74.5020002 26.5064232,75.0372689 27.2004472,74.8983578 L32.9831062,70.3258269 C33.5224011,69.6021705 33.5349533,68.8016639 32.9831062,67.9188133 L27.2004472,59.7626967 C26.0201575,58.6474604 25.8771567,59.5818734 25.767464,60.5821022 Z" id="Path-12" fill="#009846"></path>
                <path d="M15.8925707,62.0061102 C15.4386677,62.6445744 15.2136289,63.3614493 15.8925707,64.3880349 L23.1696512,73.9095886 C23.9957313,74.8260695 24.3232329,74.4372978 24.3298393,73.2084393 L24.0436184,58.7084901 C24.0416449,57.5597902 23.6417647,57.005625 22.6124195,57.3919791 L15.8925707,62.0061102 Z" id="Path-13" fill="#009846"></path>
                <path d="M13.9818661,68.5083431 L14.4305729,82.0872527 C14.6669153,84.0437959 15.2752654,84.3897903 16.0917659,83.83463 L22.600634,78.4666529 C23.1282056,77.7854234 23.1570801,77.0249558 22.600634,76.1714865 L15.4636422,67.5664587 C14.5563046,66.8809569 14.0552638,67.1777162 13.9818661,68.5083431 Z" id="Path-14" fill="#009846"></path>
                <path d="M2.82109919,70.9035206 C2.1444324,71.7919264 2.1585711,72.6618246 2.82109919,73.5143516 L11.1114514,83.2352556 C12.0500115,84.0019357 12.3731174,83.4196617 12.4824449,82.3688279 L12.036815,67.14961 C11.8871622,65.5114435 11.1114514,65.2780766 10.4979418,65.6858578 L2.82109919,70.9035206 Z" id="Path-15" fill="#009846"></path>
                <path d="M1.67705787,78.4301325 L1.24573858,93.2247586 C1.24922529,94.5708793 1.67831438,95.2027224 2.79516317,94.6803159 L9.77140388,89.1562012 C10.4275715,88.2976494 10.3023745,87.3644777 9.77140388,86.3925549 L3.34366356,77.0970631 C2.43550007,76.161966 1.85513912,76.5092062 1.67705787,78.4301325 Z" id="Path-16" fill="#009846"></path>
            </g>
            <g id="left" transform="translate(0.261650, 2.278955)">
                <path d="M40.2065781,0.757835948 C41.4539802,-0.756401032 42.0606686,0.334021512 42.0606686,1.13436858 L42.311853,13.9343073 C42.2277714,15.0255194 41.8866504,15.8415131 40.6190365,15.6654876 L33.5788251,13.3806009 C32.4920061,13.0851356 32.6752657,12.4943859 32.9388696,11.7073013 L40.2065781,0.757835948 Z" id="Path-17" fill="#696969"></path>
                <path d="M21.3318258,31.7328145 C20.8239314,31.5455487 20.497021,31.1733825 20.828652,30.1284234 L27.6978085,19.5794906 C28.2693294,19.02645 28.6801488,19.0122511 28.7925111,19.998797 L28.7925111,32.5909388 C28.7338639,33.7306315 28.3654224,34.4288675 27.4732901,34.3808448 L21.3318258,31.7328145 Z" id="Path-18" fill="#E31E24"></path>
                <path d="M30.7942079,18.0555461 L30.9707428,31.3614912 C30.9342087,33.0244828 31.4761515,33.1486894 32.5025111,31.9843167 L39.9082926,21.5349959 C40.4261688,20.5315477 40.4785875,19.7115518 39.7441809,19.2016701 L32.5025111,16.6363667 C31.5962188,16.4232932 30.9569241,16.7540571 30.7942079,18.0555461 Z" id="Path-19" fill="#696969"></path>
                <path d="M40.5431511,24.8938952 L33.6046902,34.7072539 C33.2020256,35.4817241 32.9364559,36.2568386 33.6046902,37.0363417 L40.7952077,40.2922405 C41.7301919,40.6682456 42.438564,40.5361271 42.6247626,39.2329806 L42.4145796,25.4314602 C42.3188793,23.9774228 41.8885151,23.3312598 40.5431511,24.8938952 Z" id="Path-20" fill="#E31E24"></path>
                <path d="M10.3796095,46.0959675 L16.3351074,37.0593971 C17.0657647,36.2004015 17.5179246,36.2345845 17.6520568,37.2887248 L17.3559165,50.0488024 C17.1386112,50.7761484 17.212835,51.8724495 16.0028947,51.3435299 L10.7308428,48.0292223 C9.73913033,47.5078502 10.0642363,46.8012242 10.3796095,46.0959675 Z" id="Path-21" fill="#E31E24"></path>
                <path d="M19.0961575,35.6918924 L18.762278,49.4578634 C18.7238241,51.1678917 19.2153592,51.3881697 20.197595,50.2291325 L27.0440805,40.0479142 C27.7178391,38.91438 27.5150341,38.2043962 26.7156414,37.7826799 L20.6944874,34.6677009 C19.9081781,34.3702469 19.2023438,34.2755738 19.0961575,35.6918924 Z" id="Path-22" fill="#E31E24"></path>
                <path d="M20.8195388,52.3777798 C20.2691051,53.3748912 20.0835215,54.2339426 20.8195388,54.7442585 L26.9694288,58.7859742 C27.9837231,59.3626258 28.3707407,58.851906 28.4951634,57.8859833 L28.8064698,43.9680373 C28.5770035,41.6964829 28.0016009,42.4285091 27.4500529,42.9534188 L20.8195388,52.3777798 Z" id="Path-23" fill="#696969"></path>
                <path d="M30.5813818,41.7703052 L30.3423164,56.4460742 C30.32182,58.3631922 30.9182413,58.4412803 31.8908202,57.3980434 L39.647181,46.8452723 C40.3416719,45.5357708 40.1331832,44.7307191 39.3039623,44.2724395 L32.1445999,40.624896 C31.2261604,40.2573265 30.7224214,40.6718183 30.5813818,41.7703052 Z" id="Path-24" fill="#E31E24"></path>
                <path d="M32.8448556,59.9422066 C32.1602538,61.145174 32.2048859,62.0154666 32.8448556,62.6141677 L39.5722101,66.8901409 C40.5774805,67.533197 41.2535066,67.3214622 41.4221114,65.792301 L41.2035553,51.1713837 C41.0017955,48.8489651 40.0654871,49.2801533 39.5722101,50.0674489 L32.8448556,59.9422066 Z" id="Path-25" fill="#E31E24"></path>
                <path d="M5.53117138,53.1819073 C6.12504997,52.5169614 6.72962264,52.4246305 6.72648898,53.4078331 L6.49873997,65.7044928 C6.43451598,67.3005401 5.8569694,67.500737 5.00140223,66.9449275 L0.48889314,63.335522 C-0.125221026,62.8098132 -0.0924191502,62.1226771 0.213086718,61.3674924 L5.53117138,53.1819073 Z" id="Path-26" fill="#E31E24"></path>
                <path d="M8.26981914,52.2406851 L7.81340733,65.1137345 C7.81102682,66.4217236 8.16021551,66.8449284 9.03690497,65.9401395 L15.3008377,56.9376139 C15.7108169,56.1525868 16.0983868,55.3704544 15.1458052,54.7614269 L9.70836338,51.1934529 C8.98032263,50.9768935 8.46176483,51.2371102 8.26981914,52.2406851 Z" id="Path-27" fill="#E31E24"></path>
                <path d="M9.85087044,68.640004 L15.6133447,60.3671624 C16.2831474,59.5248122 16.8926631,59.0451423 17.1597751,60.6253396 L16.8412011,73.4121525 C16.7829722,74.8096192 16.4531881,75.6961988 15.2760408,74.9886006 L9.85087044,70.8207315 C9.28960347,70.3710143 9.39334095,69.5928725 9.85087044,68.640004 Z" id="Path-28" fill="#E31E24"></path>
                <path d="M18.6391875,59.0287359 C18.6391875,58.3353542 18.7674334,56.9766914 20.2066986,57.876316 L26.4412977,61.9189336 C27.2748972,62.4979047 27.5690269,63.3229816 26.9071887,64.5841704 L19.9175251,73.9977743 C18.962662,75.2081558 18.4952836,74.9359906 18.3801679,73.5925179 L18.6391875,59.0287359 Z" id="Path-29" fill="#E31E24"></path>
                <path d="M20.6956027,77.0062706 C20.0777284,77.8127848 20.0777284,78.9249568 20.6956027,79.4258133 L26.9319621,84.3687576 C27.8922798,84.9683879 28.3209359,84.3566459 28.5574668,83.3071538 L28.5574668,69.2765768 C28.5574668,67.8730425 27.948049,67.0089662 27.1200318,68.0382476 L20.6956027,77.0062706 Z" id="Path-30" fill="#E31E24"></path>
                <path d="M30.3262422,67.8879418 L30.3262422,82.717094 C30.4829744,84.9656724 31.205365,84.7006732 32.0509621,83.8881891 L39.2660645,74.0619101 C40.0147047,72.8301813 39.9021959,71.8764747 38.9207909,71.2032913 L32.0509621,66.897914 C30.850397,66.1694522 30.4244448,66.7514584 30.3262422,67.8879418 Z" id="Path-31" fill="#E31E24"></path>
                <path d="M32.8206114,85.7752654 C32.2851961,86.6721853 31.7948154,87.5681356 32.8206114,88.4314419 L40.565804,94.5759672 C41.7788815,95.080558 42.0693884,94.3393405 42.2261761,93.4175531 L42.6246832,78.0715424 C42.7347017,76.033282 42.1194902,75.8535519 41.1260135,76.6431931 L32.8206114,85.7752654 Z" id="Path-32" fill="#E31E24"></path>
            </g>
        </g>
    </g>
</svg>