<?xml version="1.0" encoding="UTF-8"?>
<svg width="210px" height="100px" viewBox="0 0 210 100" version="1.1" xmlns="http://www.w3.org/2000/svg" xmlns:xlink="http://www.w3.org/1999/xlink">
    <title>pyraminx_4x4_5_2</title>
    <g id="pyraminx_4x4_5_2" stroke="none" stroke-width="1" fill="none" fill-rule="evenodd">
        <g id="pyraminx" transform="translate(0.000000, 6.000000)">
            <path d="M46.6357609,3.58830593 C48.8325761,-0.620682046 50.837696,0.262142024 52.7508297,3.58830593 L97.7638685,82.4749934 C99.3691665,85.2735091 100.525513,87.8516218 96.2212567,87.7489702 L3.94647409,87.7489702 C-0.0216314208,87.8524067 -0.684453533,85.9574582 1.27844019,82.4749934 L46.6357609,3.58830593 Z" id="Background" fill="#000000"></path>
            <g id="Group" transform="translate(2.211035, 3.752993)">
                <path d="M45.5957223,1.24082211 C46.6596823,-0.48103089 47.7610261,-0.344781861 48.89153,1.24082211 L55.7857095,13.0656763 C56.286669,14.0315269 55.9722199,14.6724483 54.1688434,14.7200525 L40.8251975,14.9776278 C38.9674845,15.1474543 38.7236985,14.3349759 39.2304695,13.0656763 L45.5957223,1.24082211 Z" id="Path-33" fill="#696969"></path>
                <path d="M26.4730241,34.5665013 L32.7874732,23.4615988 C33.8133208,21.6121378 34.8905462,21.5182094 36.0190921,23.177847 L42.4238048,34.2091753 C43.3828096,35.832641 43.2677605,36.9200076 41.1344346,37 L27.7566711,37 C25.3371755,36.9826049 25.9586229,35.7532207 26.4730241,34.5665013 Z" id="Path-34" fill="#696969"></path>
                <path d="M14.4730241,57.5665013 L20.7874732,46.4615988 C21.8133208,44.6121378 22.8905462,44.5182094 24.0190921,46.177847 L30.4238048,57.2091753 C31.3828096,58.832641 31.2677605,59.9200076 29.1344346,60 L15.7566711,60 C13.3371755,59.9826049 13.9586229,58.7532207 14.4730241,57.5665013 Z" id="Path-34-Copy-2" fill="#696969"></path>
                <path d="M0.473024105,79.5665013 L6.78747325,68.4615988 C7.81332078,66.6121378 8.89054625,66.5182094 10.0190921,68.177847 L16.4238048,79.2091753 C17.3828096,80.832641 17.2677605,81.9200076 15.1344346,82 L1.75667108,82 C-0.662824467,81.9826049 -0.0413770574,80.7532207 0.473024105,79.5665013 Z" id="Path-34-Copy-5" fill="#E31E24"></path>
                <path d="M26.4730241,79.5665013 L32.7874732,68.4615988 C33.8133208,66.6121378 34.8905462,66.5182094 36.0190921,68.177847 L42.4238048,79.2091753 C43.3828096,80.832641 43.2677605,81.9200076 41.1344346,82 L27.7566711,82 C25.3371755,81.9826049 25.9586229,80.7532207 26.4730241,79.5665013 Z" id="Path-34-Copy-6" fill="#E31E24"></path>
                <path d="M52.4730241,79.5665013 L58.7874732,68.4615988 C59.8133208,66.6121378 60.8905462,66.5182094 62.0190921,68.177847 L68.4238048,79.2091753 C69.3828096,80.832641 69.2677605,81.9200076 67.1344346,82 L53.7566711,82 C51.3371755,81.9826049 51.9586229,80.7532207 52.4730241,79.5665013 Z" id="Path-34-Copy-7" fill="#E31E24"></path>
                <path d="M77.4730241,79.5665013 L83.7874732,68.4615988 C84.8133208,66.6121378 85.8905462,66.5182094 87.0190921,68.177847 L93.4238048,79.2091753 C94.3828096,80.832641 94.2677605,81.9200076 92.1344346,82 L78.7566711,82 C76.3371755,81.9826049 76.9586229,80.7532207 77.4730241,79.5665013 Z" id="Path-34-Copy-8" fill="#E31E24"></path>
                <path d="M39.4730241,57.5665013 L45.7874732,46.4615988 C46.8133208,44.6121378 47.8905462,44.5182094 49.0190921,46.177847 L55.4238048,57.2091753 C56.3828096,58.832641 56.2677605,59.9200076 54.1344346,60 L40.7566711,60 C38.3371755,59.9826049 38.9586229,58.7532207 39.4730241,57.5665013 Z" id="Path-34-Copy-3" fill="#696969"></path>
                <path d="M65.4730241,57.5665013 L71.7874732,46.4615988 C72.8133208,44.6121378 73.8905462,44.5182094 75.0190921,46.177847 L81.4238048,57.2091753 C82.3828096,58.832641 82.2677605,59.9200076 80.1344346,60 L66.7566711,60 C64.3371755,59.9826049 64.9586229,58.7532207 65.4730241,57.5665013 Z" id="Path-34-Copy-4" fill="#696969"></path>
                <path d="M52.4730241,34.5665013 L58.7874732,23.4615988 C59.8133208,21.6121378 60.8905462,21.5182094 62.0190921,23.177847 L68.4238048,34.2091753 C69.3828096,35.832641 69.2677605,36.9200076 67.1344346,37 L53.7566711,37 C51.3371755,36.9826049 51.9586229,35.7532207 52.4730241,34.5665013 Z" id="Path-34-Copy" fill="#696969"></path>
                <path d="M40.5677518,18.0099322 L55.4031569,18.0099322 C56.7702138,17.910721 57.3251765,18.5495648 56.810532,20.1604985 L49.5426824,32.5208084 C48.3928221,34.5776263 47.3438861,34.4066496 46.3726375,32.5208084 L39.4471751,20.5478807 C38.5970289,19.0282143 38.9528851,18.1725038 40.5677518,18.0099322 Z" id="Path-35" fill="#696969"></path>
                <path d="M27.5677518,41.0099322 L42.4031569,41.0099322 C43.7702138,40.910721 44.3251765,41.5495648 43.810532,43.1604985 L36.5426824,55.5208084 C35.3928221,57.5776263 34.3438861,57.4066496 33.3726375,55.5208084 L26.4471751,43.5478807 C25.5970289,42.0282143 25.9528851,41.1725038 27.5677518,41.0099322 Z" id="Path-35-Copy" fill="#E31E24"></path>
                <path d="M14.5677518,64.0099322 L29.4031569,64.0099322 C30.7702138,63.910721 31.3251765,64.5495648 30.810532,66.1604985 L23.5426824,78.5208084 C22.3928221,80.5776263 21.3438861,80.4066496 20.3726375,78.5208084 L13.4471751,66.5478807 C12.5970289,65.0282143 12.9528851,64.1725038 14.5677518,64.0099322 Z" id="Path-35-Copy-3" fill="#E31E24"></path>
                <path d="M39.5677518,64.0099322 L54.4031569,64.0099322 C55.7702138,63.910721 56.3251765,64.5495648 55.810532,66.1604985 L48.5426824,78.5208084 C47.3928221,80.5776263 46.3438861,80.4066496 45.3726375,78.5208084 L38.4471751,66.5478807 C37.5970289,65.0282143 37.9528851,64.1725038 39.5677518,64.0099322 Z" id="Path-35-Copy-4" fill="#E31E24"></path>
                <path d="M66.5677518,64.0099322 L81.4031569,64.0099322 C82.7702138,63.910721 83.3251765,64.5495648 82.810532,66.1604985 L75.5426824,78.5208084 C74.3928221,80.5776263 73.3438861,80.4066496 72.3726375,78.5208084 L65.4471751,66.5478807 C64.5970289,65.0282143 64.9528851,64.1725038 66.5677518,64.0099322 Z" id="Path-35-Copy-5" fill="#E31E24"></path>
                <path d="M53.5677518,41.0099322 L68.4031569,41.0099322 C69.7702138,40.910721 70.3251765,41.5495648 69.810532,43.1604985 L62.5426824,55.5208084 C61.3928221,57.5776263 60.3438861,57.4066496 59.3726375,55.5208084 L52.4471751,43.5478807 C51.5970289,42.0282143 51.9528851,41.1725038 53.5677518,41.0099322 Z" id="Path-35-Copy-2" fill="#E31E24"></path>
            </g>
            <path id="Line-2" d="M34.1307242,32.0272069 L35.9067988,32.1050075 L49.661778,32.707541 L50.66082,32.7513038 L50.5732944,34.7493877 L49.5742524,34.7056249 L39.634,34.27 L46.5466365,38.5677459 L74.0279341,55.6507147 L74.8772194,56.1786488 L73.8213512,57.8772194 L72.9720659,57.3492853 L45.4907682,40.2663165 L38.577,35.968 L43.3674107,44.6905441 L43.8488014,45.5670503 L42.0957891,46.5298316 L41.6143985,45.6533255 L34.9865299,33.5854401 L34.1307242,32.0272069 Z" fill="#FFFFFF" fill-rule="nonzero"></path>
            <path id="Line-2-Copy" d="M33.2547062,36.6089124 L33.8228969,37.4318093 L56.4774455,70.2418453 L61.08,76.907 L60.1666298,66.9989092 L60.0748431,66.0031305 L62.0664005,65.8195572 L62.1581872,66.8153359 L63.4219217,80.525386 L63.585098,82.2956592 L61.9874881,81.5158283 L49.6146454,75.4763528 L48.7159898,75.0376979 L49.5932997,73.2403867 L50.4919553,73.6790416 L59.433,78.043 L54.8316517,71.3782267 L32.1771031,38.5681907 L31.6089124,37.7452938 L33.2547062,36.6089124 Z" fill="#FFFFFF" fill-rule="nonzero"></path>
            <path id="Line-2-Copy-2" d="M79.3358676,57.5509094 L79.359054,59.328536 L79.5386236,73.0955347 L79.551666,74.0954497 L77.5518361,74.1215344 L77.5387937,73.1216194 L77.409,63.172 L73.5063783,70.3266339 L66.8778956,82.4788521 L66.3990434,83.3567477 L64.6432523,82.3990434 L65.1221044,81.5211479 L71.7505871,69.3689296 L75.653,62.214 L67.2175081,67.4918273 L66.3697541,68.022217 L65.3089748,66.326709 L66.1567287,65.7963193 L77.8287494,58.4938243 L79.3358676,57.5509094 Z" fill="#FFFFFF" fill-rule="nonzero"></path>
        </g>
        <g id="pyraminx" transform="translate(110.000000, 6.000000)">
            <path d="M46.6357609,3.58830593 C48.8325761,-0.620682046 50.837696,0.262142024 52.7508297,3.58830593 L97.7638685,82.4749934 C99.3691665,85.2735091 100.525513,87.8516218 96.2212567,87.7489702 L3.94647409,87.7489702 C-0.0216314208,87.8524067 -0.684453533,85.9574582 1.27844019,82.4749934 L46.6357609,3.58830593 Z" id="Background" fill="#000000"></path>
            <g id="Group" transform="translate(2.211035, 3.752993)">
                <path d="M45.5957223,1.24082211 C46.6596823,-0.48103089 47.7610261,-0.344781861 48.89153,1.24082211 L55.7857095,13.0656763 C56.286669,14.0315269 55.9722199,14.6724483 54.1688434,14.7200525 L40.8251975,14.9776278 C38.9674845,15.1474543 38.7236985,14.3349759 39.2304695,13.0656763 L45.5957223,1.24082211 Z" id="Path-33" fill="#696969"></path>
                <path d="M26.4730241,34.5665013 L32.7874732,23.4615988 C33.8133208,21.6121378 34.8905462,21.5182094 36.0190921,23.177847 L42.4238048,34.2091753 C43.3828096,35.832641 43.2677605,36.9200076 41.1344346,37 L27.7566711,37 C25.3371755,36.9826049 25.9586229,35.7532207 26.4730241,34.5665013 Z" id="Path-34" fill="#696969"></path>
                <path d="M14.4730241,57.5665013 L20.7874732,46.4615988 C21.8133208,44.6121378 22.8905462,44.5182094 24.0190921,46.177847 L30.4238048,57.2091753 C31.3828096,58.832641 31.2677605,59.9200076 29.1344346,60 L15.7566711,60 C13.3371755,59.9826049 13.9586229,58.7532207 14.4730241,57.5665013 Z" id="Path-34-Copy-2" fill="#696969"></path>
                <path d="M0.473024105,79.5665013 L6.78747325,68.4615988 C7.81332078,66.6121378 8.89054625,66.5182094 10.0190921,68.177847 L16.4238048,79.2091753 C17.3828096,80.832641 17.2677605,81.9200076 15.1344346,82 L1.75667108,82 C-0.662824467,81.9826049 -0.0413770574,80.7532207 0.473024105,79.5665013 Z" id="Path-34-Copy-5" fill="#E31E24"></path>
                <path d="M26.4730241,79.5665013 L32.7874732,68.4615988 C33.8133208,66.6121378 34.8905462,66.5182094 36.0190921,68.177847 L42.4238048,79.2091753 C43.3828096,80.832641 43.2677605,81.9200076 41.1344346,82 L27.7566711,82 C25.3371755,81.9826049 25.9586229,80.7532207 26.4730241,79.5665013 Z" id="Path-34-Copy-6" fill="#E31E24"></path>
                <path d="M52.4730241,79.5665013 L58.7874732,68.4615988 C59.8133208,66.6121378 60.8905462,66.5182094 62.0190921,68.177847 L68.4238048,79.2091753 C69.3828096,80.832641 69.2677605,81.9200076 67.1344346,82 L53.7566711,82 C51.3371755,81.9826049 51.9586229,80.7532207 52.4730241,79.5665013 Z" id="Path-34-Copy-7" fill="#E31E24"></path>
                <path d="M77.4730241,79.5665013 L83.7874732,68.4615988 C84.8133208,66.6121378 85.8905462,66.5182094 87.0190921,68.177847 L93.4238048,79.2091753 C94.3828096,80.832641 94.2677605,81.9200076 92.1344346,82 L78.7566711,82 C76.3371755,81.9826049 76.9586229,80.7532207 77.4730241,79.5665013 Z" id="Path-34-Copy-8" fill="#E31E24"></path>
                <path d="M39.4730241,57.5665013 L45.7874732,46.4615988 C46.8133208,44.6121378 47.8905462,44.5182094 49.0190921,46.177847 L55.4238048,57.2091753 C56.3828096,58.832641 56.2677605,59.9200076 54.1344346,60 L40.7566711,60 C38.3371755,59.9826049 38.9586229,58.7532207 39.4730241,57.5665013 Z" id="Path-34-Copy-3" fill="#696969"></path>
                <path d="M65.4730241,57.5665013 L71.7874732,46.4615988 C72.8133208,44.6121378 73.8905462,44.5182094 75.0190921,46.177847 L81.4238048,57.2091753 C82.3828096,58.832641 82.2677605,59.9200076 80.1344346,60 L66.7566711,60 C64.3371755,59.9826049 64.9586229,58.7532207 65.4730241,57.5665013 Z" id="Path-34-Copy-4" fill="#696969"></path>
                <path d="M52.4730241,34.5665013 L58.7874732,23.4615988 C59.8133208,21.6121378 60.8905462,21.5182094 62.0190921,23.177847 L68.4238048,34.2091753 C69.3828096,35.832641 69.2677605,36.9200076 67.1344346,37 L53.7566711,37 C51.3371755,36.9826049 51.9586229,35.7532207 52.4730241,34.5665013 Z" id="Path-34-Copy" fill="#696969"></path>
                <path d="M40.5677518,18.0099322 L55.4031569,18.0099322 C56.7702138,17.910721 57.3251765,18.5495648 56.810532,20.1604985 L49.5426824,32.5208084 C48.3928221,34.5776263 47.3438861,34.4066496 46.3726375,32.5208084 L39.4471751,20.5478807 C38.5970289,19.0282143 38.9528851,18.1725038 40.5677518,18.0099322 Z" id="Path-35" fill="#696969"></path>
                <path d="M27.5677518,41.0099322 L42.4031569,41.0099322 C43.7702138,40.910721 44.3251765,41.5495648 43.810532,43.1604985 L36.5426824,55.5208084 C35.3928221,57.5776263 34.3438861,57.4066496 33.3726375,55.5208084 L26.4471751,43.5478807 C25.5970289,42.0282143 25.9528851,41.1725038 27.5677518,41.0099322 Z" id="Path-35-Copy" fill="#E31E24"></path>
                <path d="M14.5677518,64.0099322 L29.4031569,64.0099322 C30.7702138,63.910721 31.3251765,64.5495648 30.810532,66.1604985 L23.5426824,78.5208084 C22.3928221,80.5776263 21.3438861,80.4066496 20.3726375,78.5208084 L13.4471751,66.5478807 C12.5970289,65.0282143 12.9528851,64.1725038 14.5677518,64.0099322 Z" id="Path-35-Copy-3" fill="#E31E24"></path>
                <path d="M39.5677518,64.0099322 L54.4031569,64.0099322 C55.7702138,63.910721 56.3251765,64.5495648 55.810532,66.1604985 L48.5426824,78.5208084 C47.3928221,80.5776263 46.3438861,80.4066496 45.3726375,78.5208084 L38.4471751,66.5478807 C37.5970289,65.0282143 37.9528851,64.1725038 39.5677518,64.0099322 Z" id="Path-35-Copy-4" fill="#E31E24"></path>
                <path d="M66.5677518,64.0099322 L81.4031569,64.0099322 C82.7702138,63.910721 83.3251765,64.5495648 82.810532,66.1604985 L75.5426824,78.5208084 C74.3928221,80.5776263 73.3438861,80.4066496 72.3726375,78.5208084 L65.4471751,66.5478807 C64.5970289,65.0282143 64.9528851,64.1725038 66.5677518,64.0099322 Z" id="Path-35-Copy-5" fill="#E31E24"></path>
                <path d="M53.5677518,41.0099322 L68.4031569,41.0099322 C69.7702138,40.910721 70.3251765,41.5495648 69.810532,43.1604985 L62.5426824,55.5208084 C61.3928221,57.5776263 60.3438861,57.4066496 59.3726375,55.5208084 L52.4471751,43.5478807 C51.5970289,42.0282143 51.9528851,41.1725038 53.5677518,41.0099322 Z" id="Path-35-Copy-2" fill="#E31E24"></path>
            </g>
            <path id="Line-2" d="M36.1786488,32.1227806 L37.0279341,32.6507147 L64.5092318,49.7336835 L71.422,54.031 L66.6325893,45.3094559 L66.1511986,44.4329497 L67.9042109,43.4701684 L68.3856015,44.3466745 L75.0134701,56.4145599 L75.8692758,57.9727931 L74.0932012,57.8949925 L60.338222,57.292459 L59.33918,57.2486962 L59.4267056,55.2506123 L60.4257476,55.2943751 L70.365,55.729 L63.4533635,51.4322541 L35.9720659,34.3492853 L35.1227806,33.8213512 L36.1786488,32.1227806 Z" fill="#FFFFFF" fill-rule="nonzero"></path>
            <path id="Line-2-Copy" d="M31.414902,35.7043408 L33.0125119,36.4841717 L45.3853546,42.5236472 L46.2840102,42.9623021 L45.4067003,44.7596133 L44.5080447,44.3209584 L35.566,39.956 L40.1683483,46.6217733 L62.8228969,79.4318093 L63.3910876,80.2547062 L61.7452938,81.3910876 L61.1771031,80.5681907 L38.5225545,47.7581547 L33.919,41.092 L34.8333702,51.0010908 L34.9251569,51.9968695 L32.9335995,52.1804428 L32.8418128,51.1846641 L31.5780783,37.474614 L31.414902,35.7043408 Z" fill="#FFFFFF" fill-rule="nonzero"></path>
            <path id="Line-2-Copy-2" d="M77.6009566,58.6432523 L79.3567477,59.6009566 L78.8778956,60.4788521 L72.2494129,72.6310704 L68.346,79.785 L76.7824919,74.5081727 L77.6302459,73.977783 L78.6910252,75.673291 L77.8432713,76.2036807 L66.1712506,83.5061757 L64.6641324,84.4490906 L64.640946,82.671464 L64.4613764,68.9044653 L64.448334,67.9045503 L66.4481639,67.8784656 L66.4612063,68.8783806 L66.59,78.827 L70.4936217,71.6733661 L77.1221044,59.5211479 L77.6009566,58.6432523 Z" fill="#FFFFFF" fill-rule="nonzero"></path>
        </g>
    </g>
</svg>