<?xml version="1.0" encoding="UTF-8"?>
<svg width="100px" height="100px" viewBox="0 0 100 100" version="1.1" xmlns="http://www.w3.org/2000/svg" xmlns:xlink="http://www.w3.org/1999/xlink">
    <title>pyraminx_4x4_3_7</title>
    <g id="pyraminx_4x4_3_7" stroke="none" stroke-width="1" fill="none" fill-rule="evenodd">
        <g id="pyraminx" transform="translate(0.000000, 6.000000)">
            <path d="M46.6357609,3.58830593 C48.8325761,-0.620682046 50.837696,0.262142024 52.7508297,3.58830593 L97.7638685,82.4749934 C99.3691665,85.2735091 100.525513,87.8516218 96.2212567,87.7489702 L3.94647409,87.7489702 C-0.0216314208,87.8524067 -0.684453533,85.9574582 1.27844019,82.4749934 L46.6357609,3.58830593 Z" id="Background" fill="#000000"></path>
            <path d="M47.8067572,4.99381485 C48.8707172,3.27196185 49.972061,3.40821088 51.1025648,4.99381485 L57.9967443,16.8186691 C58.4977039,17.7845196 58.1832548,18.425441 56.3798783,18.4730453 L43.0362323,18.7306205 C41.1785193,18.9004471 40.9347334,18.0879686 41.4415044,16.8186691 L47.8067572,4.99381485 Z" id="Path-33" fill="#696969"></path>
            <path d="M28.6840589,38.3194941 L34.9985081,27.2145915 C36.0243556,25.3651306 37.1015811,25.2712021 38.2301269,26.9308397 L44.6348396,37.962168 C45.5938444,39.5856337 45.4787953,40.6730004 43.3454694,40.7529927 L29.9677059,40.7529927 C27.5482104,40.7355977 28.1696578,39.5062135 28.6840589,38.3194941 Z" id="Path-34" fill="#FFED00"></path>
            <path d="M16.6840589,61.3194941 L22.9985081,50.2145915 C24.0243556,48.3651306 25.1015811,48.2712021 26.2301269,49.9308397 L32.6348396,60.962168 C33.5938444,62.5856337 33.4787953,63.6730004 31.3454694,63.7529927 L17.9677059,63.7529927 C15.5482104,63.7355977 16.1696578,62.5062135 16.6840589,61.3194941 Z" id="Path-34-Copy-2" fill="#696969"></path>
            <path d="M2.68405893,83.3194941 L8.99850807,72.2145915 C10.0243556,70.3651306 11.1015811,70.2712021 12.2301269,71.9308397 L18.6348396,82.962168 C19.5938444,84.5856337 19.4787953,85.6730004 17.3454694,85.7529927 L3.96770591,85.7529927 C1.54821036,85.7355977 2.16965776,84.5062135 2.68405893,83.3194941 Z" id="Path-34-Copy-5" fill="#009846"></path>
            <path d="M28.6840589,83.3194941 L34.9985081,72.2145915 C36.0243556,70.3651306 37.1015811,70.2712021 38.2301269,71.9308397 L44.6348396,82.962168 C45.5938444,84.5856337 45.4787953,85.6730004 43.3454694,85.7529927 L29.9677059,85.7529927 C27.5482104,85.7355977 28.1696578,84.5062135 28.6840589,83.3194941 Z" id="Path-34-Copy-6" fill="#696969"></path>
            <path d="M54.6840589,83.3194941 L60.9985081,72.2145915 C62.0243556,70.3651306 63.1015811,70.2712021 64.2301269,71.9308397 L70.6348396,82.962168 C71.5938444,84.5856337 71.4787953,85.6730004 69.3454694,85.7529927 L55.9677059,85.7529927 C53.5482104,85.7355977 54.1696578,84.5062135 54.6840589,83.3194941 Z" id="Path-34-Copy-7" fill="#BDBDBD"></path>
            <path d="M79.6840589,83.3194941 L85.9985081,72.2145915 C87.0243556,70.3651306 88.1015811,70.2712021 89.2301269,71.9308397 L95.6348396,82.962168 C96.5938444,84.5856337 96.4787953,85.6730004 94.3454694,85.7529927 L80.9677059,85.7529927 C78.5482104,85.7355977 79.1696578,84.5062135 79.6840589,83.3194941 Z" id="Path-34-Copy-8" fill="#009846"></path>
            <path d="M41.6840589,61.3194941 L47.9985081,50.2145915 C49.0243556,48.3651306 50.1015811,48.2712021 51.2301269,49.9308397 L57.6348396,60.962168 C58.5938444,62.5856337 58.4787953,63.6730004 56.3454694,63.7529927 L42.9677059,63.7529927 C40.5482104,63.7355977 41.1696578,62.5062135 41.6840589,61.3194941 Z" id="Path-34-Copy-3" fill="#696969"></path>
            <path d="M67.6840589,61.3194941 L73.9985081,50.2145915 C75.0243556,48.3651306 76.1015811,48.2712021 77.2301269,49.9308397 L83.6348396,60.962168 C84.5938444,62.5856337 84.4787953,63.6730004 82.3454694,63.7529927 L68.9677059,63.7529927 C66.5482104,63.7355977 67.1696578,62.5062135 67.6840589,61.3194941 Z" id="Path-34-Copy-4" fill="#696969"></path>
            <path d="M54.6840589,38.3194941 L60.9985081,27.2145915 C62.0243556,25.3651306 63.1015811,25.2712021 64.2301269,26.9308397 L70.6348396,37.962168 C71.5938444,39.5856337 71.4787953,40.6730004 69.3454694,40.7529927 L55.9677059,40.7529927 C53.5482104,40.7355977 54.1696578,39.5062135 54.6840589,38.3194941 Z" id="Path-34-Copy" fill="#696969"></path>
            <path d="M42.7787867,21.762925 L57.6141918,21.762925 C58.9812487,21.6637138 59.5362113,22.3025575 59.0215669,23.9134913 L51.7537172,36.2738011 C50.6038569,38.330619 49.554921,38.1596423 48.5836724,36.2738011 L41.6582099,24.3008734 C40.8080637,22.7812071 41.1639199,21.9254965 42.7787867,21.762925 Z" id="Path-35" fill="#696969"></path>
            <path d="M29.7787867,44.762925 L44.6141918,44.762925 C45.9812487,44.6637138 46.5362113,45.3025575 46.0215669,46.9134913 L38.7537172,59.2738011 C37.6038569,61.330619 36.554921,61.1596423 35.5836724,59.2738011 L28.6582099,47.3008734 C27.8080637,45.7812071 28.1639199,44.9254965 29.7787867,44.762925 Z" id="Path-35-Copy" fill="#696969"></path>
            <path d="M16.7787867,67.762925 L31.6141918,67.762925 C32.9812487,67.6637138 33.5362113,68.3025575 33.0215669,69.9134913 L25.7537172,82.2738011 C24.6038569,84.330619 23.554921,84.1596423 22.5836724,82.2738011 L15.6582099,70.3008734 C14.8080637,68.7812071 15.1639199,67.9254965 16.7787867,67.762925 Z" id="Path-35-Copy-3" fill="#009846"></path>
            <path d="M41.7787867,67.762925 L56.6141918,67.762925 C57.9812487,67.6637138 58.5362113,68.3025575 58.0215669,69.9134913 L50.7537172,82.2738011 C49.6038569,84.330619 48.554921,84.1596423 47.5836724,82.2738011 L40.6582099,70.3008734 C39.8080637,68.7812071 40.1639199,67.9254965 41.7787867,67.762925 Z" id="Path-35-Copy-4" fill="#009846"></path>
            <path d="M68.7787867,67.762925 L83.6141918,67.762925 C84.9812487,67.6637138 85.5362113,68.3025575 85.0215669,69.9134913 L77.7537172,82.2738011 C76.6038569,84.330619 75.554921,84.1596423 74.5836724,82.2738011 L67.6582099,70.3008734 C66.8080637,68.7812071 67.1639199,67.9254965 68.7787867,67.762925 Z" id="Path-35-Copy-5" fill="#009846"></path>
            <path d="M55.7787867,44.762925 L70.6141918,44.762925 C71.9812487,44.6637138 72.5362113,45.3025575 72.0215669,46.9134913 L64.7537172,59.2738011 C63.6038569,61.330619 62.554921,61.1596423 61.5836724,59.2738011 L54.6582099,47.3008734 C53.8080637,45.7812071 54.1639199,44.9254965 55.7787867,44.762925 Z" id="Path-35-Copy-2" fill="#696969"></path>
        </g>
    </g>
</svg>