<?xml version="1.0" encoding="UTF-8"?>
<svg width="88px" height="100px" viewBox="0 0 88 100" version="1.1" xmlns="http://www.w3.org/2000/svg" xmlns:xlink="http://www.w3.org/1999/xlink">
    <title>tw_skewb_4_2</title>
    <g id="twisty_skewb" stroke="none" stroke-width="1" fill="none" fill-rule="evenodd">
        <g id="tw_skewb_4_2" fill-rule="nonzero">
            <path d="M30.33,0.91 C30.33,0.91 31.8,0 32.5,0 C33.2,0 34,0.91 34,0.91 L37.1,4.96 L57.15,4.25 L85.6,10.85 C85.6,10.85 87.46,11.23 87.83,11.89 C88.21,12.55 87.5,14.2 87.5,14.2 C87.5,14.2 73.7,32.31 72.25,40.23 C70.8,48.15 79,60.63 79,60.63 C79.0976753,61.2214393 79.3009093,61.7904947 79.6,62.31 C79.6,62.91 79,63.96 79,63.96 L62.32,97.34 C62.32,97.34 61.54,99.32 60.88,99.67 C60.22,100.01 58.52,99.34 58.52,99.34 L4.87,80.07 C4.87,80.07 2.83,79.17 2.46,78.4 C2.09,77.62 2.74,75.58 2.74,75.58 L17.51,40.23 L0.86,19.33 C0.86,19.33 -0.21,17.69 0.06,16.93 C0.31,16.17 2.3,15.15 2.3,15.15 L30.33,0.91 Z" id="Path" fill="#000000"></path>
            <path d="M30.95,1.93 C30.95,1.93 32.18,1.22 32.75,1.22 C33.34,1.22 33.93,1.92 33.93,1.92 L36.33,5.25 L23.45,5.94 L30.95,1.93 L30.95,1.93 Z" id="Path" fill="#EF7F1A"></path>
            <path d="M22.28,5.94 L54.86,4.79 C54.86,4.79 56.46,4.69 57.18,4.79 C57.92,4.89 59.23,5.4 59.23,5.4 L75.15,17.84 C75.15,17.84 76.67,19 76.56,19.37 C76.46,19.74 74.52,20.04 74.52,20.04 L37.62,23.15 C37.62,23.15 35.15,23.5 34.12,23.15 C33.07,22.81 31.86,21.25 31.86,21.25 L20.88,7.58 C20.88,7.58 20.18,6.8 20.45,6.48 C20.74,6.14 22.28,5.94 22.28,5.94 Z" id="Path" fill="#FFED00"></path>
            <path d="M67.59,7.22 L82.8,10.6 C82.8,10.6 84.06,10.88 84.32,11.2 C84.57,11.5 84.03,12.1 84.03,12.1 L80.86,15.9 C80.86,15.9 80.13,16.88 79.7,16.97 C79.28,17.07 78.36,16.43 78.36,16.43 L67.59,8.5 C67.59,8.5 66.02,7.45 66.02,7.22 C66.02,7 67.59,7.22 67.59,7.22 Z" id="Path" fill="#FFED00"></path>
            <path d="M16.46,9.73 C18.21,8.4 18.96,8.88 19.53,9.73 L27,19.06 C28.42,20.62 28.55,21.42 25.8,20.56 L8.93,16.34 C8.93,16.34 7.03,15.77 6.9,15.38 C6.78,15 8.2,14.03 8.2,14.03 L16.45,9.73 L16.46,9.73 Z" id="Path" fill="#FFED00"></path>
            <path d="M43.47,27.7 L53.52,26.87 C53.52,26.87 55.51,26.63 56.23,26.7 C56.7108274,26.7683393 57.1619833,26.9730947 57.53,27.29 L62.61,31.93 C62.61,31.93 63.77,33.13 63.46,33.33 C63.16,33.52 60.89,33.02 60.89,33.02 L44,28.69 C41.55,28.19 40.64,27.81 43.48,27.71 L43.47,27.7 Z" id="Path" fill="#009846"></path>
            <path d="M7.57,20.91 L24.24,25.85 C24.24,25.85 26.53,26.53 26.71,27.1 C26.91,27.67 25.26,28.94 25.26,28.94 L18.7,32.97 C18.7,32.97 17.18,33.81 16.45,33.71 C15.72,33.61 14.43,32.41 14.43,32.41 L7.21,23.32 C7.21,23.32 5.12,21 5.2,20.5 C5.27,20 7.57,20.92 7.57,20.92 L7.57,20.91 Z" id="Path" fill="#E31E24"></path>
            <path d="M42.57,34.8 L59.75,39.59 C59.75,39.59 62.06,40.22 62.63,41 C63.19,41.78 63.07,44.16 63.07,44.16 L60.87,58.71 C60.87,58.71 60.75,61.43 60.27,61.55 C59.79,61.66 58.02,59.38 58.02,59.38 L41.72,37.33 C41.72,37.33 40.29,35.27 40.44,34.81 C40.6,34.34 42.57,34.81 42.57,34.81 L42.57,34.8 Z" id="Path" fill="#FFED00"></path>
            <path d="M29.05,34.57 C29.05,34.57 30.59,33.13 31.34,33.13 C32.09,33.13 33.44,34.57 33.44,34.57 L48.47,53.27 C48.47,53.27 49.74,54.99 49.9,56.07 C50.06,57.16 49.34,59.07 49.34,59.07 C49.34,59.07 47.75,61.58 47.04,63.07 C46.474427,64.3426172 45.9770555,65.6444621 45.55,66.97 C45.55,66.97 44.97,69.94 43.63,69.94 C42.28,69.94 40.98,67.56 40.98,67.56 C40.98,67.56 36.68,59.91 32.36,53.96 C28.06,48.02 23.08,42.88 23.08,42.88 C23.08,42.88 21.2,41.31 21.2,40.53 C21.2,39.76 23.08,38.69 23.08,38.69 C23.08,38.69 25.18,37.64 26.28,36.89 C27.38,36.13 29.05,34.57 29.05,34.57 L29.05,34.57 Z" id="Path" fill="#E31E24"></path>
            <path d="M67.15,49.1 L69.29,49.1 C69.29,49.1 70.03,49.22 70.25,49.53 C70.4106496,49.9584027 70.4919752,50.4124705 70.49,50.87 C70.49,50.87 70.68,52.84 71.41,54.19 C72.14,55.55 74.21,57.77 74.21,57.77 C74.21,57.77 75.05,58.51 75.18,59.07 C75.3,59.64 74.6,60.65 74.6,60.65 C74.6,60.65 72.58,66.81 72.37,68.45 C72.05,70.87 71.22,72.45 71.04,72.51 C70.56,72.67 69.29,70.87 69.29,70.87 L65.2,65.83 L67.15,49.11 L67.15,49.1 Z" id="Path" fill="#E31E24"></path>
            <path d="M75.2,62.5 C75.2,62.5 75.72,61.13 76.15,60.82 C76.57,60.5 77.48,60.82 77.48,60.82 C77.48,60.82 78.47,61.45 78.62,61.95 C78.78,62.45 78.33,63.54 78.33,63.54 L74.81,70.58 C74.81,70.58 73.71,72.82 73.45,72.82 C73.19,72.82 73.45,70.58 73.45,70.58 L75.2,62.5 L75.2,62.5 Z" id="Path" fill="#E31E24"></path>
            <path d="M52.62,65.33 C52.62,65.33 53.69,62.86 54.41,62.69 C55.11,62.52 56.88,64.29 56.88,64.29 L67.98,77.19 C67.98,77.19 69.38,79.31 69.66,80.48 C69.94,81.65 69.3,82.76 69.3,82.76 L63.09,93.78 C63.09,93.78 61.95,95.38 61.26,95.26 C60.56,95.13 59.23,93.08 59.23,93.08 L50.83,79.94 C49.94,79.12 49.74,77.84 49.6,76.82 C49.3692887,75.6790753 49.4841882,74.4952622 49.93,73.42 L52.62,65.32 L52.62,65.33 Z" id="Path" fill="#E31E24"></path>
            <path d="M35.96,86.39 L41.59,83.19 C41.59,83.19 43.16,82.36 43.89,82.47 C44.61,82.57 45.87,83.82 45.87,83.82 L52.07,92.24 C52.07,92.24 53.76,94.75 53.58,95.24 C53.41,95.71 51.1,94.84 51.1,94.84 L36.5,89.01 C36.5,89.01 34.77,88.47 34.66,87.96 C34.56,87.46 35.96,86.39 35.96,86.39 L35.96,86.39 Z" id="Path" fill="#0062AC"></path>
            <path d="M23.93,50.36 C23.93,50.36 28.29,55.56 31.09,59.81 C33.89,64.06 39.53,74.09 39.53,74.09 C39.53,74.09 40.58,76.16 40.43,76.83 C40.28,77.5 38.73,77.77 38.73,77.77 C38.73,77.77 36.55,78.43 35.57,78.97 C34.7214768,79.5115711 33.9277284,80.1345129 33.2,80.83 C33.2,80.83 31.97,82.11 31.09,81.9 C30.21,81.7 29.44,79.93 29.44,79.93 C29.44,79.93 27.05,63.56 26.2,59 C25.35,54.45 23.92,50.36 23.92,50.36 L23.93,50.36 Z" id="Path" fill="#0062AC"></path>
            <path d="M5.77,71.32 L11.73,58.69 C11.73,58.69 12.53,56.98 13.13,56.36 C13.7362751,55.8743137 14.418858,55.4924728 15.15,55.23 L20.65,52.59 C20.65,52.59 22.02,51.77 22.45,52.17 C22.86,52.57 22.89,54.74 22.89,54.74 L23.93,79.59 C23.93,79.59 23.81,82.68 23.08,83.17 C22.34,83.65 19.63,82.46 19.63,82.46 L6.49,76.82 C6.49,76.82 4.54,76.15 4.4,75.06 C4.26,73.97 5.77,71.32 5.77,71.32 L5.77,71.32 Z" id="Path" fill="#0062AC"></path>
            <path d="M17.52,42.18 C17.52,42.18 16.08,44.62 15.56,46.06 C15.04,47.51 14.45,48.22 15,49.16 C15.56,50.12 21.03,46.3 21.03,46.3 L17.53,42.18 L17.52,42.18 Z" id="Path" fill="#0062AC"></path>
        </g>
    </g>
</svg>