<?xml version="1.0" encoding="UTF-8"?>
<svg width="93px" height="100px" viewBox="0 0 93 100" version="1.1" xmlns="http://www.w3.org/2000/svg" xmlns:xlink="http://www.w3.org/1999/xlink">
    <title>tw_skewb_4_1</title>
    <g id="twisty_skewb" stroke="none" stroke-width="1" fill="none" fill-rule="evenodd">
        <g id="tw_skewb_4_1" fill-rule="nonzero">
            <path d="M43.08,0.14 L60.05,4.9 C60.05,4.9 62.37,4.77 63.63,5.2 C64.89,5.63 66.69,7.24 66.69,7.24 L72.27,15.02 L90.17,14.6 C90.17,14.6 91.99,14.69 92.55,15.41 C93.11,16.13 92.85,18.05 92.85,18.05 L89.35,41.05 L70.6,41.42 C70.6,41.42 69.4,46.38 71.48,50.57 C73.56,54.77 82.68,65.81 82.68,65.81 C82.68,65.81 84.54,67.47 84.54,68.54 C84.54,69.62 82.69,71.18 82.69,71.18 L54.75,98.13 C54.75,98.13 53.31,99.77 52.15,99.86 C51.01,99.94 48.79,98.59 48.79,98.59 L3.62,76.24 C3.62,76.24 1.42,74.9 1.16,74.04 C0.9,73.18 2.1,71.18 2.1,71.18 L17.38,42.68 L0,43.5 L0,18.05 C0,18.05 0.1,16.35 0.83,15.72 C1.56,15.08 3.3,15.72 3.3,15.72 L21.6,21.58 L21.4,9.42 C21.4,9.42 21.82,7.06 22.58,6.28 C23.33,5.5 25.75,5.07 25.75,5.07 L39.75,5.2 L39.75,1.7 C39.74,1.7 40.24,0.42 40.85,0.14 C41.45,-0.14 43.09,0.14 43.09,0.14 L43.08,0.14 Z" id="Path" fill="#000000"></path>
            <polygon id="Path" fill="#E31E24" points="43.54 0.66 44.81 5.38 59.73 5.38"></polygon>
            <path d="M26.87,5.38 L61.25,5.38 C61.25,5.38 62.56,5.34 63.15,5.55 C63.73,5.75 64.58,6.54 64.58,6.54 L73.51,18.94 C73.51,18.94 74.26,20.04 73.94,20.4 C73.61,20.75 71.72,20.86 71.72,20.86 L32.57,21.43 C32.57,21.43 30.41,21.27 29.65,20.86 C28.89,20.44 28.63,19.27 28.63,19.27 L24.7,6.84 C24.7,6.84 24.58,5.98 24.95,5.74 C25.5699946,5.53072199 26.2163044,5.4095389 26.87,5.38 Z" id="Path" fill="#FFED00"></path>
            <path d="M74.6,15.25 C74.6,15.25 73.64,15.37 73.43,15.61 C73.22,15.84 73.43,16.55 73.43,16.55 L75.73,19.79 C75.73,19.79 76.4,20.58 76.97,20.69 C77.5796188,20.6819539 78.1827196,20.5633667 78.75,20.34 L87.29,14.9 L74.59,15.25 L74.6,15.25 Z" id="Path" fill="#0062AC"></path>
            <path d="M82.66,24.76 L90.38,19.69 C90.38,19.69 91.4,18.92 91.63,19.24 C91.86,19.56 91.63,21.43 91.63,21.43 L89.27,35.98 C89.27,35.98 89.1,37.3 88.87,37.46 C88.65,37.62 88.1,36.81 88.1,36.81 L82.2,27.56 C82.2,27.56 81.42,26.46 81.5,25.99 C81.58,25.52 82.66,24.76 82.66,24.76 L82.66,24.76 Z" id="Path" fill="#FFED00"></path>
            <path d="M42.7,34.73 L65.74,25.19 C65.74,25.19 69.05,24.09 69.21,24.4 C69.37,24.7 66.61,26.83 66.61,26.83 C66.61,26.83 59.21,31.33 54.91,34.1 C50.59,36.87 41.9,42.68 41.9,42.68 C41.9,42.68 41.96,41.1 41.75,40.25 C41.55,39.41 40.76,37.97 40.76,37.97 C40.76,37.97 40.41,36.64 40.76,36.04 C41.12,35.44 42.7,34.73 42.7,34.73 L42.7,34.73 Z" id="Path" fill="#009846"></path>
            <path d="M61.57,35.73 L69.62,31.11 C71.4,29.84 71.95,30 70.9,32 L60,56.35 C59.46,57.88 58.97,58.47 58.7,58.44 C58.49,58.42 58.32,58.2 58.42,56.35 L58.92,40.45 C58.92,40.45 59.12,38.33 59.62,37.45 C60.1489981,36.7488146 60.8160466,36.1634455 61.58,35.73 L61.57,35.73 Z" id="Path" fill="#FFED00"></path>
            <path d="M72.38,31.4 C72.38,31.4 73.42,29.15 74.14,29.36 C74.86,29.58 74.04,31.88 74.04,31.88 C74.04,31.88 70.78,38.11 70.14,40.89 C69.48,43.67 70.14,48.52 70.14,48.52 C70.14,48.52 68.59,44.92 68.37,43.65 C68.14,42.37 68.51,41.77 68.69,40.41 C68.88,39.06 72.39,31.39 72.39,31.39 L72.38,31.4 Z" id="Path" fill="#EF7F1A"></path>
            <path d="M44.38,48.8 C44.38,48.8 43.58,47.46 43.68,46.88 C43.78,46.3 44.97,45.32 44.97,45.32 L51.17,41.48 C51.17,41.48 52.93,40.28 53.44,40.52 C53.94,40.76 54,42.85 54,42.85 L52.91,57.75 C52.91,57.75 52.78,60.3 52.39,60.6 C52.01,60.9 50.78,59.4 50.78,59.4 L44.38,48.8 L44.38,48.8 Z" id="Path" fill="#EF7F1A"></path>
            <path d="M1.75,22.32 C1.75,22.32 1.83,20.78 2.27,20.46 C2.71,20.14 4.29,20.46 4.29,20.46 L16.03,25.42 C16.03,25.42 18.21,26.06 18.38,26.62 C18.55,27.17 16.93,28.37 16.93,28.37 L3.5,38.38 C3.5,38.38 2.32,39.23 2.02,39.06 C1.72,38.89 1.75,37.4 1.75,37.4 L1.75,22.32 Z" id="Path" fill="#FFED00"></path>
            <path d="M20.18,34.88 L24.38,32.28 C24.38,32.28 25.35,31.21 25.91,31.15 C26.47,31.1 27.67,31.78 27.67,31.78 L43.67,53.65 C43.67,53.65 44.57,55.19 44.51,56.08 C44.45,56.96 43.34,58.7 43.34,58.7 L38.28,66.07 C38.28,66.07 37.1,67.47 36.5,67.62 C35.9,67.76 34.72,66.92 34.72,66.92 C34.72,66.92 33.08,64.96 32.45,62.01 C31.83,59.05 30.64,56.42 27.01,49.93 C23.38,43.43 18.95,37.83 18.95,37.83 C18.95,37.83 18.45,36.55 18.67,36.05 C18.87,35.54 20.18,34.88 20.18,34.88 Z" id="Path" fill="#009846"></path>
            <path d="M63.46,49.66 L57.66,62.66 L67.91,75.09 C67.91,75.09 69.22,76.31 69.74,76.24 C70.25,76.18 70.87,74.72 70.87,74.72 C70.87,74.72 71.52,71.54 72.23,70.02 C72.94,68.49 75.03,65.8 75.03,65.8 C75.03,65.8 76.13,64.07 76.13,63.41 C76.13,62.76 75.03,62.08 75.03,62.08 C75.03,62.08 70.23,58.08 68.3,56.06 C66.36,54.03 63.46,49.66 63.46,49.66 L63.46,49.66 Z" id="Path" fill="#009846"></path>
            <path d="M76.56,67.3 C76.56,67.3 77.3,65.96 77.74,65.77 C78.17,65.58 79.04,66.22 79.04,66.22 L81.42,68.16 C81.42,68.16 82.46,68.92 82.46,69.44 C82.46,69.96 81.42,71.06 81.42,71.06 L74.65,77.13 C74.65,77.13 73.1,78.36 72.83,78.13 C72.56,77.88 73.24,75.6 73.24,75.6 C73.24,75.6 74.07,72.96 74.65,71.52 C75.23,70.07 76.56,67.3 76.56,67.3 Z" id="Path" fill="#009846"></path>
            <path d="M49.93,61.95 C49.93,61.95 51.5,64.61 52.43,65.28 C53.35,65.96 55.13,65.73 55.13,65.73 L65.89,80.73 C65.89,80.73 66.89,82.56 66.89,83.56 C66.89,84.57 65.89,85.7 65.89,85.7 L55.81,94.03 C55.81,94.03 54.26,95.13 53.67,95.05 C53.07,94.97 52.42,93.55 52.42,93.55 L44.14,77.27 C44.14,77.27 43.41,75.37 43.41,74.54 C43.41,73.71 44.14,72.34 44.14,72.34 C44.14,72.34 46.47,66.72 47.93,64.11 C49.38,61.5 49.93,61.95 49.93,61.95 L49.93,61.95 Z" id="Path" fill="#009846"></path>
            <path d="M35,80.56 C35,80.56 36.45,79.51 37.15,79.67 C37.85,79.84 38.98,81.5 38.98,81.5 L44.98,90.83 C44.98,90.83 46.63,93.23 46.47,93.66 C46.3,94.1 44.07,93.2 44.07,93.2 L31.16,86.88 C31.16,86.88 29.32,86.03 29.21,85.41 C29.11,84.78 30.59,83.58 30.59,83.58 L35,80.56 Z" id="Path" fill="#E31E24"></path>
            <path d="M24.07,53.94 L33.85,72.71 C33.85,72.71 34.6,74.03 34.46,74.58 C34.32,75.14 33.09,75.75 33.09,75.75 C33.09,75.75 31.57,76.42 30.87,76.91 C30.2690853,77.3805143 29.7103059,77.9024878 29.2,78.47 C29.2,78.47 27.6,79.81 27,79.65 C26.38,79.5 25.63,77.57 25.63,77.57 C25.63,77.57 24.78,69.25 24.51,65.12 C24.24,60.99 24.07,53.94 24.07,53.94 L24.07,53.94 Z" id="Path" fill="#E31E24"></path>
            <path d="M11.65,55.83 C11.65,55.83 12.35,54.46 12.97,53.94 C13.57,53.43 12.04,54.54 14.52,53.4 C16.99,52.25 19.44,50.95 19.44,50.95 C19.44,50.95 20.71,50.22 21,50.41 C21.3,50.59 21.07,51.98 21.07,51.98 L19.44,78.28 C19.44,78.28 19.34,80.45 18.8,80.8 C18.26,81.15 16.36,80.28 16.36,80.28 L4.43,73.55 C1.34,72.09 3.33,70.72 3.81,69.32 L11.65,55.82 L11.65,55.83 Z" id="Path" fill="#E31E24"></path>
            <path d="M17.57,43.6 L15.97,46.19 C15.97,46.19 15.67,47.12 15.81,47.36 C15.95,47.6 17.3,47.19 17.3,47.19 L19.2,46.19 L17.57,43.61 L17.57,43.6 Z" id="Path" fill="#E31E24"></path>
        </g>
    </g>
</svg>