<?xml version="1.0" encoding="UTF-8"?>
<svg width="84px" height="100px" viewBox="0 0 84 100" version="1.1" xmlns="http://www.w3.org/2000/svg" xmlns:xlink="http://www.w3.org/1999/xlink">
    <title>tw_skewb_3</title>
    <g id="twisty_skewb" stroke="none" stroke-width="1" fill="none" fill-rule="evenodd">
        <g id="tw_skewb_3" fill-rule="nonzero">
            <path d="M10.14,0.53 C10.62,0.25 11.09,0.259955556 11.09,0.259955556 L71.95,0.66 C71.95,0.66 72.8,0.6 73.26,0.9 C73.72,1.2 73.97,1.9 73.97,1.9 L82.67,28.72 C82.67,28.72 83.39,30.2 83.35,31.24 C83.3,32.28 82.48,33.41 82.48,33.41 C82.48,33.41 77.41,41.24 75.88,43.91 C74.8619923,45.7335836 73.9699103,47.6246637 73.21,49.57 C73.21,49.57 72.02,60.59 73.11,67.18 C74.2,73.78 78.28,94 78.28,94 C78.28,94 78.76,96.17 77.9,97.5 C77.03,98.84 74.97,99.1 74.97,99.1 L6.37,99.2300467 C6.37,99.2300467 4.94,99.26 4.17,97.8 C3.39,96.35 3.71,94.23 3.71,94.23 C3.71,94.23 7.35,61.4 8,54.44 C8.64,47.47 8.8,39.38 8.8,39.38 L1.75,32.92 C1.75,32.92 0.96,32.5 0.67,31.28 C0.38,30.05 0.64,29.2 0.64,29.2 L9.34,1.75 C9.34,1.75 9.66,0.81 10.14,0.53 Z" id="Path" stroke="#979797" stroke-width="0.5" fill="#000000"></path>
            <path d="M12.75,1.58 C13.1732382,1.41858973 13.6180801,1.32085931 14.07,1.29 L31.16,1.54 C31.16,1.54 32.46,1.54 32.58,1.78 C32.71,2.02 31.61,2.42 31.61,2.42 L11.89,9.08 C11.89,9.08 11.32,9.35 10.92,9.09 C10.52,8.84 10.68,8.29 10.68,8.29 L12.11,2.37 C12.11,2.37 12.37,1.79 12.75,1.57 L12.75,1.58 Z" id="Path" fill="#696969"></path>
            <path d="M49.1899613,2.02 C49.1899613,1.8 51.15,1.73 51.15,1.73 L68.17,1.23 C68.17,1.23 69.1,1.2 69.8,1.66 C70.5,2.11 70.5,2.74 70.5,2.74 L72.1,7.89 C72.1,7.89 72.4,8.94 72.13,9.09 C71.86,9.26 70.56,8.82 70.56,8.82 L51.11,2.79 C51.11,2.79 49.18,2.23 49.1899613,2.02 Z" id="Path" fill="#696969"></path>
            <path d="M75.3,17.25 C76.2,17.52 76.34,18.59 76.34,18.59 L78.62,25.9 C78.62,25.9 79.18,27.08 78.65,27.53 C78.11,27.99 76.09,28.06 76.09,28.06 L55.36,28 C55.36,28 53.52,28.13 53.41,27.7 C53.29,27.26 54.96,26.5 54.96,26.5 L73.33,17.69 C73.33,17.69 74.41,16.98 75.3,17.24 L75.3,17.25 Z" id="Path" fill="#696969"></path>
            <path d="M8.3,16.58 C7.63,16.71 7.55,17.63 7.55,17.63 L5.3,25.1 C5.3,25.1 4.9,26.44 5.33,26.9 C5.76,27.34 7.5,27.43 7.5,27.43 L28.94,27.89 C28.94,27.89 30.69,27.97 30.84,27.59 C31,27.21 29.32,26.47 29.32,26.47 L10.02,17.13 C10.02,17.13 8.97,16.45 8.3,16.58 L8.3,16.58 Z" id="Path" fill="#696969"></path>
            <path d="M41.32,1.91980089 C40.5384656,1.97392525 39.7662536,2.12165276 39.02,2.36 L10.7,12.08 C10.7,12.08 8.65,12.8 8.61965385,13.4 C8.59,14 10.52,14.91 10.52,14.91 L38.32,27.44 C38.32,27.44 40.31,28.43 41.78,28.49 C42.889143,28.4541908 43.9787849,28.1885906 44.98,27.71 L73.28,14.91 C73.28,14.91 75.29,14.13 75.18,13.48 C75.08,12.84 72.84,12.28 72.84,12.28 L43.58,2.28 C43.58,2.28 42.31,1.91 41.32,1.91980089 Z" id="Path" fill="#FFED00"></path>
            <path d="M8.62,34.23 C8.85,33.83 10.74,33.79 10.74,33.79 L32.08,33.99 C32.08,33.99 33.39,33.92 33.62,34.44 C33.85,34.96 32.54,36.29 32.54,36.29 L24.16,43.94 C24.16,43.94 23.07,44.84 21.88,44.82 C20.68,44.81 19.51,43.89 19.51,43.89 L9.47,35.99 C9.47,35.99 8.39,34.64 8.62,34.23 L8.62,34.23 Z" id="Path" fill="#696969"></path>
            <path d="M47.68,35.2 C48.02,34.57 50.54,34.5 50.54,34.5 L75.73,34.07 C75.73,34.07 77,34.03 77.53,34.67 C78.05,35.32 77.55,36.3 77.55,36.3 C77.55,36.3 76.25,38.1 75.82,39.08 C75.38,40.05 74.42,42.26 74.42,42.26 C74.42,42.26 70.26,43.89 68.2,45.18 C66.3611323,46.44704 64.6073666,47.8333501 62.95,49.33 C62.95,49.33 61.24,50.61 60.35,50.67 C59.8023118,50.6868331 59.2804548,50.4370873 58.95,50 L48.85,37.7 C48.85,37.7 47.35,35.84 47.69,35.21 L47.68,35.2 Z" id="Path" fill="#696969"></path>
            <path d="M42.43,37.98 C41.64,37.77 40.69,38.83 40.69,38.83 L30.32,47.26 C30.32,47.26 29.12,47.83 29.25,48.88 C29.4594709,49.723017 29.848313,50.5109338 30.39,51.19 L51.18,71.36 C51.18,71.36 53.88,74.15 54.39,73.97 C54.91,73.79 54.77,72.16 54.84,71.3 C55.09,68.3 54.96,65.9 55.27,64.36 C55.87,61.38 57.03,59.96 57.03,59.96 C57.03,59.96 57.26,58.93 56.99,57.72 C56.72,56.51 55.92,55.8 55.92,55.8 L44.38,39.62 C44.38,39.62 43.21,38.19 42.43,37.98 Z" id="Path" fill="#EF7F1A"></path>
            <path d="M73.83,45.03 C73.67,44.81 73.29,44.79 72.91,44.93 C71.0862397,45.6759553 69.4353769,46.7890112 68.06,48.2 C66.88,49.35 65.46,51.42 63.78,54.4 C63.4639532,54.8708807 63.3159767,55.4346009 63.36,56 C63.5212968,56.7025891 63.7876247,57.3768369 64.15,58 C64.15,58 64.8,58.99 67.39,62.06 C69.98,65.13 72.31,68.65 72.31,68.65 C72.31,68.65 72.69,69.3 72.86,69.25 C73.03,69.22 73.11,68.45 73.11,68.45 C73.11,68.45 72.35,63.73 72.3,61.04 C72.25,58.34 72.66,52.52 72.66,52.52 C72.66,52.52 72,50.5 72.22,49.17 C72.5018042,48.0605188 72.9394935,46.9965973 73.52,46.01 C73.72,45.64 73.99,45.26 73.82,45.03 L73.83,45.03 Z" id="Path" fill="#EF7F1A"></path>
            <path d="M60.75,63.49 C60.75,63.49 61.11,62.25 61.75,61.99 C62.39,61.71 63.18,62.47 63.18,62.47 L73.08,74.2 C73.08,74.2 73.65,74.99 73.88,75.55 C74.11,76.11 74.45,77.52 74.45,77.52 L77.57,91.57 C77.57,91.57 77.47,92.53 77.25,92.63 C77.04,92.73 76.31,92.15 76.31,92.15 L64.17,80.02 C64.17,80.02 62.93,79 62.43,78.2 C61.94,77.4 61.35,75.43 61.35,75.43 L60.75,63.49 L60.75,63.49 Z" id="Path" fill="#EF7F1A"></path>
            <path d="M9.9,40 L17.36,46.16 L19.59,52.35 C19.59,52.35 19.9,53.67 19.78,54.25 C19.5729221,54.7732262 19.2674021,55.2518743 18.88,55.66 L11.79,61.24 C11.79,61.24 9.94,61.96 9.39,61.6 C8.84,61.24 9,59.26 9,59.26 C9,59.26 9.76,53.02 10.05,48.75 C10.34,44.47 9.89,40 9.89,40 L9.9,40 Z" id="Path" fill="#009846"></path>
            <path d="M8.85,73.81 C8.85,73.81 9.08,72.2 9.41,71.58 C9.75742966,71.0878054 10.1993477,70.6696829 10.71,70.35 L19.36,63.73 C19.36,63.73 20.66,63.01 21.21,63.1 C21.76,63.2 22.67,64.31 22.67,64.31 L32.73,92.75 C32.73,92.75 33.11,95.19 32.61,95.96 C32.11,96.73 30.07,96.84 30.07,96.84 L10.07,96.05 C10.07,96.05 7.8,95.76 7.23,95.1 C6.66,94.43 6.87,92.33 6.87,92.33 L8.85,73.81 L8.85,73.81 Z" id="Path" fill="#009846"></path>
            <path d="M26.18,54.65 L52.51,80.28 C52.51,80.28 53.4300836,81.08 53.4300836,81.5 C53.44,81.93 52.55,82.54 52.55,82.54 C52.55,82.54 49.4,84.48 47.74,85.97 C46.6109706,87.0361449 45.610812,88.2309652 44.76,89.53 C44.76,89.53 43.26,90.69 42.55,90.7000672 C41.83,90.71 40.53,89.6 40.53,89.6 C40.53,89.6 37.02,82.86 35.36,79.46 C33.71,76.06 31,70 31,70 C31,70 28.52,64.3 27.62,62.51 C26.72,60.73 25.91,59.91 25.5,58.91 C25.09,57.89 25.88,55.88 25.88,55.88 L26.19,54.65 L26.18,54.65 Z" id="Path" fill="#009846"></path>
            <path d="M49.48,94.15 L56.28,87.35 C56.28,87.35 57.95,86.24 58.84,86.16 C59.72,86.08 61.15,86.93 61.15,86.93 L70.02,93.31 C70.02,93.31 71.4,94.19 71.42,95.08 C71.42,95.96 69.49,96.3 69.49,96.3 L50.43,96.63 C50.43,96.63 49.42,96.3 49.07,95.83 C48.73,95.34 49.47,94.15 49.47,94.15 L49.48,94.15 Z" id="Path" fill="#009846"></path>
        </g>
    </g>
</svg>