<?xml version="1.0" encoding="UTF-8"?>
<svg width="93px" height="100px" viewBox="0 0 93 100" version="1.1" xmlns="http://www.w3.org/2000/svg" xmlns:xlink="http://www.w3.org/1999/xlink">
    <title>tw_skewb_2_1</title>
    <g id="twisty_skewb" stroke="none" stroke-width="1" fill="none" fill-rule="evenodd">
        <g id="tw_skewb_2_1" fill-rule="nonzero">
            <path d="M1.85,10.16 L44.23,0.44 C44.23,0.44 45.8,0 46.7,0 C47.6,0 49.35,0.44 49.35,0.44 L89.7,12 C89.7,12 92.56,13.06 92.91,13.92 C93.27,14.78 91.47,16.83 91.47,16.83 C91.47,16.83 69.47,31.68 68.83,42.95 C68.2,54.21 82.84,66.36 82.84,66.36 C82.84,66.36 84.78,68.16 85.06,69.08 C85.33,69.99 84.46,71.06 84.46,71.06 L47.28,98.79 C47.28,98.79 45.88,99.96 45.16,99.96 C44.43,99.96 43.08,98.79 43.08,98.79 L5.13,70.66 C5.13,70.66 4,69.3 3.82,68.48 C3.64,67.67 4.15,66.36 4.15,66.36 L18.44,45.96 L0.81,13.91 C0.81,13.91 -0.15,12.15 0.03,11.5 C0.21,10.84 1.85,10.16 1.85,10.16 Z" id="Path" fill="#000000"></path>
            <path d="M6.73,9.8 L20.43,6.7 C21.36,6.4 21.73,6.63 21.58,7.32 L18.58,15.02 C18.58,15.02 18.21,15.84 17.81,15.98 C17.41,16.13 16.49,15.77 16.49,15.77 L6.41,10.97 C6.41,10.97 5.61,10.54 5.66,10.34 C5.72,10.14 6.73,9.79 6.73,9.79 L6.73,9.8 Z" id="Path" fill="#FFFFFF"></path>
            <path d="M45.15,0.96 C45.15,0.96 46.08,0.7 46.7,0.7 C47.2347907,0.733376554 47.7644736,0.823891986 48.28,0.97 L57.54,3.87 C57.54,3.87 58.89,4.4 58.89,4.52 C58.89,4.85 57.54,4.8 57.54,4.8 L35.67,4.12 C35.67,4.12 34.05,4.03 33.92,3.86 C33.79,3.68 34.98,3.16 34.98,3.16 L45.15,0.96 L45.15,0.96 Z" id="Path" fill="#696969"></path>
            <path d="M71.98,8.05 L85.93,11.67 C85.93,11.67 86.96,12.17 86.96,12.42 C86.96,12.67 85.94,13.12 85.94,13.12 L76.79,16.43 C76.79,16.43 75.65,16.86 75.18,16.78 C74.71,16.69 74.13,15.96 74.13,15.96 L70.76,8.86 C70.76,8.86 70.3,8 70.54,7.85 C70.77,7.69 71.98,8.05 71.98,8.05 Z" id="Path" fill="#696969"></path>
            <path d="M32.15,21.04 L60.54,21.6 C60.54,21.6 62.74,21.7 62.84,21.95 C62.94,22.2 61.06,22.91 61.06,22.91 L48.89,27.44 C48.89,27.44 47.24,28.03 46.4,28.03 C45.56,28.03 43.94,27.43 43.94,27.43 L32.14,22.16 C32.14,22.16 30.22,21.48 30.22,21.28 C30.22,21.08 32.15,21.04 32.15,21.04 L32.15,21.04 Z" id="Path" fill="#696969"></path>
            <path d="M28.67,5.13 L63.29,6.03 C63.29,6.03 64.79,6.16 65.37,6.38 C65.95,6.61 66.37,7.21 66.37,7.21 L70.03,18.35 C70.03,18.35 70.43,19.51 70.03,19.85 C69.63,20.18 67.76,20.24 67.76,20.24 L24.89,19 C22.67,18.98 21.68,18.34 22.47,16.78 L26.24,6.56 C26.24,6.56 26.49,5.56 26.94,5.29 C27.39,5.03 28.67,5.12 28.67,5.12 L28.67,5.13 Z" id="Path" fill="#FFFFFF"></path>
            <path d="M3.73,15.14 L12.86,19.95 C12.86,19.95 13.92,20.62 14.26,21.05 C14.6780882,21.58127 14.8088908,22.2838668 14.61,22.93 C14.6,23.67 13.97,24.36 13.34,25.25 C12.7,26.13 11.01,27.65 11.01,27.65 C11.01,27.65 10.13,28.13 9.7,28.03 C9.26,27.92 8.5,27.03 8.5,27.03 L2.67,16.6 C2.67,16.6 2.21,15.21 2.4,14.95 C2.6,14.69 3.73,15.15 3.73,15.15 L3.73,15.14 Z" id="Path" fill="#696969"></path>
            <path d="M26.33,25.9 L38.05,31.1 C38.05,31.1 39.77,31.69 40.71,32.23 C41.5875936,32.8010078 42.4291868,33.4255234 43.23,34.1 L52.34,43.13 C52.34,43.13 53.5,44.09 53.5,44.54 C53.5,45 52.34,45.36 52.34,45.36 C52.34,45.36 49.37,46.78 48.04,47.63 C46.71,48.47 46.51,49.03 45.68,49.03 C44.86,49.03 43.23,47.63 43.23,47.63 L26.33,29.63 C26.33,29.63 24.26,26.69 24.26,25.91 C24.26,25.13 26.33,25.91 26.33,25.91 L26.33,25.9 Z" id="Path" fill="#696969"></path>
            <path d="M20.07,28.04 C20.07,28.04 20.69,27.14 21.07,27.14 C21.46,27.14 22.2,28.04 22.2,28.04 C22.2,28.04 31.94,40.31 34.53,44.06 C37.13,47.81 39.8,52.13 39.8,52.13 C39.8,52.13 40.55,53.83 40.55,54.63 C40.55,55.43 39.8,56.65 39.8,56.65 L33.25,64.17 C33.25,64.17 31.66,65.64 30.95,65.64 C30.22,65.64 29.25,64.17 29.25,64.17 L27.19,57.31 C27.19,57.31 26.41,53.34 23.19,46.75 C21.0652357,42.4905698 18.663415,38.3750716 16,34.43 C16,34.43 15.16,33.08 15.27,32.47 C15.38,31.86 16.59,31.12 16.59,31.12 C16.59,31.12 17.79,30.42 18.43,29.86 C19.08,29.29 20.06,28.04 20.06,28.04 L20.07,28.04 Z" id="Path" fill="#696969"></path>
            <path d="M44.03,62.64 C44.03,62.64 45.7,60.3 46.7,60.3 C47.7,60.3 49.4,62.64 49.4,62.64 L62.14,80.97 C62.14,80.97 63.67,83.36 63.67,84.23 C63.67,85.11 62.14,86.04 62.14,86.04 L49.4,94.07 C49.4,94.07 47.42,95.25 46.7,95.04 C46,94.82 45.15,92.79 45.15,92.79 L38.88,76.44 C38.88,76.44 37.87,74.58 37.87,73.54 C37.87,72.51 38.88,71 38.88,71 L44.03,62.64 L44.03,62.64 Z" id="Path" fill="#696969"></path>
            <path d="M54.4,49.02 C54.4,49.02 56.12,48.02 57.21,48.2 C58.31,48.38 60.23,49.98 60.23,49.98 C60.23,49.98 64.13,55.21 66.53,57.61 C68.93,60.01 73.38,63.14 73.38,63.14 C73.38,63.14 74.72,63.99 74.84,64.69 C74.95,65.39 73.92,66.43 73.92,66.43 C73.92,66.43 70.68,70.46 69.84,71.8 C69,73.13 69.12,74.39 68.7,75.3 C68.28,76.2 67.8,76.61 67.27,76.73 C66.74,76.85 65.59,75.96 65.59,75.96 L61.69,71.25 L50.38,57.61 C50.38,57.61 48.93,55.98 48.78,55.27 C48.63,54.57 49.54,53.7 49.54,53.7 L54.39,49.02 L54.4,49.02 Z" id="Path" fill="#696969"></path>
            <path d="M76.19,67.36 C76.19,67.36 76.88,66.81 77.31,66.69 C77.7242175,66.6261104 78.1457825,66.6261104 78.56,66.69 L81.73,69.09 C81.73,69.09 82.66,70.02 82.66,70.55 C82.66,71.07 81.73,71.77 81.73,71.77 L73.46,77.68 C73.46,77.68 71.78,78.78 71.42,78.6 C71.07,78.43 71.54,76.75 71.54,76.75 C71.54,76.75 73.01,72.97 73.88,71.21 C74.5706484,69.8827542 75.3386368,68.5972084 76.18,67.36 L76.19,67.36 Z" id="Path" fill="#696969"></path>
            <path d="M5.9,65.64 L15.75,51.66 C15.75,51.66 16.27,50.71 17.35,49.98 C18.43,49.25 19.63,49.02 19.63,49.02 L21.47,52.44 L18.03,74.69 C18.03,74.69 17.96,76.19 17.35,76.75 C16.74,77.3 15.75,76.75 15.75,76.75 L6.35,68.45 C6.35,68.45 5.5,67.78 5.41,67.27 C5.33,66.77 5.9,65.64 5.9,65.64 Z" id="Path" fill="#696969"></path>
            <path d="M22.94,55.85 L22.39,73.2 C22.39,73.2 22.69,75.27 23.44,76.04 C24.18,76.81 25.14,76.04 25.14,76.04 C25.14,76.04 26.8,74.21 27.5,73.64 C28.2,73.09 29.18,73.21 29.34,72.64 C29.51,72.06 28.78,70.24 28.78,70.24 L22.94,55.86 L22.94,55.85 Z" id="Path" fill="#696969"></path>
            <path d="M26.42,80.94 L29.94,78.17 C29.94,78.17 30.99,77.6 31.52,77.68 C32.05,77.76 32.99,78.63 32.99,78.63 L38.89,90.81 C38.89,90.81 39.09,91.89 38.89,92.17 C38.68,92.44 37.87,92.17 37.87,92.17 L26.42,83.39 C26.42,83.39 25.89,82.67 25.89,82.25 C25.89,81.83 26.42,80.95 26.42,80.95 L26.42,80.94 Z" id="Path" fill="#696969"></path>
            <path d="M52.4,31.55 L65.17,27.13 C65.17,27.13 66.39,26.72 66.67,26.87 C66.93,27.02 66.34,28.34 66.34,28.34 L58.89,39.04 C58.89,39.04 58.23,40.04 57.84,40.14 C57.44,40.24 56.58,39.64 56.58,39.64 L51.56,34.74 C51.56,34.74 50.62,33.42 50.77,32.87 C50.93,32.31 52.4,31.55 52.4,31.55 L52.4,31.55 Z" id="Path" fill="#696969"></path>
            <path d="M69.78,29.25 L64.06,38.77 C64.06,38.77 63,40.35 62.84,41.1 C62.7,41.86 63.29,42.88 63.29,42.88 L73.06,56.77 C73.06,56.77 69.2,49.46 68.66,45.59 C68.12,41.73 70.23,36.47 70.23,36.47 L71.86,30.52 C71.86,30.52 72.31,28.48 71.62,28.06 C70.94,27.64 69.78,29.24 69.78,29.24 L69.78,29.25 Z" id="Path" fill="#696969"></path>
            <path d="M75.76,24.53 L72.04,33.77 C72.04,33.77 77.64,27.43 80.84,24.53 C84.03,21.63 89.59,17.86 89.59,17.86 C89.59,17.86 90.34,17.16 90.24,17.06 C90.14,16.96 89.07,17.36 89.07,17.36 L78.71,21.7 C78.71,21.7 77.48,22.1 76.96,22.6 C76.44,23.1 75.76,24.53 75.76,24.53 L75.76,24.53 Z" id="Path" fill="#696969"></path>
        </g>
    </g>
</svg>