<?xml version="1.0" encoding="UTF-8"?>
<svg width="210px" height="100px" viewBox="0 0 210 100" version="1.1" xmlns="http://www.w3.org/2000/svg" xmlns:xlink="http://www.w3.org/1999/xlink">
    <title>accel_20_1</title>
    <g id="accel_20_1" stroke="none" stroke-width="1" fill="none" fill-rule="evenodd">
        <g id="pll" transform="translate(110.000000, 0.000000)">
            <rect id="background" fill="#000000" x="0" y="0" width="100" height="100"></rect>
            <g id="vertical" transform="translate(50.000000, 50.000000) rotate(90.000000) translate(-50.000000, -50.000000) translate(14.000000, 5.000000)">
                <rect id="L3" fill="#009A0E" x="50" y="86" width="22" height="4"></rect>
                <rect id="L2" fill="#D0021B" x="25" y="86" width="22" height="4"></rect>
                <rect id="L1" fill="#D0021B" x="0" y="86" width="22" height="4"></rect>
                <rect id="R3" fill="#025AC1" x="50" y="0" width="22" height="4"></rect>
                <rect id="R2" fill="#FF8100" x="25" y="0" width="22" height="4"></rect>
                <rect id="R1" fill="#D0021B" x="0" y="0" width="22" height="4"></rect>
            </g>
            <g id="horizontal" transform="translate(14.000000, 5.000000)">
                <rect id="B3" fill="#FF8100" x="50" y="86" width="22" height="4"></rect>
                <rect id="B2" fill="#009A0E" x="25" y="86" width="22" height="4"></rect>
                <rect id="B1" fill="#FF8100" x="0" y="86" width="22" height="4"></rect>
                <rect id="T3" fill="#009A0E" x="50" y="0" width="22" height="4"></rect>
                <rect id="T2" fill="#025AC1" x="25" y="0" width="22" height="4"></rect>
                <rect id="T1" fill="#025AC1" x="0" y="0" width="22" height="4"></rect>
            </g>
            <g id="front" transform="translate(14.000000, 14.000000)" fill="#FFDB11">
                <rect id="f9" x="50" y="50" width="22" height="22"></rect>
                <rect id="f8" x="25" y="50" width="22" height="22"></rect>
                <rect id="f7" x="0" y="50" width="22" height="22"></rect>
                <rect id="f6" x="50" y="25" width="22" height="22"></rect>
                <rect id="f5" x="25" y="25" width="22" height="22"></rect>
                <rect id="f4" x="0" y="25" width="22" height="22"></rect>
                <rect id="f3" x="50" y="0" width="22" height="22"></rect>
                <rect id="f2" x="25" y="0" width="22" height="22"></rect>
                <rect id="f1" x="0" y="0" width="22" height="22"></rect>
            </g>
        </g>
        <path id="Line-Copy" d="M187.302542,21.6527566 L187.371576,21.7597388 L194.121576,33.7597388 C194.392339,34.2410966 194.221619,34.8508117 193.740261,35.1215755 C193.293286,35.3729991 192.735636,35.2437553 192.441463,34.838607 L192.378424,34.7402612 L187.5,26.067 L187.5,71 C187.5,71.5522847 187.052285,72 186.5,72 C185.987164,72 185.564493,71.6139598 185.506728,71.1166211 L185.5,71 L185.5,26.067 L180.621576,34.7402612 C180.370152,35.1872364 179.826469,35.3663659 179.364681,35.1728866 L179.259739,35.1215755 C178.812764,34.870152 178.633634,34.3264695 178.827113,33.8646812 L178.878424,33.7597388 L185.628424,21.7597388 C185.989489,21.1178455 186.882385,21.0821848 187.302542,21.6527566 Z" fill="#D0021B" fill-rule="nonzero"></path>
        <path id="Line-Copy-2" d="M176.054728,68.9484322 L176.160171,68.9987064 L188.226128,75.6300864 C188.871549,75.9848063 188.91601,76.8773066 188.349608,77.3030679 L188.243311,77.3731528 L176.310433,84.2411168 C175.831768,84.5166125 175.2204,84.3519109 174.944904,83.8732456 C174.689086,83.4287706 174.812827,82.8698731 175.215056,82.571721 L175.312775,82.5077161 L183.936,77.543 L175.768958,77.6245575 L142.665828,77.9508929 C142.11357,77.9563371 141.661463,77.5130571 141.656019,76.9607991 C141.650963,76.4479882 142.032818,76.021532 142.529563,75.9588671 L142.646112,75.9509901 L175.749243,75.6246546 L183.916,75.543 L175.19688,70.7514384 C174.747448,70.5044332 174.562968,69.9625429 174.751886,69.4988698 L174.80216,69.3934267 C175.049165,68.9439948 175.591055,68.7595146 176.054728,68.9484322 Z" fill="#D0021B" fill-rule="nonzero"></path>
        <path id="Line" d="M184.570487,20.2832838 C184.949761,20.623943 185.007831,21.1888747 184.724255,21.5969398 L184.646231,21.6954675 L141.310541,69.9433681 L135.885,75.983 L145.309497,72.7917502 C145.795225,72.6272229 146.319403,72.8572564 146.53367,73.3097739 L146.577456,73.4180722 C146.741984,73.9037998 146.51195,74.4279779 146.059433,74.6422451 L145.951134,74.6860315 L132.910741,79.1031173 C132.207335,79.3413776 131.513521,78.7596334 131.595663,78.0462226 L131.6139,77.9383095 L134.610778,64.5002583 C134.730992,63.9612157 135.265426,63.6216882 135.804468,63.7419024 C136.305008,63.85353 136.633517,64.3223158 136.581642,64.8203034 L136.562824,64.9355927 L134.396,74.648 L139.822613,68.6069288 L183.158303,20.3590282 C183.527351,19.9481482 184.159607,19.9142362 184.570487,20.2832838 Z" fill="#D0021B" fill-rule="nonzero"></path>
        <g id="r_cube" transform="translate(1.000000, 0.000000)">
            <polygon id="background" fill="#000000" points="0.0854215024 19.2754025 9.18778033 80.8860643 63.8334869 99.9205349 97.7492091 67.4145347 97.7492091 7.4982769 42.6407163 0.144627068"></polygon>
            <g id="right" transform="translate(60.983696, 9.308511)">
                <polygon id="R9" fill="#FF8100" points="27.2201039 48.838316 35.9348915 41.1795159 36.0210822 57.6479555 27.2201039 66.0535841"></polygon>
                <polygon id="R8" fill="#FF8100" points="15.6196313 58.5415116 25.7330768 50 25.7302174 67.3689651 15.9343021 76.6814763"></polygon>
                <polygon id="R7" fill="#025AC1" points="2.67128246 69.883141 14.0624675 59.982313 14.602706 77.9838066 3.48164027 88.4728487"></polygon>
                <polygon id="R6" fill="#FF8100" points="27.040506 28.0820037 35.8749802 21.2376166 35.8749802 38.8297872 27.0832797 46.4651225"></polygon>
                <polygon id="R5" fill="#FF8100" points="14.9435931 37.0234456 25.2776078 29.1398038 25.5897369 47.643415 15.395011 56.2598642"></polygon>
                <polygon id="R4" fill="#FF8100" points="1.40135688 47.4928117 13.1785569 38.5638298 13.8096869 57.2994033 2.51742399 67.205335"></polygon>
                <polygon id="R3" fill="#FF8100" points="26.7020359 5.94243637 35.9377459 0.0426246969 35.9377459 18.8829787 26.7020359 26.020845"></polygon>
                <polygon id="R2" fill="#FF8100" points="13.9594083 13.8297872 25.1576093 6.83962562 25.1576093 26.7708053 14.6785215 34.3540275"></polygon>
                <polygon id="R1" fill="#D0021B" points="0.0464490684 22.8723404 12.3681756 14.9902898 13.05573 35.6921627 0.978849421 44.8704483"></polygon>
            </g>
            <g id="front" transform="translate(1.065217, 20.744681)" fill="#FFDB11">
                <polygon id="F9" points="6.29883305 42.3226202 21.3799138 47.041563 23.398592 64.382663 8.79345967 59.331619"></polygon>
                <polygon id="F8" points="23.4625726 47.5277112 40.0088827 52.8268331 41.6320094 70.813173 25.6079822 65.2388424"></polygon>
                <polygon id="F7" points="42.3797847 53.3369243 60.2560433 58.9864476 61.4169678 77.6420459 43.864688 71.4300957"></polygon>
                <polygon id="F6" points="3.20067404 21.7621257 18.8129962 26.1074009 21.0825437 44.6711645 5.94030863 40.1202258"></polygon>
                <polygon id="F5" points="21.0728479 26.6414973 38.1471447 30.8565318 39.7588637 50.2750964 23.359523 45.3062958"></polygon>
                <polygon id="F4" points="40.5979007 31.6624024 59.0589945 36.4720917 60.0370154 56.4262848 41.9413484 50.9831619"></polygon>
                <polygon id="F3" points="0.192976496 0.181118774 16.0362392 3.3991474 18.3354846 23.414355 3.04729983 19.7400699"></polygon>
                <polygon id="F2" points="18.2139576 3.78276638 35.7425781 7.44680851 37.8609006 28.4557501 20.6190996 24.087665"></polygon>
                <polygon id="F1" points="38.4802589 7.8782454 57.6731362 11.9680851 58.6961519 33.706413 40.1228283 29.0005437"></polygon>
            </g>
            <g id="up" transform="translate(1.864130, 0.531915)">
                <polygon id="U9" fill="#025AC1" points="40.865668 0.129202186 55.5051873 2.17120252 44.8602357 7.42323129 29.820185 5.16249398"></polygon>
                <polygon id="U8" fill="#025AC1" points="28.0945786 5.846608 43.4520809 8.15805907 31.2807015 14.2028871 15.7639214 11.4868844"></polygon>
                <polygon id="U7" fill="#025AC1" points="13.9897191 12.3201531 29.404022 14.9948997 15.8910428 21.6753917 0.244836519 18.5399216"></polygon>
                <polygon id="U6" fill="#025AC1" points="31.6617109 15.3143252 48.9643949 18.323725 35.6031812 25.6954795 18.0155823 22.1782568"></polygon>
                <polygon id="U5" fill="#025AC1" points="45.4752071 8.54105105 62.0825356 11.1338164 50.4669796 17.4727497 33.4784644 14.4968153"></polygon>
                <polygon id="U4" fill="#025AC1" points="57.7886006 2.4524879 73.7966683 4.6693439 63.6774916 10.3540214 46.8879026 7.75452754"></polygon>
                <polygon id="U3" fill="#025AC1" points="76.3461867 4.98249394 93.8219117 7.4099587 84.1528899 13.373868 66.4170714 10.6282953"></polygon>
                <polygon id="U2" fill="#025AC1" points="64.4549352 11.3912692 82.5320487 14.2383002 71.567524 21.1626109 52.9462887 17.8546793"></polygon>
                <polygon id="U1" fill="#009A0E" points="51.2440686 18.8958226 69.8545425 22.1651172 57.4958847 30.0498663 38.0270453 26.1848921"></polygon>
            </g>
        </g>
    </g>
</svg>