<?xml version="1.0" encoding="UTF-8"?>
<svg width="210px" height="100px" viewBox="0 0 210 100" version="1.1" xmlns="http://www.w3.org/2000/svg" xmlns:xlink="http://www.w3.org/1999/xlink">
    <title>accel_19_1</title>
    <g id="accel_19_1" stroke="none" stroke-width="1" fill="none" fill-rule="evenodd">
        <g id="r_cube" transform="translate(1.000000, 0.000000)">
            <polygon id="background" fill="#000000" points="0.0854215024 19.2754025 9.18778033 80.8860643 63.8334869 99.9205349 97.7492091 67.4145347 97.7492091 7.4982769 42.6407163 0.144627068"></polygon>
            <g id="right" transform="translate(60.983696, 9.308511)">
                <polygon id="R9" fill="#009A0E" points="27.2201039 48.838316 35.9348915 41.1795159 36.0210822 57.6479555 27.2201039 66.0535841"></polygon>
                <polygon id="R8" fill="#009A0E" points="15.6196313 58.5415116 25.7330768 50 25.7302174 67.3689651 15.9343021 76.6814763"></polygon>
                <polygon id="R7" fill="#009A0E" points="2.67128246 69.883141 14.0624675 59.982313 14.602706 77.9838066 3.48164027 88.4728487"></polygon>
                <polygon id="R6" fill="#009A0E" points="27.040506 28.0820037 35.8749802 21.2376166 35.8749802 38.8297872 27.0832797 46.4651225"></polygon>
                <polygon id="R5" fill="#009A0E" points="14.9435931 37.0234456 25.2776078 29.1398038 25.5897369 47.643415 15.395011 56.2598642"></polygon>
                <polygon id="R4" fill="#009A0E" points="1.40135688 47.4928117 13.1785569 38.5638298 13.8096869 57.2994033 2.51742399 67.205335"></polygon>
                <polygon id="R3" fill="#D0021B" points="26.7020359 5.94243637 35.9377459 0.0426246969 35.9377459 18.8829787 26.7020359 26.020845"></polygon>
                <polygon id="R2" fill="#FF8100" points="13.9594083 13.8297872 25.1576093 6.83962562 25.1576093 26.7708053 14.6785215 34.3540275"></polygon>
                <polygon id="R1" fill="#FF8100" points="0.0464490684 22.8723404 12.3681756 14.9902898 13.05573 35.6921627 0.978849421 44.8704483"></polygon>
            </g>
            <g id="front" transform="translate(1.065217, 20.744681)">
                <polygon id="F9" fill="#D0021B" points="6.29883305 42.3226202 21.3799138 47.041563 23.398592 64.382663 8.79345967 59.331619"></polygon>
                <polygon id="F8" fill="#D0021B" points="23.4625726 47.5277112 40.0088827 52.8268331 41.6320094 70.813173 25.6079822 65.2388424"></polygon>
                <polygon id="F7" fill="#D0021B" points="42.3797847 53.3369243 60.2560433 58.9864476 61.4169678 77.6420459 43.864688 71.4300957"></polygon>
                <polygon id="F6" fill="#D0021B" points="3.20067404 21.7621257 18.8129962 26.1074009 21.0825437 44.6711645 5.94030863 40.1202258"></polygon>
                <polygon id="F5" fill="#D0021B" points="21.0728479 26.6414973 38.1471447 30.8565318 39.7588637 50.2750964 23.359523 45.3062958"></polygon>
                <polygon id="F4" fill="#D0021B" points="40.5979007 31.6624024 59.0589945 36.4720917 60.0370154 56.4262848 41.9413484 50.9831619"></polygon>
                <polygon id="F3" fill="#D0021B" points="0.192976496 0.181118774 16.0362392 3.3991474 18.3354846 23.414355 3.04729983 19.7400699"></polygon>
                <polygon id="F2" fill="#D0021B" points="18.2139576 3.78276638 35.7425781 7.44680851 37.8609006 28.4557501 20.6190996 24.087665"></polygon>
                <polygon id="F1" fill="#009A0E" points="38.4802589 7.8782454 57.6731362 11.9680851 58.6961519 33.706413 40.1228283 29.0005437"></polygon>
            </g>
            <g id="up" transform="translate(1.864130, 0.531915)" fill="#FFDB11">
                <polygon id="U9" points="40.865668 0.129202186 55.5051873 2.17120252 44.8602357 7.42323129 29.820185 5.16249398"></polygon>
                <polygon id="U8" points="28.0945786 5.846608 43.4520809 8.15805907 31.2807015 14.2028871 15.7639214 11.4868844"></polygon>
                <polygon id="U7" points="13.9897191 12.3201531 29.404022 14.9948997 15.8910428 21.6753917 0.244836519 18.5399216"></polygon>
                <polygon id="U6" points="31.6617109 15.3143252 48.9643949 18.323725 35.6031812 25.6954795 18.0155823 22.1782568"></polygon>
                <polygon id="U5" points="45.4752071 8.54105105 62.0825356 11.1338164 50.4669796 17.4727497 33.4784644 14.4968153"></polygon>
                <polygon id="U4" points="57.7886006 2.4524879 73.7966683 4.6693439 63.6774916 10.3540214 46.8879026 7.75452754"></polygon>
                <polygon id="U3" points="76.3461867 4.98249394 93.8219117 7.4099587 84.1528899 13.373868 66.4170714 10.6282953"></polygon>
                <polygon id="U2" points="64.4549352 11.3912692 82.5320487 14.2383002 71.567524 21.1626109 52.9462887 17.8546793"></polygon>
                <polygon id="U1" points="51.2440686 18.8958226 69.8545425 22.1651172 57.4958847 30.0498663 38.0270453 26.1848921"></polygon>
            </g>
        </g>
        <g id="pll" transform="translate(110.000000, 0.000000)">
            <rect id="background" fill="#000000" x="0" y="0" width="100" height="100"></rect>
            <g id="vertical" transform="translate(50.000000, 50.000000) rotate(90.000000) translate(-50.000000, -50.000000) translate(14.000000, 5.000000)">
                <rect id="L3" fill="#025AC1" x="50" y="86" width="22" height="4"></rect>
                <rect id="L2" fill="#025AC1" x="25" y="86" width="22" height="4"></rect>
                <rect id="L1" fill="#025AC1" x="0" y="86" width="22" height="4"></rect>
                <rect id="R3" fill="#FF8100" x="50" y="0" width="22" height="4"></rect>
                <rect id="R2" fill="#FF8100" x="25" y="0" width="22" height="4"></rect>
                <rect id="R1" fill="#D0021B" x="0" y="0" width="22" height="4"></rect>
            </g>
            <g id="horizontal" transform="translate(14.000000, 5.000000)">
                <rect id="B3" fill="#009A0E" x="50" y="86" width="22" height="4"></rect>
                <rect id="B2" fill="#D0021B" x="25" y="86" width="22" height="4"></rect>
                <rect id="B1" fill="#D0021B" x="0" y="86" width="22" height="4"></rect>
                <rect id="T3" fill="#009A0E" x="50" y="0" width="22" height="4"></rect>
                <rect id="T2" fill="#009A0E" x="25" y="0" width="22" height="4"></rect>
                <rect id="T1" fill="#FF8100" x="0" y="0" width="22" height="4"></rect>
            </g>
            <g id="front" transform="translate(14.000000, 14.000000)" fill="#FFDB11">
                <rect id="f9" x="50" y="50" width="22" height="22"></rect>
                <rect id="f8" x="25" y="50" width="22" height="22"></rect>
                <rect id="f7" x="0" y="50" width="22" height="22"></rect>
                <rect id="f6" x="50" y="25" width="22" height="22"></rect>
                <rect id="f5" x="25" y="25" width="22" height="22"></rect>
                <rect id="f4" x="0" y="25" width="22" height="22"></rect>
                <rect id="f3" x="50" y="0" width="22" height="22"></rect>
                <rect id="f2" x="25" y="0" width="22" height="22"></rect>
                <rect id="f1" x="0" y="0" width="22" height="22"></rect>
            </g>
        </g>
        <path id="Line-Copy" d="M186.302542,19.6527566 L186.371576,19.7597388 L193.121576,31.7597388 C193.392339,32.2410966 193.221619,32.8508117 192.740261,33.1215755 C192.293286,33.3729991 191.735636,33.2437553 191.441463,32.838607 L191.378424,32.7402612 L186.5,24.067 L186.5,76.352 L191.378424,67.6792034 C191.629848,67.2322282 192.173531,67.0530988 192.635319,67.246578 L192.740261,67.2978891 C193.187236,67.5493126 193.366366,68.0929952 193.172887,68.5547834 L193.121576,68.6597258 L186.371576,80.6597258 C186.010511,81.3016191 185.117615,81.3372798 184.697458,80.7667081 L184.628424,80.6597258 L177.878424,68.6597258 C177.607661,68.178368 177.778381,67.5686529 178.259739,67.2978891 C178.706714,67.0464655 179.264364,67.1757094 179.558537,67.5808576 L179.621576,67.6792034 L184.5,76.352 L184.5,24.067 L179.621576,32.7402612 C179.370152,33.1872364 178.826469,33.3663659 178.364681,33.1728866 L178.259739,33.1215755 C177.812764,32.870152 177.633634,32.3264695 177.827113,31.8646812 L177.878424,31.7597388 L184.628424,19.7597388 C184.989489,19.1178455 185.882385,19.0821848 186.302542,19.6527566 Z" fill="#D0021B" fill-rule="nonzero"></path>
        <path id="Line-Copy-3" d="M156.655902,19.4772422 L156.762302,19.5028723 L169.961879,23.4186926 C170.491356,23.5757685 170.793247,24.1323294 170.636171,24.6618061 C170.490315,25.1534631 170.000004,25.448885 169.506776,25.3628159 L169.393057,25.3360975 L159.854,22.506 L165.534636,28.3648624 L181.901165,45.242846 L187.583,51.102 L185.047189,41.4794211 C184.916526,40.98351 185.182136,40.4764306 185.648344,40.2938574 L185.759402,40.2576384 C186.255313,40.1269756 186.762393,40.3925853 186.944966,40.858793 L186.981185,40.9698512 L190.489107,54.2836404 C190.678327,55.0017943 190.050152,55.6538683 189.344098,55.5227578 L189.237698,55.4971277 L176.038121,51.5813074 C175.508644,51.4242315 175.206753,50.8676706 175.363829,50.3381939 C175.509685,49.8465369 175.999996,49.551115 176.493224,49.6371841 L176.606943,49.6639025 L186.145,52.493 L180.465364,46.6351376 L164.098835,29.757154 L158.416,23.897 L160.952811,33.5205789 C161.083474,34.01649 160.817864,34.5235694 160.351656,34.7061426 L160.240598,34.7423616 C159.744687,34.8730244 159.237607,34.6074147 159.055034,34.141207 L159.018815,34.0301488 L155.510893,20.7163596 C155.321673,19.9982057 155.949848,19.3461317 156.655902,19.4772422 Z" fill="#025AC1" fill-rule="nonzero"></path>
    </g>
</svg>