<?xml version="1.0" encoding="UTF-8"?>
<svg width="210px" height="100px" viewBox="0 0 210 100" version="1.1" xmlns="http://www.w3.org/2000/svg" xmlns:xlink="http://www.w3.org/1999/xlink">
    <title>accel_16_1</title>
    <g id="accel_16_1" stroke="none" stroke-width="1" fill="none" fill-rule="evenodd">
        <g id="pll" transform="translate(110.000000, 0.000000)">
            <rect id="background" fill="#000000" x="0" y="0" width="100" height="100"></rect>
            <g id="vertical" transform="translate(50.000000, 50.000000) rotate(90.000000) translate(-50.000000, -50.000000) translate(14.000000, 5.000000)">
                <rect id="L3" fill="#025AC1" x="50" y="86" width="22" height="4"></rect>
                <rect id="L2" fill="#025AC1" x="25" y="86" width="22" height="4"></rect>
                <rect id="L1" fill="#025AC1" x="0" y="86" width="22" height="4"></rect>
                <rect id="R3" fill="#FF8100" x="50" y="0" width="22" height="4"></rect>
                <rect id="R2" fill="#D0021B" x="25" y="0" width="22" height="4"></rect>
                <rect id="R1" fill="#D0021B" x="0" y="0" width="22" height="4"></rect>
            </g>
            <g id="horizontal" transform="translate(14.000000, 5.000000)">
                <rect id="B3" fill="#009A0E" x="50" y="86" width="22" height="4"></rect>
                <rect id="B2" fill="#009A0E" x="25" y="86" width="22" height="4"></rect>
                <rect id="B1" fill="#D0021B" x="0" y="86" width="22" height="4"></rect>
                <rect id="T3" fill="#009A0E" x="50" y="0" width="22" height="4"></rect>
                <rect id="T2" fill="#FF8100" x="25" y="0" width="22" height="4"></rect>
                <rect id="T1" fill="#FF8100" x="0" y="0" width="22" height="4"></rect>
            </g>
            <g id="front" transform="translate(14.000000, 14.000000)" fill="#FFDB11">
                <rect id="f9" x="50" y="50" width="22" height="22"></rect>
                <rect id="f8" x="25" y="50" width="22" height="22"></rect>
                <rect id="f7" x="0" y="50" width="22" height="22"></rect>
                <rect id="f6" x="50" y="25" width="22" height="22"></rect>
                <rect id="f5" x="25" y="25" width="22" height="22"></rect>
                <rect id="f4" x="0" y="25" width="22" height="22"></rect>
                <rect id="f3" x="50" y="0" width="22" height="22"></rect>
                <rect id="f2" x="25" y="0" width="22" height="22"></rect>
                <rect id="f1" x="0" y="0" width="22" height="22"></rect>
            </g>
        </g>
        <g id="cube">
            <path d="M99.5824963,16.6052632 L96.5163399,74.1513158 C96.4901961,74.6710526 96.1633987,75.1052632 95.7189542,75.3157895 L51.4836601,99.2894737 C50.8366013,99.6447368 48.5816993,99.1776316 48.1176471,98.9144737 L4.2875817,74.6315789 C3.81045752,74.375 3.54248366,73.8947368 3.54901961,73.4078947 L0.653253673,16.4605263 C0.62745098,15.8355263 2.11111111,13.9802632 2.7124183,13.8486842 L49.9542484,0.0592105263 C50.2287582,-0.0197368421 50.5098039,-0.0197368421 50.7647059,0.0592105263 L96.5163399,14 C97.0980392,14.1644737 99.6339869,15.5131579 99.5824963,16.6052632 Z" id="Background" fill="#000000"></path>
            <g id="Right" transform="translate(50.000000, 16.000000)">
                <polygon id="R9" fill="#D0021B" points="34.2340638 48.2635209 46.5113802 41.9104809 45.4959631 58.4652904 33.5878893 64.7128857"></polygon>
                <polygon id="R8" fill="#D0021B" points="18.323664 56.0466538 32.2098231 49.219113 31.4251826 66.149569 17.5785852 73.4713816"></polygon>
                <polygon id="R7" fill="#D0021B" points="0.718704344 64.4295032 16.2994233 56.6925023 15.5543445 74.4269737 0.791234141 82.5198503"></polygon>
                <polygon id="R6" fill="#D0021B" points="34.8670511 27.6029605 47.4542676 22.0868875 46.4256632 39.8740812 34.0098808 45.9766901"></polygon>
                <polygon id="R5" fill="#D0021B" points="18.8709343 34.8325091 33.179085 28.4135662 32.1306997 47.1827132 18.2115725 53.9509415"></polygon>
                <polygon id="R4" fill="#D0021B" points="0.586831988 42.1411411 16.7741638 35.669476 16.1543637 54.6692831 0.586831988 62.4194646"></polygon>
                <polygon id="R3" fill="#009A0E" points="36.0275279 5.80887024 48.5883699 0.833200998 47.6982314 19.9911751 35.2033256 25.1711434"></polygon>
                <polygon id="R2" fill="#009A0E" points="19.0885236 12.4387024 33.9703191 6.56016334 33.4955786 25.9487976 18.8115917 32.6379424"></polygon>
                <polygon id="R1" fill="#D0021B" points="0.408804306 19.0487636 17.1302191 12.9593353 16.7939446 33.5737636 0.48792772 40.0124773"></polygon>
            </g>
            <g id="Left" transform="translate(1.000000, 16.000000)" fill="#025AC1">
                <polygon id="L9" points="2.92379854 42.4377042 14.3307574 48.1580762 14.7263745 63.6913907 3.57656671 57.8128516"></polygon>
                <polygon id="L8" points="16.1637832 49.1993421 29.9971934 55.8621257 30.1158785 72.0017468 16.6780854 64.8578721"></polygon>
                <polygon id="L7" points="31.9225298 56.9956556 47.740619 64.5876701 47.826336 82.1573843 31.8697809 73.2011797"></polygon>
                <polygon id="L6" points="1.88200692 21.8232759 13.5527105 27.4382033 14.2252595 46.0491833 2.73917724 39.959755"></polygon>
                <polygon id="L5" points="15.4055171 28.5980944 29.502672 34.4700431 30.0960977 53.7202813 16.1044406 47.1431715"></polygon>
                <polygon id="L4" points="31.3620723 35.2081556 47.5757785 42.1740926 47.5625913 62.4128743 31.9818724 54.8604015"></polygon>
                <polygon id="L3" points="0.649000384 0.68821461 12.4845444 5.76932849 13.3219339 25.1316016 1.53254517 19.3782781"></polygon>
                <polygon id="L2" points="14.3769127 6.40199637 28.9356209 12.1487296 29.6345444 32.5720395 15.2274894 26.1992287"></polygon>
                <polygon id="L1" points="30.814802 12.8736615 47.5362168 18.9564995 47.5098424 40.0849705 31.4807574 33.2376588"></polygon>
            </g>
            <g id="Up" transform="translate(3.000000, 1.000000)" fill="#FFDB11">
                <polygon id="Up9" points="35.512042 3.81480263 47.3649039 0.357017544 58.8267974 3.61255482 47.0651614 7.46178728"></polygon>
                <polygon id="Up8" points="17.9445237 8.53826754 32.8208754 4.36935307 44.6998019 8.13377193 30.2600317 12.8246162"></polygon>
                <polygon id="Up7" points="0.175004951 14.0576754 16.074391 9.39945175 27.5232521 13.4444079 11.526124 18.6310855"></polygon>
                <polygon id="Up6" points="13.226837 19.3095943 29.7908695 14.3186404 43.9243811 19.0877741 27.9533175 24.8877193"></polygon>
                <polygon id="Up5" points="32.7687463 13.5683662 46.954387 8.83837719 61.4788671 13.4313596 46.7589028 18.3244518"></polygon>
                <polygon id="Up4" points="49.0069717 8.12072368 60.32551 4.60422149 75.0910873 9.02757675 64.1439691 12.6288925"></polygon>
                <polygon id="Up3" points="66.3724896 13.4770285 77.7887701 9.88223684 92.997445 14.2794956 81.6789067 18.657182"></polygon>
                <polygon id="Up2" points="49.0786492 19.2900219 64.1309368 14.4099781 79.5546445 19.3356908 65.1800357 25.1095395"></polygon>
                <polygon id="Up1" points="30.0254506 26.0033443 46.4396118 20.0272478 62.9710636 25.7945724 46.4656764 31.7184759"></polygon>
            </g>
        </g>
        <path id="Line-Copy" d="M185.802542,19.6527566 L185.871576,19.7597388 L192.621576,31.7597388 C192.892339,32.2410966 192.721619,32.8508117 192.240261,33.1215755 C191.793286,33.3729991 191.235636,33.2437553 190.941463,32.838607 L190.878424,32.7402612 L186,24.067 L186,77.932 L190.878424,69.2597388 C191.129848,68.8127636 191.673531,68.6336341 192.135319,68.8271134 L192.240261,68.8784245 C192.687236,69.129848 192.866366,69.6735305 192.672887,70.1353188 L192.621576,70.2402612 L185.871576,82.2402612 C185.510511,82.8821545 184.617615,82.9178152 184.197458,82.3472434 L184.128424,82.2402612 L177.378424,70.2402612 C177.107661,69.7589034 177.278381,69.1491883 177.759739,68.8784245 C178.206714,68.6270009 178.764364,68.7562447 179.058537,69.161393 L179.121576,69.2597388 L184,77.932 L184,24.067 L179.121576,32.7402612 C178.870152,33.1872364 178.326469,33.3663659 177.864681,33.1728866 L177.759739,33.1215755 C177.312764,32.870152 177.133634,32.3264695 177.327113,31.8646812 L177.378424,31.7597388 L184.128424,19.7597388 C184.489489,19.1178455 185.382385,19.0821848 185.802542,19.6527566 Z" fill="#D0021B" fill-rule="nonzero"></path>
        <path id="Line" d="M190.517284,45.6325184 L190.493294,45.7392998 L186.780984,58.997552 C186.632071,59.5293823 186.08022,59.8397986 185.54839,59.6908861 C185.054547,59.5526102 184.751618,59.0669025 184.830089,58.5724081 L184.855055,58.4582921 L187.538,48.876 L157.876,78.538 L167.458292,75.8550555 C167.952135,75.7167796 168.46324,75.9745576 168.652963,76.4379016 L168.690886,76.5483896 C168.829162,77.042232 168.571384,77.5533373 168.10804,77.7430604 L167.997552,77.7809835 L154.7393,81.4932941 C154.024142,81.6935384 153.362482,81.075469 153.482716,80.3674816 L153.506706,80.2607002 L157.219016,67.002448 C157.367929,66.4706177 157.91978,66.1602014 158.45161,66.3091139 C158.945453,66.4473898 159.248382,66.9330975 159.169911,67.4275919 L159.144945,67.5417079 L156.461,77.123 L186.123,47.461 L176.541708,50.1449445 C176.047865,50.2832204 175.53676,50.0254424 175.347037,49.5620984 L175.309114,49.4516104 C175.170838,48.957768 175.428616,48.4466627 175.89196,48.2569396 L176.002448,48.2190165 L189.2607,44.5067059 C189.975858,44.3064616 190.637518,44.924531 190.517284,45.6325184 Z" fill="#025AC1" fill-rule="nonzero"></path>
    </g>
</svg>