<?xml version="1.0" encoding="UTF-8"?>
<svg width="210px" height="100px" viewBox="0 0 210 100" version="1.1" xmlns="http://www.w3.org/2000/svg" xmlns:xlink="http://www.w3.org/1999/xlink">
    <title>accel_17_1</title>
    <g id="accel_17_1" stroke="none" stroke-width="1" fill="none" fill-rule="evenodd">
        <g id="r_cube" transform="translate(1.000000, 0.000000)">
            <polygon id="background" fill="#000000" points="0.0854215024 19.2754025 9.18778033 80.8860643 63.8334869 99.9205349 97.7492091 67.4145347 97.7492091 7.4982769 42.6407163 0.144627068"></polygon>
            <g id="right" transform="translate(60.983696, 9.308511)">
                <polygon id="R9" fill="#009A0E" points="27.2201039 48.838316 35.9348915 41.1795159 36.0210822 57.6479555 27.2201039 66.0535841"></polygon>
                <polygon id="R8" fill="#009A0E" points="15.6196313 58.5415116 25.7330768 50 25.7302174 67.3689651 15.9343021 76.6814763"></polygon>
                <polygon id="R7" fill="#009A0E" points="2.67128246 69.883141 14.0624675 59.982313 14.602706 77.9838066 3.48164027 88.4728487"></polygon>
                <polygon id="R6" fill="#009A0E" points="27.040506 28.0820037 35.8749802 21.2376166 35.8749802 38.8297872 27.0832797 46.4651225"></polygon>
                <polygon id="R5" fill="#009A0E" points="14.9435931 37.0234456 25.2776078 29.1398038 25.5897369 47.643415 15.395011 56.2598642"></polygon>
                <polygon id="R4" fill="#009A0E" points="1.40135688 47.4928117 13.1785569 38.5638298 13.8096869 57.2994033 2.51742399 67.205335"></polygon>
                <polygon id="R3" fill="#009A0E" points="26.7020359 5.94243637 35.9377459 0.0426246969 35.9377459 18.8829787 26.7020359 26.020845"></polygon>
                <polygon id="R2" fill="#FF8100" points="13.9594083 13.8297872 25.1576093 6.83962562 25.1576093 26.7708053 14.6785215 34.3540275"></polygon>
                <polygon id="R1" fill="#009A0E" points="0.0464490684 22.8723404 12.3681756 14.9902898 13.05573 35.6921627 0.978849421 44.8704483"></polygon>
            </g>
            <g id="front" transform="translate(1.065217, 20.744681)">
                <polygon id="F9" fill="#D0021B" points="6.29883305 42.3226202 21.3799138 47.041563 23.398592 64.382663 8.79345967 59.331619"></polygon>
                <polygon id="F8" fill="#D0021B" points="23.4625726 47.5277112 40.0088827 52.8268331 41.6320094 70.813173 25.6079822 65.2388424"></polygon>
                <polygon id="F7" fill="#D0021B" points="42.3797847 53.3369243 60.2560433 58.9864476 61.4169678 77.6420459 43.864688 71.4300957"></polygon>
                <polygon id="F6" fill="#D0021B" points="3.20067404 21.7621257 18.8129962 26.1074009 21.0825437 44.6711645 5.94030863 40.1202258"></polygon>
                <polygon id="F5" fill="#D0021B" points="21.0728479 26.6414973 38.1471447 30.8565318 39.7588637 50.2750964 23.359523 45.3062958"></polygon>
                <polygon id="F4" fill="#D0021B" points="40.5979007 31.6624024 59.0589945 36.4720917 60.0370154 56.4262848 41.9413484 50.9831619"></polygon>
                <polygon id="F3" fill="#D0021B" points="0.192976496 0.181118774 16.0362392 3.3991474 18.3354846 23.414355 3.04729983 19.7400699"></polygon>
                <polygon id="F2" fill="#009A0E" points="18.2139576 3.78276638 35.7425781 7.44680851 37.8609006 28.4557501 20.6190996 24.087665"></polygon>
                <polygon id="F1" fill="#D0021B" points="38.4802589 7.8782454 57.6731362 11.9680851 58.6961519 33.706413 40.1228283 29.0005437"></polygon>
            </g>
            <g id="up" transform="translate(1.864130, 0.531915)" fill="#FFDB11">
                <polygon id="U9" points="40.865668 0.129202186 55.5051873 2.17120252 44.8602357 7.42323129 29.820185 5.16249398"></polygon>
                <polygon id="U8" points="28.0945786 5.846608 43.4520809 8.15805907 31.2807015 14.2028871 15.7639214 11.4868844"></polygon>
                <polygon id="U7" points="13.9897191 12.3201531 29.404022 14.9948997 15.8910428 21.6753917 0.244836519 18.5399216"></polygon>
                <polygon id="U6" points="31.6617109 15.3143252 48.9643949 18.323725 35.6031812 25.6954795 18.0155823 22.1782568"></polygon>
                <polygon id="U5" points="45.4752071 8.54105105 62.0825356 11.1338164 50.4669796 17.4727497 33.4784644 14.4968153"></polygon>
                <polygon id="U4" points="57.7886006 2.4524879 73.7966683 4.6693439 63.6774916 10.3540214 46.8879026 7.75452754"></polygon>
                <polygon id="U3" points="76.3461867 4.98249394 93.8219117 7.4099587 84.1528899 13.373868 66.4170714 10.6282953"></polygon>
                <polygon id="U2" points="64.4549352 11.3912692 82.5320487 14.2383002 71.567524 21.1626109 52.9462887 17.8546793"></polygon>
                <polygon id="U1" points="51.2440686 18.8958226 69.8545425 22.1651172 57.4958847 30.0498663 38.0270453 26.1848921"></polygon>
            </g>
        </g>
        <g id="pll" transform="translate(110.000000, 0.000000)">
            <rect id="background" fill="#000000" x="0" y="0" width="100" height="100"></rect>
            <g id="vertical" transform="translate(50.000000, 50.000000) rotate(90.000000) translate(-50.000000, -50.000000) translate(14.000000, 5.000000)">
                <rect id="L3" fill="#025AC1" x="50" y="86" width="22" height="4"></rect>
                <rect id="L2" fill="#025AC1" x="25" y="86" width="22" height="4"></rect>
                <rect id="L1" fill="#025AC1" x="0" y="86" width="22" height="4"></rect>
                <rect id="R3" fill="#009A0E" x="50" y="0" width="22" height="4"></rect>
                <rect id="R2" fill="#FF8100" x="25" y="0" width="22" height="4"></rect>
                <rect id="R1" fill="#009A0E" x="0" y="0" width="22" height="4"></rect>
            </g>
            <g id="horizontal" transform="translate(14.000000, 5.000000)">
                <rect id="B3" fill="#D0021B" x="50" y="86" width="22" height="4"></rect>
                <rect id="B2" fill="#009A0E" x="25" y="86" width="22" height="4"></rect>
                <rect id="B1" fill="#D0021B" x="0" y="86" width="22" height="4"></rect>
                <rect id="T3" fill="#FF8100" x="50" y="0" width="22" height="4"></rect>
                <rect id="T2" fill="#D0021B" x="25" y="0" width="22" height="4"></rect>
                <rect id="T1" fill="#FF8100" x="0" y="0" width="22" height="4"></rect>
            </g>
            <g id="front" transform="translate(14.000000, 14.000000)" fill="#FFDB11">
                <rect id="f9" x="50" y="50" width="22" height="22"></rect>
                <rect id="f8" x="25" y="50" width="22" height="22"></rect>
                <rect id="f7" x="0" y="50" width="22" height="22"></rect>
                <rect id="f6" x="50" y="25" width="22" height="22"></rect>
                <rect id="f5" x="25" y="25" width="22" height="22"></rect>
                <rect id="f4" x="0" y="25" width="22" height="22"></rect>
                <rect id="f3" x="50" y="0" width="22" height="22"></rect>
                <rect id="f2" x="25" y="0" width="22" height="22"></rect>
                <rect id="f1" x="0" y="0" width="22" height="22"></rect>
            </g>
        </g>
        <path id="Line-Copy" d="M157,19 C157.512836,19 157.935507,19.3860402 157.993272,19.8833789 L158,20 L158,75.352 L162.878424,66.6792034 C163.129848,66.2322282 163.673531,66.0530988 164.135319,66.246578 L164.240261,66.2978891 C164.687236,66.5493126 164.866366,67.0929952 164.672887,67.5547834 L164.621576,67.6597258 L157.871576,79.6597258 C157.510511,80.3016191 156.617615,80.3372798 156.197458,79.7667081 L156.128424,79.6597258 L149.378424,67.6597258 C149.107661,67.178368 149.278381,66.5686529 149.759739,66.2978891 C150.206714,66.0464655 150.764364,66.1757094 151.058537,66.5808576 L151.121576,66.6792034 L156,75.352 L156,20 C156,19.4477153 156.447715,19 157,19 Z" fill="#025AC1" fill-rule="nonzero"></path>
        <path id="Line-Copy-2" d="M189.125868,50.5827265 L189.105409,50.6902404 L185.831946,64.0636073 C185.700637,64.6000552 185.159313,64.9284853 184.622865,64.7971764 C184.124735,64.6752467 183.805967,64.1997836 183.868103,63.7029721 L183.889296,63.5880956 L186.254,53.923 L180.692068,59.8651094 L160.730021,81.1881552 C160.352575,81.5913344 159.719754,81.6121959 159.316575,81.2347506 C158.944409,80.8863396 158.898006,80.3203301 159.18994,79.918202 L159.269979,79.8213049 L179.232027,58.4982591 L184.794,52.556 L175.306554,55.5531693 C174.817536,55.7076413 174.298215,55.4668431 174.093328,55.0100016 L174.051785,54.9008231 C173.897313,54.4118047 174.138112,53.8924837 174.594953,53.6875973 L174.704132,53.6460545 L187.832872,49.4989271 C188.541045,49.2752285 189.22271,49.871162 189.125868,50.5827265 Z" fill="#025AC1" fill-rule="nonzero"></path>
        <path id="Line-Copy-3" d="M159.615982,19.5240173 L159.72355,19.5441885 L173.105631,22.7818417 C173.642429,22.9117142 173.972307,23.452157 173.842434,23.9889546 C173.721838,24.4874094 173.24723,24.8074489 172.750254,24.7466425 L172.635321,24.7257575 L162.963,22.385 L168.918779,27.9309585 L189.548413,47.1404931 C189.952601,47.5168578 189.975157,48.1496209 189.598792,48.553809 C189.251378,48.9269058 188.685495,48.9748243 188.282587,48.6839676 L188.185476,48.6041878 L167.555842,29.3946532 L161.601,23.85 L164.623398,33.3299765 C164.779179,33.8185797 164.539771,34.3385434 164.08348,34.5446519 L163.974413,34.5864868 C163.48581,34.7422672 162.965846,34.50286 162.759738,34.0465686 L162.717903,33.9375017 L158.535647,20.819909 C158.310054,20.1123381 158.90416,19.4290804 159.615982,19.5240173 Z" fill="#025AC1" fill-rule="nonzero"></path>
    </g>
</svg>