<?xml version="1.0" encoding="UTF-8"?>
<svg width="93px" height="99px" viewBox="0 0 93 99" version="1.1" xmlns="http://www.w3.org/2000/svg" xmlns:xlink="http://www.w3.org/1999/xlink">
    <title>ghost_5_1</title>
    <g id="Ghost" stroke="none" stroke-width="1" fill="none" fill-rule="evenodd">
        <g id="ghost_5_1" fill-rule="nonzero">
            <polygon id="Path" fill="#000000" points="40.65 7.14 49.65 0.62 51.52 0.57 59.2 7.82 59.6 8.71 59.55 10.49 70.72 6.17 72.26 6.67 91.43 41.1 91.09 42.72 92.39 55.29 87.31 62.55 91.77 65 92.92 79.27 91.84 80.76 46.57 98.54 1.1 72.2 0.32 70.39 2.18 65.32 10.7 63.3 8.39 58.96 14.61 45.16 8.48 43.9 8.18 41.64 10.25 39.94 17.58 23.47 23.43 20.49 23.22 16.69 25.65 12.69 30.72 12.24 35.54 14.37 39.68 12.31 39.74 8.8"></polygon>
            <polygon id="Path" fill="#696969" points="55.84 6.67 42.78 7.3 42.44 6.33 50.2 0.72 50.88 0.76 56.18 5.76 55.84 6.68"></polygon>
            <polygon id="Path" fill="#696969" points="23.59 16.08 25.65 12.68 29.78 12.32 23.58 16.08"></polygon>
            <polygon id="Path" fill="#696969" points="10.25 39.93 17.3 34.53 17.3 25.05 16.91 24.97 10.25 39.93"></polygon>
            <polygon id="Path" fill="#696969" points="25.7 31.13 25.9 30.37 31.42 27.44 32.2 27.94 31.62 38.79 30.62 39.04 25.7 31.13"></polygon>
            <polygon id="Path" fill="#696969" points="8.82 42.3 22.26 32.02 23.03 32.16 29.28 41.96 29.36 42.16 30.08 47.03 29.44 47.63 9.1 43.49 8.82 42.31"></polygon>
            <polygon id="Path" fill="#FFED00" points="38.57 44.95 39.52 44.55 55.08 21.95 55.2 21.61 55.99 10.49 55.42 10.06 52.85 10.06 51.78 10.49 39.75 22.19 39.55 22.55 35.66 43.97 35.98 44.44 38.57 44.94"></polygon>
            <polygon id="Path" fill="#FFED00" points="56.63 44.78 57 44.38 57.09 24.88 55.99 24.88 42.2 45.26 42.57 45.89 56.63 44.79"></polygon>
            <polygon id="Path" fill="#696969" points="62.62 13.32 62.02 42.59 62.75 43.26 75.53 41.86 76.07 40.93 63.9 13.07"></polygon>
            <polygon id="Path" fill="#696969" points="82.87 41.53 82.27 41.2 64.22 10.53 64.55 9.57 71.23 7 72.06 7.3 90.4 40.26 89.84 41.26 82.86 41.53"></polygon>
            <polygon id="Path" fill="#FFED00" points="56.98 49.53 56.37 49 53.2 49.47 53 50.45 55.96 52.28 56.98 51.71 56.98 49.53"></polygon>
            <polygon id="Path" fill="#FFED00" points="37.99 67.71 56.32 68.07 56.87 67.47 55.47 54.51 50.12 51.51 34.57 51.22 34.03 51.87 37.47 67.3 38 67.7"></polygon>
            <polygon id="Path" fill="#FFED00" points="2.18 65.32 4.16 67.42 4.04 68.25 0.32 70.39"></polygon>
            <polygon id="Path" fill="#696969" points="9.91 60.13 8.71 58.24 14.61 45.16 18.7 45.99 9.93 60.11"></polygon>
            <polygon id="Path" fill="#696969" points="21.6 46.03 19.9 45.69 10.4 60.91 13.33 65.53 13.96 65.6 27.13 52.1 26.98 50.1 21.59 46.02"></polygon>
            <polygon id="Path" fill="#696969" points="30.25 53.65 33.72 67.74 33.2 68.4 15.81 68.13 15.44 67.21 29.34 53.4 30.24 53.65"></polygon>
            <polygon id="Path" fill="#FFED00" points="83.95 45.28 91.36 53.52 92.17 53.16 91.23 44.13 90.12 43.31 84.2 44.51 83.95 45.28"></polygon>
            <polygon id="Path" fill="#696969" points="84.63 61.65 78 46.32 77.41 46.01 62.84 48.68 62.4 49.19 61.8 68.39 62.83 69.19 84.13 62.73 84.63 61.65"></polygon>
            <polygon id="Path" fill="#FFED00" points="82.97 70.73 83.03 69.87 90.61 65.15 91.84 65.77 92.79 77.7 91.92 78.16 82.97 70.73"></polygon>
            <polygon id="Path" fill="#FFED00" points="91 81.08 80.5 72.55 80.1 72.4 62.17 71.97 61.62 72.49 61.09 88.96 61.57 89.51 67.89 90.17"></polygon>
            <polygon id="Path" fill="#FFED00" points="41.1 87.06 39.14 71.53 39.82 70.78 56.09 71.24 56.74 71.9 57.04 88.58 56.29 89.26 41.69 87.63 41.11 87.06"></polygon>
            <polygon id="Path" fill="#FFED00" points="43 96.47 42.3 91.19 43.03 90.44 57 91.68 57.61 92.32 57.7 94.16 46.56 98.54"></polygon>
            <polygon id="Path" fill="#FFED00" points="31.03 89.54 31.27 88.79 38.37 89.32 38.98 89.89 39.65 94.53 31.03 89.54"></polygon>
            <polygon id="Path" fill="#FFED00" points="1.77 72.58 5.41 70.28 5.79 70.18 34.11 70.88 34.75 71.41 38.09 86.32 37.37 87.13 24.47 85.73"></polygon>
            <polygon id="Path" fill="#FFED00" points="53.77 8.78 55.46 8.56 55.99 8.78 55.99 9.7 53 9.7"></polygon>
            <path d="M71.93,55.96 L70.52,46.11 C70.44,45.56 70.82,45.05 71.37,44.98 C71.91,44.9 72.42,45.28 72.5,45.82 L74.45,59.45 C74.55,60.23 73.78,60.82 73.06,60.51 L60.4,55.11 C59.9,54.89 59.66,54.3 59.88,53.79 C60.09,53.29 60.68,53.05 61.19,53.26 L70.34,57.17 L65.42,50.76 L46.03,25.49 C45.69,25.05 45.78,24.42 46.21,24.09 C46.65,23.75 47.28,23.83 47.61,24.27 L67.01,49.54 L71.93,55.96 L71.93,55.96 Z" id="Path" fill="#E31E24"></path>
        </g>
    </g>
</svg>