<?xml version="1.0" encoding="UTF-8"?>
<svg width="93px" height="100px" viewBox="0 0 93 100" version="1.1" xmlns="http://www.w3.org/2000/svg" xmlns:xlink="http://www.w3.org/1999/xlink">
    <title>ghost_7</title>
    <g id="Ghost" stroke="none" stroke-width="1" fill="none" fill-rule="evenodd">
        <g id="ghost_7" fill-rule="nonzero">
            <polygon id="Path" fill="#000000" points="66.56 0.66 82.75 13.18 88.89 29.63 92.1 32.4 90.67 34.85 92.62 40.31 92.26 54.74 80.91 75.94 75.15 78.81 74.86 80.48 72.41 84.19 67.76 84.85 65.48 83.7 58.59 87.03 58.34 90.55 44.52 99.98 36.5 92.18 28.34 96.09 5.84 60.64 5.64 55.03 4.44 55.03 0.81 50.2 1.37 32.84 20.58 17.7 45.61 4.9 66.56 0.65"></polygon>
            <polygon id="Path" fill="#FFED00" points="59.22 2.15 66.56 0.66 59.39 4.11"></polygon>
            <polygon id="Path" fill="#696969" points="60.02 8.01 59 8.77 58.9 14.22 60.37 14.67 63.33 10.04 62.88 8.84"></polygon>
            <polygon id="Path" fill="#FFED00" points="88.89 29.63 82.73 24.21 82.95 15.92 83.72 15.79 88.89 29.63"></polygon>
            <polygon id="Path" fill="#696969" points="62.1 18.42 62.24 17.92 65.4 12.59 66.9 12.34 89.84 31.99 89.14 33.74 63.11 32.36 62.16 31.37 62.1 18.42"></polygon>
            <polygon id="Path" fill="#FFED00" points="41.33 7.1 45.61 4.9 56.75 2.65 56.61 4.84 56.16 5.5 40.04 13.55 39.48 13.08 41.33 7.1"></polygon>
            <polygon id="Path" fill="#FFED00" points="5.45 29.63 20.58 17.71 38.47 8.56 35.53 15.86 35.33 16.06 5.45 29.64"></polygon>
            <polygon id="Path" fill="#696969" points="31.57 28 34.79 17.52 34.24 17.04 5.48 30.1 5.68 30.86 30.52 28.84"></polygon>
            <polygon id="Path" fill="#FFED00" points="0.81 50.2 4.09 54.58 5.26 54.58 5.51 53.86 0.81 50.21"></polygon>
            <polygon id="Path" fill="#696969" points="36.5 92.18 34.76 90.63 34.2 90.65 29.9 95.35"></polygon>
            <polygon id="Path" fill="#FFED00" points="74.86 80.48 67.76 84.85 72.41 84.19 74.86 80.49"></polygon>
            <polygon id="Path" fill="#FFED00" points="34.78 27.49 35.33 28.31 55.39 28.4 55.79 28.03 56.89 15.53 56.5 15.1 40.26 14.52 39.88 14.77"></polygon>
            <polygon id="Path" fill="#FFED00" points="35.34 31.37 35.15 32.12 42.21 35.95 43.51 36.05 53.17 32.61 52.97 31.45 35.34 31.37"></polygon>
            <polygon id="Path" fill="#FFED00" points="11.26 36.39 10.63 37.49 17.7 53.79 18.4 54.26 29.39 54.64 30.21 53.76 28.19 34.96 27.29 34.26 11.26 36.39"></polygon>
            <polygon id="Path" fill="#FFED00" points="34.84 56.04 41.24 56.22 42.07 55.38 41.25 39.87 40.42 38.56 32.27 34.06 31.39 34.65 33.69 54.97 34.84 56.04"></polygon>
            <polygon id="Path" fill="#FFED00" points="44.76 39.25 45.56 38.1 55.75 34.6 56.81 35.34 57 54.57 55.83 55.77 45.87 56.07 45.04 55.29"></polygon>
            <polygon id="Path" fill="#FFED00" points="61.45 56.06 62.12 56.66 79.19 54.79 79.65 54.49 88.88 38.33 88.38 37.43 62.72 37.01 61.5 38.21 61.45 56.06"></polygon>
            <polygon id="Path" fill="#FFED00" points="92.62 40.31 91.45 37.05 90.01 36.92 81.92 51.06 81.92 53.1 82.58 53.7 92.32 52.58 92.62 40.31"></polygon>
            <polygon id="Path" fill="#696969" points="32.28 88.15 31.6 90 28.22 93.21 27.29 93.11 6.74 60.72 6.64 60.42 6.54 57.41 7.18 56.79 30.48 58.31 31.6 59.51 32.28 88.14"></polygon>
            <polygon id="Path" fill="#FFED00" points="37.3 92.95 34.3 59.55 41.54 60.4 42.59 61.54 44 99.46 37.3 92.96"></polygon>
            <polygon id="Path" fill="#FFED00" points="46.34 98.74 45.65 61.92 46.79 60.7 56.65 60.2 57.28 60.8 57.48 91.13 46.34 98.73"></polygon>
            <polygon id="Path" fill="#696969" points="60.92 62.13 60.77 75.17 61.99 75.85 87.92 59.35 87.67 58.61 62.02 60.96 60.92 62.13"></polygon>
            <polygon id="Path" fill="#FFED00" points="82.36 73.24 81.61 73.04 81.75 63.58 90.52 58"></polygon>
        </g>
    </g>
</svg>