<?xml version="1.0" encoding="UTF-8"?>
<svg width="99px" height="100px" viewBox="0 0 99 100" version="1.1" xmlns="http://www.w3.org/2000/svg" xmlns:xlink="http://www.w3.org/1999/xlink">
    <title>ghost_4</title>
    <g id="Ghost" stroke="none" stroke-width="1" fill="none" fill-rule="evenodd">
        <g id="ghost_4" fill-rule="nonzero">
            <polygon id="Path" fill="#000000" points="45.26 0 93.95 39.73 94.77 41.66 98.95 39.56 97.41 70.06 87.64 77.19 80 77.6 55.2 99.89 43.38 94.98 29.87 75.86 10.22 73.74 10.47 62.84 15.48 52.04 3.95 51.22 0 45.92"></polygon>
            <path d="M44.52,2.7 C45.14,2.1 45.93,1.94 47.09,2.7 L54.1,9.05 C54.68,9.57 55.26,10.08 54.66,11.55 L51.4,19.55 C50.87,20.52 50.15,21.06 48.94,20.47 L38.5,11.59 C37.48,10.84 37.98,10.08 38.5,9.31 L44.52,2.71 L44.52,2.7 Z" id="Path" fill="#696969"></path>
            <path d="M57.14,15.62 C57.86,13.82 59.06,14.23 60.32,14.89 L88.47,38.19 C89.15,39.02 90.47,39.34 89.42,41.46 L84.23,47.11 C83.19,47.61 82.15,47.91 81.11,47.11 L54.9,25.77 C53.74,24.87 53.76,23.9 54.26,22.89 L57.13,15.62 L57.14,15.62 Z" id="Path" fill="#696969"></path>
            <path d="M3.44,44.65 L25.3,23.29 C27.14,21.76 27.91,22.01 27.52,24.19 L16.5,47.99 C15.86,49.3 15,50.08 13.78,49.94 L5.85,49.46 C5.35,49.36 4.89,49.44 4.26,48.56 L2.86,46.68 C2.46,45.85 2.98,45.25 3.44,44.65 L3.44,44.65 Z" id="Path" fill="#696969"></path>
            <path d="M33.8,18.75 C34.5,16.78 35.54,16.53 36.83,17.38 L46.41,25.2 C47.57,25.94 47.98,26.94 47.25,28.34 L37.9,49.4 C37.39,50.82 36.55,51.65 35.12,51.44 L22.26,50.9 C20.58,50.88 20.12,49.95 20.9,48.1 L33.8,18.74 L33.8,18.75 Z" id="Path" fill="#696969"></path>
            <path d="M50.2,32.02 C51.08,29.93 52.43,30.52 53.81,31.36 L76.44,49.58 C77.54,50.81 77.92,52.93 75.5,52.93 L44.72,52.05 C42.9,51.95 42.37,51.05 42.78,49.58 L50.19,32.02 L50.2,32.02 Z" id="Path" fill="#696969"></path>
            <path d="M90.95,45.18 C92.25,43.7 92.73,43.92 93.02,44.5 L94,47.6 C94.2,48.57 93.55,49.32 92.47,49.94 L85.55,53.48 C84.55,53.87 83.67,54.12 84.25,52.93 C86.25,49.91 88.51,47.4 90.94,45.18 L90.95,45.18 Z" id="Path" fill="#696969"></path>
            <path d="M94.8,42.77 L95.79,42.22 C96.71,41.92 97.38,42.24 97.72,43.34 L97.09,55.78 C97.09,57.52 95.44,57.87 94.8,56.51 L91.36,50.87 L94.8,48.93 L95.79,46.3 L94.8,42.77 L94.8,42.77 Z" id="Path" fill="#696969"></path>
            <path d="M77.3,55.81 L87.6,71.78 C88.57,73.16 89.4,73.12 90.22,72.9 L96.06,69.15 L96.43,63.9 L88.43,52.05 L83.04,54.28 L77.31,55.81 L77.3,55.81 Z" id="Path" fill="#FFED00"></path>
            <path d="M63.15,58.43 L69.36,55.43 L73.18,55.77 L81.37,67.96 C82.72,70.16 82.51,71.14 80.24,70.54 L63.6,61.94 C61.57,60.81 61.19,59.64 63.15,58.43 L63.15,58.43 Z" id="Path" fill="#696969"></path>
            <path d="M37.03,63.77 L57.45,64.14 L79.63,74.98 C81.17,75.88 82.75,77.3 79.63,77.3 L47.62,76.07 C45.79,76.07 45.24,75.53 44.75,74.98 L36.09,65.63 C34.14,63.63 36.06,63.99 37.03,63.77 L37.03,63.77 Z" id="Path" fill="#696969"></path>
            <path d="M23.88,64.18 L27.83,64.18 C28.45,64.28 29.07,64.41 29.75,65.05 L38.74,74.38 C39.83,75.42 39.63,75.88 38.11,75.73 L21.49,74.33 L18.33,71.6 C16.77,70.56 17.97,70.15 18.33,69.55 C18.33,69.55 22.48,65.47 23.88,64.18 L23.88,64.18 Z" id="Path" fill="#FFED00"></path>
            <path d="M13.71,71.42 C14.49,70.75 15.03,70.96 15.51,71.42 L17.17,73.74 L11.69,73.11 L13.71,71.42 Z" id="Path" fill="#696969"></path>
            <path d="M20.53,56.73 C21.13,55.43 21.63,54.69 21.68,56.31 L22,58.52 C22.08,59.75 21.43,60.81 20.52,61.81 L16.82,65.66 C16.32,66.06 15.56,66.38 16.32,64.84 L20.52,56.73 L20.53,56.73 Z" id="Path" fill="#FFED00"></path>
            <polygon id="Path" fill="#696969" points="16.01 52.05 11.03 62.95 10.71 70.53 13.36 67.58 20.22 53.71 17.55 53.31 16 52.05"></polygon>
            <path d="M42.02,87.85 L47.58,87.63 C47.84,87.87 48.98,87.53 47.85,88.7 L44.21,91.92 C44.21,91.92 43.55,92.39 43.13,91.69 C42.41,90.49 41.85,89.44 41.5,88.73 C41.21,88.15 40.73,87.63 42.02,87.85 L42.02,87.85 Z" id="Path" fill="#696969"></path>
            <polygon id="Path" fill="#696969" points="46.55 94.14 51.95 89.33 70.55 77.3 59.84 91.29 51.54 96.53 46.55 94.13"></polygon>
            <polygon id="Path" fill="#696969" points="72.03 77.3 62.92 88.88 70.56 84.51 76.66 77.3"></polygon>
            <polygon id="Path" fill="#696969" points="77.82 77.3 74.55 81.42 79.27 77.3"></polygon>
            <polygon id="Path" fill="#696969" points="52.94 97.59 57.2 94.64 54.62 98.43"></polygon>
            <polygon id="Path" fill="#696969" points="59.56 92.77 55.52 98.79 67.69 87.9 59.56 92.77"></polygon>
        </g>
    </g>
</svg>