<?xml version="1.0" encoding="UTF-8"?>
<svg width="199px" height="100px" viewBox="0 0 199 100" version="1.1" xmlns="http://www.w3.org/2000/svg" xmlns:xlink="http://www.w3.org/1999/xlink">
    <title>ghost_6_2</title>
    <g id="Ghost" stroke="none" stroke-width="1" fill="none" fill-rule="evenodd">
        <g id="ghost_6_2" fill-rule="nonzero">
            <path d="M38.87,0 L54.53,0.49 L67.77,16.26 L87.43,17.46 C88.66,17.88 90.16,18.29 89.77,20.2 L88.27,28.25 L85.22,33.94 L82.1,40.37 L88.27,62.22 L77.01,78.83 L59.55,85.76 L56.15,91.15 L45.59,99.4 C44.84,99.98 44.04,100.2 43.12,99.4 L30.76,89.8 L29.59,87.3 L14.23,79.5 L10.63,72.45 L7.24,72.45 L3.02,68.99 L3.02,64.89 L4.85,61.12 L0,51.25 L3.94,30.87 L0.61,23.92 L0.01,17.96 C-0.07,16.54 1.11,15.61 2.62,15.52 L17.34,15.52 L38.87,0 Z" id="Path" fill="#000000"></path>
            <path d="M34.54,3.49 L34.54,4.67 C34.59,5.19 34.93,5.12 35.34,4.89 L37.58,2.22 C37.78,1.72 37.66,1.44 37.08,1.5 L34.54,3.2" id="Path" fill="#696969"></path>
            <path d="M17.7,15.6 L29.1,7.51 C29.65,7.06 30.17,6.71 30.42,7.51 L30.42,11.04 L26.85,15.61 L17.7,15.61 L17.7,15.6 Z" id="Path" fill="#696969"></path>
            <path d="M57.2,5.47 L63.15,16.24 L67.47,16.36 L58.32,5.47 C56.14,3.21 56.71,4.39 57.2,5.47 Z" id="Path" fill="#696969"></path>
            <path d="M4.48,15.6 C2.58,15.6 1.9,16.02 4.48,16.87 L28.8,26.05 C30.87,26.75 32.72,27.19 32.83,25.45 L32.83,17.52 C32.98,16.1 32.83,15.61 30.43,15.61 L4.47,15.61 L4.48,15.6 Z" id="Path" fill="#696969"></path>
            <path d="M39.65,15.35 L50.7,15.6 C52.02,15.51 52.98,15.8 53.26,16.8 L56.16,25.75 C56.53,26.75 56.12,27.26 54.8,27.23 L40.6,27.23 C39.4,27.18 38.15,27.22 38.05,25.75 L37.68,16.8 C37.57,15.43 38.48,15.23 39.66,15.34 L39.65,15.35 Z" id="Path" fill="#696969"></path>
            <path d="M59.4,16.02 C57.9,15.94 56.78,16.12 57.48,17.47 L61.12,25.65 C61.69,27.15 62.83,27.77 64.71,27.25 L85.71,19.13 C87.93,18.14 87.27,17.63 84.57,17.47 L59.4,16.02 Z" id="Path" fill="#696969"></path>
            <path d="M72.16,28.17 L87.8,21.72 C88.78,21.15 89.28,21.34 89.15,22.49 L88.07,28.17 L85.16,33.43 L72.16,30.2 C69.81,29.52 70.15,28.85 72.16,28.17 L72.16,28.17 Z" id="Path" fill="#696969"></path>
            <path d="M38.32,29.78 L55.53,29.78 L48.43,32.88 C47.36,33.18 46.63,33.88 44.4,32.88 L38.32,29.78 Z" id="Path" fill="#FFED00"></path>
            <path d="M0.55,21.14 C0.67,19.49 1.54,19.94 2.31,20.14 L21.12,27.7 C23.14,28.8 23.14,30.92 21.12,31.59 L6.05,35 L1.01,23.98 L0.55,21.14 Z" id="Path" fill="#696969"></path>
            <path d="M62.14,36.3 C62.37,34.4 63.21,33.9 64.24,33.83 L81.54,36.31 C82.7,36.52 83.04,37.21 82.69,38.29 L75.73,52.59 C75.59,52.87 75.53,52.95 75.09,53.19 C74.64,53.41 74.49,53.44 74.09,53.43 L62.76,53.33 C61.45,53.55 61.17,52.96 61.3,52.04 L62.14,36.31 L62.14,36.3 Z" id="Path" fill="#696969"></path>
            <path d="M48.4,39.82 C48.56,37.64 49.4,36.58 50.7,36.27 L56.75,33.83 C58.09,33.03 58.79,33.33 58.69,35.01 L58.22,51.01 C58.03,52.07 58.22,53.32 56.3,53.43 L49.63,53.43 C48.51,53.65 47.9,53.1 47.99,51.57 L48.39,39.82 L48.4,39.82 Z" id="Path" fill="#FFED00"></path>
            <path d="M34.64,35.8 C34.49,33.14 35.6,34.24 36.36,34.31 L43.13,37.01 C44.01,37.32 44.73,37.99 44.92,39.71 L44.44,52.33 C44.44,52.33 44.41,54.39 43.13,54.33 L37.12,54.47 C35.84,54.5 35.2,53.76 35.1,52.33 L34.64,35.79 L34.64,35.8 Z" id="Path" fill="#FFED00"></path>
            <path d="M9.05,38.09 L27.72,34.77 C29.15,34.53 30.05,35.02 30.22,36.5 L31.19,51.78 C31.19,51.78 31.5,54.46 29.39,54.48 L16.2,54.75 C15.68,54.81 15.18,54.59 14.73,53.85 L8.48,40.6 C8.48,40.6 7.51,38.6 9.05,38.1 L9.05,38.09 Z" id="Path" fill="#696969"></path>
            <path d="M2.8,39.78 L1.32,46.12 C1.32,46.12 0.85,49.12 2.8,47.02 L7.67,40.32 L6.6,37.95 L4.48,38.35 C3.77,38.45 3.16,38.82 2.8,39.78 Z" id="Path" fill="#696969"></path>
            <polygon id="Path" fill="#696969" points="4.26 31.17 3.41 35.33 6.05 35 4.26 31.16"></polygon>
            <path d="M79.45,45.36 L82.35,50.76 C82.35,50.76 82.77,51.84 83.56,51.68 L85.04,51.6 L81.76,40.69 L79.46,45.36 L79.45,45.36 Z" id="Path" fill="#696969"></path>
            <polygon id="Path" fill="#696969" points="84.8 55.72 86.13 55.47 87.43 60.08"></polygon>
            <path d="M60.73,61.33 C60.73,61.33 60.63,58.58 62.89,58.56 L70.97,57.72 C70.97,57.72 73.13,57.47 72.04,59.52 L61.11,81.3 C60.25,82.84 59.83,82.84 59.83,81.3 L60.73,61.33 Z" id="Path" fill="#696969"></path>
            <path d="M62.88,79.05 L59.83,84.93 L71.05,80.65 C73.58,79.57 72.99,78.65 71.05,78.65 L62.88,79.05 Z" id="Path" fill="#696969"></path>
            <path d="M47.33,63.43 C47.33,63.43 47.21,59.06 50.29,58.95 L55.96,58.62 C57.62,58.42 57.6100007,58.95 57.6100007,61.02 L56.31,86.38 C56.4,88.32 55.93,89.88 54.75,90.96 L48.7,95.83 C47.45,96.75 45.9,98.73 46.33,93.6 L47.33,63.43 L47.33,63.43 Z" id="Path" fill="#696969"></path>
            <path d="M34.63,61.86 C34.45,59.65 35.39,58.99 36.86,59.08 L41.34,59.08 C42.64,58.93 43.49,59.69 43.67,61.86 L42.91,95.96 C42.68,97.76 42.04,97.56 41.34,96.98 L36.86,93.92 C36.11,93.53 35.62,92.87 35.61,91.58 L34.63,61.86 Z" id="Path" fill="#696969"></path>
            <path d="M19.67,59.06 L29.06,59.06 C30.08,59.06 30.99,59.37 31.23,61.75 L32.36,87.16 C32.36,90.36 31.23,89.95 30.06,87.16 L18.54,62.36 C17.49,60.59 16.96,59.06 19.67,59.06 L19.67,59.06 Z" id="Path" fill="#696969"></path>
            <path d="M26.16,79.72 L29.46,86.79 L19.68,81.84 C17.18,80.56 18.43,79.72 19.68,79.72 L26.16,79.72 L26.16,79.72 Z" id="Path" fill="#696969"></path>
            <polygon id="Path" fill="#696969" points="3.6 66.37 6.14 70.87 3.45 68.83 3.6 66.37"></polygon>
            <path d="M31.44,27.17 L28.44,17.69 C28.28,17.16 28.57,16.59 29.1,16.43 C29.62,16.26 30.19,16.56 30.35,17.08 L34.5,30.21 C34.74,30.95 34.07,31.67 33.31,31.48 L19.94,28.21 C19.4,28.08 19.07,27.54 19.2,27.01 C19.33,26.47 19.87,26.14 20.41,26.27 L30.08,28.63 L24.13,23.07 L3.77,4.01 C3.37,3.63 3.34,3 3.72,2.59 C4.1,2.19 4.72,2.17 5.13,2.55 L25.5,21.6 L31.44,27.16 L31.44,27.17 Z" id="Path" fill="#E31E24"></path>
            <path d="M62.84,27.48 L72.37,24.59 C72.9,24.43 73.45,24.73 73.61,25.26 C73.77,25.79 73.48,26.34 72.95,26.5 L59.77,30.5 C59.02,30.72 58.32,30.05 58.51,29.3 L61.94,15.96 C62.08,15.42 62.62,15.1 63.16,15.24 C63.69,15.38 64.02,15.92 63.88,16.46 L61.4,26.09 L67.04,20.21 L82.28,4.3 C82.66,3.9 83.29,3.89 83.69,4.27 C84.09,4.65 84.1,5.28 83.72,5.68 L68.5,21.6 L62.85,27.49 L62.84,27.48 Z" id="Path" fill="#E31E24"></path>
            <path d="M46.72,60.21 L43.94,69.77 C43.79,70.3 43.24,70.6 42.7,70.45 C42.17,70.3 41.87,69.74 42.02,69.21 L45.87,55.99 C46.09,55.24 47.04,55.02 47.57,55.59 L56.87,65.75 C57.24,66.15 57.21,66.79 56.81,67.15 C56.4,67.53 55.77,67.5 55.39,67.1 L48.67,59.76 L50.52,67.69 L54.97,86.77 C55.1,87.31 54.77,87.85 54.23,87.97 C53.69,88.1 53.15,87.77 53.03,87.23 L48.57,68.14 L46.72,60.21 L46.72,60.21 Z" id="Path" fill="#E31E24"></path>
            <polygon id="Path" fill="#000000" points="145.26 0 193.95 39.73 194.78 41.66 198.95 39.56 197.41 70.06 187.64 77.19 180 77.6 155.2 99.88 143.39 94.97 129.87 75.85 110.22 73.73 110.47 62.83 115.48 52.03 103.95 51.21 100 45.91"></polygon>
            <path d="M144.52,2.7 C145.14,2.1 145.93,1.94 147.09,2.7 L154.1,9.05 C154.68,9.57 155.26,10.08 154.66,11.55 L151.4,19.55 C150.87,20.52 150.15,21.06 148.94,20.47 L138.5,11.59 C137.48,10.84 137.98,10.08 138.5,9.31 L144.52,2.71 L144.52,2.7 Z" id="Path" fill="#FFED00"></path>
            <path d="M157.14,15.62 C157.86,13.82 159.06,14.23 160.32,14.89 L188.47,38.19 C189.15,39.02 190.47,39.34 189.42,41.46 L184.23,47.11 C183.19,47.61 182.15,47.91 181.11,47.11 L154.91,25.77 C153.75,24.87 153.77,23.9 154.27,22.89 L157.14,15.62 L157.14,15.62 Z" id="Path" fill="#696969"></path>
            <path d="M103.44,44.65 L125.3,23.29 C127.14,21.76 127.91,22.01 127.52,24.19 L116.49,47.99 C115.86,49.3 115,50.08 113.79,49.94 L105.85,49.46 C105.35,49.36 104.89,49.44 104.26,48.56 L102.86,46.68 C102.46,45.85 102.98,45.25 103.44,44.65 Z" id="Path" fill="#696969"></path>
            <path d="M133.8,18.75 C134.5,16.78 135.54,16.53 136.83,17.38 L146.41,25.2 C147.57,25.94 147.98,26.94 147.25,28.34 L137.9,49.4 C137.39,50.82 136.55,51.65 135.12,51.44 L122.24,50.91 C120.57,50.89 120.11,49.96 120.88,48.11 L133.8,18.75 Z" id="Path" fill="#696969"></path>
            <path d="M150.2,32.02 C151.08,29.93 152.43,30.52 153.81,31.36 L176.44,49.58 C177.54,50.81 177.92,52.93 175.5,52.93 L144.72,52.05 C142.9,51.95 142.37,51.05 142.78,49.58 L150.19,32.02 L150.2,32.02 Z" id="Path" fill="#696969"></path>
            <path d="M190.95,45.18 C192.25,43.7 192.73,43.92 193.02,44.5 L194.01,47.6 C194.21,48.57 193.56,49.32 192.48,49.94 L185.56,53.48 C184.56,53.87 183.68,54.12 184.26,52.93 C186.26,49.91 188.52,47.4 190.95,45.18 Z" id="Path" fill="#696969"></path>
            <path d="M194.8,42.77 L195.79,42.22 C196.71,41.92 197.38,42.24 197.72,43.34 L197.09,55.78 C197.09,57.52 195.44,57.87 194.8,56.51 L191.36,50.87 L194.8,48.93 L195.79,46.3 L194.8,42.77 L194.8,42.77 Z" id="Path" fill="#696969"></path>
            <path d="M177.3,55.81 L187.59,71.78 C188.56,73.16 189.39,73.12 190.21,72.9 L196.05,69.15 L196.42,63.9 L188.42,52.05 L183.03,54.28 L177.3,55.81 L177.3,55.81 Z" id="Path" fill="#696969"></path>
            <path d="M163.15,58.43 L169.36,55.43 L173.18,55.77 L181.37,67.96 C182.72,70.16 182.51,71.14 180.24,70.54 L163.59,61.94 C161.57,60.81 161.19,59.64 163.15,58.43 L163.15,58.43 Z" id="Path" fill="#696969"></path>
            <path d="M137.03,63.77 L157.45,64.14 L179.63,74.98 C181.17,75.88 182.75,77.3 179.63,77.3 L147.62,76.07 C145.79,76.07 145.24,75.53 144.75,74.98 L136.09,65.63 C134.13,63.63 136.06,63.99 137.03,63.77 L137.03,63.77 Z" id="Path" fill="#696969"></path>
            <path d="M123.88,64.18 L127.83,64.18 C128.45,64.28 129.07,64.41 129.75,65.05 L138.74,74.38 C139.83,75.42 139.63,75.88 138.11,75.73 L121.49,74.33 L118.33,71.6 C116.77,70.56 117.97,70.15 118.33,69.55 C118.33,69.55 122.48,65.47 123.88,64.18 L123.88,64.18 Z" id="Path" fill="#696969"></path>
            <path d="M113.71,71.42 C114.49,70.75 115.03,70.96 115.51,71.42 L117.17,73.74 L111.69,73.11 L113.71,71.42 L113.71,71.42 Z" id="Path" fill="#696969"></path>
            <path d="M120.53,56.73 C121.13,55.43 121.63,54.69 121.68,56.31 L122.01,58.52 C122.09,59.75 121.44,60.81 120.53,61.81 L116.83,65.66 C116.33,66.06 115.57,66.38 116.33,64.84 L120.53,56.73 L120.53,56.73 Z" id="Path" fill="#696969"></path>
            <polygon id="Path" fill="#696969" points="116.01 52.05 111.03 62.95 110.7 70.53 113.36 67.58 120.22 53.71 117.55 53.31 116.01 52.05"></polygon>
            <path d="M142.02,87.85 L147.58,87.63 C147.84,87.87 148.98,87.53 147.85,88.7 L144.21,91.92 C144.21,91.92 143.55,92.39 143.12,91.69 C142.41,90.49 141.85,89.44 141.5,88.73 C141.21,88.15 140.73,87.63 142.02,87.85 L142.02,87.85 Z" id="Path" fill="#696969"></path>
            <polygon id="Path" fill="#696969" points="146.55 94.14 151.95 89.33 170.55 77.3 159.84 91.29 151.54 96.53 146.55 94.13"></polygon>
            <polygon id="Path" fill="#696969" points="172.03 77.3 162.92 88.88 170.56 84.51 176.66 77.3"></polygon>
            <polygon id="Path" fill="#696969" points="177.82 77.3 174.56 81.42 179.26 77.3"></polygon>
            <polygon id="Path" fill="#696969" points="152.94 97.59 157.19 94.64 154.62 98.43"></polygon>
            <polygon id="Path" fill="#696969" points="159.56 92.77 155.52 98.79 167.69 87.9"></polygon>
            <path d="M126.3,3.7 C125.89,3.33 125.85,2.7 126.21,2.28 C126.58,1.86 127.21,1.82 127.62,2.18 L135.47,9.68 C136.05,10.18 135.85,11.14 135.11,11.38 L124.74,14.96 C124.21,15.12 123.65,14.83 123.49,14.3 C123.32,13.78 123.61,13.22 124.14,13.05 L130.87,10.62 L122.92,8.95 L108.79,5.98 C108.25,5.86 107.91,5.33 108.02,4.79 C108.14,4.25 108.67,3.91 109.21,4.02 L123.33,7 L131.28,8.67 L126.31,3.7 L126.3,3.7 Z" id="Path" fill="#E31E24"></path>
            <path d="M163.22,10.46 L169.91,13.11 C170.44,13.25 170.76,13.79 170.62,14.33 C170.48,14.86 169.94,15.18 169.4,15.04 L159.02,11.43 C158.27,11.23 158.02,10.28 158.58,9.74 L166.18,2.31 C166.58,1.92 167.21,1.94 167.59,2.33 C167.98,2.73 167.97,3.36 167.57,3.75 L162.72,8.53 L170.62,6.46 L183.75,3.03 C184.28,2.89 184.83,3.21 184.97,3.75 C185.11,4.28 184.79,4.83 184.25,4.97 L171.13,8.4 L163.23,10.46 L163.22,10.46 Z" id="Path" fill="#E31E24"></path>
        </g>
    </g>
</svg>