<?xml version="1.0" encoding="UTF-8"?>
<svg width="93px" height="101px" viewBox="0 0 93 101" version="1.1" xmlns="http://www.w3.org/2000/svg" xmlns:xlink="http://www.w3.org/1999/xlink">
    <title>ghost_5_2</title>
    <g id="Ghost" stroke="none" stroke-width="1" fill="none" fill-rule="evenodd">
        <g id="ghost_5_2" fill-rule="nonzero">
            <polygon id="Path" fill="#000000" points="91.8 68.8 46.51 100 17.48 85.3 16.41 84.13 10.15 69.13 10.35 68.11 13.85 64.71 3.95 62.62 3.29 60.72 6.92 54.08 1.24 46.72 0.01 43.15 1.34 41.71 3.74 41.84 2.67 33.76 15.27 18.38 16.27 17.74 17.75 17.18 17.83 15.58 18.29 14.01 20.09 11.14 24.99 10.83 25.99 10.95 29.46 12.69 37.87 9.46 37.96 6.16 42.05 0.28 43.85 0.01 56.75 8.3 57.13 9.04 57.32 12.42 59.2 9.8 67.3 6.46 69.15 6.89 87.2 41.6 86.66 43.25 78.65 43.79 91 61.2 90.76 63.43 92.46 66.61 91.79 68.79"></polygon>
            <polygon id="Path" fill="#696969" points="20.1 11.15 18.3 13.99 18.6 14.31 24.6 11.29 24.48 10.87"></polygon>
            <polygon id="Path" fill="#696969" points="36.53 10.87 35.73 10.3 18.49 16.9 18.67 18.05 35.6 19.15 36.24 18.58 36.53 10.88"></polygon>
            <polygon id="Path" fill="#696969" points="2.74 34.32 6.33 41.14 5.89 41.67 3.62 40.99 2.74 34.32"></polygon>
            <polygon id="Path" fill="#696969" points="3.6 42.4 2.86 42.36 3.61 42.4"></polygon>
            <polygon id="Path" fill="#FFED00" points="4.1 43.19 3.84 42.4 1.68 42.3 0.72 43.58 1.22 45.01 1.94 45.19 4.11 43.19"></polygon>
            <polygon id="Path" fill="#FFED00" points="39.84 44.15 39 43.18 39.3 39.81 39.84 39 43.44 43.81 42.56 44.15 39.84 44.15"></polygon>
            <polygon id="Path" fill="#696969" points="32.67 42.18 17.2 40.05 16.96 39.27 33.84 24.67 34.57 25.02 33.92 41.12 32.66 42.18"></polygon>
            <polygon id="Path" fill="#FFED00" points="58.82 41.42 56.87 14.97 53.14 10.12 39.99 18.63 39.99 36.56 45 42.74 45.51 42.96 58.26 42.06"></polygon>
            <polygon id="Path" fill="#696969" points="52.8 9.7 51.37 9.4 47.74 11.48 39.68 6.88 39.54 6.23 43.85 0.02 56.37 8.07 56.87 14.97 52.8 9.69"></polygon>
            <polygon id="Path" fill="#696969" points="87.2 41.6 80.56 42.04 80 41.74 62.7 10.28 63 9.45 69.16 6.9"></polygon>
            <polygon id="Path" fill="#696969" points="66.92 42.73 76.74 41.2 76.97 40.42 62.07 26.96 61.35 27.41 65.26 41.65 66.92 42.73"></polygon>
            <polygon id="Path" fill="#696969" points="63.85 67.57 63.22 67.14 64.02 48.8 64.39 48.38 76.11 46.3 76.63 46.77 75.31 62.37 75.04 62.75 63.84 67.57"></polygon>
            <polygon id="Path" fill="#FFED00" points="38.36 48.07 39.57 47 52.12 48.07 52.5 49.4 39.19 59.31 38 58.7 38.36 48.08"></polygon>
            <polygon id="Path" fill="#FFED00" points="38.95 68.53 38.3 67.9 38.7 62 38.93 61.57 54.79 49.57 55.15 49.46 58.42 49.46 59 50.12 57.2 66.3 56.67 66.83 38.95 68.52"></polygon>
            <polygon id="Path" fill="#696969" points="5.17 61.25 31.24 66.09 32.12 65.39 32.82 46.49 32.28 45.89 13.98 44.13 13.41 44.43 4.66 60.16 5.17 61.25"></polygon>
            <polygon id="Path" fill="#FFED00" points="53.68 95.06 54.9 88.12 54.22 87.67 40.87 96.38 40.92 97.15 46.52 99.99 53.68 95.06"></polygon>
            <polygon id="Path" fill="#FFED00" points="38.21 94.9 39.36 95.54 55.28 85.14 55.48 84.84 57.93 70.97 57.43 70.45 39.13 73.31 38.38 74.18 38.21 94.91"></polygon>
            <polygon id="Path" fill="#FFED00" points="91.8 68.8 90.05 65.52 89.82 65.4 87.88 65.7 58 85.21 56.48 93.14 91.79 68.8"></polygon>
            <polygon id="Path" fill="#FFED00" points="61.45 69.83 60.84 70.42 58.59 82.08 59.27 82.54 82.45 67.4 82.14 66.59 61.45 69.82"></polygon>
            <polygon id="Path" fill="#FFED00" points="34.43 75.96 34.66 92.01 33.37 92.81 19.52 85.82 19.45 84.8 33.03 75.25 34.43 75.96"></polygon>
            <polygon id="Path" fill="#FFED00" points="32.62 72.43 32.22 70.82 12.44 68.15 11.5 69.37 16.83 82.14 18.17 82.53"></polygon>
            <polygon id="Path" fill="#FFED00" points="51.67 10.12 52.59 10.12 39.99 18 40.47 17.1 51.67 10.12"></polygon>
            <path d="M21.6,55.45 L31.16,52.69 C31.69,52.54 32.25,52.84 32.4,53.37 C32.55,53.9 32.25,54.46 31.72,54.61 L18.49,58.43 C17.74,58.64 17.04,57.96 17.25,57.21 L20.85,43.91 C21,43.39 21.55,43.07 22.08,43.21 C22.61,43.36 22.93,43.91 22.78,44.44 L20.18,54.04 L25.91,48.22 L47.94,25.84 C48.33,25.44 48.96,25.44 49.35,25.83 C49.75,26.22 49.75,26.85 49.36,27.24 L27.33,49.63 L21.6,55.45 Z" id="Path" fill="#E31E24"></path>
        </g>
    </g>
</svg>