<?xml version="1.0" encoding="UTF-8"?>
<svg width="96px" height="100px" viewBox="0 0 96 100" version="1.1" xmlns="http://www.w3.org/2000/svg" xmlns:xlink="http://www.w3.org/1999/xlink">
    <title>ghost_2_2</title>
    <g id="Ghost" stroke="none" stroke-width="1" fill="none" fill-rule="evenodd">
        <g id="ghost_2_2" fill-rule="nonzero">
            <polygon id="Path" fill="#000000" points="46.54 100 45.36 99.67 38.1 94.8 37.33 97.9 35.19 98.43 19.07 87.45 8.57 73.14 7.07 67.14 5.44 66.04 4.79 64.94 4.73 64.26 1.36 64.26 0.02 62.98 0 49.2 26.52 7.81 27.72 7.22 32.25 8.26 38.32 11.69 38.32 10.43 40.62 5.96 47.57 0.17 51.23 0.37 55.4 4.6 58.56 10.2 58.37 14 78.65 19.64 79.73 20.26 91 34.61 91.53 36.48 91.03 43.04 89.47 44.39 87.26 44.69 87.26 51.43 94.61 61.95 93.56 64.22 96 70.52 95.2 72.55 62.83 97.15 62.02 97.49 58.4 97.67 56.96 98.52"></polygon>
            <polygon id="Path" fill="#696969" points="0.32 48.55 5.48 44.37 3.05 44.37"></polygon>
            <polygon id="Path" fill="#696969" points="26.63 7.72 30.66 8.64 30.93 9.25 15.87 35.64 8.96 39.62 8.41 40.88 8.65 42.03 3.87 43.09"></polygon>
            <polygon id="Path" fill="#696969" points="11.55 39.23 29.92 35.62 30.5 35.15 34.8 25.62 34.22 25.08 11.28 38.46 11.55 39.23"></polygon>
            <polygon id="Path" fill="#FFED00" points="30.6 40.35 27.51 56.13 25.42 58.11 5.05 60.77 4.51 59.87 15.72 43.49 16.06 43.26 30.11 39.87 30.61 40.35"></polygon>
            <polygon id="Path" fill="#FFED00" points="35.29 35.37 34.79 34.9 38.87 9.7 40.7 6.4 47.32 0.63 48 0.97 47.4 30.85 45.82 32.84"></polygon>
            <polygon id="Path" fill="#FFED00" points="58.3 10.47 55.54 5.27 51.36 0.97 50.68 1.26 50.58 30.99 52.38 33.41 56.06 34.41 56.76 33.88 58.31 10.47"></polygon>
            <polygon id="Path" fill="#696969" points="57.93 22.5 57.34 22.27 57.72 16.67 59.26 15.76 61.65 16.86 61.85 17.76 57.93 22.51"></polygon>
            <polygon id="Path" fill="#696969" points="64.39 17.43 63.85 17.08 60.25 15.66 60.62 14.46 75.7 18.7 75.63 19.36 66.63 19.61 64.39 17.43"></polygon>
            <polygon id="Path" fill="#696969" points="90.59 38.26 88.91 41.73 89.1 42.29 90.83 43.09 91.17 38.43 90.59 38.26"></polygon>
            <polygon id="Path" fill="#696969" points="80.86 37.82 64.52 20.58 63.3 20.64 60.71 23.98 60.54 24.48 60.24 35.18 60.92 36.02 80.15 39.22 80.85 37.82"></polygon>
            <polygon id="Path" fill="#696969" points="93.74 62.32 93.04 63.67 90.44 63.59 90.2 63.01 92.3 60.77 92.69 60.8 93.74 62.32"></polygon>
            <polygon id="Path" fill="#696969" points="91.38 64.95 93.43 65.24 94.09 65.76 95.68 69.77 91.17 65.38 91.37 64.95"></polygon>
            <polygon id="Path" fill="#FFED00" points="60.56 51.62 60.89 52.3 70.35 59.5 70.73 59.65 85.84 61.74 86.66 60.51 77.5 44.31 77.35 44.2 61.15 39.87 60.85 40.1 60.56 51.62"></polygon>
            <polygon id="Path" fill="#FFED00" points="59.26 62.03 58.63 61.36 58.63 56.18 59.65 55.63 67.65 61.16 67.25 62.38 59.25 62.03"></polygon>
            <polygon id="Path" fill="#FFED00" points="50.85 45.35 49.93 43.27 50.16 37.05 50.66 36.65 54.26 37.65 56.06 40.24 55.57 48.24 54.93 48.55 50.85 45.35"></polygon>
            <polygon id="Path" fill="#FFED00" points="32.2 54.98 31.57 54.57 33.91 40.22 35.48 38.52 46.57 36.02 47.36 36.7 47.08 43.37 46.2 45 32.2 54.98"></polygon>
            <polygon id="Path" fill="#FFED00" points="54.12 60.9 53.29 61.74 34.09 61.36 33.31 60.68 32.86 58.11 33.03 57.7 48.77 46.95 49.67 46.95 53.54 49.52 53.91 50.2 54.12 60.9"></polygon>
            <polygon id="Path" fill="#FFED00" points="37.69 86.12 38.53 86.82 54.32 85.98 55.09 85.12 54.56 67.13 53.76 66.33 35.29 65.92 34.47 66.9 37.69 86.12"></polygon>
            <polygon id="Path" fill="#696969" points="58.87 67.38 59.71 66.56 90.14 67.54 90.71 67.8 93.75 71.07 93.64 72.31 62.29 96.17 61.84 96.33 59.17 96.46 58.31 95.61"></polygon>
            <polygon id="Path" fill="#696969" points="56.87 98.42 56.85 98.42 47.95 99.68 47.68 99.11 56.5 90.35 57.06 90.59 57.14 96.19 58.31 97.57 56.87 98.42"></polygon>
            <polygon id="Path" fill="#696969" points="33.83 82.75 32.58 83.6 6.77 67.3 7.07 66.24 30.17 66.24 30.98 66.92 33.83 82.75"></polygon>
            <polygon id="Path" fill="#696969" points="34.23 92.3 34.1 92 22.34 77 7.1 67.2 8.6 73.21 19.05 87.55 33.92 97.75 34.8 97.2 34.24 92.3"></polygon>
        </g>
    </g>
</svg>