<?xml version="1.0" encoding="UTF-8"?>
<svg width="98px" height="100px" viewBox="0 0 98 100" version="1.1" xmlns="http://www.w3.org/2000/svg" xmlns:xlink="http://www.w3.org/1999/xlink">
    <title>ghost_6_3</title>
    <g id="Ghost" stroke="none" stroke-width="1" fill="none" fill-rule="evenodd">
        <g id="ghost_6_3" fill-rule="nonzero">
            <polygon id="Path" fill="#000000" points="0.09 19.28 9.19 80.88 63.83 99.92 97.75 67.42 97.75 7.5 42.65 0.14 0.08 19.28"></polygon>
            <polygon id="Path" fill="#0062AC" points="88.2 58.15 96.92 50.49 97 66.96 88.2 75.36"></polygon>
            <polygon id="Path" fill="#0062AC" points="76.6 67.85 86.72 59.31 86.72 76.68 76.92 85.99 76.6 67.85"></polygon>
            <polygon id="Path" fill="#0062AC" points="63.66 79.2 75.05 69.3 75.59 87.3 64.47 97.78 63.66 79.19"></polygon>
            <polygon id="Path" fill="#0062AC" points="88.02 37.4 96.86 30.55 96.86 48.14 88.06 55.77 88.02 37.39"></polygon>
            <polygon id="Path" fill="#0062AC" points="75.93 46.33 86.26 38.45 86.57 56.95 76.37 65.57"></polygon>
            <polygon id="Path" fill="#0062AC" points="62.38 56.8 74.16 47.87 74.79 66.61 63.5 76.51 62.38 56.81"></polygon>
            <polygon id="Path" fill="#696969" points="87.69 15.25 96.92 9.35 96.92 28.2 87.69 35.34"></polygon>
            <polygon id="Path" fill="#696969" points="74.94 23.14 86.14 16.14 86.14 36.08 75.66 43.66"></polygon>
            <polygon id="Path" fill="#696969" points="61.03 32.18 73.35 24.3 74.04 45 61.96 54.18 61.03 32.18"></polygon>
            <polygon id="Path" fill="#EF7F1A" points="7.36 63.07 22.45 67.79 24.46 85.13 9.86 80.08 7.36 63.07"></polygon>
            <polygon id="Path" fill="#EF7F1A" points="24.53 68.27 41.07 73.57 42.7 91.56 26.67 85.98 24.53 68.28"></polygon>
            <polygon id="Path" fill="#EF7F1A" points="43.45 74.08 61.32 79.73 62.48 98.39 44.93 92.17 43.45 74.08"></polygon>
            <polygon id="Path" fill="#EF7F1A" points="4.27 42.5 19.87 46.85 22.15 65.42 7 60.86 4.27 42.51"></polygon>
            <polygon id="Path" fill="#EF7F1A" points="22.14 47.39 39.2 51.6 40.81 71.02 24.41 66.05 22.13 47.39"></polygon>
            <polygon id="Path" fill="#EF7F1A" points="41.66 52.4 60.12 57.22 61.1 77.17 43 71.73 41.67 52.4"></polygon>
            <polygon id="Path" fill="#696969" points="1.26 20.93 17.1 24.14 19.4 44.16 4.11 40.48 1.26 20.93"></polygon>
            <polygon id="Path" fill="#696969" points="19.28 24.53 36.81 28.19 38.93 49.2 21.68 44.83"></polygon>
            <polygon id="Path" fill="#696969" points="39.55 28.62 58.74 32.72 59.76 54.45 41.19 49.75"></polygon>
            <polygon id="Path" fill="#696969" points="42.73 0.66 57.37 2.7 46.72 7.96 31.68 5.69 42.73 0.66"></polygon>
            <polygon id="Path" fill="#FFED00" points="29.96 6.38 45.32 8.69 33.14 14.73 17.63 12.02"></polygon>
            <polygon id="Path" fill="#696969" points="15.85 12.85 31.27 15.53 17.76 22.21 2.1 19.07 15.84 12.85"></polygon>
            <polygon id="Path" fill="#696969" points="33.53 15.85 50.83 18.85 37.47 26.23 19.88 22.71"></polygon>
            <polygon id="Path" fill="#FFED00" points="47.34 9.07 63.94 11.67 52.35 18 35.35 15.03 47.35 9.07"></polygon>
            <polygon id="Path" fill="#696969" points="59.65 2.98 75.66 5.2 65.54 10.9 48.75 8.3 59.65 3"></polygon>
            <polygon id="Path" fill="#696969" points="78.21 5.51 95.69 7.94 86.02 13.91 68.28 11.16 78.21 5.51"></polygon>
            <polygon id="Path" fill="#FFED00" points="66.32 11.92 84.4 14.77 73.43 21.69 54.81 18.39 66.31 11.92"></polygon>
            <polygon id="Path" fill="#696969" points="53.1 19.43 71.72 22.7 59.36 30.58 39.89 26.72 53.11 19.42"></polygon>
        </g>
    </g>
</svg>