<?xml version="1.0" encoding="UTF-8"?>
<svg width="204px" height="101px" viewBox="0 0 204 101" version="1.1" xmlns="http://www.w3.org/2000/svg" xmlns:xlink="http://www.w3.org/1999/xlink">
    <title>ghost_3_2</title>
    <g id="Ghost" stroke="none" stroke-width="1" fill="none" fill-rule="evenodd">
        <g id="ghost_3_2" fill-rule="nonzero">
            <polygon id="Path" fill="#000000" points="46.54 101 45.36 100.67 38.1 95.8 37.33 98.9 35.19 99.43 19.07 88.45 8.57 74.14 7.07 68.14 5.44 67.04 4.79 65.94 4.73 65.26 1.36 65.26 0.02 63.98 0 50.2 26.52 8.81 27.72 8.22 32.25 9.26 38.32 12.69 38.32 11.43 40.62 6.96 47.57 1.17 51.23 1.37 55.4 5.6 58.56 11.2 58.37 15 78.65 20.64 79.73 21.26 91 35.61 91.53 37.48 91.03 44.04 89.47 45.39 87.26 45.69 87.26 52.43 94.61 62.95 93.56 65.22 96 71.52 95.2 73.55 62.83 98.15 62.02 98.49 58.4 98.67 56.96 99.52"></polygon>
            <polygon id="Path" fill="#696969" points="0.32 49.55 5.48 45.37 3.05 45.37"></polygon>
            <polygon id="Path" fill="#696969" points="26.63 8.72 30.66 9.64 30.93 10.25 15.87 36.64 8.96 40.62 8.41 41.88 8.65 43.03 3.87 44.09"></polygon>
            <polygon id="Path" fill="#696969" points="11.55 40.23 29.92 36.62 30.5 36.15 34.8 26.62 34.22 26.08 11.28 39.46 11.55 40.23"></polygon>
            <polygon id="Path" fill="#FFED00" points="30.6 41.35 27.51 57.13 25.42 59.11 5.05 61.77 4.51 60.87 15.72 44.49 16.06 44.26 30.11 40.87 30.61 41.35"></polygon>
            <polygon id="Path" fill="#FFED00" points="35.29 36.37 34.79 35.9 38.87 10.7 40.7 7.4 47.32 1.63 48 1.97 47.4 31.85 45.82 33.84"></polygon>
            <polygon id="Path" fill="#FFED00" points="58.3 11.47 55.54 6.27 51.36 1.97 50.68 2.26 50.58 31.99 52.38 34.41 56.06 35.41 56.76 34.88 58.31 11.47"></polygon>
            <polygon id="Path" fill="#696969" points="57.93 23.5 57.34 23.27 57.72 17.67 59.26 16.76 61.65 17.86 61.85 18.76 57.93 23.51"></polygon>
            <polygon id="Path" fill="#696969" points="64.39 18.43 63.85 18.08 60.25 16.66 60.62 15.46 75.7 19.7 75.63 20.36 66.63 20.61 64.39 18.43"></polygon>
            <polygon id="Path" fill="#696969" points="90.59 39.26 88.91 42.73 89.1 43.29 90.83 44.09 91.17 39.43 90.59 39.26"></polygon>
            <polygon id="Path" fill="#696969" points="80.86 38.82 64.52 21.58 63.3 21.64 60.71 24.98 60.54 25.48 60.24 36.18 60.92 37.02 80.15 40.22 80.85 38.82"></polygon>
            <polygon id="Path" fill="#696969" points="93.74 63.32 93.04 64.67 90.44 64.59 90.2 64.01 92.3 61.77 92.69 61.8 93.74 63.32"></polygon>
            <polygon id="Path" fill="#696969" points="91.38 65.95 93.43 66.24 94.09 66.76 95.68 70.77 91.17 66.38 91.37 65.95"></polygon>
            <polygon id="Path" fill="#FFED00" points="60.56 52.62 60.89 53.3 70.35 60.5 70.73 60.65 85.84 62.74 86.66 61.51 77.5 45.31 77.35 45.2 61.15 40.87 60.85 41.1 60.56 52.62"></polygon>
            <polygon id="Path" fill="#FFED00" points="59.26 63.03 58.63 62.36 58.63 57.18 59.65 56.63 67.65 62.16 67.25 63.38 59.25 63.03"></polygon>
            <polygon id="Path" fill="#FFED00" points="50.85 46.35 49.93 44.27 50.16 38.05 50.66 37.65 54.26 38.65 56.06 41.24 55.57 49.24 54.93 49.55 50.85 46.35"></polygon>
            <polygon id="Path" fill="#FFED00" points="32.2 55.98 31.57 55.57 33.91 41.22 35.48 39.52 46.57 37.02 47.36 37.7 47.08 44.37 46.2 46 32.2 55.98"></polygon>
            <polygon id="Path" fill="#FFED00" points="53.3 62.74 34.1 62.36 33.31 61.68 32.86 59.11 33.03 58.7 48.77 47.95 49.67 47.95 53.54 50.52 54.44 52.45 54.12 61.89 53.29 62.74"></polygon>
            <polygon id="Path" fill="#FFED00" points="37.69 87.12 38.53 87.82 54.32 86.98 55.09 86.12 54.56 68.13 53.76 67.33 35.29 66.92 34.47 67.9 37.69 87.12"></polygon>
            <polygon id="Path" fill="#696969" points="58.87 68.38 59.71 67.56 90.14 68.54 90.71 68.8 93.75 72.07 93.64 73.31 62.29 97.17 61.84 97.33 59.17 97.46 58.31 96.61"></polygon>
            <polygon id="Path" fill="#696969" points="56.87 99.42 56.85 99.42 47.95 100.68 47.68 100.11 56.5 91.35 57.06 91.59 57.14 97.19 58.31 98.57 56.87 99.42"></polygon>
            <polygon id="Path" fill="#696969" points="33.83 83.75 32.58 84.6 6.77 68.3 7.07 67.24 30.17 67.24 30.98 67.92 33.83 83.75"></polygon>
            <polygon id="Path" fill="#696969" points="34.23 93.3 34.1 93 22.34 78 7.1 68.2 8.6 74.21 19.05 88.55 33.92 98.75 34.8 98.2 34.24 93.3"></polygon>
            <path d="M29.43,77.82 L29.42,77.98 C29.42,78.06 29.4,78.14 29.38,78.23 C29.37,78.32 29.35,78.41 29.32,78.49 C29.3,78.59 29.27,78.67 29.22,78.74 C29.19,78.82 29.15,78.88 29.1,78.93 C29.05,78.98 29,79 28.95,79 L23.7,79 C23.64,79 23.59,78.97 23.55,78.92 C23.52,78.87 23.5,78.79 23.5,78.68 L23.51,78.52 L23.55,78.29 L23.62,78.02 C23.64,77.92 23.67,77.84 23.72,77.77 C23.75,77.7 23.79,77.64 23.84,77.59 C23.89,77.54 23.94,77.51 24.01,77.51 L25.77,77.51 L26.98,71.43 L25.28,72.27 L25.04,72.35 C24.98,72.37 24.93,72.36 24.89,72.35 C24.86,72.33 24.84,72.3 24.82,72.25 L24.81,72.08 L24.82,71.8 L24.89,71.45 C24.93,71.32 24.97,71.2 25.03,71.1 C25.09,70.99 25.16,70.91 25.23,70.87 L27.56,69.55 L27.67,69.5 L27.82,69.47 L28.06,69.46 L28.89,69.46 L29.14,69.5 C29.2,69.52 29.23,69.54 29.24,69.57 L29.24,69.68 L27.69,77.51 L29.25,77.51 C29.31,77.51 29.35,77.54 29.39,77.59 C29.42,77.64 29.43,77.72 29.43,77.82 L29.43,77.82 Z" id="Path" fill="#FFFFFF"></path>
            <path d="M71.53,77.8 C71.53,77.84 71.53,77.9 71.51,77.97 C71.51,78.05 71.49,78.13 71.47,78.22 L71.41,78.49 L71.31,78.74 L71.19,78.93 C71.14,78.98 71.09,79 71.02,79 L65.57,79 C65.47,79 65.39,79 65.33,78.98 C65.27,78.96 65.21,78.94 65.18,78.9 C65.14,78.87 65.11,78.83 65.1,78.78 C65.08,78.73 65.07,78.68 65.07,78.6 L65.1,78.31 C65.11,78.19 65.14,78.05 65.18,77.91 C65.23,77.76 65.29,77.61 65.38,77.45 C65.48,77.3 65.59,77.15 65.74,77.02 L67.97,75.07 C68.27,74.8 68.52,74.56 68.74,74.33 C68.96,74.1 69.14,73.89 69.29,73.69 C69.44,73.49 69.57,73.31 69.66,73.14 C69.76,72.97 69.83,72.81 69.89,72.67 C69.94,72.53 69.97,72.4 69.99,72.28 L70.02,71.96 C70.02,71.86 70,71.77 69.97,71.66 C69.94,71.56 69.89,71.47 69.82,71.39 C69.75,71.3 69.64,71.23 69.52,71.17 C69.39,71.12 69.22,71.09 69.02,71.09 C68.76,71.09 68.52,71.13 68.28,71.2 C68.05,71.28 67.83,71.36 67.64,71.45 L67.16,71.7 C67.02,71.78 66.93,71.81 66.86,71.81 C66.8,71.81 66.76,71.79 66.73,71.73 C66.71,71.67 66.69,71.59 66.69,71.49 L66.69,71.32 L66.72,71.1 L66.78,70.84 L66.85,70.57 C66.87,70.49 66.9,70.41 66.94,70.34 C66.97,70.27 67.02,70.21 67.07,70.16 C67.12,70.1 67.24,70.03 67.41,69.93 C67.59,69.84 67.79,69.75 68.04,69.67 C68.28,69.58 68.54,69.51 68.84,69.45 C69.14,69.38 69.44,69.35 69.74,69.35 C70.26,69.35 70.69,69.42 71.03,69.55 C71.37,69.68 71.64,69.85 71.84,70.05 C72.04,70.25 72.18,70.47 72.27,70.72 C72.35,70.97 72.39,71.21 72.39,71.44 C72.39,71.66 72.37,71.87 72.34,72.09 C72.3,72.31 72.24,72.53 72.14,72.76 C72.05,73 71.93,73.24 71.77,73.49 C71.61,73.74 71.4,74 71.16,74.3 C70.91,74.6 70.61,74.9 70.26,75.23 C69.91,75.56 69.5,75.92 69.03,76.3 L67.68,77.44 L71.29,77.44 C71.38,77.44 71.44,77.48 71.47,77.55 C71.51,77.62 71.53,77.71 71.53,77.81 L71.53,77.8 Z" id="Path" fill="#FFFFFF"></path>
            <path d="M71.84,31.9 C71.84,32.13 71.81,32.37 71.75,32.62 C71.69,32.87 71.6,33.12 71.46,33.36 C71.33,33.6 71.16,33.83 70.94,34.05 C70.74,34.27 70.47,34.46 70.16,34.63 C69.86,34.79 69.5,34.93 69.08,35.03 C68.68,35.12 68.2,35.17 67.68,35.17 C67.43,35.17 67.21,35.15 66.98,35.13 L66.37,35.02 C66.17,34.97 65.99,34.92 65.82,34.85 C65.65,34.78 65.51,34.71 65.37,34.63 C65.29,34.58 65.22,34.52 65.19,34.45 C65.16,34.38 65.14,34.29 65.14,34.19 L65.15,34.02 L65.18,33.78 L65.23,33.52 C65.25,33.42 65.28,33.34 65.31,33.27 C65.34,33.19 65.37,33.13 65.41,33.08 C65.44,33.04 65.49,33.02 65.53,33.02 C65.59,33.02 65.67,33.05 65.78,33.11 L66.19,33.32 C66.36,33.4 66.56,33.47 66.79,33.54 C67.03,33.6 67.3,33.63 67.61,33.63 C67.95,33.63 68.25,33.58 68.51,33.49 C68.76,33.39 68.96,33.27 69.13,33.11 C69.3,32.96 69.42,32.79 69.5,32.59 C69.58,32.39 69.62,32.19 69.62,31.99 C69.62,31.84 69.59,31.69 69.54,31.55 C69.48,31.41 69.39,31.3 69.25,31.2 C69.12,31.1 68.95,31.02 68.72,30.96 C68.51,30.9 68.23,30.86 67.91,30.86 L67,30.86 C66.9,30.86 66.83,30.85 66.79,30.81 C66.75,30.77 66.73,30.69 66.73,30.59 L66.73,30.43 L66.77,30.2 L66.84,29.94 L66.94,29.7 C66.98,29.63 67.02,29.57 67.07,29.53 C67.13,29.48 67.18,29.46 67.25,29.46 L68.07,29.46 C68.39,29.46 68.69,29.41 68.95,29.32 C69.2,29.23 69.42,29.11 69.6,28.95 C69.78,28.8 69.92,28.62 70.01,28.42 C70.11,28.22 70.15,28 70.15,27.77 C70.15,27.5 70.07,27.29 69.9,27.12 C69.74,26.96 69.46,26.88 69.07,26.88 C68.82,26.88 68.57,26.92 68.33,26.99 C68.1,27.07 67.88,27.16 67.69,27.25 L67.18,27.51 C67.04,27.59 66.94,27.62 66.88,27.62 C66.82,27.62 66.78,27.6 66.75,27.55 C66.72,27.5 66.71,27.43 66.71,27.34 C66.71,27.29 66.71,27.21 66.73,27.11 L66.79,26.78 L66.89,26.43 C66.94,26.31 66.99,26.23 67.06,26.17 C67.12,26.11 67.23,26.03 67.4,25.94 C67.56,25.84 67.76,25.76 68,25.67 C68.24,25.58 68.5,25.51 68.8,25.45 C69.1,25.38 69.4,25.35 69.72,25.35 C70.16,25.35 70.54,25.4 70.87,25.5 C71.19,25.6 71.47,25.73 71.67,25.9 C71.89,26.07 72.04,26.28 72.15,26.53 C72.25,26.78 72.3,27.05 72.3,27.35 C72.3,27.67 72.25,27.97 72.15,28.26 C72.05,28.56 71.91,28.82 71.72,29.06 C71.52,29.3 71.3,29.51 71.02,29.68 C70.76,29.86 70.45,29.98 70.11,30.08 L70.11,30.09 C70.43,30.13 70.69,30.2 70.91,30.32 C71.13,30.44 71.31,30.59 71.44,30.76 C71.58,30.92 71.68,31.11 71.74,31.31 C71.8,31.51 71.84,31.71 71.84,31.91 L71.84,31.9 Z" id="Path" fill="#FFFFFF"></path>
            <path d="M30.2,32.02 L30.21,31.84 C30.21,31.73 30.2,31.64 30.17,31.59 C30.13,31.53 30.09,31.49 30.02,31.49 L29.2,31.49 L30.34,25.79 C30.35,25.74 30.34,25.69 30.29,25.65 C30.25,25.62 30.19,25.58 30.09,25.55 C29.99,25.53 29.84,25.51 29.67,25.5 C29.5,25.48 29.29,25.48 29.04,25.48 L28.44,25.49 C28.27,25.5 28.14,25.52 28.02,25.54 C27.9,25.56 27.81,25.59 27.74,25.62 C27.67,25.65 27.61,25.69 27.58,25.73 L23.58,30.96 L23.43,31.21 L23.31,31.54 L23.21,31.89 L23.14,32.22 L23.1,32.5 L23.08,32.7 C23.08,32.82 23.11,32.9 23.15,32.96 C23.2,33.01 23.29,33.04 23.41,33.04 L27.02,33.04 L26.69,34.75 C26.68,34.8 26.69,34.85 26.71,34.88 C26.73,34.92 26.77,34.95 26.83,34.98 L27.1,35.03 L27.55,35.04 L28.01,35.03 C28.13,35.01 28.23,35 28.31,34.97 C28.38,34.95 28.43,34.92 28.47,34.87 C28.51,34.84 28.53,34.8 28.54,34.75 L28.88,33.04 L29.73,33.04 C29.78,33.04 29.83,33.01 29.88,32.97 L30,32.78 C30.04,32.71 30.07,32.62 30.1,32.53 L30.17,32.26 L30.21,32.02 L30.2,32.02 Z M28.16,27.21 L28.18,27.21 L27.33,31.5 L24.86,31.5 L28.16,27.2 L28.16,27.21 Z" id="Shape" fill="#FFFFFF"></path>
            <polygon id="Path" fill="#000000" points="109 66.86 109.54 68.35 158.21 100 159.57 99.96 203.47 67.13 204 65.27 191.66 33.42 157.7 0 155.43 0 118.42 36.05 109 66.85"></polygon>
            <polygon id="Path" fill="#696969" points="159.03 99.75 159.58 99.72 164.5 95.92 164.32 95.5 154.85 96.68 154.75 97.12"></polygon>
            <polygon id="Path" fill="#696969" points="142.37 88.13 141.3 88.5 131 81.84 131.1 81.41 144.99 79.25 145.25 79.56"></polygon>
            <polygon id="Path" fill="#696969" points="190.12 76 189.83 76 188 74.52 188.1 74.06 193.06 73 193.25 73.46"></polygon>
            <polygon id="Path" fill="#FFED00" points="143.58 38.48 157.93 25.75 158.87 25.75 162.27 28.72 163.6 30.38 163.6 41.38 162.04 43 144.52 42.9 143.58 42.06 143.25 39.24 143.58 38.48"></polygon>
            <polygon id="Path" fill="#FFED00" points="159.5 19.5 164.43 22.77 164.75 23.38 164.68 27.74 164.1 28 159.93 24.08 159.63 23.4 159.51 19.5"></polygon>
            <polygon id="Path" fill="#FFED00" points="168.76 43.7 168.06 42.97 168 36.57 169.17 36 176.75 42.45 176.29 43.75 168.76 43.7"></polygon>
            <polygon id="Path" fill="#FFED00" points="143.09 36.25 156.27 24.04 156.43 23.69 156.5 19.57 155.96 19.25 144.76 25.92 144.08 26.92 142.5 35.92 143.09 36.25"></polygon>
            <polygon id="Path" fill="#696969" points="144.44 90.82 149.2 93.92 149.5 94 167.34 92.52 167.59 92.43 185.73 79.2 185.75 78.45 181.28 74.85 180.91 74.75 148.83 78.95 148.44 79.26 144.25 90.26 144.44 90.82"></polygon>
            <polygon id="Path" fill="#FFED00" points="125.08 77.25 142.35 75.71 143 74.92 140.2 49.14 139.49 48.5 132.59 48.5 132.27 48.62 111 66.82 111.06 67.94 124.76 77.17"></polygon>
            <polygon id="Path" fill="#FFED00" points="148.27 75.5 147.51 74.85 145 49.3 145.71 48.51 163.66 48.56 164.37 49.26 165 73.59 164.34 74.33 148.27 75.51"></polygon>
            <polygon id="Path" fill="#FFED00" points="168.96 48.75 168.25 49.49 169.01 72.31 169.8 73 197.75 70.1 198.08 69.97 202.43 66.91 202.5 65.79 183.79 48.93 183.31 48.75 168.96 48.75"></polygon>
            <polygon id="Path" fill="#696969" points="200 54.02 199.58 54.25 181.25 29.79 181.42 29.35 185.02 28.5 185.32 28.6 194.89 41.13 200 54.03"></polygon>
            <polygon id="Path" fill="#FFED00" points="168.18 12.75 167.75 12.9 168 22.66 168.44 23.45 180.93 31.5 181.25 31.16"></polygon>
            <polygon id="Path" fill="#FFED00" points="168.8 31.83 168.94 32.16 178.67 41.32 193.94 49.75 194.25 49.4 184.35 35.31 184.15 35.12 169.23 25.5 168.5 25.93 168.8 31.83"></polygon>
            <polygon id="Path" fill="#696969" points="117.75 39.53 117.54 39.7 114 51.88 114.48 52 123.5 39.63 123.3 39.25"></polygon>
            <polygon id="Path" fill="#FFED00" points="129.85 47.25 113.25 55.77 112.65 56.38 109.75 65.5 110.14 65.75 130.25 47.84"></polygon>
            <polygon id="Path" fill="#FFED00" points="139.18 39.15 138.45 40.13 115.06 52.75 114.75 52.4 126.15 37.2 126.29 37.07 140.89 28.5 141.25 28.75 139.18 39.15"></polygon>
            <polygon id="Path" fill="#FFED00" points="141.48 25.63 140.93 26.41 129.32 33.5 129 33.16 143.36 13.5 144 13.79 141.48 25.63"></polygon>
            <polygon id="Path" fill="#FFED00" points="202.9 61.35 203.75 63.49 203.35 63.75 186.25 48.38 186.53 48 196.83 53.24"></polygon>
            <polygon id="Path" fill="#696969" points="165.98 8 170 12.04 169.92 12.25 168.66 12.25 165.75 8.21"></polygon>
            <polygon id="Path" fill="#696969" points="172.04 13.86 182.63 24.36 184 26.33 183.84 26.7 180.12 27.25 179.9 27.15 170.25 14.13 170.45 13.75 172.05 13.85"></polygon>
            <polygon id="Path" fill="#FFED00" points="149.74 5.92 155.51 0.25 155.71 0.33 156.5 16.71 155.91 17.79 145.35 24 145 23.75 147.83 8.41 149.74 5.91"></polygon>
            <polygon id="Path" fill="#696969" points="132.72 23 132.5 22.6 142.14 13.25 142.5 13.56 136.27 22.11 135.98 22.3 132.72 23"></polygon>
            <polygon id="Path" fill="#696969" points="124.14 30.5 129.31 25.44 130.27 24.94 133.77 24.25 134 24.62 124.92 37.16 124.39 37.46 119.2 37.75 119 37.37 124.14 30.5"></polygon>
            <polygon id="Path" fill="#696969" points="118.58 36.04 119.84 34.5 120 34.67 118.44 37.5 118.25 37.39"></polygon>
            <polygon id="Path" fill="#FFED00" points="162.96 5.2 165 8.26 164.78 20.54 164.41 20.74 159.38 17.8 158.91 17.07 157.5 0.33 157.7 0.24 162.96 5.18"></polygon>
            <polygon id="Path" fill="#696969" points="192.75 37.05 191.45 33.56 186.48 28.5 186 28.94 192.37 37.5"></polygon>
            <path d="M132.92,68.36 L132.91,68.53 L132.87,68.77 L132.81,69.04 L132.71,69.29 C132.68,69.37 132.64,69.43 132.59,69.47 C132.54,69.52 132.49,69.54 132.43,69.54 L127.2,69.54 C127.13,69.54 127.09,69.52 127.05,69.46 C127.02,69.41 127,69.33 127,69.22 L127.01,69.06 C127.01,68.99 127.03,68.91 127.05,68.83 L127.11,68.56 L127.21,68.31 C127.24,68.24 127.29,68.18 127.34,68.13 C127.39,68.08 127.44,68.06 127.5,68.06 L129.26,68.06 L130.48,61.97 L128.78,62.81 C128.68,62.86 128.6,62.88 128.54,62.9 L128.39,62.89 C128.36,62.87 128.33,62.84 128.32,62.79 L128.3,62.62 L128.32,62.35 C128.33,62.23 128.36,62.11 128.39,61.99 C128.43,61.86 128.47,61.75 128.53,61.64 C128.58,61.54 128.65,61.46 128.73,61.41 L131.06,60.1 L131.16,60.05 L131.32,60.02 L131.56,60 L131.93,60 L132.38,60.01 C132.48,60.01 132.58,60.03 132.63,60.05 C132.69,60.06 132.72,60.09 132.73,60.12 L132.73,60.22 L131.18,68.06 L132.74,68.06 C132.8,68.06 132.84,68.08 132.87,68.13 C132.9,68.18 132.92,68.26 132.92,68.36 L132.92,68.36 Z" id="Path" fill="#EF7F1A"></path>
            <path d="M184.45,65.45 L184.45,65.62 L184.4,65.86 L184.33,66.13 L184.23,66.39 C184.2,66.46 184.16,66.52 184.11,66.57 C184.07,66.62 184.01,66.65 183.95,66.65 L178.5,66.65 C178.4,66.65 178.32,66.64 178.26,66.62 C178.19,66.61 178.14,66.58 178.1,66.55 C178.06,66.52 178.04,66.48 178.02,66.43 L178,66.25 C178,66.18 178,66.08 178.02,65.95 L178.11,65.55 C178.15,65.4 178.22,65.25 178.31,65.1 C178.41,64.94 178.52,64.8 178.67,64.67 L180.9,62.71 C181.2,62.45 181.45,62.21 181.67,61.97 C181.88,61.74 182.07,61.53 182.22,61.34 C182.37,61.14 182.49,60.96 182.59,60.79 C182.69,60.62 182.76,60.46 182.81,60.32 C182.87,60.18 182.91,60.05 182.91,59.92 C182.94,59.81 182.94,59.7 182.94,59.61 C182.94,59.51 182.93,59.41 182.9,59.31 C182.87,59.21 182.82,59.11 182.75,59.03 C182.67,58.95 182.57,58.88 182.45,58.82 C182.31,58.76 182.15,58.74 181.95,58.74 C181.69,58.74 181.45,58.77 181.21,58.84 C180.97,58.92 180.76,59.01 180.57,59.1 L180.08,59.35 C179.95,59.42 179.85,59.46 179.79,59.46 C179.73,59.46 179.69,59.43 179.66,59.37 C179.63,59.31 179.62,59.23 179.62,59.13 L179.62,58.97 L179.65,58.74 L179.7,58.48 L179.77,58.22 L179.87,57.99 C179.9,57.91 179.94,57.85 179.99,57.81 C180.05,57.75 180.17,57.67 180.34,57.58 C180.51,57.48 180.72,57.4 180.96,57.31 C181.2,57.23 181.47,57.15 181.76,57.09 C182.06,57.03 182.36,57 182.67,57 C183.19,57 183.61,57.06 183.96,57.2 C184.3,57.32 184.56,57.49 184.76,57.7 C184.96,57.9 185.11,58.12 185.19,58.37 C185.28,58.61 185.32,58.85 185.32,59.09 C185.32,59.3 185.3,59.52 185.26,59.74 C185.23,59.95 185.16,60.18 185.07,60.41 C184.98,60.64 184.85,60.88 184.69,61.13 C184.53,61.39 184.33,61.66 184.09,61.95 C183.84,62.24 183.54,62.55 183.19,62.88 C182.84,63.21 182.43,63.56 181.96,63.95 L180.61,65.09 L184.21,65.09 C184.31,65.09 184.37,65.12 184.41,65.19 C184.44,65.27 184.45,65.35 184.45,65.45 L184.45,65.45 Z" id="Path" fill="#EF7F1A"></path>
            <path d="M172.74,22 C172.74,22.14 172.72,22.29 172.69,22.44 C172.66,22.59 172.6,22.74 172.53,22.89 C172.45,23.04 172.36,23.19 172.23,23.31 C172.12,23.45 171.97,23.57 171.8,23.67 C171.63,23.77 171.43,23.85 171.2,23.91 C170.97,23.97 170.7,24 170.41,24 C170.28,24 170.15,24 170.03,23.98 L169.68,23.91 L169.38,23.81 L169.13,23.67 C169.08,23.64 169.05,23.6 169.03,23.57 C169.01,23.52 169,23.47 169,23.4 L169,23.3 L169.03,23.15 L169.05,22.99 L169.09,22.84 L169.15,22.73 C169.17,22.7 169.19,22.68 169.22,22.68 C169.25,22.68 169.3,22.7 169.35,22.74 L169.59,22.87 C169.68,22.92 169.79,22.97 169.92,23 C170.05,23.04 170.21,23.06 170.38,23.06 C170.57,23.06 170.74,23.03 170.88,22.97 C171.02,22.91 171.13,22.84 171.23,22.74 C171.32,22.65 171.39,22.54 171.43,22.42 C171.48,22.3 171.5,22.18 171.5,22.06 C171.5,21.96 171.49,21.87 171.45,21.79 C171.42,21.7 171.37,21.63 171.29,21.57 C171.22,21.51 171.12,21.47 171,21.43 C170.88,21.39 170.73,21.37 170.54,21.37 L170.04,21.37 C169.99,21.37 169.94,21.36 169.93,21.33 C169.9,21.31 169.89,21.26 169.89,21.2 L169.89,21.1 L169.92,20.96 C169.92,20.91 169.94,20.86 169.96,20.8 L170.01,20.66 C170.03,20.61 170.06,20.58 170.09,20.55 C170.11,20.52 170.15,20.51 170.19,20.51 L170.64,20.51 C170.82,20.51 170.98,20.48 171.13,20.42 C171.27,20.37 171.4,20.29 171.49,20.2 C171.59,20.1 171.67,20 171.72,19.87 C171.78,19.75 171.8,19.62 171.8,19.47 C171.8,19.31 171.76,19.18 171.66,19.08 C171.57,18.98 171.42,18.93 171.2,18.93 C171.06,18.93 170.92,18.96 170.79,19 C170.66,19.05 170.54,19.1 170.43,19.16 L170.14,19.32 C170.07,19.36 170.01,19.39 169.98,19.39 C169.94,19.39 169.92,19.37 169.91,19.34 C169.89,19.31 169.88,19.27 169.88,19.21 L169.89,19.07 L169.93,18.87 L169.99,18.66 C170.01,18.59 170.04,18.53 170.07,18.5 C170.11,18.46 170.17,18.41 170.27,18.36 C170.36,18.3 170.47,18.25 170.6,18.19 C170.74,18.14 170.88,18.09 171.05,18.06 C171.21,18.02 171.38,18 171.56,18 C171.81,18 172.02,18.03 172.2,18.09 C172.38,18.15 172.53,18.23 172.65,18.33 C172.77,18.44 172.85,18.57 172.91,18.72 C172.97,18.87 173,19.04 173,19.22 C173,19.42 172.97,19.6 172.92,19.78 C172.86,19.96 172.78,20.12 172.68,20.27 C172.57,20.41 172.44,20.54 172.29,20.65 C172.14,20.75 171.97,20.83 171.78,20.88 L171.78,20.9 C171.96,20.92 172.1,20.96 172.23,21.04 C172.35,21.11 172.45,21.2 172.53,21.3 C172.6,21.4 172.65,21.52 172.69,21.64 C172.72,21.76 172.74,21.88 172.74,22 L172.74,22 Z" id="Path" fill="#EF7F1A"></path>
            <path d="M140.93,24.1 L140.93,23.99 C140.93,23.92 140.93,23.87 140.91,23.83 C140.89,23.79 140.86,23.78 140.83,23.78 L140.37,23.78 L141,20.2 C141,20.16 141,20.13 140.97,20.11 L140.85,20.05 C140.8,20.03 140.72,20.02 140.63,20.01 L140.28,20 L139.95,20 L139.72,20.04 C139.65,20.05 139.6,20.07 139.56,20.09 L139.48,20.16 L137.28,23.44 L137.19,23.6 L137.13,23.8 L137.07,24.02 L137.03,24.22 L137.01,24.41 L137,24.53 C137,24.6 137.01,24.66 137.04,24.69 C137.06,24.73 137.11,24.74 137.18,24.74 L139.18,24.74 L138.98,25.82 C138.98,25.85 138.98,25.87 139,25.9 C139,25.92 139.03,25.94 139.07,25.95 C139.1,25.97 139.15,25.98 139.22,25.99 L139.46,26 L139.71,25.99 C139.78,25.99 139.83,25.97 139.87,25.95 C139.92,25.94 139.95,25.92 139.97,25.9 L140.01,25.82 L140.2,24.74 L140.66,24.74 C140.69,24.74 140.72,24.73 140.74,24.7 C140.77,24.67 140.79,24.63 140.81,24.58 L140.87,24.42 L140.9,24.25 L140.93,24.1 Z M139.8,21.08 L139.81,21.08 L139.34,23.78 L137.98,23.78 L139.8,21.08 L139.8,21.08 Z" id="Shape" fill="#EF7F1A"></path>
            <path d="M105.3,50.28 C105.29,50.36 105.06,50.88 105,50.94 C104.96,50.98 104.9,51 104.83,51 L99.25,51 C99.18,51 99.12,50.98 99.08,50.93 C99.04,50.88 99.02,50.79 99.02,50.67 C99.02,50.61 99.02,50.52 99.04,50.4 L99.13,50.05 C99.17,49.92 99.22,49.82 99.29,49.73 C99.35,49.64 99.43,49.6 99.52,49.6 L104.45,49.6 C104.42,49.55 104.41,49.5 104.41,49.43 C104.41,49.36 104.41,49.28 104.43,49.18 C104.43,49.08 104.62,48.38 104.66,48.31 C104.7,48.24 104.75,48.19 104.8,48.16 C104.85,48.13 104.9,48.13 104.97,48.16 L110.02,50.96 C110.07,50.99 110.1,51.03 110.13,51.08 C110.16,51.13 110.17,51.21 110.17,51.31 C110.17,51.4 109.97,52.28 109.91,52.39 C109.85,52.49 109.78,52.57 109.69,52.6 L103.59,55.36 C103.47,55.42 103.39,55.42 103.34,55.38 C103.29,55.33 103.26,55.25 103.26,55.11 C103.26,54.99 103.37,54.39 103.42,54.25 L103.56,53.95 L98.66,53.95 C98.59,53.95 98.53,53.93 98.49,53.88 C98.45,53.83 98.43,53.75 98.43,53.63 C98.43,53.57 98.63,52.78 98.69,52.69 C98.76,52.59 98.84,52.55 98.94,52.55 L104.53,52.55 C104.6,52.55 104.66,52.58 104.7,52.63 C104.73,52.68 104.75,52.76 104.75,52.87 L104.75,53.02 L104.71,53.24 L104.7,53.31 L108.4,51.74 L105.32,50.14 C105.32,50.19 105.32,50.24 105.3,50.28 L105.3,50.28 Z" id="Path" fill="#000000"></path>
        </g>
    </g>
</svg>