<?xml version="1.0" encoding="UTF-8"?>
<svg width="90px" height="100px" viewBox="0 0 90 100" version="1.1" xmlns="http://www.w3.org/2000/svg" xmlns:xlink="http://www.w3.org/1999/xlink">
    <title>ghost_8_3</title>
    <g id="Ghost" stroke="none" stroke-width="1" fill="none" fill-rule="evenodd">
        <g id="ghost_8_3" fill-rule="nonzero">
            <path d="M38.87,0 L54.53,0.49 L67.77,16.26 L87.43,17.46 C88.66,17.88 90.16,18.29 89.77,20.2 L88.27,28.25 L85.22,33.94 L82.1,40.37 L88.27,62.22 L77.01,78.83 L59.55,85.76 L56.15,91.15 L45.59,99.4 C44.84,99.98 44.04,100.2 43.12,99.4 L30.76,89.8 L29.59,87.3 L14.23,79.5 L10.63,72.45 L7.24,72.45 L3.02,68.99 L3.02,64.89 L4.85,61.12 L0,51.25 L3.94,30.87 L0.61,23.92 L0.01,17.96 C-0.07,16.54 1.11,15.61 2.62,15.52 L17.34,15.52 L38.87,0 Z" id="Path" fill="#000000"></path>
            <path d="M34.54,3.49 L34.54,4.67 C34.59,5.19 34.93,5.12 35.34,4.89 L37.58,2.22 C37.78,1.72 37.66,1.44 37.08,1.5 L34.54,3.2" id="Path" fill="#FFED00"></path>
            <path d="M17.7,15.6 L29.1,7.51 C29.65,7.06 30.17,6.71 30.42,7.51 L30.42,11.04 L26.85,15.61 L17.7,15.61 L17.7,15.6 Z" id="Path" fill="#FFED00"></path>
            <path d="M57.2,5.47 L63.15,16.24 L67.47,16.36 L58.32,5.47 C56.14,3.21 56.71,4.39 57.2,5.47 Z" id="Path" fill="#FFED00"></path>
            <path d="M4.48,15.6 C2.58,15.6 1.9,16.02 4.48,16.87 L28.8,26.05 C30.87,26.75 32.72,27.19 32.83,25.45 L32.83,17.52 C32.98,16.1 32.83,15.61 30.43,15.61 L4.47,15.61 L4.48,15.6 Z" id="Path" fill="#696969"></path>
            <path d="M39.65,15.35 L50.7,15.6 C52.02,15.51 52.98,15.8 53.26,16.8 L56.16,25.75 C56.53,26.75 56.12,27.26 54.8,27.23 L40.6,27.23 C39.4,27.18 38.15,27.22 38.05,25.75 L37.68,16.8 C37.57,15.43 38.48,15.23 39.66,15.34 L39.65,15.35 Z" id="Path" fill="#FFED00"></path>
            <path d="M59.4,16.02 C57.9,15.94 56.78,16.12 57.48,17.47 L61.12,25.65 C61.69,27.15 62.83,27.77 64.71,27.25 L85.71,19.13 C87.93,18.14 87.27,17.63 84.57,17.47 L59.4,16.02 Z" id="Path" fill="#696969"></path>
            <path d="M72.16,28.17 L87.8,21.72 C88.78,21.15 89.28,21.34 89.15,22.49 L88.07,28.17 L85.16,33.43 L72.16,30.2 C69.81,29.52 70.15,28.85 72.16,28.17 L72.16,28.17 Z" id="Path" fill="#696969"></path>
            <path d="M38.32,29.78 L55.53,29.78 L48.43,32.88 C47.36,33.18 46.63,33.88 44.4,32.88 L38.32,29.78 Z" id="Path" fill="#FFED00"></path>
            <path d="M0.55,21.14 C0.67,19.49 1.54,19.94 2.31,20.14 L21.12,27.7 C23.14,28.8 23.14,30.92 21.12,31.59 L6.05,35 L1.01,23.98 L0.55,21.14 Z" id="Path" fill="#696969"></path>
            <path d="M62.14,36.3 C62.37,34.4 63.21,33.9 64.24,33.83 L81.54,36.31 C82.7,36.52 83.04,37.21 82.69,38.29 L75.73,52.59 C75.59,52.87 75.53,52.95 75.09,53.19 C74.64,53.41 74.49,53.44 74.09,53.43 L62.76,53.33 C61.45,53.55 61.17,52.96 61.3,52.04 L62.14,36.31 L62.14,36.3 Z" id="Path" fill="#FFED00"></path>
            <path d="M48.4,39.82 C48.56,37.64 49.4,36.58 50.7,36.27 L56.75,33.83 C58.09,33.03 58.79,33.33 58.69,35.01 L58.22,51.01 C58.03,52.07 58.22,53.32 56.3,53.43 L49.63,53.43 C48.51,53.65 47.9,53.1 47.99,51.57 L48.39,39.82 L48.4,39.82 Z" id="Path" fill="#FFED00"></path>
            <path d="M34.64,35.8 C34.49,33.14 35.6,34.24 36.36,34.31 L43.13,37.01 C44.01,37.32 44.73,37.99 44.92,39.71 L44.44,52.33 C44.44,52.33 44.41,54.39 43.13,54.33 L37.12,54.47 C35.84,54.5 35.2,53.76 35.1,52.33 L34.64,35.79 L34.64,35.8 Z" id="Path" fill="#FFED00"></path>
            <path d="M9.05,38.09 L27.72,34.77 C29.15,34.53 30.05,35.02 30.22,36.5 L31.19,51.78 C31.19,51.78 31.5,54.46 29.39,54.48 L16.2,54.75 C15.68,54.81 15.18,54.59 14.73,53.85 L8.48,40.6 C8.48,40.6 7.51,38.6 9.05,38.1 L9.05,38.09 Z" id="Path" fill="#FFED00"></path>
            <path d="M2.8,39.78 L1.32,46.12 C1.32,46.12 0.85,49.12 2.8,47.02 L7.67,40.32 L6.6,37.95 L4.48,38.35 C3.77,38.45 3.16,38.82 2.8,39.78 Z" id="Path" fill="#FFED00"></path>
            <polygon id="Path" fill="#FFED00" points="4.26 31.17 3.41 35.33 6.05 35 4.26 31.16"></polygon>
            <path d="M79.45,45.36 L82.35,50.76 C82.35,50.76 82.77,51.84 83.56,51.68 L85.04,51.6 L81.76,40.69 L79.46,45.36 L79.45,45.36 Z" id="Path" fill="#FFED00"></path>
            <polygon id="Path" fill="#FFED00" points="84.8 55.72 86.13 55.47 87.43 60.08"></polygon>
            <path d="M60.73,61.33 C60.73,61.33 60.63,58.58 62.89,58.56 L70.97,57.72 C70.97,57.72 73.13,57.47 72.04,59.52 L61.11,81.3 C60.25,82.84 59.83,82.84 59.83,81.3 L60.73,61.33 Z" id="Path" fill="#696969"></path>
            <path d="M62.88,79.05 L59.83,84.93 L71.05,80.65 C73.58,79.57 72.99,78.65 71.05,78.65 L62.88,79.05 Z" id="Path" fill="#FFED00"></path>
            <path d="M47.33,63.43 C47.33,63.43 47.21,59.06 50.29,58.95 L55.96,58.62 C57.62,58.42 57.6100007,58.95 57.6100007,61.02 L56.31,86.38 C56.4,88.32 55.93,89.88 54.75,90.96 L48.7,95.83 C47.45,96.75 45.9,98.73 46.33,93.6 L47.33,63.43 L47.33,63.43 Z" id="Path" fill="#FFED00"></path>
            <path d="M34.63,61.86 C34.45,59.65 35.39,58.99 36.86,59.08 L41.34,59.08 C42.64,58.93 43.49,59.69 43.67,61.86 L42.91,95.96 C42.68,97.76 42.04,97.56 41.34,96.98 L36.86,93.92 C36.11,93.53 35.62,92.87 35.61,91.58 L34.63,61.86 Z" id="Path" fill="#FFED00"></path>
            <path d="M19.67,59.06 L29.06,59.06 C30.08,59.06 30.99,59.37 31.23,61.75 L32.36,87.16 C32.36,90.36 31.23,89.95 30.06,87.16 L18.54,62.36 C17.49,60.59 16.96,59.06 19.67,59.06 L19.67,59.06 Z" id="Path" fill="#E31E24"></path>
            <path d="M26.16,79.72 L29.46,86.79 L19.68,81.84 C17.18,80.56 18.43,79.72 19.68,79.72 L26.16,79.72 L26.16,79.72 Z" id="Path" fill="#FFED00"></path>
            <polygon id="Path" fill="#FFED00" points="3.6 66.37 6.14 70.87 3.45 68.83 3.6 66.37"></polygon>
            <path d="M19.88,34.36 L23.18,43.75 C23.37,44.27 23.1,44.84 22.58,45.02 C22.05,45.21 21.48,44.93 21.3,44.42 L16.73,31.42 C16.47,30.69 17.12,29.95 17.88,30.12 L31.35,32.95 C31.89,33.07 32.24,33.6 32.12,34.14 C32.02,34.68 31.48,35.02 30.94,34.91 L21.2,32.86 L27.3,38.21 L62.77,69.32 C63.18,69.69 63.22,70.32 62.87,70.73 C62.5,71.15 61.87,71.19 61.45,70.83 L25.98,39.7 L19.88,34.35 L19.88,34.36 Z" id="Path" fill="#E31E24"></path>
            <path d="M68.93,24 L60.26,19.12 C59.78,18.85 59.61,18.24 59.88,17.76 C60.15,17.28 60.76,17.11 61.24,17.38 L73.24,24.13 C73.92,24.51 73.92,25.49 73.24,25.87 L61.24,32.62 C60.76,32.89 60.14,32.72 59.88,32.24 C59.61,31.76 59.78,31.14 60.26,30.88 L68.93,26 L15,26 C14.45,26 14,25.55 14,25 C14,24.45 14.45,24 15,24 L68.93,24 Z" id="Path" fill="#E31E24"></path>
            <path d="M66.96,59.44 L74.44,52.87 C74.85,52.51 75.48,52.55 75.84,52.97 C76.21,53.37 76.17,54.01 75.76,54.37 L65.4,63.47 C64.82,63.98 63.9,63.66 63.76,62.89 L61.36,49.33 C61.27,48.79 61.63,48.27 62.18,48.17 C62.72,48.07 63.24,48.44 63.34,48.98 L65.06,58.78 L67.75,51.14 L77.05,24.68 C77.23,24.16 77.8,23.88 78.32,24.07 C78.84,24.25 79.12,24.82 78.93,25.34 L69.63,51.8 L66.95,59.45 L66.96,59.44 Z" id="Path" fill="#E31E24"></path>
        </g>
    </g>
</svg>