<?xml version="1.0" encoding="UTF-8"?>
<svg width="95px" height="100px" viewBox="0 0 95 100" version="1.1" xmlns="http://www.w3.org/2000/svg" xmlns:xlink="http://www.w3.org/1999/xlink">
    <title>ghost_1_4</title>
    <g id="Ghost" stroke="none" stroke-width="1" fill="none" fill-rule="evenodd">
        <g id="ghost_1_4" fill-rule="nonzero">
            <polygon id="Path" fill="#000000" points="15.1255344 23.0382022 60.5562945 0.159550562 94.8081948 38.4696629 90.8457245 86.388764 41.4637767 99.8966292 0.151187648 68.7078652"></polygon>
            <polygon id="Path" fill="#FFED00" points="58.2478622 5.05842697 49.7339667 46.1280899 37.7562945 37.7775281"></polygon>
            <polygon id="Path" fill="#FFED00" points="57.2211401 3.93033708 36.7611639 37.0224719 26.6315914 29.7258427"></polygon>
            <polygon id="Path" fill="#FFED00" points="55.6370546 3.61123596 25.6477435 28.9595506 17.2218527 22.9955056"></polygon>
            <polygon id="Path" fill="#FFED00" points="36.4294537 39.9505618 47.6376485 48.3011236 25.5619952 57.247191"></polygon>
            <polygon id="Path" fill="#FFED00" points="24.8353919 31.4741573 35.2741093 39.1842697 24.0659145 57.2494382 9.73467933 43.7865169"></polygon>
            <polygon id="Path" fill="#FFED00" points="15.6377672 24.7842697 23.5942993 30.705618 9.86330166 42.3370787"></polygon>
            <polygon id="Path" fill="#FFED00" points="8.66508314 46.0426966 21.6694774 58.8247191 1.77814727 66.6629213"></polygon>
            <polygon id="Path" fill="#FFED00" points="61.1565321 3.61123596 69.6275534 27.8089888 53.2 44.2966292"></polygon>
            <polygon id="Path" fill="#FFED00" points="70.5685273 30.4516854 79.380285 55.3730337 53.5836105 47.7483146"></polygon>
            <polygon id="Path" fill="#FFED00" points="55.4655582 51.0719101 80.1068884 58.0157303 88.8780285 82.4696629"></polygon>
            <polygon id="Path" fill="#FFED00" points="62.8241093 4.20674157 77.369715 20.3955056 70.7828979 26.8292135"></polygon>
            <polygon id="Path" fill="#FFED00" points="71.6809976 29.4292135 78.5250594 22.4 91.5723278 58.8674157 81.0501188 55.8"></polygon>
            <polygon id="Path" fill="#FFED00" points="81.9482185 58.3977528 91.8724466 61.211236 90.1619952 81.8314607"></polygon>
            <polygon id="Path" fill="#FFED00" points="80.4498812 23.7191011 93.7543943 38.5460674 92.1296912 56.9932584"></polygon>
            <polygon id="Path" fill="#FFED00" points="26.9317102 59.7191011 48.5786223 51.2831461 45.884323 67.388764"></polygon>
            <polygon id="Path" fill="#FFED00" points="51.6159145 52.0516854 85.9264846 83.5775281 48.5786223 68.5370787"></polygon>
            <polygon id="Path" fill="#FFED00" points="2.67624703 69.0921348 22.3983373 61.5505618 21.0286223 83.1078652"></polygon>
            <polygon id="Path" fill="#FFED00" points="25.3498812 61.2539326 45.3269596 69.2629213 42.8041568 84.6853933 23.6371734 84.4719101"></polygon>
            <polygon id="Path" fill="#FFED00" points="48.1521378 70.4134831 85.6692399 85.3235955 45.5413302 84.8134831"></polygon>
            <polygon id="Path" fill="#FFED00" points="24.7496437 85.7932584 42.4611639 86.1325843 40.5792162 97.7640449"></polygon>
            <polygon id="Path" fill="#FFED00" points="45.1983373 86.2179775 84.5996437 86.941573 42.889905 98.4022472"></polygon>
        </g>
    </g>
</svg>