<?xml version="1.0" encoding="UTF-8"?>
<svg width="97px" height="100px" viewBox="0 0 97 100" version="1.1" xmlns="http://www.w3.org/2000/svg" xmlns:xlink="http://www.w3.org/1999/xlink">
    <title>ghost_8</title>
    <g id="Ghost" stroke="none" stroke-width="1" fill="none" fill-rule="evenodd">
        <g id="ghost_8" fill-rule="nonzero">
            <path d="M39.64,4.88 L76.61,0.06 C77.55,-0.11 78.27,0.06 78.52,0.89 L80.2,6.2 L74.9,15.57 L72.41,16.99 L76.45,20.89 L78.86,24.15 L80.93,25.78 L88.76,25.78 C89.86,25.7 90.58,26.23 90.83,27.52 L90.63,29.41 L88.61,33.61 L96.64,54.02 C96.64,54.02 96.89,54.94 96.81,55.47 C96.72,56 96.21,56.67 96.21,56.67 L85.7,72.81 L48.47,99.57 C47.88,99.93 47.23,100.07 46.4,99.57 L0.84,59.49 C-0.45,58.45 -0.1,57.16 0.84,55.77 L15.64,30.73 L18.2,28.35 L19.72,14.91 L22.02,13.37 L27.24,20 L40.04,7.93 L38.94,6.2 C38.57,5.55 38.77,5.1 39.64,4.88 Z" id="Path" fill="#000000"></path>
            <path d="M41.6,6.55 C40.37,5.65 41.6,4.73 42.91,4.73 L75.41,0.68 C76.91,0.4 77.34,1.29 76.07,1.97 L57.39,12.14 L50.87,8.63 L44.83,9.47 L41.59,6.55 L41.6,6.55 Z" id="Path" fill="#696969"></path>
            <polygon id="Path" fill="#FFED00" points="27.53 20.04 36.89 11.15 36.53 12.75 28.53 21.48 27.53 20.04"></polygon>
            <polygon id="Path" fill="#FFED00" points="29.48 21.91 33 23.2 46.64 10.44 39.5 10.44 29.48 21.9"></polygon>
            <polygon id="Path" fill="#FFED00" points="33.82 23.56 35.72 24.26 47.72 13.46 48.41 10.1 33.82 23.56"></polygon>
            <polygon id="Path" fill="#FFED00" points="52.39 10.1 52.13 13.14 60.53 21.88 53.58 11.15 52.38 10.1"></polygon>
            <polygon id="Path" fill="#FFED00" points="56.02 12.14 64.44 24.02 67.83 25.92 74.86 25.92 70.9 20.55 56.02 12.15"></polygon>
            <polygon id="Path" fill="#FFED00" points="70.23 18.07 72.07 17.13 75.92 20.66 79.86 25.68 75.92 25.68 70.22 18.08"></polygon>
            <polygon id="Path" fill="#696969" points="66.24 26.33 68.9 28.56 77.3 32.13 87.56 26.71 87.11 26.33 66.24 26.33"></polygon>
            <path d="M71,34.23 L73.45,38.65 C74.05,39.6 74.57,39.59 75.05,38.65 L76.15,35.79 C76.14,35.01 76.14,34.23 74.86,33.75 L72.79,33.01 C71.38,32.89 70.62,33.2 70.99,34.23 L71,34.23 Z" id="Path" fill="#696969"></path>
            <path d="M20.04,15.99 L17.44,38.21 L29.34,27.32 L21.36,15.68 C20.9,14.96 20.26,14.96 20.04,15.98 L20.04,15.99 Z" id="Path" fill="#696969"></path>
            <polygon id="Path" fill="#FFED00" points="15.8 30.83 15.13 32.09 18.25 28.79 15.81 30.83"></polygon>
            <polygon id="Path" fill="#FFED00" points="18.25 29.49 13.65 34.61 11.84 37.6 17.76 32.95 18.26 29.49"></polygon>
            <polygon id="Path" fill="#FFED00" points="11.08 39 8.02 44.1 16.28 35.15 11.08 39.01"></polygon>
            <polygon id="Path" fill="#FFED00" points="4.38 50.58 1.62 55.13 32.21 27.75 30.5 26.53"></polygon>
            <path d="M79.43,36.17 L77.29,41.95 L77.02,53.75 C77.07,54.56 77.29,54.53 77.64,53.96 L90.13,29.84 C90.39,29.1 90.39,28.94 89.83,29.23 L79.43,36.17 Z" id="Path" fill="#696969"></path>
            <path d="M88.39,33.83 L89.83,37.39 C90.13,38.04 89.83,37.93 89.61,37.74 L87.7,35.32 L88.39,33.83 Z" id="Path" fill="#FFED00"></path>
            <polygon id="Path" fill="#FFED00" points="87.2 36.3 85.86 38.86 90.17 44.68 93.67 47.31 91.02 40.36 88.82 37.48 87.19 36.3"></polygon>
            <polygon id="Path" fill="#FFED00" points="92.82 48.96 96.1 53.35 94.83 50.11"></polygon>
            <path d="M39.14,25.68 L48.41,17.18 C49.33,16.36 50.3,16.21 51.34,17.13 L58.35,23.79 C59.13,24.74 60.04,25.67 58.62,27.02 L46.64,38.22 C46.64,38.22 44.51,40.45 43.36,38.22 L38.74,28.47 C37.95,27.43 37.94,26.48 39.14,25.68 Z" id="Path" fill="#FFED00"></path>
            <path d="M4.6,56.64 L31.4,32.14 C32.52,31.11 33.6,31.07 34.64,32.09 L39.58,41.73 C40.2,42.98 40.41,44.22 39.07,45.38 L16.69,66.64 C15.44,68.06 14.29,68.23 13.21,67.37 L4.61,59.92 C3.22,58.82 3.39,57.73 4.61,56.64 L4.6,56.64 Z" id="Path" fill="#FFED00"></path>
            <path d="M59.87,32.99 C61.1,31.53 63,31.67 63.43,32.99 L76.9,64.97 C77.74,66.69 77.62,67.85 75.58,67.89 L59.36,68.41 C57.83,68.58 56.83,67.94 56.33,66.53 L47.8,47.3 C46.73,45.43 47.3,44.27 48.42,43.33 L59.88,32.98 L59.87,32.99 Z" id="Path" fill="#FFED00"></path>
            <path d="M40.07,51.37 C41.29,50.07 42.52,49.42 43.81,51.37 L50.86,65.47 C51.61,67.17 51.59,68.79 49.21,68.74 L25.55,69.6 C22.35,69.6 22.35,67.9 23.39,66.75 L40.07,51.37 Z" id="Path" fill="#696969"></path>
            <path d="M66.25,72.41 L79.42,71.91 C81.5,71.91 81.5,73.88 80.28,74.86 L68.07,83.83 C66.55,84.72 65.47,84.63 65.22,82.66 L64.62,74.28 C64.67,72.92 65.34,72.48 66.25,72.41 Z" id="Path" fill="#FFED00"></path>
            <path d="M44.03,73.2 L56.96,72.53 C58.19,72.48 59.18,72.84 59.36,74.47 L60.53,87.58 C60.62,88.29 60.52,89.01 59.83,89.77 L56.96,91.9 C56.54,92.2 56.1,92.4 55.59,92.38 L46.02,92.38 C44.79,92.44 44.11,91.82 44.02,90.48 L42.3,75.35 C42.3,75.35 41.98,73.29 44.03,73.19 L44.03,73.2 Z" id="Path" fill="#FFED00"></path>
            <path d="M24.13,73.68 L35.03,73.38 C36.45,73.25 37.18,73.9 37.35,75.21 L38.56,86.17 C38.78,88.23 37.36,89.15 36.01,88 L23.21,76.9 C23.21,76.9 20.21,73.68 24.13,73.68 L24.13,73.68 Z" id="Path" fill="#FFED00"></path>
            <path d="M45.43,95.88 L49.99,95.88 C50.93,95.88 51.33,96.08 50.61,96.98 L48.41,98.57 C47.96,98.97 47.21,99.34 46.67,98.67 L45,96.98 C44.54,96.58 44.06,95.99 45.42,95.88 L45.43,95.88 Z" id="Path" fill="#FFED00"></path>
        </g>
    </g>
</svg>