<?xml version="1.0" encoding="UTF-8"?>
<svg width="100px" height="100px" viewBox="0 0 100 100" version="1.1" xmlns="http://www.w3.org/2000/svg" xmlns:xlink="http://www.w3.org/1999/xlink">
    <title>ghost_9</title>
    <g id="Ghost" stroke="none" stroke-width="1" fill="none" fill-rule="evenodd">
        <g id="ghost_9" fill-rule="nonzero">
            <path d="M29.68,20.7 L74.77,0.4 C75.97,-0.21 76.64,-0.21 77.53,1.04 L99.92,48.36 L94.76,87.3 C94.66,88.76 93.99,89.75 92.38,89.96 L37.04,99.6 C35.88,99.92 34.99,99.77 34.51,98.9 L0.97,48.74 C-0.68,46.74 -0.01,45.45 1.37,44.39 L29.69,20.7 L29.68,20.7 Z" id="Path" fill="#000000"></path>
            <path d="M49.26,25.38 L61.5,17.64 C62.5,17.09 62.05,17.92 62.05,17.92 L59.28,22.19 L49.96,25.62 C49.12,25.85 48.29,26.09 49.26,25.38 L49.26,25.38 Z" id="Path" fill="#FFED00"></path>
            <path d="M51.47,14.14 C51.47,14.14 49.93,15.04 51.47,14.96 L62.77,14.43 C63.97,14.33 65.1,14.09 65.94,12.86 L74.24,0.95 L69.11,3.26 L51.47,14.14 Z" id="Path" fill="#FFED00"></path>
            <path d="M34.33,24.78 L46.84,17.05 L58.8,16.5 C60.1,16.77 59.26,17.2 58.77,17.59 L46.84,25.3 C46.09,25.87 45.19,26.14 44.11,26.05 L34.33,24.77 L34.33,24.78 Z" id="Path" fill="#FFED00"></path>
            <path d="M4.26,42.56 L28.53,28.15 C28.53,28.15 29.31,27.52 30.65,27.48 L38.47,28.52 C40.37,28.9 39.16,29.59 37.96,30.29 L4.8,43.22 C1.07,44.66 3.14,43.39 4.26,42.56 Z" id="Path" fill="#FFED00"></path>
            <path d="M22.41,27.21 L10.77,36.95 C10.34,37.59 8.99,38.85 11.82,37.33 L38.89,20.93 C39.83,20.27 40,19.81 39.79,19.45 L38.23,17.79 L22.4,27.2 L22.41,27.21 Z" id="Path" fill="#FFED00"></path>
            <polygon id="Path" fill="#FFED00" points="42.1 15.95 43.62 17.79 57.6 9.53 56.5 8.95 44.22 14.38 42.11 15.95"></polygon>
            <polygon id="Path" fill="#FFED00" points="60.47 7.13 60.95 7.64 64.95 5.19 60.47 7.13"></polygon>
            <path d="M29.86,20.97 L26.12,24.11 C26.12,24.11 25.88,24.45 26.05,24.41 C26.23,24.39 27.05,23.95 27.05,23.95 L38.77,16.95 L29.87,20.97 L29.86,20.97 Z" id="Path" fill="#FFED00"></path>
            <path d="M63.84,25.28 C63.41,24.4 63.23,23.42 64.14,22.04 L66,19.1 C66.5,18.13 67.03,18.1 67.59,19.1 L75.96,35.66 C76.24,36.39 76.86,37.28 75.74,37.76 L72.52,39.21 C71.6,39.63 70.92,39.34 70.44,38.46 L63.85,25.27 L63.84,25.28 Z" id="Path" fill="#FFED00"></path>
            <path d="M77.57,2.06 L71.2,11.06 C70.65,12.03 70.56,12.82 72.16,12.97 L81.74,13.37 L80.66,8.64 L77.56,2.06 L77.57,2.06 Z" id="Path" fill="#FFED00"></path>
            <path d="M71.23,17.44 C69.93,17.44 69.25,18.62 70.31,20.14 L77.81,34.81 C78.39,35.99 79.15,36.62 80.31,36.11 L85.91,34.23 C86.7,33.91 86.93,33.4 86.7,32.4 L83.25,18.87 C83.05,17.87 82.61,17.44 81.74,17.42 L71.24,17.44 L71.23,17.44 Z" id="Path" fill="#FFED00"></path>
            <path d="M84.18,17.7 L86.52,27.39 C86.77,28.39 87.15,29.04 87.65,29.39 L90.46,31.24 C91.06,31.69 91.34,31.31 90.82,30.08 L85.02,17.71 C84.18,16.27 84.03,16.87 84.18,17.71 L84.18,17.7 Z" id="Path" fill="#FFED00"></path>
            <path d="M75.05,44.56 C74,45.27 73.9,46.27 74.53,47.49 L92.83,83.12 C93.66,85.02 94.13,84.82 94.41,83.54 L95.7,76.06 C95.8,74.7 95.35,73.36 94.72,72.02 L80.39,44.56 C79.39,42.86 78.72,42.86 78.13,43.21 L75.05,44.56 Z" id="Path" fill="#FFED00"></path>
            <path d="M82.67,40.91 C81.87,41.54 81.44,42.31 82.17,43.49 L92.59,64.11 C94.01,66.74 94.5,66.79 93.78,63.42 L88.58,40.92 C88.26,39.7 87.9,38.56 86.78,39.02 L82.67,40.92 L82.67,40.91 Z" id="Path" fill="#FFED00"></path>
            <path d="M88.42,34.89 L91.42,46.39 C91.68,47.19 92.07,47.95 92.92,48.51 L97.47,50.39 C98.29,50.77 98.29,50.19 98.08,49.35 L95.71,40.32 L93.91,36.66 L89.44,34.22 C88.33,33.59 88.34,34.22 88.42,34.89 Z" id="Path" fill="#FFED00"></path>
            <path d="M93.3,54.24 L96.07,65.18 C96.8,67.79 97.09,66.85 97.33,65.5 L98.55,56.38 C98.63,55.37 98.28,54.63 97.33,54.24 L94.11,53.16 C93.56,53.05 92.86,52.68 93.29,54.24 L93.3,54.24 Z" id="Path" fill="#FFED00"></path>
            <polygon id="Path" fill="#FFED00" points="98.02 45.47 99.18 50.09 99.52 48.32 98.02 45.47"></polygon>
            <path d="M49.96,29.66 L58.14,26.69 C59.5,26.15 60.77,26.06 61.74,27.48 L67.64,39.41 C68.43,41.24 68.94,42.55 67.64,43.87 L61.74,48.97 C60.11,50.31 58.94,50.31 58.14,48.97 L49.32,33.35 C49.32,33.35 47.64,30.65 49.96,29.65 L49.96,29.66 Z" id="Path" fill="#FFED00"></path>
            <path d="M68.12,49.47 C68.12,49.47 70.4,47.11 71.81,49.71 L90.1,85.44 C90.1,85.44 91.84,88.22 89.3,88.89 L83.66,90.13 C83.66,90.13 81.31,90.65 80.11,88.31 L62.83,58.07 C61.73,56.46 61.73,55.2 63.1,54.11 L68.12,49.47 Z" id="Path" fill="#FFED00"></path>
            <path d="M4.6,47.76 L29.4,38.05 C32.62,36.82 33.82,39.12 32.01,41.33 L18.31,57.86 C17.51,58.86 16.6,59.56 15.04,58.62 L5.14,53.24 L3.44,50.49 C2.84,49.27 3.42,48.42 4.6,47.76 Z" id="Path" fill="#FFED00"></path>
            <path d="M41.37,38.15 C42.57,37.25 43.5,35.04 45.49,38.15 L54.36,52 C54.99,53.07 55.4,54.2 53.88,56.07 L39.88,69.29 C38.94,70.43 37.86,70.74 36.58,69.92 L23.66,62.54 C21.26,61.55 21.72,60.15 23.23,58.6 L41.37,38.15 L41.37,38.15 Z" id="Path" fill="#FFED00"></path>
            <path d="M56,61.47 L45.03,71.27 C43.5,72.51 42.76,73.72 45.03,74.85 L73.11,90.65 C76.95,92.25 76.21,90.41 75.15,88.34 L59.29,61.47 C58.53,60.43 57.63,59.83 56.01,61.47 L56,61.47 Z" id="Path" fill="#FFED00"></path>
            <path d="M55.4,87.26 L55.4,92.26 C55.45,93.78 55.86,95.05 58.52,94.7 L66.55,93.16 C66.55,93.16 69.65,92.34 66.45,90.63 L58.14,86.03 C56.52,85.27 55.34,85.25 55.4,87.26 Z" id="Path" fill="#FFED00"></path>
            <path d="M23.21,66.72 L48.8,80.62 C50.13,81.18 50.72,82.3 50.74,83.82 L51.84,93.77 C52.1,95.36 51.85,96.33 50.74,96.22 L46.54,96.98 C45.67,97.33 44.48,97.08 42.96,96.22 L29.2,88.62 L16.5,69.72 C15.42,68.25 16.18,67.93 17.11,67.68 L20.83,66.73 C21.51,66.57 22.44,66.57 23.23,66.73 L23.21,66.72 Z" id="Path" fill="#FFED00"></path>
            <polygon id="Path" fill="#FFED00" points="8.84 59.06 14.14 61.77 11.16 62.84"></polygon>
            <path d="M33.95,94.22 C32.98,93.69 32.65,94.22 33.25,95.15 L35.92,98.99 L39.62,98.49 C40.7,98.34 40.42,97.65 39.62,97.13 L33.95,94.23 L33.95,94.22 Z" id="Path" fill="#FFED00"></path>
        </g>
    </g>
</svg>