<?xml version="1.0" encoding="UTF-8"?>
<svg width="95px" height="100px" viewBox="0 0 95 100" version="1.1" xmlns="http://www.w3.org/2000/svg" xmlns:xlink="http://www.w3.org/1999/xlink">
    <title>ghost_1</title>
    <g id="Ghost" stroke="none" stroke-width="1" fill="none" fill-rule="evenodd">
        <g id="ghost_1" fill-rule="nonzero">
            <polygon id="Path" fill="#000000" points="0 66.86 0.54 68.35 49.21 100 50.58 99.96 94.47 67.13 95 65.27 82.66 33.42 48.7 0 46.43 0 9.42 36.05 0 66.85"></polygon>
            <polygon id="Path" fill="#FFED00" points="50.03 99.75 50.58 99.72 55.5 95.92 55.32 95.5 45.85 96.68 45.75 97.12"></polygon>
            <polygon id="Path" fill="#FFED00" points="33.37 88.13 32.3 88.5 22 81.84 22.1 81.41 35.99 79.25 36.25 79.56"></polygon>
            <polygon id="Path" fill="#FFED00" points="81.12 76 80.83 76 79 74.52 79.1 74.06 84.06 73 84.25 73.46"></polygon>
            <polygon id="Path" fill="#FFED00" points="34.25 39.24 34.58 38.48 48.93 25.75 49.87 25.75 53.27 28.72 53.59 29.42 54 42 53.04 43 35.52 42.9 34.58 42.06 34.25 39.24"></polygon>
            <polygon id="Path" fill="#FFED00" points="50.5 19.5 55.43 22.77 55.75 23.38 55.68 27.74 55.1 28 50.93 24.08 50.63 23.4 50.51 19.5"></polygon>
            <polygon id="Path" fill="#FFED00" points="59.01 43.45 58.31 42.72 58.25 36.32 59.42 35.75 67 42.2 66.54 43.5 59.01 43.45"></polygon>
            <polygon id="Path" fill="#FFED00" points="34.09 36.25 47.27 24.04 47.43 23.69 47.5 19.57 46.96 19.25 35.76 25.92 35.08 26.92 33.5 35.92 34.09 36.25"></polygon>
            <polygon id="Path" fill="#FFED00" points="35.43 90.82 40.2 93.92 40.5 94 58.34 92.52 58.59 92.43 76.73 79.2 76.75 78.45 72.28 74.85 71.92 74.75 39.83 78.95 39.44 79.26 35.25 90.26 35.43 90.82"></polygon>
            <polygon id="Path" fill="#FFED00" points="16.08 77.25 33.35 75.71 34 74.92 31.2 49.14 30.49 48.5 23.59 48.5 23.27 48.62 2 66.82 2.07 67.94 15.77 77.17 16.07 77.25"></polygon>
            <polygon id="Path" fill="#FFED00" points="39.27 75.5 38.51 74.85 36 49.3 36.71 48.51 54.66 48.56 55.37 49.26 56 73.58 55.34 74.32"></polygon>
            <polygon id="Path" fill="#FFED00" points="59.96 48.75 59.25 49.49 60.01 72.31 60.8 73 88.75 70.1 89.08 69.97 93.43 66.91 93.5 65.79 74.79 48.93 74.31 48.75 59.96 48.75"></polygon>
            <polygon id="Path" fill="#FFED00" points="91 54.02 90.58 54.25 72.25 29.79 72.42 29.35 76.02 28.5 76.32 28.6 85.89 41.13 91 54.03"></polygon>
            <polygon id="Path" fill="#FFED00" points="59.18 12.75 58.75 12.9 59 22.66 59.44 23.45 71.93 31.5 72.25 31.16 59.18 12.75"></polygon>
            <polygon id="Path" fill="#FFED00" points="59.8 31.83 59.94 32.16 69.67 41.32 84.94 49.75 85.25 49.4 75.35 35.31 75.15 35.12 60.23 25.5 59.5 25.93 59.8 31.83"></polygon>
            <polygon id="Path" fill="#FFED00" points="8.75 39.53 8.54 39.7 5 51.88 5.48 52 14.5 39.63 14.3 39.25"></polygon>
            <polygon id="Path" fill="#FFED00" points="20.85 47.25 4.25 55.77 3.65 56.38 0.75 65.5 1.14 65.75 21.25 47.84"></polygon>
            <polygon id="Path" fill="#FFED00" points="30.18 39.15 29.45 40.13 6.06 52.75 5.75 52.4 17.15 37.2 17.29 37.07 31.89 28.5 32.25 28.75"></polygon>
            <polygon id="Path" fill="#FFED00" points="32.48 25.63 31.93 26.41 20.32 33.5 20 33.16 34.36 13.5 35 13.79"></polygon>
            <polygon id="Path" fill="#FFED00" points="93.9 61.35 94.75 63.49 94.35 63.75 77.25 48.38 77.53 48 87.83 53.24"></polygon>
            <polygon id="Path" fill="#FFED00" points="56.98 8 61 12.04 60.92 12.25 59.66 12.25 56.75 8.21"></polygon>
            <polygon id="Path" fill="#FFED00" points="63.04 13.86 73.63 24.36 75 26.32 74.84 26.69 71.12 27.24 70.9 27.14 61.25 14.12 61.45 13.74 63.05 13.84"></polygon>
            <polygon id="Path" fill="#FFED00" points="40.74 5.92 46.51 0.25 46.71 0.33 47.5 16.71 46.92 17.79 36.35 24 36 23.75 38.83 8.41 40.74 5.91"></polygon>
            <polygon id="Path" fill="#FFED00" points="23.72 23 23.5 22.6 33.14 13.25 33.5 13.56 27.27 22.11 26.98 22.3 23.72 23"></polygon>
            <polygon id="Path" fill="#FFED00" points="15.14 30.5 20.31 25.44 21.27 24.94 24.77 24.25 25 24.62 15.92 37.16 15.39 37.46 10.2 37.75 10 37.37 15.14 30.5"></polygon>
            <polygon id="Path" fill="#FFED00" points="9.58 36.04 10.84 34.5 11 34.67 9.44 37.5 9.25 37.39"></polygon>
            <polygon id="Path" fill="#FFED00" points="53.96 5.2 56 8.26 55.78 20.54 55.41 20.74 50.38 17.8 49.91 17.07 48.5 0.34 48.7 0.25 53.96 5.19"></polygon>
            <polygon id="Path" fill="#FFED00" points="83.75 37.05 82.45 33.56 77.48 28.5 77 28.94 83.37 37.5"></polygon>
        </g>
    </g>
</svg>