<?xml version="1.0" encoding="UTF-8"?>
<svg width="97px" height="101px" viewBox="0 0 97 101" version="1.1" xmlns="http://www.w3.org/2000/svg" xmlns:xlink="http://www.w3.org/1999/xlink">
    <title>ghost_3_1</title>
    <g id="Ghost" stroke="none" stroke-width="1" fill="none" fill-rule="evenodd">
        <g id="ghost_3_1" fill-rule="nonzero">
            <polygon id="Path" fill="#000000" points="70.48 23.2 92.73 39.97 92.02 42.44 88.29 42.33 88.85 43.63 94.58 44.66 95.33 45.59 95.08 55.79 94.78 56.94 92.05 61.54 94.95 61.54 96.33 63.32 81.71 83.42 81.71 85.52 73.21 99.45 71.6 99.96 59.9 95.68 55.9 99.54 54.57 99.65 43.07 92.71 39.85 94.72 38.6 94.5 21.39 63.9 9.87 62.4 0.64 50.72 0.52 49.6 6.48 42.58 7.35 42.18 14.92 41.13 9.87 39.98 9.17 39.23 8.76 34.03 8.87 33.62 31.63 16.32 31.9 12.39 35.36 8.07 38.75 8.28 40.69 9.34 52.54 0.34 54.46 0.49 65.82 14.99 66.49 17.53 70.48 23.2 1.98 49.2"></polygon>
            <polygon id="Path" fill="#696969" points="38.75 9.28 31.9 13.4 35.36 9.08 38.75 9.29"></polygon>
            <polygon id="Path" fill="#FFED00" points="45.57 6.63 52.2 1.6 52.9 1.74 56.65 8.58 56.51 9.18 42.84 18.74 42.13 18.23 45.56 6.64"></polygon>
            <polygon id="Path" fill="#FFED00" points="55.28 2.53 61.08 12.83 65.18 15.17 55.28 2.53"></polygon>
            <polygon id="Path" fill="#FFED00" points="66.5 18.53 81.8 40.35 82.36 42.23 81.92 43.79 64.03 17.38 66.49 18.53"></polygon>
            <polygon id="Path" fill="#696969" points="92.73 40.97 74.15 29.44 70.48 24.2"></polygon>
            <polygon id="Path" fill="#FFED00" points="11.94 39.68 9.64 39.68 9.26 34.33 31.63 17.3 40.69 10.33 42.8 8.73 39.65 19.31 38.47 19.83 36.3 23.03 11.94 39.67"></polygon>
            <polygon id="Path" fill="#696969" points="38.47 19.84 29.3 43.27 28.47 43.7 24.6 40.83 24.53 40.4 38.27 20.16 38.47 19.86"></polygon>
            <polygon id="Path" fill="#696969" points="31.5 49.77 30.71 52.37 34.06 50.11 31.51 49.77"></polygon>
            <polygon id="Path" fill="#FFED00" points="35.53 43.29 40.86 23.56 40.98 23.39 56.94 11.93 57.67 12.4 50.99 45.12 49.59 46.1 36.04 44.07 35.54 43.29"></polygon>
            <polygon id="Path" fill="#696969" points="60.04 73.36 54.3 71.9 54.12 67.78 54.37 67.66 60.32 72.82"></polygon>
            <polygon id="Path" fill="#696969" points="56.72 45.58 63.02 25.6 64.09 25.39 78.67 42.73 78.28 43.75 57.75 46.79 56.72 45.59"></polygon>
            <polygon id="Path" fill="#696969" points="53.52 69.1 52.68 70.02 35.54 68.59 35.13 68.27 31.13 55.22 31.32 54.69 34.2 52.84 34.48 52.77 50.43 53.9 50.86 54.28 53.52 69.11"></polygon>
            <polygon id="Path" fill="#696969" points="28.05 57.34 26.54 58.15 1.42 51.25 1.03 50 6.4 43.69 7.12 43.42 30.45 47.35 31.06 48.36 28.05 57.36"></polygon>
            <polygon id="Path" fill="#696969" points="30.35 67.66 30.92 67.02 28.44 61.37 26.43 59.61 2.65 52.38 9.75 61.32"></polygon>
            <polygon id="Path" fill="#696969" points="24.17 65.75 27.88 71.87 38.48 93.1 21.38 64.9"></polygon>
            <polygon id="Path" fill="#FFED00" points="59.67 96.6 59.19 96.07 56.04 84.7 57.39 84 71.6 100.95"></polygon>
            <polygon id="Path" fill="#696969" points="56.51 86.43 55.28 81.96 55.25 81.74 55.48 72.98 54.64 72.18 35.74 73.63 35.06 74.68 41.8 93.38 42.9 93.79"></polygon>
            <polygon id="Path" fill="#696969" points="54.57 100.65 57.34 97.68 57.24 96.96 47.66 91.22 43.06 93.71"></polygon>
            <polygon id="Path" fill="#696969" points="43.07 93.7 54.57 100.65 43.07 93.71"></polygon>
            <polygon id="Path" fill="#FFED00" points="81.46 85.53 81.36 85.87 73.18 99.04 71.91 99.12 58.27 82.04 58.17 81.74 58.24 75.86 59.92 74.1 61.17 73.95 62.95 74.15 80.84 72.05 81.19 72.35"></polygon>
            <polygon id="Path" fill="#696969" points="93.1 53.01 81.66 69.14 81.2 69.4 62.3 70.44 61.86 70.28 56.12 65.23 55.92 64.66 58.4 50 58.97 49.48 87.6 47.38 88.05 47.53 92.95 51.76 93.09 53.01"></polygon>
            <polygon id="Path" fill="#696969" points="82.7 70.56 85 67.64 85.26 67.48 94.24 65.33 94.73 66.06 82.55 82.81 81.71 82.5 82.61 70.8 82.71 70.56"></polygon>
            <polygon id="Path" fill="#696969" points="94.6 58.23 92.45 61.86 88.63 62.69 94.09 54.59 93.86 52.57 90.06 49.07 90.33 48.25 94.33 47.9 94.84 48.37 94.6 58.23"></polygon>
            <polygon id="Path" fill="#696969" points="26.02 68.81 34.84 79 32.53 72.86 30.54 70.83 26.27 66.4 24.17 65.75 26.03 68.81"></polygon>
            <path d="M66.75,41.82 L61.87,50.49 C61.6,50.97 60.99,51.14 60.51,50.87 C60.03,50.6 59.86,49.99 60.13,49.51 L66.88,37.51 C67.26,36.83 68.24,36.83 68.62,37.51 L75.37,49.51 C75.64,49.99 75.47,50.61 74.99,50.87 C74.51,51.14 73.89,50.97 73.63,50.49 L68.75,41.82 L68.75,84.65 C68.75,85.21 68.3,85.65 67.75,85.65 C67.2,85.65 66.75,85.21 66.75,84.65 L66.75,41.82 Z" id="Path" fill="#FFFFFF"></path>
        </g>
    </g>
</svg>