<?xml version="1.0" encoding="UTF-8"?>
<svg width="99px" height="84px" viewBox="0 0 99 84" version="1.1" xmlns="http://www.w3.org/2000/svg" xmlns:xlink="http://www.w3.org/1999/xlink">
    <title>ghost_7_1</title>
    <g id="Ghost" stroke="none" stroke-width="1" fill="none" fill-rule="evenodd">
        <g id="ghost_7_1" fill-rule="nonzero">
            <polygon id="Path" fill="#000000" points="2.46 23.68 2.84 22 35.1 2.47 38.7 2.27 39.55 3.32 39.55 7.59 66.36 0.26 81.11 10.86 88.73 29.46 91.58 29.8 98.58 39.26 98.81 41.6 80.84 69.77 73.59 73.52 72.57 80.07 69.64 83.83 63.04 83.49 58.47 81.26 53.41 83.75 35.87 82.27 0.59 54.27 5.35 49.4 7.99 49.3 5.32 45.2 6.29 30.15 2.47 23.68"></polygon>
            <polygon id="Path" fill="#696969" points="88.72 29.46 81.29 28.56 81.29 13.12 81.96 12.98 88.72 29.47"></polygon>
            <polygon id="Path" fill="#696969" points="81.97 67.03 90.93 52.98 90.53 52.18 81.85 51.48 81.28 52.01 81.32 66.85 81.97 67.03"></polygon>
            <polygon id="Path" fill="#696969" points="65.1 83.6 69.63 83.83 72.25 80.46 71.81 79.93 65.09 83.6"></polygon>
            <polygon id="Path" fill="#696969" points="41.36 82.74 40.32 74.83 41.17 74.35 51.74 82.64 51.38 83.58 41.36 82.74"></polygon>
            <polygon id="Path" fill="#696969" points="5.3 45.2 9.6 48.84 9.42 49.3 7.98 49.3"></polygon>
            <polygon id="Path" fill="#696969" points="2.46 23.68 6.53 27.98 5.98 29.66 2.46 23.68"></polygon>
            <polygon id="Path" fill="#696969" points="62.83 51.7 62.11 52.42 62.85 80.64 64.18 80.94 78.4 53.12 77.8 52.1 62.82 51.7"></polygon>
            <polygon id="Path" fill="#696969" points="40.68 70.11 40.34 69.61 37.54 52.03 38.2 51.23 54.2 50.44 54.93 51.09 56.82 78.17 55.77 78.83 40.67 70.11"></polygon>
            <polygon id="Path" fill="#696969" points="6.03 51.73 34.03 51.73 35.09 52.68 37.7 80.2 36 81.13 3.6 55.42 3.5 53.86 5.27 52.04"></polygon>
            <polygon id="Path" fill="#696969" points="51.81 32.31 55.82 26.89 57.09 27.3 57.17 41.68 55.83 41.98 51.74 33.02 51.81 32.32"></polygon>
            <polygon id="Path" fill="#696969" points="37.76 46.92 36.46 45.85 35.23 36.33 35.88 35.54 48.73 34.64 49.93 35.34 54.36 44.9 53.77 45.9 37.77 46.92"></polygon>
            <polygon id="Path" fill="#696969" points="54.83 23.85 54.41 23.15 37.51 25.85 36.51 26.72 34.94 32.22 35.5 32.88 48.56 31.52 49.41 31.03 54.83 23.85"></polygon>
            <polygon id="Path" fill="#696969" points="21.57 48.7 32.08 47 32.52 46.43 30.78 28.1 30.1 27.65 15.01 32.42 14.69 33.12 20.99 48.37 21.57 48.69"></polygon>
            <polygon id="Path" fill="#696969" points="60.1 38.96 60.54 47.11 61.23 47.77 94.01 48.47 94.61 48.15 98.61 41.9 98.07 40.82 61.43 37.67 60.1 38.96"></polygon>
            <polygon id="Path" fill="#696969" points="92.02 30.4 61.6 27.2 60.83 27.84 60.34 34.03 61.44 35.34 97.55 38.86 97.87 38.31 92.02 30.4"></polygon>
            <polygon id="Path" fill="#696969" points="61.88 25.09 76.93 27.72 77.46 26.9 61.68 4.2 60.72 4.5 61.02 24.08 61.88 25.1"></polygon>
            <polygon id="Path" fill="#696969" points="42.04 12.22 41.42 12.57 36.88 20.33 37.49 21.38 54.74 21.15 55.42 20.59 56.89 13.28 56.22 12.44 42.04 12.22"></polygon>
            <polygon id="Path" fill="#696969" points="43.86 6.4 57.21 2.76 56.88 4.48 41.88 11.81 41.41 11.34 43.86 6.41"></polygon>
            <polygon id="Path" fill="#696969" points="60.28 1.92 60.96 2.8 65.79 0.42 60.28 1.92"></polygon>
            <polygon id="Path" fill="#696969" points="33.29 24.46 34.66 23.51 35.04 21.73 38.24 3.79 37.5 2.97 35.1 3.11 34.77 3.21 4.57 21.51 4.42 22.57 6.27 24.61 6.8 24.85 33.29 24.45"></polygon>
            <path d="M60.83,41.32 L60.83,39.3 C60.83,38.47 61.79,38 62.44,38.5 L67.08,42.1 C67.33,42.29 67.47,42.58 67.47,42.89 L67.47,43.37 C67.47,43.68 67.32,43.97 67.07,44.17 L62.44,47.71 C61.78,48.21 60.84,47.74 60.84,46.91 L60.84,44.94 C60.84,44.74 60.89,44.55 60.99,44.4 L29.68,44.4 C29.12,44.4 28.68,43.95 28.68,43.4 L28.68,42.86 C28.68,42.31 29.12,41.86 29.68,41.86 L60.99,41.86 C60.89,41.7 60.83,41.52 60.83,41.32 Z" id="Path" fill="#FFFFFF"></path>
            <path d="M47.74,14.38 C47.79,14.21 47.88,14.07 48,13.95 L48.33,13.62 C48.58,13.38 48.93,13.28 49.26,13.35 L55.05,14.65 C55.92,14.84 56.12,15.99 55.36,16.47 L53.96,17.34 C53.86,17.4 53.76,17.44 53.64,17.47 L69.74,33.53 C70.14,33.93 70.14,34.56 69.74,34.95 L69.36,35.33 C68.97,35.71 68.34,35.71 67.96,35.33 L51.83,19.26 C51.78,19.49 51.65,19.71 51.44,19.86 L50.27,20.71 C49.67,21.15 48.84,20.81 48.7,20.09 L47.7,14.87 C47.67,14.71 47.68,14.54 47.73,14.38 L47.74,14.38 Z" id="Path" fill="#FFFFFF"></path>
            <path d="M29.02,37.6 L30.45,38.14 C31.29,38.46 31.31,39.64 30.49,39.99 L25.12,42.34 C24.8,42.48 24.43,42.44 24.15,42.24 L23.75,41.96 C23.45,41.76 23.3,41.42 23.32,41.07 L23.72,35.37 C23.78,34.5 24.84,34.12 25.44,34.75 L26.41,35.76 C26.51,35.86 26.57,35.96 26.62,36.08 L41.97,14.22 C42.29,13.77 42.91,13.66 43.36,13.97 L43.8,14.28 C44.25,14.6 44.36,15.22 44.04,15.68 L28.7,37.52 C28.8,37.52 28.92,37.55 29.02,37.59 L29.02,37.6 Z" id="Path" fill="#FFFFFF"></path>
        </g>
    </g>
</svg>