<?xml version="1.0" encoding="UTF-8"?>
<svg width="203px" height="99px" viewBox="0 0 203 99" version="1.1" xmlns="http://www.w3.org/2000/svg" xmlns:xlink="http://www.w3.org/1999/xlink">
    <title>ghost_4_2</title>
    <g id="Ghost" stroke="none" stroke-width="1" fill="none" fill-rule="evenodd">
        <g id="ghost_4_2" fill-rule="nonzero">
            <polygon id="Path" fill="#000000" points="54.67 0.03 61.88 6.57 62.74 8.25 62.74 11.71 75.78 18.21 76.55 19.37 76.66 30.41 83.99 36.31 83.59 38.22 81.45 39.02 85.91 44.04 91.58 57.23 90.08 59.22 92.68 71.27 91.62 72.84 66.75 86.14 64.89 86 62.27 88.68 44.61 98.08 43.35 98.2 0.95 62.44 0.69 60.88 2.64 56.88 5.13 56.88 4.63 54.62 13.03 44.4 6.85 30.98 5.89 23.66 6.6 22.15 40.6 7.29 42.06 7.71 43.59 10.5 48.35 4 53.29 0.03"></polygon>
            <polygon id="Path" fill="#696969" points="50 4.08 49.92 3.72 54.67 0.02 61.11 5.87 60.94 6.22"></polygon>
            <polygon id="Path" fill="#696969" points="71.06 32.2 75.02 18.45 74.92 18.21 63.08 12.31 62.9 12.32 50.03 19.67 50.02 20 70.17 32.54 71.07 32.2"></polygon>
            <polygon id="Path" fill="#696969" points="76.72 36.66 73.28 33.92 76.55 20.06"></polygon>
            <polygon id="Path" fill="#696969" points="15.37 33.94 15.64 32.92 5.89 23.66 6.85 30.98 8.96 35.58"></polygon>
            <polygon id="Path" fill="#696969" points="16.34 30.48 15.43 30.36 7.91 23.54 8.13 22.2 40.4 8 41.69 8.45 45.23 15.11 45.1 15.52 16.33 30.48"></polygon>
            <polygon id="Path" fill="#696969" points="21.15 31.73 21 30.76 46.68 21.11 47.59 21.36 56.57 32.8 56.32 33.29"></polygon>
            <polygon id="Path" fill="#FFED00" points="82.19 56.14 75.14 39.94 74.61 39.49 67.46 37.64 70.24 44.76 80.49 56.3 81.09 56.57 81.91 56.57 82.19 56.14"></polygon>
            <polygon id="Path" fill="#696969" points="81.06 53.56 83.09 58.22 90.01 58.42 90.58 57.57 85.98 46.85 84.9 46.79"></polygon>
            <polygon id="Path" fill="#FFED00" points="92.47 70.34 84.04 60.53 84.34 59.86 90.24 59.96"></polygon>
            <polygon id="Path" fill="#E31E24" points="77.89 56.9 69.44 47.82 68.8 47.89 63.57 56.82 63.91 57.42 77.59 57.58 77.89 56.91"></polygon>
            <polygon id="Path" fill="#696969" points="59.9 55.6 55.7 38.31 55.3 38.01 30.17 37.57 29.82 37.77 20.67 54.3 21.01 54.9 59.51 56.1 59.91 55.6"></polygon>
            <polygon id="Path" fill="#E31E24" points="17.17 56.6 17.32 56.08 14.73 53.86 14.36 53.84 11.33 55.94 11.49 56.5"></polygon>
            <polygon id="Path" fill="#FFED00" points="5.16 53.99 10.72 54.05 13.86 51.74 26.3 36.8 18.7 37.64 18.5 37.74 5.16 54"></polygon>
            <polygon id="Path" fill="#696969" points="0.69 60.88 2.64 56.88 6.11 56.88 6.27 57.45"></polygon>
            <polygon id="Path" fill="#FFED00" points="28.62 84.25 28.4 84.78 36.57 91.68 37.07 91.45 37.27 85.15 36.99 84.85 28.62 84.25"></polygon>
            <polygon id="Path" fill="#FFED00" points="40.25 95.59 40.51 87.5 41.17 86.92 55.81 88.38 56.35 89.02 56.24 90.78 55.92 91.28 43.18 98.06 40.25 95.59"></polygon>
            <polygon id="Path" fill="#FFED00" points="61.13 84.97 66.63 85.56 66.98 85.49 90.03 73.17 90.21 72.25 81.63 62.07 81.19 61.86 64.19 61.4 63.58 61.92 60.59 84.29 61.13 84.97"></polygon>
            <polygon id="Path" fill="#FFED00" points="56.58 84.18 58.91 61.91 58.32 61.25 42.12 60.9 41.51 61.47 40.27 82.65 40.82 83.29 55.92 84.72 56.58 84.18"></polygon>
            <polygon id="Path" fill="#FFED00" points="23.55 80.85 23.23 80.72 2.67 63.37 2.74 62.4 6.84 59.9 7.17 59.81 36.5 60.6 37.09 61.2 36.9 81.77 36.23 82.37 23.56 80.87"></polygon>
            <polygon id="Path" fill="#000000" points="160.56 0.27 172.7 7.81 172.97 20.41 178.86 24.53 197.51 24.92 201.31 27.49 201.42 32.15 198.79 37.35 201.11 39.02 200.94 41.09 199.22 41.86 202.6 42.94 195.18 63.67 163.64 97.42 161.08 97.37 125.64 65.07 115.32 37.83 116.22 36.2 122.12 35.33 133.07 36.1 151.57 15.55 152.91 10.95 153.43 4.57 158.89 0.5 160.56 0.27"></polygon>
            <polygon id="Path" fill="#696969" points="201.39 30.82 201.08 30.9 198.32 25.84 198.56 25.62 201.31 27.49 201.39 30.82"></polygon>
            <polygon id="Path" fill="#696969" points="165.32 35.58 165.02 35.81 159.35 34.85 159.25 34.58 165.23 28.33 165.51 28.45 165.31 35.58"></polygon>
            <polygon id="Path" fill="#696969" points="160.56 0.27 171.62 7.14 170.82 13.41 169.3 12.89 168.13 11.12 159.1 6.82 157.66 6.82 154.82 5.17 154.79 4.76"></polygon>
            <polygon id="Path" fill="#696969" points="146.45 34.23 156.48 33.08 162.6 26.53 166.16 12.08 166.03 11.8 157.09 7.47 152.39 12.73 146.19 33.92 146.45 34.23"></polygon>
            <polygon id="Path" fill="#696969" points="170.26 34.56 172.76 22.15 173.38 21.88 197.71 37.57 197.43 38.33 170.76 35.25 170.26 34.55"></polygon>
            <polygon id="Path" fill="#E31E24" points="125.96 38.83 125.46 38.85 122.25 36.55 122.51 35.8 128.09 36.2 128.33 36.93 125.96 38.83"></polygon>
            <polygon id="Path" fill="#696969" points="116.2 40.15 127.25 55.78 121.72 54.73 116.2 40.15"></polygon>
            <polygon id="Path" fill="#FFED00" points="134.74 57.2 128.58 56.03 128.32 55.86 116.01 38.45 116.28 37.8 119.7 37.3 120.03 37.39 124.37 40.99 135.17 56.56 134.74 57.2"></polygon>
            <polygon id="Path" fill="#696969" points="127.97 44.66 128.33 44.33 145.51 58.45 145.16 59.17 137.19 57.67 127.97 44.67"></polygon>
            <polygon id="Path" fill="#696969" points="178.09 53.67 178 54.17 173.73 58.05 173.44 58.16 149.18 57.5 148.93 57.41 129.13 41.78 129.13 41.13 134 37.6 169.84 39.02 170.19 39.23"></polygon>
            <polygon id="Path" fill="#E31E24" points="181.69 50.14 176.04 39.79 176.43 39.18 192.49 40.08 192.75 40.78 182.33 50.25"></polygon>
            <polygon id="Path" fill="#696969" points="177.18 60.7 176.98 60.84 174.08 61.12 173.9 60.69 178.99 56.07 179.38 56.37"></polygon>
            <polygon id="Path" fill="#FFED00" points="194.31 42.38 195.54 43.34 186.22 59.83 186.03 59.95 179.07 60.63 178.83 60.26 183 52.88 183.05 52.82 194.31 42.38"></polygon>
            <polygon id="Path" fill="#696969" points="202.1 44.35 197.23 42.79 196.93 42.91 187.62 59.41 187.86 59.77 196.89 58.89 202.09 44.35"></polygon>
            <polygon id="Path" fill="#FFED00" points="163.16 68.7 162.84 68.72 155.37 62.76 155.54 62.32 168.49 62.92 168.65 63.34 163.16 68.71"></polygon>
            <polygon id="Path" fill="#FFED00" points="123.03 58.19 141.83 79.84 125.63 65.08 123.03 58.18"></polygon>
            <polygon id="Path" fill="#FFED00" points="132.75 60.62 132.99 60.22 146.26 63.1 146.91 63.88 147.27 76.67 146.83 76.84 132.75 60.62"></polygon>
            <polygon id="Path" fill="#FFED00" points="147.5 85 146.35 83.95 124.54 58.85 124.78 58.44 130.98 59.78 147.27 78.52 147.33 78.68 147.5 85"></polygon>
            <polygon id="Path" fill="#FFED00" points="150.45 80.96 161.01 92.96 161.44 92.79 161.06 71.36 160.66 70.55 152.34 63.75 149.97 63.65"></polygon>
            <polygon id="Path" fill="#FFED00" points="150.49 82.17 161.36 94.53 161.48 94.85 161.53 97.75 161.07 97.37 150.65 87.87 150.49 82.17"></polygon>
            <polygon id="Path" fill="#FFED00" points="169.22 86.17 173.46 64.77 173.19 64.47 170.79 64.81 170.64 64.88 164.57 70.73 164.31 71.3 163.87 92.52 164.32 92.68 169.22 86.17"></polygon>
            <polygon id="Path" fill="#FFED00" points="194.11 61.56 196.03 61.29 195.19 63.67 181.48 78.33 194.11 61.56"></polygon>
            <polygon id="Path" fill="#FFED00" points="168.73 88.67 167.9 92.87 163.77 97.27 163.83 94.38 168.28 88.48 168.73 88.68"></polygon>
            <polygon id="Path" fill="#FFED00" points="172.16 81.48 172.6 81.68 186.66 63.02 186.42 62.63 176.68 63.99 175.98 64.62"></polygon>
            <polygon id="Path" fill="#FFED00" points="170.12 90.49 171.56 84.12 187.85 62.51 188.01 62.41 192.64 61.76 192.87 62.16 177.42 82.68 170.12 90.48"></polygon>
        </g>
    </g>
</svg>