<?xml version="1.0" encoding="UTF-8"?>
<svg width="101px" height="88px" viewBox="0 0 101 88" version="1.1" xmlns="http://www.w3.org/2000/svg" xmlns:xlink="http://www.w3.org/1999/xlink">
    <title>pyraminx_1_4</title>
    <g id="pyraminx" stroke="none" stroke-width="1" fill="none" fill-rule="evenodd">
        <g id="pyraminx_1_4" fill-rule="nonzero">
            <path d="M51.7993367,1.06336822 C67.7694859,29.0039962 83.7396352,56.9446242 99.7180763,84.8768792 C100.514096,86.2751665 99.4941957,87.991627 97.9353234,87.991627 L97.9353234,88 L2.07296849,88 C0.381426202,88 -0.572139303,86.0658421 0.389718076,84.7094196 C16.3349917,56.8190295 32.2719735,28.9286394 48.225539,1.03824929 C49.0298507,-0.368411037 51.0364842,-0.326546147 51.8076285,1.06336822 L51.7993367,1.06336822 Z" id="Path" fill="#000000"></path>
            <polygon id="Path" fill="#696969" points="49.9917081 6.2378687 62.3300166 27.8234063 37.6451078 27.8234063"></polygon>
            <polygon id="Path" fill="#696969" points="34.079602 34.061275 46.4179104 55.6468126 21.7330017 55.6468126"></polygon>
            <polygon id="Path" fill="#FFED00" points="49.9917081 53.578687 62.3300166 31.9931494 37.6451078 31.9931494"></polygon>
            <polygon id="Path" fill="#696969" points="65.9038143 34.069648 78.2421227 55.6551855 53.5572139 55.6551855"></polygon>
            <polygon id="Path" fill="#696969" points="18.1757877 61.8930542 30.5140962 83.4785918 5.8291874 83.4785918"></polygon>
            <polygon id="Path" fill="#FFED00" points="34.2288557 81.4020932 46.5671642 59.8165557 21.8822554 59.8165557"></polygon>
            <polygon id="Path" fill="#696969" points="49.9917081 61.8930542 62.3300166 83.4785918 37.6451078 83.4785918"></polygon>
            <polygon id="Path" fill="#FFED00" points="65.9038143 81.4020932 78.2421227 59.8165557 53.5572139 59.8165557"></polygon>
            <polygon id="Path" fill="#696969" points="81.8159204 61.8930542 94.1542289 83.4785918 69.4693201 83.4785918"></polygon>
        </g>
    </g>
</svg>