<?xml version="1.0" encoding="UTF-8"?>
<svg width="90px" height="100px" viewBox="0 0 90 100" version="1.1" xmlns="http://www.w3.org/2000/svg" xmlns:xlink="http://www.w3.org/1999/xlink">
    <title>pyraminx_2_4</title>
    <g id="pyraminx" stroke="none" stroke-width="1" fill="none" fill-rule="evenodd">
        <g id="pyraminx_2_4" fill-rule="nonzero">
            <path d="M45.694186,0.405594406 L89.4523256,57.9685315 C89.7593023,58.3706294 89.7767442,58.9090909 89.3930233,59.2622378 L45.5825581,99.5979021 C45.1744186,99.972028 44.5186047,99.972028 44.1104651,99.5979021 L0.303488372,59.2587413 C-0.0453488372,58.9370629 -0.104651163,58.4230769 0.188372093,58.0384615 L43.9848837,0.423076923 C44.3825581,-0.129370629 45.272093,-0.146853147 45.694186,0.405594406 Z" id="Path" fill="#000000"></path>
            <polygon id="Path" fill="#696969" points="58.9011628 21.5839161 46.144186 4.8041958 46.144186 27.8986014"></polygon>
            <polygon id="Path" fill="#696969" points="60.0593023 51.5664336 46.144186 33.6573427 46.144186 61.7902098"></polygon>
            <polygon id="Path" fill="#696969" points="60.3767442 47.8776224 59.427907 23.7937063 46.7406977 30.3216783"></polygon>
            <polygon id="Path" fill="#696969" points="74.3825581 41.9475524 62.1 25.7902098 63.0348837 49.513986"></polygon>
            <polygon id="Path" fill="#696969" points="60.3767442 82.9965035 46.144186 67.5314685 46.144186 96.0979021"></polygon>
            <polygon id="Path" fill="#696969" points="60.8127907 79.7762238 46.6988372 64.4405594 60.5581395 54.2552448"></polygon>
            <polygon id="Path" fill="#696969" points="75.2232558 69.3286713 63.1569767 55.2657343 63.4046512 80.2062937"></polygon>
            <polygon id="Path" fill="#696969" points="75.5581395 65.8741259 63.6802326 52.0314685 74.944186 44.520979"></polygon>
            <polygon id="Path" fill="#696969" points="86.972093 58.5104895 77.5813953 46.1573427 78.1674419 66.6153846"></polygon>
            <polygon id="Path" fill="#E31E24" points="30.7918605 21.5839161 43.5453488 4.8041958 43.5453488 27.8986014"></polygon>
            <polygon id="Path" fill="#696969" points="29.6337209 51.5664336 43.5453488 33.6573427 43.5453488 61.7902098"></polygon>
            <polygon id="Path" fill="#E31E24" points="29.3162791 47.8776224 30.2651163 23.7937063 42.9488372 30.3216783"></polygon>
            <polygon id="Path" fill="#696969" points="15.3104651 41.9475524 27.5930233 25.7902098 26.6581395 49.513986"></polygon>
            <polygon id="Path" fill="#E31E24" points="29.3162791 82.9965035 43.5453488 67.5314685 43.5453488 96.0979021"></polygon>
            <polygon id="Path" fill="#E31E24" points="28.8802326 79.7762238 42.994186 64.4405594 29.1348837 54.2552448"></polygon>
            <polygon id="Path" fill="#696969" points="14.4697674 69.3286713 26.5360465 55.2657343 26.2883721 80.2062937"></polygon>
            <polygon id="Path" fill="#E31E24" points="14.1348837 65.8741259 26.0127907 52.0314685 14.7488372 44.520979"></polygon>
            <polygon id="Path" fill="#E31E24" points="2.72093023 58.5104895 12.1116279 46.1573427 11.5255814 66.6153846"></polygon>
        </g>
    </g>
</svg>