<?xml version="1.0" encoding="UTF-8"?>
<svg width="90px" height="100px" viewBox="0 0 90 100" version="1.1" xmlns="http://www.w3.org/2000/svg" xmlns:xlink="http://www.w3.org/1999/xlink">
    <title>pyraminx_2_2</title>
    <g id="pyraminx" stroke="none" stroke-width="1" fill="none" fill-rule="evenodd">
        <g id="pyraminx_2_2" fill-rule="nonzero">
            <path d="M45.865251,0.75 L89.4544402,57.9131944 C89.7602317,58.3125 89.7776062,58.8472222 89.3953668,59.1979167 L45.7540541,99.2534722 C45.3474903,99.625 44.6942085,99.625 44.2876448,99.2534722 L0.64980695,59.1944444 C0.302316602,58.875 0.243243243,58.3645833 0.535135135,57.9826389 L44.1625483,0.767361111 C44.5586873,0.21875 45.4447876,0.201388889 45.865251,0.75 Z" id="Path" fill="#000000"></path>
            <polygon id="Path" fill="#E31E24" points="59.0212355 21.78125 46.3135135 5.11805556 46.3135135 28.0520833"></polygon>
            <polygon id="Path" fill="#696969" points="60.1749035 51.5555556 46.3135135 33.7708333 46.3135135 61.7083333"></polygon>
            <polygon id="Path" fill="#E31E24" points="60.4911197 47.8923611 59.5459459 23.9756944 46.907722 30.4583333"></polygon>
            <polygon id="Path" fill="#696969" points="74.4428571 42.0034722 62.207722 25.9583333 63.1389961 49.5173611"></polygon>
            <polygon id="Path" fill="#E31E24" points="60.4911197 82.7673611 46.3135135 67.4097222 46.3135135 95.7777778"></polygon>
            <polygon id="Path" fill="#E31E24" points="60.9254826 79.5694444 46.8660232 64.3402778 60.6718147 54.2256944"></polygon>
            <polygon id="Path" fill="#696969" points="75.2803089 69.1944444 63.2606178 55.2291667 63.5073359 79.9965278"></polygon>
            <polygon id="Path" fill="#696969" points="75.6138996 65.7638889 63.7818533 52.0173611 75.0023166 44.5590278"></polygon>
            <polygon id="Path" fill="#696969" points="86.9837838 58.4513889 77.6293436 46.1840278 78.2131274 66.5"></polygon>
            <polygon id="Path" fill="#BDBDBD" points="31.0204633 21.78125 43.7247104 5.11805556 43.7247104 28.0520833"></polygon>
            <polygon id="Path" fill="#696969" points="29.8667954 51.5555556 43.7247104 33.7708333 43.7247104 61.7083333"></polygon>
            <polygon id="Path" fill="#BDBDBD" points="29.5505792 47.8923611 30.4957529 23.9756944 43.1305019 30.4583333"></polygon>
            <polygon id="Path" fill="#696969" points="15.5988417 42.0034722 27.8339768 25.9583333 26.9027027 49.5173611"></polygon>
            <polygon id="Path" fill="#BDBDBD" points="29.5505792 82.7673611 43.7247104 67.4097222 43.7247104 95.7777778"></polygon>
            <polygon id="Path" fill="#BDBDBD" points="29.1162162 79.5694444 43.1756757 64.3402778 29.3698842 54.2256944"></polygon>
            <polygon id="Path" fill="#696969" points="14.76139 69.1944444 26.7810811 55.2291667 26.5343629 79.9965278"></polygon>
            <polygon id="Path" fill="#E31E24" points="14.4277992 65.7638889 26.2598456 52.0173611 15.0393822 44.5590278"></polygon>
            <polygon id="Path" fill="#E31E24" points="3.05791506 58.4513889 12.4123552 46.1840278 11.8285714 66.5"></polygon>
            <path d="M40.4548263,4.21180556 C40.4548263,6.39409738 42.3902007,8.16319444 44.7776062,8.16319444 C47.1650116,8.16319444 49.1003861,6.39409738 49.1003861,4.21180556 C49.1003861,2.02951373 47.1650116,0.260416667 44.7776062,0.260416667 C42.3902007,0.260416667 40.4548263,2.02951373 40.4548263,4.21180556 Z" id="Path" fill="#FFED00"></path>
            <path d="M0.072972973,58.71875 C0.072972973,60.9010418 2.00834747,62.6701389 4.3957529,62.6701389 C6.78315832,62.6701389 8.71853282,60.9010418 8.71853282,58.71875 C8.71853282,56.5364582 6.78315832,54.7673611 4.3957529,54.7673611 C2.00834747,54.7673611 0.072972973,56.5364582 0.072972973,58.71875 Z" id="Path" fill="#FFED00"></path>
            <path d="M40.5486486,95.8541667 C40.5486486,98.0364585 42.4840231,99.8055556 44.8714286,99.8055556 C47.258834,99.8055556 49.1942085,98.0364585 49.1942085,95.8541667 C49.1942085,93.6718748 47.258834,91.9027778 44.8714286,91.9027778 C42.4840231,91.9027778 40.5486486,93.6718748 40.5486486,95.8541667 Z" id="Path" fill="#FFED00"></path>
        </g>
    </g>
</svg>