<?xml version="1.0" encoding="UTF-8"?>
<svg width="100px" height="90px" viewBox="0 0 100 90" version="1.1" xmlns="http://www.w3.org/2000/svg" xmlns:xlink="http://www.w3.org/1999/xlink">
    <title>pyraminx_3</title>
    <g id="pyraminx" stroke="none" stroke-width="1" fill="none" fill-rule="evenodd">
        <g id="pyraminx_3" fill-rule="nonzero">
            <path d="M49.0211397,1.61907216 C32.8998162,30.1546392 16.7784926,58.685567 0.657169118,87.221134 C0.215992647,88.0005155 0.0229779412,88.6871134 0.0689338235,89.0721649 C-0.128676471,89.5082474 0.749080882,89.9628866 2.10477941,89.9628866 L97.9273897,89.9628866 L97.9273897,89.9582474 C98.6029412,89.9582474 99.1773897,89.842268 99.5450368,89.6659794 C99.6829044,89.6845361 99.7794118,89.6195876 99.8299632,89.4850515 C100.022978,89.3134021 100.050551,89.1092784 99.84375,88.9190722 C99.7794118,88.5386598 99.6001838,88.0376289 99.3014706,87.4948454 C83.6259191,58.9592784 67.9549632,30.4283505 52.2794118,1.89278351 C51.7876838,0.98814433 51.1902574,0.385051546 50.8226103,0.320103093 C50.7123162,-0.380412371 49.7610294,0.292268041 49.0165441,1.61907216 L49.0211397,1.61907216 Z M50.1056985,57.8076495 L50.1595447,57.706701 L50.2056985,57.8076495 L50.1056985,57.8076495 Z" id="Shape" fill="#000000"></path>
            <polygon id="Path" fill="#696969" points="48.4375 5.4 35.9834559 27.4453608 48.4375 19.6469072"></polygon>
            <polygon id="Path" fill="#696969" points="52.8079044 5.67835052 64.9172794 27.7237113 52.5873162 19.9252577"></polygon>
            <polygon id="Path" fill="#696969" points="32.3805147 33.8242268 19.9264706 55.8695876 32.3805147 48.071134"></polygon>
            <polygon id="Path" fill="#696969" points="34.7748162 45.1994845 34.7748162 30.9525773 47.2288603 23.1541237"></polygon>
            <polygon id="Path" fill="#696969" points="48.4375 23.7664948 35.9834559 45.8118557 48.4375 38.0134021"></polygon>
            <polygon id="Path" fill="#696969" points="52.5183824 24.0402062 64.6277574 46.085567 52.2977941 38.2871134"></polygon>
            <polygon id="Path" fill="#696969" points="65.8455882 45.4731959 66.0661765 31.2262887 53.7362132 23.4278351"></polygon>
            <polygon id="Path" fill="#696969" points="68.4191176 34.1025773 80.5284926 56.1479381 68.1985294 48.3494845"></polygon>
            <polygon id="Path" fill="#0062AC" points="16.3189338 62.2438144 3.86488971 84.2891753 16.3189338 76.4907216"></polygon>
            <polygon id="Path" fill="#0062AC" points="18.7178309 73.6190722 18.7178309 59.3721649 31.171875 51.5737113"></polygon>
            <polygon id="Path" fill="#0062AC" points="32.3759191 52.1907216 19.921875 74.2360825 32.3759191 66.4376289"></polygon>
            <polygon id="Path" fill="#0062AC" points="34.7012868 63.607732 34.7012868 49.3608247 47.1553309 41.5623711"></polygon>
            <polygon id="Path" fill="#0062AC" points="48.4329044 42.1376289 35.9788603 64.1829897 48.4329044 56.3845361"></polygon>
            <polygon id="Path" fill="#009846" points="52.2380515 42.4113402 64.3474265 64.456701 52.0174632 56.6582474"></polygon>
            <polygon id="Path" fill="#009846" points="65.6295956 63.8860825 65.8501838 49.6391753 53.5202206 41.8407216"></polygon>
            <polygon id="Path" fill="#009846" points="68.1341912 52.4690722 80.2435662 74.514433 67.9136029 66.7159794"></polygon>
            <polygon id="Path" fill="#009846" points="81.4522059 73.8927835 81.6727941 59.6458763 69.3428309 51.8474227"></polygon>
            <polygon id="Path" fill="#009846" points="84.0303309 62.5221649 96.1397059 84.5675258 83.8097426 76.7690722"></polygon>
            <polygon id="Path" fill="#E31E24" points="50.0137868 60.0402062 62.3483456 67.9407216 37.6746324 67.9407216"></polygon>
            <polygon id="Path" fill="#E31E24" points="34.1084559 70.2231959 46.4430147 78.1237113 21.7693015 78.1237113"></polygon>
            <polygon id="Path" fill="#E31E24" points="50.0137868 77.3675258 62.3483456 69.4670103 37.6746324 69.4670103"></polygon>
            <polygon id="Path" fill="#E31E24" points="65.9145221 70.2278351 78.2490809 78.1283505 53.5753676 78.1283505"></polygon>
            <polygon id="Path" fill="#E31E24" points="18.203125 80.4108247 30.5376838 88.3113402 5.86397059 88.3113402"></polygon>
            <polygon id="Path" fill="#E31E24" points="34.2555147 87.5505155 46.5900735 79.65 21.9163603 79.65"></polygon>
            <polygon id="Path" fill="#E31E24" points="50.0137868 80.4108247 62.3483456 88.3113402 37.6746324 88.3113402"></polygon>
            <polygon id="Path" fill="#E31E24" points="65.9145221 87.5505155 78.2490809 79.65 53.5753676 79.65"></polygon>
            <polygon id="Path" fill="#E31E24" points="81.8198529 80.4108247 94.1544118 88.3113402 69.4806985 88.3113402"></polygon>
        </g>
    </g>
</svg>