<?xml version="1.0" encoding="UTF-8"?>
<svg width="91px" height="100px" viewBox="0 0 91 100" version="1.1" xmlns="http://www.w3.org/2000/svg" xmlns:xlink="http://www.w3.org/1999/xlink">
    <title>pyraminx_3_3</title>
    <g id="pyraminx" stroke="none" stroke-width="1" fill="none" fill-rule="evenodd">
        <g id="pyraminx_3_3" fill-rule="nonzero">
            <path d="M45.8006993,0.405594406 L89.6608392,57.9685315 C89.9685315,58.3706294 89.986014,58.9090909 89.6013986,59.2622378 L45.6888112,99.5979021 C45.2797203,99.972028 44.6223776,99.972028 44.2132867,99.5979021 L0.304195804,59.2587413 C-0.0454545455,58.9370629 -0.104895105,58.4230769 0.188811189,58.0384615 L44.0874126,0.423076923 C44.486014,-0.129370629 45.3776224,-0.146853147 45.8006993,0.405594406 Z" id="Path" fill="#000000"></path>
            <polygon id="Path" fill="#696969" points="59.0384615 21.5839161 46.2517483 4.8041958 46.2517483 27.8986014"></polygon>
            <polygon id="Path" fill="#696969" points="60.1993007 51.5664336 46.2517483 33.6573427 46.2517483 61.7902098"></polygon>
            <polygon id="Path" fill="#696969" points="60.5174825 47.8776224 59.5664336 23.7937063 46.8496503 30.3216783"></polygon>
            <polygon id="Path" fill="#696969" points="74.5559441 41.9475524 62.2447552 25.7902098 63.1818182 49.513986"></polygon>
            <polygon id="Path" fill="#009846" points="60.5174825 82.9965035 46.2517483 67.5314685 46.2517483 96.0979021"></polygon>
            <polygon id="Path" fill="#009846" points="60.9545455 79.7762238 46.8076923 64.4405594 60.6993007 54.2552448"></polygon>
            <polygon id="Path" fill="#696969" points="75.3986014 69.3286713 63.3041958 55.2657343 63.5524476 80.2062937"></polygon>
            <polygon id="Path" fill="#009846" points="75.7342657 65.8741259 63.8286713 52.0314685 75.1188811 44.520979"></polygon>
            <polygon id="Path" fill="#009846" points="87.1748252 58.5104895 77.7622378 46.1573427 78.3496503 66.6153846"></polygon>
            <polygon id="Path" fill="#696969" points="30.8636364 21.5839161 43.6468531 4.8041958 43.6468531 27.8986014"></polygon>
            <polygon id="Path" fill="#696969" points="29.7027972 51.5664336 43.6468531 33.6573427 43.6468531 61.7902098"></polygon>
            <polygon id="Path" fill="#696969" points="29.3846154 47.8776224 30.3356643 23.7937063 43.048951 30.3216783"></polygon>
            <polygon id="Path" fill="#0062AC" points="15.3461538 41.9475524 27.6573427 25.7902098 26.7202797 49.513986"></polygon>
            <polygon id="Path" fill="#0062AC" points="29.3846154 82.9965035 43.6468531 67.5314685 43.6468531 96.0979021"></polygon>
            <polygon id="Path" fill="#0062AC" points="28.9475524 79.7762238 43.0944056 64.4405594 29.2027972 54.2552448"></polygon>
            <polygon id="Path" fill="#696969" points="14.5034965 69.3286713 26.5979021 55.2657343 26.3496503 80.2062937"></polygon>
            <polygon id="Path" fill="#0062AC" points="14.1678322 65.8741259 26.0734266 52.0314685 14.7832168 44.520979"></polygon>
            <polygon id="Path" fill="#0062AC" points="2.72727273 58.5104895 12.1398601 46.1573427 11.5524476 66.6153846"></polygon>
            <path d="M22.9265734,37.1013986 L21.9265734,37.1048951 L22.0314685,65.6153846 C21.3566434,65.534965 20.6993007,65.2972028 20.1258741,64.8776224 C20.9230769,67.0769231 21.7552448,69.2552448 22.5594406,71.4265734 C23.3566434,69.2412587 24.1503497,67.048951 24.9475524,64.8601399 C24.3671329,65.2797203 23.7062937,65.5244755 23.0314685,65.6118881 L22.9265734,37.1013986 Z" id="Path" fill="#FFFFFF"></path>
        </g>
    </g>
</svg>