<?xml version="1.0" encoding="UTF-8"?>
<svg width="100px" height="100px" viewBox="0 0 100 100" version="1.1" xmlns="http://www.w3.org/2000/svg" xmlns:xlink="http://www.w3.org/1999/xlink">
    <title>axis_1_5</title>
    <g id="axis_1_5" stroke="none" stroke-width="1" fill="none" fill-rule="evenodd">
        <g transform="translate(0.000000, 2.000000)" fill-rule="nonzero" id="Path">
            <polygon fill="#000000" points="41.6904762 0.428571429 42.047619 6.82142857 60.6666667 0.238095238 60.6190476 7.36904762 90.6309524 38.2738095 96.6428571 58.1785714 99.8809524 58.5595238 64.452381 87.3095238 59.3571429 96.9761905 59.25 92.0952381 47.7142857 89.0714286 39.6428571 96.6190476 39.4285714 86.5357143 10.5 57.0595238 16.4880952 55.9880952 4.78571429 54.9047619 9.77380952 49.7619048 0.547619048 36.702381"></polygon>
            <polygon fill="#FFED00" points="5.97619048 33.2261905 40.5952381 2.55952381 39.6071429 17.1547619"></polygon>
            <polygon fill="#FFFFFF" points="43.5 7.83333333 59.5238095 2.11904762 59.6309524 16.3333333"></polygon>
            <polygon fill="#0062AC" points="39.4404762 19.0714286 36.8095238 36.6309524 22.1071429 36.0833333"></polygon>
            <polygon fill="#009846" points="42.1904762 8.92857143 59.6904762 17.9285714 59.8452381 36.9642857 40.4880952 36.6309524"></polygon>
            <polygon fill="#FFFFFF" points="61.9880952 19.1309524 79 36.9642857 62.9761905 36.9642857"></polygon>
            <polygon fill="#009846" points="3.70238095 40.3571429 19.0119048 56 14.1547619 54.8214286"></polygon>
            <polygon fill="#E31E24" points="3.55952381 39.4285714 33.9047619 60.4166667 20.2380952 56.4880952"></polygon>
            <polygon fill="#0062AC" points="4.94047619 37.5119048 37.7380952 38.547619 36.3214286 58.6785714"></polygon>
            <polygon fill="#E31E24" points="39.3928571 40.9642857 57.8809524 60.7142857 39.6666667 58.25"></polygon>
            <polygon fill="#FFFFFF" points="41.5238095 38.6071429 59.8452381 38.8809524 60.1785714 58.5238095"></polygon>
            <polygon fill="#FFFFFF" points="62.6428571 39.9166667 88.9285714 39.702381 79.6547619 56.9880952 61.8809524 58.797619"></polygon>
            <polygon fill="#EF7F1A" points="89.9642857 40.8571429 94.6190476 55.7261905 81.4047619 56.7619048"></polygon>
            <polygon fill="#FFED00" points="21.9404762 58.4642857 36.4285714 62.7380952 38.7857143 75.9047619"></polygon>
            <polygon fill="#EF7F1A" points="39.6666667 60.8809524 58.5833333 63.5714286 40.1547619 92.75"></polygon>
            <polygon fill="#FFFFFF" points="60.3928571 65.6547619 59.0833333 77.4404762 42.2380952 93.5714286"></polygon>
            <polygon fill="#009846" points="61.9404762 60.9880952 78.2857143 59.5119048 60.6785714 92.75"></polygon>
            <polygon fill="#FFFFFF" points="72.6309524 72.1785714 94.8452381 61.6428571 65.5 85.6190476"></polygon>
            <polygon fill="#FFED00" points="48.7738095 88.3095238 58.4285714 78.8690476 57.7142857 90.5595238"></polygon>
        </g>
    </g>
</svg>