<?xml version="1.0" encoding="UTF-8"?>
<svg width="100px" height="100px" viewBox="0 0 100 100" version="1.1" xmlns="http://www.w3.org/2000/svg" xmlns:xlink="http://www.w3.org/1999/xlink">
    <title>axis_1_3</title>
    <g id="axis_1_3" stroke="none" stroke-width="1" fill="none" fill-rule="evenodd">
        <g transform="translate(0.000000, 4.000000)" fill-rule="nonzero" id="Path">
            <polygon fill="#000000" points="18.0543689 0.130097087 66.6582524 4.51067961 99.9165049 41.3009709 71.6640777 83.9708738 23.3825243 92.3009709 0.133980583 48.1339806"></polygon>
            <polygon fill="#696969" points="43.6699029 13.5805825 32.6737864 18.3320388 21.207767 2.4038835"></polygon>
            <polygon fill="#696969" points="63.8815534 5.02330097 45.1650485 12.9941748 22.3029126 1.46213592"></polygon>
            <polygon fill="#FFFFFF" points="35.4776699 22.0116505 72.9281553 40.761165 49.2058252 41.4582524"></polygon>
            <polygon fill="#696969" points="46.2582524 14.9514563 71.4796117 27.607767 74.4834951 39.9223301 34.8349515 20.0252427"></polygon>
            <polygon fill="#FFFFFF" points="47.6970874 14.2582524 66.0019417 5.99805825 71.2038835 26.1961165"></polygon>
            <polygon fill="#696969" points="73.9029126 28.8407767 96.0524272 40.0291262 77.0504854 40.6194175"></polygon>
            <polygon fill="#696969" points="68.5533981 7.71067961 96.4951456 38.8504854 73.4194175 27.3184466"></polygon>
            <polygon fill="#E31E24" points="49.3067961 44.3650485 72.8135922 43.6466019 37.7223301 66.815534"></polygon>
            <polygon fill="#696969" points="35.7728155 70.8834951 47.3203883 75.4757282 26.4407767 89.0970874"></polygon>
            <polygon fill="#696969" points="37.3281553 69.0058252 74.6174757 44.3359223 73.223301 58.2058252 49.6097087 73.9184466"></polygon>
            <polygon fill="#696969" points="77.0796117 43.4213592 95.9184466 42.992233 75.6854369 56.5417476"></polygon>
            <polygon fill="#696969" points="48.7475728 76.0815534 68.431068 83.7300971 27.0116505 90.5417476"></polygon>
            <polygon fill="#E31E24" points="50.8854369 74.5805825 72.9980583 60.0466019 70.7456311 82.4446602"></polygon>
            <polygon fill="#696969" points="75.3067961 58.3320388 96.6679612 44.207767 73 80.6757282"></polygon>
            <polygon fill="#009846" points="32.6349515 23.1145631 46.4873786 42.776699 35.1009709 65.5165049"></polygon>
            <polygon fill="#696969" points="18.9864078 4.11650485 30.168932 19.8640777 20.3378641 28.8737864"></polygon>
            <polygon fill="#696969" points="20.3708738 31.5106796 31.0873786 22.0970874 33.5262136 66.831068 21.8737864 59.8601942"></polygon>
            <polygon fill="#696969" points="22.176699 62.9980583 33.0271845 69.6485437 23.6951456 88.2912621"></polygon>
            <polygon fill="#696969" points="17.4970874 4.17475728 18.9184466 30.0834951 1.95533981 45.368932"></polygon>
            <polygon fill="#009846" points="1.82912621 47.992233 19.168932 32.6019417 20.5631068 59.1805825"></polygon>
            <polygon fill="#696969" points="2.60582524 50.6524272 20.6951456 61.9145631 22.2893204 88.0116505"></polygon>
        </g>
    </g>
</svg>