<?xml version="1.0" encoding="UTF-8"?>
<svg width="100px" height="100px" viewBox="0 0 100 100" version="1.1" xmlns="http://www.w3.org/2000/svg" xmlns:xlink="http://www.w3.org/1999/xlink">
    <title>axis_4_1</title>
    <g id="axis_4_1" stroke="none" stroke-width="1" fill="none" fill-rule="evenodd">
        <g transform="translate(5.000000, 0.000000)" fill-rule="nonzero" id="Path">
            <polygon fill="#000000" points="44.8611111 0.541666667 51.4861111 7.40277778 58.7222222 10.0416667 58.7916667 14.3472222 82.6111111 37 89.5833333 63.0277778 44.9722222 99.25 0.222222222 62.9583333 13.1111111 45.0833333 10.8888889 41.3333333 8.23611111 41.25 4.01388889 19.9583333 31.3611111 10.2638889 31.0833333 0.236111111 42.1527778 4.25"></polygon>
            <polygon fill="#696969" points="33.8888889 2.5 42.5833333 5.65277778 40.4444444 12.0416667"></polygon>
            <polygon fill="#696969" points="48.0138889 4.58333333 50.9583333 7.56944444 49.4027778 7.08333333"></polygon>
            <polygon fill="#696969" points="47.4861111 7.25 56.5 10.6666667 51.4305556 14.6666667 49.625 13.1666667"></polygon>
            <polygon fill="#696969" points="5.61111111 20.7361111 28.7083333 12.1527778 9.29166667 38.4583333"></polygon>
            <polygon fill="#696969" points="31.375 12.0416667 38.5833333 17.1666667 31.2222222 37.8611111 29.1388889 40.6944444 10.5694444 40.1111111"></polygon>
            <polygon fill="#696969" points="44.9305556 3.625 57.8333333 40.75 32.0138889 40.6388889"></polygon>
            <polygon fill="#EF7F1A" points="50.0416667 14.3888889 58.6805556 20.4722222 72.3888889 39.4722222 67.4861111 41.4444444 51.6388889 19.0416667"></polygon>
            <polygon fill="#696969" points="60.5 21.8055556 80.9305556 36.3194444 73.1388889 39.4166667"></polygon>
            <polygon fill="#696969" points="58.9027778 14.9861111 78.0416667 33.2777778 58.9027778 19.6805556"></polygon>
            <polygon fill="#FFED00" points="16.1805556 41.5972222 20.0138889 43.3611111 3.58333333 58.9861111"></polygon>
            <polygon fill="#EF7F1A" points="21.4027778 45.4861111 28.2777778 61.7083333 4.125 61.8194444"></polygon>
            <polygon fill="#696969" points="23.5416667 44.3194444 65.5138889 44.375 58.2638889 61.7638889 30.8472222 61.8194444"></polygon>
            <polygon fill="#EF7F1A" points="67.9166667 45.3888889 85.5694444 61.8194444 61.1944444 61.8194444"></polygon>
            <polygon fill="#0062AC" points="69.4583333 43.3611111 73.6805556 41.4444444 86.7361111 59.5694444"></polygon>
            <polygon fill="#696969" points="74.4166667 41.2222222 82.1527778 38.0833333 88.0277778 59.9444444"></polygon>
            <polygon fill="#EF7F1A" points="4.16666667 64.1111111 29.0833333 64.1111111 42.0972222 95.0416667"></polygon>
            <polygon fill="#EF7F1A" points="31.9027778 64.0555556 57.4583333 64.1666667 44.875 95.5833333"></polygon>
            <polygon fill="#EF7F1A" points="60.2361111 64.0555556 85.5138889 64.2083333 47.6388889 95.2638889"></polygon>
        </g>
    </g>
</svg>