<?xml version="1.0" encoding="UTF-8"?>
<svg width="100px" height="100px" viewBox="0 0 100 100" version="1.1" xmlns="http://www.w3.org/2000/svg" xmlns:xlink="http://www.w3.org/1999/xlink">
    <title>axis_8</title>
    <g id="axis_8" stroke="none" stroke-width="1" fill="none" fill-rule="evenodd">
        <g transform="translate(3.000000, 0.000000)" fill-rule="nonzero" id="Path">
            <polygon fill="#000000" points="15.0629213 23.0382022 60.305618 0.159550562 94.4157303 38.4696629 90.4696629 86.388764 41.2921348 99.8966292 0.150561798 68.7078652"></polygon>
            <polygon fill="#FFED00" points="58.0067416 5.05842697 49.5280899 46.1280899 37.6 37.7775281"></polygon>
            <polygon fill="#FFED00" points="56.9842697 3.93033708 36.6089888 37.0224719 26.5213483 29.7258427"></polygon>
            <polygon fill="#FFED00" points="55.4067416 3.61123596 25.541573 28.9595506 17.1505618 22.9955056"></polygon>
            <polygon fill="#FFED00" points="36.2786517 39.9505618 47.4404494 48.3011236 25.4561798 57.247191"></polygon>
            <polygon fill="#FFED00" points="24.7325843 31.4741573 35.1280899 39.1842697 23.9662921 57.2494382 9.69438202 43.7865169"></polygon>
            <polygon fill="#FFED00" points="15.5730337 24.7842697 23.4966292 30.705618 9.82247191 42.3370787"></polygon>
            <polygon fill="#FFED00" points="8.62921348 46.0426966 21.5797753 58.8247191 1.77078652 66.6629213"></polygon>
            <polygon fill="#E31E24" points="60.9033708 3.61123596 69.3393258 27.8089888 52.9797753 44.2966292"></polygon>
            <polygon fill="#E31E24" points="70.2764045 30.4516854 79.0516854 55.3730337 53.3617978 47.7483146"></polygon>
            <polygon fill="#E31E24" points="55.2359551 51.0719101 79.7752809 58.0157303 88.5101124 82.4696629"></polygon>
            <polygon fill="#E31E24" points="62.5640449 4.20674157 77.0494382 20.3955056 70.4898876 26.8292135"></polygon>
            <polygon fill="#E31E24" points="71.3842697 29.4292135 78.2 22.4 91.1932584 58.8674157 80.7146067 55.8"></polygon>
            <polygon fill="#E31E24" points="81.6089888 58.3977528 91.4921348 61.211236 89.788764 81.8314607"></polygon>
            <polygon fill="#E31E24" points="80.1168539 23.7191011 93.3662921 38.5460674 91.7483146 56.9932584"></polygon>
            <polygon fill="#0062AC" points="26.8202247 59.7191011 48.3775281 51.2831461 45.694382 67.388764"></polygon>
            <polygon fill="#0062AC" points="51.4022472 52.0516854 85.5707865 83.5775281 48.3775281 68.5370787"></polygon>
            <polygon fill="#0062AC" points="2.66516854 69.0921348 22.305618 61.5505618 20.941573 83.1078652"></polygon>
            <polygon fill="#0062AC" points="25.2449438 61.2539326 45.1393258 69.2629213 42.6269663 84.6853933 23.5393258 84.4719101"></polygon>
            <polygon fill="#0062AC" points="47.952809 70.4134831 85.3146067 85.3235955 45.352809 84.8134831"></polygon>
            <polygon fill="#0062AC" points="24.647191 85.7932584 42.2853933 86.1325843 40.411236 97.7640449"></polygon>
            <polygon fill="#0062AC" points="45.011236 86.2179775 84.2494382 86.941573 42.7123596 98.4022472"></polygon>
        </g>
    </g>
</svg>