<?xml version="1.0" encoding="UTF-8"?>
<svg width="100px" height="100px" viewBox="0 0 100 100" version="1.1" xmlns="http://www.w3.org/2000/svg" xmlns:xlink="http://www.w3.org/1999/xlink">
    <title>axis_7_1</title>
    <g id="axis_7_1" stroke="none" stroke-width="1" fill="none" fill-rule="evenodd">
        <g fill-rule="nonzero" id="Path">
            <polygon fill="#000000" points="14.0816327 28.6530612 46 0.214285714 93.4795918 33.5102041 84.5612245 61.6326531 50.6020408 99.5102041 10.0102041 65.5102041 3.75510204 38.1530612 7.95918367 34.1530612 0.724489796 33.0204082"></polygon>
            <polygon fill="#E31E24" points="9.55102041 35.0306122 44.7857143 3.19387755 45.6020408 11.7142857 34.3673469 26.7142857"></polygon>
            <polygon fill="#E31E24" points="47.5102041 3.1122449 50.3469388 5.30612245 47.9591837 8.51020408"></polygon>
            <polygon fill="#E31E24" points="52.0102041 6.36734694 66.1938776 16.3469388 51.4693878 21.377551"></polygon>
            <polygon fill="#FFED00" points="50.377551 7.3877551 48.8571429 47.0510204 26.7755102 40.1428571"></polygon>
            <polygon fill="#E31E24" points="51.3367347 23.3979592 67.5204082 18.1734694 72.122449 52.6122449 51.3367347 47.5612245"></polygon>
            <polygon fill="#E31E24" points="70.377551 19.0102041 90.8367347 33.5714286 74.7653061 51.1530612"></polygon>
            <polygon fill="#E31E24" points="9.75510204 40.4795918 48.8061224 49.6938776 50.7755102 73.5204082"></polygon>
            <polygon fill="#E31E24" points="51.7857143 50.2040816 71.1734694 54.755102 53.744898 73.0714286"></polygon>
            <polygon fill="#0062AC" points="6.93877551 41.6632653 47.2346939 74.1428571 21.1632653 60.1428571"></polygon>
            <polygon fill="#E31E24" points="22.7857143 62.3979592 49.4795918 76.6632653 35.8265306 79.7040816"></polygon>
            <polygon fill="#0062AC" points="50.9387755 78.9183673 49.5306122 97.2857143 37.4489796 81.5"></polygon>
            <polygon fill="#0062AC" points="8.28571429 53.1836735 5.54081633 41.4387755 19.0816327 59.1938776"></polygon>
            <polygon fill="#0062AC" points="9.53061224 55.3163265 20.4285714 60.9897959 34.9285714 79.9285714 29.4795918 80.9897959"></polygon>
            <polygon fill="#0062AC" points="31.2755102 82.6836735 36.1632653 81.6632653 47.9591837 96.6122449"></polygon>
            <polygon fill="#FFED00" points="8.79591837 55.8163265 27.2857143 79.3673469 10.9285714 65.6020408"></polygon>
            <polygon fill="#FFFFFF" points="53.6938776 77.622449 64.1428571 72.5612245 52.0102041 96.1632653"></polygon>
            <polygon fill="#FFFFFF" points="55.2142857 75.377551 72.1836735 57.2857143 65.377551 70.4285714"></polygon>
            <polygon fill="#FFFFFF" points="65.4897959 71.8367347 74.255102 67.4489796 53.244898 95.4387755"></polygon>
            <polygon fill="#FFFFFF" points="73.9795918 55.5918367 86.7857143 50.5408163 76.0612245 65.0918367 66.4489796 70.0408163"></polygon>
            <polygon fill="#FFFFFF" points="75.8367347 53.122449 92.0714286 35.9285714 88.0306122 48.4591837"></polygon>
            <polygon fill="#FFFFFF" points="75.4387755 66.8367347 82.5204082 63.2959184 54.1428571 94.9285714"></polygon>
            <polygon fill="#FFFFFF" points="77.2959184 64.4693878 87.122449 51.3265306 84.0408163 61.1530612"></polygon>
        </g>
    </g>
</svg>