<?xml version="1.0" encoding="UTF-8"?>
<svg width="100px" height="100px" viewBox="0 0 100 100" version="1.1" xmlns="http://www.w3.org/2000/svg" xmlns:xlink="http://www.w3.org/1999/xlink">
    <title>axis_6_1</title>
    <g id="axis_6_1" stroke="none" stroke-width="1" fill="none" fill-rule="evenodd">
        <g fill-rule="nonzero" id="Path">
            <polygon fill="#000000" points="14.266711 19.4336163 61.6561357 0.199660441 87.7951446 27.9857386 99.866977 30.2152802 94.1469903 34.1752123 95.5437313 36.0719864 90.7881609 88.2499151 41.1040904 97.5341256 0.19953442 70.2471986"></polygon>
            <polygon fill="#0062AC" points="14.5992684 21.6298811 23.7113402 30.3816638 2.89324908 64.3572156"></polygon>
            <polygon fill="#0062AC" points="34.4529431 12.5120544 25.0415697 28.0855688 16.5946126 19.8662139"></polygon>
            <polygon fill="#696969" points="24.6092451 31.2135823 35.9161956 36.6044143 19.4213502 56.3375212"></polygon>
            <polygon fill="#0062AC" points="36.3152644 12.3123939 54.3731294 26.4550085 41.7026937 36.4713073 37.5457266 38.6675722 37.878284 35.5062818 28.3671433 31.1470289 26.1722647 28.9174873"></polygon>
            <polygon fill="#696969" points="38.3106086 10.7483871 59.7938144 1.99660441 55.8696375 23.9259762"></polygon>
            <polygon fill="#E31E24" points="4.52278018 71.9775891 20.2859994 75.0057725 21.3834387 82.1269949 26.2387762 79.2319185 21.849019 83.5578947"></polygon>
            <polygon fill="#FFED00" points="19.7871633 58.8 36.8806119 43.4926995 48.8194213 57.7351443 22.2148321 79.8308999"></polygon>
            <polygon fill="#0062AC" points="40.1396741 40.9303905 67.2763552 43.8920204 54.9717326 54.2078099 50.0831394 57.0696095"></polygon>
            <polygon fill="#FFED00" points="55.2045228 30.4814941 68.3737944 40.9303905 40.8380445 37.8689304"></polygon>
            <polygon fill="#696969" points="62.3212504 2.66213922 77.6521449 18.6682513 63.1858996 23.3602717 58.9956768 22.6947368"></polygon>
            <polygon fill="#E31E24" points="25.7731959 86.086927 61.0575325 92.8088285 41.1040904 96.5358235"></polygon>
            <polygon fill="#E31E24" points="31.692717 77.1687606 59.4945128 82.6594228 62.5540406 92.0767402 24.2101763 84.5229202"></polygon>
            <polygon fill="#696969" points="51.1140672 58.5670628 59.1286997 81.3949066 32.6903891 76.0706282"></polygon>
            <polygon fill="#FFED00" points="54.4396408 56.1711375 68.9058863 49.5157895 88.1609577 84.289983"></polygon>
            <polygon fill="#0062AC" points="60.8247423 25.4234296 95.71001 31.64618 69.9368141 46.4210526 71.9986698 42.4611205 65.3475225 36.637691"></polygon>
            <polygon fill="#FFED00" points="80.7449285 21.9959253 86.0991021 27.5864177 81.2105088 26.8876061"></polygon>
            <polygon fill="#E31E24" points="62.0219488 83.1585738 86.6311939 88.0502547 64.9817094 92.0767402"></polygon>
            <polygon fill="#E31E24" points="54.4396408 59.7650255 87.1965414 86.8190153 61.9221815 81.9273344"></polygon>
            <polygon fill="#696969" points="82.707017 43.0601019 89.3581643 83.6910017 70.1696042 48.7171478"></polygon>
            <polygon fill="#FFED00" points="83.8709677 42.4943973 94.1802461 37.8023769 90.3890922 82.1269949"></polygon>
            <polygon fill="#FFED00" points="93.1493182 34.5412564 93.5151313 35.9388795 89.9567675 37.1368421"></polygon>
        </g>
    </g>
</svg>