<?xml version="1.0" encoding="UTF-8"?>
<svg width="100px" height="100px" viewBox="0 0 100 100" version="1.1" xmlns="http://www.w3.org/2000/svg" xmlns:xlink="http://www.w3.org/1999/xlink">
    <title>axis_3_2</title>
    <g id="axis_3_2" stroke="none" stroke-width="1" fill="none" fill-rule="evenodd">
        <g fill-rule="nonzero" id="Path">
            <polygon fill="#000000" points="41.1869416 0.272108844 59.1367697 13.0272109 73.3147767 28.6734694 97.932646 42.7210885 90.2879725 49.7959184 93.2852233 60.4761905 56.4089347 99.4897959 21.9237113 73.3333334 13.0666666 59.0136054 2.72783505 56.7687074 8.35189004 51.3605442 0.235738831 38.3673469 37.785567 6.08843538"></polygon>
            <polygon fill="#696969" points="36.7079037 8.36734694 27.4804124 25.3061224 5.75876289 35.0340136"></polygon>
            <polygon fill="#696969" points="39.7725086 5.06802721 37.8865979 38.9455783 21.4522336 38.2312926"></polygon>
            <polygon fill="#696969" points="41.8604811 12.0408163 58.6316151 21.3945579 58.6989691 39.9659864 40.5134021 39.3197279"></polygon>
            <polygon fill="#696969" points="44.3525773 3.33333334 58.7663231 13.537415 59.0694158 19.5578232"></polygon>
            <polygon fill="#696969" points="60.9553264 23.0952381 94.0261169 41.5306122 61.1910653 40.1700681"></polygon>
            <polygon fill="#696969" points="60.3154639 15.1020408 72.0350515 28.0952381 60.7869416 21.462585"></polygon>
            <polygon fill="#009846" points="3.19931272 41.9727891 12.7972509 52.244898 11.180756 54.8979592"></polygon>
            <polygon fill="#696969" points="20.2735396 40.4081633 37.819244 41.292517 36.9436426 60.5782313 11.0460481 57.1428571"></polygon>
            <polygon fill="#FFED00" points="40.3113402 41.122449 57.9243986 41.6666666 39.132646 59.6258503"></polygon>
            <polygon fill="#EF7F1A" points="59.6419244 44.0476191 58.6316151 61.1904762 41.1532646 61.9727891"></polygon>
            <polygon fill="#696969" points="61.3931272 41.9727891 93.5546392 43.1632653 61.4941581 61.5306122"></polygon>
            <polygon fill="#696969" points="95.0027491 44.8299319 77.6927835 60.6462585 63.8852233 63.0612245"></polygon>
            <polygon fill="#EF7F1A" points="79.4103093 59.9659864 89.1766323 50.9183673 91.7024055 59.4897959"></polygon>
            <polygon fill="#009846" points="14.5821306 60.1700681 34.956701 82.5170068 22.5298969 73.0272109"></polygon>
            <polygon fill="#009846" points="14.7505155 59.1836735 19.8020619 60.1700681 36.8762887 78.9115646 37.0446736 83.877551"></polygon>
            <polygon fill="#009846" points="21.2164948 60.340136 36.2701031 64.2517007 36.7415808 77.5170068"></polygon>
            <polygon fill="#009846" points="38.6611684 80.5442177 53.0075602 96.2244898 38.9642612 85.4421768"></polygon>
            <polygon fill="#009846" points="38.6611684 67.1428571 54.1862543 96.5646258 38.8295532 79.5578232"></polygon>
            <polygon fill="#EF7F1A" points="40.2776633 64.5918367 58.2274914 63.707483 55.8364262 95.1360544"></polygon>
            <polygon fill="#EF7F1A" points="60.0797251 64.5918367 68.2295532 63.1632653 75.7731959 62.6190477 57.6886598 95.3061224"></polygon>
            <polygon fill="#EF7F1A" points="77.6927835 62.5170068 90.7594501 61.7346939 59.8439862 94.3537415"></polygon>
        </g>
    </g>
</svg>