<?xml version="1.0" encoding="UTF-8"?>
<svg width="100px" height="100px" viewBox="0 0 100 100" version="1.1" xmlns="http://www.w3.org/2000/svg" xmlns:xlink="http://www.w3.org/1999/xlink">
    <title>axis_4</title>
    <g id="axis_4" stroke="none" stroke-width="1" fill="none" fill-rule="evenodd">
        <g fill-rule="nonzero" id="Path">
            <polygon fill="#000000" points="22.5116279 74.3246417 0.162790698 36.7629786 41.6744186 0.140944327 83.7906977 16.7253934 96.7674419 58.6798215 59.1395349 99.2717877"></polygon>
            <polygon fill="#FFED00" points="40.8372093 56.3777308 41.4418605 38.1254404 59.5348837 38.2663847"></polygon>
            <polygon fill="#FFED00" points="4.60465116 37.6791168 38.9302326 38.1019497 38.0232558 57.4348132"></polygon>
            <polygon fill="#696969" points="62.372093 9.49025135 81.3488372 17.1247358 63.255814 34.5783415"></polygon>
            <polygon fill="#696969" points="41.6046512 35.8703312 42.0930233 17.8529481 60.0232558 9.49025135 60.744186 36.1992013"></polygon>
            <polygon fill="#696969" points="4.51162791 35.635424 39.6511628 19.0039934 39.0930233 36.0347663"></polygon>
            <polygon fill="#696969" points="42.1627907 16.1381255 42.4883721 1.94972986 58.8837209 8.17477097"></polygon>
            <polygon fill="#696969" points="5.58139535 33.2628612 40.372093 2.443035 39.7209302 17.2891708"></polygon>
            <polygon fill="#EF7F1A" points="43.0465116 58.6563307 61.3023256 40.4745125 60.6511628 58.4214235"></polygon>
            <polygon fill="#696969" points="65.2093023 36.6925065 83.0465116 19.0744656 88.744186 37.9375146"></polygon>
            <polygon fill="#EF7F1A" points="41.9302326 61.5221987 60.255814 61.0288936 58.627907 94.7145878"></polygon>
            <polygon fill="#EF7F1A" points="62.6046512 58.4214235 63.5116279 39.3234673 89.0465116 40.4745125 79.8837209 57.9281184"></polygon>
            <polygon fill="#EF7F1A" points="62.1162791 60.8644586 78.4186047 60.5355885 60.744186 94.2212826"></polygon>
            <polygon fill="#EF7F1A" points="81.6046512 57.9985906 90.0232558 41.8604652 95.0697674 57.5052855"></polygon>
            <polygon fill="#EF7F1A" points="80.5348837 60.2302091 94 59.9718111 62.8604651 93.3991074"></polygon>
            <polygon fill="#009846" points="56.8139535 96.1475217 40.255814 78.7878788 40.372093 64.0826874"></polygon>
            <polygon fill="#009846" points="21.9534884 59.3140709 38.1162791 61.3577636 38.6046512 77.0965469"></polygon>
            <polygon fill="#009846" points="3.39534884 39.6523374 35.6744186 58.9852008 19.6976744 57.1059431"></polygon>
            <polygon fill="#009846" points="40.2093023 85.7881137 40.3023256 80.1268499 55.627907 96.0300681"></polygon>
            <polygon fill="#009846" points="38.7674419 84.5665962 13.9302326 58.0925534 20.1860465 58.9147287 38.4418605 78.17712"></polygon>
            <polygon fill="#009846" points="2.97674419 40.5449847 18.3023256 56.871036 12.3953488 56.0488607"></polygon>
            <polygon fill="#009846" points="22.7674419 73.9018088 14.5813953 59.901339 36.6511628 83.321588"></polygon>
        </g>
    </g>
</svg>