<?xml version="1.0" encoding="UTF-8"?>
<svg width="100px" height="100px" viewBox="0 0 100 100" version="1.1" xmlns="http://www.w3.org/2000/svg" xmlns:xlink="http://www.w3.org/1999/xlink">
    <title>axis_6_2</title>
    <g id="axis_6_2" stroke="none" stroke-width="1" fill="none" fill-rule="evenodd">
        <g transform="translate(0.000000, 10.000000)" fill-rule="nonzero" id="Path">
            <polygon fill="#000000" points="0.197802198 28.8901099 12.4395604 20.4395604 18.2417582 0.164835165 36.6043956 1.82417582 41.5164835 3.18681319 55.2307692 0.67032967 61.2087912 5.03296703 63.2087912 3.2967033 73.978022 14.0549451 88.9340659 28.8571429 99.7472527 39.3186813 93.9120879 42.6483516 95.4065934 47.4395604 67.0659341 80.0879121 23.3626374 77.5494505"></polygon>
            <polygon fill="#0062AC" points="11.978022 21.4065934 11.6263736 22.8791209 6.01098901 25.6593407"></polygon>
            <polygon fill="#696969" points="18.7032967 2.28571429 37.9340659 11.1428571 12.0769231 26.0659341"></polygon>
            <polygon fill="#696969" points="20.4285714 0.868131868 35.956044 2.28571429 39.6483516 9.72527473"></polygon>
            <polygon fill="#FFED00" points="38.4835165 2.79120879 54.9230769 8.30769231 56.9230769 10.8131868 51.4395604 12.5054945 42.021978 10.4395604"></polygon>
            <polygon fill="#0062AC" points="42.5824176 3.49450549 52.1978022 1.78021978 46.021978 4.92307692"></polygon>
            <polygon fill="#E31E24" points="2.87912088 32.0769231 19.967033 45.0879121 12.5824176 52.3736264"></polygon>
            <polygon fill="#0062AC" points="11.8791209 28.5824176 39.7472527 13.1648352 40.5824176 26.8351648 24.6813187 42.0989011 21.7912088 43.5164835"></polygon>
            <polygon fill="#0062AC" points="41.8241758 15.989011 58.8681319 10.7802198 44.7032967 22.3736264"></polygon>
            <polygon fill="#E31E24" points="14.6153846 56.6593407 40.8131868 77.0549451 24.0659341 76.1978022"></polygon>
            <polygon fill="#E31E24" points="22.1428571 46.9010989 42.3846154 62.4285714 42.5824176 76.4945055 14.1098901 54.2417582"></polygon>
            <polygon fill="#696969" points="42.5824176 27.4285714 42.5824176 60.5604396 23.2637363 45.5384615"></polygon>
            <polygon fill="#FFED00" points="46.7802198 23.9340659 61.4505495 11.9450549 62.8681319 31.1758242"></polygon>
            <polygon fill="#0062AC" points="64.4395604 7.49450549 95.5494505 37.4945055 64.989011 32.0879121"></polygon>
            <polygon fill="#E31E24" points="44.6593407 64 63.1208791 78.3736264 44.5054945 77.3076923"></polygon>
            <polygon fill="#E31E24" points="44.956044 30.5604396 64.4835165 77.0989011 44.8131868 62.0769231"></polygon>
            <polygon fill="#FFED00" points="62.967033 33.9010989 65.9010989 74.1208791 46.2747253 26.4175824"></polygon>
            <polygon fill="#696969" points="64.8351648 34.7582418 96.1538462 40.1208791 65.4945055 58.4395604"></polygon>
            <polygon fill="#FFED00" points="77.1318681 52.7142857 89.0659341 45.6373626 93.4175824 47.7142857 69.6923077 74.978022"></polygon>
            <polygon fill="#FFED00" points="91.1428571 44.3846154 93.1208791 43.3186813 93.6703297 45.4395604"></polygon>
        </g>
    </g>
</svg>