<?xml version="1.0" encoding="UTF-8"?>
<svg width="100px" height="100px" viewBox="0 0 100 100" version="1.1" xmlns="http://www.w3.org/2000/svg" xmlns:xlink="http://www.w3.org/1999/xlink">
    <title>axis_5</title>
    <g id="axis_5" stroke="none" stroke-width="1" fill="none" fill-rule="evenodd">
        <g fill-rule="nonzero" id="Path">
            <polygon fill="#000000" points="21.6726656 28.1435155 58.2329372 0.230414747 70.6502547 12.6069783 82.7052632 14.9440421 88.4363327 30.4805793 96.637691 38.676761 92.8169779 57.2745228 66.2037352 88.8742594 66.1049236 99.8683344 58.0353141 93.2192232 45.2227504 99.3745886 2.23972836 64.3186307 12.4831919 45.6550362 11.1657046 43.5813035 0.691680815 44.1079658 19.1365026 33.4101383"></polygon>
            <polygon fill="#E31E24" points="22.298472 28.3739302 35.4733447 18.3015142 26.0203735 29.1639237 20.0258064 32.8176432"></polygon>
            <polygon fill="#E31E24" points="37.7789474 16.7873601 38.4706282 21.8235682 27.7001698 28.3739302"></polygon>
            <polygon fill="#E31E24" points="39.4916809 15.3061224 54.5439728 3.75246872 40.2162988 19.7827518"></polygon>
            <polygon fill="#E31E24" points="5.07232598 60.40158 12.6808149 46.3791968 14.5582343 49.5391705"></polygon>
            <polygon fill="#696969" points="38.6353141 22.8110599 40.1174873 38.248848 5.00645162 42.5608953"></polygon>
            <polygon fill="#E31E24" points="40.3480475 20.9348255 55.7626485 3.45622119 42.6207131 33.6734694"></polygon>
            <polygon fill="#0062AC" points="57.8706282 4.77287689 62.2183362 36.4713628 44.8275042 35.9117841"></polygon>
            <polygon fill="#696969" points="60.3409168 11.5865701 80.136163 15.6682028 64.7544991 34.0355497"></polygon>
            <polygon fill="#0062AC" points="62.0536502 5.39828835 68.8716469 12.2119815 65.3144312 11.2574062"></polygon>
            <polygon fill="#0062AC" points="45.9473684 38.3805135 62.6135823 38.7755102 64.8533107 55.9907834"></polygon>
            <polygon fill="#696969" points="66.6319185 35.6155365 81.9147708 17.6102699 89.1280136 36.4713628"></polygon>
            <polygon fill="#FFED00" points="65.3803056 38.248848 89.3585738 39.005925 82.2770798 56.9124423 65.8414262 57.7682686"></polygon>
            <polygon fill="#0062AC" points="89.3585738 32.6530612 94.1674024 37.6234364 91.0713073 37.5246872"></polygon>
            <polygon fill="#0062AC" points="90.2149406 39.7630019 94.9249575 39.6971692 91.8288625 54.9045424 87.2505942 47.2021066"></polygon>
            <polygon fill="#0062AC" points="12.9113752 44.6017116 40.6774194 40.1579987 41.9619694 59.5457538 22.7595925 61.323239"></polygon>
            <polygon fill="#FFED00" points="43.7076401 40.6188282 62.9758914 58.2949309 44.5310696 59.9078341"></polygon>
            <polygon fill="#FFED00" points="30.6645162 76.3660303 41.9949067 95.1612903 8.16842105 67.445688"></polygon>
            <polygon fill="#696969" points="24.3076401 63.7261356 41.9949067 62.244898 44.4651952 97.4325214"></polygon>
            <polygon fill="#FFED00" points="45.7826825 82.6859777 56.948387 92.2975642 46.408489 97.4983542"></polygon>
            <polygon fill="#E31E24" points="45.2556876 64.7465438 63.5358235 97.0375247 45.6179967 81.4022383"></polygon>
            <polygon fill="#FFED00" points="64.0628184 60.5661619 65.1497453 95.0296248 46.6390493 61.5536537"></polygon>
            <polygon fill="#696969" points="67.9494058 59.479921 81.5195246 59.3153391 65.6438031 78.0776827"></polygon>
        </g>
    </g>
</svg>