<?xml version="1.0" encoding="UTF-8"?>
<svg width="100px" height="100px" viewBox="0 0 100 100" version="1.1" xmlns="http://www.w3.org/2000/svg" xmlns:xlink="http://www.w3.org/1999/xlink">
    <title>axis_7</title>
    <g id="axis_7" stroke="none" stroke-width="1" fill="none" fill-rule="evenodd">
        <g transform="translate(5.000000, 0.000000)" fill-rule="nonzero" id="Path">
            <polygon fill="#000000" points="13.0829928 21.6372913 8.22625128 18.9471243 19.7522982 18.7847866 62.7658324 0.162337662 75.7558733 18.6920222 81.4259448 9.64749536 81.4259448 27.2263451 90.76762 40.700371 89.8148621 85.7606679 36.6230848 99.7912801 0.139427987 64.6799629"></polygon>
            <polygon fill="#FFED00" points="41.0150664 34.8330241 60.7673647 4.49907236 55.4923391 42.3237477"></polygon>
            <polygon fill="#FFED00" points="11.8978549 19.596475 49.9616956 19.7588127 39.3884066 34.0445269"></polygon>
            <polygon fill="#FFED00" points="22.029622 18.6920222 57.002809 3.71057514 37.2505107 18.6688311"></polygon>
            <polygon fill="#FFED00" points="29.0707355 53.0380334 39.6672625 36.9897959 53.2614913 44.4109462"></polygon>
            <polygon fill="#FFED00" points="9.24872319 41.0250464 25.0040858 29.2207792 38.0173647 36.1549165 27.0490297 53.17718"></polygon>
            <polygon fill="#FFED00" points="13.9892748 23.2374768 23.7492339 28.6178107 9.0395812 39.6103896"></polygon>
            <polygon fill="#EF7F1A" points="1.78932584 62.9638219 7.80796732 43.3441558 24.2139939 54.8237477"></polygon>
            <polygon fill="#E31E24" points="63.5094485 3.57142857 70.8991318 27.2959184 58.5597549 41.0018553"></polygon>
            <polygon fill="#E31E24" points="61.5109806 45.2922078 80.2408069 14.3089054 79.706333 54.916512"></polygon>
            <polygon fill="#E31E24" points="60.7673647 47.6576995 80.1478549 57.4211503 88.1649642 82.1428571"></polygon>
            <polygon fill="#E31E24" points="81.7512769 58.093692 89.4430541 62.2680891 89.0944841 81.5630798"></polygon>
            <polygon fill="#E31E24" points="81.2632788 34.577922 89.2339122 59.6474954 81.0076609 55.3339517"></polygon>
            <polygon fill="#E31E24" points="64.9037283 4.61502783 75.5002554 19.8051948 71.6659857 25.974026"></polygon>
            <polygon fill="#E31E24" points="81.4956589 28.2931354 90.0937181 40.6539889 89.7451481 57.8153989 81.3794689 31.6094619"></polygon>
            <polygon fill="#0062AC" points="29.9073034 55.8441558 53.9353933 47.5185529 48.1956077 64.6103896"></polygon>
            <polygon fill="#0062AC" points="50.4032175 65.9554731 57.258427 48.0287569 85.1905005 82.6530612"></polygon>
            <polygon fill="#0062AC" points="46.6618999 68.1818182 68.784474 75.9276438 44.2219101 83.3024118"></polygon>
            <polygon fill="#0062AC" points="21.1930541 82.583488 28.2109295 57.4907236 47.0104698 66.2105751 45.314096 66.8135436 41.3868743 83.4879406"></polygon>
            <polygon fill="#FFED00" points="2.53294178 65.445269 25.0970377 57.5371057 18.9157303 81.3311689"></polygon>
            <polygon fill="#0062AC" points="43.3388662 84.8330241 83.3314607 86.4332097 38.5053626 98.2142857"></polygon>
            <polygon fill="#0062AC" points="22.1922881 84.32282 40.8524005 84.8562152 36.3442288 97.7040816"></polygon>
        </g>
    </g>
</svg>