<?xml version="1.0" encoding="UTF-8"?>
<svg width="100px" height="100px" viewBox="0 0 100 100" version="1.1" xmlns="http://www.w3.org/2000/svg" xmlns:xlink="http://www.w3.org/1999/xlink">
    <title>axis_1_2</title>
    <g id="axis_1_2" stroke="none" stroke-width="1" fill="none" fill-rule="evenodd">
        <g fill-rule="nonzero" id="Path">
            <polygon fill="#000000" points="25.2525253 22.8755102 63.030303 0.157142858 99.8653199 42.3387755 83.1874299 85.1265306 40.9876543 98.3040816 0.157126824 60.0734694"></polygon>
            <polygon fill="#FFFFFF" points="62.1099888 4.66938775 61.6835017 39.532653 42.2446689 38.6346938"></polygon>
            <polygon fill="#696969" points="64.1526375 4.60204082 80.8978676 40.2734694 63.7485971 39.7122449"></polygon>
            <polygon fill="#FFFFFF" points="66.5544332 5.65714286 97.5308642 41.0142857 82.6262626 40.3632654"></polygon>
            <polygon fill="#696969" points="43.32211 41.4857143 61.6386083 42.0918368 61.5263748 60.4775511"></polygon>
            <polygon fill="#FFFFFF" points="63.9057239 42.2489796 82.0426487 42.7428571 90.4601572 60.9714286 63.5914703 61.7122449"></polygon>
            <polygon fill="#696969" points="83.7710437 42.8326531 98.0246913 43.1693877 91.7620651 59.8040816"></polygon>
            <polygon fill="#696969" points="90.4601572 63.3510204 82.7833895 82.6346939 65.2300786 64.2714285"></polygon>
            <polygon fill="#EF7F1A" points="60.1346801 3.43469388 40.6734007 36.2326531 42.5813693 20.0020408"></polygon>
            <polygon fill="#696969" points="59.2143659 3.03061224 42.8282828 18.6102041 43.6363636 12.5938776"></polygon>
            <polygon fill="#696969" points="40.3367003 22.3142857 38.2940516 38.7244898 22.4691358 39.2183673"></polygon>
            <polygon fill="#EF7F1A" points="14.9719416 39.3755102 41.5937149 14.1428571 40.7631875 20.4959184 21.3916947 39.0387755"></polygon>
            <polygon fill="#696969" points="25.6790123 23.1448979 39.7755331 14.8163266 16.2065095 37.2204081"></polygon>
            <polygon fill="#EF7F1A" points="3.2996633 57.7163265 20.7856341 40.9020408 35.5780022 41.0142857"></polygon>
            <polygon fill="#696969" points="13.7373737 40.8571428 19.4163861 40.9469387 3.43434343 56.5265307"></polygon>
            <polygon fill="#009846" points="38.1144781 42.5857143 38.6083053 61.2183673 4.7362514 59.5571429"></polygon>
            <polygon fill="#696969" points="41.010101 43.7306123 59.3041526 62.2959184 41.2570145 61.622449"></polygon>
            <polygon fill="#696969" points="38.7878788 63.1040817 39.1021324 79.6714286 5.23007857 61.7122449"></polygon>
            <polygon fill="#009846" points="41.2570145 63.5979592 60.4489337 64.5183674 59.3041526 90.4693878 41.7508417 81.1530612"></polygon>
            <polygon fill="#696969" points="63.0976431 66.2469388 80.8080808 84.3632653 61.8630752 90.132653"></polygon>
            <polygon fill="#009846" points="39.4388327 81.8265306 39.6857464 95.4979591 6.06060606 63.844898"></polygon>
            <polygon fill="#696969" points="41.6610549 82.8816326 57.8900112 91.4571428 42.1548821 96.5755102"></polygon>
        </g>
    </g>
</svg>