<?xml version="1.0" encoding="UTF-8"?>
<svg width="100px" height="100px" viewBox="0 0 100 100" version="1.1" xmlns="http://www.w3.org/2000/svg" xmlns:xlink="http://www.w3.org/1999/xlink">
    <title>axis_6</title>
    <g id="axis_6" stroke="none" stroke-width="1" fill="none" fill-rule="evenodd">
        <g fill-rule="nonzero" id="Path">
            <polygon fill="#000000" points="8.56968641 18.4703833 49.7404181 8.77700348 60.5609756 0.0209059233 57.9477352 6.90069686 95.9494774 26.7212544 89.8205575 78.8972125 41.8867596 99.8763066 11.3432056 69.2891986 10.1829268 48.5574913 0.00174216028 36.7421603 9.61672474 39.5087108"></polygon>
            <polygon fill="#0062AC" points="49.587108 29.7456446 67.8170732 34.4216028 44.8327526 41.4547038"></polygon>
            <polygon fill="#0062AC" points="13.2055749 20.2770035 47.033101 29 41.6898955 41.2979094"></polygon>
            <polygon fill="#696969" points="76.0679443 17.2909408 93.5905923 26.6027875 72.3362369 33.1254355"></polygon>
            <polygon fill="#0062AC" points="54.8118467 17.174216 73.7108014 16.7804878 69.4285714 33.4006969 50.1759582 28.3710801"></polygon>
            <polygon fill="#696969" points="58.5836237 2.67595819 48.054007 27.7421603 43.1045296 27.369338 31.238676 24.4808362"></polygon>
            <polygon fill="#0062AC" points="58.5836237 8.21602787 72.8850174 15.6811847 55.2839721 16.2700348"></polygon>
            <polygon fill="#0062AC" points="47.9372822 9.90418118 39.4111498 16.8205575 14.9337979 17.7229965"></polygon>
            <polygon fill="#E31E24" points="10.3362369 21.5348432 38.5853659 42.554007 23.2247387 43.4982578 18.7055749 42.1219512"></polygon>
            <polygon fill="#696969" points="3.6184669 38.9790941 38.4686411 49.4303136 29.9825784 69.6637631"></polygon>
            <polygon fill="#E31E24" points="41.0226481 49.3519164 40.7857143 95.9094077 31.238676 72.1393728"></polygon>
            <polygon fill="#E31E24" points="9.59059233 22.9878049 17.174216 41.7299652 10.4947735 39.7264808"></polygon>
            <polygon fill="#E31E24" points="13.7560976 52.6515679 29.3536585 71.0783972 25.3066202 81.0574913"></polygon>
            <polygon fill="#E31E24" points="30.3344948 73.9860627 39.6864111 96.2630662 26.5627178 83.0609756"></polygon>
            <polygon fill="#E31E24" points="11.0052265 49.4686411 23.7351916 80.3902439 12.1045296 69.0348432"></polygon>
            <polygon fill="#FFED00" points="43.8118467 46.5226481 59.4477352 58.0348432 43.261324 95.0052265"></polygon>
            <polygon fill="#FFED00" points="46.0505226 44.2038328 69.1132404 36.8972125 60.7839721 55.5191638"></polygon>
            <polygon fill="#696969" points="61.1376307 59.174216 74.5749129 69.271777 44.7926829 95.9878049"></polygon>
            <polygon fill="#FFED00" points="70.9599303 37.0923345 90.8414634 54.7334495 76.5400697 67.5418118 62.238676 56.5418118"></polygon>
            <polygon fill="#696969" points="94.3763066 28.8432056 73.4355401 35.4041812 91.7439024 52.4947735"></polygon>
            <polygon fill="#FFED00" points="75.8327526 70.2142857 46.8763066 96.3414634 87.4616725 78.7404181"></polygon>
            <polygon fill="#FFED00" points="91.0365854 56.8170732 77.9930314 68.5243902 88.8763066 76.8536585"></polygon>
        </g>
    </g>
</svg>