<?xml version="1.0" encoding="UTF-8"?>
<svg width="100px" height="100px" viewBox="0 0 100 100" version="1.1" xmlns="http://www.w3.org/2000/svg" xmlns:xlink="http://www.w3.org/1999/xlink">
    <title>axis_3_1</title>
    <g id="axis_3_1" stroke="none" stroke-width="1" fill="none" fill-rule="evenodd">
        <g fill-rule="nonzero" id="Path">
            <polygon fill="#000000" points="41.4444444 0.259259259 60.7407407 13.8425926 61.3981481 1.39814815 69.4166667 19.8703704 75.2777778 23.9351852 85.5740741 41.8240741 98.5185185 42.5555556 90.8148148 49.5833333 93.8518519 60.2407407 56.7314815 99.0833333 22.0555556 73.0555556 13.1296296 58.7777778 2.74074074 56.537037 8.40740741 51.1574074 0.240740741 38.2037037 38.0092593 6.06481481"></polygon>
            <polygon fill="#696969" points="36.9074074 8.34259259 27.6388889 25.212963 5.7962963 34.9074074"></polygon>
            <polygon fill="#696969" points="40.0277778 5.0462963 38.1111111 38.7962963 21.5925926 38.0740741"></polygon>
            <polygon fill="#696969" points="42.1203704 11.9907407 58.9907407 21.3240741 59.0555556 39.8148148 40.7407407 39.1574074"></polygon>
            <polygon fill="#696969" points="44.6296296 3.31481481 59.1111111 13.4814815 59.4074074 19.4722222"></polygon>
            <polygon fill="#EF7F1A" points="62.287037 5.7037037 77.3611111 40.4074074 61.5648148 39.9907407"></polygon>
            <polygon fill="#696969" points="73.4166667 28.8611111 84.212963 40.7407407 78.5 40.4074074"></polygon>
            <polygon fill="#009846" points="3.22222222 41.787037 12.8611111 52.0185185 11.2407407 54.6851852"></polygon>
            <polygon fill="#696969" points="20.3981481 40.2314815 38.0462963 41.1296296 37.1481481 60.3425926 11.1203704 56.9259259"></polygon>
            <polygon fill="#FFED00" points="40.5648148 40.9537037 58.2777778 41.4907407 39.3611111 59.3796296"></polygon>
            <polygon fill="#EF7F1A" points="60.0092593 43.8796296 58.9907407 60.9351852 41.3981481 61.712963"></polygon>
            <polygon fill="#696969" points="61.75 41.787037 94.1203704 42.9814815 61.8611111 61.2962963"></polygon>
            <polygon fill="#696969" points="95.5555556 44.6574074 78.1388889 60.3981481 64.2592593 62.7962963"></polygon>
            <polygon fill="#EF7F1A" points="79.8796296 59.7407407 89.6944444 50.7037037 92.2592593 59.2592593"></polygon>
            <polygon fill="#009846" points="14.6481481 59.9166667 35.1759259 82.1759259 22.6666667 72.7222222"></polygon>
            <polygon fill="#009846" points="14.8333333 58.962963 19.9166667 59.9166667 37.0925926 78.5925926 37.2685185 83.5555556"></polygon>
            <polygon fill="#009846" points="21.3518519 60.1018519 36.4907407 63.9907407 36.9722222 77.212963"></polygon>
            <polygon fill="#009846" points="38.8888889 80.2037037 53.3055556 95.8240741 39.1851852 85.1111111"></polygon>
            <polygon fill="#009846" points="38.8888889 66.8611111 54.5092593 96.1851852 39.0648148 79.25"></polygon>
            <polygon fill="#EF7F1A" points="40.5 64.3518519 58.5740741 63.4537037 56.1759259 94.75"></polygon>
            <polygon fill="#696969" points="61.2685185 64.9444444 76.2222222 62.3703704 58.8703704 78.287037"></polygon>
            <polygon fill="#EF7F1A" points="78.1388889 62.25 91.3055556 61.4722222 60.1851852 93.9722222"></polygon>
            <polygon fill="#696969" points="69.8240741 20.787037 74.8425926 24.1666667 83.4074074 38.7407407 72.5185185 26.712963"></polygon>
        </g>
    </g>
</svg>