<?xml version="1.0" encoding="UTF-8"?>
<svg width="100px" height="100px" viewBox="0 0 100 100" version="1.1" xmlns="http://www.w3.org/2000/svg" xmlns:xlink="http://www.w3.org/1999/xlink">
    <title>axis_4_3</title>
    <g id="axis_4_3" stroke="none" stroke-width="1" fill="none" fill-rule="evenodd">
        <g fill-rule="nonzero" id="Path">
            <polygon fill="#000000" points="40.4421053 0.536842105 41.1052632 4.13684211 54.7894737 8.48421053 59.4210526 3.89473684 99.3684211 40.5157895 89.4842105 40.8631579 95.5894737 59.6526316 58.9789474 99.3578947 23.0631579 75.7684211 12.7894737 59.3789474 3.37894737 58.7789474 8.97894737 53.0842105 0.315789474 39.2210526 13.4631579 39.3263158 23.5578947 23.9473684 30.2736842 19.9052632"></polygon>
            <polygon fill="#696969" points="41.9157895 5.41052632 57.6736842 10.9578947 49.8210526 15.0315789 41.8631579 10.8105263"></polygon>
            <polygon fill="#696969" points="23.9578947 24.2421053 30.1263158 20.5473684 27.3368421 25.7157895 15.5368421 37.2315789"></polygon>
            <polygon fill="#696969" points="60.5157895 6.48421053 93.8736842 37.1157895 61.2105263 20.3789474"></polygon>
            <polygon fill="#696969" points="26.3473684 27.6421053 20.5368421 38.7368421 14.6 39.2"></polygon>
            <polygon fill="#696969" points="39.4210526 4.62105263 38.4315789 37.6315789 22.0421053 38.5052632"></polygon>
            <polygon fill="#EF7F1A" points="41.8 12.0631579 58.9473684 20.7263158 59.5263158 37.9263158 41.1052632 37.1684211"></polygon>
            <polygon fill="#696969" points="61.3263158 21.9473684 95.1578947 39.2631579 62.0842105 38.2210526"></polygon>
            <polygon fill="#009846" points="3.21052632 42.6947368 13.1473684 52.8 11.4631579 56"></polygon>
            <polygon fill="#696969" points="20.8210526 40.5368421 38.4315789 40.0736842 38.0210526 58.6210526 11.8736842 57.8"></polygon>
            <polygon fill="#FFED00" points="40.7578947 39.4421053 58.6 39.4947368 40.3473684 57.2210526"></polygon>
            <polygon fill="#EF7F1A" points="42.6736842 59.2 60.6947368 41.5263158 60 59.2"></polygon>
            <polygon fill="#696969" points="62.4315789 40.3052632 87.8315789 41.6421053 78.8842105 58.9684211 61.8 59.0842105"></polygon>
            <polygon fill="#EF7F1A" points="88.8842105 42.9789474 93.8210526 58.6736842 80.5157895 58.9052632"></polygon>
            <polygon fill="#009846" points="15.2421053 61.7578947 36.7473684 84.0736842 23.3789474 75.3578947"></polygon>
            <polygon fill="#009846" points="14.6 60.0736842 20.7052632 60.5894737 38.6631579 78.7789474 38.8947368 85.1789474"></polygon>
            <polygon fill="#009846" points="21.9894737 60.5894737 37.7368421 61.9894737 38.4947368 77.6210526"></polygon>
            <polygon fill="#009846" points="40.4631579 80.8210526 56.1052632 96.8631579 40.6421053 86.7473684"></polygon>
            <polygon fill="#009846" points="39.8315789 64.7789474 56.9684211 96.6210526 40.5789474 79.8315789"></polygon>
            <polygon fill="#EF7F1A" points="41.4 62.0421053 59.7052632 61.7578947 58.3684211 95"></polygon>
            <polygon fill="#EF7F1A" points="61.6842105 61.4631579 77.7789474 61.4105263 60.2842105 95.1684211"></polygon>
            <polygon fill="#EF7F1A" points="79.4631579 61.2315789 92.9473684 61 62.4947368 94.3578947"></polygon>
            <path d="M66.1789474,42.5578947 L49.4315789,26.3578947 L48.5157895,27.3052632 L65.2631579,43.5052632 C64.4421053,44.2315789 63.4421053,44.8 62.2842105,45.2 L71.6631579,48.7789474 L67.7789474,39.5157895 C67.4105263,40.6947368 66.8842105,41.7052632 66.1789474,42.5578947 L66.1789474,42.5578947 Z" fill="#E31E24"></path>
        </g>
    </g>
</svg>