<?xml version="1.0" encoding="UTF-8"?>
<svg width="210px" height="97px" viewBox="0 0 210 97" version="1.1" xmlns="http://www.w3.org/2000/svg" xmlns:xlink="http://www.w3.org/1999/xlink">
    <title>pentacle_4_7</title>
    <g id="pentacle" stroke="none" stroke-width="1" fill="none" fill-rule="evenodd">
        <g id="pentacle_4_7" fill-rule="nonzero">
            <path d="M41.1,0.09 L96.86,6.53 C97.6193599,6.66391581 98.3338671,6.98338295 98.94,7.46 C99.4619536,7.92121064 99.8286746,8.53241242 99.99,9.21 L99.14,70.89 C99.12,72.03 98.99,72.8 98.74,73.19 C98.3827785,73.6889487 97.9350153,74.1163591 97.42,74.45 L67.99,95.17 C67.1557006,95.9016148 66.1879901,96.4652637 65.14,96.83 C64.1289125,97.0538893 63.0810875,97.0538893 62.07,96.83 L5.58,83.79 C4.97817573,83.6165914 4.42854338,83.2971176 3.98,82.86 C3.63306632,82.4222685 3.43042518,81.8877151 3.4,81.33 L0.1,17.17 C-0.0258344786,16.267888 0.13139702,15.3489573 0.55,14.54 C0.939720586,13.8339376 1.60066349,13.317463 2.38,13.11 L41.1,0.09 Z" id="Path" fill="#000000"></path>
            <path d="M97.35,26.04 L91.49,46.34 L97.09,59.51 C98.5847116,53.7781754 99.363973,47.8833316 99.41,41.96 C99.41,36.37 98.72,31.06 97.35,26.04 L97.35,26.04 Z" id="Path" fill="#696969"></path>
            <polygon id="Path" fill="#696969" points="90.47 49.63 87.44 60.03 95.34 60.4"></polygon>
            <path d="M86.47,63.38 L80.1,85.24 C83.51,83.79 86.54,81.29 89.17,77.74 C91.81,74.19 94.1,69.44 96.05,63.49 L86.48,63.38 L86.47,63.38 Z" id="Path" fill="#696969"></path>
            <polygon id="Path" fill="#696969" points="79.41 63.42 84.65 63.42 79.56 81.82"></polygon>
            <path d="M65.94,63.2 L77.4,63.4 L78.02,85.6 C74.25,84.24 71.49,81.97 69.76,78.79 C68.02,75.6 66.76,70.41 65.94,63.19 L65.94,63.2 Z" id="Path" fill="#696969"></path>
            <polygon id="Path" fill="#696969" points="87.19 36.6 95.81 26.32 90.47 43.97"></polygon>
            <polygon id="Path" fill="#696969" points="79.26 46.42 85.55 38.92 89.46 47.2 85.55 59.9 79.26 59.9"></polygon>
            <polygon id="Path" fill="#696969" points="68.2 59.95 77.33 48.76 77.51 59.94"></polygon>
            <path d="M79.88,19.14 L86.19,34.1 L96.35,22.73 C94.01,18.58 91.57,16.23 89.01,15.66 C86.45,15.1 83.41,16.26 79.88,19.14 Z" id="Path" fill="#696969"></path>
            <polygon id="Path" fill="#696969" points="79.29 23.45 79.29 42.82 84.85 36.05"></polygon>
            <path d="M66.65,58.11 C66.6130574,51.6792856 67.5952335,45.2833279 69.56,39.16 C71.6,32.51 74.26,26.83 77.51,22.1 L77.51,44.83 L66.65,58.11 Z" id="Path" fill="#696969"></path>
            <path d="M98.6,60.15 L98.6,72.35 L91.75,77.4 C93.45,74.41 94.85,71.53 95.95,68.78 C97.0594738,65.9776969 97.94557,63.0920326 98.6,60.15 L98.6,60.15 Z" id="Path" fill="#696969"></path>
            <path d="M66.75,78.02 L67.15,93.83 L75.55,88.1 C73.6573393,87.418176 71.9634061,86.277434 70.62,84.78 C69.18,83.21 67.89,80.96 66.75,78.02 L66.75,78.02 Z" id="Path" fill="#696969"></path>
            <path d="M91.91,13.7 L99.23,10.5 L99.23,25.5 C98.2491822,22.7462943 97.0243135,20.085719 95.57,17.55 C94.6741953,15.9933707 93.4193399,14.6733725 91.91,13.7 L91.91,13.7 Z" id="Path" fill="#696969"></path>
            <path d="M66.34,24.6 L75.45,20.81 C73.3682971,23.9119793 71.590093,27.2071825 70.14,30.65 C68.5946296,34.3571982 67.4644126,38.224083 66.77,42.18 L66.34,24.6 Z" id="Path" fill="#696969"></path>
            <path d="M6.26,31.94 L17.99,52.34 L7.15,68.01 C4.25,61.31 2.72,55.04 2.59,49.21 C2.48121324,43.2456548 3.73648268,37.3352853 6.26,31.93 L6.26,31.94 Z" id="Path" fill="#696969"></path>
            <polygon id="Path" fill="#696969" points="19.61 54.79 25.92 66.02 10.39 68.44"></polygon>
            <path d="M9.55,71.48 L27.34,69.08 L39.24,90.08 C32.7,89.58 27,87.8 22.2,84.71 C17.38,81.63 13.17,77.22 9.56,71.48 L9.55,71.48 Z" id="Path" fill="#696969"></path>
            <polygon id="Path" fill="#696969" points="29.94 68.69 40.04 67.34 40.04 86.55"></polygon>
            <path d="M42.64,67 L62.72,64.03 C61.64,71.2 59.48,76.87 56.26,81.03 C53.04,85.19 48.5,87.99 42.64,89.43 L42.64,67 Z" id="Path" fill="#FFFFFF"></path>
            <polygon id="Path" fill="#696969" points="9.6 33.07 25.19 41.57 19.48 50.12"></polygon>
            <polygon id="Path" fill="#696969" points="28.03 43.22 39.97 49.87 39.71 64.04 28.39 65.67 21.39 53.25"></polygon>
            <polygon id="Path" fill="#FFFFFF" points="42.65 51.13 59.45 61.14 42.59 63.87"></polygon>
            <path d="M38.54,22.6 L26.94,39.05 L8.14,29.01 C12.21,24.28 16.86,21.36 22.08,20.26 C27.3,19.16 32.78,19.94 38.54,22.6 Z" id="Path" fill="#696969"></path>
            <polygon id="Path" fill="#696969" points="39.7 26.14 39.94 46.64 29.57 40.93"></polygon>
            <path d="M42.43,24.7 L42.67,48.07 L62.77,59.66 C62.48,53.39 60.77,47.09 57.63,40.76 C51.63,28.7 42.43,24.69 42.43,24.69 L42.43,24.7 Z" id="Path" fill="#FFFFFF"></path>
            <path d="M3.69,66.66 L4.66,81.79 L17.91,84.89 C14.7787212,82.2544969 11.8873908,79.3464343 9.27,76.2 C6.96835356,73.2997827 5.08964757,70.0878015 3.69,66.66 L3.69,66.66 Z" id="Path" fill="#696969"></path>
            <path d="M47.31,91.3 C50.6325915,89.7252784 53.7136129,87.6847332 56.46,85.24 C58.7226549,83.1492293 60.6159469,80.6913305 62.06,77.97 L62.06,94.52 L47.31,91.3 Z" id="Path" fill="#696969"></path>
            <path d="M1.29,17.4 L14.81,18.86 C12.0746189,20.3566267 9.59106927,22.2732791 7.45,24.54 C5.22996129,27.0528473 3.44539083,29.9189757 2.17,33.02 L1.3,17.4 L1.29,17.4 Z" id="Path" fill="#696969"></path>
            <path d="M45.57,22.92 L60.99,24.89 L61.27,41.94 C59.4270657,38.2846961 57.2263043,34.821093 54.7,31.6 C52.0507417,28.3249809 48.9847717,25.4102923 45.58,22.93 L45.57,22.92 Z" id="Path" fill="#696969"></path>
            <path d="M41.36,2.86 L54.6,6.12 L74.1,4.21 C68.7496268,3.23094717 63.3355564,2.63940985 57.9,2.44 C52.3832029,2.25501688 46.8602987,2.39525991 41.36,2.86 L41.36,2.86 Z" id="Path" fill="#D0021B"></path>
            <polygon id="Path" fill="#D0021B" points="40.14 3.53 40.99 7.46 51.74 6.41"></polygon>
            <path d="M16.37,10.13 C17.14,8.68 19.33,7.38 22.95,6.23 C27.6593896,4.83873137 32.4614037,3.78275611 37.32,3.07 L37.97,7.9 L16.37,10.13 L16.37,10.13 Z" id="Path" fill="#D0021B"></path>
            <polygon id="Path" fill="#696969" points="38.2 8.82 20.69 10.6 38.56 11.38"></polygon>
            <path d="M38.76,12.18 L39.52,17.74 C32.63,17.32 27.33,16.6 23.62,15.57 C19.92,14.55 17.54,13.1 16.51,11.21 L38.76,12.18 L38.76,12.18 Z" id="Path" fill="#696969"></path>
            <polygon id="Path" fill="#696969" points="57.16 6.74 64.79 8.46 73.86 4.87"></polygon>
            <polygon id="Path" fill="#696969" points="41.83 11.42 41.23 8.45 53.87 6.95 63.14 9.03 55.74 12.01 41.83 11.41"></polygon>
            <polygon id="Path" fill="#696969" points="42.01 12.48 53.86 12.86 42.88 17.1"></polygon>
            <path d="M77.64,4.77 L66.97,9.01 L82.91,12.91 C85.55,11.14 86.46,9.61 85.63,8.34 C84.81,7.06 82.14,5.87 77.64,4.77 Z" id="Path" fill="#696969"></path>
            <polygon id="Path" fill="#696969" points="65.38 9.66 59.09 12.12 78.67 12.97"></polygon>
            <path d="M57.12,13.03 L80.68,13.83 C77.28,15.15 72.45,16.17 66.16,16.89 C58.9127294,17.648653 51.6255403,17.9592436 44.34,17.82 L57.12,13.02 L57.12,13.03 Z" id="Path" fill="#696969"></path>
            <path d="M41.15,0.31 L33.5,2.88 C37.04,2.43 40.37,2.12 43.5,1.97 C46.62,1.81 49.98,1.75 53.56,1.77 L41.15,0.3 L41.15,0.31 Z" id="Path" fill="#696969"></path>
            <path d="M13.86,9.52 L3.52,13.02 L17.05,14.64 C15.02,13.6 13.79,12.74 13.38,12.08 C12.96,11.4 13.12,10.55 13.86,9.52 Z" id="Path" fill="#696969"></path>
            <path d="M82.47,5.11 L96.27,6.74 L88.68,10.14 C88.83,9.16 88.49,8.26 87.65,7.46 C86.82,6.65 85.09,5.86 82.47,5.11 Z" id="Path" fill="#696969"></path>
            <path d="M47.7,18.77 C53.12,18.67 57.69,18.51 61.4,18.27 C65.12,18.01 68.56,17.65 71.72,17.17 L62.92,20.93 L47.7,18.77 Z" id="Path" fill="#696969"></path>
            <path d="M151.1,0.09 L206.86,6.53 C207.61936,6.66391581 208.333867,6.98338295 208.94,7.46 C209.461954,7.92121064 209.828675,8.53241242 209.99,9.21 L209.14,70.89 C209.12,72.03 208.99,72.8 208.74,73.19 C208.382779,73.6889487 207.935015,74.1163591 207.42,74.45 L177.99,95.17 C177.155701,95.9016148 176.18799,96.4652637 175.14,96.83 C174.128913,97.0538893 173.081087,97.0538893 172.07,96.83 L115.58,83.79 C114.978176,83.6165914 114.428543,83.2971176 113.98,82.86 C113.633066,82.4222685 113.430425,81.8877151 113.4,81.33 L110.1,17.17 C109.974166,16.267888 110.131397,15.3489573 110.55,14.54 C110.939721,13.8339376 111.600663,13.317463 112.38,13.11 L151.1,0.09 Z" id="Path" fill="#000000"></path>
            <path d="M207.35,26.04 L201.49,46.34 L207.09,59.51 C208.584712,53.7781754 209.363973,47.8833316 209.41,41.96 C209.41,36.37 208.72,31.06 207.35,26.04 Z" id="Path" fill="#696969"></path>
            <polygon id="Path" fill="#696969" points="200.47 49.63 197.44 60.03 205.34 60.4"></polygon>
            <path d="M196.47,63.38 L190.09,85.24 C193.5,83.79 196.53,81.29 199.16,77.74 C201.8,74.19 204.09,69.44 206.04,63.49 L196.47,63.38 Z" id="Path" fill="#696969"></path>
            <polygon id="Path" fill="#696969" points="189.41 63.42 194.65 63.42 189.56 81.82"></polygon>
            <path d="M175.94,63.2 L187.4,63.4 L188.02,85.6 C184.25,84.24 181.49,81.97 179.76,78.79 C178.02,75.6 176.76,70.41 175.94,63.19 L175.94,63.2 Z" id="Path" fill="#696969"></path>
            <polygon id="Path" fill="#696969" points="197.19 36.6 205.81 26.32 200.47 43.97"></polygon>
            <polygon id="Path" fill="#696969" points="189.26 46.42 195.55 38.92 199.46 47.2 195.55 59.9 189.26 59.9"></polygon>
            <polygon id="Path" fill="#696969" points="178.2 59.95 187.33 48.76 187.51 59.94"></polygon>
            <path d="M189.88,19.14 L196.19,34.1 L206.35,22.73 C204.01,18.58 201.57,16.23 199.01,15.66 C196.45,15.1 193.41,16.26 189.88,19.14 Z" id="Path" fill="#696969"></path>
            <polygon id="Path" fill="#696969" points="189.29 23.45 189.29 42.82 194.85 36.05"></polygon>
            <path d="M176.65,58.11 C176.613057,51.6792856 177.595234,45.2833279 179.56,39.16 C181.6,32.51 184.26,26.83 187.51,22.1 L187.51,44.83 L176.65,58.11 L176.65,58.11 Z" id="Path" fill="#696969"></path>
            <path d="M208.6,60.15 L208.6,72.35 L201.75,77.4 C203.45,74.41 204.85,71.53 205.95,68.78 C207.059474,65.9776969 207.94557,63.0920326 208.6,60.15 L208.6,60.15 Z" id="Path" fill="#696969"></path>
            <path d="M176.75,78.02 L177.15,93.83 L185.55,88.1 C183.657339,87.418176 181.963406,86.277434 180.62,84.78 C179.18,83.21 177.89,80.96 176.75,78.02 L176.75,78.02 Z" id="Path" fill="#696969"></path>
            <path d="M201.91,13.7 L209.23,10.5 L209.23,25.5 C208.249182,22.7462943 207.024314,20.085719 205.57,17.55 C204.674195,15.9933707 203.41934,14.6733725 201.91,13.7 L201.91,13.7 Z" id="Path" fill="#696969"></path>
            <path d="M176.34,24.6 L185.45,20.81 C183.368297,23.9119793 181.590093,27.2071825 180.14,30.65 C178.59463,34.3571982 177.464413,38.224083 176.77,42.18 L176.34,24.61 L176.34,24.6 Z" id="Path" fill="#696969"></path>
            <path d="M116.26,31.94 L127.99,52.34 L117.15,68.02 C114.25,61.32 112.72,55.05 112.59,49.22 C112.481213,43.2556548 113.736483,37.3452853 116.26,31.94 L116.26,31.94 Z" id="Path" fill="#696969"></path>
            <polygon id="Path" fill="#696969" points="129.61 54.79 135.92 66.02 120.39 68.44"></polygon>
            <path d="M119.55,71.48 L137.34,69.08 L149.24,90.08 C142.69,89.58 137,87.79 132.19,84.71 C127.37,81.63 123.16,77.22 119.55,71.48 L119.55,71.48 Z" id="Path" fill="#696969"></path>
            <polygon id="Path" fill="#696969" points="139.94 68.69 150.04 67.34 150.04 86.55"></polygon>
            <path d="M152.64,67 L172.72,64.03 C171.64,71.2 169.48,76.87 166.26,81.03 C163.04,85.19 158.5,87.99 152.64,89.43 L152.64,67 L152.64,67 Z" id="Path" fill="#FFFFFF"></path>
            <polygon id="Path" fill="#696969" points="119.6 33.07 135.19 41.57 129.48 50.12"></polygon>
            <polygon id="Path" fill="#696969" points="138.03 43.22 149.97 49.87 149.71 64.04 138.39 65.67 131.39 53.25"></polygon>
            <polygon id="Path" fill="#FFFFFF" points="152.65 51.13 169.45 61.14 152.59 63.87"></polygon>
            <path d="M148.54,22.6 L136.94,39.05 L118.14,29.01 C122.21,24.28 126.86,21.36 132.08,20.26 C137.3,19.16 142.78,19.94 148.54,22.6 L148.54,22.6 Z" id="Path" fill="#696969"></path>
            <polygon id="Path" fill="#696969" points="149.7 26.14 149.94 46.64 139.57 40.93"></polygon>
            <path d="M152.43,24.7 L152.67,48.07 L172.77,59.66 C172.48,53.39 170.77,47.09 167.63,40.76 C161.63,28.7 152.43,24.69 152.43,24.69 L152.43,24.7 Z" id="Path" fill="#FFFFFF"></path>
            <path d="M113.69,66.66 L114.66,81.79 L127.91,84.89 C124.778721,82.2544969 121.887391,79.3464343 119.27,76.2 C116.968354,73.2997827 115.089648,70.0878015 113.69,66.66 L113.69,66.66 Z" id="Path" fill="#696969"></path>
            <path d="M157.31,91.3 C160.632592,89.7252784 163.713613,87.6847332 166.46,85.24 C168.722655,83.1492293 170.615947,80.6913305 172.06,77.97 L172.06,94.52 L157.31,91.31 L157.31,91.3 Z" id="Path" fill="#696969"></path>
            <path d="M111.29,17.4 L124.81,18.86 C122.074619,20.3566267 119.591069,22.2732791 117.45,24.54 C115.229961,27.0528473 113.445391,29.9189757 112.17,33.02 L111.3,17.4 L111.29,17.4 Z" id="Path" fill="#696969"></path>
            <path d="M155.57,22.92 L170.99,24.89 L171.27,41.94 C169.42447,38.2808135 167.220335,34.8138222 164.69,31.59 C162.040742,28.3149809 158.974772,25.4002923 155.57,22.92 L155.57,22.92 Z" id="Path" fill="#696969"></path>
            <path d="M151.36,2.86 L164.61,6.12 L184.11,4.21 C178.756333,3.23046892 173.338903,2.63892971 167.9,2.44 C162.383203,2.25501688 156.860299,2.39525991 151.36,2.86 L151.36,2.86 Z" id="Path" fill="#696969"></path>
            <polygon id="Path" fill="#696969" points="150.14 3.53 150.99 7.46 161.74 6.41"></polygon>
            <path d="M126.37,10.13 C127.14,8.68 129.33,7.38 132.95,6.23 C137.65939,4.83873137 142.461404,3.78275611 147.32,3.07 L147.97,7.9 L126.37,10.13 L126.37,10.13 Z" id="Path" fill="#D0021B"></path>
            <polygon id="Path" fill="#D0021B" points="148.2 8.82 130.69 10.6 148.56 11.38"></polygon>
            <path d="M148.76,12.18 L149.52,17.74 C142.63,17.32 137.33,16.6 133.62,15.57 C129.92,14.55 127.54,13.1 126.51,11.21 L148.76,12.18 L148.76,12.18 Z" id="Path" fill="#D0021B"></path>
            <polygon id="Path" fill="#696969" points="167.16 6.74 174.79 8.46 183.86 4.87"></polygon>
            <polygon id="Path" fill="#696969" points="151.83 11.42 151.23 8.45 163.87 6.95 173.14 9.03 165.74 12.01 151.83 11.41"></polygon>
            <polygon id="Path" fill="#696969" points="152.01 12.48 163.86 12.86 152.88 17.1"></polygon>
            <path d="M187.64,4.77 L176.97,9.01 L192.91,12.91 C195.55,11.14 196.46,9.61 195.63,8.34 C194.81,7.06 192.14,5.87 187.64,4.77 Z" id="Path" fill="#696969"></path>
            <polygon id="Path" fill="#696969" points="175.38 9.66 169.09 12.12 188.67 12.97"></polygon>
            <path d="M167.12,13.03 L190.68,13.83 C187.28,15.15 182.45,16.17 176.16,16.89 C168.912729,17.648653 161.62554,17.9592436 154.34,17.82 L167.12,13.02 L167.12,13.03 Z" id="Path" fill="#696969"></path>
            <path d="M151.15,0.31 L143.51,2.88 C147.05,2.43 150.38,2.12 153.51,1.97 C156.63,1.81 159.99,1.75 163.57,1.77 L151.15,0.3 L151.15,0.31 Z" id="Path" fill="#696969"></path>
            <path d="M123.86,9.52 L113.52,13.02 L127.05,14.64 C125.02,13.6 123.79,12.74 123.38,12.08 C122.96,11.4 123.12,10.55 123.86,9.52 Z" id="Path" fill="#696969"></path>
            <path d="M192.47,5.11 L206.27,6.74 L198.68,10.14 C198.83,9.16 198.49,8.26 197.65,7.46 C196.82,6.65 195.09,5.86 192.47,5.11 Z" id="Path" fill="#696969"></path>
            <path d="M157.7,18.77 C163.12,18.67 167.69,18.51 171.4,18.27 C175.12,18.01 178.56,17.65 181.72,17.17 L172.92,20.93 L157.7,18.77 L157.7,18.77 Z" id="Path" fill="#696969"></path>
        </g>
    </g>
</svg>