<?xml version="1.0" encoding="UTF-8"?>
<svg width="208px" height="100px" viewBox="0 0 208 100" version="1.1" xmlns="http://www.w3.org/2000/svg" xmlns:xlink="http://www.w3.org/1999/xlink">
    <title>pentacle_1_8</title>
    <g id="pentacle" stroke="none" stroke-width="1" fill="none" fill-rule="evenodd">
        <g id="pentacle_1_8" fill-rule="nonzero">
            <path d="M0.59,20.38 C1.07843373,19.5680492 1.83547778,18.9525087 2.73,18.64 L40.17,1.1 C41.52,0.46 42.51,0.1 43.13,0.02 C43.75,-0.05 44.83,0.13 46.39,0.59 L93.48,12.89 C95.03,13.17 96.02,13.62 96.45,14.23 C96.88,14.83 97.02,16.03 96.85,17.8 L96.47,72.44 C96.52,73.81 96.42,74.67 96.17,75.02 C95.7484295,75.6739108 95.2052712,76.2408323 94.57,76.69 C71.48,91.07 59.42,98.22 58.7,98.66 C57.6,99.33 56.47,99.99 55.5,99.99 C54.87,99.99 53.66,99.69 51.9,99.06 L5.26,83.1 C4.43595585,82.8541672 3.72673181,82.3222492 3.26,81.6 C2.75334312,80.7797997 2.48659695,79.8340633 2.49,78.87 L0.1,23.38 C-0.0330908185,22.3536069 0.137249715,21.3107057 0.59,20.38 Z" id="Path" fill="#000000"></path>
            <polygon id="Path" fill="#D0021B" points="79.25 68.08 84.59 58.37 88.54 72.78"></polygon>
            <path d="M86.25,55.83 L95.8,39.2 C96.6767396,44.604675 96.6767396,50.115325 95.8,55.52 C94.7822686,61.1029006 92.928069,66.5003071 90.3,71.53 L86.26,55.83 L86.25,55.83 Z" id="Path" fill="#D0021B"></path>
            <path d="M67.57,88.35 L77.79,70.19 L88.31,75.22 C84.51,80.45 81.01,84.12 77.79,86.23 C74.8108029,88.2910666 71.1231899,89.0560118 67.57,88.35 Z" id="Path" fill="#D0021B"></path>
            <polygon id="Path" fill="#D0021B" points="70.6 67.02 76.33 69.73 67.55 85.3"></polygon>
            <path d="M57.89,61 L69.12,66.28 L65.68,87.76 C61.98,84.08 59.64,80.68 58.68,77.55 C57.72,74.42 57.46,68.9 57.88,61 L57.89,61 Z" id="Path" fill="#D0021B"></path>
            <polygon id="Path" fill="#D0021B" points="83.21 45.3 94.49 38.54 85.42 53.95"></polygon>
            <polygon id="Path" fill="#D0021B" points="73.46 51.13 81.4 46.4 84.01 56.59 77.55 67.25 71.16 64.11"></polygon>
            <polygon id="Path" fill="#D0021B" points="59.57 59.09 71.67 52.12 69.25 63.37"></polygon>
            <path d="M78.53,26.05 L82.5,42.6 L95.68,35.59 C93.91,30.76 91.65,27.59 88.9,26.05 C86.14,24.52 82.68,24.52 78.53,26.05 Z" id="Path" fill="#D0021B"></path>
            <polygon id="Path" fill="#D0021B" points="77.2 29.28 73.99 47.83 80.93 43.81"></polygon>
            <path d="M58.97,56.41 L72.09,48.81 L75.8,27.06 C70.66,31.91 66.88,36.42 64.45,40.6 C62.02,44.78 60.2,50.05 58.97,56.41 Z" id="Path" fill="#D0021B"></path>
            <path d="M87.52,79.7 C89.164198,77.2211903 90.6472593,74.6391939 91.96,71.97 C92.79,70.15 94.03,67.08 95.66,62.76 L95.66,74.3 L87.52,79.7 L87.52,79.7 Z" id="Path" fill="#D0021B"></path>
            <path d="M57.96,83.78 L58.56,96.8 L67.49,91.68 C65.7544163,91.2563126 64.1285686,90.4689524 62.72,89.37 C61.52,88.37 59.92,86.51 57.96,83.78 L57.96,83.78 Z" id="Path" fill="#D0021B"></path>
            <path d="M87.52,22.61 L96.12,18.17 L96.12,31.34 C94.82,28.75 93.53,26.82 92.24,25.54 C90.8993373,24.2305911 89.2882998,23.2305191 87.52,22.61 L87.52,22.61 Z" id="Path" fill="#D0021B"></path>
            <path d="M57.25,37.3 L66.57,33.34 C64.6813395,35.8664283 63.0404287,38.568908 61.67,41.41 C60.0300754,44.818895 58.6559861,48.3494017 57.56,51.97 L57.25,37.3 Z" id="Path" fill="#D0021B"></path>
            <path d="M1.88,45.81 L16.26,61.11 L11.91,78.13 C8.18252592,74.0210453 5.3976126,69.147447 3.75,63.85 C2.11,58.55 1.48,52.55 1.88,45.81 L1.88,45.81 Z" id="Path" fill="#009A0E"></path>
            <polygon id="Path" fill="#009A0E" points="18.38 63.54 25.91 71.96 14.4 77.99"></polygon>
            <path d="M14.46,81.15 L27.76,73.9 L42.17,90.1 C37.3559014,91.7195927 32.1440986,91.7195927 27.33,90.1 C22.32,88.48 18.03,85.5 14.46,81.14 L14.46,81.15 Z" id="Path" fill="#009A0E"></path>
            <polygon id="Path" fill="#009A0E" points="29.48 72.9 36.79 68.96 41.89 86.58"></polygon>
            <path d="M38.67,67.7 L52.61,60.36 C53.78,67.18 53.96,72.54 53.13,76.43 C52.31,80.32 49.5,84.53 44.69,89.09 L38.67,67.69 L38.67,67.7 Z" id="Path" fill="#009A0E"></path>
            <polygon id="Path" fill="#009A0E" points="4.72 45.3 19.01 49.54 16.82 58.45"></polygon>
            <polygon id="Path" fill="#009A0E" points="21.54 50.34 31.95 53.19 35.92 66.08 27.39 70.58 18.86 60.75"></polygon>
            <polygon id="Path" fill="#009A0E" points="34.51 54.02 37.9 65.07 49.75 58.71"></polygon>
            <path d="M2.44,42.27 C4.29,37.09 7.1,33.36 10.85,31.08 C14.61,28.81 19.03,28.09 24.14,28.93 L19.56,46.9 L2.44,42.27 Z" id="Path" fill="#009A0E"></path>
            <polygon id="Path" fill="#009A0E" points="21.87 47.71 25.7 32.29 31.32 50.53"></polygon>
            <path d="M27.47,29.9 L33.74,51.18 L51.26,56.4 C49.18,49.88 46.17,44.47 42.23,40.16 C38.107265,35.7158373 33.0721796,32.2158389 27.47,29.9 Z" id="Path" fill="#009A0E"></path>
            <polygon id="Path" fill="#009A0E" points="3.2 67.28 3.74 80.8 15.08 84.84 8.05 76.56"></polygon>
            <path d="M53.41,82.95 L53.9,97.79 L40.55,93.69 C44.42,92.34 47.07,91.07 48.5,89.87 C49.93,88.67 51.57,86.37 53.41,82.95 L53.41,82.95 Z" id="Path" fill="#009A0E"></path>
            <path d="M1.03,23.01 L1.68,37.85 C2.71831497,35.3885129 4.18427737,33.1303214 6.01,31.18 C8.07382207,29.061485 10.6095354,27.4612442 13.41,26.51 L1.03,23.01 L1.03,23.01 Z" id="Path" fill="#009A0E"></path>
            <polygon id="Path" fill="#009A0E" points="39.89 33.76 52.46 37.29 52.84 52.01 45.96 40.92"></polygon>
            <path d="M33.36,5.82 L49.13,10.4 L65.93,6.4 C60.8234274,4.92539093 55.5444254,4.13185941 50.23,4.04 C44.5568821,3.98167546 38.8960193,4.57896863 33.36,5.82 L33.36,5.82 Z" id="Path" fill="#FFFFFF"></path>
            <polygon id="Path" fill="#FFFFFF" points="32.93 7.12 37.11 13.74 46.45 11.26"></polygon>
            <path d="M29.8,6.9 C24.62,8.68 20.86,10.62 18.54,12.7 C16.22,14.8 15.51,16.93 16.41,19.12 L34.65,14.45 L29.81,6.9 L29.8,6.9 Z" id="Path" fill="#FFFFFF"></path>
            <polygon id="Path" fill="#FFFFFF" points="35.24 15.58 38.02 19.76 19.55 19.51"></polygon>
            <path d="M39.16,21.15 L44.74,29.12 C37.82,28.79 32.15,27.99 27.72,26.72 C23.29,25.45 19.78,23.47 17.2,20.79 L39.16,21.15 Z" id="Path" fill="#FFFFFF"></path>
            <polygon id="Path" fill="#FFFFFF" points="52.42 11.26 60.65 13.56 66.58 7.37"></polygon>
            <polygon id="Path" fill="#FFFFFF" points="48.97 11.95 59.49 14.92 54.91 19.64 41.67 19.64 38.46 14.92"></polygon>
            <polygon id="Path" fill="#FFFFFF" points="42.5 21.13 53.66 21.13 47.2 27.97"></polygon>
            <path d="M69.93,7.32 L63.51,14.32 L80.62,19.11 C81.76,16.26 81.52,13.94 79.92,12.12 C78.32,10.32 74.99,8.71 69.92,7.32 L69.93,7.32 Z" id="Path" fill="#FFFFFF"></path>
            <polygon id="Path" fill="#FFFFFF" points="62.44 15.64 58.51 19.54 76.32 19.83"></polygon>
            <path d="M57.16,21.08 L49.16,28.86 C55.1848967,28.7034307 61.1757105,27.9021971 67.03,26.47 C72.11,25.15 76,23.35 78.71,21.08 L57.16,21.08 L57.16,21.08 Z" id="Path" fill="#FFFFFF"></path>
            <path d="M43,30.55 L55.31,34 L66,29 C62.2017913,29.7502724 58.3613105,30.2679024 54.5,30.55 C50.6703705,30.7883124 46.8296295,30.7883124 43,30.55 L43,30.55 Z" id="Path" fill="#FFFFFF"></path>
            <path d="M82,10 L94,13.13 L85,18 C85.4352475,16.7021867 85.4352475,15.2978133 85,14 C84.57,12.85 83.57,11.51 82,10 L82,10 Z" id="Path" fill="#FFFFFF"></path>
            <path d="M43.59,0 L35,4 C41.2738051,2.93758746 47.6473318,2.58536625 54,2.95 L43.59,0 Z" id="Path" fill="#FFFFFF"></path>
            <path d="M13.7,15 L4,19.58 L16,23 C14.8531196,21.9279244 13.9612393,20.6123154 13.39,19.15 C12.9808594,17.7763376 13.0875439,16.3005349 13.69,15 L13.7,15 Z" id="Path" fill="#FFFFFF"></path>
            <path d="M111.59,20.38 C112.078434,19.5680492 112.835478,18.9525087 113.73,18.64 L151.17,1.1 C152.52,0.46 153.51,0.1 154.13,0.02 C154.75,-0.05 155.83,0.13 157.39,0.59 L204.48,12.89 C206.03,13.17 207.02,13.62 207.45,14.23 C207.88,14.83 208.02,16.03 207.85,17.8 L207.47,72.44 C207.52,73.81 207.42,74.67 207.17,75.02 C206.748429,75.6739108 206.205271,76.2408323 205.57,76.69 C182.47,91.07 170.41,98.22 169.7,98.66 C168.6,99.33 167.47,99.99 166.5,99.99 C165.87,99.99 164.66,99.69 162.9,99.06 L116.26,83.1 C115.435956,82.8541672 114.726732,82.3222492 114.26,81.6 C113.753343,80.7797997 113.486597,79.8340633 113.49,78.87 L111.1,23.37 C110.966909,22.3436069 111.13725,21.3007057 111.59,20.37 L111.59,20.38 Z" id="Path" fill="#000000"></path>
            <polygon id="Path" fill="#D0021B" points="190.25 68.08 195.59 58.37 199.54 72.78"></polygon>
            <path d="M197.25,55.83 L206.79,39.2 C207.66674,44.604675 207.66674,50.115325 206.79,55.52 C205.772269,61.1029006 203.918069,66.5003071 201.29,71.53 L197.25,55.83 Z" id="Path" fill="#D0021B"></path>
            <path d="M178.57,88.35 L188.79,70.19 L199.31,75.22 C195.51,80.45 192.01,84.12 188.79,86.23 C185.810803,88.2910666 182.12319,89.0560118 178.57,88.35 L178.57,88.35 Z" id="Path" fill="#D0021B"></path>
            <polygon id="Path" fill="#D0021B" points="181.6 67.02 187.33 69.73 178.55 85.3"></polygon>
            <path d="M168.89,61 L180.12,66.28 L176.68,87.76 C172.98,84.08 170.64,80.68 169.68,77.55 C168.72,74.42 168.46,68.9 168.88,61 L168.89,61 Z" id="Path" fill="#D0021B"></path>
            <polygon id="Path" fill="#D0021B" points="194.21 45.3 205.49 38.54 196.42 53.95"></polygon>
            <polygon id="Path" fill="#D0021B" points="184.46 51.13 192.4 46.4 195.01 56.59 188.55 67.25 182.16 64.11"></polygon>
            <polygon id="Path" fill="#D0021B" points="170.57 59.09 182.67 52.12 180.25 63.37"></polygon>
            <path d="M189.53,26.05 L193.5,42.6 L206.68,35.59 C204.91,30.76 202.65,27.59 199.9,26.05 C197.14,24.52 193.68,24.52 189.53,26.05 Z" id="Path" fill="#025AC1"></path>
            <polygon id="Path" fill="#025AC1" points="188.2 29.28 184.99 47.83 191.93 43.81"></polygon>
            <path d="M169.97,56.41 L183.09,48.81 L186.8,27.06 C181.66,31.91 177.88,36.42 175.45,40.6 C173.02,44.78 171.2,50.05 169.97,56.41 L169.97,56.41 Z" id="Path" fill="#025AC1"></path>
            <path d="M198.52,79.7 C200.164198,77.2211903 201.647259,74.6391939 202.96,71.97 C203.79,70.15 205.03,67.08 206.66,62.76 L206.66,74.3 L198.52,79.7 L198.52,79.7 Z" id="Path" fill="#D0021B"></path>
            <path d="M168.96,83.78 L169.56,96.8 L178.49,91.68 C176.754416,91.2563126 175.128569,90.4689524 173.72,89.37 C172.52,88.37 170.92,86.51 168.96,83.78 L168.96,83.78 Z" id="Path" fill="#D0021B"></path>
            <path d="M198.52,22.61 L207.12,18.17 L207.12,31.34 C205.82,28.75 204.53,26.82 203.24,25.54 C201.899337,24.2305911 200.2883,23.2305191 198.52,22.61 Z" id="Path" fill="#025AC1"></path>
            <path d="M168.25,37.3 L177.57,33.34 C175.68134,35.8664283 174.040429,38.568908 172.67,41.41 C171.030075,44.818895 169.655986,48.3494017 168.56,51.97 L168.25,37.31 L168.25,37.3 Z" id="Path" fill="#025AC1"></path>
            <path d="M112.88,45.81 L127.26,61.11 L122.91,78.13 C119.182526,74.0210453 116.397613,69.147447 114.75,63.85 C113.11,58.55 112.48,52.55 112.88,45.81 L112.88,45.81 Z" id="Path" fill="#009A0E"></path>
            <polygon id="Path" fill="#009A0E" points="129.38 63.54 136.91 71.96 125.4 77.99"></polygon>
            <path d="M125.46,81.15 L138.76,73.9 L153.17,90.11 C148.355901,91.7295927 143.144099,91.7295927 138.33,90.11 C133.32,88.49 129.03,85.51 125.46,81.15 L125.46,81.15 Z" id="Path" fill="#009A0E"></path>
            <polygon id="Path" fill="#009A0E" points="140.48 72.9 147.79 68.96 152.89 86.58"></polygon>
            <path d="M149.67,67.7 L163.61,60.36 C164.78,67.18 164.96,72.54 164.13,76.43 C163.31,80.32 160.5,84.53 155.69,89.09 L149.67,67.69 L149.67,67.7 Z" id="Path" fill="#009A0E"></path>
            <polygon id="Path" fill="#009A0E" points="115.72 45.3 130.01 49.54 127.82 58.45"></polygon>
            <polygon id="Path" fill="#009A0E" points="132.54 50.34 142.95 53.19 146.92 66.08 138.39 70.58 129.86 60.75"></polygon>
            <polygon id="Path" fill="#009A0E" points="145.51 54.02 148.9 65.07 160.75 58.71"></polygon>
            <path d="M113.44,42.27 C115.29,37.09 118.1,33.36 121.85,31.08 C125.61,28.81 130.03,28.09 135.14,28.93 L130.56,46.89 L113.44,42.27 L113.44,42.27 Z" id="Path" fill="#D0021B"></path>
            <polygon id="Path" fill="#D0021B" points="132.87 47.71 136.7 32.29 142.32 50.53"></polygon>
            <path d="M138.47,29.9 L144.74,51.18 L162.26,56.4 C160.18,49.88 157.17,44.47 153.23,40.16 C149.107265,35.7158373 144.07218,32.2158389 138.47,29.9 L138.47,29.9 Z" id="Path" fill="#D0021B"></path>
            <polygon id="Path" fill="#009A0E" points="114.2 67.28 114.74 80.8 126.08 84.84 119.05 76.56"></polygon>
            <path d="M164.41,82.95 L164.9,97.79 L151.55,93.69 C155.42,92.34 158.07,91.07 159.5,89.87 C160.93,88.67 162.57,86.37 164.41,82.95 L164.41,82.95 Z" id="Path" fill="#009A0E"></path>
            <path d="M112.03,23.01 L112.68,37.85 C113.718315,35.3885129 115.184277,33.1303214 117.01,31.18 C119.073822,29.061485 121.609535,27.4612442 124.41,26.51 L112.03,23.01 L112.03,23.01 Z" id="Path" fill="#D0021B"></path>
            <polygon id="Path" fill="#D0021B" points="150.89 33.76 163.46 37.29 163.84 52.01 156.96 40.92"></polygon>
            <path d="M144.11,5.67 L160.12,10.26 L177.17,6.26 C171.984892,4.78547315 166.629906,3.99214196 161.24,3.9 C155.481325,3.83786424 149.734303,4.43168962 144.11,5.67 L144.11,5.67 Z" id="Path" fill="#FFFFFF"></path>
            <polygon id="Path" fill="#FFFFFF" points="143.68 6.98 147.92 13.6 157.39 11.12"></polygon>
            <path d="M140.5,6.76 C135.24,8.54 131.42,10.48 129.07,12.56 C126.71,14.66 125.99,16.79 126.9,18.98 L145.42,14.31 L140.5,6.76 Z" id="Path" fill="#FFFFFF"></path>
            <polygon id="Path" fill="#FFFFFF" points="146.02 15.44 148.84 19.61 130.09 19.37"></polygon>
            <path d="M150,21 L155.66,28.97 C148.64,28.65 142.88,27.85 138.39,26.57 C133.89,25.3 130.33,23.33 127.7,20.65 L150,21 Z" id="Path" fill="#FFFFFF"></path>
            <polygon id="Path" fill="#FFFFFF" points="163.46 11.11 171.81 13.42 177.84 7.23"></polygon>
            <polygon id="Path" fill="#FFFFFF" points="159.96 11.81 170.64 14.78 165.99 19.5 152.55 19.5 149.28 14.78"></polygon>
            <polygon id="Path" fill="#FFFFFF" points="153.39 20.99 164.72 20.99 158.16 27.83"></polygon>
            <path d="M181.23,7.17 L174.71,14.17 L192.09,18.97 C193.24,16.12 193,13.79 191.38,11.98 C189.75,10.17 186.37,8.57 181.23,7.18 L181.23,7.17 Z" id="Path" fill="#FFFFFF"></path>
            <polygon id="Path" fill="#FFFFFF" points="173.63 15.5 169.65 19.4 187.73 19.69"></polygon>
            <path d="M168.27,20.94 L160.14,28.72 C166.257256,28.5643674 172.340982,27.7632597 178.29,26.33 C183.45,25 187.4,23.21 190.15,20.93 L168.27,20.93 L168.27,20.94 Z" id="Path" fill="#FFFFFF"></path>
            <path d="M153.4,30.05 L165.76,33.79 L176.48,28.37 C172.32,29.23 168.48,29.8 164.94,30.05 C161.097686,30.3087978 157.242314,30.3087978 153.4,30.05 L153.4,30.05 Z" id="Path" fill="#FFFFFF"></path>
            <path d="M192.63,10.22 L204.63,13.32 L195.63,18.14 C196.065104,16.8558553 196.065104,15.4641447 195.63,14.18 C195.2,13.03 194.2,11.71 192.63,10.22 L192.63,10.22 Z" id="Path" fill="#FFFFFF"></path>
            <path d="M154.3,0.21 L145.7,4.01 C151.98619,2.9992712 158.36248,2.66402987 164.72,3.01 L154.3,0.21 L154.3,0.21 Z" id="Path" fill="#FFFFFF"></path>
            <path d="M123.76,14.26 L113.76,19.12 L126.14,22.75 C124.949301,21.6064467 124.027144,20.2129652 123.44,18.67 C123.021822,17.2117605 123.13523,15.6523887 123.76,14.27 L123.76,14.26 Z" id="Path" fill="#FFFFFF"></path>
        </g>
    </g>
</svg>