<?xml version="1.0" encoding="UTF-8"?>
<svg width="97px" height="100px" viewBox="0 0 97 100" version="1.1" xmlns="http://www.w3.org/2000/svg" xmlns:xlink="http://www.w3.org/1999/xlink">
    <title>pentacle_4</title>
    <g id="pentacle" stroke="none" stroke-width="1" fill="none" fill-rule="evenodd">
        <g id="pentacle_4" fill-rule="nonzero">
            <path d="M0.59,20.38 C1.07843373,19.5680492 1.83547778,18.9525087 2.73,18.64 L40.17,1.1 C41.52,0.46 42.51,0.1 43.13,0.02 C43.75,-0.05 44.83,0.13 46.39,0.59 L93.48,12.89 C95.03,13.17 96.02,13.62 96.45,14.23 C96.88,14.83 97.02,16.03 96.85,17.8 L96.47,72.44 C96.52,73.81 96.42,74.67 96.17,75.02 C95.7484295,75.6739108 95.2052712,76.2408323 94.57,76.69 C71.48,91.07 59.42,98.22 58.7,98.66 C57.6,99.33 56.47,99.99 55.5,99.99 C54.87,99.99 53.66,99.69 51.9,99.06 L5.26,83.1 C4.43595585,82.8541672 3.72673181,82.3222492 3.26,81.6 C2.75334312,80.7797997 2.48659695,79.8340633 2.49,78.87 L0.1,23.38 C-0.0330908185,22.3536069 0.137249715,21.3107057 0.59,20.38 Z" id="Path" fill="#000000"></path>
            <polygon id="Path" fill="#009A0E" points="79.25 68.08 84.59 58.37 88.54 72.78"></polygon>
            <path d="M86.25,55.83 L95.8,39.2 C96.6767396,44.604675 96.6767396,50.115325 95.8,55.52 C94.7822686,61.1029006 92.928069,66.5003071 90.3,71.53 L86.26,55.83 L86.25,55.83 Z" id="Path" fill="#009A0E"></path>
            <path d="M67.57,88.35 L77.79,70.19 L88.31,75.22 C84.51,80.45 81.01,84.12 77.79,86.23 C74.8108029,88.2910666 71.1231899,89.0560118 67.57,88.35 Z" id="Path" fill="#009A0E"></path>
            <polygon id="Path" fill="#009A0E" points="70.6 67.02 76.33 69.73 67.55 85.3"></polygon>
            <path d="M57.89,61 L69.12,66.28 L65.68,87.76 C61.98,84.08 59.64,80.68 58.68,77.55 C57.72,74.42 57.46,68.9 57.88,61 L57.89,61 Z" id="Path" fill="#009A0E"></path>
            <polygon id="Path" fill="#009A0E" points="83.21 45.3 94.49 38.54 85.42 53.95"></polygon>
            <polygon id="Path" fill="#009A0E" points="73.46 51.13 81.4 46.4 84.01 56.59 77.55 67.25 71.16 64.11"></polygon>
            <polygon id="Path" fill="#009A0E" points="59.57 59.09 71.67 52.12 69.25 63.37"></polygon>
            <path d="M78.53,26.05 L82.5,42.6 L95.68,35.59 C93.91,30.76 91.65,27.59 88.9,26.05 C86.14,24.52 82.68,24.52 78.53,26.05 Z" id="Path" fill="#009A0E"></path>
            <polygon id="Path" fill="#009A0E" points="77.2 29.28 73.99 47.83 80.93 43.81"></polygon>
            <path d="M58.97,56.41 L72.09,48.81 L75.8,27.06 C70.66,31.91 66.88,36.42 64.45,40.6 C62.02,44.78 60.2,50.05 58.97,56.41 Z" id="Path" fill="#009A0E"></path>
            <path d="M87.52,79.7 C89.164198,77.2211903 90.6472593,74.6391939 91.96,71.97 C92.79,70.15 94.03,67.08 95.66,62.76 L95.66,74.3 L87.52,79.7 L87.52,79.7 Z" id="Path" fill="#009A0E"></path>
            <path d="M57.96,83.78 L58.56,96.8 L67.49,91.68 C65.7544163,91.2563126 64.1285686,90.4689524 62.72,89.37 C61.52,88.37 59.92,86.51 57.96,83.78 L57.96,83.78 Z" id="Path" fill="#009A0E"></path>
            <path d="M87.52,22.61 L96.12,18.17 L96.12,31.34 C94.82,28.75 93.53,26.82 92.24,25.54 C90.8993373,24.2305911 89.2882998,23.2305191 87.52,22.61 L87.52,22.61 Z" id="Path" fill="#009A0E"></path>
            <path d="M57.25,37.3 L66.57,33.34 C64.6813395,35.8664283 63.0404287,38.568908 61.67,41.41 C60.0300754,44.818895 58.6559861,48.3494017 57.56,51.97 L57.25,37.3 Z" id="Path" fill="#009A0E"></path>
            <path d="M1.88,45.81 L16.26,61.11 L11.91,78.13 C8.18252592,74.0210453 5.3976126,69.147447 3.75,63.85 C2.11,58.55 1.48,52.55 1.88,45.81 L1.88,45.81 Z" id="Path" fill="#D0021B"></path>
            <polygon id="Path" fill="#D0021B" points="18.38 63.54 25.91 71.96 14.4 77.99"></polygon>
            <path d="M14.46,81.15 L27.76,73.9 L42.17,90.1 C37.3559014,91.7195927 32.1440986,91.7195927 27.33,90.1 C22.32,88.48 18.03,85.5 14.46,81.14 L14.46,81.15 Z" id="Path" fill="#D0021B"></path>
            <polygon id="Path" fill="#D0021B" points="29.48 72.9 36.79 68.96 41.89 86.58"></polygon>
            <path d="M38.67,67.7 L52.61,60.36 C53.78,67.18 53.96,72.54 53.13,76.43 C52.31,80.32 49.5,84.53 44.69,89.09 L38.67,67.69 L38.67,67.7 Z" id="Path" fill="#D0021B"></path>
            <polygon id="Path" fill="#D0021B" points="4.72 45.3 19.01 49.54 16.82 58.45"></polygon>
            <polygon id="Path" fill="#D0021B" points="21.54 50.34 31.95 53.19 35.92 66.08 27.39 70.58 18.86 60.75"></polygon>
            <polygon id="Path" fill="#D0021B" points="34.51 54.02 37.9 65.07 49.75 58.71"></polygon>
            <path d="M2.44,42.27 C4.29,37.09 7.1,33.36 10.85,31.08 C14.61,28.81 19.03,28.09 24.14,28.93 L19.56,46.9 L2.44,42.27 Z" id="Path" fill="#D0021B"></path>
            <polygon id="Path" fill="#D0021B" points="21.87 47.71 25.7 32.29 31.32 50.53"></polygon>
            <path d="M27.47,29.9 L33.74,51.18 L51.26,56.4 C49.18,49.88 46.17,44.47 42.23,40.16 C38.107265,35.7158373 33.0721796,32.2158389 27.47,29.9 Z" id="Path" fill="#D0021B"></path>
            <polygon id="Path" fill="#D0021B" points="3.2 67.28 3.74 80.8 15.08 84.84 8.05 76.56"></polygon>
            <path d="M53.41,82.95 L53.9,97.79 L40.55,93.69 C44.42,92.34 47.07,91.07 48.5,89.87 C49.93,88.67 51.57,86.37 53.41,82.95 L53.41,82.95 Z" id="Path" fill="#D0021B"></path>
            <path d="M1.03,23.01 L1.68,37.85 C2.71831497,35.3885129 4.18427737,33.1303214 6.01,31.18 C8.07382207,29.061485 10.6095354,27.4612442 13.41,26.51 L1.03,23.01 L1.03,23.01 Z" id="Path" fill="#D0021B"></path>
            <polygon id="Path" fill="#D0021B" points="39.89 33.76 52.46 37.29 52.84 52.01 45.96 40.92"></polygon>
            <path d="M33.11,5.67 L49.12,10.26 L66.17,6.26 C60.9848917,4.78547315 55.6299061,3.99214196 50.24,3.9 C44.481325,3.83786424 38.7343031,4.43168962 33.11,5.67 L33.11,5.67 Z" id="Path" fill="#FFDB11"></path>
            <polygon id="Path" fill="#FFDB11" points="32.68 6.98 36.92 13.6 46.39 11.12"></polygon>
            <path d="M29.5,6.76 C24.24,8.54 20.42,10.48 18.07,12.56 C15.71,14.66 14.99,16.79 15.9,18.98 L34.42,14.31 L29.5,6.76 Z" id="Path" fill="#FFDB11"></path>
            <polygon id="Path" fill="#FFDB11" points="35.02 15.44 37.84 19.61 19.09 19.37"></polygon>
            <path d="M39,21 L44.66,28.97 C37.64,28.65 31.88,27.85 27.39,26.57 C22.89,25.3 19.33,23.33 16.7,20.65 L39,21 Z" id="Path" fill="#FFDB11"></path>
            <polygon id="Path" fill="#FFDB11" points="52.46 11.11 60.81 13.42 66.84 7.23"></polygon>
            <polygon id="Path" fill="#FFDB11" points="48.96 11.81 59.64 14.78 54.99 19.5 41.55 19.5 38.28 14.78"></polygon>
            <polygon id="Path" fill="#FFDB11" points="42.39 20.99 53.72 20.99 47.16 27.83"></polygon>
            <path d="M70.23,7.17 L63.71,14.17 L81.09,18.97 C82.24,16.12 82,13.79 80.38,11.98 C78.75,10.17 75.37,8.57 70.23,7.18 L70.23,7.17 Z" id="Path" fill="#FFDB11"></path>
            <polygon id="Path" fill="#FFDB11" points="62.63 15.5 58.65 19.4 76.73 19.69"></polygon>
            <path d="M57.27,21.94 L49.14,29.72 C55.2572563,29.5643674 61.3409822,28.7632597 67.29,27.33 C72.45,26 76.4,24.21 79.15,21.93 L57.27,21.93 L57.27,21.94 Z" id="Path" fill="#FFDB11"></path>
            <path d="M42.4,34.05 L54.76,37.79 L65.48,32.37 C61.32,33.23 57.48,33.8 53.94,34.05 C50.0976862,34.3087978 46.2423138,34.3087978 42.4,34.05 L42.4,34.05 Z" id="Path" fill="#FFDB11"></path>
            <path d="M81.63,10.22 L93.63,13.32 L84.63,18.14 C85.0651043,16.8558553 85.0651043,15.4641447 84.63,14.18 C84.2,13.03 83.2,11.71 81.63,10.22 L81.63,10.22 Z" id="Path" fill="#FFDB11"></path>
            <path d="M43.3,0.21 L34.7,4.01 C40.9861899,2.9992712 47.36248,2.66402987 53.72,3.01 L43.3,0.22 L43.3,0.21 Z" id="Path" fill="#FFDB11"></path>
            <path d="M12.76,14.26 L2.76,19.12 L15.14,22.75 C13.9493006,21.6064467 13.0271437,20.2129652 12.44,18.67 C12.0218215,17.2117605 12.1352304,15.6523887 12.76,14.27 L12.76,14.26 Z" id="Path" fill="#FFDB11"></path>
        </g>
    </g>
</svg>