<?xml version="1.0" encoding="UTF-8"?>
<svg width="100px" height="97px" viewBox="0 0 100 97" version="1.1" xmlns="http://www.w3.org/2000/svg" xmlns:xlink="http://www.w3.org/1999/xlink">
    <title>pentacle_4_1</title>
    <g id="pentacle" stroke="none" stroke-width="1" fill="none" fill-rule="evenodd">
        <g id="pentacle_4_1" fill-rule="nonzero">
            <path d="M41.1,0.09 L96.86,6.53 C97.6193599,6.66391581 98.3338671,6.98338295 98.94,7.46 C99.4619536,7.92121064 99.8286746,8.53241242 99.99,9.21 L99.14,70.89 C99.12,72.03 98.99,72.8 98.74,73.19 C98.3827785,73.6889487 97.9350153,74.1163591 97.42,74.45 L67.99,95.17 C67.1557006,95.9016148 66.1879901,96.4652637 65.14,96.83 C64.1289125,97.0538893 63.0810875,97.0538893 62.07,96.83 L5.58,83.79 C4.97817573,83.6165914 4.42854338,83.2971176 3.98,82.86 C3.63306632,82.4222685 3.43042518,81.8877151 3.4,81.33 L0.1,17.17 C-0.0258344786,16.267888 0.13139702,15.3489573 0.55,14.54 C0.939720586,13.8339376 1.60066349,13.317463 2.38,13.11 L41.1,0.09 Z" id="Path" fill="#000000"></path>
            <path d="M97.35,26.04 L91.49,46.34 L97.09,59.51 C98.5847116,53.7781754 99.363973,47.8833316 99.41,41.96 C99.41,36.37 98.72,31.06 97.35,26.04 L97.35,26.04 Z" id="Path" fill="#696969"></path>
            <polygon id="Path" fill="#696969" points="90.47 49.63 87.44 60.03 95.34 60.4"></polygon>
            <path d="M86.47,63.38 L80.1,85.24 C83.51,83.79 86.54,81.29 89.17,77.74 C91.81,74.19 94.1,69.44 96.05,63.49 L86.48,63.38 L86.47,63.38 Z" id="Path" fill="#696969"></path>
            <polygon id="Path" fill="#696969" points="79.41 63.42 84.65 63.42 79.56 81.82"></polygon>
            <path d="M65.94,63.2 L77.4,63.4 L78.02,85.6 C74.25,84.24 71.49,81.97 69.76,78.79 C68.02,75.6 66.76,70.41 65.94,63.19 L65.94,63.2 Z" id="Path" fill="#696969"></path>
            <polygon id="Path" fill="#696969" points="87.19 36.6 95.81 26.32 90.47 43.97"></polygon>
            <polygon id="Path" fill="#696969" points="79.26 46.42 85.55 38.92 89.46 47.2 85.55 59.9 79.26 59.9"></polygon>
            <polygon id="Path" fill="#696969" points="68.2 59.95 77.33 48.76 77.51 59.94"></polygon>
            <path d="M79.88,19.14 L86.19,34.1 L96.35,22.73 C94.01,18.58 91.57,16.23 89.01,15.66 C86.45,15.1 83.41,16.26 79.88,19.14 Z" id="Path" fill="#696969"></path>
            <polygon id="Path" fill="#696969" points="79.29 23.45 79.29 42.82 84.85 36.05"></polygon>
            <path d="M66.65,58.11 C66.6130574,51.6792856 67.5952335,45.2833279 69.56,39.16 C71.6,32.51 74.26,26.83 77.51,22.1 L77.51,44.83 L66.65,58.11 Z" id="Path" fill="#696969"></path>
            <path d="M98.6,60.15 L98.6,72.35 L91.75,77.4 C93.45,74.41 94.85,71.53 95.95,68.78 C97.0594738,65.9776969 97.94557,63.0920326 98.6,60.15 L98.6,60.15 Z" id="Path" fill="#696969"></path>
            <path d="M66.75,78.02 L67.15,93.83 L75.55,88.1 C73.6573393,87.418176 71.9634061,86.277434 70.62,84.78 C69.18,83.21 67.89,80.96 66.75,78.02 L66.75,78.02 Z" id="Path" fill="#696969"></path>
            <path d="M91.91,13.7 L99.23,10.5 L99.23,25.5 C98.2491822,22.7462943 97.0243135,20.085719 95.57,17.55 C94.6741953,15.9933707 93.4193399,14.6733725 91.91,13.7 L91.91,13.7 Z" id="Path" fill="#696969"></path>
            <path d="M66.34,24.6 L75.45,20.81 C73.3682971,23.9119793 71.590093,27.2071825 70.14,30.65 C68.5946296,34.3571982 67.4644126,38.224083 66.77,42.18 L66.34,24.6 Z" id="Path" fill="#696969"></path>
            <path d="M6.26,31.94 L17.99,52.34 L7.15,68.01 C4.25,61.31 2.72,55.04 2.59,49.21 C2.48121324,43.2456548 3.73648268,37.3352853 6.26,31.93 L6.26,31.94 Z" id="Path" fill="#696969"></path>
            <polygon id="Path" fill="#696969" points="19.61 54.79 25.92 66.02 10.39 68.44"></polygon>
            <path d="M9.55,71.48 L27.34,69.08 L39.24,90.08 C32.7,89.58 27,87.8 22.2,84.71 C17.38,81.63 13.17,77.22 9.56,71.48 L9.55,71.48 Z" id="Path" fill="#696969"></path>
            <polygon id="Path" fill="#696969" points="29.94 68.69 40.04 67.34 40.04 86.55"></polygon>
            <path d="M42.64,67 L62.72,64.03 C61.64,71.2 59.48,76.87 56.26,81.03 C53.04,85.19 48.5,87.99 42.64,89.43 L42.64,67 Z" id="Path" fill="#696969"></path>
            <polygon id="Path" fill="#696969" points="9.6 33.07 25.19 41.57 19.48 50.12"></polygon>
            <polygon id="Path" fill="#696969" points="28.03 43.22 39.97 49.87 39.71 64.04 28.39 65.67 21.39 53.25"></polygon>
            <polygon id="Path" fill="#696969" points="42.65 51.13 59.45 61.14 42.59 63.87"></polygon>
            <path d="M38.54,22.6 L26.94,39.05 L8.14,29.01 C12.21,24.28 16.86,21.36 22.08,20.26 C27.3,19.16 32.78,19.94 38.54,22.6 Z" id="Path" fill="#696969"></path>
            <polygon id="Path" fill="#696969" points="39.7 26.14 39.94 46.64 29.57 40.93"></polygon>
            <path d="M42.43,24.7 L42.67,48.07 L62.77,59.66 C62.48,53.39 60.77,47.09 57.63,40.76 C51.63,28.7 42.43,24.69 42.43,24.69 L42.43,24.7 Z" id="Path" fill="#FFFFFF"></path>
            <path d="M3.69,66.66 L4.66,81.79 L17.91,84.89 C14.7787212,82.2544969 11.8873908,79.3464343 9.27,76.2 C6.96835356,73.2997827 5.08964757,70.0878015 3.69,66.66 L3.69,66.66 Z" id="Path" fill="#696969"></path>
            <path d="M47.31,91.3 C50.6325915,89.7252784 53.7136129,87.6847332 56.46,85.24 C58.7226549,83.1492293 60.6159469,80.6913305 62.06,77.97 L62.06,94.52 L47.31,91.3 Z" id="Path" fill="#696969"></path>
            <path d="M1.29,17.4 L14.81,18.86 C12.0746189,20.3566267 9.59106927,22.2732791 7.45,24.54 C5.22996129,27.0528473 3.44539083,29.9189757 2.17,33.02 L1.3,17.4 L1.29,17.4 Z" id="Path" fill="#696969"></path>
            <path d="M45.57,22.92 L60.99,24.89 L61.27,41.94 C59.4270657,38.2846961 57.2263043,34.821093 54.7,31.6 C52.0507417,28.3249809 48.9847717,25.4102923 45.58,22.93 L45.57,22.92 Z" id="Path" fill="#696969"></path>
            <path d="M41.36,2.86 L54.6,6.12 L74.1,4.21 C68.7496268,3.23094717 63.3355564,2.63940985 57.9,2.44 C52.3832029,2.25501688 46.8602987,2.39525991 41.36,2.86 L41.36,2.86 Z" id="Path" fill="#696969"></path>
            <polygon id="Path" fill="#696969" points="40.14 3.53 40.99 7.46 51.74 6.41"></polygon>
            <path d="M16.37,10.13 C17.14,8.68 19.33,7.38 22.95,6.23 C27.6593896,4.83873137 32.4614037,3.78275611 37.32,3.07 L37.97,7.9 L16.37,10.13 L16.37,10.13 Z" id="Path" fill="#696969"></path>
            <polygon id="Path" fill="#696969" points="38.2 8.82 20.69 10.6 38.56 11.38"></polygon>
            <path d="M38.76,12.18 L39.52,17.74 C32.63,17.32 27.33,16.6 23.62,15.57 C19.92,14.55 17.54,13.1 16.51,11.21 L38.76,12.18 L38.76,12.18 Z" id="Path" fill="#696969"></path>
            <polygon id="Path" fill="#696969" points="57.16 6.74 64.79 8.46 73.86 4.87"></polygon>
            <polygon id="Path" fill="#696969" points="41.83 11.42 41.23 8.45 53.87 6.95 63.14 9.03 55.74 12.01 41.83 11.41"></polygon>
            <polygon id="Path" fill="#696969" points="42.01 12.48 53.86 12.86 42.88 17.1"></polygon>
            <path d="M77.64,4.77 L66.97,9.01 L82.91,12.91 C85.55,11.14 86.46,9.61 85.63,8.34 C84.81,7.06 82.14,5.87 77.64,4.77 Z" id="Path" fill="#696969"></path>
            <polygon id="Path" fill="#696969" points="65.38 9.66 59.09 12.12 78.67 12.97"></polygon>
            <path d="M57.12,13.03 L80.68,13.83 C77.28,15.15 72.45,16.17 66.16,16.89 C58.9127294,17.648653 51.6255403,17.9592436 44.34,17.82 L57.12,13.02 L57.12,13.03 Z" id="Path" fill="#D0021B"></path>
            <path d="M41.15,0.31 L33.5,2.88 C37.04,2.43 40.37,2.12 43.5,1.97 C46.62,1.81 49.98,1.75 53.56,1.77 L41.15,0.3 L41.15,0.31 Z" id="Path" fill="#696969"></path>
            <path d="M13.86,9.52 L3.52,13.02 L17.05,14.64 C15.02,13.6 13.79,12.74 13.38,12.08 C12.96,11.4 13.12,10.55 13.86,9.52 Z" id="Path" fill="#696969"></path>
            <path d="M82.47,5.11 L96.27,6.74 L88.68,10.14 C88.83,9.16 88.49,8.26 87.65,7.46 C86.82,6.65 85.09,5.86 82.47,5.11 Z" id="Path" fill="#696969"></path>
            <path d="M47.7,18.77 C53.12,18.67 57.69,18.51 61.4,18.27 C65.12,18.01 68.56,17.65 71.72,17.17 L62.92,20.93 L47.7,18.77 Z" id="Path" fill="#696969"></path>
        </g>
    </g>
</svg>