<?xml version="1.0" encoding="UTF-8"?>
<svg width="102px" height="102px" viewBox="0 0 102 102" version="1.1" xmlns="http://www.w3.org/2000/svg" xmlns:xlink="http://www.w3.org/1999/xlink">
    <title>brick_cube_9_4</title>
    <g id="Brick_cube" stroke="none" stroke-width="1" fill="none" fill-rule="evenodd">
        <g id="brick_cube_9_4" transform="translate(1.000000, 1.000000)" fill-rule="nonzero">
            <polygon id="Path" stroke="#000000" stroke-width="0.5" fill="#000000" points="60 0 100 40 40 100 0 60"></polygon>
            <g id="Group-5" transform="translate(3.540000, 3.540000)" fill="#FFED00">
                <path d="M40.31,38.26 L52.61,38.26 C53.75,38.26 54.67,39.17 54.67,40.31 L54.67,52.61 C54.67,53.75 53.75,54.67 52.61,54.67 L40.31,54.67 C39.17,54.67 38.25,53.75 38.25,52.61 L38.25,40.31 C38.25,39.17 39.17,38.25 40.31,38.25 L40.31,38.26 Z" id="Path"></path>
                <path d="M78.26,39.79 C78.26,38.94 78.94,38.25 79.79,38.25 L92.92,38.25 L78.26,53.17 L78.26,39.79 Z" id="Path"></path>
                <path d="M60.31,38.26 L72.61,38.26 C73.75,38.26 74.67,39.17 74.67,40.31 L74.67,52.61 C74.67,53.75 73.75,54.67 72.61,54.67 L60.31,54.67 C59.17,54.67 58.25,53.75 58.25,52.61 L58.25,40.31 C58.25,39.17 59.17,38.25 60.31,38.25 L60.31,38.26 Z" id="Path"></path>
                <path d="M39.79,78.26 C38.94,78.26 38.25,78.94 38.25,79.79 L38.25,92.92 L53.17,78.26 L39.79,78.26 Z" id="Path"></path>
                <path d="M38.26,60.31 L38.26,72.61 C38.26,73.75 39.17,74.67 40.31,74.67 L52.61,74.67 C53.75,74.67 54.67,73.75 54.67,72.61 L54.67,60.31 C54.67,59.17 53.75,58.25 52.61,58.25 L40.31,58.25 C39.17,58.25 38.25,59.17 38.25,60.31 L38.26,60.31 Z" id="Path"></path>
                <path d="M53.13,14.66 C53.98,14.66 54.67,13.98 54.67,13.13 L54.67,-1.59872116e-14 L39.75,14.66 L53.13,14.66 Z" id="Path"></path>
                <path d="M54.66,32.61 L54.66,20.31 C54.66,19.17 53.75,18.25 52.61,18.25 L40.31,18.25 C39.17,18.25 38.25,19.17 38.25,20.31 L38.25,32.61 C38.25,33.75 39.17,34.67 40.31,34.67 L52.61,34.67 C53.75,34.67 54.67,33.75 54.67,32.61 L54.66,32.61 Z" id="Path"></path>
                <path d="M14.66,53.13 C14.66,53.98 13.98,54.67 13.13,54.67 L1.24344979e-14,54.67 L14.66,39.75 L14.66,53.13 Z" id="Path"></path>
                <path d="M32.61,54.66 L20.31,54.66 C19.17,54.66 18.25,53.75 18.25,52.61 L18.25,40.31 C18.25,39.17 19.17,38.25 20.31,38.25 L32.61,38.25 C33.75,38.25 34.67,39.17 34.67,40.31 L34.67,52.61 C34.67,53.75 33.75,54.67 32.61,54.67 L32.61,54.66 Z" id="Path"></path>
            </g>
            <polygon id="Path" fill="#E31E24" points="97.9 44 100.02 46.12 85.88 60.26 83.76 58.14"></polygon>
            <polygon id="Path" fill="#EF7F1A" points="58.14 84 60.26 86.12 46.12 100.26 44 98.14"></polygon>
            <polygon id="Path" fill="#EF7F1A" points="14.14 40 16.26 42.12 2.12 56.26 0 54.14"></polygon>
            <polygon id="Path" fill="#E31E24" points="54.14 0 56.26 2.12 42.12 16.26 40 14.14"></polygon>
        </g>
    </g>
</svg>