<?xml version="1.0" encoding="UTF-8"?>
<svg width="209px" height="102px" viewBox="0 0 209 102" version="1.1" xmlns="http://www.w3.org/2000/svg" xmlns:xlink="http://www.w3.org/1999/xlink">
    <title>brick_cube_7_4</title>
    <g id="Brick_cube" stroke="none" stroke-width="1" fill="none" fill-rule="evenodd">
        <g id="brick_cube_7_4" transform="translate(1.000000, 1.000000)" fill-rule="nonzero">
            <path d="M40.96,0.34 L93.57,24.07 C93.57,24.07 94.6,24.72 94.84,25.3 C95.08,25.88 94.84,27.66 94.84,27.66 L88.22,68.44 C88.22,68.44 88.02,69.49 87.71,70.04 C87.39,70.59 86.51,71.43 86.51,71.43 L54.87,98.53 C54.87,98.53 53.04,99.91 52.17,99.91 C51.32,99.91 49.7,98.52 49.7,98.52 L9.08,55.46 C9.08,55.46 8.74,55.12 8.62,54.9 C8.5,54.68 8.42,54.22 8.42,54.22 L0.19999,16.24 C0.19999,16.24 -0.20001,14.59 0.19999,13.92 C0.58999,13.24 2.19999,12.79 2.19999,12.79 L38.17,0.34 C38.17,0.34 39.1,0 39.57,0 C40.04,0 40.97,0.34 40.97,0.34 L40.96,0.34 Z" id="Path" stroke="#000000" stroke-width="0.5" fill="#000000"></path>
            <path d="M77.94,25.78 L89.7,25.78 C89.7,25.78 91.02,25.85 91.17,26.06 C91.31,26.27 90.42,26.84 90.42,26.84 L79.67,33.44 C79.67,33.44 78.69,34.13 78.37,34.06 C78.04,33.99 77.94,33.09 77.94,33.09 L76.98,26.84 C76.98,26.84 76.88,26.14 77.05,25.94 C77.22,25.75 77.95,25.78 77.95,25.78 L77.94,25.78 Z" id="Path" fill="#696969"></path>
            <path d="M75.34,17.78 L76.34,22.74 C76.34,22.74 76.56,23.44 76.75,23.61 C77.18,23.96 77.69,23.87 77.69,23.87 L89.31,24.01 C89.31,24.01 90.54,24 90.56,23.87 C90.61,23.5 89.46,23.01 89.46,23.01 L76.69,17.36 C76.69,17.36 75.69,16.95 75.46,17.02 C75.23,17.09 75.34,17.78 75.34,17.78 L75.34,17.78 Z" id="Path" fill="#696969"></path>
            <path d="M54.74,39.48 L54.17,47.64 C54.17,47.64 54.05,48.76 54.39,48.96 C54.73,49.16 56.08,48.44 56.08,48.44 L69.6,39.93 C69.6,39.93 70.91,39.03 70.82,38.83 C70.62,38.36 68.98,38.44 68.98,38.44 L56.44,38.18 C56.44,38.18 55.34,38.21 55.05,38.48 C54.79,38.72 54.75,39.48 54.75,39.48 L54.74,39.48 Z" id="Path" fill="#696969"></path>
            <path d="M57.08,25.44 L71.58,25.64 C71.58,25.64 72.24,25.69 72.5,25.91 C72.77,26.13 72.95,26.81 72.95,26.81 L74.02,34.5 C74.21,35.57 73.71,36.1 72.51,36.06 L56.33,35.74 C54.98,35.77 54.46,35.19 54.69,34.07 L55.17,26.33 C55.17,26.33 55.45,25.76 55.69,25.64 C56.39,25.32 57.09,25.44 57.09,25.44 L57.08,25.44 Z" id="Path" fill="#696969"></path>
            <path d="M55.81,16.26 C55.81,15.56 56.21,15.32 56.87,15.34 L70.3,15.5 C71.26,15.46 71.56,15.9 71.61,16.5 L72.51,22.42 C72.68,23.42 72.21,23.78 71.36,23.79 L56.87,23.6 C55.95,23.63 55.37,23.28 55.52,22.16 L55.82,16.26 L55.81,16.26 Z" id="Path" fill="#696969"></path>
            <path d="M56.3,9.1 C56.24,8.25 56.67,8.1 57.47,8.5 L67.4,13.06 C68.42,13.56 69.27,14.02 67.4,14.06 L57.31,13.86 C56.47,13.86 56.25,13.36 56.29,12.64 L56.29,9.11 L56.3,9.1 Z" id="Path" fill="#696969"></path>
            <path d="M36.56,37.84 L48.48,38.18 C49.29,38.24 50.2,38.02 50.14,39.81 L49.8,47.37 C49.8,47.37 49.66,49.73 47.48,48.17 L36,39.59 C33.8,38.29 34.7,37.92 36.56,37.84 Z" id="Path" fill="#FFED00"></path>
            <path d="M36.61,25.14 L49.94,25.26 C50.98,25.23 51.62,25.59 51.48,26.67 L50.7,34.17 C50.65,35.11 50.21,35.62 49.2,35.49 L33.07,35.2 C31.97,35.2 31.53,34.76 32.01,33.71 L34.17,26.16 C34.17,26.16 34.28,24.93 36.6,25.13 L36.61,25.14 Z" id="Path" fill="#FFED00"></path>
            <path d="M38.75,14.9 C38.03,14.85 37.43,15 37.23,15.98 L35.77,21.61 C35.46,22.71 36.01,23.05 36.89,23.11 L50.27,23.42 C51.87,23.58 52.32,22.89 52.3,21.86 L52.63,16.56 C52.74,15.65 52.49,15.05 51.48,15.13 L38.75,14.89 L38.75,14.9 Z" id="Path" fill="#FFED00"></path>
            <path d="M40.76,6.9 C39.84,6.74 39.33,7.15 39.16,8 L38.1,12.09 C38.1,12.09 37.54,13.64 39.16,13.62 L51.11,13.72 C52.38,13.85 52.93,13.34 52.93,12.36 L53.29,8.29 C53.29,8.29 53.63,6.96 51.93,6.89 C50.22,6.82 40.76,6.89 40.76,6.89 L40.76,6.9 Z" id="Path" fill="#696969"></path>
            <path d="M40.77,1.67 L40.22,4.25 C39.92,5.2 40.19,5.71 41.22,5.65 L49.5,5.82 C51.37,5.91 51.07,5.52 49.95,4.92 L42.28,1.47 C41.65,1.23 40.91,0.69 40.77,1.67 L40.77,1.67 Z" id="Path" fill="#696969"></path>
            <path d="M18.4,24.8 L28.78,25.11 C30.06,25.08 30.53,25.55 30.15,26.56 L28.4,32.07 C28.08,33.37 27.22,33.22 25.64,32.07 L17.91,26.3 C16.07,24.98 16.87,24.73 18.4,24.8 Z" id="Path" fill="#696969"></path>
            <path d="M32.31,14.89 C33.55,14.82 33.8,15.37 33.52,16.25 L31.82,21.59 C31.54,22.67 30.81,23.16 29.66,23.12 L16.54,22.83 C15.17,22.83 14.64,22.39 15.36,21.27 L17.96,15.94 C18.34,14.74 19.27,14.52 20.37,14.58 L32.31,14.88 L32.31,14.89 Z" id="Path" fill="#696969"></path>
            <path d="M23.59,6.54 C22.99,6.52 22.41,6.58 22.09,7.31 L19.76,11.93 C19.17,12.87 19.71,13.16 20.69,13.2 L32.92,13.47 C34.54,13.6 34.77,12.95 34.87,12.23 L36.12,7.88 C36.32,7.22 36.29,6.67 35.12,6.68 L23.59,6.54 Z" id="Path" fill="#696969"></path>
            <path d="M27.2,4.48 C25.94,4.97 25.25,5.37 27.2,5.41 L35.35,5.41 C36.83,5.51 36.81,4.95 37,4.48 L37.96,1.79 C38.26,0.890001 37.86,0.770001 37.06,1.09 L27.19,4.49 L27.2,4.48 Z" id="Path" fill="#696969"></path>
            <path d="M4.29,14.33 L13.55,14.57 C13.55,14.57 14.51,14.6 14.7,14.87 C14.9,15.14 14.56,16.01 14.56,16.01 L12.5,20.1 C12.05,21.15 11.4,21.6 10.24,20.49 L3.5,15.64 C1.9,14.55 3,14.4 4.3,14.34 L4.29,14.33 Z" id="Path" fill="#696969"></path>
            <path d="M5.07,12.14 L17.5,7.84 C18.37,7.54 18.99,7.46 18.48,8.38 L16.48,12.01 C16.17,12.62 15.71,13.09 14.78,13.03 L5.2,13.03 C3.12,13.03 4.16,12.57 5.07,12.13 L5.07,12.14 Z" id="Path" fill="#696969"></path>
            <path d="M57.72,51.56 L72.89,41.68 C72.89,41.68 74.53,40.53 74.95,40.85 C75.38,41.17 75.08,43.31 75.08,43.31 L74.44,52.74 C74.22,54.27 73.87,55.7 72.54,56.41 L57.72,67.11 C56.05,68.45 55.25,68.07 55.5,65.63 L55.5,55.38 C55.5,55.38 55.29,52.78 57.72,51.56 L57.72,51.56 Z" id="Path" fill="#696969"></path>
            <path d="M79.52,37.55 L91.92,29.51 C91.92,29.51 93.1,28.65 93.38,28.83 C93.66,29.01 93.38,30.45 93.38,30.45 L91.93,40.78 C91.93,40.78 91.69,41.94 91.37,42.42 C91.04,42.9 90.03,43.59 90.03,43.59 L78.53,52.03 C77.1,53.33 76.66,52.76 76.93,50.79 L77.71,40.77 C77.71,40.77 77.81,39.29 78.16,38.67 C78.51,38.07 79.52,37.55 79.52,37.55 Z" id="Path" fill="#696969"></path>
            <path d="M57.2,70.46 L71.85,59.43 C71.85,59.43 73.11,58.41 73.46,58.6 C73.81,58.8 73.61,60.39 73.61,60.39 L72.87,68.67 C72.92,69.95 72.43,70.99 71.29,71.76 L57.19,83.14 C56.03,84.16 55.36,84.14 55.55,82.26 L55.55,73.52 C55.55,73.52 55.59,72.2 55.88,71.67 C56.16,71.14 57.19,70.47 57.19,70.47 L57.2,70.46 Z" id="Path" fill="#009846"></path>
            <path d="M76.1,58.77 C76.1,58.77 76.11,56.17 77.77,55.28 L89.65,46.48 C89.65,46.48 91.31,44.86 90.85,47.38 L89.48,56.2 C89.28,56.8 89.31,57.31 88.15,58.32 L76.87,67.5 C75.92,68.36 75.02,69.08 75.37,66.62 L76.11,58.76 L76.1,58.77 Z" id="Path" fill="#009846"></path>
            <path d="M56.16,86.2 C56.16,86.2 54.7,87.1 54.67,89.14 L54.45,95.29 C54.23,97.46 54.79,97.89 56.16,96.47 L69.56,85.17 C70.67,84.34 71.2,83.37 71.18,82.25 L71.9,75.5 C72.06,73.21 71.32,73.96 70.7,74.3 L56.17,86.2 L56.16,86.2 Z" id="Path" fill="#009846"></path>
            <path d="M76.18,70.15 C75.38,70.78 74.6,71.42 74.41,73.29 L73.61,79.52 C73.29,81.09 73.16,82.37 74.89,80.68 L86.04,71.25 C86.54,70.72 87.08,70.29 87.28,68.66 L88.41,62.23 C88.41,62.23 88.73,60.73 88.49,60.5 C88.26,60.27 87.28,61.12 87.28,61.12 L76.18,70.15 L76.18,70.15 Z" id="Path" fill="#009846"></path>
            <path d="M30.64,41.9 C29.97,38.58 31.38,39.45 32.73,40.19 L45.6,49.96 C45.6,49.96 48.62,52.07 48.78,56.1 L49.08,63.4 C49.08,63.4 49.5,68.26 46.15,65.07 L33.98,54.65 C32.23,53.25 31.4,51.68 31.37,49.95 L30.64,41.9 L30.64,41.9 Z" id="Path" fill="#696969"></path>
            <path d="M15.88,27.56 L25.2,34.48 C25.2,34.48 26.54,35.54 26.95,36.28 C27.36,37 27.65,38.82 27.65,38.82 L28.46,47 C28.66,49.23 28.02,49.63 26.66,48.42 L17.38,40.78 C17.38,40.78 16.06,39.83 15.87,37.81 L14.59,29.1 C14.09,26.42 15.02,27.07 15.89,27.56 L15.88,27.56 Z" id="Path" fill="#696969"></path>
            <path d="M2.19999,17.54 L9.73,23.18 C10.91,23.9 11.83,25.02 12.1,27.12 L13.39,34.6 C13.39,34.6 14.07,38.01 12.1,36.16 L4.34999,30.08 C4.34999,30.08 3.12999,29.4 2.87999,27.5 L0.88999,18.85 C0.88999,18.85 0.00999,16.22 2.19999,17.53 L2.19999,17.54 Z" id="Path" fill="#696969"></path>
            <path d="M46.09,69.18 C46.09,69.18 47.77,70.58 48.29,71.55 C48.73,72.34 48.95,74.47 48.95,74.47 L49.13,80.79 C49.13,80.79 49.51,85.41 46.51,81.87 L35.23,71.05 C33.66,69.99 33.06,68.55 32.9,66.94 L32.1,59.63 C31.98,57.7 32.62,57.31 34.08,58.57 L46.08,69.17 L46.09,69.18 Z" id="Path" fill="#E31E24"></path>
            <path d="M18.7,44.48 L26.93,51.55 C28.07,52.41 29.03,53.61 29.37,55.88 L30.1,62.81 C30.38,64.69 30.08,65.49 28.5,63.93 L19.88,55.88 C19.14,55.44 18.52,54.65 18.26,52.92 L17.28,45.85 C16.81,43.92 17.04,43.07 18.7,44.48 L18.7,44.48 Z" id="Path" fill="#E31E24"></path>
            <path d="M5.47001,33.3 L12.88,39.88 C13.84,40.64 14.64,41.62 14.93,43.31 L15.88,49.96 C16.43,52.75 15.64,52.46 14.45,51.24 L7.42,44.37 C6.58001,43.87 6.22001,42.77 5.89001,41.63 L4.43001,34.48 C3.91001,32.23 4.67001,32.71 5.47001,33.29 L5.47001,33.3 Z" id="Path" fill="#E31E24"></path>
            <path d="M46.4,84.27 C46.4,84.27 49.03,86.73 48.81,88.87 L49.06,94.39 C49.04,95.6 49.06,96.89 47.48,95.12 L35.48,82.8 C34.68,82.26 34.21,81.25 34.08,79.79 L33.43,73.56 C33.26,72.19 33.42,71.35 34.8,72.56 L46.4,84.27 L46.4,84.27 Z" id="Path" fill="#E31E24"></path>
            <path d="M28.77,66.59 C29.75,67.54 30.6,68.66 30.83,70.62 L31.51,76.08 C31.65,77.57 31.81,79.07 30.14,77.05 L21.82,68.3 C21.04,67.7 20.63,66.74 20.47,65.55 L19.44,59.23 C19.12,57.73 19.48,57.48 20.47,58.42 L28.77,66.59 L28.77,66.59 Z" id="Path" fill="#E31E24"></path>
            <path d="M14.8,53.07 C16.04,54.11 17.02,55.25 17.3,56.64 L18.22,62.42 C18.57,63.98 18.69,65.16 16.85,63.22 L9.74,55.62 C8.8,54.84 8.99,54.32 8.66,53.69 L7.33,47.27 C6.85,45.33 7.43,45.77 8.13,46.47 L14.8,53.07 L14.8,53.07 Z" id="Path" fill="#E31E24"></path>
            <path d="M152.96,0.34 L205.57,24.07 C205.57,24.07 206.6,24.72 206.84,25.3 C207.08,25.88 206.84,27.66 206.84,27.66 L200.22,68.44 C200.22,68.44 200.02,69.49 199.71,70.04 C199.39,70.59 198.51,71.43 198.51,71.43 L166.87,98.53 C166.87,98.53 165.04,99.91 164.17,99.91 C163.32,99.91 161.7,98.52 161.7,98.52 L121.1,55.46 C121.1,55.46 120.75,55.12 120.63,54.9 C120.51,54.68 120.43,54.22 120.43,54.22 L112.21,16.24 C112.21,16.24 111.81,14.59 112.21,13.92 C112.6,13.24 114.21,12.79 114.21,12.79 L150.17,0.34 C150.17,0.34 151.11,0 151.58,0 C152.04,0 152.96,0.34 152.96,0.34 Z" id="Path" stroke="#000000" stroke-width="0.5" fill="#000000"></path>
            <path d="M189.94,25.78 L201.7,25.78 C201.7,25.78 203.02,25.85 203.17,26.06 C203.31,26.27 202.42,26.84 202.42,26.84 L191.67,33.44 C191.67,33.44 190.69,34.13 190.37,34.06 C190.04,33.99 189.94,33.09 189.94,33.09 L188.98,26.84 C188.98,26.84 188.88,26.14 189.04,25.94 C189.22,25.75 189.94,25.78 189.94,25.78 L189.94,25.78 Z" id="Path" fill="#696969"></path>
            <path d="M187.34,17.78 L188.34,22.74 C188.34,22.74 188.56,23.44 188.75,23.61 C189.18,23.96 189.69,23.87 189.69,23.87 L201.31,24.01 C201.31,24.01 202.54,24 202.56,23.87 C202.61,23.5 201.46,23.01 201.46,23.01 L188.69,17.36 C188.69,17.36 187.69,16.95 187.46,17.02 C187.24,17.09 187.34,17.78 187.34,17.78 L187.34,17.78 Z" id="Path" fill="#FFED00"></path>
            <path d="M166.74,39.48 L166.17,47.64 C166.17,47.64 166.05,48.76 166.39,48.96 C166.73,49.16 168.08,48.44 168.08,48.44 L181.6,39.93 C181.6,39.93 182.91,39.03 182.82,38.83 C182.62,38.36 180.98,38.44 180.98,38.44 L168.44,38.18 C168.44,38.18 167.34,38.21 167.05,38.48 C166.79,38.72 166.74,39.48 166.74,39.48 L166.74,39.48 Z" id="Path" fill="#696969"></path>
            <path d="M169.08,25.44 L183.58,25.64 C183.58,25.64 184.24,25.69 184.5,25.91 C184.77,26.13 184.95,26.81 184.95,26.81 L186.02,34.5 C186.21,35.57 185.71,36.1 184.51,36.06 L168.33,35.74 C166.98,35.77 166.46,35.19 166.69,34.07 L167.17,26.33 C167.17,26.33 167.45,25.76 167.69,25.64 C168.39,25.32 169.09,25.44 169.09,25.44 L169.08,25.44 Z" id="Path" fill="#696969"></path>
            <path d="M167.81,16.26 C167.81,15.56 168.21,15.32 168.87,15.34 L182.3,15.5 C183.26,15.46 183.56,15.9 183.61,16.5 L184.51,22.42 C184.68,23.42 184.21,23.78 183.36,23.79 L168.87,23.6 C167.95,23.63 167.37,23.28 167.52,22.16 L167.82,16.26 L167.81,16.26 Z" id="Path" fill="#FFED00"></path>
            <path d="M168.3,9.1 C168.24,8.25 168.67,8.1 169.47,8.5 L179.4,13.06 C180.42,13.56 181.27,14.02 179.4,14.06 L169.31,13.86 C168.47,13.86 168.25,13.36 168.29,12.64 L168.29,9.11 L168.3,9.1 Z" id="Path" fill="#696969"></path>
            <path d="M148.56,37.84 L160.48,38.18 C161.29,38.24 162.2,38.02 162.14,39.81 L161.8,47.37 C161.8,47.37 161.66,49.73 159.48,48.17 L148,39.59 C145.8,38.29 146.7,37.92 148.56,37.84 Z" id="Path" fill="#FFED00"></path>
            <path d="M148.61,25.14 L161.94,25.26 C162.98,25.23 163.62,25.59 163.48,26.67 L162.7,34.17 C162.65,35.11 162.21,35.62 161.2,35.49 L145.08,35.21 C143.98,35.21 143.54,34.77 144.02,33.72 L146.18,26.17 C146.18,26.17 146.29,24.94 148.61,25.14 L148.61,25.14 Z" id="Path" fill="#FFED00"></path>
            <path d="M150.75,14.9 C150.03,14.85 149.43,15 149.23,15.98 L147.77,21.61 C147.46,22.71 148.01,23.05 148.89,23.11 L162.27,23.42 C163.87,23.58 164.32,22.89 164.3,21.86 L164.63,16.56 C164.74,15.65 164.49,15.05 163.48,15.13 L150.75,14.89 L150.75,14.9 Z" id="Path" fill="#FFED00"></path>
            <path d="M152.76,6.9 C151.84,6.74 151.33,7.15 151.16,8 L150.1,12.09 C150.1,12.09 149.54,13.64 151.16,13.62 L163.1,13.72 C164.38,13.85 164.93,13.34 164.93,12.36 L165.29,8.29 C165.29,8.29 165.63,6.96 163.93,6.89 C162.22,6.82 152.76,6.89 152.76,6.89 L152.76,6.9 Z" id="Path" fill="#696969"></path>
            <path d="M152.77,1.67 L152.22,4.25 C151.92,5.2 152.19,5.71 153.22,5.65 L161.5,5.82 C163.37,5.91 163.07,5.52 161.95,4.92 L154.28,1.47 C153.65,1.23 152.91,0.69 152.77,1.67 L152.77,1.67 Z" id="Path" fill="#696969"></path>
            <path d="M130.4,24.8 L140.78,25.11 C142.06,25.08 142.53,25.55 142.15,26.56 L140.4,32.07 C140.08,33.37 139.22,33.22 137.64,32.07 L129.92,26.3 C128.07,24.98 128.87,24.73 130.4,24.8 Z" id="Path" fill="#696969"></path>
            <path d="M144.31,14.89 C145.55,14.82 145.8,15.37 145.52,16.25 L143.82,21.59 C143.54,22.67 142.81,23.16 141.66,23.12 L128.54,22.83 C127.17,22.83 126.64,22.39 127.36,21.27 L129.96,15.94 C130.34,14.74 131.27,14.52 132.37,14.58 L144.31,14.88 L144.31,14.89 Z" id="Path" fill="#FFED00"></path>
            <path d="M135.59,6.54 C134.99,6.52 134.4,6.58 134.09,7.31 L131.76,11.93 C131.17,12.87 131.71,13.16 132.69,13.2 L144.91,13.47 C146.54,13.6 146.77,12.95 146.87,12.23 L148.12,7.88 C148.32,7.22 148.29,6.67 147.12,6.68 L135.59,6.54 L135.59,6.54 Z" id="Path" fill="#696969"></path>
            <path d="M139.2,4.48 C137.94,4.97 137.26,5.37 139.2,5.41 L147.35,5.41 C148.83,5.51 148.81,4.95 149,4.48 L149.96,1.79 C150.26,0.890001 149.86,0.770001 149.06,1.09 L139.19,4.49 L139.2,4.48 Z" id="Path" fill="#696969"></path>
            <path d="M116.29,14.33 L125.55,14.57 C125.55,14.57 126.51,14.6 126.7,14.87 C126.9,15.14 126.56,16.01 126.56,16.01 L124.49,20.09 C124.04,21.14 123.39,21.59 122.23,20.48 L115.49,15.64 C113.9,14.55 114.99,14.41 116.29,14.34 L116.29,14.33 Z" id="Path" fill="#FFED00"></path>
            <path d="M117.07,12.14 L129.5,7.84 C130.37,7.54 130.99,7.46 130.48,8.38 L128.48,12.01 C128.17,12.62 127.71,13.09 126.78,13.03 L117.2,13.03 C115.12,13.03 116.16,12.57 117.07,12.13 L117.07,12.14 Z" id="Path" fill="#696969"></path>
            <path d="M169.72,51.56 L184.89,41.68 C184.89,41.68 186.53,40.53 186.95,40.85 C187.38,41.17 187.08,43.31 187.08,43.31 L186.43,52.74 C186.23,54.27 185.87,55.7 184.55,56.41 L169.72,67.11 C168.05,68.45 167.25,68.07 167.5,65.63 L167.5,55.38 C167.5,55.38 167.28,52.78 169.72,51.56 L169.72,51.56 Z" id="Path" fill="#696969"></path>
            <path d="M191.51,37.55 L203.93,29.51 C203.93,29.51 205.1,28.65 205.38,28.83 C205.66,29.01 205.38,30.45 205.38,30.45 L203.93,40.78 C203.93,40.78 203.69,41.94 203.37,42.42 C203.04,42.9 202.03,43.59 202.03,43.59 L190.53,52.03 C189.1,53.33 188.66,52.76 188.93,50.79 L189.71,40.77 C189.71,40.77 189.81,39.29 190.16,38.67 C190.51,38.07 191.51,37.55 191.51,37.55 L191.51,37.55 Z" id="Path" fill="#696969"></path>
            <path d="M169.2,70.46 L183.85,59.43 C183.85,59.43 185.11,58.41 185.46,58.6 C185.81,58.8 185.62,60.39 185.62,60.39 L184.87,68.67 C184.92,69.95 184.43,70.99 183.29,71.76 L169.19,83.14 C168.03,84.16 167.36,84.14 167.55,82.26 L167.55,73.52 C167.55,73.52 167.59,72.2 167.88,71.67 C168.16,71.14 169.19,70.47 169.19,70.47 L169.2,70.46 Z" id="Path" fill="#009846"></path>
            <path d="M188.1,58.77 C188.1,58.77 188.11,56.17 189.77,55.28 L201.65,46.48 C201.65,46.48 203.31,44.86 202.85,47.38 L201.48,56.2 C201.28,56.8 201.31,57.31 200.15,58.32 L188.87,67.51 C187.92,68.37 187.02,69.09 187.37,66.63 L188.1,58.77 L188.1,58.77 Z" id="Path" fill="#009846"></path>
            <path d="M168.16,86.2 C168.16,86.2 166.7,87.1 166.67,89.14 L166.45,95.29 C166.23,97.46 166.79,97.89 168.16,96.47 L181.56,85.17 C182.67,84.34 183.2,83.37 183.18,82.25 L183.9,75.5 C184.06,73.21 183.32,73.96 182.7,74.3 L168.16,86.2 L168.16,86.2 Z" id="Path" fill="#009846"></path>
            <path d="M188.18,70.15 C187.38,70.78 186.59,71.42 186.41,73.29 L185.61,79.52 C185.29,81.09 185.16,82.37 186.89,80.68 L198.04,71.25 C198.54,70.72 199.08,70.29 199.28,68.66 L200.41,62.23 C200.41,62.23 200.73,60.73 200.49,60.5 C200.26,60.27 199.28,61.12 199.28,61.12 L188.18,70.15 L188.18,70.15 Z" id="Path" fill="#009846"></path>
            <path d="M142.64,41.9 C141.97,38.58 143.38,39.45 144.73,40.19 L157.6,49.96 C157.6,49.96 160.62,52.07 160.78,56.1 L161.08,63.4 C161.08,63.4 161.5,68.26 158.15,65.07 L145.98,54.65 C144.23,53.25 143.4,51.68 143.37,49.95 L142.64,41.9 L142.64,41.9 Z" id="Path" fill="#696969"></path>
            <path d="M127.88,27.56 L137.2,34.48 C137.2,34.48 138.54,35.54 138.95,36.28 C139.36,37 139.65,38.82 139.65,38.82 L140.46,47 C140.66,49.23 140.02,49.63 138.66,48.42 L129.38,40.78 C129.38,40.78 128.06,39.83 127.87,37.81 L126.59,29.1 C126.09,26.42 127.03,27.07 127.89,27.56 L127.88,27.56 Z" id="Path" fill="#696969"></path>
            <path d="M114.2,17.54 L121.73,23.18 C122.91,23.9 123.83,25.02 124.1,27.12 L125.39,34.6 C125.39,34.6 126.07,38.01 124.1,36.16 L116.35,30.08 C116.35,30.08 115.13,29.4 114.88,27.51 L112.89,18.86 C112.89,18.86 112.01,16.23 114.2,17.54 L114.2,17.54 Z" id="Path" fill="#696969"></path>
            <path d="M158.09,69.18 C158.09,69.18 159.77,70.58 160.29,71.55 C160.73,72.34 160.96,74.47 160.96,74.47 L161.13,80.79 C161.13,80.79 161.51,85.41 158.51,81.87 L147.23,71.05 C145.66,69.99 145.06,68.55 144.9,66.94 L144.1,59.63 C143.98,57.7 144.62,57.31 146.08,58.57 L158.08,69.17 L158.09,69.18 Z" id="Path" fill="#E31E24"></path>
            <path d="M130.7,44.48 L138.93,51.55 C140.07,52.41 141.03,53.61 141.37,55.88 L142.1,62.81 C142.38,64.69 142.08,65.49 140.5,63.93 L131.88,55.88 C131.14,55.44 130.52,54.65 130.26,52.92 L129.28,45.85 C128.81,43.92 129.04,43.07 130.7,44.48 L130.7,44.48 Z" id="Path" fill="#E31E24"></path>
            <path d="M117.47,33.3 L124.88,39.88 C125.84,40.64 126.64,41.62 126.93,43.31 L127.88,49.96 C128.43,52.75 127.64,52.46 126.45,51.24 L119.42,44.37 C118.58,43.87 118.22,42.77 117.89,41.63 L116.43,34.48 C115.91,32.23 116.66,32.71 117.47,33.29 L117.47,33.3 Z" id="Path" fill="#E31E24"></path>
            <path d="M158.4,84.27 C158.4,84.27 161.03,86.73 160.81,88.87 L161.06,94.39 C161.04,95.6 161.06,96.89 159.48,95.12 L147.48,82.8 C146.68,82.26 146.21,81.25 146.08,79.79 L145.43,73.56 C145.26,72.19 145.42,71.35 146.8,72.56 L158.4,84.27 L158.4,84.27 Z" id="Path" fill="#E31E24"></path>
            <path d="M140.77,66.59 C141.75,67.54 142.6,68.66 142.83,70.62 L143.51,76.08 C143.65,77.57 143.81,79.07 142.14,77.05 L133.82,68.3 C133.04,67.7 132.63,66.74 132.47,65.55 L131.44,59.23 C131.12,57.73 131.48,57.48 132.47,58.42 L140.77,66.59 L140.77,66.59 Z" id="Path" fill="#E31E24"></path>
            <path d="M126.8,53.07 C128.04,54.11 129.02,55.25 129.3,56.64 L130.22,62.42 C130.57,63.98 130.69,65.16 128.84,63.22 L121.74,55.62 C120.8,54.84 120.99,54.32 120.66,53.69 L119.33,47.27 C118.85,45.33 119.43,45.77 120.13,46.47 L126.8,53.07 Z" id="Path" fill="#E31E24"></path>
        </g>
    </g>
</svg>