<?xml version="1.0" encoding="UTF-8"?>
<svg width="102px" height="102px" viewBox="0 0 102 102" version="1.1" xmlns="http://www.w3.org/2000/svg" xmlns:xlink="http://www.w3.org/1999/xlink">
    <title>brick_cube_9_1</title>
    <g id="Brick_cube" stroke="none" stroke-width="1" fill="none" fill-rule="evenodd">
        <g id="brick_cube_9_1" transform="translate(1.000000, 1.000000)" fill-rule="nonzero">
            <polygon id="Path" stroke="#000000" stroke-width="0.5" fill="#000000" points="60 0 100 40 40 100 0 60"></polygon>
            <g id="Group-8" transform="translate(3.539990, 3.540000)" fill="#FFED00">
                <path d="M40.31001,38.26 L52.61001,38.26 C53.75001,38.26 54.67001,39.17 54.67001,40.31 L54.67001,52.61 C54.67001,53.75 53.75001,54.67 52.61001,54.67 L40.31001,54.67 C39.17001,54.67 38.25001,53.75 38.25001,52.61 L38.25001,40.31 C38.25001,39.17 39.17001,38.25 40.31001,38.25 L40.31001,38.26 Z" id="Path"></path>
                <path d="M78.26001,39.79 C78.26001,38.94 78.94001,38.25 79.79001,38.25 L92.92001,38.25 L78.26001,53.17 L78.26001,39.79 Z" id="Path"></path>
                <path d="M60.31001,38.26 L72.61001,38.26 C73.75001,38.26 74.67001,39.17 74.67001,40.31 L74.67001,52.61 C74.67001,53.75 73.75001,54.67 72.61001,54.67 L60.31001,54.67 C59.17001,54.67 58.25001,53.75 58.25001,52.61 L58.25001,40.31 C58.25001,39.17 59.17001,38.25 60.31001,38.25 L60.31001,38.26 Z" id="Path"></path>
                <path d="M39.79001,78.26 C38.94001,78.26 38.25001,78.94 38.25001,79.79 L38.25001,92.92 L53.17001,78.26 L39.79001,78.26 Z" id="Path"></path>
                <path d="M38.26001,60.31 L38.26001,72.61 C38.26001,73.75 39.17001,74.67 40.31001,74.67 L52.61001,74.67 C53.75001,74.67 54.67001,73.75 54.67001,72.61 L54.67001,60.31 C54.67001,59.17 53.75001,58.25 52.61001,58.25 L40.31001,58.25 C39.17001,58.25 38.25001,59.17 38.25001,60.31 L38.26001,60.31 Z" id="Path"></path>
                <path d="M53.13001,14.66 C53.98001,14.66 54.67001,13.98 54.67001,13.13 L54.67001,5.32907052e-15 L39.75001,14.66 L53.13001,14.66 Z" id="Path"></path>
                <path d="M54.66001,32.61 L54.66001,20.31 C54.66001,19.17 53.75001,18.25 52.61001,18.25 L40.31001,18.25 C39.17001,18.25 38.25001,19.17 38.25001,20.31 L38.25001,32.61 C38.25001,33.75 39.17001,34.67 40.31001,34.67 L52.61001,34.67 C53.75001,34.67 54.67001,33.75 54.67001,32.61 L54.66001,32.61 Z" id="Path"></path>
                <path d="M14.66001,53.13 C14.66001,53.98 13.98001,54.67 13.13001,54.67 L0,54.67 L14.66001,39.75 L14.66001,53.13 Z" id="Path"></path>
                <path d="M32.61001,54.66 L20.31001,54.66 C19.17001,54.66 18.25001,53.75 18.25001,52.61 L18.25001,40.31 C18.25001,39.17 19.17001,38.25 20.31001,38.25 L32.61001,38.25 C33.75001,38.25 34.67001,39.17 34.67001,40.31 L34.67001,52.61 C34.67001,53.75 33.75001,54.67 32.61001,54.67 L32.61001,54.66 Z" id="Path"></path>
            </g>
            <polygon id="Path" fill="#E31E24" points="97.9 44 100.02 46.12 85.88 60.26 83.76 58.14"></polygon>
            <polygon id="Path" fill="#E31E24" points="58.14 84 60.26 86.12 46.12 100.26 44 98.14"></polygon>
            <polygon id="Path" fill="#EF7F1A" points="14.14 40 16.26 42.12 2.12 56.26 0 54.14"></polygon>
            <polygon id="Path" fill="#EF7F1A" points="54.14 0 56.26 2.12 42.12 16.26 40 14.14"></polygon>
        </g>
    </g>
</svg>