<?xml version="1.0" encoding="UTF-8"?>
<svg width="102px" height="102px" viewBox="0 0 102 102" version="1.1" xmlns="http://www.w3.org/2000/svg" xmlns:xlink="http://www.w3.org/1999/xlink">
    <title>brick_cube_3_4</title>
    <g id="Brick_cube" stroke="none" stroke-width="1" fill="none" fill-rule="evenodd">
        <g id="brick_cube_3_4" transform="translate(1.000000, 1.000000)" fill-rule="nonzero">
            <polygon id="Path" stroke="#000000" stroke-width="0.5" fill="#000000" points="60 0 100 40 40 100 0 60"></polygon>
            <g id="Group-3" transform="translate(3.000000, 3.000000)" fill="#FFFFFF">
                <path d="M40.85,38.8 L53.15,38.8 C54.29,38.8 55.21,39.71 55.21,40.85 L55.21,53.15 C55.21,54.29 54.29,55.21 53.15,55.21 L40.85,55.21 C39.71,55.21 38.79,54.29 38.79,53.15 L38.79,40.85 C38.79,39.71 39.71,38.79 40.85,38.79 L40.85,38.8 Z" id="Path"></path>
                <path d="M78.8,40.33 C78.8,39.48 79.48,38.79 80.33,38.79 L93.46,38.79 L78.8,53.71 L78.8,40.33 Z" id="Path"></path>
                <path d="M60.85,38.8 L73.15,38.8 C74.29,38.8 75.21,39.71 75.21,40.85 L75.21,53.15 C75.21,54.29 74.29,55.21 73.15,55.21 L60.85,55.21 C59.71,55.21 58.79,54.29 58.79,53.15 L58.79,40.85 C58.79,39.71 59.71,38.79 60.85,38.79 L60.85,38.8 Z" id="Path"></path>
                <path d="M40.33,78.8 C39.48,78.8 38.79,79.48 38.79,80.33 L38.79,93.46 L53.71,78.8 L40.33,78.8 Z" id="Path"></path>
                <path d="M38.8,60.85 L38.8,73.15 C38.8,74.29 39.71,75.21 40.85,75.21 L53.15,75.21 C54.29,75.21 55.21,74.29 55.21,73.15 L55.21,60.85 C55.21,59.71 54.29,58.79 53.15,58.79 L40.85,58.79 C39.71,58.79 38.79,59.71 38.79,60.85 L38.8,60.85 Z" id="Path"></path>
                <path d="M53.67,15.2 C54.52,15.2 55.21,14.52 55.21,13.67 L55.21,0.53999 L40.29,15.2 L53.67,15.2 Z" id="Path"></path>
                <path d="M55.2,33.15 L55.2,20.85 C55.2,19.71 54.29,18.79 53.15,18.79 L40.85,18.79 C39.71,18.79 38.79,19.71 38.79,20.85 L38.79,33.15 C38.79,34.29 39.71,35.21 40.85,35.21 L53.15,35.21 C54.29,35.21 55.21,34.29 55.21,33.15 L55.2,33.15 Z" id="Path"></path>
                <path d="M15.2,53.67 C15.2,54.52 14.52,55.21 13.67,55.21 L0.54,55.21 L15.2,40.29 L15.2,53.67 Z" id="Path"></path>
                <path d="M33.15,55.2 L20.85,55.2 C19.71,55.2 18.79,54.29 18.79,53.15 L18.79,40.85 C18.79,39.71 19.71,38.79 20.85,38.79 L33.15,38.79 C34.29,38.79 35.21,39.71 35.21,40.85 L35.21,53.15 C35.21,54.29 34.29,55.21 33.15,55.21 L33.15,55.2 Z" id="Path"></path>
            </g>
            <polygon id="Path" fill="#E31E24" points="97.9 44 100.02 46.12 85.88 60.26 83.76 58.14"></polygon>
            <polygon id="Path" fill="#EF7F1A" points="58.14 84 60.26 86.12 46.12 100.26 44 98.14"></polygon>
            <polygon id="Path" fill="#EF7F1A" points="14.14 40 16.26 42.12 2.12 56.26 0 54.14"></polygon>
            <polygon id="Path" fill="#E31E24" points="54.14 0 56.26 2.12 42.12 16.26 40 14.14"></polygon>
        </g>
    </g>
</svg>