<?xml version="1.0" encoding="UTF-8"?>
<svg width="97px" height="100px" viewBox="0 0 97 100" version="1.1" xmlns="http://www.w3.org/2000/svg" xmlns:xlink="http://www.w3.org/1999/xlink">
    <title>brick_cube_6_2</title>
    <g id="Brick_cube" stroke="none" stroke-width="1" fill="none" fill-rule="evenodd">
        <g id="brick_cube_6_2" fill-rule="nonzero">
            <polygon id="Path" fill="#000000" points="0 3.8 64.5 0 97 16.89 91.4 88.44 21.21 100 1.12 69.57 0 3.81"></polygon>
            <polygon id="Path" fill="#E31E24" points="1.37 51.83 6.06999 58.57 6.3 77.58 1.71 70.36"></polygon>
            <polygon id="Path" fill="#E31E24" points="6.92999 58.86 13.23 66.86 13.08 86.71 7.13999 78.02"></polygon>
            <polygon id="Path" fill="#E31E24" points="13.93 67.72 20.79 76.43 20.64 98.1 13.86 88.07"></polygon>
            <polygon id="Path" fill="#696969" points="0.47 29.22 6.23 34.97 6.13 55.17 0.93 48.53 0.47 29.23"></polygon>
            <polygon id="Path" fill="#E31E24" points="7.10001 36.08 13.02 42.66 13.22 63.92 7.10001 56.4"></polygon>
            <polygon id="Path" fill="#696969" points="13.86 43.67 20.79 51.35 20.65 74.05 14.06 65.47"></polygon>
            <polygon id="Path" fill="#696969" points="0.63 5.7 6.23 10.38 6.3 31.65 1.07 26"></polygon>
            <polygon id="Path" fill="#696969" points="6.92999 11.4 13.23 17.05 13.23 39.87 7.12999 33.1"></polygon>
            <polygon id="Path" fill="#696969" points="14.2 18.48 20.85 24.54 20.6 48.1 14.27 40.96 14.21 18.48"></polygon>
            <polygon id="Path" fill="#009846" points="71.7 70.56 91.33 67.72 89.83 87.95 70.55 91.14"></polygon>
            <polygon id="Path" fill="#009846" points="48 73.78 68.87 71.02 67.63 91.02 47.24 94.3"></polygon>
            <polygon id="Path" fill="#009846" points="22.81 77.19 44.72 74.05 44.24 95.11 22.68 98.73"></polygon>
            <polygon id="Path" fill="#696969" points="72.91 45.84 93.22 43.67 91.77 65.14 71.81 67.72"></polygon>
            <polygon id="Path" fill="#009846" points="48.82 48.85 70.55 46.2 69.39 68.04 48 70.78"></polygon>
            <polygon id="Path" fill="#696969" points="23.26 51.8 45.79 49.44 44.86 71.14 22.98 74.05"></polygon>
            <polygon id="Path" fill="#696969" points="74.34 20.78 95.11 19.35 93.29 40.91 73.2 43.1 74.33 20.79"></polygon>
            <polygon id="Path" fill="#696969" points="49.75 22.6 71.8 20.9 70.5 43.37 49.13 45.57"></polygon>
            <polygon id="Path" fill="#696969" points="23.61 25.21 46.51 23.35 45.76 46.37 23.21 48.67"></polygon>
            <polygon id="Path" fill="#696969" points="45.98 1.7 64.05 0.630001 71.8 4.7 52.77 5.7 45.97 1.7"></polygon>
            <polygon id="Path" fill="#696969" points="23.94 2.94 43.52 1.9 50.39 6.27 30.59 7.59"></polygon>
            <polygon id="Path" fill="#696969" points="1.89001 4.33 22.31 3.16 28.34 7.63 7.24001 8.86"></polygon>
            <polygon id="Path" fill="#696969" points="8.19 9.58 29.05 8.23 36.53 13.56 14.56 15.19"></polygon>
            <polygon id="Path" fill="#F8E71C" points="32.12 8.38 51.7 6.96 59.84 11.81 39.31 13.29"></polygon>
            <polygon id="Path" fill="#E31E24" points="54.17 6.76 73.16 5.7 82.51 10.2 62.5 11.4"></polygon>
            <polygon id="Path" fill="#696969" points="64.25 12.6 84.41 11.4 95.11 16.68 73.91 18.35"></polygon>
            <polygon id="Path" fill="#696969" points="40.31 14.13 61.68 12.66 71.18 18.56 48.91 20.26"></polygon>
            <polygon id="Path" fill="#696969" points="15.12 16.04 37.75 14.56 45.98 20.54 22.52 22.15"></polygon>
            <path d="M34.63,59.4 L43.72,55.33 C44.22,55.11 44.82,55.33 45.04,55.83 C45.26,56.34 45.04,56.93 44.54,57.16 L31.96,62.78 C31.25,63.09 30.46,62.51 30.56,61.74 L32.29,48.08 C32.36,47.53 32.86,47.14 33.41,47.21 C33.95,47.28 34.34,47.78 34.27,48.33 L33.02,58.2 L37.84,51.7 L71,7 C71.33,6.56 71.96,6.46 72.4,6.8 C72.84,7.12 72.94,7.75 72.6,8.2 L39.46,52.9 L34.64,59.4 L34.63,59.4 Z" id="Path" fill="#FFFFFF"></path>
        </g>
    </g>
</svg>