<?xml version="1.0" encoding="UTF-8"?>
<svg width="102px" height="102px" viewBox="0 0 102 102" version="1.1" xmlns="http://www.w3.org/2000/svg" xmlns:xlink="http://www.w3.org/1999/xlink">
    <title>brick_cube_3_1</title>
    <g id="Brick_cube" stroke="none" stroke-width="1" fill="none" fill-rule="evenodd">
        <g id="brick_cube_3_1" transform="translate(1.000000, 1.000000)" fill-rule="nonzero">
            <polygon id="Path" stroke="#000000" stroke-width="0.5" fill="#000000" points="60 0 100 40 40 100 0 60"></polygon>
            <path d="M43.85,41.8 L56.15,41.8 C57.29,41.8 58.21,42.71 58.21,43.85 L58.21,56.15 C58.21,57.29 57.29,58.21 56.15,58.21 L43.85,58.21 C42.71,58.21 41.79,57.29 41.79,56.15 L41.79,43.85 C41.79,42.71 42.71,41.79 43.85,41.79 L43.85,41.8 Z" id="Path" fill="#FFFFFF"></path>
            <path d="M81.8,43.33 C81.8,42.48 82.48,41.79 83.33,41.79 L96.46,41.79 L81.8,56.71 L81.8,43.33 Z" id="Path" fill="#FFFFFF"></path>
            <path d="M63.85,41.8 L76.15,41.8 C77.29,41.8 78.21,42.71 78.21,43.85 L78.21,56.15 C78.21,57.29 77.29,58.21 76.15,58.21 L63.85,58.21 C62.71,58.21 61.79,57.29 61.79,56.15 L61.79,43.85 C61.79,42.71 62.71,41.79 63.85,41.79 L63.85,41.8 Z" id="Path" fill="#FFFFFF"></path>
            <path d="M43.33,81.8 C42.48,81.8 41.79,82.48 41.79,83.33 L41.79,96.46 L56.71,81.8 L43.33,81.8 Z" id="Path" fill="#FFFFFF"></path>
            <path d="M41.8,63.85 L41.8,76.15 C41.8,77.29 42.71,78.21 43.85,78.21 L56.15,78.21 C57.29,78.21 58.21,77.29 58.21,76.15 L58.21,63.85 C58.21,62.71 57.29,61.79 56.15,61.79 L43.85,61.79 C42.71,61.79 41.79,62.71 41.79,63.85 L41.8,63.85 Z" id="Path" fill="#FFFFFF"></path>
            <path d="M56.67,18.2 C57.52,18.2 58.21,17.52 58.21,16.67 L58.21,3.54001 L43.29,18.2 L56.67,18.2 Z" id="Path" fill="#FFFFFF"></path>
            <path d="M58.2,36.15 L58.2,23.85 C58.2,22.71 57.29,21.79 56.15,21.79 L43.85,21.79 C42.71,21.79 41.79,22.71 41.79,23.85 L41.79,36.15 C41.79,37.29 42.71,38.21 43.85,38.21 L56.15,38.21 C57.29,38.21 58.21,37.29 58.21,36.15 L58.2,36.15 Z" id="Path" fill="#FFFFFF"></path>
            <path d="M18.2,56.67 C18.2,57.52 17.52,58.21 16.67,58.21 L3.53998,58.21 L18.2,43.29 L18.2,56.67 Z" id="Path" fill="#FFFFFF"></path>
            <path d="M36.15,58.2 L23.85,58.2 C22.71,58.2 21.79,57.29 21.79,56.15 L21.79,43.85 C21.79,42.71 22.71,41.79 23.85,41.79 L36.15,41.79 C37.29,41.79 38.21,42.71 38.21,43.85 L38.21,56.15 C38.21,57.29 37.29,58.21 36.15,58.21 L36.15,58.2 Z" id="Path" fill="#FFFFFF"></path>
            <polygon id="Path" fill="#E31E24" points="97.9 44 100.02 46.12 85.88 60.26 83.76 58.14"></polygon>
            <polygon id="Path" fill="#E31E24" points="58.14 84 60.26 86.12 46.12 100.26 44 98.14"></polygon>
            <polygon id="Path" fill="#EF7F1A" points="14.14 40 16.26 42.12 2.12 56.26 0 54.14"></polygon>
            <polygon id="Path" fill="#EF7F1A" points="54.14 0 56.26 2.12 42.12 16.26 40 14.14"></polygon>
        </g>
    </g>
</svg>