<?xml version="1.0" encoding="UTF-8"?>
<svg width="209px" height="100px" viewBox="0 0 209 100" version="1.1" xmlns="http://www.w3.org/2000/svg" xmlns:xlink="http://www.w3.org/1999/xlink">
    <title>brick_cube_2_1</title>
    <g id="Brick_cube" stroke="none" stroke-width="1" fill="none" fill-rule="evenodd">
        <g id="brick_cube_2_1" fill-rule="nonzero">
            <polygon id="Path" fill="#000000" points="0.09 19.28 9.19 80.88 63.83 99.92 97.75 67.42 97.75 7.50001 42.65 0.140015 0.08 19.28"></polygon>
            <polygon id="Path" fill="#696969" points="61.03 32.18 73.35 24.3 74.04 45 61.96 54.18"></polygon>
            <polygon id="Path" fill="#696969" points="74.94 23.14 86.14 16.14 86.14 36.08 75.66 43.66"></polygon>
            <polygon id="Path" fill="#696969" points="87.69 15.25 96.92 9.35001 96.92 28.2 87.69 35.34"></polygon>
            <polygon id="Path" fill="#696969" points="62.38 56.8 74.16 47.87 74.79 66.61 63.5 76.51 62.38 56.81"></polygon>
            <polygon id="Path" fill="#EF7F1A" points="75.93 46.33 86.26 38.45 86.57 56.95 76.37 65.57"></polygon>
            <polygon id="Path" fill="#696969" points="88.02 37.4 96.86 30.55 96.86 48.14 88.06 55.77 88.02 37.39"></polygon>
            <polygon id="Path" fill="#696969" points="63.65 79.2 75.05 69.3 75.59 87.3 64.47 97.78 63.65 79.19"></polygon>
            <polygon id="Path" fill="#696969" points="76.6 67.85 86.72 59.31 86.72 76.68 76.92 85.99"></polygon>
            <polygon id="Path" fill="#696969" points="88.2 58.15 96.92 50.49 97 66.96 88.2 75.36"></polygon>
            <polygon id="Path" fill="#696969" points="43.44 74.08 61.32 79.73 62.48 98.39 44.93 92.17"></polygon>
            <polygon id="Path" fill="#696969" points="24.53 68.27 41.07 73.57 42.7 91.56 26.67 85.98 24.53 68.28"></polygon>
            <polygon id="Path" fill="#696969" points="7.36 63.07 22.45 67.79 24.46 85.13 9.86 80.08"></polygon>
            <polygon id="Path" fill="#696969" points="39.55 28.62 58.74 32.72 59.76 54.45 41.19 49.75"></polygon>
            <polygon id="Path" fill="#696969" points="19.28 24.53 36.81 28.19 38.93 49.2 21.68 44.83"></polygon>
            <polygon id="Path" fill="#696969" points="1.25999 20.93 17.1 24.14 19.4 44.16 4.10999 40.48"></polygon>
            <polygon id="Path" fill="#FFFFFF" points="41.66 52.4 60.12 57.22 61.1 77.17 43 71.73 41.67 52.4"></polygon>
            <polygon id="Path" fill="#0062AC" points="22.14 47.39 39.2 51.6 40.81 71.02 24.41 66.05 22.13 47.39"></polygon>
            <polygon id="Path" fill="#696969" points="4.27 42.5 19.87 46.85 22.15 65.42 7 60.86 4.27 42.51"></polygon>
            <polygon id="Path" fill="#696969" points="53.1 19.43 71.72 22.7 59.36 30.58 39.89 26.72 53.11 19.42"></polygon>
            <polygon id="Path" fill="#696969" points="66.32 11.92 84.4 14.77 73.43 21.69 54.81 18.39 66.31 11.92"></polygon>
            <polygon id="Path" fill="#696969" points="78.21 5.50999 95.69 7.93999 86.02 13.91 68.28 11.16"></polygon>
            <polygon id="Path" fill="#696969" points="59.65 2.98001 75.66 5.20001 65.54 10.9 48.75 8.30001 59.65 3.00001"></polygon>
            <polygon id="Path" fill="#FFFFFF" points="47.34 9.07001 63.94 11.67 52.35 18 35.35 15.03 47.35 9.07001"></polygon>
            <polygon id="Path" fill="#696969" points="33.53 15.85 50.83 18.85 37.47 26.23 19.88 22.71"></polygon>
            <polygon id="Path" fill="#696969" points="15.85 12.85 31.27 15.53 17.76 22.21 2.10001 19.07 15.84 12.85"></polygon>
            <polygon id="Path" fill="#696969" points="29.96 6.38 45.32 8.69 33.14 14.73 17.63 12.02"></polygon>
            <polygon id="Path" fill="#696969" points="42.73 0.660004 57.37 2.7 46.72 7.96 31.68 5.69"></polygon>
            <polygon id="Path" fill="#000000" points="111.08 19.28 120.18 80.88 174.83 99.92 208.75 67.42 208.75 7.50001 153.65 0.140015"></polygon>
            <polygon id="Path" fill="#696969" points="172.03 32.18 184.35 24.3 185.04 45 172.96 54.18"></polygon>
            <polygon id="Path" fill="#696969" points="185.94 23.14 197.14 16.14 197.14 36.08 186.66 43.66"></polygon>
            <polygon id="Path" fill="#696969" points="198.69 15.25 207.92 9.35001 207.92 28.2 198.69 35.34"></polygon>
            <polygon id="Path" fill="#696969" points="173.38 56.8 185.16 47.87 185.79 66.61 174.5 76.51 173.38 56.81"></polygon>
            <polygon id="Path" fill="#EF7F1A" points="186.93 46.33 197.26 38.45 197.57 56.95 187.37 65.57"></polygon>
            <polygon id="Path" fill="#696969" points="199.02 37.4 207.86 30.55 207.86 48.14 199.06 55.77 199.02 37.39"></polygon>
            <polygon id="Path" fill="#696969" points="174.66 79.2 186.05 69.3 186.59 87.3 175.46 97.78 174.66 79.19"></polygon>
            <polygon id="Path" fill="#696969" points="187.6 67.85 197.72 59.31 197.72 76.68 187.92 85.99"></polygon>
            <polygon id="Path" fill="#696969" points="199.2 58.15 207.92 50.49 208.01 66.96 199.21 75.36 199.21 58.15"></polygon>
            <polygon id="Path" fill="#696969" points="154.44 74.08 172.32 79.73 173.48 98.39 155.93 92.17"></polygon>
            <polygon id="Path" fill="#696969" points="135.53 68.27 152.07 73.57 153.7 91.56 137.67 85.98 135.53 68.28"></polygon>
            <polygon id="Path" fill="#696969" points="118.36 63.07 133.44 67.79 135.46 85.13 120.86 80.08"></polygon>
            <polygon id="Path" fill="#696969" points="150.54 28.62 169.74 32.72 170.76 54.45 152.19 49.75"></polygon>
            <polygon id="Path" fill="#696969" points="130.28 24.53 147.81 28.19 149.93 49.2 132.68 44.83"></polygon>
            <polygon id="Path" fill="#696969" points="112.26 20.93 128.1 24.14 130.4 44.16 115.11 40.48"></polygon>
            <polygon id="Path" fill="#696969" points="152.66 52.4 171.12 57.22 172.1 77.17 154 71.73 152.66 52.41"></polygon>
            <polygon id="Path" fill="#0062AC" points="133.14 47.39 150.21 51.6 151.82 71.02 135.42 66.05"></polygon>
            <polygon id="Path" fill="#696969" points="115.27 42.5 130.87 46.85 133.15 65.42 118 60.86 115.26 42.51"></polygon>
            <polygon id="Path" fill="#696969" points="164.1 19.43 182.72 22.7 170.36 30.58 150.89 26.72 164.11 19.42"></polygon>
            <polygon id="Path" fill="#FFFFFF" points="177.32 11.92 195.4 14.77 184.43 21.69 165.81 18.39 177.31 11.92"></polygon>
            <polygon id="Path" fill="#696969" points="189.21 5.50999 206.69 7.93999 197.02 13.91 179.28 11.16"></polygon>
            <polygon id="Path" fill="#696969" points="170.65 2.98001 186.66 5.20001 176.54 10.89 159.75 8.29001 170.65 2.99001"></polygon>
            <polygon id="Path" fill="#FFFFFF" points="158.34 9.07001 174.94 11.67 163.34 18 146.34 15.03"></polygon>
            <polygon id="Path" fill="#696969" points="144.53 15.85 161.83 18.85 148.47 26.23 130.88 22.71"></polygon>
            <polygon id="Path" fill="#696969" points="126.85 12.85 142.27 15.53 128.75 22.21 113.11 19.07"></polygon>
            <polygon id="Path" fill="#696969" points="140.96 6.38 156.32 8.69 144.15 14.73 128.63 12.02"></polygon>
            <polygon id="Path" fill="#696969" points="153.73 0.660004 168.37 2.7 157.72 7.96 142.68 5.69"></polygon>
            <path d="M48.65,62.94 C48.66,63.49 49.12,63.94 49.67,63.92 C50.22,63.92 50.67,63.46 50.65,62.91 L48.65,62.94 Z M70.55,16.44 C70.72,15.92 70.43,15.36 69.9,15.19 L61.32,12.49 C60.79,12.33 60.22,12.62 60.06,13.15 C59.9,13.68 60.19,14.24 60.72,14.4 L68.35,16.8 L65.95,24.43 C65.79,24.96 66.08,25.53 66.61,25.69 C67.13,25.85 67.69,25.56 67.86,25.03 L70.56,16.45 L70.55,16.44 Z M49.65,62.93 L50.65,62.91 L50.65,62.89 L50.65,62.85 L50.65,62.65 L50.65,61.93 L50.65,59.24 C50.68,56.98 50.75,53.88 50.93,50.51 C51.11,47.15 51.41,43.52 51.89,40.21 C52.37,36.89 53.02,33.96 53.89,31.92 L52.04,31.14 C51.07,33.42 50.39,36.56 49.91,39.93 C49.41,43.32 49.11,47 48.93,50.41 C48.75,53.81 48.68,56.94 48.65,59.22 L48.65,62.94 L49.65,62.93 Z M53.88,31.93 C55.61,27.87 59.58,24.16 63.26,21.41 C65.08,20.05 66.79,18.95 68.04,18.2 C68.66,17.82 69.17,17.53 69.53,17.33 L69.93,17.11 L70.03,17.05 L70.06,17.04 L69.6,16.14 L69.14,15.26 L69.13,15.26 L69.1,15.28 L68.98,15.35 L68.55,15.58 C68.18,15.78 67.65,16.09 67,16.48 C65.71,17.27 63.95,18.4 62.06,19.81 C58.33,22.6 53.99,26.58 52.04,31.14 L53.88,31.92 L53.88,31.93 Z" id="Shape" fill="#FFFFFF"></path>
        </g>
    </g>
</svg>