<?xml version="1.0" encoding="UTF-8"?>
<svg width="209px" height="100px" viewBox="0 0 209 100" version="1.1" xmlns="http://www.w3.org/2000/svg" xmlns:xlink="http://www.w3.org/1999/xlink">
    <title>brick_cube_2_2</title>
    <g id="Brick_cube" stroke="none" stroke-width="1" fill="none" fill-rule="evenodd">
        <g id="brick_cube_2_2" fill-rule="nonzero">
            <polygon id="Path" fill="#000000" points="0.08999 19.28 9.19 80.88 63.83 99.92 97.75 67.42 97.75 7.50001 42.65 0.140015 0.07999 19.28"></polygon>
            <polygon id="Path" fill="#696969" points="61.03 32.18 73.35 24.3 74.04 45 61.96 54.18"></polygon>
            <polygon id="Path" fill="#696969" points="74.94 23.14 86.14 16.14 86.14 36.08 75.66 43.66"></polygon>
            <polygon id="Path" fill="#696969" points="87.69 15.25 96.92 9.35001 96.92 28.2 87.69 35.34"></polygon>
            <polygon id="Path" fill="#696969" points="62.38 56.8 74.16 47.87 74.79 66.61 63.5 76.51 62.38 56.81"></polygon>
            <polygon id="Path" fill="#EF7F1A" points="75.93 46.33 86.26 38.45 86.57 56.95 76.37 65.57"></polygon>
            <polygon id="Path" fill="#696969" points="88.02 37.4 96.86 30.55 96.86 48.14 88.06 55.77 88.02 37.39"></polygon>
            <polygon id="Path" fill="#696969" points="63.65 79.2 75.05 69.3 75.59 87.3 64.47 97.78 63.65 79.19"></polygon>
            <polygon id="Path" fill="#696969" points="76.6 67.85 86.72 59.31 86.72 76.68 76.92 85.99"></polygon>
            <polygon id="Path" fill="#696969" points="88.2 58.15 96.92 50.49 97 66.96 88.2 75.36"></polygon>
            <polygon id="Path" fill="#696969" points="43.44 74.08 61.32 79.73 62.48 98.39 44.93 92.17"></polygon>
            <polygon id="Path" fill="#FFFFFF" points="24.53 68.27 41.07 73.57 42.7 91.56 26.67 85.98 24.53 68.28"></polygon>
            <polygon id="Path" fill="#696969" points="7.35999 63.07 22.45 67.79 24.46 85.13 9.86 80.08"></polygon>
            <polygon id="Path" fill="#696969" points="39.55 28.62 58.74 32.72 59.76 54.45 41.19 49.75"></polygon>
            <polygon id="Path" fill="#FFFFFF" points="19.28 24.53 36.81 28.19 38.93 49.2 21.68 44.83"></polygon>
            <polygon id="Path" fill="#696969" points="1.26001 20.93 17.1 24.14 19.4 44.16 4.11001 40.48"></polygon>
            <polygon id="Path" fill="#696969" points="41.66 52.4 60.12 57.22 61.1 77.17 43 71.73 41.67 52.4"></polygon>
            <polygon id="Path" fill="#0062AC" points="22.14 47.39 39.2 51.6 40.81 71.02 24.41 66.05 22.13 47.39"></polygon>
            <polygon id="Path" fill="#696969" points="4.26999 42.5 19.87 46.85 22.15 65.42 6.99999 60.86 4.26999 42.51"></polygon>
            <polygon id="Path" fill="#696969" points="53.1 19.43 71.72 22.7 59.36 30.58 39.89 26.72 53.11 19.42"></polygon>
            <polygon id="Path" fill="#696969" points="66.32 11.92 84.4 14.77 73.43 21.69 54.81 18.39 66.31 11.92"></polygon>
            <polygon id="Path" fill="#696969" points="78.21 5.50999 95.69 7.93999 86.02 13.91 68.28 11.16"></polygon>
            <polygon id="Path" fill="#696969" points="59.65 2.98001 75.66 5.20001 65.54 10.9 48.75 8.30001 59.65 3.00001"></polygon>
            <polygon id="Path" fill="#FFFFFF" points="47.34 9.07001 63.94 11.67 52.35 18 35.35 15.03 47.35 9.07001"></polygon>
            <polygon id="Path" fill="#696969" points="33.53 15.85 50.83 18.85 37.47 26.23 19.88 22.71"></polygon>
            <polygon id="Path" fill="#696969" points="15.85 12.85 31.27 15.53 17.76 22.21 2.10001 19.07 15.84 12.85"></polygon>
            <polygon id="Path" fill="#696969" points="29.96 6.38 45.32 8.69 33.14 14.73 17.63 12.02"></polygon>
            <polygon id="Path" fill="#696969" points="42.73 0.660004 57.37 2.7 46.72 7.96 31.68 5.69"></polygon>
            <polygon id="Path" fill="#000000" points="111.08 19.28 120.18 80.88 174.83 99.92 208.75 67.42 208.75 7.50001 153.65 0.140015"></polygon>
            <polygon id="Path" fill="#696969" points="172.03 32.18 184.35 24.3 185.04 45 172.96 54.18"></polygon>
            <polygon id="Path" fill="#696969" points="185.94 23.14 197.14 16.14 197.14 36.08 186.66 43.66"></polygon>
            <polygon id="Path" fill="#696969" points="198.69 15.25 207.92 9.35001 207.92 28.2 198.69 35.34"></polygon>
            <polygon id="Path" fill="#696969" points="173.38 56.8 185.16 47.87 185.79 66.61 174.5 76.51 173.38 56.81"></polygon>
            <polygon id="Path" fill="#EF7F1A" points="186.93 46.33 197.26 38.45 197.57 56.95 187.37 65.57"></polygon>
            <polygon id="Path" fill="#696969" points="199.02 37.4 207.86 30.55 207.86 48.14 199.06 55.77 199.02 37.39"></polygon>
            <polygon id="Path" fill="#696969" points="174.66 79.2 186.05 69.3 186.59 87.3 175.46 97.78 174.66 79.19"></polygon>
            <polygon id="Path" fill="#696969" points="187.6 67.85 197.72 59.31 197.72 76.68 187.92 85.99"></polygon>
            <polygon id="Path" fill="#696969" points="199.2 58.15 207.92 50.49 208.01 66.96 199.21 75.36 199.21 58.15"></polygon>
            <polygon id="Path" fill="#696969" points="154.44 74.08 172.32 79.73 173.48 98.39 155.93 92.17"></polygon>
            <polygon id="Path" fill="#696969" points="135.53 68.27 152.07 73.57 153.7 91.56 137.67 85.98 135.53 68.28"></polygon>
            <polygon id="Path" fill="#696969" points="118.36 63.07 133.44 67.79 135.46 85.13 120.86 80.08"></polygon>
            <polygon id="Path" fill="#696969" points="150.54 28.62 169.74 32.72 170.76 54.45 152.19 49.75"></polygon>
            <polygon id="Path" fill="#696969" points="130.28 24.53 147.81 28.19 149.93 49.2 132.68 44.83"></polygon>
            <polygon id="Path" fill="#696969" points="112.26 20.93 128.1 24.14 130.4 44.16 115.11 40.48"></polygon>
            <polygon id="Path" fill="#FFFFFF" points="152.66 52.4 171.12 57.22 172.1 77.17 154 71.73 152.66 52.41"></polygon>
            <path d="M29.08,35.86 C28.53,35.88 28.08,36.34 28.1,36.89 C28.12,37.44 28.58,37.88 29.13,37.86 L29.08,35.86 Z M50.12,62.9 C50.51,63.29 51.14,63.3 51.53,62.9 L57.91,56.55 C58.3,56.15 58.3,55.52 57.91,55.13 C57.52,54.74 56.89,54.74 56.5,55.13 L50.83,60.78 L45.18,55.11 C44.79,54.72 44.16,54.72 43.77,55.11 C43.37,55.51 43.37,56.13 43.77,56.53 L50.12,62.9 L50.12,62.9 Z M29.1,36.86 L29.13,37.86 L29.7,37.86 C30.07,37.86 30.6,37.86 31.27,37.89 C32.59,37.93 34.39,38.04 36.3,38.31 C38.23,38.57 40.24,38.99 42,39.63 C43.77,40.28 45.19,41.11 46.03,42.16 L47.59,40.91 C46.41,39.45 44.6,38.45 42.69,37.75 C40.74,37.05 38.58,36.6 36.58,36.33 C34.58,36.05 32.7,35.93 31.34,35.89 L29.7,35.86 L29.08,35.86 L29.1,36.86 L29.1,36.86 Z M46.03,42.16 C46.91,43.26 47.62,45 48.18,47.13 C48.73,49.24 49.09,51.61 49.34,53.86 C49.59,56.1 49.71,58.18 49.77,59.71 L49.82,61.53 L49.82,62.19 L51.82,62.19 L51.82,62.15 L51.82,62 L51.82,61.48 C51.82,61.04 51.8,60.4 51.77,59.62 C51.71,58.06 51.58,55.92 51.33,53.62 C51.08,51.33 50.69,48.86 50.11,46.62 C49.53,44.41 48.74,42.32 47.59,40.9 L46.03,42.15 L46.03,42.16 Z" id="Shape" fill="#FFFFFF"></path>
            <path d="M28.96,80.9 C29.51,80.98 30.01,80.6 30.09,80.06 C30.17,79.51 29.79,79 29.25,78.93 L28.96,80.9 Z M14.76,55.05 C14.36,54.67 13.72,54.69 13.34,55.09 L7.15001,61.62 C6.77001,62.02 6.79001,62.65 7.19001,63.03 C7.59001,63.41 8.22001,63.4 8.60001,63 L14.1,57.19 L19.91,62.69 C20.31,63.07 20.95,63.05 21.33,62.65 C21.71,62.25 21.69,61.62 21.29,61.24 L14.75,55.04 L14.76,55.05 Z M29.1,79.92 L29.25,78.92 L29.15,78.92 L28.9,78.87 L27.94,78.69 C27.14,78.53 26.03,78.27 24.83,77.9 C22.37,77.15 19.75,76 18.38,74.4 L16.86,75.7 C18.64,77.77 21.76,79.05 24.24,79.81 C25.52,80.21 26.69,80.48 27.54,80.65 L28.56,80.85 L28.84,80.89 L28.92,80.9 L28.95,80.9 L29.09,79.92 L29.1,79.92 Z M18.4,74.4 C17.77,73.68 17.2,72.23 16.72,70.26 C16.25,68.34 15.91,66.09 15.66,63.93 C15.42,61.77 15.26,59.73 15.18,58.21 L15.08,56.41 L15.07,55.91 L15.07,55.8 L15.07,55.77 L15.07,55.76 L14.07,55.78 L13.07,55.81 L13.07,55.99 L13.09,56.5 L13.19,58.34 C13.27,59.87 13.42,61.96 13.68,64.16 C13.93,66.36 14.28,68.7 14.78,70.74 C15.26,72.73 15.92,74.6 16.88,75.71 L18.39,74.41 L18.4,74.4 Z" id="Shape" fill="#FFFFFF"></path>
            <polygon id="Path" fill="#0062AC" points="133.14 47.39 150.21 51.6 151.82 71.02 135.42 66.05"></polygon>
            <polygon id="Path" fill="#FFFFFF" points="115.27 42.5 130.87 46.85 133.15 65.42 118 60.86 115.26 42.51"></polygon>
            <polygon id="Path" fill="#696969" points="164.1 19.43 182.72 22.7 170.36 30.58 150.89 26.72 164.11 19.42"></polygon>
            <polygon id="Path" fill="#696969" points="177.32 11.92 195.4 14.77 184.43 21.69 165.81 18.39 177.31 11.92"></polygon>
            <polygon id="Path" fill="#696969" points="189.21 5.50999 206.69 7.93999 197.02 13.91 179.28 11.16"></polygon>
            <polygon id="Path" fill="#696969" points="170.65 2.98001 186.66 5.20001 176.54 10.89 159.75 8.29001 170.65 2.99001"></polygon>
            <polygon id="Path" fill="#FFFFFF" points="158.34 9.07001 174.94 11.67 163.34 18 146.34 15.03"></polygon>
            <polygon id="Path" fill="#696969" points="144.53 15.85 161.83 18.85 148.47 26.23 130.88 22.71"></polygon>
            <polygon id="Path" fill="#696969" points="126.85 12.85 142.27 15.53 128.75 22.21 113.11 19.07"></polygon>
            <polygon id="Path" fill="#696969" points="140.96 6.38 156.32 8.69 144.15 14.73 128.63 12.02"></polygon>
            <polygon id="Path" fill="#696969" points="153.73 0.660004 168.37 2.7 157.72 7.96 142.68 5.69"></polygon>
        </g>
    </g>
</svg>