<?xml version="1.0" encoding="UTF-8"?>
<svg width="102px" height="102px" viewBox="0 0 102 102" version="1.1" xmlns="http://www.w3.org/2000/svg" xmlns:xlink="http://www.w3.org/1999/xlink">
    <title>brick_cube_9_3</title>
    <g id="Brick_cube" stroke="none" stroke-width="1" fill="none" fill-rule="evenodd">
        <g id="brick_cube_9_3" fill-rule="nonzero">
            <polygon id="Path" stroke="#000000" stroke-width="0.5" fill="#000000" points="41 101 1 61 61 1 101 41"></polygon>
            <polygon id="Path" fill="#000000" points="61 41 81 41 101 61 61 61 61 101 41 81 41 61 1 61 21 41 41 41 41 21 61 1"></polygon>
            <g id="Group-6" transform="translate(5.210000, 4.540000)" fill="#FFED00">
                <path d="M51.94,54.66 L39.64,54.66 C38.5,54.66 37.58,53.75 37.58,52.61 L37.58,40.31 C37.58,39.17 38.5,38.25 39.64,38.25 L51.94,38.25 C53.08,38.25 54,39.17 54,40.31 L54,52.61 C54,53.75 53.08,54.67 51.94,54.67 L51.94,54.66 Z" id="Path"></path>
                <path d="M14.67,53.04 C14.67,53.89 13.98,54.58 13.13,54.58 L-1.95399252e-14,54.58 L14.67,39.67 L14.67,53.04 L14.67,53.04 Z" id="Path"></path>
                <path d="M31.94,54.66 L19.64,54.66 C18.5,54.66 17.58,53.75 17.58,52.61 L17.58,40.31 C17.58,39.17 18.5,38.25 19.64,38.25 L31.94,38.25 C33.08,38.25 34,39.17 34,40.31 L34,52.61 C34,53.75 33.08,54.67 31.94,54.67 L31.94,54.66 Z" id="Path"></path>
                <path d="M52.46,14.66 C53.31,14.66 54,13.98 54,13.13 L54,-1.59872116e-14 L39.08,14.66 L52.46,14.66 Z" id="Path"></path>
                <path d="M53.99,32.61 L53.99,20.31 C53.99,19.17 53.08,18.25 51.94,18.25 L39.64,18.25 C38.5,18.25 37.58,19.17 37.58,20.31 L37.58,32.61 C37.58,33.75 38.5,34.67 39.64,34.67 L51.94,34.67 C53.08,34.67 54,33.75 54,32.61 L53.99,32.61 Z" id="Path"></path>
                <path d="M52.25,77.79 C53.1,77.79 53.79,78.48 53.79,79.33 L53.79,92.46 L38.88,77.79 L52.25,77.79 Z" id="Path"></path>
                <path d="M37.59,60.31 L37.59,72.61 C37.59,73.75 38.5,74.67 39.64,74.67 L51.94,74.67 C53.08,74.67 54,73.75 54,72.61 L54,60.31 C54,59.17 53.08,58.25 51.94,58.25 L39.64,58.25 C38.5,58.25 37.58,59.17 37.58,60.31 L37.59,60.31 Z" id="Path"></path>
                <path d="M78.42,54.46 C77.57,54.46 76.88,53.77 76.88,52.92 L76.88,39.79 L91.79,54.46 L78.42,54.46 Z" id="Path"></path>
                <path d="M59.64,38.26 L71.94,38.26 C73.08,38.26 74,39.17 74,40.31 L74,52.61 C74,53.75 73.08,54.67 71.94,54.67 L59.64,54.67 C58.5,54.67 57.58,53.75 57.58,52.61 L57.58,40.31 C57.58,39.17 58.5,38.25 59.64,38.25 L59.64,38.26 Z" id="Path"></path>
            </g>
            <polygon id="Path" fill="#E31E24" points="42.86 17 40.74 14.88 54.88 0.740002 57 2.86"></polygon>
            <polygon id="Path" fill="#E31E24" points="2.86 57 0.74 54.88 14.88 40.74 17 42.86"></polygon>
            <polygon id="Path" fill="#EF7F1A" points="40.74 86.86 42.86 84.74 57 98.88 54.88 101"></polygon>
            <polygon id="Path" fill="#EF7F1A" points="84.74 42.86 86.86 40.74 101 54.88 98.88 57"></polygon>
        </g>
    </g>
</svg>