<?xml version="1.0" encoding="UTF-8"?>
<svg width="102px" height="102px" viewBox="0 0 102 102" version="1.1" xmlns="http://www.w3.org/2000/svg" xmlns:xlink="http://www.w3.org/1999/xlink">
    <title>brick_cube_9_2</title>
    <g id="Brick_cube" stroke="none" stroke-width="1" fill="none" fill-rule="evenodd">
        <g id="brick_cube_9_2" transform="translate(0.000000, 1.000000)" fill-rule="nonzero">
            <polygon id="Path" stroke="#000000" stroke-width="0.5" fill="#000000" points="101 60 61 100 1 40 41 0"></polygon>
            <g id="Group-7" transform="translate(1.000000, 0.000000)">
                <polygon id="Path" fill="#000000" points="40 40 40 0 60 20 60 40 100 40 80 60 60 60 60 80 40 100 40 60 20 60 0 40"></polygon>
                <path d="M58.2,43.85 L58.2,56.15 C58.2,57.29 57.29,58.21 56.15,58.21 L43.85,58.21 C42.71,58.21 41.79,57.29 41.79,56.15 L41.79,43.85 C41.79,42.71 42.71,41.79 43.85,41.79 L56.15,41.79 C57.29,41.79 58.21,42.71 58.21,43.85 L58.2,43.85 Z" id="Path" fill="#FFED00"></path>
                <path d="M42.33,82.54 C42.33,81.69 43.02,81 43.87,81 L57,81 L42.33,95.91 L42.33,82.54 Z" id="Path" fill="#FFED00"></path>
                <path d="M58.2,63.85 L58.2,76.15 C58.2,77.29 57.29,78.21 56.15,78.21 L43.85,78.21 C42.71,78.21 41.79,77.29 41.79,76.15 L41.79,63.85 C41.79,62.71 42.71,61.79 43.85,61.79 L56.15,61.79 C57.29,61.79 58.21,62.71 58.21,63.85 L58.2,63.85 Z" id="Path" fill="#FFED00"></path>
                <path d="M18.2,43.33 C18.2,42.48 17.52,41.79 16.67,41.79 L3.54,41.79 L18.2,56.71 L18.2,43.33 Z" id="Path" fill="#FFED00"></path>
                <path d="M36.15,41.8 L23.85,41.8 C22.71,41.8 21.79,42.71 21.79,43.85 L21.79,56.15 C21.79,57.29 22.71,58.21 23.85,58.21 L36.15,58.21 C37.29,58.21 38.21,57.29 38.21,56.15 L38.21,43.85 C38.21,42.71 37.29,41.79 36.15,41.79 L36.15,41.8 Z" id="Path" fill="#FFED00"></path>
                <path d="M81.33,43.54 C81.33,42.69 82.02,42 82.87,42 L96,42 L81.33,56.91 L81.33,43.54 Z" id="Path" fill="#FFED00"></path>
                <path d="M63.85,58.2 L76.15,58.2 C77.29,58.2 78.21,57.29 78.21,56.15 L78.21,43.85 C78.21,42.71 77.29,41.79 76.15,41.79 L63.85,41.79 C62.71,41.79 61.79,42.71 61.79,43.85 L61.79,56.15 C61.79,57.29 62.71,58.21 63.85,58.21 L63.85,58.2 Z" id="Path" fill="#FFED00"></path>
                <path d="M43.33,18.2 C42.48,18.2 41.79,17.52 41.79,16.67 L41.79,3.54 L56.71,18.2 L43.33,18.2 Z" id="Path" fill="#FFED00"></path>
                <path d="M41.8,36.15 L41.8,23.85 C41.8,22.71 42.71,21.79 43.85,21.79 L56.15,21.79 C57.29,21.79 58.21,22.71 58.21,23.85 L58.21,36.15 C58.21,37.29 57.29,38.21 56.15,38.21 L43.85,38.21 C42.71,38.21 41.79,37.29 41.79,36.15 L41.8,36.15 Z" id="Path" fill="#FFED00"></path>
            </g>
            <polygon id="Path" fill="#E31E24" points="17 58.14 14.88 60.26 0.739998 46.12 2.86 44"></polygon>
            <polygon id="Path" fill="#EF7F1A" points="46.86 100.26 44.74 98.14 58.88 84 61 86.12"></polygon>
            <polygon id="Path" fill="#E31E24" points="86.86 60.26 84.74 58.14 98.88 44 101 46.12"></polygon>
            <polygon id="Path" fill="#EF7F1A" points="61 14.14 58.88 16.26 44.74 2.12 46.86 0"></polygon>
        </g>
    </g>
</svg>