<?xml version="1.0" encoding="UTF-8"?>
<svg width="210px" height="100px" viewBox="0 0 210 100" version="1.1" xmlns="http://www.w3.org/2000/svg" xmlns:xlink="http://www.w3.org/1999/xlink">
    <title>brick_cube_2_3</title>
    <g id="Brick_cube" stroke="none" stroke-width="1" fill="none" fill-rule="evenodd">
        <g id="brick_cube_2_3" fill-rule="nonzero">
            <polygon id="Path" fill="#000000" points="112.08 19.28 121.18 80.88 175.83 99.92 209.75 67.42 209.75 7.50001 154.65 0.140015"></polygon>
            <path d="M0.41925008,83.4 L3.47998,25.85 C3.50998,25.33 3.83998,24.89 4.27998,24.68 L48.52,0.710005 C49.16,0.360005 51.42,0.820005 51.88,1.09 L95.71,25.37 C96.19,25.62 96.46,26.11 96.45,26.59 L99.3502007,83.54 C99.37,84.16 97.89,86.02 97.29,86.15 L50.05,99.95 C49.77,100.02 49.49,100.02 49.24,99.95 L3.47998,86 C2.89998,85.84 0.369981,84.49 0.41925008,83.4 L0.41925008,83.4 Z" id="Path" fill="#000000"></path>
            <polygon id="Path" fill="#696969" points="49.6 64.95 32.87 71.05 33.21 50.43 49.51 43.99 49.59 64.95"></polygon>
            <polygon id="Path" fill="#696969" points="30.91 71.56 16.03 77.44 16.5 58.05 31.19 51.36"></polygon>
            <polygon id="Path" fill="#696969" points="13.97 78.2 1.40997 83.16 2.30997 64 14.8 58.82 13.97 78.18"></polygon>
            <polygon id="Path" fill="#696969" points="49.41 41.86 33.23 48.33 33.85 29.33 49.41 21.58"></polygon>
            <polygon id="Path" fill="#0062AC" points="31.13 49.17 16.83 55.59 17.87 36.82 31.79 30.05"></polygon>
            <polygon id="Path" fill="#696969" points="15.13 56.4 2.54999 61.9 3.56999 44.12 16 38.03"></polygon>
            <polygon id="Path" fill="#696969" points="49.28 19.57 33.7 27.31 34.45 9.57001 49.2 1.48001 49.27 19.58"></polygon>
            <polygon id="Path" fill="#696969" points="31.68 27.95 17.79 34.78 18.57 17.85 32.42 10.53"></polygon>
            <polygon id="Path" fill="#696969" points="15.77 35.74 3.48999 42.09 4.49999 25.53 16.41 19.29"></polygon>
            <polygon id="Path" fill="#696969" points="68.19 71.13 51.46 65.04 51.49 43.91 67.52 50.76"></polygon>
            <polygon id="Path" fill="#696969" points="84.62 77.6 70.06 71.85 69.36 51.43 83.77 57.8"></polygon>
            <polygon id="Path" fill="#696969" points="98.35 83.31 86.52 78.23 85.68 58.87 97.47 64.62 98.35 83.32"></polygon>
            <polygon id="Path" fill="#696969" points="67.64 48.8 51.42 41.83 51.44 21.59 67.02 29.14 67.64 48.79"></polygon>
            <polygon id="Path" fill="#EF7F1A" points="83.6 55.4 69.5 49.53 68.9 30.28 82.9 36.86"></polygon>
            <polygon id="Path" fill="#696969" points="97.12 62.18 85.45 56.56 84.77 37.96 96.27 44.04"></polygon>
            <polygon id="Path" fill="#696969" points="67.08 27 51.26 19.41 51.17 1.84 67.13 10.8"></polygon>
            <polygon id="Path" fill="#696969" points="82.84 34.8 69 28.14 68.88 12 82.32 19.14"></polygon>
            <polygon id="Path" fill="#696969" points="96.08 41.56 84.67 35.84 84.27 20.31 95.42 26.19"></polygon>
            <polygon id="Path" fill="#696969" points="66.97 73 50.56 78.97 34.03 73.21 50.53 67.28"></polygon>
            <polygon id="Path" fill="#FFFFFF" points="47.92 79.71 32.87 84.59 17.45 79.66 31.82 73.89"></polygon>
            <polygon id="Path" fill="#696969" points="30.63 85.52 19.21 89.12 4.01001 84.72 15.32 80.34 30.62 85.52"></polygon>
            <polygon id="Path" fill="#696969" points="48 90.88 36.66 94.4 21.9 89.97 32.85 86.37 47.98 90.87"></polygon>
            <polygon id="Path" fill="#FFED00" points="64.23 85.43 50.05 90.16 35.52 85.56 50.24 80.68 64.24 85.43"></polygon>
            <polygon id="Path" fill="#696969" points="83.77 79.69 67.21 84.69 53.08 79.91 69.05 74.11"></polygon>
            <polygon id="Path" fill="#696969" points="96.83 84.94 80.93 89.6 69.48 85.56 85.48 80.36 96.82 84.94"></polygon>
            <polygon id="Path" fill="#696969" points="79.06 90.46 64.18 94.63 52.3 90.87 66.74 86.17 79.06 90.47"></polygon>
            <polygon id="Path" fill="#696969" points="61.49 95.19 49.64 98.64 38.17 95.39 49.93 91.54"></polygon>
            <polygon id="Path" fill="#696969" points="173.03 32.18 185.35 24.3 186.04 45 173.96 54.18"></polygon>
            <polygon id="Path" fill="#696969" points="186.94 23.14 198.14 16.14 198.14 36.08 187.66 43.66"></polygon>
            <polygon id="Path" fill="#696969" points="199.69 15.25 208.92 9.35001 208.92 28.2 199.69 35.34"></polygon>
            <polygon id="Path" fill="#696969" points="174.38 56.8 186.16 47.87 186.79 66.61 175.5 76.51 174.38 56.81"></polygon>
            <polygon id="Path" fill="#EF7F1A" points="187.93 46.33 198.26 38.45 198.57 56.95 188.37 65.57"></polygon>
            <polygon id="Path" fill="#696969" points="200.02 37.4 208.86 30.55 208.86 48.14 200.06 55.77 200.02 37.39"></polygon>
            <polygon id="Path" fill="#696969" points="175.66 79.2 187.05 69.3 187.59 87.3 176.46 97.78 175.66 79.19"></polygon>
            <polygon id="Path" fill="#696969" points="188.6 67.85 198.72 59.31 198.72 76.68 188.92 85.99"></polygon>
            <polygon id="Path" fill="#696969" points="200.2 58.15 208.92 50.49 209.01 66.96 200.21 75.36 200.21 58.15"></polygon>
            <polygon id="Path" fill="#696969" points="155.44 74.08 173.32 79.73 174.48 98.39 156.93 92.17"></polygon>
            <polygon id="Path" fill="#696969" points="136.53 68.27 153.07 73.57 154.7 91.56 138.67 85.98 136.53 68.28"></polygon>
            <polygon id="Path" fill="#696969" points="119.36 63.07 134.44 67.79 136.46 85.13 121.86 80.08"></polygon>
            <polygon id="Path" fill="#696969" points="151.54 28.62 170.74 32.72 171.76 54.45 153.19 49.75"></polygon>
            <polygon id="Path" fill="#696969" points="131.28 24.53 148.81 28.19 150.93 49.2 133.68 44.83"></polygon>
            <polygon id="Path" fill="#696969" points="113.26 20.93 129.1 24.14 131.4 44.16 116.11 40.48"></polygon>
            <polygon id="Path" fill="#696969" points="153.66 52.4 172.12 57.22 173.1 77.17 155 71.73 153.66 52.41"></polygon>
            <path d="M23.87,20.13 C23.37,20.37 23.17,20.97 23.4,21.47 C23.64,21.97 24.24,22.17 24.73,21.94 L23.87,20.14 L23.87,20.13 Z M21.17,61.4 C20.83,61.84 20.92,62.47 21.36,62.8 L28.52,68.24 C28.96,68.58 29.59,68.49 29.92,68.05 C30.26,67.61 30.17,66.99 29.73,66.65 L23.36,61.81 L28.2,55.44 C28.54,55 28.45,54.38 28.01,54.04 C27.57,53.71 26.94,53.79 26.61,54.24 L21.17,61.4 L21.17,61.4 Z M24.3,21.04 L24.73,21.94 L24.74,21.94 L24.78,21.92 L24.93,21.85 L25.53,21.6 C26.06,21.4 26.82,21.13 27.73,20.87 C29.55,20.37 31.93,19.94 34.26,20.2 C36.58,20.46 38.82,21.4 40.51,23.57 C42.21,25.77 43.45,29.38 43.45,35.19 L45.45,35.19 C45.45,29.13 44.16,25.03 42.09,22.35 C39.99,19.65 37.21,18.52 34.49,18.22 C31.79,17.91 29.13,18.4 27.19,18.95 C26.2,19.22 25.39,19.51 24.8,19.74 C24.52,19.85 24.29,19.94 24.13,20.02 L23.95,20.1 L23.9,20.12 L23.88,20.13 L24.3,21.03 L24.3,21.04 Z M43.44,35.19 C43.44,46.68 38.04,53.09 32.65,56.67 C29.94,58.47 27.22,59.56 25.18,60.2 C24.16,60.52 23.31,60.72 22.72,60.85 L22.05,60.98 L21.88,61 L21.84,61 L21.83,61 L21.96,62 L22.1,62.98 L22.18,62.98 L22.38,62.94 L23.14,62.79 C23.78,62.66 24.69,62.44 25.77,62.09 C27.95,61.42 30.85,60.26 33.76,58.32 C39.61,54.43 45.45,47.44 45.45,35.18 L43.45,35.18 L43.44,35.19 Z" id="Shape" fill="#FFFFFF"></path>
            <polygon id="Path" fill="#0062AC" points="134.14 47.39 151.21 51.6 152.82 71.02 136.42 66.05"></polygon>
            <polygon id="Path" fill="#696969" points="116.27 42.5 131.87 46.85 134.15 65.42 119 60.86 116.26 42.51"></polygon>
            <polygon id="Path" fill="#696969" points="165.1 19.43 183.72 22.7 171.36 30.58 151.89 26.72 165.11 19.42"></polygon>
            <polygon id="Path" fill="#696969" points="178.32 11.92 196.4 14.77 185.43 21.69 166.81 18.39 178.31 11.92"></polygon>
            <polygon id="Path" fill="#696969" points="190.21 5.50999 207.69 7.93999 198.02 13.91 180.28 11.16"></polygon>
            <polygon id="Path" fill="#696969" points="171.65 2.98001 187.66 5.20001 177.54 10.89 160.75 8.29001 171.65 2.99001"></polygon>
            <polygon id="Path" fill="#FFFFFF" points="159.34 9.07001 175.94 11.67 164.34 18 147.34 15.03"></polygon>
            <polygon id="Path" fill="#FFFFFF" points="145.53 15.85 162.83 18.85 149.47 26.23 131.88 22.71"></polygon>
            <polygon id="Path" fill="#696969" points="127.85 12.85 143.27 15.53 129.75 22.21 114.11 19.07"></polygon>
            <polygon id="Path" fill="#696969" points="141.96 6.38 157.32 8.69 145.15 14.73 129.63 12.02"></polygon>
            <polygon id="Path" fill="#696969" points="154.73 0.660004 169.37 2.7 158.72 7.96 143.68 5.69"></polygon>
        </g>
    </g>
</svg>