<?xml version="1.0" encoding="UTF-8"?>
<svg width="98px" height="100px" viewBox="0 0 98 100" version="1.1" xmlns="http://www.w3.org/2000/svg" xmlns:xlink="http://www.w3.org/1999/xlink">
    <title>v5x5_begin_1_6</title>
    <g id="Begin_5x5" stroke="none" stroke-width="1" fill="none" fill-rule="evenodd">
        <g id="v5x5_begin_1_6" fill-rule="nonzero">
            <path d="M0.939297125,15.46875 L45.086262,0.15625 C45.399361,0 45.7124601,0 46.0255591,0.15625 L97.0607029,10.3125 C97.8434505,10.46875 98,10.78125 97.8434505,11.5625 L93.1469649,68.59375 C93.1469649,69.0625 92.9904153,69.21875 92.6773163,69.53125 L57.4536741,99.53125 C56.9840256,99.84375 56.6709265,100 56.201278,99.6875 L7.98402556,75.46875 C7.82747604,75.3125 7.67092652,75.15625 7.67092652,75 L0.156549521,17.03125 C7.77156117e-16,16.40625 0.156549521,16.09375 0.939297125,15.78125 L0.939297125,15.46875 Z" id="Path" fill="#000000"></path>
            <polygon id="Path" fill="#696969" points="54.3226837 23.59375 64.1853035 26.09375 56.6709265 29.84375 46.0255591 27.03125"></polygon>
            <polygon id="Path" fill="#696969" points="63.5591054 19.53125 72.9520767 21.71875 66.3769968 25 56.3578275 22.65625"></polygon>
            <polygon id="Path" fill="#696969" points="72.0127796 15.78125 81.2492013 17.96875 74.9872204 20.78125 65.2811502 18.4375"></polygon>
            <polygon id="Path" fill="#696969" points="79.2140575 12.5 88.6070288 14.375 82.658147 17.1875 73.5782748 15"></polygon>
            <polygon id="Path" fill="#696969" points="86.2587859 9.21875 95.4952077 10.9375 90.3290735 13.59375 80.7795527 11.5625"></polygon>
            <polygon id="Path" fill="#696969" points="42.2683706 20.3125 51.6613419 22.8125 43.5207668 26.25 34.1277955 23.75"></polygon>
            <polygon id="Path" fill="#FFED00" points="52.1309904 16.71875 60.7412141 18.75 53.5399361 21.71875 44.3035144 19.6875"></polygon>
            <polygon id="Path" fill="#FFED00" points="60.428115 13.4375 68.8817891 15.3125 62.7763578 17.8125 53.6964856 15.9375"></polygon>
            <polygon id="Path" fill="#696969" points="68.2555911 10.15625 76.5527157 11.875 70.6038339 14.53125 61.9936102 12.5"></polygon>
            <polygon id="Path" fill="#696969" points="75.3003195 7.03125 83.9105431 8.59375 78.4313099 11.09375 69.8210863 9.375"></polygon>
            <polygon id="Path" fill="#696969" points="31.1533546 17.65625 39.7635783 19.53125 31.6230032 23.125 23.4824281 20.9375"></polygon>
            <polygon id="Path" fill="#FFED00" points="41.0159744 14.21875 49.1565495 16.09375 41.9552716 18.75 33.5015974 16.71875"></polygon>
            <polygon id="Path" fill="#FFED00" points="49.6261981 11.09375 57.7667732 12.8125 51.3482428 15.46875 43.0511182 13.4375"></polygon>
            <polygon id="Path" fill="#696969" points="57.6102236 7.96875 65.5942492 9.6875 59.3322684 12.1875 51.5047923 10.3125"></polygon>
            <polygon id="Path" fill="#696969" points="65.1246006 4.84375 72.9520767 6.5625 67.4728435 8.90625 59.6453674 7.1875"></polygon>
            <polygon id="Path" fill="#696969" points="20.9776358 15.46875 28.8051118 17.1875 21.1341853 20.46875 13.1501597 18.4375"></polygon>
            <polygon id="Path" fill="#696969" points="30.5271565 12.03125 38.0415335 13.75 30.6837061 16.40625 22.85623 14.6875"></polygon>
            <polygon id="Path" fill="#696969" points="39.4504792 8.75 46.8083067 10.625 40.2332268 12.96875 32.4057508 11.25"></polygon>
            <polygon id="Path" fill="#696969" points="47.4345048 5.9375 54.9488818 7.5 48.686901 9.84375 41.3290735 8.125"></polygon>
            <polygon id="Path" fill="#696969" points="55.1054313 2.96875 62.7763578 4.375 56.6709265 6.71875 49 5"></polygon>
            <polygon id="Path" fill="#696969" points="11.5846645 12.96875 18.629393 14.6875 10.3322684 17.8125 3.13099042 15.9375"></polygon>
            <polygon id="Path" fill="#696969" points="21.4472843 9.6875 28.1789137 11.40625 20.5079872 13.90625 13.9329073 12.34375"></polygon>
            <polygon id="Path" fill="#696969" points="30.8402556 6.5625 37.1022364 8.28125 30.2140575 10.625 23.6389776 9.0625"></polygon>
            <polygon id="Path" fill="#696969" points="38.5111821 3.90625 44.9297125 5.46875 38.9808307 7.5 32.2492013 5.9375"></polygon>
            <polygon id="Path" fill="#696969" points="45.7124601 1.09375 53.3833866 2.5 46.8083067 4.6875 39.7635783 3.28125"></polygon>
            <polygon id="Path" fill="#696969" points="44.9297125 30.3125 54.6357827 32.96875 54.4792332 44.53125 44.9297125 41.71875"></polygon>
            <polygon id="Path" fill="#696969" points="32.7188498 27.03125 41.798722 29.53125 41.9552716 40.78125 32.8753994 37.65625"></polygon>
            <polygon id="Path" fill="#696969" points="21.9169329 24.0625 30.2140575 26.40625 30.5271565 37.34375 22.543131 34.84375"></polygon>
            <polygon id="Path" fill="#696969" points="11.428115 21.40625 19.4121406 23.59375 19.8817891 33.75 12.3674121 31.71875"></polygon>
            <polygon id="Path" fill="#696969" points="1.87859425 19.0625 9.0798722 20.9375 9.70607029 30.78125 3.13099042 29.0625"></polygon>
            <polygon id="Path" fill="#696969" points="45.086262 45 54.4792332 48.125 54.6357827 59.21875 45.2428115 55.625"></polygon>
            <polygon id="Path" fill="#696969" points="33.3450479 41.5625 42.1118211 44.53125 42.2683706 54.53125 33.8146965 51.5625"></polygon>
            <polygon id="Path" fill="#696969" points="22.85623 37.96875 30.8402556 40.46875 31.1533546 50.9375 23.4824281 48.125"></polygon>
            <polygon id="Path" fill="#696969" points="12.5239617 34.84375 20.3514377 37.03125 21.1341853 47.1875 13.4632588 44.84375"></polygon>
            <polygon id="Path" fill="#696969" points="3.44408946 31.875 10.3322684 34.0625 11.2715655 43.90625 4.69648562 41.71875"></polygon>
            <polygon id="Path" fill="#696969" points="45.2428115 58.90625 54.4792332 62.34375 54.6357827 72.8125 45.7124601 69.0625"></polygon>
            <polygon id="Path" fill="#696969" points="34.1277955 54.6875 42.5814696 57.8125 42.8945687 67.65625 34.4408946 64.21875"></polygon>
            <polygon id="Path" fill="#E31E24" points="23.7955272 50.78125 31.4664537 53.75 31.9361022 63.125 24.4217252 60.15625"></polygon>
            <polygon id="Path" fill="#696969" points="14.0894569 47.5 21.2907348 50.15625 22.0734824 59.21875 14.8722045 56.5625"></polygon>
            <polygon id="Path" fill="#696969" points="5.16613419 44.21875 11.5846645 46.71875 12.3674121 55.625 6.26198083 53.28125"></polygon>
            <polygon id="Path" fill="#696969" points="46.0255591 72.03125 54.6357827 75.3125 54.7923323 84.84375 46.3386581 81.09375"></polygon>
            <polygon id="Path" fill="#696969" points="34.9105431 67.03125 43.3642173 70.625 43.6773163 80.15625 35.3801917 76.25"></polygon>
            <polygon id="Path" fill="#696969" points="24.8913738 62.96875 32.4057508 65.9375 33.0319489 75 25.6741214 71.5625"></polygon>
            <polygon id="Path" fill="#696969" points="15.6549521 58.90625 22.543131 61.875 23.1693291 70.78125 16.4376997 67.65625"></polygon>
            <polygon id="Path" fill="#696969" points="6.26198083 55.15625 13.1501597 58.125 14.2460064 66.875 7.514377 64.0625"></polygon>
            <polygon id="Path" fill="#696969" points="46.4952077 84.0625 54.9488818 87.65625 55.1054313 97.1875 46.6517572 92.96875"></polygon>
            <polygon id="Path" fill="#696969" points="35.5367412 78.90625 43.6773163 82.65625 43.9904153 91.71875 36.0063898 87.65625"></polygon>
            <polygon id="Path" fill="#696969" points="25.8306709 74.375 33.1884984 77.8125 33.658147 86.40625 26.3003195 82.8125"></polygon>
            <polygon id="Path" fill="#696969" points="16.9073482 70 23.4824281 73.125 24.2651757 81.71875 17.5335463 78.28125"></polygon>
            <polygon id="Path" fill="#696969" points="7.98402556 66.09375 14.715655 69.21875 15.6549521 77.34375 8.76677316 73.90625"></polygon>
            <polygon id="Path" fill="#696969" points="59.0191693 32.8125 66.3769968 29.375 66.2204473 40.78125 58.8626198 45"></polygon>
            <polygon id="Path" fill="#696969" points="68.5686901 28.28125 75.456869 25 74.9872204 35.9375 68.4121406 39.21875"></polygon>
            <polygon id="Path" fill="#696969" points="77.4920128 24.0625 83.4408946 20.9375 82.8146965 31.5625 76.8658147 34.6875"></polygon>
            <polygon id="Path" fill="#696969" points="85.1629393 20 90.798722 17.1875 89.8594249 27.8125 84.5367412 30.625"></polygon>
            <polygon id="Path" fill="#696969" points="92.2076677 16.5625 96.4345048 14.0625 95.6517572 24.6875 91.2683706 26.875"></polygon>
            <polygon id="Path" fill="#696969" points="58.7060703 48.28125 66.2204473 44.0625 66.0638978 54.6875 58.7060703 59.21875"></polygon>
            <polygon id="Path" fill="#696969" points="68.2555911 42.8125 74.9872204 39.21875 74.5175719 49.21875 67.942492 53.4375"></polygon>
            <polygon id="Path" fill="#696969" points="76.8658147 37.8125 82.8146965 34.375 82.1884984 44.21875 76.2396166 48.125"></polygon>
            <polygon id="Path" fill="#696969" points="84.3801917 33.4375 89.8594249 30.3125 89.2332268 39.84375 83.7539936 43.59375"></polygon>
            <polygon id="Path" fill="#696969" points="91.5814696 29.375 95.3386581 27.34375 94.7124601 36.40625 90.798722 38.75"></polygon>
            <polygon id="Path" fill="#696969" points="58.8626198 62.5 65.7507987 57.96875 65.5942492 67.8125 58.5495208 72.96875"></polygon>
            <polygon id="Path" fill="#696969" points="67.629393 56.5625 74.0479233 52.1875 73.5782748 61.71875 67.3162939 66.5625"></polygon>
            <polygon id="Path" fill="#009846" points="75.9265176 50.9375 81.8753994 47.34375 81.0926518 56.71875 75.3003195 60.78125"></polygon>
            <polygon id="Path" fill="#696969" points="83.284345 46.09375 88.4504792 42.8125 87.8242812 51.71875 82.971246 55.46875"></polygon>
            <polygon id="Path" fill="#696969" points="90.172524 41.5625 94.5559105 38.75 93.9297125 47.5 89.5463259 50.625"></polygon>
            <polygon id="Path" fill="#696969" points="59.0191693 75.46875 65.7507987 70.46875 65.4376997 80.15625 59.0191693 85.15625"></polygon>
            <polygon id="Path" fill="#696969" points="67.7859425 69.0625 73.7348243 64.375 73.2651757 73.90625 67.3162939 78.28125"></polygon>
            <polygon id="Path" fill="#696969" points="75.6134185 63.28125 81.0926518 59.21875 80.4664537 67.96875 74.9872204 72.5"></polygon>
            <polygon id="Path" fill="#696969" points="82.658147 57.96875 87.6677316 54.21875 86.884984 62.65625 82.1884984 66.71875"></polygon>
            <polygon id="Path" fill="#696969" points="89.2332268 53.125 93.7731629 49.53125 92.9904153 57.8125 88.4504792 61.71875"></polygon>
            <polygon id="Path" fill="#696969" points="58.5495208 87.96875 65.2811502 82.5 64.9680511 91.40625 58.3929712 97.1875"></polygon>
            <polygon id="Path" fill="#696969" points="67.0031949 81.40625 73.1086262 76.25 72.7955272 84.84375 66.6900958 90"></polygon>
            <polygon id="Path" fill="#696969" points="74.8306709 74.84375 80.3099042 70.46875 79.8402556 78.59375 74.2044728 83.59375"></polygon>
            <polygon id="Path" fill="#696969" points="81.8753994 69.375 86.7284345 65.46875 86.2587859 73.28125 81.4057508 77.65625"></polygon>
            <polygon id="Path" fill="#696969" points="88.1373802 64.375 92.8338658 60.625 92.0511182 68.59375 87.5111821 72.1875"></polygon>
        </g>
    </g>
</svg>